<svg viewBox="0 0 218.07 301.83" xmlns="http://www.w3.org/2000/svg"><path d="m50.59 47.29a41.28 41.28 0 0 0 5.31-1.44 33.91 33.91 0 0 1 6.19-1.32 13.63 13.63 0 0 1 4.63-.46 3 3 0 0 0 1.16-.25c2.46-.62 4.81-1.65 7.42-1.75 2.07-.08 4.09-.68 6.18-.65.45-.08 1.06-.33 1.16.33s-.44.92-1.06 1l-1.17.06a3.16 3.16 0 0 0 -1.51.28 10.79 10.79 0 0 1 -5.29 1.27c-3 .16-6 1.13-9 1.45-1.95.21-4 .17-5.81 1.14-2.28 1.23-4.81 1.71-7.24 2.45-.58.17-1.5.49-2.08-.31l.13-.15a.73.73 0 0 0 .42-.64 1.63 1.63 0 0 1 .56-1.01z" fill="#595959"/><path d="m188.32 45.78c1.68 0 3.3-.52 5-.6a5.36 5.36 0 0 0 1.47-.47 1.59 1.59 0 0 1 1.77.39c-.35.5-.85.41-1.3.46-2.17.22-4.33.5-6.48.9h-.41a3 3 0 0 1 -1.75-.2c0-.35.2-.36.45-.38.4-.03.84.12 1.25-.1z" fill="#686868"/><path d="m218.07 69.58s-.07.13-.12.14-.13 0-.11-.12a.18.18 0 0 1 .06-.08 1.15 1.15 0 0 1 .17.06z" fill="#cacaca"/><path d="m70.48 66.91a.93.93 0 0 1 .23 0c.4-.1.76.2 1.17.12s.94-.16 1 .46-.41.69-.89.67a1.49 1.49 0 0 0 -.53.2 37.68 37.68 0 0 0 -4.22.76 20.22 20.22 0 0 0 -4.23.71c-2.37.81-4.9 1-7.25 1.92a8.73 8.73 0 0 1 -3.67.18 2.71 2.71 0 0 1 1.91-1.26c2-.45 4.17-.36 6.18-1.1 1.26-.46 2.63-.63 3.93-1a16.52 16.52 0 0 0 2.36-.83 12.49 12.49 0 0 1 3-.59c.33-.27.72-.01 1.01-.24z" fill="#595959"/><path d="m96.89 60.15c.6-.37 1.38-.42 1.88-1s1 .39 1.48.07l4-1.35a4.36 4.36 0 0 0 1.27-.65 2.55 2.55 0 0 1 1.25-.42c.24-.15.39 0 .55.15s.16.39.23.58a.55.55 0 0 1 -.11.43c-1.73.9-3.62 1.43-5.37 2.26a.51.51 0 0 1 -.23.07c-1.67-.21-3 1-4.54 1.2-.55.08-1 .53-1.55.6s-.92.29-1.35-.08c-.12-.61.39-.74.75-1 .6-.16 1.05-.75 1.74-.86z" fill="#4c4c4c"/><path d="m79.6 64.7a29.62 29.62 0 0 1 4.51-1.45 4.41 4.41 0 0 1 1.62 0 1.86 1.86 0 0 1 .79.73.64.64 0 0 1 -.21.5 5.16 5.16 0 0 1 -1.81.52 22.52 22.52 0 0 0 -4.64 1.09 4.86 4.86 0 0 1 -2.1.41 7.56 7.56 0 0 0 -3.19.87c-.16.1-.33.18-.49.27-.48.09-.85-.08-.81-.58a1 1 0 0 1 .91-1c1.2 0 2.24-.72 3.43-.79a7.37 7.37 0 0 0 1.99-.57z" fill="#565656"/><path d="m89 62.31.94-.23c.29-.24.69 0 1-.23a.47.47 0 0 1 .59.18c.15.43.69.9-.12 1.24a.65.65 0 0 1 -.2 0c-.3.2-.69 0-1 .2l-1.21.33c-.39.08-.79.35-1.17 0-.17-.28 0-.53.06-.78.11-.58.71-.5 1.11-.71z" fill="#4b4b4b"/><path d="m91.36 63.27a.44.44 0 0 0 -.24-.45c-.25-.15-.23-.34-.05-.53h.18a13.94 13.94 0 0 0 1.8-.57c.47-.19 1-.51 1.45.17a2.82 2.82 0 0 0 1.21.25c-1.38.62-2.92.66-4.35 1.13z" fill="#727272"/><path d="m107.4 58-.19-.23c.21-1.16 1.31-1.23 2.11-1.59s1.49-.46 2.2-.84c.34-.18.77-.35.94.26 0 .49-.43.41-.73.48a3.54 3.54 0 0 0 -1.16.55c-1.09.37-2.06 1.03-3.17 1.37z" fill="#8b8b8b"/><path d="m88 63.55 1 .25a2.26 2.26 0 0 1 -1.55.44 2.67 2.67 0 0 0 -1.15.21v-.45c.4-.82.99-.92 1.7-.45z" fill="#727272"/><path d="m90.17 63.52a1.56 1.56 0 0 1 1-.2 1.38 1.38 0 0 1 -1 .2z" fill="#727272"/><path d="m161.84 37.74a1.26 1.26 0 0 0 -.69.08c-3.81.64-7.64 1.19-11.42 1.93s-7.76.91-11.54 1.94c-.73.2-.56-.28-.48-.68s.1-.84-.54-.78a24.05 24.05 0 0 1 -3.48 1.64 2.59 2.59 0 0 1 -1 .13 7.57 7.57 0 0 0 -3.77.37 8.85 8.85 0 0 0 -1.78-.08c-.56 0-.72.23-.55.74s-.39.58-.61.84a4.74 4.74 0 0 0 -2.43.9c-1.16.12-2.06.88-3.12 1.23-.07.66.27.94.89 1a2.83 2.83 0 0 0 .41 0 8.71 8.71 0 0 0 1-.34l.31-.12c.31-.11.63-.16.94-.28a3.49 3.49 0 0 1 1.09-.31c.87 0 1.9-.58 2.44.65a.45.45 0 0 0 .61.21l3.34-1.47c.55-.14 1.06-.55 1.66-.23l.1.17a5.08 5.08 0 0 1 1.61-.53h.37c.37-.38.94-.34 1.44-.45s.71-.21 1.07-.08a1.44 1.44 0 0 1 .25.18l.46-.21c.18-.12.53 0 .53-.37s-.36-.21-.5-.39-.36-.51.21-.46h.24c1.59-.24 3.21-.32 4.81-.48s3.11-.66 4.66-1 2.95-.61 4.43-.81a10.89 10.89 0 0 0 2.42-.45 13.49 13.49 0 0 1 2.17-.63 8.42 8.42 0 0 1 2.88-.67 5.24 5.24 0 0 0 1.68-.39.44.44 0 0 0 .31-.45c-.03-.27-.2-.35-.42-.35z" fill="#414141"/><path d="m137.71 41a1.65 1.65 0 0 0 -.54-.78 6.67 6.67 0 0 1 .6-.59c.83-.67 1.42-1.61 2.78-1.59a2.22 2.22 0 0 0 2.08-1.54 1.15 1.15 0 0 1 1.21-.79 1.56 1.56 0 0 0 1-.21 36.24 36.24 0 0 1 8.92-4.43c.48-.19.95-.43 1.42-.65a3.23 3.23 0 0 1 1.57-.53 4.65 4.65 0 0 0 2.56-.86 28.53 28.53 0 0 1 4.69-1.93 25.79 25.79 0 0 0 4.44-1.72c.67-.17 1.37-.21 2.05-.34.58.2.55.49.12.83a2.31 2.31 0 0 1 -1 .46 4.38 4.38 0 0 0 -2.06.92 2.25 2.25 0 0 1 -1.21.48 15.48 15.48 0 0 0 -3.82 1.34 23.67 23.67 0 0 1 -4.59 1.7 1.46 1.46 0 0 0 -.45.18 30.7 30.7 0 0 1 -4.68 2.05c-1 .38-1.89 1.06-2.88 1.45-1.53.59-2.78 1.71-4.41 2.1a7.19 7.19 0 0 0 -1.89 1 17.37 17.37 0 0 1 -4.27 2.12 2.77 2.77 0 0 0 -1.64 1.33z" fill="#474747"/><path d="m186.24 19.73a2.09 2.09 0 0 1 -.84.13 6.29 6.29 0 0 0 -2.72.23c-1.47.63-3 1-4.52 1.58a8.57 8.57 0 0 1 -2.73.83 5.21 5.21 0 0 0 -2.66 1 .51.51 0 0 0 -.12.51c.24.43.55.67 1.06.45.3-.23.68-.29 1-.5a6.21 6.21 0 0 1 1.69-.56 19.9 19.9 0 0 0 4.19-.81 2.11 2.11 0 0 0 1-.4 3.07 3.07 0 0 1 2-.72 3.87 3.87 0 0 0 2.13-.65 1.44 1.44 0 0 1 .56-.24 4.72 4.72 0 0 1 -.04-.85z" fill="#494949"/><path d="m128.88 42.37-1.73.11.67.46a.88.88 0 0 1 -1 .27 18.82 18.82 0 0 0 -3.72-.58 42.54 42.54 0 0 0 -4.24-.4 20.89 20.89 0 0 1 -5.91-.54c-2.17-.67-4.33-.43-6.5-.5a7.54 7.54 0 0 1 -1.89-.15 2.75 2.75 0 0 0 -1.87.17 7.32 7.32 0 0 1 -2.68 0 .58.58 0 0 1 -.19 0 1.3 1.3 0 0 0 -1.2 0h-.1-.1c-.55.05-1.21.42-1.45-.47l.69-.33.72.08a.94.94 0 0 0 1 0c2.42-.19 4.85-.09 7.27-.45a9.65 9.65 0 0 1 5 .45 5.28 5.28 0 0 0 2.37.16 11.51 11.51 0 0 1 5.16.78 5.07 5.07 0 0 0 3.06.06 4.65 4.65 0 0 1 2.48-.05 22.75 22.75 0 0 0 4.16.93z" fill="#5a5a5a"/><path d="m172.77 23.49.19.2c.24 1.27-.91 1.15-1.54 1.55-.35.22-.76-.13-1.09.13a3.68 3.68 0 0 1 -1.92 0c1.49-.54 2.74-1.65 4.36-1.88z" fill="#888"/><path d="m99.29 40.49a.9.9 0 0 1 -1 0z" fill="#747474"/><path d="m96.92 40.76a2.61 2.61 0 0 0 1.45.47 3.14 3.14 0 0 1 -1.18.19c-4.35.16-8.7.17-13 .65a21.14 21.14 0 0 1 -4.06.11c.6-.36 1.35-.14 2-.38-.13-.39-.41-.3-.61-.38.74-.32 1.5 0 2.25-.1 2.49-.21 5-.38 7.49-.54a25.27 25.27 0 0 1 5.66-.02z" fill="#747474"/><path d="m120.4 46a2.8 2.8 0 0 0 1.21.26.43.43 0 0 1 -.2.69 19.4 19.4 0 0 1 -3 1.16 73.88 73.88 0 0 0 -7.64 1.43 22.7 22.7 0 0 1 -4.48.58 2 2 0 0 0 -1.7.6.82.82 0 0 1 -.68.34c-2.12-.13-4.07.79-6.12 1.11-1.52.24-3 .87-4.52 1-.88.06-1.74.22-2.62.25l-2.13.09a1.47 1.47 0 0 1 -.59 0c-2.1-.84-3.82.26-5.59 1.1l-.33.14c-.2-.3.13-.39.23-.58a34.26 34.26 0 0 1 4.11-1.94 5.88 5.88 0 0 1 3.86-.32 5.51 5.51 0 0 0 2.85 0c2.25-.56 4.48-1.16 6.74-1.68 1.44-.32 2.91-.53 4.36-.77a29.11 29.11 0 0 0 4.33-1 8.15 8.15 0 0 1 2.94-.45 3.18 3.18 0 0 0 1.4-.26 23.49 23.49 0 0 1 6.39-1.54c.39-.07.78-.15 1.18-.21z" fill="#565656"/><path d="m49.57 59.36.75-.39a9.94 9.94 0 0 1 4.89-.57 2.11 2.11 0 0 0 1-.24 53.68 53.68 0 0 1 12-2.51 3.94 3.94 0 0 1 .84 0 10.77 10.77 0 0 0 5.7-1c.35 0 .77 0 .77.52a14.91 14.91 0 0 0 -4.14 1.46 6.22 6.22 0 0 1 -3 .62 34.57 34.57 0 0 0 -6.18.48 41.28 41.28 0 0 0 -6 1.21c-.69.2-1.36.45-2 .69a5.1 5.1 0 0 1 -2.71.19.81.81 0 0 0 -1-.17l-1 .3c-.6-.13.12-.39.08-.59z" fill="#565656"/><path d="m75.58 55.17-.77-.52a5.59 5.59 0 0 1 4.82-.65 6.37 6.37 0 0 0 2.61.09l-.23.58a8.75 8.75 0 0 1 -3.55 1.16 2 2 0 0 1 -1.26-.18 11.71 11.71 0 0 0 -1.51-.52z" fill="#4e4e4e"/><path d="m100 41.24a15 15 0 0 1 2.68 0 3 3 0 0 1 -2.68 0z" fill="#747474"/><path d="m98.57 41.22a1.11 1.11 0 0 1 1.2 0z" fill="#747474"/><path d="m74.12 67.4a5.49 5.49 0 0 1 -2.43.69l.69-.49c-.65-.21-1.29-.21-1.67-.73 3-.76 5.77-2.09 8.89-2.17a10.52 10.52 0 0 1 -5 1.64c-.66.02-.74.27-.48 1.06z" fill="#727272"/><path d="m91.07 62.29-.18-.44a2.61 2.61 0 0 1 1.73-.65 6.47 6.47 0 0 0 2-.48 7.67 7.67 0 0 1 2.31-.57c-.6.27-.7 1.11-1.43 1.23a29 29 0 0 0 -3.41.9c-.29.07-.59.29-.9.06z" fill="#707070"/><path d="m110.11 55.15c1-.22 1.84-.94 2.84-1.24a.53.53 0 0 1 .47.29.48.48 0 0 1 -.37.6c-2 .77-4 1.8-6.08 2.49l-.24-.47c.74-.52 1.69-.62 2.41-1.18a1 1 0 0 1 1-.49z" fill="#818181"/><path d="m89 62.31a2.24 2.24 0 0 0 -.74.76 5.11 5.11 0 0 1 -3.08.72c-.1-.66-.65-.44-1-.54 1.52-.46 3.17-.62 4.82-.94z" fill="#727272"/><path d="m100.25 59.24c-.51.33-1 .06-1.48-.07a3.38 3.38 0 0 1 .4-.44c.32-.26.63-.41.74.2.03.17.2.24.34.31z" fill="#7a7a7a"/><path d="m106.73 56.82a2.74 2.74 0 0 1 -1.25.42 1 1 0 0 1 1.25-.42z" fill="#818181"/><path d="m75.69 55.15a2.35 2.35 0 0 1 1.51.52 3.14 3.14 0 0 1 -1.51-.52z" fill="#565656"/><path d="m50.58 59.65a.65.65 0 0 1 1 .17l-.49-.14z" fill="#717171"/><path d="m70.48 66.91a1.56 1.56 0 0 1 -1 .21 2 2 0 0 1 1-.21z" fill="#727272"/><path d="m90.89 61.85a1.54 1.54 0 0 1 -1 .23 1.76 1.76 0 0 1 1-.23z" fill="#707070"/><path d="m157.38 39.57a6 6 0 0 1 2.4-.94c.64-.16 1.29-.28 1.94-.42-.07-.43-.38-.3-.57-.39 1.28-.27 2.56-.58 3.85-.8 1.93-.34 3.73-1.15 5.65-1.51a6.1 6.1 0 0 1 1.9-.14 6.12 6.12 0 0 0 3.72-.64 26.34 26.34 0 0 1 7.73-2.37 5.38 5.38 0 0 0 2.42-.95 12 12 0 0 0 2.3.17c-.21.51-.62.69-.87 1-.92 1.07-2.11.16-3.14.43a13.75 13.75 0 0 0 -3.1.75c-.55.2-1.14.28-1.69.48-1.81.93-3.81 1.33-5.68 2.07a11 11 0 0 1 -4.21.46 15.35 15.35 0 0 0 -3.72.86c-1.58.41-3.1 1-4.71 1.33a6.3 6.3 0 0 1 -1.89.19c-.8-.07-1.53.41-2.33.42z" fill="#575757"/><path d="m170.33 25.37c.64-.32 1.27-.66 1.92-.95a1 1 0 0 0 .71-.73 2.47 2.47 0 0 0 .75.76 6.4 6.4 0 0 1 -3.13 1.42.44.44 0 0 0 -.25-.5z" fill="#606060"/><path d="m173.7 24.45a1.66 1.66 0 0 1 1-.5 1.26 1.26 0 0 1 -1 .5z" fill="#606060"/><path d="m186.65 46.25-.27.2c-1.24 0-2.46.21-3.7.27a44.15 44.15 0 0 1 -5.75-.11c-1.68-.12-3.36 0-5-.06a79.34 79.34 0 0 1 -11.83-.44 26.91 26.91 0 0 0 -4.31-.08 4.35 4.35 0 0 1 -1.76-.24c0-.39.25-.44.57-.34a.54.54 0 0 0 .65-.14 71.5 71.5 0 0 1 8 .41 87.13 87.13 0 0 0 8.85.29c2.87 0 5.75.08 8.62.22 1.92.09 3.81-.27 5.73-.37a15 15 0 0 1 1.9-.08z" fill="#828282"/><path d="m155.21 45.31c.08.13.42.31.07.41a6.13 6.13 0 0 1 -1.29.07 31.38 31.38 0 0 1 -6.42-.51 15.84 15.84 0 0 0 -3.22-.12 7.21 7.21 0 0 1 -2.59-.23c-1.11-.33-2.32-.23-3.35-.82a.58.58 0 0 0 0-.78 11.85 11.85 0 0 1 2.68.51 6.14 6.14 0 0 0 3.43.18 1.59 1.59 0 0 1 1.26.11 2.53 2.53 0 0 0 2 .2 2.77 2.77 0 0 1 1.75.12 6.42 6.42 0 0 0 3.87.4 2.88 2.88 0 0 1 1.81.46z" fill="#626262"/><path d="m138.89 42.9a14.18 14.18 0 0 1 4.81-.48c-1 .51-2.11.18-3.15.43a8.34 8.34 0 0 1 -1.66.05z" fill="#626262"/><path d="m179.92 34.25a3.16 3.16 0 0 1 1.69-.48 3.07 3.07 0 0 1 -1.69.48z" fill="#bebebe"/><path d="m138.45 43.36c-.17-.26-.37-.53.2-.47z" fill="#626262"/><path d="m125.2 48 .46-.28c.42-.13.76-.17.48.45a49 49 0 0 1 -8.08 4.42c-.47.16-1 .23-1.2-.32s.33-.67.66-.9.48-.35.71-.54a4.52 4.52 0 0 1 2.91-1.17 3.73 3.73 0 0 0 1.85-.77 10.72 10.72 0 0 1 1.25-.68c.28-.29.68-.03.96-.21z" fill="#4d4d4d"/><path d="m107 57.29a49.43 49.43 0 0 1 4.58-2.21 7.26 7.26 0 0 0 1.66-.91c.35-.56 1-.63 1.51-.87a9.09 9.09 0 0 0 1.71-.78c.51-.37.85-.25.88.43l-.74.51a7.22 7.22 0 0 1 -3.09 2.31c-.43.18-.89.45-1.23-.16a15.62 15.62 0 0 0 -5 2.14c-.34-.06-.43-.21-.28-.46z" fill="#b0b0b0"/><path d="m117.31 53c-.34-.32-.66-.11-1 0l-3.11 1.2-.26-.26c.63-.67 1.59-.67 2.33-1.13.19-.13.59-.17.54-.39-.25-1.22.81-1 1.39-1.33a5.68 5.68 0 0 1 1-.28 9 9 0 0 1 -.47.78c-.44.59-.44.58.3 1a1.36 1.36 0 0 1 -.72.41z" fill="#6b6b6b"/><path d="m126.14 48.12a1.1 1.1 0 0 0 -.48-.45l.76-.65c.25-.26.68-.21.88-.54l.29-.3c.08-.1.16-.09.22 0l.3.55a10.31 10.31 0 0 1 -1.97 1.39z" fill="#6b6b6b"/><path d="m131.45 45.29a1.37 1.37 0 0 1 1.68-.22z" fill="#494949"/><path d="m122.83 45.81a1.71 1.71 0 0 1 -1.22.45 1 1 0 0 1 1.22-.45z" fill="#565656"/><path d="m137.91 44.15a4.07 4.07 0 0 1 -1.19-.29 1.5 1.5 0 0 1 1.19.29z" fill="#626262"/><path d="m123.8 45.54a1.27 1.27 0 0 1 -1 .27 1.58 1.58 0 0 1 1-.27z" fill="#565656"/><path d="m127.3 46.48a1.2 1.2 0 0 1 -.88.54 1.72 1.72 0 0 1 .88-.54z" fill="#b5b5b5"/><path d="m125.2 48a1.53 1.53 0 0 1 -1 .21 1.62 1.62 0 0 1 1-.21z" fill="#6b6b6b"/><path d="m180.66 184a34.57 34.57 0 0 0 3.08-3.43 8.55 8.55 0 0 1 2.37-1.94c.52.26.9 0 1.26-.33a3.55 3.55 0 0 1 1.4-.82c-.63.6-1.23 1.24-1.89 1.79a7.44 7.44 0 0 0 -1.91 2.27 2.56 2.56 0 0 1 -.48.51c-1.41 1.25-3 2.28-4.31 3.63-.27.27-.53.75-.93.32s.15-.62.36-.86c.39-.35.74-.68 1.05-1.14z" fill="#636363"/><path d="m191 176.09a1.05 1.05 0 0 1 -1 .47 2 2 0 0 1 1-.47z" fill="#636363"/><path d="m189.73 176.8a.76.76 0 0 1 -.68.47 1.3 1.3 0 0 1 .68-.47z" fill="#636363"/><path d="m144.39 226-6.18 2c-2.85.8-5.84.69-8.74 1.3a9.76 9.76 0 0 1 -3.7.17c-.07-.06 0-.2-.13-.2 0 .2-.1.39-.24.4-1.44.19-2.88.88-4.33.05-.67-.38-1.39-.14-2.1-.16a1 1 0 0 1 -.67.21c-2.39-.46-4.87.31-7.22-.39-1.94-.58-3.81-.07-5.66.14a16.9 16.9 0 0 1 -4.93-.2c-.7-.12-1.34 0-2 0-1.21-.11-1.78-.6-1.71-1.54 1-1 2.26-.34 3.4-.38 2.81-.26 5.64-.17 8.46-.33a39 39 0 0 1 10.16.4c2.49.51 5.09.13 7.64.16a15 15 0 0 1 3.14.17 3.37 3.37 0 0 0 2.54-.36 11.86 11.86 0 0 1 2.65-.68 65.8 65.8 0 0 0 10-2.46c1.12-.33 2.15-.88 3.28-1.14.7.26.72.63.21 1.13a4.86 4.86 0 0 1 -1.89.87 8.9 8.9 0 0 0 -1 .52 6.78 6.78 0 0 1 -.98.32z" fill="#454545"/><path d="m166.44 206c.07-.18.14-.37.23-.56a3.83 3.83 0 0 1 1-1.36 5.36 5.36 0 0 1 .77-.81 2.09 2.09 0 0 1 .16-.29 4.08 4.08 0 0 1 .81-.9l1.35-1.5a1.4 1.4 0 0 0 .21-1.31c0-.84 1.16-1.1 1-2-.29-.62-.71-.55-1.19-.24a1.51 1.51 0 0 0 -.57.58c-.7 1.22-1.42 2.43-2.13 3.65a2.07 2.07 0 0 1 -1.72 1.07 29.9 29.9 0 0 0 -3.77.38c.14.81-.46.36-.73.41a3.46 3.46 0 0 1 -.72 0c-2.24 0-4.39.76-6.64.73-.39 0-.56.22-.48.62a2 2 0 0 0 2.19 1 8.54 8.54 0 0 1 2-.12 13 13 0 0 0 4.56-.11c1-.5 1.31.26 1.74.84l.11.11c.07.08.12.16.18.24s.1.19.14.28c.33.4.57.26.78-.12l.49-.46z" fill="#424242"/><path d="m170.8 200.56c-.11-.39-.54-.72-.25-1.19 1.73-2.13 4.35-3.23 6.09-5.35a3.52 3.52 0 0 1 1.39-.88 39.61 39.61 0 0 0 3.2-2.88 130.21 130.21 0 0 1 10.32-8c.95-.66 2-1.13 3-1.73 1.34-.8 2.65-1.65 4-2.47a3.13 3.13 0 0 1 1.31-.56c.24-.09.31 0 .23.23a43.64 43.64 0 0 1 -5 3.21 34.1 34.1 0 0 0 -5.54 3.9 13.49 13.49 0 0 1 -1.42 1.1 49.3 49.3 0 0 0 -5.92 5c-.76.69-1.66 1.22-2.45 1.9-1.6 1.37-3.29 2.64-4.89 4a33.34 33.34 0 0 0 -2.42 2.48 6 6 0 0 1 -1.65 1.24z" fill="#6e6e6e"/><path d="m96.89 228a1.87 1.87 0 0 0 1.64.85c1.58-.09 3.06.48 4.61.58a3.67 3.67 0 0 0 1.19 0c1.33-.33 2.71-.23 4-.47a4.5 4.5 0 0 1 1.79.07 17.69 17.69 0 0 0 4.29.35 12.86 12.86 0 0 1 2.63.15 3.47 3.47 0 0 0 1.89-.14c.17.08.18.18 0 .28a2.25 2.25 0 0 1 -1.64.17 17.22 17.22 0 0 0 -3.93 0 8.88 8.88 0 0 1 -3-.4 4.11 4.11 0 0 0 -1.88-.09 37.66 37.66 0 0 1 -6.19.52c-.57 0-1.09-.24-1.65-.26a2 2 0 0 0 -1.57-.1 4.41 4.41 0 0 1 -2.55-.3 5.17 5.17 0 0 0 -2.56.06 8.67 8.67 0 0 1 -3.77-.36 5.27 5.27 0 0 0 -.57-.14c-1.31-.08-2.65.09-3.88-.57l-.29-.24c-.15-.14-.36-.22-.37-.47a.52.52 0 0 1 .18-.36c.83-.31 1.54.21 2.3.35 1 .17 1.88.46 2.79-.15h1.4a2.23 2.23 0 0 0 .37 0 5.24 5.24 0 0 0 2.33 0h.59c.73.09 1.57-.43 1.85.67z" fill="#585858"/><path d="m180.66 184c-.18.66-.85 1-1 1.71a24.76 24.76 0 0 0 2.17-1.75c.65-.66 1.49-1.05 2.11-1.73.12-.12.37-.12.56-.18a13.64 13.64 0 0 1 -2.65 2.38 7.79 7.79 0 0 0 -.82.68c-1.18 1.5-2.66 2.72-3.75 4.31a35.57 35.57 0 0 1 -2.46 2.9c-.18.21-.49.38-.48.66 0 .95-.62 1.5-1.14 2.13a.5.5 0 0 1 -.29-.16 6.9 6.9 0 0 1 -.21-1.19 10.26 10.26 0 0 1 1.88-2.74c1.56-1.71 2.77-3.7 4.37-5.37a9.6 9.6 0 0 1 1.71-1.65z" fill="#717171"/><path d="m146.34 225.09c.43-.41 1-.49 1.51-.85.22-.17.46-.34.14-.64-.15-.29-.05-.41.21-.63 1.49-1.21 2.88-2.54 4.41-3.7.23-.17.34-.41.54-.57.45-.35 1-.61 1.06-1.3a15.31 15.31 0 0 0 1.61-1.51 8.18 8.18 0 0 0 2.86-3c1-.41 1.4-1.55 2.43-1.9.33.08.41.39.56.63a3.81 3.81 0 0 1 -1.23 1.71c-1.26 1.1-2.35 2.37-3.52 3.55a55.13 55.13 0 0 1 -4.3 3.94c-1.32 1.07-2.72 2.07-4 3.25a3.26 3.26 0 0 1 -2.28 1.02z" fill="#656565"/><path d="m119 229.66v-.28a8 8 0 0 1 2.57.3 5.75 5.75 0 0 0 3.28-.17c.43-.12.13-.31-.11-.4.39-.79 1.18 0 1.67-.45.08.32 0 .63.61.61 2.79-.08 5.49-.86 8.28-.89 1 0 1.93-.52 2.94-.42a14.35 14.35 0 0 1 -4.53.89 17.93 17.93 0 0 0 -2.83.34c-2.78.51-5.6.76-8.4 1.07a1.34 1.34 0 0 1 -.93-.12 4.14 4.14 0 0 0 -2.55-.48z" fill="#626262"/><path d="m161.67 211.61a.41.41 0 0 1 -.46-.24c-.49-.5.19-.8.21-1.21-.2-.61-.15-1.08.57-1.32.91-.3 1.33-1.13 1.82-1.87.53-.12.73-1 1.48-.64a.41.41 0 0 0 .46.24 1.53 1.53 0 0 1 -.42.84c-.61.78-1.25 1.53-1.87 2.3-.3.29-.37.78-.81.95z" fill="#515151"/><path d="m200.07 177.75-.23-.23c1.77-.92 5.75-2.36 6.68-2.32a24.93 24.93 0 0 1 -6.45 2.55z" fill="#868686"/><path d="m168.64 203a1.29 1.29 0 0 1 .81-.9 2.13 2.13 0 0 1 -.81.9z" fill="#6e6e6e"/><path d="m144.39 226a2.43 2.43 0 0 1 1-.47q.19-.16.3.06a1.94 1.94 0 0 1 -1.3.41z" fill="#868686"/><path d="m162.65 210.66a3.36 3.36 0 0 1 .81-.95 1.09 1.09 0 0 1 -.81.95z" fill="#656565"/><path d="m145.66 225.57-.3-.06a2 2 0 0 1 1-.43 1.57 1.57 0 0 1 -.7.49z" fill="#656565"/><path d="m92.31 203.92.94-.1.93-.1a2 2 0 0 1 .73.22c.09.09 0 .21 0 .46l-.11.09-.12.09c-.2.41-.56.39-1 .28a5.64 5.64 0 0 0 -1.12-.35c-.29 0-.51 0-.73 0s-.43 0-.72 0c-1.32.18-1.73.52-1.77.85s.28.64.43.78c.29-.6 2-.74 4-.82a37.75 37.75 0 0 0 5.77-.41 22.35 22.35 0 0 0 5 .07c1.66-.14 3.3-.38 4.95-.53a10.74 10.74 0 0 1 1.6 0 8.69 8.69 0 0 1 1.59.22 2 2 0 0 1 .87-.09 1.53 1.53 0 0 0 .87-.12 2.31 2.31 0 0 1 .9-.12h.9c.29.17.41.32.39.48s-.19.29-.44.43a4.85 4.85 0 0 1 -1.59.55 10.28 10.28 0 0 1 -1.64.14c-1 0-2 .11-3 .17a25.39 25.39 0 0 1 -3 0 5.67 5.67 0 0 0 -2 .31 7.81 7.81 0 0 1 -1.92.4c-1.25.09-2.5.21-3.76.28a36.43 36.43 0 0 1 -3.77.07 19.92 19.92 0 0 0 -3.46.2c-1.15.16-2.29.36-3.43.52a2.4 2.4 0 0 1 -.89-.12 4.49 4.49 0 0 1 -.82-.35l-.13-.13-.13-.13c-.11-.34-.09-.75-.17-1.09a1 1 0 0 0 -.81-.76 2 2 0 0 1 -.53-.25 1.49 1.49 0 0 1 -.41-.38.83.83 0 0 1 -.23-.49c0-.14.15-.25.48-.28s.56 0 .84 0a5.9 5.9 0 0 1 .83.06 27.78 27.78 0 0 0 2.88.15 25.27 25.27 0 0 0 2.8-.2z" fill="#535353"/><path d="m154.26 204.21c.47.69 1.19.68 1.9.68-.21 1-1 .42-1.57.59a2.93 2.93 0 0 0 -2.12-.11c-.52.19-1-.11-1.5-.17a32.32 32.32 0 0 0 -3.67.25c-2.56 0-5.12.22-7.69.1-1.41-.07-2.82.48-4.27.38-1.29-.11-2.54.26-3.82.27a16.92 16.92 0 0 1 -3.09-.44 5.06 5.06 0 0 0 -1.4.1 3.2 3.2 0 0 0 -.39.16c-.42.19-.86-.05-1.29 0-.65-.24-1.37-.36-1.76-1 .32-.85 1.15-.4 1.7-.67l.37-.06a3.34 3.34 0 0 0 1.29-.18h.4c2.08-.47 4.13.27 6.21.17a11.36 11.36 0 0 1 2.73.07h2.48a8.87 8.87 0 0 0 2.8-.32 5.62 5.62 0 0 1 1.64-.1 5.17 5.17 0 0 1 2.11 0c.49.05 1 .21 1.47-.22 1.38-.3 2.76.19 4.13 0a9.71 9.71 0 0 1 2.69.14c.3.02.53.07.65.36z" fill="#575757"/><path d="m49.84 204.16a7 7 0 0 0 2.16-.16c3.43-.26 6.87.2 10.31-.08.64.67.18 1-.4 1.33-1.76.27-3.57.15-5.32.56a1.18 1.18 0 0 1 -.59 0c-2.47-.56-5 .24-7.37 0-3.38-.34-6.73.08-10.08-.09a1.4 1.4 0 0 1 -1.11-.33.73.73 0 0 1 -.15-.35c.49-1 1.5-.74 2.26-.69 1.22.08 2.43-.11 3.46.07a16.69 16.69 0 0 0 -2.25 0c-.25.01 8.14-.73 9.08-.26z" fill="#6c6c6c"/><path d="m125.69 204.65a4.34 4.34 0 0 1 -1.89.26 3.31 3.31 0 0 1 -2.89.17 2.18 2.18 0 0 0 -1.45 0 2.68 2.68 0 0 1 -3.15-.66h-1.91a19 19 0 0 1 4.51-.33c3.06-.17 6.13 0 9.18-.35a3.75 3.75 0 0 0 .48 0c1.13-.33 2.18.2 3.27.32a5.62 5.62 0 0 0 .7.1c.45 0 1-.74 1.27-.27s.72.26 1.07.32a7.63 7.63 0 0 1 1.41.21 49.94 49.94 0 0 1 -6.81-.11c-.88-.11-1.74.28-2.62.14v-.1.09a1.66 1.66 0 0 1 -1.19.26c-.19-.19-.44-.1-.67-.12a1.61 1.61 0 0 1 .58.05.23.23 0 0 1 .11.02z" fill="#7d7d7d"/><path d="m154.26 204.21-7.46-.54a2.58 2.58 0 0 1 1.28-.23c1.87.1 3.73-.23 5.6-.06a13.91 13.91 0 0 0 4.17-.17c1.35-.2 2.72-.27 4.07-.49h.24c.2-.1.39-.15.53.08.36.56 1 .37 1.5.55a42.3 42.3 0 0 1 -5.28.2c-.15 0-.34-.06-.46 0-1.33.66-2.8.45-4.19.66z" fill="#8a8a8a"/><path d="m84.9 203.91c0 .31.15.41.41.47l.79.23a.54.54 0 0 1 -.23.37 1.54 1.54 0 0 1 -1.33.34 18.48 18.48 0 0 0 -3.31-.33c-1.87-.2-3.72.11-5.58.09-.53 0-1 .09-1.47-.29-.49-.85 1.27-1.33 1.94-1.36 2.43-.11 4.83.27 7.25.29a4.38 4.38 0 0 1 1.53.19z" fill="#727272"/><path d="m64 203.93c2.79 0 5.57-.49 8.37-.26.32.16 1.11-.11.69.74a2.42 2.42 0 0 1 -1.79.53c-2.38-.29-4.71.48-7.07.18-.61-.3-.59-.72-.2-1.19z" fill="#6c6c6c"/><path d="m170.73 197.19.12-.44.23-.45c.33-.54.46-1.2 1-1.63.39-.15.42-.57.63-.86a.94.94 0 0 1 .53 1.19 2.56 2.56 0 0 0 -.78 1.12 2.73 2.73 0 0 1 -.93 1.3c-.21-.33-.53-.29-.8-.23z" fill="#535353"/><path d="m92.33 203.92a1.85 1.85 0 0 1 -.91.24c-1.62-.08-3.25.26-4.85-.23z" fill="#727272"/><path d="m146.79 203.67a1.09 1.09 0 0 1 -1.25.43 20.12 20.12 0 0 0 -2.33-.17 12.29 12.29 0 0 1 3.58-.26z" fill="#8a8a8a"/><path d="m161.92 202.72a14.32 14.32 0 0 1 -4.07.49" fill="#afafaf"/><path d="m114.41 204.41a3.18 3.18 0 0 1 -1.75.21 3.86 3.86 0 0 1 1.75-.21z" fill="#686868"/><path d="m53 227.66c-1.82.1-3.65.07-5.47.21a24.72 24.72 0 0 1 -4.39 0 24.2 24.2 0 0 0 -8.39.47c-1.63.31-3.18 1.1-4.82 1.21-1.18.07-2.56.24-3.49-.93-.2-.26-.5-.13-.77-.16-2.08-.25-4.09.33-6.13.53-.95.09-1.89-.35-2.83 0a5.17 5.17 0 0 0 -1.92 0h-.39a17.12 17.12 0 0 0 -3 .1 1.06 1.06 0 0 1 -.92.3c-.5-.84-.36-1 .57-1.16 1.25-.2 2.59-.2 3.61-1.15 2.87 0 5.72.69 8.64 0a11 11 0 0 1 4.38.08 19.62 19.62 0 0 0 6.75.06 24.61 24.61 0 0 1 5.81-.46 9.63 9.63 0 0 0 2.2-.36 3.67 3.67 0 0 1 1.8-.06 1.73 1.73 0 0 0 1.58-.12 1.85 1.85 0 0 1 1.39-.11 6.07 6.07 0 0 0 3.08-.13c1.18-.5 2.22.22 3.32.4a15.63 15.63 0 0 0 4.49.69c.38 0 .55.09.69.39-.52.74-1.22.28-1.85.28l-2.73-.17a3.14 3.14 0 0 0 -1.21.09z" fill="#5c5c5c"/><path d="m57 227.71a4.33 4.33 0 0 0 1.75-.25c.08-.54.48-.52.88-.51s.9 0 1.35 0c.88.38 1-.69 1.65-.85 2.42.11 4.81-.4 7.23-.23 3.73.26 7.47-.19 11.21 0 .38 0 .8-.16 1.08.25.17.86-.47.6-1 .67h3.26c.39 0 .94-.1 1 .58v.22a3.22 3.22 0 0 1 -1.92 0 51.73 51.73 0 0 0 -8.71-.43 43 43 0 0 1 -6.32.17 33.65 33.65 0 0 0 -6.57.36c-1.44.16-2.87 0-4.31.11a1.65 1.65 0 0 1 -.58-.09z" fill="#616161"/><path d="m165.29 205.36c.33-.44-8.72 5.31-9.8 7.44-.73.6-4.75 4.12-4.9 3.35s5.27-5 6.66-6.21c.07-.15 5.67-4.3 6.48-4.79.27-.15 1.38.26 1.56.21z" fill="#6b6b6b"/><path d="m165.56 205.84-.27-.48c.46-.04.37.22.27.48z" fill="#515151"/><path d="m85.37 227.46c-1.93-.14-3.85-.28-5.75-.59v-.28l2.41-.12a.58.58 0 0 1 .43-.34 8.23 8.23 0 0 1 1.55-.26c.56-.21 5.35-.77 6 .26a7.8 7.8 0 0 0 .09.83c0 .36.53.35.5.73a2.35 2.35 0 0 1 -1.56.47 9.26 9.26 0 0 1 -3.67-.7z" fill="#3f3f3f"/><path d="m149 218.56h2.35a3.1 3.1 0 0 0 1.81-.4 2.84 2.84 0 0 1 1.6-.28 4.72 4.72 0 0 1 -1.22 1.18 1.41 1.41 0 0 0 -.81-.14 48.69 48.69 0 0 1 -6.16.1l-.08-.18a.5.5 0 0 1 .23-.3c.75-.27 1.49.46 2.28.02z" fill="#9c9c9c"/><path d="m120.66 205.59a12.22 12.22 0 0 0 -3.67-.07 102 102 0 0 1 -14.09.63 8.6 8.6 0 0 1 3.15-.41 34.86 34.86 0 0 0 5.2-.35 2.69 2.69 0 0 1 1.06.05 2.26 2.26 0 0 0 1.41-.11c.75-.33 1.67-.05 2.34-.65.08-.08.16-.17.25-.25 1.17.42 2.34.74 3.51 0a.69.69 0 0 1 .79 0c1 .74 2.11.51 3.19.56a5.22 5.22 0 0 0 1.68.48c.19.58-.17.74-.6.67s-1-.07-1.5-.11c-.88-.4-1.89.24-2.72-.44z" fill="#686868"/><path d="m88.63 209.22a4.46 4.46 0 0 0 1.67.09 36.81 36.81 0 0 1 4.07-.1 1.06 1.06 0 0 1 .76.2c0 .42-.29.36-.51.39a6.88 6.88 0 0 1 -1.43.09c-2.12-.27-4.23.22-6.32.14-2.35-.1-4.71 0-7.06-.23-.51-.05-1-.07-1.55-.12a1.33 1.33 0 0 1 -1.26-.68c1.55.06 3.09.05 4.64.26a28.64 28.64 0 0 0 3.93 0 16.58 16.58 0 0 1 3.06-.04z" fill="#afafaf"/><path d="m131.7 205.6c-1.22 0-2.44 0-3.67 0a2.49 2.49 0 0 1 -1.14-.24 22.15 22.15 0 0 1 4.81.24z" fill="#afafaf"/><path d="m38.81 203.68-.27.25c.45.44.5.45 1.71.23h4.89a2.36 2.36 0 0 1 -1.67.47c-2-.13-8.77 0-9 .08a6.74 6.74 0 0 1 -3.64.66 1.86 1.86 0 0 1 -.34-.05c-.25-.14-.52-.34-.38-.63.22-.47-.09-.6-.37-.81-.92-.7-.92-.71.14-1.4.5-.33.85 0 1.21.25a19.46 19.46 0 0 0 4.08.5c.17.22.94 0 .94 0a11.17 11.17 0 0 1 2.45-.08c.6-.06.71.16.25.53z" fill="#484848"/><path d="m30.88 205.14h1.42a2.38 2.38 0 0 0 1.81-.73 1.46 1.46 0 0 1 1.3-.43c.24 0 .5.08.41.42-.2.73.33.67.74.68a7.56 7.56 0 0 0 1-.14c0 .07 1.16.56 1.16.64a6.63 6.63 0 0 1 -2.88-.19 12 12 0 0 0 -3.28 0c-.56.05-1.19.41-1.68-.25z" fill="#5a5a5a"/><path d="m125.69 204.65-.94-.11a1 1 0 0 1 .93.11z" fill="#cfcfcf"/><path d="m126.86 204.4a.55.55 0 0 1 -.22 0c-.07 0-.23.08-.18-.12a.82.82 0 0 1 .2 0" fill="#cfcfcf"/><path d="m123.37 204.52s0 .07-.06.06-.12-.05 0-.1.03.02.06.04z" fill="#cfcfcf"/><path d="m35.93 215.68c-1.35.07-2.71.18-4.06.21a9.73 9.73 0 0 1 -4-.68 4.2 4.2 0 0 0 -1.65-.22 86.79 86.79 0 0 0 -9.94.2l-1.66.23a2.54 2.54 0 0 1 -1 0 .34.34 0 0 1 -.28-.34c0-.18.17-.26.33-.29a1 1 0 0 1 .35 0c2 .12 4-.46 6-.42s4.14-.15 6.21.09c1.07.12 2.16.05 3.24.08a2.12 2.12 0 0 1 1.05.14 5.7 5.7 0 0 0 3.84.48 42.34 42.34 0 0 1 5.64-.16c.32.2.69.07 1 .11s.5 0 .41.37a33.35 33.35 0 0 1 -4.12.11 3.48 3.48 0 0 0 -1.36.09z" fill="#919191"/><path d="m29.92 202.48c-.52.78-.56.83.06 1.3s.5.88.67 1.34c-.39.74-1.18.16-1.68.51a35.6 35.6 0 0 1 -7.37-.13c-.42-.06-.58-.38-.86-.58h-.17a3.49 3.49 0 0 0 -1.69.24c-.49-.44-.49-.57 0-.79s.7.06 1-.2c1.44-.07 2.87-.15 4.3-.18a6.7 6.7 0 0 1 2.57.36 4.44 4.44 0 0 0 3 0c0-.13 0-.24-.07-.27-1.09-.92-1.07-1.08.24-1.6z" fill="#5a5a5a"/><path d="m52.49 222a19.8 19.8 0 0 0 -3.84-.27c-.25-.19-.64-.13-.87-.5.37-.29.75-.13 1.13-.1a13.83 13.83 0 0 0 3.34.13 3.54 3.54 0 0 0 1.41.22c3.42-.09 6.85 0 10.28-.16 2.9-.18 5.81-.07 8.72-.08.51 0 1.06 0 1.39.48-.06.09-.13.09-.2 0h-4.63a3.3 3.3 0 0 0 -1.39.22c-.16.51-.6.47-1 .49-4.24.22-8.48.11-12.72.09a3.51 3.51 0 0 1 -1.62-.52z" fill="#a3a3a3"/><path d="m41.46 215.46-1.46-.46q5.17 0 10.35 0a8.55 8.55 0 0 0 2.36-.22 21.53 21.53 0 0 0 3.76-.32c0-.4-.51-.21-.55-.63h7.59c.23.59-.2.57-.56.58-.59 0-1.19 0-1.79 0a1.25 1.25 0 0 0 -1.29.68c-1.87.42-3.72.91-5.66.37a3.68 3.68 0 0 0 -2 0 11.25 11.25 0 0 0 -2.84.24 4.58 4.58 0 0 0 -2.35-.13 18.64 18.64 0 0 1 -5.56-.11z" fill="#9f9f9f"/><path d="m15.06 206.08c.36.06.8-.12 1.08.25a.41.41 0 0 1 -.4.4 62.73 62.73 0 0 1 -7.08.3 4.87 4.87 0 0 1 3.77-1.93c1.19 0 2.39-.17 3.58-.26.19 0 .46-.06.45.21s-.26.26-.45.33a11 11 0 0 1 -1.2.23c-.07 0-4.84.5-.57.47a2.73 2.73 0 0 1 .82 0z" fill="#6d6d6d"/><path d="m32.45 218.89c-1.69.72-13.44.83-15.06.22.27-.36.65-.28 1-.29h5c2.19-.05 4.37-.15 6.56-.2a4.93 4.93 0 0 1 2.5.27z" fill="#9d9d9d"/><path d="m49.55 211.1a7.79 7.79 0 0 0 -2.35.26c-1.75.11-3.5.26-5.25.31-3 .09-5.89.13-8.84.18a2.67 2.67 0 0 1 -1.28-.22c.41-.48 1-.18 1.44-.26s1.19.22 1.7-.25c3.65.07 7.3-.23 11-.26a8.25 8.25 0 0 0 1.29-.21h1.3c.36.03.75.05.99.45z" fill="#a6a6a6"/><path d="m47.92 219.07c.49.26 1.08-.11 1.61.22-.18.46-.57.41-.88.5-1.23 0-2.47.09-3.7.14a31.87 31.87 0 0 1 -5.61-.06c-.79-.11-1.59-.07-2.39-.12a1.68 1.68 0 0 1 -1.39-.56 123.54 123.54 0 0 0 12.36-.12z" fill="#a4a4a4"/><path d="m27 209.84a1 1 0 0 1 -.86.53c-1.08.07-2.16.17-3.23.16-2 0-3.91.1-5.86.27a9.72 9.72 0 0 1 -1.79.09c-.27 0-.64 0-.61-.39s.41-.34.67-.33c2.56.1 5.09-.42 7.65-.48 1.3-.02 2.6.08 4.03.15z" fill="#9b9b9b"/><path d="m35 224.33c-.31.32-.68.23-1 .24a71.75 71.75 0 0 0 -7.18.22 10 10 0 0 1 -3.23-.15 7.27 7.27 0 0 1 -.8-.22.41.41 0 1 1 .2-.8c.63.08 1.27.16 1.89.29a10.57 10.57 0 0 0 2.63.19c2.11-.1 4.23-.1 6.35 0 .4-.02.81-.1 1.14.23z" fill="#8e8e8e"/><path d="m47.93 224.56h1c.68.28 1.32-.07 2-.09 2.79 0 12.46-.43 12.45.29s-.58.62-1.05.65-14.71-.25-15.5-.38c-.16-.07.85.07.68 0a.29.29 0 0 1 0-.46z" fill="#a7a7a7"/><path d="m15.29 223.85c-.43-.19-.85-.38-.91-.93l5.35.25h.24c.26.08.61.13.54.5s-.43.31-.7.27a37.85 37.85 0 0 0 -4.52-.09z" fill="#898989"/><path d="m37.46 208.05c2.38-.43 6.92.2 9.52 0 2.02.83-5.4.77-9.52 0z" fill="#979797"/><path d="m35 211.12c-.06.49-.45.48-.8.49h-2.37-.23c-1.43-.32-2.89.1-4.32-.22a.24.24 0 0 1 0-.39 10.1 10.1 0 0 1 2.69-.11c.45.29 1 0 1.46.22z" fill="#959595"/><path d="m47.44 224.58v.42a18.92 18.92 0 0 1 -3.83-.24c-.17-.71.3-.71.77-.66 1.02.17 2.04.33 3.06.48z" fill="#979797"/><path d="m51.8 208c.34.41 0 .29-2 .48-.78 0-1.57 0-2.35.06-.49-.06-1 .07-1.49-.29 1.36-.39 4.47-.17 5.84-.25z" fill="#adadad"/><path d="m20.75 204.92a8.5 8.5 0 0 0 3.59.68h4.64a8 8 0 0 1 -3 .19 23.46 23.46 0 0 1 -4.19-.13 1.08 1.08 0 0 1 -1.04-.74z" fill="#727272"/><path d="m19.85 204.16c-.33.32-1.12.2-1 1a3.06 3.06 0 0 1 -.21.29c-.21.21-.4.6-.76.38a1.34 1.34 0 0 1 -.45-.94c-.08-.43.34-.46.62-.58a3.5 3.5 0 0 1 1.8-.15z" fill="#727272"/><path d="m35.93 215.68a4.21 4.21 0 0 1 1.86-.22h3.66a2.58 2.58 0 0 1 -1.26.23z" fill="#9f9f9f"/><path d="m27.24 211v.39c-.71.07-1.45.35-2.15-.38.81-.41 1.49-.01 2.15-.01z" fill="#9b9b9b"/><path d="m29 205.63a7.58 7.58 0 0 1 1.68-.51h.23a5.33 5.33 0 0 0 1.73.25 11.73 11.73 0 0 1 -3.64.26z" fill="#727272"/><path d="m27.28 211.38h3.06a2.87 2.87 0 0 1 1.26.22 15.65 15.65 0 0 1 -4.32-.22z" fill="#9b9b9b"/><path d="m38.81 203.68c-.08-.48-.46-.46-.81-.47-.61 0-1.23 0-1.85 0a7.23 7.23 0 0 1 2.66-.22c.19 0 .42 0 .44.28s-.2.36-.44.41z" fill="#6c6c6c"/><path d="m18.89 205.15a1.51 1.51 0 0 1 1.69-.24 5.09 5.09 0 0 1 -1.69.24z" fill="#727272"/><path d="m40.25 204.16a2.24 2.24 0 0 1 -1.62.19c-.24 0-.31-.22-.09-.42a7 7 0 0 0 1.71.23z" fill="#6c6c6c"/><path d="m31.39 211.11a2.81 2.81 0 0 1 -1.46-.22 3 3 0 0 1 1.46.22z" fill="#a6a6a6"/><path d="m53.44 226.72c1.74-.09 3.48-.25 5.21-.39a28.39 28.39 0 0 1 3.68.15l1.26.43a6.37 6.37 0 0 1 -2.47.55 1.38 1.38 0 0 1 -1.19 0h-1.2c-1.47.09-2.91-.29-4.37-.28a1.06 1.06 0 0 1 -.92-.46z" fill="#4a4a4a"/><path d="m59.93 227.45h1.19a1.16 1.16 0 0 1 -1.19 0z" fill="#5c5c5c"/><path d="m89 227.21c-.13-.6-1.18-.76-.95-1 .6-.75 3-.39 3.69-.36 3.88.14 7.82-.27 11.69-.21 2.45 0 4.89-.06 7.34-.16 1.36-.06 2.73-.53 4.1-.09.63.2 1-.47 1.52-.56a38.5 38.5 0 0 0 6-.63c.65.17.85-.56 1.36-.67a10.12 10.12 0 0 1 3-.19 1.94 1.94 0 0 0 1.6-.27c1.52.15 2.91-.47 4.36-.76a.81.81 0 0 1 .72.23c.65 1.13.63 1.16-.65 1.19-.34 0-.7-.11-1 .1-2.38.43-4.85.19-7.19 1a1.78 1.78 0 0 1 -.94.11 1.51 1.51 0 0 0 -1.22.35 15 15 0 0 0 -2.44 1.13 1.05 1.05 0 0 1 -1.13.05 1.51 1.51 0 0 0 -1.25 0 12.36 12.36 0 0 1 -3.68-.29c-.39-.13-.75.35-1.23.31-.79-.08-1.6 0-2.38-.11-1.24-.2-2.48 0-3.71-.14a5.23 5.23 0 0 0 -1 .11 8.92 8.92 0 0 1 -3 .16 1 1 0 0 0 -.48 0c-1.48.51-3 .16-4.5.19-.85.04-7.45-.13-8.63.51z" fill="#666"/><path d="m131.68 223.84a3.43 3.43 0 0 1 .92-.19c.64 0 .52-.39.54-.75.6-.44 1.18-1 1.92-.24-.2.5.2.43.44.44 1.36.07 2.72-.08 4.08-.13a68.89 68.89 0 0 0 8.11-.77.92.92 0 0 1 .77.12 2.93 2.93 0 0 1 -1.25.34 90.4 90.4 0 0 1 -10.26 1c-1.76.06-3.51.26-5.27.18z" fill="#9d9d9d"/><path d="m117.51 226.48c.51-.32.95-.91 1.67-.44.15.1 2.8-.43 2.47-.12 3.38-.26 6.6 0 9.8-.36.05.62-.59.13-.72.45a3.74 3.74 0 0 1 -1.44.25h-.49c-1 .69-10.71.69-10.78.46z" fill="#a6a6a6"/><path d="m135.06 222.66-1.92.24-.52-.27c0-.83.77-.82 1.28-.91 2.17-.4 4.27-1.05 6.41-1.56a1.9 1.9 0 0 0 1.38-.11c.29-.19.81-.35 1.06.22-1.07.82-2.43.93-3.65 1.39a32.21 32.21 0 0 1 -4.04 1z" fill="#787878"/><path d="m142.75 220.27c-.37.09-.75.16-1.11.28a1.59 1.59 0 0 1 -1.33-.08c0-1 .81-1 1.41-1.29a8.42 8.42 0 0 0 1-.24l.32-.09a2 2 0 0 0 1.61-.73c.24-.37.69-.32 1.06-.42s.64-.27 1-.11c.73.51.53.89-.16 1.2a4.47 4.47 0 0 1 -1.43.48 4.57 4.57 0 0 1 -2.37 1z" fill="#585858"/><path d="m130.73 226 .72-.45a45.74 45.74 0 0 0 5.1-.58 2 2 0 0 1 1.19.09c-.87.64-4.93 1.16-7.01.94z" fill="#8e8e8e"/><path d="m145.12 219.27a3.08 3.08 0 0 1 1.43-.48v.21a3.86 3.86 0 0 1 -1.43.27z" fill="#868686"/><path d="m156.2 214.15c-.51-.36-5.39.35-6 .36-1.7 0-14.66.39-15.23.18-.17-.74.51-.92 6.85-.67 2.67 0 5.34-.09 8 .12 1.15.09 5.2-.47 6.36-.36.06.22.68 0 .02.37z" fill="#939393"/><path d="m160.71 208a1.23 1.23 0 0 0 -1.16-.46 13.22 13.22 0 0 0 -1.78 0 39.28 39.28 0 0 0 -4.72.46c-.92.8-2.09.61-3.16.74-2.13.24-4.28.33-6.42.51a1.22 1.22 0 0 1 -1-.22c-.23-.21-.4-.44-.22-.77 2.45.06 4.84-.49 7.27-.64 3.11-.19 6.2-.62 9.32-.68.39 0 .79.07 1.19.11a7.7 7.7 0 0 1 .71.33c.31.21.26.42-.03.62z" fill="#9f9f9f"/><path d="m146.56 218.08 4.35-2.38a1.62 1.62 0 0 0 1 0 4.41 4.41 0 0 1 -1.89 1.16 5.61 5.61 0 0 0 -2 1.22c-.1.14-.4.21-.18.48h1.16a5.84 5.84 0 0 1 -2.42.23c.12-.23.31-.47-.02-.71z" fill="#868686"/><path d="m152.32 209.93a92.16 92.16 0 0 1 9.53-.59.55.55 0 0 1 -.18.9c-.9-.43-5.77 0-6.7-.06a9 9 0 0 1 -2.32.1c-.23.01-.37-.09-.33-.35z" fill="#909090"/><path d="m157.84 209.67a2 2 0 0 1 1-.22 1.58 1.58 0 0 1 -1 .22z" fill="#909090"/><path d="m155.46 206a149.52 149.52 0 0 0 -16.24 1.15c-2.8.36-5.58.91-8.4 1.24-2.29.27-4.58.58-6.88.86a5.65 5.65 0 0 0 -1.85.46c-1.22.51-1.71.39-1.93-.48 1.7-.23 3.39-.52 5.09-.68 4.58-.45 9.12-1.15 13.68-1.69a28.62 28.62 0 0 1 3.32-.51 4.78 4.78 0 0 1 1.68-.23h.23a28.3 28.3 0 0 0 4.5-.32 26.65 26.65 0 0 1 3-.13c.71.33 3.05-.1 3.8.33z" fill="#a7a7a7"/><path d="m156.43 205.88a16.27 16.27 0 0 1 -3.49.14 12.35 12.35 0 0 1 3.49-.14z" fill="#a7a7a7"/><path d="m82.45 226.46a2.17 2.17 0 0 1 1.48-.21 2.52 2.52 0 0 1 -1.48.21z" fill="#616161"/><path d="m147.8 218.56c-.39-.34 0-.38.18-.48z" fill="#9c9c9c"/><path d="m156.78 213.42.95.21a3.24 3.24 0 0 1 -1.53.52c-.2-.34.12-.43.2-.62z" fill="#6b6b6b"/><path d="m115.42 220.27c-3.13.36-8.79.7-11.88.75.64.44.64.43 2.76.43a27 27 0 0 1 3 .05c.92.1 4.12-.46 5.12-.2 2.8 0-2.91.62-3.2.63l-7.53.1a23.75 23.75 0 0 1 -2.37-.23c-2-.2-4-.31-6.07-.37a1.42 1.42 0 0 1 -.36-.05c-.22-.06-.53-.07-.48-.4s.3-.24.5-.23a17.72 17.72 0 0 0 1.79 0c3.09-.17 6.19-.33 9.28-.46a54.42 54.42 0 0 0 5.85-.28c3.03-.17 5.7-.29 3.59.26z" fill="#afafaf"/><path d="m56.79 211.12a55.77 55.77 0 0 1 -5.63-.14c-.37 0-.86.05-.84-.58a17.59 17.59 0 0 0 3-.17 2.53 2.53 0 0 1 .95 0c2.54.64 5.08.14 7.62.05h2.15c2.47-.13 4.94-.25 7.41-.3 1.17 0 2.3-.26 3.46-.26a2.64 2.64 0 0 1 1.54.26 6.1 6.1 0 0 1 -2.45.47 53.51 53.51 0 0 0 -6.46.23c-3.1.32-6.22.22-9.33.28a3.38 3.38 0 0 0 -1.42.16z" fill="#a0a0a0"/><path d="m70.26 212.51c-.2 0-.41-.11-.41-.35s.22-.31.42-.35a1.49 1.49 0 0 1 .47 0 26.83 26.83 0 0 0 6.14.07c1.83 0 3.66 0 5.49.12a15.91 15.91 0 0 1 3.45.08l.22.05c1.06.56-.29.66-1.88.7h-.23c-.32.29-3.14-.19-4.24-.22-.69-.04-8.8-.06-9.43-.1z" fill="#adadad"/><path d="m127.12 216.16a3.79 3.79 0 0 1 -2 .43c-2.71-.2-5.42.19-8.13.08a10.77 10.77 0 0 1 -2.26-.23 8.1 8.1 0 0 0 -2.25-.26 23.35 23.35 0 0 1 -4.18-.23c-.22 0-.49 0-.63-.24 0-.22.2-.24.35-.23 1.19.09 2.39 0 3.57.09s2.63.09 3.95.12c.28 0 .61-.1.82.08.7.63 1.52.38 2.28.3a13.89 13.89 0 0 1 3.7 0 3 3 0 0 0 1.07 0 8.51 8.51 0 0 1 3.69.08z" fill="#9e9e9e"/><path d="m87.52 215.7a5.63 5.63 0 0 0 2.24 0 32.39 32.39 0 0 0 4.51-.11c1-.16 2 .25 3.07.09a51.18 51.18 0 0 1 6.31-.21 38.08 38.08 0 0 1 4.9.07c.06 0-.2.39-.22.44s-2.77 0-2.79 0a21.66 21.66 0 0 1 -3.69.25c-2.94 0-5.88.05-8.82.16-1.25 0-2.53 0-3.79 0s-2.13 0-2-.33a.55.55 0 0 1 .28-.36z" fill="#acacac"/><path d="m123.06 212.58a3.6 3.6 0 0 1 -1.52.24c-3.91.09-7.81-.31-11.71-.27a1.44 1.44 0 0 1 -1.28-.4c.22-.35.53-.29.78-.29a28.65 28.65 0 0 1 3.47 0c1.51.17 3 .21 4.53.27 1.67.06 3.34-.06 5-.08h3.82c0 .6-.42.37-.72.4a9.56 9.56 0 0 0 -2.37.13z" fill="#a9a9a9"/><path d="m119.19 210.14a51.94 51.94 0 0 1 -9.49-.58 8.63 8.63 0 0 1 -2.47-.36c-.23-.3.11-.33.22-.47a1.72 1.72 0 0 1 1.47-.13c.69.27 1.48.19 2.17.53.09 0 .27.06.33 0 .71-.61 1.53-.15 2.28-.26a1.12 1.12 0 0 1 1.19.56c1.07.56 2.23.11 3.33.27.35.05.91-.27.97.44z" fill="#848484"/><path d="m107.45 208.73c-.07.15-.15.31-.22.47l-9.31.48c-.62 0-3.21.32-3.88 0 .27-.5 2.64-.68 3-.67a55.15 55.15 0 0 0 6.92-.27c1.17-.11 2.33.19 3.49-.01z" fill="#afafaf"/><path d="m114.15 221.35c3.45-.64 7-.49 10.43-.84.18 0 .41 0 .49.24-.12.33-.44.32-.69.33-3.4.2-7.41.42-10.82.6 0-.1.6-.23.59-.33z" fill="#a4a4a4"/><path d="m123.06 212.58a1.6 1.6 0 0 1 -.23 0c-.11 0-.25-.15 0-.18.42-.06.86 0 1.3-.05a5.1 5.1 0 0 0 2.09-.22h4.25a5.74 5.74 0 0 0 1.75-.19c.74 0 4.78-.23 5.51-.25.42 0 .07.18.18.69-3.17.11-8.9.28-12.07.37-.96-.04-1.84-.13-2.78-.17z" fill="#848484"/><path d="m87.52 215.7v.28a5.61 5.61 0 0 1 -2.54.17c-1.51-.1-3-.22-4.53-.4-.38 0-1.12.07-1-.43s.79-.39 1.24-.32c1.34.21 2.68.38 4 .46.93.34 1.94-.14 2.87.24z" fill="#8e8e8e"/><path d="m133.87 209.46v.22a28 28 0 0 0 -5.09.33 30.43 30.43 0 0 1 -4.27.15c-.48-.23-1 0-1.49-.11-.21 0-.5 0-.41-.36 3.37.06 6.73-.39 10.09-.47.3.28.81-.08 1.17.24z" fill="#939393"/><path d="m122.57 209.69c.59.34 1.32.12 1.9.47a38.77 38.77 0 0 1 -5.28 0 12.37 12.37 0 0 0 -3.27-.22c-.4 0-.92.15-1-.49a30 30 0 0 0 5.27-.23c.62.23 1.19.69 1.93.48z" fill="#7a7a7a"/><path d="m78.76 224.49.95.47c0 .36-7.19 0-7.3 0-.29-.06-.76 0-.72-.4s.5-.28.8-.3a31.75 31.75 0 0 1 4 .21c.77.04 1.51.01 2.27.02z" fill="#a5a5a5"/><path d="m72.83 214.47h-.42a2 2 0 0 1 -2 .25c-.94-.34-1.82.32-2.75.34a1.73 1.73 0 0 0 -.55 0c-1.33 0-2.66 0-4-.06a1.88 1.88 0 0 1 -1.24-.27c-.36-.72.16-.66.61-.68a6.66 6.66 0 0 0 2.51-.34 29.57 29.57 0 0 0 6.24.23c.56.06 1.17-.02 1.6.53z" fill="#a1a1a1"/><path d="m86.19 212.13c.41-.3 3.1 0 4.18-.15.59-.06 1.19-.06 1.79-.07a.29.29 0 0 1 .34.26.3.3 0 0 1 -.31.3c-.31 0-.63 0-1 0-.52 0-1 .06-1.56.06-1.89.1-5.74.14-3.74-.42.01.01.34.05.3.02z" fill="#adadad"/><path d="m108.17 224.58c-1.89 0-3.78 0-5.67 0-.39 0-.91.17-1-.47h6.72a.3.3 0 0 1 -.05.47z" fill="#a7a7a7"/><path d="m91.36 212.15c2-.51 6-.23 7.93-.33-.87.7-6.29 1.05-7.93.33z" fill="#adadad"/><path d="m103.71 211.85a17.39 17.39 0 0 1 7.08-.78c-1.6.79-5.43.61-7.08.78z" fill="#adadad"/><path d="m108.17 224.58v-.47c1.61.08 3.21-.37 4.82 0 3.92-.26 1.31.2-.92.46z" fill="#a6a6a6"/><path d="m134.49 215v.25c-.33.67-2.3 1-2.78 1l-1.53-.06c-.17-.08-.17-.15 0-.23a4.19 4.19 0 0 1 1.4-.23 6.5 6.5 0 0 0 2.91-.73z" fill="#a6a6a6"/><path d="m60.07 215.09a2.13 2.13 0 0 1 -.38-.59c-.15-.11-.38-.11-.43-.41 1.41-.29 2.88.21 4.27-.31h1.47c-.1.56-.58.42-.93.46a6.73 6.73 0 0 0 -2.19.23c0 .39-.3.54-.6.67" fill="#7e7e7e"/><path d="m114.84 220.26a3.47 3.47 0 0 1 2.77 0c-.92.64-1.84.17-2.77 0z" fill="#7e7e7e"/><path d="m130.49 215.92v.23a5.91 5.91 0 0 1 -3.36 0c1.09-.45 2.23-.15 3.36-.23z" fill="#9e9e9e"/><path d="m101.72 216.69a11.55 11.55 0 0 1 4 .18 7.24 7.24 0 0 1 -4-.18z" fill="#adadad"/><path d="m135.78 214a1.89 1.89 0 0 1 -.81.67l-1.28-.34c.74-.48 1.44-.25 2.09-.33z" fill="#a6a6a6"/><path d="m105 211.62c-.42.31-5.52.67-4.73.29-.56-.46 4.33-.56 4.73-.29z" fill="#adadad"/><path d="m86.66 215.42a1 1 0 0 1 .86.28 9.54 9.54 0 0 1 -2.87-.24" fill="#acacac"/><path d="m100.45 211.65c.17 0 .37 0 .35.22s-.21.19-.36.17-2.65.14-2.66.07 2.55-.42 2.67-.46z" fill="#adadad"/><path d="m105.54 215.91v-.21c.17-.09.34-.23.54 0a.14.14 0 0 1 0 .11c-.14.19-.35.09-.54.1z" fill="#9e9e9e"/><path d="m102.19 211.67v.08s-.06 0-.09 0 0-.05-.05-.07z" fill="#adadad"/><path d="m32.37 203c-.41-.11-.86 0-1.24-.23.74-.2.89-.86 1.11-1.45s.43-1.29.61-1.94a2 2 0 0 1 .34-.75.79.79 0 0 1 1-.41c.5.18.31.55.26.9-.1.78 0 .9.82.81a7.12 7.12 0 0 0 .82-.17 10.77 10.77 0 0 0 -.74 2.42c-.06.82-.12 1.11.79 1.34-1 .32-2.06-.16-3.1-.25zm.68.27a.92.92 0 0 0 .9-.8c.07-.39.19-.77.28-1.16 0-.16.07-.34-.08-.44a.39.39 0 0 0 -.54.12 6.15 6.15 0 0 0 -1.24 2z" fill="#555"/><path d="m51.47 208.22c-.54-.36.46-.21 1.92-.22a2.11 2.11 0 0 1 -1.92.22z" fill="#adadad"/><path d="m74.59 221.44a1.29 1.29 0 0 1 .71-.41l3-.46a.5.5 0 0 1 .55.22c-.31.37-.8.38-1.13.65a3 3 0 0 1 -3.12 0z" fill="#a6a6a6"/><path d="m113.76 224.12a88.48 88.48 0 0 1 9.77-.27c.29.23.5.48 0 .64a4.07 4.07 0 0 1 -.71.07 3.41 3.41 0 0 0 -1.64-.24h-6a2.91 2.91 0 0 1 -1.42-.2z" fill="#8f8f8f"/><path d="m143 219.31a6.35 6.35 0 0 0 -3.18-.14 5.33 5.33 0 0 1 -2.88-.15 65.1 65.1 0 0 1 8.93-.67 9.43 9.43 0 0 1 -2.87.96z" fill="#a0a0a0"/><path d="m149.67 210.64a37.49 37.49 0 0 0 -3.82.25l-5.42.63c-.42 0-4.24.71-4.5.33.09-.52 14.95-2.46 15.2-1.92h1.19a6.81 6.81 0 0 0 2.65.25 5.79 5.79 0 0 1 -2.23.24 8.81 8.81 0 0 0 -3.07.22z" fill="#a5a5a5"/><path d="m136.72 212.19c.15-.41 1-.54 2-.62.27.13 3.67.05 3.27.54l-3.12.21a12.85 12.85 0 0 1 -2.15-.13z" fill="#848484"/><path d="m133.87 209.46a2.79 2.79 0 0 1 -1.21-.24l7.09-.88a11.49 11.49 0 0 1 2.49-.07l.26.47-.06.21c-.61.92-1.58.48-2.39.62-1.26.08-2.52.25-3.78.32a1.82 1.82 0 0 1 -1.46-.42z" fill="#7c7c7c"/><path d="m78.92 224.59c1.64.18 23.23-1.88 16.42-.88-.56.07-.79.36.09.9a32.42 32.42 0 0 1 -6.34-.3c-.52-.11-10.4.65-10.92.71-.08-.16.83-.27.75-.43z" fill="#929292"/><path d="m96.76 223.46a3.69 3.69 0 0 1 1.95-.18c-.61.72-3.21.23-1.95.18z" fill="#919191"/><path d="m94.25 224.53c.58-.44 8.87-.73 9.46-.26-.54.46-8.34.51-9.46.26z" fill="#929292"/><path d="m147.3 211.59c0 .48-.42.43-.72.52h-5.2v-.27z" fill="#939393"/><path d="m135.79 212.31c.21-.59.54-.79 1-.58a.27.27 0 0 1 .13.17.25.25 0 0 1 -.15.29 2.08 2.08 0 0 1 -.93.11z" fill="#848484"/><path d="m119.37 212.47c-.18.11-.47.13-.5 0s.21-.09.33-.1.11.06.17.1z" fill="#848484"/><path d="m121.06 212.47s0-.07 0-.07h.08s0 .07 0 .07z" fill="#848484"/><path d="m112.28 209.43a3.61 3.61 0 0 1 1.51 0c-.64.33-.64.33-1.51 0z" fill="#7a7a7a"/><path d="m78.65 224.81a.9.9 0 0 1 -1 0z" fill="#c4c4c4"/><path d="m61.15 214.52a1 1 0 0 1 -1 0z" fill="#9f9f9f"/><g fill="#1d1d1b" font-family="BaskervilleMTPro-Regular, Baskerville MT Pro" font-size="10"><text transform="translate(99.77 8.31)">Illus I.</text><text transform="translate(43.4 49.58)">2</text><text transform="translate(43.95 60.15)">1</text><text transform="translate(46.66 71.99)"><tspan xml:space="preserve">3  </tspan></text><text transform="translate(197.79 46.48)">2</text><text transform="translate(189.22 33.02)">1</text><text transform="translate(187.34 20.61)"><tspan xml:space="preserve">3  </tspan></text><text transform="translate(132.31 56.86)">S</text><text transform="translate(8.66 92.22)">S = Sea Sho<tspan letter-spacing="-.01em" x="49.81" y="0">r</tspan><tspan x="53.36" y="0">e</tspan></text><text transform="translate(1.45 103.53)">1–1 = Plane o<tspan letter-spacing=".14em" x="54.28" y="0">f</tspan><tspan x="58.43" xml:space="preserve" y="0"> Earth Crust be</tspan><tspan letter-spacing="-.01em" x="120.64" y="0">f</tspan><tspan x="123.25" y="0">o</tspan><tspan letter-spacing="-.01em" x="128.25" y="0">r</tspan><tspan x="131.8" y="0">e</tspan><tspan x=".28" xml:space="preserve" y="12"></tspan></text><text transform="translate(.31 126.55)">2–2 = Fi<tspan letter-spacing=".01em" x="33.85" y="0">r</tspan><tspan x="37.6" y="0">st phase o</tspan><tspan letter-spacing=".14em" x="76.77" y="0">f</tspan><tspan x="80.92" xml:space="preserve" y="0"> M</tspan><tspan letter-spacing="-.03em" x="92.69" y="0">o</tspan><tspan letter-spacing="-.02em" x="97.41" y="0">v</tspan><tspan x="101.8" y="0">ement</tspan></text><text transform="translate(.31 137.95)">3–3 = Final</text><text transform="translate(56.98 137.95)">"</text><text transform="translate(74.09 137.95)">"</text><text transform="translate(102.9 137.95)">"</text><text transform="translate(99.29 186.21)">Illus II.</text><text transform="translate(2.91 232.23)">P</text><text transform="translate(83.19 242.71)">O</text><text transform="translate(143.21 234.39)">B</text><text transform="translate(167.73 216.26)">S</text><text transform="translate(58.83 201.31)">H</text><text transform="translate(69.85 201.31)">E</text><text transform="translate(84.65 201.31)">D</text><text transform="translate(128.21 219.96)">A</text></g><path d="m87.08 207.05v1" fill="none" stroke="#1d1d1b" stroke-linecap="round" stroke-miterlimit="10" stroke-width=".5"/><path d="m87.08 209.04v5.42" style="fill:none;stroke:#1d1d1b;stroke-linecap:round;stroke-miterlimit:10;stroke-width:.5;stroke-dasharray:1.97 .99 1.97 .99"/><path d="m87.08 214.95v17.25" style="fill:none;stroke:#1d1d1b;stroke-linecap:round;stroke-miterlimit:10;stroke-width:.5;stroke-dasharray:1.97 .99 1.97 .99 1.97 .99"/><path d="m87.08 232.7v1" fill="none" stroke="#1d1d1b" stroke-linecap="round" stroke-miterlimit="10" stroke-width=".5"/><text fill="#1d1d1b" font-family="BaskervilleMTPro-Regular, Baskerville MT Pro" font-size="10" transform="translate(.02 254.04)">S = Sea Sho<tspan letter-spacing="-.01em" x="49.81" y="0">r</tspan><tspan x="53.36" y="0">e</tspan></text><text fill="#1d1d1b" font-family="BaskervilleMTPro-Regular, Baskerville MT Pro" font-size="10" transform="translate(.01 265.95)">S<tspan letter-spacing="-.04em" x="5.42" y="0">A</tspan><tspan x="11.82" y="0">OP = Sea bottom be</tspan><tspan letter-spacing="-.01em" x="95.5" y="0">f</tspan><tspan x="98.11" y="0">o</tspan><tspan letter-spacing="-.01em" x="103.11" y="0">r</tspan><tspan x="106.66" y="0">e distu</tspan><tspan letter-spacing="-.02em" x="132.71" y="0">r</tspan><tspan x="136.17" y="0">bance</tspan></text><text fill="#1d1d1b" font-family="BaskervilleMTPro-Regular, Baskerville MT Pro" font-size="10" transform="translate(.31 277.11)">SBOP =</text><text fill="#1d1d1b" font-family="BaskervilleMTPro-Regular, Baskerville MT Pro" font-size="10" transform="translate(43.4 277.11)">"</text><text fill="#1d1d1b" font-family="BaskervilleMTPro-Regular, Baskerville MT Pro" font-size="10" transform="translate(66.36 277.11)">"</text><text fill="#1d1d1b" font-family="BaskervilleMTPro-Regular, Baskerville MT Pro" font-size="10" transform="translate(133.69 277.11)">"</text><text fill="#1d1d1b" font-family="BaskervilleMTPro-Regular, Baskerville MT Pro" font-size="10" transform="translate(87.52 277.11)">After</text><text fill="#1d1d1b" font-family="BaskervilleMTPro-Regular, Baskerville MT Pro" font-size="10" transform="translate(0 288.28)">D = Origin o<tspan letter-spacing=".14em" x="53.65" y="0">f</tspan><tspan x="57.8" xml:space="preserve" y="0"> 1</tspan></text><text fill="#1d1d1b" font-family="BaskervilleMTPro-Regular, Baskerville MT Pro" font-size="10" transform="matrix(.58 0 0 .58 64.15 284.95)">st</text><text fill="#1d1d1b" font-family="BaskervilleMTPro-Regular, Baskerville MT Pro" font-size="10" transform="translate(69.25 288.28)"><tspan letter-spacing=".02em">g</tspan><tspan letter-spacing="-.01em" x="4.87" y="0">r</tspan><tspan letter-spacing="0em" x="8.42" y="0">e</tspan><tspan letter-spacing="-.01em" x="12.8" y="0">a</tspan><tspan x="17.39" y="0">t w</tspan><tspan letter-spacing="-.03em" x="29.58" y="0">a</tspan><tspan letter-spacing="-.02em" x="33.98" y="0">v</tspan><tspan x="38.37" y="0">e</tspan></text><text fill="#1d1d1b" font-family="BaskervilleMTPro-Regular, Baskerville MT Pro" font-size="10" transform="translate(0 299.28)">E and H = Origin o<tspan letter-spacing=".14em" x="80.53" y="0">f</tspan><tspan x="84.68" xml:space="preserve" y="0"> 2</tspan></text><text fill="#1d1d1b" font-family="BaskervilleMTPro-Regular, Baskerville MT Pro" font-size="10" transform="matrix(.58 0 0 .58 91.76 295.95)">nd</text><text fill="#1d1d1b" font-family="BaskervilleMTPro-Regular, Baskerville MT Pro" font-size="10" transform="translate(97.89 299.28)"><tspan xml:space="preserve"> and 3</tspan></text><text fill="#1d1d1b" font-family="BaskervilleMTPro-Regular, Baskerville MT Pro" font-size="10" transform="matrix(.58 0 0 .58 122.68 295.95)"><tspan letter-spacing="-.01em">r</tspan><tspan x="3.55" y="0">d</tspan></text><text fill="#1d1d1b" font-family="BaskervilleMTPro-Regular, Baskerville MT Pro" font-size="10" transform="translate(127.79 299.28)"><tspan xml:space="preserve"> w</tspan><tspan letter-spacing="-.03em" x="9.27" y="0">a</tspan><tspan letter-spacing="-.02em" x="13.67" y="0">v</tspan><tspan letter-spacing="-.03em" x="18.06" y="0">e</tspan><tspan x="22.15" xml:space="preserve" y="0">.                   </tspan></text><text fill="#1d1d1b" font-family="BaskervilleMTPro-Regular, Baskerville MT Pro" font-size="10" transform="translate(27.28 115.03)">distu<tspan letter-spacing="-.02em" x="19.17" y="0">r</tspan><tspan x="22.63" y="0">banc</tspan><tspan letter-spacing="-.03em" x="42.11" y="0">e</tspan><tspan x="46.2" y="0">.</tspan></text><path d="m165.68 202.57 2.64 5.66" fill="none" stroke="#1d1d1b" stroke-linecap="round" stroke-miterlimit="10" stroke-width=".5"/><text fill="#1d1d1b" font-family="BaskervilleMTPro-Regular, Baskerville MT Pro" font-size="10" transform="translate(51.8 281.4)"><tspan xml:space="preserve">.      </tspan></text><path d="m63.11 206.23v-3.57" fill="none" stroke="#1d1d1b" stroke-linecap="round" stroke-miterlimit="10" stroke-width=".5"/><path d="m73.61 206.23v-3.57" fill="none" stroke="#1d1d1b" stroke-linecap="round" stroke-miterlimit="10" stroke-width=".5"/><path d="m134.68 44.2-.14 5.49" fill="none" stroke="#1d1d1b" stroke-linecap="round" stroke-miterlimit="10" stroke-width=".5"/></svg>