<svg viewBox="0 0 94.09 110.77" xmlns="http://www.w3.org/2000/svg"><path d="m7.06 8.15a2.66 2.66 0 0 1 1.28-1.6c.55-.43 1.15-.79 1.74-1.18a4.69 4.69 0 0 0 1.42-1 8.88 8.88 0 0 1 2-1.09c.63.17 1.07-.34 1.6-.51a5.62 5.62 0 0 1 1.38-.27 1 1 0 0 0 1-.58c.59-.17 1.22-.2 1.78-.41 1.18-.44 2.48-.19 3.64-.66a12.89 12.89 0 0 0 3.63-.7 5.26 5.26 0 0 1 2.61.08 28.15 28.15 0 0 1 4.36.77 1.91 1.91 0 0 0 1.29-.1c.43-.41 1-.15 1.37-.07a12.25 12.25 0 0 0 2.33.17 3.88 3.88 0 0 1 2.73 1.34c-.14.37.15.77-.07 1.14a7.7 7.7 0 0 0 -2.84-1.06c-.46-.07-.92.2-1.36 0-.13-.2-.32-.12-.48-.1-.63.06-1.26 0-1.9.08a4.14 4.14 0 0 1 -1.89-.4c-.21-.07-.43-.24-.65 0-1.48.18-2.93-.34-4.41-.24a5.08 5.08 0 0 0 -1.81.36 3.49 3.49 0 0 1 -2.16.3 2 2 0 0 0 -1.23.16 6.43 6.43 0 0 1 -2.7.39 4.11 4.11 0 0 0 -1.95.51 3.07 3.07 0 0 1 -1.72.46 1.57 1.57 0 0 0 -.93.19c-1.12.71-2.44 1.17-3.6 1.87a2.26 2.26 0 0 0 -1 1.1 1.48 1.48 0 0 1 -.7.8.69.69 0 0 0 -.22.2c-.32.4-.64.71-1 .08 0 0-.12 0-.18 0a.56.56 0 0 0 -.5.08.51.51 0 0 1 -.86-.11z" fill="#a6a6a6"/><path d="m28.61 64.5a.51.51 0 0 0 -.5.12 6.82 6.82 0 0 0 -1.51 1.06c-1 1-2.33 1.62-3.16 2.81 0 0-.08 0-.09 0 .07-.4.49-.58.55-1-.12-.2 0-.53-.32-.63a1.27 1.27 0 0 0 -.58.07 1.07 1.07 0 0 1 -.25 0c-.49-.08-.38.35-.5.59a2.22 2.22 0 0 1 -.59 2c-.11.11-.1.29-.19.42l-.24.25c-.11.54.12.25.59.12.09 0 .27.19.21.39-.34.5-.5 1.3-.86 1.77a2.11 2.11 0 0 0 -.2 2.44c.07 0 .08.21.09.3s.14.31.16.46c0 .11.06.24.08.36v.06a1.9 1.9 0 0 1 -.09.53 1.11 1.11 0 0 0 .44 1s.07 0 .09 0a.34.34 0 0 1 .09.19c0 .09-.05.12-.12.12s0 0 0 .08c.12.5.21.52.73.23a2.4 2.4 0 0 0 .16-1 3.61 3.61 0 0 0 .08-.72 20.16 20.16 0 0 1 -.11-3.56 2.58 2.58 0 0 1 .76-1.8c.08-.09.19-.14.26-.24a10.1 10.1 0 0 1 2.61-3 1.8 1.8 0 0 0 .32-.35 6.32 6.32 0 0 1 1.08-1c.6-.14 1.2-.2 1.55-.88s.3-1.04-.54-1.19z" fill="#757575"/><path d="m29.87 47.92a34.25 34.25 0 0 1 -.32 4.75v.85c0 1.58 0 3.16-.14 4.74-.05.92-.11 1.84-.09 2.77 0 .18 0 .39.15.49s.36-.08.51-.19l1.73-1.2a.33.33 0 0 1 .25-.08c.31.27.09.44-.12.59a19.11 19.11 0 0 1 -2.21 1.45 2.35 2.35 0 0 0 -.86.7c-.43.13-.7.52-1.11.67a.29.29 0 0 1 -.36 0 .37.37 0 0 1 -.08-.18c-.07-.34.18-.51.4-.67a1.93 1.93 0 0 0 .85-1.76 8.12 8.12 0 0 0 0-1.48v-.2a14.22 14.22 0 0 0 .32-3.5 19.84 19.84 0 0 1 .06-2.67c.09-.42-.11-.86 0-1.3a14.14 14.14 0 0 0 .31-3.3 11.85 11.85 0 0 0 -.09-2.85c-.06-.32.2-.6.1-.88-.35-1 .2-2.13-.22-3.19-.14-.36.08-.88 0-1.34a2 2 0 0 0 -.09-.49 10.12 10.12 0 0 1 0-2.52 2.73 2.73 0 0 0 -.26-1.82c-.07-.12-.16-.27-.08-.39a3.48 3.48 0 0 0 .21-2.13 20.5 20.5 0 0 1 .12-2.22c.07-1.13-.28-2.23-.29-3.35a1.41 1.41 0 0 0 .17-1.22 1 1 0 0 1 .06-.74.28.28 0 0 1 .17-.11c.4 0 .33.34.41.6.23.69-.08 1.4.13 2 0 .19-.09.08 0 .1s0 0 0 0a27.67 27.67 0 0 1 -.11-4.17c0-.18 0-.35.17-.44a.18.18 0 0 1 .17.06.88.88 0 0 1 .27 1.02 8 8 0 0 0 -.09 2.58 20.56 20.56 0 0 1 -.21 4.1 28.09 28.09 0 0 0 0 6.08 2.67 2.67 0 0 1 0 .48c-.25 1.49.12 3 0 4.46a14.07 14.07 0 0 0 .13 2.34c.17 1.15.51 2.37.04 3.56z" fill="#a8a8a8"/><path d="m55 26.42a1.57 1.57 0 0 0 -.36-1 11.51 11.51 0 0 1 -1-3.35c-.14-.61 0-1.3-.48-1.81l-.22-.85a7.23 7.23 0 0 0 -.32-2.26.62.62 0 0 1 -.63-.62.87.87 0 0 0 -.31-.61c-.35-1-.9-1.88-1.19-2.89a2.51 2.51 0 0 0 -1.49-1.67c-.26 0-.33.23-.41.42a1.81 1.81 0 0 0 .37.68 26.25 26.25 0 0 1 2.24 4.1 4.65 4.65 0 0 1 .46 1.36 21.22 21.22 0 0 0 .76 4.08c.48 1.32.82 2.69 1.21 4 .17.21-.1.6.2.69a.59.59 0 0 1 .3.21.12.12 0 0 1 .14-.06c.34.13.33.52.33.84a1.66 1.66 0 0 1 0 .22s0 0 0 0 0 .11 0 .16v.19l.08.09a.13.13 0 0 1 .09.12c.31-.12.17-.47.24-.71.11-.39-.01-.85-.01-1.33z" fill="#9f9f9f"/><path d="m49 11.52c.06.38-.08.45-.38.26a8.06 8.06 0 0 0 -2.21-3.35c-.56-.66-.57-1.54-1.09-2.19a1.72 1.72 0 0 0 -.44-.49c-1-.54-1.88-1.22-2.9-1.68a1.73 1.73 0 0 1 -.79-.62c-.13-.28-.4-.41-.68-.63l.67-.35a10.55 10.55 0 0 1 1.82.78 1.38 1.38 0 0 0 1.16.24 1.32 1.32 0 0 1 .49.84.89.89 0 0 0 1.19.55 2.58 2.58 0 0 1 1.36.89 15.77 15.77 0 0 1 2.18 2.57 1.76 1.76 0 0 1 .33.74.57.57 0 0 1 -.66.57.29.29 0 0 1 -.24-.16 11.84 11.84 0 0 0 -1.89-2.18 6.06 6.06 0 0 0 .83 1 3.2 3.2 0 0 1 .82 1.44 5.68 5.68 0 0 0 .49 1.25c.09.17.2.38-.06.52z" fill="#939393"/><path d="m22.44 58a27.92 27.92 0 0 1 .28-4.09 8.22 8.22 0 0 0 0-1.92c-.16-.94 0-1.88 0-2.82.13-.92 0-1.85.12-2.78a1.1 1.1 0 0 1 0-1 6.11 6.11 0 0 1 -.2-1.87c0-.75.12-1.48.15-2.22a5.21 5.21 0 0 0 .11-1.67c0-.31 0-.65.51-.46a.4.4 0 0 1 .07.21 18.65 18.65 0 0 0 0 2.48c0 1 0 2 .07 3s-.07 2.19 0 3.28a12.18 12.18 0 0 1 -.17 2.18c-.07.51.17.94.12 1.41-.1.95.17 1.9.05 2.83-.1.7.09 1.37 0 2 0 .2 0 .41-.18.56a.3.3 0 0 1 -.21 0c-.32-.19-.26-.54-.24-.79.08-.77.07-1.53.14-2.11 0 .73-.15 1.62-.12 2.54-.09.45.06.99-.5 1.24z" fill="#9d9d9d"/><path d="m22.44 58a16.26 16.26 0 0 0 .34-3c.09-.49.11-1 .19-1.48.16 1.22 0 2.44.06 3.66a20.69 20.69 0 0 1 .11 4c-.06.43.15.82.06 1.26a7 7 0 0 0 -.2 1.1 6.2 6.2 0 0 0 0 2.27 1.66 1.66 0 0 1 -.09 1.57l-.14-.23c-.14-.24-.27-.28-.39 0 0 .11 0 .24-.07.34a2.74 2.74 0 0 1 -.85 2.41c.05-.17.05-.38.16-.5a2.41 2.41 0 0 0 .52-2c-.12-.92.14-1.84.09-2.76a39 39 0 0 1 .32-4.64 4.91 4.91 0 0 0 -.13-1.26 1.22 1.22 0 0 1 .02-.74z" fill="#a4a4a4"/><path d="m55.19 93.74a11.5 11.5 0 0 1 -.12 2.93 12.93 12.93 0 0 0 -.24 2c-.09 2.53-.47 5-.42 7.59a.51.51 0 0 1 -.26.53 1 1 0 0 1 -.21-.78 28.46 28.46 0 0 1 .35-4.61 7.88 7.88 0 0 0 .14-2.17 10.08 10.08 0 0 1 .19-2.63c.17-1.67 0-3.35.21-5 .39 0 .24.29.23.46 0 1.21-.09 2.42-.12 3.61.06-.67-.18-1.34.25-1.93z" fill="#9e9e9e"/><path d="m55.67 33.91a8.56 8.56 0 0 1 .23 2.09c.07 1.81-.06 3.62.12 5.43a29.94 29.94 0 0 1 -.09 3.14c0 1.76.08 3.53.22 5.3l.12.24c-.07.08-.09.18-.16.27a1.48 1.48 0 0 0 -.26.57c0 .15-.13.23-.3.13v-.38a18.25 18.25 0 0 0 0-4.37c0-1.85.08-3.7.09-5.55 0-1.17-.07-2.33-.11-3.5.13-.19 0-.4.06-.6.11-.75-.2-1.48-.1-2.23.05-.2-.04-.45.18-.54z" fill="#9e9e9e"/><path d="m55.43 31.49c-.15-1.25-.32-2.51-.47-3.76a1.52 1.52 0 0 1 -.12.7.12.12 0 0 1 .08.14 3.66 3.66 0 0 0 0 1.32c.08.47.07 1 .16 1.45a.12.12 0 0 1 -.23.08.2.2 0 0 1 0-.08s0 0-.06 0a3.44 3.44 0 0 1 -.5-1.8 6.3 6.3 0 0 1 -.18-2 1.22 1.22 0 0 1 0-.17 1.42 1.42 0 0 0 0-.2.15.15 0 0 1 .09-.15.12.12 0 0 1 .16-.1.53.53 0 0 1 .31.5 1.8 1.8 0 0 0 -.18-.75c-.07-.14-.15-.41-.29-.31-.41.3-.37-.11-.49-.27a12.53 12.53 0 0 0 .25 2.8c.33 1.56.64 3.13.95 4.69.26.17.37-.1.54-.19s0-.32.18-.41c-.12-.53-.14-.98-.2-1.49z" fill="#9e9e9e"/><path d="m22.43 77.3c.14 1.89.24-1.27.19.64.31.14-.06 5.46-.08 5.71a25.25 25.25 0 0 0 0 4.26c-.05.66-.11.71-.63.64a3.85 3.85 0 0 1 -.18-1.87c0-1.2.13-2.39.1-3.6s.22-2.31.21-3.48c.2-.2.12-.43.05-.65a.53.53 0 0 1 .19-.68 2.45 2.45 0 0 1 .15-.97z" fill="#adadad"/><path d="m55.19 81.41.16-2.77h.15c.19 1.49-.16 3-.06 4.47.07 2.14-.13 4.28-.14 6.43a3.91 3.91 0 0 1 -.1.58c-.33-.21-.15-.53-.16-.8a4 4 0 0 0 -.21-1.5l.27-3.6a12.57 12.57 0 0 1 .09-2.81z" fill="#9e9e9e"/><path d="m54.83 87.82.2-.49h.17v2.79c.09 1.21 0 2.41 0 3.62a22.11 22.11 0 0 1 -.36 2.8v-.72c0-1.22 0-2.45.11-3.67a1.06 1.06 0 0 0 -.11-.58c0-.72 0-1.45 0-2.15.09-.55-.27-1.07-.01-1.6z" fill="#9e9e9e"/><path d="m21.59 97.73a9.56 9.56 0 0 0 0-2.45c-.08-1.39.06-2.77.07-4.16a1 1 0 0 1 .09-.28s.41 0 .44 0c.16.18-.28-.64-.1-.54.95.53 0 2 .22 2.27.15.48-.06.94 0 1.42 0 1.22.15 2.43.2 3.65.1.46-.29 1 .15 1.41-.22.51-.43.53-.92.09-.08-.47-.33-.93-.15-1.41z" fill="#b1b1b1"/><path d="m58.07 71v.14a1 1 0 0 1 -1 0 .74.74 0 0 0 -1.12.71c0 .28.14.64-.17.88.19.55-.12 1.14.11 1.69-.11 1-.23 1.94-.35 2.91 0 .13 0 2-.25 2.14a19.88 19.88 0 0 1 0-3c0-1.5.3-3 .22-4.48a2 2 0 0 0 -.24-1 2.17 2.17 0 0 1 2.06-.61c.39.07.56.35.74.62z" fill="#9e9e9e"/><path d="m22.06 78a.58.58 0 0 0 -.58-.56s0 0 0 0l.2.22s.07 0 .09 0a.34.34 0 0 1 .09.19c0 .11-.09.16-.18.12a.12.12 0 0 1 -.08 0 .11.11 0 0 1 -.14 0 3.66 3.66 0 0 1 -.59-.59 2 2 0 0 1 -.09-1 .13.13 0 0 1 0-.1 5.74 5.74 0 0 0 -.09-.71c-.07-.07-.17-.09-.35 0-.24.23-.07.61-.28.85a1.53 1.53 0 0 1 .07.29 2.72 2.72 0 0 0 1.62 2.27.72.72 0 0 1 .36.71c.22.11.23 0 .24-.2v-1.22a.28.28 0 0 1 -.29-.27z" fill="#949494"/><path d="m17.16 110.66a10.71 10.71 0 0 1 -.42-2.87 1 1 0 0 1 .18-.63c.27.07.48.3.77.33s.27.1.34-.08.07-.27.23-.3a3 3 0 0 1 .52 0c.41.13.09.44.16.65a.4.4 0 0 1 .1.23.22.22 0 0 1 -.09.14c-.4.24-.82.48-1.21.74a1.09 1.09 0 0 0 -.23 1.43.38.38 0 0 1 -.35.36z" fill="#a8a8a8"/><path d="m21.23 70.17c.09.37.25.25.45.08s.25-.6.53-.35 0 .54-.18.78c0 0-.18-.42-.21-.39s-.31.44-.41.59a4.72 4.72 0 0 0 -1 1.68 4 4 0 0 0 -.18 1.61.3.3 0 0 1 -.44-.28 1.45 1.45 0 0 0 -.14-.46 12.27 12.27 0 0 1 1.58-3.26z" fill="#a2a2a2"/><path d="m32 2-.54-.21c.1-.25.28-.17.41-.12a12.16 12.16 0 0 0 4.49.41c.43 0 .48 0 .56.29a5.12 5.12 0 0 0 -1.56.12 5.89 5.89 0 0 1 -3.36-.49z" fill="#999"/><path d="m19.66 73.43c.19-.1.33-.11.37.16s.08.3.12.45c.11.67.16 1 .25 1.56-.07.27.16.7-.38.73-.24-.95-.73-1.87-.36-2.9z" fill="#929292"/><path d="m54.83 33.53c.3-.23.21-.57.28-.89l.2.65c0 .05.1.08.1.15a31.28 31.28 0 0 1 .26 3.35l-.12.49c0-.41-.08-.83-.13-1.24 0-.13 0-.33-.12-.38-.92-.55-.55-1.37-.47-2.13z" fill="#9e9e9e"/><path d="m21.94 88.55c.28-.18.25-.47.26-.74.27-.06.36.14.37.34a2.88 2.88 0 0 1 -.1 1.51c0 .67-.19 1.5-.32 1.32s.26.25-.43-.14c-.15-.79.28-1.52.22-2.29z" fill="#b1b1b1"/><path d="m22.79 46.35a11.25 11.25 0 0 1 -.12 2.78 10 10 0 0 1 .12-2.78z" fill="#c5c5c5"/><path d="m35.39 2.47a2 2 0 0 1 1.61-.12 7.36 7.36 0 0 1 -1.61.12z" fill="#a6a6a6"/><path d="m8.39 8a9.14 9.14 0 0 0 -1.68 2.8 11.29 11.29 0 0 0 -1.3 2.41c-.34 1.22-1 2.41-.75 3.76 0 .11.08.31-.1.35s-.16-.15-.25-.23c-.26-.13-.31-.45-.53-.62a8.13 8.13 0 0 1 .68-2.47c.09-.24.14-.49.22-.73.68-1.64 1.58-3.18 2.2-4.84a1.37 1.37 0 0 1 .18-.24c.17-.13.21-.39.49-.5-.07.43.11.5.44.33a.41.41 0 0 1 .4-.02z" fill="#9f9f9f"/><path d="m3 53.24v2.17a7.69 7.69 0 0 0 -.18 1.85 86.14 86.14 0 0 0 -.36 9.37 15.79 15.79 0 0 1 -.16 2.28 11.86 11.86 0 0 1 -.3 2.59 3.31 3.31 0 0 0 -.06.94c0 .11 0 .27-.13.28s-.21-.14-.22-.29a.49.49 0 0 1 0-.12c.21-1 0-2.08.18-3.11.23-2.2.23-4.45.34-6.67.07-1.51 0-3 .11-4.52 0-.86.19-1.71.29-2.56a18.51 18.51 0 0 0 .11-3.07c.29 0 .29.21.31.41s-.07.32.07.45z" fill="#999"/><path d="m1.79 69.2c.12 1.08-.05 2.17 0 3.26.23-.29.07-.67.26-1-.19 3.81-.1 7.64-.43 11.45a23.17 23.17 0 0 0 .12 3.72c.05.67.05 1.33.07 2l-.12.49a1 1 0 0 0 -.18.62c0 .82-.18 1.64-.18 2.47 0 .16.1.44-.25.41a24 24 0 0 1 .26-3.59 41.63 41.63 0 0 0 -.13-4.87v-.12a2.26 2.26 0 0 1 0-.86c0-.94.15-1.87.12-2.81 0-.52.17-1 .11-1.53.16-2.18 0-4.38.15-6.56a13 13 0 0 1 .2-3.08z" fill="#a7a7a7"/><path d="m3.12 48.47c0-.11 0-.21 0-.32a.87.87 0 0 1 .06-.47c.06-.46 0-1 .08-1.4a4.87 4.87 0 0 1 0-1.94v-.05a0 0 0 0 1 0 0c0-.08-.07-.16-.18-.13s-.11.15-.13.25a3.25 3.25 0 0 1 -.14 1.12 9.28 9.28 0 0 0 -.09 2.41 4.9 4.9 0 0 1 0 1.83v.48c.1.08 0 .29.22.32a.29.29 0 0 0 .14-.08v-.83-.07a4.37 4.37 0 0 1 .04-1.12z" fill="#767676"/><path d="m2.75 50.22.24.25a12.45 12.45 0 0 1 0 2.66v.11c-.32-.2-.23-.58-.37-.86z" fill="#989898"/><path d="m50.88 11.28.47 1.1.13.48a9.44 9.44 0 0 1 .62 2c.12.64.31 1.27.42 1.92 0 .17.09.3-.09.41s-.15.51-.24.89l-.72-2.08c.14-.41-.13-.76-.2-1.14a26 26 0 0 0 -.75-2.57 1.08 1.08 0 0 1 -.09-.75.48.48 0 0 1 .45-.26z" fill="#adadad"/><path d="m13.55 3.43c1-.9 2.43-.77 3.62-1.21l.34-.12c.25.06.24.18 0 .31a1.68 1.68 0 0 1 -.83.28 6 6 0 0 0 -2.44.7.7.7 0 0 1 -.69.04z" fill="#9a9a9a"/><path d="m28.53 64.71.14-.47c.29-.24.71-.15 1-.42a21.06 21.06 0 0 0 3.11-1c.12-.05.23-.1.35 0a3.21 3.21 0 0 1 .73.54c-.39.44-1.07.38-1.45.84a14.55 14.55 0 0 0 -2.41.65 1.53 1.53 0 0 0 -1.1 1.36c0 .36-.33 7.93-.54 8.35 0 0 .24-8.08-.23-8.22s-.51.16-.75.29a.61.61 0 0 1 .8-.44c.39.12.55 0 .63-.37a1 1 0 0 1 .13-.34c.26-.55.06-.74-.41-.77z" fill="#939393"/><path d="m23.4 67a.91.91 0 0 1 .31-.5 22.74 22.74 0 0 1 3-2.48 4.17 4.17 0 0 0 .68-.65l.24-.13a.2.2 0 0 1 .31 0c.08.13 0 .21-.1.31a11.91 11.91 0 0 1 -1.84 1.54c-.13.43-.55.57-.86.8-.63.46-1 1.16-1.64 1.63.07-.18.13-.37-.1-.52z" fill="#999"/><path d="m22.32 67.51a1.4 1.4 0 0 1 0-.29c0-.22-.09-.56.21-.59s.18.33.26.52c-.31-.08-.35.2-.47.36z" fill="#868686"/><path d="m29.75 82.38c.24.17.43.38.79.16s.4.12.37.31c-.16.91.41 1.64.57 2.48a9.26 9.26 0 0 1 -.76 6.36c-.11.15-.1.45-.37.37a.5.5 0 0 1 -.31-.52 1.64 1.64 0 0 1 .15-.76 4.37 4.37 0 0 0 .51-2.78 10.4 10.4 0 0 0 -.29-1.83 2.84 2.84 0 0 0 -.46-1 .76.76 0 0 1 -.15-.88.55.55 0 0 0 0-.83 3.9 3.9 0 0 1 -.43-.78c-.12-.28-.02-.46.38-.3z" fill="#757575"/><path d="m30.59 90.84c-.06.27-.11.54-.16.81 0 .08 0 .2.05.19s.16-.1.24-.15a11.49 11.49 0 0 1 -1 2.19c-.1.24-.21.47-.31.7a19.35 19.35 0 0 1 -1.17 2 2.54 2.54 0 0 0 -.53 1.42c0 .43-.42.2-.6.36l-.36.61c-.24.29-.35.17-.41-.12a1.26 1.26 0 0 1 .43-1.13c.34-.55 0-1.19.28-1.75a2.34 2.34 0 0 1 .28-.72.5.5 0 0 1 .5-.18c.24.1.37 0 .48-.22a6.1 6.1 0 0 0 1.11-2.22c.1-.58.59-1.07.73-1.68.05-.25.26-.24.44-.11z" fill="#9e9e9e"/><path d="m29.75 82.38c-.23.5.19.78.41 1.07s.3.68-.08 1a.53.53 0 0 0 -.33-.09c-.43.06-.63-.16-.61-.58a.43.43 0 0 0 -.26-.48 2 2 0 0 1 -.88-2.37c.26-.4.34 0 .49.11a1.17 1.17 0 0 1 .48.65c.03.45.57.37.78.69z" fill="#878787"/><path d="m28.44 81a.54.54 0 0 0 -.49-.11c-.08-1.62.28-3.22.24-4.84a6.2 6.2 0 0 0 .15-1.61c0-.23 0-2.16.1-2.47.23.23.2-1.05.19-.87 0 1.52-.11 6.23-.26 7.74a6 6 0 0 0 .07 2.16z" fill="#9e9e9e"/><path d="m58.07 71a1.58 1.58 0 0 1 -.66-.26 1.45 1.45 0 0 0 -1.42.17.71.71 0 0 1 -.67.09c-.46-.58.12-.94.28-1.39a.1.1 0 0 1 .09-.07c.31-.07.33-.08.12-.39a1.87 1.87 0 0 1 -.25-1.15 36.73 36.73 0 0 0 -.13-3.79 12.64 12.64 0 0 1 -.19-3.58c.06-.34-.44-.64-.07-1h.08a1.08 1.08 0 0 1 .35 1.24 5.11 5.11 0 0 0 -.05 1.83.76.76 0 0 0 .42.67 4.21 4.21 0 0 1 .5 2.37 10.87 10.87 0 0 0 .23 3.17.82.82 0 0 0 .12.34c.06.1.15.21.28.15s.08-.16.08-.26c-.07-1 0-2.08-.11-3.12-.07-.39-.07-.8-.17-1.19a7.08 7.08 0 0 1 -.3-1.83 2.16 2.16 0 0 0 -.42-1.28c-.34-.5-.3-.6.26-.84.13 0 .2-.2.35-.23a.41.41 0 0 1 .28.07 1.31 1.31 0 0 1 .31.65 5 5 0 0 1 .13 1.33 15 15 0 0 0 .44 2 12 12 0 0 1 .05 2.18 12.92 12.92 0 0 0 .3 2.47.61.61 0 0 0 .41.39 1.85 1.85 0 0 0 .81.11c1.66-.11 3.33 0 5 0 1.06 0 2.11-.07 3.16 0 .84 0 1.67-.22 2.51-.13.15 0 .29.05.44.05a22.23 22.23 0 0 0 3.46.09c.23 0 .41 0 .53.2a1.15 1.15 0 0 1 -.29.08c-1.7-.07-3.39.14-5.09.12-1.52 0-3.07 0-4.6.1-1 .08-2 0-3 0s-1.83 0-2.75.07a1.15 1.15 0 0 0 -.82.57z" fill="#737373"/><path d="m59.61 59a14.43 14.43 0 0 1 3.22-.12h5.26c2.91.07 5.8-.16 8.71-.15-.12.35-.12.35-.54.2.52.36 1 0 1.56 0 .3 0 .61 0 .92-.07a.62.62 0 0 1 .66.47c.1.48.29.94.38 1.43-.09.4 0 .83-.23 1.19-.36.14-.44 0-.47-.37a5.55 5.55 0 0 0 -.32-1.56c-.15-.36-.31-.62-.8-.5a16.47 16.47 0 0 1 -3.51 0c-1.83.09-3.65.22-5.48.36a19.21 19.21 0 0 1 -2.74.09.74.74 0 0 1 -.62-.28c0-.18.08-.31.28-.3 1 .06 1.93 0 2.78 0-.65 0-1.41 0-2.16 0-.52 0-.93-.38-1.46-.24a4.21 4.21 0 0 1 -.44 0 3.64 3.64 0 0 1 .76 0c.34 0 .4.17.2.44a2.54 2.54 0 0 1 -1.93.14 3.48 3.48 0 0 0 -1.24-.17c-.21 0-.45.06-.57-.21.09-.48.47-.18.68-.27-.92 0-1.87.06-2.81 0a.24.24 0 0 1 -.09-.08z" fill="#797979"/><path d="m79.44 60.73c0-.14-.07-.27-.09-.41-.19-1.13-.34-1.25-1.44-1.08a2.45 2.45 0 0 1 -2.19-.3c.31-.07.72.06 1.08-.15 1.75 0 3.5-.52 5.26-.07a7.19 7.19 0 0 1 .25 1.53c.07.27.19.56-.15.75s-.32-.16-.39-.35-.14-.66-.28-1c-.26.16 0 .37-.06.54a4.87 4.87 0 0 1 .1 1.7.72.72 0 0 1 -.37.18.36.36 0 0 1 -.26-.07 1.33 1.33 0 0 1 -.18-.68c0-.33-.08-.63-.47-.74a.32.32 0 0 1 -.22-.36c-.18.18-.03.7-.59.51z" fill="#676767"/><path d="m56.14 56.53.39.22c-.07.62-.57 1-.81 1.58-.13.32-.5-.09-.67-.28s-.15-.37-.31-.49-.26-.36-.06-.59a2.64 2.64 0 0 0 .27-.46c.2-.13.45-.06.66-.27s.39.19.53.29z" fill="#616161"/><path d="m56.14 56.53c-.39-.37-.79.07-1.19 0a.9.9 0 0 0 .6-1c0-1.48 0-3 0-4.45.08-.25.14-.49.22-.73s.07-.31.26-.12a40.15 40.15 0 0 0 -.1 5.7 2.45 2.45 0 0 0 .21.6z" fill="#9e9e9e"/><path d="m59.61 59h.14c-.11.52-.55.3-.84.36a15.44 15.44 0 0 0 -2.42.39 1.11 1.11 0 0 1 -1.28-.14c.32-.42.78-.27 1.19-.31a23.64 23.64 0 0 1 3.21-.3z" fill="#737373"/><path d="m23.65 23.39a1.65 1.65 0 0 1 1.11-.74c1.51-.31 3-.57 4.48.26a1.13 1.13 0 0 1 .4.35c.11 1.54-.07 3.08.1 4.62 0 .29.06.82-.3.84s-.19-.54-.22-.85a10 10 0 0 0 -.22-2.56 3.84 3.84 0 0 0 -1-1.31c-.14-.31-.4-.64.15-.79a4.23 4.23 0 0 0 -2.09 0c-.1 0-.25 0-.24.13.07.87-.63.75-1.12.89s-.62.54-.68.92c-.11.69-.11 1.38-.21 2.07a9.8 9.8 0 0 1 -.16 1.52c-.07.19-.15.38-.42.28-.34-.48 0-1 0-1.45a4.75 4.75 0 0 1 .12-1.72c.17-.79.09-1.64.3-2.46z" fill="#878787"/><path d="m31.92 60.14a6.87 6.87 0 0 0 2.51-1c.15.13.34.26.39.43.15.48.4.42.72.2a.39.39 0 0 1 .28 0 .45.45 0 0 1 .27.64.77.77 0 0 1 -.76.48 1.25 1.25 0 0 1 -.78-.27.65.65 0 0 0 -.68-.08 14.62 14.62 0 0 0 -4.1 2.28 6.26 6.26 0 0 0 -.41.49c-.29.31-.55.31-.88 0s-.2-.51.07-.73a1.59 1.59 0 0 1 .93-.78 8.21 8.21 0 0 0 2.44-1.66z" fill="#949494"/><path d="m28.55 62.55a.61.61 0 0 0 0 .46c0 .12.12.23.25.25s.2-.11.24-.22a.9.9 0 0 1 .62-.61c.1.11.16.24.06.37a.93.93 0 0 0 .05 1.32q-.45.76-1.08.12c-.29-.94-.38-.94-1.16-.23a3.62 3.62 0 0 1 -1.53 1.08c.33-.59 1-.75 1.42-1.25.12-.16.45-.29.14-.57.36-.27.59-.59.99-.72z" fill="#a6a6a6"/><path d="m28.19 23.86a1.41 1.41 0 0 1 .81 1.45h-.13c-.36.34-.3.88-.59 1.27s-.45.49-.82.23c-.2-.22-.6-.34-.39-.77l.12-.12c.12-.1.26-.06.4 0a.28.28 0 0 0 .3-.13c.19-.29-.05-.64.08-.92s.28-.45-.05-.68a.2.2 0 0 1 0-.34.23.23 0 0 1 .27.01z" fill="#aaa"/><path d="m1 104.27c-.18 1.34-.15 2.71-.46 4-.12.51.14 1 0 1.55 0 .2 0 .47-.28.46s-.26-.28-.26-.43a22.74 22.74 0 0 1 .22-2.32 15.51 15.51 0 0 1 .25-2.53 3.15 3.15 0 0 1 .24-1.69c.13-.18.27-.21.29 0a2.3 2.3 0 0 1 0 .96z" fill="#909090"/><path d="m1 104.27c-.1-.32.21-.75-.25-1-.1-.8.12-1.59.09-2.39s.1-1.79.15-2.68c.11-.11 0-.29.2-.4a1.33 1.33 0 0 1 0 1 34.27 34.27 0 0 1 -.12 4.86c-.07.22-.07.41-.07.61z" fill="#9d9d9d"/><path d="m1.19 98.82a3.85 3.85 0 0 0 0-.59c-.05-.25-.15-.08-.23 0a21.49 21.49 0 0 1 .12-2.54c.24-.25.05-.49 0-.73v-1.96c.26 0 .23.15.24.3s0 .45 0 .67l.11.36v1.81l-.12.36a1.24 1.24 0 0 0 0 .85 4.43 4.43 0 0 1 -.12 1.47z" fill="#a7a7a7"/><path d="m1.19 93.38-.12-.38a.38.38 0 0 1 0-.37 20.61 20.61 0 0 0 .26-2.2c.09-.44 0-.94.35-1.3l-.24 3.38c-.12.21 0 .43-.06.64s.01.27-.19.23z" fill="#969696"/><g fill="#9d9d9d"><path d="m.47 105a24.42 24.42 0 0 1 -.24 2.55 7.29 7.29 0 0 1 .24-2.55z"/><path d="m1.31 97.37a.5.5 0 0 1 0-.85 1 1 0 0 1 0 .85z"/><path d="m1.07 95a.65.65 0 0 1 .22.73c0 .23-.14.06-.22 0a1.64 1.64 0 0 1 0-.73z"/></g><path d="m44.16 3.57c.4 0 .59.29.8.54a3.72 3.72 0 0 0 .87.9c0 .07 0 .18-.06.22-.2.17.12.52-.15.58s-.37-.32-.52-.51a4.09 4.09 0 0 0 -.86-.64c-.13-.11-.62-.26 0-.5.23-.11-.11-.38-.08-.59z" fill="#878787"/><path d="m50.62 11.54c-.38-.83-1.19-1.34-1.55-2.18.28 0 .39-.15.48-.36a4.64 4.64 0 0 1 1.33 2.28c-.02.16-.09.27-.26.26z" fill="#9e9e9e"/><path d="m43.39 4.28a6.27 6.27 0 0 1 -1.53-.66c-.1-.09-.29-.13-.19-.31a.23.23 0 0 1 .33-.05c.5.28 1 .58 1.48.88z" fill="#a6a6a6"/><path d="m18.71 108c-.15 0-.35 0-.35-.2s.32-.35.49-.51c.3-.38.41-.88.77-1.23a3 3 0 0 0 .34-.37 4.16 4.16 0 0 0 1.22-1.81c0-.1.08-.25.16-.23.5.1.86-.42 1.35-.29s.09.43 0 .64l-.35.49a1.92 1.92 0 0 0 -.37 1.57 1.2 1.2 0 0 0 -.08.93 4.44 4.44 0 0 1 .11 1.5c-.18.15-.29.53-.6.37a.81.81 0 0 1 -.37-.82 1.59 1.59 0 0 0 -.3-1.34 2.54 2.54 0 0 1 -2.02 1.3z" fill="#727272"/><path d="m18.71 108a8.31 8.31 0 0 0 2.44-2.1 18.36 18.36 0 0 1 0 2.22c-.08.62.23.73.8.37-.38.63-.58.63-1 0a1.64 1.64 0 0 1 -.05-.82c0-.16.2-.87 0-1s-.71.58-.8.67-.14.21-.19.27a2.62 2.62 0 0 0 .07 2.61.32.32 0 0 1 0 .44c-.22.15-.41 0-.57-.15a5.61 5.61 0 0 1 -.24-2c0-.21.07-.46-.23-.55z" fill="#858585"/><path d="m22.66 104c0-.18.1-.36-.11-.47-.25-.42 0-.7.26-1 .57-.69 1.21-1.31 1.83-2 .24-.22.34-.59.73-.63.22 0 .46-.09.43.27l-.38.72a29.55 29.55 0 0 0 -2.16 2.45 2.71 2.71 0 0 1 -.6.66z" fill="#9f9f9f"/><path d="m21.94 106.07a1.44 1.44 0 0 1 .37-1.57 4.68 4.68 0 0 0 -.37 1.57z" fill="#9f9f9f"/><path d="m3.55 41.26h.08c0-.11 0-.21 0-.32s0-.38 0-.57a6.12 6.12 0 0 1 0-1.35 76.77 76.77 0 0 0 .43-8.16c-.08-.08 0-.27-.18-.27s-.09.19-.18.27a35.72 35.72 0 0 0 -.13 4.14c0 1.47-.15 2.93-.25 4.39a6.83 6.83 0 0 1 -.08 1.5c.11.11.17.36.31.37z" fill="#9e9e9e"/><path d="m4.07 30.88a.24.24 0 0 0 -.36 0 26.71 26.71 0 0 1 .29-3.35c.1-.86 0-1.72.08-2.58.45.58.2 1.26.27 1.89a6.81 6.81 0 0 1 0 1c-.12 1.02-.2 2.03-.28 3.04z" fill="#9e9e9e"/><path d="m3.5 42.76c0-.6.15-1.17.16-1.77a.43.43 0 0 0 -.41-.07c-.09.28-.17.56-.26.83.23.56-.11 1.8.08 2.46s.28-.47.43-1.45z" fill="#838383"/><path d="m3 53.13v-2.66h.12a12.55 12.55 0 0 1 -.12 2.66z" fill="#999"/><path d="m81.59 59.41a2.67 2.67 0 0 1 .48 1.45c.37.18.36.57.4.87a4.92 4.92 0 0 0 .29 1.08 4 4 0 0 1 .18 2.45.85.85 0 0 0 .12.65 2.21 2.21 0 0 1 0 1.91 4.84 4.84 0 0 0 -.41 1.5c-.06.08-.13.22-.18.22-.91-.07-1.69.83-2.67.34a2.5 2.5 0 0 0 -.88-.07 11.37 11.37 0 0 0 -2-.24c-.22 0-.46.05-.58-.22s.17-.31.39-.33a10.21 10.21 0 0 1 2.47 0 1.05 1.05 0 0 0 1.33-1c.06-.4 0-.81.06-1.21.32-.12.32-.12.52.31a9.36 9.36 0 0 1 -.94-2.69c-.17-.73-.36-1.48-.48-2.23a1.29 1.29 0 0 1 .07-.55.54.54 0 0 1 .43-.45.53.53 0 0 1 .56.25c.08.12.15.25.23.35l.12.13c.22.17.13.44.18.66a2.67 2.67 0 0 0 .13 1.73c0 .14 0 .09 0 .07a.5.5 0 0 1 0-.34c.3-.29.07-.59 0-.88a2.21 2.21 0 0 1 -.1-1.37l-.24-1.69c-.13-.14 0-.3 0-.45-.07-.49.19-.46.52-.25z" fill="#7c7c7c"/><path d="m82.68 69.32c-.17.05-.38.16-.48-.06s.17-.22.27-.33.21-.17.23-.27c.14-1 .63-1.87.13-2.87-.28-.55 0-1.18-.08-1.77a3.33 3.33 0 0 0 -.13-.94c-.31-.71-.31-1.5-.55-2.22.23-.15.23-.38.24-.61a28.59 28.59 0 0 0 .92 3.41 2.67 2.67 0 0 1 0 1.43 1.53 1.53 0 0 0 .18 1.15 1.18 1.18 0 0 1 .09 1.15c-.28.61-.5 1.29-.82 1.93z" fill="#707070"/><path d="m76.42 69.32a4.9 4.9 0 0 1 2.21.25.77.77 0 0 1 .32.24c-.44.35-.9.06-1.36 0a14.43 14.43 0 0 0 -2.59.19h-.32-3.63c-.19 0-.36 0-.47-.18s.16-.26.35-.27c.85-.07 1.71-.15 2.56-.18s1.51-.17 2.31-.27c.27-.04.48-.04.62.22z" fill="#717171"/><path d="m55.67 36.79a21.52 21.52 0 0 1 -.36-3.5c0-.11 0-.23 0-.35a1 1 0 0 1 0-.22l.18.21a2.18 2.18 0 0 0 .12 1l.12 2.19a1.28 1.28 0 0 1 -.06.67z" fill="#a1a1a1"/><path d="m42.11 57.77a1.48 1.48 0 0 1 -.46-.54c-.11-.16-.32-.23-.4-.09-.3.51-.63.23-1 .07a1.51 1.51 0 0 1 .2.17c.57.3.72 0 .72-.61a.93.93 0 0 0 -.05-.52.66.66 0 0 0 -.79-.24c-.37.09-.78.49-1.1-.11a.24.24 0 0 0 -.22 0 8.73 8.73 0 0 0 -1.62.73c-.3.38-.3.51.16.8.28-.12.55-.23.82-.37a.68.68 0 0 1 .23-.09.36.36 0 0 1 .17 0 .12.12 0 0 1 .07.11.65.65 0 0 1 -.24.49l-.19.14s0 0 0 .06a2.64 2.64 0 0 1 -.29.15 6 6 0 0 1 -2 .56.66.66 0 0 1 -.27 0 .13.13 0 0 1 -.14-.09 1 1 0 0 1 -.38.07c-.32 0-.33.19-.45.34l-.11.11c-.09.21 0 .31.2.31s.29.09.43.12a1.21 1.21 0 0 0 .7-.11c.21 0 .29-.38.61-.2a2.77 2.77 0 0 0 1.36.25 1.12 1.12 0 0 1 1 .41s.08 0 .13 0v-.06a.14.14 0 0 1 0-.09s0 0 0 0c.18-.21 2-1.44 2-.7 0 .31-.57.82-.78 1a.89.89 0 0 1 -1.12.06.56.56 0 0 0 -.16.15 1.54 1.54 0 0 0 -.31 1.31c0 .22.18.27.35.32h.11a.1.1 0 0 1 .06-.1 1 1 0 0 1 .44-.07 1.53 1.53 0 0 1 .61-.34c.34-.07.73-.48 1.13-.69.23-.12.37-.3.16-.52a.57.57 0 0 1 -.44.19c-.49-.05-.19-.73-.09-1s.64-.91 1-.42c.27.32 0 .64-.27.9a.44.44 0 0 1 -.08.11.37.37 0 0 0 .2.26c.23.12.26-.17.39-.28a1.26 1.26 0 0 0 -.29-1.95zm-1.83-.49a.39.39 0 0 1 -.19.19.7.7 0 0 1 -.46.18.12.12 0 0 1 -.14-.14.12.12 0 0 1 0-.18l.3-.21.21-.12a.11.11 0 0 1 .12 0h.07a.13.13 0 0 1 .07.06v.07s0 0 0 .05 0 .06 0 .07z" fill="#787878"/><path d="m35.88 58.6a.12.12 0 0 1 -.13-.17c.07-.21.36-.31.54-.38l.82-.34a.07.07 0 0 1 .06-.06c.3-.12.59-.26.88-.4-.35-.05-.64-.16-.59-.61a3.19 3.19 0 0 0 -.61.23c-.85.48-1.75.93-1.93 2.06a3.36 3.36 0 0 0 1.78-.44l-.48.07a.57.57 0 0 1 -.34.04z" fill="#898989"/><path d="m42.27 59.64a3.58 3.58 0 0 0 .09-.35h-.06a1.41 1.41 0 0 1 -.32.38 1 1 0 0 1 -.47.46c.1.49-.34.34-.55.43s-.44-.1-.53.15-.39.36-.64.45a1 1 0 0 0 -.57.42.14.14 0 0 0 0 .15s0 0 0 .06a.16.16 0 0 1 .11-.15.81.81 0 0 1 .92.16.28.28 0 0 1 -.16.45.91.91 0 0 1 .09.17c.29.15.46-.06.61-.25a3.09 3.09 0 0 1 .52-.67c-.42-.51-.14-.73.35-.86.27-.26.71-.35.75-.83-.04-.01-.27.19-.14-.17z" fill="#868686"/><path d="m34.78 59c.22.07.49 0 .61.26a.94.94 0 0 1 .1.73c0 .06 0 .15-.06.16-.48.21-.64-.27-1-.45s-.17-.36 0-.56z" fill="#767676"/><path d="m3.13 19.76a6.17 6.17 0 0 0 .48-1.84 4 4 0 0 1 .33-1.44c.33.08.37.33.37.61-.31.91-.31 1.91-.47 2.78-.14.21 0 .45-.17.67s-.34.41-.56.06z" fill="#949494"/><path d="m3.11 20.6c.54.06.53-.44.73-.73v2.05a2.34 2.34 0 0 1 .16 1.56c0 .37.18.8-.2 1.1l-.12.13c-.21.1-.27.05-.23-.19a4.89 4.89 0 0 0 0-1.62c0-.28.46-.87-.39-.63-.17 0-.15-.14-.14-.26.08-.47.13-.94.19-1.41z" fill="#a0a0a0"/><path d="m4.43 21.93c-.06 3.9 0 4-.24 3.79s0-3.85 0-4c0-.39 0-.79 0-1.19a.47.47 0 0 1 .3-.53.23.23 0 0 1 .32 0c.13.2 0 .38-.08.55a2.42 2.42 0 0 0 -.3 1.38z" fill="#a0a0a0"/><path d="m23.51 28.7a21.77 21.77 0 0 1 0 5.29 10.28 10.28 0 0 0 0 2.77 18.41 18.41 0 0 1 -.2 2.46c-.41.48-.16 1.07-.25 1.61 0 .15.2.48-.22.44a26.37 26.37 0 0 1 .16-4.34c.19-1.18 0-2.42.12-3.64.17-1.4-.15-2.82.12-4.22z" fill="#9e9e9e"/><path d="m27.59 105.71a.69.69 0 0 1 -.29-.75 19.56 19.56 0 0 0 .18-3.42.25.25 0 0 1 .13-.17 12.91 12.91 0 0 1 0 4.34z" fill="#9e9e9e"/><path d="m25.8 100.27c-.24-.11-.37 0-.48.22a1.49 1.49 0 0 1 -.5.5c-.32-.19-.13-.39 0-.6a28.44 28.44 0 0 0 1.68-2.53.35.35 0 0 1 .5-.13 1.31 1.31 0 0 1 -.28.76c-.09.14-.3.33 0 .45a7.46 7.46 0 0 1 -.92 1.33z" fill="#aaa"/><path d="m27.11 98.33c.09-.32.42-.2.6-.36a24.61 24.61 0 0 1 -.17 3.83 7.49 7.49 0 0 1 -.23-2.8.54.54 0 0 0 -.2-.67z" fill="#9e9e9e"/><path d="m38.16 59.89a4.3 4.3 0 0 0 -1.44.57c-.35.28-.51.73-.85 1a1.88 1.88 0 0 1 -1 .57l-.17.05c-.62 0-1 .61-1.57.74v.09a.86.86 0 0 0 .72.36 6.4 6.4 0 0 0 2-.58c.64-.21 1.3-.63 1.85.18.09.13.24.11.38 0a4.7 4.7 0 0 0 -.14-1.35h-.07a.57.57 0 0 0 -.18 0h-.05a.08.08 0 0 1 -.07 0l-.27.1c-.13.06-.22-.15-.11-.23a.79.79 0 0 1 .88-.09.13.13 0 0 1 0 .2.29.29 0 0 0 .18.07c.3-.06.67.46.85 0s.13-1.07.24-1.43a1.19 1.19 0 0 0 -1.18-.25z" fill="#808080"/><path d="m40.85 61.66c-.15.2-.26.45-.54.53a.71.71 0 0 1 -.45.12c-.19 0-.66-.1-.6-.37v-.18h-.06a4.91 4.91 0 0 1 -1.2-.22.11.11 0 0 1 -.12 0s-.06 0-.08 0c.06.45-.39 1 .25 1.33h1.83a1.61 1.61 0 0 0 1.52-1.47c-.26-.08-.4.06-.55.26z" fill="#787878"/><path d="m88.78 53.75.61.46c.4.33.39.39 0 .58a1.12 1.12 0 0 1 -1.11-.19c-.63-.56-1.05-.66-1.54-.35s-.44.46-.12.83c.06.08.16.15.15.25a6.88 6.88 0 0 0 .48 2l-.1.14a.31.31 0 0 1 -.48 0 2.44 2.44 0 0 1 -.67-1.55.88.88 0 0 1 -.38.88c-.26.25-.47.22-.77 0a1.21 1.21 0 0 1 -.48-1.38 3.67 3.67 0 0 1 1.71-1.91c.18-.06.4-.17.37-.41a.6.6 0 0 0 -.49-.47l-1-.85c0-.48 0-.52.72-.36.72.57 1.43 1.15 2.16 1.71.3.23.63.42.94.62z" fill="#6e6e6e"/><path d="m87 57.35v-.12c.39.05.47.23.29.62s-.16.6.35.71a1.75 1.75 0 0 0 1.42-.27 31.12 31.12 0 0 0 2.61-2.1.5.5 0 0 1 .43-.16c.23 0 .28 0 .33-.32.09-.52.52-.18.81-.16l.62.22c.32.11.29.28.1.49a3.23 3.23 0 0 0 -1.81 1 8.38 8.38 0 0 0 -1.55 1.1c-1 .95-2.33 1.58-3.35 2.57-.29-.11-.15-.25-.07-.45.18-.4.59-.58.91-1a.75.75 0 0 0 -.72.52 2.2 2.2 0 0 1 -.31.61c-.15.19-.25.3-.44.06v-.23l.11-.13c.16-.28 0-.59.17-.9s-.3-.16-.41-.31a6.56 6.56 0 0 1 -1.81-1c.09-.66.58-.94 1.12-1.17a.43.43 0 0 1 .64.23.4.4 0 0 0 .56.19z" fill="#797979"/><path d="m87 57.35a.36.36 0 0 1 -.52 0 .79.79 0 0 0 -1.21.41c-.12.31-.3.33-.55.28-1-.77-1-1.52-.36-2.66.2-.1.38-.17.25.18s-.16.54.31.53c.28 0 .14.34.29.47.74-.47.79-.59.39-1.07.35-.12.49-.07.62.34a2.39 2.39 0 0 0 .78 1.52z" fill="#656565"/><path d="m17.63 107.64c-.17.16-.3.47-.56.34s-.1-.54-.15-.82a4.38 4.38 0 0 0 .47-1.58 2.08 2.08 0 0 1 .23-.73c.59.19.7.1.59-.48.3-.6.6-1.21.92-1.8.13-.26.3-.46.66-.32s.4-.08.54-.26.19-.49.42-.65a.47.47 0 0 1 .4.29c.08.4-.28.65-.34 1v.11a2.14 2.14 0 0 0 -.52 1.71c-.61.93-1.42 1.69-2.08 2.57l-.11.18c-.1.24-.1.5-.47.44z" fill="#8a8a8a"/><path d="m20.89 101.74-.14-.4a2.69 2.69 0 0 0 .85-1.91l.12-.24c.21-.21.5.07.71-.13 0-.68.6-.79 1-1.11.24-.14.44-.14.53.17s0 .35-.12.49a6.75 6.75 0 0 1 -.9 1.25 2.92 2.92 0 0 0 -.92 1.76.3.3 0 0 1 -.14.1c-.18.11-.36 0-.55 0s-.33.14-.44.02z" fill="#949494"/><path d="m18.21 104.37a3.13 3.13 0 0 1 .32-.15c.17-.06.37-.13.48.06s-.08.28-.18.4l-.38.45c-.18.22-.38.48-.68.37s-.1-.43-.15-.65z" fill="#757575"/><path d="m22.63 89.78-.24 3c-.16.32-.22.14-.23-.06 0-.58 0-1.16 0-1.74s.23-1.11.36-1.72c.16.2.09.37.11.52z" fill="#adadad"/><path d="m85.68 51.42c-.26.09-.55.09-.72.36-.19-.19-.68-.3-.5-.6s.63-.12.94 0c.11.06.18.17.28.24z" fill="#939393"/><path d="m23.27 27.61c.14.49-.17 1 0 1.45-.38-.48-.16-.96 0-1.45z" fill="#a6a6a6"/><path d="m17.13 109.07c-.17-.22-.22-.4-.05-.57a.18.18 0 0 1 .16 0 .46.46 0 0 1 -.11.57z" fill="#8a8a8a"/><path d="m86.61 60.61a1 1 0 0 0 .41-.69 1.12 1.12 0 0 1 1.5-.87c.29.08.24.24.11.39a5.52 5.52 0 0 1 -.63.56 1.7 1.7 0 0 0 -.76.89c0 .1-.09.21-.14.32a2 2 0 0 1 -.35 0c-.17 0-.39 0-.43-.25s.17-.25.29-.35z" fill="#6f6f6f"/><path d="m93.23 55.55c-.17 0-.35 0-.5.08s.29.18.35.43l-1.29.45c-.29-.95-1.25-.9-1.92-1.25-.42-.22-.92-.28-1.35-.5-.21-.11-.53-.23-.2-.57a7.84 7.84 0 0 0 .89.31c.3.08.31-.07.18-.29.41 0 .62.39 1 .53a3.08 3.08 0 0 0 1.07.32 1.82 1.82 0 0 0 1.18.31.94.94 0 0 1 .59.18z" fill="#9e9e9e"/><path d="m1.19 93.38.24-.85a4.47 4.47 0 0 1 -.11 1.47 1.18 1.18 0 0 1 -.13-.62z" fill="#9d9d9d"/><path d="m3.48 22.9a3 3 0 0 1 .11 1.19c0 .21-.08.44.12.62l-.48 5.93c-.08.13-.17.27-.35.12v-.85a1.34 1.34 0 0 0 .21-.74c-.09-2.11.43-4.17.39-6.27z" fill="#9e9e9e"/><path d="m2.88 30.76.35-.12a18.06 18.06 0 0 1 -.45 5 2.24 2.24 0 0 1 -.17-1.44 11.18 11.18 0 0 0 .27-2.08c.19-.37 0-.73 0-1.09z" fill="#9e9e9e"/><path d="m29.17 84.05c-.21-.23-.38-.29-.63-.13-.76.39-.81.6-.33 1.38a1.63 1.63 0 0 1 .09.19s0-.09 0-.14a0 0 0 0 1 0 0 .13.13 0 0 1 .25 0c0 .33.13.65.21 1a2.15 2.15 0 0 1 .12 1.56s0 0 0 0a1.27 1.27 0 0 1 -.21.46c-.08.12-.28 0-.23-.09v-.13s0 0 0 0c-.63 0-.43.59-.55.94-.12.16 0 .34 0 .52a5.35 5.35 0 0 1 -.32 2c-.17.36-.55.62-.49 1.08a3.17 3.17 0 0 0 -.27.47c-.13.33 0 .39.33.3s.32-.34.45-.54a4.25 4.25 0 0 0 1.15-2c.2-.61.7-1.11.74-1.76a10.46 10.46 0 0 1 .42-2 3.09 3.09 0 0 0 -.73-3.11z" fill="#818181"/><path d="m27 92.65c.11.2-.33.4 0 .6a.45.45 0 0 1 .07.67c-.29.4-.39.9-.71 1.27-.66.91-1.19 1.9-1.91 2.76-.16.19-.31.59-.69.26-.09-.15-.22-.13-.36-.12.49-.39.6-1 .92-1.52a9.56 9.56 0 0 1 1.13-1.57 1.11 1.11 0 0 0 .23-.61 2.34 2.34 0 0 0 .88-1.15 1.11 1.11 0 0 1 .44-.59z" fill="#a3a3a3"/><path d="m28.41 88.2v-.08a5 5 0 0 1 -.11-2.46s0 0 0 0a1.43 1.43 0 0 1 0-.29 0 0 0 0 1 0 0 .11.11 0 0 1 .14-.11s0 0 0 0-.13-.14-.2-.2c-.33-.26-.38-.46.09-.6a.72.72 0 0 0 .24-.16 1.44 1.44 0 0 1 .43-1.3c-.22-.27-.45-.77-.66-.76-.5 0-.38-.26-.39-.51s0-.51 0-.77a1.64 1.64 0 0 0 -.12.76c0 .81 0 1.61.08 2.41.12 1.64-.11 3.29-.07 4.93 0-.48.53-.39.7-.68-.08-.03-.16-.08-.13-.18z" fill="#9e9e9e"/><path d="m27.84 89a4.05 4.05 0 0 1 -.36 2.54z" fill="#b1b1b1"/><path d="m27.47 95.31c.05-.72.1-1.45.14-2.18 0-.2.07-.43-.27-.36a14.51 14.51 0 0 0 1-1.93 39.62 39.62 0 0 0 -.47 4.47z" fill="#a8a8a8"/><path d="m56.74 60.87c-.58.36-.43.68 0 1.14a2.42 2.42 0 0 1 .26 1.4 2.76 2.76 0 0 0 .06.65 14.28 14.28 0 0 1 .43 4.65 1.1 1.1 0 0 0 .2.55c.09.21.18.43 0 .62a.57.57 0 0 1 -.69.12.91.91 0 0 1 -.56-.73 11.94 11.94 0 0 1 -.23-3.58 5 5 0 0 0 -.38-2c-.44-.39-.14-.93-.29-1.38a2.85 2.85 0 0 0 .22-1c.05-.66.42-.89 1-.67a.24.24 0 0 1 -.02.23z" fill="#888"/><path d="m55.79 62.31c0 .44-.22.88 0 1.33a.81.81 0 0 1 -.13.57 8.28 8.28 0 0 1 -.34-2.66 5 5 0 0 0 -.11-1.89l3.66-.46a2.4 2.4 0 0 0 .88-.15h3.25c.16 0 .43-.05.41.2s-.26.14-.41.14c-.36 0-.72 0-1.08 0a4.92 4.92 0 0 1 -1.27.06 8.13 8.13 0 0 0 -2.56.66 1.9 1.9 0 0 0 -1.08.72h-.25l-.11-.13c-.43-.34-.64-.3-.73.24a3.5 3.5 0 0 0 -.13 1.37z" fill="#666"/><path d="m57 60.86a5.47 5.47 0 0 0 .16-.7c0-.34.12-.52.45-.21a.24.24 0 0 0 .32 0 5.17 5.17 0 0 1 2.56-.55c0 .28-.22.15-.34.18s-.43-.06-.63.06c-.21.19 0 .27.11.38a1.52 1.52 0 0 0 .73.11c.09.13.38-.06.37.22 0 .11-.11.19-.25.13l-2.06-.09c-1 0-1.12.1-1.3 1.06a1.24 1.24 0 0 1 -.12-.59z" fill="#7c7c7c"/><path d="m80.71 66.77a22.11 22.11 0 0 1 -1.29-4.77c0-.41 0-.83 0-1.24a1.74 1.74 0 0 0 .3-1c0-.19.07-.44.33-.43s.21.26.26.42-.18.62.38.44c.17 0 .23.25.25.42v1.26c-.28 0-.19.32-.37.44a2.09 2.09 0 0 0 -.13-.23c-.11-.14 0-.5-.26-.44s-.26.35-.22.57a2.65 2.65 0 0 0 .28 1 1.82 1.82 0 0 1 .16 1 4.75 4.75 0 0 0 .47 1.9 3.52 3.52 0 0 1 .24 2.11c-.23-.51-.01-1.08-.4-1.45z" fill="#737373"/><path d="m65.63 59.66c-.39-.21-.82-.09-1.23-.15-.19 0-.49 0-.49-.23s.3-.14.47-.19a5.71 5.71 0 0 1 2.29.24 7.54 7.54 0 0 0 2.72-.11c.14 0 .36-.1.39.12s-.19.25-.34.26c-.52 0-1 0-1.55 0h-2.27z" fill="#666"/><path d="m81.11 62.67v-.67l.24-.13a7.55 7.55 0 0 0 .65 2.24c.07.12.1.26 0 .32-.3.15-.27-.19-.41-.3-.28.05-.28-.2-.32-.35a4.57 4.57 0 0 1 -.16-1.11z" fill="#737373"/><path d="m81.59 59.41c-.54 0-.3.49-.48.72a3 3 0 0 1 -.1-.52c0-.17 0-.39.18-.46s.3.11.4.26z" fill="#737373"/><path d="m28 23.86a9.55 9.55 0 0 0 -3 .37s-.12-.07-.19-.11a2.17 2.17 0 0 0 .69-.36c-.14-.2-.51-.27-.34-.61s.39-.23.62-.25c.52 0 1-.09 1.54-.11a2.56 2.56 0 0 1 1.48.37c.14.09.3.2.25.37s-.26.09-.4.06-.5-.16-.46.27z" fill="#929292"/><path d="m36.36 59.17a1.4 1.4 0 0 1 -.54.25c-.43.14-.44.34-.07.59h-.26c-.41-.19-.28-.46-.1-.73l.72-.13a.17.17 0 0 1 .25.02z" fill="#9b9b9b"/><path d="m20.16 106a8.11 8.11 0 0 1 .55-.62 1.48 1.48 0 0 0 .42-1c.08-.81.22-1.61.34-2.42.15-.08.1-.28.24-.36v-.13c.24-.11.33 0 .37.24a1.35 1.35 0 0 1 0 .53c0 .24-.17.53 0 .69s.4-.13.59-.24a.27.27 0 0 1 .44.12l-.6.73c-.33.19-.47.79-1.07.45-.14-.08-.15.23-.16.37a1.88 1.88 0 0 1 -1.12 1.64z" fill="#b2b2b2"/><path d="m80.05 69.66c.38-.27.62-.69 1.14-.49.11 0 .25.06.26.21s-.09.21-.19.27a1.07 1.07 0 0 1 -1.21.01z" fill="#717171"/><path d="m81.11 62.67a9.55 9.55 0 0 1 .47 1.46 1.18 1.18 0 0 1 -.19.87c-.17-.84-.58-1.52-.28-2.33z" fill="#999"/><path d="m39.87 60.14h-.13c-.28 0-.37-.13-.58-.48 0-.38-.22-1-.81-.73a1.81 1.81 0 0 1 -1.46 0 .63.63 0 0 0 -.78.25h.25a1.14 1.14 0 0 1 .92.08c.34.21.65.33 1 0a.28.28 0 0 1 .39 0 .42.42 0 0 1 .11.39 1 1 0 0 1 -.6.7h1.09a1.7 1.7 0 0 0 .84-.11z" fill="#898989"/><path d="m20.5 102.56a3.12 3.12 0 0 0 -.6 1.81.65.65 0 0 0 0-.24c-.37-.74.1-1.13.6-1.57z" fill="#a2a2a2"/><path d="m21.71 101.6c0 .16 0 .35-.24.36 0-.21.13-.52-.24-.61.25-.29.25-.29.48.25z" fill="#a2a2a2"/><path d="m64.19 60.5c.55.2 1.13 0 1.68.12a4.2 4.2 0 0 0 1.32.12c.07.25-.08.25-.25.25a56.19 56.19 0 0 1 -6.47-.5c.21-.21 0-.25-.12-.35 1.3-.05 2.55.32 3.84.36z" fill="#acacac"/><path d="m66.94 61 .25-.25c.73.2 1.43-.22 2.16-.11.2.32.1.65-.23.62a7.2 7.2 0 0 1 -2.12-.16s0-.1-.06-.1z" fill="#949494"/><path d="m55.79 62.31a1.92 1.92 0 0 1 .29-1.9c.37-.51.41.13.55.33-.54-.13-.68.21-.7.63a2.5 2.5 0 0 1 -.14.94z" fill="#737373"/><path d="m56.4 59.5a4.52 4.52 0 0 0 -1 0c.4-.05.53-.14.52-.27 0-.41 0-.82 0-1.23a1.19 1.19 0 0 1 .19-.2s.06-.09.22 0a3.39 3.39 0 0 0 -.08 1.58c-.03 0 .08.06.15.12z" fill="#9e9e9e"/></svg>