<svg viewBox="0 0 221.85 302.61" xmlns="http://www.w3.org/2000/svg"><path d="m79.69 178.13a3.4 3.4 0 0 1 .7-.17c3.46-.24 6.94-.41 10.4-.7 3.7-.32 7.42-.37 11.12-.63a88.82 88.82 0 0 1 10.19 0c2 .09 4.07.19 6.11.21a107 107 0 0 0 13.86-.84c4.17-.51 8.34-1 12.53-1.21 3.43-.21 6.88 0 10.28-.56 4.37-.67 8.77-.44 13.17-.56 2.55-.07 5.09-.41 7.63-.7a47.64 47.64 0 0 1 5.6-.57c0 1-1 .59-1.45.94a22.87 22.87 0 0 1 -3.68.47 35.93 35.93 0 0 0 -5.55.75 21.32 21.32 0 0 1 -4.3.32 33.33 33.33 0 0 0 -3.46 0c-.79.07-1.6 0-2.39 0-1.27 0-2.53.3-3.8.37-2.07.12-4.09.81-6.19.52a37.42 37.42 0 0 0 -7.63.15c-2.69.17-5.38.44-8.07.74s-5.21.72-7.82 1.06a32.54 32.54 0 0 1 -4 .17c-2.23 0-4.47-.05-6.71.1a22.09 22.09 0 0 1 -4.29-.22c-1-.14-2.07.05-3.1 0-2.51-.13-5 .11-7.53.06a4.3 4.3 0 0 1 -1.06-.15 2.58 2.58 0 0 0 -1.07 0 32 32 0 0 1 -6.39.64c-3.51 0-7 .71-10.47.82-.64 0-1.28 0-1.92 0-.09-.46-.77-.44-.71-1.01z" fill="#767676"/><path d="m179.83 173.3c.37-.48 1-.56 1.45-.94.51-.06 1-.13 1.55-.18a4.09 4.09 0 0 1 2 .28c.78.33 1.15.16 1.63-.52.28-.39.54-.8.78-1.21s.18-.72-.43-.72a5.76 5.76 0 0 1 -1.66-.09 1.84 1.84 0 0 0 -.57-.09c-.44-.06-1 .24-1.27-.29s-.78-.69-.56-1.07a15 15 0 0 0 3.79-.88c1.47-.74 3.55.29 4.35 2a16.67 16.67 0 0 0 .86 1.81c.2.39.47.74.65 1.15a.61.61 0 0 1 0 .4c-.24.49-.45 1-1.16.81-.72.3-1.08-.26-1.52-.64-.12-.1 0 0-.1-.07s-.09.13-.1.22c-.34 1-.53 1.85.67 2.39.3.13.28.55.4.85a21.44 21.44 0 0 1 1 3.05c-.1 1.62-.94 2.24-2.16 1.59-.39-.82-.29-1.87-1.13-2.61-.38.7-.2 1.41-.36 2.05a6.83 6.83 0 0 1 -.8 2.47c-.3.42-.11.88.07 1.35s.61 1.06 0 1.61c-.4.5-.81.66-1.23 0-.15-.22-.09-.52-.25-.75-.19-.21-.14-.52-.35-.73a1.08 1.08 0 0 1 -.38-.64c-.89 1.25-1.8 1.36-2.51.31.37-.94-.58-1.52-.62-2.35a1.64 1.64 0 0 1 0-.22c.48-.64.31-1.48.54-2a3.92 3.92 0 0 0 -2.24 1.79 10.29 10.29 0 0 0 -1.92 2.62c-.51.52-1 .56-1.38-.12-.23-.27 0-.54 0-.81a3.3 3.3 0 0 1 .85-1.13s0 0 0 0a6.75 6.75 0 0 0 -.62.7c-.23.21-.2.6-.5.76s-.53 0-.8 0c-1.14-.51-.5-1.13-.11-1.73.67-1.37 2.39-1.47 3.21-2.66a43.91 43.91 0 0 0 4.86-4.18c.83-.83.73-1-.44-1.29a14.69 14.69 0 0 0 -3-.2 2.94 2.94 0 0 1 -.49-.09z" fill="#515151"/><path d="m51.7 169c-.27.23-.5.07-.73-.07s-.67-.27-.95.11a1.43 1.43 0 0 1 -1.21-.28c-.13-.37-.82 0-.76-.52s.46-.38.75-.45c.47-.1 14.62-.5 18.12-.6 3.94-.12 20 .7 20.92.61a44.31 44.31 0 0 1 8 .39 19.55 19.55 0 0 0 3.58.2 120.81 120.81 0 0 0 16.24-1c2.58-.27 5.16-.54 7.75-.6a5 5 0 0 1 2 0 2.3 2.3 0 0 1 .34.12c.31.23.58.47.31.9-2 .08-3.91.18-5.87.24a4 4 0 0 0 -1.74.33 2.26 2.26 0 0 1 -.94.13 49.87 49.87 0 0 0 -6.79.66 25 25 0 0 1 -3.45.21c-1.88 0-3.75.31-5.62.22a31.36 31.36 0 0 1 -5.12-.3 18.24 18.24 0 0 0 -3.46.09 20.43 20.43 0 0 1 -3.58-.21 1 1 0 0 0 -.24 0c-2.82.3-5.63-.65-8.46-.14a11.18 11.18 0 0 1 -1.92 0 10.3 10.3 0 0 0 -3.32.15 1.8 1.8 0 0 1 -.95 0 21.63 21.63 0 0 0 -5-.17c-2.63.08-5.26.07-7.88-.05a19.78 19.78 0 0 1 -2.88 0c-.79-.25-1.63.08-2.42-.2h-.12a2.47 2.47 0 0 1 -1.52 0 6.14 6.14 0 0 1 -2.13.22.74.74 0 0 0 -.95.01z" fill="#6a6a6a"/><path d="m142.79 251.33a3 3 0 0 1 .6-1.54c1.54-2.34 3.05-4.69 4.59-7a24.75 24.75 0 0 0 1.37-2.66 107.82 107.82 0 0 1 8.65-14.36c1.66-2.32 3.45-4.6 4.27-7.45.49-1.74.62-3.53 1-5.29a2.09 2.09 0 0 1 0-.36c.59-1.74.79-3.57 1.21-5.35a3.45 3.45 0 0 1 .75-1.35c.47-.55.93-1.1 1.43-1.62a33 33 0 0 0 5.65-8.14 3.44 3.44 0 0 1 .79-1.19 13.1 13.1 0 0 0 2.54-3.46 30.58 30.58 0 0 1 2.66-4.1c.3.25.75-.1 1 .28a1 1 0 0 1 0 1.35 35.22 35.22 0 0 1 -4.37 6.5 4.39 4.39 0 0 0 -.69 1 45.39 45.39 0 0 1 -3 4.67 39.71 39.71 0 0 1 -3.37 3.92 6 6 0 0 0 -1.86 4 17.45 17.45 0 0 1 -.63 2.54 10.73 10.73 0 0 1 -.38 1.94 6.53 6.53 0 0 0 -.38 1.13 11.66 11.66 0 0 1 -2.31 7.35 32.6 32.6 0 0 1 -2.9 4.07c-1.19 2.39-3 4.42-4.24 6.75a71.65 71.65 0 0 0 -4.2 8.06c-1.27 1.25-1.72 3-2.81 4.41-1.36 1.74-2.54 3.63-3.79 5.45a1.14 1.14 0 0 1 -1.58.45z" fill="#7c7c7c"/><path d="m183.89 190.85a10.45 10.45 0 0 0 -.06 2.5 12.36 12.36 0 0 1 -.82 4.93 10.37 10.37 0 0 0 -.34 3.91 13.84 13.84 0 0 1 -.67 5.42 6.82 6.82 0 0 0 -.28 2.37 20.79 20.79 0 0 1 -.63 4.72 40.37 40.37 0 0 0 -.41 4.64 43.07 43.07 0 0 1 -2.07 10 19 19 0 0 0 -1.2 5 2.62 2.62 0 0 1 -.27 1c-.62 1.3-1.22 2.61-1.89 3.87a4.91 4.91 0 0 0 -.44 4 7.42 7.42 0 0 1 .22 2.85 31.78 31.78 0 0 1 -2.27 9.5 1.53 1.53 0 0 1 -.3.51.31.31 0 0 1 -.43.06.34.34 0 0 1 -.15-.29 2.35 2.35 0 0 1 .1-.59c.34-1.23.66-2.47 1-3.69a31.62 31.62 0 0 0 .89-5.55 3.75 3.75 0 0 0 -.35-2.1 6.38 6.38 0 0 1 .82-5 16 16 0 0 0 2-5.47c.45-2.46 1.22-4.87 1.91-7.28a20.33 20.33 0 0 0 .61-3.05c.28-2.14.5-4.28.71-6.42a22.73 22.73 0 0 1 .35-2.61 11.35 11.35 0 0 0 .21-1.3 36.2 36.2 0 0 1 1-6.86c.45-1.53 0-3.1.06-4.65a12.78 12.78 0 0 1 .48-3.3 8 8 0 0 0 .48-4.11c-.53-1.35 0-2.69.07-4 .94-.34 1.25.42 1.67.99z" fill="#727272"/><path d="m190.86 173.35a.94.94 0 0 0 1-.72c.85-.16.88.61 1.15 1.07a12.62 12.62 0 0 1 1.07 4.45c.2 1.25.48 2.49.59 3.76a5 5 0 0 0 1.54 3.29 6.71 6.71 0 0 1 1.43 2.46c.73 1.78 1.66 3.46 2.38 5.23a31.49 31.49 0 0 1 1.31 3.6 10.82 10.82 0 0 0 .48 1.88 6.17 6.17 0 0 1 .47 1.73l.27.67a11.92 11.92 0 0 1 .7 1.7 13.48 13.48 0 0 1 .66 3.58 21.6 21.6 0 0 0 .76 3.4c.52.36.37 1 .48 1.45a18.93 18.93 0 0 1 1.43 3.38 1.37 1.37 0 0 0 .28.72c.29 1 1 1.79.91 2.89l.26.46a2.23 2.23 0 0 1 .45.94c.35 1.46.85 2.91 1.21 4.35s1 2.82.67 4.33c.06.06.15.11.17.17a16 16 0 0 1 .61 3.5c-.36.48-.87.39-1.36.32-.78-.11-.73-.8-.82-1.29-.27-1.5-.68-3-.92-4.47a63.81 63.81 0 0 0 -3.79-12.22 27.23 27.23 0 0 1 -2.13-7.21 31.11 31.11 0 0 0 -1.67-6.24 38.34 38.34 0 0 0 -3.82-9c-.83-1.31-1-3-2.19-4.1a8.34 8.34 0 0 1 -2-4.38c-.51-2.93-.62-5.94-1.81-8.73a.61.61 0 0 1 .23-.97z" fill="#757575"/><path d="m202.37 233.41-.69-1.25a30 30 0 0 1 -2.18-10.5 2.82 2.82 0 0 0 -.1-.83c-.9-2.48-.67-5.14-1.32-7.67a6.88 6.88 0 0 1 0-2 21.24 21.24 0 0 0 -1.49-8.31 6.15 6.15 0 0 0 -1.2-2.59c-1.65-1.48-1.74-3.57-2.23-5.53-.39-1.55 0-3.29-.88-4.67-1.62-2.59-1.83-5.62-2.82-8.4-.15-.42-.18-.92.45-1.09.57.43.73.42.86-.09a8.31 8.31 0 0 0 .13-1.13c.56-.24.71.13.78.55a8.61 8.61 0 0 1 .26 1.4c.07 2.51 3.2 11.51 3.76 13.93.5 2.17 1.67 4.05 2.46 6.1a23 23 0 0 1 1.57 8.55c0 1.45.34 2.86.44 4.28.22 3.08 1.07 6.05 1.28 9.13a23.53 23.53 0 0 0 1.8 7.06 7.19 7.19 0 0 1 .79 4.05c-.46.48-.82.51-1.09-.2-.14-.32-.1-.76-.58-.79z" fill="#757575"/><path d="m152.92 209.48c-.47.38-3.78 4-3.78 4a6 6 0 0 0 -1.7 1.67 7.76 7.76 0 0 0 -.86.65c-1.72 1.6-3.38 3.28-5.16 4.82a34.56 34.56 0 0 1 -3.69 3 17.78 17.78 0 0 0 -4.39 3.23 1.74 1.74 0 0 1 -.74.59c-1.84.54-3.28 1.81-4.93 2.68a8.8 8.8 0 0 0 -3.53 2.76c-.46.07-1 .4-1.32-.2s.14-1 .47-1.29a10.28 10.28 0 0 1 2.72-1.91c2.82-1.33 8-5.14 8.1-5.15 1.1-.23 12.88-10.95 16.1-14.23a29.26 29.26 0 0 1 3.67-3.07 67.16 67.16 0 0 0 13.7-13.13 50.7 50.7 0 0 1 5.55-5.61 11.41 11.41 0 0 0 2.88-3.63c.23-.52.46-1.27 1.34-1.05a1.08 1.08 0 0 0 1 .5 11.22 11.22 0 0 1 -3.65 4.89 23.72 23.72 0 0 0 -3.29 3 24.14 24.14 0 0 0 -3.2 4.3c-2 1.41-3.45 3.39-5.29 5-1.41 1.21-4.59 4.2-4.88 4.32s-3.72 2.69-5.12 3.86z" fill="#828282"/><path d="m79.69 178.13c.85.17.85.17.76 1a41.05 41.05 0 0 1 -7.73.61c-2.38-.12-4.66.52-7 .5-2.75 0-5.48.42-8.23.49a18.65 18.65 0 0 1 -3.34-.16 2.49 2.49 0 0 0 -1.3.05 1.89 1.89 0 0 1 -.71.12c-2.5-.1-5 .11-7.53-.22a1.87 1.87 0 0 0 -.47 0c-2 .25-3.91 0-5.86.15a10.61 10.61 0 0 1 -2.39-.06 12.47 12.47 0 0 0 -3-.06 2.13 2.13 0 0 1 -1.17-.14l-.11-.05c-.35-.22-1.08.21-1.09-.33s.71-.38 1.14-.44.7.1 1-.12c6.62-.3 13.24-.22 19.86-.15 5.75.06 11.49-.25 17.22-.61 3.34-.29 6.65-.42 9.95-.58z" fill="#676767"/><path d="m170.31 167.11a38.72 38.72 0 0 0 5.58.43 25.12 25.12 0 0 1 8.54 1.44 5.14 5.14 0 0 0 -.51.29s-.06.13-.1.25c.38.3.93.11 1.31.4a10.24 10.24 0 0 1 -4.92-.75 9.54 9.54 0 0 0 -2.44-.5c-2-.29-4 0-5.92-.44a.51.51 0 0 0 -.24 0 7.65 7.65 0 0 1 -3.77-.23c-1.79-.25-3.59-.21-5.39-.3s-3.92.06-5.88-.15a7.85 7.85 0 0 0 -.84 0 79.23 79.23 0 0 1 -8.84-.31 10.47 10.47 0 0 0 -2.74 0c-2 .3-4-.23-6 .13-.52.1-1-.35-1.51 0-2.54 0-5.07.12-7.61 0a2.44 2.44 0 0 0 -1.28.2 2.75 2.75 0 0 1 -1.62.26l-.49-.74c.17-.16.36-.1.55-.05-.19 0-.38-.11-.55.06a6.72 6.72 0 0 0 -2.19-.27 17 17 0 0 1 4.16-.25c0 .21.13.15.21 0 3.86-.24 7.72-.41 11.6-.45s7.82-.21 11.73-.3a96.33 96.33 0 0 1 10.87.49c1.98.16 7.55.68 8.29.79z" fill="#787878"/><path d="m176.19 181.91c-.2.39-.76.73-.21 1.25a.65.65 0 0 1 .33.41c.09.62-.39.92-.74 1.27-2.41 2.5-5.18 4.6-7.73 6.94a35.27 35.27 0 0 0 -4.25 4 12.88 12.88 0 0 1 -2.56 2.33 38.61 38.61 0 0 0 -5.17 5 33.58 33.58 0 0 1 -8 5.87 82.62 82.62 0 0 0 -8.64 5.76c-3.11 2.42-6.09 5-9.41 7.18-1.06.68-2.28 1.1-3.33 1.83a.76.76 0 0 1 -1 .05.73.73 0 0 1 -.37-.61c1.78-1.36 3.73-2.46 5.57-3.72 2.11-1.44 4-3.1 6-4.7a44.17 44.17 0 0 1 7.51-5.07 29.85 29.85 0 0 0 4.78-3.18 50.76 50.76 0 0 1 4.6-4.23c2.85-2.06 5.07-4.77 7.67-7.07a39.63 39.63 0 0 0 4.35-4.61 2.22 2.22 0 0 0 .46-.24 7.62 7.62 0 0 1 1.65-1.37 3 3 0 0 0 .77-.73c.37-.32.69-.68 1.06-1a4.43 4.43 0 0 1 1.35-1.34 20.11 20.11 0 0 0 3.79-3.64c.32-.38.58-.76 1.14-.76a.46.46 0 0 1 .38.38z" fill="#818181"/><path d="m142 258.6c-.47-.89-.47-.89-1.27-.49a14.9 14.9 0 0 0 -1.59.82 2.32 2.32 0 0 1 -2 .26c-1-.22-1.22-.47-1.17-1.45 0-.24.05-.47.08-.7-.35-.24-.51.09-.74.2-.42.22-.84.46-1.26.67a.64.64 0 0 1 -.78-.11.56.56 0 0 1 0-.77 11.22 11.22 0 0 1 .73-.94 41.85 41.85 0 0 1 3.28-3 7.48 7.48 0 0 0 1.28-1.42c.5-.83.21-1.38-.74-1.5a4.43 4.43 0 0 0 -2 .18 8.17 8.17 0 0 1 -3.54.35 2.43 2.43 0 0 1 -.92-.26 1.44 1.44 0 0 1 -.38-2.4 5.57 5.57 0 0 1 1.47-1 11.52 11.52 0 0 1 6.18-1.58 4.56 4.56 0 0 1 3.64 2 2.35 2.35 0 0 1 .41.86c.06.34 0 .66-.33.81a.7.7 0 0 1 -.85-.24 1.33 1.33 0 0 1 -.14-.19c-.89-1.72-2.52-2-4.18-2a12.64 12.64 0 0 0 -3.52.7 3.51 3.51 0 0 0 -1.23.71.79.79 0 0 0 .17 1.43 2 2 0 0 0 1.06.14 17.93 17.93 0 0 0 3.41-.61 6.87 6.87 0 0 1 2-.2 1.45 1.45 0 0 1 1.37 1 1.41 1.41 0 0 1 -.33 1.54c-.39.4-3.67 3.42-3.83 3.93.1.19 3.09-2.47 3.21-2.46.73 0 .85.2.44.69a31.1 31.1 0 0 1 -1.94 2.72 1.78 1.78 0 0 0 -.47.82c-.26.89.11 1.31 1 1.14a3.67 3.67 0 0 0 1.62-.73c.63-.49 1.28-1 1.91-1.45a4.61 4.61 0 0 1 1.35-.76c.67-.29.76.25.73.64a23.27 23.27 0 0 1 -.21 2.89c-.47.74-1 .68-1.48.06-.03-.16-.17-.33-.44-.3z" fill="#6f6f6f"/><path d="m163.4 261.37c1-1.08 2-2.1 3-3.33a3.18 3.18 0 0 0 -1.81-.11 8 8 0 0 1 -3.89.23c-1.38-.4-2-1.94-.88-2.84a11.13 11.13 0 0 1 5.66-2.91c.64-.07 1.27-.18 1.91-.22a1.85 1.85 0 0 1 2 1.24c.12.26.28.51 0 .76a.79.79 0 0 1 -.78.14h-.12c-2.58-1.47-4.81-.37-7 1a1.05 1.05 0 0 0 -.57 1.21 1 1 0 0 0 1 .7 14.09 14.09 0 0 0 4-.35c.43-.08.85-.23 1.29-.28.78-.09 1 .16.68.87a7.57 7.57 0 0 1 -1.8 2.51 9 9 0 0 0 -2.25 3.2 3.4 3.4 0 0 0 -.2.69.51.51 0 0 0 .18.54.43.43 0 0 0 .54-.08 4.38 4.38 0 0 0 .45-.41 20.36 20.36 0 0 0 3.73-5.09 7 7 0 0 1 1.36-2c.19-.19.43-.45.71-.23s0 .43-.07.65a14.63 14.63 0 0 0 -1 3.17 3 3 0 0 0 0 .95c.24.94.74 1.29 1.67 1 .69-.2 1.34-.53 2-.79.54-.09 1-.14.72.69a.87.87 0 0 0 -1 .16 10 10 0 0 1 -1.29.86 2.54 2.54 0 0 1 -3.32-.53c-.42-.43-.74-.39-1.09 0s-.47.54-.69.83a4.18 4.18 0 0 1 -2.13 1.64 2.18 2.18 0 0 0 -.68.47 1.13 1.13 0 0 1 -1.85-.81 2.69 2.69 0 0 1 .19-1.28 10.86 10.86 0 0 1 1.33-2.25z" fill="#6e6e6e"/><path d="m132.59 232.15-.76.74a11.77 11.77 0 0 1 -2.77 5.48c-1.09 1.14-4.59 2.26-6 1.19-.4-.42-.75-.36-1.08.07a7.79 7.79 0 0 1 -5.55 1.26 3.75 3.75 0 0 1 -3.33-3.25c0-.33-.1-.4-.39-.43s-.72.13-1-.14a.88.88 0 0 1 0-1.19c.25-.39.56-.75.81-1.15a1.69 1.69 0 0 0 .42-1.26 9 9 0 0 0 -2.15 1 1.15 1.15 0 0 1 -1.12.1c-.47-.61 4.5-3.14 4.87-2.51.53.91 1 .84 1.71.22a3.54 3.54 0 0 1 .49-.34 5.21 5.21 0 0 1 1.16-.57 1 1 0 0 1 1.12 1.54c-.34.48-.81.86-1.12 1.36a5.77 5.77 0 0 0 -1.73 2.07 1.37 1.37 0 0 0 .74 2 6.86 6.86 0 0 0 6.12-1.61c.58-.45 1.2-1.28 2.12-.49a1.3 1.3 0 0 1 .57.69c.4 1 .69 1.09 1.38.42a13.07 13.07 0 0 0 2.38-2.32 4.79 4.79 0 0 0 .81-1.59 3.45 3.45 0 0 1 2.14-2.26.45.45 0 0 1 .71.28c.01.35-.32.54-.55.69z" fill="#6a6a6a"/><path d="m183 212.16.27-1.17c.33-.25.12-.58.14-.87s.2-.6.58-.57a.46.46 0 0 1 .42.59 3.46 3.46 0 0 1 -.14 1.15 3 3 0 0 1 -.3 1.16c-.21.29 0 .68-.21 1v1.86a37.4 37.4 0 0 1 0 6.08 29.46 29.46 0 0 0 .17 3.11 7.36 7.36 0 0 1 -.37 3.19 28.84 28.84 0 0 0 -.95 4.19 17.32 17.32 0 0 1 -1.79 5.56 14 14 0 0 0 -2 4.72 49.77 49.77 0 0 1 -1.2 7.32c0 .54-.1-.19-.73.1-.71 0-.09-1.81-.48-2.1.47-2.66.79-5.36 2.07-7.8.64-1.2 1.24-2.41 1.81-3.64a12.39 12.39 0 0 0 1-3.56 25.62 25.62 0 0 1 .86-4.09 7.21 7.21 0 0 0 .23-3.66 7.65 7.65 0 0 1 0-2.74 28.5 28.5 0 0 0 .23-6.19 8.82 8.82 0 0 1 .25-2.85c.28-.22.02-.55.14-.79z" fill="#747474"/><path d="m176.39 247.44.39-.51a3.93 3.93 0 0 1 .37 1.25l.09.16c.5.24.4.68.36 1.1 0 .17-.06.34-.08.51a7.66 7.66 0 0 1 -.16 1.17c-.46 1.74-.47 1.75 1.14 2.45.64.27.88.84 1.19 1.38a3.79 3.79 0 0 1 1 1.45 2.8 2.8 0 0 1 .16 1.87.91.91 0 0 0 0 .69 6.35 6.35 0 0 1 .43 2.68c.15 1-.77 1.34-2.28 2a3.73 3.73 0 0 1 -2.71.07 4.28 4.28 0 0 1 -2.34-1.36c-.13-.35-.45-.5-.72-.69.94-.79 1-.79 1.86-.07a5.13 5.13 0 0 0 3.61 1.26c.92-.07 1.2-.42 1.23-1.35.07-1.78-.43-2.54-2.12-3.13a1.62 1.62 0 0 1 -1-1.21c.09-1-.37-.89-1.19-.78a2.94 2.94 0 0 1 -1.64-.13c-.48-.22-.53-.54-.17-.94a.34.34 0 0 1 .08-.09c1.18-.5 1.25-1.57 1.29-2.61a13.76 13.76 0 0 1 1-4.15 4.8 4.8 0 0 1 .25-1z" fill="#4f4f4f"/><path d="m44.26 167.94h6a7.26 7.26 0 0 1 -1.45.27c-.42.11-.06.33 0 .5a14.35 14.35 0 0 1 -5.22.44 7.25 7.25 0 0 0 -2.5.13c-.81.22-1.57-.26-2.37-.13a45.42 45.42 0 0 1 -5.71.3 25 25 0 0 1 -2.87-.08c-2.36-.18-4.71 0-7.06 0a41.53 41.53 0 0 1 -5.08-.07 14.52 14.52 0 0 0 -4.85.52c-.24.05-.47.12-.7.15s-.67 0-.79-.37a.82.82 0 0 1 .36-1 2.87 2.87 0 0 1 1.38-.33l17.73.14c3.95 0 7.91-.07 11.85-.27.41-.06.85-.14 1.28-.2z" fill="#787878"/><path d="m125.1 223.2.53.27c.41.45.08.78-.17 1.13a21.4 21.4 0 0 1 -2.7 2.43 5.21 5.21 0 0 0 -3.13 3.19c-.48.16-1 .43-1.47.08a.66.66 0 0 1 -.29-1.08 3.09 3.09 0 0 0 .39-.87c.31-1 0-1.48-1-1.6a11.11 11.11 0 0 0 -3.94.11 4.06 4.06 0 0 1 -1.7.19c.81.09 1.6 0 2.4.11a1.49 1.49 0 0 1 1.5 1.65 1.75 1.75 0 0 1 -2 1.44c-.41-.22-.37-.52-.16-.85 0-.71-.62-.65-1-.7-1-.12-1.91-.15-2.86-.2a2.86 2.86 0 0 1 -1.65-.63c-.44-.35-.34-.67 0-1a3 3 0 0 1 1.15-.61c1.34-.51 2.7-1 4-1.48a.94.94 0 0 1 .22-.07 17.13 17.13 0 0 1 5.93.33 3.6 3.6 0 0 1 1.3.84.82.82 0 0 0 1.26-.05 22.87 22.87 0 0 1 3.39-2.63z" fill="#6c6c6c"/><path d="m153.62 243.76a7.15 7.15 0 0 0 -1.21 2.38 1.66 1.66 0 0 0 -.27 1.71 1.08 1.08 0 0 1 .14 1.26 6.41 6.41 0 0 0 -.83 3.55 2.17 2.17 0 0 1 -.39 1.48 16 16 0 0 0 -1.35 2.76 12.59 12.59 0 0 1 -2.5 2.51 2.47 2.47 0 0 1 -2.07.61.93.93 0 0 0 -.95 0 2.12 2.12 0 0 1 -2.19-1.42.75.75 0 0 1 .84.11.91.91 0 0 0 .86.12l.49.26a3.45 3.45 0 0 0 1.91 0 3.19 3.19 0 0 0 2.26-2.4c-1.55-1.76-1.56-2.3 0-4.17a3 3 0 0 0 .74-1.59 1.2 1.2 0 0 1 .39-.94 15.07 15.07 0 0 1 3.42-6.94c.95-.43.88.1.71.71z" fill="#525252"/><path d="m184.26 211.29c-.08-.41.05-.88-.39-1.22-.41.17 0 .94-.61.92a28.18 28.18 0 0 1 .53-3.78 12.63 12.63 0 0 0 .25-2.37 9 9 0 0 1 .33-2.73c.34-1.19.39-2.43.61-3.65.19-1.06.32-2.13.55-3.18a20.24 20.24 0 0 0 .42-3.55 10.17 10.17 0 0 1 .25-2.26 2.14 2.14 0 0 0 -.2-1.47 3.87 3.87 0 0 1 0-2.16 1.34 1.34 0 0 0 1.19 0 2.18 2.18 0 0 0 .22 1 6 6 0 0 1 0 2.71 9.55 9.55 0 0 0 -.23 2.61 20.07 20.07 0 0 1 -.68 4.23 65.56 65.56 0 0 0 -1.11 8.26 3.34 3.34 0 0 1 -.11.95c-.54 1.83-.4 3.83-1.02 5.69z" fill="#7f7f7f"/><path d="m179.48 194.41c-1.36 2.35-2.75 4.68-3.9 7.14a26.5 26.5 0 0 0 -.91 2.59 22.66 22.66 0 0 1 -2.09 4.43 20.14 20.14 0 0 0 -2.49 5.53 9.49 9.49 0 0 1 -1.2 2.86.81.81 0 0 1 -1.11-.21c-.41-.33-.22-.72-.12-1.1.82-2.83 1.61-5.67 3.53-8a6.73 6.73 0 0 0 1.26-2.82 23.6 23.6 0 0 1 3-6.75 30.53 30.53 0 0 0 2-4.18c.19-.45.29-1 1-1s.76.76 1.22 1a.68.68 0 0 1 -.19.51z" fill="#757575"/><path d="m168.11 216.41.78.55a13.51 13.51 0 0 1 -2.69 5.54 6.27 6.27 0 0 0 -.79 1.05 63.83 63.83 0 0 1 -3.72 6.53c-.52.85-.76 1.83-1.21 2.72s-.83 1.72-1.32 2.54l-1.88 2.46c-.38.1-.72.13-.89-.32a.6.6 0 0 1 0-.74 44.48 44.48 0 0 0 3.23-5.86c.51-1.1 1.44-1.95 1.88-3.09a63.62 63.62 0 0 1 4.14-7.27 14.54 14.54 0 0 0 1.53-3.38c.14-.4.21-1.02.94-.73z" fill="#848484"/><path d="m32.69 179.39a2.61 2.61 0 0 1 -.91.24c-.27 0-.56 0-.79.22.11.36.52.28.73.48-1.43.16-2.87.27-4.28.32a21.41 21.41 0 0 1 -5.71 0 4.07 4.07 0 0 0 -1.9 0 9 9 0 0 1 -3.68-.24c-.19 0-.42-.12-.44-.34s.22-.41.45-.48a2 2 0 0 1 .59-.05c1.92 0 3.84-.06 5.75-.16s3.68 0 5.51 0z" fill="#787878"/><path d="m113.35 229.4a1.28 1.28 0 0 0 .52.51c.57.64-5.64 4.22-5.59 4.23.49.1 2.71-.94 2.41.3a35.38 35.38 0 0 1 -3.18 1.64 2.89 2.89 0 0 1 -1.88 0 .78.78 0 0 1 -.35-1.33 4 4 0 0 1 1.12-.89c1.4-.84 2.82-1.66 4.2-2.53.94-.62 1.83-1.33 2.75-1.93z" fill="#7b7b7b"/><path d="m179.12 188a1.23 1.23 0 0 1 -.78-.52l3.59-5.55c.28.09.58-.3.78-.09s-2.24 5.14-2.41 5.42c-.3.3-.3 1.17-1.18.74z" fill="#5a5a5a"/><path d="m183.73 221.35v-6.08a2.52 2.52 0 0 1 .22 1.27 23.49 23.49 0 0 1 -.22 4.81z" fill="#7f7f7f"/><path d="m56.45 168.71a6 6 0 0 1 2.42.2 6.59 6.59 0 0 1 -2.42-.2z" fill="#787878"/><path d="m54.78 168.7h1.52a1.76 1.76 0 0 1 -1.52 0z" fill="#787878"/><path d="m183.75 213.41a2 2 0 0 1 .21-1 2 2 0 0 1 -.21 1z" fill="#7f7f7f"/><path d="m127.8 166.56c-.06.09-.08.23-.23.19a1 1 0 0 1 0-.2.74.74 0 0 1 .23.01z" fill="#6a6a6a"/><path d="m51.7 169a.77.77 0 0 1 .95-.05z" fill="#787878"/><path d="m144.19 260a.84.84 0 0 1 .95 0z" fill="#6f6f6f"/><path d="m50 169a.73.73 0 0 1 .95-.11z" fill="#787878"/><path d="m182.2 189.91c.1-1 1.11-1.76.78-2.86-.65.58-2.4 4.52-3.5 7.36-.77.09-.77-.38-1-1.25-.7-.38-.81.35-.64-.09.31-.78 4.53-9.17 5-9h.08c1.23-.18 1.23-.18 1.64-.74.21.21.48.34.35.76a22.79 22.79 0 0 0 -.35 3.31 5.4 5.4 0 0 0 -.53 2.13 3.55 3.55 0 0 1 -.19 1.25c-.97.31-1.4.13-1.64-.87z" fill="#5a5a5a"/><path d="m183 212.16c.3.34.38.63-.2.75z" fill="#7f7f7f"/><path d="m178.35 181.44a1.38 1.38 0 0 1 .14-.3c.07-.08.23-.18.26-.15.19.14 0 .25-.08.33a1 1 0 0 1 -.3.14z" fill="#a3a3a3"/><path d="m191.16 171.61a2 2 0 0 1 .67 1 1.48 1.48 0 0 1 -.67-1z" fill="#757575"/><path d="m213.3 250.71a2.3 2.3 0 0 1 -1.89 1.09 1.47 1.47 0 0 0 -1.49 1.4 3.83 3.83 0 0 1 -2.34 2.81 1.21 1.21 0 0 1 -1.59-.38c-.08-.09-.15-.19-.23-.27-.33-.35-.39-1-.85-1.1s-.5.7-.88 1c-.19.13-.33.38-.6.31s-.38-.39-.41-.67a12.47 12.47 0 0 1 .1-3.45 1.59 1.59 0 0 0 0-1.17 1.52 1.52 0 0 0 -1 1.14 7.64 7.64 0 0 1 -3.12 3.78 1.16 1.16 0 0 1 -.21-.67c.15-1.82-.09-3.63 0-5.45 0-.66.16-1.33.24-2 .26-.28-.1-.75.3-1l.2-.69c.46-.95.35-2.26 1.7-2.63a4.77 4.77 0 0 1 1.32-.79c1-.45 1-.46.85-1.52a30 30 0 0 1 -.29-3.91c-.2-.31 0-.7-.2-1-.16-.72-.33-1.43-.49-2.15.24-.26.5-.72.72 0a1.9 1.9 0 0 0 .47 1c.57-.17.39-1.78.52-1.33s.54 2.77.57 3.17a7.67 7.67 0 0 0 2 5.22 4.77 4.77 0 0 1 .75 1.22 1.89 1.89 0 0 1 -.4 2.29c-.68.55-1.15.06-1.69-.3-1.42-.95-3.44-.1-4.24 1.76a3.88 3.88 0 0 0 -.54 4c.37 0 .49-.28.68-.45.74-1.29 1.9-2.33 2.26-3.86a.92.92 0 0 1 1.23-.67 1.22 1.22 0 0 1 .8 1.33 12.5 12.5 0 0 0 1.08 5.35c.25.54.4 1.45 1.19 1.23s.71-1.15.52-1.84a6.73 6.73 0 0 1 .22-4.78c.28-.59.62-1.15 1.4-1.1s.87.71 1.09 1.25a2.6 2.6 0 0 1 .25 1.28 1.34 1.34 0 0 0 1.38 1.66 1.79 1.79 0 0 1 .62.89z" fill="#606060"/><path d="m199.28 246.11-.3 1a1.38 1.38 0 0 1 .3-1z" fill="#b1b1b1"/><path d="m202.86 235.56a2.08 2.08 0 0 1 .2 1 1.77 1.77 0 0 1 -.2-1z" fill="#757575"/><path d="m51 168a23.82 23.82 0 0 1 5.27-.21 3.83 3.83 0 0 1 -1.5.23 9.43 9.43 0 0 0 -3 .23.68.68 0 0 1 -.77-.25z" fill="#787878"/><path d="m212.63 250.24a5.67 5.67 0 0 0 .43-.57c.48-.8.43-1-.32-1.58-1.4-1-1.7-2.14-.9-3.58a2.26 2.26 0 0 0 .26-1.26 29 29 0 0 0 -.75-5.08c-.53-2.21-1.83-4.66-2.35-6.86a10.7 10.7 0 0 1 2-.23c.5 1.09.35 2.74.88 3.82a19.77 19.77 0 0 0 .83 3.22 33.81 33.81 0 0 1 .89 6c0 .86.68 1.51.9 2.31h.17a5.51 5.51 0 0 1 1.33-.27l.47-.05c.42-.06.85 0 1.27-.11 1.36-.47 1.44-.74.63-1.92-.37-.55-.93-1-.89-1.76a3.11 3.11 0 0 0 -1.53-.55 1.83 1.83 0 0 1 -.47 0c-.37-.12-.8-.25-.81-.72s.37-.69.78-.75 1-.08 1.52-.11a5.5 5.5 0 0 1 2.46 1.8 9.85 9.85 0 0 0 1.59 1.76 2.21 2.21 0 0 1 .73 1.34c.18.83.06 1.21-.72 1.53a16.25 16.25 0 0 1 -5.17 1.68 1.66 1.66 0 0 0 -1.7 1.23 2.15 2.15 0 0 1 -.89 1.23 1 1 0 0 1 -.64-.52z" fill="#565656"/><path d="m125.62 167.07a1.73 1.73 0 0 1 .31-.14c.09 0 .23-.06.23.11s-.13.06-.2.06a2 2 0 0 1 -.34 0z" fill="#6a6a6a"/><path d="m156.33 237.54h.17a.79.79 0 0 1 .78.3c-.41 1-1.29 1.7-1.78 2.66-.58 1.12-1.25 2.2-1.88 3.3a.86.86 0 0 0 -.68-.73 15.77 15.77 0 0 1 2.37-3.91 9.69 9.69 0 0 0 1.02-1.62z" fill="#646464"/><path d="m177.14 248.17a3.37 3.37 0 0 1 -.26 1.21 1.62 1.62 0 0 1 .26-1.21z" fill="#747474"/><path d="m176.86 249.84a2.22 2.22 0 0 1 -.22 1.22 1.92 1.92 0 0 1 .22-1.22z" fill="#747474"/><path d="m85.3 3.47.22-.5h7l1.88 1.24c.77.27 1.68.22 2.23 1 .2.28.55 1.29.32 1.66-.6.59-1.2.54-2.22.33-1.54-1.67-3-3.33-5.61-3.42a33.71 33.71 0 0 0 -3.49.14 1.35 1.35 0 0 1 -.33-.45z" fill="#9a9a9a"/><path d="m78.56 2.94c-.64.72-1.28.24-1.92 0z" fill="#b1b1b1"/><path d="m25.46 63.66c-.45 0-.91.35-1.36 0a21.5 21.5 0 0 1 -6.3.46h-.2a10 10 0 0 0 -1.72.23 5.45 5.45 0 0 0 -2.7.83.49.49 0 0 1 -.43.1c-1.24-.31-2.53-.35-3.76-.73-.79-1.26-.41-1.92 1-2.26 2.2-.53 4.34 0 6.5.15 1.62.11 3.17-.4 4.78-.44 4.67-.09 9.31-.7 14-1.11 4-.36 8.1-.73 12.15-.94 5.57-.28 11.13-.67 16.7-.56 3.87.08 7.74-.07 11.61.1a39.75 39.75 0 0 0 7.15-.41c1-.14 2 .5 3 .15 1.78-.67 3.59-.11 5.39-.28 2.77-.25 5.64-.77 8.43.24a3.93 3.93 0 0 0 2.49-.06 6.22 6.22 0 0 1 2-.26c1.59.62 3.24.28 4.87.3 5.07 0 10.11-.58 15.17-.88 3.75-.21 7.51 0 11.27 0a95.24 95.24 0 0 0 9.55-.59 19.77 19.77 0 0 1 4.07 0 10.91 10.91 0 0 0 2.74-.1 1.46 1.46 0 0 1 .8.06 1.51 1.51 0 0 1 .63 1.13 3.71 3.71 0 0 1 -3.35.85 8.19 8.19 0 0 1 -2.81-.49 1.07 1.07 0 0 0 -.82.06 20.13 20.13 0 0 1 -4.95.59c-1.34.06-2.69.08-4 .17a23.85 23.85 0 0 1 -6 0c-1.31-.24-2.63 0-4-.2-.54-.08-1 .34-1.6.41a31.14 31.14 0 0 1 -5.87.1 20.39 20.39 0 0 0 -4.49.29 18.64 18.64 0 0 0 -2.4.43 11.38 11.38 0 0 1 -2.74.1 43.64 43.64 0 0 1 -5.49.11c-1.58-.13-3.17-.23-4.76-.28a23 23 0 0 1 -3.79-.17 18.67 18.67 0 0 0 -4.42 0c-2.35.1-4.68.4-7 .31-1.18 0-2.39.28-3.57.23a69.15 69.15 0 0 0 -7.05.31 38 38 0 0 1 -4.53-.25c-1.29-.07-2.54.19-3.82.21-.27 0-.57.15-.82.09a16.75 16.75 0 0 0 -3.81-.13c-3.11 0-6.21-.08-9.32.11-2.11.14-4.22.21-6.33.38-1.51.12-3-.11-4.54.09-1 .12-2 .27-3 .4a1.46 1.46 0 0 1 -1 .37c-2 .11-4 .43-6 .5a49.28 49.28 0 0 0 -5.55.28z" fill="#797979"/><path d="m82 97.52c-1 .08-2 .31-3.09.33a1.94 1.94 0 0 1 -2.17-1.3c-.17-.51-.47-.54-.92-.43-.86.2-1.72.37-2.58.55a3.35 3.35 0 0 1 -.71.07c-.44 0-.91 0-1.14-.5a1.12 1.12 0 0 1 .3-1.21 15.44 15.44 0 0 0 1.64-2.03c.27-.47.74-1 .29-1.52s-1-.25-1.53 0a2.72 2.72 0 0 1 -2.59-.48.78.78 0 0 1 -.26-1 3 3 0 0 1 .57-.9c.85-1 7.3-2.44 7.29-2.6s-6.56 1.49-7.94.95c-.83-.32-1.84.17-2.8-.07-1.33-.33-1.35-.26-1.11-1.7a4.25 4.25 0 0 1 2.93-2.6c.64-.2 1.28-.44 1.92-.65s.83-.42.75-1a1.27 1.27 0 0 1 .94-1.43 5.42 5.42 0 0 1 1.59-.49 19.46 19.46 0 0 1 5 0 9.11 9.11 0 0 1 3.7 1.89c1.25.92 2.44 1.91 3.74 2.78a4.09 4.09 0 0 1 .61.57c.35.35.85.62.82 1.24-.36.43-.94.63-1.18 1.22-.13.32-.49.33-.81.22-1.23-2.41-3.53-3.7-5.58-5.21a7.15 7.15 0 0 0 -4.68-1.17 3.15 3.15 0 0 1 1.93.39 1.2 1.2 0 0 1 .61 1.32 1.09 1.09 0 0 1 -1.13.89c-1 0-2.07-.05-3.11-.11a8.61 8.61 0 0 0 -3.85.69c-.37.14-.8.35-.73.84s.57.48 1 .5a20.64 20.64 0 0 0 4.28-.27 26.92 26.92 0 0 1 4.3-.14c.69 0 1.32.19 1.38 1s-.52 1-1.13 1.16a40.07 40.07 0 0 1 -4.55 1.42c-.4.06-.87.16-1 .68.39.29.79 0 1.17 0a1.92 1.92 0 0 1 1.84 3.17c-.3.43-.64.82-.91 1.27-.12.2-.33.41-.16.65s.44.13.66 0a18.77 18.77 0 0 1 2.18-.65c1.25-.31 1.61-.09 1.72 1.17a1 1 0 0 0 1 1.06c.46.06 1 0 1.37.32s.44.71.13 1.11z" fill="#878787"/><path d="m152.69 68.07-5.26 2a16.34 16.34 0 0 0 -1.54.68c-1.73.91-3.66 1.37-5.34 2.4a.62.62 0 0 1 -.22.1c-2.3.51-4.19 2-6.35 2.76-2.86 1.06-5.35 2.86-8.24 3.83a30.65 30.65 0 0 0 -4.24 1.63c-2 1-8.82 5.08-10.67 4.92a16.29 16.29 0 0 1 -1.93.71c-2.25.65-4.49 1.32-6.74 2a11.41 11.41 0 0 1 -3.29.51 1.24 1.24 0 0 0 -.47.06 12.08 12.08 0 0 1 -4.34.58 3.5 3.5 0 0 0 -1.5.34 3.8 3.8 0 0 1 -1.62.37.56.56 0 0 1 -.39-.42c-.21-.6.2-.77.64-.92a19.25 19.25 0 0 1 5.69-1.25c3.57-.16 7-1.32 10.41-2.16 5.23-1.28 9.76-4.09 14.48-6.5 1-.5 2.12-.44 3-1 2.84-1.35 5.7-2.67 8.54-4 6.88-3.22 13.48-5.65 21.22-8.52 2.23-1.47 3.57-2.64 5.39-3.9a.63.63 0 0 1 .46-.11.79.79 0 0 1 .31.2 1.25 1.25 0 0 1 .45.81c-1.38.71-2.23 1.17-3.34 1.87a35 35 0 0 1 -5.11 3.01z" fill="#919191"/><path d="m85.33 112.43a2.39 2.39 0 0 1 -1 .51c-.49-.22-1.35.57-1.5-.55a2.2 2.2 0 0 1 1-.74c.32 0 .47-.14.48-.45.37-1 .24-1.28-.72-1.53a2.05 2.05 0 0 0 -1.52.12 11.25 11.25 0 0 1 -2.41.69c-.23.06-.51.13-.66-.11s0-.54.22-.74a7.49 7.49 0 0 1 2.26-1.56 19.57 19.57 0 0 1 3.5-1.21c2.33-.53 4.65-1.12 6.94-1.82a8.16 8.16 0 0 1 1.29-.25 2.07 2.07 0 0 1 2.38 1.21c.51 1 .61 1 1.53.45.69-.43 1.52-.75 1.52-1.81 0-.34.4-.46.67-.63a56.85 56.85 0 0 1 8.53-4.58 17.66 17.66 0 0 0 2.69-1.55c2.17-1.35 4.42-2.57 6.48-4.08.34-.2.74-.23 1.06-.45.58-.39.92-.19 1.07.46a3.6 3.6 0 0 1 -2.12 2 55.72 55.72 0 0 0 -7.88 4.76c-3.89 1.56-14.24 8.06-16.37 10.26-.24.14-.44.42-.72.42-.56 0-1.27.35-1.62-.35s.2-1.11.67-1.48.82-.51 1.21-.78 1.23-.71.87-1.48-1-.5-1.6-.35c-1.82.48-3.68.76-5.52 1.12a15.92 15.92 0 0 0 -2.4.38 4.14 4.14 0 0 1 2 .14c1.14.4 1.36.82 1.14 2.1 0 .16.1.3.19.44.26.35.54.71.17 1.16-.3.25-.58 0-.86 0s-.91-.54-.97.28z" fill="#878787"/><path d="m118.49 93.83c0-.26-.17-.3-.38-.22a2.75 2.75 0 0 1 -1.1.2 3.92 3.92 0 0 1 1.3-.84 115 115 0 0 0 12.78-6.58c2.45-1.43 4.79-3 7.18-4.58.7-.45 1.38-1 2.1-1.38a39.81 39.81 0 0 0 6.34-4.69 16.29 16.29 0 0 1 2-1.48c2.77-1.85 12.85-11.77 13.57-12.78.11-.12 0 0 .07-.09 1.48-1.41 1.52-1.4 2.15.49 0 .1.16.17.24.25.51.71 2.18-1.09 1.71-.72-2.84 2.22-28.85 23.12-32.7 25.26-3.41 1.89-6.68 4.06-10.35 5.46-1.34.51-2.47 1.46-3.85 1.9-.4.14-.78.4-1.06-.2z" fill="#8e8e8e"/><path d="m104.35 80.3c1.5-.43 3-1 4.49-1.28a54.16 54.16 0 0 0 7.62-2.46c1.86-.66 3.74-1.14 5.63-1.63 2.51-.65 5.07-1.12 7.58-1.79a52.66 52.66 0 0 0 6.62-2.46c3.13-1.32 6.35-2.38 9.53-3.56a75.85 75.85 0 0 0 9.77-4.2 21.14 21.14 0 0 1 4.57-1.78c.33.72-.43 1-.61 1.51a45.87 45.87 0 0 0 -10.83 5.06 20.79 20.79 0 0 1 -3.31 1 11.18 11.18 0 0 0 -3.15 1.12 63.66 63.66 0 0 1 -11.63 4.34c-3.2.92-6.35 2.16-9.74 2.41-1.73.12-3.25 1.14-4.9 1.62s-3.34 1.2-5.08 1.65c-1.53.4-3.19.37-4.62 1.18a2.5 2.5 0 0 1 -1.51.09 1.09 1.09 0 0 1 -.43-.82z" fill="#909090"/><path d="m86 111.94h1c.44 0 .59.34.81.61.29.5-.09.73-.41 1s-.81.82-1.14 1a14.46 14.46 0 0 1 3.14-2.26 5.8 5.8 0 0 1 2-.79c1-.15 1.62.54 1.25 1.53a5.85 5.85 0 0 1 -1.24 2 2.35 2.35 0 0 0 -.78 1.24 50.14 50.14 0 0 0 5.05-2.82 5.26 5.26 0 0 1 1.27-.65c.51-.14 1.06-.32 1.44.19a1.14 1.14 0 0 1 -.14 1.44 14.41 14.41 0 0 0 -1.91 3.29c-.51.44-1.14.17-1.7.29a2 2 0 0 1 0-1.62c.07-.18.16-.4 0-.56s-.44 0-.64.08c-1.2.63-2.36 1.32-3.5 2.06a4.5 4.5 0 0 1 -3.25.92 3.92 3.92 0 0 1 1-2.73 17.3 17.3 0 0 0 2-2.58c-.4-.13-.56.14-.75.3a35.05 35.05 0 0 1 -3.63 2.28c-.57.36-1.2.64-1.74 1-.1.07-.19.15-.29.21-.78.49-1.57.59-1.89.23s-.07-.86.65-1.63c1-1.1 2.24-2 3.34-3.08.22-.2.59-.41.13-.75-.15-.05-.15-.14-.07-.2z" fill="#8a8a8a"/><path d="m159.44 62.35c-.21-.22-.28-.44 0-.66l.71-.55a1.1 1.1 0 0 0 .72-.47c.49-.42 1.41-.55 1.32-1.38s-1-.56-1.5-.86a1.12 1.12 0 0 1 -.29-.19 7.24 7.24 0 0 1 -4.32.26 3 3 0 0 0 -1 0c-.41.07-.76.49-1.24.24h-.63c-.42-.1-.68-.32-.57-.8a1.21 1.21 0 0 0 0-.19c.15-.72.82-.51 1.26-.72l.37-.08c.64-.08 1.28 0 1.92-.06a35.29 35.29 0 0 1 8.28-.15 1.44 1.44 0 0 1 1.29 1.26 1.67 1.67 0 0 0 .59 1.27 1.35 1.35 0 0 1 .44 1.67 2.73 2.73 0 0 1 -1 1.09 1.36 1.36 0 0 1 -2-.86c-.48.12-.68.47-1 .72-.47.68-.9 1.42-1.93 1.2a1.08 1.08 0 0 1 -.49-.5c.13-.14.12-.29 0-.37s-.28.05-.39.16-.38.22-.54-.03z" fill="#676767"/><path d="m90.92 90.33v.55a21 21 0 0 1 -3.18 1c-.6.19-.92.48-.89 1.07.08 1.79-1.07 2.81-2.27 3.82-.22.33-.72-.08-.9.34l-.24.17c-.29.24-.69 0-1 .22h-.44c-.24-.19-.52-.37-.25-.73 0-.06 0-.12 0-.19.08-.68.72-.54 1.12-.76.71-.35 2.8-1.73 2.6-2.68-.11-.51-3 0-3-.57-.71-.46 3.1-1 3.4-1.66.21-.48-5.25-.39-5.06-1.22a1.59 1.59 0 0 1 1.64-1.15 10.24 10.24 0 0 1 4.62 1 4.37 4.37 0 0 0 2.77.42c.38-.02.82-.08 1.08.37z" fill="#6c6c6c"/><path d="m104.35 80.3.51.49c-.07.65-.63.83-1.09.94a12.37 12.37 0 0 0 -5.18 2.56 5.09 5.09 0 0 1 -1.77.7 16.34 16.34 0 0 0 -4.88 2.08 8.39 8.39 0 0 1 -3.68 1.21 4.13 4.13 0 0 0 -1.05.18l-.36.13a1.4 1.4 0 0 1 -1.9-.82c0-.34.12-.54.47-.55 0-.15.12-.29.16-.43.25-1 .25-1 1.25-.77 1.79 0 3.2-1.13 4.86-1.54a8.82 8.82 0 0 1 2.64-.55 32.75 32.75 0 0 0 6-2.28 14.46 14.46 0 0 1 4.02-1.35z" fill="#7d7d7d"/><g fill="#797979"><path d="m82.86 112.39c.49.2 1.15 0 1.5.55a18.14 18.14 0 0 1 -3.45 2.29 15.34 15.34 0 0 0 -3.11 2.18 2.31 2.31 0 0 1 -1 .59.56.56 0 0 1 -.64-.2c-.16-.26 0-.47.19-.63a23.46 23.46 0 0 1 3-2.52c1.2-.72 2.18-1.77 3.51-2.26z"/><path d="m86 111.94v.23l-.68.26c-.15-.05-.33-.07-.37-.25s.12-.27.27-.34a1 1 0 0 1 .78.1z"/><path d="m84.33 111.2c.3.31.17.54-.15.71s-.32 0-.33-.26z"/><path d="m153.9 58.72 1.24-.24a1.05 1.05 0 0 1 -1.24.24z"/></g><path d="m82.48 97.52a1.6 1.6 0 0 1 1-.22 2.55 2.55 0 0 1 -1 .22z" fill="#878787"/><path d="m83.7 97.13a1.45 1.45 0 0 1 .9-.34 1.56 1.56 0 0 1 -.9.34z" fill="#878787"/><path d="m96.26 9.52c.13-.5-.27-.72 0-1 .11 0 .72.47 1 .45 1 .79 5.76 2.68 6.35 2.92.15.07.31.09.46.15a17.16 17.16 0 0 0 2 .84c.63.09 3.3 1.4 4.12 1.72 2.46 1 4.68 2.43 7.05 3.59s4.85 2.45 7.36 3.51a21.57 21.57 0 0 1 3.47 1.89c1.93 1.26 3.93 2.25 5.93 3.31a33.38 33.38 0 0 1 4.55 2.66 10.92 10.92 0 0 0 2.16 1.29c1.27.58 2.51 1.23 3.79 1.79a29.65 29.65 0 0 1 5.5 3.64c1.16.86 2.31 1.72 3.52 2.49a27.71 27.71 0 0 1 3.67 2.88c-.15.51-.71.49-1 .81-.67 0-1.11-.42-1.58-.76-3.3-2.38-6.48-5-9.91-7.13a55.15 55.15 0 0 0 -6.2-3.1 3.6 3.6 0 0 1 -.87-.4c-3-2.63-6.76-4.21-10.18-6.23-4.23-2.51-8.77-4.39-13.19-6.52-1.7-.81-3.28-1.82-4.93-2.71a7 7 0 0 0 -1.52-.71c-2.81-.73-11.54-5.23-11.55-5.38z" fill="#939393"/><path d="m154.57 74.78c-1.23 1-2.71 1.7-4 2.64a14.89 14.89 0 0 0 -1.86 1.5 37.93 37.93 0 0 1 -5.66 4.6c-2.61 1.78-5 3.87-7.4 5.89-1.07.9-2.22 1.71-3.25 2.63-1.19 1.08-2.56 1.88-3.75 2.95-2.17 2-4.87 3.18-7.19 5-1.43 1.09-3 1.89-4.53 2.87a21.76 21.76 0 0 1 -3.23 1.54c-1.71.76-3.44 1.49-5.15 2.25-.62.27-1.23.56-1.83.88a3.56 3.56 0 0 1 -1.47.49c-.39-.14-.84.27-1.22-.1-.36-.89.38-1 .89-1.22 3.44-1.59 7-2.93 10.35-4.7a91.22 91.22 0 0 0 7.73-5 163.17 163.17 0 0 0 14.83-11.5 8.83 8.83 0 0 1 1.06-.79 49.67 49.67 0 0 0 7.72-6.23 37.62 37.62 0 0 1 6.54-4.4.85.85 0 0 1 .8-.12c.25.2.59.4.62.82z" fill="#939393"/><path d="m166.64 59.72c-.52.36-1.26 0-1.74.6-.15.17-.37 0-.42-.24a.85.85 0 0 1 .29-1c.64-.45.49-.89.07-1.38-.09-.11-.08-.3-.11-.45.27-1.82 0-2.32-1.7-3.11a9.16 9.16 0 0 0 -3.79-.29 1.36 1.36 0 0 1 -.91-.09c-.61-.06-.84-.6-1.13-1a.78.78 0 0 1 .64-1.28 8.81 8.81 0 0 1 1.92 0 2.21 2.21 0 0 0 2.24-.48c.26.35.77-.32 1.2-.2.62-.39-1.79-1.51-3-2.47-.26-.22-.66-.33-.65-.78a9.56 9.56 0 0 0 .56-1.58c.5-.84.88-.08 1.31.1a9.29 9.29 0 0 1 1.64 1.73 8 8 0 0 0 1.86 1.66 20 20 0 0 1 2.69 2.36 6.43 6.43 0 0 0 1.95 1.55c1.11.55 1.25 1.32.51 2.3a2.76 2.76 0 0 1 -.91.76c-.55.49 1.1.58 1.37.71.79.33-3.2 2.52-3.89 2.58z" fill="#585858"/><path d="m104.26 107.67c.33.12.82-.34 1 .3-.41.39-1.16.32-1.38.87s.41 1 .63 1.47a3.42 3.42 0 0 1 -.52 3.88 24 24 0 0 1 -2.36 2.37 6.3 6.3 0 0 1 -2.84 1.14 3.76 3.76 0 0 0 -1.18.56 2.28 2.28 0 0 1 -3-.26 7.68 7.68 0 0 0 .59-.69c.43-.58.67-.22.92.16 2.12-.79 3.64-2.53 5.63-3.55 1.08-.55 1.24-1.49.84-2.92a1.6 1.6 0 0 0 -2.6-.15c-.37.34-.49.92-1.06 1a5.22 5.22 0 0 1 -2.48.82 1 1 0 0 1 -1-.56.79.79 0 0 1 .12-1 13.71 13.71 0 0 1 5.33-2.34c-.66-.6-3 .24-3.12-.55s.58-1.08 1.16-1.37a2 2 0 0 1 1.74 0 4.71 4.71 0 0 0 2.91.43c.35-.08.54.12.67.39z" fill="#737373"/><path d="m154.57 74.78a1.45 1.45 0 0 1 -.71-.45 1.29 1.29 0 0 1 .86-1.37 3.86 3.86 0 0 0 1.46-.92c.85-.69 1.36-1.66 2.13-2.41a61.78 61.78 0 0 1 4.94-4.48c1.58-1.26 3.14-2.27 4.18-4 1.33-1 1.62-3.84 2.46-3.52.42.23.64-.65.74-.13-.38.66-2.11 4.51-2.49 5.16a8.29 8.29 0 0 1 -2.14 2.34 32.21 32.21 0 0 0 -3.86 3.34c-1.3 1.4-2.69 2.71-4 4.08a11 11 0 0 1 -3.57 2.36z" fill="#858585"/><path d="m161.42 46c-.35-.06-.72-.17-1 .23a.7.7 0 0 1 -.26.28 1.36 1.36 0 0 1 -1.73-.69 13.81 13.81 0 0 0 -2.22-2.92.68.68 0 0 1 -.12-1c0-.27-.08-.56.37-.45l.65.14a1.31 1.31 0 0 0 .7.74 5.53 5.53 0 0 1 .89.78c.85 1.09 1.85 1.89 2.72 2.89z" fill="#7c7c7c"/><path d="m157.84 42.4a.83.83 0 0 1 -.7-.74 1.67 1.67 0 0 1 .7.74z" fill="#939393"/><path d="m56.43 17.54c1.27-.29 2.55-.51 3.8-.89a18.12 18.12 0 0 1 4.59-.33.74.74 0 0 1 .77-.43 23.73 23.73 0 0 1 7.35 1.52 2.21 2.21 0 0 1 1.25 1.07 4.33 4.33 0 0 0 2.7 2c1.17.39 2.38.69 3.52 1.18.36.16.79.24.82.75a1.11 1.11 0 0 1 -.45 1.17.66.66 0 0 1 -.64 0 2 2 0 0 0 -1.21-.43c-.81.27-1.47-.17-2.17-.43a7 7 0 0 0 -1.33-.46 8 8 0 0 0 -2.18 0c-1.76.37-2-.52-2.68-2.32-.22-.64-.42-1.06-1.09-1.22-3-.71-6-1.35-8.73-.55a23.9 23.9 0 0 1 7 1.3 1.32 1.32 0 0 1 .88 1.32 1.46 1.46 0 0 1 -1 1.26 45.47 45.47 0 0 1 -5.32 1.61 3.92 3.92 0 0 1 -.71-1.63 4.59 4.59 0 0 1 1.4-.42c.46-.13.91-.28 1.36-.45.22-.09.5-.21.5-.47s-.37-.42-.62-.43c-1.35-.07-2.67-.43-4-.57a16.43 16.43 0 0 1 -3.4-.7c-.92-.3-.98-.58-.41-1.45z" fill="#848484"/><path d="m61.68 22.07a3.62 3.62 0 0 1 .46.06c.33.07.52.23.22.55a.62.62 0 0 0 -.23.62c.48.16.44.54.37.92a1 1 0 0 1 -.14.44c-.91.65-1.94.32-2.93.33-2-.19-3.86.54-5.82.73-.67.07-1.22.09-1.53-.61s.09-.86.64-1a43.68 43.68 0 0 1 4.52-1.11c1.47-.34 2.96-.62 4.44-.93z" fill="#747474"/><path d="m77.09 9.39a14.32 14.32 0 0 1 -5.43 1.18c-1.15 0-2.3 0-3.45 0a2.37 2.37 0 0 1 -1-.48c.2-.07.68.06.34-.41a1.26 1.26 0 0 1 0-1.51 6.36 6.36 0 0 0 5.66 1.43c1.06-.21 4-1.73 4.35-1.21a6.59 6.59 0 0 0 -.64.52c-.25.25-.12.4.17.48z" fill="#8e8e8e"/><path d="m91.75 12.58c-1.75-.67-3.38-1.58-5.38-1.58a24.42 24.42 0 0 1 -4.32-.54 2.47 2.47 0 0 1 -1.58-1c.39 0 4.34.88 4.86-.09l-.78-.88a38.9 38.9 0 0 1 4.35 2c1.43.6 2.86.86 4.28 1.5a10 10 0 0 0 2.62.71c2.89 1 5.69 2.28 8.5 3.51 3.45 1.51 6.57 3.63 9.86 5.43 3.9 2.12 7.92 4 11.94 5.84a71.27 71.27 0 0 1 10.9 5.73 85 85 0 0 0 12.63 6.79c2.21 1 4.43 2 6.58 3.18 1.31.71 2.21 2 3.44 2.84.17.11.3.27.53.21h.27c.25.55-.21.83-.45 1.19a13.37 13.37 0 0 1 -3.87-2.56 10 10 0 0 0 -2.56-1.5c-1.74-.9-3.61-1.53-5.31-2.51-1-.6-2.27-.8-3.3-1.4-2.55-1.48-5.38-2.44-7.77-4.2-1.51-1.11-3.28-1.82-4.65-3.14a6.46 6.46 0 0 0 -1.72-1.07c-1.83-.87-3.66-1.76-5.5-2.61-2.17-1-4.39-1.9-6.53-3-1.74-.88-3.6-1.55-5.27-2.53-2-1.15-4-2.24-5.9-3.42a34.28 34.28 0 0 0 -5.33-2.72c-1-.39-2-1-3-1.42-1.82-.72-3.67-1.36-5.5-2z" fill="#959595"/><path d="m96.55 5.9c.53 1.1.53 1.1-.55 1.52-.21.09-.46.13-.58.45.43.64 1.2.78 1.83 1.13 0 .9-.58.53-1 .52a2.91 2.91 0 0 1 -1-.49c-.7-.1-1.45-1.79-2 .44h-.43c-.27-.27-.67 0-1-.24-.5-.22-.35-.92-.42-1.66s-1.54.25-2 0a17.2 17.2 0 0 1 -3.71-2.1c-.57-1.23 2.44-1.61 3.39-1.07 1.21.7 1.49 1.45 2.71 2.12.43.24 2.74 0 2.89.35a1.27 1.27 0 0 0 1-.57.72.72 0 0 1 .87-.4z" fill="#757575"/><path d="m92 9.25a2 2 0 0 1 1 .24 1.89 1.89 0 0 1 -1-.24z" fill="#b0b0b0"/><path d="m80.72 3a5.75 5.75 0 0 0 -1.28 1.23.83.83 0 0 0 .15 1.25 17.62 17.62 0 0 0 3.53 2.19 7.51 7.51 0 0 1 1.43.83c.32.44 1.39.23 1.14 1.06s-4.75.36-5.12.6a12.05 12.05 0 0 0 -1.89-.33 3.59 3.59 0 0 0 -1.46 0h-.36c-1.58-.26-.23-1-.31-1.57-1.88.35-3.46-.63-5.17-1.06s-2.22-.09-3 1.49a2.24 2.24 0 0 0 0 .58c.16 1.22.15 1.23-1.15.9-1.48-.44-1.77-1.25-.9-2.53a4.71 4.71 0 0 1 .67-.77 11.77 11.77 0 0 0 3-4h6.72c.64.09 1.28.44 1.92 0zm-9 .52c-.5.11-.61.51-.32.91a1.4 1.4 0 0 0 .45.39c.58 1.36 1.71 1.83 3.76 2.1 2-.27 2.26-.49 1.86-2-.1-.35-.12-.68-.45-.77-1-.29-1.87-1.14-3-.87a7.73 7.73 0 0 0 -2.32.19zm10.59 4.82c-.53-.83-2.8-2-3.09-.18.29.19 2.76 1.22 3.07 1.36a.87.87 0 0 0 1.23-.27 13.19 13.19 0 0 0 -1.21-.91z" fill="#7b7b7b"/><path d="m78.57 9.21c-.4.71-1 .21-1.48.21a2.78 2.78 0 0 1 1.48-.21z" fill="#8e8e8e"/><path d="m160.39 62.33-.47-.21c.23-.21.57-.49.79-.25s-.17.48-.32.72z" fill="#909090"/><path d="m86.26 111.22a17.68 17.68 0 0 1 2.4-1.06c.27-.08.57-.14.77.12a.59.59 0 0 1 -.13.85c-.59.54-1.21 1-1.82 1.55-.41-.08-.63-.29-.5-.74z" fill="#797979"/><path d="m154.16 57.74a4 4 0 0 1 1.93-.23 4.1 4.1 0 0 1 -1.93.23z" fill="#797979"/><path d="m152.71 58a2.71 2.71 0 0 1 1.46-.22 2.71 2.71 0 0 1 -1.46.22z" fill="#797979"/><path d="m81.76 96.79a2.38 2.38 0 0 1 1.44-.24 2.65 2.65 0 0 1 -1.44.24z" fill="#878787"/><path d="m87.08 87.7c-1.07.65-1.19.65-1.92 0a3.31 3.31 0 0 0 1.92 0z" fill="#878787"/><path d="m88.28 87.5a2.75 2.75 0 0 1 -1.2.21 1.13 1.13 0 0 1 1.2-.21z" fill="#878787"/><path d="m158.89 53.93c-1.87-.7-11.36-2.14-13.13-2.39a1.73 1.73 0 0 1 -.79-.24c-.42-1.09-.1-1.46 1.41-1.6 1.23.12-1.43-2.09-1.16-2.57s10.37 3.23 11.1 2.55a4.62 4.62 0 0 0 .65-.07l.3-.08c.24 0 .49-.16.68.1 1.67.35 3.17 1.18 4.83 1.55a1.59 1.59 0 0 1 .74.35 1.93 1.93 0 0 0 -1.84.57 1.31 1.31 0 0 1 -1.56.22 6.61 6.61 0 0 0 -2.19-.12 7.35 7.35 0 0 0 .96 1.73z" fill="#656565"/><path d="m163.55 53.48a28 28 0 0 1 -4.3-.3c1.47-.55 2.88-.03 4.3.3z" fill="#656565"/><path d="m146.79 50.5h-.94c-.54 0-.21.44-.37 1-2.66-.53-6.07-.45-8.75-.8a35.19 35.19 0 0 0 -4.36 0 2.42 2.42 0 0 0 -1.85-.09 2.34 2.34 0 0 1 -1.41 0 5.76 5.76 0 0 0 -2.48 0c-.71-.17-1.33.26-2 .3a11.47 11.47 0 0 1 -4.25-.21.81.81 0 0 0 -.57.11c-2 .79-4.1.4-6.14.75a15.34 15.34 0 0 1 -3.09-.2c-1.47-.06-3 .25-4.41-.22a12.07 12.07 0 0 0 -2.58-.66 1.77 1.77 0 0 0 -.58-.12c-1.54.22-3.09-.26-4.64 0a8.12 8.12 0 0 1 -2.51 0 3.27 3.27 0 0 0 -1.87.3.78.78 0 0 1 -1 0l-3.84.34a10.26 10.26 0 0 0 -2.65.23c-.62.31-1.32-.08-1.94.22h-.46c-.27.34-.71-.09-1 .23h-.2s-.07.06-.1.06c-2.19-.26-4.3.42-6.45.55s-4.39.09-6.58.19c-3 .13-5.94.06-8.9.07-4.23 0-8.42.49-12.63.61a5.05 5.05 0 0 0 -2 .46 1.91 1.91 0 0 1 -2.16-.11c-.6-.48-1.52-.25-2.31-.1h-1.1a4 4 0 0 1 -3.11.63 86.23 86.23 0 0 0 -9.78.06 3.32 3.32 0 0 1 -2-.53c-1.68-.47-3.4-.21-5.09-.37-.24 0-.48.05-.68-.13-1.11-.27-2.19.31-3.29.1-.26 0-.56.1-.79-.12a6 6 0 0 0 -1.76-.05c-.64-.48-.54-1-.06-1.52a6.7 6.7 0 0 1 3.17.31.52.52 0 0 0 .35 0c2-.64 4 .11 5.94.06 2.77-.08 5.53.32 8.27.4 3.31.09 6.66.51 10-.16 1-.21 2 .3 3 0 3.48-.19 6.94-.52 10.38-1a52.25 52.25 0 0 1 8.38-.43c4.52.13 9 0 13.55 0 5.08-.06 10.14-.55 15.21-.81a121.11 121.11 0 0 1 13.06-.34c3.23.18 6.46.35 9.69.36h8.87q6.48-.13 12.94-.23a18.39 18.39 0 0 0 4.44-.15 12.45 12.45 0 0 1 5.16.45.46.46 0 0 1 .27.56z" fill="#797979"/><path d="m65.84 32.21a2.76 2.76 0 0 1 -1.79-2.33c0-1.08 0-1.07-1.19-1.08a6.19 6.19 0 0 1 -2-.35 1.6 1.6 0 0 1 -1.06-.85c.07-.15.13-.3.2-.44 1.63-1 3.45-1.66 5.12-2.63-1.07.39-5.27.62-6.19.14 0-.32 9.42-2 9.68-1.39s-3.55 2.71-5.3 3.63a.17.17 0 0 0 .08.32c1.84-.09 5.6-.08 5.69.53s-.4 1-1 1.17c-3.15-.51-1.35 2.59-1.52 2.79-.42.28-.26.47-.72.49z" fill="#848484"/><path d="m108.93 32.58c-1-.29-1.77-1-2.78-1.36-3.34-1-6.58-2.38-10-3.25-1.07-.27-2-.9-3.08-1.24a10.26 10.26 0 0 0 -1.72-.5 27.34 27.34 0 0 1 -6-1.6c-1.64-.62-3.36-1-5-1.5a1 1 0 0 0 .5-.72 13.81 13.81 0 0 1 3.34.93 88.53 88.53 0 0 0 9.22 2.66 56.34 56.34 0 0 1 5.59 2c3.55 1.19 7.09 2.42 10.53 3.94a6.61 6.61 0 0 1 1.27.65c.11.26-.06.42-.25.33-.5-.23-1.1-.1-1.62-.34z" fill="#8e8e8e"/><path d="m75.59 21.64h-2.38a3.16 3.16 0 0 1 2.38 0z" fill="#8e8e8e"/><path d="m80.15 22.94a3.64 3.64 0 0 1 -1.22-.3 1.82 1.82 0 0 1 1.22.3z" fill="#8e8e8e"/><path d="m62.16 24.25a9.41 9.41 0 0 1 -2.9.22 7.1 7.1 0 0 1 2.9-.22z" fill="#848484"/><path d="m149.9 47.65c-1.13-.4-2.24-.85-3.39-1.15-.67-.17-1.24-.58-1.91-.68-2.1-.31-4-1.18-6.12-1.58a2.22 2.22 0 0 1 -.69-.21 24.44 24.44 0 0 0 -4.22-2 32.28 32.28 0 0 0 -5.88-2 24.38 24.38 0 0 1 -4.62-1.63 16.09 16.09 0 0 1 -1.49-.76c-.21-.85.28-.65.74-.49 2.74 1.22 5.67 1.9 8.48 2.92 2.59.94 5.08 2.13 7.67 3.09 1.65.62 3.33 1.11 5 1.57 3.17.85 6.25 2 9.35 3l4.07 1.41a2.26 2.26 0 0 1 .86.4l-.65.18a6.84 6.84 0 0 1 -3.77-.69 15 15 0 0 1 -3.43-1.38z" fill="#919191"/><path d="m122.32 37.22a1 1 0 0 0 -.73.49 45.51 45.51 0 0 0 -6.43-2.84c-1.17-.35-2.28-.9-3.42-1.34a17 17 0 0 0 -1.74-.53 2.58 2.58 0 0 1 -1.1-.41c.63-.16 1.26.17 1.9 0a45.26 45.26 0 0 1 4.94 1.75c2.26.88 4.45 1.8 6.58 2.88z" fill="#a0a0a0"/><path d="m72.46 53.47v.08s-.06 0-.09 0 0-.05 0-.08z" fill="#d2d2d2"/><path d="m64.84 59.5s0 .07 0 .09-.06 0-.09 0 0-.07 0-.09.06 0 .09 0z" fill="#d2d2d2"/><path d="m80.63 28.13a67 67 0 0 1 9.68 3.13l4.76 2a4.7 4.7 0 0 0 1.89.25 22.89 22.89 0 0 1 7.22.92 11.76 11.76 0 0 1 2.43 1c1.69 1 3.47 1.8 5.22 2.69a13.93 13.93 0 0 0 4.36 1.23 79.53 79.53 0 0 1 13.7 3.4 50.35 50.35 0 0 0 8.53 2.35 33.85 33.85 0 0 1 3.41 1.11c1.55.39 3.14.54 4.68 1a6.89 6.89 0 0 1 1.48.47c-.81.27-1.6-.19-2.4-.18 0 .42.31.5.44.73a31.52 31.52 0 0 1 -4.33-.83 2.74 2.74 0 0 1 -.89-.34 13 13 0 0 0 -3.49-1.28 10.15 10.15 0 0 1 -3.85-.75 6 6 0 0 0 -1.05-.26 3.52 3.52 0 0 1 -.81-.16 33 33 0 0 0 -4.61-1.61 11.27 11.27 0 0 0 -1.72-.49 20.83 20.83 0 0 1 -3.86-1.21 3.85 3.85 0 0 0 -1.25-.42 5.91 5.91 0 0 1 -2.76-.66 1.15 1.15 0 0 0 -.69-.1 9.94 9.94 0 0 1 -7.06-2 6.07 6.07 0 0 0 -.81-.5 16.46 16.46 0 0 1 -3.07-1.62 1.88 1.88 0 0 0 -.9-.29 8.49 8.49 0 0 1 -2.27-.73 3.94 3.94 0 0 0 -2.18-.44 11.51 11.51 0 0 1 -1.77-.12c.19.52.8.47 1 .85a.5.5 0 0 1 -.64.23 4.83 4.83 0 0 1 -1.39-.37 7.22 7.22 0 0 0 -4.63-.55 6.67 6.67 0 0 1 -1.67 0c-.25 0-.65.08-.64-.34s.34-.27.57-.31.71-.09 1.06-.16.54 0 .58-.32-.24-.38-.47-.44c-1.35-.37-2.61-1-3.91-1.48-1.08-.41-2.08-1-3.2-1.33a48.83 48.83 0 0 1 -5-1.56c-.14-.31.03-.44.31-.51z" fill="#868686"/><path d="m156.34 50.11.8-.28c.26.32 0 .41-.23.41a2.35 2.35 0 0 1 -.57-.13z" fill="#919191"/><path d="m80.63 28.13-.26.52a4.14 4.14 0 0 1 -.7.06 1.13 1.13 0 0 0 -1.19.62 3.34 3.34 0 0 1 -1.63 1.33 15.5 15.5 0 0 1 -6.12 1.75c-1.43.08-2.86 0-4.29 0a1.73 1.73 0 0 1 -1.23-.66 2.46 2.46 0 0 1 1.22-.25h3.71a1.43 1.43 0 0 0 1.22-.4 3 3 0 0 1 2.91-1 3.19 3.19 0 0 0 2.14-.59c.25-.2.59-.36.53-.73s-.43-.28-.68-.35c-1-.27-1.78-1.07-2.8-1.34a.35.35 0 0 1 -.25-.47.41.41 0 0 1 .35-.28 2 2 0 0 1 .94.1l2.2.61c1.42.38 1.66.2 1.74-1.32 0-.43 0-.87.11-1.31s.22-.63.63-.56.4.35.41.64c0 .72.07 1.44 0 2.16a1.39 1.39 0 0 0 1.04 1.47z" fill="#747474"/><path d="m14 52.81h-.27a4.94 4.94 0 0 0 -2.13 0l-.27.25a9.36 9.36 0 0 0 -1.91 0 2.12 2.12 0 0 0 -1.72 1.1c-.32.63-.61.67-1.28.34a5.51 5.51 0 0 0 -2.39-.65c-.51 0-1.32 0-1.35-.68s.74-.6 1.21-.71a17.6 17.6 0 0 1 4.52-.37c1.68-.3 3.36.15 5 0a.71.71 0 0 0 .54-.18c.29.06.61 0 .88.28-.05.38-.52.39-.83.62z" fill="#6a6a6a"/><path d="m9.26 55.29c.26 0 .54.11.54.47s-.91.9-1.45.84a.4.4 0 0 1 -.41-.47c.06-.45.7-.87 1.32-.84z" fill="#636363"/><path d="m14 51.84a2 2 0 0 1 -1.79.42c-1.26-.13-2.52-.15-3.79-.2a28.13 28.13 0 0 1 5.58-.22z" fill="#797979"/><path d="m11.64 52.8a2.72 2.72 0 0 1 2.13 0z" fill="#797979"/><text fill="#1d1d1b" font-family="BaskervilleMTPro-Regular, Baskerville MT Pro" font-size="10" transform="translate(206.01 53.23)">(3)</text><text fill="#1d1d1b" font-family="BaskervilleMTPro-Regular, Baskerville MT Pro" font-size="10" transform="translate(206.01 169.61)">(4)</text><text fill="#1d1d1b" font-family="BaskervilleMTPro-Regular, Baskerville MT Pro" font-size="10" transform="translate(0 288.06)">Do the sub-pedun<tspan letter-spacing="-.01em" x="72.41" y="0">c</tspan><tspan x="76.57" xml:space="preserve" y="0">les assume        </tspan><tspan x="0" y="12">app</tspan><tspan letter-spacing="-.02em" x="15.11" y="12">ro</tspan><tspan x="23.38" y="12">xim</tspan><tspan letter-spacing="-.01em" x="38.69" y="12">a</tspan><tspan x="43.28" y="12">tely position in (3) or (4)</tspan></text><text fill="#1d1d1b" font-family="BaskervilleMTPro-Regular, Baskerville MT Pro" font-size="10" transform="translate(0 133.25)"><tspan letter-spacing=".04em">F</tspan><tspan x="5.88" y="0">l</tspan><tspan letter-spacing="-.01em" x="8.28" y="0">ow</tspan><tspan x="19.85" y="0">e</tspan><tspan letter-spacing="-.02em" x="24.23" y="0">r</tspan><tspan x="27.69" y="0">-pedun</tspan><tspan letter-spacing="-.01em" x="56.14" y="0">c</tspan><tspan letter-spacing="0em" x="60.3" y="0">le tied in Hori</tspan><tspan letter-spacing="-.01em" x="116.57" y="0">z</tspan><tspan x="120.74" y="0">ontal position</tspan><tspan x="0" y="12">with withe</tspan><tspan letter-spacing="-.01em" x="41.88" y="12">r</tspan><tspan x="45.43" y="12">ed fl</tspan><tspan letter-spacing="-.01em" x="62.62" y="12">ow</tspan><tspan x="74.19" y="12">e</tspan><tspan letter-spacing=".01em" x="78.57" y="12">r</tspan><tspan letter-spacing="-.02em" x="82.32" y="12">s</tspan><tspan x="85.46" y="12">.</tspan></text><path d="m80.72 2.87a5.75 5.75 0 0 0 -1.28 1.23.83.83 0 0 0 .15 1.25 17.62 17.62 0 0 0 3.53 2.19 7.51 7.51 0 0 1 1.43.83c.32.44 1.39.23 1.14 1.06s-4.75.36-5.12.6a13.34 13.34 0 0 0 -1.89-.33 3.78 3.78 0 0 0 -1.46 0h-.36c-1.58-.26-.23-1-.31-1.57-1.88.35-3.46-.63-5.17-1.06s-2.22-.09-3 1.49a2.24 2.24 0 0 0 0 .58c.16 1.23.15 1.23-1.15.9-1.48-.44-1.77-1.25-.9-2.52a4.34 4.34 0 0 1 .67-.73 11.77 11.77 0 0 0 3-4c2.77-1.92 4.48 0 6.72 0 .64.09 1.28.44 1.92 0zm-9 .52c-.5.12-.61.51-.32.91a1.4 1.4 0 0 0 .45.39c.58 1.37 1.71 1.83 3.76 2.1 2-.27 2.26-.48 1.86-2-.1-.35-.12-.68-.45-.77-1-.29-1.87-1.14-3-.87a7.73 7.73 0 0 0 -2.32.24zm10.59 4.87c-.53-.83-2.8-2-3.09-.18.29.2 2.76 1.22 3.07 1.36a.87.87 0 0 0 1.23-.27 13.19 13.19 0 0 0 -1.21-.91z" fill="#7b7b7b"/><path d="m82.68 2.11c-5 3.31-8.13 1.9.65-2a1.2 1.2 0 0 1 .56-.11c2.35.21 6.11 2.64 8.37 2.65l1.92 1.21c.77.27 1.68.22 2.23 1 .2.28.55 1.29.32 1.66-.6.59-1.2.54-2.22.33-1.51-1.67-3.26-3.85-5.83-3.98-1.19-.05-3.18-.46-4.35-.38-.14-.13-1.56-.21-1.65-.38z" fill="#9a9a9a"/><path d="m68.28 5.06c.39 0 4.34.88 4.86-.09-.36-.41-.57-.64-.77-.88" fill="#959595"/><path d="m97.51 9.11c0 .89-.58.52-1 .52a2.76 2.76 0 0 1 -1-.5c-.7-.1-1.45-1.79-2 .44h-.43c-.26-.27-.67 0-1-.24-.5-.22-.35-.92-.42-1.66s-1.54.26-2 0a16.87 16.87 0 0 1 -3.54-2 11.3 11.3 0 0 1 -.55-1.67c-.18-1.07 3 0 3.93.53 1.21.7 1.5 1.45 2.71 2.13.43.23 2.74-.05 2.9.35a1.28 1.28 0 0 0 1-.58.73.73 0 0 1 .68-.43c.54 1.07.53 1.07-.53 1.52-.21.09-.46.13-.57.46.42.63 1.19.77 1.82 1.13" fill="#757575"/><path d="m72.37 4.09c.32.44 1.39.23 1.14 1.06s-4.75.36-5.12.6" fill="#7b7b7b"/></svg>