<svg viewBox="0 0 215.61 101.15" xmlns="http://www.w3.org/2000/svg"><path d="m150.52 60.62a34.52 34.52 0 0 0 -4.66 0c-3.29.09-6.57.32-9.85.5-1.59.09-3.19.25-4.78.26-.66 0-1.3.06-2 .09-.29-.21-.69 0-1-.26a1 1 0 0 1 .29-.07c1.61 0 3.22-.2 4.83-.29 1.82-.09 3.63-.26 5.44-.28 2.43 0 4.85-.34 7.29-.3 2.09 0 4.18-.16 6.27-.17 2.66 0 5.3-.28 8-.2a16.43 16.43 0 0 0 3.21-.12 2.88 2.88 0 0 0 1-.29c.3-.18.64 0 .93-.1a32.32 32.32 0 0 1 3.41-.18c1.51-.15 3-.15 4.54-.21 2.28-.1 4.55-.24 6.82-.33 1.44 0 2.87-.12 4.31-.16 1.64-.05 3.27 0 4.91-.06 1.83-.07 3.66-.21 5.5-.18 1.54 0 3.08-.12 4.61-.06a22.12 22.12 0 0 1 3.64 0 4.08 4.08 0 0 0 1.28-.21 29.8 29.8 0 0 1 4-.1c.77 0 1.52-.19 2.29-.19a1.84 1.84 0 0 1 .42.1 1.67 1.67 0 0 0 1.38.07c.25-.11.45.12.68.13s.26.11.22.28-.19.18-.33.2c-.36 0-.77-.12-1 .27a.41.41 0 0 1 -.34-.09 42.59 42.59 0 0 0 -6.87 0c-2.05.22-4.1.22-6.15.29-1.27 0-2.55.16-3.81.17-1.48 0-2.95 0-4.43 0-1.23 0-2.47.09-3.71.06a49.71 49.71 0 0 0 -5.32.09c-1.88.15-3.78.24-5.66.4a42.44 42.44 0 0 1 -4.37 0 38.4 38.4 0 0 0 -4.42.26c-1.14.11-2.3.07-3.46.13-1.65.08-3.31 0-5 .19a8.92 8.92 0 0 0 -2.19 0c-1.94.19-3.93.28-5.92.36z" fill="#7f7f7f"/><path d="m125.57 61.59a9.18 9.18 0 0 1 -2.67.07c-.14 0-.26.07-.37.16a29.45 29.45 0 0 0 -4.39.38c-1.86.27-3.73.36-5.61.47a62.9 62.9 0 0 0 -8.44.89 22.81 22.81 0 0 1 -3.7.31 23.22 23.22 0 0 0 -3.62.43 26.2 26.2 0 0 1 -4.76.46 3.2 3.2 0 0 0 -.41.07c-2.34.13-4.62.66-6.95.91a46.82 46.82 0 0 1 -7.94.43c-1.72-.11-3.43.2-5.14.25a3.46 3.46 0 0 1 -1.57-.22c1.19-.1 2.22-.14 3.23-.3a52.68 52.68 0 0 1 6.88-.14c1.34 0 2.66-.36 4-.45 2.9-.18 5.72-.93 8.61-1 1.91-.06 3.76-.48 5.63-.7 1.05-.13 2.11-.18 3.17-.21a23.76 23.76 0 0 0 3.85-.52c2.13-.39 4.29-.42 6.44-.64 1.49-.15 3-.1 4.48-.29 2.12-.28 4.25-.42 6.37-.62a11.51 11.51 0 0 1 3 0c.14-.05.32-.1.29.13s-.2.24-.38.13z" fill="#7e7e7e"/><path d="m32.92 28c1.17-.1 2.34-.18 3.5-.3a8 8 0 0 1 1.38-.05 7.43 7.43 0 0 0 3-.2 1.81 1.81 0 0 1 1.62.17 1.11 1.11 0 0 0 .7.11 29 29 0 0 0 4.06-.17 2.78 2.78 0 0 1 1.25.06.81.81 0 0 1 .46-.05c.11 0 .26 0 .28.12s-.19.09-.24.2a10.53 10.53 0 0 1 -2.44.18c-.67 0-1.33.15-2 .18a11.76 11.76 0 0 1 -2.14 0c-1.24-.16-2.47.12-3.71 0-2.06-.22-4.1.27-6.15.23-.27-.57.2-.4.43-.48z" fill="#7a7a7a"/><path d="m62.69 61.35c-2.67.29-5.35.54-8 .77-1.33.12-2.66.24-4 .28-1.51 0-3 .07-4.53.2a.4.4 0 0 1 -.49-.39 27.81 27.81 0 0 1 3.27-.31 6.49 6.49 0 0 1 1.78 0h1c3.12 0 6.22-.35 9.31-.64.82-.08 1.64-.13 2.45-.19.14.2 0 .27-.15.29s-.47-.11-.64-.01z" fill="#8b8b8b"/><path d="m41.79 55.83a4.17 4.17 0 0 1 -.94-.08c-.34-.08-.36-.28-.1-.5h.08a10.33 10.33 0 0 0 3.14.12h7.7c1.63 0 3.26-.1 4.89-.16a.22.22 0 0 1 .11.3 1.26 1.26 0 0 1 -1 .31 13.11 13.11 0 0 0 -2 .07 18.19 18.19 0 0 1 -4.58-.08c-.09-.08-2.32.2-3.3.11-.09.02-2.79-.08-4-.09z" fill="#8c8c8c"/><path d="m55.24 27.27a17.72 17.72 0 0 0 2 .24l.63.11c0 .16.14.33 0 .48a21 21 0 0 0 -5-.43c-1.33 0-2.66.15-4 .23 0-.44-.33-.19-.5-.27a16.23 16.23 0 0 1 2.41-.22l1.93-.25a1.83 1.83 0 0 1 1.91.16c.23.11.38 0 .62-.05z" fill="#878787"/><path d="m39.65 33.75-4.81.49c-.24 0-.48 0-.72 0h-.12c-.15 0-.36.08-.39-.14s.16-.26.31-.29a6.53 6.53 0 0 1 .76-.08 1.25 1.25 0 0 0 .58 0 42.89 42.89 0 0 0 4.67-.44 2.48 2.48 0 0 1 .47 0l.08.06c.06.3-.15.3-.35.3a.73.73 0 0 0 -.48.1z" fill="#868686"/><path d="m170.21 25.61a24.19 24.19 0 0 1 -3.4.16 27.2 27.2 0 0 0 -3.63.29c-1.79.34-3.58.15-5.36.32-2.38.22-4.78.12-7.17.14-2.89 0-5.78.16-8.68.2-1.49 0-3 .19-4.48.24-1.74.06-3.47.19-5.2.26-.38 0-.75.14-1.12.17-2.6.22-5.21.43-7.82.47a7.8 7.8 0 0 1 -2.2-.18 4.12 4.12 0 0 0 -1.31 0c-1.76.11-3.51.07-5.27 0-.87 0-1.71.23-2.56.2-2.58-.08-5.15.17-7.72.3-1.69.09-3.38.27-5.07.4s-3.54.11-5.31.19c-1.3.05-2.59-.08-3.89-.07a10.77 10.77 0 0 0 -1.59.19 17 17 0 0 1 -3.11.12 4.56 4.56 0 0 0 -1.93.35 1.74 1.74 0 0 1 -.46.13c-.11 0-.26.07-.29-.09a.34.34 0 0 1 .14-.24 3.89 3.89 0 0 1 1.27-.51 21.05 21.05 0 0 1 2.51-.08 72 72 0 0 1 9.63-.29c2.86 0 5.69-.38 8.54-.52a10.06 10.06 0 0 0 2.37-.3 40.33 40.33 0 0 0 6.86-.24 11.54 11.54 0 0 1 3.05 0 .72.72 0 0 0 .41 0 8.54 8.54 0 0 0 2.62-.08 6.61 6.61 0 0 1 2.08.12 20.58 20.58 0 0 0 5.26-.1c.89-.1 1.78 0 2.68-.15 1.69-.23 3.4-.38 5.11-.49 1.17-.07 2.35 0 3.53-.05 1.43-.06 2.87-.17 4.3-.25a21.2 21.2 0 0 0 3-.19c1.17 0 2.34.06 3.52 0h4.06c.83 0 1.65-.15 2.48-.22h1.95c2.76 0 5.5-.31 8.25-.56a5.67 5.67 0 0 1 .71 0c1-.15 2-.1 3-.17.23.08.48.14.24.53z" fill="#7e7e7e"/><path d="m71.31 28.24a12.43 12.43 0 0 0 1.36.22c2.43.13 4.86.34 7.3.26a18.48 18.48 0 0 0 2 0c.16 0 .45-.07.45.15s-.29.2-.47.2c-1.52 0-3 0-4.55 0a47.86 47.86 0 0 1 -5.61-.34c-1.94-.18-3.88-.42-5.84-.51 0 .05-.08.05-.11 0a72.32 72.32 0 0 1 -7.93-.13c-.18-.17-.39-.34 0-.48 1.51-.1 3 .2 4.52.16a12.76 12.76 0 0 0 2.05 0 3.13 3.13 0 0 0 1.18 0 28.66 28.66 0 0 1 4.81.42 5.86 5.86 0 0 0 .84.05z" fill="#808080"/><path d="m210.28 54.42c-1 0-1.92 0-2.87-.07-.49 0-1 .14-1.48.15-2.33.07-4.66.32-7 .32s-4.6.18-6.93.18c-1.36 0-2.71.09-4.07.13-.82 0-1.64 0-2.45 0-.34 0-.68.08-1 .12a8.77 8.77 0 0 0 -2.8-.08c-3.08.29-6.18.25-9.26.45-2.63.17-5.26.19-7.88.47l-5.64.6c-2.35.17-4.69.38-7 .51s-4.94.15-7.41.25c-1.3 0-2.59.17-3.89.24-2.65.13-5.31.23-8 .37-1.79.09-3.58.21-5.38.32-4 .25-8 .27-12 .24-3.16 0-6.31.11-9.46.19-2.92.07-5.83.19-8.73.43-3.37.28-6.74.44-10.1.68-1.63.12-3.27.18-4.9.27-.4 0-.8.07-1.19.1-.15-.25 0-.28.22-.29a3.47 3.47 0 0 0 .85 0 17.54 17.54 0 0 1 2.8-.24c2.41-.16 4.83-.25 7.24-.4 3-.2 6-.47 9-.63s6.18-.32 9.27-.33c2 0 4.07-.1 6.1-.09 2.22 0 4.43 0 6.65-.08 2.85-.1 5.69-.39 8.53-.46 1.42 0 2.83-.09 4.25-.11a15.33 15.33 0 0 0 2.79-.18 12.89 12.89 0 0 1 2-.31 25.8 25.8 0 0 1 3.92-.41c.82-.06 1.64 0 2.46 0s7.78-.28 9.81-.49c2.4-.24 4.8-.51 7.21-.68 1.33-.1 2.66-.24 4-.37s2.72-.09 4.07-.18c2.95-.21 5.91-.32 8.86-.41 1.55 0 3.11-.13 4.67-.2.42 0 .88-.12 1.21.3h2.17c0-.06.08-.06.11 0h4.16c.29 0 .58-.06.88-.09.12 0 .24-.07.36 0 1 0 2 0 3-.05 3.06-.28 6.13-.25 9.2-.39a17.69 17.69 0 0 1 4.24 0c.14.19 0 .23-.14.25s-.3-.11-.45-.03z" fill="#8c8c8c"/><path d="m62.57 63.75c2.31-.23 4.63-.39 6.94-.61a25.15 25.15 0 0 0 4.34-.33 48.4 48.4 0 0 0 5.64-.49c1.47-.14 2.94-.32 4.41-.41 1.67-.11 3.34-.24 5-.37 2.07-.17 4.14-.26 6.2-.44 1.89-.17 3.78-.22 5.67-.4 1.55-.14 3.1-.25 4.65-.35 2-.12 4.07-.22 6.1-.33.11.21 0 .23-.18.24s-.33 0-.43.14c-2.8.19-5.61.33-8.42.5-2.31.13-4.61.41-6.92.53-3.45.19-6.89.47-10.33.74-3.28.26-6.56.56-9.84.86-3 .27-5.94.41-8.91.63-1.31.1-2.62.27-3.94.33a.16.16 0 0 1 .02-.24z" fill="#8f8f8f"/><path d="m110.92 60.41c.07-.35.43-.22.61-.38 3.47-.16 6.94-.29 10.41-.48 1.65-.1 3.3-.35 5-.49a50.42 50.42 0 0 1 6.27-.26c1.45.06 2.91 0 4.37 0a60.27 60.27 0 0 1 7.95-.07c.29 0 .8-.05.77.32s-.53.21-.84.18a48.34 48.34 0 0 0 -7.12-.05c-2.07.08-4.15.11-6.22.05a51.23 51.23 0 0 0 -7.11.44c-2.06.24-4.13.37-6.2.43-2.28.06-4.55.22-6.82.33-.39-.01-.73-.02-1.07-.02z" fill="#878787"/><path d="m54.51 66.15a10.3 10.3 0 0 1 3-.23 6.74 6.74 0 0 0 1.19-.08 1.41 1.41 0 0 1 1.09.18c.46.31 1 .07 1.47.06a90.42 90.42 0 0 0 11-1.27 10.57 10.57 0 0 1 1.13 0c.16 0 .37 0 .39.19s-.2.22-.35.23c-.69.08-1.39.12-2.08.24-1.9.31-3.82.59-5.73.88a41.22 41.22 0 0 1 -4.72.25 32.58 32.58 0 0 0 -3.56.4 5.86 5.86 0 0 1 -2.43 0c0-.22.2-.21.35-.19a3.3 3.3 0 0 0 1.64-.32c.25-.07 2.18-.16 2.44-.16-.27-.39-3.14-.23-4.08-.08-.06-.11-.3.12-.43.15s-.33-.04-.32-.25z" fill="#787878"/><path d="m62.57 63.75v.25c-.53.07-1.06.19-1.6.22-2.07.1-4.11.47-6.17.68-1.73.18-3.46.3-5.19.41-2.67.16-5.33.38-8 .63a3 3 0 0 0 -.41.09c-.49 0-1 .17-1.48.11.56-.51 1.31-.46 2-.69 4.12-.29 8.24-.55 12.36-.88 2.77-.23 5.52-.56 8.28-.85a1 1 0 0 1 .21.03z" fill="#8c8c8c"/><path d="m81.88 59.93c-.33.19-.79 0-1.07.34l-5.81.37a14.54 14.54 0 0 0 -2.38.23c-3.08.09-6.16.18-9.24.45h-.71c.22-.13.54-.09.71-.35a33.34 33.34 0 0 1 3.46-.25c1.9-.15 3.81-.23 5.72-.33l5.9-.32z" fill="#9d9d9d"/><path d="m57 66.64c-.65.53-1.43.29-2.16.36l-2.62.25c-.83.11-1.66 0-2.5 0a1.28 1.28 0 0 0 -.64.06h-1.4c-.11-.12-.49 0-.38-.23a.57.57 0 0 1 .76-.24c.32.18.49 0 .7-.13 1.68-.23 3.36-.36 5-.5.24 0 .48-.07.71-.1h1.2l-.59.24c.42.32.89.15 1.35.13.24.03.47-.11.57.16z" fill="#6d6d6d"/><path d="m48.76 66.75c-.14.35-.4.34-.72.28s-.43 0-.36.32h-.48c-1.35.15-2.7 0-4.05 0s-2.49.33-3.74.4c-1 .06-1.89-.27-2.86-.24a.31.31 0 0 1 -.33-.35c0-.25.22-.32.44-.26a3.78 3.78 0 0 0 .94.16 5.63 5.63 0 0 0 2.31.18 30.09 30.09 0 0 1 5.53-.24c1.12.08 2.21-.29 3.32-.25z" fill="#848484"/><path d="m183.89 57.25c.47 0 1-.06 1.42-.1a14.45 14.45 0 0 1 2.08 0c.32 0 .24 0 0 .18a19.5 19.5 0 0 1 -2.52.23c0 .23.15.57-.15.56a4.22 4.22 0 0 0 -1.28 0l-5.88.13a12.84 12.84 0 0 1 -1.89.06c.31-.52.76-.1 1.05-.31a2.83 2.83 0 0 0 1-.1 14.08 14.08 0 0 0 1.94-.24c.03-.16 2.91-.25 4.23-.41z" fill="#7c7c7c"/><path d="m176.69 58-.62.17v.08h1.47a17.86 17.86 0 0 1 -3.27.12c-2.17.09-4.33.15-6.5.22a1.16 1.16 0 0 1 -.82-.16c.6-.3 1.19-.11 1.7-.29a22.08 22.08 0 0 0 3.45-.05c1.52-.03 3.05-.17 4.59-.09z" fill="#959595"/><path d="m125.57 61.59c.13-.05.26-.1.08-.25a14.77 14.77 0 0 1 2.66-.11h1c.06 0 .18 0 .14.1s-.11.09-.18.14a30.43 30.43 0 0 1 -3.7.12z" fill="#7e7e7e"/><path d="m49.12 67.36a15 15 0 0 1 3.14-.11 20.56 20.56 0 0 1 -3.14.11z" fill="#848484"/><path d="m165.05 58.57v-.08l.23-.15 2.06-.06c1.33.43-.18.32-2.29.29z" fill="#959595"/><path d="m214.4 58.13.83-.07c.17 0 .33 0 .37.2s-.14.3-.32.33a4.18 4.18 0 0 1 -.71.09 14.45 14.45 0 0 1 -2.46-.07c-.13 0-.28 0-.42-.15.57-.23 1.18 0 1.72-.21.29-.32.68.08.99-.12z" fill="#6a6a6a"/><path d="m80.08 52c-1.29-.05-2.58 0-3.88 0-2.07-.05-4.14 0-6.21 0-.71 0-1.43.07-2.15.11a16.92 16.92 0 0 0 -2.92.24c-2.17.2-4.34.12-6.51.11a56.06 56.06 0 0 0 -7.22.57 35.55 35.55 0 0 1 -8.11.4c-.11 0-.24 0-.37-.16h2.81c1.94-.09 3.87-.25 5.79-.51a50.48 50.48 0 0 1 9.19-.62 16.4 16.4 0 0 0 3.35-.14 22.9 22.9 0 0 1 2.62-.17c1.87 0 3.75-.15 5.63-.17 3.51 0 7 .11 10.53 0 2-.09 4.07 0 6.1-.07 1.32 0 2.63-.18 4-.2 1.67 0 3.33-.2 5-.19s3.11-.13 4.66-.22 3.31-.18 5-.22c1.48 0 3-.2 4.43-.19 1.14 0 2.25-.22 3.39-.26a8.17 8.17 0 0 1 2.61-.21 15.18 15.18 0 0 1 2.22-.29c.37 0 8-.53 8.13-.29s.23.29 0 .4a62.6 62.6 0 0 1 -6.89.45 12.53 12.53 0 0 0 -1.61.25c-.34 0-.67-.05-1 0a19.7 19.7 0 0 1 -3.6.16h-.11a14.44 14.44 0 0 0 -3.22.16c-1.31.18-2.62.1-3.93.17-3.94.21-7.88.29-11.82.5-4.42.24-8.84.47-13.27.42a18.25 18.25 0 0 0 -2.56.07z" fill="#8b8b8b"/><path d="m62 49.25a2.52 2.52 0 0 0 .86-.12c0-.06.06-.06.1 0 1.72 0 3.42-.25 5.13-.31s3.14-.2 4.72-.3l2.27-.12a.33.33 0 0 1 .24 0c1.15 0 2.31-.06 3.46-.13 2.11-.14 4.23-.15 6.34-.25 2.4-.11 4.79-.13 7.19-.08 2.18 0 4.34-.18 6.52-.26.22-.36 7.44-.77 7.52-.78 2.47-.34 5-.31 7.45-.5 2.22-.17 11-.23 11.1 0a.5.5 0 0 1 0 .34s-4.59.16-4.71.1a20.13 20.13 0 0 0 -2.8 0c-2.43.11-4.86.23-7.29.39-1.88.13-3.75.23-5.62.36-3.68.24-7.36.6-11 .69-2.61.06-5.24-.07-7.85 0-3.21.08-6.42.18-9.63.46-1.62.13-3.27.1-4.9.22-2.85.21-5.7.39-8.54.63s-5.62.73-8.43 1.16a28.21 28.21 0 0 1 -4.77.26.45.45 0 0 1 -.36-.17 13.5 13.5 0 0 1 1.66-.16 38.44 38.44 0 0 0 7.48-.92c1.21-.19 2.52-.33 3.86-.51z" fill="#919191"/><path d="m71.46 45.54a15.21 15.21 0 0 0 3.41-.54 15.33 15.33 0 0 1 2.92-.62 8.28 8.28 0 0 0 1-.25c1.47-.42 3-.8 4.43-1.2.12.27.6-.1.61.35-.79.22-1.55.57-2.34.71-1.57.29-3.07.81-4.65 1.06-.76.13-1.52.34-2.28.5-2.26.49-4.5 1.12-6.79 1.41-1.78.23-3.51.72-5.29.94a66.49 66.49 0 0 0 -6.74.9 1.39 1.39 0 0 0 -.88 0c-3 .53-6.07.87-9.13 1.15-1.79.16-3.55.48-5.33.71-.75.1-1.51 0-2.27.08-.53.07-1 .42-1.56.34 0-.57.53-.55.9-.65s.87 0 1.25-.27a19.41 19.41 0 0 0 3.89-.2 27.73 27.73 0 0 1 3.47-.53c2.17-.14 4.29-.64 6.47-.68a3.62 3.62 0 0 0 1.29-.26 4.2 4.2 0 0 1 2.43-.49 3 3 0 0 0 .62-.13l.21-.06c1.9-.31 3.82-.39 5.72-.76 2.17-.43 4.33-.92 6.51-1.25a8.91 8.91 0 0 1 2.13-.26z" fill="#808080"/><path d="m81.76 53.93a16.4 16.4 0 0 0 3 .17c1 .06 2 0 3 0 .65 0 1.3-.13 2-.21a1.15 1.15 0 0 1 .71.06c0 .21 1.45.19 1.32.23a56.65 56.65 0 0 1 -7.37.63 39 39 0 0 0 -5.62 0 28.62 28.62 0 0 1 -5.63.06 26.84 26.84 0 0 0 -4.39-.11c-.41 0-3.32.7-3.69.59s-3.76.23-5.18.23c-.94 0-1.86.29-2.81.21-.23 0-.48.09-.5-.27v-.24a17.72 17.72 0 0 1 2.58-.28c2.25-.23 4.5-.41 6.74-.61 1.4 0 2.78-.29 4.18-.25 1.63 0 3.26.06 4.89.08a4.75 4.75 0 0 0 .53 0s1.3 0 2 0c1.43 0 2.86-.15 4.29-.23z" fill="#898989"/><path d="m146.8 54.51c-2.86 0-5.7.29-8.54.38a1.88 1.88 0 0 0 -.47.1c-1.18 0-2.36 0-3.53.09-1.5.07-3 .18-4.49.26-2.47.14-4.94.24-7.41.45a91.07 91.07 0 0 1 -10.7.54c-2.15-.06-4.3 0-6.44 0-2.82.07-5.63.23-8.44.41-2.17.15-4.35.2-6.52.31-3.07.16-6.15.05-9.23.14-2.25.06-4.5.23-6.75.35-.26 0-.52 0-.78 0a2.89 2.89 0 0 1 -.88 0c-.15 0-.36.08-.38-.17a.36.36 0 0 1 .31-.38 2.59 2.59 0 0 1 .45.01c1.61-.07 3.22-.24 4.84-.32h.95c3.14-.13 6.28-.14 9.41-.17a50.16 50.16 0 0 0 5.2-.26c1.15-.12 2.31-.12 3.47-.18 2.09-.12 4.19-.23 6.28-.31 2.37-.1 4.74-.14 7.12-.07 2.86.08 5.71-.12 8.56-.31s5.53-.54 8.31-.54a7.1 7.1 0 0 0 1.13-.12c1.68-.28 3.38-.09 5.07-.21 3.11-.23 6.23-.26 9.34-.46 2.17-.13 4.34-.26 6.52-.3s4.23-.13 6.35-.11a15.16 15.16 0 0 1 1.9-.13c.62.15 3 .06 3.55.26a.23.23 0 0 1 -.07.3c-1.22.06-2.44.14-3.67.17-2.21.06-4.42 0-6.61.19a7.5 7.5 0 0 1 -1.34 0 7.31 7.31 0 0 0 -2.55.1z" fill="#8e8e8e"/><path d="m40.26 59.56c2.29-.13 4.57-.35 6.84-.63.35 0 .71-.06 1.06-.09.2-.22 4.77-.35 5.08-.51s2.06 0 2.6-.2a3 3 0 0 1 1.24-.13h1.25c.56.22 1.12-.17 1.68 0a2.32 2.32 0 0 1 .59 0c.3.09.26.24 0 .4-2.78.21-5.56.53-8.34.58-3.55.06-7.07.51-10.61.79a12.54 12.54 0 0 1 -1.37 0c-.19.06-.13-.08-.02-.21z" fill="#888"/><path d="m60.65 58.48c-.15-.38-.49-.18-.74-.26 0-.18.07-.26.22-.27.76 0 1.49-.21 2.24-.25a41.14 41.14 0 0 0 4.15-.3h1.12c1.58-.19 3.16-.35 4.75-.4.26 0 .62-.14.74.29l-.51.15v.09h.89c-1.5.18-3 .31-4.52.34-1.8 0-3.57.35-5.37.4-1 .03-1.98.14-2.97.21z" fill="#979797"/><path d="m52.34 35.43a20.57 20.57 0 0 0 -1.82 2.73c-1.27 2-2.56 4-3.92 6a28.64 28.64 0 0 1 -3 3.94 2 2 0 0 0 -.33.63.75.75 0 0 1 -.52.46c-.14 0-.29 0-.38-.09a.29.29 0 0 1 0-.34 8.56 8.56 0 0 1 .7-.89 19.46 19.46 0 0 0 3.07-4.09c.31-.56.75-1 1.1-1.57 1.43-2.16 2.87-4.31 4.21-6.53a13.61 13.61 0 0 1 1-1.27c.17-.09.36-.16.48 0s0 .33-.1.51-.33.32-.49.51z" fill="#6f6f6f"/><path d="m58.61 34.38c.17-.13.35-.37.57-.18s0 .4-.09.59a7 7 0 0 1 -1.22 1.69c-.42.49-.71 1.05-1.1 1.55-2 2.53-3.87 5.12-5.62 7.81a1.34 1.34 0 0 0 -.13.27c-.5.75-1.18 1.34-1.73 2-.07.09-.17.21-.29.09s0-.22.07-.32c.78-1.16 1.59-2.3 2.35-3.47 1.18-1.8 2.48-3.52 3.78-5.24.72-1 1.39-2 2.13-2.89.47-.57.77-1.28 1.28-1.9z" fill="#747474"/><path d="m46.74 48.64c-.27 0-.19-.15-.15-.29a4.62 4.62 0 0 1 1.06-1.85 11.3 11.3 0 0 0 1-1.42c1-1.62 2.13-3.14 3.2-4.7s2.15-3.38 3.24-5.1a1.18 1.18 0 0 1 .22-.27c.11-.09.25-.17.38-.07s.05.25 0 .38a16.38 16.38 0 0 1 -1.56 2.68c-1.11 1.68-2.3 3.31-3.46 5-.85 1.2-1.58 2.49-2.49 3.66a10.68 10.68 0 0 0 -1.18 1.75c-.07.1-.19.16-.26.23z" fill="#747474"/><path d="m47.67 37.47c-1.4 2-2.86 3.94-4.11 6a5.29 5.29 0 0 1 -1.35 1.81 1.55 1.55 0 0 1 .29-.81c1.17-2.27 2.74-4.29 4.07-6.46.54-.88 1.25-1.66 1.72-2.59a2.75 2.75 0 0 0 .24-.62.76.76 0 0 1 .54-.6.62.62 0 0 1 .63.09c.18.2-.05.35-.12.52a7.27 7.27 0 0 1 -1.44 2c-.14.25-.14.59-.47.66z" fill="#7f7f7f"/><path d="m53.57 46.25a19.35 19.35 0 0 0 1.83-2.41c0-.21.08-.37.33-.34s.34.24.22.5a8.79 8.79 0 0 1 -1.14 1.67c-.23.3-.43.62-.65.93s-.68.72-1 1.06c-.13.13-.28.39-.49.23s0-.39.11-.55a3.64 3.64 0 0 0 .79-1.09z" fill="#707070"/><path d="m41.55 43c.07.25-.1.37-.19.52a43.62 43.62 0 0 1 -2.69 3.95l-.27.32c-.07.07-.16.14-.26.06s0-.19 0-.27c.27-.42.52-.86.81-1.26.56-.8 1.08-1.63 1.58-2.47a1.68 1.68 0 0 1 1.02-.85z" fill="#808080"/><path d="m39.4 43.16a4.17 4.17 0 0 1 -.85 1.63c-.33.54-.74 1-1.12 1.55-.08.11-.18.23-.34.18a.2.2 0 0 1 -.12-.29 8.2 8.2 0 0 1 2.43-3.07z" fill="#727272"/><path d="m40.12 48.57c-.09.22-.09.54-.41.63s-.26-.08-.25-.24a.6.6 0 0 1 .49-.58c.14-.04.17.05.17.19z" fill="#5e5e5e"/><path d="m58.72 33.05a29.52 29.52 0 0 0 5.64 0c.08.16.47.16.25.48a16.89 16.89 0 0 0 -3.1.1c-1.11 0-2.23-.18-3.35-.19-2 0-3.95 0-5.92 0-1.66 0-3.32.16-5 .31a13.3 13.3 0 0 1 -2.09 0 15.29 15.29 0 0 0 -2.44.13 1.08 1.08 0 0 1 -.8-.18c-.35-.19-.72 0-1.07 0s-.41-.06-.48-.3a9 9 0 0 1 1.87 0 1.65 1.65 0 0 0 .76.08 12.47 12.47 0 0 1 3.66 0 1.58 1.58 0 0 0 .47-.07c0-.06 2 0 3-.17 1.62-.25 3.22.06 4.83-.08a30.43 30.43 0 0 1 3.77-.11z" fill="#868686"/><path d="m58.64 29.42c-.4-.07-.83-.1-.85-.54s.42-.47.71-.48.59.37.66.65-.36.25-.52.37z" fill="#424242"/><path d="m41.84 30.65.09-.12c.38-.16.75-.35 1.15-.05.15.11.27.2.12.37s-1.13.15-1.36-.2z" fill="#4e4e4e"/><path d="m46.86 29.46h.14c.25.07.69.05.6.4s-.54.39-.88.34-.36-.25-.15-.49a2.85 2.85 0 0 1 .32-.27z" fill="#515151"/><path d="m41.82 33.05a6.72 6.72 0 0 1 -1.1 0 1.33 1.33 0 0 1 1.37-.5c.08 0 .15.08.12.17s-.21.28-.39.33z" fill="#636363"/><path d="m38 30.75a.73.73 0 0 1 .61.12c.09.2.33.4 0 .6s-.55 0-.76-.15 0-.38.14-.57z" fill="#4b4b4b"/><path d="m53.79 31.61c.21.37-.11.38-.31.44s-.53.19-.78 0a.22.22 0 0 1 0-.21 1 1 0 0 1 .71-.36c.13 0 .25.1.38.15z" fill="#5b5b5b"/><path d="m46.7 31.31c-.23 0-.43-.11-.43-.33s.33-.37.57-.41.37.14.36.37-.27.35-.5.37z" fill="#474747"/><path d="m45.05 31.86h.19c.25.16.34.35.07.57a.56.56 0 0 1 -.71.1c-.16-.12-.18-.27 0-.4a3.47 3.47 0 0 1 .45-.27z" fill="#5a5a5a"/><path d="m63.88 29.08c-.12.49-.55.45-.91.51s-.27-.17-.27-.36a1.25 1.25 0 0 1 1.18-.15z" fill="#626262"/><path d="m38.2 29.39c-.18 0-.42 0-.38-.26s.29-.31.51-.33.44.09.4.33-.33.22-.53.26z" fill="#666"/><path d="m41.59 31.18c0 .31-.25.45-.56.47-.14 0-.39.05-.34-.18s.39-.41.68-.49c.13-.04.23.02.22.2z" fill="#5b5b5b"/><path d="m56.19 30.78v.08c-.33.3-.77.26-1.17.35-.02-.59.38-.73 1.17-.43z" fill="#6d6d6d"/><path d="m50.6 31.25a1.72 1.72 0 0 1 .9-.12 1 1 0 0 1 -.8.68.43.43 0 0 1 -.1-.56z" fill="#5b5b5b"/><path d="m34.83 30.91c.16 0 .24.09.23.23a.49.49 0 0 1 -.5.49c-.16 0-.33-.06-.26-.22a.85.85 0 0 1 .53-.5z" fill="#5a5a5a"/><path d="m57.76 31.46a.8.8 0 0 1 -.59.42.17.17 0 0 1 -.23-.18c0-.3.25-.42.52-.47s.26.05.3.23z" fill="#6e6e6e"/><path d="m51.23 28.89a.28.28 0 0 1 .29.31.33.33 0 0 1 -.38.35c-.16 0-.4-.06-.37-.28s.23-.34.46-.38z" fill="#626262"/><path d="m53.21 29.91c.21-.41.47-.66.95-.35-.16.58-.53.53-.95.35z" fill="#474747"/><path d="m40.38 33.3a9.23 9.23 0 0 0 1.57.12c.09 0 .23 0 .19.15s-.14 0-.21.06c-.27-.11-.52.06-.77.1s0 .45-.18.63a19.09 19.09 0 0 1 -1 1.91l-1.41 1.93c-.24-.24-.24-.24 0-.84.43-.68.85-1.37 1.29-2a3.07 3.07 0 0 0 .27-.77c.17-.51 0-.71-.48-.8.06-.49.48-.34.73-.49z" fill="#6b6b6b"/><path d="m36.67 36.65c.24-.43.47-.88.73-1.3s.46-.77 1-.61a12.71 12.71 0 0 1 -1.71 2.91c-.1.17-.33.37-.55.2s0-.36.1-.53.26-.44.4-.66z" fill="#616161"/><path d="m38.57 37.36c0 .28-.15.56 0 .84-.42.65-.84 1.31-1.27 1.95-.08.12-.21.32-.38.22s-.06-.33 0-.47a5.9 5.9 0 0 1 1.2-1.7c.29-.2.19-.61.45-.84z" fill="#818181"/><path d="m131.21 40.11c2.57 0 5.14 0 7.72.08s5.11.06 7.66.07c4.48 0 8.95-.16 13.41-.3 1.33-.05 2.66-.3 4-.37 1.62-.08 3.23-.23 4.84-.29 1.3 0 2.59-.2 3.89-.15 2.16 0 4.31-.24 6.45-.39 1.57-.11 3.15-.15 4.72-.23.84-.05 1.67-.14 2.51-.2a2.75 2.75 0 0 0 1.21 0c0-.07.07-.07.12 0 3.72.14 7.44-.17 11.16-.11.21.18.47.08.7.11s.43-.08.6.12c.08.36-.18.39-.42.41-.46 0-.92 0-1.38 0-1.72.09-3.43.15-5.15.22s-3.71.08-5.57 0a43.73 43.73 0 0 0 -5 .19c-1.22.08-2.44.07-3.65.17-2.09.17-4.18.38-6.27.42-.86 0-1.71 0-2.57 0-1.77.18-3.55.1-5.32.27s-3.67.23-5.49.45a2.17 2.17 0 0 1 -.36 0c-2.46-.06-4.91.16-7.36.14-1.7 0-3.39.11-5.09.09-3.33 0-6.67-.12-10-.15a4.06 4.06 0 0 0 -1.43-.07 14.23 14.23 0 0 1 -3-.08c-.37-.1-.77.19-1.11-.11-.09-.12.04-.2.18-.29z" fill="#8f8f8f"/><path d="m204 29.31c-2 .23-4 .26-6 .3-1.13 0-2.28 0-3.41-.07a21.9 21.9 0 0 0 -5.6.26 35.61 35.61 0 0 1 -6 .49 27.23 27.23 0 0 0 -3.92.47 28.11 28.11 0 0 1 -8.39.29 33.3 33.3 0 0 0 -7.53.2c-1.82.18-3.65.33-5.49.33a19.26 19.26 0 0 0 -2.62.14c-.07-.11-.28-.06-.26-.26a43.77 43.77 0 0 1 5.11-.39c1.41-.12 2.82-.27 4.23-.35a46 46 0 0 1 5.25-.28c1.29.06 2.58.29 3.87.37a16.18 16.18 0 0 0 3.86-.25 50.58 50.58 0 0 1 6.9-.76c1.79-.05 3.58-.22 5.36-.44a33.25 33.25 0 0 1 5.73-.28c1.15.06 2.32 0 3.46.05 1.95.17 3.85-.23 5.78-.24a3 3 0 0 1 1.29.19c-.14.26-.37.15-.59.14a1.89 1.89 0 0 0 -1.03.09z" fill="#828282"/><path d="m160.73 34.72c-2.93 0-5.86.12-8.79.1-3.11 0-6.22 0-9.33.06-1.58 0-3.14.27-4.71.36-2.41.13-4.82.38-7.24.36-2.23 0-4.46.15-6.69.13-2 0-4 .13-5.91.28a8.49 8.49 0 0 0 -1.93.28 1.32 1.32 0 0 1 1.12-.6c1.77-.15 3.54-.34 5.32-.36a13.63 13.63 0 0 0 2.39 0c.16-.22 6.63-.11 9.7-.18.53 0 1.06-.11 1.6-.17 1.42 0 2.82-.21 4.24-.28 2.1-.11 4.21-.27 6.32-.25a3.81 3.81 0 0 0 .59-.08 2.16 2.16 0 0 0 .94.12h4c2.52 0 5.05.1 7.56-.11.23-.21 6.44-.19 8.27-.2h6.21a1.89 1.89 0 0 1 .4.08c.07.08.23.1.13.26a21.44 21.44 0 0 1 -3.4 0c-1.34-.09-2.67 0-4 0-1.52 0-3 .06-4.55.1z" fill="#8e8e8e"/><path d="m154.82 31.46c.14 0 .26.08.26.26a6.55 6.55 0 0 1 -2.07.17c-2.82 0-5.62.24-8.44 0-.86-.07-1.73.16-2.62.1a34 34 0 0 0 -4.16-.11c-1 .06-2.1.25-3.15.27-1.56 0-3.07.47-4.64.39a26.47 26.47 0 0 0 -4.7.48 17.23 17.23 0 0 1 -4.06 0 23.3 23.3 0 0 0 -2.51-.11 9.68 9.68 0 0 0 -1.7-.07c-.22 0-.56.11-.56-.23s.34-.2.55-.24.11 0 .17 0a31.12 31.12 0 0 1 4.83.18 14.54 14.54 0 0 0 4.22-.19 24 24 0 0 1 3.15-.32c1.93 0 3.81-.42 5.72-.51a43.81 43.81 0 0 1 6.68 0c.85.09 1.72 0 2.57 0 2.39.05 4.78 0 7.17 0 1.1-.02 2.19-.15 3.29-.07z" fill="#7b7b7b"/><path d="m170.79 37c-1.58 0-3.15-.14-4.72-.13-2 0-4-.08-5.93-.11-1.54 0-3.08 0-4.61 0a1.1 1.1 0 0 1 -.82-.22c2.06-.26 4 0 5.88-.11a1.93 1.93 0 0 0 .89.1h5a.32.32 0 0 1 .35 0c1.86 0 3.71.15 5.57.1 1.34 0 2.67.05 4 .05s2.52 0 3.77 0h5.27a2.14 2.14 0 0 0 .83-.11 26 26 0 0 0 5.28-.36 14.41 14.41 0 0 0 3.21-.16c1 0 2-.26 3-.2.11.06.23.1.1.25a35.46 35.46 0 0 1 -5 .54c-.38 0-8.26.42-9.64.42-3.65 0-7.31 0-11 0-.45-.06-.94-.29-1.43-.06z" fill="#959595"/><path d="m170.21 25.61c-.1-.31-.32-.35-.61-.33l-2.66.07a8.87 8.87 0 0 1 2.24-.22c1.73-.05 3.46.05 5.19-.08a1.07 1.07 0 0 1 .29.06c-.23.33-.57.21-.88.25.3 0 .65.08.87-.25h6.29a31 31 0 0 0 4.31.08 59.78 59.78 0 0 1 8.25 0c2.11 0 4.19-.29 6.28-.19 1.43.07 2.86.23 4.29.35-.21.34-.64-.07-.85.27a20.84 20.84 0 0 1 -2.85-.13 16.7 16.7 0 0 0 -2.45 0 15.42 15.42 0 0 1 -3.72.12c-.28.08-2.33 0-2.75 0-1.32.09-2.62-.15-3.94-.07-1.77.1-3.55.08-5.32.05-2.19-.05-4.38-.17-6.57-.06-1.26.06-2.51.05-3.77.06a1.76 1.76 0 0 1 -.82-.11c.21-.21.48-.06.7-.15-.22.09-.5-.06-.7.15z" fill="#818181"/><path d="m117.19 32.43c-.17 0-.37 0-.5.23.66.28 1.39 0 2 .26-1.53.15-3-.26-4.54-.19s-3.27.22-4.9.21a31.89 31.89 0 0 0 -3.24.42 2.81 2.81 0 0 0 -.9.3c-.93.38-1.87 0-2.8 0-1.14 0-2.27.07-3.4.13a13.73 13.73 0 0 1 -3.33-.11c-.57-.11-1.16.07-1.73-.06a.15.15 0 0 1 0-.25h5.49c1.55 0 3.1-.07 4.65 0 .44 0 .73-.28 1.13-.34a38.41 38.41 0 0 1 5.46-.55c1.93 0 3.86-.21 5.8-.13a2.52 2.52 0 0 1 .81.08z" fill="#7d7d7d"/><path d="m93.89 33.39v.25a15.38 15.38 0 0 1 -1.92 0c-.48.07-.89-.24-1.35-.23-1.73.06-3.45.15-5.17.16s-3.52.67-5.32.73a10.4 10.4 0 0 1 -2-.14 18.81 18.81 0 0 0 -2.49 0 5.29 5.29 0 0 1 -2.26-.39.63.63 0 0 0 -.36-.19c-.14 0-.32 0-.28-.21s.22-.19.38-.13a1 1 0 0 1 .25.16 6.82 6.82 0 0 0 2.77.26c.95 0 1.9.05 2.86.15a6.84 6.84 0 0 0 2.67-.15 27.93 27.93 0 0 1 6.15-.66 23.76 23.76 0 0 1 6.07.39z" fill="#797979"/><path d="m174.89 34.49-.13-.26c.16 0 1-.3 1.2-.11 1.78 0 3.55 0 5.32-.08a34.16 34.16 0 0 1 4.17-.11 3.81 3.81 0 0 0 .59 0l4.61-.12h1.14c.3.41-.11.41-.29.41-.71 0-1.43 0-2.15 0-2.29 0-4.58.15-6.87.25-1.81.08-3.63.06-5.44.06a8.15 8.15 0 0 1 -2.15-.04z" fill="#919191"/><path d="m203.22 25.61c-.19-.1-.22-.2 0-.23a7.56 7.56 0 0 1 .83 0 17.48 17.48 0 0 1 4.15.24 7.28 7.28 0 0 0 2 0c.53-.1.71.16.46.61-.08.15-5.19-.59-7.44-.62z" fill="#7b7b7b"/><path d="m73.35 33.4-.46-.07.47.44a5.3 5.3 0 0 0 -3.36-.25 15.2 15.2 0 0 0 -3.63 0 2 2 0 0 1 -1.06-.12c-.32-.25-.34-.49 0-.71.13.34.35.42.73.42a16.3 16.3 0 0 1 3.35 0 1.16 1.16 0 0 0 .71-.07l1.93-.1a1.43 1.43 0 0 1 1.32.46z" fill="#8a8a8a"/><path d="m199.36 33.52c1.67-.25 3.33-.58 5-.71a2.32 2.32 0 0 1 .53 0c.12 0 .25.08.23.22s-.14.19-.26.19c-1.94 0-3.82.55-5.75.61-.43-.42.23-.15.25-.31z" fill="#797979"/><path d="m197.91 36.05-.1-.25c1.12-.16 2.24-.37 3.37-.45a7.6 7.6 0 0 1 1.77-.23c.15 0 .35 0 .37.22s-.18.29-.36.31l-4.87.44a.39.39 0 0 1 -.18-.04z" fill="#6e6e6e"/><path d="m199.36 33.52c-.12.09-.25.17-.24.36a32.41 32.41 0 0 1 -6.68.09 6.1 6.1 0 0 1 2.21-.22c.79 0 1.59 0 2.39-.07s1.55-.11 2.32-.16z" fill="#8f8f8f"/><path d="m204 29.31c-.07-.29.16-.22.28-.22h1.28a35.74 35.74 0 0 0 3.73-.11c.06.17.29.25.25.48a8.15 8.15 0 0 1 -2.65.12z" fill="#717171"/><path d="m188.44 27.92h-.49c-.18 0-.38 0-.46-.19s.13-.3.22-.45.26-.13.44-.05c.55.24 1.15-.07 1.7.16.14.06.37 0 .38.2s-.21.19-.35.27c-.47.21-.98-.01-1.44.06z" fill="#404040"/><path d="m194.94 26.32c.28.11.65.25.62.54s-.46.23-.72.25c-.7.06-1.33.56-2.07.29-.09-.71 0-.8.65-.75a4.24 4.24 0 0 0 1.52-.33z" fill="#4d4d4d"/><path d="m202.73 37.48v.35a3.52 3.52 0 0 1 -1.79.88c-.3 0-.65.11-.83-.27-.41-.06-.87.13-1.21-.24a9.21 9.21 0 0 0 3-.59 2.87 2.87 0 0 1 .83-.13z" fill="#858585"/><path d="m162.9 30.05c-.42.05-.31-.48-.39-.76s.33-.48.51-.41.82.38.85.63-.43.49-.97.54z" fill="#4f4f4f"/><path d="m205.07 27.76c-.2-.07-.59.09-.59-.29s.31-.33.56-.3.54-.2.79-.35.26-.15.38 0a.3.3 0 0 1 0 .43 1.31 1.31 0 0 1 -1.14.51z" fill="#5c5c5c"/><path d="m177 28.2c-.16-.05-.36.07-.55.24a.22.22 0 0 1 -.32 0c-.12-.12-.09-.23 0-.36a1.79 1.79 0 0 1 1.92-.4c.19.14.06.24 0 .32a1.11 1.11 0 0 1 -1.05.2z" fill="#686868"/><path d="m89.54 30.88c.09 0 .41-.18.43.15s-.3.29-.5.31a7 7 0 0 0 -1.11.42c-.14 0-.29.07-.37-.08s0-.24.14-.34a1.77 1.77 0 0 1 1.41-.46z" fill="#535353"/><path d="m201.83 26.9c.31.05.61.14.58.53s-.2.54-.53.51a.71.71 0 0 1 -.72-.59c-.01-.35.39-.35.67-.45z" fill="#404040"/><path d="m209.58 29.45c-.31 0-.6-.1-.25-.48h.46c.52-.36.88-.1 1.23.25.12.13.25.27 0 .32a1 1 0 0 1 -.59 0 2 2 0 0 0 -.85-.09z" fill="#3c3c3c"/><path d="m151.92 29.87c-.24 0-.42-.05-.51-.24s0-.34.16-.46a2.06 2.06 0 0 1 .37-.29c.19-.1.44-.25.61-.06s-.1.29-.17.44-.06.65-.46.61z" fill="#4a4a4a"/><path d="m105.62 31.42c-.21-.07-.52 0-.54-.27s.26-.36.48-.44.39.07.58.12.57-.15.58.19-.38.21-.59.29a2.33 2.33 0 0 1 -.51.11z" fill="#585858"/><path d="m184.1 27.36a1.36 1.36 0 0 1 -1.28.81c-.14 0-.29 0-.34-.17s.06-.29.21-.38c.44-.25.95-.05 1.41-.26z" fill="#5d5d5d"/><path d="m196 28.52c-.26 0-.48 0-.51-.23s.16-.25.31-.31c.33-.13.71 0 1-.19a.15.15 0 0 1 .23.11.25.25 0 0 1 -.15.29c-.29.13-.62.24-.88.33z" fill="#787878"/><path d="m70.13 30.91c.29.12.78-.05.81.35s-.48.34-.74.41a.5.5 0 0 1 -.58-.4c-.04-.27.29-.27.51-.36z" fill="#4c4c4c"/><path d="m99.35 31.21h.09c.28.12.81-.17.82.17s-.56.31-.87.45a.55.55 0 0 1 -.55-.14.17.17 0 0 1 0-.26.6.6 0 0 1 .51-.22z" fill="#6f6f6f"/><path d="m199.11 27.36c-.27-.08-.76.09-.85-.28 0-.22.4-.42.68-.42s.65.05.65.47-.24.25-.48.23z" fill="#414141"/><path d="m185.64 28.59c-.26 0-.6 0-.58-.24s.44-.48.77-.51.54.11.52.37c-.04.43-.5.25-.71.38z" fill="#585858"/><path d="m94.21 31.28c.23.16.75-.08.78.28s-.5.16-.75.3h-.06c-.19 0-.4.12-.57-.05a.26.26 0 0 1 0-.33c.11-.2.39-.21.6-.2z" fill="#6f6f6f"/><path d="m187.9 26.76c-.22 0-.37 0-.44-.17s0-.25.13-.35a.53.53 0 0 1 .13-.13c.29-.14.54-.41.91-.3.1 0 .19.16.11.24-.28.26-.59.5-.84.71z" fill="#494949"/><path d="m159.82 29.06c-.24 0-.54 0-.45-.24.17-.39.61-.46 1-.51.16 0 .4 0 .35.2-.13.49-.61.41-.9.55z" fill="#5c5c5c"/><path d="m179.36 29.11c-.14 0-.27 0-.32-.12s.06-.24.2-.3l.76-.34c.15-.07.31-.14.42 0s0 .34-.16.46a3.29 3.29 0 0 1 -.9.3z" fill="#535353"/><path d="m210.39 29.45c.22-.06.55.12.63-.28l.94.16c.26 0 .5.15.42.45s-.31.15-.5.09z" fill="#696969"/><path d="m132.06 28.5c.25.06.54.11.51.41s-.31.36-.56.29-.63.06-.63-.29.43-.32.68-.41z" fill="#454545"/><path d="m143 30c-.22-.11-.6-.1-.55-.48a.54.54 0 0 1 .6-.39c.34 0 .41.28.42.55s-.26.32-.47.32z" fill="#535353"/><path d="m140.51 28.5c-.35 0-.67-.09-.68-.47s.23-.38.47-.34.62.17.66.51-.29.25-.45.3z" fill="#4a4a4a"/><path d="m109.76 31.63a.31.31 0 0 1 -.35.39c-.3 0-.61-.12-.64-.42s.35-.34.57-.4.33.24.42.43z" fill="#535353"/><path d="m193.46 25.86c.11.21.6.19.46.5s-.5.08-.76.05-.42-.07-.63-.11c-.19-.29 0-.37.24-.46h.6z" fill="#525252"/><path d="m110.22 29.77c-.22-.1-.62 0-.59-.36s.4-.41.69-.43.34.28.35.47-.22.33-.45.32z" fill="#424242"/><path d="m131 30.31c.27 0 .48.2.47.42s-.32.37-.59.38-.48-.09-.48-.34.42-.33.6-.46z" fill="#4b4b4b"/><path d="m80.24 32.6c-.22 0-.42-.06-.36-.3s.38-.44.69-.49.33.12.31.32c-.04.4-.38.41-.64.47z" fill="#4e4e4e"/><path d="m83.91 31.48c.19 0 .44 0 .35.22s-.51.39-.84.44c-.16 0-.4 0-.35-.21.13-.41.54-.39.84-.45z" fill="#646464"/><path d="m147.54 28.3c-.24 0-.37 0-.42-.12s.09-.25.22-.31c.34-.16.75 0 1.08-.26.06 0 .16 0 .19.1a.18.18 0 0 1 -.11.24c-.35.14-.71.26-.96.35z" fill="#7b7b7b"/><path d="m121.83 30.18c.35-.22.69-.5 1.15-.24.08 0 .18.08.19.2s-.11.16-.2.2a2.32 2.32 0 0 1 -1.11.07c-.1-.07-.1-.14-.03-.23z" fill="#6b6b6b"/><path d="m94.07 30a1 1 0 0 1 -.81.5c-.18 0-.33-.13-.26-.31.14-.38.54-.34.85-.42.15-.09.22.01.22.23z" fill="#616161"/><path d="m138.51 29.9c-.26 0-.43-.08-.43-.29s.26-.4.49-.37.62.06.58.37-.49.11-.64.29z" fill="#595959"/><path d="m195.33 27.9c0 .29-.9.71-1.15.56-.1-.07-.15-.16-.06-.25a2.16 2.16 0 0 1 1-.51c.15-.03.22.08.21.2z" fill="#787878"/><path d="m105.82 30.38c-.22 0-.47 0-.45-.27s.28-.45.57-.48a.32.32 0 0 1 .39.34c0 .33-.27.38-.51.41z" fill="#505050"/><path d="m150.88 30.27a.28.28 0 0 1 -.22.24 3 3 0 0 1 -.57.16c-.18 0-.44.21-.52-.06s.21-.36.41-.42a3.36 3.36 0 0 1 .7-.09.16.16 0 0 1 .2.17z" fill="#646464"/><path d="m183.12 28.79a.77.77 0 0 1 -.67.46c-.2 0-.47 0-.47-.23 0-.39.38-.32.62-.37a.46.46 0 0 1 .52.14z" fill="#757575"/><path d="m170.85 28c.25.14.66 0 .66.4s-.32.26-.53.25-.6 0-.64-.28.33-.29.51-.37z" fill="#565656"/><path d="m166 28.85c-.21 0-.49 0-.47-.25s.39-.36.63-.39.5.12.46.35-.4.28-.62.29z" fill="#515151"/><path d="m123.93 31.31a.86.86 0 0 1 -1.08.31c-.18-.09-.14-.28 0-.41.34-.41.64 0 1.08.1z" fill="#686868"/><path d="m143.35 31c-.22 0-.52.06-.51-.27a.41.41 0 0 1 .48-.35c.25 0 .62.07.62.34s-.38.28-.59.28z" fill="#4f4f4f"/><path d="m97.6 29.8c0 .25-.07.46-.35.45s-.52-.07-.52-.37.36-.3.58-.38.27.13.29.3z" fill="#4e4e4e"/><path d="m150.68 28c-.23-.05-.54 0-.55-.26s.28-.36.52-.39a.45.45 0 0 1 .52.39c.01.32-.34.17-.49.26z" fill="#3f3f3f"/><path d="m181.52 26.83c0 .38-.33.36-.57.41s-.4 0-.38-.25.31-.46.57-.52.34.15.38.36z" fill="#414141"/><path d="m146.83 29.63c0 .29 0 .56-.33.58a.3.3 0 0 1 -.35-.31c0-.32.13-.62.46-.67s.16.27.22.4z" fill="#585858"/><path d="m179.49 26.34a1.94 1.94 0 0 1 -.89.64.23.23 0 0 1 -.16-.14c-.07-.36.24-.46.44-.62a.38.38 0 0 1 .54 0 .46.46 0 0 1 .07.12z" fill="#626262"/><path d="m115.65 29.58c-.2 0-.43 0-.41-.27s.42-.38.68-.47.31.11.3.28c0 .38-.33.38-.57.46z" fill="#3d3d3d"/><path d="m144.83 28.94c.14 0 .44-.06.39.11-.09.34-.44.41-.76.41s-.48 0-.42-.2c.09-.39.49-.26.79-.32z" fill="#747474"/><path d="m112.47 31a1.56 1.56 0 0 1 -1.19.39c-.1 0-.21 0-.23-.14s.08-.18.17-.22a1.78 1.78 0 0 1 1.25-.03z" fill="#737373"/><path d="m121.83 30.18v.23c-.16.49-.49.37-.81.22s-.21-.25 0-.38.5-.48.81-.07z" fill="#3f3f3f"/><path d="m210.15 26.41a.59.59 0 0 1 .48.37.77.77 0 0 1 -.35.29c-.28.09-.58.18-.7-.14s.21-.34.42-.42a.65.65 0 0 0 .15-.1z" fill="#414141"/><path d="m172.74 29.82a.19.19 0 0 1 -.2-.25c0-.19.82-.47 1-.34s.3.28 0 .39a5.35 5.35 0 0 1 -.8.2z" fill="#636363"/><path d="m133.16 29.73c-.21-.06-.54.07-.56-.22s.29-.35.52-.36.62.11.62.36-.38.15-.58.22z" fill="#4e4e4e"/><path d="m164.25 27.82c-.25 0-.53 0-.54-.28s.22-.38.44-.38a.42.42 0 0 1 .46.43c0 .26-.22.22-.36.23z" fill="#4c4c4c"/><path d="m104 31.45c-.15 0-.37 0-.36-.25s.34-.4.59-.48.3.08.3.26-.25.44-.53.47z" fill="#616161"/><path d="m173.36 26.37c0 .3-.25.38-.51.38s-.41 0-.37-.27a.69.69 0 0 1 .6-.48c.23 0 .25.2.28.37z" fill="#454545"/><path d="m117.24 30.84c-.2 0-.46 0-.47-.28s.21-.34.42-.31.55.06.56.33-.33.19-.51.26z" fill="#5e5e5e"/><path d="m154.74 29.15c-.23 0-.54 0-.54-.25s.37-.27.57-.29.57 0 .55.31-.39.14-.58.23z" fill="#505050"/><path d="m155.62 30.6c-.14 0-.31-.07-.23-.2a1.51 1.51 0 0 1 .82-.55c.11-.05.27.06.2.19a1.11 1.11 0 0 1 -.79.56z" fill="#6b6b6b"/><path d="m150.28 28.94a5 5 0 0 1 -.76.1c-.28 0-.54-.07-.32-.45a1.22 1.22 0 0 1 1.07 0c.3.03.24.22.01.35z" fill="#4d4d4d"/><path d="m173.8 28.33a.41.41 0 0 1 -.45.4c-.19 0-.45 0-.43-.28s.31-.34.53-.4.3.12.35.28z" fill="#585858"/><path d="m77.28 32.19c-.2-.06-.53 0-.57-.28s.21-.32.42-.3.52.09.56.35-.23.21-.41.23z" fill="#5a5a5a"/><path d="m128.26 30.39c-.18 0-.45 0-.44-.26s.24-.36.46-.36.44.07.44.3-.23.32-.46.32z" fill="#545454"/><path d="m99.56 30.56c0 .27-.18.34-.37.3s-.49 0-.51-.3.25-.34.46-.36.35.19.42.36z" fill="#505050"/><path d="m137.29 28.52c.2 0 .29.12.25.27-.1.35-.44.36-.71.45s-.26 0-.23-.17c.09-.37.4-.43.69-.55z" fill="#666"/><path d="m74.17 32.67c-.16 0-.41 0-.39-.23s.28-.3.49-.34.37.07.36.29-.26.25-.46.28z" fill="#5c5c5c"/><path d="m82.36 30.62c-.14.31-.44.35-.73.41-.11 0-.31 0-.27-.12.08-.32.42-.38.68-.49s.27 0 .32.2z" fill="#5c5c5c"/><path d="m87.36 30.27a.48.48 0 0 1 -.52.29c-.16 0-.34-.06-.3-.27s.29-.29.51-.29.31.05.31.27z" fill="#5f5f5f"/><path d="m128.07 29.42c-.16 0-.39 0-.36-.21s.39-.25.61-.31.32 0 .29.17-.32.31-.54.35z" fill="#666"/><path d="m135.53 30.47c-.17 0-.38 0-.34-.25a.42.42 0 0 1 .48-.35c.18 0 .37.16.34.35s-.3.22-.48.25z" fill="#595959"/><path d="m73.28 29.81c.19 0 .42.09.38.28s-.35.28-.58.3-.3 0-.27-.22a.44.44 0 0 1 .47-.36z" fill="#575757"/><path d="m161.8 27.71a.53.53 0 0 1 -.54.37c-.14 0-.31 0-.29-.22s.28-.36.5-.41.28.09.33.26z" fill="#5a5a5a"/><path d="m168.64 27.45c-.13 0-.28 0-.25-.13.08-.31.39-.36.64-.45s.33.05.27.21c-.1.31-.47.21-.66.37z" fill="#4e4e4e"/><path d="m91.31 31.72a.6.6 0 0 1 -.56.36c-.14 0-.31 0-.27-.21s.3-.36.54-.39a.25.25 0 0 1 .29.24z" fill="#525252"/><path d="m127 30c-.07.26-.29.32-.5.36s-.36-.07-.31-.25.38-.22.58-.31.23.08.23.2z" fill="#5f5f5f"/><path d="m102.63 30.83c0 .29-.23.28-.42.31s-.33.05-.34-.14.25-.33.46-.38a.23.23 0 0 1 .3.21z" fill="#565656"/><path d="m114.67 30.93c-.14 0-.32 0-.3-.12s.31-.32.54-.37.32 0 .3.19c-.03.37-.36.22-.54.3z" fill="#5c5c5c"/><path d="m156.55 28.77c-.13-.09-.43 0-.39-.24s.3-.22.49-.22.32.1.28.3-.23.17-.38.16z" fill="#515151"/><path d="m120.2 29.87c-.14 0-.35 0-.32-.14s.29-.3.51-.34.31 0 .3.2c-.01.33-.3.23-.49.28z" fill="#757575"/><path d="m77.49 30.8c-.12.24-.36.28-.59.33s-.23 0-.18-.15.36-.29.59-.35.19.03.18.17z" fill="#777"/><path d="m170.41 44.92a.58.58 0 0 1 .49-.18c3.63.06 7.24-.24 10.86-.49 3.77-.27 7.53-.63 11.3-.72 2.14-.05 4.28-.11 6.41-.22 1-.05 1.91-.08 2.87-.07.16 0 .42-.09.43.18s-.24.18-.39.18c-1.64.07-3.27.1-4.91.11a18.36 18.36 0 0 0 -3.39.24 39.78 39.78 0 0 0 -4.88.14c-2.21.13-4.42.29-6.62.46-1.81.14-3.62.26-5.44.36-1.49.07-3 .15-4.48.12a7.72 7.72 0 0 1 -2.25-.11z" fill="#909090"/><path d="m154.61 49.47c-3.35 0-6.7-.08-10-.22-1.3-.06-2.59-.09-3.88-.13-.06-.2.09-.17.2-.18s.44.06.64-.07c1.72-.09 3.44.05 5.17.07.35 0 6 .16 7.78.17.09-.08.17-.1.25 0a28.76 28.76 0 0 0 4.45-.09c.4-.38 6.47-.38 9.18-.58.81-.06 1.63-.1 2.44-.15.18 0 .4-.09.6.24-.73.08-1.41.18-2.09.23-1.25.1-4.17.51-4.22.52-.77.13-7.76.25-10.52.19z" fill="#939393"/><path d="m183.89 53.06a5.71 5.71 0 0 0 -1.54-.1 2.19 2.19 0 0 1 -.95 0c-.28 0-.18-.17 0-.29 1.45-.06 2.91 0 4.36-.05 1.73-.06 3.46-.11 5.19-.2 3.05-.15 6.09-.28 9.14-.38 1.92-.07 3.84 0 5.75-.19a2.08 2.08 0 0 1 1.37.16 2.26 2.26 0 0 1 -1.23.33c-3.89 0-7.78.21-11.67.32-2.5.07-5 .22-7.53.16a15.19 15.19 0 0 0 -2.89.24z" fill="#888"/><path d="m162.17 45.39c-1.41.08-2.83.09-4.23.25-1.19.14-2.38.12-3.57.24-2 .21-4.06 0-6.08.22a1.41 1.41 0 0 1 -.41-.07c-.08-.11-.26-.17-.18-.36a.54.54 0 0 1 .51-.25 10.64 10.64 0 0 0 2.93-.17c.46 0 4.31-.13 5.78-.22l2.32-.11c1.41-.09 4.77-.21 5 0l5.3-.14a1.77 1.77 0 0 1 .88.13 5.34 5.34 0 0 1 -2.06.23c-1.59.08-3.19.08-4.78.12-.5.03-.96.09-1.41.13z" fill="#909090"/><path d="m185.8 50.92h.13c1.88 0 3.76-.12 5.64-.25a1.93 1.93 0 0 1 .76-.05c.27 0 2.16-.13 2.71-.18 1.56-.08 3.12-.18 4.68-.12 0 .35-.35.07-.47.23-1 .08-2.06.18-3.09.24-3.82.22-7.63.46-11.46.52-1 0-2 .13-3 .07-.08-.05-.23 0-.24-.13s.13-.14.23-.15a3.47 3.47 0 0 0 1-.06z" fill="#8c8c8c"/><path d="m161.44 51.4h1c1.46 0 2.91 0 4.37-.08h3.83a33.58 33.58 0 0 0 3.47-.09 3.65 3.65 0 0 1 1.54.1c.12.17.45-.11.47.24l-12.35.22h-4.09c0-.37.25-.22.4-.24a4.69 4.69 0 0 0 1.36-.15z" fill="#959595"/><path d="m161.44 51.4c-.1.31-.37.22-.59.23a3.55 3.55 0 0 0 -1.21.13c-2.83 0-5.66-.06-8.49.05a27 27 0 0 0 -4.15.19 2.09 2.09 0 0 1 -.59-.08c-.18-.34.09-.29.28-.31s.63.07.93-.07a9.23 9.23 0 0 1 1.44-.1 30.77 30.77 0 0 0 3.22 0 23.55 23.55 0 0 0 2.91 0h5.51z" fill="#8e8e8e"/><path d="m171.78 48.17h.11c1.24-.06 2.48-.06 3.72-.24 1.67-.13 3.34-.27 5-.37 1.51-.1 3-.15 4.54-.21a.63.63 0 0 1 .62.21 1.41 1.41 0 0 1 -.89.19 31.52 31.52 0 0 0 -4.24.12c-1.69.12-3.38.22-5.07.36-1 .09-2 .2-3.05.24-.22 0-.64.18-.74-.3z" fill="#939393"/><path d="m181.36 52.71c.23.45.66.16 1 .25a19.12 19.12 0 0 1 -3 .18c-1.16.12-2.33.13-3.5.21l-4.89.33h-.72c-.14-.1-.28-.2 0-.3s.34.07.49-.08l3.93-.22 5.37-.33c.4-.03.86-.03 1.32-.04z" fill="#8d8d8d"/><path d="m206.71 47.1a5.8 5.8 0 0 1 -1.71.19q-3.66.2-7.33.25c-.71 0-1.43 0-2.15 0-.09-.09-.09-.17 0-.25 2.7-.18 5.41-.19 8.12-.27a16.75 16.75 0 0 1 2.55-.2c.11.24.49-.08.52.28z" fill="#909090"/><path d="m199.25 50.55.47-.23a15.24 15.24 0 0 1 3.63-.26c1.2.07 2.39-.18 3.58-.09l1.62.1c.14 0 .38 0 .35.19s-.25.16-.4.16c-.36 0-.71-.05-1.07-.05-2.73-.05-5.43.05-8.18.18z" fill="#8e8e8e"/><path d="m195.53 47.31v.25c-.35.15-.7 0-1.06 0l-4.35.06c-.43 0-.87-.05-1.3-.08l-.25.11-1.9-.14a6.05 6.05 0 0 1 2-.21 4.51 4.51 0 0 0 1.42 0l5.42-.06z" fill="#8f8f8f"/><path d="m170.69 53.3c-.16.14-.45.09-.49.38-2.72 0-5.44.33-8.16.4-.36 0-.72 0-1.08 0v-.28c0-.08.09-.08.13-.12a25.86 25.86 0 0 1 2.76-.12 12.68 12.68 0 0 0 1.67 0 47 47 0 0 0 5.17-.26z" fill="#8d8d8d"/><path d="m206.71 47.1h-1.09v-.06l.6-.2a13.26 13.26 0 0 0 1.36-.41c.15-.07.34 0 .38.15s-.13.22-.26.26z" fill="#747474"/><path d="m176.79 51.27a9.33 9.33 0 0 1 2.18-.12c.05.31-.19.14-.28.18.2.1.46-.22.65.08a17.47 17.47 0 0 1 -2.89.11c-.07-.33.29-.08.34-.25z" fill="#959595"/><path d="m182.68 51a1.81 1.81 0 0 1 -.73.12c-.13 0-.31 0-.23.22h-1.43a.15.15 0 0 1 0-.24 21.43 21.43 0 0 1 2.39-.1z" fill="#959595"/><path d="m180.28 51.16v.24h-2.41c.36-.17.75-.08 1.09-.26a4.79 4.79 0 0 1 1.32.02z" fill="#8c8c8c"/><path d="m210.28 54.42-.23-.2c.29-.11.59.1.83-.08s.57 0 .6.36a2.86 2.86 0 0 1 -1.2-.08z" fill="#696969"/><path d="m176.79 51.27h.42l-.76.22h-.37l-.47-.24z" fill="#8c8c8c"/><path d="m183.41 58.11c.38-.19.82 0 1.24-.15-.17-.17-.41 0-.58-.22.19-.29.51-.19.77-.23.1.13.12.32.26.29 1.16-.23 2.56 0 3.73-.19.87-.1 1.85-.16 2.7-.2 1.72 0 1.8-.4.77-.36-1.25-.06-4.86.34-4.94.23-.67-.29-1.37 0-2.05-.13a2 2 0 0 1 .47-.1l9.38-.37a5.82 5.82 0 0 1 2.77-.13h5.82c-.08.24-.26.18-.41.18-1.59.06-3.18.18-4.78.15-1 0-1.82.52-2.8.55-2.75.08-5.48.46-8.23.57-1.37.06-2.75.11-4.12.11z" fill="#8c8c8c"/><path d="m108 38c15.45-1 30.89-1.5 46.34-1.58 0 .25-.09.26-.18.26-1.72.06-3.44.13-5.15.15-2.78 0-5.55 0-8.33.06-2 0-4 .19-6 .27-1 0-2 0-3 .05-3.61.12-7.23.2-10.84.38-3 .15-5.89.46-8.84.64-1.19.08-2.39 0-3.58 0-.16-.01-.32.02-.42-.23z" fill="#959595"/><path d="m111.28 44c2.71.1 5.42.06 8.14-.06 1.81-.07 3.62-.3 5.44-.19 1.11.06 2.23-.14 3.35 0 .19.19.53-.14.68.2 0 .31-.28.3-.5.29a14.93 14.93 0 0 0 -3 0 33.47 33.47 0 0 1 -3.88.14c-.75.05-1.51.13-2.26.12a24.57 24.57 0 0 1 -3.43-.09c-1.66-.13-3.33-.1-5-.14s-3.46-.22-5.18-.1c-.52-.21-1 0-1.55 0-2.71 0-5.42.11-8.13.26-2.07.1-4.14.35-6.21.53-1.76.15-3.53.32-5.31.35-.77 0-1.55.07-2.33.08a2.64 2.64 0 0 1 -1.11-.15c.08-.28.29-.2.45-.21 1.81-.05 3.63 0 5.44-.15 1.57-.09 3.14-.29 4.71-.47 2-.23 4.09-.31 6.15-.39 2.53-.09 5.06-.13 7.6-.2.19 0 5.85.06 5.93.18z" fill="#919191"/><path d="m104.2 41.8c-2.47.22-5 0-7.42.09a1.54 1.54 0 0 1 -.89-.22 4.73 4.73 0 0 1 1.61-.2c1.08 0 2.16.08 3.24.07 2.29 0 4.58-.19 6.87-.41 1.94-.19 3.9-.23 5.85-.38 2.16-.17 4.33-.26 6.51-.32 1.65 0 3.29-.26 5-.14 0 0 0 0 .09.08-.1.24-.32.21-.51.21-2.53.11-5.06.19-7.6.3-1.37 0-2.75.14-4.12.21-2.09.1-4.19.21-6.26.49a16.36 16.36 0 0 0 -2.21.21c-.08.05-.11.05-.16.01z" fill="#939393"/><path d="m94 39.76c.17.25.41.21.65.16a38.93 38.93 0 0 0 5.63-1.4.65.65 0 0 0 .47-.52 3 3 0 0 1 .69-1.23c.39.12.14.38.08.54a2.44 2.44 0 0 0 -.33.76c.71.35 1.35-.16 2-.19a5.76 5.76 0 0 0 1.42-.42c.21.1.56-.16.63.26-1.35.35-2.69.72-4.05 1-.95.22-1.86.57-2.81.82-1.58.41-3.2.67-4.79 1a45.55 45.55 0 0 1 -4.9 1.08.52.52 0 0 1 -.32-.76c.1-.21.25-.42.55-.22 0 .14-.27.43.15.4a20.19 20.19 0 0 0 4.27-1s.07-.08.11-.13c.15-.13.25-.36.55-.15z" fill="#7d7d7d"/><path d="m69 39.15c-1 1.43-1.74 3.05-2.76 4.47-.58.82-1 1.7-1.58 2.53-.09.14-.16.42-.37.31s-.1-.38 0-.53c.73-.9 1.15-2 1.88-2.91a2.24 2.24 0 0 0 .31-.57 22.52 22.52 0 0 1 2.1-3.66c.49-.75.85-1.58 1.26-2.37.42-.43.56-1.06 1-1.47.15-.13.3-.42.53-.25s0 .36-.09.53-.26.54-.39.81a.67.67 0 0 1 0 .57 11.63 11.63 0 0 1 -.84 1.45c-.13.19-.27.35-.53.26z" fill="#767676"/><path d="m83.81 43.24h-.88c0-.2.21-.21.27-.35a2.87 2.87 0 0 0 1.16-1.57 12.24 12.24 0 0 1 1.33-2.17c.83-1.39 1.67-2.77 2.36-4.23a1.38 1.38 0 0 1 .22-.35c.11-.12.25-.23.42-.14s.12.24.08.37a6 6 0 0 1 -.77 1.75c-.46.7-.86 1.44-1.34 2.13-.79 1.14-1.53 2.32-2.3 3.48-.07.08-.09.23 0 .27.81.54 0 .49-.23.63l-.1.07z" fill="#686868"/><path d="m78.77 40a2.16 2.16 0 0 1 .94.14.35.35 0 0 0 .45-.18c.08-.19-.15-.26-.28-.31-.52-.19-.55-.58-.43-1 0-.09.07-.18.09-.28.29-1 .24-1.07-.78-1-.16 0-.4.08-.45-.15s.17-.27.32-.32c.47-.15.89-.54 1.47-.28.33.15.43-.23.52-.45a6.69 6.69 0 0 1 .84-1.44 1.35 1.35 0 0 1 .4-.35c.1-.08.25-.17.38 0s0 .23 0 .33c-.5.81-1 1.65-1.53 2.42a5.18 5.18 0 0 0 -.71 1.69c-.08.29.2.41.41.51.38.16.85.32.65.82s-.65.53-1.12.34a2.56 2.56 0 0 1 -1-.12c-.16-.03-.37-.12-.17-.37z" fill="#585858"/><path d="m80.79 41.54a9.86 9.86 0 0 1 1.64-2.49c.95-1.32 1.86-2.67 2.75-4a2.8 2.8 0 0 1 .64-.77c.13-.1.28-.22.43-.09s0 .3 0 .42c-.52.8-1 1.61-1.58 2.4-1 1.43-2 2.84-3.05 4.27a8.37 8.37 0 0 0 -1 1.4c-.2.13-.26.08-.26-.16-.06-.46.28-.67.43-.98z" fill="#727272"/><path d="m112.25 34.94c1.29-.26 2.57-.5 3.85-.84a18.63 18.63 0 0 1 3.07-.66c.42 0 .8-.29 1.23-.18.12 0 .26 0 .27.18s-.13.19-.25.21a28.49 28.49 0 0 1 -3.2.71 8 8 0 0 0 -2.37.58 19.39 19.39 0 0 1 -2.61.61c-.32-.21-.32-.41.01-.61z" fill="#757575"/><path d="m91.24 38.56a9.33 9.33 0 0 0 1.83.12c.53 0 .82-.24.82-.79a1.25 1.25 0 0 1 .74-1.25c-.14.38-.52.62-.57 1 0 .17-.11.4.11.48s.35-.09.44-.24c.53-.94 1.32-1.7 1.89-2.6a1.27 1.27 0 0 1 .47-.45c.12-.07.25-.19.38 0s0 .26-.08.37c-.53.73-1 1.46-1.6 2.16a25.1 25.1 0 0 0 -1.67 2.4l-.5.24c-.14-.19 0-.32.08-.48.27-.44.16-.65-.36-.7-.36 0-.72 0-1.08 0a1.31 1.31 0 0 1 -.9-.26z" fill="#6c6c6c"/><path d="m72.63 39-.23.24-.4.76a.41.41 0 0 0 -.15.25c0 .19-.17.27-.34.19s-.13-.22 0-.35a3.91 3.91 0 0 1 .26-.59c.29-1.18 1.16-2 1.67-3.1a10.88 10.88 0 0 1 .79-1.4c.15-.21.34-.55.65-.34s0 .48-.09.68c-.59 1-1.19 1.94-1.81 2.9a2.7 2.7 0 0 0 -.35.76z" fill="#727272"/><path d="m100.68 34.42a6.47 6.47 0 0 1 -.39.8c-.67 1-1.36 2-2.05 3-.09.14-.18.37-.41.22a.4.4 0 0 1 -.09-.54 10.67 10.67 0 0 1 .57-.91c.65-.88 1.15-1.86 1.88-2.68.09-.11.17-.24.34-.2s.14.14.15.31z" fill="#666"/><path d="m105.29 37.72a.67.67 0 0 1 -.63-.26 29.5 29.5 0 0 0 1.9-2.68 1.77 1.77 0 0 1 .91-.65.24.24 0 0 1 .28 0 .14.14 0 0 1 0 .21 19 19 0 0 0 -1.67 2.23c-.12.07-.15.2-.06.28.3.25.08.38-.09.53a1.43 1.43 0 0 1 -.64.34z" fill="#515151"/><path d="m101.2 38.07c-.26-.06-.26-.19-.12-.38a2.18 2.18 0 0 0 .37-.92 21.23 21.23 0 0 1 1.46-2.18 2 2 0 0 1 .41-.42c.15-.14.38-.25.54-.12s0 .35-.15.49q-1.24 1.77-2.51 3.53z" fill="#656565"/><path d="m71.68 39.5-.15.63c.22.13.29-.09.43-.13v.23s.06.38-.23.35a23.84 23.84 0 0 0 -2.07 3.19c-.13.22-.26.67-.55.49s0-.49.19-.71a3.35 3.35 0 0 0 .29-.78z" fill="#777"/><path d="m75.17 40.84a23.6 23.6 0 0 1 -2 2.95 4.78 4.78 0 0 1 -.47.54c-.1.1-.23.3-.39.17s0-.33.08-.47c.65-.81 1.16-1.71 1.74-2.57a4.8 4.8 0 0 1 .79-1.25c.38.08 0 .49.25.63z" fill="#6d6d6d"/><path d="m109.6 36.26-.7.27a.6.6 0 0 1 -.22.06c-.15 0-.32.11-.41-.08s.09-.23.14-.35a2.4 2.4 0 0 0 1.19-1.35c.25-.59.83-.84 1.28-1.22a.23.23 0 0 1 .33 0c.1.11 0 .23-.07.31l-1.26 1.43a.19.19 0 0 0 -.07.29c.53.38.12.52-.21.64z" fill="#4f4f4f"/><path d="m112.25 34.94a1 1 0 0 1 0 .61 3.38 3.38 0 0 0 -1.4 1.14.32.32 0 0 1 -.52.07c-.11-.28.15-.56 0-.87s.27-.21.41-.32a2.62 2.62 0 0 0 1-.94.45.45 0 0 1 .52-.21c.2.12-.04.35-.01.52z" fill="#4a4a4a"/><path d="m75.17 40.84c-.75.06-.17-.43-.26-.63-.12-1 .7-1.33 1.2-1.91.36-.11.53 0 .37.37-.2.22-.16.58-.46.73 0 .39.3.26.5.29s.43.08.4.32-.28.17-.44.16c-.57 0-1.12 0-1.31.67z" fill="#555"/><path d="m89 40.72c-.53.22 0 .68-.23 1l-.49.23c-.59.09-.59.09-.6-.25.45-.67.9-1.35 1.37-2 .22-.3.51-.82.82-.62s-.18.57-.24.9-.55.4-.63.74z" fill="#505050"/><path d="m87.65 41.68c.13.24.38.22.6.25-1.41.37-2.77.91-4.21 1.2.19-.16.49-.26.23-.61-.08-.1 0-.26.13-.36.33.39.71.17 1 .06.77-.22 1.51-.37 2.25-.54z" fill="#818181"/><path d="m78 41.5a1.68 1.68 0 0 1 -.33.55 11.42 11.42 0 0 0 -1.37 1.58c-.12.16-.27.37-.48.2s0-.34.1-.51a5.71 5.71 0 0 1 1.64-2c.11-.08.22-.18.37-.13s.12.16.07.31z" fill="#696969"/><path d="m75.17 40.84c.12-.93 1-.63 1.49-.8 0-.45-.77-.09-.64-.64a3.14 3.14 0 0 0 1.63.46 3 3 0 0 1 1.12.15c.32.38.81.32 1.21.48-.69.28-1.33-.13-2-.14s-1-.07-1.55-.12a1.2 1.2 0 0 0 -1.26.61z" fill="#6d6d6d"/><path d="m131.21 40.11-.13.25c0 .35-2.71 0-3 .06-.11 0-.24 0-.34.06-.73 0-2.28.08-3 .08 0-.09-.79-.23-.79-.32 1.86-.13 5.37-.11 7.26-.13z" fill="#939393"/><path d="m108.41 36.16c0 .38.24.36.49.37a13.36 13.36 0 0 1 -3 .93c.13-.26-.21-.6.15-.81 0 .11.14.22.27.17a14.32 14.32 0 0 0 2.09-.66z" fill="#797979"/><path d="m76.48 38.67a.59.59 0 0 0 -.37-.37c.24-.2.47-.43.72-.62a.33.33 0 0 1 .48 0c.13.18 0 .29-.16.39s-.45.41-.67.6z" fill="#737373"/><path d="m110.69 35.57c-.31.34-.18.81-.37 1.19 0-.49-.28-.63-.72-.5.46-.2 0-.67.28-.93.12.48.54.15.81.24z" fill="#808080"/><path d="m80.79 41.54c0 .37-.55.64-.24 1.09-.14.2-.25.61-.51.48s.07-.43.12-.65a1.78 1.78 0 0 1 .63-.92z" fill="#898989"/><path d="m92 33.64a5.63 5.63 0 0 1 1.92 0 3.58 3.58 0 0 1 -1.92 0z" fill="#7d7d7d"/><path d="m129.76 52.84c-2.68.24-5.38.21-8.06.39-4.35.29-8.7.35-13 .35-1.57 0-3.14.16-4.72.19s-3.38 0-5.08 0c-2.77 0-5.54.18-8.3.44-.51 0-1 0-1.55 0-.09 0-.24-.07-.25-.12s.12-.12.21-.12l1.47-.14a61.43 61.43 0 0 1 7.3-.48h1.59a65.69 65.69 0 0 0 6.58-.15c1.19-.14 2.39 0 3.58-.19a5.19 5.19 0 0 0 1.84.1c2.18 0 4.37.1 6.56-.06a1.38 1.38 0 0 0 .74-.16c1.13-.14 2.26-.25 3.41-.32 1.88-.1 3.77 0 5.66-.23a17 17 0 0 1 2.24.12c.27.38-.21.26-.22.38z" fill="#888"/><path d="m124.19 46.31c.58 0 1.69.13 2.26.15a37.47 37.47 0 0 0 4.72-.54c1-.08 2.05.12 3 .08a9.88 9.88 0 0 0 1.76-.32c.53-.37 2.54-.21 3.24-.25a22.09 22.09 0 0 1 2.82 0 11.11 11.11 0 0 1 2.38.09c.15.14.29.28.16.51-2.45 0-9.68.22-9.83.24-2.73.27-5.47.45-8.21.51a5.61 5.61 0 0 1 -1.78-.08c.01-.06-.52-.32-.52-.39z" fill="#909090"/><path d="m127.85 49.82-.13-.1c-.09-.36.19-.28.37-.29l3.69-.18a21 21 0 0 0 3.27-.25c1.54-.16 3.1-.08 4.64-.18.62 0 1.23.11 1.84 0l-.84.25c-1.73 0-3.45.12-5.16.23h-.12q-3.45.36-6.91.48c-.21.06-.43.05-.65.04z" fill="#8b8b8b"/><path d="m65.36 38.81a10.66 10.66 0 0 0 1.54-2.38 5.45 5.45 0 0 0 .77-1.27 2.46 2.46 0 0 1 .76-.9c.14-.11.28-.3.47-.16s0 .32-.06.47c-.2.48-.67.8-.77 1.34a19.07 19.07 0 0 0 -1.59 2.39c-1.18 1.7-2.33 3.35-3.48 5.05-.78 1.13-1.52 2.29-2.3 3.43a2.51 2.51 0 0 1 -.51.57c-.12.11-.31.25-.48.07s0-.31.1-.47c.33-.49.79-.89 1.08-1.42a2.63 2.63 0 0 0 .28-.72 15 15 0 0 0 1.73-2.32c.26-.34.47-.73.76-1.05a13.87 13.87 0 0 0 1.7-2.63z" fill="#686868"/><path d="m56.24 42.15a1.15 1.15 0 0 1 .62.53c.31.56.92.75 1.4 1.09a.32.32 0 0 0 .22 0 4.29 4.29 0 0 0 2.74-2.53c.05-.18.05-.3-.16-.37-.54-.17-1-.54-1.64-.43a1.21 1.21 0 0 1 -.42 0 .29.29 0 0 1 -.25-.35c0-.17.18-.21.32-.2a4.86 4.86 0 0 1 2.38.68.83.83 0 0 1 .31 1.18c-.2.39-.56.69-.64 1.14a13.44 13.44 0 0 1 -2.45 1.46 2.13 2.13 0 0 0 -.68.47c-.06.07-.11.16-.18.23s-.21.34-.42.18-.06-.32 0-.47c.34-.59.25-.8-.41-1a.38.38 0 0 1 -.22-.07c-.52-.17-.68-.66-1-1-.13-.21-.29-.43-.06-.66s.41-.03.54.12z" fill="#5c5c5c"/><path d="m56.24 42.15c-.41 0-.38.27-.41.52l-.34-.16c-.19 0-.31-.07-.32-.25s.11-.32.32-.33a17 17 0 0 1 2.43-2.52c1-1.38 1.95-2.8 2.87-4.24l.46-.69c.29-.16.48-.64.94-.35a29.55 29.55 0 0 1 -2 3.13c-.43.69-1 1.32-1.35 2s-1.34 1.06-1.84 1.74c-.24.39-.77.58-.76 1.15z" fill="#676767"/><path d="m62.89 37.58a1 1 0 0 0 -.57.73c-.41.19-.53.6-.73.95l-.23.19c-.11.08-.23.2-.37.07s0-.22 0-.33a2.79 2.79 0 0 1 .71-1.08 1.32 1.32 0 0 0 .48-.74c.84-1 1.59-2 2.35-3.09.12-.17.24-.45.5-.25s0 .36-.09.52a14 14 0 0 1 -1.55 2.11 2.16 2.16 0 0 0 -.5.92z" fill="#777"/><path d="m56.79 43.72c1-.15 1.14 0 .74 1.24.21.1.3-.13.46-.16-.14.52-.68.78-.85 1.3a5.52 5.52 0 0 0 -.74.92c-.1.13-.22.27-.39.17s-.09-.32 0-.46c.34-.54.69-1.07 1-1.6.56-.82.56-.82-.22-1.41z" fill="#6b6b6b"/><path d="m65.34 32.67v.71a.8.8 0 0 1 -.7.13c-.1-.15-.56-.12-.25-.48s.44-.73.95-.36z" fill="#424242"/><path d="m41 34.36c-.07-.73.08-.84 1-.73-.53.07-.91.22-1 .73z" fill="#868686"/><path d="m45.29 34.88a.82.82 0 0 0 .31-.42c.12-.23.34-.44.56-.36s.09.4.08.62a1.41 1.41 0 0 1 -.58 1.09c-.14.1-.16.26-.28.34-.63.82-1.27 1.64-1.89 2.46-.14.19-.34.44-.2.66.32.48 0 .75-.29 1a7.47 7.47 0 0 0 -1.42 1.73 1.33 1.33 0 0 1 -1.53.68 7.2 7.2 0 0 0 -1.52-.2 1.88 1.88 0 0 1 -1.28-.58c0-.48.43-.6.71-.82a6 6 0 0 0 1.83-1.7c.68-1.25 1.56-2.36 2.26-3.59a4.3 4.3 0 0 1 1.2-1.31c.14-.08.3-.15.42 0a.39.39 0 0 1 0 .45 10.76 10.76 0 0 1 -.67 1.07c-.46.59-.76 1.3-1.28 1.87a.69.69 0 0 0 -.21.51 1.43 1.43 0 0 0 1.66-.7c.47-.83 1.1-1.57 1.55-2.41.12-.19.28-.43.57-.39zm-4.3 7a14 14 0 0 1 1.35-1.74c.38-.39.2-.75-.34-.81a2.59 2.59 0 0 0 -1.23.19 9.67 9.67 0 0 0 -2.34 1.83c-.32.25-.06.47.23.53a9.29 9.29 0 0 1 1.58.26.71.71 0 0 0 .76-.28z" fill="#6a6a6a"/><path d="m64.91 31.33c-.24 0-.6.05-.64-.26s.29-.3.49-.28.59 0 .61.34-.28.18-.46.2z" fill="#6c6c6c"/><path d="m60.58 30.8c-.2-.07-.54.05-.58-.26s.27-.32.48-.31.6.09.62.34-.3.22-.52.23z" fill="#565656"/><path d="m66.41 30.5c-.17 0-.37 0-.37-.22s.28-.35.48-.42a.26.26 0 0 1 .35.28c-.02.28-.27.3-.46.36z" fill="#464646"/><path d="m159.15 41.91a4.26 4.26 0 0 0 -1.42.13c-2.14 0-4.26.38-6.4.44a28 28 0 0 1 -3 .16.91.91 0 0 1 -.66-.17c1.12-.11 2.11-.22 3.12-.3 2.74-.24 5.48-.51 8.23-.7 1.93-.13 3.87-.13 5.8-.2l6.35-.23c2-.07 4.07 0 6.1-.2s4.3-.17 6.45-.36c1.71-.15 3.43-.17 5.14-.25 2.47-.1 4.94-.21 7.42-.3 1.81-.07 3.63-.1 5.44-.17l7.53-.36h.18c.17 0 .42 0 .41.23s-.26.22-.43.24-.44 0-.66 0c-2.49 0-5 .13-7.48.26-1.87.1-3.75 0-5.62.16s-3.75.08-5.62.21-4 .22-6 .33c-1.79.09-3.58.18-5.38.25-1.53.06-3.07 0-4.59.16-2.27.24-4.56.11-6.82.35a19.14 19.14 0 0 1 -2.93 0 41.61 41.61 0 0 0 -4.61.16 3.89 3.89 0 0 0 -.55.16z" fill="#929292"/><path d="m174.65 25.11c.08.07.24.14.24.22s-.16.14-.27.14a6.5 6.5 0 0 1 -1.76-.11c.58-.18 1.21-.08 1.8-.25z" fill="#7e7e7e"/><path d="m171 25.49c.32-.33.7-.25 1.22-.19-.47.27-.86.13-1.22.19z" fill="#7e7e7e"/><path d="m134.06 52.35a7.66 7.66 0 0 1 1.79-.11 2.4 2.4 0 0 0 .88-.12c3.63-.29 7.27-.53 10.92-.61-.37.23-.89 0-1.21.38-3.33 0-6.64.4-10 .58-.59 0-1.18 0-1.76 0-.19.04-.46.17-.62-.12z" fill="#8e8e8e"/><path d="m134.06 52.35a11.49 11.49 0 0 1 2.42.12 15.27 15.27 0 0 1 -3.57.26 2.53 2.53 0 0 1 -.95 0c-.26 0-.21-.15 0-.28z" fill="#888"/><path d="m131.92 52.48c.25.43.66.15 1 .25a4.65 4.65 0 0 1 -1.66.09 9.27 9.27 0 0 0 -1.49 0l.25-.25z" fill="#8e8e8e"/><path d="m143.82 45.43c.65 0 3.4.07 4.05.08.16-.18-.15 0 0 .25l.12.29a8.11 8.11 0 0 1 -2 0c-.18-.13-2.15-.23-2.17-.62z" fill="#909090"/><path d="m145.34 45.74.51.26c-.43.21-.87 0-1.31 0l-.25-.28z" fill="#909090"/><path d="m143.81 43c-1.43.12-2.87.2-4.3.36s-2.74.23-4.12.27a5.74 5.74 0 0 0 -.71.09 27.36 27.36 0 0 0 -3 .12 9.5 9.5 0 0 1 -1.92 0 4.22 4.22 0 0 1 -1.6.22c-.21 0 .25-.32.05-.36l1.08-.22c1.9.1 3.78-.16 5.67-.17 2.2 0 4.36-.4 6.55-.48 1.41-.06 2.81-.25 4.22-.39a2.93 2.93 0 0 1 1.4.14 19.81 19.81 0 0 1 -3.32.42z" fill="#919191"/><path d="m91.24 38.56a4.68 4.68 0 0 1 -1.9-.51c-.51-.21-.57-.6-.13-.95a8.72 8.72 0 0 1 1-.6c.26-.16.5-.31.53-.67a.33.33 0 0 1 .43-.3 11.81 11.81 0 0 0 2.85 0h.36c.33 0 .66.12.76.48s-.21.52-.48.65a1.62 1.62 0 0 0 -.66 1.72c.06.23-.07.38-.27.36a7.64 7.64 0 0 1 -2.49-.18zm2.31-1a1 1 0 0 1 .47-1c.33-.24.4-.45-.06-.62a1 1 0 0 0 -.58-.08 7.75 7.75 0 0 0 -3.2 1.17c-.4.26-.3.43 0 .57a11.46 11.46 0 0 0 2.53.68c.57.02.91-.1.84-.7z" fill="#5d5d5d"/><text fill="#1d1d1b" font-family="BaskervilleMTPro-Regular, Baskerville MT Pro" font-size="10" transform="translate(48.29 8.31)">Section <tspan letter-spacing="-.01em" x="32.3" y="0">a</tspan><tspan x="36.89" y="0">t Mildenhall Bri</tspan><tspan letter-spacing="-.01em" x="100.98" y="0">c</tspan><tspan x="105.14" y="0">k</tspan><tspan letter-spacing="-.01em" x="109.72" y="0">y</tspan><tspan x="114.2" y="0">a</tspan><tspan letter-spacing="-.01em" x="118.89" y="0">r</tspan><tspan x="122.44" y="0">d</tspan></text><text fill="#1d1d1b" font-family="BaskervilleMTPro-Regular, Baskerville MT Pro" font-size="10" transform="translate(34.16 82.66)">a. <tspan letter-spacing=".04em" x="9.69" y="0">F</tspan><tspan x="15.57" y="0">lood Gr</tspan><tspan letter-spacing="-.03em" x="47.04" y="0">a</tspan><tspan letter-spacing="-.02em" x="51.44" y="0">v</tspan><tspan x="55.83" y="0">el.</tspan></text><text fill="#1d1d1b" font-family="BaskervilleMTPro-Regular, Baskerville MT Pro" font-size="10" transform="translate(120.14 82.66)"><tspan letter-spacing="-.04em">b</tspan><tspan x="4.84" y="0">. Chalky Boulder Cl</tspan><tspan letter-spacing="-.01em" x="85.18" y="0">a</tspan><tspan x="89.77" y="0">y</tspan></text><text fill="#1d1d1b" font-family="BaskervilleMTPro-Regular, Baskerville MT Pro" font-size="10" transform="translate(34.1 98.6)">c. Bri<tspan letter-spacing="-.01em" x="21.57" y="0">c</tspan><tspan x="25.73" y="0">k-earth, with ma</tspan><tspan letter-spacing="-.02em" x="92.1" y="0">n</tspan><tspan x="97.22" y="0">y implement</tspan><tspan letter-spacing="-.02em" x="147.44" y="0">s</tspan><tspan x="150.58" y="0">.</tspan></text><text fill="#1d1d1b" font-family="BaskervilleMTPro-Regular, Baskerville MT Pro" font-size="10" transform="translate(.06 32.24)">a</text><text fill="#1d1d1b" font-family="BaskervilleMTPro-Regular, Baskerville MT Pro" font-size="10" transform="translate(.03 44.1)">b</text><text fill="#1d1d1b" font-family="BaskervilleMTPro-Regular, Baskerville MT Pro" font-size="10" transform="translate(0 60.4)">c</text><text fill="#1d1d1b" font-family="BaskervilleMTPro-Regular, Baskerville MT Pro" font-size="10" transform="matrix(1 .01 -.01 1 10.12 51.14)">12 ft</text><g fill="none" stroke="#1d1d1b" stroke-linecap="round" stroke-miterlimit="10" stroke-width=".5"><path d="m30.51 26.92-1.33 3.44"/><path d="m30.58 26.92-1.33 3.44"/><path d="m28.91 27.46 1.76 1.39"/><path d="m31.22 67.4-1.33 3.44"/><path d="m31.3 67.4-1.34 3.44"/><path d="m29.62 67.93 1.76 1.4"/><path d="m31.22 67.4-1.33 3.44"/><path d="m31.3 67.4-1.34 3.44"/><path d="m29.63 67.93 1.77 1.4"/><path d="m30.06 31.6.08 22.66"/><path d="m30.14 54.26v12.07"/></g></svg>