<svg viewBox="0 0 183.19 243.6" xmlns="http://www.w3.org/2000/svg"><g font-size="10"><text fill="#1d1d1b" font-family="BaskervilleMTPro-Regular, Baskerville MT Pro" transform="matrix(.73 0 0 1 4.19 241.05)">(1)</text><text fill="#1d1d1b" font-family="BaskervilleMTPro-Regular, Baskerville MT Pro" transform="translate(0 179.29)"><tspan letter-spacing=".04em">F</tspan><tspan letter-spacing="0em" x="5.88" y="0">l</tspan><tspan letter-spacing="-.01em" x="8.28" y="0">ow</tspan><tspan x="19.85" y="0">er pedun</tspan><tspan letter-spacing="-.01em" x="55.7" y="0">c</tspan><tspan x="59.86" y="0">le</tspan><tspan x="0" y="12">in full fl</tspan><tspan letter-spacing="-.01em" x="30.63" y="12">ow</tspan><tspan x="42.2" y="12">er</tspan></text><text fill="#1d1d1b" font-family="BaskervilleMTPro-Regular, Baskerville MT Pro" transform="translate(117.76 169.47)">Main<tspan x="0" y="12">fl</tspan><tspan letter-spacing="-.01em" x="5.1" y="12">ow</tspan><tspan x="16.67" y="12">er</tspan><tspan x="0" y="24">pedun</tspan><tspan letter-spacing="-.01em" x="25.32" y="24">c</tspan><tspan x="29.48" y="24">le</tspan></text><text fill="#1d1d1b" font-family="BaskervilleMTPro-Italic, Baskerville MT Pro" font-style="italic" transform="translate(0 8.31)">Oxalis ca<tspan letter-spacing=".05em" x="32.59" y="0">r</tspan><tspan letter-spacing="0em" x="35.96" y="0">nosa</tspan></text></g><path d="m146.46 38.64a30.54 30.54 0 0 1 -1.23 3.6c-.37.71.58.91.57 1.49-.89 1.54-2.2 2.82-2.85 4.52a4.65 4.65 0 0 0 -.42 1.06c.81-.65 1.33-1.38 2-2 .28-.27.44-.71 1-.58s1 .22 1.27.73c.12.26.23.53 0 .77-2.09 2.09-10 9.32-10.52 10.33-.28.34-.58 1-1 1.08-.71.11-.78-.31-.55-.87a27.37 27.37 0 0 1 2.11-3.87 10.3 10.3 0 0 0 1.71-3 .61.61 0 0 1 .16-.32c1.9-1.73.74-3.86.77-5.84 0-.25 0-.65-.35-.69s-.45.39-.56.67c-.71 1.84-1.51 2.36.9 3.58.22.55-.2 1.72-1.08 1.59-1.31-1.15-1.59-.4-1.57.9 0 .73-.64 1-.75 1.56a35.25 35.25 0 0 1 -1.38 3.44 1.7 1.7 0 0 1 -.61.87 1.25 1.25 0 0 1 -1.13.21c-.48-.18-.13-.62-.08-.94.31-1.9 1.23-3.61 1.75-5.46.43-1.56.27-1.8-1.06-2.69-2.17-1.46-4.76-1.92-7-3.16a6.81 6.81 0 0 1 -2.82-2.3 7.25 7.25 0 0 1 0-2.23 5.25 5.25 0 0 1 2.57-3.24.68.68 0 0 1 .69 0c.42.57 0 .94-.31 1.35-1.47 1.7-1.22 3 .72 4.17 2.29 1.35 4.86 2 7.22 3.22.67.33 1.14 0 1.42-.62.47-1.1 1-2.19 1.41-3.31a3.62 3.62 0 0 0 0-3c-.17-.35-.39-.74 0-1.09.57-.58 1.37-.31 2-.58.8 0 1 .7 1.19 1.27-.51 1.73.14 3.28.76 4.83.09.22.15.49.42.54s.49-.23.62-.47c.55-1 .92-2.19 1.38-3.29.39-.95.77-1.91 1.16-2.87a.9.9 0 0 1 1.2-.66c.61.37.27.86.27 1.3z" fill="#5f5f5f"/><path d="m75.42 26.41c.74.22 3.25 4.91 3.66 6.84.17.82.43.94 1.16.55a9.42 9.42 0 0 1 1.53-.66 2.93 2.93 0 0 1 4 2.89 2.59 2.59 0 0 1 0 .48.64.64 0 0 1 -.91.39c-.45-.18-.53-.65-.76-1a1.63 1.63 0 0 0 -2.21-.82 6.86 6.86 0 0 0 -3.06 2.55c-.47.57-.93 1.15-1.78.6-.3-.16-.3-.5-.45-.75-.23-.51.21-.81.41-1.17a3.75 3.75 0 0 0 .32-3.13 36.24 36.24 0 0 0 -1.73-3.68 2.14 2.14 0 0 0 -3.16-.56 10.13 10.13 0 0 0 -4.63 8.8c0 .52.92.48 1.35.75a8.37 8.37 0 0 0 1.74.44 1.3 1.3 0 0 1 .88 2c-1 .68-2-.2-3-.19-.32 0-.6-.11-.81.22-.67.55-.28 1.47-.74 2.09-.88.25-.89-.39-1-1-.19-1.77-.5-2-2.19-1.43a6.21 6.21 0 0 0 -3.41 3 2.83 2.83 0 0 1 -2.78 1.61c-.57-.37-.28-.86-.2-1.32 1-.91 1.79-1.91 2.75-2.81a11.59 11.59 0 0 1 5.38-2.94c1.18-.27 1.17-.31 1.23-1.5l-.01-1.78a23.7 23.7 0 0 1 .59-4.35 23.14 23.14 0 0 1 4.28-4.42c.44-.31.82-.76 1.45-.64a6.31 6.31 0 0 1 2.1.94z" fill="#6c6c6c"/><path d="m67 42.78c0-.65 0-1.31.09-2 0-.27.13-.47.44-.21a.75.75 0 0 0 0 .16c.61.4.68 5 1.55 6.22a4.41 4.41 0 0 0 .36.49c3.51 4 3.09.7 4.22 1.08a1.37 1.37 0 0 1 .34.74 2.46 2.46 0 0 1 -2.13 1.44.94.94 0 0 0 -.64.06l-.07.12c-.27.9.74.66 1 1.09.59.42 1 0 1.32-.36 1.08-1.16 2.28-2.2 3.3-3.4a.84.84 0 0 1 .58-.39c.39.15 1.08.09.64.86l-.72 1.16a15.1 15.1 0 0 0 -1.86 3.53 2.89 2.89 0 0 0 .37 2.92 2.33 2.33 0 0 1 .56 1.42 1 1 0 0 0 .12.33 2.65 2.65 0 0 1 .78 1.78c0 .71.73 1.36.18 2.12-.24.24-.47.51-.87.38a.84.84 0 0 1 -.81-.52 7.3 7.3 0 0 1 -.75-1.91c-.22-2-1.6-2.9-3.18-3.68a1.87 1.87 0 0 0 -1.17-.07c-1.33.23-2.6.7-4 .87-.7.1-.73.66-.63 1.29.08.43.31 1.09-.41 1.23a1.26 1.26 0 0 1 -1.43-.81c-.72-1.45-.6-3-.76-4.56 0-.51.46-.83.67-1.24.39-.74 1-.21 1.45-.07a3 3 0 0 0 3.76 1.3c.76-.37.68-.7 0-1.18a3.18 3.18 0 0 1 -1.23-2.33 33.79 33.79 0 0 0 -1.47-6.19c-.21-.58-.37-1.26.4-1.67z" fill="#4c4c4c"/><path d="m43 83.11c.93.56 4.54 1.62 5.23 2 2.72 1.53 5.49 3 8.26 4.39a22.18 22.18 0 0 0 4.27 1.86q2.16 1.17 4.36 2.24a6.55 6.55 0 0 1 1.43.88c2.62 2.37 5.91 3.58 9 5.17 3.9 2 7.81 4 11.81 5.8.41.19.83.36.67 1a.81.81 0 0 1 -.32.43c-.78.64-1.55.23-2.24-.13-2.8-1.46-5.84-2.39-8.58-4a75.82 75.82 0 0 0 -7.89-3.81 10.79 10.79 0 0 1 -2.38-1.6c-3.12-2.52-6.79-4-10.38-5.64-3-1.36-5.77-3.08-8.67-4.6a20.38 20.38 0 0 0 -2.57-1.3c-.38-.09-.51-.46-.79-.67a24.9 24.9 0 0 1 -2.6-1.13 12.41 12.41 0 0 1 -3.72-1.54c-2.73-1.51-5.63-2.59-8.45-3.86a30.76 30.76 0 0 1 -4.34-2.25 20.74 20.74 0 0 0 -3.1-1.35c-.46-.48.33-.82.13-1.27a1.51 1.51 0 0 1 1.87.27 26.56 26.56 0 0 0 4.41 2.41 53.87 53.87 0 0 0 5.68 2.73c2.74 1.27 5.49 2.51 8.24 3.76.18.1.42.1.67.21z" fill="#7d7d7d"/><path d="m14.79 76.82s-1.34.78-1.39.79a.12.12 0 0 1 0 .19l-.48.29c-.18.17-.37.33-.56.49a.11.11 0 0 1 0 .08c-.18.17-.37.33-.56.49a.14.14 0 0 1 -.05.09c-.28.18-.55.38-.81.58s0 0 0 0a3.79 3.79 0 0 1 -.42.38s0 0 0 0l-.82.7a1.68 1.68 0 0 1 -1 .75c-.11.08-.22.18-.34.25s-.21-.06-.17-.15a2.82 2.82 0 0 1 .54-.75 2.54 2.54 0 0 1 .47-.56 4.67 4.67 0 0 1 .45-.44.63.63 0 0 0 0-.45c-.19-.29-.27-.75-.8-.57a5.69 5.69 0 0 0 -1.42 1.74c-.27.39-.53.79-.81 1.18-.17.23-.38.44-.7.32a.66.66 0 0 1 -.4-.68 2.6 2.6 0 0 1 .22-1.39 17 17 0 0 0 .82-2c.45-1.07.91-2.13 2.31-2.48a26.21 26.21 0 0 0 3.62-1.48.81.81 0 0 0 -.35-1h-.07a3 3 0 0 1 -1.19.42 3.89 3.89 0 0 1 -1.66.55.11.11 0 0 1 -.08 0h-.13a.12.12 0 0 1 -.14-.16 3.92 3.92 0 0 1 1.61-2l.15-.12s0 0 0 0l.13-.09a.1.1 0 0 1 .13 0 4.71 4.71 0 0 1 1.14 0 2.68 2.68 0 0 1 .7 0h.13a.35.35 0 0 1 .26.16.37.37 0 0 1 .11.19c.94 0 1-1.37 1-1.38s-2-.28-2-.33-1.61.08-1.63.06c-.49.22-1.61.75-1.64.78a1.65 1.65 0 0 1 -.18.31 10.45 10.45 0 0 0 -.71 1 .13.13 0 0 1 0 .12l-.24.38a3.94 3.94 0 0 1 -1.15 1.82c-.22.32-.5.23-.81.06a.65.65 0 0 1 -.48-.56 2.26 2.26 0 0 1 .08-1.08 1 1 0 0 0 -1.07-.09c-.42 1.59-.23 2.17 1.2 3 .5.28.61.56.42 1-.1.26-.21.51-.32.77a17.94 17.94 0 0 0 -1 3 3.06 3.06 0 0 0 .5 2.73.85.85 0 0 1 .17 1c-.73 1.43-.33 2.8.22 4.16.94 1.07 1.1 1.09 1.92.28.63-.71.59-.85-.31-1-.74-.09-.92-.68-1.08-1.26a5.91 5.91 0 0 1 -.12-1.79 1.35 1.35 0 0 1 1-1.38 6.3 6.3 0 0 0 2-1.29c1.17-1 2.3-2 3.44-3 .44-.4 1.47-1 1.77-1.51 1.37-.87.98-.94.58-1.12z" fill="#575757"/><path d="m66.72 45.28c-.7-2.31-3-1.34-3.92.77a4.83 4.83 0 0 0 -.46 1.71 2.31 2.31 0 0 1 -1.2 2.07 3.94 3.94 0 0 1 -2 .78c-1.36.13-2.66-2.37-2.38-3a8.32 8.32 0 0 1 1-1.59c.25-.33.65-.67.14-1.11a.85.85 0 0 0 -.27-.95 3.06 3.06 0 0 0 -1.27 1.2 32.55 32.55 0 0 1 -3.28 3.84c-.14.43-1.52 1.1-1.29 1.57.1.24.23.46.54.47a1.66 1.66 0 0 0 1.11-.27c1.05-.69 4.78 2.64 6.91 2a1.66 1.66 0 0 0 1.31-.66.78.78 0 0 1 .87-.39c.51.17.36.6.34 1a1.15 1.15 0 0 0 .13.49 6.65 6.65 0 0 0 .35.83c.18.33.42.49.79.29a1.92 1.92 0 0 0 .3-.61c.11-.79.4-.38.68-.12 1-.61.28-1.5.29-2.23 0-.48 1.21-2.82 1.31-3.82a5.34 5.34 0 0 0 0-2.27zm-2.6 6.72s0 0 0 0a.13.13 0 0 1 -.22 0c-.18-.44.41-1.74.44-1.81s.22-.11.24 0c.04.34-.02 1.63-.46 1.81zm.88-3.77c-1.51 2.48-1.08 0-.52-.85l.56-.73s.8.63.75.67a6.54 6.54 0 0 0 -.79.91z" fill="#5b5b5b"/><path d="m19.3 72.13a2.41 2.41 0 0 1 -.12-1.52 1 1 0 0 0 -.1-.69 3.87 3.87 0 0 1 -.28-1.75c0-1 0-1.91 0-2.86-.36-.23.31-1.24-.72-1-.17.51-.46.72-1 .42a5.53 5.53 0 0 1 -1-.65 2.87 2.87 0 0 0 -2.8-.55 6.07 6.07 0 0 0 -1.9 1c-1 .76-2 1.56-3.07 2.28a7.05 7.05 0 0 0 -1.8 1.73 15 15 0 0 0 -2.11 4.65l.76.94a1 1 0 0 0 .2-.14 3.38 3.38 0 0 1 .42-1.48 1.71 1.71 0 0 1 .38-.6l.26-.43a7.22 7.22 0 0 1 1.08-1.28l.27-.2a22.09 22.09 0 0 1 4.35-3.51c1.84-1.22 2.29-1.14 4.06.17a2.8 2.8 0 0 1 1.17 1.66 3.35 3.35 0 0 1 .2 1.15 3.57 3.57 0 0 1 0 .46.12.12 0 0 1 0 .17.72.72 0 0 1 -.25.42 4.47 4.47 0 0 1 -1.37.62 2.19 2.19 0 0 1 -1.21-.26h-.11a1 1 0 0 1 -.35 0h-.24c-.31.37-.42 1-1 1a.36.36 0 0 1 .24.16.35.35 0 0 1 .07.46c-.18.33-.81.55-1.13.73a5.37 5.37 0 0 1 -.65.29 2.06 2.06 0 0 1 1.07.69 10 10 0 0 0 2.79-1.58 8.79 8.79 0 0 1 1.85-1c.48-.24.85-.13 1 .43 0 .15.06.31.11.46.12.35.25.77.72.6a.66.66 0 0 0 .21-.99z" fill="#616161"/><path d="m18.78 65.31c-.22-.34-.33-.76-.72-1a25.52 25.52 0 0 1 1.54-6.72 2.76 2.76 0 0 1 2-1.9c.45-.09.73-.46 1.07-.73.8-.62 1.29-.51 1.88.32a3 3 0 0 1 .44 2c-.11 1.28.11 2.54.05 3.81a2.46 2.46 0 0 0 -.29 1.5 15.36 15.36 0 0 1 -1.62 7.53 3.07 3.07 0 0 0 -.27 1.15 3.2 3.2 0 0 1 -.12.7.37.37 0 0 1 -.47.27.41.41 0 0 1 -.27-.24 2.59 2.59 0 0 1 .27-1.4 27 27 0 0 0 1.73-7.21 41.09 41.09 0 0 0 0-5.87 2.35 2.35 0 0 0 -.1-.59c-.21-.7-.55-.81-1.27-.45a6 6 0 0 0 -3.18 4 13.18 13.18 0 0 0 -.67 4.83z" fill="#747474"/><path d="m59.3 61.43c-1 .22-1.78 1-2.86 1.14a5 5 0 0 1 -1.88 0c-2.38-.66-4.27-1.88-5.09-4.36a6.42 6.42 0 0 1 -.22-3c.25-.45.22-1 .53-1.43a.84.84 0 0 1 .75-.24c.52.31.31.8.32 1.23a6.23 6.23 0 0 0 .08 1.06c0 .11 0 1.52.41 2 .29.3.5.68.81 1a4.91 4.91 0 0 0 4.39 1.5 5 5 0 0 0 3-1.45c.58-.19 1-.71 1.67-.68.35.22.82.32.86.86s-.32 1-.61 1.45a4.51 4.51 0 0 1 -2.16.92z" fill="#5b5b5b"/><path d="m75.35 65.92c.21.38 2.25 3.48 2.45 3.88a25.8 25.8 0 0 1 2.66 6.12.51.51 0 0 1 -.15.54c-1.1.81-1.18.82-1.7-.35a3.22 3.22 0 0 0 -1.51-1.68c-.23-.32-2-2.34-1.92-3.36a6.56 6.56 0 0 1 -.49-.9l-.26-.53a11.47 11.47 0 0 0 -1-2.38c-.18-.39-.3-.8-.45-1.2s-.12-.54.48-.73c.29 0 4 8.33 4.69 8.22.23-.71-3.11-5.51-3.48-6.79" fill="#5a5a5a"/><path d="m78 48.71c-.16-.28-.41-.2-.65-.18-.71-.56 0-.92.24-1.22 1.41-1.31 2.59-2.82 3.8-4.31a14.94 14.94 0 0 0 2.83-5.32c.13-.46.11-1.08.8-1.18a1.23 1.23 0 0 0 .71 0 10.26 10.26 0 0 1 -2.73 6.5c-.57.62-.92 1.45-1.48 2.12a30.26 30.26 0 0 0 -2.55 3 1.59 1.59 0 0 1 -.97.59z" fill="#818181"/><path d="m127.27 37.27a18.61 18.61 0 0 1 4.07-1.27.78.78 0 0 1 .34.75c0 .16 0 .35-.16.43a11.91 11.91 0 0 1 -4.35 1.34c-.14 0-.26-.17-.35-.3l-.54-.31z" fill="#838383"/><path d="m50.73 51.89a9.21 9.21 0 0 1 1.38-1.48l.51.26a1.16 1.16 0 0 1 .22.31c0 1.37-1.11 2.06-1.93 2.92-.1.11-.3 0-.43-.11h-.7a10.31 10.31 0 0 1 .95-1.9z" fill="#727272"/><path d="m98.23 219.15.22.27a37.39 37.39 0 0 1 -.9 5.67 3.39 3.39 0 0 0 -.11.71c0 .78 0 .9.82 1 1.34.18 2.71.2 4 .51.2.38.67.74.07 1.17a.94.94 0 0 1 -.57.1c-.61-.45-1.1.32-1.68.18a5 5 0 0 0 -2.86.68 1.27 1.27 0 0 1 -1.47-.13 5.47 5.47 0 0 0 -4-.7c-.77.14-1.55 0-2.16.67-.18.2-.42-.09-.56-.28-.08-.73-.66-.8-1.16-.74-2.1.22-4.21.1-6.31.46a35.63 35.63 0 0 1 -4.5.52 6 6 0 0 0 -2.7.89 1.93 1.93 0 0 0 -1 1 .74.74 0 0 1 -.89.43 1.15 1.15 0 0 1 -1-.75c-.18-.44.13-.65.46-.84a13 13 0 0 1 3.68-1.4 55.69 55.69 0 0 1 11.33-1.57h.24c1.6 0 1.62-.06 1.92-1.63.57-.46 1-.16 1.39.26 1.46 1 3 .66 4.58.34.59-.12.78-.75.91-1.3a14.6 14.6 0 0 0 .45-3.9c0-.43 0-.86.08-1.28a1.15 1.15 0 0 1 .82-.91c.47-.15.67.23.9.57z" fill="#4f4f4f"/><path d="m89.82 226.35c-.23-.33-.33-.76-.72-1a11.39 11.39 0 0 1 0-1.43c.27-2.29.23-4.6.48-6.89.15-1.38.11-12.56.26-12.54.21-1.54.45-3.44.65-4.26.35-1.28.21-2.67.36-2.82.07-.58 1.44-8.76 1.5-11.44a56.41 56.41 0 0 1 1.34-8.08c.28-.45 1.32-4 1.76-3.73.18.13-.77 9.71-.81 11.33-.08 3.36-1 6.59-1.45 9.91a23.58 23.58 0 0 1 -.92 4.79 10.29 10.29 0 0 1 -.54 3.41 18.76 18.76 0 0 0 -.86 3.7c.07.66-.24 1.29-.11 1.94a53.48 53.48 0 0 1 0 12.13c-.15 1.3-.14 2.62-.34 3.92-.07.45 0 .95-.6 1.06z" fill="#757575"/><path d="m104.54 228.71c-.7-.4-1.54 0-2.23-.4a1.31 1.31 0 0 1 0-1 39.6 39.6 0 0 1 5.43.52 28.9 28.9 0 0 1 5.13.92.43.43 0 0 1 0 .68c-1.14-.12-2.29-.27-3.44-.37-1.64-.13-3.27-.23-4.89-.35z" fill="#656565"/><path d="m112.85 229.44v-.68c1.63 0 3.2.51 4.83.59.31 0 .62.09.94.13a12.05 12.05 0 0 0 3.34 0h.25c.17.1.44.14.24.44a.65.65 0 0 1 -.2 0c-.3.21-.68 0-1 .19a7.49 7.49 0 0 0 -2 0c-.8-.19-1.63.09-2.42-.15a17.32 17.32 0 0 1 -3.98-.52z" fill="#7e7e7e"/><path d="m122.46 230-.24-.44c1.47-.08 2.93-.35 4.46-.32a7.33 7.33 0 0 1 -4.22.76z" fill="#929292"/><path d="m122 229.51a5.76 5.76 0 0 1 -3.34 0z" fill="#929292"/><path d="m116.9 230a6.59 6.59 0 0 1 2.42.15 6.16 6.16 0 0 1 -2.42-.15z" fill="#929292"/><path d="m121.27 230.16a2.14 2.14 0 0 1 1-.19 1.54 1.54 0 0 1 -1 .19z" fill="#929292"/><path d="m106.11 119.76c-.9.52-1.93.72-2.84 1.24a1.52 1.52 0 0 0 -.88 1.32 60.92 60.92 0 0 0 -.12 6.34 25.74 25.74 0 0 1 -.09 6.2c-.41 2.58-.09 5.18-.08 7.78a45.36 45.36 0 0 0 .68 5.07 15.83 15.83 0 0 1 -.07 5.23 18.5 18.5 0 0 0 -.17 3.57c.48.58.27 1.27.29 1.92-.16 2.06-.6 4.09-.83 6.15-.08.74-.2 4.2-.19 4.33 0 .41-.79.53-1.41.28a25.07 25.07 0 0 1 -.11-8.15c.09-.52 0-1 .09-1.5.16-1.67.8-3.29.58-5a31.12 31.12 0 0 0 .18-5.11 6.18 6.18 0 0 0 -.45-2.21 6.61 6.61 0 0 1 -.48-2.56 13.94 13.94 0 0 1 -.24-3.87c-.14-2.46.58-4.85.43-7.33a18.89 18.89 0 0 0 -.13-3.6c-.16-1.75.26-3.47.23-5.21a1.86 1.86 0 0 0 -.75-1.76 1.1 1.1 0 0 1 0-1.4 1 1 0 0 0 .15-1.08c.3-.69.33-1.48.68-2.13a3.1 3.1 0 0 1 1.82-1.6 1 1 0 0 1 1 .49c.46 1.15.44 1.11 1.6.44.57-.33 1.08-1 1.91-.55a.83.83 0 0 1 .31.62.66.66 0 0 1 -.41.85.79.79 0 0 0 -.51.79.67.67 0 0 1 -.19.44z" fill="#5f5f5f"/><path d="m160.37 81.85a1 1 0 0 1 .49-.47c.42-.14.8-.19 1 .32s-.55.76-.62 1.25a3.38 3.38 0 0 0 -.23.63 1.5 1.5 0 0 1 -.17.46c-.3.44-1 .52-1 1.07.13-.52.74-.73 1.15-1.13a21.41 21.41 0 0 0 4.53-1.98.81.81 0 0 1 .54.43c.69.86 1.64.33 2.47.48h1.44c1.21.08 1.57.43 1.79 1.75-.07.54-.53.65-.93.79a15 15 0 0 1 -7.21 1.12 3.05 3.05 0 0 0 -1.63.25 9.7 9.7 0 0 0 -4.19 1.21c-.47.22-1.14-.42-1.19-1.13a1.77 1.77 0 0 1 .17-1 41.72 41.72 0 0 0 2.8-3.15c.31-.23.7-.44.79-.9z" fill="#4a4a4a"/><path d="m126.61 82.16c-.7 1.15-3.36 4.42-3.39 5.26-1.43 2.06-2.56 4.33-4.14 6.29-.52.74-1.1 1.44-1.65 2.15a.72.72 0 0 1 -.49.26.93.93 0 0 1 -.37-.06 1.39 1.39 0 0 1 -.44-.36c-.36-.44-.09-.82.15-1.18 1.69-2.53 3.24-5.15 5-7.63a9.79 9.79 0 0 0 1.27-1.89c1-2 7.11-11.31 8.17-13.17 2.32-4.06 5.08-7.83 7.69-11.69a2.09 2.09 0 0 1 1.32-1.14c.41 0 .08 1 .22 1.25l-.23.47c.06 1.09-.76 1.59-1.46 2.17-1.26 1.52-11.14 18.44-11.65 19.27z" fill="#7f7f7f"/><path d="m150.07 51.46a8.73 8.73 0 0 0 2.76-.41c.43-.08.85-.2 1.29-.27a.76.76 0 0 1 .85.27.78.78 0 0 1 -.15 1l-.47.53-.22.24a1.52 1.52 0 0 1 -1.17.78l-1.24.64c-.33.11-.48 0-.55-.34-.27-.74.48-.82.76-1.19-.89-.19-1.53.68-2.39.5-.21 0-.42.08-.63.13a4.09 4.09 0 0 1 -1 .11c-.77 0-1.44.51-2.22.45-.47 0-1 0-1.15-.62a1 1 0 0 1 .63-1.17 4.53 4.53 0 0 1 1-.48c3.5-1.11 6.32-3.36 9.15-5.55a26.78 26.78 0 0 0 4-3.2c-.47-.2-1 .32-1.47-.13a.66.66 0 0 1 -.11-.73l.53-.41c.83-.28 1.65-.57 2.48-.84a5 5 0 0 1 .92-.23c.75-.09 1.08.31.75 1a17.5 17.5 0 0 1 -1.46 3 14.53 14.53 0 0 1 -1.36 1.15 19.49 19.49 0 0 0 -3.82 2.81c-.3.2-4.13 1.95-5.71 2.96z" fill="#6c6c6c"/><path d="m171.42 84.74a1.34 1.34 0 0 0 -1.48-.95 4.15 4.15 0 0 1 -1.88-.21c.06-.46.41-.57.78-.57a33.77 33.77 0 0 0 4.6-.43c.24.2.58.34.4.75a1.92 1.92 0 0 0 1.25.32 28.58 28.58 0 0 1 4.5.67 6.23 6.23 0 0 1 2.76 1.61 2.64 2.64 0 0 1 .64 3 6.28 6.28 0 0 1 -2.38 3.07c-.82.57-1.65 1.12-2.47 1.67-.29.18-.65.08-.95.23a1 1 0 0 1 -.71-.28c-.25-.6.09-.88.59-1.09a9.32 9.32 0 0 0 2.51-1.6c1.78-1.56 1.62-3.42-.44-4.57a10.29 10.29 0 0 0 -6.14-1.12c-.57.05-1.31.45-1.58-.5z" fill="#656565"/><path d="m163.27 94.65a5.68 5.68 0 0 1 -3.79-1.2c-.5-.43-1.25-.45-1.76-1a3.94 3.94 0 0 1 -1.33-2.06c-.16-.84-.31-.82-1.18-.63a11.48 11.48 0 0 0 -3.21 1.46c-1 .67-2.3 1-3.16 1.91-.53.11-1.08.35-1.45-.3.27-1.24 8.42-4.15 9.18-4.48 1.15-.46 2.29-.95 3.5-.21a.67.67 0 0 1 .06.93 1.48 1.48 0 0 1 -.82.62c-.82.36-.9.81-.24 1.43a8.44 8.44 0 0 0 3.26 1.93c.47.15 1.06.14 1.29.73-.05.33.06.7-.35.87z" fill="#606060"/><path d="m171.38 68.63a13 13 0 0 1 3.68-1.63 3.41 3.41 0 0 1 1.65 0 19 19 0 0 0 3 .82c.51 0 .67.42.43.87a5.58 5.58 0 0 1 -.75 1.07 66 66 0 0 1 -5.54 5.92c-.58.74-1 1.6-2 1.92-.25-.17-.44-.39-.67-.58-.39-.65.16-.95.5-1.29a63.47 63.47 0 0 0 5.29-5.34c.7-.87.68-1.09-.34-1.51a3 3 0 0 0 -2.86.26c-.35.14-.71.19-1.06.32a1.33 1.33 0 0 1 -.83.14c-.36-.26-.66-.5-.5-.97z" fill="#7a7a7a"/><path d="m161.57 81.82-.71-.44c1-1.2 1.71-2.57 2.59-3.84 1.67-2.4 2.93-5.12 5.32-7 .71-.2.79.32.91.8a15.71 15.71 0 0 1 -2.12 3c-1.63 2-2.7 4.31-4.17 6.39a3.1 3.1 0 0 1 -1.09 1.13c-.3.14-.51.33-.73-.04z" fill="#6a6a6a"/><path d="m173.84 83.33-.56-.29c-.3-.62.23-.77.57-1a23.88 23.88 0 0 0 5.44-4c.4-.42.93-.81.62-1.53-.15-.29-.6-.46-.33-.9a5.82 5.82 0 0 1 2.45-.87c.64-.09.9.17.83.81a2.88 2.88 0 0 1 -.76 1.84c-1.8 1.75-3.52 3.56-5.87 4.63a11 11 0 0 1 -2.39 1.31z" fill="#747474"/><path d="m177.18 93.63-.52-.27c-.71-1.23-4.34-2.49-5.67-2 0 0-.05.06-.07.09a1.17 1.17 0 0 0 -.17.73.57.57 0 0 0 0 .14c.12 0 .24.09.36.15a.07.07 0 0 1 .06 0 10 10 0 0 1 1.05.48.94.94 0 0 0 .15.06c.36.07.72.13 1.07.22s.93.22 1 .57a.12.12 0 0 1 0 .21.1.1 0 0 1 -.12.07 5.67 5.67 0 0 1 -1.23.22.09.09 0 0 1 -.09 0h-.31a1.23 1.23 0 0 1 -.6.34c-.67 0-1.15.48-1.79.59-.39.07-.37.45-.12.75a4.73 4.73 0 0 0 3-.17 4.34 4.34 0 0 1 1.51-.32c.27-.21.6-.08.9-.14 1.62-.27 1.6-.61 1.59-1.72z" fill="#575757"/><path d="m140 60.25a1.11 1.11 0 0 1 -.47-.49 5.84 5.84 0 0 1 0-3.38c.54-.44.67-1.11 1.24-1.53 1-.26 1-.25.86.65-.38 2-.11 2.33 1.93 2a.76.76 0 0 1 .57.08c.5.4.35.8 0 1.18a5.49 5.49 0 0 1 -3 .79 1.22 1.22 0 0 0 -1.13.7z" fill="#616161"/><path d="m172.63 95.06a2 2 0 0 1 -1.28.48 1.32 1.32 0 0 0 -1.13.49 13.38 13.38 0 0 1 -4.62-.67 4.53 4.53 0 0 0 -1.14-.28l-1.19-.43c-.08-.25-.17-.49-.25-.74.23-.67.72-.4 1.16-.33s.64.27 1 .32.7.19 1.06.29a3.67 3.67 0 0 0 1.39.28c.63 0 1.22-.46 1.86-.1a11.4 11.4 0 0 0 2.4.35c.28.03.67-.17.74.34z" fill="#6e6e6e"/><path d="m179.58 75.62a2.67 2.67 0 0 0 1 .28c.27.78-.43.84-.84 1-1.67.73-3.42 1.26-5.07 2-.92.45-1.9.79-2.85 1.18-.49.2-1 .54-1.55.09a1 1 0 0 1 -.34-.71 5.21 5.21 0 0 1 2.88-1.46c.34-.08.71 0 1-.18a45.55 45.55 0 0 0 4.64-1.82 3.46 3.46 0 0 1 1.13-.38z" fill="#858585"/><path d="m144.05 58.78c0-.28 0-.55-.27-.7-.29-.67.25-.87.66-1a35 35 0 0 0 5.81-3.28c.37-.24.79-.65 1.22 0 .08.16.16.33.25.5-2.17 1.4-4.18 3-6.6 4-.37.11-.72.31-1.07.48z" fill="#7e7e7e"/><path d="m169.06 71.36a.78.78 0 0 0 -.29-.79 10 10 0 0 1 2.61-1.94l.8.3c-.18 1.44-1.91 1.43-2.43 2.58-.1.23-.5.13-.69-.15z" fill="#8d8d8d"/><path d="m160.37 81.85c.2.7-.33.8-.79 1a3 3 0 0 1 .79-1z" fill="#6a6a6a"/><path d="m146.46 47.77a1.44 1.44 0 0 0 -1.16-.45c-.76-.56-.05-.9.24-1.21a117.08 117.08 0 0 1 8.54-9.22c-1.76.94-3.59 2.81-5.54 4.52-.54 0-1.2.08-.9-.84a23.39 23.39 0 0 1 5.4-4.46 37.79 37.79 0 0 1 4.2-2.5c.12-.15.28-.13.44-.11a.26.26 0 0 1 .26.14 1.49 1.49 0 0 1 -.39 1.31 49.2 49.2 0 0 1 -4 4.39c-1.93 2-3.81 4-5.56 6.2-.3.37-.63.71-1 1.06s.25.78-.09 1.14c-.13.12-.28.17-.44.03z" fill="#777"/><path d="m147.12 31c1.8.58 1.15 1.88 1 2.54a14.78 14.78 0 0 1 -1.7 5.13c-.19-.33-.91.12-1.09-.21-.41-.47.1-1.45.23-1.89a15.38 15.38 0 0 0 .56-2.68c.06-.69-.22-.8-.76-.47-1.13.72-2.3 1.35-2.85 2.75-.44 1.14-1.22 2.14-1.77 3.24-.18.37-.42.6-.81.2-.07-.34.18-.85-.46-.89l-.17-.08c-.34-.39-.17-.78 0-1.17.87-2 6.93-6.61 7.78-6.47" fill="#757575"/><path d="m146.75 47.61c.48-.32-.15-.75.26-1 .43.19.77-.09 1.12-.25 2.07-1 4.13-1.92 6.13-3a11.14 11.14 0 0 1 3.45-1.36l.52.27c.36.73-.3.81-.68 1-2.69 1.1-5.2 2.58-7.9 3.67a14 14 0 0 0 -1.81.92c-.54.35-2.38.86-1.09-.25z" fill="#909090"/><path d="m147.64 40.57c.24.37.52.15.79.06a.51.51 0 0 1 .19.8 9.9 9.9 0 0 1 -2.82 2.45c-.16.1-.37-.05-.53-.17-.22-.48-.56-1 0-1.45.32.43.6.15.89-.06.58-.44.91-1.15 1.48-1.63z" fill="#969696"/><path d="m92.43 112a68.91 68.91 0 0 0 -8.26-2.63 59.31 59.31 0 0 1 -11.5-4.47c-5.72-3.2-11.44-6.4-17.25-9.42-5-2.58-21.28-10-21.59-9.59a1.77 1.77 0 0 0 -.41.82c.77.44 6.71 3.75 7.18 4 4 1.9 8.06 3.59 12 5.56.54.27 11.21 6.16 13.35 7.28a12.25 12.25 0 0 1 2.16 1.25 32.19 32.19 0 0 1 5.13 2.71l.33.06a10.92 10.92 0 0 1 1.76.65 63 63 0 0 0 8.2 3.13 39.25 39.25 0 0 1 8.85 2.85.92.92 0 0 0 1.12 0 2.16 2.16 0 0 0 .71-.9c-.66-.3-1.04-1.12-1.78-1.3z" fill="#808080"/><path d="m17.69 79.2a.86.86 0 0 0 -1.36-.45c-.55.3-1.07.68-1.61 1 0 0 0 0-.05 0l-.13.11a.15.15 0 0 0 0 .07c-1.56 1.84-3.11 3.7-4.7 5.51a12 12 0 0 1 -2.64 2.62.87.87 0 0 1 .31 1 1.69 1.69 0 0 0 1-.61 13.45 13.45 0 0 1 1.66-1.63 32.17 32.17 0 0 1 3.78-4.54 5.53 5.53 0 0 1 3.41-2.41c.39-.02.44-.33.33-.67z" fill="#656565"/><path d="m24.48 80.58a2 2 0 0 1 -.57-.15h-.09c-.06 0-.87-.45-1.24-.69l-.18-.07a2.8 2.8 0 0 1 -1.34-1 2.21 2.21 0 0 1 .6-3c.28-.27.68-.44.51-.95.21-.22.66-.27.63-.65s-.42-.27-.68-.34l-.68.52c-.3.22-.69 0-1 .21a1.61 1.61 0 0 0 -1 1.91 3 3 0 0 1 -.28 2c-.47.83-.13 1.32.37 1.86.29.3.48.85 1 .73.78-.19 1.44.22 2.17.26a2.1 2.1 0 0 1 .87.3c.44.18.8.19.92-.39a1.12 1.12 0 0 0 -.01-.55z" fill="#636363"/><path d="m32.31 84.63c-.09-.07-2.09-1.16-2.35-1.3a23.48 23.48 0 0 1 -2.58-1.28c-.7-.39-2.78-1.92-3.32-1.37a1 1 0 0 1 -.53.75 3.64 3.64 0 0 0 1.08.72 36.54 36.54 0 0 1 3.33 1.62c1.78 1 3.65 2 5.48 2.9a1.27 1.27 0 0 0 .51-.54.62.62 0 0 0 .1-.31 12.73 12.73 0 0 1 -1.72-1.19z" fill="#747474"/><path d="m13 76.59c0 .61-.44.88-.93 1.1a10 10 0 0 0 -2.92 2l-.25-.69a4.92 4.92 0 0 1 4.1-2.41z" fill="#6b6b6b"/><path d="m21.42 74.21a1.78 1.78 0 0 1 -1 .21 2 2 0 0 1 1-.21z" fill="#7d7d7d"/><path d="m86.94 98.67c-.77-2.44-1.7-4.82-2.6-7.21a19.48 19.48 0 0 0 -.92-3 56.94 56.94 0 0 0 -3.86-9.07c-.82-1.49-1.43-3.1-2.38-4.54-.08-.12-.05-.3-.08-.46a1.43 1.43 0 0 1 1.86 1c.19.49.4 1 1.09.84s.84.3 1 .71c.75 2 1.65 3.87 2.39 5.84.56 1.69 4.56 13.38 4.72 15.22a1 1 0 0 1 -.59 1.15c-.47.21-.47-.24-.63-.48z" fill="#4e4e4e"/><path d="m124.38 74.67c1.21-1.44 2.07-3.13 3.22-4.61 1.28-1.64 2.5-3.33 3.74-5 .79-1 1.58-1.93 2.38-2.89.32-.46.65-.4 1 0a4.51 4.51 0 0 1 -1 3c-2.33 3.8-5.08 7.34-7.26 11.24a2.85 2.85 0 0 1 -.41.44c-.16.62-.75 1-1 1.51a52.14 52.14 0 0 1 -3.83 6.11 5.39 5.39 0 0 0 -.75 1.24c-.12.25-.08.55-.29.77-1.79 2.58-3.62 5.12-5.48 7.65-.77 1-2.83 3.35-3.1 3.3a1 1 0 0 1 -.65-.35c-.5-.92.1-1.63.58-2.25a88.93 88.93 0 0 0 5-7.52c.39-.63.55-1.34.94-2a9.07 9.07 0 0 0 1-1.76c1.27-1.64 2.27-3.46 3.37-5.21.32-.45 2.1-3.04 2.54-3.67z" fill="#787878"/><path d="m80.2 69.64c.35.8 5 12.49 4.92 12.66-.3.4-.62 0-1 0-.73 0-3.74-7.81-4.89-10.73-.16-.41-.83-2.67-1.16-3.36-.09-.36-.29-.67-.4-1-.88-1.31-.93-2.91-1.57-4.31a.65.65 0 0 1 .25-.91l.77-.27c.88 1.74 1.38 3.62 2.14 5.41a26 26 0 0 0 .94 2.51z" fill="#6d6d6d"/><path d="m134.05 63.09c-.1-.23-.1-.94-.33-.91.09-.24 1.44-1.79 1.92-2.43.8-.8 1-1.2 1.82-2.13a3.38 3.38 0 0 1 1.24-.83c.38.91-.27 1.52-.76 2a32.85 32.85 0 0 0 -2.49 3c-.27.41-.7 1.69-1.4 1.3z" fill="#919191"/><path d="m137.24 39.07c-.58-.54-2.32-2.67-4.47-2.36-.47.06-1.57.78-2 .79 0-.24.61-1.24.61-1.48h.19c.31-.19.64-.09 1-.19l2.11-.23a17.56 17.56 0 0 1 4.08 1.81c.36.34.39.87.73 1.22v.1c-.49.27-1.7.12-2.25.34z" fill="#6f6f6f"/><path d="m77.1 37.23a4.56 4.56 0 0 0 -.9 1 57.91 57.91 0 0 1 -4.31 4.77 9.49 9.49 0 0 1 -.94.85 3 3 0 0 0 -.81 3.21c1.49.64 4.7-3 4.61-4.84 0-.19-1.55 1.87-1.7 1.73a16.36 16.36 0 0 1 -2.17 2 21.16 21.16 0 0 1 1.81-2.64c.31-.33.63-.65 1-1 .1-.09.68-1.13 1-1.26a.13.13 0 0 1 .18.09c.06.44-.71 1.31-.76 1.4s-.21.31-.32.46a3.42 3.42 0 0 0 .71-.6 1.12 1.12 0 0 0 .16-.28 3.66 3.66 0 0 1 .28-.56c.13-.18.37-.16.53-.27a8.45 8.45 0 0 0 .78-1c.42-.75.79-1.52 1.18-2.29z" fill="#777"/><path d="m73.25 48.73c.13-.69.5-1.31.57-2a.89.89 0 0 1 .61-.79c.09 1.22.33 2.53-.46 3.5-.1-.19-.62-.54-.72-.71z" fill="#8f8f8f"/><path d="m67.74 41.09v1.65a2.7 2.7 0 0 1 -.24-2.15z" fill="#6c6c6c"/><path d="m101.38 114.55c-.11.06-2 1.3-2.12 1.39a.12.12 0 0 1 -.22-.07c0-.65-.56-2.06-.56-2.38s-.13-.93-.3-1-.41.85-.47.77a7.7 7.7 0 0 0 -.22-.91 11.85 11.85 0 0 0 -1-1.16s-1.48-1.08-1.48-1.08l-.63-.38s-.37-.31-.53-.41l-.41-.24-.68-.55c-.09-.07-.19-.14-.29-.23s-.48-.67-.49-.68-.54-1.33-.54-1.34l-.22-.53c-.18-.48-.51-1.47-.56-1.47-.28 0-.41.18-.55.37a.73.73 0 0 0 -.07.4.11.11 0 0 1 .1 0 2.63 2.63 0 0 1 .35 1.61 3.43 3.43 0 0 1 -.07 1.1.13.13 0 0 1 -.18 0 2.24 2.24 0 0 1 -.48-2.18l.08-.31s.06-.29.11-.3h.08a2.82 2.82 0 0 1 0-.41c-.32-.53-.74-.36-1.16-.17a1.27 1.27 0 0 0 0 1.14c0 .95 0 .51-.83.32-.12 0-.23-.1-.35-.12s-.52 1.1-.6 1.18c.28.4 1 .24 1.47.37a1.8 1.8 0 0 1 1.34 1.33 9.27 9.27 0 0 0 .45 1c.2.36.52.31.85.23.56-.17.79.26 1 .61a5.48 5.48 0 0 0 1.88 2.26c.36.19.11.45-.21.55a.45.45 0 0 0 -.49.5c-.23.44.05.66.37.86a3.4 3.4 0 0 0 1.76.64 3.74 3.74 0 0 1 2.48 1 3.4 3.4 0 0 0 .52.31 27.06 27.06 0 0 0 3.62-2c.04-.16-.78.18-.75-.02z" fill="#4b4b4b"/><path d="m9 80c0 .57-.35.88-.72 1.21a1.23 1.23 0 0 1 .72-1.21z" fill="#6b6b6b"/><path d="m63.83 53.6c-.2-.2-.17-.47-.21-.72.65.12.38.42.21.72z" fill="#4c4c4c"/><path d="m60.51 58.38a8.26 8.26 0 0 1 2.66-.75c.23-.06.49-.12.61.17a.47.47 0 0 1 -.24.61c-.58.32-1.46 1.8-2.06 2.1-.18-.3-.65-2.06-.97-2.13z" fill="#797979"/><path d="m72.06 64.36a23.86 23.86 0 0 0 -2.06-3.9c-.41-.65-.87-1.13-1.74-.91a1 1 0 0 1 -.8-.2c-.28-.76.56-.49.75-.82s.11-.78.17-1.16c0-.19.06-.41.28-.47s.39.17.51.37a4.25 4.25 0 0 0 .25.39 1.29 1.29 0 0 1 1.28.62 15 15 0 0 1 1.88 4.6 9.2 9.2 0 0 0 .42 1.12c.19.36 1 1.62.43 1.84-.29.16-.36-.11-.43.2z" fill="#767676"/><path d="m74.2 63.16c.23 1.1 1 2 1.28 3.07l-.79.53a19.16 19.16 0 0 1 -1.69-3.64c.06-.57 0-1.37.7-1.24s.77.68.5 1.28z" fill="#6d6d6d"/><path d="m101.12 188.2a22.15 22.15 0 0 1 -.62 4.13c-.07.51-.55 3.32-.68 4.22a81 81 0 0 1 -1.58 9.45 19.34 19.34 0 0 0 -.19 7.58 47.71 47.71 0 0 1 .39 6c-.61-.2-1.12-.31-1.14.31s0 1-.06 1.54c-.81.07-.75-.56-.78-1-.08-1.18 0-2.37 0-3.55 0-.67-.43-5.69-.26-7.53.06-.7-.36-1.43.11-2.1s2.13-13.57 2.79-16.71a8.3 8.3 0 0 1 .12-1.41l.06-.41c0-1.14.07-5.22 1.16-5.94.65.29.4 3.88.39 4.36a2 2 0 0 0 .29 1.06z" fill="#616161"/><path d="m101.83 228.28c-.59-.07-1.21.12-1.76-.21a3 3 0 0 1 1.76.21z" fill="#656565"/><path d="m93.2 158.22a15.79 15.79 0 0 0 .5-5.6 14 14 0 0 0 -.26-2.67 3.43 3.43 0 0 1 0-1.39c.41 0 .79-1.38 1.2-1.38a73 73 0 0 1 .73 7.27 7.12 7.12 0 0 1 0 2.21 9.43 9.43 0 0 0 -.92 4.21c0 1.67-.72 3.24-.62 4.93 0 .67-.09 1.34.66 1.73.2.11.2.42.25.66a75.55 75.55 0 0 1 .74 8.27c-.21 1-.11 2-.86 2.82-.23.28.07.7-.24 1a2.05 2.05 0 0 0 -.68 1.19c0 .14-.05.34-.29.2a1 1 0 0 1 0-.91 3.16 3.16 0 0 0 -.14-2.36 3.7 3.7 0 0 1 -.12-1.68c-.06-.72-.81-6.8-.9-7.14-1.09-2.65-.55-5.32-.07-8 .14-.82.34-1.63.42-2.47.05-.38.07-.81.6-.89z" fill="#696969"/><path d="m118.83 113.76a1.81 1.81 0 0 0 1-.46c.8-.13 1.38-.78 2.19-1-.39.55-.39.54-1.28 1.06-.49.28-.94.6-1.41.91-1.82.53-3.31 1.76-5.06 2.45a9.41 9.41 0 0 1 -1.66.66.57.57 0 0 1 -.32-.47.64.64 0 0 1 .43-.75 31.51 31.51 0 0 1 5.77-2.44.68.68 0 0 1 .34.04z" fill="#a2a2a2"/><path d="m121.27 110.44a6.81 6.81 0 0 0 -2.55 1.16c-.74.45-1.49.85-2.26 1.23a4.28 4.28 0 0 1 -2.15 1.74c-2 1.13-4.2 2.08-6.2 3.3-.36.22-.82.64-1.24 0l-.28-.52c-.35-.81.39-1 .81-1.2 3.68-2 7.34-4 11.07-5.88 2.85-1.45 5.87-2.61 8.51-4.47a8 8 0 0 0 2.86-1.62c5.07-2.87 10-6 15.42-8.2.46-.19.77-.56 1.21-.75.88-.23 1.78-.63 2.6.17-.18 1.18-1.32.63-1.92 1.07a21.37 21.37 0 0 0 -3.38 1.42c-1.45.72-2.88 1.49-4.31 2.26-.49.26-.93.6-1.4.9-2.3 1.31-4.82 2.26-6.92 4a8.11 8.11 0 0 1 -2.4 1.31 15.94 15.94 0 0 0 -3.9 2 5.39 5.39 0 0 1 -1.21.52 2.23 2.23 0 0 0 -1.18.77 2.08 2.08 0 0 1 -.76.51z" fill="#7a7a7a"/><path d="m147.67 92.7a3.83 3.83 0 0 0 1.14.43c-.45.45-1.09.49-1.63.74a7.41 7.41 0 0 1 -2.05 1.73 5.45 5.45 0 0 0 -2.13 1.05c-2.44 1.7-5.25 2.69-7.86 4.06a77 77 0 0 1 -7 3.52c-.89.36-1.8.67-2.68 1.06a.87.87 0 0 1 -1 0 .86.86 0 0 1 -.34-.43 1.1 1.1 0 0 1 0-.36c1.85-1.78 4.3-2.46 6.54-3.53s4.75-2 7-3.26c.6-.34 1.19-.69 1.08-1.54 0-.47 2.43-1.41 3.41-1.31.43 0 4.24-2.28 4.81-2.51.3-.19.62-.13.71.35z" fill="#787878"/><path d="m121.69 110.17.76-.51a1.13 1.13 0 0 1 -.76.51z" fill="#bcbcbc"/><path d="m111.88 117.86c-1.68.63-3.39 1.18-5 2h-.76l-.23-.25c-.23-.54.33-.68.55-.8a41.05 41.05 0 0 1 5.29-2.11.65.65 0 0 1 .91.3v.46z" fill="#888"/><path d="m101.7 175.65v-.2a.77.77 0 0 1 0-.37c0-.13 0-.26 0-.39s-.1-.48-.1-.55a2.19 2.19 0 0 1 .14-.56.55.55 0 0 1 -.1-.58 6.8 6.8 0 0 0 .17-3.32.5.5 0 0 0 0-.21c-.42-.34 0-.84-.22-1.21a7.49 7.49 0 0 0 -.61-.51c-.38-.25-.55 0-.64.32a2.16 2.16 0 0 0 .28 1.64 17.08 17.08 0 0 1 0 4.79 9.77 9.77 0 0 0 -.4 1.47 3.81 3.81 0 0 1 0 1 19 19 0 0 0 -.25 5.31 8.44 8.44 0 0 0 0 1c.37.57 0 1.17.09 1.75a.6.6 0 0 0 .33.66v1.51a.91.91 0 0 0 .7.94c-.06-.94.58-1.89.19-2.79s.24-5.42.24-5.46a3.41 3.41 0 0 1 .06-.85 0 0 0 0 1 0 0s0-.67 0-.74c0-.41 0-.83 0-1.25a.13.13 0 0 1 0-.09.11.11 0 0 1 -.07-.13 5.44 5.44 0 0 0 .19-1.18z" fill="#525252"/><path d="m107.59 115a12.68 12.68 0 0 1 -4.37 2.63 1.72 1.72 0 0 0 -.92-.22 25.9 25.9 0 0 0 3.62-1.79 13.92 13.92 0 0 1 1.67-.62z" fill="#868686"/><path d="m100.07 122.24a5 5 0 0 1 -2.06.62c.27-.75.87-.84 1.3-1.1s.61-.94 1.11-1.24c.18.26.53 0 .74.25 0 .42-.36.46-.59.63s-.57.4-.5.84z" fill="#b2b2b2"/><path d="m170.45 79.94a6.31 6.31 0 0 1 -2 1 2.87 2.87 0 0 0 -1.31.81 6.2 6.2 0 0 1 -1.47 1l-.23-.43c-.26-.22-.14-.47-.06-.71a1.05 1.05 0 0 1 .54-.72c1.76-.37 2.92-1.64 4.13-2.81a10.54 10.54 0 0 1 1.38-1.29 1 1 0 0 1 .46.42l-.28.29c-.23.22-.45.44-.66.68s-.56.6-.83.92c-.12.15 0 .28.12.36z" fill="#626262"/><path d="m160.87 84.08h-.22l-.05-.47c-.21-.54.28-.41.5-.53a8.22 8.22 0 0 1 2.16-1c.28.23.18.46 0 .68-.77.52-1.78.55-2.39 1.32z" fill="#6a6a6a"/><path d="m161.1 83.07-.49.53c-.19-.06-.43-.09-.38-.35s.33-.4.61-.43z" fill="#7f7f7f"/><path d="m116.7 95.82-.3-.31a3.57 3.57 0 0 0 -1 1 .64.64 0 0 1 -.42.4 4.6 4.6 0 0 0 -2.29 1.65c-1 1-1.94 2.12-2.83 3.24-.73.93-1.65 1.77-1.7 3.09 0 .17-.18.34-.3.5-.54.7-1.09 1.37-1.62 2.08-1 1.26-1.89 2.54-2.83 3.82-.64 0-.25-.42-.26-.68a.85.85 0 0 0 0-.23.56.56 0 0 0 0-.68.7.7 0 0 0 -.94.1c-.24.27-.49.53-.71.82s-.49.84-.76 1.24c0 .08-.2.09-.22 0a4.85 4.85 0 0 0 -.14-.53 6.77 6.77 0 0 1 -.4-.95c0-.09-.11-.18-.17-.27s0 0 0 0a3.44 3.44 0 0 0 -1-.87 3.92 3.92 0 0 1 -.74-.77 13.57 13.57 0 0 1 -1-1.65 1.23 1.23 0 0 0 -1.38-.86 1.09 1.09 0 0 0 -.81.39c-.46.49-.13 1 0 1.42a12.22 12.22 0 0 0 2 2.59c.21.29.57.54.65.86.14.6.27 1.16.36.18a1.51 1.51 0 0 1 .12-.31.54.54 0 0 1 .79 0 1.6 1.6 0 0 1 .35.47c.13.22.39 1 .45 1.13a10 10 0 0 0 .7 1.12c.14.22.33.63.58.74a2.2 2.2 0 0 0 1 0 .14.14 0 0 1 .11 0 3.84 3.84 0 0 1 .72-.79c1.52-1 3-2.06 4.44-3.2.06-.49-.26-.29-.48-.26a8.63 8.63 0 0 1 -1.9.79c.8-1 1.24-1.88 1.89-2.68.86-1 1.77-2 2.65-3.06a21 21 0 0 1 2.85-3.17 6.26 6.26 0 0 0 1.52-1.43c.12-.38.44-.5.78-.6a34.28 34.28 0 0 0 2-3.23c.37-.35.19-.71.24-1.1z" fill="#4a4a4a"/><path d="m160.63 88.34c.37.12.75.24 1.11.38a.42.42 0 0 1 .33.44.34.34 0 0 1 -.44.28 7.78 7.78 0 0 1 -2-.36l.23-.71z" fill="#787878"/><path d="m173.59 68.43a1.49 1.49 0 0 1 -1 .22 2.11 2.11 0 0 1 1-.22z" fill="#8d8d8d"/><path d="m174.51 94.08a.1.1 0 0 1 -.12.07 5.67 5.67 0 0 1 -1.23.22.09.09 0 0 1 -.09 0 5.74 5.74 0 0 1 -.94 0 10.09 10.09 0 0 1 -2.13-.37 16.33 16.33 0 0 1 -2.06-.63c-.42-.16-1-.38-1.21-.82s.06-.77.48-.87a1 1 0 0 1 .3 0 3.88 3.88 0 0 1 .94 0 4.85 4.85 0 0 1 1 .31c.4.14.82.18 1.23.3a3.85 3.85 0 0 1 .47.19v-.82a14.86 14.86 0 0 0 -6.07-1.1 5.34 5.34 0 0 0 -1.73.41.51.51 0 0 0 -.31.77 1.62 1.62 0 0 0 .82 1 10.36 10.36 0 0 0 1.52.68 3 3 0 0 0 1.72.66.46.46 0 0 1 .2 0c.56.38 1 1 1.85.73a13.69 13.69 0 0 0 3.44.19 4 4 0 0 1 1.21-.42.81.81 0 0 0 .7-.54z" fill="#464646"/><path d="m165.17 94.37a1.74 1.74 0 0 1 1 .2 1.72 1.72 0 0 1 -1-.2z" fill="#b0b0b0"/><path d="m170.93 78.21a1.14 1.14 0 0 1 .66-.68 1.45 1.45 0 0 1 -.66.68z" fill="#7a7a7a"/><path d="m89.08 104.71a2.21 2.21 0 0 0 -.23.94c-.7-2.31-1.41-4.62-1.91-7 .2.1.38.14.43-.16a5.77 5.77 0 0 0 .08-.58c.66-.22.7.3.83.7a31.78 31.78 0 0 1 .86 5.5c.04.32.3.67-.06.6z" fill="#797979"/><path d="m111.15 96.72c-.21.24-.43.47-.62.72l-2.71 3.63a1 1 0 0 0 -.94.6c-1.46 2.32-2.77 4.72-4 7.13a1.43 1.43 0 0 0 -.22.59.08.08 0 0 1 0 .08.6.6 0 0 0 .37.45l.28.51a2.68 2.68 0 0 0 .35-.48 62.36 62.36 0 0 1 3.43-6 30.24 30.24 0 0 1 2.57-4.16c.72-.9 1.38-1.84 2-2.81z" fill="#838383"/><path d="m84.56 81.15a5.58 5.58 0 0 1 .69 1.51q1.47 3.84 3 7.66a7.48 7.48 0 0 0 .39.74c.51 0 .65.36.81.73a27.25 27.25 0 0 0 2.45 4.62c1.85 2.8 3.05 5.93 4.55 8.9a.66.66 0 0 1 -.25 1l-.87.34-.23-.49c0-.17 0-.25-.19-.29-.81-1.27-1.33-2.7-2-4a13.88 13.88 0 0 0 -2.63-3.87 1.26 1.26 0 0 1 -.3-.5c-.77-1.92-5.19-13.42-5.32-13.88a12.41 12.41 0 0 1 -.86-2.44 1 1 0 0 1 .76-.03z" fill="#595959"/><path d="m74.7 41.06a.13.13 0 0 1 .11.09c.06.44-.71 1.31-.76 1.4-.27.44-.6.84-.91 1.25l-.31.44.24.22.45-.21.66-.79a2.35 2.35 0 0 0 .5-.75c.25-.47.49-.94.73-1.41-.2-.18-.41-.36-.71-.24z" fill="#8d8d8d"/><path d="m68.2 58.53-.75.82a2.55 2.55 0 0 1 -.39-.24c-.27-.28-.67-.63-.4-1s.68 0 1 .2z" fill="#8e8e8e"/><path d="m91.05 109.25c0 .54 0 1.08-.08 1.61a1.4 1.4 0 0 1 -.64-1.17 1.73 1.73 0 0 0 .72-.44z" fill="#888"/><path d="m89.34 104.18c.22-.38.17-1.08.79-1s.57.67.64 1.13a2 2 0 0 1 0 .35l-.44.25a.43.43 0 0 1 -.46 0l-.8-.23c.09-.14.08-.31.27-.5z" fill="#717171"/><path d="m96.06 118.59a4 4 0 0 1 2.14-2.65l.28.29a6 6 0 0 0 -2 2.61c-.23.16-.37.01-.42-.25z" fill="#8e8e8e"/><path d="m96.06 118.59.45.25a2 2 0 0 1 .07 2 7.16 7.16 0 0 0 -.59 2.79 22.74 22.74 0 0 0 .05 4.88.85.85 0 0 0 .3.71 5.07 5.07 0 0 0 .9-2.11c0-.3.06-.56.35-.7a.54.54 0 0 1 .66 0c.18.15.13.35.06.55s-.09.21-.14.32a22 22 0 0 0 -1.83 8.59c0 1.44-.25 2.85-.31 4.28a9 9 0 0 1 -.84 3.84c-.33.75-.25 1.63-.58 2.41-.26.46 0 1-.21 1.46 0 .33-.25.64-.05 1-.48.35-.73.06-.95-.33a.76.76 0 0 1 0-.21 7.21 7.21 0 0 1 .2-1v-.41a3.94 3.94 0 0 0 .25-1.44c.21-2.06.84-4.05 1-6.12a53.32 53.32 0 0 0 .19-8 38.59 38.59 0 0 1 0-9.05 18.8 18.8 0 0 0 .21-2.37 1.24 1.24 0 0 1 .81-1.34z" fill="#616161"/><path d="m93.9 145.47c.42.57.08 1-.25 1.44a2.76 2.76 0 0 1 .25-1.44z" fill="#696969"/><path d="m93.63 147.32a1.94 1.94 0 0 1 -.2 1 1 1 0 0 1 .2-1z" fill="#696969"/><path d="m101.27 182c0 1.17.24 3.84.19 5a2.61 2.61 0 0 1 -.35 1.24 3.48 3.48 0 0 0 -.32-1.13c-.08-.18-.19-.46-.05-.55.78-.5.28-1 .05-1.5a2.33 2.33 0 0 1 -.14-1.05 7.86 7.86 0 0 1 .62-2.01z" fill="#616161"/><path d="m99.69 190.39a2.17 2.17 0 0 1 .19-1.23 2.47 2.47 0 0 1 -.19 1.23z" fill="#b4b4b4"/><path d="m127.32 106.1a23.87 23.87 0 0 0 -5.48 2 39.76 39.76 0 0 1 -4.5 1.92 15.67 15.67 0 0 0 -3 1.46 51.28 51.28 0 0 0 -5.33 3 2.76 2.76 0 0 1 -1.44.54 13.68 13.68 0 0 1 3.47-2.32c5.32-3.14 11.06-5.35 16.79-7.6a3.41 3.41 0 0 1 2.31-.39 12.86 12.86 0 0 1 -2.82 1.39z" fill="#8a8a8a"/><path d="m124.64 104.94a18.4 18.4 0 0 1 -3.53 1.73c.46-.92.88-1.16 3.23-2z" fill="#949494"/><path d="m102 173.14a2.48 2.48 0 0 0 .09-.54 9.88 9.88 0 0 0 -.2-2.92 3.89 3.89 0 0 1 -.09.47c-.15.46-.63.9 0 1.4.15.11.08.51-.13.76-.66.75-.68 1.08.08 1.51a4.6 4.6 0 0 1 .25-.68z" fill="#5f5f5f"/><path d="m101.82 169.47c-.42-.34-.34-.77-.22-1.21a2 2 0 0 1 .22 1.21z" fill="#5f5f5f"/><path d="m138.31 96.53a.46.46 0 0 1 -.2.7 6.1 6.1 0 0 1 -1.52.68 32.1 32.1 0 0 0 -4.66 1.81 12.06 12.06 0 0 1 -2.46.89 8.55 8.55 0 0 0 -1.92.94 39.33 39.33 0 0 1 -4.82 1.69c-2.18 1-4.25 2.12-6.48 3a61.53 61.53 0 0 0 -7.44 3.73 5.12 5.12 0 0 1 -1.51.68l-.49-.26a52.89 52.89 0 0 1 9-4.73c4-1.71 8.11-3.38 12.17-5.06 2.1-.89 4.22-1.73 6.37-2.5a3.15 3.15 0 0 0 .61-.36z" fill="#7a7a7a"/><path d="m100.63 169.72a9.48 9.48 0 0 1 0 4.79c.12-1.6-.05-3.2 0-4.79z" fill="#5f5f5f"/><path d="m94.4 147.91a2.81 2.81 0 0 1 .21-1.46 2.91 2.91 0 0 1 -.21 1.46z" fill="#696969"/><path d="m100.13 182.45a5.66 5.66 0 0 1 0-3.16z" fill="#616161"/><path d="m101.33 180.76a5.32 5.32 0 0 1 0 2.14 2.7 2.7 0 0 1 0-2.14z" fill="#616161"/><path d="m100.37 185.1a4.87 4.87 0 0 1 -.2-1.7 3.42 3.42 0 0 1 .2 1.7z" fill="#616161"/><path d="m163.25 82.78v-.68a9.21 9.21 0 0 1 2.64-1.18c-.12.31.23.64 0 1-.5-.36-.88 0-1.31.17a7.63 7.63 0 0 0 -1.33.69z" fill="#7f7f7f"/><path d="m103.48 111.34c0 .19-.1.4-.32.38s-.23-.26-.18-.43a4.86 4.86 0 0 1 .25-.63c.08.23.16.45.25.68z" fill="#838383"/><path d="m78.93 109.64v-.09s.08 0 .08.06 0 .06 0 .09z" fill="#d7d7d7"/><path d="m94.86 105.87c.06 0 .14-.12.17-.1s.06.25 0 .39z" fill="#4a4a4a"/><text fill="#1d1d1b" font-family="BaskervilleMTPro-Bold, Baskerville MT Pro" font-size="8" font-weight="700" transform="translate(97.77 179.29)">—</text></svg>