<svg viewBox="0 0 170.89 215.07" xmlns="http://www.w3.org/2000/svg"><path d="m78.82 64.4a8.11 8.11 0 0 1 -.28 2.5c-.54 2.42-.51 4.92-.93 7.37-.2 1.11-.61 2.15-.82 3.25a25.6 25.6 0 0 0 -.15 8.24 23.57 23.57 0 0 1 -.56 7.24 4.6 4.6 0 0 0 -.16.58c-.13 3-1.34 5.83-2 8.76-.21 1-.28 2.06-.41 3.09-.31 2.46-.73 4.9-1 7.36a127.9 127.9 0 0 0 -1.22 13.25c-.17 2.92-.42 5.84-.68 8.75-.2 2.17-.44 4.34-.69 6.51-.22 1.87-.28 3.76-.4 5.64-.06 1-.85 1.81-.72 2.85-.46 2.68-.53 5.4-.92 8.09a12.29 12.29 0 0 0 -.06 1.92 47.71 47.71 0 0 1 -.29 4.78c-.28 2.78-.49 5.57-.72 8.35-.05.53-.12 1.05.67 1.13.35 0 .41.46.46.78l.93 6.16c-.54.75-.83.07-1.19-.21-.38-1-.31-2-.6-3-.58-.11-.32.52-.66.58a21.32 21.32 0 0 1 -.25-7.72c.18-1.27.26-2.55.36-3.82.15-1.71.25-3.43.41-5.14.1-1 0-2.06 0-3.11.19-2.67.58-5.32.91-8s.41-5 .63-7.53c.27-3.18.6-6.36.85-9.55.28-3.62.54-7.25 1-10.86.27-2.14.5-4.28.59-6.44s.88-4.38 1-6.62c.12-1.59.43-3.17.62-4.75a39.61 39.61 0 0 1 1-5.3 49.15 49.15 0 0 0 1.73-14.83 38.64 38.64 0 0 1 .86-9.52 76.08 76.08 0 0 0 1.61-10.3 9.81 9.81 0 0 1 .22-1.05c.53-.02.61.4.86.57z" fill="#959595"/><path d="m84.69 97.8a2.2 2.2 0 0 1 -.26-1.18c-.29-.63.08-1.32-.21-1.94v-1a1 1 0 0 1 0-1v-.45c-.06-.32.12-.42.4-.39s.42.43.46.69a6 6 0 0 0 .35 2.34 1.77 1.77 0 0 1 0 .23 1.6 1.6 0 0 0 .44 1.45v.22c.24.29 0 .68.21 1 .23 1.22.47 2.43.68 3.65a40.61 40.61 0 0 1 .38 7c0 2.14-.18 4.3-.32 6.45-.23 3.76-.83 7.46-1.37 11.17a48.56 48.56 0 0 0 -.5 5.11 28.51 28.51 0 0 1 -1.35 6.19 7.71 7.71 0 0 0 -.34 1.64 54.36 54.36 0 0 0 -.44 5.55c-.17 4.63-.61 9.23-1 13.83a12.82 12.82 0 0 0 -.37 1.74c0 4.44-.34 8.86-.64 13.28-.07.92-.17 1.83-.18 2.75a12.49 12.49 0 0 1 -.5 3.8 1.66 1.66 0 0 0 -.78 1.91c.1.34 0 .85-.56.85a13.52 13.52 0 0 1 -.12-4.53c.2-2.7.55-5.4.71-8.11.2-3.39.33-6.78.52-10.17.16-2.75.68-5.47 1-8.2a12 12 0 0 0 .14-1.79 57.34 57.34 0 0 1 1-9.88 27.07 27.07 0 0 1 1.22-4.51 7.69 7.69 0 0 0 .47-2.1 89 89 0 0 1 1.27-10.99 90.26 90.26 0 0 0 .8-13.74 31.56 31.56 0 0 0 -.83-8.21 6.64 6.64 0 0 1 -.11-1.18c-.22-.47.14-1.02-.17-1.48z" fill="#919191"/><path d="m29.44 97.55c.4-1 .8-1.91 1.19-2.87a1.28 1.28 0 0 0 -1-2 9 9 0 0 1 -1.52-.34c-1-.44-1.12-.86-.61-1.78.22-.38.5-.73.7-1.11.35-.69.16-1.13-.58-1.18a6.44 6.44 0 0 0 -1.91 0c-1.22.27-1.32.19-1.82-1a1.46 1.46 0 0 0 -.72-.77 5.74 5.74 0 0 1 -.92-.55 1.23 1.23 0 0 1 -.31-1.8c.28-.43.59-.84.89-1.27a1.19 1.19 0 0 1 1.68.79c0 .37-.28.64-.37 1 .16.44.47.15.71.13 1.34-.7 2-2.18 3.29-2.93a4.4 4.4 0 0 1 1.14-.63 1.11 1.11 0 0 1 1.28.43 1 1 0 0 1 -.17 1.3 8.37 8.37 0 0 0 -1.61 2.03c-.16.32-.39.64-.11 1a1 1 0 0 0 1.1.28 1.91 1.91 0 0 0 1.07-.73 8.58 8.58 0 0 1 1.77-1.41 1.28 1.28 0 0 1 1.56 0 1.25 1.25 0 0 1 .44 1.51 5.82 5.82 0 0 1 -2.49 3.12 4.06 4.06 0 0 0 -.87.62c-.31.38-.43.8 0 1.17a.7.7 0 0 0 1.06-.13 18 18 0 0 0 1.35-1.68 39 39 0 0 1 3.34-3.89 1.79 1.79 0 0 0 .45-.55c.62-1.81 2.24-2.61 3.61-3.66a.91.91 0 0 1 .89-.16c.62.4.29.87.08 1.32a4 4 0 0 1 -.74.93 2.6 2.6 0 0 0 -.92 1.93c.2.21.33.09.46 0 .31-.21.67-.38 1-.05a.83.83 0 0 1 -.1 1.19c-.53.49-.82 1.23-1.36 1.62a10.73 10.73 0 0 0 -1.94 2.49c-.22.14-.36.43-.69.33l-.31-.06a1 1 0 0 0 -.45 0 23 23 0 0 0 -5.88 7.4c-.57.17-1.1.63-1.66-.04z" fill="#565656"/><path d="m92.42 37.31c.31-.05.62-.16.91 0a4.81 4.81 0 0 1 1.39 2.55c.72 2.42 2.32 4.33 3.45 6.51 1 1.91 2.29 3.63 3.27 5.51a42.59 42.59 0 0 1 3.29 7 8.34 8.34 0 0 0 1.73 2.86 57.19 57.19 0 0 1 6.77 11c1.35 2.63 2.81 5.2 4 7.93a22.73 22.73 0 0 0 1.52 2.33 34.14 34.14 0 0 1 1.37 4 6.51 6.51 0 0 0 .73 1.5 18.59 18.59 0 0 1 2.55 5.38 14 14 0 0 0 .61 1.56c.16.34.46.7 0 1.09s-.82.22-1.25.3a10.61 10.61 0 0 1 -1-2.56 14.87 14.87 0 0 0 -1.64-3.71 18.19 18.19 0 0 1 -2-4.36 8.36 8.36 0 0 0 -1.64-3.2 3.52 3.52 0 0 1 -.83-1.32 39.88 39.88 0 0 0 -3.53-7.58c-1.22-2.34-2.37-4.7-3.82-6.92a30 30 0 0 0 -2.39-3.29 18.77 18.77 0 0 1 -3.24-5.83c-.67-1.72-1.67-3.31-2.35-5.06a4 4 0 0 0 -1-1.22 6.33 6.33 0 0 1 -1.5-2.42 16.63 16.63 0 0 0 -2.12-3.74 28.9 28.9 0 0 1 -2.9-6.94 3.9 3.9 0 0 0 -.44-1.1c-.1-.11-.1-.2.06-.27z" fill="#808080"/><path d="m78.78 182.75v-3.45c.29.37.36.9 1 .78l.22-.08a.45.45 0 0 1 .35.15 12.25 12.25 0 0 1 .34 3.86c0 .57 0 1.07.54 1.41a2.32 2.32 0 0 1 .1 1.64c-.71 3.65-1 7.37-1.6 11-.22 1.22-.43 2.44-.62 3.66a9.83 9.83 0 0 0 -.11 1.08.9.9 0 0 0 .84 1.09 9.5 9.5 0 0 0 1.17.19h3.84a3.71 3.71 0 0 0 2.17-.59 1.65 1.65 0 0 1 .42-.21.55.55 0 0 1 .62.86 3.44 3.44 0 0 1 -1.57 1.05 15.47 15.47 0 0 1 -5.18.86 44.92 44.92 0 0 1 -8.36-.58c-2-.37-4-.82-6-1.23-.38-.26-.85 0-1.23-.22a2 2 0 0 1 -.93-.25c-.32-1 .48-.83.93-.8a20.33 20.33 0 0 1 3.27.56c.9.2 1.81.63 2.59-.29.09-.11.3 0 .44.05 1.59.18 3.14.57 4.75.62 1 0 1.17 0 1.31-1.06.39-2.93.84-5.86 1.1-8.8a26.89 26.89 0 0 0 0-5.23 56.25 56.25 0 0 1 -.4-6.07z" fill="#858585"/><path d="m96 41.18a.54.54 0 0 0 .72-.24 12.7 12.7 0 0 0 2.16 2.69 4.85 4.85 0 0 1 1.23 2.44 12.26 12.26 0 0 0 2.73 4.18 26.65 26.65 0 0 1 3 4.73 5.12 5.12 0 0 0 1.25 1.73 6.34 6.34 0 0 1 1.38 2.09q1.41 2.43 3 4.77a20.43 20.43 0 0 1 1.5 3.13 23 23 0 0 0 2.31 3.9 55.82 55.82 0 0 1 4.39 6.83c.44.84.73 1.75 1.23 2.59a33.46 33.46 0 0 0 2.6 3.42 23.45 23.45 0 0 1 2.47 4.08c1 2 2.22 4 3.35 5.92a11.49 11.49 0 0 1 1 1.89 1.47 1.47 0 0 1 -1.58-.17 18.58 18.58 0 0 1 -2.55-3.9 39.15 39.15 0 0 0 -4.73-7.61 17.56 17.56 0 0 1 -3-5.12 17.44 17.44 0 0 0 -2.92-4.79 26.51 26.51 0 0 1 -3.29-5.41 82.23 82.23 0 0 0 -6.66-10.78c-1.17-1.71-2.07-3.6-3.3-5.28a26.72 26.72 0 0 1 -1.85-2.34q-2.31-3.93-4.75-7.75c-.24-.36-.43-.85.31-1z" fill="#7f7f7f"/><path d="m91.09 61.08c.23-.12.55-.08.76-.42a2.27 2.27 0 0 1 -.51-2.46c.38-.22.6 0 .76.3a10 10 0 0 1 1.21 4.12 31.92 31.92 0 0 0 .8 5.93c.7 3.49 1.36 7 1.91 10.5a6.63 6.63 0 0 0 1 3c2.07 2.83 3 6.12 4.09 9.4 1 3.11 1.32 6.42 2.64 9.44a5 5 0 0 1 .42 1.87 5.49 5.49 0 0 0 .8 2.73 1.74 1.74 0 0 1 .31 1 1.13 1.13 0 0 1 -.73 1.12c-.5.21-.82-.06-1.12-.38a2.26 2.26 0 0 1 -.52-.8 1.64 1.64 0 0 1 -.42-.8c0-2.4-1.38-4.44-1.64-6.76-.19-1.78-1.06-3.39-1.31-5.15a22.33 22.33 0 0 1 -.48-2.41c-1-2.74-1.79-5.55-3.69-7.84a3.47 3.47 0 0 1 -.79-1.84 136 136 0 0 0 -2.47-13.75 23.38 23.38 0 0 1 -.58-3.9 27.08 27.08 0 0 0 -.44-2.9z" fill="#707070"/><path d="m24 83.63c-.42-.19-.89-.29-1.16-.72a19.64 19.64 0 0 1 3.5-3.73 10.19 10.19 0 0 1 3.58-2.18 3.62 3.62 0 0 1 1.53-.21 2.05 2.05 0 0 1 2 2.1c0 .54 0 1.12.66 1.22s1.53.49 2.11-.31a7.09 7.09 0 0 0 1.49-2.43.85.85 0 0 1 .29-.37c2.44-2.72 4.14-6 6.33-8.86.14-.56-.4-1.19.2-1.69 1.63-2 3.33-3.85 4.83-5.91a6 6 0 0 1 .44-.54 1.86 1.86 0 0 1 1.06.6.64.64 0 0 1 -.09 1c-1.29 1.24-1.93 2.92-2.9 4.37-1.5 2.22-3.35 4.21-4.66 6.51-1.84 3.19-4.25 6-6.08 9.16a5.61 5.61 0 0 1 -2 2c-.81.5-1-1.35-1.3-2.19-.4-1.09-2.16-.2-2.31-1.42-.1-.77-.69-1-1.44-.85a4.19 4.19 0 0 0 -2.2 1.15 29.65 29.65 0 0 0 -2.91 3c-.25.31-.47.67-.97.3z" fill="#626262"/><path d="m129 94.66c.64-.18.81.52 1.27.67 1 1 1.28 2.46 2.17 3.55 1.25-1.48 1.42-1.52 3.32-1.11a13.31 13.31 0 0 1 3.59 1.6c.87.48.83 1.57 1.13 2.41a11.41 11.41 0 0 1 .19 1.17 2 2 0 0 1 -.79 2.32c-.31.23-.61.45-.26.86s.67.68.5 1.14c-.24.65-.29 1.44-1.06 1.78-.71.18-1.55.74-1.71-.61.47-.92-1.94-4.57-.68-5.88a4.18 4.18 0 0 1 .56.2c.4.13 1.49.95 1.83.5s-.65-1.47-1-1.88a2.06 2.06 0 0 0 -.76-.58c-.61-.26-1.27-.66-1.91-.17s1.13 5.48-.09 5.64c-1.61.59-4.72-2.63-4.41-4.37a3.91 3.91 0 0 0 -.35-2.43c-.56-1.19-1-2.42-1.57-3.62-.11-.39-.4-.8.03-1.19z" fill="#565656"/><path d="m93.49 56.55c.53-.11.69-.5.74-1a10.47 10.47 0 0 1 1 3.43 5.74 5.74 0 0 0 1.77 4.1 3.45 3.45 0 0 1 1.11 2.45c0 2.88 1.26 5.43 2.25 8 .3.79.58 1.57.83 2.37a13.69 13.69 0 0 0 1.62 3.33 16.13 16.13 0 0 1 1.14 2.23 14.83 14.83 0 0 0 1 2 14 14 0 0 1 2.4 7.16c.07 2.23.49 4.44.45 6.68-.62.52-.08 1.39-.6 1.95-.75.25-1-.23-1-.81 0-2-.45-4.06-.45-6.08a13.64 13.64 0 0 0 -1.91-6.83 48.77 48.77 0 0 1 -3.19-6.17c-1.52-4-3.43-7.93-4-12.27a6 6 0 0 0 -1.55-3.31 6 6 0 0 1 -1.48-3.34 22.62 22.62 0 0 0 -.54-2.82c-.08-.38-.31-.89.41-1.07z" fill="#777"/><path d="m85.41 94.91a.67.67 0 0 1 -.53-.67c0-.47-.13-.93-.21-1.39 0-.28-.14-.53-.47-.58a3.32 3.32 0 0 1 -.2-1.27c0-3.24 0-6.47 0-9.71a19.78 19.78 0 0 1 .36-3.68 17.84 17.84 0 0 0 .41-3.93c-.08-4.12.55-15.14.55-15.22a29.21 29.21 0 0 0 .42-3.27c.42-1.47 0-2.63 0-4a.48.48 0 0 1 .34-.28 2.87 2.87 0 0 0 1.37 2 3.33 3.33 0 0 0 -.69 2.23c-.41 3.77-.54 7.56-.76 11.34v3.95a44.14 44.14 0 0 1 -.63 7.87 26.78 26.78 0 0 0 -.08 5.37c.05.75.11 1.51.11 2.27.02 2.99.02 5.98.01 8.97z" fill="#989898"/><path d="m50.52 60.69a1.11 1.11 0 0 1 -.72-.69c1-1.43 1.91-2.86 2.87-4.28.16-.23.41-.45.38-.73a2.28 2.28 0 0 1 .95-1.88c3-3.21 5.62-6.65 8.26-10.12a55 55 0 0 1 3.94-4.83c1.07-.94.92.49 1.38.72-.12.23-9 12.63-8.81 13.21-.6 1.6-2.11 2.35-3.22 3.47-1.69 1.22-2.5 3.17-3.87 4.66-.33.31-.53.92-1.16.47z" fill="#5a5a5a"/><path d="m78.82 64.4-.55.81c-.26-.49-.12-.93-.2-1.33.1-1 .13-2 .3-3 .24-1.42.2-2.85.37-4.28.38-3 .67-6.09 1.05-9.13.3-2.37.58-4.74.76-7.12.07-1 .2-2.06.3-3.09.32.49.71.64 1.2.25a.9.9 0 0 1 0 1c-.14.56-.68 1.75.28.86.68-1.94.21 1 .15 1.16a56.38 56.38 0 0 0 -1.48 9.9c-.29 2.58-.72 5.14-1.2 7.68a42.46 42.46 0 0 0 -.8 6z" fill="#838383"/><path d="m106.62 96.78c.09-.66.22.89 1.13.59.24.37-.07.85.22 1.22a51.89 51.89 0 0 1 1.39 6.29 4.61 4.61 0 0 0 1.18 2.81 2.21 2.21 0 0 0 1 .77 1.12 1.12 0 0 1 .9 1.12 11.94 11.94 0 0 1 -.24 3.21 1.35 1.35 0 0 1 -.66.82 2.56 2.56 0 0 0 -1.07 1.91 15 15 0 0 1 -1.4 5.16c-.28.21-.38.66-.84.63-.5-.38-.93.52-.79 0 .34-1.15 1.07-3.71 1.27-4.89a4.32 4.32 0 0 0 -.24-2.33c-.55-1.43-.22-2.72 1.27-2.61.89.1 1 1.12 1 .85.48-.8.12-1.3.12-2-.6-1.79-2.16-3.7-2.91 1.25a.86.86 0 0 1 -1 .06c-.36-.23-.33-.6-.26-1 0-.16 0 0 0-.11 1.58-3.2.72-6.35-.18-9.51-.11-.62-.81-3.71.11-4.24z" fill="#5e5e5e"/><path d="m108.26 121.14.84-.44a3.21 3.21 0 0 1 -1.85 1.9 2.31 2.31 0 0 1 -2.63-.49 4.47 4.47 0 0 1 -1-1.32c-.15-.26-.16-.63-.58-.76a2.22 2.22 0 0 0 -.57 1.25 2.58 2.58 0 0 1 -.58 1.17c-.6.62-1.14.53-1.43-.29a7.75 7.75 0 0 1 -.41-3.06 22.61 22.61 0 0 1 .89-5.78c.17-.55-.05-.55-.44-.3s-.51 0-.64-.29c-.12-1 1.11-3.42 1.92-3.74s1.17.07 1.35.75a3.36 3.36 0 0 1 0 1.78 22.12 22.12 0 0 0 -1.06 3.8c-.11 1.27-.21 2.54-.44 3.8 0 .15-.14-.09 0 0s0 0 0-.07a5.5 5.5 0 0 1 1.14-2.72 1 1 0 0 1 1.81.32c.22.65.23 1.34.39 2a2.26 2.26 0 0 0 2.37 2.06 1 1 0 0 1 .92.43z" fill="#6b6b6b"/><path d="m72 203.31c-.29.56.5.38.5.82a2.38 2.38 0 0 1 -2.05.41c-1.39-.3-2.78-.57-4.18-.86a2.16 2.16 0 0 0 -1.5.11 32.8 32.8 0 0 1 -4.53-.36l-2.26-.2c-.49 0-1-.14-1-.77a1.07 1.07 0 0 1 1-1 8.94 8.94 0 0 1 1.79-.06 61.9 61.9 0 0 1 11.81 1.75c.14.04.28.1.42.16z" fill="#939393"/><path d="m45.75 105.53a34.18 34.18 0 0 0 -2.45 4.73 12.16 12.16 0 0 0 -.93 5.81c-.11.59.43 1.09.22 1.7-.69.28-1-.16-1.15-.68a5.35 5.35 0 0 1 -.2-2.48 21.09 21.09 0 0 1 .76-3.51c0-.15.07-.3.14-.6a5.58 5.58 0 0 0 -1.64 1.4 41.72 41.72 0 0 0 -3.5 3.45 1.37 1.37 0 0 1 -.38.29c-.35.19-.72.43-1.11.15s-.08-.66 0-1a4.14 4.14 0 0 1 .4-1.38.77.77 0 0 1 .89-.08c.23 0 .42.06.62-.18 1.42-1.73 3.15-3.19 4.58-4.93a14.68 14.68 0 0 0 2-3.25 3.34 3.34 0 0 1 1.22-1.69c.29 0 .59-.12.85.1a1.35 1.35 0 0 1 0 1c-.39.31 0 .81-.32 1.15z" fill="#707070"/><path d="m127.8 114.19c-.29 1.29-.89 2.47-1.19 3.75-.21.88-1 1.06-1.48.33-1-1.75-2.12-3.47-2.36-5.55a7.88 7.88 0 0 1 0-1.19 10.07 10.07 0 0 0 .84-2.44c.16-.53.31-2.1 1.11-2.23.91.59 1.22-.8 1-.17-.76 1.72-1.33 6.32-.48 7.84.13.23.22.59.56.54s.36-.4.41-.66a49.72 49.72 0 0 0 .79-5.41 3.44 3.44 0 0 1 1-2.34.92.92 0 0 1 1.58.14 5.18 5.18 0 0 1 .82 2.46 8.31 8.31 0 0 0 .75 3.11.77.77 0 0 1 -.07.89c-.27.29.28 1.62-.11 1.58-1.11-.12-2-2.3-2.22-3-.13-.42.05-.89 0-1.34a2.82 2.82 0 0 1 -.72 2.31c-.28.38.09.94-.23 1.38z" fill="#797979"/><path d="m67.74 180.8.13-.76c.31.56.54 1 1.06 1 .46 2.51.61 5.07 1 7.6.16 1.11.31 2.21.49 3.32a17.3 17.3 0 0 1 0 5.13c-.16 1.12 0 2.24-.1 3.35 0 .34.06.88-.39.88s-.33-.54-.38-.87a12.69 12.69 0 0 1 0-3.94 8.3 8.3 0 0 0 -.08-3c-.7-3.65-1.13-7.34-1.61-11-.1-.59-.09-1.15-.12-1.71z" fill="#8b8b8b"/><path d="m100.49 113c-.71 1.47-1.22 3-2 4.45a4.6 4.6 0 0 1 -1.09 1.41c-.55.44-1.12.34-1.36-.3a9.37 9.37 0 0 1 -.69-3.26 3.08 3.08 0 0 1 .51-1.7 31.06 31.06 0 0 1 3.71-5.12c.22-.23.68-.53.33-.88s-.65.09-.94.3-.3.37-.58.37a1.61 1.61 0 0 1 1.11-1.88 13 13 0 0 1 2.44-.59.48.48 0 0 1 .15.76c-.7 2.54-2.9 4.12-4.09 6.35a3 3 0 0 0 -.5 2.87c.78-1 2-3.33 2.6-4.23.21-.37.3 1.28.4 1.45z" fill="#7e7e7e"/><path d="m129.93 113.1 1-.22c.5-.2.37-.64.4-1a11.42 11.42 0 0 0 -.34-3.08 4.07 4.07 0 0 1 0-1.77 1.3 1.3 0 0 1 1-1.06c.52-.09.86.34 1.12.74 1.48 2.35 1.48 2.36 4.32 1.56a.69.69 0 0 1 .73.24c0 .22.08.37.34.35a1.06 1.06 0 0 1 .66.21 15.31 15.31 0 0 0 -1.35 1.17 3.29 3.29 0 0 1 -3.15.94c-1.17-.19-1.31-.13-1.42 1.06a3.14 3.14 0 0 1 -.83 2c-.6.49-1.27.84-1.95.26-.46-.3-.96-.74-.53-1.4z" fill="#636363"/><path d="m42.59 117.77a1.24 1.24 0 0 1 -.22-1.7c.56.66.63.68 1 .07a40.69 40.69 0 0 0 2-4.58 19.61 19.61 0 0 0 1.63-4.36 2 2 0 0 1 .76-1.32.38.38 0 0 1 .53-.06.37.37 0 0 1 .13.43c-.94 2.23.28 4 1.25 5.81.59 1.09 1.17 1 1.79 0 .14-.24 1.61-4.34 1.86-4.5.06 0 2.29-4.25-1.07 3.77a7.28 7.28 0 0 1 -1.72 2.67 2.34 2.34 0 0 1 -2.32-2 3.61 3.61 0 0 0 -.82-1.82c-.27-.29-.5-.35-.73.06a9.14 9.14 0 0 0 -1.06 2.64 6.58 6.58 0 0 1 -1.24 2.81 16.81 16.81 0 0 0 -1.07 1.85z" fill="#838383"/><path d="m124.55 107.84c-.41.25-.49.68-.64 1.1a5.91 5.91 0 0 1 -1.13 2.45c.17-.72.33-1.44.5-2.16.25-.26 0-.66.24-.9a17.83 17.83 0 0 0 1.25-3.69 5 5 0 0 1 .87-2c.55-.82.56-.83 0-1.65a13.57 13.57 0 0 0 -.87-1.13 17.43 17.43 0 0 1 -2-3.13 1.08 1.08 0 0 1 1-.49c.34-.1-.28-2-.08-1.66 1.07 1.92 3.28 5.59 5 7a1.52 1.52 0 0 1 .46 2c-.16.33-.36.68-.75.69-1.62 0-2.21 1.2-2.75 2.44a3.81 3.81 0 0 1 -.45 1 .48.48 0 0 1 -.65.13z" fill="#676767"/><path d="m73 38c.19.27.46.23.73.22-.73 1.78-1.45 3.58-2.23 5.32-1 2.36-2.07 4.74-3.11 7.11s-2 4.42-2.78 6.73c-.59.18-.63-.17-.49-.58.33-.94.67-1.88 1.06-2.8 1.78-4.19 3.59-8.37 5.28-12.6a14.78 14.78 0 0 1 1.54-3.4z" fill="#828282"/><path d="m55.22 87.16c0-.07.2-.48.25-.58s.28-.82.37-1c0 0 .17-.45.29-.66 0 0 .25-.52.39-.74 0 0 .57-1.1.8-1.64l.68-1.54c0-.17.35-.86.4-1a5.07 5.07 0 0 1 .36-.91c.06-.14.12-.29.17-.44.34-.88.93-2.87.93-2.88.09-.3.19-.59.29-.89.16-.48 1.36-2 .69-2.34l-.47.68a2.12 2.12 0 0 0 -.74 1c-1.07 2.1-1.68 4.4-2.77 6.5a12.72 12.72 0 0 0 -1.58 3.94 3.1 3.1 0 0 1 -.44 1.1 21.14 21.14 0 0 0 -1.73 3.93l.49.51c.19-.43.35-.87.57-1.28.28-.54 1.05-1.76 1.05-1.76z" fill="#757575"/><path d="m66.91 39.12c-.13-.41-.14-.92-.75-1a42.35 42.35 0 0 1 3-3.72c1.22-1.52 2.49-3 3.71-4.52a2.91 2.91 0 0 1 2.3-1.3 2.08 2.08 0 0 1 -.24 1c-1.86 3.42-7.49 10.07-8.02 9.54z" fill="#797979"/><path d="m88.52 41.07c.38-.45 2.26-1.17-2.34 9.49.3.93 0-.56 0 .37a67.44 67.44 0 0 1 -1.5 6.77 9.89 9.89 0 0 1 -.26 2.64c-.57-.1-.46-.57-.51-.94a14.72 14.72 0 0 1 .34-4 14.16 14.16 0 0 0 .27-2.6 3 3 0 0 1 .15-.94c.58-1.94 3.7-10.54 3.85-10.79z" fill="#989898"/><path d="m37.64 89.7.77.23a10 10 0 0 1 -1.41 3.24 31.63 31.63 0 0 0 -2 3.26 10 10 0 0 1 -2.38 3.09c-.28.15-.55.36-.85 0a.72.72 0 0 1 .1-1c1.93-2 2.7-4.79 4.2-7.09.44-.61.63-1.5 1.57-1.73z" fill="#818181"/><path d="m60.34 77.08c-.05.1-.1.21-.14.31-.16.37-.31.73-.48 1.1-.79 1.69-1.32 3.49-2.06 5.2-.44 1-1.44 2.45-1.22 3.64a.23.23 0 0 0 .42 0c0-.55.47-.91.64-1.41.81-2.34 1.88-4.58 2.89-6.84a7.35 7.35 0 0 0 .92-1.94l-.81-.28c-.06.04-.1.14-.16.22z" fill="#777"/><path d="m32.14 99.5h.48a4.73 4.73 0 0 1 -1.9 2.2c-1 .61-1.82.2-1.92-1a5.08 5.08 0 0 1 .64-3.21 2.53 2.53 0 0 0 1.26-.71c.76.17.47.74.37 1.15-.25 1.07.1 1.5 1.07 1.57z" fill="#6a6a6a"/><path d="m87.4 32.81c-.39 1.25.38 6 .37 7.23a2.38 2.38 0 0 1 -.18 1.15 6.29 6.29 0 0 0 -.67-2.64c-.07-3.69-.26-2.73 0-4-.07-1.28-.81-1.48.48-1.74z" fill="#7d7d7d"/><path d="m36.4 114.18a1.86 1.86 0 0 0 -.51-.76 14.7 14.7 0 0 1 3.84-6.48 1.49 1.49 0 0 0 .73.25c.48.26.31.64.08.9-1.54 1.68-2.13 3.91-3.54 5.64-.16.19-.24.52-.6.45z" fill="#848484"/><path d="m64.92 59.08c.58.31.32.74.14 1.13a51.21 51.21 0 0 0 -2.51 6.2c-.69 2.17-1.67 4.21-2.48 6.33-.89 1.83-1.34 3.13-2.17 4.67-.95 1.74-1.3 3.18-2.34 5.31-.84 1.39-3.14 6-4.66 8.25-.48 0-.43-.25-.3-.56.77-1.53 1.64-3 2.3-4.59 1.42-3.39 3.41-6.51 4.78-9.93q2.57-6.39 5.16-12.77a22.69 22.69 0 0 1 2.08-4.04z" fill="#767676"/><path d="m50.6 90.41.3.56a11.9 11.9 0 0 1 -1.23 2.57 4.83 4.83 0 0 0 -.67 1.46 1.9 1.9 0 0 1 -1.21 1.36 25.46 25.46 0 0 1 2.81-5.95z" fill="#878787"/><path d="m85.86 96.59c-1-.36-1-.36-.44-1.45a3.07 3.07 0 0 1 .44 1.45z" fill="#989898"/><path d="m84.22 94.68a4.39 4.39 0 0 1 .21 1.94 4.15 4.15 0 0 1 -.21-1.94z" fill="#989898"/><path d="m84.69 97.8a3.08 3.08 0 0 1 .2 1.47 2.85 2.85 0 0 1 -.2-1.47z" fill="#989898"/><path d="m65.71 204a2.47 2.47 0 0 1 1.23.22 2.59 2.59 0 0 1 -1.23-.22z" fill="#939393"/><path d="m94.24 55.58a1.88 1.88 0 0 1 -.25-1.2 2.19 2.19 0 0 1 .25 1.2z" fill="#777"/><path d="m96.43 40.24a2.24 2.24 0 0 1 -.24-1.19 1.66 1.66 0 0 1 .24 1.19z" fill="#7f7f7f"/><path d="m123.52 108.33a1.78 1.78 0 0 1 -.24.9 1.3 1.3 0 0 1 .24-.9z" fill="#797979"/><path d="m86.1 97.78a2.15 2.15 0 0 1 -.21-1 2 2 0 0 1 .21 1z" fill="#989898"/><path d="m90.36 58a1.66 1.66 0 0 1 .22 1 1.68 1.68 0 0 1 -.22-1z" fill="#707070"/><path d="m45.75 105.53c0-.41 0-.91.28-1.18a1.89 1.89 0 0 1 -.28 1.18z" fill="#949494"/><path d="m46 104.36a1.88 1.88 0 0 1 0-1 .83.83 0 0 1 0 1z" fill="#949494"/><path d="m96.7 41a1.5 1.5 0 0 1 -.27-.71c-.28-.35.07-.83-.24-1.19a16.58 16.58 0 0 0 -1.45-2.34 7.41 7.41 0 0 1 -1.95-2.79 8.48 8.48 0 0 0 -1.94-3.38c-1-1.24-2.11-2.43-3-3.77-.54-.58-1.36-.62-2-1.07-1-.69-1.47-.69-2.14.24a5.88 5.88 0 0 1 -2.6 2c-.72.52-1.21 1.06-.58 2a1.45 1.45 0 0 1 -.12 1.48 17.24 17.24 0 0 1 -2.32 3.53 39.63 39.63 0 0 1 -1.82 3.77 50.29 50.29 0 0 0 -3.76 8c-1.05 2.71-1.82 5.55-3.62 7.92a21 21 0 0 0 -2.83 5.52 47.11 47.11 0 0 1 -3.34 7.92 1.51 1.51 0 0 0 -.23 1.16 2 2 0 0 1 .82-1 .13.13 0 0 1 .18.15c-.14.52-.31 1-.47 1.55-.13.44-.7 2.19-.72 2.2-.07.19-1.78 4.62-1.93 4.82a.74.74 0 0 0 .94.07 34 34 0 0 0 1.56-3.62c.6-1.59 1-3.22 2.15-4.61a19.75 19.75 0 0 0 2.89-5.85c.8-2.09 1.72-4.13 2.51-6.23a2.3 2.3 0 0 1 .88-1.39c1.42-.78 2-2.17 2.46-3.55.68-1.88 1.28-3.78 1.95-5.65.23-.64.6-1.22.84-1.86.7-1.83 1.34-3.68 2-5.5a3.62 3.62 0 0 1 1.52-1.93c.49-.28.64 0 .73.38.48 1.2.55 1.22 1.26.32 0-.38.24-.73.31-1.11a13.79 13.79 0 0 1 0-4.92c.09-.52.37-1.53 1-1.53a8.16 8.16 0 0 1 1 .24c.54.07 1 0 1.58 0a.12.12 0 0 1 .11.18c-.09.17-1.12 1.43-1 1.54s-.64-.19-.9-.37c0 0-.43-.21-.35-.26a3.92 3.92 0 0 0 -.67 1.37c.26.2.79.16 1 .43s0 .49 0 .69a51 51 0 0 0 1.2 9.64c.19.85.19 1.73.32 2.58a21.49 21.49 0 0 1 -.22 4.94c.12.39.46.65.58 1a1.06 1.06 0 0 0 1.42.85 7.25 7.25 0 0 1 2.92 5.14c.27.29 0 .69.22 1a5 5 0 0 0 .51 2.12c.33.15.63.55 1 .22s.38-.71.17-.84c-1-.63-.19-1.39-.24-2.09 0-.12 0-.24 0-.36-.15-.7 0-1.42-.16-2.12a7.45 7.45 0 0 0 -2.41-4.17 3.26 3.26 0 0 1 -1.18-2.76 7 7 0 0 1 2.73 3.21c.54 1.29 1.24 2.51 1.66 3.85a1.09 1.09 0 0 0 1.21.9c.79-.27.47-.85.39-1.36-.34-.35 0-.85-.25-1.2a37.67 37.67 0 0 0 -2.27-4.86 5 5 0 0 0 -.83-1c-.61-.68-1.26-1.34-1.86-2a2.84 2.84 0 0 1 -.87-2.16 3.74 3.74 0 0 0 -.56-3s0-.07 0-.11a4.74 4.74 0 0 0 0-2.12c-.31-1.46-.78-2.88-1-4.36-.09-.66-.13-1.36.81-1.48 1-.56 1.67-.16 2.29.77.8 1.17 1.07 2.77 2.61 3.36.28.16.66.18.81.53a.48.48 0 0 0 .27.17 1.29 1.29 0 0 1 .61.23 13.11 13.11 0 0 1 1.14 2.43c.19.41.23.95.8 1.07.48-.09 1.04-.13.74-.87zm-11.3-11.38a1.11 1.11 0 0 1 -1.12-.29l-.14-.14c-.32-.22-.74-.54-.58-1s.54-.38.83-.36a1.46 1.46 0 0 1 1.16.81c.14.36.21.82-.15.98zm1.75-1.05a1.44 1.44 0 0 1 -.15.43.27.27 0 0 1 -.48 0 4.31 4.31 0 0 1 -.32-.77c-.12-.31-.53-.56-.3-.95.11-.2.36-.13.54 0 .41.24.84.48.78 1.07a1.08 1.08 0 0 1 -.07.22z" fill="#535353"/><path d="m91.12 55.78a5.4 5.4 0 0 1 .22 2.43 5 5 0 0 1 -.22-2.43z" fill="#707070"/><path d="m94.28 37.85a1.5 1.5 0 0 1 -.74-.47.93.93 0 0 1 .74.47z" fill="#808080"/><path d="m80 176.23v3.87h-.21a15.08 15.08 0 0 1 .21-3.87z" fill="#b5b5b5"/><path d="m23.58 84.37c-.09.69.25 1 .92 1.11h.71a2.38 2.38 0 0 1 -1 .23c-.38 0-.89.13-1.11-.18s-.15-.77-.43-1.12c-.12-.16.1-.36.32-.38a.83.83 0 0 1 .59.34z" fill="#626262"/><path d="m37.65 89.7h-.91a.65.65 0 0 1 .91 0z" fill="#818181"/><path d="m42.05 81.81a1.08 1.08 0 0 0 -.29-1c-.6-.3-.32-.67-.12-1.08 2.25-4.73 5.52-8.73 8.48-12.97a50 50 0 0 0 3-4.49 81.16 81.16 0 0 1 5.24-8 19.91 19.91 0 0 0 1.76-3.16 79.59 79.59 0 0 1 4.35-6.88c.53-.76 5.79-7.57 8.28-10.28 1.63-.93 1.83-2.71 1.8-4.45a2.54 2.54 0 0 1 .59-.86 1.12 1.12 0 0 1 1.16-.44 10.85 10.85 0 0 0 4.84-.25l-.19.8c.22.35.61-.07.85.19 0 .07.06.17 0 .21a2.11 2.11 0 0 0 -.5 1.74 1.38 1.38 0 0 1 -.2.9 4.86 4.86 0 0 1 -1.55-.79c-1.11-.58-1.91-.56-3 1a22.43 22.43 0 0 0 -1.87 4.11 5 5 0 0 1 -1 2.14c-.21.16-.4.46-.71.28s-.21-.32 0-.5c.26-.44.69-1 .21-1.38s-1 .12-1.35.47c-.86.88-1.71 1.78-2.53 2.71a35 35 0 0 0 -3.3 4.81 7.29 7.29 0 0 1 -.8 1.19 1.09 1.09 0 0 0 -.31.5c0 1.62-1.31 2.59-2 3.88a12.64 12.64 0 0 1 -1.89 2.59 6.61 6.61 0 0 0 -1.17 1.94 8.07 8.07 0 0 1 -.91 1.55 8 8 0 0 0 -1.33 2.39 1.08 1.08 0 0 1 -.21.43c-1.43 1.47-2.25 3.37-3.5 5a1.72 1.72 0 0 0 -.26.4c-.75 2.1-2.39 3.67-3.42 5.6a3.57 3.57 0 0 1 -1.1 1.25 6.61 6.61 0 0 0 -1.52 2.12c-1.45 2.34-3 4.62-4.62 6.83-.37.45-.43 1.1-.91 1.5zm33.83-52.11a.49.49 0 0 0 -.12.64.37.37 0 0 0 .6.09c.28-.19.64-.31.79-.73a.94.94 0 0 0 -1.27 0z" fill="#6a6a6a"/><path d="m53.55 90.26c-.29.84-.84 1.61-.48 2.62.15.42-.28.81-.61 1.1a3.3 3.3 0 0 0 -.91 1.39 20.72 20.72 0 0 0 -1.39 7.22 1.08 1.08 0 0 0 0 .36c0 .06.11.1.22.2a2.45 2.45 0 0 0 .65-1.57 53.29 53.29 0 0 1 1.83-6 2.88 2.88 0 0 1 .69-1.24c.12-.11.25-.23.42-.14a.33.33 0 0 1 .15.42 21 21 0 0 1 -.87 3.22 3.94 3.94 0 0 0 -.42 2.3c.28.22.54 0 .81 0a2.2 2.2 0 0 1 2 1 4.26 4.26 0 0 1 .54 2.19 9.91 9.91 0 0 1 -.52 3 2.16 2.16 0 0 1 -1.66 1.4c-1 .16-1.32 0-1.53-1a5.23 5.23 0 0 1 0-2.72c.08-.26.26-.61-.09-.74s-.68.1-.86.45a2.7 2.7 0 0 0 -.18.57 1.11 1.11 0 0 1 -.34.71c-.32.21-.57.15-.53-.26s0-.91-.69-1c-.35 0-.38-.46-.45-.77a8.22 8.22 0 0 1 .14-3.56c.17-.7.34-1.4.49-2.1 0-.19.12-.42-.14-.51a.34.34 0 0 0 -.4.17 29.91 29.91 0 0 0 -1.83 2.37 2.4 2.4 0 0 0 -.07 2.39c.13.25.39.46.13.74a.6.6 0 0 1 -.77.11 1.71 1.71 0 0 0 -.8-.19c-.34.17-.74.24-1 .58a41.65 41.65 0 0 1 -4.25 4.56.48.48 0 0 1 -.56 0c-.32-.12-.67-.21-.53-.69 1.81-2.38 3.81-4.6 5.51-7.07.2-.29.46-.63.81-.66.7-.06 1-.53 1.42-1 .77-.86 1.52-1.74 2.34-2.56a6.44 6.44 0 0 0 1.59-2.49 14.68 14.68 0 0 1 1.66-3.43c.45 0 .52.26.48.63zm.56 15.89a.32.32 0 0 0 .27.34.34.34 0 0 0 .34-.27 8.45 8.45 0 0 0 .44-1.85 3.22 3.22 0 0 0 -.45-2.06c-.15-.27-.35-.46-.67-.29a.39.39 0 0 0 -.18.6c.42.62.06 1.34.25 1.9 0 .6-.01 1.11 0 1.63z" fill="#606060"/><path d="m125.05 106.37c-.11.33-.22.65-.32 1a1.37 1.37 0 0 1 .32-1z" fill="#797979"/><g fill="#1d1d1b"><text font-family="BaskervilleMTPro-Regular, Baskerville MT Pro" font-size="10" transform="translate(0 212.52)">(2)</text><text font-family="BaskervilleMTPro-Regular, Baskerville MT Pro" font-size="10" transform="translate(0 8.31)">Upri<tspan letter-spacing=".01em" x="19.07" y="0">g</tspan><tspan letter-spacing="0em" x="23.86" y="0">ht fl</tspan><tspan letter-spacing="-.01em" x="39.69" y="0">ow</tspan><tspan x="51.26" y="0">e</tspan><tspan letter-spacing="-.02em" x="55.64" y="0">r</tspan><tspan x="59.1" y="0">-pedun</tspan><tspan letter-spacing="-.01em" x="87.55" y="0">c</tspan><tspan letter-spacing="0em" x="91.71" y="0">le with fl</tspan><tspan letter-spacing="-.01em" x="126.09" y="0">ow</tspan><tspan x="137.66" y="0">e</tspan><tspan letter-spacing=".01em" x="142.04" y="0">r</tspan><tspan x="145.79" y="0">s</tspan><tspan x="0" y="12">withe</tspan><tspan letter-spacing="-.01em" x="21.88" y="12">r</tspan><tspan x="25.43" y="12">ed &amp; fertili</tspan><tspan letter-spacing="-.01em" x="68.06" y="12">z</tspan><tspan x="72.23" y="12">ed in no</tspan><tspan letter-spacing=".04em" x="104.94" y="12">r</tspan><tspan x="108.95" y="12">mal position.—</tspan></text><text font-family="BaskervilleMTPro-Regular, Baskerville MT Pro" font-size="10" transform="translate(88.16 168.48)">Main <tspan x="0" y="12">fl</tspan><tspan letter-spacing="-.01em" x="5.1" y="12">ow</tspan><tspan x="16.67" y="12">e</tspan><tspan letter-spacing="-.02em" x="21.05" y="12">r</tspan><tspan x="24.51" y="12">-pedun</tspan><tspan letter-spacing="-.01em" x="52.96" y="12">c</tspan><tspan x="57.12" y="12">le</tspan></text><text font-family="BaskervilleMTPro-Bold, Baskerville MT Pro" font-size="8" font-weight="700" transform="translate(76.42 173.17)">—</text></g></svg>