<svg viewBox="0 0 163.84 82.14" xmlns="http://www.w3.org/2000/svg"><path d="m143.48 46.68a22.07 22.07 0 0 0 -1.28 4.78c0 .48-.37.81-.47 1.27a10.22 10.22 0 0 1 -.45 2.1c-.46 1.11-.82 2.28-1.34 3.36-.41.86-.47 1.82-.9 2.65a23.2 23.2 0 0 0 -1 2.74 1.54 1.54 0 0 1 -.53.63c-.34-.19-.1-.38 0-.59s.49-.73 0-1.12a9.14 9.14 0 0 1 .86-2.65c.21-.58.42-1.16.64-1.73.81-2.13 1.42-4.32 2.07-6.5.19-.63.28-1.28.45-1.92.26-1 .73-1.91.91-2.91a5 5 0 0 1 .42-1.48c.09-.2.13-.43.39-.48s.54-.11.7.19a10.76 10.76 0 0 1 -.47 1.66z" fill="#bdbdbd"/><path d="m89.6 37.81a8.23 8.23 0 0 1 -.6-3.34 39.55 39.55 0 0 1 .31-6.15c.14-.79.48-1.51.65-2.29.3-1.37.7-2.7 1-4.06a9.46 9.46 0 0 1 1-2.74c.7-1.17 1-2.5 1.8-3.64.54.28.18.63 0 .86s-.25.44 0 .68a1 1 0 0 1 -.23.83c-.57.87-.83 1.89-1.37 2.77a1.17 1.17 0 0 0 -.09.7c0 .73-.48 1.3-.55 2s-.18 1.19-.23 1.8a1.82 1.82 0 0 1 -.17.56 6.38 6.38 0 0 0 -.68 2.47 35.71 35.71 0 0 0 -.11 6.62c.06.31-.17.53-.26.79-.37.2-.45 0-.52-.32a10.88 10.88 0 0 1 -.08-1.71c0-.74 0-1.49 0-2a35.6 35.6 0 0 0 .06 3.68c.06.66.29 1.29.29 1.95.01.18.12.45-.22.54z" fill="#b7b7b7"/><path d="m89.6 37.81a26.5 26.5 0 0 1 -.38-2.81c0-1.35 0-2.7 0-4.05a1 1 0 0 1 .44-.74 1.66 1.66 0 0 1 .07 1.07 15 15 0 0 0 .27 4.36 1.28 1.28 0 0 1 .65 1.49.84.84 0 0 0 .07.66 2.4 2.4 0 0 1 .21 1.21c0 1.24-.07 2.49-.07 3.74a5.76 5.76 0 0 1 0 .59c-.42.26-.49.81-.9 1.08a2.69 2.69 0 0 1 -.17-1.34 19 19 0 0 0 -.08-3.84c-.03-.48-.08-.95-.11-1.42z" fill="#a4a4a4"/><path d="m147.81 27c-.47.17-.3.63-.45.92a3.52 3.52 0 0 0 -.13-1.47.27.27 0 0 0 -.36-.09c-.3.29-.2.67-.2 1a17.2 17.2 0 0 1 -.69 4.44c-.16.57-.3 1.15-.43 1.73a17.06 17.06 0 0 1 -.63 2.63c-.12.31.34 1.16-.07 1s.16 1.21-.07 1.62c.1.37.29.53.55.57.71.11.17-1.29.62-1.93 0-.07 0-.14.05-.21l.06-.32a.44.44 0 0 1 -.11-.31 1.79 1.79 0 0 1 .29-1.19 1.59 1.59 0 0 1 .12-.72c.19-.47.31-1 .48-1.44a2.4 2.4 0 0 1 0-.66 20.57 20.57 0 0 0 .83-3.89 3.62 3.62 0 0 0 .14-1.68z" fill="#aaa"/><path d="m137.72 62.52c.42 0 .38.28.29.52-.15.4-.35.78-.52 1.17-1 1.8-1.63 3.74-2.65 5.51-.37-.09-.3-.54-.58-.71a.73.73 0 0 1 .12-.57c.64-1.26 1.2-2.57 1.93-3.78a19.27 19.27 0 0 0 .89-1.83c.1-.22.19-.48.52-.31z" fill="#b0b0b0"/><path d="m93.56 17.16a.48.48 0 0 1 0-.74 1.25 1.25 0 0 0 .28-.83c.54-1 1.37-1.77 1.92-2.75a8.2 8.2 0 0 0 1.15-2c0-.17.14-.37.39-.36s.37.33.57.48a.41.41 0 0 1 -.08.5c-1 1.13-1.56 2.52-2.46 3.7-.39.51-.63 1.1-1.05 1.58-.22.26-.38.51-.72.42z" fill="#a7a7a7"/><path d="m147.81 27a.36.36 0 0 1 .1-.48 2.28 2.28 0 0 1 .09-.63 2 2 0 0 1 -.07-.23.3.3 0 0 0 -.2 0 2.13 2.13 0 0 1 -.63 1 4.88 4.88 0 0 0 .25 2.1 4.26 4.26 0 0 0 .46-1.76z" fill="#989898"/><path d="m90 44.41c.08-.37-.17-.86.39-1.08.19-.07.25 0 .34.11a.32.32 0 0 1 .22.34c0 .44.34.6.58.85 0 .27-.16.34-.36.4a4.82 4.82 0 0 1 -.9.32.28.28 0 0 1 -.13-.11z" fill="#959595"/><path d="m134.48 69c.55 0 .29.46.36.72-.23.39-.66.56-1 .87v-.06a1 1 0 0 1 -.54-.45 1.18 1.18 0 0 1 1.18-1.08z" fill="#979797"/><path d="m110.11 80.23a6.73 6.73 0 0 1 .81-1.54.35.35 0 0 1 .42-.15c.19.07 0 .24.09.36.19.53-.1.86-.47 1.16a2.71 2.71 0 0 0 -.41.42c-.08.08-.15.21-.29.17s-.14-.2-.15-.42z" fill="#6f6f6f"/><path d="m108.8 76.44c.42-.28.62-.16.6.33a.64.64 0 0 0 .12.55c.46.44.22.71-.24.92-.46 0-.74-.3-.71-.71a2.57 2.57 0 0 1 .23-1.09z" fill="#717171"/><path d="m145.64 36a24.65 24.65 0 0 0 1.08-2.82c-.26.16.09-1-1.23.71-.06 1 .61.32 0 1.65 0 0-.6 1.67-.6 1.68.57-.85.3-1.48.23-1.29-.75 2-.25-.24-.65 1.92 0 .18.15.78.13 1a13.46 13.46 0 0 1 -.35 1.39c-.47 1.9-.67 3-1.13 4.92.16.43.6 0 .76-.07a14.88 14.88 0 0 1 .6-1.74 15.14 15.14 0 0 0 .5-2.14 15.47 15.47 0 0 1 .76-2.33c0-.11 0-.21 0-.32s0-.22 0-.34c.11-1.38 1.16-4.17-.1-2.22z" fill="#b2b2b2"/><path d="m114.07 2v-.09l5.46-1c1.13-.2 2.22-.5 3.33-.75a5 5 0 0 1 1.73 0c1.13.17 2.26 0 3.4.11a18.62 18.62 0 0 0 2.2-.22 10.57 10.57 0 0 1 3.84.21 2.4 2.4 0 0 0 1.13 0c.68-.12 1.35.06 2-.07a.91.91 0 0 1 .95.51 2.8 2.8 0 0 0 1.32 1.16c-.05.14 0 .22.13.28a1.4 1.4 0 0 1 .26.16c.16.15-.12.58.42.54.25 0 .47.45.77.61s.42.33.15.61a.91.91 0 0 1 -1-.23 2 2 0 0 0 -.91-.42 2.25 2.25 0 0 1 -1.54-.84 2.33 2.33 0 0 0 -2.2-.92 11.42 11.42 0 0 1 -3.25-.21 7 7 0 0 0 -2.62 0 25.7 25.7 0 0 1 -3.39.2 2.71 2.71 0 0 0 -1.06.17.89.89 0 0 1 -.68-.15 1.35 1.35 0 0 0 -1.19-.06 3.73 3.73 0 0 1 -2.09.26 1.78 1.78 0 0 0 -.82.11 17.5 17.5 0 0 0 -2.33.64.92.92 0 0 1 -.28.09c-.91 0-1.81.15-2.72.12a.24.24 0 0 1 -.19-.26c0-.29-.13-.32-.35-.33s-.43.11-.47-.23z" fill="#7b7b7b"/><path d="m141.19 4c-.68-.4-1.16-1.19-2.12-1.05.1-.41.42-.16.55-.33s-.59-.36-.13-.69a5.42 5.42 0 0 1 3.09 1.66c.25.29.67.34 1 .51a5.68 5.68 0 0 1 2 3.31 2.24 2.24 0 0 0 .33.89l.24.59a1.59 1.59 0 0 1 .06.75c0 .28 0 .63-.35.72a.77.77 0 0 1 -.89-.41.81.81 0 0 1 -.07-.22 14.54 14.54 0 0 0 -1.23-3c-.15-.51-.6-.75-1-1.07s-.68-.41-1-.67-.67-.49-.48-.99z" fill="#777"/><path d="m147 26.41c-.13-.16 0-.32 0-.48a.54.54 0 0 1 .85-.14c0 .49-.13.85-.71.84z" fill="#858585"/><path d="m147.83 23.56a17 17 0 0 0 -.44-3.54 16.24 16.24 0 0 1 -.44-1.66 4.07 4.07 0 0 0 -.22-.58c-.07-.15-.17-.26-.35-.23a.37.37 0 0 0 -.31.32c0 .14-.06.32 0 .41.25.32.07.6 0 .89s0 .48 0 .72a15.08 15.08 0 0 0 .54 2.74c.16.89.33 1.27 0 1.61a1.19 1.19 0 0 0 -.2 1.11l.32 1.18c.09 0 0-.08 0 0 .51 1 .66.72 1.09.17a10 10 0 0 0 .01-3.14z" fill="#828282"/><path d="m147 18.36a.34.34 0 0 0 -.08-.09c-.16-.14-.29-.53-.52-.32s0 .39.27.5.13.19 0 .28l-.41.35c-.28 0-.28-.17-.28-.35a20.22 20.22 0 0 1 -.11-3.19 12.18 12.18 0 0 0 -.16-2.29 13.54 13.54 0 0 1 -.21-2.2c.23-.41.59-.44.88-.05a1 1 0 0 1 .18.76.58.58 0 0 0 .44.7 5.77 5.77 0 0 1 .06 2.07c0 .76-.1 1.51-.09 2.27-.2.52.03 1.04.03 1.56z" fill="#8c8c8c"/><path d="m105.93 74.78c-.64.42-1.14.22-1.3-.52a3.69 3.69 0 0 1 0-.58c.41-.45.42-1.07.69-1.57.12-.12.24-.23.41-.09s.09.24.06.4-.26.49-.32.76a.47.47 0 0 0 .26.73c.34.14.41-.2.5-.43a2.83 2.83 0 0 1 1.57-1.48c.1-.05.22-.13.32 0a.26.26 0 0 1 0 .33 10.54 10.54 0 0 0 -1 2c-.12.08 0 .23-.1.32s-.06.53-.34.57-.24-.28-.34-.45a.25.25 0 0 0 -.41.01z" fill="#6a6a6a"/><path d="m105.44 73.18c0-.23.07-.46.12-.7s0-.41-.27-.37l.4-.56c.4 0 .47.18.43.51a1.81 1.81 0 0 1 -.68 1.12z" fill="#7e7e7e"/><path d="m127.28 75.35-.48.12a3.54 3.54 0 0 0 -1.09.75.51.51 0 0 1 -.47.16c-.25-.32-.79 0-1-.41s.2-.4.4-.51a13.65 13.65 0 0 0 1.66-1 1.19 1.19 0 0 1 1.49-.06c.18.21.17.41-.07.54a2 2 0 0 0 -.44.41z" fill="#8b8b8b"/><path d="m129 73.45c.5-.58 1.85-1 2-1.24 3.2-1.07.25.79.06.92-.84.58-.2 0-1.09.76-.4.32-.17.23-.61.51a3.43 3.43 0 0 1 -2 .95c-.14-.45.2-.63.48-.83a.63.63 0 0 1 .31-.69" fill="#7a7a7a"/><path d="m113.26 75.47c-.08-.27-.34-.31-.55-.42s-.38-.08-.43-.19c-.37-.78-1.11-.8-1.81-.91a.44.44 0 0 1 -.06-.16.26.26 0 0 1 .33-.18 2.69 2.69 0 0 0 .85 0 .67.67 0 0 1 .72.42 1.62 1.62 0 0 0 1 .73c.22.09.43.09.53-.19a.41.41 0 0 1 .14-.12c.6 0 .89.56 1.35.82.13.08.22.22.35.32.52.36 1.08.65 1.61 1a2.14 2.14 0 0 0 1.85.35 1.72 1.72 0 0 1 1.61.12c.32.24.32.42 0 .63a2 2 0 0 1 -2.11.27.43.43 0 0 0 -.5 0 .71.71 0 0 1 -.78 0 5 5 0 0 0 -1.78-.2c-.44.11-.7-.53-1-.88-.39-.5-.9-.88-1.32-1.41z" fill="#454545"/><path d="m117.31 78a5.61 5.61 0 0 1 2 .07 1.38 1.38 0 0 0 1.12-.33c.12-.08.26-.15.2-.32a.29.29 0 0 0 -.36-.15c-.71.16-1.44-.08-2.15.09a1 1 0 0 1 -.75-.16 14.22 14.22 0 0 1 -2.12-1.37c.48-.38.93 0 1.21.23 1.41 1.17 2.92.92 4.47.49.11 0 .22-.12.34-.1a4.08 4.08 0 0 0 2.58-.53.39.39 0 0 1 .5 0c.28.12.76-.23.84.36 0 .21-.24.16-.36.24-.69.47-1.55.57-2.27 1a.68.68 0 0 1 -.52.07 2.12 2.12 0 0 0 -1.69.35 1.73 1.73 0 0 1 -1.09.24c-.52 0-1-.3-1.57 0-.1.09-.26-.06-.38-.18z" fill="#676767"/><path d="m101.37 8a22.81 22.81 0 0 0 -2.75 2.34c-.3.29-.7.37-1 .66-.29.05-.33-.15-.36-.37a2.15 2.15 0 0 1 .65-.92c.8-.68 1.64-1.31 2.47-2a1.26 1.26 0 0 0 .58 0c.21.06.38.09.41.29z" fill="#929292"/><path d="m101.37 8c-.39 0-.75.25-1.18.11l.21-.36a10.09 10.09 0 0 1 2.28-1.55 5.71 5.71 0 0 0 1.58-.69l.7-.26c.14.15.25.06.4 0a1 1 0 0 1 1.24.34c-.09.28-.38.26-.58.36a5.66 5.66 0 0 0 -1.38.54c-1.05.63-2.24.92-3.27 1.51z" fill="#757575"/><path d="m106.54 5.66c-.52.29-1-.23-1.5-.12-.08 0-.09-.15-.08-.25a10.79 10.79 0 0 1 3.06-.9c.41-.06.89 0 1.17-.42a1.3 1.3 0 0 1 .88-.57 4.28 4.28 0 0 0 1.84-.77 2.36 2.36 0 0 1 1.46.09c.22.08.4.16.34.45a1.27 1.27 0 0 1 -.4.4c-.58.47-.57.9 0 1.35a.74.74 0 0 0 .9.3h.28a1.64 1.64 0 0 1 .7.07c.51.26.76.28.35 1a1.2 1.2 0 0 1 -1 .52c-.35 0-.64.3-1 .45a5.42 5.42 0 0 1 -1.77.49 4.42 4.42 0 0 0 -1.69.61 5.52 5.52 0 0 1 -2.18.64.57.57 0 0 1 -.42-.21l-.25-.33c-.15-.18-.34-.38-.18-.63s.36-.58.72-.54a3.24 3.24 0 0 0 2.63-.84.79.79 0 0 1 .25-.15c.12-.08.2-.16 0-.27a9.43 9.43 0 0 0 -2-.32h-.18c-.3.19-.54-.12-.82-.11s-.46-.11-.69 0-.26.16-.42.06z" fill="#545454"/><path d="m113.48 3.24a1.91 1.91 0 0 0 -1.57-.61 18.21 18.21 0 0 0 2.16-.6h.72s.78 0 .86.37-.44.16-.61.37a2 2 0 0 1 -1.56.47z" fill="#656565"/><path d="m132.07 72.23c-.14-.29-.34-.18-.53-.07s-.37.2-.55.3c-.2-.51.38-.34.49-.58.44-.36.87-.73 1.33-1.08.3-.17.45-.5.68-.74.28 0 .46.15.4.47a2.19 2.19 0 0 0 -.69.93 1.79 1.79 0 0 1 -1.1.93z" fill="#8a8a8a"/><path d="m147 12.46a2.15 2.15 0 0 1 -.09.8c-.24-.06-.2-.2-.17-.34s0-.31-.15-.31c-.66 0-.56-.55-.45-.78.29-.59-.07-.73-.47-.91a.58.58 0 0 1 -.62-.46c0-.37-.31-.77.12-1.09a3 3 0 0 1 .22.35c.07.18.08.42.37.36a.45.45 0 0 0 .37-.48c0-.24 0-.48 0-.72z" fill="#818181"/><path d="m90.93 44.75.36.62a.61.61 0 0 1 0 .81c-.16.29-.41.27-.67.18a.25.25 0 0 1 -.22-.24 1.37 1.37 0 0 1 -.22-.88c.22-.24.34-.57.75-.49z" fill="#545454"/><path d="m110.48 73.8v.2c-.34-.11-.3-.38-.25-.64a1.17 1.17 0 0 0 -.74-1.44l-.53-.26c-.86-.74-1.65-1.54-3-1.13a1.93 1.93 0 0 1 -2-.88c-.54-.62-1.15-1.16-1.67-1.79v-.13c.27-.43.47-.07.66.08a1.11 1.11 0 0 0 1.36.24 4.5 4.5 0 0 1 1.47.69 1.19 1.19 0 0 0 .6.25c.38.06.56-.11.5-.5a2.54 2.54 0 0 0 -.55-.92 6.51 6.51 0 0 1 -1.25-2c-.05-.39-.32-.7-.33-1.12a.74.74 0 0 1 .94-.84 1.19 1.19 0 0 1 .56.59 11.28 11.28 0 0 0 1.75 2.61 10.33 10.33 0 0 1 .8 1.55 1 1 0 0 0 .62.56 1.23 1.23 0 0 1 .93.81c-.13.32-.38.26-.6.16a9 9 0 0 0 -1.53-.61c.05.19.22.44-.07.63s-.36 0-.57 0a11 11 0 0 0 -2.8-.38 1 1 0 0 0 1.11.43 2.9 2.9 0 0 1 2 .06s.11 0 .17-.06c.38.06.3.48.51.67.57.28 1 .83 1.7.88.43 0 .3.49.47.73s.62.45.26.87a1.29 1.29 0 0 0 -.52.69z" fill="#464646"/><path d="m101 64.8a16.29 16.29 0 0 0 -1.43-3.12 10.6 10.6 0 0 0 -.58-1.4.56.56 0 0 1 .58-.84 1 1 0 0 1 .35 0 9.13 9.13 0 0 1 1.65 3 1.36 1.36 0 0 0 .25 1c.18.19.09.49.07.74s-.32.21-.48.08c.48.49.45.71-.16.94z" fill="#595959"/><path d="m104.37 68.13a.83.83 0 0 1 -1.33.08 1.84 1.84 0 0 0 -.71-.53l-.38-.34c-.23-.29-.85-.39-.46-1 .25-.17 0-.58.32-.7s.38.36.68.35c.05 0 .11 0 .16.06s.35.07.43.2a7.2 7.2 0 0 0 1.32 1.75s0 .07-.03.13z" fill="#3a3a3a"/><path d="m102.56 66.24c-.48 0-.48 0-.75-.29l-.32.41c.19-.46-.32-.76-.25-1.19s.28-.6-.16-.79a.38.38 0 0 1 -.13-.19c-.06-.22-.29-.54-.06-.63s.66-.11.72.37a1.58 1.58 0 0 0 .13.26h.17c.24.68 1.01 1.18.65 2.05z" fill="#4d4d4d"/><path d="m101.49 66.37a2.41 2.41 0 0 0 .46 1l-.53-.25" fill="#4d4d4d"/><path d="m105.93 74.78c.13-.11.33-.17.43 0 .47.69.52.09.68-.2l.1-.15c-.08.43-.18.85-.25 1.28a1.11 1.11 0 0 0 .26 1 .54.54 0 0 1 0 .74c-.24.24-.46.06-.68 0a3.74 3.74 0 0 1 -.18-2c.02-.38.02-.65-.36-.67z" fill="#818181"/><path d="m135 62.4c-.35 1.25-1.05 2.36-1.49 3.57a2 2 0 0 1 -.31.5.32.32 0 0 1 -.24.09c-.44-.36.18-.57.08-1-.1-.07-.39.05-.48-.19a.29.29 0 0 1 .07-.41c.28-.22.33-.63.52-.85a11.31 11.31 0 0 0 1-2.07 4.18 4.18 0 0 0 .69-2.47.8.8 0 0 1 .16-.56 9 9 0 0 0 .81-2.24 36.47 36.47 0 0 1 1.24-3.77c.49-1.17.6-2.47 1.1-3.64.1-.21.11-.48.37-.59.31 0 .48-.09.57-.41s0-.55.44-.39a5.8 5.8 0 0 1 -1 3.13c-.25.52-.07 1-.3 1.56a24.39 24.39 0 0 0 -1.05 2.73c-.36 1.17-.62 2.37-.95 3.55a6.35 6.35 0 0 1 -.44.91c-.26.87-.52 1.72-.79 2.55z" fill="#ababab"/><path d="m139.53 48a2.23 2.23 0 0 0 -.32.82c-.08.22-.23.59-.53.14a.36.36 0 0 0 0-.09.74.74 0 0 1 0-.88 2.15 2.15 0 0 0 .24-.78 3.86 3.86 0 0 1 .11-1.39c.42-.18.32-.64.49-1a2.31 2.31 0 0 0 .43-1.53.49.49 0 0 1 .05-.29 8.92 8.92 0 0 1 .69-2.08.49.49 0 0 1 .17-.06c.23.05.48-.19.7.05a13.5 13.5 0 0 1 -.75 2.59 31.93 31.93 0 0 1 -1.09 3.57 4.41 4.41 0 0 0 -.19.93z" fill="#969696"/><path d="m142 39.13-.41.87a5.35 5.35 0 0 1 -.18-3.42.33.33 0 0 1 -.16-.33 12.42 12.42 0 0 0 0-3.55.69.69 0 0 1 0-.2c0-.46.19-.88.69-1s.86.43.93 1a3.12 3.12 0 0 1 -.12 1.45c-.06.51.29 1 0 1.53a.39.39 0 0 1 .11.53 1.27 1.27 0 0 0 -.13.69 2.37 2.37 0 0 1 -.48 1.41 3.45 3.45 0 0 0 -.25 1.02z" fill="#4b4b4b"/><path d="m93.8 42.72a7.07 7.07 0 0 0 -.72-2.41l-.12-2a21.75 21.75 0 0 0 -.24-2.31 13.21 13.21 0 0 1 -.06-2.18c0-.19 0-.39.26-.41s.28.16.34.35c.24.78.35 1.6.55 2.4a27.3 27.3 0 0 1 .33 3.93.61.61 0 0 0 -.25.85 3.45 3.45 0 0 1 .2 1.27c-.01.21.03.47-.29.51z" fill="#a0a0a0"/><path d="m93.56 36.36a17.46 17.46 0 0 1 -.45-2.15c0-.18.06-.54-.23-.51s-.15.37-.15.57v1.73a11.22 11.22 0 0 1 -.06-3.61 12.08 12.08 0 0 0 0-2.62 5.09 5.09 0 0 1 .18-1.94c.12 0 .21.09.19.18a1 1 0 0 0 .47 1 6.52 6.52 0 0 1 .06 1.71 7.48 7.48 0 0 0 .1 2.16 1.86 1.86 0 0 1 0 1.12 1.55 1.55 0 0 0 0 1.16 1.32 1.32 0 0 1 -.11 1.2z" fill="#b1b1b1"/><path d="m92.58 24.84.12-.24c.16-.25.07-.54.13-.81s0-.54.31-.55.42.24.4.54a1.49 1.49 0 0 1 0 .21c0 1 .17 1.88.1 2.83-.05.27-.2.47-.47.43s-.3-.32-.3-.55 0-.2 0-.3a3 3 0 0 0 -.29-1.56z" fill="#9a9a9a"/><path d="m92.84 26.4c.22.08 0 1 .59.36a.25.25 0 0 1 .19.27 6 6 0 0 1 -.41 2c-.2.15-.4.29-.39-.14s0-.71 0-1.06a2.33 2.33 0 0 1 .02-1.43z" fill="#a9a9a9"/><path d="m92.72 36a5.68 5.68 0 0 1 .28 2.28 11.61 11.61 0 0 1 -.28-2.28z" fill="#b1b1b1"/><path d="m100.51 10.05a3.79 3.79 0 0 1 1.49-1.15c.58-.24 1.2-.38 1.77-.63a8.33 8.33 0 0 1 .82-.34c.39.23.15.42 0 .58a1.31 1.31 0 0 1 1.87 0 .25.25 0 0 1 -.22.3 6 6 0 0 0 -2.1.94 10.1 10.1 0 0 1 -1.75.69 5.6 5.6 0 0 0 -2.39 1.56 2 2 0 0 1 -.51.4l-.16.06c-.33.09-.73.23-.89-.16s.21-.55.47-.73c.61-.41 1.02-1.05 1.6-1.52z" fill="#787878"/><path d="m100.51 10.05a10.72 10.72 0 0 1 -1.41 1.52c-.18.17-.58.25-.46.54s.52.18.8.13a.78.78 0 0 1 -.23.89 1.87 1.87 0 0 0 -.85 1 6.84 6.84 0 0 1 -1.36 1.44 9.63 9.63 0 0 0 -1.09 1.3c-.16.21-.26.45-.41.66s-.44.55-.78.36 0-.48 0-.73a11.19 11.19 0 0 1 2.28-3.27 4.84 4.84 0 0 0 .88-1.18 10.31 10.31 0 0 1 2.63-2.66z" fill="#898989"/><path d="m94.76 17.16c0 .18-.15.44.12.52s.39-.14.49-.34.21-.51.47-.66a.61.61 0 0 1 .11.8 3.67 3.67 0 0 0 -.77 1.27 15.85 15.85 0 0 0 -1.45 4.34.7.7 0 0 1 -.41.67l-.22-.35c-.19.41-.16.85-.4 1.19a39.36 39.36 0 0 1 .62-4.2v-.08c-.15-.46.18-.76.39-1.06a6.81 6.81 0 0 0 .29-.62h.08c.39-.43.33-1.05.68-1.48z" fill="#a9a9a9"/><path d="m93.8 42.72a6 6 0 0 0 -.39-2.3c0-.18-.25-.39 0-.54s.39.07.56.2c.42.06.54.4.6.72a13.24 13.24 0 0 1 .27 1.86 1.16 1.16 0 0 1 -.88.65h-.14z" fill="#8b8b8b"/><path d="m142.54 25.69a.14.14 0 0 0 -.08.13.22.22 0 0 0 .09.14 1.55 1.55 0 0 1 0 1.49c.06.43.17.88-.45 1 0 .93-.15 1.86-.16 2.79a.84.84 0 0 0 .49.75.77.77 0 0 1 .42.78 5.18 5.18 0 0 0 0 1.18 3.77 3.77 0 0 0 .24-1.33 17.54 17.54 0 0 1 .26-3.69.46.46 0 0 0 .11-.33 6.81 6.81 0 0 1 .14-1.56 10.84 10.84 0 0 0 0-1.15l.07-.73c-.52 0-.61.67-1.13.53z" fill="#a7a7a7"/><path d="m142.36 31.82c-.2-.11-.18-.37-.15-.6a10.35 10.35 0 0 0 .08-2.78c.34-.25.1-.48-.09-.61-.38-.28-.3-.55-.13-.91s.28-.75.45-1.12c0 0 0-.07 0-.11l-.43-.08c0 .43-.1.54-.48.57a.77.77 0 0 1 -.16.35 12.82 12.82 0 0 0 -1.06 1.74c-.75 1.42-1.85 2.61-2.71 4-.29.5-.85.71-1.21 1.14a.48.48 0 0 0 0 .17c.26.32.14.47-.21.62-.66.27-.84.78-.54 1.26.08 0 .17.1.23 0 .66-.45 1.47-.71 1.89-1.48a8.07 8.07 0 0 1 1.16-1.3c.15-.17.35-.28.41-.51.22-.86.92-1.43 1.32-2.18a.66.66 0 0 1 .14-.2c.16-.13.28-.11.36.09a2.08 2.08 0 0 1 .07.5 16.74 16.74 0 0 1 -.1 2c0 .17.06.33.29.26.08-.34.08-.83.54-.79a.89.89 0 0 1 .74.76 2.42 2.42 0 0 1 0 .47v.9h.09v-.65c.04-.6.14-1.16-.5-1.51z" fill="#6b6b6b"/><path d="m90.93 47.15c-.23-.26-.24-.62-.38-.92.56 0 .77-.34.74-.86h.11c.52.16.55.71.86 1a2.53 2.53 0 0 0 .2.36 5.93 5.93 0 0 1 1 1.53 1.61 1.61 0 0 1 .5 1.24c0 .31.2.62.32.93a31.46 31.46 0 0 0 1.29 3.8.86.86 0 0 1 .14.68c-.42.6-.42.6-1 .24a.38.38 0 0 0 -.26-.08c-.31-1.06-.65-2.1-.9-3.16a9.36 9.36 0 0 0 -1.89-3.81c-.32-.27-.49-.63-.73-.95z" fill="#8d8d8d"/><path d="m94.39 55.11c0-.14.1-.32.26-.17a.64.64 0 0 0 .85 0c.47-.2.51.3.71.48a35.64 35.64 0 0 1 3.51 3.58c.18.22.53.47.08.78a.51.51 0 0 0 -.65.12c-.18.23 0 .42.07.61a4.15 4.15 0 0 1 .34 1.19 2.37 2.37 0 0 1 -.44-1 4.17 4.17 0 0 0 -1.49-1.9 24.35 24.35 0 0 1 -2.16-2.15 7.13 7.13 0 0 0 -1-1.33z" fill="#838383"/><path d="m94.49 55.33a2.53 2.53 0 0 1 1 1.33 7 7 0 0 1 -1-1.33z" fill="#8d8d8d"/><path d="m129.09 71.75a9.72 9.72 0 0 0 -1.44 1c.21.28 0 .44-.18.61a4.87 4.87 0 0 1 -2.3 1.2 5.87 5.87 0 0 0 -2.1 1 1.62 1.62 0 0 1 -1.28.35 9.62 9.62 0 0 0 -1.42 0 2.69 2.69 0 0 1 -1.82-.66 7.94 7.94 0 0 0 -2.55-1.31l-.16-.06c-1.06-.34-1.43-.19-1.85.74-.24.25-.46.17-.55-.1a1.77 1.77 0 0 0 -.62-.78.65.65 0 0 1 -.23-.85.79.79 0 0 1 .78-.34 7.66 7.66 0 0 1 2.55.42 2.41 2.41 0 0 1 .81.42.66.66 0 0 0 1 0c.31-.27.85-.17 1.08-.48a1.14 1.14 0 0 0 -1.2.58c-.15.24-.46.18-.7.06s-.27-.32-.14-.55a.57.57 0 0 0 .06-.46c-.17-.51.09-.7.59-.75-.36 0-.66 0-.83.32a.4.4 0 0 1 -.47.19 3.84 3.84 0 0 0 -.83 0c-.45 0-.68-.3-.84-.64s.06-.4.29-.49a3 3 0 0 0 .87-.33 14 14 0 0 0 3.09.3 2 2 0 0 0 1.16-.22 3.59 3.59 0 0 0 1.91-1.77 1.08 1.08 0 0 1 .3-.4c.41-.26.67-.14.73.34a2.1 2.1 0 0 1 0 .83.3.3 0 0 0 .21.38h.12a3.16 3.16 0 0 1 .92 0 .93.93 0 0 1 .83-.53c.48 0 .56-.54.92-.69.81-.22 1-.1.83.6-.06.24-.2.44-.27.67 0 .69-.55.88-1 1.17a2.11 2.11 0 0 0 -.75.55 1 1 0 0 1 -.83.37 4.92 4.92 0 0 0 -2 .32c-.23.2-.38.43-.23.73s.46.25.74.22a2.34 2.34 0 0 0 1-.38 5 5 0 0 0 2-.77.77.77 0 0 1 .63-.11c.41.06.58-.22.8-.48s.51-.91 1.12-.93a1.38 1.38 0 0 1 .84-.17c.56.13.6.22.41.88z" fill="#434343"/><path d="m129.09 71.75c0-.36-.07-.68-.51-.73a.49.49 0 0 1 -.09-.63c.58-.74 1.19-1.45 1.75-2.21.68-.1.8 0 .62.66a1.24 1.24 0 0 1 -.61.88c-.19.09-.22.32-.32.49-.24.53-.84 1-.57 1.65z" fill="#696969"/><path d="m115.53 71.13c-.08.46-.64.14-.78.51.31.48.83.35 1.3.39.1 0 .24 0 .18-.16-.24-.59.21-.34.42-.35h1.14c.15 0 .4 0 .4.14a.48.48 0 0 1 -.34.51 2 2 0 0 1 -.88 0c.37.42.53.75.08 1a.15.15 0 0 0 0 .22.18.18 0 0 0 .27 0 .8.8 0 0 0 .22-.27c.16-.68.58-.79 1.15-.54.13-.18-.19-.33 0-.45s.25 0 .37.1c.68.44.69.44-.06.91a1.33 1.33 0 0 0 -.35.4c-.14.22-.26.68-.57.11 0-.09-.18-.08-.27 0a2.06 2.06 0 0 1 -1.5-.17 5.41 5.41 0 0 0 -2.51-.48c-.18 0-.38-.1-.58-.13a.39.39 0 0 0 -.45.22.24.24 0 0 0 .13.35 1.22 1.22 0 0 1 .82 1c0 .08.15.12.22.18 0 .22.34.43.07.64s-.5.06-.75-.11c-.48-.33-1.11-.45-1.35-1.09-.07-.19-.35-.17-.55-.17a2.19 2.19 0 0 1 -.88-.12c-.14-.39-.16-.73.36-.84.32.23.44-.17.66-.15-.41.18-.62-.41-1-.33-.15-.56-.61-.69-1.09-.88a4 4 0 0 1 -1-.8.73.73 0 0 0 -.36-.72 12.05 12.05 0 0 0 -2.24.21c-.77.19-1.24-.42-1.76-.83-.08-.07-.08-.27 0-.25.37.13.64-.23 1-.14a13 13 0 0 1 2.69.73.16.16 0 0 0 .21-.24c-.08-.09-.2-.16-.24-.26-.1-.26-.18-.58.1-.76s.45 0 .64.26a4.12 4.12 0 0 0 1.82.91c.27-.14.44 0 .62.2a5.79 5.79 0 0 1 1.26 1.64 1 1 0 0 0 1 .43c.51-.1.62-.36.27-.74a14.57 14.57 0 0 1 -.94-1.38 1.14 1.14 0 0 1 -.16-.8.39.39 0 0 1 .41-.42c.36 0 .76 0 1.06.28a6.93 6.93 0 0 0 1.46 1.64c.21.18.48.29.28.6z" fill="#3a3a3a"/><path d="m104.6 8a6.6 6.6 0 0 1 2.15-.86c.6-.11 1-.64 1.45-1 .29-.24.49-.26.74.06.72.91.72.91 1.79.43a.88.88 0 0 1 .23-.07 3.37 3.37 0 0 1 -1.5.8 3.21 3.21 0 0 0 -1 .45c-.1.09-.26.18-.37.07s-.37-.36-.62-.06-.07.51.08.74l.06.11c-.48.38-.87 0-1.29-.15a2 2 0 0 0 -2 .51c-.11.1-.29.22-.42.09s.06-.26.14-.37.36-.48.56-.75z" fill="#5e5e5e"/><path d="m116.6 6a2.38 2.38 0 0 1 -1.2.24c.09-.67-.07-.8-1-.86a5 5 0 0 1 1.81-.24 1.49 1.49 0 0 1 .63-.05c.22 0 .45 0 .51.29s-.18.39-.38.51-.26.01-.37.11z" fill="#6b6b6b"/><path d="m111 5.76a9.68 9.68 0 0 0 -2.4-.23 3.09 3.09 0 0 1 2.4.23z" fill="#757575"/><path d="m108.57 5.53c-.57.25-1.13 0-1.69 0 .56-.26 1.12.06 1.69 0z" fill="#757575"/><path d="m93.91 43.31a.75.75 0 0 1 .74-.6h.09c.66 0 .66 0 .71.72a1.31 1.31 0 0 1 .21.75 2.81 2.81 0 0 1 0 .41c-.08.51-.37.63-.84.35a.53.53 0 0 1 -.29-.52c-.06-.42-.53-.7-.62-1.11z" fill="#5d5d5d"/><path d="m105.53 63.24.17.47c-.67.15-.84.43-.59 1a1.78 1.78 0 0 1 .2.79c-.18 0-.25-.1-.35-.2-.14-1-1-1.37-1.54-2a2.7 2.7 0 0 1 -.54-.76c-.24-.34-.55-.66-.47-1.13.1-.21.34-.25.51-.38s.51-.19.53.22.41.37.58.61a1.47 1.47 0 0 1 .48 1.2c.25-.25.2-.51.41-.57.45.06.55.39.61.75z" fill="#595959"/><path d="m110.48 72.48c.43-.14.83.21 1.31 0 .29-.11.41.36.55.8-.46-.35-.77-.47-1.13 0-.15.19-.29-.14-.37-.31.16-.36-.33-.26-.36-.49z" fill="#454545"/><path d="m108.08 70.08c.22.07.51 0 .62.25s-.11.35-.26.47c-.57-.01-.25-.47-.36-.72z" fill="#454545"/><path d="m132 66.47a2.6 2.6 0 0 1 .72-1.07l.4-.36c.11-.11.19-.3.38-.2s.12.31.07.48a2.75 2.75 0 0 1 -.6 1.16 3.08 3.08 0 0 0 -1.07 1.37c-.12.23-.21.47-.49.55-.37-.51 0-.84.26-1.23.08-.17.44-.34.33-.7z" fill="#969696"/><path d="m138.68 49a7.34 7.34 0 0 1 .37-1.67 3.25 3.25 0 0 1 -.37 1.67z" fill="#ababab"/><path d="m138.61 37.88c.34-.23-.07-.35 0 0z" fill="#535353"/><path d="m139.6 34.82c-.12-.14-.12-.34-.23-.48-1-.29-1.42.33-1.93 1.06-.15 1.42.17.89 1-.11.18-.21.87-.5.25 1.34v.11a2.25 2.25 0 0 0 0 .64c0 .24-.16.86 0 .92s.24-.18.36-.25l.21-.12a.58.58 0 0 0 .05-.14.77.77 0 0 1 .12-.66l.34-.77a1.3 1.3 0 0 0 -.17-1.54z" fill="#535353"/><path d="m139 38.05a.43.43 0 0 0 -.2.21s0 0 .06 0a.21.21 0 0 0 .22-.08" fill="#535353"/><path d="m138.84 38.26c-.07.16.1.22.28-.06a.21.21 0 0 1 -.22.08s-.04-.02-.06-.02z" fill="#535353"/><path d="m132 66.47c.17.08.41.24.2.38-.58.38-.54 1-.79 1.55a5 5 0 0 1 -1.43 1.81.61.61 0 0 1 .28-.55c.46-.25.33-.73.45-1.1s-.17 0-.28 0a16.27 16.27 0 0 1 1.57-2.09z" fill="#858585"/><path d="m141.45 36.24c0-1.2 0-2.4 0-3.6a1.66 1.66 0 0 1 .2 1 8.48 8.48 0 0 0 0 2 1.09 1.09 0 0 1 -.2.6z" fill="#6b6b6b"/><path d="m93.58 39.19c0 .12 0 .29-.12.3s-.23-.19-.24-.35 0-.34.14-.34.16.25.22.39z" fill="#8b8b8b"/><path d="m140.36 8.65-.81-.65a.75.75 0 0 1 -.22-.41 1.56 1.56 0 0 0 -.74-1 5.36 5.36 0 0 1 -.82-.69 2.22 2.22 0 0 0 -1.34-.74 5.67 5.67 0 0 1 -1.51-.38c-.82-.31-1.71-.26-2.51-.64a1 1 0 0 0 -.76.08 4.72 4.72 0 0 1 -2.47.18c-.17 0-.34 0-.46-.13a2 2 0 0 1 -.18-.36c-.18-.37-.16-.67.3-.8a1.23 1.23 0 0 1 .52-.1 7.37 7.37 0 0 0 2.77-.11 6.73 6.73 0 0 1 3 .44 8.58 8.58 0 0 0 1.58.28c1.2.27 1.9 1.3 2.88 1.91a2.38 2.38 0 0 0 1.12 1.56c.12.07.29.15.32.26.19.76.89 1.25 1.12 1.93a8.12 8.12 0 0 1 .56 2.49 5.27 5.27 0 0 0 .42 1.29 8.62 8.62 0 0 0 .91 2.31 2.18 2.18 0 0 1 .06.88c0 .25.07.57-.24.67s-.43-.2-.57-.41a1.85 1.85 0 0 1 -.38-.67 9.53 9.53 0 0 1 -1-3.28 16.09 16.09 0 0 1 -.4-1.8c0-.58-.56-.82-.83-1.25a2.41 2.41 0 0 1 -.32-.86z" fill="#717171"/><path d="m128.84 3.11c-.36.36-.1.71 0 1.07s-.36.52-.7.54a8.83 8.83 0 0 1 -1.7-.25c-.06-.1-.27-.2 0-.32s.35-.37.62-.17a.73.73 0 0 0 .69.1.86.86 0 0 1 -.75-.08c-.36-.16-.67.07-.68.49a6.86 6.86 0 0 1 -2 .49c-.85.1-1.69.31-2.52.47s-1.62.13-2.43.23c-.52.06-1 .36-1.56.2l-1.21.12c.18-.18.61-.21.46-.58s-.53-.24-.83-.28c1.75-.3 3.4-1 5.23-1.11a21.36 21.36 0 0 0 4.45-.81 2.51 2.51 0 0 1 1.69-.06c.4.17.82-.05 1.24-.05z" fill="#7a7a7a"/><path d="m143.72 24.24s-.11 2.24-.11 2.28c-.45.22-.35-.82-.8-.62l-.7-.29c0-.37.36-2.14.29-2.52.18-.19.34.17.51.33a2.26 2.26 0 0 0 .49.31c.19.12.19.35.32.51z" fill="#8f8f8f"/><path d="m135.81 35.31c-.16.23-.16.6-.54.64-.2 0-.29-.14-.33-.29-.07-.36-.23-.74.09-1.06a3.43 3.43 0 0 1 .53-.48c.34-.23.7-.44 1.06-.65a2.44 2.44 0 0 1 .87.39c-.65.41-1.43.64-1.68 1.45z" fill="#5f5f5f"/><path d="m143.72 24.24-.35-.35a1.2 1.2 0 0 1 0-1.19 2.24 2.24 0 0 0 .13-.27c-.56.11-.67 0-.75-.51.18-.43.06-.91.21-1.34a3.57 3.57 0 0 0 -.2-1.52 1.54 1.54 0 0 1 .05-1.26c.31-.19.5-.07.53.26a4.12 4.12 0 0 1 0 .93c.07-.22-.08-.47.09-.67.43-.37.55.08.77.28-.39 1.86-.2 3.77-.48 5.64z" fill="#9c9c9c"/><path d="m144.21 18.6c-.34.27-.41-.16-.61-.24a1 1 0 0 1 -.44-1.1 6.1 6.1 0 0 0 .18-.93c.19.11.28.46.56.32s.16-.41.17-.64 0-.43 0-.64c0 .05.07.1.07.16.01 1.02.16 2.04.07 3.07z" fill="#8a8a8a"/><path d="m124.28 66.59a1.62 1.62 0 0 1 -.69.52.94.94 0 0 0 -.63 1.12c0 .11.08.27 0 .34-.46.59-.15 1.26-.21 1.9 0 .3.11.44.41.43-.41.42-.51 0-.56-.25s0-.67 0-1 .1-.49-.14-.59-.27.24-.46.3a11.09 11.09 0 0 1 1.1-3v-.09c.24-.64.5-.79 1.07-.61a3 3 0 0 1 .11.93z" fill="#7a7a7a"/><path d="m120.43 73.35c-.12.19 0 .64-.42.61a.47.47 0 0 1 -.48-.55c0-.31.17-.66.57-.64s.37.23.33.58z" fill="#bababa"/><path d="m123.18 70.9c.18-.44.35-.88.53-1.31.07-.16.13-.41.33-.35s.09.33.08.51-.39.61 0 .9c-.3.06-.7-.14-.94.25z" fill="#7d7d7d"/><path d="m126.68 69.59-.23.14c.15-.71-.25-.5-.61-.37l.36-.36c.27-.16.56-.57.85-.15s-.12.53-.37.74z" fill="#565656"/><path d="m112.43 65.87a4.71 4.71 0 0 1 .61 2c0 .51.39.9.58 1.35-.3-.15-.62-.55-1-.22s0 .7.22 1a7.09 7.09 0 0 0 1.16 1.36c.36.34.24.7-.24.83a1.45 1.45 0 0 1 -1.82-.56 1.57 1.57 0 0 0 1.65.42c.34-.07.49-.29.23-.54-.49-.48-.77-1.12-1.27-1.58-.48-.15-.54-.55-.52-1a5.81 5.81 0 0 0 -.09-1.18 2.47 2.47 0 0 1 0-1.94c.07-.13-.05-.39.22-.41s.09.39.27.47z" fill="#585858"/><path d="m96.91 50.78a1.59 1.59 0 0 1 -.16-.81 1.26 1.26 0 0 0 -.31-1 8.44 8.44 0 0 1 -.94-1.36v-.33a6.25 6.25 0 0 1 -.5-1.79l-.25-.49v-.24c.62.1.69 0 .72-.73.28-.08.29.15.34.31a4.64 4.64 0 0 1 .29 1.21 3.37 3.37 0 0 0 .91 2 2.81 2.81 0 0 1 .65 2.32c-.37.19-.32.74-.75.91z" fill="#787878"/><path d="m102.19 58.72a18.75 18.75 0 0 1 1 1.76c.07.49-.36.66-.6 1 0 .43.32.73.48 1.1-.58-.34-.7-1-1-1.51-.57-1-1.05-2-1.54-3a13.85 13.85 0 0 0 -.94-1.84c-.11-.25-.17-.53.09-.69s.49-.34.75 0c0 .48.4.77.63 1.13a13.5 13.5 0 0 1 1.13 2.05z" fill="#5c5c5c"/><path d="m102.56 61.43c0-.11-.23-.28 0-.35.34-.11.43-.25.37-.6 0-.16.17 0 .27 0a13.76 13.76 0 0 0 1.8 2.16c.07.16.14.33.22.49s.18.23 0 .37a.34.34 0 0 1 -.43.09c-.31-.16-.63-.32-.65-.72s.07-.6-.41-.45c.15-.55-.69-.63-.52-1.22z" fill="#464646"/><path d="m136.63 25.31c-.35.34-.25.89-.62 1.25s-.44.55-.69.8a3.56 3.56 0 0 1 -1.32 1.36c-.16.11-.29.17-.31.37a.65.65 0 0 1 -.57.57c-.17-.06-.39 0-.51-.2-.21-.59.26-.92.53-1.3.81-1.13 1.87-2.07 2.69-3.21.19-.25.09-.73.57-.76a.31.31 0 0 1 .3.45c-.03.22.03.46-.07.67z" fill="#8a8a8a"/><path d="m139 21.1v.13c-.67.66-.9 1.62-1.55 2.29-.18-.1-.28-.22-.18-.45a.82.82 0 0 0 -.06-.57 10.75 10.75 0 0 1 .83-1.75.44.44 0 0 1 .46-.29c.35.09.36.43.5.64z" fill="#b1b1b1"/><path d="m137.47 22.55c.33.32-.11.65 0 1a5.9 5.9 0 0 0 -.85 1.79c-.15-.3.15-.71-.23-.95a1.16 1.16 0 0 1 .32-1.26c.29-.22.21-.82.76-.58z" fill="#a4a4a4"/><path d="m126.68 69.59c.1-.19.4-.35.21-.61s-.46 0-.69 0c.64-.55 1.29-1.11 1.94-1.65.15-.12.34-.27.53-.11s.1.35.05.55a1.5 1.5 0 0 1 -.62.84l-.21.14c-.44.25-.71.7-1.21.84z" fill="#757575"/><path d="m136 38.63c0 .21.16.28.37.25a5.46 5.46 0 0 1 -.89 1.79c-.11.13-.25.33-.44.21s-.09-.33 0-.48c.33-.6.67-1.18.96-1.77z" fill="#a1a1a1"/><path d="m139 38.88c0 .6-.09 1.19-.14 1.79-.31.28-.28.79-.8 1.12a29.12 29.12 0 0 1 .46-3.28c.36.07.14.34.19.5.08-.11.15-.23.29-.13z" fill="#8e8e8e"/><path d="m138.6 37.75c.06.19-.08.56 0 .76s-.05.63-.06.94c0 .15 0 .35.2.36s.18-.17.2-.31a1.65 1.65 0 0 1 .14-.62c0-.35.22-.76.26-1.09-.25.18-.48.35-.62 0 0-.06 0 0 0 0" fill="#797979"/><path d="m137.1 37.46c.05-.11.53-1.19.58-1.26.09-.15.26-.27.34-.41a.36.36 0 0 1 .1-.11v-.18c-.69.32-.35-.25-.41-.47a12 12 0 0 0 -1.19 2.16 7.88 7.88 0 0 1 -.49 1.44c-.07.12-.1.28 0 .36s.23-.05.35-.11a6.94 6.94 0 0 0 .7-1.42" fill="#888"/><path d="m126.33 4.32c-.16 0-.37 0-.48-.19.17-.15.47-.08.57-.42s.36 0 .51 0c.34.22.62.27.83-.15.08-.13.22-.25.34-.13a1.59 1.59 0 0 1 .31.57c.05.19-.14.22-.27.24a1.94 1.94 0 0 1 -.83-.06 1.22 1.22 0 0 0 -1 .09z" fill="#717171"/><path d="m142.5 23.4-.11-.23c-.12-.32.24-.53.18-.83 0 0 0 0 0-.05.26-.16.49.18.78.06s.25.14.21.33c-.08.4-.16.8-.23 1.21-.43.11-.69-.06-.83-.49z" fill="#777"/><path d="m142.87 17.88c-.08-.08-.22-.16-.24-.25-.09-.64-.49-.57-1-.47l-.51.13a4 4 0 0 1 -.88 1.13 10.79 10.79 0 0 1 -1.25 1c.11.23-.18.28-.19.46s0 .45.17.59.42 0 .54-.21.36-.47.55-.69.6-.51.84-.83c.87-.21 1.36.15 1.37 1a2.31 2.31 0 0 0 .38 1c.11.22.3.1.39-.1.33-.95-.21-1.83-.17-2.76z" fill="#414141"/><path d="m141 18.74c.88-.32 1.46.11 1.51 1 0 .37.08.82.63.85a2 2 0 0 1 -.23 1.33c-.29.16-.46.15-.37-.25a2.45 2.45 0 0 0 -.07-1.34 3 3 0 0 1 -.14-.51c-.17-.92-.33-1.05-1.33-1.08z" fill="#737373"/><path d="m142.51 21.71a.46.46 0 0 0 .37.25c.05.13.1.28.28.26.33 0 .19-.39.34-.6.52.32.28.69.1 1.06-.65-.45-.71-.42-1.21.49a3.6 3.6 0 0 1 .12-1.46z" fill="#8f8f8f"/><path d="m117.21 47a1.27 1.27 0 0 1 -.41 1 2.26 2.26 0 0 0 -.44 1.14 31.31 31.31 0 0 0 -1.36 3.54 14.63 14.63 0 0 0 -1.26 4.06c-.13 1.2-.5 2.38-.55 3.59s-.6 2.47-.58 3.75c-.51.09-.26.66-.55.89a.19.19 0 0 1 -.16 0 5.43 5.43 0 0 1 .29-2 6.16 6.16 0 0 0 .17-1.54 6.8 6.8 0 0 1 .32-2 .85.85 0 0 0 0-.23 14.64 14.64 0 0 1 1.32-5.2c-.24-.34 0-.64.09-1a10.88 10.88 0 0 1 .74-2.56c0-.08 0 0 0-.06 1-1 .79-2.51 1.58-3.6.18-.25.22-.61.61-.67.22.08.36.18.23.46a.42.42 0 0 0 -.04.43z" fill="#9e9e9e"/><path d="m111.93 64.93h.07c.12-.2.25-.32.47-.11a3.43 3.43 0 0 1 -.08 1.06c-.1 0-.18-.43-.33 0a1.86 1.86 0 0 0 -.06 1.37 1.18 1.18 0 0 1 .11.58 3.45 3.45 0 0 1 -.18-2.9z" fill="#6a6a6a"/><path d="m112.51 64.81-.47.11a5.52 5.52 0 0 1 .26-1.61c.3.26.18.57.34.77z" fill="#898989"/><path d="m100.4 55.44c-.2.1-.22.45-.58.35-.2-.06-.23.21-.26.38a7.8 7.8 0 0 0 -1.24-1.94 2.94 2.94 0 0 1 -.81-1.77 6 6 0 0 0 -.6-1.68c0-.44 0-.9.59-1a3.16 3.16 0 0 1 .69 1.44 6.78 6.78 0 0 0 1.43 2.67 3.39 3.39 0 0 1 .78 1.55z" fill="#686868"/><path d="m120.57 39.84c.78-1.38 2.19-2.26 3-3.63a10 10 0 0 1 2.3-2.37c.31.13.21.32.07.51a.66.66 0 0 0 -.09.81c-.08.12-.16.23-.23.35a1.77 1.77 0 0 0 -.84.55c-.77.9-1.54 1.81-2.32 2.7a1.66 1.66 0 0 0 -.34.82c-.44.62-1.13 1-1.52 1.7-.08.11-.17.22-.24.33a.25.25 0 0 1 -.3.13c-.19-.06-.23-.19-.17-.37a8.15 8.15 0 0 1 .68-1.53z" fill="#8c8c8c"/><path d="m120 41.28c.21.54.41 0 .61 0-.11.69-.65 1.13-1 1.71-.74 1.38-1.56 2.73-2.4 4-.2 0-.36 0-.26-.28s.09-.29.13-.44a5.8 5.8 0 0 0 .36-1.09c0-.06.12-.12.13-.2a4.6 4.6 0 0 1 1.56-2.42c.21-.22.19-.51.35-.73s.15-.46.36-.61c.05-.02.09-.01.16.06z" fill="#949494"/><path d="m125.82 35.16c-.16 0-.32.27-.47.05a.53.53 0 0 1 0-.57c.14-.29.43-.48.5-.8a7 7 0 0 1 1.74-1.33c.82-.48 1.68-.91 2.47-1.45a4.27 4.27 0 0 1 1.33-.67 4.57 4.57 0 0 0 1.4-1 .29.29 0 0 1 .39.13c-.17.39-.33.78-.5 1.16a4.49 4.49 0 0 1 -2.29 1.59 11.53 11.53 0 0 0 -1.63.78 15.39 15.39 0 0 0 -2.94 2.11z" fill="#7e7e7e"/><path d="m138.55 20.63a2.75 2.75 0 0 0 .49-1.07v-.14a.61.61 0 0 1 .07.57c0 .12 0 .25.12.3a.27.27 0 0 0 .3-.14 1.89 1.89 0 0 1 .58-.58 13.86 13.86 0 0 1 -1.11 1.53c-.34.05-.54-.1-.45-.47z" fill="#848484"/><g fill="none" stroke="#1d1d1b" stroke-miterlimit="10" stroke-width=".5"><path d="m138.48 24.99h18.51"/><path d="m138.71 36.36h18.51"/><path d="m124.72 70.4 13.01 5.98"/><path d="m77.06 52.14 37.13 23.16"/><path d="m76.7 55.05 65.72-37.87"/></g><text fill="#1d1d1b" font-family="BaskervilleMTPro-Regular, Baskerville MT Pro" font-size="10" transform="translate(158.66 26.55)">a</text><text fill="#1d1d1b" font-family="BaskervilleMTPro-Regular, Baskerville MT Pro" font-size="10" transform="translate(138.79 79.59)">c.</text><text fill="#1d1d1b" font-family="BaskervilleMTPro-Regular, Baskerville MT Pro" font-size="10" transform="translate(158.63 38.28)">b</text><text fill="#1d1d1b" font-family="BaskervilleMTPro-Regular, Baskerville MT Pro" font-size="10" transform="matrix(.99999263 .00383971 -.00383971 .99999263 .01 54.52)">all this is scutellum</text></svg>