<svg viewBox="0 0 90.94 73.27" xmlns="http://www.w3.org/2000/svg"><path d="m58.52 50.81q1 2.52 1.93 5c.07.17.16.32.23.48l.13.59c-.16.1-.07.37-.31.41-.62.05-.68-.47-.79-.86-.16-.58-.36-1.13-.55-1.7-.5-1.41-1.16-2.73-1.66-4.24-.11-.33-.3-.66-.09-1s.43 0 .5.18a5.85 5.85 0 0 1 .31.92c.02.11.07.31.3.22z" fill="#acacac"/><path d="m60.56 57.18c0-.15.06-.27.25-.26a7.67 7.67 0 0 0 1.08 2.16 6.55 6.55 0 0 1 .83 1.8.39.39 0 0 1 .1.27c-.14.18-.08.47-.34.57-.57-.09-.72-.62-1-1l-.6-.94a4.94 4.94 0 0 1 -.59-2.26c.02-.16.17-.24.27-.34z" fill="#a2a2a2"/><path d="m26.13 62.09c0-.84 0-1.69.12-2.53a9.6 9.6 0 0 1 .91-3.42 11.44 11.44 0 0 0 .64-2.7 1.85 1.85 0 0 0 .2-1.44c-.12-.33.12-.63.23-.93a1.75 1.75 0 0 0 .13-1.31.81.81 0 0 1 .11-.75 2.59 2.59 0 0 0 .47-1.28l.24-.48a9 9 0 0 1 1.51-3 .28.28 0 0 1 .31.28.84.84 0 0 0 .6.71 1 1 0 0 1 0 .29.35.35 0 0 1 0 .2 5.39 5.39 0 0 0 -1.45 2.83c-.06.42-.35.76-.42 1.17-.17.92-.37 1.83-.48 2.76a17.55 17.55 0 0 1 -.76 3.06 3 3 0 0 0 -.27 1.27.69.69 0 0 1 -.15.51c-.82 1-.73 2.24-.86 3.41a37.72 37.72 0 0 0 -.27 4.63.36.36 0 0 1 -.15.31c-.2.07-.48 0-.5.36 0 .2-.17.29-.39.21a.39.39 0 0 1 -.11-.45 6.24 6.24 0 0 0 0-2.32.74.74 0 0 1 .14-.55 1.1 1.1 0 0 1 .2-.84z" fill="#9c9c9c"/><path d="m58.52 50.81c-.26.22-.28.21-.43-.11a5 5 0 0 0 -.54-1.21c-.31.19-.42 0-.54-.26a20.52 20.52 0 0 0 -1.37-2.58 11.17 11.17 0 0 1 -1.26-2.3 19.09 19.09 0 0 1 -1-2.13c-.56-1.73-1.34-3.38-2-5.07 0-.06.05-.12.07-.17.2-.23.36-.19.52.05a.43.43 0 0 0 .55.19c.34.34.3.85.53 1.24.57 1.42 1.09 2.85 1.56 4.31a9.45 9.45 0 0 0 1.15 2.15 15.09 15.09 0 0 1 1.55 2.68c.37 1.07.81 2.14 1.21 3.21z" fill="#a3a3a3"/><path d="m52.41 37.36c0 .16 0 .4-.2.42s-.21-.2-.28-.33a1 1 0 0 0 -.36-.45c-.67-.17-.77-.31-.77-1.07a.71.71 0 0 1 .31-.35.28.28 0 0 1 .18 0c.15.06.18.23.28.34l.13.14a8.29 8.29 0 0 1 .61.72c.16.22.25.35.1.58z" fill="#949494"/><path d="m39.57 73.24.12-.24c.16 0 .44-.15.43.06s-.34.2-.55.18z" fill="#ddd"/><path d="m37.41 57.4a10.47 10.47 0 0 1 -1.33 2.6 74.54 74.54 0 0 1 -4.39 6.24 5.07 5.07 0 0 0 -1 1.94 5.3 5.3 0 0 1 -1.81 2.64c-.35.25-.49.7-1 .78-.76.12-1 .05-1.25-.68a2.8 2.8 0 0 1 -.18-.51 5.45 5.45 0 0 0 -.2-1.65 1 1 0 0 1 .56-1.32c.27 0 .38.15.44.38a4.82 4.82 0 0 0 .11.52c.15.49.3.49.69.19a6.93 6.93 0 0 0 1.7-2.53c.32-.49.68-1 1-1.45.14-.19 1.27-1.46 1.53-1.83a37.68 37.68 0 0 0 2.44-3.45c.27-.35.7-.57.86-1 .14-.15.08-.41.31-.5a1.11 1.11 0 0 0 1.07-.62.3.3 0 0 1 .44-.17c.2.09.11.26.01.42z" fill="#818181"/><path d="m43.87 52a2.64 2.64 0 0 1 -.95-1.31 3.39 3.39 0 0 0 -.72-1.21c-.15-.12-.37-.23-.33-.46a2 2 0 0 0 -.38-1.32c-.12-.22-.17-.4 0-.58a.44.44 0 0 1 .6 0 4.7 4.7 0 0 1 .6.66 7.77 7.77 0 0 0 2 2.7 4.06 4.06 0 0 0 1.6 1c.41.09.54.59.87.85a33.34 33.34 0 0 1 3.1 2.84c.2.2.23.5.44.69 0 .2 0 .38-.23.41s-.37-.16-.49-.32a16.8 16.8 0 0 0 -2.18-1.89c.42.31 1.13.9 1.85 1.47a2.5 2.5 0 0 1 .6.77c.24.39-.22.87-.8.89a8 8 0 0 1 -1.71-1.92c-.07-.12-.13-.28-.27-.3-.84-.08-1.26-.83-1.93-1.19-.18-.44.09-.81.22-1.21-.21.56-.22.44-.71.33s-.76-.59-1.18-.9z" fill="#737373"/><path d="m42.57 48a2.06 2.06 0 0 1 -.54-.63c-.06-.08-.15-.15-.25-.1s-.1.16-.07.26l.15.39c.14.39.54.73.21 1.21 0 0 .09.21.13.32a.67.67 0 0 1 -.48-.54.87.87 0 0 0 -.3-.57 4.39 4.39 0 0 1 -.52-1c-.1-.08-.08-.22-.14-.32a.26.26 0 0 0 -.29-.16c-.14 0-.17.15-.18.28a7.16 7.16 0 0 0 -.07.76 10.86 10.86 0 0 1 -.79 3.52l-.81 2.16a10.62 10.62 0 0 0 -.54 1.62.69.69 0 0 1 -.5.53c-.44.15-.62.06-.58-.4a5.65 5.65 0 0 1 .32-1.87c.13-.29.3-.53.65-.52.19 0 .29 0 .34-.23s.08-.32-.12-.45-.27-.45-.15-.74a4.92 4.92 0 0 0 .47-1.89 26.23 26.23 0 0 0 .49-2.55c0-.21 0-.46.23-.59a.28.28 0 0 1 .28 0c.29.24.35 0 .36-.19a6.72 6.72 0 0 1 .16-1c0-.19.12-.35.33-.37a.43.43 0 0 1 .42.29 5.3 5.3 0 0 1 .29.71c.08.32.26.21.45.14a4.74 4.74 0 0 1 1.17 1.73c.02.12-.06.2-.12.2z" fill="#7f7f7f"/><path d="m38.72 49.84c.07.78-.41 1.44-.5 2.19.23.19.29-.19.51-.11a5.69 5.69 0 0 1 -.42 1.5.14.14 0 0 1 -.24.08c-.44-.42-.49 0-.56.28a4 4 0 0 0 -.26 1.22c0 .18-.17.51.06.51s.65.07.76-.39a3.35 3.35 0 0 1 .55-1.44 21.85 21.85 0 0 1 -1.21 3.72c0-.09-.06-.23-.18-.14a1.16 1.16 0 0 0 -.26.39c-.4.73-.4.73-1 .22-.23-.21-.09-.37 0-.56a3 3 0 0 0 .66-2.31.58.58 0 0 1 .06-.41c.4-.63.52-1.4.93-2a.27.27 0 0 0 .06-.17 9.56 9.56 0 0 1 .79-2.46.17.17 0 0 1 .25-.12z" fill="#8b8b8b"/><path d="m45.69 53.8a1.59 1.59 0 0 0 -1.2-1c-.21-.28-.41-.56-.62-.83a2.83 2.83 0 0 0 1.58.78c.08-.1 0-.19 0-.28s-.4-.43-.17-.61.38.19.59.27a1.25 1.25 0 0 1 .57.42c.14.17.16.39-.1.4-.59.05-.59.46-.65.85z" fill="#7e7e7e"/><path d="m63 64.12-.25-.83c-.18-.55-.09-1.13-.24-1.69a.54.54 0 0 1 .25-.49 9 9 0 0 1 .83 2v.36c-.25.18-.1.4-.07.61s.22.53-.17.68c-.35-.07-.19-.45-.35-.64z" fill="#989898"/><path d="m31.78 41.47.69-1.77c.12-.3.13-.51-.25-.65a1.06 1.06 0 0 1 -.45-1.5c.87-1.47 1.84-2.87 2.61-4.39.19-.17.38-.28.34-.63s.36-.74.68-1 .56-.43.85-.63.3-.29.55-.07 0 .4 0 .53a1 1 0 0 1 .59-.38 1.26 1.26 0 0 0 1.06-1.09c.1-.39.28-.61.72-.46s.39-.12.46-.35a1.42 1.42 0 0 1 1.07-.83.46.46 0 0 1 .23.05c.53.34.53.34 1.07.17a.28.28 0 0 1 -.38-.24c0-.22.15-.25.28-.33a4.56 4.56 0 0 0 1.18-.82 1.18 1.18 0 0 1 1.31 0l.73.36a4.35 4.35 0 0 1 1.1.38c.21.14.6.21.45.57s-.47.11-.72.08h-.18c-.82-.56-.9-.57-1.44-.16.16.68.35 1.34 1.16 1.53.14.27.44.33.68.45a3.29 3.29 0 0 1 1.09.9c.12.15.37.27.26.5s-.39.12-.6.13a1.44 1.44 0 0 1 -.85-.68.62.62 0 0 0 -.46-.33 1.89 1.89 0 0 1 -1.61-1.16c-.5-.7-.62-.72-1.41-.46s-1.36.69-2.07.91c-1.6.49-2.51 1.9-3.86 2.71a2.22 2.22 0 0 0 -.85 1.19.83.83 0 0 1 -.25.35 1.29 1.29 0 0 0 -.48 1.5 1.31 1.31 0 0 1 -.27 1.35 6.1 6.1 0 0 0 -1.05 2.08c-.34.8-.6 1.65-.94 2.44s-.19 1.63-.84 2.23c-.16.14-.05.38-.1.56s-.12.65-.49.77c-.62.17-.87-.17-.71-1a17.3 17.3 0 0 0 1.1-2.81z" fill="#666"/><path d="m26.86 65.65c.18.7.05 1.33.26 2a1 1 0 0 0 -.69 1.16 6.56 6.56 0 0 1 .17 1.65 6.49 6.49 0 0 1 -.33-1.85 20.06 20.06 0 0 0 -.41-2.4c0-.31.17-.69.21-1 0-.15 0-.36.23-.37s.2.22.24.37.36-.16.32.44z" fill="#8e8e8e"/><path d="m67.73 23a33.87 33.87 0 0 0 3.62.5 10.66 10.66 0 0 1 1.57.32c.69.17 1.38-.05 2.06.06h.36s.44.09.46.38-.19.33-.36.41a6.27 6.27 0 0 1 -1.83.2 5.82 5.82 0 0 1 -1.8-.31.52.52 0 0 0 -.33-.05 7.58 7.58 0 0 1 -3.48-.15c-.56-.13-2.79-.33-3.08-.4a3.9 3.9 0 0 0 -2-.09 3.21 3.21 0 0 1 -1.51.05 5.23 5.23 0 0 0 -2.87.48 1.4 1.4 0 0 1 -1.64-.49c-.14-.18-.27-.35-.16-.59a.31.31 0 0 1 .23-.17 2.16 2.16 0 0 1 .87.09c.49.23.64.14.86-.38a.48.48 0 0 1 .37-.19 13.42 13.42 0 0 0 1.66-.2.42.42 0 0 1 .16 0c1.32 0 2.64.16 4 .12.25-.05 2.04.24 2.84.41z" fill="#838383"/><path d="m73.51 24.65a3.89 3.89 0 0 0 1.69-.22c.12-.06.32 0 .31-.22s-.19-.25-.35-.26c-.45 0-.91 0-1.36 0a1.77 1.77 0 0 1 -.88-.12 49 49 0 0 1 10.08.74 41.68 41.68 0 0 0 5.81.68 1.58 1.58 0 0 1 1.2.41 2 2 0 0 0 .64.3.17.17 0 0 1 0 .19.36.36 0 0 1 -.18.12c-.41.16-.71-.11-1-.25a11.05 11.05 0 0 0 -3.47-.58c-.4-.06-.83 0-1.24-.13.82.18 1.68.1 2.49.36l.16.1c.57.3 1.22.52 1.17 1.35-.27.29-.51.62-1 .58-.17-.07-.28-.17-.19-.36s.36-.56.09-.8a1.58 1.58 0 0 0 -1-.34 15.1 15.1 0 0 1 -3.22-.41 11.39 11.39 0 0 0 -3-.46c-.81 0-1.62-.26-2.44-.31-.52 0-1-.07-1.55-.07a3.27 3.27 0 0 0 -1.61.07.77.77 0 0 1 -1.15-.37z" fill="#929292"/><path d="m75 36.4a4.23 4.23 0 0 1 1.53 1.47 1.57 1.57 0 0 1 -.2 2c-.08 0-.12.15-.19.22-.37.38-.69.76-1.35.67a4.21 4.21 0 0 0 -1.29.17c-.41.08-.86.27-1.14-.27 0-.08-.15-.08-.25 0a1.49 1.49 0 0 1 -1.7-.53c-.18-.27-.57-.26-.89-.3s-.55-.09-.55-.48.32-.38.59-.45a1.61 1.61 0 0 1 1.42.42 1.82 1.82 0 0 0 1.55.28h.24a6 6 0 0 0 1.32-.45.22.22 0 0 0 .09-.13 3.74 3.74 0 0 0 .13-.94c.07-.43-.28-.69-.93-.74-1.26-.1-2-1-2.9-1.77a1 1 0 0 0 0-.16c.09-.73.09-.73.82-.61a.8.8 0 0 0 .53 0 .81.81 0 0 1 1 .12c.22.17.43.27.29.61s.15.34.24.5c-.08-.17-.33-.32-.13-.54s.37 0 .52.09c.41.19.79.55 1.25.82z" fill="#686868"/><path d="m45.46 29.78c-.6.12-.77-.34-1-.73a2.17 2.17 0 0 1 -.35-.81c.26-.48.71-.3 1.05-.21a1.72 1.72 0 0 1 .64.21c1.2.42 2.21 1.24 3.41 1.67a3.09 3.09 0 0 1 1.53.81c.32.36.81.2 1.18-.12.29 0 .59-.14.84.12a6.33 6.33 0 0 0 2.24 1.28 18 18 0 0 1 2.3 1.1 8.29 8.29 0 0 0 1.85.95 3.79 3.79 0 0 1 1.56 1.15c0 .07.05.18.1.21.65.42 1 1.1 1.65 1.55.25.17.66.3.38.75h-.33c-1.07-.6-2.22-1.05-3.27-1.68-.67-.41-1.44-.62-2.09-1a17.82 17.82 0 0 1 -2.23-1.41.67.67 0 0 0 -.36-.46 11 11 0 0 0 -2.71-1.31 2.47 2.47 0 0 1 -1.85-1.11.43.43 0 0 0 -.29-.2 10.3 10.3 0 0 1 -2.06-.79c-.56-.24-1-.7-1.5-1a5.52 5.52 0 0 0 -1.25-.4c-.37-.08-.51.05-.34.47a2.28 2.28 0 0 0 .9.96z" fill="#787878"/><path d="m62.85 37.74a1.65 1.65 0 0 0 -.64-.53c-.38-.13-.77-.26-.67-.81 0-.17-.18-.24-.31-.33l-.85-.56c-.06 0-.21-.12-.05-.21s.16 0 .24 0c.28-.1.48.1.71.22a4.58 4.58 0 0 0 1.69.78h.41a29 29 0 0 0 4.47 1.85 5.16 5.16 0 0 0 1.09.23 10.25 10.25 0 0 1 2.38.66c.34.12.71 0 1.06.14s.49.17.44.51a3 3 0 0 1 -2.48-.54.72.72 0 0 0 -.33-.13c-.26 0-.62-.1-.67.2s.33.18.52.24.58.13.87.21.29.12.31.32c.07.56.25.66.79.4a.78.78 0 0 1 .74 0c.14.06.39 0 .2.34s.14.2.26.18c.77-.08 1.52-.24 2.3-.31.41 0 .6-.56 1-.74a1.49 1.49 0 0 1 -1.5 1 1.73 1.73 0 0 0 -.59.09c-1.35.35-2.6-.17-3.88-.43-.39-.08-.87 0-1.16-.21-1.17-.88-2.61-1-3.92-1.5a2.32 2.32 0 0 1 -.47-.24 2.54 2.54 0 0 0 -1.53-.6.53.53 0 0 1 -.43-.23z" fill="#707070"/><path d="m75 36.4c-.58-.13-.93-.73-1.62-.88.22.39.94.62.2 1.14 0-.46-.59-.38-.65-.83 0-.26-.81-.44 0-.78-.28-.2-.44-.37-.75 0s-.74.08-1.1 0-.4 0-.41.3a.33.33 0 0 1 -.35-.1c-.73-.63-1.61-1-2.35-1.67a2.15 2.15 0 0 0 -1.52-.45c-.36 0-.56-.07-.54-.46.18-.28.4 0 .6 0a3 3 0 0 0 .42 0c-.73-.1-.87-.3-.72-.93 0-.18.15-.35.29-.33.45.06.88-.18 1.34-.05.63.18.72.14.87-.5a.85.85 0 0 1 .8-.75c.31 0 .65.1.7.35a.67.67 0 0 0 .7.63c.1 0 .14.12.14.23a6.51 6.51 0 0 1 -1.59.17c-.16 0-.34 0-.42.17s0 .35.18.45a18.1 18.1 0 0 0 3 2.23c.72.67 1.59 1.12 2.35 1.74.12.05.27.19.43.32z" fill="#717171"/><path d="m48.45 33.2c-.6-.11-.83-.63-1.13-1.05a2 2 0 0 0 -.45-.54c.15 0 .35.06.42-.13s-.12-.24-.21-.34a3.26 3.26 0 0 0 -1.08-.81c-.24-.11-.53-.21-.56-.54a3.72 3.72 0 0 1 2.11 1.64 9.23 9.23 0 0 0 1.25 1.27l.13.1v.12c-.46.46-.51-.2-.77-.23-.03.19.5.16.29.51z" fill="#6c6c6c"/><path d="m48.45 33.2a3.31 3.31 0 0 1 -.89-1.2c.66.08.74.91 1.37.92a20 20 0 0 1 2.29 2.75l-.25.25a18 18 0 0 1 -2.52-2.72z" fill="#666"/><path d="m34.86 59.44a2.34 2.34 0 0 1 .86-1.1 2.71 2.71 0 0 1 -.86 1.1z" fill="#8b8b8b"/><path d="m50.61 56a13.14 13.14 0 0 1 1.45 1.44v.17c.2.28.53.54.23.93a1.55 1.55 0 0 1 -1.4.11.48.48 0 0 0 -.3-.11.81.81 0 0 1 -.51-.61 1.26 1.26 0 0 0 -.57-.73c.68-.5.68-.89 0-1.39l-2.27-1.81a.8.8 0 0 1 -.35-.4c0-.18-.06-.38.1-.5s.24.11.37.18a25 25 0 0 1 2.17 1.83 2.7 2.7 0 0 1 .62.64c.09.18.2.43.46.25z" fill="#7b7b7b"/><path d="m39.07 46.62a2.81 2.81 0 0 0 .23-1.55 1.73 1.73 0 0 1 .09-1.34c.1-.15.13-.42.39-.38s.25.24.33.4a28.33 28.33 0 0 0 1.56 2.51c0 .24.1.64-.34.68s-.44-.34-.46-.66a1.86 1.86 0 0 0 -.4-1 1.94 1.94 0 0 0 -.3 1 2.1 2.1 0 0 1 0 .36c-.08.31 0 .79-.49.76s-.55-.5-.61-.78z" fill="#737373"/><path d="m50.6 58.5c0-.09-.08-.22-.05-.27s.21 0 .31 0 .48.36.67 0v-.05c1 .3.32-.38.38-.63 0-.05.08-.08.12-.12 1.52 1.57 3.32 2.83 4.79 4.45a15.18 15.18 0 0 0 1.32 1.2.49.49 0 0 1 .11.33c-.14.3-.33.2-.52 0s-.43-.51-.67-.74a9.35 9.35 0 0 0 1.13 1c.34.25.54.75 1 1a2.85 2.85 0 0 1 .6.37c.15.13.35.21.38.44-.3.25.25.58-.09.82a30 30 0 0 0 -3.3-2 .74.74 0 0 1 -.28-.3 9 9 0 0 0 -2.56-2.29 4.69 4.69 0 0 1 -.52-.48 16.65 16.65 0 0 0 -2.19-1.82z" fill="#737373"/><path d="m60.09 66.33c-.11-.24-.6-.43-.12-.77.17-.26.34-.07.5 0a10.94 10.94 0 0 0 2 1 1 1 0 0 0 .63.07 2 2 0 0 0 -.9-.43 5.59 5.59 0 0 1 -2.28-1.2 3.49 3.49 0 0 0 -.58-.29 1.8 1.8 0 0 1 -1.17-1.35v-.35l1.29.72c1.22.54 2.19 1.56 3.52 1.88a2.83 2.83 0 0 1 .29 0c.54 0 .9.17.9.78v.23c.16 1 0 1.15-1 .9a10.76 10.76 0 0 0 -1.83-.65c-.34-.18-.89-.19-1.25-.54z" fill="#737373"/><path d="m64.17 66.41c-.23-.55-.83-.34-1.2-.6a2 2 0 0 0 .35-1.08 1.2 1.2 0 0 0 -.15-.69c-.28-.48-.08-.61.4-.52a10.2 10.2 0 0 1 .6 2.89z" fill="#7e7e7e"/><path d="m61.37 66.89a3.68 3.68 0 0 1 1.83.65 10.76 10.76 0 0 1 -1.83-.65z" fill="#737373"/><path d="m37.88 52.6c.11-.05.24-.22.31 0s0 .32-.19.32-.1-.22-.12-.35z" fill="#7f7f7f"/><path d="m9.57.4a3.67 3.67 0 0 1 1.89 1.39 8.4 8.4 0 0 0 2.31 2c.15.13.34.19.5.32s.51.23.43.56-.41.33-.7.33a6.94 6.94 0 0 1 -2-1c-.65-.44-1.31-.88-1.94-1.34a.23.23 0 1 0 -.39.34 1.88 1.88 0 0 0 .52.78 1.22 1.22 0 0 1 .72.95c.07.51.59.61.88.93a3 3 0 0 1 1 1.48c.07.37.44.56.63.86a8.71 8.71 0 0 0 1.27 1.63.71.71 0 0 1 .08.15 6.09 6.09 0 0 1 .27.71.64.64 0 0 0 .61.58.64.64 0 0 1 .61.49 1.92 1.92 0 0 0 1 1.14c.34.2.48.49.29.8s-.54.32-.82.1a6.58 6.58 0 0 1 -1.22-1.14 10.13 10.13 0 0 0 -1.14-1.32 1.23 1.23 0 0 1 .29.93.51.51 0 0 1 -.84.35 6.57 6.57 0 0 1 -1-.79 1 1 0 0 1 -.63-.88 2.87 2.87 0 0 0 -.59-1.39 13.41 13.41 0 0 0 -1-1.59.63.63 0 0 1 -.12-.18c-.27-1-1.14-1.44-1.77-2.09s-.78-1.5-1.37-2.1c-.4-.41-.47-1-.78-1.48 0-.28-.15-.55.29-.63a.82.82 0 0 0 .5-.48c.5-1 1-.93 2-.56a1.35 1.35 0 0 1 .22.15z" fill="#626262"/><path d="m26.12 11.21a25.77 25.77 0 0 0 2.52 1.88c1.63 1.24 3.29 2.42 5 3.63-.25.33.11.79-.24 1.1-.44 0-.79-.36-1.24-.29-.26 0-.39-.17-.53-.32-.35-.39-.82-.64-1.18-1a9.16 9.16 0 0 0 -1.25-1.07c-.21-.17-1.33-.85-1.55-1a11.35 11.35 0 0 0 -2.09-.93 13.77 13.77 0 0 1 -1.86-1.73 2 2 0 0 0 -1.57-1c-.45 0-.75-.43-1.18-.53-.79-.63-1.6-1.24-2.39-1.87a.32.32 0 0 1 -.1-.21c-.05-.19.13-.32.12-.51 0-.69 0-.71.65-.39 1 .53 1.95 1.23 2.95 1.83z" fill="#808080"/><path d="m50.36 24.51 2.65-1a9.84 9.84 0 0 1 2.16-.28c.15 0 .25.11.22.28s-.17.25-.34.28a7.86 7.86 0 0 0 -1.23.08c.35 0 .85-.19 1 .46-.11.22-.33.19-.52.22a16.55 16.55 0 0 0 -2.75.7 6 6 0 0 1 -2.49.44c-.46 0-.7-.45-1.1-.59-.11 0-.14-.23-.06-.37a.4.4 0 0 1 .56-.14 3.05 3.05 0 0 0 1.9-.08z" fill="#989898"/><path d="m19.18 7c-.12 0-.4-.14-.32.11s-.14.52-.3.75-.35-.07-.47-.2a1.33 1.33 0 0 0 -.72-.46c-.24-.06-.37-.27-.55-.41-.38-.36-.92-.54-1.2-1-.09-.17-.27-.1-.43-.1a2.6 2.6 0 0 1 -1.31-.61c-.07 0 0-.14 0-.21.25 0 .5 0 .56-.34s-.23-.32-.38-.46-.2-.19-.3-.28c1.23.61 2.34 1.42 3.53 2.09.65.33 1.27.73 1.89 1.12z" fill="#8a8a8a"/><path d="m48.45 24.64c-.11 0-.25.05-.27.19s.1.21.23.22c.32 0 .47.35.75.45a1 1 0 0 1 -1.19.22 3 3 0 0 0 -1.77.41c-.32.2-.73.52-1.06.08s0-.79.31-1.09a2.5 2.5 0 0 0 1.36-.31 1.83 1.83 0 0 1 1.64-.17z" fill="#a2a2a2"/><path d="m50.36 24.51c-.6.63-1.27.18-1.91.13a8.15 8.15 0 0 0 1.91-.13z" fill="#a2a2a2"/><path d="m17 26.86c-1.12-.31-2.23.11-3.36.1a28.29 28.29 0 0 1 -3.32-.34 2.12 2.12 0 0 0 -1.06.07c-.63.26-1.25-.11-1.88 0-1 .14-2-.14-3-.08a13.76 13.76 0 0 1 -1.92-.13c-.06-.09.25-.22-.08-.3a2.45 2.45 0 0 1 -1.62-1.11.76.76 0 0 1 -.17-.71 12.75 12.75 0 0 1 .52-1.83 4.34 4.34 0 0 1 2.16-1.73 2.25 2.25 0 0 0 .24-.08c.3-.14.59-.47.93-.18a1.73 1.73 0 0 1 .56 1.3c0 .24-.19.31-.36.31-.35 0-.56.22-.81.37a3 3 0 0 1 1.9-.52c.12 0 .21.09.25.22-.06.47-.44.44-.76.45a1.39 1.39 0 0 0 -1.22.74c-.16.27-.15.48.17.62.12.06.24.18.38.16 1-.07 1.92.32 2.89.27a2.17 2.17 0 0 0 .77-.07 3 3 0 0 1 2 0 5.94 5.94 0 0 1 1.64.15c.35.15.31.41.62.42a6.16 6.16 0 0 0 1 0 13.13 13.13 0 0 1 3.65.15.66.66 0 0 0 .65.13 1.83 1.83 0 0 1 1.11-.08c.11.08.17.21.09.31-.37.52-.7 1.17-1.47 1.11-.38-.07-.36.15-.5.28z" fill="#686868"/><path d="m18.81 25.25c-.35 0-.7.08-1 .14a.8.8 0 0 1 -.76-.15.86.86 0 0 1 .9-.39c1.46 0 2.92.18 4.4.13a10.12 10.12 0 0 1 3 .12 4.38 4.38 0 0 0 1.59-.1 21.3 21.3 0 0 1 5.73-.68 2.42 2.42 0 0 0 .6 0 6.56 6.56 0 0 1 2.12-.13 1.24 1.24 0 0 0 .65-.09 4.08 4.08 0 0 1 1.34-.25c.28 0 .55 0 .74.27s.33.17.54.13a3.43 3.43 0 0 1 1.39 0c.42.08.76.13.7.69 0 .22.16.31.35.33a1.79 1.79 0 0 1 .72.23c.3.17.33.37 0 .57-.59.49-1 .47-1.48-.08-.32-.33-.63-.64-1.12-.24a.75.75 0 0 1 -.64.05 4.08 4.08 0 0 0 -2.73.34 1.15 1.15 0 0 1 -1.19-.07.36.36 0 0 0 -.49 0c-.25.19-.52.37-.78.55-.47 0-.87-.29-1.38-.3-1.17 0-2.29.5-3.47.21a.91.91 0 0 0 -.58.11 5.32 5.32 0 0 1 -3.8.28 2.75 2.75 0 0 0 -1.11.05 2 2 0 0 1 -1.18-.09c0-.13.07-.25.2-.25.75 0 1.46-.44 2.23-.18a.93.93 0 0 0 .24 0c.18 0 .46.13.48-.14s-.28-.15-.45-.15a10.69 10.69 0 0 1 -1.66-.44 8.85 8.85 0 0 0 -3.08 0 .8.8 0 0 1 -1.02-.47z" fill="#696969"/><path d="m18.81 25.25a1.94 1.94 0 0 0 1.36.23 7.5 7.5 0 0 1 3.58.23 8 8 0 0 0 1.72.23c.13 0 .3 0 .38.1s-.08.23-.18.32-.08.06-.08.09c0 1-.66.49-1 .4-.93-.28-1.81.18-2.72.08-.51-.1-1 .1-1.54-.1a3.75 3.75 0 0 0 -2.64 0 .66.66 0 0 1 -.7.05.64.64 0 0 0 -.46-.24c-.13 0-.32 0-.3-.21s.22-.14.35-.15h.77c.33 0 .65 0 .74-.45.08-.35.45-.45.72-.58z" fill="#606060"/><path d="m1.29 22.6c0 .49-.51 1 0 1.45a.22.22 0 0 1 0 .17c-.1.17-.47.24-.32.49a2.36 2.36 0 0 0 .76.81 3 3 0 0 0 1.74.53 1.18 1.18 0 0 1 -.95.4 2.49 2.49 0 0 0 -1.15-.12 1 1 0 0 1 -1-.34 3.61 3.61 0 0 1 .63-3.58c.15-.04.23.05.29.19z" fill="#5b5b5b"/><path d="m1.05 22.48a3.57 3.57 0 0 0 -.82 2.92l.09.6a2.75 2.75 0 0 1 -.06-2.45 15.83 15.83 0 0 1 .79-1.55c.08-.13.15-.26.31-.31a.22.22 0 0 1 .15.1c.03.36-.24.51-.46.69z" fill="#686868"/><path d="m17.72 26.81a2.72 2.72 0 0 1 2.64 0 6.9 6.9 0 0 0 -2.64 0z" fill="#686868"/><path d="m3 20.43.61-.13c.14.21.06.32-.16.42a4.46 4.46 0 0 0 -1.65 1c-.11.13-.22.11-.35 0a8.53 8.53 0 0 1 1.55-1.29z" fill="#686868"/><path d="m1.41 21.77c.07 0 .18-.05.21-.11a2 2 0 0 1 1.73-1.17c.08 0 .15-.13.22-.19 1-.44 6.43-2.12 7.81-2.6.67-.23 1.37-.38 2-.61.41-.14 1.71-.43 1.71-.1.19-.45.6-.65.87-.34.44.52 1 .32 1.38.34-.24 0-.74.19-.79-.31s.44-.54.82-.61a4.87 4.87 0 0 1 .54 0c.36 0 .56-.14.48-.56-.05-.27-.08-.6.29-.68a.59.59 0 0 1 .69.51 2.71 2.71 0 0 0 .4.84c.23.36.12.57-.25.61s-.29.17-.18.38a.54.54 0 0 1 -.06.43s0 .1-.07.1c-.74 0-1.29.62-2 .69s-1 .6-1.43 1a2 2 0 0 1 -.56.43c-.36.19-3.36.27-3.85.58s-1.17.26-1.74.42a9.07 9.07 0 0 0 -2.39 1.09 4.86 4.86 0 0 0 -.94.47.3.3 0 0 1 -.46-.11.77.77 0 0 1 -.29.05 2.6 2.6 0 0 0 -2.28.84 1.1 1.1 0 0 1 1-1.08c.37-.06.45-.24.33-.52s-.15-.93-.66-.71c-1 .43-2.08.74-2.67 1.77l-.24-.12z" fill="#646464"/><path d="m62.48 61.6c.35.53.18 1.13.24 1.69a3 3 0 0 1 -.24-1.69z" fill="#a2a2a2"/><path d="m41.85 26.09c-.06-.58-.53-.45-.88-.47-.7 0-.73 0-.63-.73 0-.23-.07-.31-.24-.33a2.44 2.44 0 0 0 -1.53.09c-.63.31-.66.29-.8-.41 0-.15-.14-.17-.26-.2-.09-.36.19-.26.36-.3a11.41 11.41 0 0 1 2.27-.1c-.24-.57-.77-.78-1.19-1.09a8.88 8.88 0 0 1 -1.73-1.68 1.09 1.09 0 0 0 -.6-.45 1.79 1.79 0 0 1 -1-.78 4.24 4.24 0 0 0 -2-1.64c-.15 0-.34 0-.28-.29a2.71 2.71 0 0 1 -.24-.52c-.08-.41 0-.71.51-.47 2.64 2 5.23 4 7.74 6.11.62.52 1.33 1 2 1.42a1.67 1.67 0 0 1 .58.51s-.09.11-.13.11a4.27 4.27 0 0 0 -1.63.12c.48-.29 1.15 0 1.76-.23.17.36-.1.53-.34.53a1.8 1.8 0 0 0 -1.48.72s-.19.05-.26.08z" fill="#6f6f6f"/><path d="m44.36 27c-1.1-.32-1.65.65-2.54 1 .35.38.75 0 1.12.24a18.27 18.27 0 0 1 -1.81.85c-.43.15-.62-.13-.51-.68-.49.09-.82.25-.8.83s-.08.7-.65.46c-.22-.1-.34 0-.42.16l-.24.68a.79.79 0 0 1 -.83.63.65.65 0 0 0 -.73.49.45.45 0 0 1 -.43.35c-.17 0-.39.1-.5-.07s.1-.31.19-.46.58-.25.39-.48-.48.11-.7.24a3.43 3.43 0 0 0 -.43.32c-.74.6-.76.78-.22 1.54.07.11.19.21.09.38-.38 0-.54-.51-1-.35a3.33 3.33 0 0 1 1.46-2.09c.6-.42 1.12-.94 1.68-1.41.21.06.21.2.13.36a.81.81 0 0 0 .22-.7 4.81 4.81 0 0 1 1.58-.76c1.17-.5 2.54-.51 3.52-1.51a1.08 1.08 0 0 1 1.43-.02z" fill="#6c6c6c"/><path d="m51.93 30.76c0 .1.13.22 0 .31a1.29 1.29 0 0 1 -1.61-.28 1.13 1.13 0 0 0 -.68-.43 10.2 10.2 0 0 1 -3.82-2.12l.51.06.06-.11-1.29-.79h.35a6.77 6.77 0 0 1 2 1 15.53 15.53 0 0 0 1.82.81c.68.25 1.34.57 2 .81.31.12.66.31.66.74z" fill="#6c6c6c"/><path d="m37.87 29.32a.38.38 0 0 1 .13.6c-.23.28-.33.73-.74.78s-.25-.23-.16-.42.38-.35.42-.62a.77.77 0 0 1 .35-.34z" fill="#666"/><path d="m45.81 28.24c-.56.13-1.13-.32-1.69 0-.15-.07-.39-.1-.31-.34s.27-.13.42-.12c.56.03 1.16-.06 1.58.46z" fill="#6c6c6c"/><g fill="#8c8c8c"><path d="m58.54 24.05a8.15 8.15 0 0 1 -3.85.46 2.06 2.06 0 0 0 -1.26-.15c-.17.06-.44.12-.51-.13s.17-.27.31-.37a2.13 2.13 0 0 1 1.3-.3c.26 0 .4-.16.64-.28.52 0 1.13-.18 1.66-.09.28.91 1.02.92 1.71.86z"/><path d="m60.8 22.6a1.68 1.68 0 0 1 .94-.1c1.4.17 3.85.28 3.63.29-.76 0-1.52 0-2.27.05a3.09 3.09 0 0 1 -1.48-.18 2 2 0 0 0 -.82-.06z"/><path d="m56.66 23.17a17.2 17.2 0 0 1 2.37-.5 1 1 0 0 1 -1.33.81 3.88 3.88 0 0 0 -1.04-.31z"/><path d="m59.11 22.84a3.78 3.78 0 0 1 1.7-.24c-.2.24-.37.56-.75.25-.33.49-.63-.04-.95-.01z"/></g><path d="m87.45 27.63.08-.1.74-.49a.74.74 0 0 0 -.74-1.04c-.12 0-.23.07-.34 0h-.1c-.16-.2-.15-.36.11-.46a.73.73 0 0 1 .4-.07c.7.22 1.42 0 2.12.17.14.42.5.46.85.5a.8.8 0 0 1 .17 1c-.1.16-.06.35-.17.49a3.39 3.39 0 0 1 -1.21 1.08 2 2 0 0 0 -1.07.84c-.43.35-.8.81-1.46.67-.14 0-.24.11-.34.21a1.32 1.32 0 0 1 -.86.38c-1 0-1.91.39-2.88.47a.61.61 0 0 1 -.46-.05c-.12-.12-.27-.06-.4-.06-.4 0-.8.05-1.06-.37-.09-.15-.3-.19-.47-.25-.37-.13-.76-.16-1-.58-.13-.25-.5-.23-.78-.23a11.43 11.43 0 0 1 -1.85-.13c-.26 0-.58 0-.56-.4s.35-.26.56-.25c1.31 0 2.62.1 3.93.11.12 0 .27 0 .35.05.88.93 1.94.62 3 .41a3 3 0 0 1 1.24-.07 2.86 2.86 0 0 0 1.44-.34 20.31 20.31 0 0 1 2-.77 1.4 1.4 0 0 0 .58-.42c.26-.25-.17-.55.11-.85-.36.87-1.13 1.07-1.83 1.35a.31.31 0 0 1 -.19 0c-.13-.08-.31-.11-.35-.3s.29-.34.44-.5z" fill="#626262"/><path d="m89.72 25.6a5.35 5.35 0 0 1 -1.87-.05.63.63 0 0 0 -.76.41c-.87-.25-1.79-.14-2.66-.36a2.77 2.77 0 0 1 -.41-.12c-.16-.07-.35-.17-.31-.38s.27-.18.44-.18c.67 0 1.3.21 2 .23 1 .05 2 .36 3.09.32a1.66 1.66 0 0 1 .48.13z" fill="#636363"/><path d="m87.19 26a1.32 1.32 0 0 1 .81 0c.87.3.89.37.27 1.08 0-.76-.57-.91-1.08-1.08z" fill="#636363"/><path d="m76.54 24.25a.28.28 0 0 1 -.29.31c-.18 0-.26-.06-.24-.23s.08-.31.27-.33.22.13.26.25z" fill="#838383"/><path d="m90.57 27.64a3.34 3.34 0 0 0 0-1.54h.11c.49.55.18 1.04-.11 1.54z" fill="#636363"/><path d="m87.45 28.12h.12a1.74 1.74 0 0 0 1.36-.41.37.37 0 0 1 .49 0c.21.14.16.29.07.45a8.27 8.27 0 0 1 -4.18 1.55 7.91 7.91 0 0 0 -1.76.31 9.43 9.43 0 0 1 -2.49 0c-.43 0-.74-.2-.22-.72a19 19 0 0 0 -4.33 0c.51.06 1 .15 1.53.19s1 0 1.49.06c.22 0 .79-.12.44.49-.07.12.09.15.18.17l.69.16c.14 0 .37.1.37.15 0 .74.68.58 1.08.77a5.09 5.09 0 0 0 -1.78.17c-.63.21-1.2-.27-1.82-.18-.25 0-.87.22-1 .2a8.33 8.33 0 0 0 -3.3-.07 3.34 3.34 0 0 1 -1.54 0 4.13 4.13 0 0 0 -1.85-.16c-.42 0-.84 0-1.26 0-.2 0-.43-.11-.19-.38.1-.12.42-.08.27-.35a.33.33 0 0 0 -.38-.11c-.24.05-.47.19-.41.43s-.19.52-.28.77c-.18.51-.39.43-.72.19a.69.69 0 0 0 -.83-.09.29.29 0 0 1 -.39 0c-.09-.07-.21-.18-.28 0a1.17 1.17 0 0 0 -.09.52c0 .13.18.17.29.14a1 1 0 0 1 .7.08c.14.06.36.06.29.29s-.25.16-.41.14l-.77-.05a6 6 0 0 1 -1.65-1.3 1.07 1.07 0 0 1 .3-1.53c.33-.17.77.09 1 .61a1 1 0 0 1 0 .1c0 .07 0 .07 0 0 .12-.52-.39-.6-.63-.83s-.41.18-.6.41a1.31 1.31 0 0 0 -.38 1.41c0 .1-.07.17-.16.22a1.09 1.09 0 0 1 -.2-1.61 2.66 2.66 0 0 1 1.8-1 26.92 26.92 0 0 1 7.44-.45c1.73.12 3.47.07 5.2.1h1.62a19 19 0 0 0 4.92-.55 18.94 18.94 0 0 0 2.26-.79l-.36.37c0 .22-.17.28-.4.3a1.62 1.62 0 0 0 -.82.26c.46-.35 1.12-.11 1.57-.43z" fill="#686868"/><path d="m88.29 29.56a1.24 1.24 0 0 1 1.07-.84z" fill="#686868"/><path d="m61.17 35.69a9.85 9.85 0 0 1 1.7.82 3.39 3.39 0 0 1 -1.7-.82z" fill="#787878"/><path d="m66.09 30.76a.54.54 0 0 0 -.55-.52c-.29 0-.41.21-.52.42s0 .47.15.69a11.91 11.91 0 0 1 1.39 1.77c-.21 0-.48 0-.68 0-.53-.24-.83-.86-1.47-1.22-.9-.59.21-2.46 1.87-2.4-.34.29-.35.55 0 .79s.23.36-.07.47a.08.08 0 0 1 -.12 0z" fill="#626262"/><path d="m58.17 63.4a2.69 2.69 0 0 0 1.23 1c.66.29 1.19.8 1.83 1.1s1.26.45 1.89.69c.32.12.83.21.67.66s-.62.22-.95.13a8.5 8.5 0 0 1 -2.84-1.42 18.08 18.08 0 0 1 -3.35-3c-.13-.12-.28-.29-.13-.46s.3 0 .42.15z" fill="#7e7e7e"/><path d="m17.49 15.8c.1-.27-1.47-1.61-1.66-1.73a7.86 7.86 0 0 1 -1.46-1.3 10.37 10.37 0 0 1 -1.37-1.31c.36.08.55.38.81.6s.24.31.45.17.11-.32.08-.49a.74.74 0 0 0 -.87-.69c.49-.18.94-.31 1.34.1s.78.86 1.13 1.31a8.12 8.12 0 0 0 1 .88.26.26 0 0 0 .33 0 .25.25 0 0 0 .13-.25c-.05-.17-.2-.08-.3-.12a2.22 2.22 0 0 1 -1.1-1.23c-.11-.25-.09-.39-.45-.34s-.61-.37-.75-.71a5.73 5.73 0 0 1 -.22-.93c.21-.14.34 0 .45.15a29.58 29.58 0 0 0 2.14 2.09c.38.38 1 .54 1.21 1a8.59 8.59 0 0 0 1 1.35c.24.32.53.59.79.9.13.15.27.29.19.52-.48.68.33.25.4.46a3.25 3.25 0 0 1 .47.36c.46.44-.33 1-1 1.21-.51-.59-.59-.51-1.23-.62-.24-.29-.4-.55.19-.58.38 0 .5-.21.29-.56s-.26-.49-.41-.73-.17-.21-.3-.14-.08.21 0 .32.41.34.18.62a1 1 0 0 1 -.78.23c-.32 0-.64 0-1 0-.11 0-.26 0-.28.17s.16.21.29.24c.33.07.68-.09 1 .09a.45.45 0 0 1 .16.22c-.81-.16-1.53.46-2.35.22-.15 0-.34 0-.37-.23s.24-.27 0-.31-.27.15-.32.31a.85.85 0 0 0 0 .17c0 .2.09.56-.2.54s0-.57-.22-.65c-1.35-.35 2.52-1.11 2.61-1.31z" fill="#686868"/><path d="m13.29 8.08 1.33 1.68a3.55 3.55 0 0 1 -1.33-1.68z" fill="#686868"/><path d="m20.85 17.57c-.6.86-5.78 2.51-5.56 1.73.08-.3 3.8-1.43 3.88-1.74l-.12-.36a2.73 2.73 0 0 1 1.58-.31c.37-.03.3.39.22.68z" fill="#616161"/><path d="m15 19.49a4 4 0 0 0 1.33-1 .94.94 0 0 1 .62-.32 2.46 2.46 0 0 0 1.28-.53.93.93 0 0 1 1 0c.32.22.52.42-.05.55a9.3 9.3 0 0 0 -2.45 1.09c-.2.19-1.07.05-1.73.21z" fill="#686868"/><path d="m43.89 24.76a3.16 3.16 0 0 1 -2 .55.93.93 0 0 1 -.39-.44c-.07-.17-.27-.39-.12-.54s.35.07.49.18.46.3.65.14c.51-.41.92-.09 1.35.11z" fill="#696969"/><path d="m39.07 29.22c-.11 0-.2-.06-.2-.17s.11-.18.24-.18.2 0 .2.16-.11.19-.24.19z" fill="#666"/><path d="m89.49 28.12c-.15-.39-.4-.32-.67-.16a1.28 1.28 0 0 1 -1.25.16 2.15 2.15 0 0 0 1.7-1.21c0-.13.23-.22.36-.3s.26-.11.36 0 .07.32-.06.37c-.4.18-.45.38-.2.74.09.17-.12.28-.24.4z" fill="#636363"/><path d="m87.45 28.12a.77.77 0 0 1 -.66.36 1.17 1.17 0 0 0 -1.11.57c-.06.1-.17.2-.29.11a.66.66 0 0 1 -.16-.31c0-.14 0-.2.17-.26a11.28 11.28 0 0 1 1.69-.59z" fill="#636363"/><path d="m66.09 30.76h.12c.15.12.38.08.53.28a.43.43 0 0 1 -.62 0c-.12-.04-.21-.15-.03-.28z" fill="#717171"/><path d="m20.49 15.76.35.6a.42.42 0 0 1 -.66 0c-.17-.24-.11-.57-.3-.89.33-.02.43.22.61.29z" fill="#616161"/></svg>