<svg viewBox="0 0 17.26 14.8" xmlns="http://www.w3.org/2000/svg"><path d="m12 13c.38.23.49.44 0 .6a.54.54 0 0 0 -.32.23c-.26.33-.69.27-1 .38a1.67 1.67 0 0 0 -.82.62c-.59.08-.82-.06-1.09-.69.06-.18-.08-.4.1-.56.59-.09 1.2 0 1.79-.18.29-.21.35-.65.75-.75.2.01.48 0 .59.35z" fill="#5b5b5b"/><path d="m12.23 7.77a12.41 12.41 0 0 0 .25-3.1c.12-.14-.19-.45.15-.46s.27.28.29.5-.09.54.07.8a6.23 6.23 0 0 1 -.51 3.35c-.22-.11-.26-.26-.22-.51a.89.89 0 0 0 -.03-.58z" fill="#7a7a7a"/><path d="m.15 13.66c-.38-.66.06-1.16.34-1.66.24-.25.41-.61.79-.66s.63-.21.75.18a.52.52 0 0 1 -.46.74c-.53.19-.74.71-1.09 1.08-.14.05.16.57-.33.32z" fill="#5d5d5d"/><path d="m17 12.22a1.45 1.45 0 0 1 -.55.83c-.13.09-.3.19-.43 0s0-.28.11-.39a2.37 2.37 0 0 0 .21-2c-.06-.1-.18-.06-.28 0-.29-.35 0-.46.24-.61s.42-.09.54.21c.05.12.07.29.21.38.09.35 0 .71.16 1.06.12.2-.05.38-.21.52z" fill="#787878"/><path d="m11.4 2.52a13.48 13.48 0 0 1 -1.18-1.82c-.06-.24 0-.32.26-.24a2.46 2.46 0 0 1 .79 1.09 2.62 2.62 0 0 0 .73.85c0 .47 0 .47-.6.12z" fill="#868686"/><path d="m6 5.37a17.08 17.08 0 0 1 -.58 2.63c-.28.16-.31 0-.3-.23a1.15 1.15 0 0 0 -.12-.58c.43-.57.42-1.36 1-1.82z" fill="#969696"/><path d="m.15 13.66.33-.35a1.22 1.22 0 0 0 .8 1c.12 0 .28.13.22.3s-.24.12-.37.12c-.5.02-.83-.36-.98-1.07z" fill="#838383"/><path d="m17.06 10.67c-.66-.54-.66-.54-1 0-.16.07-.31.07-.4-.12a.3.3 0 0 1 .11-.37c.28-.2.52-.54.93-.4s.31.51.38.8v.06z" fill="#727272"/><path d="m9.64.61c-.23.49-.71.78-1.05 1.17l-.42.49c-.1.08-.18.23-.34.16s-.07-.19 0-.3c.31-.33.41-.83.83-1.08.34-.05.45-.59.88-.6a.21.21 0 0 1 .1.16z" fill="#858585"/><path d="m13 5.51a2.49 2.49 0 0 1 -.17-.81c-.07-.42-.21-.14-.34 0a4.68 4.68 0 0 0 -.49-1.21c0-.15-.1-.32.1-.41s.21 0 .27.15a3.12 3.12 0 0 1 .63 2.28z" fill="#838383"/><path d="m5 7.19c.23-.1.28 0 .29.22a1.44 1.44 0 0 0 .13.59l.35 1.08c-.15.19-.3.18-.4 0s-.07-.2-.21-.19h-.1s0-.07 0-.11c-.43-.4-.06-.78-.12-1.23z" fill="#898989"/><path d="m7.79 2.13a.38.38 0 0 0 .38.14 4.83 4.83 0 0 1 -1 1.2.76.76 0 0 1 -.17-.24 2 2 0 0 1 .37-.83z" fill="#959595"/><path d="m12.23 7.77c.31.3.08.74.25 1.09a17.49 17.49 0 0 0 -.48 2.29l-.07.07c-.46 0-.45-.25-.32-.59a5.25 5.25 0 0 0 .39-1.88z" fill="#5e5e5e"/><path d="m9.49.59c-.23.26-.45.56-.87.46.38-.43.58-.99 1.24-1.05.11.09.34 0 .34.25s-.19.16-.33.2a1.34 1.34 0 0 0 -.38.14z" fill="#6a6a6a"/><path d="m12 13a.77.77 0 0 0 -.59-.12c-.51-.26-.19-.7-.24-1.06a1.12 1.12 0 0 1 .81-.62c.06.15 0 .26-.09.39a1.13 1.13 0 0 0 .11 1.41z" fill="#5e5e5e"/><path d="m12.36 3.23c-.19 0-.28.12-.37.26l-.59-1c.22 0 .44.1.61-.12z" fill="#888"/><path d="m9.49.59c.13-.19.63-.16.37-.59a.54.54 0 0 1 .62.46l-.26.24a.75.75 0 0 0 -.58-.1z" fill="#7d7d7d"/><path d="m12 11.15-.45.72c-.47.11-.43-.36-.64-.55a1.67 1.67 0 0 1 .51-1.09c.09-.08.19-.15.14-.29a4.92 4.92 0 0 1 .44-1.19c.36.15.17.43.16.67-.01.58-.37 1.13-.16 1.73z" fill="#585858"/><path d="m8.75 14.05h-.1a.89.89 0 0 0 -.6-.53 1.33 1.33 0 0 1 -1-1.38c0-.16-.16-.38.07-.45s.25.18.31.33a3 3 0 0 0 .25.58l.21.25a2.27 2.27 0 0 1 1.28.23.4.4 0 0 1 -.18.6z" fill="#595959"/><path d="m6 10.55-.6-.81c-.05-.19-.13-.4 0-.54s.25 0 .33.15a7.67 7.67 0 0 1 1.27 1.78c0 .1.12.22 0 .31s-.25 0-.37 0z" fill="#696969"/><path d="m6.62 11.39a.58.58 0 0 0 .38-.26 2.7 2.7 0 0 1 .72 1.46c-.12-.18-.23-.37-.36-.54s-.21-.06-.27.08z" fill="#727272"/><path d="m7 3.23c.15 0 .21.1.23.24-.44.74-1.4 3.11-1.43 2.14a9.5 9.5 0 0 1 1.2-2.38z" fill="#838383"/><path d="m5.78 9.35c-.3 0-.35.17-.38.39l-.24-.85c.42-.51.37.24.61.22z" fill="#777"/><path d="m10.69 12a.79.79 0 0 1 .34-.72 1 1 0 0 1 .51.61l-.12 1c-.29.24-.22.79-.73.84-.2-.11-.42-.15-.63-.26s-.39-.3-.21-.59a.76.76 0 0 0 .84-.88z" fill="#4a4a4a"/><g fill="#4f4f4f"><path d="m9.85 12.82.84.85a3 3 0 0 0 -1 .21c-.29.17-.48-.08-.69-.21v-.62a1.18 1.18 0 0 1 .85-.23z"/><path d="m10.69 12c.08.72-.1.89-.84.85a1.44 1.44 0 0 0 .84-.85z"/></g></svg>