<svg viewBox="0 0 358.34 78.98" xmlns="http://www.w3.org/2000/svg"><text fill="#1d1d1b" font-family="BaskervilleMTPro-Regular, Baskerville MT Pro" font-size="10" transform="translate(99.13 66.72)">ni<tspan letter-spacing=".01em" x="7.81" y="0">g</tspan><tspan x="12.6" y="0">ht</tspan></text><text fill="#1d1d1b" font-family="BaskervilleMTPro-Regular, Baskerville MT Pro" font-size="10" transform="translate(267.06 66.72)">d<tspan letter-spacing="-.01em" x="5.21" y="0">a</tspan><tspan x="9.8" y="0">y</tspan></text><path d="m233 43.11c.07-.31-.86-.51-.63-.75 2.44 0 20.05 1.38 19.93 1.67.76-.15-1.57.4-1.57.49-.56-.07-16.41-1.5-16.46-1.36s-1.27.09-1.27-.05z" fill="#b4b4b4"/><path d="m106.3 42.06c.08 0 2.43.22 3.52.26h.62a35.16 35.16 0 0 0 4-.12 18.89 18.89 0 0 0 2.24-.35 5.24 5.24 0 0 1 2.49 0c.55.1 3.4-.1 4.21-.1.58 0 12.64-.1 13.31-.18a14.63 14.63 0 0 1 3.24 0c.8.07 2.85.11 3.07.21a22.37 22.37 0 0 1 3.13.15c.29.1 2.61-.47 3.55-.33.12 0 7.47.1 7.77 0a10 10 0 0 1 1.89 0c.58 0 3.5.47 4.18.13a1.2 1.2 0 0 1 1.41.08c.3.24 4.24-.13 4.57.18s7.9.05 7.93.37c2.66.8 1.48.67 1 .74-.79.12-10.62 1-11.42.87-.62-.08-1.24-.14-1.86-.25-.45-.07-4.36.14-5.06-.14-.4-.16-2.5.28-3 .08a2.35 2.35 0 0 0 -1.06.14c-.61-.15-1.22.09-1.8 0a2.11 2.11 0 0 0 -1 0 28.48 28.48 0 0 1 -4.86-.09 10.67 10.67 0 0 0 -2.24.2c-.58 0-1.16.07-1.75.05-1.34-.07-2.68-.07-4-.11-.25 0-1.75.09-2.15.12a6.38 6.38 0 0 1 -1.69 0c-.6-.11-4.21.06-5.23-.05a19.08 19.08 0 0 0 -3.38 0 20.08 20.08 0 0 1 -5 0 1.91 1.91 0 0 0 -.75-.05 14.45 14.45 0 0 1 -4.5 0c-.88-.1-1.74.12-2.62.09a13.52 13.52 0 0 0 -2.55 0c-.88.15-7.25.1-7.6.09-.84 0-1.68-.1-2.52-.13a11.45 11.45 0 0 0 -2.61.26 2.66 2.66 0 0 1 -.93.06 6.35 6.35 0 0 0 -1.57 0 8.5 8.5 0 0 1 -2-.05 9.53 9.53 0 0 0 -2.91.17 8.13 8.13 0 0 1 -2 0 5.25 5.25 0 0 0 -1.37-.06 4.91 4.91 0 0 1 -2.19 0 1.42 1.42 0 0 0 -.93.06 3.73 3.73 0 0 1 -1.78.27 9.28 9.28 0 0 0 -3.06.18 13.66 13.66 0 0 1 -2.59.13 4.86 4.86 0 0 0 -1.57.1 5.64 5.64 0 0 1 -1.69.08 2 2 0 0 0 -1.34.22 18.78 18.78 0 0 1 -3.49.16c-1-.08-2.06 0-3.09.06-1.91 0-3.82.12-5.73.16-1.33 0-2.68 0-4 .19a14.21 14.21 0 0 1 -2.26-.12c-1-.06-2 .13-3 .1s-2.15.15-3.22 0c-1.24-.13-15.61 1.08-15.76 1.17-.8.44-1.7.05-2.5.36a35.06 35.06 0 0 1 -5.1.28 5.19 5.19 0 0 0 -1.57.13c-1.17-.06-2.32.21-3.48.26-.39 0-.79-.1-1.19 0-.29-.46-.21-.65.36-.69a8.67 8.67 0 0 1 2.18-.26.45.45 0 0 0 .57-.5.29.29 0 0 1 .14-.31c.47 0 8.71-1.22 9-1.43s11-.51 12.44-.85c.25-.06 4.11-.27 5-.21a23.06 23.06 0 0 1 2.62-.11c.14 0 2.23.17 2.83.16a28.73 28.73 0 0 0 4.15 0c1.78-.25 3.6-.14 5.4-.22 1 0 7.23-.13 7.75 0s6.33-.71 7.16-.63c.61.05 9.94-.76 10.21-.57s14.11-.69 14.45-.32c.19.18 2.22-.23 2.58-.09z" fill="#c0c0c0"/><path d="m206.84 42.5c-1.05.16-17.22-1-17.35.53a.27.27 0 0 0 -.33-.2c-.58.23-1-.18-1.46-.35a5 5 0 0 1 -2.22-.2 4.48 4.48 0 0 0 -3-.2 11.1 11.1 0 0 1 -3.1 0 4.8 4.8 0 0 0 -1.85 0c-.21.06-.53 0-.51.36s.35.32.59.37.29-.17.41-.1c.7.43 3.57.71 4 .16a10.25 10.25 0 0 1 2.33-.18 4.85 4.85 0 0 1 1.32.2 1.31 1.31 0 0 1 1.23.5 4.82 4.82 0 0 0 1.66.46c.23-.05.58-.06.66.23a8.71 8.71 0 0 1 .11 1.28 2.59 2.59 0 0 1 0 .48 5.24 5.24 0 0 1 .27.65.47.47 0 0 1 .1.3 4.7 4.7 0 0 1 .18 1c.47.9 1.13 7 1.14 6.5a21.23 21.23 0 0 1 -.25-2.83c.06.35.12.71.15 1.08.09 1 .25 1.93.41 2.89a8.2 8.2 0 0 1 .16 2.1c-.14 1.51 0 3 0 4.56 0 .24 0 .49.4.35.4-1 .15-2.13.51-3.15a9.4 9.4 0 0 1 -.08-1.83 21.93 21.93 0 0 0 -.49-3.41c-.14-.68-.14-1.39-.34-2.1a28.83 28.83 0 0 1 -.85-5.15 11.69 11.69 0 0 0 -.23-1.54c-.05-.2-.19-.38-.07-.59s.2-1.12.49-1.23 9.76-.47 11.17 0a19.17 19.17 0 0 0 3.39-.1c.52-.13 2 .32 2.21 0a6.12 6.12 0 0 1 1.78 0c.78.15 18-.19 18.67-.26l-1-.78c-.59.06-19.82.15-20.21.2z" fill="#bdbdbd"/><path d="m189.5 43.05s-.01.01 0 0z" fill="#bdbdbd"/><path d="m128.54 23.81a.89.89 0 0 0 -.62-.52 7.81 7.81 0 0 1 -2-1l-.62-.39a1.59 1.59 0 0 1 -.72-.41 2.47 2.47 0 0 0 -1.51-.87 2.46 2.46 0 0 1 -1.6-.48c-.47-.51-1.28-.46-1.6-1.13-1.06-.26-1.74-1.15-2.66-1.62-.37-.19-.73-.36-.87-.78l-.13-.12a2 2 0 0 1 -1-.68 1.49 1.49 0 0 0 -.92-.61 6.75 6.75 0 0 0 -2-.38.46.46 0 0 1 -.43-.22c-.38-.53-1.14-.52-1.5-1.09-.07-.11-.27-.07-.42 0a4 4 0 0 1 -.6 0c-.94 0-1.73-.63-2.67-.64a.77.77 0 0 1 -.62-.24c-.21-.28-.46-.26-.76-.17a2.15 2.15 0 0 1 -1.33 0 2.31 2.31 0 0 0 -1.45-.25 6.59 6.59 0 0 1 -3.33 0 1 1 0 0 1 -.63-.43 5.59 5.59 0 0 0 -1.1-1.17c-1-.82-1.78-2-3-2.6a8 8 0 0 1 -1.71-1.37h-.11c-.4-.12-.65 0-.76.22l.26.16a.11.11 0 0 1 0 .1l.8.49.35.23a.12.12 0 0 1 .12.13c.18.17.25.36.07.54l-.11.08a1.21 1.21 0 0 1 .14.1c.33.61.33.61 1.05.73a8.39 8.39 0 0 1 2.15 1.88c.09.13.1.29.2.42s.44-.05.54.25c-.29.19-.42-.25-.66-.15h-.18a7.22 7.22 0 0 1 -1.23 0 5.45 5.45 0 0 1 -1.71-.08l-.2-.07c-.38 0-.73.11-1.11.11s-.35.22-.35.5a.39.39 0 0 0 .46.38.71.71 0 0 1 .76.42c.07.17.26.2.42.25a2.26 2.26 0 0 0 .53.07 14.2 14.2 0 0 1 2.44 0 1 1 0 0 1 .78.34.49.49 0 0 0 .67.15.71.71 0 0 1 .81 0c.18.12.4.07.61.1.7.11 1.32-.31 2-.3a6.44 6.44 0 0 1 2.81.42c.23.12.55.32.83.12.7-.51 1.34 0 2 .13a4.27 4.27 0 0 0 1.24.29 1.1 1.1 0 0 1 1.21.71c.17.35.53.63.85.49a1.47 1.47 0 0 1 1.31.16 1.26 1.26 0 0 0 .8.08.75.75 0 0 1 .66.1.77.77 0 0 1 .83.53.93.93 0 0 0 .76.65 2 2 0 0 1 1.11.77 2.23 2.23 0 0 0 .47.5c1.06.81 2.38 1.17 3.43 2a5.55 5.55 0 0 0 .95.59c1.2.54 2.42 1.05 3.62 1.58.61.27.65.58.18 1.09a4.23 4.23 0 0 1 -1.85.38c-.26 0-.49.11-.74-.15s-.81 0-.72.31-.09.53-.24.75a.9.9 0 0 0 .09 1.06.45.45 0 0 0 .75.05c.09-.09.19 0 .29 0a3.54 3.54 0 0 0 1.2-.13 3.16 3.16 0 0 1 1.6-.33.42.42 0 0 0 .41-.11c.41-.18.39-.56.42-.92 0-.58.56-.32.78-.58s.18-.51.65-.39a4.75 4.75 0 0 1 1.6.68c.27.19.56.32.72-.14-.18-.38-.59-.45-.96-.57z" fill="#a2a2a2"/><path d="m93.61 12.08h-.94c-.13 0-.27 0-.3.15s.12.2.23.25c.44.17 1 .2 1.26.64 0 .29-.22.27-.4.2a1.9 1.9 0 0 0 -1.42.22 1.65 1.65 0 0 1 -1.38.08 1.92 1.92 0 0 0 -2.07.18l-.17.08a16.69 16.69 0 0 1 -1.64.56 4.18 4.18 0 0 0 -1.84.31 1.12 1.12 0 0 1 -1.4-.11.46.46 0 0 0 -.64.05c-.43.59-1.1.64-1.71.83-.14 0-.27.11-.41.16-.3-.08-.61-.06-.75-.5s-.66-.26-.88-.13c-.66.37-1.41.51-2.06.82s-1.59.61-2.35 1a4.45 4.45 0 0 1 -2.33.53c-.08 0-.19-.06-.24 0-.43.59-1.16.44-1.72.72a1.71 1.71 0 0 1 -1.26 0c-.13-.22-.49-.09-.57-.38 0-.45.46-.42.65-.68h.12c.33 0 .58-.36.88-.36a12.85 12.85 0 0 0 2.53-.7 6.53 6.53 0 0 1 2.36-1c.64-.12 1.14-.68 1.92-.54.34.06.77-.28 1.13-.49s.43-.57 0-.91a2.68 2.68 0 0 0 -1.73-.45 23.94 23.94 0 0 0 -6.37.58c-.2-.13-.16-.28 0-.39a1.76 1.76 0 0 1 .69-.39 1.37 1.37 0 0 0 .82-.49l.38-.12a1.88 1.88 0 0 1 1.36-.22c1 .09 1.95 0 2.93 0a10.85 10.85 0 0 1 2.51.56c.29.1.38.38.52.6a.88.88 0 0 0 .81.48 7.53 7.53 0 0 0 1.59.14 15.9 15.9 0 0 0 2.56-.61 1.39 1.39 0 0 1 .46-.11 3.82 3.82 0 0 0 2.26-.36 3.92 3.92 0 0 1 2-.28 13.33 13.33 0 0 0 3.83-.37c.33-.05.8-.16.78.45z" fill="#ababab"/><path d="m137.79 7.41c-.25 0-.51 0-.75 0a1.44 1.44 0 0 0 -1.31 2c.5 1.45.58 3 1 4.47a25.81 25.81 0 0 1 .74 3.62c.14 1.21.27 2.41.41 3.62a.55.55 0 0 1 0 .18c0 .17 0 .46-.2.47s-.29-.27-.27-.47a8.56 8.56 0 0 0 -.69-3.27c-.32-1.19-.6-2.39-.89-3.59a31.89 31.89 0 0 1 -.71-3.19 7.25 7.25 0 0 1 .28-4.12c.21-.46 3.23-.83 3.45-.77a4.18 4.18 0 0 1 2.51 2.27 34.4 34.4 0 0 0 1.8 3.17 6.35 6.35 0 0 1 1.79 3.81c.19 1.55.19 3.11.46 4.64a2 2 0 0 1 -.94 1.74c-.18.08-.39.13-.5-.06s.12-.24.22-.32a.64.64 0 0 0 .25-.54c0-.6.18-1.19.18-1.81a3.12 3.12 0 0 0 -.13-1.22 2.59 2.59 0 0 1 -.18-.6c-.15-1.43-1.69-4.39-1.51-4.68s-1.09-1.29-1.29-1.9a7.23 7.23 0 0 0 -1.34-1.86 2 2 0 0 1 -.87-1.13c-.11-.36-.62-.42-1-.47a2.15 2.15 0 0 0 -.5 0z" fill="#bdbdbd"/><path d="m317.11 36.18c.89-.28 1.72-.71 2.63-.9.3 0 .41-.34.65-.45s.61-.4 1-.26c.21.07.35-.07.51-.17a8.94 8.94 0 0 0 1.65-.64 11.33 11.33 0 0 1 2.49-1c1.2-.35 2.37-.81 3.56-1.23a1.84 1.84 0 0 0 1.4-1.59c.31-1 1.2-1.27 2.1-1.46a1.85 1.85 0 0 0 1.13-.47 1.17 1.17 0 0 1 .34-.22.72.72 0 0 1 1.07.2c.17.42-.11.7-.43.89-.65.37-1.28.79-2 1.1 1.12-.35 2.3-.46 3.41-.87a1.58 1.58 0 0 0 .6-.08.74.74 0 0 1 .95.87c-.12.69-.42 1-1.21 1.15a2.47 2.47 0 0 0 -.6.13 5.37 5.37 0 0 0 -2.3.26 10 10 0 0 1 -3.31 1c-.24 0-.43.11-.46.36s.17.33.36.36a14.11 14.11 0 0 0 1.42.37c.5 0 .87.46 1.39.44a.19.19 0 0 1 .18.22c0 .17-.09.35-.29.35-.56 0-1.15.37-1.67-.16a1.21 1.21 0 0 0 -.34-.13 9.81 9.81 0 0 1 -2.1-.76 1.57 1.57 0 0 0 -1.77 0 .68.68 0 0 1 -.56.16.69.69 0 0 0 -.57.15 2.1 2.1 0 0 1 -1.09.38 3.22 3.22 0 0 0 -1.46.52 9.33 9.33 0 0 1 -2 .85c-.81.28-1.62.61-2.42.93-.31.17-.71.21-.77.71 0 .24-.3.15-.48.15-.43 0-.85-.11-1.28-.13a15.39 15.39 0 0 0 -2.24.27.7.7 0 0 0 -.56.21.84.84 0 0 1 -.91.13c-.2-.08-.49-.11-.42-.41s.21-.5.56-.42a5.47 5.47 0 0 0 2.68-.48 5.22 5.22 0 0 0 1.16-.33z" fill="#737373"/><path d="m263 31.87a2 2 0 0 0 -.25.7 4 4 0 0 1 -2.31 2.69 4.81 4.81 0 0 1 -2.81.65 2.7 2.7 0 0 1 -1.94-.87c-.76-.09-1 0-1.33.63a2.43 2.43 0 0 1 -1.91 1.25 6.75 6.75 0 0 0 -1.95.63 13.32 13.32 0 0 1 -1.36.42.67.67 0 0 1 -.6-.1.51.51 0 0 1 .08-1 2.64 2.64 0 0 1 1.21-.3 4.65 4.65 0 0 0 2.26-.76c.36-.17.62-.6 1-.86a5.16 5.16 0 0 1 .88-.51c.37-.15.83-.22.69-.83a.23.23 0 0 1 .35-.26c.61.46.79 0 1-.41a7.42 7.42 0 0 1 1.24-1.7c.16-.18.29-.39.56-.31a.67.67 0 0 1 .46.62 2.43 2.43 0 0 1 -.45 1.6c-.32.44-.53 1-1.15 1.18a.18.18 0 0 0 -.13.2c0 .1.09.14.22.13a7.3 7.3 0 0 1 1.24 0 2.17 2.17 0 0 0 1.87-.89 11 11 0 0 0 1.1-1.39 1 1 0 0 0 .09-.84c.12-.46.27-.92.4-1.39.08-.26.17-.53-.05-.77-.5-.24-1.06-.08-1.58-.26l-.47-.14c-.14 0-.23-.1-.22-.24s.14-.17.27-.2a19.16 19.16 0 0 0 2.08-.52c.59-.37 1-.31 1.68.27a1.37 1.37 0 0 1 .48 1.68 12.19 12.19 0 0 0 -.65 1.9z" fill="#787878"/><path d="m295.8 45.9a1.93 1.93 0 0 1 -1.4 0c-1-.16-1.93.08-2.89 0l-4.89-.27c-.94 0-1.89 0-2.83-.13-1.64-.2-3.29-.16-4.93-.21a63.31 63.31 0 0 1 -8.6-.48 15.67 15.67 0 0 0 -3.55-.11c-1.07.06-2.14-.14-3.21 0-.1-.26-7.35 0-7.57-.12s-1.32-.46-.91-.79c2.11.32 11.32-.19 13.43-.28a9.13 9.13 0 0 1 1.88.16 53.62 53.62 0 0 0 8 .75c3.42 0 6.85.09 10.26.27 2.54.13 5.08.1 7.61.33.23 0 .47 0 .66.16.05.49 0 .53-.46.5-.21.03-.47-.09-.6.22z" fill="#999"/><path d="m137.65 10.66a1.48 1.48 0 0 1 .54 1 20.25 20.25 0 0 0 2 5.65 21.55 21.55 0 0 1 .8 2.51c.17.53.34 1.07.56 1.59s.54 1.28.75 1.94a9 9 0 0 0 .78 1.91 3 3 0 0 1 .44 1.43 2.88 2.88 0 0 0 .36 1.2c.34.71.62 1.46.92 2.19.07.18.12.38-.07.52a.47.47 0 0 1 -.54 0 1.54 1.54 0 0 1 -.82-1.06 3.11 3.11 0 0 0 -.42-1.11 4.44 4.44 0 0 1 -.69-1.93 1.63 1.63 0 0 0 -.22-.59 12 12 0 0 1 -1.41-3.55 15.36 15.36 0 0 0 -.92-2.78 16.82 16.82 0 0 1 -.55-1.91c-.18-.7-.54-1.33-.66-2-.22-1.3-.85-2.54-.69-3.91.03-.38-.31-.64-.16-1.1z" fill="#bababa"/><path d="m338.17 46c1.88 0 3.7.48 5.57.57 1.33.07 2.67 0 4 .1 1.87.21 3.74.43 5.6.74 1.52.25 2.93.87 4.41 1.24.26.07.67.16.56.54s-.46.31-.76.31a2.25 2.25 0 0 1 -1-.31 23.11 23.11 0 0 0 -6.89-1.64 17.43 17.43 0 0 0 -3.38-.31c-1.08.06-2.16-.09-3.25 0a1.4 1.4 0 0 1 -.5 0 28.82 28.82 0 0 0 -4.54-.42c-1.83-.19-3.68.11-5.52 0-.8 0-1.59-.15-2.39-.19a1.9 1.9 0 0 0 -.75 0 1.39 1.39 0 0 1 -.73 0 .27.27 0 0 1 -.31-.25c0-.19.16-.23.31-.24s.41 0 .62 0c1.43 0 2.86-.1 4.28-.19a7.74 7.74 0 0 1 2.15 0 11.18 11.18 0 0 1 2.52.05z" fill="#8f8f8f"/><path d="m186.05 20.53a14.41 14.41 0 0 1 -.34-4.19 72.37 72.37 0 0 0 -1.49-13 8 8 0 0 0 -.4-2.16c-.07-.16-.07-.41.15-.48s.33.16.4.33a4.43 4.43 0 0 1 .22 1.3 42.4 42.4 0 0 0 1 4.61c.32 1.73.64 3.46.82 5.21.21 2.13.29 4.27.43 6.4a8.41 8.41 0 0 0 .16 1.45 2.93 2.93 0 0 1 0 .89c.28.27 0 .69.26 1a22.71 22.71 0 0 1 .25 2.49.55.55 0 0 1 -.16.46.49.49 0 0 1 -.51.29c-.22-.05-.24-.26-.27-.45a14 14 0 0 1 -.39-4 .33.33 0 0 0 -.13-.15z" fill="#959595"/><path d="m313.46 37.19c-.12.12-.45.11-.33.36a.53.53 0 0 0 .66.19c.35-.1.65-.37 1-.32a.75.75 0 0 1 .64 0 18 18 0 0 1 -4.61.72 24.29 24.29 0 0 0 -2.42.34 30.11 30.11 0 0 0 -4.86 1 12 12 0 0 1 -2.35.35c-1.26.18-2.5.48-3.74.77-.12 0-.26 0-.26.21s.16.23.29.3a28.22 28.22 0 0 0 2.66 1.12c-.15.23.43.43 0 .67l-.28.13c-.88-.43-1.87-.61-2.71-1.12a4.23 4.23 0 0 0 -3.21-.37 9.8 9.8 0 0 1 -3.74.13.74.74 0 0 1 -.5-.22c-.2-.37 0-.5.32-.53a7.38 7.38 0 0 1 1.41 0c.21 0 .41 0 .5-.22a10.72 10.72 0 0 0 4-.63l4.12-.72c.2 0 2.39-.64 2.78-.7 1.38-.19 10.4-1.78 10.63-1.46z" fill="#9f9f9f"/><path d="m180.63 37.69a31 31 0 0 1 -3.12-1.52 3.88 3.88 0 0 0 -1.54-.64c-1.08-.9-1.89-2.15-3.31-2.63a1.27 1.27 0 0 1 -.66-.57 8 8 0 0 0 -1.33-1.51c-.23-.21-.44-.43-.15-.73a.54.54 0 0 1 .84 0 19.89 19.89 0 0 0 1.77 1.41 33.08 33.08 0 0 0 4.22 3.06 28.18 28.18 0 0 0 4.32 2.27c.38.16.74.4 1.11.6s.58.17.43.54-.37.21-.63.16a1.52 1.52 0 0 1 -.52-.12 4.33 4.33 0 0 0 -1.43-.32z" fill="#a3a3a3"/><path d="m177.35 40.71a12.76 12.76 0 0 1 -4.35-.26 10.65 10.65 0 0 0 -2.65-.27 8 8 0 0 1 -2.82-.56 8.94 8.94 0 0 0 -2.38-.5 2 2 0 0 1 -.53-.17c-.29-.28-.7-.06-1-.26l-.88-.25a.81.81 0 0 0 -.77-.09c-.23.09-.42-.1-.62-.16a5.22 5.22 0 0 0 -1.26-.38 1.57 1.57 0 0 0 -1.54-.17c-.46.21-.82-.22-1.24-.22l-.11-.14c0-.6.16-.75.7-.7.23 0 .37-.16.58-.12.61 0 1.14.37 1.73.46.83.23 1.69.19 2.54.49a22.26 22.26 0 0 0 2.43.46c.82.17 1.65.3 2.47.45.26.49.82.44 1.21.54a15.85 15.85 0 0 1 2.07.59 3.82 3.82 0 0 1 2 .34.28.28 0 0 0 .18 0 6 6 0 0 1 3 .26c.42.1.83-.24 1.27-.07.21.09.58-.13.62.28s-.43.32-.65.45z" fill="#a6a6a6"/><path d="m129.94 12.46c-.05 0-.68.14-.74.12-.23 1.34-.58 1.8-.7.41a.62.62 0 0 1 .7-.41c.18 0 .34 0 .41-.19.23-.34 0-.57-.18-.81-.28-.19-.43-.6-.85-.59a1.59 1.59 0 0 1 -1.52-.85c-.31-.55-.47-1.3-1.38-1.12-.07 0-.14 0-.2-.12a.9.9 0 0 0 -1-.21 3 3 0 0 0 -.37 2.11 14.69 14.69 0 0 0 2.52 5c.09.19.12.43.39.48a3.34 3.34 0 0 0 .62-.33.49.49 0 0 1 .8.16.35.35 0 0 0 .17.06c.45 0 .65-.34.77-.68s-.14-.3-.32-.36a.31.31 0 0 0 .34-.26 2.65 2.65 0 0 0 .1-.55 1 1 0 0 1 .43-.8 2.41 2.41 0 0 0 .01-1.06zm-1.67 1.89a.72.72 0 0 1 -.5.34.13.13 0 0 1 -.13-.09s-.63-.58-.82-.78a12.24 12.24 0 0 1 -1.19-1.5c0-.06-.11-.16-.18-.28s-.12-.16-.11-.19c-.15-.28-.25-.6 0-.77s0 0 0 0 .21-.16.3-.12.31.1.47.15h.09l.61.31a3.25 3.25 0 0 1 1 1.06 0 0 0 0 1 0 0 6.48 6.48 0 0 0 .38 1.54s0 .19 0 .23a.08.08 0 0 1 .08.1z" fill="#a6a6a6"/><path d="m186.05 20.53c.26 1 0 2 .37 3 .09.29.12.61.19.91s0 .45.26.4.19-.29.19-.47a8.54 8.54 0 0 0 -.12-2.42c.5.11.62 3 .69 4 0 .15.06 2.18.07 2.94a34.34 34.34 0 0 1 .49 3.9c0 .41 1 4.93 1.08 5.33-.45.3-.68.49-.93 0 .37.59-.31-1.62-.61-2.6a.2.2 0 0 1 -.16-.06 17 17 0 0 0 -1.36-1.8 3.93 3.93 0 0 1 -1-1.8c-.07-.4-.43-.62-.65-.92-.49-.63-.75-1.44-1.45-1.93a1.38 1.38 0 0 1 -.5-1.05c0-.25 0-.46.21-.59a.53.53 0 0 1 .65.08 3.83 3.83 0 0 1 .84 1 24.59 24.59 0 0 0 3 4.11c.21-.05.18-.2.16-.31-.22-1.38-.44-2.76-.65-4.14-.1-.66-.17-1.32-.25-2a13.56 13.56 0 0 0 -.19-1.56 13 13 0 0 1 -.33-4.02z" fill="#a7a7a7"/><path d="m309.43 36.91c.14.22 2-.4 1.72-.28-.08 0 .38.51.29.52a18.71 18.71 0 0 1 -2.85.16.85.85 0 0 0 -1.1-.29c-1.61.67-3.31 1-4.95 1.59-.2.07-.4.16-.58 0-.44.11-.78.49-1.26.52-.18 0-.41-.07-.46-.28s.2-.28.34-.38a11.42 11.42 0 0 1 4-1.51c1-.27 2-.58 3-.86a.62.62 0 0 0 .51-.69c0-.23 0-.46 0-.69a2.34 2.34 0 0 1 2-2.29 2.58 2.58 0 0 0 .77-.25c.31-.3.64-.15.91 0s.1.47.1.73a2.1 2.1 0 0 1 -.62 1.4.6.6 0 0 1 -.53.26c-.23 0-.35-.2-.51-.31a.42.42 0 0 0 -.61.1c-.12.17-.25.37-.11.57s.34.08.51 0c.41-.15.78-.37 1.2-.5a1.2 1.2 0 0 0 .56-.78c.08-.44.44-.54.81-.27a1.53 1.53 0 0 1 .63.9c0 .72 0 .72-.79.78a11.6 11.6 0 0 1 -2.21 1.15 1.46 1.46 0 0 0 -.77.7z" fill="#838383"/><path d="m56.14 38.57c-.3.37 0 .87-.24 1.26-.29-.17-.55-.41-.87 0-.17.2-.37.08-.51-.1l.24-.89a8.47 8.47 0 0 1 .69-1.5c.09-.13.13-.35 0-.42a.42.42 0 0 0 -.5 0c-.26.34-.65.34-1 .49a1.57 1.57 0 0 1 -.44 0c-.39-.13-.46-.36-.11-.62a7.27 7.27 0 0 1 1.37-.88 2 2 0 0 0 1.23-1.51 12 12 0 0 1 .84-2.61c.22-.42.51-.85.25-1.36a.22.22 0 0 1 0-.18c.53-.48.53-1.21.88-1.78.4-.23.23-.84.67-1 .35 0 .63 0 .73.43v.12a3.75 3.75 0 0 1 -.52 1.68 1.06 1.06 0 0 0 .15 1.18.46.46 0 0 1 -.34.79 1.13 1.13 0 0 0 -.91.7c-.32.59-.25 1.3-.53 1.93-.13.28.35.36.46.61.15.56-.34.72-.63 1a6.94 6.94 0 0 1 -.91 2.66z" fill="#a0a0a0"/><path d="m333.5 46a30.37 30.37 0 0 1 -4.16.25c-.27 0-.58-.07-.84.19.26.27.56.16.83.19a11.41 11.41 0 0 1 -2.92-.06 17 17 0 0 0 -2.14 0 13 13 0 0 1 -2.25-.13c-1-.07-2.09-.09-3.13-.15-3.19-.19-6.37-.32-9.55-.46a6.8 6.8 0 0 1 -1.69-.07c-.1-.42.21-.4.47-.43a30.63 30.63 0 0 1 3.18.06l8.74.47c1.15.07 2.3.1 3.46.16 3.33.18 6.67.11 10-.02z" fill="#a5a5a5"/><path d="m264.36 46.47c-.56-.18-.79-.67-1.08-1.09s-.13-.52.22-.64c.23-.44-.11-.46-.38-.48s-.77 0-1-.4c0-.59-.54-.7-1-.79a37.17 37.17 0 0 1 -3.8-.63c-.33 0-.17-.08-.33.17s-.14.1.16.13c1.64.2 3 .87 2.6 1.14-.58 0-1.17-.13-1.76-.05h-.19a5.38 5.38 0 0 1 -1.7.1c-.29-.07-.5.14-.45.49.06.09.16.12.25.18h.1a4.86 4.86 0 0 1 2.16.37c.65.28 1.38.31 2 .62 1.31.5 2.71.75 4 1.38.18.09.46.19.56-.07s-.16-.36-.36-.43zm-1.84-.65c-.57-.18-1.16-.26-1.74-.39a19.88 19.88 0 0 1 -2.58-.77 21.5 21.5 0 0 1 2.4 0c.62 0 1.95.39 2.09 1 .03.12-.09.19-.17.16z" fill="#828282"/><path d="m191.48 55.34c.47 1.68.09 3.39.19 5.08 0 .66 0 1.33.06 2 .08.33.31.66 0 1 0 1.27 0 2.53-.15 3.78-.09.28.15.5.12.77a2.69 2.69 0 0 1 -.34.82c-.11.14-.24.28-.44.21s-.17-.23-.19-.4c-.12-.92.12-1.85 0-2.77a14.49 14.49 0 0 0 -.1-3.48c-.08-.41.06-.83 0-1.26-.09-.61 0-1.25-.17-1.87s.14-.93.1-1.42a5.16 5.16 0 0 0 -.08-.77 2.5 2.5 0 0 0 .19-1.27c-.06-.33.19-.52.37-.68s.34.09.44.26z" fill="#939393"/><path d="m93.73 8.55h-.18s0 0 0 0c-.15.17-.5.16-.7.18a8.47 8.47 0 0 1 -1.51 0c-.82-.08-1.62-.41-1.73-1.32a.14.14 0 0 1 .14-.16c.16 0 1.3 1.52 1.44 1.53a20.61 20.61 0 0 1 -1.25-2.09.16.16 0 0 1 .06-.2 1.24 1.24 0 0 1 .66-.09.12.12 0 0 1 .17-.11 6.73 6.73 0 0 1 .83.46.14.14 0 0 1 .16.1l.29.18c0-.19.31-.28.5-.39v-.11c-.37-.12-.41-.51-.63-.76a5.13 5.13 0 0 0 -2.18-1.19c-.27-.12-.67 0-.6.34.13.54-.18.86-.4 1.25a.92.92 0 0 0 -.1.83c.36 1 2.18 2.59 3.23 2.48s1.8.16 2.69 0c-.56-.08-.45-.78-.89-.93z" fill="#acacac"/><path d="m234.61 33.77s0-.08 0-.12l3.39-2.88c.13-.15.31-.07.47-.08a.39.39 0 0 1 .53.31.51.51 0 0 1 -.17.61c-.42.34-.79.74-1.24 1s-.39.63-.62.92a4.14 4.14 0 0 1 -1.64 1 4.32 4.32 0 0 0 -1.29.89 4.6 4.6 0 0 1 -2.07 1c-.65.17-1.22.62-1.94.5-.28 0-.5.19-.78.21s-.44.22-.63 0 0-.42.06-.64a.32.32 0 0 1 .14-.16 2.93 2.93 0 0 0 1.21-.42 3.68 3.68 0 0 1 1.43-.7 13.39 13.39 0 0 1 3.15-1.44z" fill="#7a7a7a"/><path d="m65.74 21.41v.26c-.18.29-.24.64-.52.87a.63.63 0 0 1 -.11-.12.69.69 0 0 0 .11.13c-.08 1.65.44 3.26.43 4.91 0 .36 0 .71-.43.8s-.54-.32-.61-.63c-.35-1.49-.91-3-.5-4.53a.13.13 0 0 0 0-.06c0-.32.2-.77-.15-.93s-.62.24-.84.51-.48.64-.93.69h-.08a.25.25 0 0 1 0-.17 4.44 4.44 0 0 0 .57-1.3c.39-1 1.09-1.28 2-.76a.72.72 0 0 0 .29.1c.35 0 .17-.31.21-.49-.1-.74.11-.95.84-.8.4.26.12.5 0 .74s-.02.55-.28.78z" fill="#bababa"/><path d="m64.84 21.67c-.23 0-.24-.27-.37-.39s-.36-.1-.64 0c-1.08.26-.87 1.49-1.64 1.92-.24 0-.38-.38-.72-.16-.17.11-.34-.13-.42-.33a10.44 10.44 0 0 1 1.83-2 1.88 1.88 0 0 0 .33-.36 8.62 8.62 0 0 1 2.65-1.39 11.51 11.51 0 0 1 2.24-1.33c.22-.07.47-.25.66.07a.59.59 0 0 1 .51.26c.08.1.15.27.06.33a1.4 1.4 0 0 0 -.48.76c-.09.25-.3.24-.52.16a1.56 1.56 0 0 0 -.48.08 6.15 6.15 0 0 0 -1.39.67.7.7 0 0 1 -.46.04c-.68 0-.52.49-.51.9-.37.15-.36.59-.65.77z" fill="#a7a7a7"/><path d="m299.84 42.7c-.13-.17-.41-.34 0-.51.3.14.53 0 .75-.18 2.07-1.54 5-.5 6.45.66.79.65.55 1.59-.42 1.95-.74.46-5.36.05-4.66-.5.23 0 2.86.15 3.09.17a.91.91 0 0 0 1-.59c.19-.39-.11-.61-.38-.82a6.88 6.88 0 0 0 -3-.5c-.31.12-.33.24 0 .39s1.55.35 1.81.91c0 .11-.48.13-.55.22a.5.5 0 0 1 -.55.14 8.2 8.2 0 0 1 -2.13-.58 6.22 6.22 0 0 0 -.84-.25c-.27-.08-.58-.15-.57-.51z" fill="#8c8c8c"/><path d="m307.89 45.38c0 .2-.12.27-.24.37-1.71.13-3.42.28-5.12.38-1 .06-1.92-.11-2.88-.13-1.28 0-2.58.31-3.85-.1-.09-.3.1-.35.33-.39l.67-.14c.14-.41.53-.35.84-.42a16.27 16.27 0 0 1 3.2-.14c.81 0 1.64.2 2.42.17 1.34-.06 2.63.46 4 .27a1 1 0 0 1 .63.13z" fill="#8e8e8e"/><path d="m321.9 34.4a5.18 5.18 0 0 1 -2.16.88c.53-1.44 1.94-2.21 2.69-3.48.18-.3.48-.54.64-.85.6-1.15 1.73-1.75 2.59-2.62a.78.78 0 0 1 .22-.12.43.43 0 0 1 .56.14.36.36 0 0 1 -.14.54c-.71.4-1.11 1.15-1.78 1.59a4.48 4.48 0 0 0 -1.19 1.74 11.85 11.85 0 0 1 -1.59 1.92c-.07.07-.26.15-.09.28s.16-.01.25-.02z" fill="#848484"/><path d="m57.66 34.91c-.44-.2-.53-.49-.46-1a3.1 3.1 0 0 1 1.49-2.59.37.37 0 0 0 .12-.55 1 1 0 0 1 0-1.08 7 7 0 0 0 .61-1.69c0 .34.09.71-.11 1-.78 1.11-.17 2 .39 2.91a30.75 30.75 0 0 1 1.77 3.09 5.45 5.45 0 0 1 .29.89.34.34 0 0 1 -.16.43c-.19.09-.33 0-.42-.17-.78-1.14-1.91-2.05-2.2-3.5a.75.75 0 0 0 -.64-.63c-.39 0-.43.37-.57.65a13 13 0 0 0 -.38 1.52c-.1.28.2.46.27.72z" fill="#b4b4b4"/><path d="m242.81 28.48c-.8.47-1.69.18-2.53.29-1.95.25-4 .34-5.68 1.39-1.25.77-2.64 1.52-3.29 3-.08.19-.19.34-.42.28s-.3-.28-.27-.51a1.82 1.82 0 0 1 .38-.85 7.76 7.76 0 0 1 1.16-1.08 9.82 9.82 0 0 1 6.78-2.38 23.42 23.42 0 0 0 2.49-.28 1.49 1.49 0 0 0 .91-.05c.19-.06.39-.08.47.19z" fill="#999"/><path d="m177.35 40.71c.3-.2.44-.39-.06-.49-.12 0-.26-.1-.36-.07a4.57 4.57 0 0 1 -2.17-.2 2.9 2.9 0 0 0 -1.6 0c-.25.1-.44-.1-.66-.14l-1.58-.35a1.35 1.35 0 0 1 1-.09 18.63 18.63 0 0 0 2.89.3c1.54.23 3.12.05 4.65.42a1.42 1.42 0 0 0 1.27.05 5.21 5.21 0 0 1 1.93-.06c.23 0 .56.11.54.41s-.34.14-.52.19a15.38 15.38 0 0 1 -5.33.03z" fill="#b9b9b9"/><path d="m190.38 39.3s.5.78.32.91a14.83 14.83 0 0 1 -3-.76 28.64 28.64 0 0 1 -3-.48 16.25 16.25 0 0 1 -4.06-1.28 1 1 0 0 1 1.29.07 1.07 1.07 0 0 0 .65.15c.37 0 .43-.19.21-.47a4.71 4.71 0 0 1 1.41.48 11.37 11.37 0 0 0 2.7.5c.47.04 3.1 1.15 3.48.88z" fill="#b4b4b4"/><path d="m104 3.88c-.3.5.14.7.41 1s.45.12.59.44c-.63-.15-1 .67-1.63.36-.7-.75-.64-1.83-1.17-2.66a1.67 1.67 0 0 1 .4-1.75c.3-.25.37 0 .41.21a8.29 8.29 0 0 0 .99 2.4z" fill="#b0b0b0"/><path d="m61.19 22.68a.41.41 0 0 0 .19 0c.68-.27.68-.27.81.5a1.38 1.38 0 0 0 -1.06 1.23 7.2 7.2 0 0 1 -1 2.31c-.15.24-.1.54-.31.74l-.35.39a.68.68 0 0 1 -.65-.26c-.33-.15-.19-.41-.15-.65.17-.58.57-1.08.7-1.68.37-.32.74-.53.78-1.19a1.7 1.7 0 0 1 1.04-1.39z" fill="#959595"/><path d="m256.69 30.62c0 .1-.06.2-.08.3s.29.5-.19.47-.67-.12-.67-.57.3-.72.43-1.08a5.28 5.28 0 0 1 3-1.25c.78 0 1.51-.34 2.29-.41-.6.41-1.38.31-2.05.72a2.21 2.21 0 0 0 1.6 0c.43-.07.81-.08 1 .44-.71.15-1.45.15-2.16.27a4.73 4.73 0 0 0 -2.72 1 .38.38 0 0 1 -.45.11z" fill="#999"/><path d="m191.1 72.87a.1.1 0 0 1 0 0c-.24.14-1.19 6.16-1.47 6.06s.88-6 .9-6.33c.06-1.36.14-2.72.22-4.07a5.7 5.7 0 0 1 0-2.14c0-.23-.21-.48.13-.63a14.43 14.43 0 0 1 0 2.18c0 .22-.11.54.14.63s.38-.24.53-.42a2.31 2.31 0 0 1 .2-.24c-.09.92-.1 1.86-.28 2.76-.15.77-.22 1.49-.37 2.2z" fill="#a2a2a2"/><path d="m125.27 21.91c-.61.05-.86-.56-1.34-.75-.22-.08-.4-.36-.66-.08a.12.12 0 0 1 -.11 0c-.63-.49-1.63-.2-2.07-.67a2 2 0 0 0 -1.35-.71c-.13 0-.35-.16-.21-.3.41-.43 0-.43-.24-.51a2.54 2.54 0 0 1 -1.39-.89c-.17-.28-.56-.35-.87-.47a.93.93 0 0 1 -.72-.92 33.25 33.25 0 0 0 4.32 2.76 5.28 5.28 0 0 0 2.35 1c.6 0 1.07.6 1.58 1 .25.12.44.34.71.54z" fill="#b9b9b9"/><path d="m56.14 38.57a24.24 24.24 0 0 1 .86-2.65 1.54 1.54 0 0 1 0 .43c-.16.51-.27.91.54.7.32-.08.47.37.74.51.19.3.4.59.56.9s.32.81-.13 1a.89.89 0 0 1 -1.16-.35c-.07-.13-.11-.28-.18-.4-.44-.85-.6-.86-1.23-.14z" fill="#b7b7b7"/><path d="m243.32 31.64a1.85 1.85 0 0 0 .4-1 .5.5 0 0 1 .57-.46c.37 0 .19.35.19.55s0 .58 0 .88a2.22 2.22 0 0 1 -1.71 1.53c-.59.13-1 .6-1.59.75a2.39 2.39 0 0 1 -.7.12.3.3 0 0 1 -.33-.23.29.29 0 0 1 .19-.35 7.34 7.34 0 0 0 2.2-1.5c.17-.19.51-.18.78-.29z" fill="#8e8e8e"/><path d="m71.66 12c.33.49.08.73-.4.8a2.35 2.35 0 0 0 -1.11.47 9.38 9.38 0 0 0 -.56 1c-.14.33-.49.38-.77.08a1 1 0 0 1 .18-1.56 4.92 4.92 0 0 1 2.66-.79z" fill="#9e9e9e"/><path d="m252.91 44.87c.77.65 1.77.94 2.52 1.64a12.86 12.86 0 0 1 1.89.76.36.36 0 0 1 .1.07c.12.17.61 0 .44.42s-.44.07-.67.05a1.07 1.07 0 0 1 -.38-.15c-.9-.41-1.77-.86-2.68-1.21-.74-.29-1.29-.85-2-1.19 0-.41.47-.22.61-.45a.25.25 0 0 1 .17.06z" fill="#919191"/><path d="m58.79 27a.86.86 0 0 0 0 .63c-.26.28-.21.84-.75.88a4.3 4.3 0 0 1 .42-1.3.36.36 0 0 0 0-.36.14.14 0 0 0 -.22 0c-.43.39-1 .3-1.52.51l-1.45.59c-.15.06-.31.17-.47.11s-.62-.18-.62-.46.37-.51.71-.58c.49.28.82-.21 1.25-.25a9.25 9.25 0 0 0 2.13-.6.44.44 0 0 1 .54.15.54.54 0 0 1 -.02.68z" fill="#b7b7b7"/><path d="m58.79 27c-.08-.63-.49-.62-.92-.43a2.26 2.26 0 0 1 -1.49.33c-.3-.07-.62.22-.92.35s-.59 0-.58-.25c1.13-.39 2.25-.77 3.37-1.17a5.26 5.26 0 0 0 .67-.34c.17-.05.31-.19.5-.13.22.64-.23 1.13-.63 1.64z" fill="#a0a0a0"/><path d="m137.12 28.22a36 36 0 0 0 3.57 1.64 7.45 7.45 0 0 1 .79.5 5.8 5.8 0 0 0 1.66.7 2.12 2.12 0 0 1 1.18.68v.1c-.48.4-1 .07-1.45 0a4.93 4.93 0 0 1 -2.05-1.13 2.49 2.49 0 0 0 -1-.43 2 2 0 0 1 -1-.49 7 7 0 0 0 -1.82-.79 1.38 1.38 0 0 1 -.59-.33c-.18-.2-.25-.39.05-.55a1.15 1.15 0 0 1 .66.1z" fill="#b4b4b4"/><path d="m256.81 47.66c.26 0 .51.14.79 0 0-.24-.21-.27-.28-.42a19.55 19.55 0 0 0 5 1c.2 0 .5 0 .5.27s-.32.19-.51.21a11.69 11.69 0 0 1 -3.75-.65c-.56-.07-1.28.09-1.75-.41z" fill="#a5a5a5"/><path d="m59.42 25.32-.5.13a2.14 2.14 0 0 0 1.08-1.61.58.58 0 0 1 .14-.34c1-1.07 1.63-2.55 3.07-3.22-.28.89-1 1.36-1.65 2a1.88 1.88 0 0 0 -.37.43c-.27.41-.54.83-.8 1.25 0 .07-.14.16-.12.21.28.83-.41.83-.85 1.15z" fill="#b5b5b5"/><path d="m129.3 19.77.13.76a1.56 1.56 0 0 1 .28 1.66c-.21.42-.47.43-.69 0a6.34 6.34 0 0 1 -.61-1.42 2 2 0 0 1 -.21-1 .7.7 0 0 1 .65-.78c.34.15.3.52.45.78z" fill="#979797"/><path d="m126.66 15.74.37.38c.36-.09.48.21.67.41a1.65 1.65 0 0 1 -.06.66c-.21.78-.17.85.51 1.2a.24.24 0 0 1 .07.18c0 .17 0 .36-.18.45a.59.59 0 0 0 -.8-.06 1.32 1.32 0 0 1 -.45.21c-.23 0-.58.31-.66 0s-.47-.74 0-1.12c.34-.26.49-.72.9-.94.18-.1.09-.29 0-.45a2.05 2.05 0 0 1 -.37-.92z" fill="#bbb"/><path d="m312.31 34.78a.42.42 0 0 1 .43-.14c.29.06.41-.11.45-.36 0-.08.08-.08.12 0a1.93 1.93 0 0 1 -.38 2.26 1.61 1.61 0 0 1 -1.88.5c-.37-.43 1.37-1.33 1.26-2.26z" fill="#949494"/><path d="m137.12 28.22h-.63c-.25.26-.54.11-.75 0-1.19-.67-2.45-1.24-3.59-2-.22-.15-.46-.27-.68-.42s-.55-.39-.36-.8h.09c.74.17 1.2.8 1.85 1.13 1.13.58 2.27 1.13 3.4 1.71a6 6 0 0 1 .67.38z" fill="#b8b8b8"/><path d="m252.91 44.87h-.14c-.62.19-.83 0-.93-.71a.71.71 0 0 1 0-.21c.19-.36.52-.29.82-.24a10.51 10.51 0 0 0 1.68.08.69.69 0 0 0 .6-.24c.71-.08.76.44.85.92l.11.14a8.26 8.26 0 0 1 -2.53 0c-.19-.04-.51-.2-.46.26z" fill="#a7a7a7"/><path d="m149.73 33.78.51.5c.11.31-.06.4-.31.32a6.94 6.94 0 0 1 -.87-.31c-1.07-.51-2.23-.78-3.31-1.28-.21-.09-.54-.12-.37-.5a.14.14 0 0 1 .19 0 12.63 12.63 0 0 1 4.16 1.27z" fill="#9d9d9d"/><path d="m54.52 39.71a1.44 1.44 0 0 0 .93-.75 3 3 0 0 1 .45.87c-.31.28-.24.65-.22 1a3.66 3.66 0 0 1 0 .81c0 .32-.19.53-.55.3-.18-.53-.61-.94-.72-1.52a.85.85 0 0 1 .07-.59z" fill="#8f8f8f"/><path d="m129.3 19.77-.38-.62c-.19-.24-.43-.45-.36-.81a4.43 4.43 0 0 1 .56-2.45 2.82 2.82 0 0 0 .29-.89c.05-.38.11-.82.55-1h.11a3.88 3.88 0 0 1 -.41 2.15 3 3 0 0 0 -.41 1.53c.1.67-.11 1.39.05 2.09z" fill="#b8b8b8"/><path d="m255.85 33.54c-.82.07-1.07 1-1.81 1.16v-.13a.69.69 0 0 0 .26-1.06.57.57 0 0 1 0-.7.52.52 0 0 1 .57-.17c.31.1.34.33.32.61s.73.28.66.29z" fill="#949494"/><path d="m252 44.12a1.28 1.28 0 0 0 .75.76c.17.27.22.46-.21.41h-.42l-.5-.28-.62-.41c-.17-.13-.44-.27-.26-.52a.87.87 0 0 1 .81-.25.7.7 0 0 1 .45.29z" fill="#7c7c7c"/><path d="m59.79 27.46a15.23 15.23 0 0 1 .87-2.14c.11-.34.26-.67.34-1 .18-.75.44-1 1.2-1.13v.13a1.47 1.47 0 0 0 -1 1.27 9.63 9.63 0 0 1 -1.41 2.87z" fill="#b4b4b4"/><path d="m128.41 20.79c.27.26.37.66.76.81a.25.25 0 0 1 .1.21c0 .15-.18.36.12.37s.34-.22.35-.44a3 3 0 0 0 -.31-1.21 1.76 1.76 0 0 1 .2 2.13c-.18.31-.35.26-.5 0a3 3 0 0 1 -.72-1.87z" fill="#a9a9a9"/><path d="m170.92 39.45c-.35.14-.67.26-1-.17-.16-.23-.54-.16-.82-.22a2 2 0 0 1 -1.5-.74 11.13 11.13 0 0 0 2.26.62 1.48 1.48 0 0 1 1.06.51z" fill="#b9b9b9"/><path d="m128.54 23.81c-.66-.43-1.47-.52-2.11-1a2.37 2.37 0 0 1 -.54-.51c.87.12 1.52.78 2.35 1 .21.05.27.3.3.51z" fill="#bababa"/><path d="m242.81 28.48c-.46 0-.95.33-1.38-.12.34-.14.73-.15 1-.46a.39.39 0 0 1 .64 0c.22.31-.07.45-.26.58z" fill="#8f8f8f"/><path d="m193.37 36.93c.29-.1.56-.3.88-.12-1 .63.54.63 1 .62l.38.13a2.62 2.62 0 0 1 -2.35.18c-.36-.29-.08-.55.09-.81z" fill="#979797"/><path d="m128.8 18.26a1.91 1.91 0 0 1 .12.89c-.72.37-.61 1-.51 1.64-.43-.53-.27-1.18-.37-1.77v-.51c.25-.1.54-.06.76-.25z" fill="#a9a9a9"/><path d="m129.31 24.44a2.14 2.14 0 0 0 -.77-.63 6.61 6.61 0 0 1 2.66 1.12c-.08.16-.2.32-.37.25-.54-.18-1.14-.26-1.52-.74z" fill="#bababa"/><path d="m92.6 6.53c-.43.16-.85.27-1.14-.32.22-.07.69.07.51-.44a1.87 1.87 0 0 1 .63.76z" fill="#bababa"/><path d="m55.77 41.85a.67.67 0 0 1 -.63 0 .51.51 0 0 0 .48-.61 4.42 4.42 0 0 0 -.1-1.1c-.17-.55.18-.3.38-.3a7.58 7.58 0 0 0 -.13 2.01z" fill="#a0a0a0"/><path d="m191.73 63.29a2.6 2.6 0 0 0 0-.88 6 6 0 0 1 0 3.15 8.22 8.22 0 0 1 0-2.27z" fill="#bdbdbd"/><path d="m191.73 63.29v2.27a5.56 5.56 0 0 1 -.13 1.63v-3.19a1.81 1.81 0 0 1 .13-.71z" fill="#a2a2a2"/><path d="m145.57 32.51h-.12a.86.86 0 0 1 -1.15-.75c.7-.18.96.32 1.27.75z" fill="#b4b4b4"/><path d="m338.17 46h-2.52a5.79 5.79 0 0 1 2.52 0z" fill="#a5a5a5"/><path d="m323.54 33.76a2.71 2.71 0 0 1 -1.65.64 6.89 6.89 0 0 1 1.65-.64z" fill="#848484"/><path d="m129.94 12.45h-.13c-.17.2-.38.16-.38-.12a1.63 1.63 0 0 0 0-.76.84.84 0 0 1 .51.88z" fill="#b8b8b8"/><path d="m335.65 46h-2.15a3.84 3.84 0 0 1 2.15 0z" fill="#a5a5a5"/><path d="m129.81 13.47a2.65 2.65 0 0 0 .13-1 4.5 4.5 0 0 1 .12 1.51.25.25 0 0 1 -.35-.11.26.26 0 0 1 .1-.4z" fill="#b8b8b8"/><path d="m6.15 46.46a.59.59 0 0 0 .64.14 3.29 3.29 0 0 1 1.62 0 15.09 15.09 0 0 0 2.67-.26c.62 0 1.21.17 1.82.08a11.85 11.85 0 0 0 2.66-.09c.4-.21 6 0 6.9-.36a2.9 2.9 0 0 1 1.68 0c.2.14 1.2.14 1.37.28a6.58 6.58 0 0 1 -3.13.68c-.24 0 .5 0 .32.13.42.59-5.5 1.39-8.13 1a4.73 4.73 0 0 1 -1.5.1 1.71 1.71 0 0 0 -.5 0 13.67 13.67 0 0 1 -3.78 0c-.75 0-1.43.3-2.17.26-1.08-.05-2.17-.13-3.25-.16a7.46 7.46 0 0 1 -2.31 0c-.41-.14-.78-.24-.68-.79 0-.26-.17-.36-.33-.48a.17.17 0 0 1 0-.19 1.18 1.18 0 0 1 1.18.06 1.83 1.83 0 0 0 1 .23h.1c.22 0 1-.53 1.24-.41s2.31-.46 2.58-.22z" fill="#bababa"/><path d="m142.45 32.11a1.13 1.13 0 0 0 -1.4-.45c-.43.1-.81.39-1.28.35a7.7 7.7 0 0 0 -2 .36 17.7 17.7 0 0 0 -3.14.74 4.52 4.52 0 0 1 -.89.25 11.36 11.36 0 0 0 -4.18 1.69s-.08.17 0 .17a3.13 3.13 0 0 0 1 .06s1-.11 1.2-.15c.31-.08 1.22-.45 1.27-.47l1.41-.57.77-.09c.09 0 1.46.43 1.31.58a1.26 1.26 0 0 1 -.49.21.49.49 0 0 1 -.17.06c-.23.12-.81.31-.84.33 0 .06-2.56.72-2.58.73s-1.22.31-1.55.37l-.48.09-.4.06c-.17 0-7.18.46-7.14.16s.75-1.09 1-1.26c.48-.29 7.76-3.7 8-3.6a2.08 2.08 0 0 0 2.45-.35c.14-.25.19-.57-.17-.53s-2.65-.45-3.39 0c-.22.12-4.28 1.37-4.78 1.65a18.5 18.5 0 0 0 -1.62 1c-1 .72-2.69 2.29-2.65 2.57a1.08 1.08 0 0 0 .35 1.47 68.08 68.08 0 0 0 7.72 1.21c1.09 0 1.86-.83 2.81-1.18.42-.16.85 0 1.28-.31a19.25 19.25 0 0 1 2.38-1.13 1.85 1.85 0 0 0 1.11-1 1.93 1.93 0 0 1 1.8-1.39 1.65 1.65 0 0 0 1.06-.33 3.09 3.09 0 0 1 2.17-1 .2.2 0 0 0 .06-.3z" fill="#bbb"/><path d="m125.14 25.7a5.87 5.87 0 0 0 -1.19.05c-.36.09-.6.14-.76-.26a.22.22 0 0 0 -.36-.11c-.19.15 0 .25.07.35s.18.28 0 .3c-.53.07-1.21.29-1.55 0s0-1 .13-1.45.43-.19.69-.19a3.18 3.18 0 0 0 2.3-.5 3.22 3.22 0 0 0 -.87.13c-.67.14-1.35.4-1.86-.45a1.72 1.72 0 0 0 -1.37-.67 9 9 0 0 0 -4.85 1c-1 .85-1.85 2.85-1.44 3.75a.4.4 0 0 0 .2.22 3.53 3.53 0 0 1 1 .8 1.37 1.37 0 0 0 1.22.36c.48-.09-.09-.62 0-.9a1.26 1.26 0 0 1 .79-.64c.39-.09.35.33.49.53s1.06.67 1.25.47a.74.74 0 0 0 .06-1.06c-.19-.11-.39-.23-.25-.48s.31-.15.5-.06a1.59 1.59 0 0 0 1.21 0 3.14 3.14 0 0 1 1-.37 7.62 7.62 0 0 0 3.1-.57h.13c.16-.11.46.05.36-.25zm-4.14-.78c-.63 1.32-2.93.94-4.07 1.39a8 8 0 0 1 -1.93.86.12.12 0 0 1 -.12-.06.68.68 0 0 1 0-.76 26 26 0 0 1 4.17-2.28 6.38 6.38 0 0 1 1.17 0 1 1 0 0 1 .44.1c.34.11.57.33.34.75z" fill="#b4b4b4"/><path d="m100.79 25.45a.72.72 0 0 1 1-.42 2.72 2.72 0 0 0 1.67 0 1.51 1.51 0 0 1 .62-.09 4 4 0 0 0 2.73-.88 2.16 2.16 0 0 0 .91-1.17.72.72 0 0 0 -.22-.8c-.24-.22-.47-.05-.68.08l-.8.5c-.22.13-.48.25-.19.56.13.15 0 .27-.09.37l-.64.6c-.32.29-.64.52-1 .07a1 1 0 0 1 .11-1.35 1.8 1.8 0 0 1 .35-.12c.12-.11.24.47.34 0s.45-.32.65-.52c.49-.51 1.1-.89 1.61-1.39.33-.33.61 0 .88.15 0-.33-.2-.59-.21-.91.39-.58.94-1 1.36-1.59s.91-1.18 1.3-1.81c.13-.14 0-.5.29-.47s.22.31.25.54a1.87 1.87 0 0 1 -.16.94 5.75 5.75 0 0 1 -1.6 2.57 4.86 4.86 0 0 0 -1.05 2.61c0 .25-.09.5-.13.74a5.45 5.45 0 0 1 -2.38 2.58 14.91 14.91 0 0 1 -4.74.52c-.41-.06-.46-.64-.18-1.31z" fill="#b6b6b6"/><path d="m107.85 20.15c.17-.11.35-.29.56-.14s0 .34 0 .51c0 .36-.07.71-.11 1.07 0 .12 0 .27-.2.29s-.16-.14-.19-.26c-.13-.54-.35-.53-.79-.23-.6.42-1 1.07-1.69 1.37-.24.1-.25.42-.38.63s.23.48-.13.5-.59.1-.76-.16.12-.45.24-.66l.16-.27a17.73 17.73 0 0 1 1.81-1.54c.23-.19.46-.37.33-.73a10 10 0 0 0 -1.64-.38l-.88.25c-.15-.13-.35-.1-.52-.15s-.39-.12-.46-.35.16-.33.28-.46.3-.28.45-.42c.63 0 1.21-.36 1.86-.33a1.29 1.29 0 0 1 1.4 1c.06.19 0 .57.4.49z" fill="#aaa"/><path d="m104 19a1.62 1.62 0 0 1 -.17.32c-.25.3-.31.52.15.67.16 0 .2.25.27.39-.39.35-2.18 1.9-2.27 1.9l-.63.38c-.73 0-.77 0-.63-.6a.67.67 0 0 1 -.88-.16c.68-.61 1.32-1.27 2-1.83a10.81 10.81 0 0 1 2.16-1.07z" fill="#bcbcbc"/><path d="m99.79 21.92c.16 0 .32-.08.49-.1s.51-.38.81-.16-.07.46-.07.7.13.26.28.32l-.5.13c-.1.1-.19.25-.34.25a1.24 1.24 0 0 0 -1.2.77c-.13.25-.5.16-.65-.09a1 1 0 0 1 -.14-.51 1.25 1.25 0 0 1 .94-1.06z" fill="#aeaeae"/><path d="m107.61 20.16c-.18.19-.34.48-.44-.07a1.42 1.42 0 0 0 -2-1.24 4.3 4.3 0 0 1 -1.17.15 5.36 5.36 0 0 1 1.81-.41 1.29 1.29 0 0 1 1.53 1 1.26 1.26 0 0 0 .27.57z" fill="#bcbcbc"/><path d="m134.35 31.38c-.07-.34-.36-.3-.6-.35l-.67-.15a1.08 1.08 0 0 1 1.2-.24c.39.08.32.46.07.74z" fill="#cfcfcf"/><path d="m36.82 46.12a.22.22 0 0 1 -.28.21c-.17 0-.36 0-.41-.24s.1-.21.23-.21a.56.56 0 0 1 .46.24z" fill="#cecece"/><path d="m246.35 39.83h5.14s3.24.3 4.86.45c1.41.12 2.83.21 4.25.31s2.61 0 3.92.06a1.51 1.51 0 0 1 .73.06 32.78 32.78 0 0 0 3.29.12c.35.18.7 0 1 0a9.87 9.87 0 0 1 2.24 0 .44.44 0 0 0 .37 0h1.15c.31.31.28.56-.12.65a5 5 0 0 1 -.87.06 4.11 4.11 0 0 0 -.63.16 10.8 10.8 0 0 0 -1.53.44.35.35 0 0 1 -.37-.2c-.25-.46-.68-.5-1.13-.53a16.2 16.2 0 0 1 -2.51 0c-.23 0-.05.08-.06.12a.65.65 0 0 1 -.76.58h-.94-2.11c-.64-.07-1.24.34-1.87.16-1.34-.37-2.73 0-4.07-.33a2.63 2.63 0 0 0 -1.57 0 .48.48 0 0 1 -.37 0 1 1 0 0 0 -1.1 0c-.22.18-.54-.28-.79 0 0 .35 0 .76-.54.69s-1.15-.37-1.71-.57a9.71 9.71 0 0 0 -1.49-.42c-1-.22-2-.82-3.14-.66a.25.25 0 0 1 -.24 0c-.4-.54-1-.47-1.57-.54a.74.74 0 0 1 -.4-.16.31.31 0 0 1 -.14-.37c.05-.14.17-.15.3-.15.96-.12 1.87.01 2.78.07z" fill="#7f7f7f"/><path d="m264.5 41.6h1.2c-.12-.29-.46-.15-.58-.38.16-.2.38-.12.58-.12h2.27a2.66 2.66 0 0 1 2.18.56.33.33 0 0 0 .45.07c.16-.24-.4-.29-.15-.5a.51.51 0 0 1 .7.05c.23.22.35.14.61 0a3.66 3.66 0 0 1 1.17-.12c.21 0 .45 0 .41-.33 1.87-.16 3.73 0 5.6 0 3.5-.09 7-.2 10.49-.27a13.16 13.16 0 0 1 2.58.16c.38.37 0 .43-.23.46a11.64 11.64 0 0 1 -1.18 0 1.72 1.72 0 0 0 -.74.12s0 .07 0 .11c-.42.5-1 .37-1.56.45a27.35 27.35 0 0 0 -3.59.47 5.74 5.74 0 0 1 -3.05 0 15.82 15.82 0 0 0 -3.66-.33 17.34 17.34 0 0 1 -3.14-.13 1.5 1.5 0 0 0 -1.15.21 1.26 1.26 0 0 1 -.78.19c-.46 0-.92 0-1.38 0a57.9 57.9 0 0 1 -6.55-.27c-.26 0-.63.06-.5-.4z" fill="#8c8c8c"/><path d="m280.9 33.64a11.2 11.2 0 0 0 2-1.28c.56-.47 1.08-.31 1.31.39a.64.64 0 0 0 .54.47c.25.06.6 0 .65.36s-.24.57-.5.75a1.73 1.73 0 0 1 -.46.2c-.07.26-.17.46-.5.4a.86.86 0 0 0 -.52.11 7.86 7.86 0 0 1 -2.27 1.37c-.14-.23-.27-.12-.47 0-.4.17-.77.41-1.18.58-.21.09-.42.21-.63 0-.16-.37.12-.5.36-.67a15.35 15.35 0 0 1 1.84-1 2 2 0 0 0 .89-.72c-.13-.85-1.79.72-2 .63-.31-.39-.25-.52.31-.83.34-.17.78-.24.63-.76z" fill="#727272"/><path d="m284.79 34.7c1.09.39 1.25.68.86 1.78a5.24 5.24 0 0 1 -2.26 2.85l-1.24.75a4.83 4.83 0 0 1 -.84.18.26.26 0 0 1 -.3-.17c-.06-.18.11-.17.22-.21a4.24 4.24 0 0 0 .81-.44 6.26 6.26 0 0 0 2.28-2.76c.28-.48-.1-.28-.36-.35-.08.24-.62 1-.24-.84.01-.23.95-.83 1.07-.79z" fill="#848484"/><path d="m279 36.8 2.35-.93c.11.32-.12.39-.2.54a4.41 4.41 0 0 0 -1.73 1.22c-.37.43-1 .32-1.45.52-.89.37-1.83.63-2.74.93a2.29 2.29 0 0 1 -1.63.2c-.36-.12-.56.2-.39.59.07.17.28.3 0 .45-1-.14-1.31-.54-1-1.38a2 2 0 0 1 1.22-.35 6.34 6.34 0 0 0 1.94-.4 13.63 13.63 0 0 0 2.85-1.25c.27.06.45-.5.78-.14z" fill="#696969"/><path d="m280.9 33.64c.24.06.62-.21.71.12s-.29.42-.51.57-.83.3-1.07.71c.23.42-3.31 2.6-3.49 2.36s0-.41.16-.53a33 33 0 0 0 2.81-2.48c.25-.26.67-.32 1-.5z" fill="#656565"/><g fill="#8c8c8c"><path d="m282 39.44c-.19.29-.54.37-.91.64h1a4.93 4.93 0 0 1 -2.35.22c-.1 0-.22 0-.19-.19s.15-.14.25-.14a4.48 4.48 0 0 0 2.2-.53z"/><path d="m265.25 40.71h-3.84a1.86 1.86 0 0 1 -.81-.12h4z"/><path d="m271.82 40.84a16 16 0 0 0 -2.49.1 1.21 1.21 0 0 1 -.79-.11 10.61 10.61 0 0 1 3.28.01z"/><path d="m273.34 40.83a1.63 1.63 0 0 1 -1.15 0 1.53 1.53 0 0 1 1.15 0z"/></g><path d="m151.5 34.53c2.05.14 3.88 1.06 5.8 1.64a7.62 7.62 0 0 1 1.14.38c-.16.45-.64.35-1 .53a1.19 1.19 0 0 0 -.29.21l-.14-.1a10.12 10.12 0 0 1 -1.31-.56c-.07 0-.16-.11-.22-.1-.64.2-1.15-.17-1.72-.33a1.55 1.55 0 0 0 -1-.06.65.65 0 0 1 -.75-.46.72.72 0 0 0 -.46-.65c-.21-.11-.2-.28-.05-.5z" fill="#9d9d9d"/><path d="m150.62 35.67-.13-.13a9.51 9.51 0 0 1 -1.76-.38c-.51-.46-1.29-.37-1.77-.88a35.74 35.74 0 0 1 -4.42-1.77.34.34 0 0 1 .21-.31.78.78 0 0 1 .83 0 7.76 7.76 0 0 0 2.88 1.12 14.55 14.55 0 0 1 2.15 1.18 1.94 1.94 0 0 0 1.46.3c.14 0 .28.05.42.07a.54.54 0 0 1 .29.17c0 .23.32.53-.16.63z" fill="#bbb"/><path d="m188.58 40.51c-.15.11-.36.21-.25.43s.29.07.45 0a.26.26 0 0 1 .32.12c.12.06.09.19.16.28.07.71-.32 1.06-.93.86.29-.5 0-.74-.43-.87-.28-.09-4.46-.66-4.75-.72s-.18 0-.13-.24-.16-.25 0-.26c.72-.01 5.98-.11 5.56.4z" fill="#bdbdbd"/><path d="m188.33 42.22a.74.74 0 0 0 .63-.87c.1-.08.23-.08.25 0a4.15 4.15 0 0 1 .13 1.85c-.54-.25-1 .19-1.65.16.65-.39-.07-.6 0-.91z" fill="#b4b4b4"/><path d="m189.66 42-.1-.19h-.12a.13.13 0 0 1 0-.26c0-.18.69-.47.75-.24 2-.14 1.71-1.42.66-1.35a.47.47 0 0 1 -.26.2.12.12 0 0 1 -.1.15h-.08c0 .07-.07.16-.16.12h-.12l-.23.06a.86.86 0 0 1 -.27-.05c-.1 0-.33-.36-.33-.42 0-.38-.1-.84.14-1.13-.09-.05-.1-.2 0-.23a1.51 1.51 0 0 1 .28 0 .57.57 0 0 1 .15 0 .15.15 0 0 1 .14.17 3.76 3.76 0 0 0 .4-.13.14.14 0 0 1 .18.14.51.51 0 0 1 0 .13s0 0 0 .06a.39.39 0 0 0 .32-.24.57.57 0 0 0 0-.18c-.32-.39-.71-.22-1.1-.18-.63.06-1 .56-1.58.73v.51c.23.3.62.62-.12.76-.11.66-.11.66.75 1l.13.13c.09.19.19.43.07.59-.44.58-.09.93.31 1.29.11.28 0 .63.39.83-.17-.91.24-1.6-.1-2.27z" fill="#a3a3a3"/><path d="m190.85 57c-.13-.1-.3-.22-.24-.4.27-.8-.07-1.58 0-2.37a31 31 0 0 1 -.34-4.61c0-.16 0-.39.17-.4s.24.21.27.37c.14.9.3 1.81.4 2.73a18.31 18.31 0 0 1 .38 3 .33.33 0 0 0 -.49.35c0 .46-.14.88-.15 1.33z" fill="#a2a2a2"/><path d="m192.37 42.24a39.13 39.13 0 0 0 5.08.07c.2 0 .5 0 .51.25s-.33.28-.5.24c-.93-.2-1.84.2-2.8.08a7.05 7.05 0 0 0 -2.27.33c-.61.14-.89-.24-1.18-.61-.16-.2 0-.3.22-.32z" fill="#a3a3a3"/><path d="m146.32 33.65a6.63 6.63 0 0 1 -2.86-1.12 1.25 1.25 0 0 0 -.66-.14 1.51 1.51 0 0 0 -1.49-.36.66.66 0 0 1 -.73-.47.67.67 0 0 0 -.43-.45c-1-.38-1.84-.87-2.83-1.18a5.47 5.47 0 0 1 -1.6-.9 8.16 8.16 0 0 0 -2.85-1.4c-.22-.06-.34-.31-.54-.41l-.27-.25a1.42 1.42 0 0 0 -1.26-.71c-.49 0-1-.55-1.51-.59a1.83 1.83 0 0 1 -1.4-.87.85.85 0 0 0 -.69-.36 1.48 1.48 0 0 1 -.8-.25 2.29 2.29 0 0 0 -.3-1 10.9 10.9 0 0 1 3.2 1.22c.7-.12 1.22.47 1.88.51a1.71 1.71 0 0 0 .79.76c.92.53 1.79 1.15 2.73 1.63.59.31 1.18.6 1.78.89.47.5 1.15.54 1.74.8h.24c.9.9 2.3.92 3.19 1.86.71.74 1.74.61 2.64.84.35.31.84.39 1.15.75 1.05.34 1.93 1.18 3.14 1.06.15 0 .21.1.28.21a1.24 1.24 0 0 0 1.37.49h.25c.29 0 .42.43.76.25h.25c.25.2.49.4.75.57s.28.3 0 .45c-.55-.17-1.16 0-1.65-.38h-.24a10.33 10.33 0 0 1 -2-.68 7.76 7.76 0 0 0 -2.03-.77z" fill="#969696"/><path d="m125.16 24.49c-.2.24.18.79-.46.82-.12 0-.32.06-.32-.07 0-.43.33-.74.47-1.12a.14.14 0 0 1 .21-.06c.15.1.09.26.1.43z" fill="#888"/><path d="m96.76 12.21c.43-.1.64-.31.38-.76l.24.07a.63.63 0 0 1 .46.72c-.08.27-.43.07-.66.07a1.29 1.29 0 0 1 -.42-.1z" fill="#bababa"/><path d="m93.73 12.09a5.26 5.26 0 0 1 1.77 0c.1 0 .1.07 0 .11-.58-.07-1.19.18-1.77-.11z" fill="#ababab"/><path d="m95.51 12.19a.37.37 0 0 1 0-.11 1 1 0 0 1 1.26.13z" fill="#bababa"/><path d="m124.89 26 .25-.25.25-1c-.08.4.24 1.01-.5 1.25z" fill="#bebebe"/><path d="m116.18 16.5-.92-.21c-.2-.05-.45 0-.3-.42.08-.21-.25-.38-.47-.42-.75-.13-1.45-.71-2.28-.19a.47.47 0 0 1 -.66-.31c-.19-.57-.71-.74-1.14-1a.3.3 0 0 0 -.23-.08 3.27 3.27 0 0 1 -2.5-.59c-.31-.16-.69.07-.92-.1a3.26 3.26 0 0 0 -2.51-.38 1.31 1.31 0 0 1 -.43-.08c-.57-.16-1-.46-1.74-.07-.54.3-1.31 0-2-.08a1.21 1.21 0 0 0 -.18 0 3 3 0 0 1 -2.2-1.25 16.47 16.47 0 0 0 -3.44-3.18 4.57 4.57 0 0 1 -1.56-1.4 2.92 2.92 0 0 1 .5.26c1.18 1 2.48 1.78 3.57 2.87a12.5 12.5 0 0 1 1.47 1.44c.79 1.09 1.92 1.08 3.06 1a26.93 26.93 0 0 1 3 0c1.6 0 3 .67 4.5.9.89.14 1.06-.08.81-.92-.2-.68-.3-1.38-.53-2-.18-.5-.41-.82-1-.84a9.94 9.94 0 0 1 -2.52-1.39c-.17-.15-.33-.38-.53-.44-.94-.27-1.22-1.15-1.73-1.82a.59.59 0 0 1 .22-.2c.5-.19.51-.44.16-.82-.15-.17-.33-.39-.19-.66s.29-.09.44-.09a.89.89 0 0 0 1 .57c.33 0 .72-.17.7.51 0 .35.4.76.7 1.07a8.15 8.15 0 0 0 1.08.86.37.37 0 0 0 .28.08c.12 0 .08-.18.06-.28a4 4 0 0 1 0-2 1.07 1.07 0 0 0 -.75-1.47c-.58-.26-1-.69-1.78-.48-.49.13-1.08-.68-1-1.24a3.71 3.71 0 0 1 .12-.93.93.93 0 0 1 1.45-.54 7.6 7.6 0 0 1 1.41 1.05 1.11 1.11 0 0 0 .41.28 2.65 2.65 0 0 1 1.64 1.49 1.76 1.76 0 0 0 .48.57 3 3 0 0 1 1.18 3c0 .52-.08 1-.13 1.56a.88.88 0 0 1 -.14.48c-.6.54-.44 1.14-.28 1.82a19.3 19.3 0 0 1 .34 2.63.86.86 0 0 0 .61.84 23.83 23.83 0 0 0 3 1.15c.77.19 1.27.95 1.87 1.45zm-6.93-12.19c-1.31.57-1 3.45.55 3 .63-.13-.09-3.2-.55-3z" fill="#bababa"/><path d="m231.59 39.83a25.21 25.21 0 0 1 -3.25-.2 4.63 4.63 0 0 0 -1.62.07c-.06 0-.13.06-.19 0-1-.33-2.11 0-3.17-.2a6.22 6.22 0 0 1 -1.73-.45c-.5-.22-1.07 0-1.61 0-.21 0-.43.09-.62 0-1-.6-2-.26-3-.3a5.83 5.83 0 0 1 -2.28-.34 3.55 3.55 0 0 0 -1.61-.13 15.6 15.6 0 0 0 -3.61.25 34.43 34.43 0 0 0 -3.66-.25c-.52-.27-1.12 0-1.64-.25-.11-.1-.37 0-.33-.3s.23-.2.39-.16c.66.17 1.3-.27 2 0a32.54 32.54 0 0 1 4.63.18 6.48 6.48 0 0 0 1.17-.18.42.42 0 0 0 .36 0 2.59 2.59 0 0 1 1.51 0 .85.85 0 0 0 .7 0 .61.61 0 0 1 .68.06.63.63 0 0 0 .66 0c2.13.36 4.3.32 6.43.64a3.09 3.09 0 0 0 1.21-.06 3.17 3.17 0 0 1 2.1.12 1.75 1.75 0 0 0 .86.13c2-.08 4 .09 6.07.11a.57.57 0 0 1 .36.07c2.19.15 4.38.3 6.57.43s4.46.38 6.69.57a1.91 1.91 0 0 1 .74.14h-2.67c0 .2.19.16.32.17.56 0 1.14 0 1.51.55.09.15.3.14.47.12a6.13 6.13 0 0 1 3 .56c-.37.5-.82.15-1.21.07a6.66 6.66 0 0 0 -.89-.17 8.13 8.13 0 0 1 -1.93-.08c-.26-.08-.48.13-.73.13-.84-.37-1.81-.05-2.63-.51 0 0-.05 0-.06 0-.81.34-1.55-.16-2.32-.21-.56 0-1.05.21-1.6.19-1.1-.05-2.14-.43-3.23-.44a15.41 15.41 0 0 0 -2-.11 1.27 1.27 0 0 1 -.84-.22z" fill="#8a8a8a"/><path d="m196.44 37.75c-.14 0-.29 0-.42-.07l-.38-.12c-.54 0-1.07.14-1.62 0s-.64-.26-.65-.68a5.73 5.73 0 0 1 -2.76.19 3.85 3.85 0 0 0 -.68 0c-.28 0-.42.09-.31.43s-.08.65-.54.49c-.27-.1-.51-.21-.74 0a2.33 2.33 0 0 0 -.13.87l.24.19c.51.45.52.46.7-.21a.59.59 0 0 1 .31-.37.54.54 0 0 1 .26-.09h1c.08 0 .17-.08.24-.06.93.19 1.8-.71 2.75-.12.12.08.36 0 .55-.07a4.31 4.31 0 0 0 2.14.13c.31.1.58 0 .6-.3s-.34-.19-.56-.21z" fill="#858585"/><path d="m232.35 38.69c-2.47 0-4.94-.13-7.42-.15a21.25 21.25 0 0 1 -3.18-.22c.44 0 .89.06 1.08-.51.09-.28.39-.17.61-.19l3-.32c.49 0 .9-.36 1.41-.33.23 0 .34-.27.48-.44s.43-.36.63 0c-.15.27-.22.48.23.41l.9-.16q.12.06 0 .12a29.34 29.34 0 0 1 -4.78 1.21.73.73 0 0 0 .74.3c1.9 0 3.81 0 5.72.11a1.14 1.14 0 0 1 .58.17z" fill="#979797"/><path d="m196.4 38.32c.14-.07.34-.1.34-.3s-.23-.17-.37-.22l-.35-.12c2.39 0 4.78 0 7.16-.14a7.34 7.34 0 0 1 2.43 0l-1.78.13c-.24 0-.43.08-.24.38-1.07.57-2.18 0-3.27.15s-2.34 0-3.5.17a1.6 1.6 0 0 1 -.42-.05z" fill="#979797"/><path d="m88.31 13.47c-.45.46-1.09.44-1.64.63a3.38 3.38 0 0 1 1.64-.63z" fill="#bfbfbf"/><path d="m336.64 29.32a1.47 1.47 0 0 1 1.88-.42.43.43 0 0 1 .22.36 2.11 2.11 0 0 1 -.8 1.76 1.3 1.3 0 0 1 -1.56-.13 1.44 1.44 0 0 1 .55-.08 1.09 1.09 0 0 0 .89-.61c.11-.25.2-.53 0-.75s-.46-.12-.7 0-.45.42-.48-.13z" fill="#656565"/><path d="m236.64 48a.83.83 0 0 1 -.67-.5 3.28 3.28 0 0 0 -.85-1.14c-.44-.23-.72-.66-1.16-.9a15.39 15.39 0 0 0 -1.48-1.56.35.35 0 0 1 -.06-.18c.27-.54.69-.35 1-.11a3.26 3.26 0 0 1 1.12 1.21c.19-.09.3-.47.37-.37.42.86 1.19 2 1.6 2.84a.89.89 0 0 1 .13.71z" fill="#a0a0a0"/><path d="m250.52 44.49c-.48-.51-.69-1.23-1.29-1.67-.24-.17-.1-.4.21-.46a1.13 1.13 0 0 1 1.41.86c.14.48.56.51.92.65.12 0 .22 0 .24.14s0 .07 0 .11c-.4 0-1-.4-1 .48z" fill="#939393"/><path d="m129.81 13.47a.76.76 0 0 0 .19.53 14 14 0 0 1 -.74 2.12 5.3 5.3 0 0 0 -.5 2.16c0 .22 0 .48-.28.55s-.35-.14-.48-.3a1.3 1.3 0 0 1 -.39-1.48 1 1 0 0 1 .07-.15c.63 0 .76-.55.94-1 .38-.17.62-.36.11-.67a.79.79 0 0 1 -.32-.38c-.06-.14-.1-.3 0-.4s.21.08.28.18c.25.31.34.08.4-.14s.2-.72.3-1.08c0-.11.08-.27.24-.19s.14.15.18.25z" fill="#9b9b9b"/><path d="m128.66 15.87c.36.93.12 1.25-.86 1.12-.22-.21-.13-.53-.31-.77s.39-.54.65-.49a1.47 1.47 0 0 1 .4.14z" fill="#7d7d7d"/><path d="m128.54 15.87c-.79 0-.67.62-.74 1.12-.36.07-.07-.32-.26-.37l-.5-.51c.5-.73 1.15-.83 1.5-.24z" fill="#9b9b9b"/><path d="m191.49 39.91c.36.69.07.69-.62.55 0 .09-1.8-3.91-2.7-4.35-.12-.26-.14-.58-.47-.7a2.22 2.22 0 0 0 -1.1-1.82c-.22-.15-.09-.26.05-.33a.74.74 0 0 1 .77.07c.3.21 3.77 6.39 4.07 6.58z" fill="#989898"/><path d="m187.44 26.46v.12c-.08.17-.12.39-.37.34s-.23-.23-.29-.38a1 1 0 0 1 .35-1.21z" fill="#959595"/><path d="m315.48 37.44h-.64a13.61 13.61 0 0 1 3.54-.33c-.46-.42-.23-.59.15-.74a2.27 2.27 0 0 1 .85-.18l-.17.09c-.24.1-.58.17-.56.5s.37.3.59.4a6.52 6.52 0 0 1 1.38.61.93.93 0 0 0 .9 0 3.31 3.31 0 0 1 3.17.77 1.3 1.3 0 0 1 .46 1.47c-.16.55-.63.56-1.09.68a7.09 7.09 0 0 1 -3.45-.38c-.7-.16-1.17-.81-1.86-1-.61-.62-.62-.71-.13-1.12.09-.1.3-.1.29-.29s-.21-.14-.32-.19a8.43 8.43 0 0 0 -1.36-.4 17.17 17.17 0 0 0 -1.75.11zm4.18 1c-.22.39 0 .55.28.71a4 4 0 0 0 3.2.78.61.61 0 0 0 .57-.61.65.65 0 0 0 -.51-.68 1.73 1.73 0 0 0 -1.11-.12 2 2 0 0 1 -1.7-.15c-.26-.1-.5-.28-.73.1z" fill="#7f7f7f"/><path d="m257.18 42.74a3.54 3.54 0 0 0 -1.68-.05c-.2.07-.46.13-.48.36s.26.28.44.37a6.69 6.69 0 0 0 2.62.82c-.51.25-1 0-1.51 0-.3 0-.59-.07-.75.26-.44 0-.29-.73-.78-.73-.31.23-3.18-.78-3-1.27v-.12c.33-.31-.08-.52-.12-.77a1.1 1.1 0 0 1 1.23.37 12.68 12.68 0 0 0 1 .76c.11 0 .26.08.3 0 .87-1 1.9-.46 2.88-.32a3 3 0 0 1 .47.17 1.29 1.29 0 0 0 -.62.15z" fill="#929292"/><path d="m228.94 36.55c.09-.19.17-.42.39-.46.77-.12 1.43-.67 2.26-.55-.92.24-1.71.83-2.65 1.01z" fill="#979797"/><path d="m65.22 22.55c-.24 0-.35.78-.7.15-.11-.2-.27-.58.1-.69s.54.19.6.53z" fill="#a7a7a7"/><path d="m64.84 21.67c-.06-.9 0-.91.63-.75.02.44-.06.8-.63.75z" fill="#8c8c8c"/><path d="m304.27 42.6a2.47 2.47 0 0 1 1.14.8c.19.4.06.67-.39.7s-1.07.18-1.45-.11c.33-.21 1.68-.6.7-1.39z" fill="#7e7e7e"/><path d="m151.25 34.53c-.4.36-.55 0-.76-.25.33-.16.51.11.76.25z" fill="#9d9d9d"/><path d="m158.44 36.55a1.74 1.74 0 0 1 -1.14-.38 1.41 1.41 0 0 1 1.14.38z" fill="#a6a6a6"/><path d="m127.53 16.63.26.37c.11.12.26.21.15.42a.33.33 0 0 0 .12.48c.44.23.11.41 0 .61-.1 0-.21 0-.31.06-.7.19-.47.1-.68-.48-.3-.77.61-.9.46-1.46z" fill="#a9a9a9"/><path d="m132.33 27.22a11.8 11.8 0 0 0 1.95.81 9.28 9.28 0 0 1 2.06 1.25 3.82 3.82 0 0 0 1.18.5 7.71 7.71 0 0 1 2.69 1.16c.71.43 1.21 1.19 2.19 1.08.17 0 .3.2.4.37l-.26.12-.12-.12c-.54-.63-1.23-.24-1.85-.26-.28 0-.57.17-.8-.12.65-.47.65-.5-.09-.84-1.17-.55-2.36-1.07-3.51-1.65a17.11 17.11 0 0 0 -1.91-1.21c-.39-.14-.77-.32-1.15-.48a1.62 1.62 0 0 1 -.78-.61z" fill="#b1b1b1"/><path d="m147 34.28a3.54 3.54 0 0 1 1.77.88c-.62-.31-1.47-.1-1.77-.88z" fill="#cacaca"/><path d="m123.5 28.61c-.57 0-1.81 1.53-2.06 1.61s-.54.42-.93.59a5.51 5.51 0 0 1 -2.64.71 6.9 6.9 0 0 1 -.74.19 7.83 7.83 0 0 0 -1.58.17 13.7 13.7 0 0 1 -1.66.19c-.88-.36-.61-1.51.86-2.26.25.79.39.85 1.2.72a17.64 17.64 0 0 0 3.65-.87 6.3 6.3 0 0 0 3.15-2.31c.11-.27.39-.33.6-.44.36-.19.59-.05.59.34a4.28 4.28 0 0 0 .06.75 1.52 1.52 0 0 1 -.5.61z" fill="#a9a9a9"/><path d="m124 28c-.42-.91-.42-.91-1.26-.62.39-.81.39-.8-.51-.77a2.77 2.77 0 0 0 -1.1.22 3.5 3.5 0 0 1 -1.59.3c-.22 0-.53 0-.34.37a.61.61 0 0 1 -.23-1c.18-.11.32 0 .43.16.37.44.8.3 1.26.18a9 9 0 0 1 4.09-.84.72.72 0 0 0 -.44.78c.03.39-.31.75-.31 1.22z" fill="#bebebe"/><path d="m126.4 24.19a2.33 2.33 0 0 1 1.77.41c.06.06.2.08.21.13.07.76.75.67 1.21.82a5.19 5.19 0 0 0 1.86.63c.37 0 .49.46.61.79a9.22 9.22 0 0 0 -2.63-1 3.36 3.36 0 0 1 -1.78-1c-.31-.4-.96-.31-1.25-.78z" fill="#b4b4b4"/><path d="m89.18 18.36c.36.12.87.39.56.68a12.35 12.35 0 0 1 -1.43 1.11 13.65 13.65 0 0 0 -1.26.89c-.1.17-.09.46-.33.49s-.37-.26-.45-.45a3.41 3.41 0 0 1 0-3.29 2 2 0 0 1 1.29-.79 2.31 2.31 0 0 1 .86-.13 2.42 2.42 0 0 0 2.46-1.65c.17-.35.38-.69.58-1 .24-.18.52-.35.79-.15s.09 1 .09 1a2.52 2.52 0 0 1 -.75 1.26c-.74.49-.51.63-.34 1.09a1.81 1.81 0 0 1 -.16.17 10 10 0 0 0 -.92 1c-.3.5-.58.54-1 .16-.14-.12-.49-.3 0-.44.16 0 .21-.19.14-.36a1.77 1.77 0 0 0 -1.61-.46.8.8 0 0 0 -.66 1c0 .42.09.37.09.56s.17.36.4.18.63-.13.77-.32.7-.73.88-.55z" fill="#a7a7a7"/><path d="m77.34 23.68c-.06.31-.1.63-.18.93s-.24.46-.54.4-.28-.31-.22-.55a13.11 13.11 0 0 0 0-1.88 9.84 9.84 0 0 1 .14-1.09 4.17 4.17 0 0 0 -.2-1.49 3.45 3.45 0 0 1 0-1.24c.09-.53.41-1 .08-1.62-.12-.19.05-.44.2-.63.38-.24.61-.06.7.3a3.54 3.54 0 0 1 .14 2.71c-.14.26.16.62-.08.91a3.36 3.36 0 0 1 0 2c-.13.35.1.81-.04 1.25z" fill="#aaa"/><path d="m73 19.16a1 1 0 0 1 .89.57c.38.72.75 1.45 1.12 2.18a1 1 0 0 1 -.33 1.33.33.33 0 0 1 -.35.08.25.25 0 0 1 -.15-.31 3.19 3.19 0 0 0 -1.07-2.63 2.58 2.58 0 0 1 -.46-.67c-.22-.41 0-.53.35-.55z" fill="#b4b4b4"/><path d="m98.4 23.56.25-.38c.13.52.4.59.69.14.18-.28.36-.51.63-.54s1.07 0 1.33-.1c-.08.29-.83.46-1.08.53a.94.94 0 0 0 -.65 1.22c0 .13.35.24.11.39s-.47.24-.7 0c-.38-.31-.85-.62-.58-1.26z" fill="#bfbfbf"/><path d="m105.08 20.15a2.22 2.22 0 0 1 1.64.38c-.54-.15-1.17.08-1.64-.38z" fill="#bcbcbc"/><path d="m289.86 41.34a5.06 5.06 0 0 1 -1.64.25c.5-.38 1.09-.21 1.64-.25z" fill="#9f9f9f"/><path d="m150.61 35.17a5.58 5.58 0 0 1 1.65.38 1.31 1.31 0 0 1 -.68 0c-.4-.14-.62 0-.75.41-.05.15 0 .46-.31.34s-.05-.31 0-.47l.08-.17a.78.78 0 0 0 .01-.49z" fill="#9d9d9d"/><path d="m146.32 33.65a3.15 3.15 0 0 1 1.81.56.85.85 0 0 0 .45.21 3.26 3.26 0 0 1 1.79.75 2 2 0 0 1 -1.46-.24 22.25 22.25 0 0 0 -2.59-1.28z" fill="#9d9d9d"/><path d="m188.08 40.21c.11.44.59.61.75 1-1.02.13-1.13-.02-.75-1z" fill="#b4b4b4"/><path d="m233.23 43.1c.55.56 1.47 1.16 1.77 1.52a.71.71 0 0 0 .07.66c.08.09.17.23 0 .32s-.24 0-.32-.11c-.45-.47-.9-.93-1.34-1.41a1 1 0 0 0 -.84-.35c-.19.06-.29-.09-.4-.19s-.21-.22-.34-.2c-.62.09-1.25-.07-2 0a8 8 0 0 0 3.17 3.3 6.24 6.24 0 0 1 1.28 1.12c.11.16.34.36.13.55s-.38 0-.56-.15a51.17 51.17 0 0 1 -6.14-5c-.08-.12-.15-.3-.3-.29-.46 0-.48-.31-.59-.59a10.89 10.89 0 0 0 -2.31-1.77 2.92 2.92 0 0 1 1.7.51 3.25 3.25 0 0 0 2.37.78 12.94 12.94 0 0 1 2.66.48 7.24 7.24 0 0 1 1.14.13c.35.1.72.25.85.69z" fill="#898989"/><path d="m227.12 43.41a15.27 15.27 0 0 0 2.65 3.24 9.64 9.64 0 0 0 2.34 1.76c-.38.3-.69.1-1 0a14 14 0 0 1 -2.93-1.9c-.49-.39-.95-.82-1.42-1.23-.27-.37-.57-.72-.81-1.11-.36-2.04 1.05-.91 1.17-.76z" fill="#8b8b8b"/></svg>