<svg viewBox="0 0 20.79 11.74" xmlns="http://www.w3.org/2000/svg"><path d="m10.1.57c.08 0 .16-.08.25 0a.46.46 0 0 1 .17.47c0 .26-.2.38-.37.51a10.78 10.78 0 0 0 -2.71 3.14 1.54 1.54 0 0 0 -.28 1.2.39.39 0 0 1 -.46.5.78.78 0 0 1 -.22-1.09.53.53 0 0 0 -.08-.75c0-.15.13-.18.21-.26l.39-.71a3.48 3.48 0 0 1 1.56-1.8c.3-.67.96-.89 1.54-1.21z" fill="#757575"/><path d="m12.53 8.76c-.13.52-.74.51-1 .91-.92.06-1.81.58-2.76.14a1.44 1.44 0 0 1 -1.25-.37c-.21-.22-.32-.5-.51-.73a.49.49 0 0 1 .06-.17c.26-.12.57-.09.79-.31a.44.44 0 0 1 .39.07 2.28 2.28 0 0 0 1.91.49 3.07 3.07 0 0 0 1.15-.27c.16-.11.3 0 .45 0 .21.2.44.13.67.07a.2.2 0 0 1 .1.17z" fill="#676767"/><path d="m10.34.94v-.38l.23-.13c.08-.15.25-.2.35-.32.45 0 .8.27 1.23.31.2 0 .39.11.59 0a2.32 2.32 0 0 1 1.26 1.68.31.31 0 0 1 -.1.49c-.28.15-.47 0-.62-.24a.76.76 0 0 0 -.35-.35c-.13-.12-.14-.35-.38-.35a.33.33 0 0 0 -.24 0c-.91.47-1.4-.23-1.97-.71z" fill="#5a5a5a"/><path d="m14.42 5.48c-.12 1.39-1.2 2.22-1.89 3.28-.15-.1-.36 0-.48-.14a.55.55 0 0 1 .2-.58 9.06 9.06 0 0 0 .73-1.13 1 1 0 0 0 .44-.77c.25-.14.22-.48.45-.64s.26-.19.31-.38.18-.26.35-.09a.79.79 0 0 1 -.11.45z" fill="#616161"/><path d="m14.42 5.48v-.48c-.17-.14-.41-.13-.57-.28a.29.29 0 0 1 -.08-.27 2.13 2.13 0 0 0 -.08-1.45c.19-.62.23-.63.64-.22.08.09.15.19.22.28a3.15 3.15 0 0 1 -.13 2.42z" fill="#666"/><path d="m.62 10.77a.7.7 0 0 0 .24.36c.08.27-.09.29-.29.28a2.87 2.87 0 0 1 -.43-.28 2.35 2.35 0 0 1 .35-2.19.5.5 0 0 1 .51.23.55.55 0 0 1 -.16.6c-.4.29-.33.63-.25 1z" fill="#757575"/><path d="m20.55 7.66-.21.34c-.22.42-.55.77-.76 1.19-.11 0-.16.17-.22.26s-.17.2-.3.14-.13-.22-.1-.35a.89.89 0 0 1 .28-.52l.23-.36c.09-.44.55-.72.48-1.23 0-.1.17-.14.29-.15.4.1.37.38.31.68z" fill="#616161"/><path d="m19.84 6.69c.21-.23.32-.58.7-.6a1.4 1.4 0 0 1 0 1.57.94.94 0 0 0 -.4-.52c-.24-.05-.47-.14-.3-.45z" fill="#818181"/><path d="m.5 11.26.36-.13a4.31 4.31 0 0 0 2.52.12c-.12.08.23.07.12.12a9 9 0 0 1 -2.4.37c-.1-.23-.69.04-.6-.48z" fill="#8a8a8a"/><path d="m12.75.43c-.15.39-.48.26-.75.21a10.6 10.6 0 0 1 -1.06-.31c0-.13 0-.27.15-.27.39 0 .79-.18 1.17.05z" fill="#494949"/><path d="m19.09 9.2c.16.37.33 0 .49 0l-.7 1.09c-.18 0-.34.32-.52.11s.05-.32.16-.46c.22-.22.14-.69.57-.74z" fill="#6f6f6f"/><path d="m18.28 10.79a.54.54 0 0 1 -.27.44c-.17.1-.38.23-.53 0s.11-.28.22-.4l.34-.33c.32-.12.32.05.24.29z" fill="#707070"/><path d="m.87 9.21c-.33.2-.33-.06-.38-.27l.51-.81c.3-.13.37 0 .26.26v.12c-.26.19.02.61-.39.7z" fill="#717171"/><path d="m14.55 3.09c-.2 0-.42-.64-.61 0-.6-.15-.8-.62-.46-1.09.13.2.23.57.48.09.2.34.4.67.59 1z" fill="#666"/><path d="m4.69 11.12h-.23c-.4-.07-.7.37-1.18.24.3-.46.79-.36 1.17-.5.11 0 .25 0 .27.14z" fill="#868686"/><path d="m1.24 8.39-.24-.26.48-.6c.27-.14.38-.06.32.24a.88.88 0 0 1 -.21.36l-.23.28z" fill="#878787"/><path d="m4.72 11-.27-.14a1 1 0 0 1 .87-.36z" fill="#808080"/><path d="m18.28 10.79-.28-.25a1.71 1.71 0 0 1 .48-.59c-.11.36.09.39.36.35z" fill="#848484"/><path d="m19.58 9.21a2.68 2.68 0 0 1 .76-1.21 2.68 2.68 0 0 1 -.76 1.21z" fill="#6f6f6f"/><path d="m6.74 6.21a2.15 2.15 0 0 0 .48 1.44 1.23 1.23 0 0 1 .25.6.33.33 0 0 1 -.23.35c-.38-.29-.42-.83-.81-1.11a4.3 4.3 0 0 1 .12-3c.34 0 .42.25.3.48a1.84 1.84 0 0 0 -.11 1.24z" fill="#686868"/><path d="m7.24 8.6-.24-.6c.26 0 .33.19.47.29l.35.25c-.14.32-.37.12-.58.06z" fill="#575757"/><path d="m11.78 8.73.22-.25a.08.08 0 0 1 .11 0c.2 0 .39-.06.38.24-.24.13-.49.55-.71.01z" fill="#545454"/><path d="m13.93 5.1.07-.43c.28-.06.34.13.38.34a1.75 1.75 0 0 1 -.48.6.57.57 0 0 1 .03-.51z" fill="#595959"/><path d="m13.93 5.1v.51c.32.4-.14.5-.28.72z" fill="#666"/></svg>