<svg viewBox="0 0 49.94 66.07" xmlns="http://www.w3.org/2000/svg"><path d="m9.59 28.81a9.94 9.94 0 0 1 .89-.83c.4-.39 1.2-1.16 1.35-.6-.76 1.39-2.07 3.67-2.79 5.07a19.92 19.92 0 0 1 -1.53 2.41c-.1.13-.28.25-.26.41.12.76-.53 1.18-.81 1.74a11.15 11.15 0 0 0 -.91 1.91 8.93 8.93 0 0 1 -1.62 2c-.48 0 .26-1.57.14-2.16a1.71 1.71 0 0 1 .42-1 26.35 26.35 0 0 1 2.6-5.17 18.8 18.8 0 0 0 1.42-2.41c.41-.33 1.07-1.37 1.1-1.37z" fill="#888"/><path d="m11.06 28.24c-.09-.12-.23-.15-.3 0a1.64 1.64 0 0 1 -1.17.62c.42-.87 1-1.66 1.33-2.56.15-.84.82-1.38 1.26-2 .66-1 1.22-2.05 2-3 .28-.33.49-.75 1-.84a.77.77 0 0 1 .57.62 7.25 7.25 0 0 1 -1.38 2.81c-.43.38-2.73 4.17-3.31 4.35z" fill="#8c8c8c"/><path d="m26.69 12.34.69-.17c.31.11.68 0 1 .22.17.55-2.44 1.19-2.68 1.26 1.05-.12 5.74-1.28 5.52-.12a.46.46 0 0 1 -.38.15 22.92 22.92 0 0 0 -4.95.57 1.21 1.21 0 0 1 -.6 0c-.5-.14-.21-.54-.27-.82.18-.34.71-.13.85-.54z" fill="#aeaeae"/><path d="m27.84 32.26.29-.71a4.4 4.4 0 0 1 2.46-2.1c.34.13.23.4.2.66a8.8 8.8 0 0 0 -.08 1.89c-.12.3-.38.3-.64.36a1.37 1.37 0 0 0 -1.15 1.12 29.52 29.52 0 0 0 -.77 5.14c0 1.31-.2 2.63-.33 4a3.61 3.61 0 0 0 0 1.27 1.11 1.11 0 0 1 -.12.89 3.75 3.75 0 0 0 -.44 1.93 4 4 0 0 1 -.42 1.9 2.31 2.31 0 0 0 -.21 1.59 1.38 1.38 0 0 1 0 .94 3.08 3.08 0 0 0 -.5 1.66.34.34 0 0 1 -.24.33c-.42 0-.41-.3-.45-.58a1.81 1.81 0 0 1 .26-1.11c-.35.71-.7.85-1.22.47 0-.75.2-1.48.16-2.24a3.37 3.37 0 0 1 .36-1.23 39.84 39.84 0 0 0 1.14-6.11 11.75 11.75 0 0 0 0-1.57c-.05-1.07.12-2.13.17-3.2a13.61 13.61 0 0 1 1.53-5.3z" fill="#808080"/><path d="m39.28 53.18-.13.42a20.4 20.4 0 0 1 -.86 2.17 1.53 1.53 0 0 0 -.11.85.79.79 0 0 1 -.3.77c-.41.22-.54.61-.76 1a10.22 10.22 0 0 0 -1.06 1c-.2.21-.41.57-.75.34a.6.6 0 0 1 -.13-.92 14.1 14.1 0 0 0 2-4.17c.34-.91.68-1.82 1.11-2.7l.16-.13a3.17 3.17 0 0 0 .74-1.13 11.81 11.81 0 0 0 1-2 1.07 1.07 0 0 1 .14-.16 7.65 7.65 0 0 0 1.24-1.59c.14-.19.18-.46.49-.45s.48.43.67.7a24.75 24.75 0 0 1 -1.49 2.78 27.21 27.21 0 0 0 -1.52 2.55 2.81 2.81 0 0 1 -.44.67z" fill="#8e8e8e"/><path d="m22.67 35.26a18 18 0 0 0 -1.67 3.17c-.43-.14-.79.21-1.15 0a3.23 3.23 0 0 1 .48-1.82c.51-.55.4-1.41.91-2a6.37 6.37 0 0 0 1.17-2.61c.53-.64 1-1.35 1.43-2a14.79 14.79 0 0 1 2.22-2.52c.22-.2.44-.46.8-.23.16.16.19.3 0 .47s-.2.47-.2.74a35 35 0 0 0 -3.32 5.42.73.73 0 0 1 -.22.27z" fill="#8b8b8b"/><path d="m28.7 65.83c-.52.11-1 .4-1.58.12-.24-.32-.05-.47.24-.55a2.58 2.58 0 0 0 .85-.45c.11 0 .22-.06.33-.09l.21-.07a1.09 1.09 0 0 0 1-.44c1.46-.73 2.35-2.06 3.41-3.21a23.54 23.54 0 0 0 1.71-2c.18-.23.37-.46.71-.22 0 .19-.27.43 0 .56s.4-.13.51-.29a3.19 3.19 0 0 1 .93-1c.17.52-.35.59-.57.86a33.72 33.72 0 0 1 -5.5 5.7 7.8 7.8 0 0 1 -2.25 1.08z" fill="#969696"/><path d="m8.08 62.62-.28.15c-.19 0-.38-.08-.45-.29s4.85-3.22 5-3.59c-.29-.08-2.17 1.06-2.48 1a.31.31 0 0 1 -.32-.24c0-.16 0-.34.16-.35 1.1-.16 1.82-1.05 2.81-1.41h.2c.41.3.11.65 0 1a4.36 4.36 0 0 0 -.2.81c-.14.25-.49.25-.59.54s-.27.33-.45.44c-.15.56-3.25 1.76-3.4 1.94z" fill="#808080"/><path d="m14.78 57.48-.29.13a.92.92 0 0 1 -.48-.53c-.11-.28.7-.48.84-.59s.34-.44.67-.53c.18.28-.08.46-.15.68s-.37.55-.59.84z" fill="#999"/><path d="m34.85 9.17 1.86-2.17a5.39 5.39 0 0 0 2.29-2.95c.13-.53.55-.93.67-1.48 0-.23.31-.28.54-.2a.71.71 0 0 1 .56.68 2.29 2.29 0 0 1 -.28.93c-.14.33-.33.63-.07 1s-.07.45-.16.66c-.27.59-.8 1-.87 1.73.1.25.32.43.34.71s-.06.68-.49.77c-.35-.15-.74-.19-1.1-.31-.58-.46-.67-.45-1 .2a4.85 4.85 0 0 1 -1.61 1.84c-.44.27-1.06.24-1.21-.1s.12-.69.48-.87c.08 0 .12-.13.2-.19.24-.21-.22-.14-.15-.25z" fill="#727272"/><path d="m40.19 5c-.31.15-.47.11-.32-.28s.32-.79.47-1.19.17-.63-.16-.75-.23.32-.37.46a5 5 0 0 0 -.81 1.83c-.36 1-1.26 1.45-2 2-.09.06-.18 0-.24-.1a19.14 19.14 0 0 0 1.84-2.97 9.49 9.49 0 0 0 .57-1.45 3.85 3.85 0 0 1 .55-1 .66.66 0 0 1 .94-.29c.17 0 .31.12.47.17.57.16.69.36.39.82a1.64 1.64 0 0 0 -.24.87 4.6 4.6 0 0 1 -.72 1.79.28.28 0 0 1 -.37.09z" fill="#626262"/><path d="m34.85 9.17c.42-.07.62-.48 1-.58-.37.41-.73.82-1.12 1.23-.13.13-.35.24-.18.45s.44.16.63 0a5.85 5.85 0 0 0 1.68-1.82c.38-.75.75-.76 1.25-.14.17.21.14.44-.09.53-.68.27-.77.89-.92 1.47-.07.23-.62.47-.58.73s.43.18.43.31c-.34.45-.71.77-1.32.41-.35-.22-.3-1.1-.61-.82s-.81 1.15-1 1.21c-.45 0-1 0-.58-.71 0 0-.11-.06-.17-.1a.38.38 0 0 1 -.16-.26c0-.44.65-.37.74-.78a2.94 2.94 0 0 1 1-1.13z" fill="#686868"/><path d="m33.36 11 .14.14a8.47 8.47 0 0 1 0 1.13c-.16.11-.35.17-.51.28a2.78 2.78 0 0 1 -1.63.31c-.6-.34 0-.95-.67-.79-.31.07-2.29.77-2.57.53-.12-.09 0-.25.05-.47s.37-.12.51-.28a5.67 5.67 0 0 1 2.26-.57c.54-.13 1.09-.2 1.63-.34.15 0 .39-.11.48.14s0 .25-.15.31c.2 0 .1-.54.46-.39z" fill="#6d6d6d"/><path d="m40.55 1.2c-.89-.12-1 .91-1.38 1.38a8.65 8.65 0 0 1 1.28-2.58c.52.15.28.54.28.85s-.01.15-.18.35z" fill="#a6a6a6"/><path d="m33.28 11a1.31 1.31 0 0 1 -1.35.76c0-.43.59-.28.7-.7l-1.81.21a16.51 16.51 0 0 1 2-.49 3 3 0 0 0 1.07-.52c-.1.38-.42.53-.61.74z" fill="#747474"/><path d="m28.55 11.89c-.1.14-.46.2-.12.45 0 .12 0 .19-.17.12a1 1 0 0 1 -.88-.29 1.86 1.86 0 0 1 1.17-.28z" fill="#7c7c7c"/><path d="m5 39.28c-.42 1-.8 2.09-1.29 3.1a21.72 21.72 0 0 0 -1.55 5.35c0 .21-.1.41-.15.62-.58.17-.3.65-.35 1a.8.8 0 0 1 -1.16.71 24.44 24.44 0 0 1 2.08-7.88 9.06 9.06 0 0 0 .29-.88 6.33 6.33 0 0 0 .87-1.86l.37-.61c.34.19.67.3.85-.3.22.31.04.54.04.75z" fill="#7f7f7f"/><path d="m16.91 19.34a14.3 14.3 0 0 1 -1.35 2.19 4.15 4.15 0 0 1 -.79-1 9.19 9.19 0 0 1 1.88-1.91c.44.11.13.5.26.72z" fill="#898989"/><path d="m16.91 19.34a.6.6 0 0 1 -.26-.71c1.14-1.15 2-2.55 3.57-3.3.81-.4 1.77-.39 2.51-1a2.71 2.71 0 0 1 .37-.21l2-.68c.19 0 .41 0 .55.17-.11.28-.4.24-.56.39 0 .27-.13.39-.3.52a4.56 4.56 0 0 1 -1.61.49h-.1a3.29 3.29 0 0 0 -2.26 2.68.61.61 0 0 1 -.48.55c-.32.08-.44-.12-.58-.38-.29-.53-.9-.55-1.41 0a12.58 12.58 0 0 1 -1.44 1.48z" fill="#777"/><path d="m46 13.19a11.71 11.71 0 0 0 1.42.9l.56.54a6 6 0 0 1 1 1.86 21.21 21.21 0 0 1 .88 6.83c-.11 2.23 0 4.53-.67 6.72a2.76 2.76 0 0 0 -.07.49c-.28 1.39-.54 2.78-.85 4.16a3.94 3.94 0 0 1 -.69 1.9c-.34-.1-.66.25-1 0a.39.39 0 0 1 -.08-.2c.13-.56.33-1.09.46-1.63a2.44 2.44 0 0 0 0-1.2.81.81 0 0 1 .07-.22c.21-.74.2-1.5.36-2.24a10.29 10.29 0 0 1 .6-1.88 1.42 1.42 0 0 0 .15-.82 28.86 28.86 0 0 1 0-3.72c0-.76.2-1.52.14-2.31a9.17 9.17 0 0 0 -.28-1.47c-.22-.9-.5-1.79-.71-2.7a6.93 6.93 0 0 0 -.5-2 3 3 0 0 0 -2.59-1.93.44.44 0 0 1 -.31-.15c-.12-.47.06-1-.36-1.42-.09-.1 0-.27.07-.38a7.33 7.33 0 0 1 2.4.87z" fill="#818181"/><path d="m39.64 7.86c.47-.86 1.51-3.86 1.76-3.94s.28-.26.47-.08.11.39 0 .59c-.56 1.12-.86 2.22-1.44 3.45-.14.15-.28.29-.41.44-.29 0-.51-.19-.38-.46z" fill="#919191"/><path d="m42.2 12.17c-.62-.13-1.3.12-1.89-.27a1 1 0 0 0 -.38-.31c-.79-.28-.84-1-1-1.64a.45.45 0 0 1 0-.23c.2-.18.27-.57.68-.41a2.41 2.41 0 0 0 1.64 2.41z" fill="#696969"/><path d="m39.6 9.31c-.14.2-.2.46-.44.58-.51-.26-.33-.71-.32-1.12a.37.37 0 0 1 .16-.17.81.81 0 0 0 .44-.7.47.47 0 0 1 .57.42z" fill="#5f5f5f"/><path d="m.53 50.06c.19-.19.23-.55.64-.45.17 0 .25-.09.27-.25a.25.25 0 0 0 -.23-.3.35.35 0 0 1 -.31-.47c.06-.36.29-.14.42-.08.3.16.39-.5.72-.16-.22.35-.1.74-.16 1.11-.35.78-.11 1.64-.29 2.44a1.9 1.9 0 0 0 -.12.91c.2 2.39-.05 4.8.28 7.18.08.61.27 1.2.41 1.8a.59.59 0 0 0 .21.77c.08.08.2.13.29.21s.59.28.44.63-.5.11-.76.06-.38-.21-.59 0a2.49 2.49 0 0 1 -1.31-2 21.75 21.75 0 0 1 -.29-2.9 30.84 30.84 0 0 1 .08-5.56c.07-.43-.09-.85.06-1.26a3.61 3.61 0 0 1 .24-1.68z" fill="#7c7c7c"/><path d="m1.75 63.43c-.08-.16-.32-.23-.27-.49.47 0 .83.45 1.32.35 0-.63-1.38-.59-.64-1.5a2.26 2.26 0 0 0 2.26 1.4 6.23 6.23 0 0 0 3.21-.93.36.36 0 0 1 .28.42 4.67 4.67 0 0 1 -2.41 1 10.87 10.87 0 0 1 -3.5-.15z" fill="#787878"/><path d="m2 63.53 3.51.14a5.77 5.77 0 0 1 -3.51-.14z" fill="#7c7c7c"/><path d="m.15 58.49a21.58 21.58 0 0 1 .29 2.9c-.09-.25-.18-.5-.26-.75z" fill="#7f7f7f"/><path d="m41 4.73c.13-.58.61-1 .72-1.58a3.41 3.41 0 0 1 .74-1.26.53.53 0 0 1 .58-.17c.27.12.13.36.11.55a7.19 7.19 0 0 1 -1 1.74l-.28.42c0-.28-.06-.52-.39-.21a5.68 5.68 0 0 0 -.48.51z" fill="#9d9d9d"/><path d="m.29 51.72a2.17 2.17 0 0 1 0 1.55 8.51 8.51 0 0 0 -.12 3.11 16.67 16.67 0 0 1 0 2.12 29.3 29.3 0 0 1 0-5.38 4.16 4.16 0 0 1 .12-1.4z" fill="#7f7f7f"/><path d="m40.55 13.06c-2.7-.75-5.31 0-7.94.47a12.08 12.08 0 0 1 -1.35.09 5.09 5.09 0 0 1 -.56 0c-.43-.1-.19-.26 0-.4.12-.41.61.09.78-.16a7.31 7.31 0 0 0 1.52-.43 4.18 4.18 0 0 0 1.5-.36 1.54 1.54 0 0 1 1.5-.16 1.09 1.09 0 0 0 1.28-.18c.15-.12 0-.21.06-.39 0-.56-.08-.37.08-.75.84-1 .77.8 1.12 1.24.1.13.13.33.29.45.55.3 1.23.16 1.72.58z" fill="#979797"/><path d="m46.75 36.39v.17c.37 0 .54.3.7.57l-.3 1a16.4 16.4 0 0 0 -1.67 3.22 52.49 52.49 0 0 1 -2.33 5.12l-.57.73a.79.79 0 0 1 -.58-.59.39.39 0 0 1 0-.47 45.71 45.71 0 0 0 2.19-5c.19-.38.38-.76.58-1.14.46-1.19 1.41-2.15 1.67-3.44a.2.2 0 0 1 .31-.17z" fill="#878787"/><path d="m47.47 37.13a1 1 0 0 1 -.7-.57c.31-.63.59-.48.87 0-.06.21-.11.44-.17.57z" fill="#747474"/><path d="m25.84 52.93a17.94 17.94 0 0 1 -.73 2.7c-.16.27-.34.48-.68.25s-.51-.46-.34-.83a6.24 6.24 0 0 0 .3-.86c.52-.71.28-1.52.28-2.3a2 2 0 0 0 1.26-1.7c.12.94-.25 1.81-.09 2.74z" fill="#777"/><path d="m30.7 31.81h-.13c-.18-.07-.37-.15-.32-.38a9.69 9.69 0 0 1 .3-1.93l.26-.57s.09-.06.09-.1c0-.38.17-.74.61-.68s.31.49.34.79c-.09.71-.38 1.38-.46 2.1-.05.38-.39.59-.69.77z" fill="#777"/><path d="m14.35 56.63c-.18.36.38.62.14 1l-.42.31c-.45-.11-.85.25-1.29.15h-.17c-.21-.14-.83.27-.7.15a14.56 14.56 0 0 0 1.93-3.43 33 33 0 0 1 1.69-4.64 2.68 2.68 0 0 0 .21-.82 20.44 20.44 0 0 0 1.18-2.67 21.44 21.44 0 0 0 1-3.55 17 17 0 0 1 1-3.21 6.09 6.09 0 0 1 1.21-2.34c.76-.09.78-.06.75.88-.92 1.21-1 2.7-1.42 4.09a35.43 35.43 0 0 1 -2 5.75 26 26 0 0 0 -2.08 5.47z" fill="#858585"/><path d="m26.83 27.39c0-.05-.32-.21-.27-.26a4.27 4.27 0 0 1 3.64-.77 1.25 1.25 0 0 0 .43 0 1 1 0 0 1 1.22.89c-.06.54-.28.72-.77.36a1.85 1.85 0 0 0 -.68-.24l-.4-.12a1.51 1.51 0 0 0 -1.68 0 5.29 5.29 0 0 0 -1.73 1.32c-.46-.57.12-.86.24-1.18z" fill="#7a7a7a"/><path d="m24.39 54.19a3.85 3.85 0 0 1 -.07.49c-.18.77-.06.92.79 1a11.53 11.53 0 0 0 1.22 5.45 3.8 3.8 0 0 1 -.08 3.29.49.49 0 0 1 -.7 0c0-.06-.1-.12-.09-.19.05-1.84-1.11-3.35-1.42-5.1a7.32 7.32 0 0 1 .35-4.94z" fill="#7c7c7c"/><path d="m25.55 64.36h.7c.19.76.88.8 1.46 1a3.79 3.79 0 0 0 .83 0c-.45.25-1.09 0-1.42.56-1.12-.17-1.48-.53-1.57-1.56z" fill="#a3a3a3"/><path d="m24.67 51.89c.26.52-.05 1.2.49 1.66.14.12.07.34-.18.31s-.43.17-.59.33a12.68 12.68 0 0 0 .28-2.3z" fill="#808080"/><path d="m12.78 58.07a.54.54 0 0 1 .07-.13c.51-.72.77-.72 1.22 0a9.59 9.59 0 0 1 -1.49 1.85c-.12 0-.41-.24-.34-.33.32-.46.12-1.04.54-1.39z" fill="#727272"/><path d="m30.4 27.39a1.05 1.05 0 0 1 .7 0c.25.11.29 0 .44-.27.42.09.41.53.45.78a3.41 3.41 0 0 1 -.07.84c0 .14-.11.56-.42.53 0-.23.24-.71-.05-.8s-.44.3-.64.47c.11-.57.31-1.18-.41-1.55z" fill="#868686"/><path d="m37.44 10.76c-.32 0-.66-.06-.87.28-.09-.14-.5-.26-.13-.45a.67.67 0 0 0 .37-.55c.18-.78.45-1.5 1.35-1.73.33 0 .89-.74.86.29a.66.66 0 0 1 0 .14 2.56 2.56 0 0 0 -.13.68c-.16.79-.54 1.14-1.45 1.34z" fill="#787878"/><path d="m34 11.9c-.2.2-.35.44-.64.41a1.47 1.47 0 0 1 .06-1.13 2.37 2.37 0 0 1 .32-.15c.21-.07.51-.24.62 0s-.24.33-.43.42-.31.1-.28.27.23.16.35.18z" fill="#747474"/><path d="m1.59 51.9c.06-.82-.18-1.67.29-2.44a20 20 0 0 1 -.29 2.44z" fill="#7f7f7f"/><path d="m37.44 10.76c0-.29-.06-.62.46-.58s.48-.45.68-.72a6.52 6.52 0 0 0 .42-.72l.15 1.15c-.2.81-.08 1.14.55 1.55.13.08.26.14.16.32-.4.1-1-.41-1.15.44a2.49 2.49 0 0 1 -1.27-1.44z" fill="#696969"/><path d="m44 14.33c-.62.45-.85.38-1-.33a.88.88 0 0 0 -.58-.66 10.37 10.37 0 0 0 -1.72-.45.86.86 0 0 1 1-.19l1.42.47c.32.1.51.28.42.62s.11.55.46.54z" fill="#6f6f6f"/><path d="m39.87 11.76a3.18 3.18 0 0 0 -.32-.16c-1.1-.49-1.15-.73-.39-1.71a2.54 2.54 0 0 0 1 1.58.44.44 0 0 1 .2.43z" fill="#747474"/><path d="m43.6 12.33a1.8 1.8 0 0 1 .45 1.74.28.28 0 0 1 .08.31c-.7.3-.92.17-.85-.56a.36.36 0 0 0 -.21-.39 16.11 16.11 0 0 0 -1.69-.6c-.24-.1-.44.16-.65.27a3.42 3.42 0 0 1 -.46 0c-.7 0-1.38-.07-1.75-.8-.15-.8.34-1.1 1.28-.79a1.37 1.37 0 0 0 .57.09 6.26 6.26 0 0 0 1.83.61 3.48 3.48 0 0 1 1.4.12z" fill="#616161"/></svg>