<svg viewBox="0 0 272.29 88.2" xmlns="http://www.w3.org/2000/svg"><path d="m272.29 72.84c-1.44.12-55.67 7.81-57.09 8.12-.69.14-1.39.21-2.08.29-1.92.24-3.8.71-5.72.9-.89.09-1.77.27-2.66.4-.61.08-1.55.41-1.21 0a1.29 1.29 0 0 1 .77-.34c1-.15 2.11-.24 3.06-.46-.44-.17-.94.51-1.48.07a7.1 7.1 0 0 1 2.13-.44c2.87-.41 5.76-.74 8.64-1.11.95-.12 53.89-7.45 54.85-7.46 0 .19.79-.14.79.03z" fill="#adadad"/><path d="m155.57 16.79a1.28 1.28 0 0 0 .44-1.55 5.88 5.88 0 0 0 -3-3.82 34.73 34.73 0 0 0 -6.38-2.42 6.32 6.32 0 0 0 -4 0 2.48 2.48 0 0 1 -.88.19c-2 0-3.94.72-5.9 1.08-1.48.28-2.86.89-4.34 1.12a3.18 3.18 0 0 1 -.95.12c-1.56-.24-3 .42-4.47.64a46.18 46.18 0 0 0 -6.44 1.68 6.54 6.54 0 0 1 -2 .16 1.17 1.17 0 0 0 -1 .37c-.22.07-.52.17-.61-.11s.27-.35.47-.39c2.35-.44 4.48-1.52 6.73-2.25.87-.29 1.79-.16 2.65-.46a10.28 10.28 0 0 1 4.23-.51 4.79 4.79 0 0 0 1.83-.3 35.18 35.18 0 0 1 8.43-1.78 7.65 7.65 0 0 0 1.7-.34 8.22 8.22 0 0 1 4.86.25c.76.21 1.49.53 2.26.73a23.67 23.67 0 0 1 4.86 2.28 1 1 0 0 1 .34.28 17.11 17.11 0 0 1 2 3.12 3.15 3.15 0 0 1 .31 1.36c0 .69-.63.6-.89.94-.34.06-.35-.13-.25-.39z" fill="#9e9e9e"/><path d="m156.34 18.07a26.93 26.93 0 0 0 3.2 6.25c1.14 1.79 2.36 3.53 3.34 5.4.88 1.69 2 3.24 2.86 4.92 1.65 3.23 3.42 6.4 4.83 9.75a46.26 46.26 0 0 0 3.23 5.9c1.42 2.33 2.94 4.6 4.24 7a47.83 47.83 0 0 0 2.77 4.62 42 42 0 0 1 2.85 4.72 3.1 3.1 0 0 0 .83 1 1.89 1.89 0 0 0 0-1.31 9.25 9.25 0 0 1 -.37-4.24c.13-2.17.3-4.34.49-6.51.14-1.53.46-3 .56-4.57a.46.46 0 0 1 .23-.45 1.09 1.09 0 0 1 .09.79c-.24 2.51-.49 5-.8 7.52a41.38 41.38 0 0 0 -.28 4.85 7.86 7.86 0 0 0 .42 2.06 24.13 24.13 0 0 1 .41 2.92 1.23 1.23 0 0 1 -.35 1.18c-.11.1-.21.25-.38.13a.28.28 0 0 1 -.06-.36c.23-.45 0-.71-.3-1a7.39 7.39 0 0 1 -.93-1.89c-1.07-2.17-2.56-4.09-3.8-6.15-1-1.68-2-3.41-3-5.09-.91-1.49-1.71-3-2.71-4.48a34.84 34.84 0 0 1 -2.33-4.12c-1.21-2.36-2.27-4.79-3.48-7.14-.66-1.27-1.33-2.53-2.1-3.74-.92-1.46-1.52-3.1-2.4-4.59-.26-.44-1.92-3.42-2.59-4.36a38.82 38.82 0 0 1 -3.37-5.56 15.49 15.49 0 0 1 -1.35-2.74c.16-.25-.17-.62.25-.71z" fill="#a1a1a1"/><path d="m93.43 71.48c-.4.15-.56-.12-.64-.42a3.53 3.53 0 0 0 -.56-1.06c-1.29-1.82-2.2-3.85-3.3-5.77-1.24-2.17-2.64-4.25-3.84-6.44-.93-1.71-2.14-3.24-3-5-.69-1.29-1.48-2.53-2.09-3.79-1.3-2.59-2.58-5.19-4-7.73-1.17-2.16-2.27-4.35-3.47-6.48-1.31-2.33-2.38-4.78-3.88-7-1.12-1.65-2-3.44-3-5.17a36.24 36.24 0 0 1 -2.49-4.89c.06-.18.24-.16.37-.24l2.64 5.4a3.79 3.79 0 0 0 .35.62c1.1 1.45 1.83 3.12 2.8 4.66 1.81 2.89 3.35 5.95 5 8.94a89.15 89.15 0 0 1 4.18 8.21c.5 1.19 1.27 2.22 1.83 3.37.71 1.44 1.65 2.75 2.23 4.25a8.89 8.89 0 0 0 1.22 2c1.21 1.67 2.06 3.54 3.13 5.29s2.17 3.47 3.11 5.3a25.43 25.43 0 0 0 2.42 3.91c.45.57.78.61 1.27.08.17 0 .24.19.41.2a.38.38 0 0 0 .13-.09c.15-.19.06-.53.38-.62.3.69-.09 1.31-.21 2 0 .14-.19.15-.32.11a.22.22 0 0 0 -.26-.31.62.62 0 0 0 -.49.47c-.07-.01.01.09.08.2z" fill="#a1a1a1"/><path d="m102.93 24.62c.11-2.42.23-4.83.34-7.25a1 1 0 0 0 -.59-1c.25-.41.61-.31.92-.14s.89 0 .87.66c-.54 0-.75.23-.77.77-.11 2.9-.3 5.79-.45 8.69-.12 2.31-.56 4.57-.73 6.87-.11 1.57-.42 3.11-.64 4.66-.08.55-.26 1.08-.36 1.62a60 60 0 0 0 -.81 8c-.16 2.94-.34 5.88-.69 8.8a21.68 21.68 0 0 0 0 2.55 28.45 28.45 0 0 1 -.35 4 3.78 3.78 0 0 0 0 1.21 12.37 12.37 0 0 1 -.22 2.94c-.34 0-.27.25-.23.38.09.39 0 .86.41 1.14.08.06 0 .2 0 .29-.34.21-.54 0-.58-.29a4.84 4.84 0 0 1 -.05-1.16 10.31 10.31 0 0 0 0-2.42c.19-.92.14-1.86.27-2.79.08-.54 0-1.12 0-1.68a3.76 3.76 0 0 1 .09-.6 1.37 1.37 0 0 0 0-1.14 2.28 2.28 0 0 1 .08-1.5 24.64 24.64 0 0 0 0-2.85 17.31 17.31 0 0 0 .24-1.74c0-.87.16-1.73.14-2.59a16 16 0 0 1 .24-2.93.78.78 0 0 0 -.06-.48.84.84 0 0 1 0-.64 17.21 17.21 0 0 0 .38-3.5 9.82 9.82 0 0 1 .58-3.48 4.18 4.18 0 0 0 .19-1.36 5.2 5.2 0 0 1 .07-.69v-.24a10.66 10.66 0 0 1 .46-2.42c.12-.31-.07-.67 0-1 .13-.89.28-1.77.44-2.65a27.21 27.21 0 0 0 .38-4 2.63 2.63 0 0 1 .35-1.53.61.61 0 0 0 .08-.51z" fill="#a1a1a1"/><path d="m122.19 21 2.31-.52c.62-.14 1.19.22 1.82.18a5 5 0 0 1 2.21.2c.77.31 1.32-.15 1.87-.53a1.53 1.53 0 0 1 1.39-.25 2.54 2.54 0 0 0 1.52 0 5.21 5.21 0 0 1 2.6-.09 4.59 4.59 0 0 0 .83.1c2.07-.05 4 .68 6 1a22.23 22.23 0 0 0 2.82.52 2.82 2.82 0 0 0 .82-.07 2.11 2.11 0 0 1 1.38.07 5.38 5.38 0 0 0 4.46-.11 6.73 6.73 0 0 0 1-.74.46.46 0 0 1 .76.1c.2.31.13.51-.2.73-1.4 1-2.87 1.58-4.57 1a5 5 0 0 0 -2.21-.39 10.05 10.05 0 0 1 -3.66-.34 42.86 42.86 0 0 0 -7.38-1.2 6.72 6.72 0 0 0 -1.79.11 5.18 5.18 0 0 1 -2 .05 2.23 2.23 0 0 0 -1.68.47 2.22 2.22 0 0 1 -1.78.32c-1.32-.29-2.68-.16-4-.38a4 4 0 0 0 -1.26.19c-.3.1-.62 0-.92.17a.33.33 0 0 1 -.43-.16c-.2-.21-.1-.31.09-.43z" fill="#9e9e9e"/><path d="m97.41 21.8v.12c0 .62.06 1.24.06 1.85 0 1.37-.14 2.75-.25 4.12a13.67 13.67 0 0 1 -.17 2.71 7.9 7.9 0 0 0 0 1.09 17.71 17.71 0 0 1 -.3 2.7 1.94 1.94 0 0 0 .17 1.21 4.24 4.24 0 0 0 -.12 1.4c.1.63-.33 1.14-.38 1.73a28.62 28.62 0 0 0 -.19 2.92c0 2.36-.34 4.69-.54 7a14.84 14.84 0 0 1 -.11 2.4c-.28 1.12-.07 2.3-.35 3.42-.28 2.7-.61 5.39-.77 8.09.16.33.32.65 0 1-.17.18 0 .46-.13.67v.13c-.23 1 .22 2 .13 3.08-.16.09-.23 0-.25-.13s0-.41 0-.62c0 .14 0 .3-.13.37a18.63 18.63 0 0 1 -.09-4c.23-3.23.56-6.46.82-9.69.1-1.17.09-2.35.16-3.52.17-3 .34-6 .71-9 .29-2.43.32-4.9.55-7.34.26-2.72.24-5.45.47-8.17a36.78 36.78 0 0 0 .3-5.95 3.43 3.43 0 0 1 .17-1.45c.35.31.14.69.16 1s-.17 1 .1 1.39z" fill="#a1a1a1"/><path d="m64 9.09a28 28 0 0 0 .13-4.67 4.3 4.3 0 0 0 -.32-1.63c-.24-.55-.5-.59-.89-.16a1.9 1.9 0 0 0 -.46.69c0 .12-.08.29-.25.2s-.07-.22 0-.34a1.64 1.64 0 0 0 -1.21-2.18 5.8 5.8 0 0 0 -2.89 0 18.35 18.35 0 0 1 -3 .53 14.79 14.79 0 0 0 -2.73.9c-1.87.59-3.19 2-4.55 3.26a41.15 41.15 0 0 0 -2.93 3.31c-.47.55-1.12.95-1.41 1.65-.25.09-.48.17-.38-.26a13.74 13.74 0 0 1 1.46-1.86 37.89 37.89 0 0 1 5.48-5.63 11 11 0 0 1 4.77-2.12 31.63 31.63 0 0 1 4.35-.78 4.06 4.06 0 0 1 2 .22 1.79 1.79 0 0 1 1.13 1.09.58.58 0 0 0 .84.41 1 1 0 0 1 1.27.91 11 11 0 0 1 .06 2.81c-.1.91 0 1.84-.06 2.76a1.5 1.5 0 0 0 -.13.66c0 .14-.03.31-.28.23z" fill="#9e9e9e"/><path d="m157.09 25.27a38.24 38.24 0 0 1 2 4c.19.42 2.92 5.46 4.09 7.09.76 1.08 1.42 2.23 2.12 3.36 1.51 2.43 3.21 4.74 4.49 7.3.87 1.74 1.76 3.47 2.69 5.18.81 1.5 1.71 3 2.54 4.44 1.09 1.94 2.15 3.89 3.39 5.73 1.12 1.64 2.25 3.27 3.21 5 .14.26.43.42.61.65s.34.6.08.8-.48-.15-.61-.36c-1.09-1.81-2.13-3.64-3.25-5.43-.65-1.05-1.42-2-2-3.13-.68-1.32-1.41-2.63-2.2-3.9-1.76-2.86-3.21-5.88-4.73-8.87a69.47 69.47 0 0 0 -3.82-6.07c-1.06-1.65-2-3.38-3.13-5a26.17 26.17 0 0 1 -2.41-3.68c-.56-1.18-1-2.42-1.57-3.58a13.67 13.67 0 0 0 -1.82-3.44 2.17 2.17 0 0 1 -.27-.64c.3-.18.3.12.38.25s-.03.36.21.3z" fill="#a1a1a1"/><path d="m22.56 49.53a23.77 23.77 0 0 0 -3.68 2.87c-1.65 1.43-3.15 3-4.71 4.52-2.26 2.19-4.38 4.5-6.64 6.69-1 1-2 2-3 3-.39.43-.49 1-.88 1.51a7.27 7.27 0 0 1 -2 1.68c-.1.06-.23.19-.34.06s0-.3.07-.4c.33-.36.69-.7 1-1 .12-.13.22-.26.33-.4a21.21 21.21 0 0 1 1.63-1.76c1.09-1 2-2.11 3-3.12 1.48-1.45 2.86-3 4.31-4.47 1.91-1.92 3.82-3.85 5.79-5.71a41.87 41.87 0 0 1 5.8-4.73c1.76-1.11 3.34-2.27 4.94-3.4a1.67 1.67 0 0 1 .16-.12c.14-.07.3-.24.45-.06s-.07.26-.16.37a5.57 5.57 0 0 1 -1.54 1.24c-1.3.75-2.41 1.75-3.66 2.57-.31.2-.58.44-.87.66z" fill="#a1a1a1"/><path d="m191.13 28.21c-.15 1.86-.25 3.71-.45 5.56-.09.79 0 1.58 0 2.37-.12 3-.53 6-.69 9-.11 2-.33 4-.29 5.94.05 2.68-.14 5.34-.22 8-.1 3-.39 6-.38 9 0 .62-.09 1.24-.14 1.86a1.69 1.69 0 0 1 -.31.83c-.07.1-.14.24-.29.22s-.17-.18-.2-.3a5.79 5.79 0 0 1 -.23-2.07c.15 0 .15.07.18.14s.07.33.27.32.2-.21.22-.35a11.86 11.86 0 0 0 .19-2.36 27.87 27.87 0 0 1 .1-4.09c.07-2 .25-4.09.34-6.14.12-2.41.1-4.82.19-7.22.08-2.56.31-5.12.51-7.66.18-2.37.24-4.74.38-7.1.12-2.11.27-4.22.47-6.32 0-.23.08-.46.12-.69.3.32-.09.78.23 1.06z" fill="#a1a1a1"/><path d="m201.48 83c-.32 0-.64 0-1 .07s-.62.17-.65-.08.43-.16.63-.32c.89-.21 4.61-.73 5.38-.78l2.71-.29v.11c-.9.46-2.07.2-3.06.56-.71.26-4.51 1-5 .8" fill="#adadad"/><path d="m34.5 22.82a8.6 8.6 0 0 1 -1.18 1.74c-1.61 2.06-3.11 4.19-4.82 6.17a2.12 2.12 0 0 0 -.29.56 3.66 3.66 0 0 0 -.87.93 86.3 86.3 0 0 1 -6.42 8.55c-1.74 2-3.34 4.15-5.05 6.2a12.65 12.65 0 0 0 -1.87 2.56 40.05 40.05 0 0 0 -3.45 4.34c-.12.15-.27.27-.4.41s-.17.1-.26 0a16 16 0 0 1 1-1.56c1.9-2.39 3.75-4.81 5.67-7.18 2.23-2.75 4.53-5.45 6.71-8.24.72-.92 1.35-1.92 2-2.88 1.61-2.3 3.39-4.49 5.09-6.73q1.77-2.36 3.52-4.73c.26.22.34-.4.62-.14z" fill="#a1a1a1"/><path d="m77.77 50.56c-.13-.54-.7-.85-.77-1.42a3.3 3.3 0 0 1 -1.13-1.54c-.31-.59-.74-1.09-1-1.68-.66-1.36-1.44-2.66-2.21-4a11.78 11.78 0 0 1 -.88-2c-.33-.92-1-1.65-1.32-2.54a3.08 3.08 0 0 0 -.73-1.16c-.65-.64-.61-1.62-1.13-2.31a19.58 19.58 0 0 1 -1.69-2.9 6.33 6.33 0 0 1 -.81-1.88c-.09-.55-.5-1.06-.62-1.64a22.05 22.05 0 0 1 -2-3.86c-.16-.44-.49-.8-.67-1.23a9.28 9.28 0 0 1 -.71-1.86c.1-.2.25-.17.42-.11a18.29 18.29 0 0 1 2.29 4.35c.66 1.61 1.44 3.15 2.21 4.69.86 1.74 1.7 3.49 2.69 5.16 1.47 2.5 2.7 5.13 4.07 7.68.84 1.58 1.82 3.09 2.66 4.67 1.11 2.07 3.38 6.62 4.45 8.71.1.21-.43-.59-.68-.42l-.61-1.46c-.33-.15-.35-.51-.52-.77-.35-.56-.78-1.06-1.09-1.66-.19-.23-.06-.55-.22-.82z" fill="#a1a1a1"/><path d="m53.14 83.55c.19-.2.13-.33-.13-.39a5.36 5.36 0 0 1 2.24-.36c5-.29 10.09-.77 15.11-1.47 1.84-.25 3.69-.39 5.54-.61 1.4-.17 2.79-.37 4.19-.55.38 0 .76-.06 1.14-.09.19.28.69-.07.78.39-1.39.17-2.79.3-4.17.53-1.55.25-3.14.21-4.68.57a19.39 19.39 0 0 1 -2 .24c-2.68.33-5.37.62-8.07.85-1.33.11-2.65.42-4 .46a17.82 17.82 0 0 1 -3.34.31 5.41 5.41 0 0 0 -1.83.22c-.27.06-.57.23-.78-.1z" fill="#adadad"/><path d="m172.65 84.83a26.46 26.46 0 0 1 -2.95-.12c-.55 0-3.11-.42-3.46-.52-1-.41-2.15-.54-3.17-1-.43-.19-.83-.42-1.24-.65-.25-.14-.49-.34-.34-.66a.67.67 0 0 1 .71-.32.83.83 0 0 1 .52.23 7.62 7.62 0 0 0 3.76 1.63c.52.17 9.88 1.14 10.07 1.19a4.33 4.33 0 0 1 .5.08h.58c.14 0 .25.08.25.23s-.13.2-.26.21a5.72 5.72 0 0 1 -1.6 0c-.82-.13-3.22-.19-3.37-.3z" fill="#919191"/><path d="m36.43 84.45c-.19 0-.41.16-.56.09-1.36-.54-2.95-.54-4.13-1.54a2.74 2.74 0 0 1 -.74-1c-.11-.26-.2-.54 0-.78a.83.83 0 0 1 .9-.16 5.33 5.33 0 0 1 .63.32c.24.13.5 0 .75.06a17 17 0 0 1 2.38.48 21.62 21.62 0 0 1 -2.27 0c-.37.29-.34.42.07.68a4.64 4.64 0 0 0 2.13.51c1.69.17 3.38.21 5.07.3 1.89.09 3.78.11 5.67.1h.45c.12 0 .28 0 .31.15s-.1.26-.27.28a17.2 17.2 0 0 1 -2.14.2c-.53 0-1.06 0-1.59 0a1.49 1.49 0 0 0 -1.1.21.42.42 0 0 1 -.42 0 4.26 4.26 0 0 0 -1.71-.11 7.64 7.64 0 0 1 -2.9 0 .5.5 0 0 0 -.53.21z" fill="#919191"/><path d="m82 80.47a.81.81 0 0 1 -.78-.39c1.89-.39 3.81-.43 5.71-.66 1.46-.17 2.91-.38 4.37-.57.52-.07.73-.31.44-.82-.09-.27 0-.38.27-.25l.38.51c.08.16.12.35.38.32a6.17 6.17 0 0 0 1.29-.07l7.19-.77c.81-.09 1.63-.11 2.45-.18a9.8 9.8 0 0 1 2-.14c.45.06.42.22.1.45-.87-.11-1.7.35-2.58.13-1.77.33-3.57.55-5.37.71a19.18 19.18 0 0 0 -4 .52 12.42 12.42 0 0 1 -3.58.21c-.94 0-1.84.32-2.78.39-1.89.14-3.68.4-5.49.61z" fill="#adadad"/><path d="m105.76 77.9c0-.59-.49-.38-.76-.36a31.29 31.29 0 0 1 -3.74.23 32.32 32.32 0 0 1 5-.38.33.33 0 0 0 .5-.14 3.48 3.48 0 0 1 .44-.1c3.51-.19 7-.69 10.54-.7 2.11 0 4.22-.26 6.34-.21a19.86 19.86 0 0 1 4.13.45c.81.19 1.63.3 2.45.46a2 2 0 0 1 1.05.42 2.25 2.25 0 0 1 -1.61-.13 8 8 0 0 0 -1.74-.36 29.35 29.35 0 0 0 -5.61-.32c-1.92.13-3.84.1-5.76.18-1 0-2 .1-3 .18-1.58.13-3.17.34-4.75.43-1.16.06-2.31.35-3.48.35z" fill="#adadad"/><path d="m175.84 85a5.09 5.09 0 0 0 1.86 0l-.83-.26a12.65 12.65 0 0 1 2.46-.07c1.46 0 2.9-.15 4.35-.2l7.54-.52c.68-.05 2.77-.16 3.16-.21 1.72-.22 3.42-.56 5.11-.92.33-.07.67-.1 1-.15l-.42.23c.11.22.3.12.44.17-1.11.31-2.28.36-3.38.65a35.67 35.67 0 0 1 -4.91.83 21.54 21.54 0 0 0 -4.25.12c-2.73.13-5.45.37-8.17.56a27.71 27.71 0 0 1 -4.06 0c-.69-.12-.68-.29.1-.23z" fill="#a3a3a3"/><path d="m185.87 45.48a1.52 1.52 0 0 1 -.2-1c.09-1.52.35-4.45.34-6 0-.89.08-1.79.14-2.68.23-3.15.55-6.29.63-9.45a61.3 61.3 0 0 1 .68-7.4c.11-.69.14-1.4.2-2.1a1.12 1.12 0 0 0 -.24-.78c-.1-.15-.15-.34.05-.44s.36 0 .47.2a1.46 1.46 0 0 1 .11.69c0 1.14-.25 2.25-.3 3.38-.14 2.81-.57 5.6-.66 8.43-.05 1.85-.15 3.71-.34 5.56s-.23 3.92-.38 5.88a40.31 40.31 0 0 1 -.5 5.71z" fill="#a1a1a1"/><path d="m64 9.09c.17-.28.14-.64.38-.89a3.76 3.76 0 0 1 -.92 2.94 1 1 0 0 0 -.23.77c.21.54-.24.19-.53.25s-1.35.18-1.43.68c.14.41.72 1.65 1.17 1.84.1 0 .57-.67.67-.68.47-.07.27.05.13.52 0 .11 0 .24-.14.33a1.14 1.14 0 0 0 -.26 1.3c.07.18.2.38-.14.42-.31-.37-.61-.44-.9 0a2.41 2.41 0 0 1 -.21.24c-.73.81-.73.81-.17 1.76.16.6-.3.41-.57.47a1.5 1.5 0 0 1 -.34-.27c-.31-.23-.81-.25-.95-.6s.49-.52.58-.89a3.49 3.49 0 0 0 -.26-.89c.06-.22-.43-.45 0-.66a2.44 2.44 0 0 0 .39.33c.27.14.32.76.75.48a1.34 1.34 0 0 0 .75-1.31 2.7 2.7 0 0 0 -.45-1.19 2.72 2.72 0 0 1 -.48-2.24c.15-.61.37-.69.88-.43.23.11.45 0 .65-.16a3.68 3.68 0 0 0 1.63-2.12z" fill="#999"/><path d="m31 42.59a25.29 25.29 0 0 0 3.19-2.84c.58-.6 1.3-1 1.88-1.62 2.2-2.28 4.55-4.41 6.66-6.78a23.67 23.67 0 0 1 1.88-1.72c.19 0 .41-.15.59.06a.59.59 0 0 1 -.42.72 1.33 1.33 0 0 0 -.65.65 2.6 2.6 0 0 1 -1.58 1.14 1.43 1.43 0 0 0 -.51.63c-.92 1.11-1.76 2.27-2.74 3.31-.64.68-1.4 1.25-2.09 1.88s-1.31 1.22-2 1.85a21.68 21.68 0 0 1 -1.91 1.53 3.53 3.53 0 0 1 -.94.68c-.1.5-.55.5-.9.64l-.26.38c-.69.13-1.09.7-1.62 1.07-.12.09-1.32 1.17-1.46 1s1.25-1.17 1.38-1.26z" fill="#a1a1a1"/><path d="m118.61 21a3.35 3.35 0 0 0 -1.48-1 2.84 2.84 0 0 0 -.68-.14 35.82 35.82 0 0 1 -7.24-.69 6.09 6.09 0 0 1 -2.21-1.61c.62.08 2.14 1.1 2.67 1.15a28.8 28.8 0 0 1 3.6.29 2.11 2.11 0 0 0 .83 0 6 6 0 0 1 3.14.41 2.4 2.4 0 0 1 1.37 1.59z" fill="#9e9e9e"/><path d="m36.43 84.45c.21-.52.56-.69 1-.37a.63.63 0 0 0 .7.09c.38-.16.78.06 1.14 0 1.2-.3 2.42.09 3.64-.12 1-.17 2 .06 3-.09a2 2 0 0 0 .93-.24c-.23-.22-.48-.13-.7-.13h-4.6a2.18 2.18 0 0 1 -.88-.11 5.94 5.94 0 0 1 2.06 0q3 0 5.9-.13c.88-.1 1.76-.06 2.64-.19a2.84 2.84 0 0 0 1-.1c.12-.06.26 0 .23.17v.25a1.19 1.19 0 0 1 -1.26.32 4 4 0 0 0 -1.74.13 2.58 2.58 0 0 1 -.74.18 51.67 51.67 0 0 0 -5.42.19c-1.23 0-2.48.05-3.72.12a12.46 12.46 0 0 1 -3.18.03z" fill="#adadad"/><path d="m107 14.23a16.84 16.84 0 0 0 4.59-.22 7.17 7.17 0 0 1 2.61.08c.3.06.67.16.63.51s-.45.28-.69.24a19.88 19.88 0 0 0 -5.11.21 2.73 2.73 0 0 1 -.7 0 12 12 0 0 0 -3.63-.17.13.13 0 0 1 -.2-.06c0-.48.42-.47.74-.5a8.29 8.29 0 0 1 1.11.08c.26 0 .51.05.65-.17z" fill="#adadad"/><path d="m107 14.23c-.15.37-.47.36-.79.37a3.34 3.34 0 0 0 -1.65.25 2 2 0 0 1 -2 .17c-.64-.26-2.67-.54-2.75-.92-.14-.07-.31-.12-.24-.31s.22-.19.37-.2a8.82 8.82 0 0 1 2.28.26c.53.11 1 .24 1.43-.33 0-.07.1-.12.2-.06a10.32 10.32 0 0 0 3.15.77z" fill="#999"/><path d="m169.06 86.13c.07.09.21.11.25.25" fill="#adadad"/><path d="m191.13 28.21c-.46-.25-.17-.68-.26-1a.57.57 0 0 1 0-.13c.07-.51.08-1 .13-1.54a37.27 37.27 0 0 1 .48-4.83 27.24 27.24 0 0 0 .44-5c0-.4 0-1.13.3-1.12.52 0 .34.7.4 1.11.16 1.14-.43 2.18-.48 3.31-.08 1.77-.64 3.48-.64 5.27a16.16 16.16 0 0 0 -.25 2.31 9.22 9.22 0 0 0 -.12 1.62z" fill="#a1a1a1"/><path d="m9.85 54.28h.26c-1.11 1.72-2.55 3.2-3.67 4.91s-2.44 2.89-3.35 4.59c-.51 1-.74 2.08-1.18 3.09a1.22 1.22 0 0 1 -.41.63c-.2-.1-.27.31-.5.14a14 14 0 0 1 1-2.46 17.63 17.63 0 0 1 2.43-4c1.43-2.06 3.15-3.89 4.53-6a8.47 8.47 0 0 1 .89-.9z" fill="#a1a1a1"/><path d="m104.47 16.92a6.57 6.57 0 0 0 -1.79-.52 14.66 14.66 0 0 0 -2.57-1.28 1.65 1.65 0 0 0 -.62-.14.33.33 0 0 1 -.29-.36c0-.23.19-.24.38-.21.76.13 1.49.35 2.24.55a3.41 3.41 0 0 0 .66.22 2 2 0 0 1 1.74.84 12.18 12.18 0 0 0 2 .64c.24.17.6-.07.81.23.08.12.22.22.13.39a.27.27 0 0 1 -.34.08c-.45-.18-1 .24-1.37-.18z" fill="#999"/><path d="m43.11 10.37a.5.5 0 0 0 .38.26 18.25 18.25 0 0 0 -2 2.41c-1.22 1.53-2.28 3.19-3.5 4.72a1.57 1.57 0 0 0 -.52 1.32c0 .12-.11.27-.16.4-.49-.08-.15-.57-.39-.77a4.33 4.33 0 0 1 .87-1.4c.92-1.15 1.73-2.37 2.6-3.56a33.6 33.6 0 0 1 2.72-3.38z" fill="#a1a1a1"/><path d="m97.41 20.38c-.32-.08-.25-.34-.25-.56 0-.63 0-1.25 0-1.88.08-2 .16-4.05.26-6.08 0-.22 0-.57.27-.56s.28.35.28.6c0 2.48-.37 4.93-.51 7.4-.04.36-.04.7-.05 1.08z" fill="#a1a1a1"/><path d="m80.47 55.82a4.89 4.89 0 0 1 -.65-1.29c.31-.28.4 0 .5.21 1.14 2.12 2.05 4.34 3 6.54a22.93 22.93 0 0 1 1.18 2.18 1.6 1.6 0 0 1 .19.66c-.34-.11-.42-.45-.66-.6-.56-1.39-1.38-2.65-2.06-4a3.73 3.73 0 0 1 -.58-1.39c0-.55-.54-.88-.81-1.33a1.06 1.06 0 0 1 -.11-.98z" fill="#a1a1a1"/><path d="m122.19 21c0 .31.12.43.4.42h.76a32 32 0 0 1 -4.47.71 1.35 1.35 0 0 1 -1-.29c-.63-.48-1.24-1-2-1.61a2.21 2.21 0 0 1 1.41.72 1.49 1.49 0 0 0 1.41.42c1.16-.32 2.36.03 3.49-.37z" fill="#adadad"/><path d="m36.94 18.71c.18-.09.34-.11.37.15s0 .41 0 .62a2.31 2.31 0 0 1 -1 1.26 2.24 2.24 0 0 0 -1 1.45 2 2 0 0 1 -.65.5l-.13.13c-.2.07-.34.45-.63.14q1.52-2.11 3.04-4.25z" fill="#9e9e9e"/><path d="m92 77.78-.27.25a48.61 48.61 0 0 1 -3.2-6.47 51.12 51.12 0 0 1 3.47 6.22z" fill="#a1a1a1"/><path d="m157.09 25.27c-.46.13-.34-.44-.63-.51-.45-.61-.72-1.37-1.46-1.74-.16-.07-.21-.25 0-.33.77-.31.4-.79.18-1.24a2.25 2.25 0 0 0 -.64-.7c-.09-.07-.18-.16-.12-.27s.23-.09.33 0a1.57 1.57 0 0 1 .42.39 4.05 4.05 0 0 1 1 2.56c0 .53.46.84.65 1.29z" fill="#adadad"/><path d="m86.63 68.53a6.78 6.78 0 0 1 -.63-1.29 3 3 0 0 1 -.66-1.24l-.25-.38c0-.13-1.56-3.48-.66-1.66.09.18.13-.34.2-.22.58 1.11 2.07 4 2.63 5.14.17.32 1.73 2.73 1.66 3.24a30.89 30.89 0 0 1 -2.29-3.59z" fill="#a1a1a1"/><path d="m61.46 13.2c-.35-.53-.11-.77.4-1s1 .05 1.4-.28a2.66 2.66 0 0 1 -.13 2.94l.07-.49c-.4 0-.41.88-1 .37.27-.42.88-.57.9-1.1 0-.26.12-1.33-.17-1.45a2.59 2.59 0 0 0 -1.53.38c-.07.12.27.67.06.63z" fill="#adadad"/><path d="m99.59 68.79a1.63 1.63 0 0 1 -.44-1.79c.08-.16.18-.14.3 0a1.17 1.17 0 0 0 1 1.55c.23 0 .45.09.36.39a.36.36 0 0 1 -.54.27c-.2-.13-.44-.29-.68-.42z" fill="#adadad"/><path d="m1 67.64c.17-.23.21-.54.51-.71.17.2 0 .39 0 .57a9.28 9.28 0 0 1 -.9 1.88c-.13.14-.24.34-.46.2s-.15-.32-.09-.51c.18-.57.72-.9.94-1.43z" fill="#999"/><path d="m94.07 67.12v-.94c.35.39.16.91.39 1.32a6.12 6.12 0 0 0 .13 1.41 2.59 2.59 0 0 1 -.13 1c-.07-.07-.17-.1-.24-.17a.38.38 0 0 0 .11.3c-.64.21-.61-.25-.65-.65.64-.65.32-1.49.39-2.27z" fill="#adadad"/><path d="m185.75 44.26c.06.17.23-.36.26-.1a32.31 32.31 0 0 1 -.35 5c-.07.38-.17.43-.27 0-.28-1.16.33-3.78.36-4.9z" fill="#a1a1a1"/><g fill="#adadad"><path d="m156.34 18.07a.67.67 0 0 1 -.25.64c-.21-.42-.44-.83-.63-1.25-.11-.23-.2-.49.11-.67l.27.38a4 4 0 0 1 .5.9z"/><path d="m61 18.72c.18 0 .38.09.5-.13l1 1.92-.39.14c-.05.07-.09.07-.12 0v-.13c-.27-.44-.83-.62-1-1.15-.09-.22-.27-.37.01-.65z"/><path d="m93.43 71.48c-.25-.11-.6-.23-.32-.57a.83.83 0 0 1 1-.37c.27.11.15.29 0 .43-.52-.16-.54.25-.68.51z"/><path d="m105.5 17.18c.3.06.6.2.88-.11s.39.22.66.06c-.13-.37-.53-.3-.77-.47.4 0 1-.05 1 .45s-.59.27-.92.32a.89.89 0 0 1 -.85-.25z"/><path d="m52.49 83.17c-1.3-.11-2.58.22-3.87.12a20.39 20.39 0 0 1 2.38-.24c.41-.06.84-.08 1.26-.1.2 0 .45-.13.5.21z"/><path d="m62.73 16.57.14-.42.64 1.29a.48.48 0 0 1 -.37.24 2.76 2.76 0 0 1 -.41-1.11z"/><path d="m185.25 51.35c-.31.57.08-1.91.08-1.92a1.53 1.53 0 0 1 .14-1.09s.14 0 .15.06c.11.38 0 2.69-.37 2.95z"/><path d="m103.18 78c.87 0 1.7-.42 2.58-.13a5 5 0 0 1 -2.58.13z"/><path d="m106.77 77.25c.14 0 .31 0 .43.19-.33.09-.63.27-.93 0z"/><path d="m191.26 26.55a5.82 5.82 0 0 1 .25-2.31 16.32 16.32 0 0 1 -.25 2.31z"/><path d="m94.07 78.54c-.58.09-1.2.44-1.67-.25.51.41 1.11.2 1.67.25z"/><path d="m191 25.52a2.88 2.88 0 0 1 -.13 1.54 3.49 3.49 0 0 1 .13-1.54z"/></g><path d="m45.16 29.76-.51-.13c1.35-1.13 2.42-2.52 3.79-3.63a41.61 41.61 0 0 1 3.77-3 7.6 7.6 0 0 0 1.42-1 22.45 22.45 0 0 1 4.58-3.35c.66-.42 1.28-.92 2-1.31-.06.13-.12.27-.19.4s-.17.42.21.35a.52.52 0 0 1 .63.41c-.7.22-1.37.5-2 .78a8.91 8.91 0 0 0 -2.07 1.31 4.28 4.28 0 0 1 -1.9 1.18.43.43 0 0 0 -.35.24 1.37 1.37 0 0 1 -.71.59l-.12.13a3.77 3.77 0 0 1 -1.54 1.16 20 20 0 0 1 -3 2.78 28.37 28.37 0 0 0 -2.92 2.46 1.08 1.08 0 0 1 -.47.28l-.26.25c-.18.04-.19.2-.36.1z" fill="#a1a1a1"/><path d="m85.34 66a4.8 4.8 0 0 1 .66 1.24 1.2 1.2 0 0 1 -.66-1.24z" fill="#adadad"/><path d="m59.93 15.75a1.63 1.63 0 0 0 0 .66c-.31-.7-1-1.17-1.28-1.88-.08-.18-.28-.43 0-.56s.41.16.49.37a4.32 4.32 0 0 0 .79 1.41z" fill="#adadad"/><path d="m34.89 23.08a1.59 1.59 0 0 1 -.82 1.26 2.22 2.22 0 0 1 .82-1.26z" fill="#adadad"/><path d="m34.63 22.69a.74.74 0 0 1 .65-.5 1.42 1.42 0 0 1 -.39.89.56.56 0 0 0 -.26-.39z" fill="#adadad"/><path d="m94.33 70.07c-.79-.32-.22-.69 0-1.14.25.37.12.7.16 1z" fill="#adadad"/><path d="m178.93 85.09-.54-.23h2a3.55 3.55 0 0 1 -1.47.24z" fill="#adadad"/><text fill="#1d1d1b" font-family="BaskervilleMTPro-Regular, Baskerville MT Pro" font-size="10" transform="translate(61.3 73.65)">ni<tspan letter-spacing=".01em" x="7.81" y="0">g</tspan><tspan x="12.6" y="0">ht</tspan></text><text fill="#1d1d1b" font-family="BaskervilleMTPro-Regular, Baskerville MT Pro" font-size="10" transform="translate(161.23 73.65)">d<tspan letter-spacing="-.01em" x="5.21" y="0">a</tspan><tspan x="9.8" y="0">y</tspan></text></svg>