<svg viewBox="0 0 60.49 47.98" xmlns="http://www.w3.org/2000/svg"><path d="m24.85 19.22-.12-.22c-.16-.14-.17-.36-.24-.55a1.23 1.23 0 0 0 -.85-.93 4.6 4.6 0 0 1 -1.15-.58.44.44 0 0 1 .16-.57.55.55 0 0 1 .66.12c.31.27.6.55 1 .31-.06.06.07-.07.06 0s0 0 .05 0 .1.07 0 0-.27-.1-.38-.2a.57.57 0 0 1 -.11-.75c.12-.24.37-.19.59-.11a2.88 2.88 0 0 1 1 .8c0-.22.11-.39.36-.41a.22.22 0 0 1 .23.06c.44.17.8.38.71.94a5.36 5.36 0 0 0 -.27 1.31c0 .39-.09.43-.51.45a.84.84 0 0 1 .52.87c-.05-.19 0-.4-.16-.58a.24.24 0 0 1 0-.36c.25-.26 1.06-.13 1.17.22a1.15 1.15 0 0 1 0 1.08c-.16.21 0 .44-.14.62a4 4 0 0 0 -1.43 2.86c0 .17.11.24.18.35.23.31.37.71.82.78.34.28.21.61.11.95-.06.13-.19.15-.3.2s-.26.26-.45.3a.71.71 0 0 0 -.9.31.38.38 0 0 1 -.24.18c-.2 0-.23-.2-.36-.38a1.1 1.1 0 0 0 .2.31c.08.11.3 0 .31.25a1 1 0 0 1 -1 .51 1.25 1.25 0 0 0 -.87.05.65.65 0 0 1 -.76-.24c-.16-.21-.07-.45.1-.69a2.46 2.46 0 0 0 .68-1.28.32.32 0 0 1 .15-.24.84.84 0 0 0 .3-1c.23-.51.06-1.12.38-1.61.05-.09.08-.18.17-.23a1.31 1.31 0 0 0 1.09-1.41.94.94 0 0 1 0-.29c.23-.42.06-.67-.34-.84a.94.94 0 0 1 -.42-.36z" fill="#696969"/><path d="m57 35a21.51 21.51 0 0 1 -3.1 4 6.75 6.75 0 0 1 -2.42 1.87 1.37 1.37 0 0 0 -.23.19c-.3.37-.79.4-1.15.65-.64.17-1 .72-1.39 1.15a.7.7 0 0 1 -1-.14c-.37-.43.06-.61.18-.9s.54-.16.72-.4a7.08 7.08 0 0 0 3-2 8.9 8.9 0 0 1 1.62-1.4 9.49 9.49 0 0 0 1.61-2 6.69 6.69 0 0 0 .61-1.02.3.3 0 0 1 .12-.13c.19-.1.45-.09.5-.4a.33.33 0 0 1 .33-.3c.21 0 .24.19.33.32s.09.36.27.51z" fill="#7c7c7c"/><path d="m54.84 3.29c.13.16.4 0 .51.23.21.39.37.81.57 1.21l.48.48a.7.7 0 0 1 .56.33 11.34 11.34 0 0 1 1.41 2.55 2.1 2.1 0 0 1 .3.74 2.31 2.31 0 0 1 .25.81c.09.07.22.11.22.26s-.38.34-.56.52-.35.38-.63.25a.85.85 0 0 1 -.51-.68 2.82 2.82 0 0 1 0-.71c0-.29-.15-.33-.37-.32s-.22-.11-.19-.2c.15-.55-.21-.88-.52-1.22s-.46-1-.77-1.51a8.62 8.62 0 0 0 -.93-1.21 1.24 1.24 0 0 1 -.44-1.15c0-.35.21-.44.48-.48a.21.21 0 0 1 .14.1z" fill="#797979"/><path d="m16.92 3.87a3.78 3.78 0 0 0 -2 1.18 20.73 20.73 0 0 0 -2.08 1.66l-.24.29c-.14.09-.3.12-.37.33a1.11 1.11 0 0 1 -.75.82c-.17 0-.17.23-.24.36s-.26.59-.62.65c-.39-.23-.75.07-1.13.06-.19 0-.4.11-.48-.18a20.41 20.41 0 0 1 3.37-3.33c.5-.4 1-.82 1.5-1.18a13.77 13.77 0 0 1 2.57-1.37c.37-.06.78-.16.72.46-.02.14-.17.19-.25.25z" fill="#9a9a9a"/><path d="m25.44 13.36.12-.12c.36-.4.93-.47 1.31-.89a15.41 15.41 0 0 0 1.39-1.62c.22 0 .42-.17.65-.07a.53.53 0 0 1 .23.17.44.44 0 0 1 0 .48.38.38 0 0 0 .05.45c.42.39.15.66-.19.84a.58.58 0 0 0 -.4.57c0 .4-.37.6-.64.84a8.08 8.08 0 0 1 -1.73 1c-.17.11-.17.36-.35.45-.45.1-.61-.38-1-.48a.56.56 0 0 0 -.28.1 1.2 1.2 0 0 0 -.45.15s-.12 0-.1.1c.09.35.05.65-.36.75-.75.17-.95.09-1.15-.43a2.86 2.86 0 0 0 -.24-.42.35.35 0 0 1 0-.18c.11-.42.49-.55.81-.72s.51-.29.78-.42a2.92 2.92 0 0 0 1.55-.55z" fill="#646464"/><path d="m36.23 16-1 2.18c-.35-.12-.11-.36-.1-.54s.19-.62-.13-.87c-.43-.05-.82.19-1.27.06s-.47-.2-.49-.51a.42.42 0 0 1 .1-.32 2 2 0 0 0 .81-.85.57.57 0 0 0 0-.79c-.06-.22-.33-.35-.26-.62.32-.32.59-.69.9-1 .12-.13.3-.25.4-.09.21.33.64.61.63 1 0 .6.29 0 .34.12a1.18 1.18 0 0 1 .18 1.1 2.66 2.66 0 0 0 -.11 1.13z" fill="#6a6a6a"/><path d="m1.3 21.5a4.88 4.88 0 0 0 .39-1.17 14.63 14.63 0 0 1 1.7-4 .44.44 0 0 1 .57.18 4.14 4.14 0 0 1 -.24 1.49 2.77 2.77 0 0 1 .59-1.35c.19-.15.32-.43.65-.3.18.14.06.32.09.49a9.2 9.2 0 0 0 -.85 2 3.37 3.37 0 0 1 -.6 1.45 4.08 4.08 0 0 0 -.6 1.25c-.27-.07-.33-.25-.29-.5a2.83 2.83 0 0 0 .06-.67.58.58 0 0 0 -.37.52 2.07 2.07 0 0 1 -.3.77.38.38 0 0 1 -.44.21c-.22-.04-.44-.1-.36-.37z" fill="#717171"/><path d="m5.05 16.85-.13-.37c-.28-.33-.48-.66 0-1 .28-.16 0-.34 0-.51s0-.41.09-.61c.86-.17 1-1.06 1.56-1.56a4.07 4.07 0 0 0 .51-.53c-.32.2-.53.62-.88.92-.14.12-.21.3-.42.22s-.19-.27-.17-.45.2-.34.35-.47a1.28 1.28 0 0 1 .41-.49c.26-.2.27-.6.6-.74a3.15 3.15 0 0 1 .85-.93c.27-.09.55.05.83-.06a.29.29 0 0 1 .42.24.75.75 0 0 1 0 .16c-.33.72-1 1.17-1.41 1.84s-.7 1.14-1 1.74a5.37 5.37 0 0 1 -.58 1 3.17 3.17 0 0 0 -.6.92 2.43 2.43 0 0 1 -.43.68z" fill="#6d6d6d"/><path d="m1.83 27.74v1.94c-.05.06-.14.13-.12.2a18.64 18.64 0 0 1 .11 2.48 1.35 1.35 0 0 1 -.15.8c-.53.1-.48.59-.61 1-.36.16-.52 0-.53-.35a6.41 6.41 0 0 0 -.31-1.43c-.12-.49.11-1 0-1.44.54-.39.4-1.05.55-1.57a5.35 5.35 0 0 1 .88-1.57z" fill="#717171"/><path d="m1.56 33a19.47 19.47 0 0 0 0-3.24c0-.09-.13-.25.08-.26s.12.09.18.14c.06 1 .07 2 .2 3a11.07 11.07 0 0 0 .49 1.77c.16.78.68 1.43.82 2.22a.4.4 0 0 1 -.49.35 4.13 4.13 0 0 1 -1-1.31 6.85 6.85 0 0 1 -.42-1.59.6.6 0 0 1 .14-.48c.13-.13-.18-.36 0-.6z" fill="#676767"/><path d="m7.44 43.85-.83-.5c.07-.34-.4-.49-.29-.84s.82-.28 1.13-.6a.57.57 0 0 1 .43.15 18.25 18.25 0 0 1 1.52 1.24 1.57 1.57 0 0 1 -.07.49c-.24.59-.51.65-1 .26-.25-.19-.52-.45-.89-.2z" fill="#6d6d6d"/><path d="m50 .29c.84.4 1.72.71 2.52 1.19.24.36.3.7-.12 1a12.45 12.45 0 0 1 -2-1.14c-.15-.09-.27-.24-.47-.2-.29-.35-.17-.61.07-.85z" fill="#acacac"/><path d="m3 21.54a3.56 3.56 0 0 1 -.26 1.16c-.49 1.5-.57 3.1-.94 4.63a1.86 1.86 0 0 0 0 .41c-.63.1-.77-.07-.65-.66.17-.83.45-1.63.56-2.47a6.18 6.18 0 0 0 0-1.36c-.06-.74.53-1.16.7-1.78.08-.32.39-.09.59 0z" fill="#6c6c6c"/><path d="m35.17 16.6c.4.21.23.54.18.84s-.11.51-.17.76v.19c.11.53-.34.65-.65.81a1.11 1.11 0 0 1 -1.06.06c-.21-.11-.5-.22-.41-.5a.69.69 0 0 1 .73-.55.51.51 0 0 0 .23-.15c.37-.16.7-.35.6-.85s.05-.71.55-.61z" fill="#5e5e5e"/><path d="m50 .29-.12.82c-.54-.38-1.28-.11-1.88-.46a.66.66 0 0 0 -.57-.13c-.23.06-.46 0-.27-.36a2.63 2.63 0 0 1 1.44-.16 5.79 5.79 0 0 1 1.4.29z" fill="#a2a2a2"/><path d="m9 10.62v-.14a.45.45 0 0 0 -.56-.26c-.27.07-.48 0-.44-.32a1.54 1.54 0 0 0 .9-.85h.1c.51-.2 1-.55 1.56-.11z" fill="#919191"/><path d="m47.16.16c.25.23.69.11.84.49a3.38 3.38 0 0 0 -1.68.75c-.14.12-.23.34-.48.21s-.39 0-.48-.25.15-.45.36-.6z" fill="#a9a9a9"/><path d="m54.72 3.29-.52.38c-.44.08-.68-.21-.93-.49a2.86 2.86 0 0 0 -.21-.58c-.09-.15-.18-.31-.05-.48s.32 0 .48 0 .21.23.38.26a1.39 1.39 0 0 1 .85.91z" fill="#727272"/><path d="m53.88 2.44c-.19 0-.31-.23-.55-.22l-.06 1c-.14-.4-.67-.35-.83-.73s.06-.65.12-1a6.26 6.26 0 0 1 1.31.85s.05 0 0 .07.02.03.01.03z" fill="#898989"/><path d="m45.72.76c-.5.36.07.56.12.85a2.25 2.25 0 0 0 -.76.45c-.13.11-.29.28-.46.08a.37.37 0 0 1 0-.49c.3-.32.63-.6.94-.89z" fill="#c7c7c7"/><path d="m8 9.91c.37.11.89 0 1 .57a.34.34 0 0 0 -.38.09c-.14.17-.23.46-.53.36s-.17-.44-.27-.65l.11-.37.07-.08z" fill="#787878"/><path d="m17.4 2.69c.3.47.05.74-.35 1a2 2 0 0 0 -.6-.49 1.82 1.82 0 0 1 .95-.51z" fill="#a4a4a4"/><path d="m7.21 41.67h.1l.14.23c0 .67-.52.61-1 .61h-.08c-.07-.65.14-.86.84-.84z" fill="#797979"/><path d="m58.67 16.6v-.34c0-.68.26-1.37-.06-2.05a1.12 1.12 0 0 1 .66-.93.28.28 0 0 1 .32.16c.09.44.47.81.36 1.32a.65.65 0 0 0 .19.52 6.81 6.81 0 0 0 .28 1.56c.13 1-.13 2.09.09 3.12-.21.5-.28 1.05-.47 1.55h.06a8.46 8.46 0 0 1 -.06 3.68 4.09 4.09 0 0 1 -.3 1.24c-.94.07-1.35-.35-1.21-1.23a9.91 9.91 0 0 1 .18-1.09.7.7 0 0 0 .13-.5 7.25 7.25 0 0 1 .16-2.12 1.55 1.55 0 0 0 -.12-1.08.77.77 0 0 1 0-.52 4.73 4.73 0 0 0 .01-1.89c-.13-.48.11-1-.22-1.4z" fill="#7b7b7b"/><path d="m59 24c0 .16-.06.31-.1.46-.34 1.28-.33 1.32.83 1.94v.12c-.28.22-.72.05-1 .4 0 0 .08.06 0 0a.58.58 0 0 1 .94 0 10 10 0 0 1 -.68 3c0 .1-.17.16-.25.24-.26.12-.31 0-.32-.24a2.6 2.6 0 0 1 .07-.8c.11-.41.08-.6-.37-.61-.15 0-.19-.13-.17-.26a2.43 2.43 0 0 1 0-.76c-.09-.61.31-1.17.16-1.78a5.5 5.5 0 0 1 .45-1.92c.38-.13.35.21.44.21z" fill="#707070"/><path d="m57 31.72a2.38 2.38 0 0 1 .13-.84 15.65 15.65 0 0 0 .87-1.88c-.09-.17-.11-.35.07-.46a.45.45 0 0 1 .45.05.34.34 0 0 1 .18.45c-.16.34 0 .73-.17 1.08-.06.15.33.19.3.44a4.5 4.5 0 0 1 -.45 1.57c-.32.24-.43-.13-.61-.2.19.34.26.66-.29.74a.44.44 0 0 1 -.23-.15c-.25-.26-.4-.52-.25-.8z" fill="#757575"/><path d="m57.48 32.44c.14-.27-.14-.43-.19-.65a.41.41 0 0 1 .06-.4c.14-.16.24 0 .34.09a2 2 0 0 1 .65.61l-.25.63c-.22.16-.19.44-.29.66a2 2 0 0 0 -.67.95c0 .12-.06.23-.2.26s-.23-.14-.29-.23a2.81 2.81 0 0 1 -.23-.71c0-.72.45-1.27.59-1.93a1.23 1.23 0 0 0 .36.6.09.09 0 0 0 0 .11.08.08 0 0 0 .12.01z" fill="#7c7c7c"/><path d="m58.79 30.52c-.36-.16-.3.19-.41.33s-.1.23-.25.21-.18-.15-.2-.26c-.08-.41-.13-.81.36-1 .18-.09.19-.85 0-1s-.3 0-.36.18c-.22-.5 0-1 .11-1.46 0 .55.06 1 .8.67.1-.05.2 0 .23.09a.82.82 0 0 1 -.08.63 1.4 1.4 0 0 0 -.2 1.28z" fill="#7f7f7f"/><path d="m60.12 15.28c-.33-.07-.6-.14-.47-.62.1-.3-.13-.61-.22-.91a.2.2 0 0 0 -.29-.12.51.51 0 0 0 -.34.57c-.22.22-.31 0-.41-.13.06-.73.32-1.42.43-2.14a.5.5 0 0 1 .68-.4c.2.1.26.26.13.44s-.05.34 0 .51a1.76 1.76 0 0 0 .24.94 2.29 2.29 0 0 1 .25 1.86z" fill="#767676"/><path d="m56.41 33.65c.28.11.34.4.52.81.15-.61 0-1.27.8-1.18 0 .41 0 .84-.46 1.09l-.27.63c-.44.18-.36-.28-.54-.46-.29.18-.35.83-.89.45a6.33 6.33 0 0 1 .84-1.34z" fill="#727272"/><path d="m59.75 26.92c-.41-.07-.74 0-.68.52 0 .14.06.29-.16.29a.29.29 0 0 1 -.29-.25c-.2-.66.05-1 .73-.93h.42z" fill="#7b7b7b"/><path d="m60.13 21.52v.81h-.18a3.1 3.1 0 0 1 .54-2.33 2.75 2.75 0 0 1 -.36 1.52z" fill="#6e6e6e"/><path d="m3 21.52c-.16 0-.31.06-.38.25a6.72 6.72 0 0 0 -.57 2.64 4.59 4.59 0 0 1 -.4 2c-.14.3-.12.62-.26.92s.25.29.41.41c-.11.33-.13.72-.51.9a.13.13 0 0 0 -.07.09c-.06.58-.25 1.14-.33 1.68s-.28.39-.52.45c-.28-.22 0-.57-.16-.8a2.33 2.33 0 0 1 .34-1.75c.38-.54 0-1.16-.06-1.74a2.13 2.13 0 0 1 .06-1.27c.2-.69.28-1.4.53-2.09a7.77 7.77 0 0 0 .12-1.21c0-.17.07-.33.1-.5.49.23.64-.13.68-.46a2.11 2.11 0 0 1 .55-1.14c.23-.28.4-.18.6-.09s.16.32.07.51a1.73 1.73 0 0 0 -.2 1.2z" fill="#7a7a7a"/><path d="m9.29 43.34c.73.3 1.25.94 2 1.23a5.16 5.16 0 0 0 1.35.86c.27.13.69.26.74.46.19.69.63.67 1.2.7a2.12 2.12 0 0 1 1.28.71c.13.11.31.2.21.42s-.44.25-.7.26a7.53 7.53 0 0 1 -2.63-1 17.17 17.17 0 0 0 -2.64-1.33c-.2-.08-.33-.27-.52-.38a17.85 17.85 0 0 1 -2.12-1.32s0-.06 0-.09a1.08 1.08 0 0 1 .39-.72 1.46 1.46 0 0 0 .75.81c.46.21.4-.49.69-.61z" fill="#666"/><path d="m.36 30.05a1.56 1.56 0 0 1 0 .83 8.52 8.52 0 0 0 .64 3.12.22.22 0 0 1 .15.08 5.08 5.08 0 0 0 1 2.16.34.34 0 0 1 .09.27 2.24 2.24 0 0 0 .76 1.85 8.51 8.51 0 0 1 1.15 1.53c.09.33.46.33.65.55.54.25.65.88 1.07 1.24s.5.23.58.84l.2.14c.13.1.39.1.37.33s-.25.28-.44.36a6.3 6.3 0 0 1 -1.88-1.69 16 16 0 0 0 -1.3-1.3 8.75 8.75 0 0 1 -2.18-3.44 17.23 17.23 0 0 1 -.77-1.92c-.15-.86-.33-1.73-.45-2.6a2.87 2.87 0 0 1 .07-1.13c0-.38.13-.75.08-1.13.03-.08.13-.14.21-.09z" fill="#676767"/><path d="m.36 30.05-.25 1.22a22.8 22.8 0 0 1 .11-5.35c.22.17.27.48.5.64a7.57 7.57 0 0 0 .32 1 1 1 0 0 1 -.2 1.15 1.63 1.63 0 0 0 -.48 1.34z" fill="#717171"/><path d="m.72 26.56c-.24.16-.46.29-.47-.17 0-.16 0-.32 0-.47a11.59 11.59 0 0 1 .69-2.63c.21-.38-.12-.93.29-1.29a3.19 3.19 0 0 1 -.13 1.86c-.19.67-.34 1.34-.49 2-.09.26.2.44.11.7z" fill="#696969"/><path d="m24.84 14.67c.26-.22.49-.38.6.14 0 .17.23.31.36.47.29 0 .34-.23.24-.48l1.8-1.08a.3.3 0 0 0 .46-.05c.3-.43.8-.42 1.23-.53s.71.14.81.89c-.06.48-.13.88-.71 1.12a4.16 4.16 0 0 0 -1.48 1.07.49.49 0 0 0 0 .12c0 .35.28.32.52.32a.54.54 0 0 1 .52.29c0 .3-.2.47-.37.64a1.48 1.48 0 0 0 -.43.61.32.32 0 0 1 -.4.26.29.29 0 0 1 -.21-.44c-.22.19 0 .72-.53.77-.37 0-.52 0-.5-.42a3.07 3.07 0 0 0 0-1.17c-.45 0-.28-.58-.59-.72.06-.21 0-.46.23-.59s.41-.34.66-.47c-.24.1-.4.35-.66.47s-.18.38-.38.48c-.13.26 0 .5.06.75s0 .22-.08.26-.19-.05-.24-.13c-.25-.41-.69-.63-1-1-.13-.13-.35-.31-.52-.1s.07.35.23.46a6 6 0 0 1 .57.42.26.26 0 0 1 0 .42c-.16.15-.22 0-.31-.14l-.36-.31c-.24.11-.44 0-.65-.11a.73.73 0 0 0 -.48-.28.78.78 0 0 0 -.48-.19c-.51.05-.63-.21-.5-.64.07-.23-.08-.53.2-.7a1 1 0 0 1 .49.57c.11.43.48.18.68.14s.09-.3 0-.46.26-.32.48-.37l.49-.11c.19.06.23-.03.25-.18z" fill="#737373"/><path d="m26.76 17.2c.37.07.25.4.32.62s-.07.48.13.74c.21-.46.55-.82.27-1.38.55.14.38.64.63 1a1.45 1.45 0 0 1 .89-1.1c.1-.27 0-.66.5-.63s.67.08.55.57a.83.83 0 0 0 0 .41c.05.38-.31.4-.52.56-.46.35-.51.63-.19 1.05a.5.5 0 0 1 -.08.5 3.67 3.67 0 0 1 -1.85 1.27.2.2 0 0 1 -.24-.13c.05-.44.45-.81.24-1.32-.1-.22-.18-.41-.46-.35s-.18.29-.12.46a1.24 1.24 0 0 1 -.22 1.07.28.28 0 0 1 -.29.18c-.18 0-.17-.2-.16-.34s0-.2.05-.3c.16-.75.12-.83-.65-.94-.25 0-.17-.17-.15-.29s0-.32.24-.22c.5.21.66 0 .59-.48s.41-.61.52-.95z" fill="#797979"/><path d="m27.24 20.68c.5-.52 1.28-.66 1.75-1.23.09-.11.2-.17.17-.33s-.11-.46.18-.57.36.09.51.22a.38.38 0 0 1 0 .59c-.25.23 0 .62-.3.79a.75.75 0 0 0 -.11.53c0 .6-.43.88-1 .69-.2-.07-.33.07-.48.15s-.36.34-.55.49-.37.11-.28.38a2.05 2.05 0 0 1 .05.55c-.24.28-.39.62-.65.9s-.28.28-.51.2c-.46-.26-.17-.65-.19-1a3.18 3.18 0 0 1 1-2 1.76 1.76 0 0 1 .41-.36z" fill="#707070"/><path d="m29.76 22.24a1.36 1.36 0 0 0 -.82 1 2.76 2.76 0 0 1 -.62.93c-.32-.09-.52 0-.47.37-.34.33-.49.85-1 1a.56.56 0 0 0 0-.7.8.8 0 0 1 -.14-1.23c.07-.09.09-.22.19-.29.26-.14.4-.52.81-.38.16.05.06-.14.06-.21a1 1 0 0 1 .13-.61c.15-.08.31-.14.37-.33a1.48 1.48 0 0 1 1.33-.23c.54.12.18.44.16.68z" fill="#8c8c8c"/><path d="m23.63 27.64c-.36 0-.7.22-1.07.12-.23-.36 0-.69.09-1s.35-.75.52-1.12l1-1.59c.14.13.45.35.34.4-.34.15.19.79-.44.67a.18.18 0 0 0 -.15.08c-.12.61-.59 1-.83 1.55-.13.31.32.39.57.39a2.24 2.24 0 0 0 .62-.2c.14-.05.33-.17.41 0s-.18.22-.28.32-.54.23-.78.38z" fill="#5e5e5e"/><path d="m23.76 16.72.6.24c-.31.31-.6.11-.85-.08s-.63-.45-1 0c-.42-.34-1-.23-1.44-.48a.45.45 0 0 1 .23-.47 1.18 1.18 0 0 0 .47-.58c.12-.23.25-.6.64-.28a1.12 1.12 0 0 1 .06.35c-.15.73.32 1 .89 1.09.25-.08.36.01.4.21z" fill="#646464"/><path d="m27.12 23.45c0 .05.08.14.07.15-.44.35-.21.86-.31 1.28-.44.09-.81-.28-.84-.84l1-1.2a.24.24 0 0 1 .16.09c.07.18-.08.34-.08.52z" fill="#797979"/><path d="m24.73 22.25c.73-.38.68-1.23 1.09-1.8a2.25 2.25 0 0 1 -.89 2.05c-.24.08-.17-.13-.2-.25z" fill="#606060"/><path d="m26.4 26.07-1 .74-.4-.13c.05-.11.11-.19.24-.12.34-.66.76-.81 1.16-.49z" fill="#5e5e5e"/><path d="m25.2 26.56-.24.12c-.29-.28-.61-.56-.06-1z" fill="#7a7a7a"/><path d="m26 16.36c-.12-.28.05-.44.25-.59a.16.16 0 0 1 .24 0c.08.09 0 .16 0 .23s-.14.39-.34.49z" fill="#a9a9a9"/><path d="m59.05 9.88.13.45a.45.45 0 0 1 -.21.6c-.08.06-.17.1-.26.16-.66.43-.66.43-.92-.24-.47-.6-.33-1.4-.67-2v-.35a.85.85 0 0 1 .47 1 1.2 1.2 0 0 0 .05.53c.14.48.46.56.83.22a.89.89 0 0 1 .58-.37z" fill="#6f6f6f"/><path d="m30.13 14.08c-.11-.65-.19-.69-.8-.5a3.35 3.35 0 0 0 -1.07.3c-.14.1-.3 0-.42-.16.55-.2.51-.59.32-1-.06-.16-.25-.3-.09-.48s.33-.05.5 0 .29.15.38 0-.1-.23-.21-.28c-.41-.2-.35-.42 0-.67a3.59 3.59 0 0 0 .26-.29c.27-.44.49-.3.7 0 .07.13.22.15.33.23.28.19.68.23.68.59-.25-.47-.24-.55.33-.79.22-.09.15-.3.26-.42s.28 0 .32-.2a.37.37 0 0 1 0-.23c.26-.49.79-.48 1.23-.64a.28.28 0 0 1 .38.26c-.05.53.36.8.59 1.17.06.1.13.17.1.29l-.07.09a.74.74 0 0 1 .13-.12c.33 0 .22.26.31.41a2 2 0 0 0 .29.4c.45.65.32 1.09-.42 1.37 0 0-.06.05-.09.08-.29.13-.45.06-.59-.25-.33-.72-.93-.86-1.61-.22a1.09 1.09 0 0 1 -.46.22 1 1 0 0 0 -.81.63c-.05.21-.14.53-.47.21z" fill="#6a6a6a"/><path d="m34.32 11.68-.32-.36c-.21-.56-1-.75-1-1.55-.33.41-.76.26-1.08.47a4.86 4.86 0 0 0 -1.92.87c-.16.08-.29.23-.49.21-.11-.18-.14-.46-.47-.36l-.14-.15a8.35 8.35 0 0 1 1.83-1.28 12.73 12.73 0 0 1 2.07-.24c.44 0 .7.2.76.58a1.67 1.67 0 0 0 .67 1.13.83.83 0 0 1 .26.65.11.11 0 0 1 -.17.03z" fill="#5d5d5d"/><path d="m22.44 15c-.44.05-.31.56-.63.78a7 7 0 0 1 -.71.55c-.34 0-.58-.07-.55-.48a2.8 2.8 0 0 0 1.5-1.1 2.94 2.94 0 0 1 1.84-.75c-.18.39-.6.43-.9.64a1.84 1.84 0 0 0 -.55.36z" fill="#5b5b5b"/><path d="m24.12 14.92a.84.84 0 0 1 -.48.37c-.12 0-.31 0-.32-.19s.17-.16.3-.2a.66.66 0 0 1 .5.02z" fill="#898989"/><path d="m26 14.8c.18 0 .34.12.19.31s-.18.42-.43.17z" fill="#929292"/><path d="m24.84 14.67a.24.24 0 0 1 0 .4c-.08.07-.17.14-.26.06s0-.21 0-.32z" fill="#959595"/><path d="m30.49 13.6c.3-.26.82-.38 1-.66.28-.55.82-.47 1.2-.73s.49-.28.72.17.55.6.71 1a.3.3 0 0 1 0 .48 1.11 1.11 0 0 1 .35.48c-.36.13 0 .56-.28.71s-.41-.19-.49-.39a.62.62 0 0 0 .48.48 1.29 1.29 0 0 1 .17.16 1.12 1.12 0 0 1 -.84.84c-.25 0-.25 0-.12.24.39.31.78.47 1.22.08.25-.22.43-.05.59.16-.38.14-.36.41-.24.72s-.19.36-.39.28a5.69 5.69 0 0 0 -1.57-.17c-.45 0-.82-.3-1.26-.38s-.5-.72-.38-1.08a2 2 0 0 0 .12-.77c0-.08.08 0 0 0s0 0 0 .06c.07.59-.18 1.16-.08 1.75a.23.23 0 0 1 -.14.25c-.43.08-.83.42-1.3.16 0-.13 0-.27 0-.4s-.1-.27-.26-.27-.14.14-.17.25c-.08.29-.23.21-.38.06l-.48-.24a4.51 4.51 0 0 1 -.6-.48v-.12a5.57 5.57 0 0 1 1.74-1.24c.12 0 .3 0 .3-.18 0-.35.33-.48.46-.74.14-.11.34-.07.53-.19-.2.08-.36.17-.51 0s-.02-.2-.1-.29z" fill="#737373"/><path d="m34.09 13.84v-.48s0-.09 0-.11c.73-.44.73-.44.3-1.29 0-.09-.06-.18-.1-.28h.17a10.8 10.8 0 0 1 1.64 2.16c0 .57 0 .53-.26.57a.42.42 0 0 1 -.51-.59c.28-.46-.13-.6-.29-1a2.31 2.31 0 0 1 -.95 1.02z" fill="#606060"/><path d="m34.08 14.92c0-.21-.27-.42-.06-.65s.29 0 .42.05a1 1 0 0 1 -.12 1h-.24c-.08-.16-.15-.27 0-.4z" fill="#7f7f7f"/><path d="m33.36 16.36c-.12 0-.29.08-.34-.09s.09-.24.2-.31.23 0 .26.16z" fill="#858585"/><path d="m29.76 22.24c-.1-.12 0-.55-.37-.24-.17.13-.31.15-.46 0s-.32-.07-.47 0c-.23-.15-.3-.47-.6-.53v-.08c-.05-.19-.08-.31.22-.34s.64.35 1 0 0-.7.23-1c.11 0 .23-.06.34 0a.58.58 0 0 1 .17.18c.16.46 0 1 .47 1.39z" fill="#7e7e7e"/><path d="m30.26 21.65c-.51.06-.68-.22-.67-.67 0-.22 0-.44.05-.66s.16-.3.37-.24a2 2 0 0 1 .71.25c.38.4-.1.73-.07 1.09l-.06.1z" fill="#6a6a6a"/><path d="m27.85 24.53c-.24-.18-.21-.37 0-.53s.4-.15.47.16z" fill="#747474"/><path d="m4.71 14.47c3-4.2-.1.25.46.49.33.12.36.39.13.57a1.22 1.22 0 0 0 -.37.86 1.24 1.24 0 0 0 -.48.36c-.28.33-.43.06-.6-.12s-1.5 1.15.86-2.16z" fill="#787878"/><path d="m3.84 16.72c.29-.37.47-.24.6.12a9.27 9.27 0 0 0 -.55 1.69c0 .31-.29.35-.54.37s-.33 0-.36-.24-.1-.5.2-.62a.48.48 0 0 0 .31-.67c-.1-.31.23-.43.34-.65z" fill="#828282"/><path d="m5.28 14.44c0-.16-.15-.49-.15-.49l.43-.8.21-.15c.05.07.15.13.2.06.35-.53 1.11-.73 1.2-1.48 0-.14.1-.3.27-.25s.15.21.11.36a2.66 2.66 0 0 1 -.64 1.31c-.43.39-.42 1.08-1 1.32-.21.06-.39.2-.63.12z" fill="#787878"/><path d="m57.79 10.85c.12.06.21.32.29.25.32-.33.8-.42 1.1-.77a5.67 5.67 0 0 1 .21 1.36c-.2.15-.37.34-.3.59.21.73-.22 1.2-.64 1.68-.06 0-.05.13-.14.15h-.1z" fill="#7b7b7b"/><path d="m1 34.12s0-.12 0-.12c0-.44 0-.89.6-1a1 1 0 0 1 .24.72c-.13.12-.37 0-.43.31s-.29.26-.41.09z" fill="#838383"/><path d="m1 34.12c.24-.21.4-.61.83-.36a.42.42 0 0 0 0 .67s.09 0 .09.07c0 .9.83 1.49.86 2.38.66.14.88.7 1.11 1.22.08.17.23.29.29.46a3.26 3.26 0 0 1 .43 1.08c0 .49-.16.59-.63.36a22.17 22.17 0 0 1 -2-2.54 2 2 0 0 1 -.24-.82 3.18 3.18 0 0 0 -.51-1.11 1.62 1.62 0 0 1 -.23-1.41z" fill="#737373"/><path d="m4 38.56c-.46-.07-.2-.54-.41-.76s-.53-.61-.79-.92a.91.91 0 0 0 .49-.24v.12c.3.48.6 1 .91 1.44l.38.72c-.49.4-.37-.31-.58-.36z" fill="#636363"/><path d="m59 24-.36-.24a10.58 10.58 0 0 1 .09-2.25c.09-.81-.14-1.62 0-2.44a9.12 9.12 0 0 0 -.17-2.27v-.23h.08c.18.06.38.19.35.36-.09.61.31 1.18 0 1.8-.16.35.06.69.16 1 0 .13.34.38-.13.35-.15 0-.08.16 0 .22a1.64 1.64 0 0 1 .11 1.5 10 10 0 0 0 -.13 2.2z" fill="#707070"/><path d="m29.52 20.2-.24-.12c.31-.25.16-.68.36-1 0 0-.05-.16-.1-.18-.21-.1-.27.09-.38.2-.24-.21-.25-.53-.38-.79s0-.28.18-.36l.93-.53c.32-.18.6-.39.57-.8.36-.05.22.32.43.39a.3.3 0 0 0 .2-.41c-.4-.51.11-.87.17-1.29a.41.41 0 0 1 .46-.37c.1 0 .22 0 .26.08s-.06.15-.14.21a1.11 1.11 0 0 0 .2 1.59c.21-.14-.18-.31.05-.47.24 0 .52.16.58.4a.49.49 0 0 0 .68.36 1.31 1.31 0 0 1 1.23.17.8.8 0 0 0 .35 0c.21.58-.23 1-.89.94-.08 0-.11 0-.1.1a.45.45 0 0 1 -.3.24c-.39.08-.35.28-.16.53-.29 0-.55.25-.86.13-.16-.4-.55-.11-.8-.26s-.31-.47-.65-.4-.29.35-.32.61c-.07.52-.63.57-.94.86a.75.75 0 0 1 -.39.17z" fill="#6a6a6a"/><path d="m33.94 18.36a1.35 1.35 0 0 1 -.34.06.26.26 0 0 1 -.28-.18.28.28 0 0 1 .09-.27.26.26 0 0 1 .33 0 4 4 0 0 1 .3.28z" fill="#b7b7b7"/><path d="m31.92 18.88c.26.08.66-.09.7.38-.6-.22-.82.26-1.07.62a2.92 2.92 0 0 0 -.5 1.07.55.55 0 0 1 -.4.47c-.25-.06-.35-.18-.2-.42a1 1 0 0 0 .15-.56.65.65 0 0 1 .1-.76 4.68 4.68 0 0 0 .45-.62.47.47 0 0 1 .77-.18z" fill="#646464"/><path d="m4 38.56c.22.12.37.34.63.36l.9.86c.65.56.94 1.45 1.72 1.89-.28.25-.73.36-.72.85-.09-.39-.59-.37-.73-.72-.16-.75-.49-1.12-1.08-1.2a1.06 1.06 0 0 1 -.72-.6c.38-.1.37-.37.28-.66z" fill="#6d6d6d"/><path d="m58.31 14.11c0-.09 0-.2.09-.25l.05.1.35.24a2.4 2.4 0 0 1 -.15 2.06 2.4 2.4 0 0 1 -.13-1 2 2 0 0 0 -.21-1.15z" fill="#6d6d6d"/><path d="m57.48 32.44c.06.2.09.39-.13.51a.17.17 0 0 1 -.14-.07.4.4 0 0 1 .15-.56z" fill="#909090"/><path d="m4.68 40.6c.54-.4.76-.34 1 .33.08.28.5.53.12.87a11 11 0 0 0 -1.12-1.2z" fill="#797979"/><path d="m30.49 13.6.12.24c.14.09.27.17.12.36s.34.32-.18.62a11.06 11.06 0 0 0 -2.55 1.42.8.8 0 0 1 -.16.08c-.14.06-.27.21-.43.09a.24.24 0 0 1 -.06-.22c.06-.22.24-.22.43-.2.51 0 .76-.41 1.13-.62.54-.31 1.12-.58 1.26-1.29a.53.53 0 0 0 .32-.48z" fill="#797979"/><path d="m26.51 16-.22-.22c.42-.28.84-.55 1.25-.87-.15.55-.66.75-1.03 1.09z" fill="#898989"/><path d="m28 16.36c.33 0 .56.12.6.48-.09.08-.13.35-.33.1a.86.86 0 0 1 -.27-.58z" fill="#797979"/><path d="m23.76 16.72-.36-.24c.11-.13.11-.45.38-.3s.13.36-.02.54z" fill="#696969"/><path d="m27 23v-.12c0-.2-.05-.39-.07-.59s.11-.46.43-.37h.09c.21.2.38.41.16.7s-.23.53-.61.38z" fill="#7e7e7e"/><path d="m27.36 21.88c.1-.22.06-.58.48-.48.13.08.26.16.22.35-.18.35-.41.47-.71.13z" fill="#7e7e7e"/><path d="m27.37 21.89a.77.77 0 0 0 .6-.25c.52.1.19.47.23.72a.37.37 0 0 0 .18.58.38.38 0 0 1 .14.56c-.15.25-.38.15-.55 0a.6.6 0 0 0 -.85 0c0-.16-.08-.33-.11-.49a1.39 1.39 0 0 0 .36-1.12z" fill="#959595"/><path d="m28.2 22.36-.2-.72-.11-.23c.41 0 .57.21.6.59z" fill="#a5a5a5"/><path d="m30 11.42a9 9 0 0 1 1.45-.81s.07.05 0 .07a.05.05 0 0 1 0 0 1.44 1.44 0 0 0 -.29 1.61.18.18 0 0 1 -.13.23c-.14 0-.14-.09-.19-.17a2.53 2.53 0 0 0 -.84-.93z" fill="#5e5e5e"/><path d="m31.44 10.72v-.11l.45-.14c.17 0 .43-.16.46.07s-.25.25-.44.26a2.72 2.72 0 0 1 -.47-.08z" fill="#5d5d5d"/><path d="m34 11.32a.92.92 0 0 1 -1 .27 2.47 2.47 0 0 1 1-.27z" fill="#5d5d5d"/><path d="m30.73 14.2-.12-.36a1.17 1.17 0 0 0 .57-.3c.15-.13.31-.24.45 0s0 .34-.17.44a1.3 1.3 0 0 1 -.73.22z" fill="#6a6a6a"/><path d="m34.08 14.92v.36c-.47-.2-.57-.67-.75-1.07a.2.2 0 0 1 .1-.3c.15-.05.2.09.23.2.08.3.12.63.42.81z" fill="#656565"/><path d="m31.92 18.88c-.59.17-.65.82-1 1.18a2.88 2.88 0 0 0 -.28.38c-.17.17-.35.22-.54 0a.44.44 0 0 0 -.42-.14l-.12-.12c.32-.29.45-.76.9-.92.1 0 .07-.16.07-.27a.83.83 0 0 1 1-.91c.47.09.52.39.39.8z" fill="#747474"/></svg>