<svg viewBox="0 0 96.02 372.88" xmlns="http://www.w3.org/2000/svg"><path d="m42.51 87.62a9.79 9.79 0 0 0 .55-3.52 7.54 7.54 0 0 1 .17-1.77.35.35 0 0 0 .1-.26 22.49 22.49 0 0 1 .38-3.75c.28-.07.55.08.86 0s.53.21.43.59a12.74 12.74 0 0 1 -.74 1.72c.08-.32.29-.53.38-.82a.35.35 0 0 1 .62-.13c.21.39 1 .58.51 1.26-.07.11 0 .24.12.32a3.63 3.63 0 0 1 .46.84c.09.16.19.32.08.5s-.33.17-.47.12c.34 0 .36.32.27.6a1.33 1.33 0 0 0 .45 1.45.83.83 0 0 1 .26 1 4.66 4.66 0 0 0 -.19.84.3.3 0 0 0 .15.36.17.17 0 0 0 .22 0c.08-.1.15-.26.07-.33-.57-.49 0-1.13-.22-1.66a.37.37 0 0 1 .24-.49c.26-.1.55-.24.78 0a2.58 2.58 0 0 1 .81 1.31c.07.46.14.76-.2 1.09-.06 0 .08.07 0 0s0 0 0 0a.55.55 0 0 1 .79-.07c.42.4 1 .69 1.12 1.32 0 .11.14.13.22.17s0 0 0 0c-.3-.12-.39-.3-.17-.58a1.08 1.08 0 0 1 .9.64 6.56 6.56 0 0 0 2 1.75c.11.07.3.08.33.23.13.6.64.84 1.08 1.1.64.38 1.1 1 1.81 1.27.33.18.61.38.39.82-.21.26-.46.14-.75 0a2.5 2.5 0 0 1 .86.38 25.33 25.33 0 0 0 3.42 1.6c1 .37 1.88.84 2.87 1.14a14.87 14.87 0 0 0 3.08.74c.4 0 .78.32 1.13.28 1.26-.15 2.49.23 3.75.12a4 4 0 0 1 .77-.1c.21 0 .46 0 .52.3s-.14.36-.31.48a3.91 3.91 0 0 1 -1.54.4c-.79.12-1.59.06-2.38.11s-1.38 0-2.07.12a8.39 8.39 0 0 1 -1.73-.11c-1.36-.08-2.71-.25-4.07-.36-.57 0-1.12-.32-1.72-.35a12 12 0 0 1 -2.63-.9 10.17 10.17 0 0 1 -3-1.78 3.25 3.25 0 0 0 -.6-.35 2.45 2.45 0 0 1 -1.06-.91c-.46-.62-.78-1.35-1.59-1.69-.45-.19-.69-.72-1-1.11a13.58 13.58 0 0 0 -2.42-2.65 1.56 1.56 0 0 1 -.48-.6c-.1-.2-.22-.33-.46-.28-.61 0-1.21 0-1.82 0s-.93.87-.61 1.27.23.59-.11.83-.31.44 0 .69a.39.39 0 0 1 .11.53c-.11.19-.28.19-.49.15s-.4.11-.61.13-.37-.21-.34-.42a5.63 5.63 0 0 1 .3-1.31c.22-.75.21-1.54.42-2.27z" fill="#4e4e4e"/><path d="m44.53 42.85a5.46 5.46 0 0 1 -.53 1.15.69.69 0 0 1 -.18.24c-.76 0-.85-.14-.8-.87a3 3 0 0 1 .23-1.14c0-.06 0-.11.07-.17.26-.47.49-.95.72-1.44a6.64 6.64 0 0 0 .4-.9c0-.08.09-.2.19-.21.6-.07.64-.45.51-.92a2.14 2.14 0 0 1 .21-1.43c.07-.14.13-.27.21-.4a1.52 1.52 0 0 0 .68-1.16 2.38 2.38 0 0 1 .11-.53c.07-.23.07-.53.39-.61s.38.27.53.46a1 1 0 0 0 .2.22.76.76 0 0 0 -.35-.7 1.62 1.62 0 0 1 -.65-1.59c.08-.48.3-.64.76-.48a.6.6 0 0 0 .55 0c.54-.32.81-.15.84.48v.42c.42.84.14 1.81.47 2.67 0 .16-.16.31 0 .5a2.61 2.61 0 0 1 .22 2 7.34 7.34 0 0 0 .2 3.75c.1.7-.25 1.37-.12 2.06a11 11 0 0 0 .76 2.46 9.89 9.89 0 0 1 .81 2c.05.28.28.46.43.68.57.86 1 1.81 1.64 2.64a26.34 26.34 0 0 1 1.84 2.37c-.07.47-.31.6-.75.4a3.15 3.15 0 0 0 -.81-.16 2.33 2.33 0 0 1 -1.33-1.06 1.81 1.81 0 0 0 -.84-.71c-.48-.25-.59-.77-.87-1.17a4.18 4.18 0 0 0 -.6-.8.92.92 0 0 1 -.18-.43c0-.17 0-.41-.23-.42s-.27.23-.34.36a5 5 0 0 0 -.41 1.72 1.36 1.36 0 0 1 0 .17 13 13 0 0 0 -.35 2.7.65.65 0 0 1 0 .19 11 11 0 0 0 -.1 3.19c0 .17.1.39 0 .52-.47.58-.24 1.25-.27 1.89a7.43 7.43 0 0 0 0 2.66c0 .34-.06.63-.41.72s-.56-.22-.84-.34c-.11 0-.12-.2-.06-.32.21-.43 0-.56-.4-.59s-.49-.19-.44-.45a18.09 18.09 0 0 0 -.08-2.33c0-.36 0-.73 0-1.07a1.49 1.49 0 0 0 -.24-1.18c-.19-.78.1-1.58-.11-2.37a1.27 1.27 0 0 0 .06-.18c.07-.76.2-1.52.25-2.28 0-.44.38-.74.32-1.18a1.3 1.3 0 0 0 0-.59 1.54 1.54 0 0 1 .08-1.37 1 1 0 0 0 .06-.75 7 7 0 0 1 .15-3c0-.13 0-.26 0-.39a4.39 4.39 0 0 1 .24-3l.22-.59c-.25-.32-.13-.69-.15-1a3.2 3.2 0 0 0 -.25-1.32 3.18 3.18 0 0 0 -.54.67 8 8 0 0 1 -1.12 2.31z" fill="#4f4f4f"/><path d="m31.21 91.45c-.7.71-1.4 1.4-2.09 2.11-1.3 1.32-2.6 2.64-3.88 4-1.09 1.14-2.28 2.16-3.37 3.29-1.64 1.68-3.26 3.38-4.9 5.07-1.13 1.16-2.2 2.41-3.41 3.49a28 28 0 0 1 -7.56 5.31c-.83.35-1.76.93-2.79.43 0-.24.2-.24.35-.27a13.17 13.17 0 0 0 5.39-2.62 36.85 36.85 0 0 0 5.35-4.79c1.33-1.38 2.56-2.85 3.92-4.2 1.87-1.88 3.66-3.84 5.57-5.69s3.6-3.67 5.37-5.53a60 60 0 0 0 4.12-4.74c1-1.25 1.92-2.51 2.8-3.8a50.4 50.4 0 0 0 4.19-7.18c1.43-3.11 2.73-6.33 3.91-9.5a17.17 17.17 0 0 0 .63-1.69c.07-.3.35-.42.58-.57a.22.22 0 0 1 .15.08 2.12 2.12 0 0 1 -.3 1.51 4.44 4.44 0 0 0 -.5 1.43c-.66.35-.35 1.13-.72 1.61-.13.15.12.25.21.37a.8.8 0 0 0 .08.16 4.24 4.24 0 0 1 -.37 1.69c-1 2.47-2 4.92-3.07 7.33-.29.63-.88 1.11-1.13 1.78a7.35 7.35 0 0 1 -1 1.6 6.19 6.19 0 0 0 -1.29 1.8 5 5 0 0 1 -1 1.17 19.66 19.66 0 0 1 -2.89 3.61 2.6 2.6 0 0 0 -.58.73c-.49.6-1 1.17-1.47 1.82-.01.12-.19.1-.3.19z" fill="#6d6d6d"/><path d="m25.71 221.77c.29-2 .52-3.9.87-5.85.3-1.72.5-3.47.75-5.2s.75-3.56.85-5.38a1.09 1.09 0 0 1 .29-.71c.23-1.8.76-3.55.94-5.35.16-1.54.54-3 .78-4.54 0-.33.06-.78.61-.72.29.08.32.25.19.5a1.75 1.75 0 0 0 -.15 1.81c.17.32-.07.77-.12 1.16 0 .17-.18.39-.09.52.39.62-.06 1-.34 1.44a7.28 7.28 0 0 0 -.55 2.18 5.3 5.3 0 0 1 -.21 1.11c-.15.28 0 .52.34.54.55 0 .57.33.34.71a4.11 4.11 0 0 0 -.27 2v.27a20.57 20.57 0 0 0 -.67 3.23c-.35 1.19-.35 2.48-.64 3.7-.06.27.08.59-.07.88 0 0 0 .14.1.12a.33.33 0 0 1 .37.15 3.93 3.93 0 0 1 -.06 1.41 50.71 50.71 0 0 1 -.93 5.21 3.83 3.83 0 0 0 -.12 1c-.1.88-.49 1.68-.63 2.55a3.07 3.07 0 0 0 -.07 1 1.16 1.16 0 0 1 -.18.91c-.07.1-.16.2-.13.33.25 1-.47 1.86-.46 2.83 0 .05-.06.1-.11.14-.21.14-.36-.15-.61-.08-.68.22-.87.56-.47 1.19a.76.76 0 0 1 -.16 1.14c-.08.06-.2.15-.17.23.16.56-.25 1-.25 1.55a1.75 1.75 0 0 1 -.26 1.2.21.21 0 0 0 0 .17 2.6 2.6 0 0 1 0 1.72 10.23 10.23 0 0 1 -.61 1.71c-.08.2-.28.2-.45.07a.87.87 0 0 1 -.14-.73c.26-1.23.19-2.49.43-3.72a5.25 5.25 0 0 1 .35-1.47.34.34 0 0 0 0-.21 10.7 10.7 0 0 1 .37-3.52c.17-.75 0-1.55.49-2.26.19-.27-.05-.75.05-1.13a9.65 9.65 0 0 1 0-1.7c0-.49.55-.53 1-.68a1.06 1.06 0 0 1 -.2-1.43z" fill="#4e4e4e"/><path d="m42.52 108c-.05-1-.12-1.94-.14-2.92 0-1.83-.08-3.66-.06-5.49 0-2.43.11-4.86.17-7.29l.06-.07c.37 0 .37.24.37.46a15.62 15.62 0 0 1 .08 2.31 17.67 17.67 0 0 0 .12 2.81.75.75 0 0 0 .38.64c.34.22.3.53 0 .7a.84.84 0 0 0 -.5.85 2.35 2.35 0 0 1 -.2.83c0 .08.09 0 0 0s0 0 0 0a.88.88 0 0 1 .45-.46.72.72 0 0 0 .44-.93c-.08-.38 0-.77-.4-1.11s.08-.62.34-.83a.67.67 0 0 1 .9.17 1.34 1.34 0 0 1 .16.45 3.21 3.21 0 0 0 .48 1.4.47.47 0 0 1 .07.51l-.06.18a.74.74 0 0 0 -.26.63 23.25 23.25 0 0 1 0 2.64 4.25 4.25 0 0 1 0 1.18 1.61 1.61 0 0 1 -.63 1.51.79.79 0 0 0 0 1.31 1 1 0 0 1 .56 1 2.07 2.07 0 0 0 .18.69 4.18 4.18 0 0 1 .15 1.49c0 .91.17 1.8.12 2.71v.78s-.16.46-.45.44-.5-.2-.43-.46c.2-.75-.29-1.45-.13-2.14 0-.12-.09 0 0 0s.07 0 0 0 0 .12 0 .19c-.44 1.09-.12 2.24-.21 3.36-.07.89-.52 1.32-1.39 1.14a1.27 1.27 0 0 1 -.64-1.28 2.12 2.12 0 0 0 .14-1.08 2.92 2.92 0 0 1 .12-1 15.86 15.86 0 0 0 .16-2 9.37 9.37 0 0 0 -.05-2.48 1.35 1.35 0 0 1 .1-.84z" fill="#5b5b5b"/><path d="m42.51 87.62c.09.68-.4 1.33-.13 2a.32.32 0 0 1 -.1.2c-.51.46-.33 1-.12 1.49a.31.31 0 0 0 .22.09c.24 0 .44 0 .49.28s0 .51-.32.6h-.06c-.23.07-.26.26-.31.46-.37 1.38-.84 2.73-1.34 4.07-.39 1-.78 2.09-1.19 3.11a9.65 9.65 0 0 1 -1.38 2.76 5.06 5.06 0 0 0 -.73 1.23c-.34.77-.85 1.43-1.26 2.16.06.44-.37.65-.55.94a4.75 4.75 0 0 1 -1.26 1.69c-.92 1.52-2.23 2.74-3.17 4.25a8.57 8.57 0 0 1 -1.52 1.67c-.56.51-1 1.1-1.54 1.65-.46.15-.7.58-1 .86-.12.1-.22.37-.42.22s0-.35.09-.51a.54.54 0 0 1 .05-.11 25.33 25.33 0 0 0 2.1-2.3c1.28-1.78 2.8-3.36 4.06-5.15 1-1.42 2-2.86 2.83-4.35.62-1.07 1.15-2.19 1.72-3.29a58.36 58.36 0 0 0 2.93-7.31 60 60 0 0 0 1.71-6 1.34 1.34 0 0 1 .2-.71z" fill="#676767"/><path d="m32.78 95 .22-.3a.69.69 0 0 0 .42-.4c.16-.51.68-.66 1-1s.48-.16.54.22a4.65 4.65 0 0 1 -.72 1.31 20.59 20.59 0 0 0 -1.2 1.83c-.09.23-.39.26-.5.48a2.85 2.85 0 0 1 -.73 1c-.45.3-.57.86-.95 1.22v.2c-.92 1.13-1.91 2.19-2.92 3.25a9.52 9.52 0 0 0 -1.28 1.54c-.23.35-.68.53-1 .85-1 1-2 1.9-2.9 2.94s-2 2-2.91 3a1 1 0 0 1 -.24.15 14.81 14.81 0 0 1 -1.68 1.68 18.51 18.51 0 0 0 -2 1.86c-.13.12-.24.27-.44.28s-.36-.27-.23-.54c1.07-1.17 2.2-2.29 3.33-3.42 1.65-1.64 3.22-3.36 4.87-5s3.15-3.37 4.7-5.08c.76-.84 1.47-1.73 2.19-2.6a19.46 19.46 0 0 0 1.35-1.88s.07-.11.11-.14a2.73 2.73 0 0 0 .97-1.45z" fill="#6a6a6a"/><path d="m25.71 73.91c2-1.69 3.87-3.49 5.69-5.36 1.29-1.33 2.5-2.74 3.71-4.14a42.71 42.71 0 0 0 4.65-6.66c.55-.74.93-1.6 1.49-2.34l.13-.13c.42-.48.42-.47 1 0a1.23 1.23 0 0 1 -.21.79 18.08 18.08 0 0 0 -1.65 2.93 6.15 6.15 0 0 1 -1.33 2c-.31.38-.39.9-.79 1.22l-.1.14a2.68 2.68 0 0 0 -.83 1.26l-.1.15c-.78.87-1.8 1.5-2.54 2.43a8.08 8.08 0 0 1 -1.57 1.68c-1.14 1.12-2.26 2.2-3.44 3.35s-2.13 1.85-3.19 2.77a5.49 5.49 0 0 1 -.8.52c-.38-.11-.4-.18-.12-.61z" fill="#6c6c6c"/><path d="m42.87 63.38a49.5 49.5 0 0 1 -3.35 7 53.39 53.39 0 0 1 -4.21 6.39 27.23 27.23 0 0 1 -2.55 3.31c-.44.43-.59 1.1-1.16 1.42l-.15.1c-.17.12-.21.51-.53.32s-.25-.49-.11-.77a1.92 1.92 0 0 1 .72-1 1.06 1.06 0 0 0 .53-.81 1.06 1.06 0 0 1 .43-.63c.52-.44.66-1.24 1.4-1.46.19-.91 1-1.45 1.42-2.21a5.61 5.61 0 0 1 1.06-1.69c.42-.35.35-.93.66-1.33.61-.81 1.09-1.72 1.62-2.58.3-.48.39-1.12 1-1.37 0 0 0-.06 0-.1a15.56 15.56 0 0 1 1.75-3.85 2.83 2.83 0 0 1 .6-1.05c.21-.28.64-.26.83-.59h.27a.23.23 0 0 1 0 .27c-.1.25-.1.45-.23.63z" fill="#6d6d6d"/><path d="m43.61 42.16a1.52 1.52 0 0 1 -.19.69c-.38.79-.36.84.4 1.21.09.22.35.41-.08.62-.2.1 0 .58-.4.7-.75 1.47-1.54 2.92-2.39 4.34a32.09 32.09 0 0 1 -4.88 6.28l-.86.84c-.17.07-.34.25-.54.08s-.11-.54-.06-.82a2.23 2.23 0 0 0 .72-.91 5.92 5.92 0 0 1 .83-1c.79-1 1.49-2 2.3-2.94a20.41 20.41 0 0 0 1.36-2.25c1-1.56 1.65-3.28 2.53-4.89.31-.55.36-1.23.8-1.72.13-.19.2-.39.46-.23z" fill="#767676"/><path d="m41.78 131.42a31.86 31.86 0 0 1 .7-3.88 21.37 21.37 0 0 0 .26-4.59c0-.25 0-.57-.33-.61s-.54.22-.6.54-.16.9-.24 1.35a.32.32 0 0 0 -.07.22c0 .15 0 .33-.22.33a.33.33 0 0 1 -.33-.33 3.23 3.23 0 0 1 0-1.2c.13-1.3.27-2.61.4-3.91a2.77 2.77 0 0 1 .19-1c.13-.41.26-.82.37-1.24 0-.14 0-.28.19-.32s.27.08.34.19a4.53 4.53 0 0 1 .45 1.12c.34.51.41 1.15.79 1.64a.29.29 0 0 1 0 .34 2.33 2.33 0 0 0 -.25 2 6.77 6.77 0 0 1 0 2.42 1.79 1.79 0 0 0 0 .89c.18.48-.17.88-.2 1.34a15.69 15.69 0 0 1 -.85 3.69c-.31.28-.13.77-.45 1a.14.14 0 0 1 -.15.01z" fill="#5f5f5f"/><path d="m45.41 64.72v-.15-5.73a1.35 1.35 0 0 0 0-.69c-.06-.17 0-.3.22-.29a16.37 16.37 0 0 1 0 2.62 6.21 6.21 0 0 0 .22 1c.15.58 0 1.25.8 1.51.05 0 .09.18.08.27-.06.29 0 .47.33.51s.27-.28.39-.44c.29 0 .23.18.23.39a19.83 19.83 0 0 0 0 3.08c.13.92-.09 1.83.07 2.75a4 4 0 0 1 -.48 1.89 4.87 4.87 0 0 0 -.54 2.24.36.36 0 0 1 -.19.34.34.34 0 0 1 -.35-.06c-.58-.15-.5-.67-.61-1.07s.24-.67.48-.94a5.79 5.79 0 0 0 .62-.93.58.58 0 0 0 -.11-.75 3.66 3.66 0 0 1 -.83-1.88 19.13 19.13 0 0 0 -.27-2.72c-.12-.4.39-.74 1-.71.08 0 0 .08 0 0s0 0 0 0c-.64-.06-.66-.08-.42-.7a1 1 0 0 0 .09-.29c-.26.28-.05.87-.73.75z" fill="#5e5e5e"/><path d="m34.84 93.51c-.45.25-1 .37-1.17 1-.11.39-.44.13-.66.21.88-1.43 1.93-2.75 2.71-4.23.58-1.09 1.24-2.14 1.79-3.25.67-1.32 1.26-2.68 1.89-4a3.84 3.84 0 0 1 .63-.58c.12-.12.27-.21.43-.09s.11.28 0 .42c-.51 1.53-1.3 3-1.92 4.44a4.33 4.33 0 0 1 -.66 1.45c-.53.7-.74 1.57-1.26 2.28-.44.66-.83 1.35-1.28 2-.12.13-.2.37-.5.35z" fill="#828282"/><path d="m42.65 118.24c-.27-.23-.16-.58-.29-.85 0-.1 0-.26-.16-.28s-.17.18-.23.29c-.14.32-.11.71-.43.95-.18-.56.23-1 .23-1.56 0-2.05.48-4.06.7-6.1.07-.62-.09-1.23-.06-1.85a1.55 1.55 0 0 1 .11-.82 39.27 39.27 0 0 1 .14 4.6 17.45 17.45 0 0 1 -.24 2.59c0 .25-.1.48.24.56a.36.36 0 0 1 .24.24c.06.14-.18.43.21.42s.59-.15.62-.46a5.14 5.14 0 0 0 .06-1.83 2.08 2.08 0 0 1 0-1 10.52 10.52 0 0 1 .7-2.19.5.5 0 0 1 .26.61 1.72 1.72 0 0 0 0 1.26 2.62 2.62 0 0 1 0 1c0 .15-.09.36.15.37s.17-.18.19-.32 0-.28 0-.42c.35 0 .28.28.28.48a26.56 26.56 0 0 1 0 3c-.13.35-.35.24-.57.1a1.64 1.64 0 0 0 -1.24-.22.58.58 0 0 0 -.54.43.48.48 0 0 0 .23.6 2.66 2.66 0 0 0 1.38.66.86.86 0 0 1 .88.93 3.09 3.09 0 0 1 -.13 1.62c-.33.09-.42-.12-.45-.38s0-.48 0-.72a.74.74 0 0 0 -.5-.68 2.43 2.43 0 0 1 -1.53-.9c-.01-.15-.16-.11-.25-.13z" fill="#6f6f6f"/><path d="m22.84 65.31 2.51-1.57c.27.06.27.23.11.37s-.18.13-.19.26a1.47 1.47 0 0 1 -.63.63 37.8 37.8 0 0 0 -3.81 2.43c-1.54 1.06-3.21 1.91-4.74 3a33.32 33.32 0 0 1 -3.79 2.23 15.69 15.69 0 0 1 -2.54 1.41 10.51 10.51 0 0 0 -1.56.73c-.29 0-.45.29-.73.3-.09 0-.2 0-.25-.08s.07-.16.13-.23a92.7 92.7 0 0 0 9.39-5.48c1.81-1.17 3.63-2.32 5.44-3.48a8.27 8.27 0 0 0 .66-.52z" fill="#929292"/><path d="m41 123.25a2.9 2.9 0 0 0 .16 1c.17.39.3.32.46 0-.17 1.5-.34 3-.5 4.5-.18 1.7-.34 3.4-.53 5.09-.15 1.4-.4 2.8-.42 4.21-.14.24 0 .51-.1.75s-.11.32-.31.3-.16-.18-.2-.31a1.28 1.28 0 0 1 0-.64c.21-.79 0-1.6.16-2.39.12-1.31.23-2.62.36-3.93q.42-4 .85-8.1a2.78 2.78 0 0 1 .07-.48z" fill="#7c7c7c"/><path d="m31 81.15c-.05.19-.18.41 0 .55s.37-.17.58-.19a24.63 24.63 0 0 1 -4 4.43c-.55.52-1.07 1.07-1.65 1.56-1.45 1.24-2.88 2.5-4.44 3.61l-.47.37a7.23 7.23 0 0 1 -1.22.82l-.57.39c-.1.08-.2.22-.35.08s-.09-.29 0-.45a12.82 12.82 0 0 1 1.92-1.76c1.19-.88 2.26-1.89 3.41-2.81a32.06 32.06 0 0 0 3.42-3.27c.84-.89 1.72-1.76 2.6-2.62.15-.14.16-.37.32-.51s.18-.41.45-.2z" fill="#838383"/><path d="m26.91 116.77c0 .15-.12.3 0 .46.49-.23.69-.87 1.3-.92-.46.39-.85.85-1.27 1.27-1 1-2 1.89-3 2.84a15.93 15.93 0 0 1 -1.9 1.77 59.05 59.05 0 0 0 -5.18 4.56 4.7 4.7 0 0 1 -1 1.14c-.18.12-.45.44-.59-.07l.84-1c.38-.46.87-.82 1.22-1.31a31.42 31.42 0 0 1 3.56-3.26c2-1.6 3.81-3.45 5.67-5.21z" fill="#747474"/><path d="m25.27 64.37c-.42-.27.22-.4.08-.63l.14-.2a1.23 1.23 0 0 1 .58-.52 4.4 4.4 0 0 0 1.42-1.16c.56-.62 1.41-.79 2-1.32.38-.32.64-.76 1-1.08 1-.89 2.1-1.76 3.15-2.64.2-.17.37-.37.58-.53s.28-.36.55-.25c0 .33-.14.72.39.76a5.55 5.55 0 0 1 -1.14 1.13 49.1 49.1 0 0 1 -6.47 5 11.52 11.52 0 0 1 -2.28 1.44z" fill="#868686"/><path d="m18.18 80.2a6.28 6.28 0 0 1 -1.74 1.34 19 19 0 0 0 -2.69 1.88 35 35 0 0 1 -3.31 2.66 18.44 18.44 0 0 1 -4.39 2.53.28.28 0 0 1 -.4-.12c-.1-.18 0-.29.16-.37a8.71 8.71 0 0 0 2.87-1.56c2.25-1.42 4.13-3.33 6.34-4.8a23.82 23.82 0 0 1 2.54-1.69c.16.23.49-.27.62.13z" fill="#8e8e8e"/><path d="m19.11 92.29c0 .17-.15.37.16.4a2.7 2.7 0 0 1 -1 .8c-2.27 1.51-4.52 2.93-6.78 4.38-1.06.68-2.25 1.08-3.35 1.67-.39.2-.79.38-1.19.56a2.35 2.35 0 0 1 -.56.2c-.23 0-.56.13-.64-.13s.27-.29.45-.36a23.14 23.14 0 0 0 4.9-2.45l.22-.13a.67.67 0 0 1 .62-.53.39.39 0 0 0 .25-.12 22.17 22.17 0 0 1 3.6-2.45 2 2 0 0 1 1.14-.54c.17 0 .22-.18.31-.31a2.77 2.77 0 0 1 1.76-1.09c0-.01.08.05.11.1z" fill="#939393"/><path d="m33.16 176.43.13-1.07a.3.3 0 0 1 .26-.12c.33.15.24.42.21.67-.16 1.2-.37 2.4-.54 3.6 0 .32 0 .5.21.68a1.87 1.87 0 0 1 -.06 1.36c-.28 1.07-.4 2.17-.64 3.24-.36 1.66-.65 3.33-1 5-.06.27-.28.64.14.86a.53.53 0 0 1 .08.61c-.27.62-.4 1.29-.67 1.91-.38.22-.61.14-.63-.32a1.09 1.09 0 0 0 -.1-.32c.11-1.25.46-2.46.68-3.7.42-2.38.85-4.75 1.22-7.13a30.49 30.49 0 0 0 .5-3.56 8.09 8.09 0 0 1 .21-1.71z" fill="#858585"/><path d="m41.43 55.46h-.11a.16.16 0 0 1 -.25 0 29.85 29.85 0 0 1 1.3-3 36 36 0 0 0 1.92-4.56 31.78 31.78 0 0 1 1.22-3 9.05 9.05 0 0 1 .84-2.09 2.84 2.84 0 0 1 -.19 1.19.81.81 0 0 0 .07.74 1.4 1.4 0 0 1 .13 1 .64.64 0 0 0 -.3.44 7.72 7.72 0 0 1 -.77 2.14c-.11.17.05.34 0 .52l-.06.17c-.15.64-.81 1-.84 1.73a2.45 2.45 0 0 1 -.4 1 .3.3 0 0 1 -.26.21c-.2 0-.26-.15-.24-.34a3.06 3.06 0 0 0 -.49 1.53.58.58 0 0 1 -.23.49c-.77.37-.94 1.2-1.34 1.83z" fill="#8e8e8e"/><path d="m40.47 82.94c0-.13-.1-.25-.23-.12a2.25 2.25 0 0 1 -.84.37c.52-1.18.87-2.43 1.45-3.59a7.39 7.39 0 0 1 1.06-3.11 14 14 0 0 1 .79-1.93.62.62 0 0 1 .43-.52c.44-.18.51-.13.47.39-1 2.7-1.8 5.44-2.9 8.09a3.42 3.42 0 0 1 -.23.42z" fill="#959595"/><path d="m44.06 69.63c-.18.07-.37.29-.53.11s0-.4.15-.56a1 1 0 0 0 .24-.8c-.08-.44.35-.65.64-.91.28 0 .24-.21.21-.39s.08-.5.34-.52.43.22.43.48a4.26 4.26 0 0 1 0 1 1.47 1.47 0 0 0 0 .66 5.4 5.4 0 0 1 -.14 2.82 9.66 9.66 0 0 1 -.22 1.29c-.1.25-.11.51-.41.68s-.16.51-.21.77c-.09.52-.15 1-.26 1.56a2.44 2.44 0 0 0 .09 1.51.56.56 0 0 1 0 .52c-.18.17 0 .65-.51.53a6 6 0 0 0 -.25 1.93 5.89 5.89 0 0 1 -.23 1.91c-.33-.42-.1-.87 0-1.3 0-.16.18-.31 0-.48a9.6 9.6 0 0 1 .25-2.56c.13-.78.12-1.59.25-2.38.08-.57.33-1.12 0-1.71-.11-.19 0-.46.07-.68a2 2 0 0 0 0-1.41 15.15 15.15 0 0 0 .42-2.11.79.79 0 0 1 0-.24c-.03.15-.08.33-.33.28z" fill="#626262"/><path d="m18.18 80.2c-.22 0-.46.14-.62-.13 2.71-2.06 5.56-3.93 8.15-6.16a.78.78 0 0 0 .12.63 10.26 10.26 0 0 1 -2.54 2.24c-1.06.81-2.2 1.5-3.31 2.24z" fill="#767676"/><path d="m45.63 57.86c-.2.3 0 .68-.21 1-.05-.16 0-.42-.2-.44s-.36.22-.44.43c-.51 1.29-1 2.58-1.54 3.88a1.7 1.7 0 0 1 -.37.67c.05-.21.1-.41.19-.75a2.82 2.82 0 0 1 -1 .51 1.06 1.06 0 0 1 .18-1 9 9 0 0 0 .87-1.93c.29-.7.63-1.37 1-2.06a13.94 13.94 0 0 1 1-2.4c.12-.17.14-.5.5-.39a11.73 11.73 0 0 0 .02 2.48z" fill="#9f9f9f"/><path d="m39.63 135.74a5.86 5.86 0 0 1 0 2 1.35 1.35 0 0 0 .17 1.16c.32-.2.16-.6.35-.83-.12 1.11-.22 2.21-.35 3.32-.24 2-.49 4-.75 6.05a1 1 0 0 1 -.33.81 3.48 3.48 0 0 1 0-2.07c.16-1.08.22-2.17.32-3.25.19-2.21.32-4.42.49-6.62a4.94 4.94 0 0 1 .1-.57z" fill="#8e8e8e"/><path d="m14.31 116.18c-1.24 1.14-2.49 2.28-3.78 3.35a12.23 12.23 0 0 1 -1.43.85c-.14.08-.32.11-.41-.09s.05-.26.17-.33a29.57 29.57 0 0 0 5.1-4.3 4.21 4.21 0 0 1 .48-.35c.23.11.28.34.35.55s-.28.28-.48.32z" fill="#737373"/><path d="m15.26 127.82c.36.17.58-.06.83-.26s.4-.63.75-.81a2.84 2.84 0 0 1 -.94 1.25 49.37 49.37 0 0 1 -4 3.18 9.85 9.85 0 0 1 -1.15.63c-.18.09-.45.26-.58 0s.17-.32.33-.41c.53-.32 1.07-.62 1.6-.93a26.79 26.79 0 0 0 2.7-2.27z" fill="#959595"/><path d="m30.53 192.51c.2 0 .33 0 .31.27s0 .23.17.23a1 1 0 0 1 -.13 1.18c-.46.06-.52.42-.6.78-.44 2.08-.74 4.19-1.09 6.28a24.18 24.18 0 0 1 -.72 3.38 10.36 10.36 0 0 1 .4-2.77c.41-2.29.76-4.6 1.15-6.9.14-.82.34-1.63.51-2.45z" fill="#646464"/><path d="m33.52 175.35h-.23a3 3 0 0 1 .22-1c.2-.33.62-.6.24-1.06-.11-.2.06-.33.12-.49a.62.62 0 0 0 .14-.49 1.51 1.51 0 0 0 .73-1.15.34.34 0 0 1 .24-.31.92.92 0 0 1 .69-.06c.47.14.57.3.42.78-.25.77-.84 1.38-1 2.18s-.97 1.16-1.57 1.6z" fill="#a3a3a3"/><path d="m42.88 74.79a14.5 14.5 0 0 1 1.45-3.12l-.33 3.22a1.4 1.4 0 0 1 -.19.62c0-.33 0-.66.07-1 0-.09 0-.23-.09-.25s-.15.1-.22.16c-.05-.17-.11-.33-.31-.14a6.4 6.4 0 0 0 -.38.51z" fill="#a9a9a9"/><path d="m45.63 40.47a7.12 7.12 0 0 1 .63-1.64c.37 1.1.1 2.24.31 3.33-.37-.4-.16-.92-.26-1.37s-.31-.6-.68-.32z" fill="#b5b5b5"/><path d="m25 225.49a3.71 3.71 0 0 1 .55-2.21c.13-.15-.12-.51 0-.78s.09-.47.13-.71h.11v.72s.1.38.34.29.31-.09.37.12a.29.29 0 0 1 -.19.39c-1.32.27-1 1.35-1.14 2.22a.1.1 0 0 1 -.17-.04z" fill="#6e6e6e"/><path d="m33.75 173.32a.6.6 0 0 1 .43.16c.14.13.33.27.26.49s-.23.25-.41.29-.35.08-.52.12c.02-.38-.24-.8.24-1.06z" fill="#bebebe"/><path d="m7.35 74.78c0 .27.19.19.35.13s.3-.2.5-.12a3.81 3.81 0 0 1 -2.39.78z" fill="#a8a8a8"/><path d="m34.47 108.74c.6-.88 1.2-1.76 1.81-2.63a5.56 5.56 0 0 1 -1.81 2.63z" fill="#aeaeae"/><path d="m41.07 55.47h.25a16.12 16.12 0 0 1 -1.56 2.28z" fill="#797979"/><path d="m44.53 42.85 1.1-2.39a3.91 3.91 0 0 1 -1.1 2.39z" fill="#b5b5b5"/><path d="m32.78 95a1.13 1.13 0 0 1 -.83 1.3 1 1 0 0 0 -.24.17z" fill="#828282"/><path d="m15.65 114.88-.73.71c-.15-.11-.35-.16-.39-.37a3.42 3.42 0 0 1 .74-.73.59.59 0 0 0 .38.39z" fill="#737373"/><path d="m5.81 88.12a.37.37 0 0 0 .24.49h-.11c-.27.06-.64.18-.71-.16s.34-.25.58-.33z" fill="#acacac"/><path d="m43.84 75.51a8.28 8.28 0 0 1 -.25 2.38 7.66 7.66 0 0 1 .25-2.38z" fill="#a9a9a9"/><path d="m14.53 115.22c.3-.06.5 0 .39.37l-.25.24c-.33-.06-.38-.25-.23-.52z" fill="#6a6a6a"/><path d="m19.84 92.3a2.55 2.55 0 0 1 1.22-.82 1.93 1.93 0 0 1 -1.22.82z" fill="#939393"/><path d="m43.34 45.38c.16-.44.55-.8.48-1.32l.18-.06a1.22 1.22 0 0 1 -.66 1.38z" fill="#b5b5b5"/><path d="m17.32 125.55a3.74 3.74 0 0 1 -1.22 1.31 5.44 5.44 0 0 1 1.22-1.31z" fill="#959595"/><path d="m33.16 176.43a10.57 10.57 0 0 1 -.23 1.69 3.26 3.26 0 0 1 .23-1.69z" fill="#bebebe"/><path d="m42.51 30.26c.7-1.77 1.2-3.59 1.82-5.38.15-.43.25-.88.37-1.32a12.94 12.94 0 0 1 1.16-3.07c0-.07.06-.16.12-.21.94-.86 1-2.06 1.11-3.19a.93.93 0 0 1 0-.24 14.06 14.06 0 0 0 .96-4.85c.09-1.31.23-2.61.24-3.92a8.74 8.74 0 0 0 .05-1.77c-.09-1.37.32-1.85 1.7-2 .39.28.22.54-.12.63-.61.16-.82.49-.65 1.09a.39.39 0 0 1 0 .24 2.7 2.7 0 0 0 .11 2.27c.19.4-.15.87-.15 1.33a7.8 7.8 0 0 1 -.23 1.37 8.31 8.31 0 0 0 .31-1.86c0-.18.08-.45.36-.18a1.86 1.86 0 0 1 .14.84 26.83 26.83 0 0 0 -.63 4 17.91 17.91 0 0 1 -.24 2.93 1 1 0 0 0 .68 1.28.71.71 0 0 1 .44.38c-.33 1.8.11 3.58.23 5.37 0 .44-.47.53-.69.8-.1 0-.23.05-.26 0-.13-.38-.44-.79-.32-1.14.18-.54-.09-.78-.4-1.08a.59.59 0 0 1 -.12-.48.36.36 0 0 0 -.28-.42c-.21 0-.2.2-.19.3a6.43 6.43 0 0 0 .07 1.69c.14.38-.12.62-.52.68.66.1.81.6.4.93a1.83 1.83 0 0 0 -.8 1.43c0 .34-.15.64-.55.27-.06-.34 0-.68-.07-1a2.76 2.76 0 0 1 -.14-1.68c0-.1 0-.21-.11-.23s-.23.14-.25.22a14.88 14.88 0 0 0 -.48 2.48 1.44 1.44 0 0 1 -.16.74 5.11 5.11 0 0 0 -.4.93 47.57 47.57 0 0 1 -2.12 5c-.12.22-.19.49-.47.59a3.16 3.16 0 0 1 -.81.11c-.23 0-.41-.11-.33-.43a6.7 6.7 0 0 1 1.07-2.71 2.59 2.59 0 0 0 .15-.74z" fill="#575757"/><path d="m37.25 31.12a.34.34 0 0 1 -.2.24c-.18.1-.2.58-.57.22a8.57 8.57 0 0 1 1.23-2.11 66.25 66.25 0 0 0 5.53-11.4c.95-2.46 1.77-5 2.87-7.36a1.55 1.55 0 0 1 .23-.27.18.18 0 0 1 .26 0 .16.16 0 0 1 0 .21 10.88 10.88 0 0 1 -.6 1.75c-.25.79-.49 1.58-.74 2.37-.67 1.74-1.33 3.49-2 5.22-.45 1.1-1 2.17-1.45 3.27-.51 1.28-1.26 2.42-1.84 3.66a18.42 18.42 0 0 1 -2.35 3.73c-.3.03-.41.19-.37.47z" fill="#868686"/><path d="m44 10.84c.74-1.81 1.5-3.61 2.22-5.43.38-1 .67-2 1-2.94.21-.57.44-1.12.69-1.66a1.35 1.35 0 0 1 .29-.44c.2-.18.41-.45.71-.35s.35.5.42.81a.53.53 0 0 1 -.37.66c-.69.24-.64.92-.85 1.42-.6 1.42-1.11 2.86-1.69 4.29s-1.31 2.81-2 4.2a8.5 8.5 0 0 1 -.47.75c-.07.12-.06.36-.3.26a.27.27 0 0 1 -.09-.45 3.5 3.5 0 0 0 .44-1.12z" fill="#676767"/><path d="m31.45 39.49c-.49.38-.51 1.11-1.06 1.44a2.08 2.08 0 0 1 -.88 1.23 1.53 1.53 0 0 0 -.44.47c-.3.39-.46.91-1 1s-.63 0-.44-.5a2.32 2.32 0 0 1 .27-.46 1.21 1.21 0 0 1 .74-.77c.24-.32.24-.82.72-1a18.69 18.69 0 0 1 1.21-1.57 18.55 18.55 0 0 0 1.34-2.23 16.34 16.34 0 0 1 1.95-2.12c.14-.09.25-.28.46-.18s.16.2.08.33l.1.23a.29.29 0 0 1 -.1.49 1.65 1.65 0 0 0 -.71.95 2.62 2.62 0 0 0 -1 1.2 12.78 12.78 0 0 1 -1.24 1.49z" fill="#6a6a6a"/><path d="m41.69 16.35a30.49 30.49 0 0 1 -2.55 4.16 15.31 15.31 0 0 1 -1.47 2.11c-.07.06-.12.15-.2.22s-.29.22-.43.12 0-.29.08-.41c.45-.66.93-1.29 1.37-2a54.55 54.55 0 0 0 3.33-5.79 1.67 1.67 0 0 1 .44-.63c.3 0 .26.22.16.42-.3.6-.66 1.18-1 1.77a.15.15 0 0 1 .27.03z" fill="#8f8f8f"/><path d="m41.69 16.35-.6.64a6.39 6.39 0 0 1 .8-1.9 2 2 0 0 0 .37-.92c.57-1.11 1.14-2.22 1.7-3.33a1.88 1.88 0 0 1 -.23 1.16c-.16.23 0 .34.22.18a7.5 7.5 0 0 1 -1 1.95 20.27 20.27 0 0 1 -1.26 2.22z" fill="#7b7b7b"/><path d="m34.37 35.2c-.12-.24-.33-.19-.54-.15.89-1.16 1.68-2.38 2.65-3.47a1.18 1.18 0 0 0 .57-.22 4 4 0 0 1 -1.32 2.18c-.4.4-.54 1-1 1.39a1.11 1.11 0 0 1 -.36.27z" fill="#858585"/><path d="m46 12.4c.19-.47.24-1 .45-1.47s-.07-.39-.35-.22a20.21 20.21 0 0 1 1.2-2.49 1.5 1.5 0 0 1 -.06 1.25 26.23 26.23 0 0 0 -1 2.56c.03.14-.13.25-.24.37z" fill="#a6a6a6"/><path d="m42.27 363.39a21.84 21.84 0 0 1 4.81-5.29c.94-.77 1.85-1.58 2.85-2.27.3-.2.63-.35.94-.52a.23.23 0 0 1 .28 0 .2.2 0 0 1 0 .31c-.46.38-.76.92-1.38 1.12a3.45 3.45 0 0 0 -1.22 1 38.31 38.31 0 0 0 -3.92 3.83 24.22 24.22 0 0 0 -2.3 3.69.25.25 0 0 1 -.16.06c-.37-.24-.24-.71-.48-1 0-.39.51-.52.58-.93z" fill="#7a7a7a"/><path d="m41 357.51a11.3 11.3 0 0 1 .23 1.53c.05.16 0 .41.18.47s.35-.16.46-.32a2.53 2.53 0 0 0 .2-.36l.13-.13a21.08 21.08 0 0 1 2.63-2.63l1.53-1.25a2.72 2.72 0 0 1 .51-.32c.12-.06.27-.13.38 0s0 .25-.09.37a9 9 0 0 1 -1.39 1.3 28.38 28.38 0 0 0 -2.25 2.4 13.34 13.34 0 0 0 -1.43 1.84c0 .08-.14.07-.22.06-1.09-.44-1.17-1.41-1.21-2.39-.04-.2-.06-.52.34-.57z" fill="#818181"/><path d="m66.46 360.71c.28 0 .32.14.23.35a1.1 1.1 0 0 1 -.47.46 25.16 25.16 0 0 0 -3.47 2.8c-.29.25-.3.64-.5.94a4.15 4.15 0 0 1 -.66.84c-.1.09-.2.24-.35.15s-.08-.25 0-.37a4.71 4.71 0 0 1 1.13-2.08 20.37 20.37 0 0 1 3.88-3 1.42 1.42 0 0 1 .21-.09z" fill="#7b7b7b"/><path d="m50.46 361.26c.13 0 .29-.14.38 0a.54.54 0 0 1 -.16.6c-.53.54-1 1.18-1.46 1.73-.93 1-1.92 1.91-2.87 2.87-.17-.22-.47.23-.63-.11a12.44 12.44 0 0 1 2.07-2.35c.7-.76 1.49-1.44 2.23-2.16a1.62 1.62 0 0 0 .44-.58z" fill="#868686"/><path d="m53.92 364.84c-.48.31-.67.92-1.2 1.19-.36-.23-.19-.46 0-.67a3.25 3.25 0 0 1 .38-.31 1.63 1.63 0 0 0 -.65.72c-.08.24-.23.4-.48.14.32-.72.65-1.44 1-2.16.26-.37.5-.76.78-1.12.11-.15.29-.34.5-.18s.06.32 0 .49c-.15.49-.65.76-.77 1.31a6.26 6.26 0 0 0 1.49-.59c.34-.11.8-.44 1 0s-.39.48-.67.62c-.43.23-.91.38-1.38.56z" fill="#7b7b7b"/><path d="m45.72 366.38c.23-.07.5-.36.63.11-.26.6-.94 1-.71 1.82-.38.3-.44 0-.52-.27s.23-.61.06-.93h-.06a1.65 1.65 0 0 1 .6-.73z" fill="#666"/><path d="m28.11 42.73c-.09.15-.17.31-.26.47-.2.33 0 .37.27.39.07 0 .07.08 0 .11a12.47 12.47 0 0 1 -3.12 2.39 2 2 0 0 1 -.71.26c-.27.06-.54.12-.67.42a.5.5 0 0 1 -.44.26 2.44 2.44 0 0 0 -.85.39l-.57.37c-.4.32-.93.4-1.33.72a3.84 3.84 0 0 1 -1.08.84l-1.7 1.2a9.67 9.67 0 0 0 -1.83 1.67 1.45 1.45 0 0 1 -.38.36.55.55 0 0 1 -.66-.13.46.46 0 0 1 0-.65 10.47 10.47 0 0 1 2-1.7 41.29 41.29 0 0 1 7-4.39 9.23 9.23 0 0 0 3.37-2.09 1.15 1.15 0 0 0 .43-.61c.11-.25.22-.44.53-.28z" fill="#6f6f6f"/><path d="m17.44 370.59a3.81 3.81 0 0 1 -1.54.12c-.41 0-.67.15-.74.59.27.07.39-.13.56-.22s.17-.09.27 0-.13.38.19.33.2-.23.29-.36.25-.17.34 0c.45.82 1.26.62 1.91.56.81-.06 1.63-.07 2.44-.17.05.2-.1.17-.21.18s-.28-.05-.39.08a11.36 11.36 0 0 1 -2 .23c-1.73.1-3.46.15-5.19.26a58 58 0 0 1 -7.22 0 7 7 0 0 0 -2.37.17c-.07 0-.18 0-.22.08-.53.74-1.12.33-1.71.09-.42-.17-.86-.31-1.28-.5-.7-.32-.73-.87-.09-1.3a1.31 1.31 0 0 1 .91-.26 51.73 51.73 0 0 0 6 .24c1.83 0 3.67 0 5.51-.08 1.47-.06 3.01-.02 4.54-.04z" fill="#5b5b5b"/><path d="m13.48 364.11a3.65 3.65 0 0 0 -1 3.82 4.58 4.58 0 0 0 .83 1.84c.11.13.28.31.08.47s-.36 0-.48-.12c-1.68-1.91-2.29-3.72-.65-5.83a9.41 9.41 0 0 1 1.86-1.76c.15-.11.32-.32.51-.11s.05.4-.12.57l-1.07 1.12z" fill="#6d6d6d"/><path d="m17.68 362.78a6.18 6.18 0 0 1 1.35-1.4c.21-.13.45-.37.66-.05s0 .48-.24.64a2.4 2.4 0 0 0 -.94.79 15.68 15.68 0 0 0 -2.22 6.12c0 .17.06.42-.23.39s-.26-.23-.26-.41a8.2 8.2 0 0 1 .23-2.37c.16-.52.32-1 .47-1.54-.19-.49.07-.76.47-.95.22-.42.26-.94.71-1.22z" fill="#777"/><path d="m21.55 366.76a10.51 10.51 0 0 1 2.6-3.21c.22-.2.43-.42.64-.63s.6-.39.9-.57c.12-.08.26-.17.38-.06s0 .3-.09.41a28.87 28.87 0 0 1 -2.19 2.09 3 3 0 0 0 -.24.26 9.69 9.69 0 0 1 -1.44 2.52 4 4 0 0 0 -.29 1c-.05.15-.15.32-.33.29s-.21-.21-.21-.37a6.5 6.5 0 0 1 .27-1.73z" fill="#7e7e7e"/><path d="m26.56 367.11a2.55 2.55 0 0 1 .28-.9c.08-.16.23-.34.06-.49s-.36 0-.51.15a1.55 1.55 0 0 0 -.66 1.21 5.72 5.72 0 0 0 .16 2.06c.14.67 0 .81-.68.83.37-.11.54-.3.41-.74a5.76 5.76 0 0 1 .38-3.81 3.55 3.55 0 0 0 .09-.47l.22-.48c.17-.2.23-.46.39-.66s.26-.31.49-.21.16.25.18.42a1 1 0 0 1 -.2.71c0 .34.24.29.47.24l1-.25c.23-.06.55-.15.63.11s-.28.32-.46.45-.77.08-1 .49a4.78 4.78 0 0 0 -1.16 1.33s-.04.05-.09.01z" fill="#666"/><path d="m28.36 370.83c1.09-.23 2.2-.22 3.3-.36.47-.06 1.11.18 1-.72 0-.24.27-.18.43-.16s.11.18.06.3c-.19.43 0 .51.4.47 1.64-.14 3.29-.25 4.93-.37l1.37-.12a6.89 6.89 0 0 0 1.43.24.91.91 0 0 1 -.64.1 7.82 7.82 0 0 0 -2.73 0c-1.2.11-2.41.15-3.62.28a17.39 17.39 0 0 1 -1.9.16c-1.36 0-2.68.38-4 .3h-.07a.1.1 0 0 1 .04-.12z" fill="#676767"/><path d="m20.56 371.69.6-.26a18.87 18.87 0 0 0 3-.24 5.85 5.85 0 0 1 1.32-.12 2.17 2.17 0 0 1 .84-.12 7.27 7.27 0 0 1 2 0c-1.66.18-3.31.39-5 .54-.85.13-1.81.14-2.76.2z" fill="#676767"/><path d="m41.68 370a.32.32 0 0 1 .43 0c.36.37.68.27 1 0 0-.05.1-.05.14 0l-.5.57c-.49.05-.66-.49-1.07-.57z" fill="#676767"/><path d="m43.25 370h-.14a3.15 3.15 0 0 1 1.89-.4 13.91 13.91 0 0 0 2.49-.18 6 6 0 0 0 .83-.08.66.66 0 0 0 .6-.7c0-.36-.36-.3-.61-.32s-.58.05-.73-.28a7.87 7.87 0 0 0 2.82.11.59.59 0 0 0 .23 0c.36-.1.8.13 1.09-.16s-.09-.69-.06-1.06a1.36 1.36 0 0 1 .34-1 1.61 1.61 0 0 0 .55-.69c.24-.45.7-.54 1.11-.73a1.78 1.78 0 0 1 -.62 1 .71.71 0 0 0 -.31.55 1.63 1.63 0 0 0 -.12 1.57c0 .31.18.46.53.42a2.24 2.24 0 0 1 .93 0c2.92-.3 5.86-.22 8.78-.25 1.67 0 3.35.11 5 .09 2.29 0 4.58.11 6.86.27a41 41 0 0 1 4.78.66c1 .2 2.06.43 3.08.69a4.34 4.34 0 0 1 2.13 1.26 1.16 1.16 0 0 1 .29 1.37.5.5 0 0 1 -.56-.26 2.48 2.48 0 0 0 -1.71-1.07 23.16 23.16 0 0 0 -4-.87c-2.16-.23-4.31-.53-6.49-.64-2.63-.14-5.26-.2-7.89-.2-1.86 0-3.71.08-5.56.1s-3.55.05-5.32.1c-2 .05-4.09.23-6.13.37-1.33.1-2.73.22-4.08.33z" fill="#676767"/><path d="m45.65 87.9a5.21 5.21 0 0 1 -.09 2.19 11.11 11.11 0 0 0 -.07 4.26 30.83 30.83 0 0 0 .72 3.65 11 11 0 0 0 2.57 4.66c.66.72 1.27 1.48 1.9 2.22a2.86 2.86 0 0 0 .4.45c.11.12.21.25.06.41a.35.35 0 0 1 -.44 0 1.71 1.71 0 0 1 -.39-.37 5 5 0 0 0 -1-1.07 1.75 1.75 0 0 0 -.5-.61 4.73 4.73 0 0 0 -2-1.83 1.51 1.51 0 0 1 -.43-.32.68.68 0 0 1 -.12-.12c-.05-.11 0-.29-.11-.33a1.84 1.84 0 0 1 -1.05-1.31 3.13 3.13 0 0 1 -.7-1.9.33.33 0 0 0 -.31-.32.35.35 0 0 0 -.34.2c-.12.15-.06.27 0 .42a4.48 4.48 0 0 1 .42 1.87c0 .25-.24.22-.39.28-.74.28-.74.27-.38.9-.58 0-.73-.18-.72-.71 0-.3 0-.6 0-.89 0-.47 0-.88.68-1-.6-.21-.58-.65-.62-1.13-.16-1.57 0-3.14-.11-4.71 0-.2-.06-.39-.09-.59.24-.47-.12-.7-.39-1l.46-.11c.19 0 .28-.11.12-.32-.55-.77-.54-.78.33-1.24a.64.64 0 0 1 -.25-1.08c.16-.23 0-.52.3-.73s.71-.64 1.29-.19c.36.28.86 0 1.21-.47z" fill="#494949"/><path d="m43.84 78.39.12-.6c.07-.12.21-.23.17-.37-.28-.91.32-1.71.31-2.59 0-.41.27-.79.15-1.22 0-.07 0 0 0 0 .53-.51.27-1.29.67-1.84.16-.22.31-.39.58-.23s.25.33.06.58a.74.74 0 0 0 0 .8c.24.07.27.2.15.4s0 .37.21.45.25.44 0 .67 0 .28.07.42.12.58.2.87c.25.5-.06 1-.17 1.42a7.08 7.08 0 0 0 -.09 2.47 5.57 5.57 0 0 0 0 1 2.53 2.53 0 0 0 .62 1.16 9.29 9.29 0 0 1 .57 1.08.6.6 0 0 0 .33.62c.26.12.36.39.5.61a.92.92 0 0 0 .47.4c.21.08.26.3.37.47.08 1 .91 1.52 1.46 2.21a.82.82 0 0 1 .12.34.49.49 0 0 1 0 .41c.12.42.58.67.57 1.22a2.36 2.36 0 0 1 -.87-.88 3.48 3.48 0 0 0 -.63-.79c-.47-.47-.79-.46-1.3 0-.12.1-.23.39-.42.17s.08-.31.18-.45c.28-.39.61-.81.26-1.29-.23-.31-.36-.66-.57-1a.34.34 0 0 0 -.44-.08.26.26 0 0 0 -.13.36.56.56 0 0 1 -.07.56c-.15.2-.07.33.09.51s.76.66 0 1c-.24.14 0 .36 0 .58-.37-.12-.59-.5-1-.49-.2 0-.14-.32 0-.51s.3-.61.42-.93c.18-.5 0-.72-.51-.82l-.29-.08c.07-.55-.57-1-.23-1.6.14-.24.26-.48-.19-.53-.14 0-.16-.16-.2-.27s-.16-.22 0-.33.22 0 .3.1.21.23.35.14 0-.24 0-.36a.89.89 0 0 0 -.36-.78c-.06 0-.14-.16-.12-.19.28-.5-.14-.72-.35-1s-.33-.25-.43 0a3.06 3.06 0 0 0 -.36.94c0 .2-.1.46-.34.4s-.13-.31-.06-.46c.17-.35-.05-.82.36-1.09a.14.14 0 0 0 0-.06c-.59-.53 0-.62.3-.84.08-.07.09-.22 0-.39-.37.15-.84.57-.83-.29z" fill="#464646"/><path d="m57.29 93.86-.27.27a2.18 2.18 0 0 1 -1.21-.93c.42 0 .7.4 1.11.32.18 0 .37-.08.44.18a.29.29 0 0 1 -.07.16z" fill="#a7a7a7"/><path d="m57.28 93.75-.36-.23c.09-.33-.15-.46-.36-.6.48 0 .8.33 1.19.49s.22.29 0 .37a.44.44 0 0 1 -.47-.03z" fill="#616161"/><path d="m55.1 56.92c-.8-.32-1.09-1.17-1.71-1.7a16.15 16.15 0 0 1 -2.26-2.74c.29 0 .58-.22.65.39s.75 1.29 1.17 1.29 1 .43 1.57.22a.22.22 0 0 1 .35 0c.38.5 1 .74 1.28 1.36.14.33.5.51.77.73a1 1 0 0 1 .34.46c.2.16.52.14.62.45s.07.46-.24.49a1.67 1.67 0 0 1 -1.71-.49 1.82 1.82 0 0 0 -.83-.46z" fill="#595959"/><path d="m47.79 55c.72.16 1.16.36 1 1.36a9.26 9.26 0 0 0 0 2.47c.09.09.05.21.07.32a.55.55 0 0 1 -.18.47 1.31 1.31 0 0 0 -.51 1.1c0 .1-.12.14-.22.15l-.37-.12c-.28-1.07.25-2.1.13-3.15a8.41 8.41 0 0 1 .08-2.6z" fill="#a3a3a3"/><path d="m45.77 36.87a8.56 8.56 0 0 1 .31-1.33 6.2 6.2 0 0 0 .32-2.18 6.37 6.37 0 0 1 .26-1.62 6 6 0 0 0 .1-1.94c0-.4.25-.34.48-.17a.79.79 0 0 1 .22.76c-.05.76.12.94.85.92a.29.29 0 0 1 .24.15 4.15 4.15 0 0 1 .14 1.31c0 .18 0 .43-.29.37a3.59 3.59 0 0 0 0-.47c-.08-.34-.25-.47-.52-.14s-.66.64-1 0c-.31.85-.23.81.42 1.37.2.17.62.39.64.71a6.53 6.53 0 0 1 -.21 1.31c-.23-.24-.39-.4-.54-.57s-.29-.37-.46-.59c-.41.68-.28 1.57-.96 2.11z" fill="#575757"/><path d="m44.64 39.86a24.63 24.63 0 0 1 1-2.64c0 .63-.3 1.22-.31 1.87-.02.41-.42.54-.69.77z" fill="#767676"/><path d="m43.61 42.16a5.46 5.46 0 0 1 .7-1.46 2.7 2.7 0 0 1 -.7 1.46z" fill="#767676"/><path d="m45.88 72.87c-.14-.24-.33-.46-.2-.77 0-.11.13-.24 0-.32s-.26.06-.34.17a3 3 0 0 0 -.4 1.55 16.21 16.21 0 0 1 -.34 2 7 7 0 0 0 -.44 2c0 .09-.12.19-.18.29a30.39 30.39 0 0 1 .41-4c0-.12 0-.27.05-.35a5.58 5.58 0 0 0 .87-3.85 20.94 20.94 0 0 0 -.12-2.7c-.47.32 0 1-.58 1.22-.16-.21 0-.41 0-.6a13.27 13.27 0 0 1 .85-2.75 1.41 1.41 0 0 0 .46-1.07c0-.2 0-.44.31-.58 0 .41-.14.86.43 1-.39.32-.89.58 0 .86.31.09.07.62-.42.84 0 0 0-.08 0-.1s.28-.2.2-.4a.13.13 0 0 0 -.2-.06c-.17.1-.4.24-.34.45a14.1 14.1 0 0 1 .21 2 4.61 4.61 0 0 0 .37 1.83c.28.48.26.49.8.53a5.15 5.15 0 0 1 -.7 1.94.33.33 0 0 1 -.27.2c-.39.06-.41.36-.43.67z" fill="#4e4e4e"/><path d="m44.57 69.51c-.23-.05-.34.14-.48.25v-.13l.54-1.16c.1.42-.08.73-.06 1.04z" fill="#9b9b9b"/><path d="m33.52 175.35c.12-.43.07-1 .79-.95a.35.35 0 0 0 .32-.31c0-.56.5-1 .48-1.5 0-.26.22-.35.39-.49a.78.78 0 0 0 .27-.85c-.09-.27-.44-.18-.69-.1s-.18.38-.27.57-.1.24-.25.22-.17-.15-.19-.31a6.23 6.23 0 0 1 .19-1.88 40.83 40.83 0 0 0 .87-5 14.38 14.38 0 0 1 .42-1.72c.27-1.18.36-2.38.64-3.56.37-1.54.71-3.08 1.14-4.61.27-1 .41-2 .73-2.94s.49-1.87.72-2.81a.39.39 0 0 0 0-.24 3.53 3.53 0 0 1 .23-1.32.69.69 0 0 0 .13-.3c.09-1 .36-1.93.37-2.92 0-.45.31-.83.38-1.27s.49-.7.17-1.22c-.19-.29.3-.38.49-.54s.51.09.73.24.12.31 0 .51a.9.9 0 0 0 .18 1.24c0-.32-.58-.54-.26-1.12s.81-.52 1-1c-.7-.15-.84-.42-.45-1a6.56 6.56 0 0 1 1-1.4c.19-.16.19-.27 0-.41s-.31-.31-.21-.39c.65-.47 0-1 .08-1.5s.27-.76.74-.83h.36c.81-.23 1 0 1 .88a1 1 0 0 1 0 .17 4.69 4.69 0 0 1 -.42 1.56 6.54 6.54 0 0 1 -.1 2.21c-.16 1.08-.51 2.12-.77 3.18a7.1 7.1 0 0 0 -.12 1.14 7.42 7.42 0 0 1 -.69 2.41.68.68 0 0 0 -.07.31c.24 1.1-.31 2.09-.42 3.14-.09.74 0 1.5-.16 2.23a32.62 32.62 0 0 1 -.59 3.28c-.2.66-.2 1.34-.38 2-.06.2 0 .44-.15.62a.69.69 0 0 0 0 .73 2.17 2.17 0 0 1 -.08 2.24c-.18.27-.06.54-.12.8a21.39 21.39 0 0 1 -.62 2.35 2 2 0 0 0 -.08.72c0 .33-.26.51-.32.78-.1.9-.37 1.76-.51 2.64a12.55 12.55 0 0 0 -.35 2.37 3.52 3.52 0 0 1 -.35 1 1.93 1.93 0 0 0 -.19.74c0 1.23-.58 2.34-.7 3.54-.06.68-.4 1.33-.14 2a.35.35 0 0 1 -.06.34 4 4 0 0 0 -.61 2.15c0 .44-.37.78-.44 1.24-.29 2-.85 3.9-1.22 5.86-.33 1.79-.67 3.59-1.1 5.36-.51.22-.71.13-.63-.36s-.32-.57-.17-.9a1.11 1.11 0 0 1 .07-.16.57.57 0 0 0 0-.22c-.15 1-.55 1.91-.67 2.92-.08.59-.41 1.19-.45 1.81s-.4 1.14-.38 1.76a1 1 0 0 1 -.15.51 2.14 2.14 0 0 0 -.3 1.49 1 1 0 0 1 -.15.8s-.09.1-.09.15c.16 1-.53 1.75-.77 2.63a17.7 17.7 0 0 0 -.27 1.84c-.2 1.23-.38 2.46-.68 3.67a2.14 2.14 0 0 0 -.07.94c-.15 1.05-.16 2.11-.35 3.16-.05.27-.05.61-.41.72l-.17.17c-.16.13-.38.27-.54.13s.06-.31.13-.47c.22-.52.2-.59-.27-.73a4 4 0 0 0 .76-2.19 13.76 13.76 0 0 1 .55-2.7c.28-.72 0-1.52.36-2.23.06-.13-.06-.21-.18-.27s-.29-.18-.22-.37.29.05.46-.09c-.66-.74.23-1.24.32-1.9-.92 0-1.1-.43-.79-1.29a15.66 15.66 0 0 0 .47-2.38 1.89 1.89 0 0 1 .78-1.4c-.42-.14-.51-.36-.26-.75s.35-.6.05-.93c-.12-.14 0-.21.09-.27s.17-.11.1-.24c-.49-.86-.06-1.56.4-2.25-.19-.42-.29-.83.13-1.18l.72-2.29c-.32-.41-.06-.83 0-1.21.53-2.51 1-5 1.49-7.55a18.1 18.1 0 0 1 .55-2.86c-.06.21-.12.49-.18.77s0 .42-.32.41c-.1.05-.15.24-.29.17s-.11-.31-.09-.49c.19-1.44.31-2.88.58-4.31.09-.14.09-.24.1-.34z" fill="#474747"/><path d="m24.29 294.27c0 .17 0 .35-.13.48a1.73 1.73 0 0 0 -1.07.17c-.34.1-.59.12-.66-.36a20.12 20.12 0 0 1 -.26-2.19 11.16 11.16 0 0 0 -.16-1.16c-.26-1.95-.25-3.91-.34-5.87s-.1-3.83-.05-5.75a19.18 19.18 0 0 0 -.07-2.83 30.25 30.25 0 0 1 .06-3.43 18.06 18.06 0 0 0 0-2.44 9.64 9.64 0 0 1 0-2.34c.05-.39-.2-.79-.06-1.2s0-.94 0-1.43a12.76 12.76 0 0 0 -.07-2.76 8.52 8.52 0 0 1 .11-1.23c.06-.51 0-1 .07-1.54a.37.37 0 0 1 .05-.17 8.9 8.9 0 0 0 0-1.86.41.41 0 0 1 .05-.18c.07-1.17.14-2.34.24-3.51a6 6 0 0 1 0-1.67 8.55 8.55 0 0 0 .2-1.95 5.66 5.66 0 0 1 0-.92s.08-.11.08-.16c0-.86.29-1.7.3-2.52a25 25 0 0 1 .23-2.88c.09-.87 0-1.75.18-2.61s0-1.61.16-2.4c.05-.26 0-.51 0-.77s0-.32.24-.35c.25-.58.67-1.12.41-1.82a.14.14 0 0 1 0-.11c.5-.49 0-1.15.19-1.57a19.29 19.29 0 0 0 .48-2c0-.15.14-.26 0-.44-.22-.39 0-.68.3-.89.17-.11.43-.33.22-.43s-.32-.44-.46-.71c-.22-.44 0-.65.24-.85a2.78 2.78 0 0 1 .87-.5c.41-.15.47.15.48.45v.1c.08.63-.15 1.25-.1 1.88a7.21 7.21 0 0 1 0 1.6c-.18.88-.2 1.79-.43 2.66a4.73 4.73 0 0 0 -.15 2.24 1.59 1.59 0 0 1 0 1 2 2 0 0 0 -.21 1.08c0 1.34-.39 2.67-.27 4s-.29 2.48-.29 3.7-.41 2.53-.33 3.8-.2 2.39-.22 3.59a10.76 10.76 0 0 0 .09 2.12 6.54 6.54 0 0 1 -.14 2.2 1.58 1.58 0 0 0 0 1 1 1 0 0 1 0 .76 5.64 5.64 0 0 0 -.11 2.42 7.82 7.82 0 0 1 .04 3.28 3.6 3.6 0 0 0 0 1.6c0 1-.07 2-.07 3a21.15 21.15 0 0 0 0 3.47c.06.38-.22.71-.2 1.1.12 2.59 0 5.18 0 7.77s.28 5.37.49 8.05c0 .4.12.79.17 1.19s.19.76-.1 1.09z" fill="#484848"/><path d="m23.44 238.47c0 .8 0 1.61-.11 2.4-.12 1.09-.12 2.18-.2 3.27a13.75 13.75 0 0 0 -.27 2.29c.13 1.14-.55 2.18-.34 3.31 0 .11-.1.25-.16.38a.2.2 0 0 1 0-.27 1.75 1.75 0 0 1 -.09-1c.27-2.07.42-4.16.58-6.25.14-1.85.25-3.7.38-5.55.36-2.84.72-5.67 1.09-8.51a8 8 0 0 0 .35-1.93c.15-.36.1-.77.3-1.11h.16a4.09 4.09 0 0 1 -.28 1.73 1 1 0 0 0 -.16.62 3.88 3.88 0 0 1 -.27 1.79 7.69 7.69 0 0 0 -.2 2.48c.09.6-.27 1.1-.36 1.67-.21 1.36-.21 2.74-.49 4.09a1.06 1.06 0 0 0 .07.59z" fill="#5a5a5a"/><path d="m44.69 104.65a.71.71 0 0 1 .11.86c-.21.34-.09.71-.1 1.07s-.3.47 0 .71a6.1 6.1 0 0 1 .12 1.7c0-.07-.1-.15-.09-.21.09-.72-.37-1.11-.82-1.54s-.53-1 .2-1.41a1.06 1.06 0 0 0 .58-1.18z" fill="#6e6e6e"/><path d="m45.23 100.72-.23-.72v-.17a.72.72 0 0 1 .34.33 1.14 1.14 0 0 0 1.37.69.44.44 0 0 1 .22.05s0 .06.07.1c-.16.26-.56.1-.69.4.13.17.24.36 0 .5s-.42 0-.56-.2-.19-.7-.52-.98z" fill="#555"/><path d="m39.07 148.83a1.33 1.33 0 0 1 0 .88c-.71 2.66-1.48 5.31-2.09 8-.33 1.47-.66 3-.85 4.46s-.61 2.75-.81 4.16-.5 2.79-.76 4.18a2.86 2.86 0 0 0 0 1.23c.25-.15.22-.51.49-.58a2.15 2.15 0 0 1 -.5 1c-.17.15-.33.29-.57.15.28-1.54.55-3.08.83-4.62.43-2.37.85-4.75 1.31-7.12.4-2 .87-4 1.44-6s1.02-3.83 1.51-5.74z" fill="#676767"/><path d="m40.36 143.07a15.05 15.05 0 0 0 -.71 3.76c0 .27 0 .56-.35.68a2.39 2.39 0 0 1 .07-.88c.23-1.2.33-2.43.56-3.63s.31-2.28.54-3.41c.15-.19.1-.44.22-.64s.18-.4.46-.3.15.42.07.64a1.6 1.6 0 0 0 -.06 1.16.64.64 0 0 1 -.27.77c-.28.22-.53.41-.39.88a2 2 0 0 1 -.14.97z" fill="#5d5d5d"/><path d="m41.08 138.75c-.33.19-.37.59-.61.84a75.1 75.1 0 0 1 1.31-8.17 1.9 1.9 0 0 1 .35.78v.31a3.33 3.33 0 0 0 -.19 1.21 1.15 1.15 0 0 0 -.1 1.08c0 .16.15.31.07.48a1.35 1.35 0 0 1 -.31.66c-.13.14-.24.3-.1.5a.89.89 0 0 1 0 .73c.26.4.07.82.06 1.23s-.16.46-.48.35z" fill="#5f5f5f"/><path d="m41.43 55.46a5 5 0 0 1 .47-1.77c0-.13.14-.27.29-.27.35 0 .67 0 .26-.44.55-.33.18-1.14.74-1.42.29-.15.26-.74.64-.55.18.1-.19.56-.1.87.08.08.14.19.09.27-.55.73-.48 1.72-1.07 2.42-.19.24-.16.6-.45.78a1.15 1.15 0 0 0 -.87.11z" fill="#797979"/><path d="m41.08 137.07c.24-.2 0-.39 0-.59.61-.44.76-.75.6-1.21a6.76 6.76 0 0 1 -.12-1.55.44.44 0 0 0 .21-.57 2.29 2.29 0 0 1 0-.64v-.24a10.32 10.32 0 0 0 .36-1.92c.22-1.31.61-2.58.8-3.91.15-1 0-2.07.25-3.11a9.61 9.61 0 0 0 -.17-2.16c0-.4-.09-.79.19-1.13.05-.07.12-.14.07-.21-.36-.47-.28-1.13-.65-1.59h.11c.76.27 1.54.52 2.28.85.23.1.21.45.23.71a3 3 0 0 0 .13 1.11 4.27 4.27 0 0 1 .35 1.89c.09.71.16 1.42.19 2.13s-.12 1.17-.13 1.76a12.48 12.48 0 0 1 -.05 1.94 26 26 0 0 1 -.15 2.65 1.91 1.91 0 0 0 0 .92c.09.53-.32 1-.35 1.52a5.22 5.22 0 0 0 -.06 1.93c-.17.29.09.82-.49.87-.05-.71-.05-.71-.68-.52a.72.72 0 0 1 -.29 0c-.2 0-.37 0-.45.21s0 .13.37.38c-.54.19-.46.39 0 .55s.32.25.06.43l-.53.37c0 .17.14.15.24.16s.34 0 .4.19-.08.38-.22.52-.71.24-.55.81c.05.18-.44.45-.66.7s-.13.46.14.61l.86.46c0 .23-.18.23-.28.18-.26-.11-.46-.21-.43.23 0 .24-.17.3-.37.21-.44-.19-.55.19-.63.42a.49.49 0 0 0 .37.63c.36 0 .38.32.57.56h-.41a1 1 0 0 1 -.91-1.48c.1-.22.15-.35-.06-.51a.38.38 0 0 0 -.44 0c-.28.15-.14.32 0 .5.25.48-.07.75-.39 1a2.32 2.32 0 0 1 .4-2.08c.05-.07.12-.22.08-.27-.45-.72.09-1.32.24-2a.3.3 0 0 0 .12-.36c-.17-.25 0-.37.17-.53s.33-.44-.13-.48c-.27-.05-.27-.16-.19-.34z" fill="#4e4e4e"/><path d="m42.16 130.35c.1.07.23.17.18.28-.26.53-.13 1.17-.54 1.64v-.84z" fill="#5d5d5d"/><path d="m46.37 74a11.61 11.61 0 0 1 -.1 1.67c-.2-.31-.16-.72-.46-1s-.09-.38.14-.47a.44.44 0 0 0 .29-.45z" fill="#4e4e4e"/><path d="m31 82.08c-.28.37-.4.73-.78.87-.13 0-.31 0-.37-.1s.09-.22.19-.26c.32-.1.49-.47.96-.51z" fill="#6d6d6d"/><path d="m22.35 249.85v1.22a13.94 13.94 0 0 1 -.24 1.93 7.19 7.19 0 0 0 .12 1.67 19.41 19.41 0 0 0 -.3 2.84 2 2 0 0 1 -.06.76v.12a4.29 4.29 0 0 0 0 1.29 1.13 1.13 0 0 1 0 .63 3.74 3.74 0 0 0 -.12 1.56 4.52 4.52 0 0 0 -.12 1.32 19.88 19.88 0 0 1 .05 3c0 .41 0 .81.07 1.21a30.37 30.37 0 0 1 0 3.57 23.07 23.07 0 0 1 -.1 4.77 13.26 13.26 0 0 0 .16 1.89c0 .21.23.24.38.34s.13.19.08.31-.14.1-.26 0-.23.05-.22.18c.1 1.29-.19 2.58 0 3.86a1.3 1.3 0 0 1 -.06.65 1.2 1.2 0 0 0 .07 1.09.51.51 0 0 1 .08.34c-.15 1.93.12 3.85.11 5.78a18.51 18.51 0 0 0 .32 2.55c.06.49.08 1 .15 1.48 0 .22 0 .55.34.54s.23-.36.26-.69a1.89 1.89 0 0 0 1.06.69 8.37 8.37 0 0 1 -1 .33c-.59.14-.82 0-.91-.6-.2-1.46-.43-2.92-.52-4.39-.17-2.76-.25-5.53-.37-8.3a23.8 23.8 0 0 0 0-3.16c0-2.2.09-4.4 0-6.58-.06-2.8 0-5.59 0-8.38 0-2.09.2-4.18.29-6.28.1-2.29.21-4.58.42-6.87a1.2 1.2 0 0 1 .32-.67z" fill="#5c5c5c"/><path d="m33.29 180.28c.08-.39.16-.78.25-1.17a2.15 2.15 0 0 1 .14-.45c.08-.15.21-.36.4-.3s.13.31.08.47c-.55 1.8-.69 3.69-1.12 5.51s-.63 3.81-1.2 5.67c-.06.23-.07.47-.11.71s-.14.42-.48.57c.11-.68.19-1.3.32-1.91.32-1.52.68-3 .91-4.57.2-1.26.51-2.51.75-3.76a6.48 6.48 0 0 0 .06-.77z" fill="#b6b6b6"/><path d="m49.48 104.07c.49.24.64.79 1 1.13.14.12.19.35.5.34l-.33-.62c1 .89 1.93 1.9 3 2.7a50 50 0 0 0 7.2 4.48c1.2.59 2.38 1.21 3.57 1.81a7 7 0 0 1 1.81 1c.67 0 1.11.5 1.67.75a23.15 23.15 0 0 0 2.79 1.23 6.59 6.59 0 0 1 1.13.52 1.06 1.06 0 0 1 -1.14.18 44.71 44.71 0 0 1 -6.27-2.28c-1.14-.58-2.34-1-3.5-1.49a45.6 45.6 0 0 1 -4.62-2.22c-1.08-.59-2.13-1.25-3.17-1.91a20.37 20.37 0 0 1 -3.12-2.53 2 2 0 0 1 -.48-.53 1.92 1.92 0 0 0 -1-.89c-.1 0-.12-.15-.17-.24-.47-1.2-.15-1.6 1.13-1.43z" fill="#555"/><path d="m49.59 73c-.06 1.79 1 2.92 2.23 4.05a25.05 25.05 0 0 0 4.38 3 34.22 34.22 0 0 0 3.8 1.81 32.69 32.69 0 0 0 5.34 1.75c.93.22 1.84.53 2.75.83a18.6 18.6 0 0 1 2.26.54c.24.33.07.44-.24.5a5.75 5.75 0 0 1 -1.93-.32c-2.06-.43-4.12-.87-6.15-1.44a28.62 28.62 0 0 1 -6.82-2.65 29.18 29.18 0 0 1 -4.28-2.93c-.36-.59-.93-1-1.32-1.58a3.19 3.19 0 0 1 -.51-.92 4.89 4.89 0 0 1 -.17-3c.05-.31 0-.62.05-.94s.11-.3.29-.29.25.15.26.33a6.51 6.51 0 0 0 .06 1.26z" fill="#626262"/><path d="m70.12 85.48a.94.94 0 0 0 .24-.5c.79.12 1.57.25 2.36.35a12.37 12.37 0 0 0 2 0 16.56 16.56 0 0 0 4.32-.44c.33-.1.71 0 1-.22.09-.06.26-.07.31.06s-.1.23-.22.28-.48.2-.72.29c-1.13.07-2.23.4-3.36.44a18.76 18.76 0 0 1 -5.93-.26z" fill="#848484"/><path d="m59.32 94.24c.49-.06.88.24 1.33.34l1.65.5c.06.28-.1.3-.31.27a8.29 8.29 0 0 1 -2.68-.74c-.01-.13-.15-.26.01-.37z" fill="#a0a0a0"/><path d="m64.46 95.68a2.23 2.23 0 0 1 -1.79-.18c.26-.24.5-.16.72-.17z" fill="#a0a0a0"/><path d="m59.32 94.24c.08.09.29.07.26.23s-.17.1-.27.14c-.71-.16-1.34-.53-2-.75v-.11c.18-.08.46 0 .47-.34a6.75 6.75 0 0 1 1.54.83z" fill="#818181"/><path d="m34 198.15-.2.73-.12.24a2.15 2.15 0 0 1 0 .91 28.54 28.54 0 0 0 -.18 3.06 1.23 1.23 0 0 1 -.36.78 2.44 2.44 0 0 0 -.58 1.39 4.15 4.15 0 0 1 -.18.85c-.35.81-.13 1.72-.46 2.55-.11.26.23.67.12 1.06a20.07 20.07 0 0 1 -.57 2.38l-.06.19a11.43 11.43 0 0 1 -.53 3.23 1.42 1.42 0 0 0 0 .41 5.78 5.78 0 0 1 -.28 1.89 12.51 12.51 0 0 0 -.35 2.66c-.05.37-.21.69-.26 1a2 2 0 0 0 0 1 .46.46 0 0 1 -.36.62c-.49.16-.68-.18-.63-.52.1-.65.05-1.3.17-1.95.26-2.56.77-5.09 1.17-7.63.34-2.21.74-4.41 1.14-6.61.19-1.06.45-2.11.68-3.16a16 16 0 0 1 .36-1.93l.1-1.32a10.59 10.59 0 0 0 .29-2.45c.07-.79.22-1.56.33-2.34l.13-1c.06-.57.07-1.15.14-1.73 0-.17 0-.49.34-.43 0 .36.06.71.07 1.07 0 .2.08.29.29.25a17.35 17.35 0 0 1 -.26 2.6c0 .37-.07.75-.1 1.12-.3.51 0 .78.15 1.08z" fill="#717171"/><path d="m35.09 43.71a11.83 11.83 0 0 0 1.6-2.3 40.46 40.46 0 0 0 3.12-5.32 3.11 3.11 0 0 1 .3-.44.31.31 0 0 1 .24.49.88.88 0 0 0 .15 1 2.32 2.32 0 0 1 -.5 1.06 38.13 38.13 0 0 0 -2.17 3.29c-.68 1-1.51 1.94-2.22 2.94a30.36 30.36 0 0 1 -2.57 3.06 18.6 18.6 0 0 1 -2.82 2.64c-.61.44-1.08 1-1.73 1.46a31.36 31.36 0 0 1 -5.62 3.23 3.24 3.24 0 0 1 -1.65.28c.15-.3.47-.28.64-.46a18.37 18.37 0 0 0 4.32-2.27 20.63 20.63 0 0 0 4.21-3.24 58.14 58.14 0 0 0 4.35-4.92 1.3 1.3 0 0 0 .35-.5z" fill="#8d8d8d"/><path d="m40.5 37.11a.33.33 0 0 1 -.55-.06c-.17-.2-.29-.39-.11-.63a1.13 1.13 0 0 0 .27-.77l1.89-4.32c.06-.15.09-.3.14-.45s.23-.42.35-.62a5.54 5.54 0 0 1 -.58 1.85 3.94 3.94 0 0 0 -.35.88c-.16.81-.11.85.72.65a26.52 26.52 0 0 1 -1.78 3.47z" fill="#787878"/><path d="m37.25 31.12a.48.48 0 0 1 .09-.6c.17-.17.23 0 .26.13z" fill="#858585"/><path d="m87.06 53.92a7.79 7.79 0 0 0 1.74-.27 1.89 1.89 0 0 1 .23 0c.11 0 .24-.06.3.08s-.06.24-.19.29a3 3 0 0 0 -.3.18 3.63 3.63 0 0 1 -.68.23 25 25 0 0 1 -5.33.41 28.91 28.91 0 0 1 -6.62-1.26 49.11 49.11 0 0 1 -5.72-2.12c-1.75-.87-3.49-1.6-5.28-2.46a18.94 18.94 0 0 1 -2.21-1.36c-1.55-1.06-3.08-2.14-4.57-3.29a19.37 19.37 0 0 1 -2.53-2.35 2.69 2.69 0 0 0 -.63-.54 8.39 8.39 0 0 1 -2.13-2.46 9.89 9.89 0 0 1 -1.14-2c-.21-.81-.51-1.6-.68-2.42 0 0 0-.07-.07-.09-.93-.74-.86-1.79-.89-2.81a1.88 1.88 0 0 0 -.17-.57 5.89 5.89 0 0 1 -.41-3.61 1.66 1.66 0 0 0 -.06-.82 6.13 6.13 0 0 1 -.23-2.05.63.63 0 0 1 .64-.62c.21-.18.49-.14.55.07a7.73 7.73 0 0 1 .48 1.17c.18 1.11.2 2.23.39 3.33a1.5 1.5 0 0 0 .3.59.72.72 0 0 1 .14.77.4.4 0 0 0 0 .35c.4.5.18 1.16.45 1.68a2.72 2.72 0 0 1 .56 1.47 1.5 1.5 0 0 0 .49 1 1.88 1.88 0 0 1 .45.86 5.45 5.45 0 0 0 .67 1.23 2.42 2.42 0 0 0 .84 1.2 11.41 11.41 0 0 1 1 1.26c.61.69 1.17 1.43 1.81 2.08a19.91 19.91 0 0 1 1.47 1.57c.23.3.69.35 1 .66.78.92 1.91 1.43 2.76 2.27a14.27 14.27 0 0 0 1.23 1 19.53 19.53 0 0 0 2.07 1.24 23.19 23.19 0 0 0 3.79 1.91c1 .38 1.83.9 2.83 1.22.65.2 1.25.73 1.94.92a44.6 44.6 0 0 0 4.28 1.41 36.51 36.51 0 0 0 3.9.67 6.32 6.32 0 0 0 2.29-.08c.34-.1.82.14 1.24.06z" fill="#505050"/><path d="m62.68 35.66c-1.64-2-3.19-4.08-4.71-6.17a5.33 5.33 0 0 1 -.44-.72 1.21 1.21 0 0 0 -.8-.73c-.23-.07-.46-.17-.46-.48 0 0 .08-.06.11-.06.29.11.61.35.86 0s-.1-.52-.24-.74a58.62 58.62 0 0 1 -4.47-7.91 30.12 30.12 0 0 1 -1.53-4.47c-.27-1.06-.58-2.12-.82-3.19-.09-.56-.13-1.12-.24-1.68-.1-.45.13-.93-.16-1.41-.32.3.06.82-.34 1.05l-.44 2.85a1.51 1.51 0 0 1 0-1.36 10.3 10.3 0 0 0 .21-1.64.47.47 0 0 0 -.12-.39 2.13 2.13 0 0 1 -.2-2.2.77.77 0 0 0 0-.52.8.8 0 0 1 .67-1.14.89.89 0 0 0 .52-.26.51.51 0 0 1 .64-.2c.3.13.34.42.35.71 0 1 0 2.11.13 3.16a15.13 15.13 0 0 0 .8 4.09c.81 2.31 1.62 4.62 2.65 6.85.63 1.35 1.35 2.66 2 4 1.1 2.2 2.15 4.43 3.11 6.69a.93.93 0 0 0 .45.54 33.8 33.8 0 0 0 8.67 8.15c.11.36-.18.33-.39.42-.5.2-.94-.12-1.41-.18a11.88 11.88 0 0 1 -4.08-2.72z" fill="#515151"/><path d="m48.29 21.28a74.47 74.47 0 0 0 .25 7.47 8 8 0 0 1 -.12 2.71c-.4.64-.59.68-1.22.28-.05 0-.12-.11-.11-.12.35-.45-.31-.89 0-1.36.16-.23-.07-.44-.28-.59-.38-.2-.08-.53-.16-.79 0-.59.31-1.18-.05-1.76a.18.18 0 0 1 .11-.21 1.52 1.52 0 0 0 .11-.7 1.28 1.28 0 0 1 .64-1.15c.12-.08.34-.09.3-.3s-.19-.29-.38-.34-.44-.16-.48-.43c.17-.13.29 0 .41 0a.35.35 0 0 0 .38-.1c.14-.14.1-.25 0-.35s0 0 0-.05c.26-.87-.24-1.86.37-2.69.16.12.11.35.23.48z" fill="#4f4f4f"/><path d="m49.48 24.63a9.39 9.39 0 0 1 .52 3.15 7.23 7.23 0 0 0 .33 2.76c.28.94.06 1.92.5 2.8.1.19.1.48.24.59a2.32 2.32 0 0 1 .72 1.41 2.61 2.61 0 0 0 .49 1.25c.11.11 0 .27 0 .4s-.27 0-.37-.13a12.72 12.72 0 0 1 -2-5.37 32.33 32.33 0 0 1 -.37-3.81 13.38 13.38 0 0 0 -.54-2.57c0-.24-.19-.49.05-.72 0-.69-.28-1.34-.3-2 .17.09.27.31.49.31.51 0 .43.41.28.55-.52.47-.16.92-.04 1.38z" fill="#646464"/><path d="m46.59 25.69h.12v1.21.24a1.18 1.18 0 0 1 .08.92c-.08.26 0 .51 0 .76a1 1 0 0 0 0 .84 7.51 7.51 0 0 1 -.24 2.67 4 4 0 0 0 -.1 1.55 3.26 3.26 0 0 1 -.41 1.65c.28-1.29.11-2.64.51-3.94a5.41 5.41 0 0 0 .06-1.89c-.09-1.14-.12-2.29-.16-3.44a1 1 0 0 1 .14-.57z" fill="#767676"/><path d="m46.67 21.52c0 .1-.06.21-.18.2s-.13-.13-.11-.23.06-.21.18-.2.12.13.11.23z" fill="#868686"/><path d="m69.64 39a5.62 5.62 0 0 1 1.25.56 2.64 2.64 0 0 0 1 .43c.18 0 .39.12.37.33s-.24.15-.38.19a1.17 1.17 0 0 1 -.76-.11c-.68-.24-1.35-.5-2-.75-.26-.29-.21-.48.18-.53a.73.73 0 0 0 .34-.12z" fill="#595959"/><path d="m69.64 39c-.1.27-.49.31-.5.65l-2-1a4.23 4.23 0 0 0 1.8-.24c.35.06.35.59.7.59z" fill="#777"/><path d="m55.1 56.92a.83.83 0 0 1 .93.34 1.54 1.54 0 0 0 1.85.14l.95.6c.23.15.54.16.76.35a5.5 5.5 0 0 0 2.35 1.48c.49.18.86.57 1.39.66.11 0 .13.18.17.29l.36.1c.45.08.78.46 1.23.51a3.3 3.3 0 0 1 1.91 1c.2.18.51 0 .72.17s.45.2.68.28c1.33.42 2.63.94 4 1.26s2.67.63 4 .91a69.8 69.8 0 0 0 8.86 1.29c.48 0 1 0 1.43.06.24.21.56.41 0 .62a60 60 0 0 1 -8.46-.73 61 61 0 0 1 -9-2 45.33 45.33 0 0 1 -9.71-4.18 28.71 28.71 0 0 1 -4.42-3.15z" fill="#676767"/><path d="m86.68 67c.19-.21 0-.41 0-.62a14.35 14.35 0 0 1 1.72.12c2.39-.11 4.79 0 7.19 0 .21 0 .48-.12.43.27 0 .13-.12.13-.22.11l-7.63.26a12.15 12.15 0 0 1 -1.49-.14z" fill="#787878"/><path d="m89.42 53.41a9.39 9.39 0 0 0 1.89-1.22.26.26 0 0 1 .33 0c.12.11 0 .22 0 .32a3.22 3.22 0 0 1 -1.46 1.17c-.18-.25-.62.13-.76-.27z" fill="#9a9a9a"/><path d="m89.42 53.41c.26 0 .55 0 .73.25a6.9 6.9 0 0 1 -1.31.49c0-.17.66-.39 0-.5a1.19 1.19 0 0 1 .58-.24z" fill="#696969"/><path d="m50 9.51a4 4 0 0 1 .24 1.68 4.75 4.75 0 0 1 -.24-1.68z" fill="#9d9d9d"/><path d="m33.45 330.39c0 .68.42 1.17.66 1.75a23.29 23.29 0 0 1 1.27 3.57c.26 1.12.6 2.21.9 3.32.09.3.19.7 0 .88s-.42-.23-.65-.34-.73-.45-.41-1a.14.14 0 0 0 -.11-.22c-.43 0-.71-.41-1.12-.47-.21-.27-.09-.62-.18-.92a2.36 2.36 0 0 1 .64-1c.17-.14.15-.38 0-.43s-.37-.51-.76-.45c-.14 0-.24-.19-.2-.32s-.06-.51 0-.76.16-.23.13-.38a1.32 1.32 0 0 0 -.24-.66s-.06-.09-.09-.08a1 1 0 0 1 -1-.79c-.16-.57-.58-1.23 0-1.86-.74-.13-.85-.66-1-1.25s-.09-1.36-.35-2a7.17 7.17 0 0 1 -.11-1.35c-.11-.74-.32-1.47-.39-2.23a5.73 5.73 0 0 0 -.36-1.51 3.29 3.29 0 0 1 -.24-1c0-.47-.2-.85-.78-.88a.43.43 0 0 1 -.47-.37c-.3-1.72-.51-3.45-1-5.14-.09-.3 0-.62-.11-.92-.34-2.07-.74-4.14-.92-6.24-.06-.8-.13-1.59-.24-2.38a2.66 2.66 0 0 1 0-.89 1.09 1.09 0 0 0 -.12-.87c-.37-.48-.22-1.08-.4-1.6-.08-.2.07-.38.16-.55a1.58 1.58 0 0 0 -.36-1.19 8.4 8.4 0 0 0 1.38.06c.17 0 .27.12.36.27a4.21 4.21 0 0 1 .62 2.33c0 .65.09 1.29.06 1.95a14.06 14.06 0 0 0 0 1.46c0 .07 0 .18.05.22.74.78.53 1.81.68 2.72.25 1.55.32 3.13.7 4.65-.24.21-.34 0-.45-.16a3.67 3.67 0 0 1 -.5-2.24c0-.82-.23-1.61-.25-2.43 0-.13-.07-.31-.24-.28s-.2.24-.16.38a16.55 16.55 0 0 1 .36 2.61c.12 1.39.31 2.77.47 4.15a3.31 3.31 0 0 0 1.08 2.55 3.31 3.31 0 0 1 1.07 2.6c0 .46.42.83.3 1.2 0 .2.11.12 0 .15s0 0 0-.05a.44.44 0 0 1 .1-.55c.31 1.08.67 2.15.93 3.25.43 1.77.86 3.55 1.14 5.35a1.82 1.82 0 0 0 .15.34z" fill="#555"/><path d="m31.24 321.4a6.63 6.63 0 0 0 .27 1.58.66.66 0 0 1 -.37-.58c-.13-.76-.41-1.47-.51-2.25a3.2 3.2 0 0 0 -1.33-2.1 1.81 1.81 0 0 1 -.72-1.24c-.4-2.3-.58-4.62-.84-6.93a11.14 11.14 0 0 1 -.28-1.53c0-.22-.06-.46.2-.56a.55.55 0 0 1 .69.21.76.76 0 0 1 .21.42c0 .9.26 1.77.26 2.68a3.54 3.54 0 0 0 .63 2.37c.37 1.72.73 3.44 1.11 5.15.2.93.44 1.86.68 2.78z" fill="#464646"/><path d="m24.21 299.42c.5.06.71.28.78.61a7.06 7.06 0 0 1 .37 2.66c-.65.57-.45 1 .18 1.44.14.09 0 .29-.08.43a3.11 3.11 0 0 1 -.91.22c-.94.08-1.31-.29-1.27-1.24 0-.44.27-.89-.09-1.32-.1-.13 0-.25.14-.36a.55.55 0 0 0 .18-.59s0-.11-.07-.15c-.56-.86-.56-.86.11-1.46" fill="#525252"/><path d="m39.41 351.13c0 .21.05.45-.16.61-.19 0-.13-.17-.15-.28 0-.39-.18-.46-.47-.15s-.46.14-.51-.2c-.08-.6-.14-1.19-.19-1.78 0-.36-.08-.65-.57-.52a.46.46 0 0 1 -.57-.33 8.76 8.76 0 0 0 -.61-1.74c0-.06.07-.17.1-.26v-.08c0-.57.11-1.17-.34-1.66a8.78 8.78 0 0 0 -.29-1.23c.06-.48.2-1-.18-1.4a.77.77 0 0 1 0-.75 2.34 2.34 0 0 1 1.05-1.36c.49 1.6.75 3.25 1.22 4.86.56 1.91 1 3.85 1.6 5.75a3.07 3.07 0 0 1 .07.52z" fill="#484848"/><path d="m36.52 340a.87.87 0 0 0 -.1.52.39.39 0 0 1 -.28.46.77.77 0 0 0 -.43 1.19 1.61 1.61 0 0 1 .1 1.32c-.51-.34-.46-.9-.53-1.38s-.36-.89-.2-1.39c0-.1-.07-.21-.18-.28s-.24-.32-.13-.59a.87.87 0 0 0 -.52-1.13c-.33-.16-.39-.58-.13-1 .19 0 .34 0 .46.15a.48.48 0 0 0 .5.23c.54 0 .64.12.39.6-.06.12-.21.22-.11.37s.23 0 .34-.06.19.06.23.16.07.36.26.49c.14-.2.07-.42.09-.62.22.28.13.64.24.96z" fill="#575757"/><path d="m48.62 365.18a12 12 0 0 1 2.68-1.9.65.65 0 0 1 .22-.08c.2 0 .44-.09.52.16s-.12.32-.27.41c-.54.34-1.08.68-1.63 1s-1 1.1-1.62 1.5c-.33-.12-.23-.32-.08-.51s.29-.33.18-.58z" fill="#868686"/><path d="m48.62 365.18c.34-.06.47.06.32.38s-.28.48-.42.72l-1 1.42c0-.64-.06-.68-.64-.48a7.12 7.12 0 0 1 1.74-2.04z" fill="#676767"/><path d="m54.06 368.06h-1.06c-.31 0-.48-.13-.42-.47a.75.75 0 0 0 .78.36 1.21 1.21 0 0 1 .7.11z" fill="#7b7b7b"/><path d="m34.12 337.71c.18.35.16.76.78.86.44.07.23.78.18 1.16s-.12.51.18.69a.33.33 0 0 1 .13.32 7.31 7.31 0 0 0 .42 2.74c.11.39.23.79.35 1.19s.51.88.15 1.38a1.41 1.41 0 0 1 -.8-1.25c-.31-1.64-.81-3.25-1.18-4.89 0 .21-.07.37-.33.36-.45-.28-.6-.8-.83-1.06.26.44.06 1.06 0 1.65 0 .42-.45.59-.94.44s-.68-.29-.5-.76a.69.69 0 0 0 -.05-.68 3.37 3.37 0 0 1 -.59-2.07 5.69 5.69 0 0 0 -.43-1.73 7.74 7.74 0 0 1 .43 2.28 5.8 5.8 0 0 0 .33 1.15c.1.4.39.77.26 1.22a.26.26 0 0 0 0 .21c.66.34.34 1 .5 1.51a6.09 6.09 0 0 0 .43 1.31.62.62 0 0 1 .08.45.77.77 0 0 0 .28.88c.12.09.1.3.18.44a1.09 1.09 0 0 1 .1.25 5.9 5.9 0 0 1 .2 1.38 8.58 8.58 0 0 0 .39 1.57 2.29 2.29 0 0 0 .37 1.67c.29.49.13 1.13.29 1.69a.63.63 0 0 1 0 .27 2.77 2.77 0 0 0 .34 1.93c.14 1 .06 2.05.14 3.06a13.75 13.75 0 0 0 0 2.13 1.08 1.08 0 0 1 .02.54 1 1 0 0 0 -.1.58c.47 1.32-.24 2.52-.37 3.78a20.57 20.57 0 0 1 -.5 3.58 3.35 3.35 0 0 1 -.24.86 2.46 2.46 0 0 1 .13-1.56c.21-1.82.61-3.61.7-5.45a34.4 34.4 0 0 0 0-5.56 48.19 48.19 0 0 0 -1.12-6.29c-.56-2.33-1.06-4.68-1.71-7-.84-3-1.38-6-2-9.05-.41-1.94-.86-3.86-1.28-5.79a45.68 45.68 0 0 0 -1.8-6.5.32.32 0 0 1 -.26-.12 13.52 13.52 0 0 1 -.73-2.67l-.09-.15c-.22-.71-.41-1.44-.59-2.16 0-.06 0-.12-.05-.17-.16-.53-.21-1.07-.35-1.6 0-.06 0-.12-.07-.19-.13-.74-.29-1.48-.44-2.22a1.36 1.36 0 0 1 0-1 .59.59 0 0 0 -.12-.67c-.27-.31-.21-.65-.25-1-.06-.53-.24-1-.3-1.58a4 4 0 0 1 0-2c0-.17.05-.34.07-.51s0-.38.19-.46.24.21.41.24a1.84 1.84 0 0 1 1.56 1.08c-.3.29-.46-.05-.66-.15s-.38-.29-.6-.15-.15.39-.13.6c.09 1.26.56 2.46.6 3.7a41.09 41.09 0 0 0 1.27 6.43 12.09 12.09 0 0 0 .63 2.15c.15-.13.08-.29.16-.4a.94.94 0 0 1 .72-.48c.28 0 .33.28.39.51s.28.31.48.39.12.43.27.61c.42.2.5-.17.67-.5a22.07 22.07 0 0 1 .81 2.36c.41 1.32.56 2.69.84 4a21.93 21.93 0 0 1 .35 2.58c0 .43.2.85.22 1.31s.36.59.79.47c.18-.05.37-.09.48.11s-.1.31-.23.42a1.59 1.59 0 0 0 -.25 1.55c.16.25.35.11.53.07s.45-.21.51.07-.23.2-.39.22-.28 0-.29.16.17.2.3.22.32 0 .48 0a.17.17 0 0 1 0 .21c-.27.35-.12.57.2.75a.41.41 0 0 1 0 .36c-.21.68-.2.73.3 1.22s.48.46 0 1.08c-.2.28-.29.55.15.7.26.33-.29.41-.17.72z" fill="#606060"/><path d="m27.17 364.73s0-.08 0-.12c.05-.29.06-.64-.21-.74s-.32.28-.48.44l-.18.16c.43-.85.82-1.73 1.3-2.55a36.12 36.12 0 0 1 1.9-3.24 5.7 5.7 0 0 1 .89-1.12c.13-.1.28-.21.43-.07s0 .25 0 .38a28.11 28.11 0 0 1 -1.92 3.49 7.39 7.39 0 0 0 -1.3 2.64 1 1 0 0 1 -.43.73z" fill="#7a7a7a"/><path d="m32.92 345.75-.12-.12a3.68 3.68 0 0 1 -.15-1.09c0-.46.19-.82.73-.84.37.05.71-.35 1.09-.07.34 1.15.72 2.28 1.06 3.43a19.85 19.85 0 0 1 .61 2.75 4.53 4.53 0 0 1 0 1.6c.13 1 .28 2 .39 3 .08.76.05.76-.8.85a3.45 3.45 0 0 0 .06-1c0-.37.08-.69-.48-.52a.22.22 0 0 1 -.25-.27c.22-.6-.33-.75-.6-1.06a.18.18 0 0 1 -.06-.14c-.16-.34.1-.75-.15-1.08a7.73 7.73 0 0 1 -.63-2.05 1.88 1.88 0 0 0 -.12-.45l-.36-1.56a10.3 10.3 0 0 0 -.22-1.38z" fill="#464646"/><path d="m36.89 349.71a3 3 0 0 1 -.74-1.92c.37 1.3 1.62 2.1 1.81 3.55a26.18 26.18 0 0 1 .46 4 7.44 7.44 0 0 0 .37 2.61 1.67 1.67 0 0 1 -.11 1.16 1.89 1.89 0 0 0 0 1.56c.18.5-.11.91-.07 1.37s0 .89.12 1.32a4.35 4.35 0 0 1 -.12 1.44.14.14 0 0 1 -.18 0c-.19-.11-.2-.29-.21-.47-.06-1.55-.17-3.11-.25-4.66a9 9 0 0 0 0-2.37 3.39 3.39 0 0 1 0-1.76 5.65 5.65 0 0 0 -.14-2 32.44 32.44 0 0 0 -.94-3.83z" fill="#666"/><path d="m38.43 364.83h.13a2.61 2.61 0 0 1 -.07 1 2.42 2.42 0 0 0 .17 1.4 1.46 1.46 0 0 1 -.14 1.55 11.21 11.21 0 0 1 -.2-3.83c-.04-.11.01-.14.11-.12z" fill="#646464"/><path d="m45.18 367.11c.37 0 .3.22.26.44s-.09.56.2.76.7.06.89-.36c.11-.25.26-.49.39-.73a.85.85 0 0 0 .17-.16c.13-.14.28-.3.49-.15a.37.37 0 0 1 .09.52c-.05.09-.05.2-.11.27s0 .23 0 .34c.16.37.48.19.73.2s.8-.05.93.44c.09.3-.29.66-.81.78a5.14 5.14 0 0 1 -1.17.1 20.87 20.87 0 0 1 -2.63.18 2.41 2.41 0 0 0 -1.43.25c-.55.53-.55.53-1.15.06-.11-.08-.22-.18-.36-.06l-.36.14h-.08a7.58 7.58 0 0 1 -1.42-.13c-1 .21-2 0-2.93.28a6 6 0 0 1 -1.27.06c-.75.05-1.5.14-2.24.18a19 19 0 0 0 -3.37.31c-.53.12-1.1-.13-1.64.09-.68.07-1.37.06-2.05.15-.26 0-.53-.05-.78.1a10.75 10.75 0 0 0 -1.49.15 14.64 14.64 0 0 1 -2.8.24c-.71.05-1.41.08-2.11.19a7.41 7.41 0 0 1 -1.94 0 11.5 11.5 0 0 1 -1.76 0c-.27-.07-.63 0-.61-.36a.64.64 0 0 1 .66-.65 13.29 13.29 0 0 1 1.67 0 .31.31 0 0 0 .28-.06c2-.24 4-.35 6-.5l1.77-.12c.68-.09.68-.1.55-.77a4.23 4.23 0 0 1 .16-3.05 2.9 2.9 0 0 1 .49-.66.47.47 0 0 1 .69-.05.45.45 0 0 1 0 .67 3 3 0 0 0 -.45 1c0 .39-.17.74-.17 1.16 0 1.14.2 1.44 1.28 1.36 1.66-.13 3.31-.28 5-.4a1 1 0 0 0 .82-.49.75.75 0 0 0 .16-.45 16.68 16.68 0 0 0 .52-3.16c0-.76.34-1.5.35-2.27 0-.55.29-1.06.12-1.64a2.64 2.64 0 0 1 .08-1.24 7.21 7.21 0 0 0 .07-1.91c-.07-1.07 0-2.16-.22-3.22a1.47 1.47 0 0 0 -.1-.59c0-.61-.36-1.15-.25-1.76a.8.8 0 0 1 1.12.41c.1.26.19.46.48.55s.27.27.26.48a1.77 1.77 0 0 0 0 .65 16.38 16.38 0 0 0 -.27-2.6c0-.29-.15-.61.3-.7a1.79 1.79 0 0 1 .58 1.48 8.64 8.64 0 0 0 .18 2.11 21.42 21.42 0 0 1 0 3.67 23 23 0 0 1 .05 2.36 28.67 28.67 0 0 1 -.42 3.49 11.27 11.27 0 0 0 -.19 2.83 1.15 1.15 0 0 1 -.3.81c-.24.26-.09.68.19.62.68-.15 1.4 0 2-.34a.71.71 0 0 0 .25-1 3.28 3.28 0 0 1 -.16-2.12 2.88 2.88 0 0 0 0-.59c-.2-.44.08-.85.11-1.27a3.89 3.89 0 0 0 -.14-1.44 9.31 9.31 0 0 0 -.09-2.36c0-.32.27-.52.27-.85a5.78 5.78 0 0 0 -.42-2.43.43.43 0 0 1 0-.35 6.51 6.51 0 0 0 0-2.71 14.56 14.56 0 0 0 -.62-2.9 2.17 2.17 0 0 0 -.62-1.05 3.12 3.12 0 0 1 -1-1.42l-.07-.18a1.94 1.94 0 0 1 -.2-1.08c.06-.45.26-.59.68-.41s.34.38.4.63a9.58 9.58 0 0 0 .33 1.12c.09.23.21.39.47.39.53 0 .66.39.73.79s0 .56.08.84 0 .86.68.78c.2 0 .19.32.41.33a39.67 39.67 0 0 1 1.19 4.56l.36 1.82a6.62 6.62 0 0 0 .13 1.83c0 .21.11.42.34.42.47 0 .49.27.47.61-1.13 1.17-.59 2.53-.43 3.84 0 .19.18.19.32.14.45.19.44.55.36.93a1.35 1.35 0 0 0 -.26 1.24c0 .19 0 .39.09.59.27 1.43.27 1.42 1.7 1.37a1 1 0 0 0 1-.6 3.15 3.15 0 0 1 .54-.77zm-5-7.7c0-.29-.14-.54-.46-.51s-.31.36-.25.57a7.89 7.89 0 0 1 -.06 2.06c0 .18-.1.4.15.45s.3-.18.34-.34a4.2 4.2 0 0 0 .31-1.51c.03-.32.03-.52.02-.72zm.41 3.89c0-.12 0-.31-.24-.28s-.16.21-.13.34c.19.91.11 1.83.24 2.73 0 .15 0 .37.18.39s.24-.19.28-.34a2.79 2.79 0 0 0 .07-.4c-.09-.82-.21-1.63-.35-2.44zm-.58 1.14c0-.12-.08-.23-.22-.22s-.17.14-.17.26v1.19s0 .92.21.89c.42-.05.23-.61.37-.94-.01-.4-.07-.79-.14-1.18zm1.26 2.91a.7.7 0 0 0 -.51.77c0 .32.32.41.62.43.49-.45.12-.81-.06-1.2z" fill="#505050"/><path d="m36.15 347.8a1.86 1.86 0 0 1 -.45-.92c-.14-.73-.18-.73.56-.56.07 0 .08.09 0 .15-.34-.06-.48.06-.38.42s.19.61.27.91z" fill="#666"/><path d="m25.48 371.07a2.82 2.82 0 0 1 -1.32.12c.2-.25.7-.14.65-.76.29.31.35.63.67.64z" fill="#5b5b5b"/><path d="m28.35 370.94a13.76 13.76 0 0 1 -2 0 4.55 4.55 0 0 1 2-.12s0 .08 0 .12z" fill="#5b5b5b"/><path d="m34.48 352.35v.12a9.26 9.26 0 0 0 .36 1.8 2.68 2.68 0 0 1 -.48-1.92q.06-.12.12 0z" fill="#585858"/><path d="m41.31 370.11a2.52 2.52 0 0 1 -1.43-.24c.16-.15.25-.58.52 0 .16.27.6.04.91.24z" fill="#676767"/><path d="m38.68 363.39a3.45 3.45 0 0 1 -.12-1.32c.07.44.34.86.12 1.32z" fill="#646464"/><path d="m23.67 306-.36-2.49c0-.18-.07-.35-.11-.52.08-.36-.15-.7-.1-1.07.33-.23.33-.66.56-.95.58.33.58.33-.33 1.16.39.06.53.11.31.57a1.87 1.87 0 0 0 0 1.54.47.47 0 0 0 .54.27l1.2-.07a1.21 1.21 0 0 1 -.84.25c-.4 0-.55.19-.36.58-.71-.08-.39.5-.51.73z" fill="#6d6d6d"/><path d="m48.52 105.52c-.81-.88-1.54-1.83-2.26-2.78a19.18 19.18 0 0 1 -1-2c.36.14.42.49.59.77s.41.35.54-.06h.12a.84.84 0 0 1 .42.84 1.37 1.37 0 0 0 .17.76c0-.28.16-.52.41-.49s.69.23.72.54.2.3.41.29a.43.43 0 0 1 .39.22l.48.48a1.81 1.81 0 0 1 -.37.18c-.78.16-.92.6-.62 1.25z" fill="#5b5b5b"/><path d="m49 103.59a.39.39 0 0 0 -.55.19c-.16.27-.19.25-.61.41a2.25 2.25 0 0 0 .12-.85c-.06-.24-.15-.47-.39-.43s-.13.33-.1.52 0 .19.05.3a1.54 1.54 0 0 1 -1-1.57.73.73 0 0 0 -.08-.73c.23.06.41.35.71.12.11-.08.23 0 .28.15a14.7 14.7 0 0 0 1.57 1.89z" fill="#555"/><path d="m48.88 85a22 22 0 0 0 1.47 2.23.45.45 0 0 1 .1.39c-.42-.52-.84-1-1.27-1.57a1.34 1.34 0 0 1 -.3-1.05z" fill="#4e4e4e"/><path d="m46.12 80.69.49 1.18c-.08-.06-.14-.15-.22-.2a.63.63 0 0 1 -.27-.98z" fill="#4e4e4e"/><path d="m47.92 60.87c0-.16-.06-.31-.07-.47 0-.44 0-.86.56-.95.12 0 .22-.15.34-.24a.67.67 0 0 1 .33.63 3.43 3.43 0 0 0 .64 1.59 3.3 3.3 0 0 1 .35.9 27.71 27.71 0 0 0 2.31 3.1c.13.15.23.32.35.48a2.3 2.3 0 0 0 .84 1.09 1.9 1.9 0 0 1 .85 2.1s-.08.08-.14.09a12.13 12.13 0 0 1 -3.47-3.3c-.51-.68-1.12-1.28-1.57-2a5.07 5.07 0 0 1 -.72-1.31l-.23-.49c.08-.48-.23-.83-.37-1.22z" fill="#646464"/><path d="m54.28 69.18a3.57 3.57 0 0 1 -.28-1.13.93.93 0 0 0 -.9-.93c-.23 0-.47 0-.65-.13 0-.15.11-.17.19-.17.5 0 .5-.18.18-.49a.34.34 0 0 1 -.12-.42 21.42 21.42 0 0 0 5 3.85c.5.29 1 .5 1.56.75l.22.1a1.72 1.72 0 0 1 .75.34 1.44 1.44 0 0 0 1 .47c.58 0 1 .45 1.47.62.36.41.9.38 1.36.51q3.06.89 6.14 1.69c.77.2 1.57.32 2.35.46 1.69.29 3.38.61 5.08.85 1 .13 1.94.13 2.92.18.77-.09 1.55 0 2.32 0 .12 0 .25 0 .27.16s-.06.2-.17.28a1.06 1.06 0 0 1 -.67.17c-.25 0-.52-.08-.76.06-1.35 0-2.69-.07-4-.09a61.72 61.72 0 0 1 -7.8-1.07 31.28 31.28 0 0 1 -5.52-1.34c-1.16-.41-2.35-.75-3.51-1.16a22.83 22.83 0 0 1 -6.43-3.56z" fill="#595959"/><path d="m81.64 76.36a1.48 1.48 0 0 1 .75-.14c.25 0 .46-.09.67-.49h-2.41a5.6 5.6 0 0 1 1.78-.09c2.39 0 4.78 0 7.17-.23.14 0 .36-.09.41.1s-.16.31-.32.35a12.52 12.52 0 0 1 -2.44.3c-1.87.07-3.73.25-5.61.2z" fill="#727272"/><path d="m49.59 73c-.25-.4 0-.91-.29-1.31-.2 1.32-.64 2.61-.19 4a2.31 2.31 0 0 1 -.43-1.52 18.4 18.4 0 0 1 .63-4.9 3.47 3.47 0 0 1 .17-.45c.05-.11.09-.25.24-.22s.17.19.16.33c-.05.57-.08 1.15-.16 1.72a16 16 0 0 0 -.13 2.35z" fill="#808080"/><path d="m50.07 62.33a10.47 10.47 0 0 1 -1.32-3.12v-.38a2.75 2.75 0 0 1 .5 1.39 1.25 1.25 0 0 0 .35.8 1.64 1.64 0 0 1 .47 1.31z" fill="#b5b5b5"/><path d="m48.52 62.56a6 6 0 0 1 .72 1.31 2.05 2.05 0 0 1 -.72-1.31z" fill="#c3c3c3"/><path d="m48.6 23.82a1.39 1.39 0 0 1 -.09-1.38 2 2 0 0 1 .09 1.38z" fill="#cdcdcd"/><path d="m36.83 167.43c-.39 0-.76-.06-.73-.49a.76.76 0 0 1 .75-.71.58.58 0 0 1 .67.59.66.66 0 0 1 -.69.61z" fill="#b6b6b6"/><path d="m44.7 136.47a4.06 4.06 0 0 1 -.25 1.58c.1-.52-.11-1.05.25-1.58z" fill="#4e4e4e"/><path d="m33.77 192.15c-.21-.41.24-.87-.11-1.27.32-.12.32.11.29.3a2.88 2.88 0 0 1 -.18.97z" fill="#717171"/><path d="m21.76 267.39c-.22-.14-.22-.35-.2-.58.15-1.2 0-2.41.08-3.62a1.68 1.68 0 0 1 .18 1.14z" fill="#5a5a5a"/><path d="m21.88 258.27a28.92 28.92 0 0 1 .13-2.94 1 1 0 0 1 .23-.66c-.1 1.2-.14 2.41-.36 3.6z" fill="#5a5a5a"/><path d="m21.88 260.31c0-.64-.28-1.28 0-1.92a4.15 4.15 0 0 1 0 1.92z" fill="#5a5a5a"/><path d="m22.12 253a8.36 8.36 0 0 1 .24-1.93 3.86 3.86 0 0 1 -.24 1.93z" fill="#5a5a5a"/><path d="m21.76 261.87a1.78 1.78 0 0 1 .12-1.56 9 9 0 0 1 -.12 1.56z" fill="#5a5a5a"/><path d="m26.21 229.59a8.15 8.15 0 0 1 -.24 2 4.65 4.65 0 0 1 .24-2z" fill="#4e4e4e"/><path d="m32.91 197.66c-.14.8.16 1.67-.38 2.4l.15-1.79c.19-.16-.14-.51.23-.61z" fill="#8a8a8a"/><path d="m32.91 197.66-.23.61a14.53 14.53 0 0 1 .47-3c.06.81-.25 1.59-.24 2.39z" fill="#b6b6b6"/><path d="m32.43 201.38a5.55 5.55 0 0 1 -.36 1.93 3.79 3.79 0 0 1 .36-1.93z" fill="#8a8a8a"/><path d="m44.69 107.29c0 .07-.06.17-.11.19s-.17-.08-.18-.18a.73.73 0 0 1 .3-.72 1.88 1.88 0 0 1 -.01.71z" fill="#5b5b5b"/><path d="m41.68 135.27a.51.51 0 0 1 .3.68.86.86 0 0 1 -.9.53 3.91 3.91 0 0 1 .6-1.21z" fill="#5d5d5d"/><path d="m41.08 137.07c.17.32.55.15.8.37a3.13 3.13 0 0 0 -.68.95c-.43-.35.07-.53.18-.84-.53.08-.49-.16-.3-.48z" fill="#5d5d5d"/><path d="m41.8 132.51c.1.44.28.89-.24 1.21z" fill="#5d5d5d"/><path d="m42.18 139c-.08-.28-.24-.49 0-.71a.17.17 0 0 1 .26 0c.08.32-.01.52-.26.71z" fill="#5d5d5d"/><path d="m42.35 134.45c0 .13-.06.25-.21.24s-.14-.16-.13-.27 0-.27.18-.24.16.15.16.27z" fill="#5d5d5d"/><path d="m34 198.15a.59.59 0 0 1 -.23-1c-.06.39.37.63.23 1z" fill="#939393"/><path d="m25.37 254.43.21-3.45c.14-2.36.25-4.73.54-7.08.14-1.21.2-2.42.33-3.63.41-3.64.72-7.3 1.37-10.91.22-1.19.36-2.4.54-3.61a7.24 7.24 0 0 0 .35-1.9c0-.16 0-.41.2-.44s.12.27.22.34a.84.84 0 0 1 .3.56c-.19 1.36-.37 2.72-.56 4.08-.16 1.16-.33 2.33-.48 3.49-.1.79-.17 1.58-.25 2.38-.25 2.68-.49 5.36-.74 8-.18 1.93-.38 3.85-.58 5.77a2.2 2.2 0 0 0 .07.77 4.41 4.41 0 0 1 -.23 2.64 7.77 7.77 0 0 0 -.32 2.66c0 1.42-.19 2.82-.21 4.24s-.09 2.9-.15 4.36a.38.38 0 0 0 .37.44c.24 0 .41.17.24.41a3.26 3.26 0 0 0 -.43 1.89 12.16 12.16 0 0 0 .12 2.08 11.18 11.18 0 0 1 .25 2.58c-.43.16-.28.61-.43.91-.18-.07-.38.15-.54 0a2.06 2.06 0 0 0 .44.99v.35c-.13.5-.19 1-.34 1.51a5 5 0 0 0 .22 2.41c0 .13.13.25.11.39a20.51 20.51 0 0 0 0 2.6 4.19 4.19 0 0 0 .47 2.34l-.23.48c-.15.11-.19.23 0 .36a26.42 26.42 0 0 1 .15 3.33c.06 1.25.09 2.49.26 3.73a1.43 1.43 0 0 1 0 .41c-.45-.44-.12-1.06-.37-1.43.08.27.08.67.15 1.06s.19.49-.12.66c.22 0 .29.08.31.26a1 1 0 0 1 0 .24c-.25 1 .18 2.08 0 3.15.2 0 .26-.2.41-.17a4 4 0 0 1 .09 1.46c-1 .08-1 .07-1.06-.91-.36-3.9-.5-7.81-.64-11.72-.1-2.75-.25-5.49-.35-8.24-.06-1.74-.13-3.49 0-5.25.12-2.17.13-4.35.2-6.53.07-2 .2-4.06.28-6.09-.08-.69-.15-1.33-.17-1.97z" fill="#5d5d5d"/><path d="m26.44 281.55-.35.22c-.14.07-.31.16-.45 0s.12-.26.11-.35a3.89 3.89 0 0 0 0-1.13 2 2 0 0 1 0-1.5.72.72 0 0 0 -.15-1c-.28-.24 0-.55 0-.82a10.46 10.46 0 0 0 -.28-2c-.17-.75.19-1.47.1-2.22 0-.27.43-.3.6-.52a13.48 13.48 0 0 1 .26 3.47c0 1.65-.31 3.35.3 5a.87.87 0 0 1 -.14.85z" fill="#5c5c5c"/><path d="m26.94 293.63v.66s0 .49-.32.48-.29-.25-.3-.45c0-.65-.05-1.3-.05-1.95a.72.72 0 0 0 -.08-.46.54.54 0 0 1 .05-.71 1.54 1.54 0 0 0 .16-.44c0-.11.07-.27-.07-.32s-.06.25-.24.26a.34.34 0 0 1 -.06-.39c.45-.88.07-1.74 0-2.61 0-.15-.15-.35.08-.4s.26.2.27.37a12.49 12.49 0 0 0 .27 2.19c.05 1.26.24 2.51.29 3.77z" fill="#5c5c5c"/><path d="m26 272c-.81-.27-.85-.4-.52-1.7 0 .49.55.42.65.79a3.13 3.13 0 0 0 -.13.91z" fill="#5c5c5c"/><path d="m26.21 282.39c-.1.08-.09.32-.26.25s-.09-.23 0-.36a.47.47 0 0 1 .3-.25z" fill="#5c5c5c"/><path d="m46.83 28.83a6.75 6.75 0 0 1 -.1-1.68c.57.53.03 1.12.1 1.68z" fill="#575757"/><path d="m34.36 337c-.42-.08-.46-.46-.56-.76s.11-.23.28-.22.27-.14.22-.32-.06-.36-.29-.26-.37.26-.4 0-.43-.58-.14-.93l.41-.5-.13.81c.25.07.35-.13.51-.19s.34 0 .27.16c-.26.58.32.8.47 1.19.07.17.23.31.11.49s-.31.08-.45 0-.21-.15-.31 0a.4.4 0 0 0 .01.53z" fill="#575757"/><path d="m33.88 333.63a1.35 1.35 0 0 1 -1.07-.5c.24-.24.72-.06.83-.46z" fill="#575757"/><path d="m27.28 314.55c.4 1.53.8 3.05 1.19 4.57 0 .1.06.46-.22.15a2.41 2.41 0 0 1 -.32-.57c-.08-.16-.14-.36-.39-.26s-.34.23-.22.47c.23.45-.09.59-.4.68s-.39-.25-.45-.47a65.17 65.17 0 0 1 -1.71-7.38c-.24-1.77-.63-3.52-.78-5.3 0-.31-.11-.72.14-.9s.57.15.86.26a3.25 3.25 0 0 1 .75.59c.3 1.81.57 3.62.9 5.43.17.92.43 1.82.65 2.73z" fill="#474747"/><path d="m36.28 346.47v-.15-.32c.22-.46-.1-.87-.11-1.32a1.52 1.52 0 0 1 .11 1.79z" fill="#575757"/><path d="m33.52 344.06c-1.07.14-.61 1-.72 1.57a4.55 4.55 0 0 1 -.32-1.32c-.08-.58-.45-1.09-.55-1.69-.37-2.19-1.21-4.27-1.47-6.49-.05-.38-.06-.38.19-.77a11.69 11.69 0 0 0 .94 2.1c.1.13-.05.26-.08.39s-.61.67.15.82c0 0 .07.07.06.08-.38.65.3.92.53 1.31s.29.63-.33.65a.52.52 0 0 0 .68.29c.29-.05.29-.27.3-.51a9.94 9.94 0 0 0 -.17-2.16c.45.58 1.21.91 1.27 1.77 0 .15.16.27.13.45a2.87 2.87 0 0 0 .2 1.45.89.89 0 0 1 -.43 1.21.69.69 0 0 0 -.38.85z" fill="#585858"/><path d="m33.52 348.75a3.31 3.31 0 0 1 .47 1.46 2.45 2.45 0 0 0 .37 1.06c.21.28 0 .56 0 .84a16.05 16.05 0 0 1 -.84-3.36z" fill="#585858"/><path d="m34.36 352.11v-.84c.12-.11.21-.3.48-.23a2.52 2.52 0 0 0 -.36 1.31h-.12z" fill="#505050"/><path d="m32.92 345.75a2.48 2.48 0 0 1 .24 1.44 4.15 4.15 0 0 1 -.24-1.44z" fill="#585858"/><path d="m26.18 283.88v3h-.18c.16-.98-.31-1.99.18-3z" fill="#5c5c5c"/><g fill="none" stroke="#1d1d1b" stroke-miterlimit="10" stroke-width=".5"><path d="m18.29 295.13h1"/><path d="m19.99 295.13h3.86" stroke-dasharray="1.4 .7 1.4 .7"/><path d="m24.2 295.13h5.96" stroke-dasharray="1.4 .7 1.4 .7 1.4 .7"/><path d="m30.51 295.13h1"/><path d="m18.61 299.65h1"/><path d="m20.31 299.65h3.86" stroke-dasharray="1.4 .7 1.4 .7"/><path d="m24.52 299.65h5.97" stroke-dasharray="1.4 .7 1.4 .7 1.4 .7"/><path d="m30.84 299.65h1"/></g></svg>