<svg xmlns="http://www.w3.org/2000/svg" viewBox="0 0 439.83 160.91"><defs><style>.cls-1{fill:gray;}.cls-2{fill:#707070;}.cls-3{fill:#626262;}.cls-4{fill:#464646;}.cls-11,.cls-5,.cls-6{fill:none;stroke-linecap:round;}.cls-5,.cls-6{stroke:#464646;stroke-linejoin:round;}.cls-11,.cls-5{stroke-width:0.5px;}.cls-6{stroke-width:0.75px;}.cls-7{font-size:10px;fill:#1d1d1b;font-family:BaskervilleMTPro-Regular, Baskerville MT Pro;}.cls-8{letter-spacing:-0.02em;}.cls-9{letter-spacing:-0.01em;}.cls-10{letter-spacing:-0.07em;}.cls-11{stroke:#1d1d1b;stroke-miterlimit:10;}</style></defs><g id="Layer_2" data-name="Layer 2"><g id="_11505a_final_6mm_margin" data-name="11505a_final_6mm_margin"><g id="_11505a_final_6mm_margin-2" data-name="11505a_final_6mm_margin"><path class="cls-1" d="M125.93,37.91c.13-3.52-.54-7-.88-10.48a32.42,32.42,0,0,1,.16-6.68c.05-.39.11-.79.72-.88-.89,3.58-.36,7.08,0,10.59.31,2.65.43,5.32.66,8a63.12,63.12,0,0,1,.44,6.44v.24c-.33,1.57-.11,3.17-.35,4.75a10.51,10.51,0,0,1-.63,2.42,17.6,17.6,0,0,0-1.38,5.28c-.15.66.29,1.41-.3,2-.52-1.81,0-3.54.41-5.27a9.42,9.42,0,0,1,.45-1.36,16.64,16.64,0,0,0,1.08-7.35,3.43,3.43,0,0,0,.16-.94A56.57,56.57,0,0,0,125.93,37.91Z"/><path class="cls-1" d="M145.36,44.93a29.17,29.17,0,0,0-.06-7.64c-.56-4.87-1.59-9.68-2.39-14.52a12.75,12.75,0,0,1-.06-2.56c.5.16.46.55.5.87.44,3.32,1,6.62,1.6,9.91a52.75,52.75,0,0,1,1.13,12.6c0,.57.11,1.25-.7,1.45Z"/><path class="cls-2" d="M129.92,74.38a1.54,1.54,0,0,1-1.31,1.33,1.15,1.15,0,0,1-1.18-1.1,1.33,1.33,0,0,1,1.29-1.31A1.19,1.19,0,0,1,129.92,74.38Z"/><path class="cls-3" d="M124.41,59.58a5.89,5.89,0,0,1,.3-2h0c.3.53-.08,1.16.23,1.69a15.84,15.84,0,0,0,1,4c.1.2.17.48-.15.59s-.35-.11-.45-.28a5,5,0,0,1-.71-2.6c-.22-.3,0-.7-.21-1Z"/><path class="cls-1" d="M124.94,59.28a3.26,3.26,0,0,1-.23-1.69A4,4,0,0,1,124.94,59.28Z"/><path class="cls-1" d="M124.47,60a2.1,2.1,0,0,1,.21,1A1.89,1.89,0,0,1,124.47,60Z"/><g id="_9134" data-name="9134"><path class="cls-4" d="M40.63,101.11c-.11-.83-.19-1.66-.25-2.48a20.7,20.7,0,0,1-.05-2.49c0-.83,0-1.65,0-2.47s.06-1.64,0-2.47v0l-.15-.89v0c-.18-.43-.35-.85-.54-1.27l0,0c-.37-.27-.75-.51-1.13-.77l0,0c-.32-.08-.65-.17-1-.24s-.65-.18-1-.27h0l-.92-.38h0l0,0c-.79-.51-1.54-1.08-2.28-1.65l0,0h0l-1.63-1.58,0,0h0c-.44-.54-.87-1.08-1.3-1.64h0l0-.06-.6-1.3c-.2-.44-.35-.9-.53-1.34v-.06l-.2-1.2v0c0-.9,0-1.79-.06-2.69h0l.06-.74s0,0,0,0,0,0,0,0l.06.74h0a24.07,24.07,0,0,1,.41,2.68v0l.3,1.18,0-.06c.2.42.38.86.61,1.28l.64,1.26-.05-.07c.44.54.87,1.09,1.3,1.64l0,0,1.56,1.64,0,0,1.07.9,1.08.89,0,0,.87.47h0a14.05,14.05,0,0,0,1.89.65l0,0c.37.26.74.54,1.12.79l0,0c.18.41.39.82.59,1.23v0h0l.25.87h0v0A23,23,0,0,1,41,93.67c0,.83,0,1.66,0,2.48s-.11,1.65-.12,2.48-.06,1.65-.13,2.47a0,0,0,0,1,0,0A0,0,0,0,1,40.63,101.11Z"/><path class="cls-4" d="M28.87,75a4.33,4.33,0,0,1-.38-.78l-.17-.85h0L28.19,73a1.83,1.83,0,0,0-.14-.35L27.68,72h0c-.41-.76-.73-1.57-1.12-2.34h0l-.34-.54a1.87,1.87,0,0,1-.27-.62,1.85,1.85,0,0,0-.2-.55l-.28-.55h0l-.75-1.14c-.27-.37-.56-.73-.8-1.11s-.5-.77-.79-1.12L22.28,63h0l-.82-1.33v0c-.34-.83-.67-1.67-1-2.51v0c-.2-.84-.35-1.68-.58-2.51-.12-.4-.18-.85-.28-1.25l-.32-1.24v0c0-.73-.09-1.45-.1-2.18V49.68a.19.19,0,0,1,.38,0L20.43,54l0-.05c.42.83.83,1.66,1.26,2.48L23,58.84v0l2,3.12c.67,1,1.3,2.11,1.95,3.16l0,0,2.18,4.76v0l1.55,2.68a.49.49,0,0,1,0,.11l.14,1.47a.26.26,0,0,1-.52.08l-.61-2.79c-.22-.93-.38-1.87-.52-2.82l0,.11-.33-.53c-.11-.19-.21-.35-.32-.58a.69.69,0,0,1,0-.18s0,0,0,0l-.05-.12L28.37,67l-.27-.54,0-.07c-.18-.66-.34-1.33-.49-2l0,0-.84-2a.31.31,0,0,1,0-.08l-.06-.56v0l-.6-2.7v0l-.28-2.7v0c.07-3.14.11-6.27.2-9.41v0c.07-.42.12-.86.19-1.28l.26-1.28h0v0c.22-.87.56-1.7.83-2.55s.52-1.7.82-2.55.58-1.7.91-2.53.68-1.66,1-2.47v0l.76-1.29v0l.2-.3-.05.17v-.81s0-.05,0-.08l.29-1v.14L31.1,30l0,.06c-.12-.28-.22-.55-.32-.85a.66.66,0,0,1,0-.37c0,.11,0,0,0,0v0l0-.1-.08-.42a16.43,16.43,0,0,0-.44-1.67L29.72,25l-.41-1.7v0l-.11-1v0L29,21.39h0c-.18-1.06-.24-2.14-.37-3.2S28.52,16,28.48,15v0l.05-1.54.07.17-.83-.86.07.05c-.47-.21-.92-.47-1.41-.65L25,11.52l0,0-1.55-.86c-.51-.3-1.05-.53-1.58-.79h0l-.06,0L21,9.05l0,0L19.64,8.3h0l-1.25-.52h0L16.21,6.41l-1.08-.67c-.36-.21-.75-.39-1.13-.57a.3.3,0,0,1-.08-.08l-.86-1.33a.19.19,0,0,1,.06-.26.22.22,0,0,1,.21,0L17,5.72h0c.91.46,1.8,1,2.74,1.36s1.82.94,2.73,1.39h0l.76.5,0,0c.94.38,1.9.71,2.86,1h0l1.09.49,0,0c.29.27.58.53.89.78l0,0,.9.45h0A2.39,2.39,0,0,1,30,12c.21.17.2.36.28.52l.18.51-.25,0a.27.27,0,0,1,.19-.13.25.25,0,0,1,.2.08.67.67,0,0,1,.14.2c0,.07.07.07.14.19a.72.72,0,0,1,0,.28l-.1.87v0c0,.65-.06,1.29-.11,1.93v0c.24,1.78.47,3.57.74,5.36v0l.41,1.49v0l.1,1h0l.19.9h0l.27.7v.79l0-.07.32.42s0,0,0,0a7.22,7.22,0,0,0,.31.89c.11.3.19.61.29.92v0l.1,1.12v0c-.06.82-.1,1.64-.11,2.46v0l-.1,1a.2.2,0,0,1,0,.08l-.67.74h0l-.47.62v0l-.34.67v0l-.52,1.76A17.68,17.68,0,0,0,30.73,39c-.28,1.18-.51,2.39-.76,3.58h0l-.26,2.07c-.08.69-.19,1.38-.24,2.07-.1,1.38-.17,2.77-.23,4.16h0l.18,3.75c0,1.25.19,2.49.29,3.74s.33,2.48.49,3.72.29,2.49.56,3.71v0c.27.78.59,1.54.91,2.3v0l.63,2.18v0l.23,1.25v.06l-.17,1.52L31.9,73l.84-1.5a.18.18,0,0,1,0-.07l.67-.59,0,0,.92-.62h0l1.07-.51h0L38,68.72l.09,0c.57,0,1.14-.06,1.71,0s1.15,0,1.72,0l-.3.28V67.4l-.1-1v0l0-1.51.28.29-.75,0-.1,0-.43-.17h0c-.67-.36-1.37-.68-2.05-1a.39.39,0,0,1-.1-.08c-.31-.38-.61-.76-.89-1.17h0v0l-.25-.51a1,1,0,0,1-.12-.37l0-.23L36.4,60.4a.22.22,0,0,1,0-.08l.1-3.7v0c-.09-1.12-.23-2.24-.38-3.35l-.24-1.68c-.09-.56-.13-1.12-.2-1.68v0l-.29-1.53a.25.25,0,0,1,0-.08l.09-1.49,0,.12-.43-1.44v0L35,45.19a.35.35,0,0,1,.28-.4.35.35,0,0,1,.33.13l1.16,1.48,0,0,.47.5a.35.35,0,0,1,.07.12l.2.56s0,0,0,.06c.08.52.19,1,.29,1.55l0-.06.29.7,0-.06.62.9a.25.25,0,0,1,0,.07l.22.56v0h0c.13.53.21,1.06.3,1.59l0-.07.52,1.38v0l.23,1v0l.07,1v0l.32,2.06-.05-.13.54.85c.18.28.39.54.58.81l0,0,.56.62-.18-.11.68.16h-.07l.74,0-.26.1.57-.56,0,.05.57-.79,0,0c.3-.5.6-1,.85-1.51s.47-1.06.71-1.59v0L46,54.92l0,.11V53.85l-.14-1.42v.07l-.31-1a.31.31,0,0,1,0-.08l-.14-1.67v0c0-.8,0-1.61,0-2.41l-.1-2.41a.36.36,0,0,1,.35-.37.4.4,0,0,1,.26.1l1,1,0,.06.63,1,0,0h0c.16.41.32.83.44,1.26L48,48l.39.75v0l.31.73,0,.07.34,1.72,0,0,.14.41a3.75,3.75,0,0,0,.12.39l.2.6v0l.16.75v0l.13.94v3.89a.41.41,0,0,1,0,.11l-.27.9v.05l-.38.85,0,.05-.6.94,0,0c-.41.5-.82,1-1.27,1.46s-.94.88-1.38,1.32a.35.35,0,0,1-.25.1h-.74L45,64l-.65.39.16-.2-.23.72v-.07c-.15,1.34-.25,2.7-.37,4l-.42-.4,1.88-.23h0l1.2,0a.21.21,0,0,1,.08,0l1.25.22a.16.16,0,0,1,.09,0l1.22.54,0,0,.91.56,0,0L51.87,71l-.52,0,.72-.79-.09.21.07-.73a4.19,4.19,0,0,1,.1-.42l.13-.43a.2.2,0,0,1,0-.08h0l.36-.53-.07.21v-.63a.4.4,0,0,1,0-.15L53,67l0,.15v-.61l.59-3.43v0c.08-.92.18-1.84.25-2.77l.09-2.78v0c-.11-1.7-.25-3.39-.44-5.08v0c-.13-.72-.23-1.45-.4-2.16s-.32-1.44-.46-2.17v0l-.6-2s0,0,0,0l-.2-1.14v0c-.31-.86-.51-1.75-.74-2.61s-.51-1.72-.73-2.6h0l-.14-.74,0,.12-.34-.42a.27.27,0,0,1-.06-.16V38.1l0,.16-.4-.52a.27.27,0,0,1-.06-.17l.07-1.1,0,.12c-.19-.43-.37-.87-.53-1.31h0v0l-.17-.63v0l-.23-.56v0c-.33-1-.56-2.06-.83-3.09a.13.13,0,0,1,0-.06l0-1.48v0c.09-.59.15-1.19.26-1.77l.36-1.76v0l.24-2.33.35-2.32v0l.33-4.08v0c-.07-1.55-.07-3.1-.19-4.65a.17.17,0,0,1,0-.07l.36-1a.22.22,0,0,1,0-.08l1-.87a.19.19,0,0,1,.1,0l.75,0h0l.88-.29h0l1.38-.14h0c.94-.2,1.89-.37,2.85-.52h0l4.07-1h0L61.81,8c.45-.18.92-.34,1.36-.55l2.64-1.23h0l3.53-2.36s0,0,0,0,0,0,0,.05l-3.5,2.4h0L63.23,7.65c-.43.21-.9.37-1.35.56l-1.35.54h0l-4.06,1h0c-1,.17-1.89.35-2.84.55h0l-1.37.16h0l-.87.31h0l-.75,0,.1,0-1,.88,0-.08-.36,1v-.07c.13,1.55.14,3.11.22,4.66v0l-.3,4.08v0L49,23.62,48.73,26v0l-.35,1.74c-.1.59-.16,1.18-.24,1.76v0l0,1.49v-.05c.29,1,.52,2.06.86,3.06v0l.23.56v0l.18.62v0c.16.43.34.86.53,1.29a.22.22,0,0,1,0,.11l-.06,1.1-.05-.18.41.51a.33.33,0,0,1,0,.16l0,.63-.06-.17.35.43a.37.37,0,0,1,0,.11l.14.74v0c.22.86.52,1.72.74,2.59s.44,1.74.76,2.57v0h0l.2,1.14v0l.31,1.06c0,.19.11.31.16.46l.14.44v0c.14.72.29,1.43.46,2.15s.29,1.45.43,2.18h0c.2,1.7.35,3.4.47,5.1v0l-.08,2.8c-.06.93-.16,1.86-.24,2.8v0l-.57,3.44v.49a.4.4,0,0,1,0,.15l-.29.67,0-.15v.63a.36.36,0,0,1-.06.2l-.36.53,0-.09-.09.31a1.34,1.34,0,0,0-.1.32l-.07.79a.34.34,0,0,1-.09.22l-.72.8a.37.37,0,0,1-.52,0l-1.61-1.36,0,0-.91-.56,0,0-1.21-.54.08,0L46.58,69h.08l-1.2,0h0l-1.87.24a.38.38,0,0,1-.42-.32v-.08c.13-1.36.22-2.72.38-4.07,0,0,0-.06,0-.08l.24-.72a.36.36,0,0,1,.16-.2l.66-.39a.41.41,0,0,1,.19,0h.73l-.26.1c.46-.45.93-.87,1.37-1.31a18.53,18.53,0,0,0,1.23-1.41l0,0,.59-.94,0,0,.38-.86,0,.05.27-.91,0,.1V54.46L49,53.52v0l-.16-.75,0,0-.25-.8a1.58,1.58,0,0,0-.11-.31l-.09-.28h0V51.4L48,49.68l0,.07L47.71,49v0l-.39-.75h0l0,0A12.58,12.58,0,0,0,46.88,47l0,.06-.63-1,.06.07-1-1,.61-.27L46,47.31c0,.81,0,1.62,0,2.42v0l.14,1.67,0-.08.32,1s0,.05,0,.07l.14,1.42V55a.5.5,0,0,1,0,.12l-.47,1.34h0v0c-.24.54-.44,1.09-.72,1.62s-.57,1-.88,1.56v0L44,60.5a.1.1,0,0,1,0,0l-.57.56a.34.34,0,0,1-.26.1l-.74,0h-.06L41.62,61a.33.33,0,0,1-.18-.11l-.57-.63,0,0c-.2-.28-.41-.56-.6-.84l-.55-.87a.24.24,0,0,1-.05-.13l-.31-2.07v0l-.06-1v.06l-.23-1v0l-.52-1.38s0,0,0-.06c-.09-.52-.17-1-.3-1.54l0,0L38,51l0,.08-.63-.92,0-.06-.28-.7a.19.19,0,0,1,0-.07c-.11-.52-.21-1-.3-1.57l0,.06-.21-.56.07.12-.46-.5,0,0-1.16-1.48.61-.28.06.33v0l.42,1.44a.25.25,0,0,1,0,.12l-.09,1.48v-.09l.3,1.53v0c.06.56.1,1.12.19,1.68l.24,1.67c.15,1.12.28,2.25.37,3.38h0v0L37,60.34v-.08l.22,1.09c0,.11,0,.16,0,.32,0-.06,0,.08.06.15l.23.48,0,0c.26.4.56.77.86,1.15l-.1-.08c.67.36,1.37.68,2,1h0l.43.17-.09,0,.75,0a.29.29,0,0,1,.28.29v1.49l.09,1V69a.27.27,0,0,1-.27.28h0c-.57,0-1.13-.06-1.69-.06s-1.13,0-1.69,0h.08l-2.48.92h0l-1.08.49,0,0-.93.61,0,0-.67.59,0-.06-.85,1.49a.24.24,0,0,1-.33.1.26.26,0,0,1-.13-.25l.18-1.51v.07l-.21-1.25v0l-.62-2.19v0c-.31-.77-.62-1.54-.9-2.33v0c-.26-1.24-.38-2.49-.54-3.73s-.38-2.49-.47-3.74-.23-2.5-.27-3.76l-.17-3.76v0c.07-1.39.14-2.78.26-4.17.05-.7.16-1.38.24-2.08l.27-2.07h0c.26-1.2.5-2.4.78-3.6.13-.6.3-1.19.48-1.77l.53-1.77v0l.34-.67,0,0,.47-.63h0l.67-.73,0,.08.12-1h0c0-.83.06-1.65.12-2.48v0l-.09-1.12v0c-.09-.3-.17-.6-.28-.9s-.22-.6-.31-.91l0,0-.31-.42a.19.19,0,0,1,0-.08v-.7l-.27-.71v0l-.19-.9v0l-.09-1v0l-.4-1.49h0l-.76-5.36v0c.06-.63.11-1.27.11-1.91h0l.09-.85c0-.18,0-.12-.11-.3l-.1-.16s.05,0,0,0l-.25,0L30,12.62c-.06-.15-.1-.36-.19-.4a2.35,2.35,0,0,0-.92-.25h-.05L28,11.51l0,0q-.46-.37-.9-.78l0,0L26,10.25h0c-1-.3-1.94-.63-2.88-1h0l-.77-.5h0c-.92-.45-1.79-1-2.73-1.37S17.75,6.49,16.83,6h0l-3.69-2.2.26-.28.86,1.33-.08-.07c.39.19.78.36,1.16.58l1.09.67L18.6,7.42l0,0,1.25.51h0l1.42.78.05,0,.77.74-.06,0c.53.27,1.08.5,1.6.79l1.55.87,0,0,1.46.58c.49.18.95.44,1.43.66l.07,0h0l.83.85a.26.26,0,0,1,.07.18L29,15v0c.05,1.07.08,2.13.15,3.2s.19,2.12.37,3.16v0l.22.92v0l.11,1v0l.43,1.69.49,1.67c.18.55.33,1.13.46,1.7l.09.44,0,.12v.07s0,0,0,.15c0-.11,0,0,0,.06.08.25.19.52.3.79,0,0,0,0,0,0l.19.92a.33.33,0,0,1,0,.14l-.28,1v.73a.27.27,0,0,1-.06.17l-.2.3v0l-.74,1.3v0c-.35.82-.69,1.64-1,2.47s-.6,1.66-.89,2.5-.55,1.69-.8,2.55-.6,1.68-.81,2.53v0l-.25,1.26c-.08.42-.12.84-.18,1.27v0l-.24,9.4v0l.26,2.7v0l.3,1.41c.09.49.2.87.29,1.29h0v0l.07.56,0-.08.82,2a.43.43,0,0,1,0,0c.15.67.3,1.33.48,2l0-.06.28.56.13.29.07.17a.36.36,0,0,1,0,.16s0,0,0,0,.18.33.27.5l.32.52h0a.17.17,0,0,1,0,.1c.14.93.29,1.87.51,2.79l.59,2.79-.53.08-.14-1.47,0,.11-1.54-2.7v0l-2.16-4.77v0c-.64-1.06-1.26-2.12-1.93-3.16l-2-3.13h0l-1.3-2.46c-.43-.83-.83-1.66-1.25-2.49,0,0,0,0,0-.06l-.86-4.33.39,0v2.16c0,.73.06,1.45.09,2.17v0l.32,1.25c.1.44.15.84.27,1.26.22.83.36,1.68.55,2.52v0c.3.84.63,1.68.95,2.52v0l.8,1.33h0l.83,1.1c.28.35.51.75.77,1.13s.52.75.79,1.12l.74,1.16h0l.28.57a1.72,1.72,0,0,1,.21.64,2.33,2.33,0,0,0,.24.52l.33.54h0c.38.77.69,1.58,1.09,2.35h0l.37.67a1.7,1.7,0,0,1,.14.35l.12.35h0l.17.85a3.8,3.8,0,0,0,.35.77,0,0,0,0,1,0,0A0,0,0,0,1,28.87,75Z"/><path class="cls-4" d="M57.57,9.87,56,10.53a9,9,0,0,1-1.64.6c-1.11.35-2.23.65-3.35,1l.12-.13-.23,1.85v-.05l.25,1.48v0c0,1,0,1.93-.07,2.89L50.89,21c0,1-.14,1.92-.25,2.88s-.28,1.91-.46,2.85v0l-.49,1.84v-.06l-.1,1.55v1l-.08.78,0-.15L50,33l0,0,.18.72,0-.07c.53,1.11,1.1,2.19,1.66,3.29l0,0h0c.55,1.37.9,2.78,1.35,4.17l.64,2.1.51,2.12,2,8.51v0l.24,6v0l-.24,1.89v0l-.71,2.67-.75,2.67c-.48,1.78-1.11,3.52-1.66,5.28l0,0L52.09,74a.16.16,0,0,1-.26-.2l2.6-3.67,0,0,1.79-4.22v0l1.38-4.78v0l.27-1.33v0h0l.33-.84.15-.42,0-.13,0-.23.32-1.85v0h0l.5-1.5,0,.07.17-1.69c.06-.56.07-1.13.11-1.69l.19-3.39a.35.35,0,0,1,.37-.34.36.36,0,0,1,.33.34l.27,4.09c.05.68.07,1.36.15,2l.24,2v2.2s0,.06,0,.08l-.42,2.15c-.13.72-.33,1.42-.51,2.13s-.36,1.43-.6,2.11L58.84,67v0l-1.54,3.53,0,0-1.06,1.78,0,0-.46,1a.36.36,0,0,1-.31.23l-.67.06.32-.23-1.84,4.39v0l-.45,1.48v0l-.28,1.5h0v0l-.19.56h0v0l-.57,1.32h0v0l-.92,1.63,0,0-1.06,1.22,0,0-1.09.85a.21.21,0,0,1-.1,0l-1,.2.12-.06-.77.74-.1,0-2.13.64.09,0-.45.46,0,0-.39.66c-.12.24-.2.51-.31.76l-.29.78a3.69,3.69,0,0,0-.12.72c-.15,1.07-.14,2.14-.21,3.22h0L43.1,96a5.35,5.35,0,0,1,0,.7,2.15,2.15,0,0,0-.07.67c0,.91,0,1.82,0,2.74v0l0,.08s0,0,0,0a0,0,0,0,1,0,0l0-.08v0c-.11-.91-.12-1.83-.14-2.74a2.25,2.25,0,0,1,0-.69c0-.21,0-.44,0-.67l-.15-1.36h0c0-1.08,0-2.18.12-3.26a3.53,3.53,0,0,1,.15-.87l.27-.74c.09-.25.16-.5.27-.75L44,88.3l0,0h0l.45-.48.09-.05,2.12-.68-.09.06.75-.76a.34.34,0,0,1,.12-.06l1-.21-.11,0,1.07-.87,0,0,1-1.24,0,0,.89-1.64v0l.55-1.33v0l.18-.56v0l.26-1.5v0h0l.43-1.49v0h0l1.76-4.42a.37.37,0,0,1,.31-.23l.67-.06-.31.22.46-1,0,0,1.06-1.78,0,0,1.52-3.53v0l.66-2.07c.24-.68.4-1.39.58-2.09s.38-1.39.5-2.1l.43-2.13v-2l-.22-2c-.07-.68-.09-1.37-.14-2.05l-.23-4.11h.7l-.21,3.4c0,.57-.06,1.13-.13,1.7l-.2,1.69h0s0,0,0,.06l-.53,1.5v0L59,58.21l0,.22a1.81,1.81,0,0,1,0,.19l0,.12-.17.44-.35.85,0-.05-.29,1.33v0l-1.46,4.75v0L54.76,70.3l0,0L52.09,74l-.26-.19,1.1-1.43,0,0c.57-1.75,1.22-3.48,1.73-5.25s.94-3.56,1.4-5.35v0l.22-1.89v0l-.32-6v0l-2.14-8.45-.55-2.11-.65-2.07c-.45-1.38-.82-2.79-1.36-4.13v0c-.58-1.09-1.13-2.19-1.65-3.31h0a.08.08,0,0,1,0-.05l-.17-.72,0,0L48.94,32a.32.32,0,0,1,0-.14L49,31.1v-1l.12-1.55a.13.13,0,0,1,0-.06l.51-1.82v0c.18-.94.36-1.88.49-2.82s.23-1.89.28-2.85l.19-2.86c.08-1,.1-1.92.11-2.87v0l-.22-1.49v-.05l.27-1.84a.15.15,0,0,1,.12-.13c1.13-.28,2.26-.54,3.37-.85a9.08,9.08,0,0,0,1.65-.53l1.63-.61a0,0,0,1,1,0,.07Z"/><polyline class="cls-5" points="32.46 35.32 33.09 35.99 33.54 36.86 33.96 37.75 34.79 38.91"/><polyline class="cls-5" points="33.23 33.89 33.93 34.89 34.05 35.32 34.32 35.71 34.71 36.1 34.98 36.52"/><polyline class="cls-5" points="33.63 33.33 34.54 34.28 34.98 34.86 35.43 35.32 35.88 36.1"/><polyline class="cls-5" points="33.7 31.66 34.48 32.17 35.09 32.96 35.88 33.97 36.37 34.89"/><polyline class="cls-5" points="33.82 30.13 34.52 30.6 35.23 31.24 35.88 31.8 36.51 32.27"/><line class="cls-6" x1="33.62" y1="28.53" x2="34.46" y2="27.93"/><line class="cls-6" x1="32.96" y1="26.75" x2="34.04" y2="26.35"/><path class="cls-4" d="M34.43,27.46c-.21-.8-.26-1.57-.45-2.34s-.31-1.55-.44-2.33a4.83,4.83,0,0,1-.12-1.21c0-.38,0-.78-.07-1.17l-.18-2.35v0l0-2.2v-.05c.07-.39.14-.77.22-1.15v-.06l.31-.74h0a.27.27,0,0,1,.24-.16l.34,0h.08l.55.21h0A.18.18,0,0,1,35,14l.27.27h0a.2.2,0,0,1,0,.09l.12.52h0l.17.5h0v0l.09.52,0-.07.29.38h0v0l.21.47a2,2,0,0,0,.2.42,1.18,1.18,0,0,0,.13.18.4.4,0,0,1,.09.13.29.29,0,0,1,.05.13,2.72,2.72,0,0,1,.13.49h0l.15.47.08.23.11.15a1,1,0,0,1,.28.44c0,.12.13.27.18.45a4.29,4.29,0,0,1,0,.51v.3l.06.11.42.87h0c.15.44.33.88.45,1.33L39,24.27v0l.26.57c.08.19.17.4.23.58l.34,1.08v0h0l.27,1.67v0h0l0,1.24a.41.41,0,0,1-.07.22h0l-.17.22a.35.35,0,0,1-.19.12h0l-.61.17A.37.37,0,0,1,38.6,30h0l-.21-.53.26.24L38,29.54a.4.4,0,0,1-.28-.27v0a30.79,30.79,0,0,1-.6-3.1v-.07l0-1.24,0,.16-.35-.81,0-.05c-.08-.26-.15-.52-.22-.79a7.86,7.86,0,0,0-.16-.79c-.13-.51-.26-1-.37-1.57l0,.08-.38-.67h0v0c-.15-.35-.26-.81-.38-1.07l-.37-.9h0v0l-.24-1v0h0c-.1-.69-.19-1.39-.31-2.08h0l0-.72s0,0,0,0,0,0,0,0l.12.72h0c.2.68.38,1.36.53,2h0l.32,1v0l.48,1c.16.38.28.59.4.89l0,0,.4.65a.11.11,0,0,1,0,.07h0c.14.53.28,1,.44,1.55.09.25.13.57.2.78l.23.77,0-.05.37.81a.45.45,0,0,1,0,.16V26c.19,1,.35,2.05.59,3.05l-.28-.29.62.17h0a.38.38,0,0,1,.26.23l.19.53-.44-.22.61-.15-.19.12.17-.21-.08.22,0-1.24v.05l-.2-1.69v.05l-.31-1.17a5.15,5.15,0,0,0-.2-.52l-.19-.51v-.05L38.19,23c-.09-.45-.25-.89-.37-1.34v0l-.37-.89-.05-.11a.75.75,0,0,1,0-.17v-.25a2.35,2.35,0,0,0,0-.45,4.27,4.27,0,0,0-.16-.45A.91.91,0,0,0,37,19a.61.61,0,0,1-.15-.26l-.07-.22-.15-.44v0c0-.16-.08-.32-.13-.46a1,1,0,0,0,0-.1l-.06-.07a1,1,0,0,1-.16-.21,3.57,3.57,0,0,1-.25-.47l-.2-.43v0l-.3-.36,0-.06h0l-.13-.51v0l-.21-.5h0L35,14.43l.06.1-.29-.25.08.05-.57-.17h.08l-.34,0,.24-.17-.26.76,0-.06c0,.39-.1.78-.17,1.16v-.05l0,2.2v0L34,20.38c0,.4,0,.79,0,1.2a5.5,5.5,0,0,0,0,1.14c.08.78.18,1.57.28,2.35s.11,1.6.17,2.35v0s0,0,0,0S34.43,27.47,34.43,27.46Z"/><path class="cls-4" d="M34.23,17.09a9.09,9.09,0,0,1,.47,1.57,6.57,6.57,0,0,1,.22,1.6v0A7.07,7.07,0,0,0,35.29,22v0c.16.26.34.52.52.77v0a7.21,7.21,0,0,1,.46.71s0,0,0,0v.06l.1.66v0c.07.26.14.53.21.78h0v0a6.76,6.76,0,0,1,.11.89v.86c0,.17,0,.33,0,.5v0l0,.31,0-.07c0,.16.07.33.1.5h0l0,.16s0,0,0,0,0,0,0,0L36.63,28h0l-.29-.42v-.07l0-.31v.05c-.05-.16-.11-.31-.16-.47v0c-.07-.29-.12-.58-.17-.87s-.11-.55-.15-.84v0a6.21,6.21,0,0,1-.16-.84v0h0l0-.68,0,.08a5.84,5.84,0,0,1-.26-.67h0c-.1-.29-.2-.58-.32-.87h0a6.71,6.71,0,0,0-.63-1.7v0a6.6,6.6,0,0,1-.32-1.59,7.07,7.07,0,0,1,.07-1.65s0,0,0,0S34.23,17.08,34.23,17.09Z"/><polyline class="cls-6" points="34.59 27.39 34.59 27.98 34.91 28.23 35.03 28.68 36.03 28.61"/><path class="cls-4" d="M35.07,28.79a1.45,1.45,0,0,1,.34.58l0-.08a1.35,1.35,0,0,1,.19.33l0,.05a.09.09,0,0,1,0,0,.6.6,0,0,1,0,.23l-.18-.22a1.17,1.17,0,0,0,.61.38h0a1.74,1.74,0,0,0,.29-.07h0c.15,0,.31-.06.45-.07l.09,0,.29.08a.22.22,0,0,1,.13.1l.05.08.1.15-.48-.2a2,2,0,0,1,.46-.13h0l-.06.06a.53.53,0,0,0-.06.13v0l0-.1c0-.05.16-.23.14-.17a1.35,1.35,0,0,0,.12-.12l0,0,0-.05,0,0s0,0,0-.05l.12-.12s0,0,.06,0a0,0,0,0,1,0,0,.69.69,0,0,1,.07.23s0,.08,0,.13,0,0,0,0,0,0,0,0v0a1.77,1.77,0,0,1,0,.22c-.07.16,0,.07,0,.14v.09h0a1.07,1.07,0,0,1-.07.15.66.66,0,0,1-.12.11l-.12.08a.67.67,0,0,1-.24.07.36.36,0,0,1-.21.09l-.11,0a.31.31,0,0,1-.37-.22l-.06-.17.18.17-.26-.16.09,0a3.75,3.75,0,0,1-.41-.19h0a1.74,1.74,0,0,0-.29-.07h0a1.8,1.8,0,0,0-.74-.07s-.06,0-.07-.05L35,30a.83.83,0,0,1-.08-.22l0,.1a1.66,1.66,0,0,1-.14-.37l0-.09A1.61,1.61,0,0,1,35,28.8a.06.06,0,0,1,.07,0Z"/><path class="cls-4" d="M45.46,27.14c0-.37-.05-.74-.07-1.11s0-.75,0-1.12l.11-2.21c.08-1.47.11-2.95.14-4.42l0,.14-.45-.93a.28.28,0,0,1,0-.13h0V15.77h.66c0,1-.13,2.08-.19,3.12S45.53,21,45.42,22v0s0,0,0,0L45,23.12v0l-.08.57v0c0,1.36-.06,2.72-.07,4.08h0l0,.33,0-.07a.85.85,0,0,1,.14.17c.06.12,0,.18,0,.24v.38a.09.09,0,0,1,0,.08l-.29.27a.11.11,0,0,1-.08,0h-.49a.12.12,0,0,1-.08,0l-.55-.49,0,0c-.18-.31-.35-.63-.52-.95a.17.17,0,0,1,0-.07,6.17,6.17,0,0,0,0-1.05v-1a.84.84,0,0,1,0-.21v-.93c0-.06,0-.23,0-.19a1.61,1.61,0,0,1,0-.35l0-.53.44.1-.5,1.37a.26.26,0,0,1-.35.15.26.26,0,0,1-.16-.32v0L43.35,21c.38-1.19.71-2.4,1-3.6v0l.24-1.73a.19.19,0,0,1,0-.07l.79-2.31a.39.39,0,0,1,.71-.07l.48.79a.38.38,0,0,1,0,.15c.13,1,.26,1.93.41,2.9v0c.08,1.12.13,2.24.18,3.36v0h0l-.08,1.73V24h0v0L47,25.09v0c0,1-.06,2-.11,3h0a.09.09,0,0,1,0,.07c-.2.16-.39.33-.59.48h0l-.27.08h0l-.62,0s0,0,0,0a0,0,0,0,1,0,0l.62,0h0l.26-.11,0,0c.19-.17.37-.35.54-.53l0,.08c0-1-.08-2-.11-3v0h0L46.68,24v0l-.09-1.75,0-1.75v0c-.08-1.11-.19-2.22-.29-3.34v0c-.15-1-.29-1.94-.43-2.91l.06.15-.49-.79.7-.07-.79,2.3,0-.07-.28,1.73h0v0C44.75,18.81,44.4,20,44,21.19l-1.18,3.57-.51-.19.57-1.33h0a.23.23,0,0,1,.44.11l0,.52c0,.06,0,.23,0,.19a2,2,0,0,1,0,.33l0,.53v.39s0,.14,0,.05a.56.56,0,0,1,0,.22V26l0,.52a9.39,9.39,0,0,1,0,1.06v-.07c.16.33.32.65.5,1l0,0,.55.51-.09,0h.49l-.08,0,.3-.27,0,.09v-.38c0-.06,0-.14,0-.12a.58.58,0,0,0-.1-.12.09.09,0,0,1,0-.08l0-.33h0c0-1.36,0-2.72-.07-4.08h0l0-.57V23l.33-1.07,0,.06c.07-1,.08-2.08.14-3.11s.08-2.08.16-3.11h0a.33.33,0,0,1,.35-.31.34.34,0,0,1,.31.34l0,1.59,0-.14.43,1a.31.31,0,0,1,0,.13l-.11,2.22L46,22.73l-.12,1.13-.13,1.08c0,.38-.13.72-.13,1.09l0,1.11s0,0,0,0S45.46,27.16,45.46,27.14Z"/><path class="cls-4" d="M47.27,25.59a.78.78,0,0,1,.5-.29.22.22,0,0,1,.2.08l.1.13c.1.12,0,.31,0,.47h0a.44.44,0,0,0,.28.34,1.16,1.16,0,0,1,.35.3.73.73,0,0,1,.18.4,1.25,1.25,0,0,1,0,.53.06.06,0,0,1-.07,0,1.15,1.15,0,0,1-.47-.23A.7.7,0,0,1,48,27a1.11,1.11,0,0,1-.07-.46.43.43,0,0,0-.15-.42h0c-.13-.11-.32-.19-.33-.34l.31.2a.74.74,0,0,1-.5-.29A.06.06,0,0,1,47.27,25.59Z"/><path class="cls-4" d="M47.31,27.65c.26,0,.35,0,.32.05s-.13.11-.14.15,0,0,.11,0,.22,0,.24.08-.07.16-.26.31l-.07,0c-.24,0-.35,0-.4,0s0-.12.11-.23.08-.1,0-.11-.14,0-.21,0,0-.12.19-.27A.09.09,0,0,1,47.31,27.65Z"/><path class="cls-4" d="M44.06,23.11c.22,0,.29,0,.31,0s0,.07-.2.14l-.22,0a.75.75,0,0,1-.3-.11s.07-.11.34-.19h.07c.28,0,.39.05.38.1a.69.69,0,0,1-.26.18.4.4,0,0,1-.15,0H44c-.19,0-.23,0-.24,0s.07-.08.28-.16Z"/><path class="cls-5" d="M47,30l-.17.1-.2.08-.15.1-.19.14-.21.11-.27.14-.16.18a1.45,1.45,0,0,1-.17.19,2.07,2.07,0,0,0-.2.15,2,2,0,0,0-.16.24,1.88,1.88,0,0,1-.2.2l-.05.19-.11.22v.05"/><path class="cls-5" d="M47.44,31l-.35.14-.52.29-.51.3-.41.43-.39.43-.44.52c0,.05-.58.69-.58.69l-.22.32"/><path class="cls-5" d="M47.62,31.82l-.55.2-1,.55s-.38.52-.44.58-.47.62-.53.71-.3.61-.36.67a4.22,4.22,0,0,0-.31.58s-.27.74-.27.74"/><path class="cls-5" d="M47.27,33l-.41.09s-.57.41-.57.41l-.39.41a2.08,2.08,0,0,1-.26.52,3.35,3.35,0,0,0-.38.62,2.06,2.06,0,0,1-.3.62c-.1,0-.27.59-.27.59"/><path class="cls-5" d="M47.82,33.84l-.38.1-.43.24-.42.43-.36.48-.39.57s-.31.5-.31.54-.32.67-.32.67"/><path class="cls-5" d="M48.13,34.79l-.4.23-.54.37-.41.46-.4.51-.3.51s-.56.62-.56.62l-.4.71"/></g><g id="_26947" data-name="26947"><path class="cls-4" d="M208.5,98.26c-.08-2.67-.16-5.34-.2-8s-.06-5.34-.08-8l.07.19-.89-1.12h0v0l-.88-1.5.12.11-1.62-1,0,0,0,0c-.81-.83-1.65-1.64-2.42-2.54a5.21,5.21,0,0,1-.55-.75,4.83,4.83,0,0,0-.41-.74c-.3-.49-.62-1-.94-1.45l0,0h0l-.79-1.66-.4-.83a6.11,6.11,0,0,1-.23-.94c-.21-1.21-.36-2.43-.51-3.65h0V64.63l0,.07-1.52-2h0v0c-.69-1.69-1.42-3.35-2.17-5s-1.39-3.37-2.1-5v-.07l-.82-5.24v0l0-7.63.79,0c.32,3.5.66,7,1,10.51V50l.72,3,0,0,1.93,4.4,0,0,2.06,2.91v0h0l1.07,2h0l1.56,2.42a0,0,0,0,1,0,.06,0,0,0,0,1-.05,0l-1.69-2.33h0l-1.18-2,0,0L196,57.65h0v0l-2.07-4.35v0l-.78-3v-.06c-.37-3.49-.69-7-1-10.49l.79,0-.05,7.63v0l.68,5.26V52.4c.65,1.7,1.22,3.44,1.94,5.11s1.36,3.38,2,5.07v0l1.48,2,0,0v1.65c.16,1.21.34,2.43.56,3.63a4,4,0,0,0,.23.84l.43.82.85,1.63,0,0c.35.47.69.94,1,1.43a5,5,0,0,1,.45.77,5.37,5.37,0,0,0,.51.62c.78.84,1.63,1.63,2.45,2.45l-.06,0,1.63,1,.07,0,.05.07L208,81l0,0,.86,1.13.07.09v.11c0,2.66,0,5.33-.08,8s-.12,5.33-.2,8c0,0,0,0,0,0A0,0,0,0,1,208.5,98.26Z"/><path class="cls-4" d="M217.51,63.73l1.58-1.68v0l1-1.41,0,0L221,58.3l0,.1L220.8,57v-.09l.05-.07.61-.89,0,0,.73-1.51,0,.09c.43-2.8.86-5.6,1.33-8.39v0c.08-1.21.16-2.41.19-3.62L223.8,39l.48,0,.41,4.51h0l0,2.62h0c-.26,1.37-.51,2.74-.73,4.12l-.61,4.14v0l0,1.5v0c-.23.82-.44,1.65-.69,2.46l-.73,2.44v0l0,0-1,1.61c-.34.54-.71,1.06-1.09,1.57s-.76,1-1.11,1.55l-1.07,1.57.06-.19,0,4.75v.07l0,.07-.75,1.75v0l-1.74,3v0l0,0-1.63,1.87,0,0,0,0-2.26,1.49.17-.26-.43,2.87v-.13l.7,2.64v.07l-.23,12.25a0,0,0,0,1-.08,0L211,85.38v.07l-.8-2.61,0,0v-.08l.32-2.88,0-.16.15-.1L213,78.06l-.07.07,1.62-1.88,0,.06,1.76-3,0,0,.75-1.75,0,.15,0-4.75V66.9l.06-.09,1.09-1.57c.35-.54.77-1,1.15-1.53s.78-1,1.13-1.53l1.08-1.57,0,.07.81-2.42c.27-.81.51-1.62.77-2.43v.05l0-1.5h0l.69-4.13c.26-1.37.5-2.75.72-4.12v0l0-2.62h0L223.8,39l.48,0,0,3.63c0,1.21-.07,2.42-.14,3.63v0l-1.42,8.37v0l0,0-.77,1.49v0h0l-.64.86,0-.16.1,1.38v.06l0,0-1.05,2.36v0h0l-1,1.34h0l-1.67,1.57a0,0,0,0,1-.06,0A0,0,0,0,1,217.51,63.73Z"/><path class="cls-4" d="M196.8,58.41l-.08-2.9s0,0,0,0h0l.37-1.12c.12-.37.23-.75.37-1.11l.88-2.19v0l.59-2.39v.07l0-2v0h0l.6-2.88v.06c0-3.29-.07-6.58,0-9.87s.06-6.59.11-9.88v.07l-.71-2.26h0a.07.07,0,0,1,0-.05l0-2.87v0l-.71-2.75v0l-1.46-2.38,0,0-4.43-3.35,0,0-2.26-.73A.17.17,0,0,1,190,9.7a.18.18,0,0,1,.17-.11l1.37,0h.06l1.75.56c.57.2,1.14.44,1.71.65h0l1.57.85.07.05c.82.93,1.67,1.82,2.53,2.72a.56.56,0,0,1,.05.08h0l.77,1.75a.35.35,0,0,1,0,.11h0l0,2.63V19l.71,4.37v.06q.06,6.5,0,13v-.05l.55,4.12s0,0,0,.06l0,3.62h0v.06l-.6,2.62v-.06l0,1.75h0s0,.05,0,.07L200,51h0l0,0-1,1.86,0,0-.66,2.12v0l-.27,1.37v-.06l.21,2.16v0c.35.66.68,1.33,1.07,2l1.15,1.93s0,0,0,0a0,0,0,0,1-.05,0l-1.24-1.88c-.42-.62-.78-1.28-1.17-1.92a.09.09,0,0,1,0,0h0l-.29-2.14a0,0,0,0,1,0-.05h0l.23-1.37v0l.59-2.13,0,0h0l1-1.89,0,.05.66-2.38v.08l0-1.75V46.7h0l.53-2.63v.07l-.05-3.62v.05l-.57-4.13v0q0-6.5,0-13v.06l-.67-4.38h0v0l0-2.63,0,.12-.73-1.75,0,.08c-.83-.92-1.66-1.84-2.47-2.78l.07,0-1.55-.89h0c-.56-.23-1.12-.47-1.69-.69l-1.72-.6h.06l-1.37,0,.05-.32,2.24.77,0,0,4.4,3.4,0,0,1.49,2.37a0,0,0,0,1,0,0l.75,2.75v0l0,2.87v-.06l.79,2.24s0,0,0,.06h0c.05,3.29.1,6.58.11,9.88s0,6.58,0,9.87v.06l-.65,2.87v-.05l0,2h0v.06l-.66,2.36h0v0l-.95,2.15c-.16.35-.28.72-.43,1.09l-.42,1.09v0l-.07,2.9a0,0,0,0,1,0,0S196.8,58.43,196.8,58.41Z"/><path class="cls-4" d="M208.54,62.29a7.6,7.6,0,0,1-1.62.26l.19-.07a8,8,0,0,1-.86.78h0a.1.1,0,0,1,0,0c-.56.21-1.16.33-1.71.55h0a6.76,6.76,0,0,0-1,.8.14.14,0,0,1-.17,0l0,0a18.66,18.66,0,0,1-1.61-1l0,0,0,0c-.31-.36-.62-.72-.9-1.1l0,0a.38.38,0,0,1-.07-.22c0-.46.05-.92.1-1.38v-.07a.09.09,0,0,1,0-.07,10.56,10.56,0,0,1,1-1.25,0,0,0,0,1,.05,0s0,0,0,0a10.62,10.62,0,0,1-.52,1.5l0-.14c0,.46.08.92.1,1.38l-.09-.25c.31.37.58.76.85,1.15l-.07-.07a18.51,18.51,0,0,1,1.39,1.27h-.21a7.18,7.18,0,0,0,1-.7h0c.54-.28,1-.66,1.54-.94l-.07,0a10.36,10.36,0,0,1,.89-.72l0,0a.22.22,0,0,1,.16,0,7.6,7.6,0,0,1,1.62.26s0,0,0,.05Z"/><path class="cls-4" d="M200.67,62.4a1.54,1.54,0,0,1-.59-.33,1.21,1.21,0,0,1-.37-.49l-.06-.18a3.08,3.08,0,0,0,.17-.57,1.14,1.14,0,0,0-.09-.57l0-.13a3.47,3.47,0,0,1,.39-.85.22.22,0,0,1,.14-.13l.07,0a2.9,2.9,0,0,1,.57-.12h.14a.27.27,0,0,1,.27.18,2.63,2.63,0,0,1,.15.91,0,0,0,0,1,0,0h0a2.43,2.43,0,0,1-.71-.58l.41.16a2.35,2.35,0,0,1-.56.2l.22-.15a3.54,3.54,0,0,1-.69.64l0-.12a1.42,1.42,0,0,0-.09.57,3.13,3.13,0,0,0,.18.57l-.06-.18a1.12,1.12,0,0,1,.37.49,1.64,1.64,0,0,1,.18.65s0,0,0,0Z"/><path class="cls-4" d="M203.81,61.7l-.89-.12h0l-.81-.39-.05,0v0l-.47-.7h0v0c-.18-.42-.38-.84-.58-1.25a.11.11,0,0,1,0-.08v0c0-.26,0-.52,0-.78v.05c-.12-.5-.23-1-.32-1.51s-.15-1-.23-1.54v0l0-2.15v0a.17.17,0,0,1,0-.12l.59-1,0,0h0l.43-.61v0h0l.39-.42,0,.1L202,50h0s0,0,0-.06l.39-.58h0l.48-.52a.05.05,0,0,1,.05,0l.34-.15h0a.12.12,0,0,1,.15.06.08.08,0,0,1,0,0c0,.38.06.75.1,1.13h0v.76c.16.94.3,1.87.49,2.8h0v0l0,.57v0l.27,1.18v0l0,1.35v-.07c.14.54.24,1.08.34,1.63v0h0l0,2.38a.37.37,0,0,1-.05.18h0l-.19.33a.39.39,0,0,1-.35.2h-1.09a.4.4,0,0,1-.4-.4v0h0l.1-.93V59l-.23-1.16h0v0l-.08-1.41v0l-.23-1.16v-.07l.11-2.53h0c.11-.74.2-1.48.37-2.21,0,0,0,0,.05,0a0,0,0,0,1,0,0c-.08.74-.06,1.49-.09,2.23v0l.11,2.53v-.06l.29,1.15v0l.17,1.4v0l.27,1.15a.17.17,0,0,1,0,.07h0v1c0,.34-.06.68-.09,1l-.4-.45h1.09l-.34.2.19-.33,0,.2,0-2.38v.06c-.08-.54-.18-1.08-.28-1.62h0a.11.11,0,0,1,0-.05l0-1.35v.06l-.17-1.2v0l0-.57v0c0-.48-.12-.95-.15-1.42s-.09-.94-.17-1.41v-.8h0c0-.38,0-.75-.09-1.13l.17.1L203,49l0,0-.46.54h0l-.37.6,0-.07-.06.94a.17.17,0,0,1,0,.1h0l-.36.45,0,0-.38.64v0l-.5,1.09,0-.14,0,2.15v0c.06.51.09,1,.17,1.52s.17,1,.27,1.5v.06c0,.26,0,.52,0,.78l0-.11c.17.43.33.87.48,1.31l0,0,.41.74-.06-.06.75.49h0l.86.25a0,0,0,0,1,0,.05S203.83,61.7,203.81,61.7Z"/><path class="cls-4" d="M216.32,62.72a.59.59,0,0,1-.21-.42c0-.14.14-.23.25-.33h0c.11-.09.08-.23,0-.37a.9.9,0,0,1,0-.39v.23a.73.73,0,0,1,.15-.73.08.08,0,0,1,.08,0c.33.13.49.31.52.52l0,.15a.1.1,0,0,1,0,.09.78.78,0,0,1-.26.29c-.12.09-.23.18-.19.32h0c.07.14.18.29.1.39a.56.56,0,0,1-.36.3A.08.08,0,0,1,216.32,62.72Z"/><path class="cls-4" d="M217.5,61.84a.76.76,0,0,1-.18-.42.38.38,0,0,1,.12-.35v.06c.07-.11.16-.23.14-.34a1.09,1.09,0,0,0-.16-.35v.08a1.06,1.06,0,0,1-.17-.26.67.67,0,0,1-.1-.28l.14.2a1,1,0,0,1-.25-.65s0-.05,0-.05a1,1,0,0,1,.69.1.1.1,0,0,1,.05,0l.09.16a.52.52,0,0,1,.06.28,1.63,1.63,0,0,1,0,.31v.07a.94.94,0,0,0-.17.35c0,.11.07.23.15.34v.06a.35.35,0,0,1,0,.36.8.8,0,0,1-.34.31A.08.08,0,0,1,217.5,61.84Z"/><path class="cls-4" d="M221.07,56.51l-.37-2.12v0l-.8-2.23,0,0c-.24-.28-.46-.56-.68-.85a2.46,2.46,0,0,1-.53-1,6.87,6.87,0,0,0-.28-1l-.35-1a.25.25,0,0,1,0-.07l0-3.63,0,.08-.77-2.37a.24.24,0,0,1,0-.08l0-8v.05l-.74-4.38v-.05c0-4.54.11-9.08.17-13.62a.07.07,0,0,1,0-.05l.76-2.25s0,0,0,0l1.26-1.49,0,0,2-1.24h0l1.52-.71c.5-.25,1-.53,1.47-.8l.06.24h-2.45l-2.37.9,0,0-2.11,1.52.06-.06L216,14l0,0-.85,2.51v-.08l.1,8.5v0l.61,5,.69,5v0l.08,1.38c0,.46.06.92.05,1.38v2.72l.24,2.63v-.08a9.58,9.58,0,0,1,.24,1,2.22,2.22,0,0,1,0,.59.88.88,0,0,1,0,.21l0,.08c0,.06,0,.13,0,.21,0,.63,0,1.31,0,2l0-.08.55,2c.17.67.42,1.31.64,2,.47,1.3.89,2.61,1.29,3.94h0l.54,2.38h0a.28.28,0,0,1,0,.13l-.59,1.87v1.06h0a.2.2,0,0,1-.06.15l-1.84,2,0,0-1.26.87,0,0-.64.74h0l-.76.61h0a.14.14,0,0,1-.09,0l-1,0h0a.1.1,0,0,1-.1-.07l-.24-.6,0,0c-.4-.24-.81-.46-1.23-.68h0l-.71-.29h0l-.9-.21s0,0,0,0a.05.05,0,0,1,.05,0l.91.17h0l.72.27h0c.43.2.85.41,1.27.63a.1.1,0,0,1,0,0l.26.59-.1-.07,1,0-.08,0,.73-.64,0,0,.61-.76,0,0,1.24-.89,0,0,1.78-2-.05.16,0-1.13s0,0,0-.06h0l.54-1.88v.14L219.07,55v0c-.43-1.31-.88-2.61-1.38-3.9-.24-.66-.51-1.29-.69-2l-.58-2s0-.06,0-.08c0-.69-.07-1.35,0-2.06,0-.09,0-.19,0-.29a1.08,1.08,0,0,1,0-.17v0a1.61,1.61,0,0,0,0-.41,7.39,7.39,0,0,0-.22-.93.25.25,0,0,1,0-.08l-.26-2.62V37.64c0-.46,0-.91,0-1.37l-.07-1.37v0l-.65-5-.55-5h0v0l.1-8.5h0a.17.17,0,0,1,0-.07l.9-2.49s0,0,0,0l1-1.74s0,0,.06-.06l2.14-1.48,0,0,2.38-.84h2.55a.12.12,0,0,1,.13.12.14.14,0,0,1-.07.12c-.49.26-1,.54-1.48.79l-1.53.7h0l-2,1.26,0,0-1.24,1.5,0,0-.74,2.25v0c.06,4.54.16,9.08.17,13.62v-.05l.76,4.37v.06l0,8,0-.09.73,2.38h0a.19.19,0,0,1,0,.07l-.05,3.63,0-.08.34,1a8.11,8.11,0,0,1,.27,1.08,2.08,2.08,0,0,0,.43.87,10.56,10.56,0,0,0,.62.87h0a.05.05,0,0,1,0,0l.7,2.26v0l.26,2.13s0,0,0,0S221.07,56.53,221.07,56.51Z"/><path class="cls-4" d="M214.48,50.13c.12,1.3.18,2.6.23,3.91s0,2.6.07,3.9a.4.4,0,0,1,0,.15l-.32.65h0v0l-.51.74,0-.08c-.11.35-.23.7-.35,1.05l0-.2.2.46-.05-.07.33.34-.24-.05,1-.28-.1.08.53-.87h0l.48-.62,0,0,.27-1.06v0l0-1.19h0c-.1-.94-.27-1.86-.45-2.79h0c-.23-.8-.44-1.61-.62-2.42v0h0l-.27-2.28a.36.36,0,0,1,.31-.39.36.36,0,0,1,.38.23h0l1.17,3.2,0,0,.66,1.4,0,0,.55,1h0a.39.39,0,0,1,0,.18c0,1.3-.06,2.61-.1,3.91v.06l-.26,1v0l0,.06-.57.77v0l-.46.52v0s0,0-.06,0l-.82.25h-.06l-1-.3a0,0,0,0,1,0,0,0,0,0,0,1,0,0l1,.17h-.06l.78-.35-.07.05.41-.57v0l.49-.83,0,.08.17-1v.06c0-1.3-.09-2.61-.1-3.91l.05.19-.58-1v0l-.66-1.4,0,0-1.08-3.24.69-.15.17,2.29v0c.15.82.27,1.64.44,2.45h0l.3,2.82v0l0,1.19v0L216,59.38a.08.08,0,0,1,0,0l-.46.63h0L215,61a.18.18,0,0,1-.09.08h0l-.95.38a.22.22,0,0,1-.22,0l0,0-.36-.31,0,0v0l-.24-.45a.21.21,0,0,1,0-.17v0c.09-.36.18-.72.28-1.07l0-.09.49-.75,0,0,.3-.66,0,.14c0-1.3,0-2.6.08-3.9s.1-2.61.22-3.91c0,0,0,0,0,0A0,0,0,0,1,214.48,50.13Z"/><path class="cls-4" d="M208.5,61.85l-.06-2.5v0l.35-1.35V58l-.23-1.75h0l-.06-4h0l-.22-2.33h0l0-4.33v0l-.39-3.09v0h0c0-2.87,0-5.73,0-8.59v0l-.37-2.67h0v0l.06-3.59v.06l-.39-1.59h0v0l0-3.25v.05c-.2-.55-.42-1.09-.59-1.65l-.51-1.68c-.09-.27-.17-.58-.26-.82s-.24-.53-.36-.79l-.8-1.55v0l-.45-2,0,0-1.45-2.32,0-.06-.41-2.24,0,.07L201.75,9a.23.23,0,0,1,0-.11V8.26a.2.2,0,0,1,.2-.21h.62l.08,0h0l.89.41a.19.19,0,0,1,.1.1h0l.51,1.08h0L205,12v0l.64,1.24v0h0l.57,1.37c.19.46.34.93.52,1.4.33.94.76,1.8,1.13,2.7h0v0c.29.92.61,1.81.87,2.77a7.59,7.59,0,0,1,.16.75,1,1,0,0,1-.07.58c-.08.12,0,.05,0,.05v0s0,.07,0,.12a7,7,0,0,0,.08,1.35l-.75.05V18.88l.38-3.33v-.06c.21-.81.43-1.62.63-2.44l.54-2.46v0l.47-1.5h0a.35.35,0,0,1,.15-.2l.8-.49h0a.34.34,0,0,1,.48.11.09.09,0,0,1,0,.06l.41,1.09h0a.5.5,0,0,1,0,.12l0,1.16h0a.34.34,0,0,1,0,.1l-.53,1.44-.46,1.45v-.08l0,1.75h0v0l-.27,2v0l0,1.5v.05c-.22.87-.45,1.73-.65,2.6s-.36,1.75-.56,2.62h0L209.1,26v0l-.19,2.83s0,0,0,0,0,0,0,0l0-2.83v0l.38-1.6h0c.14-.88.26-1.77.46-2.65s.39-1.75.58-2.62v.05l0-1.5v0h0l.23-2v0l0-1.75s0-.05,0-.08h0l.44-1.48.49-1.46,0,.11V9.76l0,.12L211,8.8l.52.17-.78.51.15-.2-.45,1.5v0l-.54,2.48c-.19.82-.41,1.64-.62,2.46v-.06L208.93,19v5.45h0a.38.38,0,0,1-.75,0,7.45,7.45,0,0,1-.08-1.51,2.08,2.08,0,0,1,0-.23l0-.16c0-.05.12-.18.06-.11s0-.05,0-.13a4.15,4.15,0,0,0-.13-.65c-.23-.9-.55-1.82-.83-2.74v0c-.36-.93-.8-1.84-1.1-2.77-.16-.47-.29-.94-.48-1.39l-.53-1.38v0l-.61-1.26h0v0l-.85-2.34h0l-.49-1.08.11.1-.88-.42.09,0h-.61l.2-.2v.58l0-.11.6.92,0,.07.36,2.26,0-.05,1.42,2.34,0,0,.43,2v0l.78,1.57c.13.26.26.52.37.8s.19.56.28.84l.53,1.66c.17.56.41,1.09.61,1.64v.05l.05,3.25V26l.44,1.58a.06.06,0,0,1,0,0h0l0,3.59v-.05l.46,2.66v.05h0c0,2.86.05,5.72,0,8.59v0l.36,3.08v0l0,4.33v0l.15,2.34h0v0l-.06,4v0l.15,1.75h0a.06.06,0,0,1,0,0l-.4,1.34v0l-.06,2.5a0,0,0,0,1-.08,0Z"/><path class="cls-4" d="M208.33,26.25c.4,1.85.72,3.7,1,5.56.16.92.28,1.89.37,2.84s.11,1.86.16,2.79v0h0c-.06,1.18-.09,2.36-.1,3.55h0c.07.7.12,1.41.2,2.12h0l0,1v0c.12,1,.26,1.91.36,2.87h0v0c.05,1.2.06,2.41.08,3.62v0c.17,1.59.31,3.19.45,4.78v0l0,1.34v0c.09.85.15,1.7.27,2.56a21.72,21.72,0,0,1,.21,2.57h0l-.07,1s0,0,0,0,0,0,0,0l-.07-1h0c-.16-.84-.29-1.68-.49-2.52s-.29-1.69-.45-2.54v0l0-1.34v0c-.19-1.59-.36-3.19-.45-4.8v0h0c0-1.21,0-2.42.08-3.62v0c-.06-1-.09-1.92-.14-2.88v0h0l0-1h0c0-.71-.09-1.42-.13-2.13h0c0-1.19,0-2.37-.1-3.55v0c-.13-.93-.28-1.88-.37-2.83s-.21-1.81-.34-2.76c-.26-1.86-.39-3.74-.49-5.63a0,0,0,0,1,0,0S208.32,26.23,208.33,26.25Z"/><path class="cls-4" d="M213.81,18.43a.88.88,0,0,1,.57,0c.15,0,.23.2.33.31s.42.47.62.72a0,0,0,0,1,0,.06s0,0,0,0a5.53,5.53,0,0,1-.9-.28c-.15-.05-.32-.06-.42-.18a.87.87,0,0,1-.19-.54A.08.08,0,0,1,213.81,18.43Z"/><path class="cls-4" d="M213.82,19.44a.76.76,0,0,1,.51,0c.13.06.17.21.23.33a5.72,5.72,0,0,1,.38.74s0,.05,0,.05a0,0,0,0,1,0,0,5.17,5.17,0,0,1-.75-.36c-.12-.06-.27-.1-.33-.22a.77.77,0,0,1-.05-.52A.06.06,0,0,1,213.82,19.44Z"/><path class="cls-4" d="M213.41,20.35a1,1,0,0,1,.64.06,1.07,1.07,0,0,1,.4.39c.26.27.5.56.74.86a0,0,0,0,1,0,.06,0,0,0,0,1,0,0,10.82,10.82,0,0,1-1-.44,1.17,1.17,0,0,1-.49-.27,1.11,1.11,0,0,1-.25-.6A.06.06,0,0,1,213.41,20.35Z"/><path class="cls-4" d="M213.79,22.16a1.09,1.09,0,0,1,.48-.31l.14,0a.73.73,0,0,1,.43.18l.09.05c.12.18.25.34.38.51l.05.07h0c.08.24.12.51.18.77,0,0,0,0,0,0a0,0,0,0,1,0,0c-.17-.2-.36-.39-.51-.6L215,23a5,5,0,0,0-.56-.31l.09.05a.74.74,0,0,1-.42-.19l.14,0a1.19,1.19,0,0,1-.48-.31A0,0,0,0,1,213.79,22.16Z"/><path class="cls-4" d="M214.36,23.78a.89.89,0,0,1,.66-.18.22.22,0,0,1,.14.08l.07.07a.92.92,0,0,1,.14.3c0,.11.09.21.13.31l0,.08a6.59,6.59,0,0,1,0,.77s0,0,0,0l0,0a6.44,6.44,0,0,1-.4-.66l0,.08-.26-.22a.92.92,0,0,1-.25-.23l.21.15a.93.93,0,0,1-.47-.5A.07.07,0,0,1,214.36,23.78Z"/><path class="cls-4" d="M214.36,25.78a1.08,1.08,0,0,1,.67-.13l.09,0a1,1,0,0,1,.36.29l.1.11a.09.09,0,0,1,0,.07c0,.22,0,.44.08.66h0l.08.59s0,0,0,0h0l-.36-.48h0c-.11-.2-.21-.39-.33-.59l.13.18a1,1,0,0,1-.42-.21l.09,0a1,1,0,0,1-.46-.51A.07.07,0,0,1,214.36,25.78Z"/><polyline class="cls-6" points="214.01 27.41 214.55 27.66 214.91 28 215.31 28.44 215.51 28.72"/><polyline class="cls-6" points="214.35 29.04 214.76 29.32 215.16 29.88 215.51 30.5"/><polyline class="cls-6" points="214.35 30.79 214.76 31.07 215.16 31.44 215.73 31.94"/><polyline class="cls-6" points="214.27 32.69 214.65 32.97 215.04 33.29 215.51 33.66 215.73 33.85"/><polyline class="cls-6" points="214.55 34.16 214.93 34.16 215.31 34.57 215.73 35.05 216.19 35.34"/><polyline class="cls-6" points="214.76 36.01 215.04 36.32 215.51 36.57 215.98 36.94 216.29 37.26"/><polyline class="cls-6" points="214.76 37.72 215.16 38.04 215.51 38.38 216.04 39.01"/><path class="cls-4" d="M215.18,40a.6.6,0,0,1,.26-.16c.06,0,.12,0,.13.08s0,.21.07.22.13,0,.21-.06h0a.35.35,0,0,1,.17,0,.12.12,0,0,1,.12.05.57.57,0,0,1,.05.45l0,.06a.61.61,0,0,1-.41.16c-.06,0-.08,0-.11-.09a.24.24,0,0,1-.06-.16h0c0-.08,0-.18-.07-.2s-.14,0-.22.08-.12,0-.15-.06a.53.53,0,0,1,0-.3A.09.09,0,0,1,215.18,40Z"/><polyline class="cls-6" points="214.76 41.72 215.16 42.01 215.68 42.38 216.04 42.63 216.29 42.63"/><path class="cls-4" d="M215,43.28a.64.64,0,0,1,.33-.11.27.27,0,0,1,.23.08h0a1.84,1.84,0,0,1,.09.25.18.18,0,0,0,.17.13l0,0c.08,0,.19,0,.28.07a.84.84,0,0,1,.21.11l-.09-.07c.17,0,.28.18.35.39l-.1,0a1.43,1.43,0,0,1,.15.18.06.06,0,0,1,0,.08.86.86,0,0,1-.15.17l-.11,0a.54.54,0,0,1-.52-.11l-.09-.07a.94.94,0,0,1-.1-.23,2.4,2.4,0,0,0,0-.28l0,0a.21.21,0,0,0-.19-.09l-.27,0h0a.27.27,0,0,1-.21-.14.75.75,0,0,1-.11-.33A.08.08,0,0,1,215,43.28Z"/><path class="cls-4" d="M215.18,44.78a.7.7,0,0,1,.35-.1c.09,0,.18,0,.22.12s.06.24.13.29a.33.33,0,0,0,.28,0l0,0a.75.75,0,0,1,.35.09.39.39,0,0,1,.2.26h0a1.28,1.28,0,0,1,0,.4.12.12,0,0,1-.05,0,.94.94,0,0,1-.4,0h0a.5.5,0,0,1-.3-.14.79.79,0,0,1-.15-.32h0c0-.1-.07-.2-.15-.23s-.21,0-.31,0-.16,0-.22-.12a.64.64,0,0,1-.09-.35A.09.09,0,0,1,215.18,44.78Z"/><path class="cls-4" d="M215.8,46.47a.54.54,0,0,1,.35-.11.22.22,0,0,1,.11,0s0,.11,0,.17l0,0c0,.2.17.16.31.09a.57.57,0,0,1,.36,0h0a.2.2,0,0,1,.12.08.59.59,0,0,1,0,.54.06.06,0,0,1-.06.05.57.57,0,0,1-.53,0l.13.09a.55.55,0,0,1-.25-.27c0-.16-.12-.27-.28-.16l0,0c-.05,0-.12,0-.16,0s-.07,0-.1-.07a.51.51,0,0,1-.06-.36A.16.16,0,0,1,215.8,46.47Z"/><path class="cls-4" d="M215.8,47.63a.49.49,0,0,1,.35-.18s.09,0,.12,0a1.3,1.3,0,0,1,.08.17l0,0c0,.14.1.17.22.15a.55.55,0,0,1,.31,0l-.06,0a.31.31,0,0,1,.28.12.79.79,0,0,1,.16.4.06.06,0,0,1,0,.07.83.83,0,0,1-.4.19.29.29,0,0,1-.28-.1l-.07,0a.65.65,0,0,1-.12-.29c0-.12-.09-.17-.22-.13h0a.71.71,0,0,1-.18.08.2.2,0,0,1-.13,0,.53.53,0,0,1-.15-.36A.08.08,0,0,1,215.8,47.63Z"/><path class="cls-4" d="M216.21,48.48a.74.74,0,0,1,.29-.08c.07,0,.13,0,.14.09h0c0,.09,0,.24,0,.28s.17,0,.27,0l0,0a.5.5,0,0,1,.21,0,.19.19,0,0,1,.14.12l-.15,0a.77.77,0,0,1,.22.3.11.11,0,0,1,0,.08.7.7,0,0,1-.22.3l-.15,0a.19.19,0,0,1-.18,0,.74.74,0,0,1-.12-.17l-.06,0c0-.1,0-.22-.05-.26s-.19,0-.28,0h0a.14.14,0,0,1-.1-.13.63.63,0,0,1,0-.3A.12.12,0,0,1,216.21,48.48Z"/><polyline class="cls-6" points="201.66 18.46 201.04 18.66 200.1 18.96"/><polyline class="cls-6" points="200.88 20.38 200.71 20.57 200.29 20.88"/><polyline class="cls-6" points="202.04 21.29 201.91 21.5 201.48 21.69 201.04 22.04 200.59 22.19"/><polyline class="cls-6" points="202.04 22.6 201.66 22.6 201.31 22.72 200.88 22.83"/><polyline class="cls-6" points="202.04 24.07 201.66 24.32 201.31 24.52 201.04 24.94"/><polyline class="cls-6" points="202.29 25.22 201.91 25.38 201.54 25.63 201.04 25.97"/><polyline class="cls-6" points="202.53 26.38 202.16 26.61 201.66 27.13"/><polyline class="cls-6" points="202.66 28.07 202.04 28.35 201.46 28.6 201.04 28.72 200.88 29.04"/><polyline class="cls-6" points="202.29 29.77 201.77 30.04 201.46 30.29 200.71 30.79"/><polyline class="cls-6" points="202.29 31.5 201.91 31.82 201.31 32.19 200.71 32.54"/><polyline class="cls-6" points="202.53 32.69 202.1 32.88 201.5 33.27"/><polyline class="cls-6" points="202.82 34.41 202.53 34.75 201.91 35.05 201.31 35.54"/><polyline class="cls-6" points="202.98 36.22 202.66 36.63 202.29 36.85 202.07 37.26 201.77 37.6 201.5 38.07 201.31 38.19 201.04 38.37"/><polyline class="cls-6" points="202.82 39.01 202.53 39.22 202.01 39.44 201.66 39.63"/><polyline class="cls-6" points="202.98 40.29 202.66 40.29 202.29 40.57 202.07 40.57 201.77 40.76"/><polyline class="cls-6" points="203.16 41.32 202.82 41.47 202.38 41.47 201.77 41.72 201.46 41.72"/><polyline class="cls-6" points="202.66 43.32 202.31 43.44 201.66 43.63 201.31 43.63"/><polyline class="cls-6" points="202.82 44.35 202.31 44.57 201.77 44.69 201.31 44.94 201.04 45.1"/><polyline class="cls-6" points="202.38 46.1 201.91 46.29 201.46 46.51 201.04 46.76"/></g><path class="cls-4" d="M264.57,96.81a12.84,12.84,0,0,1-.94-2.16.13.13,0,0,1,0-.06v0a12.91,12.91,0,0,1,.15-2.24l0-.27a.48.48,0,0,0,0-.12,1.05,1.05,0,0,1,0-.18l.09-.58A10.54,10.54,0,0,0,264,90a9.9,9.9,0,0,0,0-1.09,4.59,4.59,0,0,1,0-1.17,17.19,17.19,0,0,1,.26-2.26v.1a20.44,20.44,0,0,1,0-3.13s0,0,0,0a0,0,0,0,1,0,0,20.18,20.18,0,0,1,.68,3,.11.11,0,0,1,0,0v0c-.05.75-.19,1.49-.3,2.22a6.83,6.83,0,0,0-.11,1.09,11,11,0,0,1-.25,1.15,4.31,4.31,0,0,0-.15,2.22,9.18,9.18,0,0,1,.09,2.28v-.11a12.88,12.88,0,0,1,.39,2.33s0,0,0,0S264.58,96.83,264.57,96.81Z"/><path class="cls-4" d="M263.91,81.42A14.91,14.91,0,0,1,262,80.9l-.05,0,0,0c-.26-.2-.52-.41-.77-.63l0,0a10.36,10.36,0,0,1-1.21-1l-.05,0v0a13.29,13.29,0,0,0-1.58-2.47h0v0c-.42-.94-.85-1.88-1.2-2.85v0a20.73,20.73,0,0,1-.64-2.67v-.09a23.58,23.58,0,0,1,.3-2.75.05.05,0,0,1,0,0l0,0a23.62,23.62,0,0,1,.31,2.75V71a22.1,22.1,0,0,1,.69,2.66v0c.32,1,.55,2,.8,3l0,0a12.88,12.88,0,0,0,1.75,2.36l-.06-.07a11.57,11.57,0,0,1,1.29.86h0l.72.7-.08,0a17.28,17.28,0,0,1,1.72,1,0,0,0,0,1,0,.06Z"/><path class="cls-4" d="M256.74,67.49c-.45-.48-.89-1-1.3-1.48l0,0a18.9,18.9,0,0,1-1.52-1.32c-.5-.46-1-.94-1.41-1.44l-.05-.07c-.22-.42-.43-.84-.63-1.27v0h0l-.34-1.19v0c-.24-.57-.48-1.15-.75-1.71,0,0,0,0,0,0-.07-.36-.13-.72-.21-1.08v0c-.14-.36-.28-.72-.44-1.07h0v0l-.31-1.19v0l-.08-1.34,0,.1a18.13,18.13,0,0,1-.92-2.72v0l-.45-1.24v0h0c-.23-.89-.44-1.78-.64-2.67v0a.2.2,0,0,1,0-.07c.05-1.59.12-3.17.26-4.75v0l.2-.41h0s0,0,.06,0l.33,0s0,0,0,0,0,0,0,0l-.33,0,.07,0-.13.43v0c.14,1.58.2,3.16.26,4.75v-.09c.24.88.47,1.77.69,2.66v0l.39,1.26h0a22.93,22.93,0,0,0,.74,2.7v0s0,.05,0,.07l-.08,1.34v-.05l.19,1.22v0c.12.37.26.73.39,1.09h0c0,.37.13.73.2,1.09v0c.29.55.6,1.09.92,1.62v0l.49,1.14,0,0c.25.4.48.81.71,1.23l0-.07c.46.48.87,1,1.34,1.47l1.39,1.43v0h0c.37.55.7,1.12,1,1.69,0,0,0,0,0,0S256.75,67.51,256.74,67.49Z"/><path class="cls-4" d="M248.89,42.85c.07.5.11,1,.15,1.5v-.06l.4,1.06a.08.08,0,0,1,0,0v0c0,.62,0,1.25.06,1.87l0-.12.31.66v0h0a16,16,0,0,1,.45,1.81v0l.32,1v.08l0,.79v0c.06.38.12.76.2,1.13h0c.08.27.16.53.25.79h0l.91,1.89a.11.11,0,0,1,0,0v0l.05.87v-.08c.26.6.52,1.19.81,1.78v0l.34,1.16v0l.4,1,0-.07.55.84c.19.29.35.56.54.82s.19.27.29.39.14.13,0,.07a1.13,1.13,0,0,1,.3.23c.25.25.47.5.7.76l-.09-.07a3.91,3.91,0,0,1,.78.59,3.58,3.58,0,0,1,.47.81l0,0s0,0,.06,0a.88.88,0,0,1,.19.2,3.28,3.28,0,0,1,.27.38.78.78,0,0,0,.24.29,2.71,2.71,0,0,0,.35.24h0l.7.07a.07.07,0,0,1,0,0,0,0,0,0,1,0,0l-.7.07h-.05a3.25,3.25,0,0,1-.43-.18,1.2,1.2,0,0,1-.37-.33A2.87,2.87,0,0,0,257,65a.58.58,0,0,0-.13-.11s-.08,0-.12-.08a1.13,1.13,0,0,1-.11-.11,4.89,4.89,0,0,0-.49-.68,3.34,3.34,0,0,0-.67-.42.18.18,0,0,1-.07,0l0,0c-.23-.22-.48-.46-.72-.66,0,0-.17-.13-.09-.08a1,1,0,0,1-.33-.28c-.12-.14-.23-.27-.33-.41a9.13,9.13,0,0,1-.58-.85l-.53-.86h0l0-.06-.35-1v0h0l-.29-1.18,0,0a18,18,0,0,1-.65-1.87v0a.09.09,0,0,1,0-.05l.05-.87,0,.07-.35-1-.41-1h0c-.07-.26-.16-.52-.25-.79h0q-.13-.55-.3-1.11v0l-.05-.79v.08l-.43-.93v0c-.21-.59-.37-1.18-.55-1.77v0l-.27-.68v0a.36.36,0,0,1,0-.11c0-.62,0-1.25.06-1.87v.07l-.26-1.1v0c0-.5.08-1,.15-1.5a0,0,0,0,1,0,0S248.89,42.83,248.89,42.85Z"/><path class="cls-4" d="M255.53,62.61,255,61.49h0l-.49-1.95h0L254.32,58h0l-.07-4.87s0,0,0-.06l.55-1.84v0l.72-1.51,0,0,1-1.46v0l.62-1.13,0,.11,0-3.67,0,.1L256,41.08v0l-1.87-5.45a.19.19,0,0,1,0-.07l-.18-2v0h0c0-1.89,0-3.78,0-5.66l0,.13-.43-1a.35.35,0,0,1,0-.13l0-7.59h0v0c.15-1.16.25-2.33.45-3.48l.52-3.48v0l.47-1.42,0,0,.43-.79,0-.05.45-.41v.28l-.44-.42a.19.19,0,0,1,0-.25l.54-.71,0,.11v-1a.19.19,0,0,1,0-.13l.42-.41a.15.15,0,0,1,.12,0h.67a.16.16,0,0,1,.14.08l.17.25a.24.24,0,0,1,0,.09v2a.14.14,0,0,1-.08.13l-.29.17.07-.09-.13.38,0,0-.21.25,0-.09v1a.11.11,0,0,1,0,.06l-.21.42v0l-.17.88v0l-.43,1.08h0l-.37,1.45h0c-.11.77-.24,1.54-.34,2.3l-.19,2.32h0c.06,1.92.08,3.84.16,5.76,0,1,0,1.92.08,2.87a22.78,22.78,0,0,0,.38,2.84v0h0v1.37l.51,2.25v0l.54,1.67c.17.56.4,1.1.6,1.65.37,1.12.77,2.22,1.2,3.31v0c.07.28.14.55.2.83a6.83,6.83,0,0,1,.1.87l.15,1.63v0l0,2.37a.38.38,0,0,1,0,.16l-.75,1.36c-.27.45-.47.92-.69,1.38l0,0-.58,1,0,0-.45.92,0-.07c-.14.65-.3,1.31-.46,2v-.07c-.07,1.18-.07,2.36-.11,3.54v-.08l.61,3.33,0-.07.62,1.53,0,0,.83,1.58,0-.06,1,1.38,0,.06.29.59-.13-.15.42.29-.23-.07h.83l-.39.39v-.58a.59.59,0,0,1,0-.13l.21-.62V65c-.29-.74-.48-1.48-.72-2.23a.41.41,0,0,1,0-.11h0V61.8a.13.13,0,0,1,0-.06l.16-1a.35.35,0,0,1,.06-.14l.54-.84a.48.48,0,0,1,.22-.16l.92-.25h.07l1-.08h.05l1,0h0l1.08.13a.34.34,0,0,1,.24.13l.63.76a.24.24,0,0,1,.06.11l.29.79,0-.09.49.72-.66.21,0-6.36c0-1.07.07-2.12.11-3.18l.15-3.18v0l-.21-8.14c0-1.35,0-2.7,0-4.06s0-2.71-.06-4.06h0l-.23-1.46h0l-.37-.92h0l-.37-.51a0,0,0,0,1,0-.05s0,0,0,0l.39.49h0l.39.92h0l.27,1.45h0c.06,1.36.16,2.71.19,4.07l.05,4.06.35,8.12v0l-.1,3.17c0,1.06-.08,2.12-.06,3.17l.06,6.36a.36.36,0,0,1-.36.36.37.37,0,0,1-.3-.15h0l-.5-.71a.35.35,0,0,1-.05-.08l-.29-.79.06.11-.62-.75.24.13-1.08-.12h0l-1,0h0l-1,.08h.07l-.92.25.22-.16-.54.84.06-.15-.16,1v.66c.23.72.42,1.48.7,2.18a.43.43,0,0,1,0,.25h0l-.21.63,0-.13v.58a.39.39,0,0,1-.39.4h-.83a.41.41,0,0,1-.22-.07l-.42-.29a.45.45,0,0,1-.13-.15l-.29-.58,0,.06-1-1.38a.1.1,0,0,1,0-.05l-.83-1.58,0,0L256,60.82s0,0,0-.07l-.58-3.34a.19.19,0,0,1,0-.08c.05-1.18.07-2.36.14-3.54h0s0,0,0-.06q.25-1,.48-1.95a.19.19,0,0,1,0-.08l.45-.92,0,0,.59-1,0,0c.23-.47.44-1,.71-1.4l.77-1.36,0,.16,0-2.37v0l-.13-1.69a4.78,4.78,0,0,0-.08-.77c-.05-.26-.11-.53-.18-.79v0c-.41-1.1-.8-2.23-1.15-3.34-.19-.56-.41-1.1-.57-1.67L255.88,35v0l-.47-2.26V31.25a27.42,27.42,0,0,1-.35-2.87c0-1-.05-1.93-.05-2.89,0-1.92-.06-3.85-.09-5.77h0l.22-2.33c.11-.77.24-1.53.36-2.3h0l.36-1.46v0l.41-1.08v0l.16-.88s0,0,0,0l.21-.42,0,.06v-1a.14.14,0,0,1,0-.09l.21-.25,0,0,.12-.37a.11.11,0,0,1,.07-.08l.29-.17-.08.13v-2l0,.09-.17-.25.14.08h-.67l.13,0-.42.42.05-.12v1a.15.15,0,0,1,0,.11l-.52.72,0-.26.45.42a.2.2,0,0,1,0,.27h0l-.45.42,0-.05-.42.8v0l-.44,1.42v0l-.45,3.48c-.18,1.15-.25,2.32-.38,3.48v0l0,7.59,0-.13.44,1a.35.35,0,0,1,0,.14c0,1.88,0,3.77,0,5.66v0l.15,2v-.08l1.8,5.47v0l1.11,2.55a.36.36,0,0,1,0,.1l0,3.67a.35.35,0,0,1,0,.11L257,48.41v0l-1,1.45,0,0-.74,1.5v0l-.57,1.83v0L254.56,58h0l.15,1.54h0l.43,2h0l.48,1.13a0,0,0,0,1-.07,0Z"/><path class="cls-4" d="M265.66,30.53l-.83-1.18a0,0,0,0,1,0,0c-.2-.83-.44-1.65-.58-2.5s-.29-1.68-.43-2.53v0l-.49-1.91h0l-.41-2.49,0,.07-.67-1.54,0,0-.64-2.12v0l-.35-2V12.55a.29.29,0,0,1,0-.09l.42-1.41a.14.14,0,0,0,0-.06l.72-1.37h0a.31.31,0,0,1,.42-.13l0,0,.93.59h0a.24.24,0,0,1,.12.14l.33,1h0v0l.14,1v0l.23.88,0,0,.32.63h0s0,.05,0,.08c0,.31,0,.64.08.95a1,1,0,0,0,0,.18,1.86,1.86,0,0,1,.08.26l.11.48.4,1.9v0c.06.52.11,1,.19,1.56l.24,1.56v1.58l.23,1.11c.08.37.19.73.28,1.09h0c.12.34.25.67.37,1l.31,1h0l.26.66v.05l0,2.09-.36,0,.39-4.18h0l.27-1.42v.05l0-1.29v0h0l.19-1.58v0l0-1.5v0h0l.23-3v0l0-2.29v0c.07-.68.13-1.35.22-2a2,2,0,0,1,.05-.29.73.73,0,0,1,.07-.17s0,.06,0,0l0-.09.11-.48.19-1a.4.4,0,0,1,.34-.32l.58-.08a.33.33,0,0,1,.22,0l.63.29a.41.41,0,0,1,.13.1l.62.7a.76.76,0,0,1,.09.18l.29,1.38a.4.4,0,0,1,0,.11l-.17,2v0c0,1.13,0,2.26-.05,3.38v.06c-.24,1.13-.45,2.27-.61,3.41s-.3,2.3-.52,3.44v0l-.23,2.13c-.08.71-.19,1.42-.28,2.12h0v0l-.63,1.9h0l-.85,2h0l-.74,1.23s0,0-.05,0,0,0,0-.05l.68-1.27h0l.73-2.06h0l.54-1.94v0c.06-.71.14-1.42.19-2.12l.14-2.13v0c.18-1.14.31-2.29.42-3.45s.33-2.31.54-3.45v.06c0-1.13,0-2.25,0-3.37v0h0l.16-2v.11l-.3-1.37.09.17-.63-.7.13.09-.62-.29.22,0-.58.08.33-.32-.2,1-.13.51,0,.15-.07.13s0-.08,0,0l0,.22c-.09.64-.16,1.33-.23,2v0l0,2.29h0v0l-.27,3v0l0,1.5h0v0l-.23,1.58v0l0,1.29h0v.05l-.31,1.41v0l-.52,4.16h0a.2.2,0,0,1-.21.16.17.17,0,0,1-.15-.18l0-2.09v0l-.24-.67h0l-.29-1c-.11-.34-.24-.68-.36-1h0c-.09-.37-.2-.74-.27-1.11l-.22-1.11V20.78l-.28-1.56c-.08-.52-.14-1-.21-1.56h0l-.48-1.88-.12-.46a1.5,1.5,0,0,0-.07-.2,1.63,1.63,0,0,1-.08-.29c-.06-.33-.09-.65-.13-1l0,.09-.35-.62v0h0l-.27-.87v0h0l-.19-1,0,.05-.37-1,.12.15-1-.57.45-.12-.7,1.37,0,0-.41,1.42v1.43l.32,2v0l.61,2.13v0l.65,1.55h0s0,0,0,.06l.34,2.51v0l.42,1.92h0l.32,2.54c.09.85.27,1.68.42,2.52v0l.75,1.23s0,0,0,.05S265.67,30.55,265.66,30.53Z"/><path class="cls-4" d="M267.22,33.79c.17.32.32.64.48,1v0c.13,1.52.16,3,.19,4.55v0c.09.78.14,1.56.17,2.34v0c-.07,1.11-.16,2.22-.14,3.33s.06,2.22.13,3.34v0c.13.81.22,1.63.31,2.44v0h0l0,1.3v-.05c.08.52.17,1.05.24,1.58v0c0,1.33,0,2.67-.09,4s-.14,2.67-.27,4c0,0,0,0,0,0s0,0,0,0c-.13-1.33-.22-2.67-.27-4s-.1-2.67-.09-4v0c-.07-.53-.12-1.06-.18-1.59h0v0l0-1.3v0c0-.82-.09-1.64-.11-2.46v0c.07-1.12.12-2.23.13-3.34s-.08-2.22-.14-3.33v0c-.14-.78-.25-1.55-.33-2.33h0v0c0-1.52.06-3,.19-4.55v.05c-.1-.34-.2-.68-.28-1a.05.05,0,0,1,0,0Z"/><path class="cls-4" d="M268.19,61.26c-.05-.18-.08-.36-.12-.54a.07.07,0,0,1,0-.06l0,0a7,7,0,0,1,.5-.71.18.18,0,0,1,.1-.07h0a10.21,10.21,0,0,1,2-.46h.12c.23.09.45.19.69.27h0l0,0a5.62,5.62,0,0,0,.7.68h0c.23.17.48.32.73.47l0,0,0,0c.13.22.26.44.38.67a.14.14,0,0,1,0,.06v.06c0,.33,0,.67.06,1a.25.25,0,0,1,0,.12v0l-.4,1c-.15.32-.26.67-.41,1l0,.06h0a14.19,14.19,0,0,1-1.22,1.47,0,0,0,0,1-.05,0s0,0,0,0a11,11,0,0,1,.7-1.78l0,.06a8.62,8.62,0,0,1,.31-1.07,6.64,6.64,0,0,1,.46-1l0,.16c0-.33,0-.67.06-1l0,.12c-.08-.25-.14-.5-.2-.75l.06.09c-.2-.2-.39-.42-.61-.61h0a6.37,6.37,0,0,0-.71-.66l.06,0-.73-.07h.12a7.53,7.53,0,0,1-1,.37c-.34.07-.7.13-1.05.17l.15-.08c-.22.19-.43.37-.67.54l0-.11c0,.18-.07.36-.12.54a.05.05,0,0,1,0,0Z"/><path class="cls-4" d="M272.45,66l.27-.72,0,0,.9-.69h0l.74-.43,0,0c.22-.39.46-.77.66-1.17l.62-1.19v0l.35-1.17h0l.35-1.59v0l0-1.33v0l-.22-2a16,16,0,0,0-.52-1.9c-.23-.6-.47-1.26-.67-1.93l0-.08a1,1,0,0,1,0-.12l0-.12-.06-.24-.12-.47-.24-1a.25.25,0,0,1,0-.17c.11-.36.23-.73.32-1.08a5.44,5.44,0,0,1,.13-.56l.16-.56v0h0l.53-1.23v0l.76-1.38c.26-.45.47-.92.71-1.38s.48-.93.7-1.4l.61-1.44v0l.51-1.66v0l.21-1.46h0v0c.21-.87.41-1.74.64-2.61s.41-1.74.59-2.61v0l0-1.79v0c-.11-1.54-.21-3.08-.37-4.61-.07-.76-.15-1.53-.25-2.29l-.37-2.28L278.58,17c-.24-1.55-.57-3-.88-4.53h0l-.56-1.79c-.18-.6-.43-1.18-.64-1.76v0l-.43-1.45a.21.21,0,0,1,.05-.2l.45-.55a.23.23,0,0,1,.17-.08h.46a.24.24,0,0,1,.16.07h0l.34.33,0,0h0l.17.29s0,0,0,.05h0l.17.62v0h0l.22,1.46,0-.07c.32.69.61,1.38.9,2.08a.11.11,0,0,1,0,.05c.15.78.33,1.55.51,2.33a6,6,0,0,1,.12.61,2.9,2.9,0,0,1,0,.34l.05.28.18,1.14.2,1.23c0,.34.08.77.13,1.14l.05.28,0,.08a1.43,1.43,0,0,1,.05.2l.12.6.19,1.19V21l.35,1.32c.1.44.1.85.16,1.28a9,9,0,0,1,.07,1.27v1.24l.24,2.22c.1.74.23,1.47.35,2.21v3.89l-.21,1-.16-.39c.16.14.11.14.14.19l0,.07s0,.07,0,.09v.12a1,1,0,0,1,0,.19,2.17,2.17,0,0,1-.08.3,5.22,5.22,0,0,1-.18.56l-.09.24v0a.28.28,0,0,0,0-.12.3.3,0,0,0-.13-.12c-.07,0,0,0,.06,0a.32.32,0,0,1,.11.12.56.56,0,0,1,.06.19V37a3.74,3.74,0,0,1-.14.63c-.22.72-.47,1.42-.69,2.12s-.43,1.39-.63,2.11a8.16,8.16,0,0,1-.94,2.1c-.35.62-.66,1.32-1.07,2A14.46,14.46,0,0,0,277,47.74a3.79,3.79,0,0,0-.23,1,5,5,0,0,0-.1,1.07c0,.36,0,.75,0,1.09a2.5,2.5,0,0,0,.1.49,1,1,0,0,0,.16.3h0l0,0a1.12,1.12,0,0,1,.33.5,4.34,4.34,0,0,1,.16.47l.05.22,0,.09s.06.08,0,0a.2.2,0,0,0-.21,0l0,0,0,0a.26.26,0,0,1,.21,0c.07,0,.07.07.07.07v0a.41.41,0,0,1,0,.13v.35l.05,1.86c0,1.24,0,2.47,0,3.7l-.24,0,.07-.24,0-.07,0,0,0,0s0,0,0,0,.15,0,.14.08,0,.05,0,.08l0,.13-.1.48-.21,1-.42,1.91s0,0,0,0,0,0,0,0l.33-1.93.17-1,.09-.48v-.11s0-.05,0,0,.1.1.14.07l0,0h0l0,0-.06.23a.11.11,0,0,1-.14.08.11.11,0,0,1-.09-.11l-.18-3.7-.08-1.85v-.34s0-.07,0,0v0a.24.24,0,0,0,.07.07.2.2,0,0,0,.2,0h0a.22.22,0,0,1-.26,0c-.16-.13-.11-.15-.15-.2l0-.13-.06-.22a2.19,2.19,0,0,0-.15-.41,1.11,1.11,0,0,0-.09-.19s-.1-.12-.06-.1l.05,0c-.35-.18-.37-.39-.47-.59a2.4,2.4,0,0,1-.13-.59c-.05-.39-.05-.75-.07-1.13a6.06,6.06,0,0,1,.08-1.14,4.82,4.82,0,0,1,.24-1.15,15.14,15.14,0,0,1,1.08-2c.38-.61.65-1.28,1-2a7.44,7.44,0,0,0,.84-2c.18-.71.36-1.45.59-2.16s.48-1.41.68-2.1a3.61,3.61,0,0,0,.11-.46v0a.7.7,0,0,0,0,.11.28.28,0,0,0,.09.1s.12.06,0,0a.4.4,0,0,1-.15-.15.42.42,0,0,1-.06-.14v0a.51.51,0,0,1,0-.19l0-.09.1-.28a5,5,0,0,0,.16-.51,1.12,1.12,0,0,0,.06-.23.34.34,0,0,0,0-.09v0s0,0,.13.16l-.16-.39.21-1V30.62c-.12-.75-.26-1.49-.36-2.24l-.22-2.24V24.82a7.71,7.71,0,0,0-.05-1.27,12.21,12.21,0,0,0-.15-1.25l-.31-1.14h0v0L280,19.93l-.11-.57,0-.09a1.15,1.15,0,0,1-.05-.2l-.05-.32c-.06-.41-.1-.78-.13-1.23l-.17-1.13-.18-1.22,0-.31a2.5,2.5,0,0,0,0-.25c0-.19-.06-.38-.1-.57-.17-.77-.33-1.56-.46-2.35v.06c-.28-.7-.55-1.4-.85-2.09,0,0,0-.05,0-.07l-.19-1.46v0l-.16-.63,0,.06-.16-.29,0,0L277,7l.17.07h-.46L276.9,7l-.46.54,0-.2.4,1.46h0c.2.59.44,1.18.6,1.79l.53,1.81h0c.27,1.53.61,3.06.82,4.56l.74,4.56L280,23.8c.11.76.2,1.53.28,2.3.18,1.53.35,3.07.49,4.6v0h0l0,1.79v0h0c-.17.88-.32,1.77-.53,2.64s-.38,1.75-.57,2.63v0l-.2,1.46s0,0,0,0L279,41l0,0-.6,1.46c-.22.48-.47,1-.7,1.43-.45,1-1,1.85-1.5,2.77v0l-.55,1.23v0l-.16.53a5,5,0,0,0-.13.55c-.11.38-.23.74-.34,1.1v-.17l.47,2c.18.63.41,1.25.64,1.92a14.66,14.66,0,0,1,.49,2.05l.16,2h0v0l0,1.33h0v0l-.39,1.57h0l-.4,1.16h0v0l-.67,1.16c-.22.39-.48.76-.72,1.14,0,0,0,0,0,0l-.76.4h0l-.94.65,0,0-.31.7a0,0,0,0,1,0,0A0,0,0,0,1,272.45,66Z"/><path class="cls-4" d="M272.13,67.13s0,0,0,0,0-.06,0-.06l0,0h.53a.8.8,0,0,0,.53-.11,1.81,1.81,0,0,0,.64-.91l0,0,1.37-1.42v0l1.34-1.74v0l1-1.52,0,0,.76-1.88v0l.89-2.84c.32-.93.69-1.85,1-2.78v0l.71-2.78c.21-.93.48-1.89.74-2.8s.42-1.84.63-2.8a4.9,4.9,0,0,0,.13-.67v-.71a1.26,1.26,0,0,1,.23-.82.78.78,0,0,1,.89-.17.16.16,0,0,1,.09.07l.52.8h0a1.77,1.77,0,0,1,.26,1.27c-.06.41-.15.8-.24,1.19-.17.78-.4,1.55-.62,2.32-.44,1.54-.89,3.07-1.24,4.63s-.86,3.09-1.39,4.6-1.09,3-1.68,4.5h0l-.77,1.59a.22.22,0,0,1-.05.08h0l-.63.62c-.09.1-.21.21-.27.29s.05-.1,0,.07l-.08.12-.14.18c-.38.48-.76.93-1.15,1.39l0,0h0l-1.58,1.43.05-.05-.62.8L274,69c-.11.39-.21.78-.33,1.17s-.3.8-.38,1.12a9.17,9.17,0,0,0-.19,1.13L273,73.51c-.11.84-.2,1.6-.36,2.41a11.16,11.16,0,0,1-.73,2.4v0h0c-.33.49-.68,1-1,1.46-.19.24-.38.47-.58.7a5.07,5.07,0,0,1-.7.68h0l-1.43.82.08-.06-.72.74h0v0l-.72.62.11-.2-.28,1.75v0l-.06,3.45v0c.11.66.22,1.32.31,2l.23,2h0v0c0,.6-.06,1.21-.07,1.8a4,4,0,0,1-.05.92l-.11.9s0,0,0,0a0,0,0,0,1,0,0l.07-.9a4.5,4.5,0,0,0,0-.9c0-.61,0-1.21,0-1.82v0l-.32-2c-.12-.66-.26-1.31-.39-2v0h0l-.06-3.45v0h0l.22-1.75a.32.32,0,0,1,.1-.19h0l.7-.64,0,0,.7-.76.06,0h0l1.41-.85,0,0a5,5,0,0,0,.55-.57c.19-.22.37-.44.55-.67.35-.46.68-.94,1-1.42v0a10.18,10.18,0,0,0,.63-2.19c.15-.75.24-1.57.34-2.32a23,23,0,0,1,.39-2.38c.13-.45.29-.77.4-1.15s.23-.75.34-1.13h0a.27.27,0,0,1,.07-.13l.63-.79h0l0-.05,1.59-1.4,0,0,1.16-1.35.13-.16.05-.07c-.05.11.06-.12.08-.12.13-.15.23-.24.34-.35l.67-.61-.07.08.82-1.57v0c.63-1.46,1.29-2.92,1.81-4.42s1.09-3,1.51-4.53.87-3.08,1.28-4.62c.21-.78.42-1.54.58-2.32s.42-1.63,0-2.18l0,0-.55-.78.08.07a.41.41,0,0,0-.44.08.94.94,0,0,0-.1.56v.73a5.25,5.25,0,0,1-.1.75c-.18.92-.28,1.91-.53,2.86s-.5,1.84-.69,2.79-.47,1.88-.72,2.81v0c-.36.92-.73,1.83-1.07,2.75l-.92,2.8h0v0l-.82,1.86h0l0,0L277,63.1h0l-1.41,1.68h0l-1.46,1.33,0,0a2.1,2.1,0,0,1-.78,1,1,1,0,0,1-.62.09l-.29,0h-.15s-.11.05-.09,0a0,0,0,1,1,0,.07Z"/><path class="cls-4" d="M260.32,75.74c-.07,0-.13-.09-.18-.11s-.06,0,0,0,.09,0,0,0a.27.27,0,0,1-.27,0l-.08-.11a.52.52,0,0,1-.07-.12,1.38,1.38,0,0,1-.1-.22,5.53,5.53,0,0,1-.22-.77,1,1,0,0,0,0-.15s-.13-.23-.1-.33.1-.32.13-.47a2.28,2.28,0,0,0,.07-.86,3.91,3.91,0,0,0-.07-.39.94.94,0,0,1,0-.57,4.48,4.48,0,0,1,.4-.82c.16-.24.31-.46.5-.7a1.5,1.5,0,0,1,.75-.58.05.05,0,0,1,0,0v0a3,3,0,0,0-.28.79,4,4,0,0,1-.32.83c-.15.26-.33.49-.45.69s-.05.08-.07.28a2.22,2.22,0,0,1-.12.46,3.64,3.64,0,0,0-.24.85.92.92,0,0,0,0,.39s0,0,.09,0a.79.79,0,0,1,.19.22,1.88,1.88,0,0,1,.23.9v.28s0,0,0,0-.17,0-.17,0,.13,0,.22,0a.25.25,0,0,1,.13.14.53.53,0,0,1,.06.24s0,0,0,0Z"/><path class="cls-4" d="M262.11,68.94c0-.19.15-.21.23-.26l.3-.08c.19,0,.39,0,.57-.07l.28,0c.09,0,.22,0,.3,0a.91.91,0,0,1,.39.07.69.69,0,0,1,.33.33c.19.37.34.6.52,1l.46,1v0c.06.21.13.43.21.63a.09.09,0,0,1,0,0c0,.86.17,1.72.22,2.58A24.68,24.68,0,0,1,266,76.8v.09c-.11.42-.23.84-.38,1.28a2,2,0,0,0,0,.65c0,.22,0,.45,0,.68a0,0,0,0,1,0,0l0,0a6.58,6.58,0,0,1-.29-.66,2.34,2.34,0,0,1-.21-.7c0-.47.09-1,.16-1.44v.08a24.68,24.68,0,0,1,0-2.58c.05-.86.24-1.72.22-2.58v0c-.09-.21-.18-.41-.29-.61v0l-.7-.88a4.5,4.5,0,0,1-.58-1c.06-.13-.35-.14-.75-.21l-.55-.09a.78.78,0,0,0-.46,0l-.05,0h0Z"/><path class="cls-4" d="M266.2,71.54a1.78,1.78,0,0,1,.06-.9l.05-.09c.16-.29.52-.41.78-.62l0,0a2.25,2.25,0,0,0,.8-.58.16.16,0,0,1,.09,0h.11a5.27,5.27,0,0,1,.9.11h0a.38.38,0,0,1,.23.2,3.38,3.38,0,0,1,.19.64l0,.13a3.27,3.27,0,0,1-.26.62,0,0,0,0,1-.06,0l0,0a3.27,3.27,0,0,1-.26-.62l0,.13a2.84,2.84,0,0,1-.39-.54l.26.21a4.53,4.53,0,0,1-.85-.3l.2,0a2.18,2.18,0,0,0-.95.27l.05,0c-.16.3-.21.68-.48.88l.05-.08a1.74,1.74,0,0,1-.6.68,0,0,0,0,1-.06,0Z"/><path class="cls-4" d="M267.92,70.36a4.14,4.14,0,0,1,.86-.82l.1,0h.06a3.76,3.76,0,0,1,.75,0h.06l.08,0c.2.12.38.27.57.41l.06,0,0,0a2.52,2.52,0,0,0,.35.67.08.08,0,0,1,0,.06h0c0,.53.2,1.06.22,1.58v.09a10.33,10.33,0,0,1-.42,1.81l0,.08a7.88,7.88,0,0,1-.81,1,0,0,0,0,1-.06,0,0,0,0,0,1,0,0A6.12,6.12,0,0,1,270,74l0,.08a7.09,7.09,0,0,1,.13-.94c.08-.31.19-.61.29-.91v.08c0-.52.21-1,.22-1.58l0,.07a2.7,2.7,0,0,0-.48-.59l.08.07c-.23-.06-.46-.09-.68-.17l.14,0a4.7,4.7,0,0,1-.75,0l.15,0a4.14,4.14,0,0,1-1.13.35s0,0,0,0S267.91,70.36,267.92,70.36Z"/><polyline class="cls-6" points="256.27 55.43 256.77 54.8 257.36 54.3 258.06 54.3"/><polyline class="cls-6" points="258.06 55.76 257.17 55.76 256.52 56.22 256.27 56.72"/><path class="cls-4" d="M259.26,58.63l-.72-.21a.08.08,0,0,1,0,0h0l-.55-1.1s0,0,0,0v0l-.1-2.12v-.05l.25-1.73.6.26v0a.41.41,0,0,1-.12.09.31.31,0,0,1-.25,0,.38.38,0,0,1-.18-.13l0,0c0-.11,0-.1,0-.12v-.12l0-.08,0-.15.07-.28.16-.56c.11-.36.22-.75.36-1.1a14.27,14.27,0,0,1,1-2.09h0c.48-1,.95-2,1.38-3.06h0l.58-.91A.2.2,0,0,1,262,45a.22.22,0,0,1,.09.1v0l.35.94a.07.07,0,0,1,0,0v0c.07,1.55.09,3.11.13,4.66v0h0c-.09.91-.24,1.8-.33,2.71s-.24,1.81-.37,2.71l-.33-.3a.28.28,0,0,1,.23.06l.07.08a.41.41,0,0,1,0,.08.21.21,0,0,1,0,.08v.06l0,.07,0,.11-.08.2-.18.37-.16.35s0,.11,0,.14v0s0,.17,0,.22a3.69,3.69,0,0,1-.62.59l-.62.52s0,0-.05,0,0,0,0-.05l.52-.62c.15-.2.38-.45.46-.59s0,.09,0,0a.41.41,0,0,1,0-.15.64.64,0,0,1,0-.25,2.19,2.19,0,0,1,.13-.41l.12-.37,0-.19,0-.08v0h0v.05l0,.07a.27.27,0,0,0,.07.08.25.25,0,0,0,.22,0l-.33-.3.17-2.73c.05-.91.18-1.82.29-2.72v0c0-1.55.05-3.11.12-4.66v.08l-.23-1,.38.07-.67.84,0,0c-.27.5-.5,1-.75,1.5s-.47,1-.7,1.53h0a9.22,9.22,0,0,0-.86,2.08,7.81,7.81,0,0,0-.23,1.09l-.08.56,0,.28v.19h0v0s0,0,0-.09l0,0a.38.38,0,0,0-.17-.13.3.3,0,0,0-.25,0,.41.41,0,0,0-.12.09v0l.61.25-.42,1.69v0l-.11,2.12v-.06l.44,1.15,0,0,.69.29a0,0,0,0,1,0,0S259.28,58.64,259.26,58.63Z"/><path class="cls-4" d="M261,48.1a8.51,8.51,0,0,1-.25,2.72,7.63,7.63,0,0,0-.39,1.27c0,.47,0,.92.05,1.38a10.39,10.39,0,0,1,.06,1.36v.64l0-.07c0-.14-.41-.28-.52-.17a.41.41,0,0,0-.15.13c0,.06,0,.09,0,.08v0l0-.1,0-.09,0,0A.52.52,0,0,1,260,55a.42.42,0,0,1,.43.12c.06.07,0,0,0,.08a.34.34,0,0,1,0,.1,1.93,1.93,0,0,1,0,.44l0,.34a1.31,1.31,0,0,1,0,.27s0,.07,0,.12l-.15.64c0,.22-.12.45-.19.67a1.14,1.14,0,0,1-.15.34.3.3,0,0,1-.07.1s-.05.06-.11.06a.12.12,0,0,1-.1-.07.38.38,0,0,1,0-.2,0,0,0,0,1,0,0s0,0,0,0a.35.35,0,0,0,.08.11s-.1,0-.08,0v-.38l0-.67a5.78,5.78,0,0,1,0-.71.69.69,0,0,1,0-.2s0,0,0-.07v-.33a1.82,1.82,0,0,1,0-.25.23.23,0,0,0,0,.09s0,0,.05.07a.42.42,0,0,0,.42.11.43.43,0,0,0,.21-.17l0,0h0l0,.07,0,.07v0a.44.44,0,0,1-.05.09c-.05.06,0,.06-.16.14s-.51,0-.52-.17,0-.05,0-.08v-.1a.45.45,0,0,1,0-.13l.07-.69a12.56,12.56,0,0,1,.24-1.34,4.32,4.32,0,0,0,.12-1.33c0-.51,0-.94,0-1.41a7.42,7.42,0,0,1,.78-2.61,0,0,0,0,1,.06,0Z"/><path class="cls-4" d="M261.22,47.52c.22.2.26.36.17.48s-.2.1-.24.16,0,.14,0,.23a.57.57,0,0,1,.08.46.68.68,0,0,1-.46.32.07.07,0,0,1-.07,0,.7.7,0,0,1-.25-.5.6.6,0,0,1,.3-.36c.08-.06.14-.11.13-.19a1.2,1.2,0,0,0-.13-.25c0-.15.09-.27.37-.35C261.18,47.5,261.21,47.5,261.22,47.52Z"/><polyline class="cls-6" points="275.81 57.39 275.52 56.93 274.98 56.24 274.27 56.05 273.94 56.05"/><path class="cls-6" d="M275.81,55.26l-.54-.39-.58-.57s.46-.16-.42-.2l-.87-.05"/><path class="cls-4" d="M273.9,57.93c0-.4-.08-.81-.12-1.21v0a28.35,28.35,0,0,1-.74-2.92c-.21-1-.42-1.93-.56-2.92a2.44,2.44,0,0,1-.06-.39.53.53,0,0,1,0-.14s-.06-.06.12-.27c0,0,0,0,0,0a.24.24,0,0,0-.05.14s0,0,0,0,0-.1,0-.15l-.16-.72a11.36,11.36,0,0,1-.22-1.52c0-1-.75-1.75-1.27-2.6l.26,0-.4,1.23,0,0c0,.63-.07,1.26-.12,1.88v0l.05,1.71v.05l-.17,1.55A.4.4,0,0,1,270,52a.38.38,0,0,1-.34-.41h0v-.19s0,0,0-.1.79-.11.67,0a.25.25,0,0,1,0,.1.59.59,0,0,1,0,.2v.65l0,.86a3.73,3.73,0,0,1,0,.46c0,.13-.09.38-.09.38s.09.47.14.72l.08.44,0,.24s0,.06,0,.14l.25.79a8.88,8.88,0,0,0,.62,1.5l-.05,0,.65.5-.05,0,.56.21h-.09l.95-.27s0,0,.05,0a0,0,0,0,1,0,0l-.88.44a.07.07,0,0,1-.06,0h0l-.58-.12h0l0,0-.71-.41,0,0h0a6.41,6.41,0,0,1-.84-1.56l-.32-.81a1.25,1.25,0,0,1-.08-.27.48.48,0,0,0,0-.18l-.1-.4-.1-.41a2,2,0,0,1-.09-.53c0-.28.07-.3.08-.45l0-.39,0-.83v-.63s0-.12,0,0a.31.31,0,0,0,0,.09c-.12.13.64.3.67,0s0-.08,0-.1h0s0,0,0,0h0v0l-.77-.08.24-1.53v0l.05-1.71v0c.09-.62.2-1.23.3-1.85V46.4l.52-1.19h0a.15.15,0,0,1,.19-.07.18.18,0,0,1,.07,0l.78,1.28a3.44,3.44,0,0,1,.53,1.45,7.07,7.07,0,0,0,.37,1.42L273,50a1.62,1.62,0,0,1,.06.22v.09a.29.29,0,0,1-.06.15.18.18,0,0,1-.06.06c.16-.18.08-.18.11-.18a.18.18,0,0,0,0,0l.09.34c.24,1,.39,2,.54,3l.45,3v0h0c0,.4-.06.81-.11,1.21a.05.05,0,0,1-.05,0A0,0,0,0,1,273.9,57.93Z"/><path class="cls-4" d="M272.48,57.89c.11-.12,0-.33-.12-.51A1.3,1.3,0,0,0,272,57a.54.54,0,0,1-.16-.09.61.61,0,0,1-.2-.28,1.73,1.73,0,0,1-.08-.41c0-.23,0-.45-.07-.55-.29-.49,0-1.07-.18-1.42a10.36,10.36,0,0,0-.16-1.39,5.94,5.94,0,0,1-.13-1.4c0-.44-.05-.87-.07-1.32l0-.31v-.08s-.05-.13-.06-.2a3.43,3.43,0,0,1-.07-.75,6.09,6.09,0,0,1,.05-.72,1.55,1.55,0,0,1,.08-.36,1.42,1.42,0,0,1,.08-.18l.06-.07c0,.07,0,0,0,0h0s0,0,0-.06,0,0,.06,0,0,0,0,0a10.78,10.78,0,0,0,.28,1.33,5,5,0,0,0,.17.6c0,.05,0,0,.07.12a1.28,1.28,0,0,1,.07.26c0,.13,0,.25.06.37a6.26,6.26,0,0,1,0,1.43l-.16,1.34a5.09,5.09,0,0,0,0,1.35c.21.41.18.92.5,1.18.3.59.06,1.13.3,1.16a1.36,1.36,0,0,1,.36.75,1,1,0,0,1,0,.39c0,.13-.09.33-.27.33a0,0,0,0,1,0,0s0,0,0,0Z"/><path class="cls-4" d="M257.78,67.48a1.75,1.75,0,0,1-.38,0,.75.75,0,0,1-.24-.09.39.39,0,0,1-.18-.29l0-.2a.41.41,0,0,1,.16-.25.57.57,0,0,1,.19-.13,1.42,1.42,0,0,1,.27-.12l.05,0s0,0,0,0h0l0,.5v0c.08.21.12.43.18.64,0,0,0,0,0,0h-.06Z"/><line class="cls-6" x1="257.65" y1="12.26" x2="256.98" y2="12.47"/><polyline class="cls-6" points="256.27 14.01 256.77 13.85 256.98 13.43 256.98 13.1"/><polyline class="cls-6" points="256.06 15.6 256.27 15.39 256.77 15.39 256.77 14.76"/><polyline class="cls-6" points="255.77 17.93 256.27 17.68 256.77 17.18"/><polyline class="cls-6" points="255.77 19.3 256.06 19.01 256.42 18.8 256.77 18.55 256.98 18.14"/><polyline class="cls-6" points="255.77 21.05 256.06 20.72 256.42 20.43 256.77 20.18 256.98 19.85"/><polyline class="cls-6" points="255.77 23.39 256.27 23.01 256.63 22.55 256.98 21.97"/><polyline class="cls-6" points="255.77 24.89 256.06 24.14 256.63 23.6 257.31 23.05 257.65 22.68"/><polyline class="cls-6" points="255.77 26.72 256.27 26.18 256.77 25.72 257.31 25.35 257.65 24.76"/><path class="cls-6" d="M255.77,28.68l.5-.71.71-.37.33-.25"/><polyline class="cls-6" points="255.77 29.72 256.27 29.26 256.98 28.85"/><polyline class="cls-6" points="256.06 31.26 256.42 30.93 256.98 30.72 257.65 30.1"/><polyline class="cls-6" points="256.38 33.14 256.86 32.68 257.65 32.14"/><polyline class="cls-6" points="256.63 34.55 257.17 33.97 257.81 33.43"/><polyline class="cls-6" points="257.31 35.39 258.06 34.85 258.81 34.18"/><line class="cls-6" x1="257.81" y1="36.45" x2="258.81" y2="35.68"/><polyline class="cls-6" points="258.06 38.85 258.31 38.26 259.11 37.72 259.52 37.3"/><polyline class="cls-6" points="258.56 40.14 259.11 39.55 259.73 38.85"/><polyline class="cls-6" points="258.81 41.43 259.52 40.8 260.36 40.14"/><polyline class="cls-6" points="259.52 42.47 260.11 41.85 260.77 41.22"/><line class="cls-6" x1="275.69" y1="45.85" x2="274.73" y2="44.64"/><line class="cls-6" x1="276.36" y1="44.43" x2="276.15" y2="42.85"/><line class="cls-6" x1="276.9" y1="43.3" x2="276.13" y2="41.85"/><line class="cls-6" x1="277.36" y1="42.05" x2="276.73" y2="40.14"/><line class="cls-6" x1="278.15" y1="40.14" x2="277.36" y2="38.85"/><line class="cls-6" x1="278.65" y1="38.64" x2="277.75" y2="37.1"/><line class="cls-6" x1="278.9" y1="36.85" x2="278.36" y2="36.06"/><line class="cls-6" x1="279.23" y1="35.68" x2="278.65" y2="35.01"/><line class="cls-6" x1="279.44" y1="34.78" x2="278.36" y2="33.14"/><line class="cls-6" x1="279.81" y1="33.14" x2="278.63" y2="31.51"/><polyline class="cls-6" points="279.81 31.51 279.44 30.68 278.94 29.72"/><polyline class="cls-6" points="279.81 29.28 279.23 28.68 278.65 27.76"/><polyline class="cls-6" points="279.61 27.35 279.22 26.72 278.36 26.1"/><polyline class="cls-6" points="279.38 24.76 278.65 23.97 278.15 23.18"/><line class="cls-6" x1="279.23" y1="22.85" x2="278.36" y2="21.97"/><line class="cls-6" x1="278.98" y1="21.39" x2="278.36" y2="20.45"/><polyline class="cls-6" points="278.63 19.85 278.15 19.3 277.36 19.05"/><line class="cls-6" x1="278.36" y1="18.14" x2="277.36" y2="16.6"/><polyline class="cls-6" points="277.99 16.26 277.56 15.6 276.9 14.6"/><polyline class="cls-6" points="277.75 14.3 277.44 14.01 276.9 13.55"/><polyline class="cls-6" points="277.44 12.76 276.9 12.26 276.13 11.72"/><path class="cls-4" d="M384.44,103.69l-.15-6.08v0l-.44-1.41,0,.06-.68-.9.06,0-1.1-.74,0,0-1-.48h0l-3.09-1.21h0l-1.5-.41,0,0-1.75-.74h0l-1.42-.83,0,0-1.84-1.49,0,0L370,87.82a.1.1,0,0,1,0,0l-1.24-2.08,0-.07L368,83.28h0a.22.22,0,0,1,0-.08l.06-3.71v.08l-.64-1.89h0a.13.13,0,0,1,0-.06q.06-3.08.07-6.13l0,.07-1-1.5h0l-1-1.13h0l-1-.87,0,0c-.38-.76-.75-1.52-1.15-2.27l-1.25-2.22,0,0-1.26-1.36,0,0-1.41-2.73h0l-1-2.61v0a9,9,0,0,1-.79-1.74c0-.5-.54-1-.64-1.71a7.74,7.74,0,0,0-.43-1.72c-.19-.57-.4-1.14-.61-1.71l0,.06-.63-1s0,0,0,0l-1-2.1-.9-2.15s0,0,0,0l-.71-2.56c-.26-.85-.55-1.69-.81-2.54a.25.25,0,0,1,0-.12V38.23a.41.41,0,0,1,.66-.3l1,.88.07.09.75,1.26,0,0,1,2.06c.32.68.6,1.39.9,2.08l0,0,.87,1.5,0,.06.49,1.38h0v0l.59,2.51-.05-.11,1.11,1.64h0l0,0c.55,1.18,1.11,2.35,1.64,3.54l1.41,3.64,0,0,.82,1.4c.27.47.56.93.81,1.41l1.52,2.88h0L366.59,66s0,0,0,.05a0,0,0,0,1-.05,0l-1.29-1.72h0l-1.66-2.79c-.55-.93-1.13-1.84-1.7-2.77v0l-1.49-3.58c-.56-1.17-1.15-2.33-1.72-3.49l0,0L357.54,50a.41.41,0,0,1-.05-.09h0l-.66-2.5,0,0-.52-1.37,0,.06-.88-1.5v0h0c-.3-.69-.58-1.39-.9-2.07l-1-2v0l-.75-1.25.08.09-1-.87.65-.3v1.25l0-.12c.26.86.53,1.71.78,2.56l.69,2.59v0l.87,2.14,1,2.1,0,0,.62,1h0a.14.14,0,0,1,0,.06c.2.58.4,1.16.58,1.75a8.53,8.53,0,0,1,.41,1.83,2.37,2.37,0,0,0,.27.77l.2.42a1.58,1.58,0,0,1,.09.26,1.4,1.4,0,0,1,0,.25,8.61,8.61,0,0,0,.69,1.59h0v0l1,2.64v0L361.09,62l0,0,1.23,1.39,0,0,1.21,2.24c.4.75.76,1.52,1.14,2.28l0,0,1,.88h0l1,1.12v0l1,1.49a.1.1,0,0,1,0,.07q0,3.06.07,6.13v-.07l.7,1.86a.2.2,0,0,1,0,.07h0l.06,3.71,0-.09.78,2.33,0-.07,1.26,2.08,0,0L372,89.05l0,0,1.83,1.51,0,0,1.41.85,0,0,1.75.76h0l1.5.43h0c1,.41,2.05.83,3.07,1.27h0l1,.52h0l1.07.77h0l.05,0,.65.93h0a.09.09,0,0,1,0,.06l.4,1.42h0v0l-.14,6.08a0,0,0,0,1-.08,0Z"/><path class="cls-4" d="M362.78,58.49c-.37-1.09-.76-2.21-1-3.32s-.59-2.23-.85-3.35-.47-2.26-.66-3.4-.45-2.25-.66-3.39v0c.05-1.36,0-2.73.13-4.08s0-2.71-.09-4.07c-.18-2.7-.54-5.42-.49-8.13s0-5.43,0-8.15.14-5.43.31-8.14a0,0,0,0,1,0,0s0,0,0,0c.17,2.71.25,5.43.31,8.14s.07,5.43,0,8.15.08,5.41.09,8.13c0,1.36,0,2.71,0,4.07a36.87,36.87,0,0,0,.1,4.07v0c.29,1.12.59,2.24.84,3.36s.41,2.27.61,3.4.48,2.27.69,3.4l.67,3.38a.05.05,0,0,1,0,.05S362.78,58.51,362.78,58.49Z"/><path class="cls-4" d="M360.21,11.54,361,6.46v0l0-1.62a.15.15,0,0,1,0-.07h0l1.06-2.33v0L363.43.11a.23.23,0,0,1,.31-.08.23.23,0,0,1,.11.2h0l0,1.19s0,0,0,.06h0c-.2.69-.42,1.37-.58,2.06l-.53,2.08c-.36,1.38-.68,2.78-1,4.17v0l-.27,2.31v0l0,4.69v0l.24,2.24c.08.74.1,1.5.15,2.25l0,4.49v-.09l.36,1.26h0a.22.22,0,0,1,0,.08l-.12,10.5v0l.26,1.31c.09.44.15.88.23,1.32v0l0,3.88h0l.31,3.29.51,3.26h0c.51,1.83,1,3.67,1.56,5.49s1.08,3.65,1.59,5.48v0l1.27,3-.47,0,.42-2.13a.43.43,0,0,0,0,0l.86-2.07a.23.23,0,0,1,.1-.12h0c.34-.24.67-.49,1-.7l1-.64a.26.26,0,0,1,.12,0l.85-.11c.28,0,.58-.07.85-.12l1.59-.29h.06l4.44,0-.09,0,1.37-.38h0l1.37-.5-.08,0,1.06-.75-.06.05.81-.88-.06.08.81-1.5,0,.07.28-.94V52.17l0,.13-.78-2.18,0,.09-.74-1.06.06.07-.81-.69.14.07-1.19-.37-.06,0-1.31-.69-.1-.07-.93-.94a.39.39,0,0,1-.08-.1l-.53-1.06c-.17-.38-.31-.73-.45-1.12a12.11,12.11,0,0,1-.29-1.2l-.25-1.14a.62.62,0,0,1,0-.13h0L377,40l.09-1.81v0L377,36.87l-.18-1.37h0v0l0-1.71c0-.57.05-1.14.07-1.71v0l-.18-1.57h0a.28.28,0,0,1,.19-.29l.75-.25h0a.27.27,0,0,1,.27.07l.68.69h0a.34.34,0,0,1,.06.12c.2,1.05.45,2.09.72,3.13h0l.3,1.76v0l.37,1.19v0c.2,1.34.36,2.67.52,4V40.9c.21.42.45.83.66,1.26l.61,1.27,0,0,.8,1h0l.6,1h0l1.28.89s0,0,0,.06,0,0-.05,0l-1.31-.86,0,0-.64-1v0l-.83-.93,0,0L381,42.28c-.22-.42-.47-.81-.7-1.22a.14.14,0,0,1,0-.06c-.21-1.33-.38-2.66-.61-4v0l-.38-1.18v0L379,34.08v0c-.29-1-.55-2.07-.78-3.13l.07.13-.69-.68.28.07-.75.26.19-.3.2,1.56v0h0c0,.56-.06,1.13-.05,1.69l0,1.7v0l.2,1.39.14,1.4v0h0L377.74,40l-.18,1.82v-.13l.26,1.16c.09.36.16.81.26,1.09s.28.72.44,1.06l.52,1L379,46l.94.94-.1-.07,1.32.68-.07,0,1.19.37a.37.37,0,0,1,.14.07l.81.69a.46.46,0,0,1,.07.07l.75,1.06a.31.31,0,0,1,.05.1l.79,2.19a.31.31,0,0,1,0,.13v1.37a.43.43,0,0,1,0,.12l-.29.94,0,.07-.82,1.49-.06.08-.81.87-.06,0-1.07.75a.3.3,0,0,1-.08,0l-1.38.5h0l-1.38.37h-.09l-4.44,0h.07l-1.71.27c-.56.08-1.08.13-1.63.2l.12,0-1,.62c-.36.2-.68.43-1,.66l.1-.12-.89,2.05,0-.05-.46,2.12a.25.25,0,0,1-.29.2.29.29,0,0,1-.19-.15l-1.22-3v0q-.71-2.76-1.48-5.51c-.53-1.83-1-3.68-1.49-5.51v0l-.48-3.27-.32-3.3h0l-.08-3.87v0c-.14-.88-.32-1.75-.52-2.62v0h0l-.13-10.5,0,.08-.39-1.25a.19.19,0,0,1,0-.07h0l0-4.47c-.06-.74-.09-1.47-.16-2.21l-.26-2.22v0l0-4.69v0l.29-2.32a0,0,0,0,0,0,0c.36-1.39.68-2.79,1.06-4.17l.57-2.08c.17-.69.41-1.38.62-2.06V.23l.43.12-1.4,2.3v0l-1.12,2.3V4.86l0,1.62v0l-1,5a.05.05,0,0,1-.05,0S360.21,11.56,360.21,11.54Z"/><path class="cls-4" d="M385,45.6a3.6,3.6,0,0,0,.12-1.22,5.1,5.1,0,0,1,.14-1.29c.22-.87.51-1.74.77-2.61,0-.06-.17.06-.18.06s-.2.13-.22.21c-.26.87-.55,1.74-.78,2.61a5.34,5.34,0,0,0-.13,1.26,4.06,4.06,0,0,1-.12,1.25c0,.06.17,0,.18-.06s.19-.12.22-.21Z"/><path class="cls-4" d="M385.9,40.59s0-.08,0-.12.06-.06,0,0a.91.91,0,0,1,.16-.11,1.47,1.47,0,0,0,.34-.32,1.75,1.75,0,0,0,.19-.42c.07-.19.14-.38.19-.57a13.06,13.06,0,0,0,.46-2.15,32.19,32.19,0,0,0,.16-4.5c0-.38,0-.78,0-1.16a1.78,1.78,0,0,1,.08-.45,1.67,1.67,0,0,1,.08-.2l0-.05c.06-.06,0,0-.11.07l.08,0a.74.74,0,0,0,.27-.16s.15-.16.1-.15a1.22,1.22,0,0,0-.73.51,1.47,1.47,0,0,0-.21.8c0,.81,0,1.62,0,2.43a18.51,18.51,0,0,1-.52,4.92c-.05.22-.12.44-.19.65a3.45,3.45,0,0,1-.25.63c-.06.11-.25.2-.37.3s-.21.21-.18.37.21-.11.23-.12.18-.12.17-.18Z"/><path class="cls-4" d="M387.91,30.93a3.23,3.23,0,0,0,.53,1.49A4.77,4.77,0,0,1,389,34a25.28,25.28,0,0,1-.08,3.48,5.1,5.1,0,0,0,.27,1.65c.11.31.25.6.33.91a4.37,4.37,0,0,1,.15,1,7.13,7.13,0,0,1-.49,3.77c-.35.69-.76,1.36-1.14,2l-1.16,2c-.05.09.09,0,.11,0a.82.82,0,0,0,.27-.22c.68-1.21,1.37-2.41,2.06-3.62a5.46,5.46,0,0,0,.69-1.74,10.25,10.25,0,0,0,.08-1.92,5.77,5.77,0,0,0-.27-1.89c-.11-.29-.24-.58-.33-.89a4.64,4.64,0,0,1-.14-.83c-.11-1.16.15-2.32.09-3.48a4.22,4.22,0,0,0-.46-1.81,4.3,4.3,0,0,1-.7-1.77c0-.07-.15,0-.17.05s-.23.14-.23.22Z"/><path class="cls-4" d="M386.91,50.14a2.19,2.19,0,0,1,.13,1,3.3,3.3,0,0,0,.15.94,5.39,5.39,0,0,1,.27.95,3.49,3.49,0,0,1,0,1.07c0,.06.16,0,.17-.06s.22-.13.23-.21a4,4,0,0,0,0-1,5.89,5.89,0,0,0-.27-1,3.51,3.51,0,0,1-.17-1,2.24,2.24,0,0,0-.13-.93s-.44.2-.4.3Z"/><path class="cls-4" d="M387.59,54.14a2.2,2.2,0,0,0,1.11.78,6.55,6.55,0,0,1,1.36.65,14,14,0,0,0,1.44,1,11.17,11.17,0,0,0,1.56.65c.54.19,1.08.34,1.62.51l.85.26a3,3,0,0,1,.8.35c.44.29.62.83,1,1.19a15,15,0,0,1,1.25,1c.75.85.81,2.08,1.29,3.08,0,0,.44-.21.39-.3a22.08,22.08,0,0,0-1.05-2.78,4.08,4.08,0,0,0-1.16-1,2.48,2.48,0,0,1-.57-.55,7.17,7.17,0,0,0-.45-.63,2.9,2.9,0,0,0-1.46-.73l-1.66-.5a9.85,9.85,0,0,1-3.07-1.5A7,7,0,0,0,390,55a8.2,8.2,0,0,0-.76-.32,2.47,2.47,0,0,1-1.28-.85c0-.05-.44.23-.4.3Z"/><path class="cls-4" d="M387.45,103.69a9.07,9.07,0,0,1-.19-1.79c0-.6.12-1.2.14-1.79h0a4.39,4.39,0,0,0,0-.81,2.44,2.44,0,0,0-.05-.39.64.64,0,0,0,0-.07s0,0,0,0a.48.48,0,0,1-.06-.11,1.14,1.14,0,0,1-.05-.24,10.27,10.27,0,0,1,0-1.66v0c0-.53.05-1.06.1-1.59v0c.14-.28.28-.56.45-.83a0,0,0,0,1,0,0s0,0,0,0a9.32,9.32,0,0,1-.17.92v-.06c.05.53.09,1.06.1,1.59v0c0,.53-.1,1.08-.12,1.6v.16s0,0,0,0a.45.45,0,0,1,.05.1.72.72,0,0,1,0,.13,2.9,2.9,0,0,1,0,.43c0,.28-.06.55-.08.82h0c0,.59.17,1.19.14,1.79a9.09,9.09,0,0,1-.2,1.79s0,0,0,0S387.46,103.7,387.45,103.69Z"/><path class="cls-4" d="M389.54,94.2l.81-.62h0l.73-.4h0l1.28-.54h0l1.77-1c.59-.31,1.14-.72,1.71-1.08l0,0,1.15-1.18,0,0c.68-.91,1.37-1.8,2-2.72.15-.23.32-.47.44-.68s0,.11,0-.13l.08-.22.15-.41.66-1.58,0,0,.39-1.33v0l.24-1.58v0l0-1.29v0a.29.29,0,0,1,0-.09l.4-.82,0,.09.05-2.16h0c.1-1,.17-2,.25-3h0c0-1,0-2.06,0-3.09v0l.28-1.5v0l.41-.92s0,0,0,0l.57-.6a.16.16,0,0,1,.11,0h.71l-.14.06,1.18-1.52v0l.76-1.27h0l1.16-1.6a2.32,2.32,0,0,0,.22-.35l.21-.46.44-.92v0l1.13-2.79,0,.08,1.09-6.76v0c.17-1.94.33-3.87.53-5.8v0l.09-5.71h0l.34-3.24h0l.07-1.88v.06l-.46-.93.11,0c-.33.17-.66.35-1,.54,0,0,0,0-.05,0s0,0,0,0c.3-.22.62-.42.94-.62a.08.08,0,0,1,.1,0h0l.53.9a.07.07,0,0,1,0,.05h0l.06,1.88h0L411,40.46v0l.1,5.71v0h0l-.47,5.8v0h0c-.33,2.26-.76,4.51-1.16,6.75h0a.14.14,0,0,1,0,.07l-1.2,2.76h0v0l-.45.85-.23.43a2.62,2.62,0,0,1-.3.49L406,65h0l-.82,1.23h0l-1.24,1.48h0a.16.16,0,0,1-.13.06h-.71l.12,0-.6.57,0,0-.43.91v0l-.3,1.5v0c0,1,0,2.06,0,3.09h0c-.06,1-.13,2-.17,3h0l.06,2.16a.19.19,0,0,1,0,.08v0l-.36.84,0-.1,0,1.29v0h0l-.18,1.59v0h0l-.37,1.33v0h0l-.62,1.57-.32.84c-.17.28-.33.5-.5.73-.67.93-1.38,1.81-2.08,2.7h0l0,0L396.17,91h0l0,0c-.59.34-1.16.72-1.78,1l-1.82.91h0l-1.31.44h0l-.77.34h0l-.86.54a0,0,0,0,1-.05,0A0,0,0,0,1,389.54,94.2Z"/><path class="cls-4" d="M409.39,33.8c-.18,1.86-.27,3.74-.4,5.61s-.37,3.73-.52,5.6-.36,3.73-.65,5.6l-.23,1.4-.31,1.37c-.22.91-.37,1.83-.57,2.75h0v0L406.06,58c-.11.3-.18.61-.28.91l-.27.92h0c-.31.83-.65,1.63-.92,2.47l-.2.62c0,.11,0,.16-.09.32l-.11.32-.47,1.24a.21.21,0,0,1-.26.12.21.21,0,0,1-.13-.21c.16-1.23.41-2.45.6-3.67h0l.6-2.24c.2-.75.46-1.48.68-2.22v0l.38-2.22c.13-.74.09-1.51.15-2.27.08-1.51,0-3,0-4.54v0c-.19-1.7-.39-3.4-.45-5.12s-.16-3.42-.34-5.11l-.12-1.27-.19-1.26-.18-1.25-.28-1.26c-.42-1.65-.6-3.37-.88-5.06v.05l-1-3.76a.34.34,0,0,1,0-.1V21.75c-.21-1.26-.37-2.52-.64-3.76-.13-.62-.22-1.25-.39-1.86l-.45-1.86,0,.05-.91-2.12c-.28-.72-.53-1.45-.79-2.17v0c-.22-.88-.41-1.76-.59-2.65l0,0-.45-1h0a.29.29,0,0,1,0-.09l0-1.29v.06l-.28-1v0L397,2.29v0l-.72-1.06,0,0L394.83.49l.07-.07.24.55s0,0,0,.05l-.05,0-.26-.54a0,0,0,0,1,0-.07s0,0,.05,0l1.56.71,0,0h0l.78,1v0h0L398.18,4V4h0l.31,1V5h0l0,1.29,0-.08.47,1a.08.08,0,0,1,0,0c.2.87.41,1.74.66,2.6v0c.28.71.55,1.42.84,2.13l1,2.08,0,0h0L402,16c.18.62.3,1.25.43,1.88.29,1.26.45,2.53.67,3.79v1.81l0-.1,1.05,3.74a.11.11,0,0,1,0,.05c.27,1.69.43,3.38.82,5.05l.26,1.26.18,1.28.18,1.29c0,.42.06.85.09,1.28.14,1.72.14,3.44.21,5.14s.17,3.41.32,5.12v0l-.07,2.27c0,.76-.07,1.51-.11,2.27a21.48,21.48,0,0,1-.17,2.26l-.41,2.26h0c-.22.74-.47,1.47-.66,2.22l-.56,2.24h0c-.19,1.22-.36,2.44-.48,3.67l-.38-.1.43-1.24.09-.31s0-.22.07-.32l.18-.64c.25-.85.57-1.68.85-2.52v0c.17-.62.32-1.25.52-1.86l.62-1.83v0c.18-.92.32-1.85.54-2.76l.33-1.36.24-1.38c.31-1.83.53-3.69.72-5.55s.45-3.72.71-5.58.42-3.72.7-5.58c0,0,0,0,0,0S409.39,33.78,409.39,33.8Z"/><path class="cls-4" d="M393.59,56.21l.7.85h0l1.08,1h0l.69.53,0,0c.78.27,1.55.56,2.34.8l-.07,0,2.29,0a.19.19,0,0,1,.13,0h0l.55.32a.18.18,0,0,1,.1.11h0l.33.67v0l.34.8c.12.29.19.55.28.84l.07.22s0,.12,0,.18v1.4l-.63-.06.36-1.88v0a15.73,15.73,0,0,1,.27-2.61c.15-.82.21-1.7.36-2.56s.29-1.7.44-2.56.25-1.7.37-2.56v0l0-2a19.85,19.85,0,0,0-.05-2c-.06-1.36-.2-2.72-.32-4.07h0l-.36-1.92v0l0-1.9v0c-.16-1.32-.31-2.65-.49-4v0h0l0-1.37v.05l-.32-1.62h0c-.22-1.73-.4-3.45-.75-5.14s-.73-3.37-1.2-5.05-.75-3.41-1.08-5.11-.79-3.36-1.39-5v0c-.19-.71-.33-1.43-.55-2.14a20,20,0,0,1-.53-2.16c-.32-1.45-.61-2.9-.86-4.36v0c-.22-.68-.44-1.36-.68-2l0,0-.45-.22a0,0,0,0,1,0-.07l.46.2a0,0,0,0,1,0,0c.29.65.55,1.31.82,2h0c.35,1.43.69,2.87,1.08,4.29.17.72.38,1.42.62,2.12s.4,1.43.61,2.14v0a25.24,25.24,0,0,1,.83,2.5c.24.84.49,1.68.69,2.53.34,1.72.7,3.41,1.11,5.09A48.48,48.48,0,0,1,402,27.54a48.24,48.24,0,0,1,.64,5.2v0l.26,1.63h0v0l0,1.37v0c.13,1.33.25,2.66.35,4h0l0,1.9v0l.31,1.92h0l.29,4.09a17.48,17.48,0,0,1,.09,2l0,2v0h0c-.09.86-.14,1.73-.26,2.59s-.25,1.72-.33,2.57-.17,1.71-.31,2.6a18.71,18.71,0,0,0-.24,2.53v.05L402.42,64h0a.31.31,0,0,1-.62-.07V62.5s0,0,0,0l-.05-.19c-.08-.27-.16-.56-.25-.8l-.32-.8v0l-.33-.67.11.12-.54-.35.14,0-2.29,0h0l-.06,0c-.78-.28-1.56-.58-2.32-.91h0l0,0-.64-.58h0l-1-1.08h0l-.64-.9a0,0,0,0,1,0,0S393.58,56.19,393.59,56.21Z"/><path class="cls-4" d="M401.4,62.73a2.28,2.28,0,0,1-.6.6l.05-.1a.35.35,0,1,1-.24,0,.1.1,0,0,1,0-.09h0A2.14,2.14,0,0,1,401.4,62.73Z"/><path class="cls-4" d="M362.86,47.65A9.52,9.52,0,0,1,364,45.53l0,0a12.64,12.64,0,0,1,.91-1.42l0,0a7.67,7.67,0,0,0,1.31-1.68l-.05.16a10.78,10.78,0,0,1-.12-1.25.33.33,0,0,1,.11-.25l0,0c.28-.26.55-.53.84-.78l-.08.1a17.36,17.36,0,0,1,1.12-1.58l0,.15a12.69,12.69,0,0,1,.25-1.37s0,0,0,0a0,0,0,0,1,0,0,12.69,12.69,0,0,1,.25,1.37.15.15,0,0,1,0,.09l0,.06a14.61,14.61,0,0,1-.92,1.7.34.34,0,0,1-.08.09c-.29.25-.6.47-.9.71l.12-.27c0,.41-.05.83-.11,1.25v.07a.22.22,0,0,1-.05.08,7.93,7.93,0,0,0-1.44,1.57l0,0a10.8,10.8,0,0,1-.59,1.59h0l0,0a9.53,9.53,0,0,1-1.66,1.76s0,0-.06,0A0,0,0,0,1,362.86,47.65Z"/><path class="cls-4" d="M362.78,45.72a4.94,4.94,0,0,1,.3-1.16,3.51,3.51,0,0,1,.54-1,2.8,2.8,0,0,0,.31-.48c.11-.2.22-.35.3-.53a9.63,9.63,0,0,0,.46-1.09l0,.06c.06-.33.16-.64.25-1a6,6,0,0,1,.33-.93l0,0,0,0a7.1,7.1,0,0,1,1.24-1.34,0,0,0,0,1,.06,0s0,0,0,0a7.05,7.05,0,0,1-.66,1.71l0-.08a6.08,6.08,0,0,1-.34.93c-.14.3-.26.6-.42.89l0,.06a5.71,5.71,0,0,0-.74.9,1.61,1.61,0,0,0-.22.51,3.12,3.12,0,0,1-.11.61,3.2,3.2,0,0,1-.49,1.06,4.14,4.14,0,0,1-.77.91s-.05,0-.06,0A0,0,0,0,1,362.78,45.72Z"/><path class="cls-4" d="M368.37,16l.68,1.85v0h0c0,1.08.07,2.16.09,3.25h0l-.25,2.39v0l0,2.25v0h0l-.27,3.13v0c0,1.35,0,2.7,0,4.06s-.06,2.71-.08,4.06l-.07-.16.59.64-.25-.05,1.27-.59-.07.06,1-1.38,0,.08c0-1.28,0-2.57,0-3.86l0-3.86v0l-.61-2.83L370,22.2v0l-.52-1.68a.15.15,0,0,1,0-.07h0l0-2v.06l-.73-3.8.68.11-1.23,2.2,0-.05c-.2.56-.46,1.11-.63,1.67L367,20.39c-.18.57-.42,1.13-.57,1.7s-.29,1.14-.43,1.72V25.2a.17.17,0,0,1,0,.07c-.11.58-.23,1.16-.39,1.73v-.08c0,2.62-.08,5.25-.16,7.87h0v0l-.12.78v-.06l.19.81h0l.22.57-.08-.06.45.11h0l.5,0h0l.44-.07h0l.51-.14s0,0,0,0,0,0,0,0L367,37h0l-.43.11h0l-.5,0h0l-.45-.07a.12.12,0,0,1-.08-.06h0l-.25-.55h0l-.25-.79s0,0,0-.05h0l.07-.8v0c-.08-2.62-.13-5.25-.16-7.87a.19.19,0,0,1,0-.08q.19-.84.33-1.71v-1.4s0-.06,0-.08c.14-.59.24-1.19.43-1.78s.39-1.15.57-1.73l.55-1.73c.17-.58.44-1.13.66-1.7l0-.05,1.27-2.17h0a.37.37,0,0,1,.5-.13.36.36,0,0,1,.17.25l.66,3.82h0v.05l0,2V20.4l.46,1.7h0v0l.33,2.86.49,2.84a0,0,0,0,1,0,0l0,3.86c0,1.29,0,2.58,0,3.86a.24.24,0,0,1,0,.09l-1,1.42a.12.12,0,0,1-.05,0h0L369,37.8a.2.2,0,0,1-.24,0h0l-.62-.61a.25.25,0,0,1-.06-.16h0c0-1.35-.08-2.71-.08-4.06s0-2.71,0-4.06h0v0l.33-3.13v0l0-2.25h0v0l.35-2.37v0c0-1.09.06-2.17.1-3.25v0L368.3,16s0,0,0,0A0,0,0,0,1,368.37,16Z"/><path class="cls-4" d="M367.81,19.5c0,.15-.09.3-.14.44v0a6,6,0,0,1-.07.74v0l.07.68v.05c0,.31-.06.61-.11.92V22.2a11.06,11.06,0,0,1,0,1.63c0,.55-.14,1.09-.14,1.63v.94s-.05.16,0,.11v.18c0,.14,0,.27,0,.41l.17,1.62h0v.05c0,.57-.09,1.14-.14,1.71v-.05a27.24,27.24,0,0,1-.18,4.33v-.07c0,.16.09.32.13.49h0c0,.21.07.41.09.62a.05.05,0,0,1,0,0,.05.05,0,0,1,0,0c-.1-.19-.19-.38-.28-.57h0a3.75,3.75,0,0,1-.24-.44,0,0,0,0,1,0,0v-.05a27.24,27.24,0,0,1-.18-4.33v-.05c.1-.56.18-1.13.3-1.69v0c0-.55.08-1.09.11-1.64l0-.41a2,2,0,0,1,0-.23c0-.11,0,0,0-.09v-.09a7.36,7.36,0,0,0,0-.81,20,20,0,0,1-.21-3.27v-.05c.06-.31.13-.6.2-.9v0l.06-.68v0h0a6.52,6.52,0,0,1,.25-.7v0l.29-.37a0,0,0,0,1,.05,0S367.82,19.49,367.81,19.5Z"/><path class="cls-4" d="M369.6,25.32a3.61,3.61,0,0,1,.27,1.38,9.34,9.34,0,0,1-.05,1.29v0a8.28,8.28,0,0,0-.16.84,3.94,3.94,0,0,0,0,.84,5,5,0,0,1,.16,1.74c0,.53,0,1.09-.09,1.64s-.17,1.12-.23,1.68c0,0,0,0,0,0l0,0a4.36,4.36,0,0,1-.41-1.69,6,6,0,0,1,.08-1.74,14,14,0,0,0,.25-1.63,5.4,5.4,0,0,0-.07-1.7v0a3,3,0,0,1-.05-1.39c.07-.42.15-.86.26-1.31,0,0,0,0,.05,0Z"/><path class="cls-4" d="M403.21,45.76a7.8,7.8,0,0,1-1.28-.68l0,0,0,0a8.35,8.35,0,0,1-1-1.69v0a7.8,7.8,0,0,0-.91-2v0c-.43-.46-.89-.89-1.28-1.38s-.85-.91-1.22-1.42l0,0h0a14.23,14.23,0,0,1-1.11-2.59s0,0,0,0,0,0,0,0A13.91,13.91,0,0,1,398.06,38l0-.05a13.84,13.84,0,0,1,1.16,1.49c.37.52.66,1.09,1,1.63v0a7.5,7.5,0,0,0,1.11,1.94v0a7.83,7.83,0,0,1,1,1.67l-.06-.08a8.38,8.38,0,0,1,1,1.08,0,0,0,0,1,0,0A0,0,0,0,1,403.21,45.76Z"/><path class="cls-4" d="M396,36.38c-.1.19-.21.35-.32.52a.08.08,0,0,1-.06,0h-.07c-.23,0-.47.08-.71.11a.23.23,0,0,1-.11,0l0,0c-.22-.12-.44-.24-.65-.38l-.07-.06,0,0a5.14,5.14,0,0,1-.61-.95l0-.08a.17.17,0,0,1,0-.07,9.44,9.44,0,0,0,.14-1.05v0a8.46,8.46,0,0,0-.8-1.59v0l0-.08c-.06-.44-.08-.87-.1-1.31v.09a11,11,0,0,1-.35-1.4V30a13.68,13.68,0,0,1,.18-1.68l0,.08c-.08-.25-.13-.51-.19-.77a.05.05,0,0,1,0-.05l0,0a5.82,5.82,0,0,1,.48.63v.09A13.71,13.71,0,0,1,393,30V30a11.29,11.29,0,0,1,.31,1.4v0s0,0,0,0c0,.44,0,.87-.1,1.31l0-.1a8.62,8.62,0,0,0,.53,1.7s0,0,0,0h0c0,.35.09.7.14,1.05l-.05-.15a4.51,4.51,0,0,1,.72.86l-.08-.08c.21.15.4.3.6.46l-.16,0,.71.1-.13.06c.18-.11.34-.23.52-.32a0,0,0,0,1,.06,0Z"/><path class="cls-4" d="M394.44,33.7c-.19-.53-.35-1.06-.49-1.6a15,15,0,0,1-.34-1.62v.06c-.12-.33-.26-.65-.37-1l.07.12a14.71,14.71,0,0,1-.95-1.14l0,0a.13.13,0,0,1,0-.1c-.07-.62-.11-1.24-.2-1.85v0a31.27,31.27,0,0,0-1.57-3.18v-.07c-.29-1.31-.58-2.62-.77-3.94s-.32-2.65-.4-4v0c-.1-.43-.19-.87-.27-1.3a.05.05,0,0,1,0,0,.05.05,0,0,1,0,0c.2.4.39.8.56,1.21v0c.34,1.3.6,2.61.82,3.93s.38,2.64.52,4l0-.07a29.35,29.35,0,0,0,1.27,3.31v0h0c.13.61.31,1.21.47,1.81l-.07-.13a14.75,14.75,0,0,1,1.06,1,.47.47,0,0,1,.07.12c.12.32.23.66.34,1v0a.43.43,0,0,1,0,.05L394.4,32c.06.54.1,1.1.12,1.65a0,0,0,0,1,0,0A.05.05,0,0,1,394.44,33.7Z"/><path class="cls-4" d="M389.89,15.1c.06-.55.13-1.09.22-1.62a.2.2,0,0,1,.23-.16.18.18,0,0,1,.14.09l0,0c.28.51.57,1,.84,1.54,0,0,0,0,0,0v0a29.86,29.86,0,0,1,.55,3.09c.11,1,.22,2.08.43,3.11h0c.26.81.57,1.62.9,2.41s.68,1.58,1,2.37v0l1,2,0,0h0c.23.78.43,1.55.62,2.33v0a.17.17,0,0,1,0,.07c-.07,1.72-.13,3.44-.34,5.15a.05.05,0,0,1,0,0,0,0,0,0,1,0,0c-.21-1.71-.28-3.43-.34-5.15v.1c-.23-.77-.44-1.54-.64-2.32l0,.06-.88-2h0v0c-.26-.82-.51-1.64-.74-2.47s-.46-1.66-.74-2.47h0c-.21-1-.54-2-.78-3.05s-.42-2.05-.58-3.09l0,.08c-.24-.54-.44-1.09-.66-1.63l.38,0c-.16.52-.35,1-.55,1.55,0,0,0,0,0,0A.05.05,0,0,1,389.89,15.1Z"/><path class="cls-4" d="M395.67,34.6c.33.24.61.51.94.73l0,0a2.81,2.81,0,0,1,.39.19l-.16,0,.22-.1-.14.22c0-.22,0-.47,0-.63a4.73,4.73,0,0,1,0-.52l0-1.14,0,.11a.93.93,0,0,1-.06-.43c.1-.38,0,0,.05-.19a3.9,3.9,0,0,0-.13-.48v0c-.16-.39-.33-.79-.46-1.2l-.09-.33a2.08,2.08,0,0,1,0-.23l0-.15-.07-.58v0l-.2-.73v0a0,0,0,0,1,0,0c0-.32,0-.63.05-.94v0a19.31,19.31,0,0,0-.72-2.23h0v0l-.2-.86v0l-.26-.85-.07-.21,0-.11s0-.06,0,0v0l-.18-.37a3.3,3.3,0,0,1-.35-.81c-.07-.24-.17-.51-.27-.76v0l-.37-.7v0h0c-.18-.44-.38-.88-.52-1.34l-.45-1.35h0v0l-.19-.86v0l-.3-1c-.12-.34-.26-.68-.37-1l0,.06-.65-1v0c-.21-.44-.42-.88-.61-1.32a0,0,0,0,1,0,0,0,0,0,0,1,.05,0c.29.39.57.78.85,1.18v0l.77.87v0l0,0c.17.32.32.66.48,1l.4,1h0v0l.23.85v0c.35.89.61,1.8.94,2.69v0l.33.72h0v0c.09.28.18.53.26.83a2.55,2.55,0,0,0,.24.74l.16.4,0,.08,0,.13,0,.09,0,.19.15.78v0l.1.88v0c.09.38.22.76.33,1.13s.21.76.33,1.13v0h0c0,.31,0,.62,0,.94v-.06l.29.69h0v0l.17.66,0,.17c0,.09,0,0,0,.07l.12.27.51,1.14v0a2.82,2.82,0,0,1,.14.62.69.69,0,0,1,0,.27.37.37,0,0,1-.08.15l0,0a.16.16,0,0,0,0,0s0,.09,0,.13v0a.31.31,0,0,1,0,.08l0,1.14c0,.21,0,.41,0,.61l0,.51v0a.2.2,0,0,1-.13.18l-.24.07h0a.16.16,0,0,1-.15,0c-.12-.08-.24-.16-.35-.25h0a9.74,9.74,0,0,1-.77-.93,0,0,0,0,1,0,0Z"/><path class="cls-4" d="M394.22,25a.79.79,0,0,1,.39.24.52.52,0,0,1,.16.35,1,1,0,0,0,0,.42.61.61,0,0,0,.24.32v0a.77.77,0,0,1,.17.3,1.31,1.31,0,0,1,.1.32V27a1.27,1.27,0,0,1-.37.75,0,0,0,0,1-.07,0h0a1.27,1.27,0,0,1-.37-.75v.07a1.22,1.22,0,0,1,0-.33.91.91,0,0,1,.07-.35v.05a.64.64,0,0,0,0-.39c-.05-.12-.2-.19-.3-.29a.44.44,0,0,1-.14-.34.83.83,0,0,1,.08-.44A.05.05,0,0,1,394.22,25Z"/><path class="cls-5" d="M396.1,15.54l.57.36.6.46a5.6,5.6,0,0,0,.48.45l.65.44.45.38.44.29.63.39"/><path class="cls-5" d="M397,16.36l.16.77a3,3,0,0,1,.42.64,1.52,1.52,0,0,0,.31.67c.13.1.67.76.71.81l.52.52"/><path class="cls-5" d="M397,19.11h.54s.44.14.49.23.3.33.36.43.44.5.44.5l.29.44.5.42.48.27h.29"/><path class="cls-5" d="M397.65,20.61a5.38,5.38,0,0,0,.6.58l.6.56.44.48.5.5.25.36.54.5.24.17"/><path class="cls-5" d="M398.44,22.29s.62.46.66.52.48.46.48.46l.5.49.38.37.21.42.31.6.23.26"/><polyline class="cls-5" points="399.23 24 399.63 24.21 399.92 24.44 400.25 24.82 400.38 25.23 400.56 25.67 400.82 25.86 400.96 26.14 401.1 26.48 401.33 26.67"/><polyline class="cls-5" points="399.23 25.69 399.69 26.14 400.04 26.57 400.28 26.94 400.54 27.36 400.82 27.65 400.96 28.13 401.21 28.46 401.6 28.67 401.77 28.67"/><path class="cls-4" d="M399.71,27.15a1.07,1.07,0,0,1,.64.14l0,0a.67.67,0,0,1,.17.2,1.84,1.84,0,0,1,.09.28l0,0a.51.51,0,0,0,.12.35h0c.13.19.37.29.51.48a1.25,1.25,0,0,1,.36.59l-.13-.14a1.72,1.72,0,0,1,.41.63s0,.06,0,.06h0a1.48,1.48,0,0,1-.77-.08h0l-.13-.14a1.93,1.93,0,0,1-.3-.59c-.09-.19,0-.51-.12-.72h0a.61.61,0,0,0-.26-.27l0,0c-.09,0-.19-.07-.26-.11a.68.68,0,0,1-.18-.2l0,0a1.13,1.13,0,0,1-.28-.59.06.06,0,0,1,0-.06Z"/><path class="cls-5" d="M399.94,29.25h.31l.25.27.46.57.25.45.27.52s.1,0,.21.11.41.48.41.48l.16.22"/><path class="cls-5" d="M400.25,31.75l.25.46.3.25.1.29.2.21.23.25a3.75,3.75,0,0,1,0,.48c0,.1.23.31.29.33s.3.38.3.38l.34.16.16.13.23.08"/><path class="cls-5" d="M400.8,33.9h.3l.23.71.44.43s.23.56.23.54.26.44.26.44"/><path class="cls-5" d="M401.45,35.67a3.36,3.36,0,0,1,.32.6,2.13,2.13,0,0,0,.23.5s.22.5.26.57.14.37.14.37l.25.17.24.12"/><polyline class="cls-5" points="401.21 38.4 401.64 38.88 402.17 39.4 402.52 39.98"/><path class="cls-4" d="M397.17,34.5a8.79,8.79,0,0,1,.74.6l0,0a6.15,6.15,0,0,1,.46.58c.15.2.37.39.53.61.34.44.56.93.87,1.37v0h0l.3.59a1.78,1.78,0,0,0,.35.51l.44.48a3.82,3.82,0,0,1,.45.5l.37.52.09.11.12.17c.05.1.12.18.17.28a4.39,4.39,0,0,1,.52,1.32l0-.07c.07.24.15.48.2.73l-.08-.12.31.39.05.05a.11.11,0,0,1,0,0c0,.05,0,.12,0,.16s0,.07,0,.1.21.2.3.3a0,0,0,0,1,0,.06h0a2.86,2.86,0,0,1-.35-.12.47.47,0,0,1-.24-.19l-.11-.21.06.1-.42-.27a.18.18,0,0,1-.05-.07l0,0c-.09-.22-.21-.43-.32-.64l0-.08a10.13,10.13,0,0,0-.52-1.05,2.59,2.59,0,0,1-.14-.29s-.07-.12-.05-.1a.54.54,0,0,1-.1-.16l-.32-.57c-.06-.15-.23-.34-.32-.55l-.3-.58a3.76,3.76,0,0,1-.27-.62,3.41,3.41,0,0,0-.32-.55l0,0c-.38-.38-.82-.72-1.17-1.1a6.38,6.38,0,0,1-.49-.62c-.14-.25-.28-.51-.4-.77l0,0a6.2,6.2,0,0,1-.44-.85s0,0,0,0Z"/><path class="cls-5" d="M394.15,50.13l1-.61.43-.41a2.78,2.78,0,0,0,.59-.39,8.18,8.18,0,0,1,.73-.72c.06-.06.56-.41.62-.46s.65-.29.71-.35a1.87,1.87,0,0,1,.44-.27c.14-.06.45-.23.45-.23a1.26,1.26,0,0,1,.3-.13c.06,0,.27,0,.35,0s.15-.16.29-.27a2.31,2.31,0,0,1,.38-.27c.16-.08.62-.2.62-.29s.23-.25.23-.25"/><path class="cls-5" d="M395.37,50c.07-.15.3-.51.34-.57s.56-.42.6-.5a8.65,8.65,0,0,1,.83-.61l.84-.64s.79-.48.85-.5l.79-.33.3-.13"/><path class="cls-5" d="M395.77,51.06c.1-.06.54-.12.54-.18a1.47,1.47,0,0,1,.19-.34s.19-.31.23-.41a3.1,3.1,0,0,1,.54-.48s.65-.48.69-.54.48-.63.48-.63l.41-.5.4-.56.52-.36.29-.25.52-.35.48-.33a1.64,1.64,0,0,1,.34-.27c.1,0,.6-.21.6-.21l.48-.17"/><path class="cls-5" d="M396.4,52.19l.43-.54.5-.59a7.92,7.92,0,0,0,.59-.58,5.71,5.71,0,0,1,.54-.49l.66-.59.65-.56.48-.49.48-.55.33-.4.42-.4.46-.29.33-.27"/><path class="cls-5" d="M397.14,53.31l.51-.68.58-.68.54-.68.35-.46.44-.22h.36v-.46s0-.4.14-.48l.38-.42.29-.27v-.35c0-.07.12-.17.14-.34a1.29,1.29,0,0,1,.28-.6,2.36,2.36,0,0,0,.45-.44,2.58,2.58,0,0,1,.4-.31l.35-.21"/><polyline class="cls-5" points="399.13 53.31 399.33 52.9 399.6 52.36 399.92 51.95 400.28 51.42 400.73 50.84 401.19 50.4 401.73 49.88 402.1 49.46 402.58 49.19"/><polyline class="cls-5" points="398.67 54.98 399.13 54.25 399.54 53.54 399.92 52.9 400.42 52.19 400.73 51.46 401.29 50.75 401.64 50.21 402.27 49.59 402.48 49.31"/><path class="cls-5" d="M361.33,17.06a3.56,3.56,0,0,0,.25-.7l.42-.57"/><polyline class="cls-5" points="361.67 20.36 362 19.63 362.56 19.11 363.08 18.5 363.71 17.96"/><polyline class="cls-5" points="361.67 21.65 362.13 21.19 362.5 20.61 362.89 20.09 363.27 19.77 363.71 19.34"/><polyline class="cls-5" points="361.67 22.94 362 22.5 362.39 22 362.69 21.54 363.21 21.11"/><polyline class="cls-5" points="361.67 24.34 362 23.85 362.27 23.36 362.58 23.09 362.89 22.94 363.21 22.82"/><polyline class="cls-5" points="361.67 25.9 362.19 25.9 362.44 25.41 362.89 24.96 363.39 24.71"/><polyline class="cls-5" points="362.14 27.38 362.33 26.67 362.69 26.21 363.21 25.79 363.88 25.34"/><polyline class="cls-5" points="362.44 28.82 362.69 28.17 363.01 27.75 363.71 27.38"/><polyline class="cls-5" points="362.14 31 362.44 30.43 362.89 29.79 363.58 29.25"/><polyline class="cls-5" points="362.53 31.87 363.01 31.36 363.39 30.79"/><polyline class="cls-5" points="362.14 34.86 362.69 34.02 363.21 33.38 363.58 33"/><path class="cls-5" d="M362,36.77c-.06,0,.53-.75.53-.75l.68-.64"/><path class="cls-5" d="M362.44,37.61l.64-.61"/><polyline class="cls-5" points="363.02 47.67 363.73 47.9 364.21 48.11 364.96 48.46 365.71 48.86 366.39 49.19 366.98 49.65 367.44 50.01 367.89 50.52 368.13 50.75"/><path class="cls-5" d="M363.1,49.09l1,.22.61.21.92.49s.74.74.76.74.84.69.84.69.5.56.56.6.48.52.48.52"/><path class="cls-5" d="M364.9,50.83l.71.23.64.57a9.35,9.35,0,0,1,.69.64,8.07,8.07,0,0,0,.62.65l.77.73.54.34"/><path class="cls-5" d="M363.81,52.29l.73.12a4.16,4.16,0,0,1,.46.47,4.37,4.37,0,0,0,.68.68,10,10,0,0,1,.69.78,2.15,2.15,0,0,1,.42.22,5.92,5.92,0,0,0,.75.42"/><polyline class="cls-5" points="364.21 53.78 364.77 53.99 365.33 54.36 366.13 54.65"/><text class="cls-7" transform="translate(181.99 112.72)">f<tspan class="cls-8" x="2.71" y="0">r</tspan><tspan x="6.17" y="0">om 26947</tspan></text><text class="cls-7" transform="translate(364.61 112.72)">f<tspan class="cls-8" x="2.71" y="0">r</tspan><tspan x="6.17" y="0">om 14591</tspan></text><text class="cls-7" transform="translate(142.34 158.36)">Adenosacme longi<tspan class="cls-9" x="73.76" y="0">f</tspan><tspan x="76.37" y="0">olia, </tspan><tspan class="cls-10" x="95.96" y="0">W</tspan><tspan x="104.7" y="0">all. C</tspan><tspan class="cls-9" x="126.38" y="0">a</tspan><tspan x="130.97" y="0">t.6280</tspan></text><text class="cls-7" transform="translate(21.13 112.72)">f<tspan class="cls-8" x="2.71" y="0">r</tspan><tspan x="6.17" y="0">om 9134</tspan></text><path class="cls-11" d="M439.58,112.72c-.21,5.09-8.82,9.19-15.86,11.09-26.18,7.07-56.2,6.06-83.68,1.51a146.67,146.67,0,0,0-25.69-2c-19.68.24-53.75,1.7-73.9,8.51-8.69,4-19.13,8-20.53,13.82-1.41-5.82-11.84-9.82-20.54-13.82-20.15-6.81-54.22-8.27-73.89-8.51a146.78,146.78,0,0,0-25.7,2c-27.47,4.55-57.5,5.56-83.68-1.51-7-1.9-15.65-6-15.86-11.09"/></g></g></g></svg>