<svg viewBox="0 0 262.54 150.71" xmlns="http://www.w3.org/2000/svg"><path d="m165.68 104.68c.15-.75-.05-1-.74-1.3a28.31 28.31 0 0 0 -3.82-.92 20 20 0 0 1 -3.13-1.18 3.83 3.83 0 0 0 -2.2-.41 3.6 3.6 0 0 1 -1.53-.13c0-.29.23-.31.42-.3a10.62 10.62 0 0 1 2.7.11c.21.06.15-.17.26-.19a1.51 1.51 0 0 1 .62.2 12 12 0 0 0 4.51 1.31 28.69 28.69 0 0 1 3.94 1 5 5 0 0 1 1.73 1.22 19.3 19.3 0 0 0 5.88 3.27 32 32 0 0 1 4.32 1.9c.57 0 .86.39 1.2.73a2.89 2.89 0 0 0 1.44 1.44 4.57 4.57 0 0 1 .74.35c.18.12.43.25.34.5s-.38.17-.6.11l-1.08-.72c-1.13-.66-2.31-1.25-3.41-2a8.18 8.18 0 0 0 -2.49-1c-.43-.12-.81-.37-1.23-.49-.73-.21-1.25-.87-2.06-.88-.07 0-.09-.06-.13-.09-.75-.66-1.81-.85-2.53-1.57-.14-.14-.3-.29-.53-.18-.42.19-.57-.08-.72-.39a3.7 3.7 0 0 0 -.24-.54c-.32-.4-.57-.38-.88 0-.12.18-.16.55-.54.33z" fill="#949494"/><path d="m212.23 135.05v-.25c.18-.26-.09-.33-.2-.49s-.36-.29 0-.47c.69.42 1 1.18 1.54 1.73a40.23 40.23 0 0 0 3.48 3.18c.1.08.17.17.26.25-.34.38-.54-.19-.84-.12a13.32 13.32 0 0 1 -2.16-1.8c-.71-.68-1.39-1.36-2.08-2.03z" fill="#b1b1b1"/><path d="m100.52 99.4a18.63 18.63 0 0 1 -2.76-2.64l-.12-.12c-.1-.36-.4-.56-.64-.82a1.05 1.05 0 0 1 -.33-.6c0-.16-.09-.28-.11-.43 0-.3.06-.76.41-.59a16.73 16.73 0 0 0 1.47 2.61.49.49 0 0 0 .11.14c.47.43 1.86 1.69 2.69 2.57-.3.31-.46-.23-.72-.12z" fill="#b8b8b8"/><path d="m220.76 134.08h.13a10.18 10.18 0 0 0 2.75.24 22.59 22.59 0 0 1 3.18.36 1.07 1.07 0 0 1 .78.37c-.26.39-.62.16-.91.1a13.18 13.18 0 0 0 -3.43-.26 7.93 7.93 0 0 1 -2-.3c-.26-.06-.59-.09-.5-.51z" fill="#c2c2c2"/><path d="m210.74 17.7c0 .1 0 .21-.16.2s-.17-.15-.17-.27 0-.17.12-.17.19.11.21.24z" fill="#d7d7d7"/><path d="m157.64 100.36c.18.24.56.33.53.82-1.26-.7-2.6-.4-3.91-.44-1.89.19-3.75.52-5.65.58a17.58 17.58 0 0 1 -2.81 0 3 3 0 0 0 -1.34.3 15 15 0 0 1 -5.29 1.06 6.47 6.47 0 0 0 -2.89.92 27.72 27.72 0 0 0 -3.14 1.88c-.55.35-1.14.63-1.68 1-.83.62-1.26 1.6-2.08 2.21a2.28 2.28 0 0 0 -.37.39 2 2 0 0 1 -2.54.65 15.38 15.38 0 0 0 -4.6-.74 17.39 17.39 0 0 0 -3.46-.05 3.15 3.15 0 0 0 -1.1.25 19.43 19.43 0 0 1 -5 .21c-.69 0-1.06-.63-1.42-1.16-.54-.46-1.08-.93-1.65-1.37-.15-.12-.41-.28-.19-.52s.35 0 .5.12c.35.29.77.49 1.1.8 1.06 1.45 2.57 1.39 4.12 1.28 1.06-.07 2.07-.39 3.12-.54a22.41 22.41 0 0 1 5.55.15c.86.09 1.7.25 2.55.39a1.24 1.24 0 0 0 1.24-.41c.35-.39.74-.74 1-1.15a6 6 0 0 1 2-1.53c1.22-.68 2.39-1.44 3.54-2.24a11.11 11.11 0 0 1 5.27-2.13h1.36c1.22-.13 2.25-.84 3.44-1 .89-.11 1.79 0 2.69 0 1.75-.16 3.51-.19 5.25-.35a30.92 30.92 0 0 0 3.47-.2 4 4 0 0 0 .59-.1.74.74 0 0 1 1 .31 2 2 0 0 0 .8.61z" fill="#8e8e8e"/><path d="m227.23 143.78.15-.39c.09-.21 0-.54.34-.57s.42.31.6.51a.14.14 0 0 1 0 .06c.57 1.12.57 1.08 1.85 1a17.65 17.65 0 0 1 4.36.13 12.83 12.83 0 0 0 3.92-.17 25.53 25.53 0 0 1 3.59-.28c.27 0 .62.13.63-.37 0-.15.23-.12.37-.1a1.45 1.45 0 0 1 .93.49c.3.31.56.3.68-.16a1 1 0 0 1 .56-.59c.33-.21.62-.19.8.18a2.31 2.31 0 0 0 1.68 1.18c2 .62 4.17.9 6.23 1.46a15.61 15.61 0 0 1 3.47 1.45 35.64 35.64 0 0 0 4.38 1.95 1.18 1.18 0 0 1 .56.33.74.74 0 0 1 .14.73c-.12.28-.39.05-.57 0a37.91 37.91 0 0 1 -5.57-2.47 2.46 2.46 0 0 0 -1.08-.35 20.15 20.15 0 0 1 -3.06-.77 4.58 4.58 0 0 0 -.89-.14 11.62 11.62 0 0 1 -3-.73c-.59-.19-1.17-.4-1.77-.53-.4-.09-.83-.18-1.13.27-.2.29-.46.15-.7 0a5.43 5.43 0 0 0 -3-.4c-1.41.12-2.78.58-4.2.56a28.68 28.68 0 0 1 -3.21-.22 17.36 17.36 0 0 0 -4.72.12 12.34 12.34 0 0 1 -1.61.13c-.4 0-.76-.13-.76-.65a1 1 0 0 0 -.59-.89 11.33 11.33 0 0 1 -2.88-1.8c-.18-.11-.31-.26-.15-.47s.34-.11.51 0a13.52 13.52 0 0 0 2.63 1.52c.19.04.35.2.51-.02z" fill="#7e7e7e"/><path d="m193 119a4.45 4.45 0 0 1 -1.27-1.39 8.25 8.25 0 0 0 -2.7-2.31c-.15-.1-.31-.18-.46-.26-.4-.32-1-.24-1.34-.59-.12-.12-.33-.19-.27-.42s.35-.19.5-.2a1.54 1.54 0 0 1 .84.26c.39.23.83.35 1.22.59 1.15.89 2.33 1.75 3.45 2.67a2.17 2.17 0 0 0 1.94.52 12.45 12.45 0 0 1 6.9.79 13.71 13.71 0 0 0 5.24.74h3.59a.77.77 0 0 1 .72.34c0 .52.48.68.79.91a6.67 6.67 0 0 0 1.25.77 1.68 1.68 0 0 0 .85.35c.11.08.26.08.36.19s.45.27.3.56-.41.24-.65.08a28.84 28.84 0 0 1 -2.71-1.52c-.37-.27-.93-.14-1.4-.13a32.17 32.17 0 0 1 -5-.28 24.86 24.86 0 0 1 -4.36-1 10.38 10.38 0 0 0 -3.68-.24c-.44 0-.88 0-1.32.07-.28 0-.43.14-.43.45 0 .73-.11.8-.82.6-.19-.06-.37-.14-.56-.21s-.47 0-.69 0a.39.39 0 0 1 -.43-.08.3.3 0 0 1 0-.43.73.73 0 0 0 .14-.83z" fill="#818181"/><path d="m96.91 94.48c-.3.17-.07.52-.24.74a2.9 2.9 0 0 1 -.78-1.51 1.51 1.51 0 0 0 -.23-.61 38 38 0 0 0 -2.53-3.84.81.81 0 0 0 -.38-.28 1 1 0 0 1 -.59-.71 16.79 16.79 0 0 0 -3.28-5.71 33.16 33.16 0 0 1 -2.5-3.17 3.72 3.72 0 0 0 -.89-.88.94.94 0 0 1 -.41-.51 5.44 5.44 0 0 0 -2.57-3.56.49.49 0 0 1 -.29-.6c.09-.27.34-.24.56-.23a16.6 16.6 0 0 0 3.45-.11 2.37 2.37 0 0 1 1.6.38c.68.37 1.34.77 2 1.16 0 .16 0 .35-.24.37a2.2 2.2 0 0 1 -1-.43 3.12 3.12 0 0 0 -2.21-.54 7.7 7.7 0 0 1 -1.73 0 .57.57 0 0 0 -.64.24c-.13.26.13.39.25.56a27.68 27.68 0 0 1 2.14 3.29 14.34 14.34 0 0 0 2.35 3.09 19.87 19.87 0 0 1 3.16 4.7 33.23 33.23 0 0 0 2.76 4.38c.78 1 1.47 2.09 2.21 3.13a.56.56 0 0 1 .03.65z" fill="#a7a7a7"/><path d="m65.49 63a17.17 17.17 0 0 0 4.69-.38 1.56 1.56 0 0 1 1.59.48 4.43 4.43 0 0 0 3.28 1.52 61.18 61.18 0 0 1 6.48 1.06 12.1 12.1 0 0 1 1.68.41 2.31 2.31 0 0 1 1 .51c-.12.45-.63.23-.86.49a4.15 4.15 0 0 0 -1.15-.3c-2.37-.45-4.69-1.15-7.08-1.44a7.55 7.55 0 0 1 -3.37-1.35 1.3 1.3 0 0 0 -.86-.18c-1.26.09-2.56 0-3.79.18-1.5.18-2.69-.53-4-.8-.08-.08-.26 0-.25-.2s.14-.18.29-.2a1 1 0 0 1 .38 0 6.69 6.69 0 0 0 1.97.2z" fill="#9f9f9f"/><path d="m223.28 134.56a14.31 14.31 0 0 1 4.32.49 4.93 4.93 0 0 1 .94.31c.19.1.34.2.54 0a.59.59 0 0 0 .14-.65 1.92 1.92 0 0 0 -.35-.68c-.17-.59-.28-1.23-1-1.4a5.24 5.24 0 0 0 -1-1c-.43-.4-.9-.77-1.34-1.17a4.21 4.21 0 0 1 -1.05-1.35l-.48-.84-.18-.24c-.08-.13-.36-.23-.14-.42s.32 0 .46.14a1.18 1.18 0 0 1 .22.28 19 19 0 0 0 3.75 3.75 10.71 10.71 0 0 1 1.91 1.7 1.52 1.52 0 0 0 .55.35 2.09 2.09 0 0 1 1.11 1 .16.16 0 0 1 0 .16c-.37.37-.49-.27-.82-.2-.07.43.67.63.37 1.07s-.21.91-.69 1.12a4.41 4.41 0 0 1 -1.9-.59 8.64 8.64 0 0 0 -1.8-.71 7.17 7.17 0 0 0 -2.35-.22c-.43 0-.85-.11-1.28-.06-.23 0-.42-.14-.45-.43s.3-.3.52-.41z" fill="#838383"/><path d="m12.68 25.84a28.54 28.54 0 0 0 4.26 3.16c2.24 1.63 4.57 3.22 6 5.65 1.09 1.82 2.87 2.78 4.46 4a20.52 20.52 0 0 1 3.73 3.6 10.78 10.78 0 0 0 2.63 2.23 20.14 20.14 0 0 0 2.77 1.52 2.47 2.47 0 0 1 .38.28c-.11.18-.23.11-.4.07s-.27-.26-.44-.07a5.67 5.67 0 0 1 -2-1.07c-.4-.33-.8-.66-1.21-1a26.62 26.62 0 0 1 -3.42-3.13 12.6 12.6 0 0 0 -4.21-3.19 1.28 1.28 0 0 1 -.52-.39c-.74-1.18-1.82-2.11-2.55-3.31a9.72 9.72 0 0 0 -2-2.15 31.28 31.28 0 0 0 -3.16-2.31c-1-.73-2.1-1.52-3.17-2.28a3.32 3.32 0 0 1 -.43-.45c-.16-.31-.48-.47-.69-.73s-.3-.27-.03-.43z" fill="#b6b6b6"/><path d="m83.36 67.13c-.22-.39.06-.49.34-.53a1.86 1.86 0 0 1 .52 0 13.2 13.2 0 0 1 5.21 3c.84.84 1.87 1.44 2.65 2.33a1.77 1.77 0 0 1 .41.9 8.87 8.87 0 0 0 1 2.62 1 1 0 0 1 -.27 1.57.45.45 0 0 1 -.55.1 25.42 25.42 0 0 1 -3.07-1.8c-.07-.12-.31-.19-.2-.37s.29 0 .44 0c.45.26.9.53 1.35.78s.8.62 1.3.24a1.44 1.44 0 0 0 0-1.53 4.67 4.67 0 0 1 -.83-1.76 4.84 4.84 0 0 0 -1.49-1.84 23.64 23.64 0 0 0 -1.9-1.54 13.94 13.94 0 0 0 -2.62-1.31c-.78-.25-1.54-.55-2.29-.86z" fill="#979797"/><path d="m65.49 63a3 3 0 0 1 -2-.09c-.09-.05-.47-.22-.42.21a26 26 0 0 1 -2.89-.59c.28-.16.57 0 .85-.08-.28.06-.57-.07-.84.08a12 12 0 0 1 -3.27-.69 8.16 8.16 0 0 1 -4.14-3.72 3.22 3.22 0 0 0 -1.33-1.33 1.79 1.79 0 0 1 -.37-.31 4.72 4.72 0 0 0 -1.35-1.16.87.87 0 0 1 -.46-.6c-.06-.14-.26-.25-.16-.44s.17-.12.27 0a19.34 19.34 0 0 0 1.88 1.47 7.94 7.94 0 0 1 1.55 1.57c.6 1 1.47 1.73 2 2.73a2.27 2.27 0 0 0 1.08.92 10.34 10.34 0 0 0 3.23.84 51 51 0 0 1 6.37 1.19z" fill="#aaa"/><path d="m212 133.84c.08.31.34.48.52.72s.32.31.18.45-.31-.11-.46-.21a12.18 12.18 0 0 0 -1.29-1.3c-.32-.35-.46 0-.54.3-.12.42 0 .92-.45 1.24-.27-.27-.4.12-.6.13a1.21 1.21 0 0 1 0-1 1.82 1.82 0 0 0 -.12-1.32c.15-.17.31-.09.49 0a.66.66 0 0 0 .87-.41 8.18 8.18 0 0 1 .55-1.11 2.58 2.58 0 0 1 1.06.16 2.65 2.65 0 0 0 1.11.19 8.77 8.77 0 0 1 5.27 1.45.68.68 0 0 1 .3.28c.14.25.09.44-.23.4a1.81 1.81 0 0 1 -.91-.2c-1.2-.55-2.36-1.22-3.78-.95a3.85 3.85 0 0 1 -1.65-.14 4.52 4.52 0 0 0 -.53-.11c-.21 0-.45 0-.59.2s.06.41.19.57z" fill="#8a8a8a"/><path d="m224.36 128.08c-.17-.08-.28-.27-.52-.28-.07.21.16.34.16.52a3.6 3.6 0 0 0 -1.38-.81c-1.2-.37-2.22-1.1-3.37-1.53a1.49 1.49 0 0 1 -.49-.34 31.59 31.59 0 0 0 -3.07-2.47c-.44-.33-1-.24-1.4-.62.17 0 .38 0 .4-.24s-.25-.41-.41-.59a4.78 4.78 0 0 1 2 1.22 33.24 33.24 0 0 0 4.5 2.91 12.57 12.57 0 0 1 2.36 1c.43.36.99.62 1.22 1.23z" fill="#a3a3a3"/><path d="m36.07 46.25-.56-.41v-.09l1.36.5a9.25 9.25 0 0 0 2.3 1.23 3 3 0 0 0 1.35.13 3.08 3.08 0 0 1 1.69.21 16 16 0 0 1 3.43 1.55 2.21 2.21 0 0 1 1 1.4 1.18 1.18 0 0 0 .38.58c.11.12.14.25 0 .36a.22.22 0 0 1 -.32 0c-.25-.28-.62-.46-.69-.87a1.38 1.38 0 0 0 -.71-1 9.52 9.52 0 0 0 -1.42-.73 1 1 0 0 1 -.34-.11 2.82 2.82 0 0 0 -2.35-.33 1.87 1.87 0 0 1 -1.62-.41 2.22 2.22 0 0 0 -1.07-.51 3.11 3.11 0 0 1 -1.16-.71c-.41-.27-.84-.52-1.27-.79z" fill="#9e9e9e"/><path d="m110.6 107.32a6.05 6.05 0 0 1 -1.11-.69c-.09-.06-.2-.19-.3-.09s0 .25.11.34a9.38 9.38 0 0 1 1.54 1.41 6.73 6.73 0 0 1 -1.37-1.05 36.45 36.45 0 0 0 -4.37-2.91 4.3 4.3 0 0 1 -1.21-1.36 14.73 14.73 0 0 0 -2-2.3c-.44-.43-.9-.85-1.35-1.27.3-.32.47.14.72.12l3.31 3.13a4.54 4.54 0 0 1 .86 1 1.56 1.56 0 0 0 .77.64 30.16 30.16 0 0 1 4.1 2.69 1.53 1.53 0 0 1 .3.34z" fill="#a1a1a1"/><path d="m224.12 142.24c-.28 0-.47.15-.36.48-1.53-.47-3.18-.62-4.53-1.59l-1.6-1.16c-.54-.2-.74-.78-1.19-1.09l-.27-.42c.48.12.72.5 1.11.54l.36.25a12.38 12.38 0 0 1 1.08.83 11.59 11.59 0 0 0 3.71 1.32 3.47 3.47 0 0 1 1.69.84z" fill="#9a9a9a"/><path d="m9.2 22.6a8.36 8.36 0 0 1 -2.47-2.79 2.54 2.54 0 0 0 -1.91-1.26 3 3 0 0 1 -1.27-.4 4.82 4.82 0 0 0 -1.65-.51 3.82 3.82 0 0 1 -1.46-.78.87.87 0 0 1 -.44-.93 1.61 1.61 0 0 1 .79-1c.19-.11.31 0 .25.23s-.16.5-.23.74c-.23.76-.08 1.05.68 1.21a29.81 29.81 0 0 0 3.34.89 3 3 0 0 1 2 1.18c.75.94 1.64 1.75 2.41 2.66-.46.36-.44-.28-.68-.32.2.17.34.43.61.58s.29.3.03.5z" fill="#bebebe"/><path d="m189.55 114.65a5.58 5.58 0 0 1 -1.11-.44 2.38 2.38 0 0 0 -.55-.23c-.23 0-.56-.07-.63.18s.25.31.44.4.67.15.9.45c-1.53-.46-2.95-1.18-4.44-1.73-.81-.29-1.6-.61-2.4-.92.49 0 .47-.28.15-.54a5.31 5.31 0 0 0 -.63-.42c1.09.42 2.2.78 3.3 1.16a31.44 31.44 0 0 1 4.49 1.76c.17.1.37.14.48.33z" fill="#a4a4a4"/><path d="m217.76 133.6.52.05c.15 0 .33.07.43-.06s-.05-.32-.11-.47l2.16 1a6.21 6.21 0 0 0 2.52.48c-.33.57-.23.8.4.84.78.06 1.57.09 2.36.12a1.56 1.56 0 0 1 .84.25c-1.19-.12-2.39-.11-3.59-.17a12.09 12.09 0 0 1 -2.42-.55c-1.05-.3-1.8-1.23-2.93-1.3-.06-.05-.12-.14-.18-.19z" fill="#a9a9a9"/><path d="m9.2 22.6c-.24-.47-.75-.74-1-1.31.45.06.59.54 1 .59a16.16 16.16 0 0 0 1.67 1.41 4.54 4.54 0 0 1 1 1.3c.28.41.54.84.81 1.25a2 2 0 0 0 .55.74c.11.13.39.21.17.46a5 5 0 0 1 -1.4-1.32c-.82-1.16-2.06-1.92-2.8-3.12z" fill="#9e9e9e"/><path d="m43.88 49.12a2.84 2.84 0 0 1 2.23 1.67 1.26 1.26 0 0 0 .73.72 7.78 7.78 0 0 0 -1.16-2.14.91.91 0 0 1 .65.57 16 16 0 0 0 2.81 4 2.8 2.8 0 0 1 .25.41c-.21.11-.13.29-.11.46-.54-.41-.74-1.07-1.15-1.58s-1.2-1-1.7-1.57c-.13-.15-.35-.29-.38-.45-.18-1-1-1.39-1.82-1.81a3.5 3.5 0 0 1 -.35-.28z" fill="#bdbdbd"/><path d="m231.66 135v-.12a.75.75 0 0 1 .29.8 1.48 1.48 0 0 0 0 .47c.13.87-.25 1.27-1.14 1.08a8 8 0 0 1 -1.88-.57c-.68-.34-1.37-.62-2.06-.93a4.11 4.11 0 0 1 1.69.55 5 5 0 0 0 2 .64c.76-.11.87-.64.88-1.28.04-.17-.03-.44.22-.64z" fill="#a9a9a9"/><path d="m227.23 143.78a.4.4 0 0 1 -.44.07 8.18 8.18 0 0 1 -2.67-1.61c.82.4 1.54 1 2.39 1.31a1.84 1.84 0 0 0 .72.23z" fill="#9a9a9a"/><path d="m213.43 121.37a6.46 6.46 0 0 1 -1.94-1.19c-.18-.12-.13-.31-.1-.49a4.22 4.22 0 0 0 1.47 1.25c.2.13.38.29.57.43z" fill="#a3a3a3"/><path d="m12 25.72 1.4 1.28a2.5 2.5 0 0 1 -1.4-1.28z" fill="#b6b6b6"/><path d="m216.44 138.88c.52.24.76.77 1.19 1.09-.63-.14-.85-.66-1.19-1.09z" fill="#b1b1b1"/><path d="m179.84 110c-.4-.24-.71-.63-1.2-.73a1.15 1.15 0 0 1 1.2.73z" fill="#a4a4a4"/><path d="m218.72 140.08a3.26 3.26 0 0 1 -1.08-.83 2.12 2.12 0 0 1 1.08.83z" fill="#b1b1b1"/><path d="m1 .19a.15.15 0 0 1 -.14.16c-.14-.01-.28-.05-.31-.21s.07-.14.15-.14a.34.34 0 0 1 .3.19z" fill="#d7d7d7"/><path d="m193 119c0 .09.13.19.11.26-.27.81.24 1 .86 1a2.12 2.12 0 0 0 -.73.22c-.37.16-.7.13-.83-.34.3-.34.71-.64.59-1.14z" fill="#a9a9a9"/><path d="m224.48 129.16c.61 1 1.67 1.61 2.39 2.52a5.82 5.82 0 0 1 -2.39-2.52z" fill="#b7b7b7"/><path d="m228.94 134.07a2.64 2.64 0 0 1 .34.55.77.77 0 0 1 -.16.83c-.21.22-.45.07-.66 0s-.58-.26-.86-.39a2.3 2.3 0 0 1 .86.16c.18.08.37.19.55 0s.12-.4 0-.61-.16-.35-.25-.53.13-.08.18-.01z" fill="#c2c2c2"/><path d="m228.94 134.07h-.14a2 2 0 0 0 -1-1.43c.93.08.93.83 1.14 1.43z" fill="#b7b7b7"/><path d="m211.16 131.32a1.51 1.51 0 0 1 -1.11 2c-.4.08-.55-.24-.8-.4a1.61 1.61 0 0 1 .83-2.55.41.41 0 0 1 .56.2c.18.22.36.49.52.75z" fill="#797979"/><path d="m209.36 135.17a1.09 1.09 0 0 1 0-.18c.06-.23 0-.6.4-.54s.18.37.19.59c-.16.21-.34.32-.59.13z" fill="#797979"/><path d="m231.66 135c.33.53 0 1.12.18 1.68.1.34-.72.52-1.24.24-.24-.38.05-.67.22-1s.21-.32 0-.47c-.08 0-.19-.13-.2-.21-.05-.37-.4-.85 0-1.1s.57.28.82.5.13.3.22.36z" fill="#747474"/><path d="m60.2 62.57c0-.09-.27-.3-.08-.24.43.13.91 0 1.41.23-.51.16-.93-.07-1.34 0z" fill="#9f9f9f"/></svg>