<svg viewBox="0 0 145.68 88.85" xmlns="http://www.w3.org/2000/svg"><path d="m59 35.81c-.16-.89.15-1.82-.16-2.71a11.22 11.22 0 0 1 -.08-1.92 1.88 1.88 0 0 0 .34-1.44.42.42 0 0 1 .27-.5c.4 0 .86-.31 1 .19.18-2.06-.33-4.25.1-6.46a23.6 23.6 0 0 0 .66-3 .32.32 0 0 1 .28-.32c.35 0 .65.09.62.47 0 .76.31 1.52 0 2.28a28 28 0 0 0 -.23 3.17c-.09 2.32.07 4.65 0 7-.8.65-.54 1.47-.36 2.28.14.64.45 1.3 0 1.94-.44.38-.72 0-1-.22a1.49 1.49 0 0 1 -.49-.55 2 2 0 0 1 .4 1.74 1.19 1.19 0 0 0 -.15.92c.11.49-.11.6-.57.49a1.83 1.83 0 0 0 -2.09.71 4.51 4.51 0 0 1 -2.48.22c-1.17-.21-2.35-.45-3.53-.67a9.73 9.73 0 0 1 -2.3-.9.3.3 0 0 1 -.13-.26 1 1 0 0 0 -1.11-1.09c-1.51-.06-3-.57-4.47-.6-2.27 0-4.58-.56-6.84 0a6.34 6.34 0 0 1 -3 0c-.22-.43 0-.67.4-.63a.91.91 0 0 0 1-.64c2 0 4.1-.12 6.15-.19.73 0 1.45.24 2.17.21a16.44 16.44 0 0 1 4.09.44c1.09.22 2.23 0 3.28.46.52.39 1.14-.11 1.69.18.12.07.28.08.41.15l.2.14a12.87 12.87 0 0 0 3.57.77 15.83 15.83 0 0 0 1.7.26c.68 0 1-.34.85-1a6.42 6.42 0 0 0 -.19-.92z" fill="#5c5c5c"/><path d="m69 8.32c.73-.79 1.8-1.18 2.45-2.07.52-.19.73-.7 1-1.1.69-1 1.77-1.56 2.54-2.46a2.11 2.11 0 0 0 .56-.88 4.44 4.44 0 0 0 .77-1 1.77 1.77 0 0 1 2.4-.53c.09.16.26.28.26.49-.62.38-.62.49.1 1.37.18-.22.08-.64.45-.7.62 0 .62.53.78.92.61.69.81 1.65 1.46 2.33a.76.76 0 0 1 .12.19c.12.14.2.33.34.4 1.31.57 2.28 1.64 3.53 2.33a14.89 14.89 0 0 1 3.34 2.69 30.65 30.65 0 0 1 4.24 4.5 12.54 12.54 0 0 1 1.38 3.2c.52 1.58 1.32 3 1.79 4.64l.12.44c0 .36.32.81-.3 1-.34 0-.45-.23-.55-.51a52.26 52.26 0 0 0 -2.2-5.24 1.39 1.39 0 0 1 -.12-.36c-.33-2.25-1.79-3.81-3.37-5.24-1.07-1-2-2-3.11-3a2.77 2.77 0 0 0 -.63-.49c.39.32.76.8 1.17 1.22.55.57 1.08 1.13 1.68 1.65a16.39 16.39 0 0 1 3.37 4.26 24.12 24.12 0 0 1 1.05 2.92c.21.51.46 1 .69 1.51a10.93 10.93 0 0 1 1.29 4.15c.05 1.2.32 2.4.35 3.62a10.92 10.92 0 0 1 -.34 3.9c-.24.68-.35.71-1 .38-.37-.79 0-1.57.08-2.35a5.53 5.53 0 0 0 0-1c-.14-1.17-.32-2.33-.4-3.51a13.9 13.9 0 0 0 -1.67-5.51c-.4-.84-.6-1.75-1-2.6a3.16 3.16 0 0 0 -.77-1.28 15.06 15.06 0 0 1 -1.85-2.72 2.3 2.3 0 0 0 -.88-.79 4 4 0 0 1 -1.29-1.31 1.78 1.78 0 0 0 -1.37-.93 15 15 0 0 1 -1.35-1.45c-.42-.67-1.26-.69-1.8-1.2a7.25 7.25 0 0 0 -.87-.68c-.68-.52-1.31-1.12-2-1.6a5.25 5.25 0 0 1 -.89-.68c-.36-.67-1-1-1.51-1.6-.09-.3.1-.62 0-.93.09.36.08.64-.39.71-.21 0-.5.11-.54.33-.09.38.35.23.5.4a1.08 1.08 0 0 0 .24.18 1.22 1.22 0 0 0 .19.12c.45.24 1 .46.74 1.1a1.29 1.29 0 0 1 -1.61.69c-.62-.46-1-.33-1.21.43a.69.69 0 0 1 -.51.22c-1.36-.48-2.25.43-3.1 1.17s-1.64 1.12-2.4 1.77a2.82 2.82 0 0 0 -1 1.41c-.13.25-.39.35-.58.53a9.52 9.52 0 0 0 -.87.52.5.5 0 0 1 -.73-.13c-.18-.25-.24-.59 0-.76.58-.43.89-1.12 1.37-1.53a13.9 13.9 0 0 1 1.86-1.55z" fill="#5b5b5b"/><path d="m96.31 23.68c.41-.06.25-.41.32-.64.21 2.34.93 4.63.47 7a16.12 16.12 0 0 1 -.64 3 21.13 21.13 0 0 1 -.61 3.54 5.12 5.12 0 0 0 -.31 1.08c-.09.29-.22.53-.58.43s-.33-.41-.29-.66c.22-1.74.68-3.44 1-5.15a15.84 15.84 0 0 0 .14-6.92 4.57 4.57 0 0 1 0-1.43c.07-.23.19-.39.5-.25z" fill="#636363"/><path d="m91.6 67-.29-.77a2 2 0 0 1 -.6-1.69.41.41 0 0 1 0-.22.81.81 0 0 0 .19-.95 2.88 2.88 0 0 1 -1.1-1.57l-.28-.44c-.35-.66-.35-1.51-1.16-1.93-.28-.15-.22-.64-.39-.95-.15-.28-.44-.37-.69-.52-.48-.58-.11-1.21-.13-1.82a.34.34 0 0 1 .38-.3.41.41 0 0 1 .43.32c0 .43.48.64.53 1s.28.26.45.36.19.51.31.75a12.39 12.39 0 0 0 1.91 3.11 3.28 3.28 0 0 1 .55 1.22 1.28 1.28 0 0 0 .47.68 9.91 9.91 0 0 1 1.28 1.86 1.64 1.64 0 0 0 .76.82c.27.14.46.3.4.64-.08.51.66.32.64.68-.84-.26-.57-1.29-1.13-1.85-.31-.3 0-.6.37-.67a1 1 0 0 1 .7.24 2.18 2.18 0 0 1 .47.58c.29.84.9 1 1.73 1a5.78 5.78 0 0 1 3 .5c.34.21.93.12 1.4.24a20.47 20.47 0 0 1 2.81.23 15.56 15.56 0 0 0 3.67.22c.26 0 .62 0 .61.36s-.32.38-.56.37c-1.28 0-2.45.54-3.69.67a18.72 18.72 0 0 0 -4.9-1.1c-.72-.1-1.41-.32-2.12-.48-.52-.11-.77 0-.5.56.22.93 0 1.19-.9 1.14-.32 0-.51.08-.49.4a2.06 2.06 0 0 0 .55 1.31.24.24 0 0 0 .27.08c.15-.06.12-.2.08-.32s-.25-.5-.31-.78-.1-.48.16-.59a.65.65 0 0 1 .7 0 2.14 2.14 0 0 1 .82 1.21 1.59 1.59 0 0 0 .15.29c.26.43 0 1 .3 1.39.2.62.56 1.17.71 1.81v.7c0 .39-.27.44-.59.38a5 5 0 0 1 -.54-.06c-.25 0-.3.19-.38.38-.21.48-.54.69-1 .37-.82-.18-.66-.91-.75-1.45a2.85 2.85 0 0 0 -.36-1c-.55-.43-.31-1.14-.61-1.66s0-1-.49-1.39a2 2 0 0 0 -.82-1.72c0-.22-.18-.32-.34-.42a2.57 2.57 0 0 1 -1.68-1.22z" fill="#555"/><path d="m104.52 68.8a17 17 0 0 1 3.81-.71c-1 0-2 0-3.08 0a1.91 1.91 0 0 1 -.89 0c.56-.94 1-1 2.12-.52h.24a3 3 0 0 1 1.85.07 1.6 1.6 0 0 0 1.12 0 1 1 0 0 1 .87 0 20.5 20.5 0 0 0 3.91.24c.37.32.88 0 1.31.37.6.44.66.37.13.91-1.72 1.18-3.57.71-5.39.39a1.31 1.31 0 0 0 -1 0 .88.88 0 0 1 -.58.12c-1.3-.32-2.59.42-3.89 0-.15 0-.34 0-.52.06-.53-.41-.53-.45-.01-.93z" fill="#737373"/><path d="m57.74 72.14a12.11 12.11 0 0 1 .89-2 1.92 1.92 0 0 0 .52-1c0-.33.16-.63.6-.55a.49.49 0 0 1 .23.08c.31.28.08.56 0 .83-.35 1-1.05 1.82-1.33 2.87a7.45 7.45 0 0 0 -.33 2.69c0 .54-.39 1.14.42 1.46a.54.54 0 0 1 .53-.49c.43-.06.58.1.6.56a2.05 2.05 0 0 0 .59 1.75c.08.42.06.86.16 1.27.28 1 .54 2 1.86 2.14.18 0 .37.09.35.31a.43.43 0 0 1 -.47.4c-.92 0-1.89.06-2.49-.89-1-.16-1.25-1-1.71-1.68-.23-.48-.09-1-.24-1.52a7.7 7.7 0 0 1 -.18-6.23z" fill="#606060"/><path d="m131.13 64.41a6 6 0 0 1 -3.48 1.83 1.44 1.44 0 0 0 -.74.34 4 4 0 0 1 -2 .77 8.55 8.55 0 0 0 -3.06 1 5.9 5.9 0 0 1 -2.34.55c-.38-.22-.73 0-1.09.07a2.67 2.67 0 0 1 -2.2-.31c-.2-.57.23-.67.6-.72a51.31 51.31 0 0 0 8.46-2.11 24.24 24.24 0 0 0 4.22-1.83 4.23 4.23 0 0 1 .48-.23c.71-.24.92-.13 1.15.64z" fill="#7a7a7a"/><path d="m75.2 88.23c.31.26.38.5-.11.57s-.84 0-1.25 0a7.34 7.34 0 0 0 -1.47-.36 2.8 2.8 0 0 1 -1.77-1 3.45 3.45 0 0 0 -2.17-1.25 3.19 3.19 0 0 1 -1.76-.37c-.11-.14-.32-.12-.44-.25-.28-.33-.57-.66 0-1a1.11 1.11 0 0 0 .33-.41l.15-.16a.41.41 0 0 0 .06-.42 5.9 5.9 0 0 1 0-2.61c.19-.51.43-1 1.06-1.07.47.37.19.89.27 1.34-.54.33-.5.86-.48 1.38s.22.92.26 1.39c-.07.18-.37.34-.11.56a.47.47 0 0 0 .59 0 .57.57 0 0 1 .42-.1c.57.15 1 .65 1.65.58.83.44 1.13 1.35 1.79 2 .24.22.42.48.78.47z" fill="#7a7a7a"/><path d="m65.48 86.7c-1.53-1.84-1.7-4.15-2.15-6.35a1.61 1.61 0 0 1 .56-1.84c.57-.35.92-.2 1 .46a5.4 5.4 0 0 0 .45 2.28c.26 1 .18 2 .47 3 .16.52.33 1 .53 1.55.1.25.27.49 0 .75a.59.59 0 0 1 -.86.15z" fill="#777"/><path d="m131.13 64.41a1 1 0 0 0 -1.37-.09 32.16 32.16 0 0 1 -7.35 2.68 46.18 46.18 0 0 1 -5.41 1.23c-.23 0-.45.1-.43.42a.31.31 0 0 1 -.13.5.43.43 0 0 1 -.35 0h-.13c.13-.7-.34-.81-.85-.83a3.62 3.62 0 0 1 -1.09 0l.57-.25a.31.31 0 0 1 .16-.18c.67-.13 1.41.12 2-.35a.69.69 0 0 1 .68-.25 7.41 7.41 0 0 0 2.84-.62 22.31 22.31 0 0 1 2.56-.69 20.31 20.31 0 0 0 3.72-1.24 4.68 4.68 0 0 0 1.35-.83c.72-.43 1.56-.61 2.28-1a3.81 3.81 0 0 0 1.53-.52c.72-.44.71-.45 1.08.32a.39.39 0 0 1 -.17.47c-.54.23-.81.72-1.18 1.13z" fill="#676767"/><path d="m104.52 68.8a1.79 1.79 0 0 0 0 .92l-.6.17a8 8 0 0 1 -2.28.27 3.79 3.79 0 0 1 -1.18-.38 1.5 1.5 0 0 0 -.84 0c-1.11 0-1.12 0-1.39-1a.55.55 0 0 0 -.49-.4 4 4 0 0 0 -1-.07c0-.11-.11-.22-.16-.34-.26-.72-.12-.93.63-.75a47.55 47.55 0 0 0 5.17.83 3.63 3.63 0 0 1 2.14.75z" fill="#626262"/><path d="m96.77 75.63c.3.06.39-.08.42-.36.08-.92.17-1 1.09-.69a2 2 0 0 0 -.28 1.92 9.86 9.86 0 0 1 .32 3.82 6.76 6.76 0 0 1 -1.48 3.41 9.44 9.44 0 0 0 1.4-2.67.73.73 0 0 1 .56-.56c.2.1.49 0 .59.3a11.08 11.08 0 0 1 -2.14 3.8 6.48 6.48 0 0 1 -1.25 1.5c-.3.39-.72.23-.92-.24-.07-.16-.15-.32-.23-.47a6.08 6.08 0 0 1 .81-1.86 7.79 7.79 0 0 0 .81-7.17c-.05-.17-.15-.33-.05-.51a.68.68 0 0 1 .35-.22z" fill="#686868"/><path d="m95.43 86.59c-.94 1.22-2.33 1.29-3.68 1.45a2.11 2.11 0 0 1 -1.75-.37c-.22-.19-.32-.42-.08-.55 1-.53 1.45-1.59 2.35-2.21a.21.21 0 0 1 .18-.09c.39.18.32.73.72.89 0 .81-.81.91-1.18 1.31.42-.2 1 0 1.47-.46.4-.26.67-.79 1.28-.66.18.25.66.23.69.69z" fill="#8f8f8f"/><path d="m67.75 81.26v-1.38c.38-.16.44.08.46.36a10.86 10.86 0 0 0 .79 2.69.8.8 0 0 0 .22.39 40.85 40.85 0 0 1 3.74 4.15c0 .26-.19.19-.32.11a3.34 3.34 0 0 1 -1.64-1.58 1.23 1.23 0 0 0 -.61-.64 4.82 4.82 0 0 1 -2.67-3.18 1.17 1.17 0 0 1 .03-.92z" fill="#6c6c6c"/><path d="m99.39 80.8c-.16.06-.33.22-.49 0a.62.62 0 0 1 -.19-.62 8.22 8.22 0 0 0 -.36-4.63c-.08-.3-.09-.53.23-.67.18 0 .35 0 .46-.14a.16.16 0 0 1 .18-.06.14.14 0 0 1 0 .18 13.67 13.67 0 0 1 .71 3.52 4.28 4.28 0 0 1 -.54 2.42z" fill="#616161"/><path d="m133.86 62.14-.3.43a2.59 2.59 0 0 1 -2.15 1.68c-.46-.75.05-1 .61-1.26a2.52 2.52 0 0 0 .44-.28c-.06-.69.51-.83 1-1 .25-.13.38.15.4.43z" fill="#787878"/><path d="m95.43 86.59a.8.8 0 0 1 -.8-.5c-.14-.65 0-.82.62-.73.35.82.51.86 1.09.22l.91-1a3.84 3.84 0 0 1 -1.82 2.01z" fill="#7d7d7d"/><path d="m116.36 69.09.16-.44a4.15 4.15 0 0 0 2.07.12c.34 0 .69-.19 1 .17h-.13a7.75 7.75 0 0 1 -3.1.15z" fill="#737373"/><path d="m116.36 69.09a24.18 24.18 0 0 0 3.07-.13 6.4 6.4 0 0 1 -3.39.16z" fill="#7a7a7a"/><path d="m61.4 32.64a23.51 23.51 0 0 0 1.49 6.23 1.72 1.72 0 0 0 .93 1c.3.13.47.43.23.67-.59.61-.18 1 .18 1.5.32.62.5 1.34 1.25 1.66.3.13.29.53.47.78a3 3 0 0 1 .38.76c.08.27.34.43.4.71a1.59 1.59 0 0 0 .45.67 40 40 0 0 1 2.63 3.7 1.38 1.38 0 0 0 1.71.81 3.23 3.23 0 0 1 1.34-.13.44.44 0 0 1 .19.07 2.86 2.86 0 0 0 1.09.17h.31c.39-.06.78.11 1.17 0 .17-.05.29-.23.49-.17a1.28 1.28 0 0 0 .86.29 1.08 1.08 0 0 1 .56.24 1 1 0 0 1 .14.48 1.47 1.47 0 0 1 -.85 1.15c-.44 0-.87.27-1.32 0-.22-.15-.42 0-.57.2-.38.53-.64.3-.89-.13a1.68 1.68 0 0 0 -2.1-1c-.33.07-.59.28-.39.56.47.66.55 1.5 1 2.13a1.12 1.12 0 0 1 -.32 1.46 1.08 1.08 0 0 1 -.53.24 3.55 3.55 0 0 0 -.46 0 .73.73 0 0 1 -.9-.25c-.81-.33 0 .46-.33.46a1.57 1.57 0 0 0 -.66 1.1c-.11.35-.25.69-.33 1a1.53 1.53 0 0 0 -.54 1.17 2.86 2.86 0 0 0 -.28.4c-.54.27-1 .78-1.65.75-.18-.07-.23-.24-.31-.4 0-.55.69-.72.68-1.26a12.2 12.2 0 0 0 .74-1.38c.74-1 1.4-2 1-3.3-.06-.18 0-.39-.3-.46s-.29-.25-.15-.49-.42-.68-.08-1.06a13.28 13.28 0 0 1 2 .11c.26 0 .31.28.35.52a3.21 3.21 0 0 0 .21.95c0-.12-.09-.24-.11-.38-.23-1.24-.39-1.4-1.65-1.61-1-.16-1.09-.37-.6-1.21a.73.73 0 0 0 0-.86c-.6-.74-1.17-1.51-1.77-2.24-.21-.28-.26-.65-.48-.93s-.26-.39-.46-.24 0 .39.13.55a.39.39 0 0 0 .36.22c.25 0 .32.2.42.36.36.23.57.47.2.89a.77.77 0 0 0 0 1c.18.3.37.6.56.9a.47.47 0 0 1 -.1.72 2.93 2.93 0 0 1 -1.62-.8c-.78-1.35-1.56-2.7-2.31-4.08-.12-.57-.2-1.17-.85-1.44-.25-.27-.74-.31-.74-.81s-.28-.75-.41-1.12a4.16 4.16 0 0 1 -.13-.92 4.17 4.17 0 0 0 -.44-1.33c-.11-.2-.24-.38 0-.57s.6 0 .79.3.28.76.44 1.13a2.39 2.39 0 0 0 1.08 1.18c.11.06.21.18.34.07s.08-.23 0-.35a1.49 1.49 0 0 0 -.5-.83 1 1 0 0 1 -.39-.7 2 2 0 0 0 -1-1.61c-.15-.07-.34-.27-.27-.42.44-.85-.17-1.61-.16-2.42a.75.75 0 0 1 .14-.41c0-.69.11-1.41-.49-2a.31.31 0 0 1 0-.41 1.65 1.65 0 0 0 .24-1.18c-.03-.33.19-.43.49-.36z" fill="#535353"/><path d="m49.21 38.12c-1.2.05-2.41.16-3.61.13a4.33 4.33 0 0 1 -1.81-.46 4.55 4.55 0 0 0 -3.42.13c-.58.26-1.24 0-1.86.07-.38 0-.75.22-1.14.06-.4-.64-1-.43-1.59-.39a8.29 8.29 0 0 1 -2.28 0 1 1 0 0 0 -.6 0c-.74.39-1.4 0-2-.27s-.22-.6.11-.85a12.9 12.9 0 0 1 2.2-.48.45.45 0 0 1 .53.27c2 .22 3.87-.47 5.84-.33a12.76 12.76 0 0 0 2.62.14c.3 0 .63.16.8-.32.07-.19.45-.11.58.09.39.53 1 .49 1.5.56 1.17.15 2.36.24 3.52.45s1.04.22.61 1.2z" fill="#696969"/><path d="m33.72 36.29a10.19 10.19 0 0 0 -2.73.45c-.23.14-.45.28-.18.58a3.86 3.86 0 0 1 .44.62.91.91 0 0 1 -.05.33 1.67 1.67 0 0 1 -.34.44 1.26 1.26 0 0 1 -.27.2.49.49 0 0 1 -.6-.19.91.91 0 0 0 -1-.42 6.65 6.65 0 0 0 -4.38 1.25 9.18 9.18 0 0 1 -1.58.9 4.85 4.85 0 0 0 -1.36 1c-1.43 1.53-3.33 2.34-5.06 3.42-1.18.73-2.56 1.1-3.71 1.9a4.81 4.81 0 0 0 -2.39 1c-.71.46-1.18.29-1.27-.52.65-.67 1.58-.95 2.25-1.61.1-.1.29 0 .44 0 .47-.06.95-.1 1.21-.61a.75.75 0 0 1 .61-.39 2.82 2.82 0 0 0 2-1.11c.44-.55 1.13-.52 1.62-.94a3.51 3.51 0 0 0 1.11-1.19 2 2 0 0 1 1.19-1 7.67 7.67 0 0 0 2.21-1.29c.57-.29 1.12-.62 1.69-.93a8.79 8.79 0 0 1 2.07-.67c1.13-.31 2.17-1 3.42-.76a2.85 2.85 0 0 0 1-.26c1-.15 1.92-.52 2.91-.68.69-.11 1.38-.17 2.07-.26.23.07.61 0 .57.36s-.41.19-.64.2a3.69 3.69 0 0 0 -1.25.18z" fill="#545454"/><path d="m62.57 19.27a10.12 10.12 0 0 0 -.83 2.45c-.08.2-.13.42-.2.64.05-.6.07-1.2.15-1.79a.57.57 0 0 0 -.31-.68c-.58.17-.26.72-.42 1.08a7.1 7.1 0 0 0 -.55 2.21c0 .45-.2 1.09-1 1a4 4 0 0 1 .1-2.14 3.27 3.27 0 0 1 .69-1.89.6.6 0 0 0 .1-.2c-.1-1.28.74-2.26 1-3.41 0-.11 0-.19-.08-.28a18.55 18.55 0 0 1 3-3.92c.36-.41.77-.79 1.16-1.18a16 16 0 0 1 3.62-2.84c-.54.48-.77 1.25-1.5 1.54a.27.27 0 0 0 -.16.23c.12.74-.41 1-.91 1.31-.18.11-.49.22-.29.48s.33-.06.49-.15l.58-.34a.3.3 0 0 1 0 .46c-.67.83-1.44 1.57-2.18 2.33a.5.5 0 0 0 -.09.21c-.07.62-.73.77-1 1.23-.19.9-.9 1.61-.9 2.58a1.4 1.4 0 0 1 -.47 1.07z" fill="#656565"/><path d="m61.22 36.59a4.43 4.43 0 0 1 .78 2.41 1.77 1.77 0 0 0 .52 1.14.88.88 0 0 1 .19.32 4.74 4.74 0 0 0 1 2.07 1.63 1.63 0 0 1 .29 1.12c0 .3-.08.5-.37.58s-.43-.11-.65-.24c-1.21-.72-1.41-2.07-2-3.14-.17-.1-.36-.17-.37-.41a9.2 9.2 0 0 0 -.61-2.25c-.06-.19-.11-.37 0-.53a9.26 9.26 0 0 1 -.39-2.89 2.27 2.27 0 0 0 1.61 1.82z" fill="#626262"/><path d="m59.55 24a1.38 1.38 0 0 0 .45-1.29 1.54 1.54 0 0 1 .32-1.07 2.13 2.13 0 0 0 .42-1.42 1.34 1.34 0 0 1 .17-.57c.08-.16.22-.35.4-.28s.07.34.05.52c-.25 1.17-.36 2.37-.67 3.53a9.44 9.44 0 0 0 0 3 26.17 26.17 0 0 1 -.15 4.06c0 .12 0 .29-.17.27a.4.4 0 0 1 -.32-.46c0-.51-.09-.83-.66-.84a.54.54 0 0 1 -.37-.66c.18-1.32 0-2.67.24-4 .07-.27-.06-.62.29-.79z" fill="#6e6e6e"/><path d="m59.55 24c-.06 1.6-.13 3.2-.19 4.79v.68c-.17.72.11 1.51-.32 2.29l-.25-.76a60.65 60.65 0 0 1 .31-7.74 10.39 10.39 0 0 1 .74-3.05c.39-.71.42-1.55.77-2.28a7.56 7.56 0 0 1 .58-1.52l.12-.16c.21 0 .33.1.3.33a2.37 2.37 0 0 1 -.34 1.14c-.67 1-.63 2.17-1.14 3.2a9.41 9.41 0 0 0 -.58 3.08z" fill="#565656"/><path d="m60 37.66c.13.1.39.14.37.33-.07.84.55 1.56.39 2.4.07.32-.17.3-.28.18a3.78 3.78 0 0 0 -3.08-.93.52.52 0 0 1 .44-.61c.56-.13 1.06-.55 1.71-.26.28.12.24-.17.18-.33-.12-.34-.15-.63.27-.78z" fill="#535353"/><path d="m61.12 29.68v2.08c0 .12 0 .28-.19.26s-.19-.13-.18-.21a10.21 10.21 0 0 1 .11-2.14z" fill="#535353"/><path d="m60.61 17.9a5.29 5.29 0 0 1 -.77 2.28 7.32 7.32 0 0 1 .77-2.28z" fill="#656565"/><path d="m95.71 36.59c0 .22 0 .44-.07.67 0 .4.15.55.55.43h.58c.17.38-.23.41-.38.6a6.86 6.86 0 0 0 -2 .52c-.46.24-.84-.07-.65-.54.52-1.29.25-2.72.77-4 .15-.36.18-.68-.21-.9a.66.66 0 0 1 -.06-.39c0-.31.28-.28.5-.3.53 0 .51-.51.59-.85a21.89 21.89 0 0 0 0-5.66 19.19 19.19 0 0 0 -2.19-7 21.77 21.77 0 0 0 -1.12-3 16.17 16.17 0 0 0 -3.32-4c-.87-.71-1.54-1.59-2.35-2.36-.29-.28-.71-.39-.93-.74s-.37-.43-.16-.67.49-.1.72.08a41.21 41.21 0 0 1 6.24 5.93 6 6 0 0 1 1.58 3.13 9 9 0 0 0 .89 2.15c.54 1.33 1.07 2.66 1.6 4-.32 1.19.16 2.34.24 3.51a21 21 0 0 1 -.77 6.8 21.71 21.71 0 0 0 -.76 3.83c.47-.41.44-.92.71-1.24z" fill="#6f6f6f"/><path d="m74.3 6.67c-.48.46-1.26.37-1.7.9a.51.51 0 0 1 -.21.59 11.22 11.22 0 0 0 -1.59 1.2c-.68.59-1.54.87-2.17 1.5a.72.72 0 0 1 -.86.23c.08-1 .82-1.45 1.45-2s1.25-.93 1.78-1.5a4.91 4.91 0 0 1 2.1-1.08 1.09 1.09 0 0 1 1.2.16z" fill="#696969"/><path d="m78.82.74c.06.27.05.58.34.75h.26.14l-.11.09c.06.33.13.65.17 1a.37.37 0 0 1 -.28.47c-.24 0-.5 0-.6-.21-.34-.81-.64-1.63-.95-2.45a.31.31 0 0 1 .09-.25.31.31 0 0 1 .42 0c.18.23.35.42.52.6z" fill="#525252"/><path d="m78.66 3.38a1.24 1.24 0 0 1 1.34.62 9.56 9.56 0 0 0 1.44 1.54c.2.17.43.44.25.65s-.44 0-.61-.2c-.75-.7-1.76-1.13-2.22-2.13-.05-.18-.11-.31-.2-.48z" fill="#6c6c6c"/><path d="m77.32 3.49c-.95.13-1 .26-1 1.35l-.66-.91c-.1-.14-.28-.26-.2-.46s.31-.19.51-.21.44-.06.73-.11c-.16-.3-.46 0-.58-.25 0 0 0-.11 0-.13a1.16 1.16 0 0 1 1-.38.28.28 0 0 1 .21.35 1.28 1.28 0 0 0 -.01.75z" fill="#686868"/><path d="m85 8c-1.15.24-1.84-.55-2.65-1.06a.25.25 0 0 1 0-.4.45.45 0 0 1 .65-.14 19.16 19.16 0 0 0 2 1.6z" fill="#6a6a6a"/><path d="m76.11 5.91a2.08 2.08 0 0 1 -1.37.6c-.36-.32-.41-.6.14-.7s.87-.52 1.23.1z" fill="#696969"/><path d="m74.59 5.35c-.24 0-.41-.08-.37-.35a.5.5 0 0 1 .49-.48c.26 0 .31.21.31.42a.38.38 0 0 1 -.43.41z" fill="#6a6a6a"/><path d="m122.28 37.21 1.81.63c.74-.14 1.34.3 2 .49a13.07 13.07 0 0 0 2 1.12 5.21 5.21 0 0 1 1.32 1.2.69.69 0 0 0 .72.29.88.88 0 0 1 .83.23 3.16 3.16 0 0 0 1.9 1 2.66 2.66 0 0 0 .9.66c.2.29.55.25.83.35s.7-.15 1 .2a1.94 1.94 0 0 0 .54.7 10.71 10.71 0 0 0 1.52.94c.21.17.48.22.69.4.61.38 1.41.58 1.43 1.52-.16.69-.57.52-1 .29s-.94-.73-1.31-1.05c.33.06.46.57.87.7a.34.34 0 0 1 0 .53c-.14.15-.3.09-.49 0a3.39 3.39 0 0 1 -1.05-.59.86.86 0 0 0 -1-.13 2.76 2.76 0 0 1 -2.14-.84c-.34-.38-.94-.33-1.26-.75s-.85-.63-1.3-.92c-.27-.28-.18-.77-.65-1-.21-.09-.17-.46 0-.67s.38-.08.58 0 .57.38.83.45a23.42 23.42 0 0 0 -3.18-1.37 3.38 3.38 0 0 1 -1.13-.75 11.77 11.77 0 0 0 -3.77-2.17 21.76 21.76 0 0 0 -2.92-1c-.43-.12-.65-.23-.71.33 0 .13-.19.22-.35.25a1.17 1.17 0 0 0 -.86-.08c-.47.15-.52.87-1.13.86a2.41 2.41 0 0 1 -1.26-.66 1.15 1.15 0 0 1 -.24-.4.67.67 0 0 0 -.68-.49c-1.28 0-2.55-.25-3.83-.31a1.29 1.29 0 0 0 -.72.16.59.59 0 0 1 -.63 0 1.87 1.87 0 0 0 -1.46-.17c-.66.13-1.39.15-2 .32a3 3 0 0 1 -2.09-.14c-.54-.2-1.15.2-1.75.09a2.67 2.67 0 0 0 -1.8.47 1.16 1.16 0 0 1 -.78.19 1.29 1.29 0 0 0 -1.18.34s-.14.12-.2.1c-.72-.29-1.33.19-2 .27a1.52 1.52 0 0 1 -.35-.26c-.17-.18-.48-.2-.53-.5v-.04l.45-.31a33.27 33.27 0 0 1 8-1.37 5.83 5.83 0 0 0 1.86-.29c1.47 0 2.93-.24 4.4-.14 2.68.07 5.35.23 8 .46.58 0 1 .6 1.7.4h.15a1.92 1.92 0 0 1 1-.16c.37.07.43.32.42.62z" fill="#5b5b5b"/><path d="m26.61 64.68c-.29-.21-.69-.16-.95-.43-.44-.26-1-.1-1.41-.54a8 8 0 0 1 -2.46-1c.08-1.06.07-1-1.14-1.46-.45-.16-.73-.6-1.19-.82a20.13 20.13 0 0 1 -3.06-1.83c-.4-.28-.84-.2-1.23-.35-.18 0-.32-.18-.52-.18a7.56 7.56 0 0 1 -1.9-1.07c-.74-.27-1.23-.94-2-1.21a4.79 4.79 0 0 1 -1.47-1c-.28-.21-.36-.79-.88-.79-.23 0-.39-.28-.65-.25-.72 0-1.19-.58-1.85-.73-.13-.06-.29 0-.41-.16a1.28 1.28 0 0 1 .92-1.54 12.83 12.83 0 0 0 1.43-.55 1.89 1.89 0 0 1 .88.12.54.54 0 0 1 .3.18.74.74 0 0 0 .63.68c.16 0 .49 0 .44.38 0 .06.05 0 .06 0s0 0 .07 0c.26.07.52.12.5.47a.85.85 0 0 0 .62 1.12.66.66 0 0 1 .31.21 8.93 8.93 0 0 0 3.23 2.43c1.12.55 2.12 1.27 3.12 1.92.75.47 1.59.74 2.34 1.21l.68.4c.82.52 1.64 1 2.48 1.54a26.31 26.31 0 0 1 2.44 1.47c.12.09.3.13.35.18a26.17 26.17 0 0 1 -2.29-1.34c-.43-.34-.9-.62-1.34-.93-.26-.19-.44-.35-.19-.67.13-.15.35-.13.51-.23.47-.23.76.13 1.08.34 1.52 1 3 2 4.58 2.91a7.6 7.6 0 0 0 1.15.55c1.12.43 2.06 1.22 3.2 1.58 2.38.82 4.61 2 7.11 2.51.35.07.78.12.8.64-.13.63-.54.68-1 .48-1.11-.42-2.3-.64-3.4-1.08q-2.53-1-5.1-2c-.35-.13-.56-.54-.89-.51a18.22 18.22 0 0 0 2.49 1.12 53.89 53.89 0 0 0 6.13 2.19c.27.07.59.07.52.45a.49.49 0 0 1 -.67.43c-.6-.17-1.22-.31-1.84-.43-1.73-.33-3.27-1.22-5-1.61-.66-.14-1.07-.72-1.7-1a22 22 0 0 1 -3.09-1.3 2.64 2.64 0 0 1 -.74-.5z" fill="#5f5f5f"/><path d="m26.61 64.68a29.51 29.51 0 0 1 5.39 2.32 28.63 28.63 0 0 0 3 1c1.25.47 2.55.73 3.83 1.09a.59.59 0 0 0 .6-.11c-.94-.3-1.77-.63-2.64-.84-1.87-.45-3.56-1.4-5.4-1.94a11.93 11.93 0 0 0 -1.58-.68c-.27 0-.65-.27-.49-.62s.51-.15.75 0c1.85.89 3.81 1.52 5.66 2.38a31.55 31.55 0 0 0 4.27 1.4.65.65 0 0 0 .75-.22c.52-.56 1-.24 1.48.06.06.15 0 .38-.1.38-.45 0-.79.3-1.11.35.91-.65 1.89-.06 2.83.15a16.1 16.1 0 0 0 3.91.37.64.64 0 0 1 .42.11c.3.27.23.79.7 1 .2.08 0 .34-.12.47a2.72 2.72 0 0 1 -1.41-.2c-.73-.22-1.48 0-2.21-.21a7.68 7.68 0 0 0 -2.75-.34 6 6 0 0 1 -2.88-.44 4.56 4.56 0 0 0 -2.06-.39 3 3 0 0 1 -1.66-.46 19.19 19.19 0 0 0 -3.27-1.38 5.21 5.21 0 0 1 -1.62-.8 5.88 5.88 0 0 0 -1.58-.69c-1.04-.39-2.18-.61-2.71-1.76z" fill="#747474"/><path d="m59.71 68.8c-.43.4-.56 1-1.08 1.36a3.76 3.76 0 0 0 .23-.55c.08-.38-.08-.54-.46-.39s-.68.32-1 .47a22.37 22.37 0 0 1 -5.27 1.38 22.12 22.12 0 0 0 -2.7 0c-.06 0-.15-.08-.14-.16a2.12 2.12 0 0 1 1.55-1.26 10.46 10.46 0 0 0 4.07-.5c1.09-.42 2.28-.6 3.4-1 .34-.11.64-.32 1-.42s.55-.23.76.05a.69.69 0 0 1 -.11.84c-.08.06-.18.11-.25.18z" fill="#696969"/><path d="m49.25 71a.31.31 0 0 1 -.49.1c-.39-.24-1-.33-.77-1a.32.32 0 0 1 .1-.55c.24-.13.35-.39.59-.53a6.12 6.12 0 0 1 2-.08c3.26.26 6.18-1 9.14-2.08a2 2 0 0 0 .76-.48c.45-.57.88.06 1.32 0 .53-.3.64-.91 1-1.35s.9-1.14 1.32-1.74c.12-.32.21-.66.61-.76a11.79 11.79 0 0 0 1.26-1.38c.14-.15.22-.32.46-.2l.15.31c.14.11.26.19.1.42a.6.6 0 0 0 0 .88c.3.31 0 .5-.35.6a2.67 2.67 0 0 0 -1.45 1.08c-.17.36-.66.55-.54 1.06.38.21.81 0 1.19.15s.39.35.61.49c.31.76-.35.79-.75 1-.69.17-1.34.46-2 .6s-1.14 1-1.62 1.55a12.23 12.23 0 0 0 -1.26 3.5 6.93 6.93 0 0 0 -.23 2.57 8.62 8.62 0 0 0 0 2.73v.46c-.47.19-.39-.23-.49-.44-.23-.55-.09-1.22-.57-1.69-.21-.06-.37-.15-.28-.42a1.17 1.17 0 0 0 -.18-1 .35.35 0 0 1 .13-.3c.33-.27.53-.57.19-1a1.57 1.57 0 0 1 0-1.24c.4-1.38.59-2.87 1.65-4-.29.16-.3.81-.87.47h-.15c0-.27.21-.56-.07-.77s-.43 0-.64.08a24.26 24.26 0 0 1 -8.38 1.96 1.37 1.37 0 0 0 -1.49 1z" fill="#565656"/><path d="m67.46 63.94-.46.12c-.5 0-.67-.32-.82-.7 0-.14 0-.26.18-.29.55-.1.77-.27.31-.8-.21-.24 0-.55.22-.69s.46-.36.78-.31c.17.13.37.2.54.32.55 1.04-.21 1.65-.75 2.35z" fill="#555"/><path d="m98.58 74.88a18.14 18.14 0 0 1 .79 3.89 10.19 10.19 0 0 1 -.47 2c-.51.9-1 1.81-1.52 2.7a5.58 5.58 0 0 1 -1.29 1.53 5.07 5.07 0 0 1 .63-1.72 6.66 6.66 0 0 0 1.17-5.18c-.11-.85-.35-1.68-.47-2.53s0-1 .86-1z" fill="#767676"/><path d="m87.66 57.84c-.62-.69-.38-1.61-.62-2.4a1 1 0 0 1 -.17-.62 1.85 1.85 0 0 1 -.49-1.49c.41-.63.5-1.46 1.22-1.89a1.59 1.59 0 0 1 1.31-.2 3.66 3.66 0 0 1 1.62 2.35c.17.71.34 1.41.57 2.1a1.28 1.28 0 0 1 .07.67c-.07.3-.15.6-.48.71s-.53-.11-.73-.32a1.8 1.8 0 0 1 -.29-1.11 1.33 1.33 0 0 0 -.24-.77 2.17 2.17 0 0 1 .25 1.07.89.89 0 0 0 .18.63 1 1 0 0 1 .14 1.24.7.7 0 0 1 -.23.35.4.4 0 0 1 -.59-.28 7.81 7.81 0 0 1 -.39-1.22c-.07-1.09-.75-2-.75-2.73a6.77 6.77 0 0 0 .57 1.83c.27.47.18 1.1.43 1.62.11.22-.11.38-.3.48-.4-.07-.44-.41-.56-.72a2.11 2.11 0 0 0 -.65-.94c-.21.62.16 1.11.13 1.64z" fill="#5f5f5f"/><path d="m96.77 68.34a2 2 0 0 1 2.17 0c.3.37-.23.5-.22.8.3.19.64.07 1 .12.15.29 0 .43-.26.49a2 2 0 0 1 -.68 0c-.59-.08-1 0-.91.75 0 .16-.13.26-.31.25-.3-.33-.34-.84-.71-1.16-.23.35 0 .58.11.81a3.17 3.17 0 0 1 .38 1c0 .17.09.36-.06.51s-.32 0-.47-.08a2.57 2.57 0 0 1 -1.49-2.51.66.66 0 0 1 1-.6c.18.1.27.47.54.26s-.06-.42-.09-.64z" fill="#6c6c6c"/><path d="m95 65.14c-.14 0-.31-.13-.42 0s0 .28.12.39c.54.61.5 1.5 1 2.12.11.13.17.43-.07.53s-.43.36-.69.21-.12-.36-.07-.55.14-.4-.1-.54a5.6 5.6 0 0 1 -1.77-2.2 9.66 9.66 0 0 1 -1.07-1.62 1.29 1.29 0 0 1 -.1-.48c0-.26-.08-.5.16-.67s.51 0 .72.14a10.32 10.32 0 0 0 1 1.34c.26.22.49.43.86.3a.86.86 0 0 1 .57.69.47.47 0 0 1 -.14.34z" fill="#6e6e6e"/><path d="m92.66 62.72c-.85-.34-.53.48-.75.76a2.29 2.29 0 0 1 -.41-.48 32.86 32.86 0 0 0 -2.31-3.71.83.83 0 0 1 -.16-.77c.09-.37.4-.35.68-.41s.48.29.66.51a30.25 30.25 0 0 1 2.29 3.62c.14.15.25.3 0 .48z" fill="#656565"/><path d="m89.63 58.16-.6.31-.31-.61a10.66 10.66 0 0 0 -.94-2.75 2.84 2.84 0 0 1 -.23-2.23c.08-.24.16-.53.47-.5s.29.35.32.59a24.22 24.22 0 0 0 1.29 5s.05.07 0 .1.01.09 0 .09z" fill="#6e6e6e"/><path d="m92.87 66.59c-.39 0-1.19-1-1.1-1.41 0-.18.17-.23.34-.19a2.76 2.76 0 0 1 1.06 1.33c-.02.19-.12.26-.3.27z" fill="#676767"/><path d="m59.24 74.72-.15.15a6.54 6.54 0 0 0 -.07.75c-.06.24 0 .58-.43.61s-.46-.3-.59-.55 0-.36-.12-.5a8.09 8.09 0 0 1 1.29-5 10.46 10.46 0 0 0 .69-1.43l1.33-1.42.19.12a13.86 13.86 0 0 0 -2 6c-.26.43.13.89-.14 1.27z" fill="#787878"/><path d="m57.88 75.18c.17.23.26.53.62.69.12-.39.17-.82.59-1 .72.38.23.9.16 1.37s-.14.84-.47 1.18-.44.24-.46-.07c-.03-.75-.63-1.35-.44-2.17z" fill="#6a6a6a"/><path d="m67.75 81.26a1.62 1.62 0 0 1 .17.41 5.2 5.2 0 0 0 1.93 3 3.65 3.65 0 0 1 .49.66c-.61 0-1.09-.38-1.66-.46s-1.14-.18-1.23-.91a4.81 4.81 0 0 1 -.28-2.31c.03-.29.06-.72.58-.39z" fill="#828282"/><path d="m67.45 84c.41.3.82.6 1.22.91a1.09 1.09 0 0 1 -1.3-.11c-.27-.21-.12-.56.08-.8z" fill="#656565"/><path d="m133.86 62.14c-.61-.16-1 .33-1.4.57a.58.58 0 0 0 -.88-.08c-.41.29-.81.69-1.4.51-.17-.3.13-.35.26-.49a1.48 1.48 0 0 0 .37-.49 11.23 11.23 0 0 0 2.19-1.69l.36-.28c.26-.25.59-.08.87-.16h.2c.32.07.44-.28.71-.32a2.06 2.06 0 0 1 .35 0 .38.38 0 0 1 .24.39 1.82 1.82 0 0 1 -.74 1.11l-.4.22z" fill="#595959"/><path d="m114.67 68a7.42 7.42 0 0 1 2.3-.16 6.58 6.58 0 0 1 -2.3.16z" fill="#737373"/><path d="m93.25 85.34-.28.47c-1-.19-1-.24-.6-.9.46-.19.77-.09.88.43z" fill="#797979"/><path d="m76.13 59.06a1.2 1.2 0 0 1 -.29-1.19 1.82 1.82 0 0 0 -.71-2 2.8 2.8 0 0 1 -.39-.45c-.33-.35-.18-.92-.58-1.23-.16-.33-.16-.83-.76-.65-1.07.3-1.15.4-1 1.25 0 .11 0 .22-.06.3a7.84 7.84 0 0 1 -1.45-2.81c-.1-.54.12-.48.46-.45s.8.08 1.2.08c1.33 0 1.33 0 1.86 1.34.34-.83.84-.94 1.46-.37.26.24.47-.1.7 0a1.08 1.08 0 0 1 .3 1.31 1.7 1.7 0 0 0 .45 2.11c.4.29.27 1 .86 1.23.11-.19.2-.46.48-.56.22.12.31-.15.48-.17.56.09.26.62.49.93.32.06.45-.47.82-.31a.43.43 0 0 1 .13.17 5.45 5.45 0 0 0 -.38 3.33c-.17.11-.41.35-.49.31-1-.57-2.36-.24-3-1.44-.18-.29-.28-.58-.58-.73z" fill="#656565"/><path d="m84.31 53.3c-.6-.18-1.22.1-1.82 0a2 2 0 0 0 -1.23-.44c-.27 0-.32-.15-.39-.33a.77.77 0 0 1 .09-.63c.26-.17.43-.5.8-.47a32.92 32.92 0 0 1 4.55.31h.28c.53.37.53.49 0 1.07-.11.1-.22.2-.32.31-.86.88-.86.88-1.96.18z" fill="#5d5d5d"/><path d="m81.12 52.54c.56.06 1.24-.11 1.37.73h-.08c-2-.14-2.28.23-1.81 2.16a2.74 2.74 0 0 1 0 2.12h-.09c-.09-.09-.24-.13-.24-.28 0-1.32-.62-2.59-.31-4 .13-.63.59-.99 1.16-.73z" fill="#707070"/><path d="m60.17 75.31.14.17v2.43c-.58-.84-.05-1.74-.14-2.6z" fill="#606060"/><path d="m61.21 42.69h-.14a4.91 4.91 0 0 0 -.85-1.92c-.47-.63-1.34-.71-2.08-.94-.23-.07-.5 0-.73-.16.68-.48 1.53 0 2.25-.39.22-.12.41.2.51.45s.18.65.6.69l.15.46c-.09.61.35 1.17.29 1.81z" fill="#5c5c5c"/><path d="m74.6 47.53a1.2 1.2 0 0 1 .21-.79c.23-.34.69-.61.94-.26.52.73.53.11.71-.18a3.41 3.41 0 0 1 2-1.27c.28-.09.47.12.63.33a1.85 1.85 0 0 1 .41 1.11 2.27 2.27 0 0 0 .73 1.67 6.83 6.83 0 0 1 .3 1.61 1.05 1.05 0 0 1 -1.21 1.25c-.21 0-.29.17-.46.21-.39.09-.42-.45-.77-.43-.21-.14-.16-.34-.12-.54a2.09 2.09 0 0 0 -.17-1.61c-.16-.25 0-.45 0-.66.17-.37.16-.68-.11-.86a13.25 13.25 0 0 1 0 2.82c0 .23-.26.29-.44.37-.53 0-1.08 0-1.4-.54v-.05l.08.08c.13.22.2.43 0 .62a.28.28 0 0 1 -.34 0c-.42-.42-.51-.12-.57.25s-.18.68-.56.82h-.3c-.32-.19-.17-.56-.33-.84-1 .49-1.79-.08-2.66-.39-.19-.18-.45-.31-.43-.64a.9.9 0 0 1 .22-.36 1.81 1.81 0 0 1 2.1-.54c1.06.29 1.68-.14 1.54-1.18z" fill="#5b5b5b"/><path d="m78.24 50.57a.89.89 0 0 1 .6.45c.44-.19.91.19 1.37-.06.1-.06.28.14.3.26.08.36.43.46.61.72v.6a1.9 1.9 0 0 0 -.85 2.51 4.15 4.15 0 0 1 .21 2.51 2.37 2.37 0 0 0 -.52.73.57.57 0 0 1 -.58.28c-.28 0-.17-.32-.23-.5a3.51 3.51 0 0 1 0-1.12c-.46-.27-.36-.72-.28-1.09.13-.61.13-1.23.24-1.84a5.92 5.92 0 0 0 -.26 2.54c0 .18-.08.36-.15.54a1.59 1.59 0 0 0 0 .89c0 .17.12.38 0 .5s-.36-.11-.52-.2-.37-.76-.92-.29c-.19.16-.22-.23-.14-.4.25-.55.19-1-.41-1.23a.57.57 0 0 1 -.34-.62 4 4 0 0 0 -.13-1.57c-.15-.44.57-.5.41-1a1.51 1.51 0 0 1 0-.37c.53 0 .71-.39.92-.76s.26-.62.39-.94-.14-.53.28-.54z" fill="#555"/><path d="m67.15 51.63c-.34-.56-.67-1.13-1-1.67-.24-.38-.32-.69.13-1a.61.61 0 0 0 .28-.72c.22 0 .53-.14.63.1.37.92 1.32 1.38 1.76 2.26.2.4.26.68-.15 1-.15.1-.38.25-.3.47s.3.14.47.17c1.58.24 1.63.31 2.07 2 .08.33.35.61.27 1 0 .16.07.38-.16.46a.53.53 0 0 1 -.49-.15c-.35-.25-.35-.63-.42-1-.1-.58-.08-1.35-1.11-1-.38.14-.6-.3-.9-.47h-.11c-.26-.49-.73-.85-1-1.38z" fill="#606060"/><path d="m60.88 66.66 1.86-2.73s0 0 0-.06c-.11-.8.34-1.15 1-1.29a11.25 11.25 0 0 0 3.56-6.65.94.94 0 0 0 -.06-.66c-.14-.08-.28-.15-.17-.34s.24-.21.29-.34c.17-.43.8-.86-.07-1.29a1.12 1.12 0 0 1 -.5-.89.27.27 0 0 1 .13-.18c.39-.14.59.08.79.36a3.9 3.9 0 0 0 .42.56c.24.45.15 1.08.76 1.33.06 0 0 .32 0 .49s-.11.08-.1.11c.12 1-.58 1.76-.85 2.64a1.83 1.83 0 0 0 0 .9l-.76 1.22c-1 .45-1.29 1.61-2.11 2.26-.13.1-.38.34-.17.62l-.61.61a5.93 5.93 0 0 0 -1.85 2.22c-.22.32-.72.59-.58 1.12-.25.44-.61-.37-.98-.01z" fill="#606060"/><path d="m68.06 58.62c-.24 0-.52.2-.71 0s0-.48.14-.7a5.24 5.24 0 0 1 .75-1.54c.19-.21.09-.47.05-.72-.07-.51.1-.8.68-.64a1 1 0 0 1 .27 1 7.21 7.21 0 0 1 -1.18 2.6z" fill="#6a6a6a"/><path d="m66.54 48.29c-.34-.06-.49.18-.65.41s-.17.21-.31.17-.15-.2-.1-.31c.13-.37 0-.54-.37-.65s-.55-.43-.2-.78.39-.89.84-.74a1.62 1.62 0 0 1 .88 1.31 1.8 1.8 0 0 1 -.09.59z" fill="#606060"/><path d="m66.38 63.34a3 3 0 0 0 -1.23.42c-.11.25-.18.58-.58.34.26-1 1.27-.9 1.89-1.44-.87-.6.19-.95.23-1.46l1.21-.91-.14.46a2.08 2.08 0 0 0 -.15.78c-.28.18-.69.14-.33.77s-.44.81-.9 1.04z" fill="#636363"/><path d="m75.81 49.66 1.52.45c.51.2.58.29.35.71a.82.82 0 0 0 -.08.61.3.3 0 0 1 -.28.35l-.45-.15a.88.88 0 0 0 -.76-.3c-.12.15-.23.33-.47.3a2.3 2.3 0 0 1 -.42-.46.78.78 0 0 1 .43-.91z" fill="#555"/><path d="m65 62.72c-.42-.35-.15-.65.09-.9a9 9 0 0 0 1.44-1.93c.24-.43.47-.39.75 0-.11.46-.58.65-.76 1z" fill="#6a6a6a"/><path d="m71.23 51c.48.52 1.18.12 1.71.43a8.65 8.65 0 0 1 -2.54-.06 1.06 1.06 0 0 1 -1-1c.6.21 1.4-.06 1.83.63z" fill="#686868"/><path d="m73.07 51.48h.45c.12 0 .26 0 .3-.18s-.1-.24-.22-.34a5.06 5.06 0 0 0 -2.21-.81 3.93 3.93 0 0 1 1.7.2c.24.11.42.07.31-.26 0-.13-.19-.29.06-.35a.36.36 0 0 1 .42.25 2.29 2.29 0 0 1 .26 1.52.75.75 0 0 1 -1.07-.03z" fill="#656565"/><path d="m75.65 51.18v.45c-.4 0-.83.13-1.2-.15a2.31 2.31 0 0 1 .15-1.07c.79-.41.85-.34 1.05.77z" fill="#757575"/><path d="m66.71 52.06a3.82 3.82 0 0 1 -.82-1.49 4.42 4.42 0 0 0 1.26 1.06c.2.29.24.55-.13.74-.36.1-.19-.22-.31-.31z" fill="#606060"/><path d="m70.64 56.21c-.4.06-.59.42-.91.59a1.81 1.81 0 0 1 0-.23c0-.29-.07-.68.28-.79s.42.22.63.43z" fill="#606060"/><path d="m77.32 51.78v-.44c.42-.58.48-.57.91.13-.28.17-.34.61-.75.62z" fill="#616161"/><path d="m76.11 51.33.43-.68c.13.4.23.69.33 1a1 1 0 0 1 -.76-.32z" fill="#616161"/><path d="m68.66 58.93a1 1 0 0 1 -.59 1.07 1.48 1.48 0 0 1 .59-1.07z" fill="#565656"/><path d="m31 38c-.6-.54-.6-.89 0-1.22-.1.56.41.55.63.51 1.17-.22 2.28.34 3.43.21.7-.08 1.4-.1 2.09-.14.22 0 .47 0 .23.32-.43.16-.75.57-1.27.51a1.85 1.85 0 0 1 -1.46.05h-.24a7.86 7.86 0 0 0 -3.41-.24z" fill="#5c5c5c"/><path d="m12.76 46.31c1.15-.79 2.52-1.13 3.7-1.87 1.67-1 3.51-1.85 4.92-3.31a17.81 17.81 0 0 1 3.23-2.08 8.17 8.17 0 0 1 1.44-.81 9.24 9.24 0 0 1 2.95-.24c.36 0 .64.2.6.61a.52.52 0 0 1 -.68.51c-.21 0-.3.12-.43.21a8.57 8.57 0 0 1 -2.3 1.06 1.69 1.69 0 0 0 -.51.16c-1.35 1-3.11 1.5-4.26 2.82-.4.47-1 .62-1.41 1-.68.56-1.41 1.07-2.08 1.65-.41.35-1.06.2-1.42.67-.83.11-1.51.68-2.34.8a.89.89 0 0 0 -.53.26.67.67 0 0 1 -1.05 0c-.06-.09 0 0 0-.06-.59-.81-.59-.81.17-1.38z" fill="#696969"/><path d="m16.41 46.47c1.34-.79 2.37-2 3.8-2.67a9.27 9.27 0 0 0 2.19-1.8c.18-.16.31-.44.56-.49 1.57-.28 2.63-1.75 4.3-1.84.76 0 1.11-.88 1.89-1 .29 0 .05-.46-.13-.68.75-.24 1.33-.13 1.52.77a.49.49 0 0 1 -.33.71c-1 .29-1.72 1-2.72 1.25-1.17.59-2.37 1.13-3.52 1.75a19.41 19.41 0 0 0 -3.34 2.44c-1 .85-1.89 1.9-3.31 2.14a2.84 2.84 0 0 0 -.89.4c-.21.11-.41.32-.7.15-.43-.62-.41-.7.26-.92a1.54 1.54 0 0 0 .42-.21z" fill="#5c5c5c"/><path d="m12.76 46.31c-.48.47-.15.85.15 1.22.09.73 0 .85-.75.91a4 4 0 0 1 -.36-.17 3 3 0 0 0 .31.15.43.43 0 0 1 .25.23 1.69 1.69 0 0 1 0 .23 1.93 1.93 0 0 1 -1.87 1.21 5.55 5.55 0 0 0 -.8.13 5.1 5.1 0 0 0 -.77-.11c-.86 0-1.66-.08-2-1.08-.18-.47-.65-.25-1-.08-.72.34-.89.29-1.23-.44.05-.13.12-.25.18-.38a8.5 8.5 0 0 1 3.8-.64c.3 0 .51-.16.76-.25.22.53.55.25.87.12a16.36 16.36 0 0 1 2.46-1.05z" fill="#646464"/><path d="m31 38c.16-.52.65-.47 1-.46a7.07 7.07 0 0 1 2.49.45c-.07.7-.65.57-1 .55a3.52 3.52 0 0 0 -1.25.1 1.05 1.05 0 0 1 -1.2-.34z" fill="#505050"/><path d="m17.56 43.24a27.37 27.37 0 0 0 2.21-1.94c.16-.12.37-.3.54-.13s0 .46-.16.58a8.37 8.37 0 0 1 -2.59 1.49z" fill="#646464"/><path d="m62.3 17.45a2.2 2.2 0 0 1 -.13 1.69 1.27 1.27 0 0 1 .13-1.69z" fill="#5c5c5c"/><path d="m4.86 48.13c.07.11.15.21 0 .31 0 .33-.18.65-.49.7a5.63 5.63 0 0 0 -2.17 1.19c-.1 0 .1.05 0 0s0 0 0-.05a2.64 2.64 0 0 1 2.51.46c.42.25.3.66-.18.89a4.47 4.47 0 0 1 -1.92.24 1.63 1.63 0 0 1 -1.32-.67l-1.29-.78a1.09 1.09 0 0 1 .82-.89 28.8 28.8 0 0 1 4.04-1.4z" fill="#5e5e5e"/><path d="m94.49 33.25c.46-.23.52.12.42.38-.52 1.34-.26 2.8-.69 4.15-.06.18-.23.38 0 .56s.34 0 .5 0a8.29 8.29 0 0 1 1.6-.34c.12.27 0 .43-.26.52s-.29.28-.18.51c.12.43 0 .78-.44.89-.29.06-.3.33-.48.46s-.38.4-.7.31c-.12 0-.32 0-.33.08-.12.73-.77 1.28-.61 2.1.08.4-.23.73-.43 1.06a2 2 0 0 0 -.34.68 16.94 16.94 0 0 1 -2.44 4.65c-.16.26-.37.55-.72.38s-.32-.48-.2-.78c.06-.14.07-.29.14-.42a.8.8 0 0 1 .47-.56c.47-.68.51-1.54.95-2.23a11.62 11.62 0 0 0 1.12-2.9 39.62 39.62 0 0 1 1.31-4.56c.19-.39-.24-.85.09-1.25a3 3 0 0 0 .3-1.16 6.48 6.48 0 0 1 .92-2.53z" fill="#5b5b5b"/><path d="m119.71 38.11c.37-.51-.42-.38-.39-.73.19-.28.49-.18.74-.12a19.67 19.67 0 0 1 3.76 1 13.21 13.21 0 0 1 3.79 2.15 4.26 4.26 0 0 0 1.67 1 30.57 30.57 0 0 1 3.19 1.59c.17.08.52.18.34.47s-.42.06-.61 0-.62-.35-.93-.51c-.15-.08-.32-.25-.47-.05s.07.26.16.38l.45.61c-.08.3-.3.32-.52.2-.63-.35-1.38-.36-2-.7-1.75-.75-3.28-2-5.14-2.5a3 3 0 0 1 -.75-.36c-.28-.26-.84-.13-.94-.65.47-.88.19-1.34-1-1.62.57.19.7.58.33 1a3.22 3.22 0 0 1 -.41.32c-.64 0-1.27-.22-1.91-.18a1.91 1.91 0 0 0 -.82-.06c-.24-.07-.3-.26-.34-.46a1.36 1.36 0 0 0 .4-.63c.08-.44.33-.45.66-.29.17.38.48.12.74.14z" fill="#6a6a6a"/><path d="m94.19 40.39c.91-.32 1.32-.9 1.07-1.52a3.2 3.2 0 0 1 1.81-.61l.16.3a6.28 6.28 0 0 0 .48 1c.29.36.18.74-.34.89a2.31 2.31 0 0 1 -1 .14 1.16 1.16 0 0 0 -1.28.93 54 54 0 0 1 -2.65 6.34 2.57 2.57 0 0 1 -1 1.21 3.31 3.31 0 0 0 -.79.91 2.36 2.36 0 0 1 -.82.87c-.68.08-1.35.23-2 .28-.42 0-.72-.23-.42-.73 0-.81.78-.85 1.18-1.25.25-.23.63-.31.75-.71 0-.12.2-.11.32 0l-.09.72c1-1.6 2.33-3 2.69-5a1.33 1.33 0 0 0 1.08-1.32c-.05-.88.59-1.55.64-2.38-.05-.07.11-.08.21-.07z" fill="#656565"/><path d="m103.15 37.2a13.13 13.13 0 0 1 1.76-.38c.41-.06.75-.19.82.41 0 .21.3.43.37.11.17-.82.83-.46 1.12-.4 1 .22 2-.32 2.94-.36.09 0 .17-.09.25-.14.26.88.87.16 1.26.3a12.44 12.44 0 0 0 2.09.17 8 8 0 0 0 2.18.19.93.93 0 0 1 .37.06c.23.09.55.14.62.39s-.35.25-.43.46a.6.6 0 0 1 -.49.32 27.38 27.38 0 0 0 -4.05.15l-.22-.06a7 7 0 0 0 -2.58-.07 4.74 4.74 0 0 1 -2 0c-1.31-.26-2.51.34-3.78.4-.32 0-.64.11-1 .14a.73.73 0 0 1 -.52-.78c0-.39.29-.53.6-.63s.48-.21.69-.28z" fill="#686868"/><path d="m141.74 50.11c-.48.09-.67.57-1.06.77-.31-.41.28-.45.25-.68-.7.82-.75.83-1.22.06 0-.37.28-.56.55-.74s.28-.24.19-.44-.24-.12-.39-.13a2.93 2.93 0 0 1 -1-.1c-.88-.61-2-.84-2.81-1.54-.21-.18-.56-.26-.55-.64a.63.63 0 0 1 .13-.2c.12-.34.33-.37.62-.19s.8.49 1.21.71c.14.07.36.28.45-.07s.38-.21.61-.15.49.37.75 0c.48.21 1 .38 1.46.62a3.76 3.76 0 0 0 2.87.16 1.64 1.64 0 0 1 1.9 1.46 2.09 2.09 0 0 1 -.57.18 8.8 8.8 0 0 0 -3.39.92z" fill="#707070"/><path d="m103.15 37.2c0 .37 0 .65-.48.7s-.39.3-.09.53c.16.42-.18.46-.43.55-.64.21-1.28.45-1.9.71-.52-.26-1.07 0-1.55-.06.42 0 .75.09.46.66-.67.15-1.36.46-1.93-.21.12-.12.32-.15.07-.43s-.71-.69-.07-1.09c.28-.42.79-.5 1.17-.79a.39.39 0 0 1 .54.1c.06.09.19.3.24.14.21-.69.79-.42 1.12-.36.8.17 1.27-.69 2-.54.3.05.59-.05.85.09z" fill="#707070"/><path d="m138.7 46.77-.61.15a4.35 4.35 0 0 1 -1.51-1.11c-.09-.09-.19-.21-.11-.33s.26 0 .38.05z" fill="#6d6d6d"/><path d="m97.07 38.26c-.58.28-1.08.79-1.81.61.12-.58.75-.55 1-.91.29.13.62.04.81.3z" fill="#707070"/><path d="m119.71 38.11.42.25c-1 .12-1.14.07-1.18-.41a.69.69 0 0 1 .76.16z" fill="#6c6c6c"/><path d="m22.63 60.29 4.72 3.16a1.6 1.6 0 0 1 -1.48-.24c-.46-.27-1-.39-1.44-.64a14 14 0 0 1 -2.19-1.35c-1.53-1.22-3.43-1.83-5-3-1.89-1.36-4.26-2-5.79-3.9-.27-.34-.77-.47-1.13-.74-.52-.41-.46-.65.16-.93.16-.17.3-.27.57-.12a21.57 21.57 0 0 1 2.38 1.66 21.3 21.3 0 0 0 4.06 2.68 16.7 16.7 0 0 1 2.36 1.49c.75.51 1.62.79 2.33 1.36.2.2.48.28.45.57z" fill="#757575"/><path d="m5.77 52.67c-.21-.13-.49-.21-.62-.4a2.09 2.09 0 0 0 -2.27-.78 4.37 4.37 0 0 1 1.81-.3 3.8 3.8 0 0 0 -2-.75c-.2.25.23.25.12.47-.81.09-.96-.58-1.28-.91 1.13-.53 2.18-1.15 3.33-1.56.29.28.48.34.86 0a1 1 0 0 1 1.69.6.58.58 0 0 0 .67.55 2.06 2.06 0 0 1 .89.06c.21.43-.14.45-.38.46s-.47.06-.71.07a2.29 2.29 0 0 0 -.82.06c.12.23.39.21.56.35a.77.77 0 0 1 .13.42c0 .12-.14.26-.1.34.23.54-.07.48-.41.38s-.64-.19-.55.39c0 .23-.21.3-.44.23s-.51-.07-.48.32z" fill="#6e6e6e"/><path d="m22.63 60.29a45.17 45.17 0 0 1 -4.89-3 2.92 2.92 0 0 0 -1.47-.57c-.76-.07-1-.83-1.56-1.21-1.4-1-2.56-2.28-4.23-2.85a1 1 0 0 0 -.45-.45c-.36-.16-.71-.31-1.06-.49-.16-.09-.38-.2-.13-.44.25-.48.65-.28 1-.16.65.23 1.19.7 1.84 1a4.57 4.57 0 0 0 1.76 1.07c.61.63 1.51 1 1.88 1.84a.56.56 0 0 0 .33.22 5 5 0 0 1 2.19 1.35c.27.09.44.34.73.4s.45.55.87.44a17.47 17.47 0 0 1 2.56 1.56c.37.21.85.3.9.85l.19.28z" fill="#575757"/><path d="m15.38 58.3-.19-.3a3 3 0 0 1 1.69.52c1 .59 2 1.09 3 1.65a11.09 11.09 0 0 0 1.68 1.06.94.94 0 0 1 .44 1.33l-.5-.58c-.28.29-.47 0-.7-.1s-.38-.37-.66-.4c-1.93-.17-3.09-1.7-4.6-2.6a.43.43 0 0 1 -.16-.58z" fill="#6d6d6d"/><path d="m10 52.24c-.19.27-.39.53-.77.47a.15.15 0 0 1 -.12-.23c.22-.33.58-.2.89-.24z" fill="#6e6e6e"/><path d="m42.1 68.79a17.3 17.3 0 0 1 3.85.63 3.86 3.86 0 0 0 2 0 1.27 1.27 0 0 1 .92 0c-.33.18-.75.22-.93.62a14.66 14.66 0 0 1 -5.52-.52c-.85-.27-1.72.21-2.55-.33a15.12 15.12 0 0 1 2.23-.4z" fill="#5d5d5d"/><path d="m49.25 71c-.55-.49-.33-.74.27-.91a1.57 1.57 0 0 1 1.22 0c-.64 0-.7.93-1.37.92z" fill="#5d5d5d"/><path d="m62 66.67c-.27-.06-.43-.24-.24-.48a14 14 0 0 1 2-2.78c.18-.15.37-.4.62-.08a17.72 17.72 0 0 1 -2.38 3.34z" fill="#6f6f6f"/><path d="m59.24 74.72c-.15-.43-.39-.87.15-1.22.16.44.25.86-.15 1.22z" fill="#6a6a6a"/><path d="m90.1 57.86a15.21 15.21 0 0 1 2.84 4.41 6.7 6.7 0 0 0 1.06 1.44 2.28 2.28 0 0 1 .48.67c-.07.22-.22.46-.4.22-.47-.63-1.26-1-1.44-1.88-1-1.51-1.7-3.25-3-4.56v-.16l.16-.31c.2-.1.2.1.3.17z" fill="#555"/><path d="m90.1 57.86-.31-.16a10.5 10.5 0 0 1 -.6-4.05c.42.92 1.09 1.75.89 2.87-.59.48.01.89.02 1.34z" fill="#6d6d6d"/><path d="m133.52 60.59a9.11 9.11 0 0 0 1.25-2v-.12a12.8 12.8 0 0 0 1.85-4.35 4.29 4.29 0 0 1 .89-1.89 3.84 3.84 0 0 1 1-1.3c.49-.17.67-.91 1.35-.73.37.33.67.24 1-.13a1.7 1.7 0 0 1 1-.71c-.43.58-1 .86-1.2 1.47l-.46.6a6.29 6.29 0 0 0 -.52 1.68.64.64 0 0 1 -.28.52c-.58.51-.47 1.28-.67 1.93-.27.91-.78 1.7-1.11 2.57l-.15.16c-.18.3-.17.65-.32 1s-.59.34-.7.71-.61 0-.8.3c-.06.08-.12.08-.17 0l-.15-.31c-.37-.2-.24-.41 0-.66a7.56 7.56 0 0 0 1.13-1.53 11.06 11.06 0 0 0 1.42-2.91 15.53 15.53 0 0 1 -2.9 4.93c-.17.2-.3.54-.68.47z" fill="#6a6a6a"/><path d="m134.29 60.29c1-1.6 2.34-3 2.92-4.86.13-.41.26-.82.41-1.22.07-.18.15-.42.4-.39s.34.29.35.52a4.34 4.34 0 0 1 -.73 2.2 39.55 39.55 0 0 1 -2.28 3.46l-.15.15c-.16.12-.39.09-.53.27s-.29 0-.39-.12z" fill="#7e7e7e"/><path d="m135.51 60.3h.17c-.09 1-.15 1.07-.91.91.23-.3.5-.6.74-.91z" fill="#848484"/><path d="m134.29 60.29.92-.15-.48.48c-.14.13-.3.38-.49.26s.05-.38.05-.59z" fill="#6a6a6a"/><path d="m139.31 53.61v.45a20.7 20.7 0 0 1 -1 3.22 2.34 2.34 0 0 1 -.65.9c0-1.22 1-2 1.14-3.21a1.71 1.71 0 0 1 .51-1.36z" fill="#7e7e7e"/><path d="m78.69 57.1c-.65-1.34-.1-2.62.23-3.91 0-.14.11-.32.29-.3s.31.26.32.46a8.29 8.29 0 0 1 -.2 2.33 5 5 0 0 0 -.19 1.32c-.14.1-.22.27-.45.1z" fill="#717171"/><path d="m81.12 51.94c-.65-.2-1.18-.84-2-.53-.14.06-.2-.24-.29-.39.09-.81.09-.81.77-.33.19-.23-.08-.83.59-.69.19 0 .16-.32.15-.51 0-.45-.09-.9-.14-1.35a3.65 3.65 0 0 1 .42 2c0 1.19.06 1.28 1.26 1.58a1.58 1.58 0 0 1 -.76.22z" fill="#6b6b6b"/><path d="m78.23 51.47a1.16 1.16 0 0 0 -.91-.13c-.22-.41.24-.82 0-1.23a3.35 3.35 0 0 1 .08-1 3.18 3.18 0 0 0 -.29-2.35.4.4 0 0 1 .14-.64c.29-.15.32.12.39.3s.2.18.35.23a1 1 0 0 1 .42 1.35c-.13.19-.24.28-.1.57a2.08 2.08 0 0 1 -.07 2z" fill="#6e6e6e"/><path d="m75.81 49.66h-.23c-.28 0-.64.05-.76-.32-.06-.17.12-.26.26-.31s.51-.3.77-.1.09.5 0 .74z" fill="#656565"/><path d="m75.65 51.18a1 1 0 0 0 -1.06-.77c.3-.45.61-.81 1.06-.15z" fill="#656565"/><path d="m76.6 49.35a1 1 0 0 1 -.07-1 1 1 0 0 1 .07 1z" fill="#555"/><path d="m77.9 54.89a2.45 2.45 0 0 1 -.48-1.89c0-.16.07-.31.26-.31s.23.16.28.3a4.83 4.83 0 0 1 -.06 1.9z" fill="#616161"/><path d="m67 52.37.13-.74a2.44 2.44 0 0 1 1.06 1.52c-.46-.15-.65-.7-1.19-.78z" fill="#535353"/><path d="m16 47.24a20.32 20.32 0 0 0 -2.9 1.29 1.46 1.46 0 0 1 -.93.21l-.15-.3a.09.09 0 0 1 0-.1s0-.05 0-.05a1.3 1.3 0 0 0 .91-.76.33.33 0 0 0 .39-.15 1.18 1.18 0 0 1 1.21-.51c.66.08 1.22-.46 1.9-.4-.06.31-.89.19-.43.77z" fill="#5f5f5f"/><path d="m12 48.29v.15a.56.56 0 0 1 -.62-.33c-.1-.18-.43-.4-.22-.55a.92.92 0 0 1 1-.07c.3.23-.16.51-.16.8z" fill="#696969"/><path d="m94.19 40.39a11.86 11.86 0 0 1 -1.34 4.13c-.06.14-.16.29-.34.23s-.25-.34-.3-.56a1.88 1.88 0 0 0 .72-1.65 12.63 12.63 0 0 1 .68-2.54.25.25 0 0 1 .36-.18c.28.11.29.33.22.57z" fill="#717171"/><path d="m120.92 39.34c.56-.79-.32-1-.69-1.43a4.63 4.63 0 0 1 3.21 1.3l-1.15.57c-.38.26-.74.55-1.22.12-.23-.19-.29-.32-.15-.56z" fill="#5b5b5b"/><path d="m123.92 39.25a6.89 6.89 0 0 1 2.93 1.89 10.38 10.38 0 0 1 -2.93-1.89z" fill="#5a5a5a"/><path d="m100.14 39.36a1.25 1.25 0 0 1 -1 .6l-.61-.05c-.3 0-.6-.18-.56-.49s.38-.12.57-.11c.51.05 1.07-.21 1.6.05z" fill="#656565"/><path d="m138.73 52.24c.22-.89.29-1 1.06-1.26-.15.61-.2.67-1.06 1.26z" fill="#707070"/></svg>