<svg viewBox="0 0 94.26 84.33" xmlns="http://www.w3.org/2000/svg"><path d="m70.82 3.56c-.44.31-1.16.61-1.39.11a4.41 4.41 0 0 1 -.55-1.51.92.92 0 0 1 .54 0 1.93 1.93 0 0 0 1.23 0c.88-.28.21.84.17 1.4z" fill="#707070"/><path d="m30.28 2.16c-.32.12-3.73 1-4.05 1.08a12.39 12.39 0 0 0 -2.39 1.19c-.17.1-.41.29-.59.06s.05-.46.22-.6a9.4 9.4 0 0 1 2.28-1.26 5.36 5.36 0 0 1 1.7-.55c.26 0 2.64.04 2.83.08z" fill="#969696"/><path d="m0 0h94.26v84.33h-94.26z" fill="none"/><path d="m9.77 32.59a5 5 0 0 0 -1.91-1.06 19.77 19.77 0 0 0 -2.55-1.85 4.24 4.24 0 0 1 -2.31-2.74 9.4 9.4 0 0 1 -.18-3.38 8.17 8.17 0 0 1 .3-.87 1.65 1.65 0 0 0 0-.88.92.92 0 0 1 .14-.8c.35-.11.35.15.38.36a1.7 1.7 0 0 0 .6 1.17c.3.66-.07 1.34 0 2a4.64 4.64 0 0 0 .2 1.05 6.33 6.33 0 0 1 .28 1.14 1.18 1.18 0 0 0 .36.76 9.89 9.89 0 0 0 1.82 1.21c.51.37 1 .75 1.49 1.17a4.45 4.45 0 0 0 2 1c.5.24 1.1.38 1.18 1.08 0 .06 0 .14-.06.16-.46.15-.58.58-.82.93a4.9 4.9 0 0 1 -.92-.45z" fill="#6e6e6e"/><path d="m.43 13.54a1 1 0 0 1 1.28-.46c1.7.25 3.42.86 5.05-.3.58-.42 1.38-.4 1.92-.91a.34.34 0 0 1 0 .1c.46.33.82 0 1.21-.17a.71.71 0 0 1 1 .47c-.12.4-.43.35-.73.32a10 10 0 0 0 -1.5.65 4.08 4.08 0 0 1 -1.1.37l-.4.13c-.43.29-1 .36-1.38.72s-.67.15-1 .11a3.14 3.14 0 0 1 -1.44-.25c-.36-.19-.67 0-.76.46-.11.59-.34.68-.79.3a4.16 4.16 0 0 1 1.4 1.63.77.77 0 0 0 -.39-.61c-.52-.39-.52-.55-.3-1.11.13-.34.29-.31.54-.18a1.31 1.31 0 0 1 .76.7 8 8 0 0 1 .77 5.2c-.07.48-.13.95-.17 1.42 0 .19 0 .43-.29.41-.54 0-.56-.43-.69-.76a2.29 2.29 0 0 1 -.05-.7 6.54 6.54 0 0 0 -3.03-6.18.56.56 0 0 1 -.19-.9c.1-.15.19-.31.28-.46z" fill="#626262"/><path d="m13.47 10.75a.74.74 0 0 0 .32-.89 2.66 2.66 0 0 1 .39-2.35 17.09 17.09 0 0 1 1.75-2.78 3.22 3.22 0 0 1 3.07-.79.5.5 0 0 1 -.28.84 2 2 0 0 0 -.95.76s-.05.13-.1.15c-.8.25-1.14 1-1.67 1.54a2.78 2.78 0 0 0 -.72 2.14c0 .48.47.6.9.61h2.56c.21 0 .51-.1.55.28-.2.45-.63.38-1 .4-.19 0-.38 0-.55.08-.35.11-.64-.14-1-.15a8.27 8.27 0 0 0 -2.74.41c-.16 0-.29.07-.42-.05a.32.32 0 0 1 -.11-.2z" fill="#7b7b7b"/><path d="m10.74 12.11a1.46 1.46 0 0 0 -1.18.19c-.44.31-.73.18-.87-.33l.23-.12a3.58 3.58 0 0 1 2.14-.59 1.82 1.82 0 0 1 .52 0c.49.13.6.53.26.94-.27.19-.57 0-.85.08-.11 0-.17-.1-.25-.17z" fill="#545454"/><path d="m11 11.38a6 6 0 0 0 -2.05.47 1.89 1.89 0 0 1 1.49-.64c1-.13 2-.27 3.06-.46v.05c.14.34-.12.42-.34.48a2.76 2.76 0 0 1 -1.56.08.77.77 0 0 0 -.6.02z" fill="#7b7b7b"/><path d="m86.08 14.49.72-.25c.14-.3.29-.6.72-.51a.29.29 0 0 0 .31-.11 1.56 1.56 0 0 1 1.38-.56 23.47 23.47 0 0 1 2.31-.55c.23 0 .45-.17.69 0 .46.22 1-.19 1.43.11 0 .48-.33.65-.74.87a12.61 12.61 0 0 0 -2.9 1.7 2 2 0 0 0 -.43 1.39c-.33.24-.08.54-.07.81s.25.65-.24.8c-.46 0-.69-.44-1.06-.63a.31.31 0 0 1 0-.19.56.56 0 0 1 .07-.16c.14-.15.16-.28-.07-.36a.48.48 0 0 1 -.32-.52 2.34 2.34 0 0 1 .81-1.65 3.78 3.78 0 0 1 -2.64.7c-.38-.38-.05-.61.03-.89z" fill="#828282"/><path d="m48.29 74.51a5.5 5.5 0 0 0 -1.67-.89 1.55 1.55 0 0 0 -.71-.53 10.48 10.48 0 0 1 -3.64-2.24 10.9 10.9 0 0 1 -3-3.63 3.1 3.1 0 0 0 -.13-.4c-.08-.16-.14-.36.08-.46a.4.4 0 0 1 .53.15 10.44 10.44 0 0 1 1.36 2c-.36-.6-.31-1.08.25-1.3l.15.06c.1.05.22.08.27.21.21.55.78.78 1.12 1.21a3.86 3.86 0 0 0 1.23 1c.43.34 1 .52 1.31 1a4.27 4.27 0 0 0 2.3 1.19 2 2 0 0 1 .52.27.63.63 0 0 1 .12.11 3.91 3.91 0 0 0 1.93 1c.17.09.33.21.5.29a21.24 21.24 0 0 1 2.76 1.33l.26.19a12.25 12.25 0 0 1 1.24.9.29.29 0 0 1 .19.18 1.32 1.32 0 0 0 .38 1.3c.21.17.17.52.35.74a1.5 1.5 0 0 0 .87.67c.14 0 .27.08.28.26s-.14.16-.22.23a1.22 1.22 0 0 1 -1.23.16c-.43-.24-.43-.7-.56-1.09s-.7-.37-1-.69a7.61 7.61 0 0 0 -2.13-1.41c-.3-.21-.66-.27-1-.46l-.15-.08a11.39 11.39 0 0 0 -2.56-1.27z" fill="#4b4b4b"/><path d="m28 63.56-1.42-1.56a4.76 4.76 0 0 1 -1.31-2.48 2.3 2.3 0 0 1 .57-1l.84-.61a.6.6 0 0 1 .45-.1 1 1 0 0 1 1 1.18 1.28 1.28 0 0 0 0 .7 1.23 1.23 0 0 0 .21.37 1.13 1.13 0 0 1 .1.13 2.3 2.3 0 0 0 .79.76c.24.13.3.44.43.67s.3.26.36.45c.05.42-.09.9.35 1.2.09.07.21.23.29.09.38-.62.75-.07 1.11 0s.38.28.63.31a16.77 16.77 0 0 0 2.38.93 3.26 3.26 0 0 0 1.45.18.55.55 0 0 1 .36 0c.36.14.8.26.84.73s-.61.92-1.08.92h-.47a4.84 4.84 0 0 0 -2.53-.74 5.5 5.5 0 0 1 -1.59-.47 3.53 3.53 0 0 0 -1.21-.48 5.31 5.31 0 0 1 -2.55-1.18z" fill="#4a4a4a"/><path d="m41.46 67.41c-.45.47-.19.9.07 1.34.09.16.34.34.13.5s-.33-.13-.44-.27a19.18 19.18 0 0 0 -1.86-2.27c-.17.15-.06.34-.09.51l-.81-1.52c-.39 0-.37-.39-.49-.64.27-.84-.31-1.64-.12-2.47 0-.11.07-.21.19-.19s.22.24.21.37c.09-.2-.13-.38-.16-.61s0-.35.15-.45a.38.38 0 0 1 .49 0 1.17 1.17 0 0 1 .47.75 1.52 1.52 0 0 0 1.06 1.59 3.32 3.32 0 0 0 .44 1.44.41.41 0 0 0 .26.11c1-.49.78-1.65 1.35-2.38.14-.16 0-.64.08-1s.1-.85.59-1a3.87 3.87 0 0 0 .59-.48c.17-.15.35-.29.57-.2s.25.38.24.62a3.89 3.89 0 0 1 -.09.47 1.42 1.42 0 0 1 -.14.36 6.4 6.4 0 0 0 -.71 2 11 11 0 0 1 -1.75 3.32c-.05.11-.14.11-.23.1z" fill="#535353"/><path d="m38.55 67.07a1.2 1.2 0 0 1 -1.08 1.08 1.07 1.07 0 0 1 -.94-.92c0-.32.89-1 1.29-1a.77.77 0 0 1 .73.84z" fill="#444"/><path d="m32.47 63.69c-.37 0-.65-.29-1-.35-.16 0-.42-.13-.27.23.05.13.27.28 0 .38a.62.62 0 0 1 -.61-.08 1.42 1.42 0 0 1 -.69-1.73c.09-.07.15 0 .2.06.06.79.71.77 1.25.88a3.44 3.44 0 0 1 1.12.61z" fill="#585858"/><path d="m31.38 63.08h-.29c-.95.11-.95.11-1-.85.36.14.55.53.94.63l.25.08z" fill="#787878"/><path d="m14 34.54c-.3-.32-.72-.11-1.06-.25s-.4 0-.6 0c-.42-.52-1.15-.69-1.47-1.31h-.09c-.11-.23-.38-.41-.18-.73s.57-.25.89-.21c.49-.11.82.24 1.21.4a1.07 1.07 0 0 0 .5.14c.51.07 1 .12 1.29.68a.67.67 0 0 0 .53.32.85.85 0 0 1 .63.66c-.21.59-.8.55-1.26.69-.28.07-.3-.27-.39-.39z" fill="#515151"/><path d="m5.09 27.7a2.71 2.71 0 0 0 1.32-1.56 2.94 2.94 0 0 1 .43-1.71c.12-.11.22-.25.41-.24.35.12.17.38.12.58a1.1 1.1 0 0 0 0 .78c0 .11 0 .25-.08.34-.34.74-.67 1.48-1 2.2s.33.65.55.93c-.9-.1-1.18-.9-1.75-1.32z" fill="#909090"/><path d="m20.09 53.38a7.77 7.77 0 0 0 -1.8-1c-.29-.16-.6-.3-.88-.48a3.8 3.8 0 0 0 -2.13-.33c-.25 0-.31.33-.47.49a.45.45 0 0 1 -.35-.63c.12-.32-.07-.4-.23-.56-.42-.43-.4-.79.1-1.13a2.06 2.06 0 0 0 .41-.32c.56-.69.56-.69 1.37-.3a1.23 1.23 0 0 1 .08.33c0 .58.51.52.87.65a6.68 6.68 0 0 1 2.66 1.06c1.38.86 2.87 1.54 4.22 2.46a5.53 5.53 0 0 1 1.68 1.44c.13.12-.51.16 0 .29a1 1 0 0 1 .45.28.93.93 0 0 0 .75.35.83.83 0 0 1 .47.16c.17.12.46.21.36.5s-.38.24-.62.19-.45-.15-.67 0c-.2 0-.45.07-.59 0-.76-.53-1.67-.78-2.42-1.31-.08-.06-.14-.16-.23-.19-1.21-.4-1.95-1.44-3.03-1.95z" fill="#676767"/><path d="m26.33 56.84-.42-.48c.47-.16.85.32 1.43.08a7.94 7.94 0 0 1 -2.72-1.62c.32 0 .56.25.88.22h.08c.13 0 .28-.09.37 0 .22.36.61.36.95.5h.38a5 5 0 0 0 1.26.31 2.17 2.17 0 0 1 1.06.5.74.74 0 0 1 -.41 1.12c-.44.17-.87.33-1.29 0-.12-.11-.29-.1-.43-.14s-.27-.19-.42-.25z" fill="#5c5c5c"/><path d="m15.89 49.3a.61.61 0 0 0 -1 .23 2 2 0 0 1 -.41.42c-.16.14-.3.29-.2.51a.41.41 0 0 0 .54.25c.17 0 .39-.14.48.07s-.15.29-.3.36c-.42.22-.15.61-.23.91a.83.83 0 0 1 -1 .54c-.64-.07-1.2-.5-1.89-.39-.12 0-.17-.15-.21-.26.82-1 1.81-1.76 2.71-2.64a7 7 0 0 0 .9-1.3c.09-.15.23-.34.17-.48-.28-.68.27-1 .58-1.36s.4-.92.95-1a.46.46 0 0 1 .06.82 2.92 2.92 0 0 0 -.62.76.78.78 0 0 0 .1-.15c.14-.22.2-.59.55-.54s.14.47.29.67c-.11.63-.54 1.17-.46 1.85 0 .1-.07.23-.16.23-.43-.09-.55.33-.85.5z" fill="#5e5e5e"/><path d="m10.82 33a4.61 4.61 0 0 0 1 .33c.41 0 .39.49.6.73a5.16 5.16 0 0 0 -.64 1.39.9.9 0 0 0 -.62 1.1 1.17 1.17 0 0 1 .3-.19.62.62 0 0 1 -.19.84.49.49 0 0 1 -.55.12c-.35-.15-.33-.46-.34-.76a8.43 8.43 0 0 1 .44-3.56z" fill="#636363"/><path d="m11.45 36.35a1.12 1.12 0 0 1 -.31.69.28.28 0 0 1 -.37.06c-.14-.08-.29-.24-.21-.38a4.82 4.82 0 0 0 .56-1.65c0-.14.13-.34.31-.29s.22.38.26.6-.11.35-.22.5z" fill="#585858"/><path d="m14.21 34.9-.21-.13c0-.08 0-.15 0-.23.54.26.91-.15 1.33-.35.32 0 .8.33.8.62s-.35.32-.6.39a1.07 1.07 0 0 1 -1.32-.3z" fill="#666"/><path d="m45.9 1.89a.52.52 0 0 1 -.13.38 1.28 1.28 0 0 0 -.2.26l-.13.23c-.23.25-.35.61-.71.75-.58 0-.7-.14-.61-.66a1.47 1.47 0 0 0 -.12-1.07" fill="#5b5b5b"/><path d="m44 1.78a1.33 1.33 0 0 1 .26.88.6.6 0 0 0 .58.67l.06.1a.84.84 0 0 1 -.24.52c-.18.19-.36.43-.68.28a.54.54 0 0 1 -.36-.68c.15-.22.15-.52.39-.69a1.67 1.67 0 0 0 -.01-1.08z" fill="#6c6c6c"/><path d="m45.53 2 .37-.12c.33.06.61-.22 1-.11-.35.45-.14.85.13 1.25a.41.41 0 0 0 .18.13c.5-.47 1.19.35 1.67-.26h.17c.56 0 .72.23.84.79a4 4 0 0 0 2.11 2.66.59.59 0 0 0 .75-.15 4.42 4.42 0 0 1 .54-.52 17.86 17.86 0 0 0 1.41-1.34.42.42 0 0 1 .3-.19 4 4 0 0 0 1.54-.61 2.4 2.4 0 0 1 .69-.26c.32 0 .73-.3.91.12s-.14.61-.54.78a.24.24 0 0 0 -.13.18 1 1 0 0 1 -.82.9 1.17 1.17 0 0 0 -.37.3c-.44.41-1 .71-1.22 1.33-.08.12-.16.23-.23.36a1.46 1.46 0 0 0 -.17 1.1c-.07.1-.19.15-.24.26-.49.11-.54.06-.5-.67a.68.68 0 0 0 -.49.44c-.25.64-.72.64-1.24.16-.29-.26-.56-.81-1.14-.45a2.78 2.78 0 0 1 -1.12-1c0-.49-.24-.63-.68-.54a.44.44 0 0 1 -.43-.16 5.43 5.43 0 0 0 -1.13-.95 1.79 1.79 0 0 0 -1.17-1.09c-.09 0-.21-.08-.24-.16a12.9 12.9 0 0 0 -1-1.53v-.28c.1-.11.23-.2.25-.37z" fill="#5f5f5f"/><path d="m57.77 3.12 3.58-.51c.33 0 .63-.28 1-.11a1.81 1.81 0 0 0 1.27.85 3.58 3.58 0 0 1 .55.19.29.29 0 0 1 0 .16c-.26.22-.65.24-.84.57a.23.23 0 0 1 -.16 0c-.06 0-.14 0-.17-.06-.43-.69-1.05-.6-1.73-.49a13.38 13.38 0 0 0 -2.48.6 5.39 5.39 0 0 0 -2.07 1.07.53.53 0 0 1 -.47.2.18.18 0 0 1 -.11-.14c.35-.57.95-.94 1.34-1.49.11-.15.4-.24.31-.45s-.39 0-.59-.1c-.04-.41.27-.36.57-.29z" fill="#717171"/><path d="m89.21 18a1.68 1.68 0 0 0 .07-.94c0-.23-.1-.5.29-.5a7.7 7.7 0 0 0 .27 1.57 13.37 13.37 0 0 1 -.06 2.9 3.52 3.52 0 0 0 .14 1.37 3 3 0 0 1 .13 1.12c-.33.09-.21.4-.18.55a5.68 5.68 0 0 1 -.38 3.13 7.2 7.2 0 0 1 -.55 1.56c-.51.88-.56 2-1.27 2.76-.3.33-.76.31-1 .62-.09.09-.25-.06-.33-.19a.52.52 0 0 1 .16-.5c.36-.43.3-1.05.7-1.46a3.13 3.13 0 0 0 .7-1.6c.26-1.05.57-2.08.77-3.15a.92.92 0 0 0 0-.66 3.56 3.56 0 0 1 -.28-2.15c0-1 .1-2.06.14-3.09a2.17 2.17 0 0 1 .68-1.34z" fill="#7b7b7b"/><path d="m86.47 31.9a3.27 3.27 0 0 0 1.88-2.51c.08-.42.48-.79.62-1.26s.14-.62-.24-.81a2.43 2.43 0 0 0 1-2.43c0-.69-.13-1.37-.21-2.13.42.18.36.53.51.74 0 .44.1.88.16 1.32v.11c-.11.48.07 1-.24 1.44a9.33 9.33 0 0 1 -1.13 3.1 3.58 3.58 0 0 0 -.19.75.48.48 0 0 0 0 .56.65.65 0 0 1 -.22 1c-.11.07-.17.21-.31.26s-.29.38-.56.39a.81.81 0 0 0 -.76.36c-.5.58-.61.58-1-.08.07-.25-.11-.56.21-.73a2.17 2.17 0 0 1 .48-.08z" fill="#717171"/><path d="m2.94 15a.57.57 0 0 0 0 1 1.58 1.58 0 0 1 .6 1.61.73.73 0 0 1 -.54-.61c-.07-.67-.6-1-1-1.49a2.13 2.13 0 0 1 -.65-1c.32 0 .42.26.61.39s.23.2.37.07 0-.22 0-.32-.26-.39 0-.59a.59.59 0 0 1 .55-.06 8.3 8.3 0 0 0 1.85.43c-.24.24-.54.15-.83.15s-.78-.05-.96.42z" fill="#6d6d6d"/><path d="m11 11.38 1.89-.38a4.44 4.44 0 0 0 .61-.22 1.38 1.38 0 0 0 .42-.21.72.72 0 0 1 .88-.23 5.63 5.63 0 0 0 1.35 0 3.78 3.78 0 0 1 1.42.1c.06.09.17.1.25.15.44.21.49.4.13.73a1.07 1.07 0 0 0 -.31.42 3.4 3.4 0 0 1 -1.64.16 14.71 14.71 0 0 0 -2.88.27 4.14 4.14 0 0 1 -1.11.1c-.17 0-.38 0-.3-.29 0-.47-.06-.53-.71-.6z" fill="#5e5e5e"/><path d="m17.46 11.5c-.13 0-.28 0-.41-.13.2-.19.51-.08.68-.29s-.12-.44-.16-.67a3 3 0 0 0 1.56-.24 3.12 3.12 0 0 1 1.08.23c.34.44.91.12 1.3.38a5.48 5.48 0 0 0 1.49.12 1 1 0 0 1 .25.15c.15.14.33.28.28.53s-.28.22-.46.27a6.5 6.5 0 0 1 -1.46.07c-1.21 0-2.42-.14-3.63-.09-.3.01-.41-.14-.52-.33z" fill="#575757"/><path d="m21.51 10.78c-.46 0-1 .12-1.3-.38l1.31.26s-.01.08-.01.12z" fill="#656565"/><path d="m11.68 12a4 4 0 0 0 1.32 0 .83.83 0 0 1 -.28 1 1.12 1.12 0 0 1 -.39.13l-.09.07a1.27 1.27 0 0 0 -.12.39 1.49 1.49 0 0 1 -.22.74 6.37 6.37 0 0 0 -.71 1.94 3.44 3.44 0 0 0 -.28.69 8 8 0 0 1 -.43 1.59 6 6 0 0 0 -.42 1.23c0 .17-.1.26-.2.35a1.18 1.18 0 0 0 -.42 1.43.5.5 0 0 1 -.1.51 11.65 11.65 0 0 0 -.88 1.53.41.41 0 0 1 -.13.1c-.18.1 0 .22 0 .34a.55.55 0 0 1 -.07.24 1.34 1.34 0 0 0 -.71.95.45.45 0 0 1 -.3.34c-.36 0-.31-.2-.23-.43s.15-.52.23-.78a.76.76 0 0 1 0-1 8.78 8.78 0 0 0 .56-1.71 13.67 13.67 0 0 1 .63-2 2.17 2.17 0 0 0 .29-1.11 4.8 4.8 0 0 0 .61-2 1.16 1.16 0 0 1 .19-.61 3.55 3.55 0 0 0 .61-1.25c.08-.21.09-.56.49-.39a6.74 6.74 0 0 1 .55-.84.87.87 0 0 0 -.18-1.35 1.44 1.44 0 0 1 .68-.1z" fill="#858585"/><path d="m73.46 62.61a2.29 2.29 0 0 1 -1.16-.11c-.16-.18 0-.29.09-.4a5.42 5.42 0 0 0 1.12-1.36 2.27 2.27 0 0 1 .64-.67 5.68 5.68 0 0 0 .48-1.6.34.34 0 0 1 .12-.12 2.08 2.08 0 0 0 .5-.48.6.6 0 0 1 .12-.24c.52-.26 1-.71 1.64-.65.63.33.68.57.24 1.11-.7.85-1.14 1.87-1.75 2.77a3.48 3.48 0 0 1 -2.04 1.75z" fill="#676767"/><path d="m69.27 65.84a1 1 0 0 0 -.28.57 10.12 10.12 0 0 1 -1.38 3c-.16.2-.37.35-.6.17s-.08-.41 0-.59a7.74 7.74 0 0 0 .39-1.35c.08-.27.19-.52.28-.78.23-.44 0-.93.12-1.39a6.74 6.74 0 0 0 .55-2.3 18.89 18.89 0 0 0 -.09-2.71c-.06-.41-.33-.74-.36-1.15a.53.53 0 0 1 0-.28c.47-.36.6.08.71.36a6.83 6.83 0 0 1 .43 2.1 4.35 4.35 0 0 0 .16 1.6.35.35 0 0 1 0 .34 1 1 0 0 0 .22 1.42.47.47 0 0 1 -.15.36z" fill="#626262"/><path d="m68 66.93c0 .77-.56 1.34-.7 2.07-.07.33-.13.58.35.46-.36.44-.58 1-1.1 1.31a2.64 2.64 0 0 1 -1.3.6c-.21-.23-.54.08-.74-.18-.47-.34-.22-.83-.25-1.26 0-.17.12-.29.32-.27s.2.14.25.28c.22.6.22.59.77.26a2.23 2.23 0 0 0 .73-.67 8.21 8.21 0 0 0 1.19-2.15c.04-.2.05-.55.48-.45z" fill="#797979"/><path d="m55.69 79.43c.38 0 .79.06 1.16-.24a1.49 1.49 0 0 1 -1.31-1.19.64.64 0 0 0 -.17-.37 1.07 1.07 0 0 1 -.37-1.46c.28-.27.52 0 .78.06a.5.5 0 0 1 .4.38.77.77 0 0 0 .87.65c.78-.12 1.67-.22 2.06-1a12.78 12.78 0 0 1 1.28-1.78 28.4 28.4 0 0 1 2.22-2c.25-.19 1.84-1.45 2.11-1.39.1 0 .56-.08.52 0-.07.28 0 0 0 .31a11.27 11.27 0 0 1 -2.7 2.3c-.67.16-.93.72-1.14 1.3a5.46 5.46 0 0 0 -1.25 3.15 1.18 1.18 0 0 1 -.74.93c-.63.31-1.23.75-2 .32-.2-.12-.42 0-.63.08a1 1 0 0 1 -1.09-.05z" fill="#525252"/><path d="m86.08 14.49c.15 0 .35 0 .41.16s-.19.19-.27.32-.09.17-.13.25c-.2.2-.39.42-.61.6a1.36 1.36 0 0 1 -1 .18.92.92 0 0 0 -.68.17 2.18 2.18 0 0 1 -1.88.18 3 3 0 0 0 -1.39-.08 3.21 3.21 0 0 1 -1.68-.27.38.38 0 0 1 -.23-.18c0-.12 0-.3.09-.31.62-.06.86-.59 1.24-.95.09 0 .19 0 .26.07a11.14 11.14 0 0 0 5.87-.14z" fill="#737373"/><path d="m88.48 22.43c0-.16-.11-.33-.06-.46.32-1 0-1.93.14-2.89.08-.58-.28-1.12-.17-1.7.28.2.7.18.82.6 0 .71-.63 1.26-.51 2a6.22 6.22 0 0 1 -.22 2.45z" fill="#868686"/><path d="m90 14a1.17 1.17 0 0 1 1-.91 2.34 2.34 0 0 0 .53 0c.3 0 .3.21.29.41s0 .43-.3.32c-.49-.21-.79.05-1.1.36-.09.09-.2.22-.35.14s-.07-.2-.07-.32z" fill="#777"/><path d="m89.38 15.86c0 .14 0 .29-.1.27-.28-.05-.35-.3-.37-.54s.07-.39.22-.36c.39.08.02.5.25.63z" fill="#7b7b7b"/><path d="m88.39 17.26c0-.2-.09-.4-.14-.61.2-.16.37-.15.47.11s-.05.44-.33.5z" fill="#7b7b7b"/><path d="m75.5 7.66a5 5 0 0 1 1.22 2.52 7.4 7.4 0 0 1 -.06 2.44 2.8 2.8 0 0 0 0 .71c0 .4-.29.43-.55.49a5.45 5.45 0 0 1 -2.16-.2c-.17-.24-.12-.37.16-.49a1.74 1.74 0 0 0 1-1.64 11.67 11.67 0 0 0 -.14-2.43 4.18 4.18 0 0 0 -.41-.92 2 2 0 0 1 -.2-.68.68.68 0 0 1 .06-.29c.11-.21.25-.43.5-.43s.35.29.43.48-.02.34.15.44z" fill="#585858"/><path d="m74.09 7.29a2.63 2.63 0 0 0 -.58-1 4.2 4.2 0 0 0 -.74-1.28 1 1 0 0 1 .5-1.59c.43-.18.79 0 .85.35.22 1.38 1.08 2.51 1.38 3.85a1.42 1.42 0 0 1 -.28-.2c-.42-.51-.47-.51-.79.11-.21.07-.24-.13-.34-.24z" fill="#606060"/><path d="m89.93 26.37a10.06 10.06 0 0 1 .24-1.44 1.68 1.68 0 0 1 -.24 1.44z" fill="#7b7b7b"/><path d="m63.3 4.53-.15-.34h.05s.11-.1.15-.08c.49.21.65-.09.76-.48v-.06c.45.24.62.68.36 1s-.77.21-1.17-.04z" fill="#717171"/><path d="m81 55.65-1.63 1.35c-.58.25-.62.24-.8-.3s.19-.66.42-.83a13.5 13.5 0 0 0 1.7-2c.09-.1.15-.23.25-.34a.83.83 0 0 0 .3-1 2.08 2.08 0 0 1 -.13-.82 7 7 0 0 0 -.41-2.74c-.28-.75-.22-1.54-.52-2.28a3.94 3.94 0 0 1 0-1.33c0-.16 0-.32.15-.42.35-.14.42.09.43.35s.11.7.16 1a1.41 1.41 0 0 0 1.08 1.21.78.78 0 0 1 .37.87c-.15.6.25 1.13.12 1.73-.06.28.34.14.53.2s.26.42.23.65-.1.43.06.63a3.53 3.53 0 0 0 -.27 2c.1.46-.29.58-.56.77-.17.76-.95.87-1.48 1.3z" fill="#636363"/><path d="m83.33 51.58c-.37-.26-.13-.81-.48-1.08-.22 0-.41 0-.36-.28a11.34 11.34 0 0 0 .19-2.33 3.23 3.23 0 0 0 .15-.7c0-.43-.16-.93.33-1.24.3-.1.62-.3.9-.05a.8.8 0 0 1 .1 1 .42.42 0 0 0 .12.52 3.6 3.6 0 0 1 -.45 2.81 5.25 5.25 0 0 0 -.5 1.35z" fill="#5d5d5d"/><path d="m84.28 47.38c-.36 0-.4-.42-.66-.56-.1 0-.08-.16 0-.26.3-.4.3-.41-.27-.51-.26-.06-.47-.16-.44-.49a1.28 1.28 0 0 0 .13-.51c0-.33.08-.55.47-.51s.28-.17.27-.36a3.81 3.81 0 0 0 -.19-.81c-.08-.29-.15-.65.21-.77s.45.27.55.54a.37.37 0 0 0 .07.16c0 .68.57 1.22.49 1.92a.45.45 0 0 1 .18.43 1.32 1.32 0 0 1 -.53.89l-.24.73z" fill="#4f4f4f"/><path d="m78.78 56.52a.56.56 0 0 0 .59.46c-.08.12-.17.23-.26.35-.35.07-.7.3-1.06 0a.74.74 0 0 1 .19-.85c.15-.13.38-.25.54.04z" fill="#858585"/><path d="m41.45 67.4a5.56 5.56 0 0 1 1.33 1.45c-.29-.17-.49-.5-.91-.47-.19 0-.18-.21-.21-.37a3.67 3.67 0 0 0 -.21-.61z" fill="#535353"/><path d="m37.24 57.21a19.79 19.79 0 0 0 -3.05.5 5.51 5.51 0 0 1 -1.72 0 11.23 11.23 0 0 0 -2.39 0 1.65 1.65 0 0 1 -.76-.1c-.43-.1-1.61 0-1.92-.36a3.21 3.21 0 0 1 .81.15c.69.13.93 0 1.24-.87.16-.3.45-.14.69-.18 1.13.1 2.28 0 3.41.15.24 0 .4-.26.59-.21 1 .27 1.88-.38 2.84-.41a6.41 6.41 0 0 0 2.76-.92l.16-.09c.44-.18.81-.49 1.26-.67a8.22 8.22 0 0 0 3.84-3.11c.31-.18.58-.35.12-.69a.32.32 0 0 1 .06-.55c.13 0 .25-.09.38 0a3.23 3.23 0 0 0 1.51 1c.27.09.55.19.41.58a.3.3 0 0 1 -.14.11c-.36-.06-.6-.14-.73.42s-.72.75-1 1.22a2.71 2.71 0 0 1 -1.61 1.39c-.27.08-.35.48-.69.51a1.89 1.89 0 0 0 -1.13.53 2.4 2.4 0 0 1 -1 .49c-.39.22-.67.62-1.15.69a4.56 4.56 0 0 0 -2.27.4.53.53 0 0 1 -.52.02z" fill="#6a6a6a"/><path d="m26.23 60.11c0-.27 0-.54.32-.64s.47.11.59.31a10.84 10.84 0 0 0 1 1.42 4.28 4.28 0 0 0 .65.76.31.31 0 0 1 .15.36.35.35 0 0 1 -.38.24 1.08 1.08 0 0 1 -.83-.26c-.47-.49-.91-1-1.35-1.5a1.1 1.1 0 0 1 -.15-.69z" fill="#585858"/><path d="m38 62.49-.46-1.21a4.77 4.77 0 0 1 -.17-1.59c0-.5.41-.77.79-1s.51.18.72.38a1.9 1.9 0 0 1 .44 1.56 1.92 1.92 0 0 0 .68 1.8 2.9 2.9 0 0 1 .54.7c.29.43-.07.7-.24 1v.1l-.06-.09c-.19.24-.42.34-.63 0a2.3 2.3 0 0 1 -.64-1.44 1 1 0 0 0 0-.35c-.06-.17-.13-.41-.33-.38s-.12.29-.12.45a4.35 4.35 0 0 1 -.09 1.21c-.43-.32-.24-.8-.43-1.14z" fill="#4c4c4c"/><path d="m44.44 60.91-.35.86c-.06-.28.25-.66-.09-.82s-.52.26-.75.47l-.13.11c-.09-.06-.16-.15-.12-.24.29-.64.28-1.37.61-2a3.86 3.86 0 0 0 .17-.91c.07-.23.14-.41.37-.5s.38-.38.57-.58.26-.49.58-.43.4.33.44.61a3.48 3.48 0 0 0 -.51 1.74 2.18 2.18 0 0 1 -.79 1.69z" fill="#626262"/><path d="m44 62a15 15 0 0 1 -.74 2 3 3 0 0 1 .74-2z" fill="#626262"/><path d="m11.32 28a3.31 3.31 0 0 1 -1 1.14c-.29.2-.65.42-.83-.16a4 4 0 0 1 .84-1.68c.15-.18 0-.39.06-.57a1.92 1.92 0 0 0 .42-.6 4.81 4.81 0 0 1 .8-1.84 30 30 0 0 0 .91-3 22 22 0 0 0 1-5.64c0-.74.23-.92.83-.86.95.1 1.14.29 1 1.09s-.15 1.51-.22 2.26a12.7 12.7 0 0 1 -.51 1.9c-.49 2-1.36 3.84-2 5.77-.08.73-.61 1.25-.84 1.92.02.27-.29.2-.46.27z" fill="#717171"/><path d="m15.89 49.3c-.09-.86 0-1 .78-.91-.51-.81.41-1.14.54-1.73l.07-.07a.39.39 0 0 1 .42.16c.19.23 0 .44 0 .65a3.55 3.55 0 0 1 -.7 1.46 1.85 1.85 0 0 1 -1 .66z" fill="#696969"/><path d="m25.49 55 1.32.74a1.49 1.49 0 0 1 -1.32-.74z" fill="#676767"/><path d="m17.21 46.66c-.18-.38-.35-.46-.59 0a1.48 1.48 0 0 1 -.74.75c.26-.87 1-1.37 1.08-2.16a3.57 3.57 0 0 1 .47-1.5.36.36 0 0 1 .15-.1c.34 0 .49-.12.41-.48a.49.49 0 0 1 .06-.39.26.26 0 0 1 .16-.09.64.64 0 0 1 .79.31c.15.35.61.48.63.91-.27.34-.23.83-.54 1.15-.45.06-.34.5-.51.74a1.28 1.28 0 0 1 -.2.26c-.15.07-.32 0-.46.1-.29.09-.32.56-.71.49z" fill="#575757"/><path d="m14 45.32-.37-.7c-.3-.49-.9-.7-1.16-1.23a1.76 1.76 0 0 1 -.29-1.16c-.23-.19-.41-.39-.22-.71s.32-.45.57-.59a1 1 0 0 1 1.43.34c.15.21.39.3.55.49a5.75 5.75 0 0 0 .76 1.91 1.42 1.42 0 0 1 .32.91c.08.37.41.7.19 1.12-.6.46-.87.45-1.56-.11-.22.06-.14-.2-.22-.27z" fill="#565656"/><path d="m16.94 37.16h-.34a1.28 1.28 0 0 1 -.6-1.41c.27-.27.45-.69.95-.52.32-.11.37.13.44.34s.13.64.23 1c.17.5.1.6-.41.61-.08-.04-.21-.07-.27-.02z" fill="#505050"/><path d="m34.26 1.91c.7 0 .7.46.71 1a3.7 3.7 0 0 1 .13.81c.1.49-.22.88-.77 1.08-.12 0-.24 0-.36 0-.56.08-.66 0-.45-.56a.88.88 0 0 0 0-.85c-.29-.51-.26-.72.17-1.07a6 6 0 0 1 .58-.41z" fill="#656565"/><path d="m45.29 2.62c.46.23.9.49 1 1.08a.78.78 0 0 0 .34.46v.08c-.37.27-.64 0-.84-.23a1.22 1.22 0 0 0 -.69-.49.31.31 0 0 1 -.27-.18 1.37 1.37 0 0 1 .46-.72z" fill="#6c6c6c"/><path d="m45.53 2c.09 0 .19 0 .29.05s.38.15.3.36-.28.05-.43 0-.27 0-.4-.06a.52.52 0 0 1 .24-.35z" fill="#6c6c6c"/><path d="m44.81 3.34h.36a.4.4 0 0 1 .08.32c-.09.27-.32.51-.23.83a3.59 3.59 0 0 1 -.88 1.76l-.14.05c-.11.07-.31 0-.3.22a.57.57 0 0 1 -.48.64c-.31.06-.43-.26-.59-.48s0-.26 0-.39a1.11 1.11 0 0 0 -.28-.29c-.28-.46.09-.7.36-.9s.32-.27.24-.52a.3.3 0 0 1 .2-.36h.1c.28-.15.34-.46.48-.72 0 .25.09.49.38.5s.49-.42.7-.66z" fill="#767676"/><path d="m54.3 8.5a8.93 8.93 0 0 1 1.33.95 1 1 0 0 0 .3 1.09c.38.33.63.77 1 1.11s.31.74-.09 1.13-.59.06-.83-.17a2.54 2.54 0 0 1 -.65-.9 3.1 3.1 0 0 0 -.59-1c.27.38.27.38.18.65-.56.07-.78-.46-1.18-.67-.45-.81-1.31-1.16-2-1.71a3.81 3.81 0 0 1 -.77-.7.28.28 0 0 1 0-.37c0-.48.2-.59.57-.24s.6.54.91.79a.34.34 0 0 0 .48 0 .28.28 0 0 0 .06-.38c-.12-.2-.39-.39-.11-.62s.41.15.62.17a.13.13 0 0 0 .14-.17c0-.16-.05-.34.2-.35s.31.14.35.34-.08.7.08 1.05z" fill="#545454"/><path d="m50.07 7a1.47 1.47 0 0 1 -.82-.58c0-.14-.22-.29 0-.42s.25.06.36.14.29.22.43.33.28.27.03.53z" fill="#545454"/><path d="m47.93 5.13c-.36-.09-.55-.42-.84-.61-.26.05-.53.09-.49-.33a2.22 2.22 0 0 1 1.33.94z" fill="#6c6c6c"/><path d="m64.11 3.6c.2.29.54.65.19.93s-.79-.07-1.1-.37c.01-.71.07-.74.91-.56z" fill="#4d4d4d"/><path d="m86 32.74c.3.22.53.15.71-.18a2.25 2.25 0 0 1 .34-.47c.31-.34.46-.2.51.18a.26.26 0 0 1 .16.31 3.31 3.31 0 0 1 -1 .93c-.63.29-.84 1.05-1.47 1.36-.2.09-.26.34-.36.53a8.61 8.61 0 0 1 -2 .83.55.55 0 0 0 -.49.44c0 .35-.27.46-.54.56a2 2 0 0 1 -.34.12 1.11 1.11 0 0 0 -1 .38.41.41 0 0 0 -.11.47c.2.42 0 .61-.41.71s-.77.18-1.14.31a3.07 3.07 0 0 1 -1.13-.08c-.38-.27-.24-.45.11-.55s.56 0 .89-.18c-.43-.09-.89.21-1.16-.25 0-.38.31-.52.51-.74a4.17 4.17 0 0 1 .75-.33c.82-.08 1.41-.68 2.14-1 .42 0 .66-.29 1-.45a6.58 6.58 0 0 1 2-1.53c.34-.37.75-.67 1.11-1a1 1 0 0 1 .92-.37z" fill="#666"/><path d="m29.56 13.31.23.24c.26.53 0 .89-.38 1.22a1 1 0 0 1 -1-.27 3.16 3.16 0 0 0 -1.27-.69 6.94 6.94 0 0 0 -2.35-1c-.4-.08-.71-.46-1.16-.39-.63.1-1.15-.35-1.77-.3a.37.37 0 0 1 -.24-.17.17.17 0 0 1 0-.18h.82c.76 0 .81-.11.52-.83a8.34 8.34 0 0 1 3.1.74c.2.08.41.14.62.21.09-.08.16-.07.22 0 .97.31 1.68 1.11 2.66 1.42z" fill="#656565"/><path d="m8.22 23.5-.13.5a1.26 1.26 0 0 1 -.26-.31c-.07-.15-.17-.38 0-.47s.31.14.39.28z" fill="#717171"/><path d="m68.08 59.14c-.11-.19-.22-.38-.32-.57a.73.73 0 0 0 -.91-.49.64.64 0 0 1 -.73-.26 11.55 11.55 0 0 1 -1.79-2.74.82.82 0 0 1 .13-.89 1.83 1.83 0 0 1 2.83.24c.58 1 1.17 1.94 1.75 2.91.93.49.45 1.41.66 2.13.06.2 0 .43.06.63a2.17 2.17 0 0 1 .16.87 7.64 7.64 0 0 1 -.37 3.45c0 .19-.17.32-.27.47s-.34.26-.55.11a.5.5 0 0 1 -.11-.6 10.18 10.18 0 0 0 0-3.69 2.29 2.29 0 0 0 -.54-1.57z" fill="#515151"/><path d="m64.73 71a2.69 2.69 0 0 1 -1.73 1.32c0-.1-.12-.2-.05-.33s.31-.28.12-.45-.37 0-.55.09a4 4 0 0 1 -1.86.52c-.62 0-.79-.19-.81-.8a4.63 4.63 0 0 1 .15-1.48c.29-.43.09-.9.08-1.36a1.09 1.09 0 0 1 .08-.15l.09-.21c-.06 0-.09.09-.13.13l-.22.19-.17.07c-.1 0-.18.08-.27.11-.64.25-.82.12-.74-.55.33-.43.64-.87 1-1.3s.72-.82 1.34-.94 1.08.08 1.1.78a3.47 3.47 0 0 0 .07.79.64.64 0 0 1 -.19.73.07.07 0 0 0 0 0 12.53 12.53 0 0 0 -.53 1.88c-.05.2 0 .41.19.47a.4.4 0 0 0 .47-.29c.19-.82 1-.87 1.53-1.18s.93.21.82.7-.17.94.21 1.26z" fill="#6a6a6a"/><path d="m76.48 13.31h.26l.22.14c.34 0 .71-.08 1 .27a6.09 6.09 0 0 1 2.06.93c0 .82-.22 1-1.2 1.08-.08.15-.28.21-.34.13-.31-.41-.8-.25-1.17-.42s-.68-.23-1-.34a1 1 0 0 0 -1.2.34 2 2 0 0 0 -.68.94c-.16.45-.45.54-.9.33a.35.35 0 0 1 -.08-.16c.05-.45-.28-.86-.15-1.32.19-.24.59-.49 0-.76h-.3c-.24 0-.46-.14-.49-.4s.21-.34.38-.46a1 1 0 0 0 .23-.17c.29-.31.57-.11.86 0a4 4 0 0 1 1.46.14 1.21 1.21 0 0 0 1.04-.27z" fill="#525252"/><path d="m70.47 17.78c0 .24-.09.52-.17.79-.52 1.7-.66 3.48-1.16 5.18-.27.91-.78 1.75-1 2.69a.37.37 0 0 1 -.49.25c-.28-.06-.21-.27-.19-.48a27.69 27.69 0 0 1 .88-3.45 26.69 26.69 0 0 0 .55-2.94 6.87 6.87 0 0 0 .27-2.18c-.07-.38.43-.73.81-.73s.44.49.5.87z" fill="#838383"/><path d="m82.61 25.18a8.75 8.75 0 0 1 -.65 2 3.21 3.21 0 0 0 -.2.62c0 .16-.07.34.13.42a.33.33 0 0 0 .4-.19 1.4 1.4 0 0 1 .83-.73c.15 0 .32-.1.44.06s0 .34-.09.47l-2.06 2.06a.57.57 0 0 1 -.73 0 .51.51 0 0 1 -.2-.64 13.27 13.27 0 0 1 .62-2.25 11.12 11.12 0 0 0 .66-2.1.71.71 0 0 1 .1-.14c.18-.18.37-.4.65-.24s.17.48.1.66z" fill="#808080"/><path d="m82.61 25.18c-.15-.54-.47-.48-.85-.24a22.59 22.59 0 0 0 1.62-4.18 3 3 0 0 0 .16-1.36c0-.26.06-.45.32-.48s.45.12.51.39a2.23 2.23 0 0 1 -.07.89 43.55 43.55 0 0 1 -1.69 4.98z" fill="#929292"/><path d="m72.29 13.65.84-.12c-.29.26-.59.52 0 .75a1.13 1.13 0 0 1 -.74.42 30.83 30.83 0 0 0 -3.55.92.84.84 0 0 0 -.43.31c-.65.37-1.48.36-2 1a7.63 7.63 0 0 0 -1.77.81c-.28.22-.6 0-.57-.47a.79.79 0 0 1 .08-.26 1 1 0 0 1 .62-.42c.41-.16.85-.27 1-.76a.28.28 0 0 1 .29-.14c.46.14.78-.19 1.16-.32a40.15 40.15 0 0 1 5.07-1.72z" fill="#646464"/><path d="m54.88 11.28-.61-.74c-.1-.13-.34-.26-.16-.44s.38 0 .51.14a7.2 7.2 0 0 1 1.1 1.48 2 2 0 0 0 .49.67c.11.1.23.25.41.13a.51.51 0 0 0 .2-.36.28.28 0 0 0 -.26-.34c-.34 0-.42-.22-.43-.52s-.21-.34-.37-.44c-.44-.28-.46-.83-.79-1.18-.16-.18 0-.29.18-.29l.48.06.44.39a20.24 20.24 0 0 1 2.93 5.08 2.19 2.19 0 0 1 .09.88c.06.9 0 1.82.1 2.7.08.68-.24 1.42.26 2.05 0 0 0 .11-.05.16-.21.09-.4.26-.66.21a1 1 0 0 1 -.26-1.42c-.11.12-.13.35-.36.33s-.29-.24-.32-.44a18 18 0 0 1 -.43-2.39c0-.24-.16-.54.15-.69s.4.17.59.29a.28.28 0 0 1 .14.18c0 .16 0 .32.09.55a9.48 9.48 0 0 0 -.1-2.4 2.17 2.17 0 0 1 -.67-1 3.28 3.28 0 0 1 .34 2.1c-.14.32-.39.26-.61.09a3.53 3.53 0 0 1 -.34-.41 4 4 0 0 1 -.39-.93 2.27 2.27 0 0 0 -.68-1 1.08 1.08 0 0 1 -.46-.8.66.66 0 0 0 -.34-.53.82.82 0 0 1 -.21-1.17z" fill="#494949"/><path d="m60.28 23.13a4.28 4.28 0 0 0 -.4 2.33 10.83 10.83 0 0 0 1 2.86.73.73 0 0 1 .15.32 1.07 1.07 0 0 0 -.27 1.16.54.54 0 0 1 -.27.58c-.34.11-.72.1-1 .49-.13.21-.45 0-.52-.18s-.29-.27-.5-.31-.4-.11-.55-.27a.35.35 0 0 0 -.06-.17c-.52-.73-.53-.74.09-1.35a1.47 1.47 0 0 0 .43-1c0-.5 0-1 0-1.5a1.93 1.93 0 0 1 .23-1.2.75.75 0 0 0 .11-.58 3 3 0 0 1 .65-2.22c.17-.31.32-.53.07-.91s0-.7.47-.7.84 0 1.25 0 .53.18.28.53a6.67 6.67 0 0 0 -1.16 2.12z" fill="#454545"/><path d="m61.49 21c-.22-.43-1.46-.66-1.77-.31a.23.23 0 0 0 0 .21c0 .14.18.13.3.1s.33-.09.43.09-.07.33-.19.46a4.82 4.82 0 0 0 -1 1.88 12.8 12.8 0 0 0 -.65 4.46.9.9 0 0 1 -.26.82c-.68.58-.68.59-.21 1.27v.1c-.24.19-.49.06-.74 0a1.67 1.67 0 0 1 -.23-.23 1.28 1.28 0 0 1 .52-1.29 1.31 1.31 0 0 0 .53-1.1 7.31 7.31 0 0 0 -.05-2.19.87.87 0 0 1 .16-.49c.3-.58 0-1-.63-1-.14 0-.28 0-.38-.1a.29.29 0 0 1 0-.33 10.46 10.46 0 0 1 2.08-2.73c-.18-.17-.37-.35-.32-.61.3-1.4 0-2.81.08-4.21a20.86 20.86 0 0 1 .18 2.5v.66c.16 1.4.17 1.4 1.6 1.41h.36c.2 0 .46-.08.54.15s-.2.33-.35.48z" fill="#525252"/><path d="m84.4 42.69a.24.24 0 0 0 0 .27v.34c-.15-.12-.24-.42-.45-.31s0 .36 0 .53a1.82 1.82 0 0 1 -.17 1.75c-.2-.06-.2-.42-.44-.34s-.13.34-.16.52l-.06.07a.28.28 0 0 1 -.18 0c-.47-.39-.16-1-.35-1.45a.6.6 0 0 1 0-.56 7.67 7.67 0 0 0 -.35 3.08c0 .31.12.63-.08.93a.27.27 0 0 1 -.16.1.41.41 0 0 1 -.19 0c-.24 0-.52-.19-.68.24-.09.26-.26 0-.29-.12a10.79 10.79 0 0 1 -.4-2.74c-.25-.22-.25-.42-.15-.78a18 18 0 0 0 .77-2.6 2.86 2.86 0 0 1 .42-1.23 2.74 2.74 0 0 0 .34-1.07c0-.2 0-.41.32-.39 1-.65 1.28-.59 1.88.35a6.65 6.65 0 0 0 .28 1.17 19.34 19.34 0 0 1 .1 2.24z" fill="#555"/><path d="m50.57 71.5a4.24 4.24 0 0 1 -.46.1c-.4 0-.59-.18-.4-.55a9.09 9.09 0 0 0 .38-1.11c.17-.27-.11-.6.11-.87.32-.57.7-.25 1.07-.08.32-.31.44-.89 1.06-.79.11 0 .2 0 .25.14a3.57 3.57 0 0 1 0 .47c.15.37-.14.59-.36.71a3.16 3.16 0 0 0 -.86.89c-.31.31-.36.85-.79 1.09z" fill="#888"/><path d="m46.23 68.73a2.7 2.7 0 0 1 -1.12.94c-.13 0-.26.12-.39 0s-.07-.26 0-.39a2.63 2.63 0 0 0 .25-.91 9.74 9.74 0 0 0 1.35-2.79c.61-1.65 1.29-3.27 1.77-4.95.26-.91.49-1.82.7-2.73a9.44 9.44 0 0 1 .56-1.45.63.63 0 0 1 .76-.43.92.92 0 0 1 .12.9c-.22.77-.28 1.58-.51 2.35a21 21 0 0 1 -1.83 5 2.72 2.72 0 0 0 -.18.91 5.8 5.8 0 0 1 -.79 2.82 1.75 1.75 0 0 1 -.69.73z" fill="#707070"/><path d="m45.4 50.16-.24-.16a.19.19 0 0 1 -.19 0 6.22 6.22 0 0 0 -1.65-2.43 3.6 3.6 0 0 1 -1-2.44 11.14 11.14 0 0 1 0-2.38c.06-.29.14-.57.22-.86a2.37 2.37 0 0 0 .12-1.58c-.34-.8.08-1.75-.58-2.44a1 1 0 0 0 -.28-.8c-.28-.26-.2-.62-.11-.95a1.7 1.7 0 0 1 1.31-.88c.5-.22.39-.74.55-1.12.08-.18-.13-.22-.27-.23a3.1 3.1 0 0 1 -1.18-.39 1.64 1.64 0 0 1 -1-1.84.78.78 0 0 1 .52-.83c.52-.17 1-.51 1.46-.67.26.09.66-.26.79.24a1.2 1.2 0 0 1 0 .38c-.1.48.22.87.28 1.31a.73.73 0 0 0 .76.34c.51-.06.8.11.78.66a.37.37 0 0 0 .08.22.22.22 0 0 1 .05.11 2.2 2.2 0 0 0 1.18 2.47.65.65 0 0 1 .15.18.62.62 0 0 1 -.05.81c-.21.21-.51.1-.73 0a2.59 2.59 0 0 1 -1.26-1.14 1.79 1.79 0 0 0 -.41-.65 1.46 1.46 0 0 0 .6 1.69 2.94 2.94 0 0 0 1.06.38.64.64 0 0 0 .85-.45c.12-.38.35-.34.6-.22a3.44 3.44 0 0 0 2.56.12 1.08 1.08 0 0 1 .81 0 .84.84 0 0 0 1.12-.25 6.47 6.47 0 0 0 .7-1.66 1 1 0 0 0 0-.77 2.63 2.63 0 0 1 -.07-1.39c0-.55 1.16-1.06 1.69-.83.15.07.27.17.41.25a.54.54 0 0 1 .31.6c-.06.51.13 1-.14 1.54a.37.37 0 0 0 .17.44 2.72 2.72 0 0 1 .19.69c.11.56-.08.79-.65.81a.54.54 0 0 0 -.39.09c.33-.13.78.1 1-.37a.18.18 0 0 1 .31 0 5.17 5.17 0 0 1 .73 1.24c0 .07-.07.14-.12.2s-.26.12-.4.16a2.17 2.17 0 0 0 -2.04.64 2.08 2.08 0 0 1 -1.27.37c-1.23.16-2.45-.29-3.67.07a9.27 9.27 0 0 1 -2.47.1c-1.27 0-1.18 0-1.46 1.26a4 4 0 0 0 0 .6 2.4 2.4 0 0 1 -.31 1.6.64.64 0 0 0 -.08.66 7.66 7.66 0 0 0 .3 2.6l.07.16a3 3 0 0 0 1 1.32 5.86 5.86 0 0 0 1.41 1.06c.29.44.41.78-.23 1.09a1.86 1.86 0 0 0 -.8 1.12c-.55.21-.85-.21-1-.55a2.83 2.83 0 0 1 -.49-1.46c.12-.56 0-.78-.37-.78-.3.16-.5 0-.67-.23a2.26 2.26 0 0 0 -.61-.58 13 13 0 0 0 1.53 1.87 3.43 3.43 0 0 1 .76 1.72c.03.08-.11.14-.24.16z" fill="#404040"/><path d="m45.4 50.16a3.89 3.89 0 0 0 -1.34-2.32 3.53 3.53 0 0 1 -1.16-2c.43.3 1.07.27 1.3.88a.55.55 0 0 0 .37.29 1 1 0 0 1 .6.84c.28.43.13 1 .55 1.41.23.22.42.47.77.51.09-.24.27-.24.48-.19a8.4 8.4 0 0 1 1 .34.88.88 0 0 0 .66.64 11.81 11.81 0 0 0 1.56.5.36.36 0 0 1 .37.32c0 .24-.16.31-.32.38a3.66 3.66 0 0 1 -1.4.1c-.31 0-.62-.11-.94-.14s-.54 0-.56-.41c-.32-.3-.79-.31-1.16-.55a2.43 2.43 0 0 1 -.78-.6z" fill="#3b3b3b"/><path d="m44.81 54.7a1.68 1.68 0 0 1 1.19-.33c.34.35.18.77.12 1.14a4.75 4.75 0 0 1 -.71 1.94c-.25-.45-.37 0-.47.1s-.31.62-.76.49c0-.15 0-.3 0-.45a10.76 10.76 0 0 1 0-1.5 2.8 2.8 0 0 1 .63-1.39z" fill="#6b6b6b"/><path d="m14.46 29a40.19 40.19 0 0 0 2-6.24c.07-.25.17-.49.25-.73.39-.53.31-1.2.53-1.79a2.83 2.83 0 0 1 .24-.71c.45-.06.35.29.34.52a11.79 11.79 0 0 1 -.35 1.77c0 .3 0 .59-.29.74a.69.69 0 0 0 .27-.63c0-.21.16-.45.47-.22a2.52 2.52 0 0 1 0 1.06 8.18 8.18 0 0 1 0 .86c-.19.58 0 1.29-.49 1.75a.93.93 0 0 0 -.25.53c-.07.23-.1.47-.38.6s-.2.27-.22.46c-.12 1.18-1 2-1.43 3a.32.32 0 0 1 -.36.17c-.3.52-.32 1.2-1 1.51-.27.14-.49.21-.58-.18.14-.76.79-1.25 1-1.95.15-.12.2-.31.25-.52z" fill="#6d6d6d"/><path d="m17.21 46.66.6-.84c.44.45 0 .69-.24 1z" fill="#5e5e5e"/><path d="m19.14 41 .58-1.1c.18-.17-.17-.48.15-.62a1.46 1.46 0 0 1 .93 1.46c-.09.31.11.47.18.69a1.76 1.76 0 0 1 -.12.45c0 .17-.19.25-.31.36-.15.59-.81.89-.89 1.55 0 .2-.22.25-.4.09-.28-.45-.51-.95-1.09-1.1.27-.47.27-1 .52-1.52.1-.16.2-.26.45-.26z" fill="#5f5f5f"/><path d="m17.67 43.77c.19-.31.23-.69.5-1 .1.5.26.99-.5 1z" fill="#5f5f5f"/><path d="m17.57 46.79a1.08 1.08 0 0 0 .24-1l.48.12c-.22.32-.29.73-.72.88z" fill="#696969"/><path d="m36.51 11.61a13.38 13.38 0 0 1 1.36-2.49 3 3 0 0 0 .35-.61 11.46 11.46 0 0 1 2.55-2.16h.3c.24.11.51-.29.73 0 0 .52-.42.81-.72 1.15-.5.62-1.15 1.11-1.6 1.76a13.57 13.57 0 0 0 -.95 1.38 8.77 8.77 0 0 0 -.61 1.44c-.16.46-.44.86-.59 1.33a.53.53 0 0 1 -.46.16c-.33-.11-.22-.36-.18-.59a4.41 4.41 0 0 1 .67-1.48c.12-.2.42-.34.23-.67a1.29 1.29 0 0 0 -.67.61c-.08.17-.17.4-.41.17z" fill="#797979"/><path d="m42.89 6.57c.09.15.19.35.41.22s.07-.28 0-.42a.76.76 0 0 1 -.06-.59c.27 0 .3.39.58.32.1.09.22.17.2.33s0 .13 0 .2a.75.75 0 0 1 -.18.72 5.49 5.49 0 0 0 -.8 2.1 7.93 7.93 0 0 1 -1 2.37 9.43 9.43 0 0 0 -.82 2c-.06.08-.12.15-.17.23-.33.58-.59 1.2-.87 1.81a1.76 1.76 0 0 0 -.38.59c0 .21-.2.32-.34.46a1.07 1.07 0 0 0 -.34 1.09c.12.35 0 .6-.34.63s-.5.31-.63.6a1.78 1.78 0 0 1 -.5.19c-.44.15-.72-.12-.64-.58.05-.27.16-.54 0-.8a.19.19 0 0 1 .09-.33c.65-.25.8-.87 1.06-1.41a2.87 2.87 0 0 0 .26-.49c.18-.47.23-1 .78-1.27.22-.11.32-.55.37-.86.21-1.17.9-2.15 1.2-3.28a3 3 0 0 0 .67-1.49 14.68 14.68 0 0 1 1-2.18c.04-.21.19-.34.45-.16z" fill="#7f7f7f"/><path d="m41.69 6.46c-.23.06-.48.23-.62-.14a6.52 6.52 0 0 1 2-1.79c.12 0 .21-.19.41-.16a1.37 1.37 0 0 1 -.6.82.89.89 0 0 0 -.4.67c0 .71-.12.8-.79.6z" fill="#666"/><path d="m47.32 15a8.65 8.65 0 0 1 .53-1c.67-1 1-2.17 1.63-3.22a12.18 12.18 0 0 0 .73-2.26c.46.12.5.47.46.85s-.07.47-.1.71c.16.16.07.35.06.53a3.9 3.9 0 0 1 -.69 1.7 25.42 25.42 0 0 0 -1.58 3.07c-.12.28-.19.69-.66.64a.35.35 0 0 1 -.21-.55c.16-.29 0-.38-.17-.47z" fill="#8f8f8f"/><path d="m77.79 38.12a1.7 1.7 0 0 0 .8-.17c.4-.26.72.06.92.29s-.08.39-.31.48c-.45.18-1 0-1.38.27.12.31-.13.34-.31.44a5.9 5.9 0 0 1 -.6.17 4.43 4.43 0 0 0 -1.23.71.54.54 0 0 1 -.9-.43.77.77 0 0 1 .44-.84 4.81 4.81 0 0 0 .83-.47 1.27 1.27 0 0 1 1-.43c.27-.01.5-.14.74-.02z" fill="#454545"/><path d="m81.53 37.18c-.32.45-.7.84-1 1.33s-.96.49-1.53.49c.32-.1.65-.18 1-.29s.43-.29.09-.52-.26-.42.11-.6a2.34 2.34 0 0 1 1.33-.41z" fill="#7d7d7d"/><path d="m83.68 36.21a3.74 3.74 0 0 0 -1.24.67.81.81 0 0 1 -.67.18s.12-.05.15-.1c.63-1.1 1.9-1.13 2.85-1.7a.09.09 0 0 1 .14 0c-.18.61-.76.74-1.23.95z" fill="#7d7d7d"/><path d="m84.91 35.27h-.14a.34.34 0 0 1 .16-.41c.66-.39 1-1.11 1.66-1.5.2.58-.23.75-.61.95-.05.69-.71.69-1.07.96z" fill="#757575"/><path d="m18 21.33a.75.75 0 0 0 -.23.49c-.13.53-.59.9-.7 1.44a.27.27 0 0 1 -.37.2c-.19-.06-.19-.23-.16-.4s.07-.34.22-.41c.46-.2.45-.61.5-1 .08-.67.17-1.34.26-2-.18-.18 0-.32.05-.47a6.84 6.84 0 0 1 .4-1c.29-.42 0-.92 0-1.38a5.67 5.67 0 0 1 .61-1 .74.74 0 0 1 .45-.13c.36.57.13 1.18.09 1.76a4.35 4.35 0 0 1 -.66 2.27 7.83 7.83 0 0 0 -.46 1.63z" fill="#686868"/><path d="m54.17 52.3a15 15 0 0 1 -3.48-.37 8.46 8.46 0 0 1 -1.81-.23h.89c.14 0 .38 0 .35-.21s-.26-.2-.4-.17a1.49 1.49 0 0 1 -.81-.08 1.64 1.64 0 0 1 -1.1-1.07c.12-.35.28-.23.46 0 .9.86 1 .86 1.84-.05a.49.49 0 0 1 .13-.12c0-.07.26-.05.13-.16a3.91 3.91 0 0 1 -.58-.57 2 2 0 0 0 -.59-.85.77.77 0 0 1 0-1.26.33.33 0 0 1 .33-.07c.18.06.36.1.46-.12a.31.31 0 0 0 0-.33.48.48 0 0 0 -.53-.18 1.12 1.12 0 0 0 -.44.3c-.51.37-.65-.24-1-.36-.84-.52-.92-1.47-1.24-2.27s.22-1.3 1-1.54c.91-.57 1.28-.43 1.76.53a8.33 8.33 0 0 1 .53 1.19 2.44 2.44 0 0 0 .75 1.17c.16.14.28.26.42-.1a3 3 0 0 1 1.11-1.17 9.3 9.3 0 0 1 2.44-1.46 1.53 1.53 0 0 0 .79-.51c.25-.2.25-.63.64-.71a.5.5 0 0 1 .17 0 8.61 8.61 0 0 1 .72 1c0 .27-.23.37-.42.46a7.39 7.39 0 0 1 -1.21.56c-1.25.25-1.53.56-1.74 1.82a9.36 9.36 0 0 0 -.11 1.63c0 .25-.07.45-.31.51s-.35-.14-.47-.3c-.28-.36-.1-.82-.26-1.22a1.34 1.34 0 0 0 .13 1.94 10.9 10.9 0 0 0 3.28 2.2 3.17 3.17 0 0 0 1.81.15c.08 0 .19-.11.22-.06.44.54.84 0 1.26 0s1 0 1.55 0a26.48 26.48 0 0 0 4.5-.22c.43.13.86.4 1.28 0a10.47 10.47 0 0 1 3.64-.57c.27.13.45.24.33.64s-.17.47-.55.51a2.09 2.09 0 0 0 -1.23.34 32.38 32.38 0 0 0 -4.24 1c-.82.22-1.61.52-2.46.68a31 31 0 0 1 -3.34.16 1.24 1.24 0 0 1 -.39-.12.64.64 0 0 0 -.54-.06c-.27 0-.48 0-.45-.35s.16-.54.47-.48.8 0 1.07.16c-.44-.19-1 0-1.54-.41-.17-.13-.44.08-.57.24-.32.37-.7.3-1.09.23-.13 0-.26-.12-.38-.11a1 1 0 0 1 -.57 0s0 0 0 0c.19.44-.15.33-.36.36s-.17 0-.25.08z" fill="#434343"/><path d="m77.93 48.59v.08c-.84.19-1.22-.2-1.13-1.21a2.56 2.56 0 0 0 -.59-2c-.25-.29-.45-.58-.88-.44a1 1 0 0 0 -.77 1 2.74 2.74 0 0 0 .08.95 19.28 19.28 0 0 0 1.36 3.74 3 3 0 0 0 .42.58 1.17 1.17 0 0 1 0 1.83 1.48 1.48 0 0 1 -1.51-.23c-.18-.41-.59-.52-.92-.73-.26-.06-.36-.29-.53-.45a3.78 3.78 0 0 0 -1.38-.81.93.93 0 0 0 -.39-.26c-.7-.29-.78-.53-.38-1.17a.31.31 0 0 1 .18-.09 9.41 9.41 0 0 0 1.68 0 1.71 1.71 0 0 1 1.64 1.17c-.19-.58-.59-1.06-.74-1.66-.21-.85.06-1.79-.5-2.57a13.38 13.38 0 0 1 -.4-2.36 14.1 14.1 0 0 0 -.17-2.34c-.53.48-.58.45-1 0s-.55-1.21-.9-1.78a8.36 8.36 0 0 0 -1.35-2.08 5.06 5.06 0 0 1 -1.21-1.45c-.48-.91-1.38-1.38-2-2.11-.17-.19-.41-.36-.21-.61s.36-.48.69-.21a.76.76 0 0 0 .23.13 1.64 1.64 0 0 1 .74.53 31.09 31.09 0 0 1 3.01 3.5v.06a5.75 5.75 0 0 1 1.19 1.72c0-.3-.1-.58 0-.86s.11-.49.42-.51.37.17.45.39.11.21.16.32a1.76 1.76 0 0 0 .9.86 1.26 1.26 0 0 1 .64 1.13 10.28 10.28 0 0 1 .05 2.15 3.15 3.15 0 0 1 -.25.91.29.29 0 0 0 .07.38c.19.1.31-.05.4-.17a1.27 1.27 0 0 1 1.37-.56c.24 0 .47.15.5.37.09.8.75 1.4.79 2.23a3.57 3.57 0 0 0 .31 1.16 1.52 1.52 0 0 1 -.07 1.47z" fill="#414141"/><path d="m54.17 52.3.36-.19c-.12-.24-.39-.06-.58-.27a2.44 2.44 0 0 1 1.61-.17 1.15 1.15 0 0 0 1.44-.73q.21-.44.48-.09a1.7 1.7 0 0 0 2 .61c.21-.06.31.06.34.24s-.09.44-.36.43-.75-.06-1.13-.07c-.17 0-.43-.1-.48.11s.23.21.38.26a.27.27 0 0 1 .21.19l-1.09.16h-.1a2.41 2.41 0 0 0 -2.08-.57 5.12 5.12 0 0 1 -1 .09z" fill="#494949"/><path d="m72.41 50.62c.5.28.79.81 1.26 1.13l.42.31c.16.21.59.22.48.64a3.41 3.41 0 0 1 -.57-.43c-.77-.89-2-1-2.91-1.54a2.27 2.27 0 0 0 -1.64 0 4.76 4.76 0 0 1 -.64.11c.19-.37.54-.4.91-.43.61-.06.73-.29.52-.89 0-.16.17-.17.3-.17.29 0 .43.34.48.48.23.75.8.77 1.39.79z" fill="#4a4a4a"/><path d="m74.57 52.7-.48-.64c.39.16.83.27.84.83z" fill="#434343"/><path d="m66 55.27a.77.77 0 0 1 0-.27c.11-.2.12-.56.37-.56s.33.38.36.61 0 .49.39.38c.23-.06.73 1.08.63 1.41a.93.93 0 0 0 -.06.4c0 .13.13.29 0 .38s-.28 0-.39-.1a3.58 3.58 0 0 1 -1.3-2.25z" fill="#5d5d5d"/><path d="m57.4 69.92a5.29 5.29 0 0 1 1.6-1.81c.1.82.5.09.74.15-.65.89-1.53 1.6-2.16 2.52a4.85 4.85 0 0 1 -1 1c-.1.07-.22.12-.32 0s0-.22.07-.35a17.35 17.35 0 0 1 1.07-1.51z" fill="#7e7e7e"/><path d="m57.4 69.92c-.14.47-.54.78-.76 1.2-.09.19-.34.38-.07.62a2.45 2.45 0 0 1 -1.56.73c-.25-.21-.19-.46-.12-.72.25-.88.48-1.77.72-2.65 0-.3.24-.57.14-.9s.19-.3.33-.42.4-.39.67-.14a.49.49 0 0 1 0 .73 2.12 2.12 0 0 0 -.39 1c-.16.49-.33 1-.47 1.47-.06.18-.17.42 0 .54s.35-.12.46-.28a5.93 5.93 0 0 1 1.05-1.18z" fill="#8e8e8e"/><path d="m56.57 71.74a4.37 4.37 0 0 1 1-1 1.8 1.8 0 0 1 -1 1z" fill="#8e8e8e"/><path d="m73.15 24.21c.21-.56.4-1.13.64-1.67a16.11 16.11 0 0 0 1-3.86c.19-1 .78-1.87.93-2.89.1-.7-.15-1-.77-.8a.09.09 0 0 1 -.14 0c.11-.09.21-.24.32-.24a4.41 4.41 0 0 1 2.21.35c-.76-.13-.85-.06-.82.7a2.65 2.65 0 0 1 -.31 1.56 2.05 2.05 0 0 0 -.22.74 27.18 27.18 0 0 1 -1.65 5.54 26.31 26.31 0 0 1 -2 4.59c0 .07-.08.14-.13.2-.17.21-.38.46-.64.34s-.12-.44 0-.64a31.76 31.76 0 0 1 1.43-3.21c.11-.24.3-.43.15-.71z" fill="#7a7a7a"/><path d="m73.37 15.22c.13-.32.29-.64 0-1 .63.26.63.41 0 1z" fill="#646464"/><path d="m79.11 23.61a2.33 2.33 0 0 0 -.35.95c-.4.27-.38.74-.52 1.11a27.52 27.52 0 0 0 -1.15 2.75c-.15.49-.2 1-.85 1.18-.2 0-.4.08-.56-.09s-.07-.36 0-.55a12.44 12.44 0 0 0 1-2.26 43.58 43.58 0 0 1 1.79-4.29 33.31 33.31 0 0 0 1.08-3.34c.22-.63.44-1.27.68-1.89.09-.22.17-.54.45-.48s.14.4.17.62a.5.5 0 0 1 0 .17 1.47 1.47 0 0 0 -.2 1 3.3 3.3 0 0 1 -.22 1.51z" fill="#727272"/><path d="m60.89 28.66v-.34a6.05 6.05 0 0 0 2.37.76 8.63 8.63 0 0 1 3.21 1.66 31.91 31.91 0 0 1 2.61 2.46 16.25 16.25 0 0 1 1.33 1.8 12.72 12.72 0 0 0 1.59 1.7c.26.22.41.55.8.66a.43.43 0 0 1 .24.62.3.3 0 0 1 -.12.13 2.55 2.55 0 0 1 -1.4-1 2.91 2.91 0 0 0 -.47-.52 2.41 2.41 0 0 1 -1-1q-.37-.54-.78-1.08a3.3 3.3 0 0 0 -1.37-1.11 1.5 1.5 0 0 1 -.75-.66.94.94 0 0 0 -.46-.37 21.76 21.76 0 0 0 -2.77-1.37 5.7 5.7 0 0 1 -1.16-.72 1.59 1.59 0 0 0 -.88-.29 1.93 1.93 0 0 1 -1-.58c-.04-.25-.21-.5.01-.75z" fill="#4b4b4b"/><path d="m61.48 19.42v-.12a3.56 3.56 0 0 1 2.13-1.44 3.62 3.62 0 0 0 1.54-.61c.23-.21.45-.26.55.14a2.44 2.44 0 0 1 -1.23 1.3 2 2 0 0 1 -1.18.38 1.39 1.39 0 0 0 -.72.27.89.89 0 0 1 -1.09.08z" fill="#717171"/><path d="m63.42 20.12c-.13-.23-.27-.46 0-.7a.5.5 0 0 1 .54-.15.34.34 0 0 1 .21.52c-.16.27-.46.25-.72.33z" fill="#717171"/><path d="m65.71 17.39c-.55-.15-.9.21-1.26.52-.1.08-.16.28-.3.26a2.34 2.34 0 0 0 -1.55.49c-.25.13-.74 0-.39.58.07.11-.1.15-.19.14a4.51 4.51 0 0 1 -.53-.08c-.26-.25-.1-.41.12-.54a1.7 1.7 0 0 0 .58-.55l.47-.36a9.22 9.22 0 0 1 1.59-.59c.08.14.22.32.35.18a2.31 2.31 0 0 1 1.81-.54z" fill="#696969"/><path d="m64.25 17.26a6.91 6.91 0 0 1 -1.59.59c.2-.29.53-.32.83-.4a2.09 2.09 0 0 0 .75-.44z" fill="#717171"/><path d="m59.33 20.62a1.72 1.72 0 0 1 -.79 1.26c-.13.09-.29.2-.29.35a1.7 1.7 0 0 1 -.84 1.39.22.22 0 0 1 -.09.26 1.94 1.94 0 0 1 -1.31.28.48.48 0 0 0 -.29 0 4.55 4.55 0 0 1 -2.23.1 3.33 3.33 0 0 1 -1-.13 2.29 2.29 0 0 0 -1.91.2c-.54.38-1.19.64-1.52 1.27-.11.23-.41.24-.56.43-.48.33-.55 1-1 1.33a1.07 1.07 0 0 0 -.56.15 1.54 1.54 0 0 1 -1.57.22h-.19c-.42-.11-.23-.64-.56-.81a.91.91 0 0 0 -.91-.37h-.18c-.73-.12-1.41-.42-2.14-.54-.24 0-.48 0-.71 0s-.29-.13-.44-.17a.58.58 0 0 0 -.57.07c-.2.16-.09.35 0 .54a1 1 0 0 1 -.52 1.38 5.47 5.47 0 0 1 -.65.41.34.34 0 0 1 -.17 0c-.78-.13-1.54-.24-1.84.77a2.22 2.22 0 0 1 -.27 1.21 2.86 2.86 0 0 0 -.22 1.3c0 .23.07.49-.2.64s-.28-.52-.62-.54a3.82 3.82 0 0 0 -.13-.36 3.72 3.72 0 0 1 -.19-.34c0-.43.16-.84.25-1.26a.37.37 0 0 0 -.07-.38 6.92 6.92 0 0 1 -.42-1 .9.9 0 0 0 -.45-.49c-.31-.15-.43 0-.48.26a.59.59 0 0 1 -.75.42 1.33 1.33 0 0 1 -.9-.87 3.2 3.2 0 0 0 -.62-1.38c-.57-.13-.65-.64-.82-1.07-.09-.23.37-.84.65-.85h2.51c.49 0 .58.29.31.7-.1.15-.21.25-.18.48.1.67-.09.79-.78.56.66.2 1.17.67 1.82.88.43.37.81.57 1.23-.08.2-.3.58.08.88 0 .35.15.44-.17.62-.34a1.27 1.27 0 0 0 -.19-1.23c-.24-.3-.24-.43.13-.71a9.79 9.79 0 0 0 1.9-1.85c.09-.12.16-.23.32-.23a7.72 7.72 0 0 1 3.8.54c.19.18.45.14.66.23a2.94 2.94 0 0 1 1.26.82 1.11 1.11 0 0 0 .9.53c.19 0 .28.12.34.28s.32.32.51.13a19.3 19.3 0 0 1 2.83-1.92 4 4 0 0 1 1.9-.66 8.7 8.7 0 0 1 3.8.2 2.46 2.46 0 0 0 1-.08c.42-.11.44-.44.5-.78a2.37 2.37 0 0 1 1.37-1z" fill="#454545"/><path d="m58.73 20.74a4.25 4.25 0 0 0 -1.15 1.43 1.36 1.36 0 0 1 -1.81.71 7.65 7.65 0 0 0 -3.77-.23.33.33 0 0 1 .23-.48c.19-.06.36-.17.56-.25a2.87 2.87 0 0 1 1.13 0c.82.32 1.71.35 2.56.59.21.06.3-.07.39-.19a2.68 2.68 0 0 0 .57-2.8 3 3 0 0 1 0-2.19.35.35 0 0 0 0-.34c-.2-.46 0-1-.27-1.44.22.05.24.53.52.34s.16-.51 0-.73c-.24-.44-.21-1-.65-1.37-.14-.11-.17-.36-.21-.55a.31.31 0 0 1 .21-.33c.1 0 .22 0 .27.05.4.62.78 1.24 1.17 1.87a.49.49 0 0 0 -.16.56 3.05 3.05 0 0 1 0 1.34c0 .22-.19.28-.39.26l-.21-.49a10.66 10.66 0 0 0 .39 3c.44-.23.11-.61.32-.88a.82.82 0 0 1 .27.88 3.1 3.1 0 0 0 .03 1.24z" fill="#525252"/><path d="m57.89 17a3 3 0 0 0 .11-1.61c-.11-.38.18-.48.47-.53a6.16 6.16 0 0 1 -.09 3.29z" fill="#545454"/><path d="m66.89 33.7c-.12 0-.25-.07-.34 0s0 .24.09.3a10.89 10.89 0 0 1 2.44 2.76.93.93 0 0 0 .28.31c1.18.57 1.4 1.83 2 2.81.33.55.42 1.24.94 1.7 0 0 .1-.06.11-.09.08-.22-.09-.56.18-.65s.33.29.53.41a.65.65 0 0 1 .3.56c.08 1.09.15 2.19.24 3.28 0 .39.12.78.19 1.18a.33.33 0 0 1 -.12.5.72.72 0 0 1 -.68 0 1.33 1.33 0 0 1 -.54-1c.07-.66 0-1.32.07-1.81a10.35 10.35 0 0 0 0 2 2.89 2.89 0 0 0 .08.59 3 3 0 0 0 0 .59 2.17 2.17 0 0 0 0 .36c0 .3-.3.54-.19.86a.31.31 0 0 1 -.16.11h-.2c-.37 0-.4-.36-.34-.6a3.66 3.66 0 0 0 .05-1.8c-.32-1.08.19-2.14 0-3.23-.15-.82-.18-.94-1-.84l-.59.08a1.12 1.12 0 0 0 -1.23-.35c-.19 0-.54-.3-.53-.68a2.64 2.64 0 0 1 .53-1.31 1 1 0 0 1 .55-.34c.15 0 .36.07.42-.12a.59.59 0 0 0 -.2-.59c-.42-.43-.8-.91-1.18-1.38a4.8 4.8 0 0 1 -.46-.76 1.43 1.43 0 0 0 -.45-.62 6.55 6.55 0 0 1 -1.68-1.63 4.29 4.29 0 0 0 -2-1.3 3.67 3.67 0 0 1 -1.75-.94 1.08 1.08 0 0 0 -1.58.06c-.36.32-.67.69-1 1a1.69 1.69 0 0 0 -.4.65 3.69 3.69 0 0 0 -.92.75.26.26 0 0 1 -.29 0c-.3-.24-.68-.44-.35-.92.22-.26.33-.6.57-.84.68-.48.44-1.13.34-1.76 0-.27-.29-.55 0-.83a.52.52 0 0 1 .18 0c.5.37.73.17 1-.32.54-.85.35.31.62.28a.64.64 0 0 1 .64.13.74.74 0 0 0 .89.09 11.62 11.62 0 0 0 2.58 1.43c.72.44 1.48.85 2.17 1.35.15.21.4.29.19.57z" fill="#4a4a4a"/><path d="m61.85 30.58c-.29.4-.57.72-1 .06-.1-.18-.38-.22-.49-.42a1.57 1.57 0 0 0 -.12-.93c-.15-.52 0-.69.6-.63a1.38 1.38 0 0 1 .24.6 9.48 9.48 0 0 1 .73 1.23z" fill="#414141"/><path d="m59.48 26.62a2.67 2.67 0 0 0 .63.93.57.57 0 0 1 .13.76.4.4 0 0 1 -.63.08c-.23-.18-.69-.23-.55-.71a2.13 2.13 0 0 1 .42-1.06z" fill="#545454"/><path d="m52.94 60.72q.21-.63.45-1.23a.5.5 0 0 1 .56-.37c.29.08.22.36.16.56-.34 1.2-.69 2.41-1 3.61-.13.46-.3.9-.46 1.36a3.15 3.15 0 0 0 -.29 1.08 1.11 1.11 0 0 1 -.29.85.27.27 0 0 0 -.08.28c.28.57-.2 1-.28 1.49-.3.27-.61.54-.26 1-.23.18-.45.29-.59-.11s-.24-.06-.36 0v-.11a10.14 10.14 0 0 1 1.11-4 6.17 6.17 0 0 0 .39-1.79 15.87 15.87 0 0 1 .94-2.62z" fill="#959595"/><path d="m57 42.47c-.57 0-.75-.33-.62-.85a10.14 10.14 0 0 1 0-1.65 4.58 4.58 0 0 0 -.38-2.23.52.52 0 0 1 0-.56l.36-.12c.45-.33.47.12.58.35s0 .57.24.51.14-.43.06-.67a2.94 2.94 0 0 0 -1.1-1.52c-.19-.13-.47-.33-.34-.61a.63.63 0 0 1 .7-.28 2.52 2.52 0 0 0 1 0c.5-.15.55.1.53.48a.71.71 0 0 1 -.05.29.76.76 0 0 0 .26 1 1.23 1.23 0 0 1 .55 1.09c.08.67 0 1.33 0 2a.82.82 0 0 1 -.21.66.74.74 0 0 0 -.19.52 2.09 2.09 0 0 1 -1.15 1.75.27.27 0 0 1 -.24-.16z" fill="#3a3a3a"/><path d="m48.15 46.18c.24.12.4.42.74.36.49.11.61.29.48.72-.36.45-.15.79.26 1a1 1 0 0 1 .58.9.28.28 0 0 1 -.42 0 .74.74 0 0 0 -.63-.08.4.4 0 0 0 -.35.48.34.34 0 0 0 .44.3c.32-.07.63.09.94 0s.3.06.38.21c-.07.63-.74.59-1.1.84s-.93-.09-1.23-.56a.67.67 0 0 0 -.43-.28 5.37 5.37 0 0 1 -1.32-.36c-.26-.36-.57-.73.18-.88.08 0 .17-.09.13-.16-.37-.67.09-.43.41-.4s.24-.28.24-.48.24-.17.37-.2a.46.46 0 0 0 .4-.61c-.07-.21-.45-.47-.07-.8z" fill="#474747"/><path d="m57.9 36.69c-.15-.16-.3-.31-.44-.48s-.37-.42.1-.55c.18 0 .2-.29.15-.47s-.24-.16-.4-.14l-.53.05c-.22 0-.54-.2-.62.12s.26.37.44.51a3.09 3.09 0 0 1 1.06 1.87.68.68 0 0 1 -.06.57c-.12.21-.21.46-.51.43s-.37-.26-.44-.5.05-.78-.32-1l-.71-1c-.34.74-1.14.35-1.64.72-.08.06-.13-.1-.15-.2a.75.75 0 0 1 .86-.86 6 6 0 0 0 .6 0 1.34 1.34 0 0 1 0-1c.34-.39.81-.06 1.2-.23.51.29 1.11-.12 1.61.21.39.61 0 1.22 0 1.82a.3.3 0 0 1 -.2.13z" fill="#454545"/><path d="m52.49 36.7c-.49.34-1 .66-1.55.13a.35.35 0 0 0 -.4 0c-.61.34-1.26.09-1.89.18a1.17 1.17 0 0 1 -.74-.2c-.3-.16-.55-.18-.53.29s-.25.59-.66.5c-.89-.2-1.83-.29-2.3-1.28a2.33 2.33 0 0 1 -.08-1.74c0-.13.08-.3.25-.31a.37.37 0 0 1 .31.25c.18.38.34.77.51 1.15a2 2 0 0 0 1.11.95c.33.15.56.06.46-.38.15-.19.29-.42.6-.28l.83.47a3 3 0 0 0 1.94 0 .64.64 0 0 1 1 .2c.19.3.43.15.67.05s.29-.39.55-.15a.26.26 0 0 1 -.08.17z" fill="#4f4f4f"/><path d="m43.73 30.56a.87.87 0 0 0 -.73-.23c-.18-.3.17-.33.25-.5l.12-.12.15-.19a.34.34 0 0 1 .33-.21 3.42 3.42 0 0 0 .85-.49c.22-.54.79-.26 1.15-.5.64 0 .68.05.46.78a7.33 7.33 0 0 0 -.78.5c-.48 0-.69.42-1 .64s-.48.37-.8.32z" fill="#4a4a4a"/><path d="m54.05 37.53h-.24a1.8 1.8 0 0 1 2.16-.4 9.87 9.87 0 0 1 .74 2.68 2.43 2.43 0 0 1 -.38 1.76h-.14a.3.3 0 0 1 -.08-.47 1.68 1.68 0 0 0 .16-1c0-.45.09-.87-.38-1.21-.22-.16-.22-.53-.17-.84.1-.59-.15-.79-.75-.63-.3.13-.6.34-.92.11z" fill="#454545"/><path d="m54.75 31.79.16.34a1.14 1.14 0 0 0 -1.43 0 .6.6 0 0 0 -.32.7 5.33 5.33 0 0 1 -.67 3.84v-.27a.25.25 0 0 1 -.15-.24 4.33 4.33 0 0 1 .4-1.7 1.79 1.79 0 0 0 .05-1.46c-.21-.8.08-1.38.9-1.5a1.25 1.25 0 0 1 1 .1.25.25 0 0 1 .06.19z" fill="#4f4f4f"/><path d="m45.17 47.86c-.61 0-.53-.47-.6-.84a1 1 0 0 1 .22-.52 4.51 4.51 0 0 0 .57.85c.22.2 0 .38-.19.51z" fill="#474747"/><path d="m43.85 32.13a1.07 1.07 0 0 0 1.33.32.91.91 0 0 1 .8.06c.16.17.1.27-.09.34a.67.67 0 0 0 -.36.49c-.11-.47-.32-.76-.9-.64-.39.09-.63-.19-.78-.57z" fill="#545454"/><path d="m39.52 51.24v.32c-.33.21-.48.63-.9.76s-.58.09-.74-.26c-.22-.5-.64-.94-.41-1.58a.81.81 0 0 0 -.08-.67.67.67 0 0 1 0-.63 1.5 1.5 0 0 0 .5-.88 7.61 7.61 0 0 0 .21-1.89s0-.12 0-.17c-.47-.68-.07-1.3.12-1.94a5.26 5.26 0 0 1 1.33-1.93 3.47 3.47 0 0 0 .34-.32c.21-.21.4-.45.72-.34s.33.48.35.76a1.84 1.84 0 0 1 -.23 1c-.27.52-.51 1-.73 1.6a15 15 0 0 0 -.48 2.31 3.48 3.48 0 0 0 -.38 2.62 3.33 3.33 0 0 1 0 .46c0 .21.17.29.25.44s.06.22.13.34z" fill="#606060"/><path d="m35.07 50.36-.46.5c-.49.58-.68.63-1.44.34l-.11-.11a1.3 1.3 0 0 1 -.17-1.09 25 25 0 0 1 1.86-7.21 3.81 3.81 0 0 0 .44-1.54c0-.1 0-.24.08-.27.55-.28.45-.81.5-1.28.25-.45.52-.9.77-1.35a.65.65 0 0 1 .87-.25.75.75 0 0 1 .37.8 2.65 2.65 0 0 1 -.15.69 12.07 12.07 0 0 0 -1.31 3.41c-.12.5-.35 1-.51 1.45a19 19 0 0 1 -.81 2.61 5.43 5.43 0 0 0 -.43 1.49c-.11.71-.11.72.6.75h.12c.31.14.08.29 0 .46s-.29.31-.22.6z" fill="#858585"/><path d="m28.37 47.5a5.11 5.11 0 0 1 -1.79 2.39.84.84 0 0 1 -.85.12 1.61 1.61 0 0 1 -.06-1.48c.27-.79.47-1.61.71-2.41.14-.48.28-.95.46-1.42.83-2.12 1.63-4.24 2.44-6.37a1 1 0 0 0 0-.29 6.77 6.77 0 0 1 .73-1.7.82.82 0 0 0 .06-.66 12.12 12.12 0 0 1 .74-1.74 1 1 0 0 1 1.19-.45.43.43 0 0 1 .29.52 6.91 6.91 0 0 1 -.76 2.6 6.94 6.94 0 0 0 -1 2.14c-.38 1.18-.91 2.3-1.22 3.49 0 .66-.51 1.09-.69 1.68a13.28 13.28 0 0 0 -.84 2.59c0 .12-.12.21-.2.29a.69.69 0 0 1 -.11.13c-.05.21-.22.36-.3.57.21-.35.38-.75.91-.63.26.13.05.49.29.63z" fill="#7e7e7e"/><path d="m19.74 49.77a3.61 3.61 0 0 1 .77-2.25 2 2 0 0 0 .19-.62 3.17 3.17 0 0 1 .46-2.17 63.48 63.48 0 0 1 3.21-6.25 7.65 7.65 0 0 0 .32-.71.73.73 0 0 1 .88-.42c.52.06.2.42.16.67-.35 1-1.09 1.73-1.48 2.72-.76 1.9-1.71 3.72-2.48 5.62a8.06 8.06 0 0 1 -.54 1 7.09 7.09 0 0 0 -.69 1.9c-.08.32-.19.88-.8.51z" fill="#8c8c8c"/><path d="m25.73 38c-.06-.45-.24-.5-.54-.16-.09.1-.2.18-.3.28-.38-.14-.18-.38-.1-.58a9 9 0 0 1 1.26-2 3.54 3.54 0 0 1 .95-1.29.69.69 0 0 1 .56-.2c.57.26.11.64.11 1a3.57 3.57 0 0 0 -1.09 1.69c-.38.34-.47.91-.85 1.26z" fill="#969696"/><path d="m20.82 41.26v.23c-.06 0-.19-.08-.19-.11a4.54 4.54 0 0 0 -.63-1.93 1 1 0 0 1 .47-.72c.3-.39.56-.5.9 0 .11.16.36.22.42.44a.52.52 0 0 1 -.09.73 1.75 1.75 0 0 0 -.54.9c-.16.2-.16.35-.34.46z" fill="#555"/><path d="m25.23 27.57-.12.11c-.27.75-.86 1.31-1.17 2.05-.21.52-.78.69-1.3.83a.28.28 0 0 1 -.34-.18.63.63 0 0 1 -.11-.39 22.29 22.29 0 0 1 .67-2.29l.71-1.57c.17-.29.06-.7.4-.92s.25-.79.53-1.12c.13-.15.18-.43.42-.4s.3.28.37.48a1 1 0 0 1 0 .29 2.23 2.23 0 0 1 -.18 1l-.07.15c-.24.37-.33.81-.56 1.18a9.82 9.82 0 0 1 1.52-2.29c.31-.43.82-.65 1-1.15.12-.11.2-.27.38-.31a.31.31 0 0 1 .19 0c.27 0 .51-.21.79-.07a.94.94 0 0 1 .37 1 .78.78 0 0 0 .26.88 2 2 0 0 1 -.48 1.87 2.3 2.3 0 0 0 -.35.61c-.2.21-.26.71-.63.57s-.21-.56-.2-.9a4.21 4.21 0 0 1 .06-1.5c.05-.11 0-.33-.21-.17s-.45.4-.68.59a10.06 10.06 0 0 1 -1.27 1.65z" fill="#7c7c7c"/><path d="m29.81 31.06.48-.11c.19.21 0 .36-.13.41s-.28.19-.43.26c-.39.19 0 .26.05.38a.29.29 0 0 1 0 .16 1.49 1.49 0 0 1 -.78.39 4.45 4.45 0 0 0 -1.64 1 20.73 20.73 0 0 1 -2 1.46c-.49-.27-.54-.5-.17-.88a2 2 0 0 1 .87-.59c-.24 0-.48.53-.75 0a.92.92 0 0 1 .91-.66c.19 0 .39 0 .57-.06a2.45 2.45 0 0 0 .72-.48c.55-.27 1-.68 1.56-1z" fill="#717171"/><path d="m18.3 36.1.39-.17a.45.45 0 0 1 .55.08c.19.22.05.4-.11.56s-.23.18-.37.18-.44.16-.6-.07.04-.4.14-.58z" fill="#6d6d6d"/><path d="m21.19 37.55c.27-.22.32-.63.69-.76a.87.87 0 0 1 .21 1.21.7.7 0 0 0 -.11.83.51.51 0 0 1 -.34.37c-.39-.2-.61-.8-1.21-.49v-.12c.25-.34.67-.59.76-1.04z" fill="#646464"/><path d="m36.51 11.61a4.33 4.33 0 0 0 .81-1.22c.09-.2.17-.44.46-.34s.25.32.23.54a1.45 1.45 0 0 1 -.41 1 .22.22 0 0 0 -.32 0c-.22.47-.65.81-.82 1.32a27.25 27.25 0 0 0 -1 3.37c-.19 1-.44 2-.6 3 0 .26-.06.69-.55.63-.3-.37 0-.7.06-1a3.47 3.47 0 0 0 .07-1.2.78.78 0 0 1 .28-.72 2 2 0 0 0 .15-.94l.13-.05c.13-.51.25-1 .37-1.54a14.28 14.28 0 0 0 .61-1.92z" fill="#535353"/><path d="m34.36 21c-.15-.36 0-.72 0-1.08a6.05 6.05 0 0 0 .37-1.92 11.1 11.1 0 0 1 .53-2.19c.34-1.44.59-3 1.7-4.13.19-.19.4-.58.64 0a7.42 7.42 0 0 0 -.69 1.82.33.33 0 0 1 .06.46 10.05 10.05 0 0 0 -.62 3.38c0 .35-.21.64-.17 1a7 7 0 0 0 -.25 2.64c.06.63.19 1.24.22 1.87a1.87 1.87 0 0 1 .06.62c-.12.2-.27.39-.51.28s-.3-.43-.32-.71c-.07 0-.07.12-.11.17s-.06.59-.39.59-.24-.4-.4-.57a8.23 8.23 0 0 0 -.12-2.23z" fill="#444"/><path d="m42.06 16.06a22.74 22.74 0 0 0 1.43-3 2.48 2.48 0 0 0 .48-1c.56-1.38 1-2.81 1.61-4.15a4 4 0 0 1 .19-.43.46.46 0 0 1 .55-.25c.28.07.22.29.2.49s0 .27 0 .41c.16.76-.5 1.19-.71 1.81v.11a3.16 3.16 0 0 1 -.81 1.82 2.76 2.76 0 0 0 -.42 1.13 19.51 19.51 0 0 1 -1.25 2.4 12.12 12.12 0 0 1 -.39 1.34 5.37 5.37 0 0 1 -.85 1.56 5.65 5.65 0 0 0 -.5.94 1.5 1.5 0 0 1 -.5.56c-.17.1-.39.22-.59.07s-.07-.33 0-.5a9.09 9.09 0 0 1 .89-2.11 3.76 3.76 0 0 1 .67-1.2z" fill="#747474"/><path d="m47.32 15c.17-.09.34-.27.53-.12s0 .39 0 .58-.08.25-.13.38c.14.1.14.27.22.52a7.68 7.68 0 0 1 1.46-1.76c.17-.19.35-.49.68-.23a7.12 7.12 0 0 1 1.46-.6 2.59 2.59 0 0 1 .21 1.07v.16c0 .27-.26.2-.42.18a1.5 1.5 0 0 0 -1.38.52c-.72.78-1.47 1.53-2.15 2.36-.24.29-.16.77-.6.91s-.77.56-1.13.36-.1-.72 0-1.09a5.12 5.12 0 0 1 .79-2.09 3.18 3.18 0 0 0 .46-1.15z" fill="#7b7b7b"/><path d="m51.75 14.84c-.24-.32-.5-.65-.21-1.07.62.29.64.4.21 1.07z" fill="#6b6b6b"/><path d="m72.9 38v.05c.95 1.43.95 1.43 2.61.92a.51.51 0 0 1 .7-.26 2.73 2.73 0 0 1 -.8.49.51.51 0 0 0 -.29.78c.2.35.45.08.65 0 .36-.2.64-.55 1.08-.6v.11c-.16.23-.22.53-.45.72s-.31.24-.17.42.31.33.56.18.31 0 .44-.14c.75-.36 1.27-.07 1.35.75 0 .25-.14.41-.43.26-.68-.36-.68-.36-1.07.31-.18.09-.34.27-.59.2a.39.39 0 0 0 -.48.25c-.13.29.22.2.31.33a1.3 1.3 0 0 0 .15.18c.15.19.34.33.49.52s.28.43.1.69a16.84 16.84 0 0 1 1 3 1.22 1.22 0 0 1 -.17 1.44 2.38 2.38 0 0 0 -.19-1.79 1.93 1.93 0 0 1 -.2-.8 6.12 6.12 0 0 0 -.89-2.14c-.22-.43-.64-.34-1-.13a2.08 2.08 0 0 0 -.59.66.6.6 0 0 1 -.66.3c-.3-.08-.3-.34-.32-.58a1 1 0 0 1 .08-.58c.41-.68.15-1.43.23-2.13a2.6 2.6 0 0 0 -1.16-2.31 1.38 1.38 0 0 1 -.22-.35c-.15-.22-.3-.44-.13-.72z" fill="#4d4d4d"/><path d="m18.87 30.31c-.2 0-.41.27-.6.06s0-.45.05-.66a43.61 43.61 0 0 0 1.68-5.22c.35-1.21.79-2.39 1.07-3.61.13-.57.23-1.14.34-1.71a.57.57 0 0 0 -.15-.6c.09-.51.47-.49.83-.42s.3.37.26.61a13.24 13.24 0 0 1 -1.18 4.83 2.92 2.92 0 0 0 -.27 1.1 15.07 15.07 0 0 1 -2.03 5.62z" fill="#727272"/><path d="m24.68 23.27c.24 0 .26-.27.38-.42s.21-.29.38-.24.06.27.07.41a1.94 1.94 0 0 1 0 .24 2.32 2.32 0 0 1 -.36 1.2c0-.17 0-.4-.24-.43s-.1.28-.21.34c-.37.21-.26.74-.65.92 0-.28.09-.55.14-.83a1.11 1.11 0 0 1 .35-.61c.07-.15-.08-.36.13-.47z" fill="#878787"/><path d="m17.83 17.75.34-1c.55.94.07 1.68-.48 2.4.05-.45.1-.92.14-1.4z" fill="#6d6d6d"/><path d="m56.08 67.89v-.24c.13-.39.25-.79.37-1.19a12.34 12.34 0 0 0 1.06-2.46 5 5 0 0 1 1.06-1.63 2.25 2.25 0 0 1 -.13 1.37c-.29.74-.59 1.48-.89 2.22-.12.32-.25.64-.34 1-.27.94-.67 1.62-.88 2.41a1.61 1.61 0 0 1 .21-.86c.1-.16.27-.34.14-.54s-.39-.13-.6-.08z" fill="#9d9d9d"/><path d="m78.42 41.5a1.67 1.67 0 0 0 .71.24.16.16 0 0 1 .15-.1c.52.4.53.52.1.94-.07.33-.33.42-.61.48a3.08 3.08 0 0 0 -.27.24c-.33.28-.58.2-.76-.17a.66.66 0 0 0 -.25-.32.94.94 0 0 1 -.53-.94c0-.3-.35-.61.21-.88s.94.1 1.25.51z" fill="#3d3d3d"/><path d="m78.73 43.16-.45.33c-.15.18-.31.32-.54.14a.44.44 0 0 1 -.17-.62c.1-.17.08-.39.22-.54.13.53.36.88 1 .59a.42.42 0 0 1 -.06.1z" fill="#575757"/><path d="m72.27 48.34h.14c.31.17.24.54.39.8s-.06.31-.26.38a1.3 1.3 0 0 1 -1 0h-.12a.54.54 0 0 1 -.84 0h-.37a16.23 16.23 0 0 0 -3.59.6 2.46 2.46 0 0 1 -1.32 0 7.81 7.81 0 0 1 -2.2.23c-1.21-.07-2.43.16-3.64 0-.16 0-.74-.2-.37.39.1.15 0 .24-.16.23s-.37 0-.45-.13c-.43-.57-1-.39-1.58-.4-1.4 0-2.37-.94-3.46-1.61-.14-.08-.24-.22-.38-.29-1.51-.86-1.35-2-.81-3.17.09-.2.18-.37.43-.33s.26.25.26.45v1.13c0 .17 0 .42.27.39s.16-.25.16-.4a7.81 7.81 0 0 1 .08-1.6 1.79 1.79 0 0 1 1.86-1.76c.15.59-.49.51-.67.82a5 5 0 0 1 -.56.3 2.56 2.56 0 0 0 -.33 1.66v1.78a1.07 1.07 0 0 0 .7 1.19 8.83 8.83 0 0 0 2.28 1 1.39 1.39 0 0 0 .75 0 2.24 2.24 0 0 1 1.06 0 1.31 1.31 0 0 0 1.09-.16.46.46 0 0 1 .46-.07 6.28 6.28 0 0 0 2.2.18 5.13 5.13 0 0 0 1.79 0c1.72-.26 3.45-.42 5.15-.79a8.24 8.24 0 0 1 2-.1c.3 0 .5 0 .61-.32a.72.72 0 0 1 .43-.4z" fill="#4d4d4d"/><path d="m52.06 49.62c.12-.17 0-.31 0-.44s0-.41.31-.22a10.13 10.13 0 0 0 1.15.45 6.51 6.51 0 0 1 1.27.9.2.2 0 0 1 0 .28.26.26 0 0 1 -.37.06 1.2 1.2 0 0 0 -.91-.1 3.24 3.24 0 0 1 -2.63-1.67 1.4 1.4 0 0 1 -.06-.41c0-.19 0-.45.21-.5s.31.21.37.39.12.46.18.69a.74.74 0 0 0 .48.57z" fill="#4d4d4d"/><path d="m50.57 50.14c-.45.41-1 .14-1.52.22a.64.64 0 0 1 -.65-.52c0-.33-.1-.79.15-1s.63-.09 1-.23.41.43.7.57c.23.39.72.45 1.07.83z" fill="#545454"/><path d="m49.85 44.37.23.13c.51.62.69.63 1.57.12a14.51 14.51 0 0 1 4.08-2.29.86.86 0 0 1 -.45.39 10.35 10.35 0 0 0 -2.36 1.28 10.14 10.14 0 0 0 -1.22 1 .71.71 0 0 0 -.14.83c.07.18.09.39-.09.49s-.28-.13-.4-.25a4.48 4.48 0 0 1 -1.22-1.7z" fill="#4f4f4f"/><path d="m49.37 47.26-.48-.72c0-.54.33-.64.73-.64a1 1 0 0 1 .87.91c-.11.94-.28 1.01-1.12.45z" fill="#525252"/><path d="m65.33 50.14a2.94 2.94 0 0 1 1.32 0c-.44.38-.88.22-1.32 0z" fill="#4a4a4a"/><path d="m74.45 48.94a7.06 7.06 0 0 0 .75 1.6c.29.37-.18.54-.34.78s-.35 0-.49-.07c-.3-.2-.23-.41 0-.64s.05-.36-.15-.46l-1-.49a1.84 1.84 0 0 1 -.11-2.72c.27-.26.55-.18.76.18a5.2 5.2 0 0 1 .58 1.82z" fill="#4a4a4a"/><path d="m72.88 38 .13.72-.41-.47c-.26.3-.13.57 0 .87s.32.7.06.87-.52-.21-.73-.43c-.52-.57-.7-1.34-1.2-1.92.13-.16 0-.26 0-.4s-.29-.42-.08-.67.44-.08.61-.25a14 14 0 0 1 1.62 1.68z" fill="#474747"/><path d="m66.89 33.7c-1.5-.83-2.78-2.06-4.5-2.47-.35-.08-.45-.36-.54-.65a.35.35 0 0 1 0-.48c.26-.18.47 0 .65.11a11.82 11.82 0 0 0 2.59 1.29 8 8 0 0 1 2.46 1.73c.14.54-.26.53-.59.59z" fill="#4b4b4b"/><path d="m70.73 36.7a.67.67 0 0 0 .2.48c.5.4.14.43-.2.48a9.89 9.89 0 0 0 -1.59-1.82 6.41 6.41 0 0 1 -1.41-1.78.21.21 0 0 1 .08-.28 1.06 1.06 0 0 1 1.2.31c.58.64 1 1.41 1.56 2a.55.55 0 0 1 .16.61z" fill="#4f4f4f"/><path d="m74.45 48.94c-.32-.45-.22-1-.54-1.49s-.56-.54-.88 0a1.53 1.53 0 0 0 -.03 1.49c.1.23.19.48.28.72-.56-.08-1.14.23-1.68-.12.93 0 .93 0 .84-1.2.12-.28-.06-.56 0-.84v-.36a.46.46 0 0 0 0-.48v-.72c.07-.17 0-.47.36-.36a1.11 1.11 0 0 0 .18.73c.3.38.56.38.9 0a7 7 0 0 1 .57 2.63z" fill="#434343"/><path d="m70.61 49.54h.84c-.13.72-.13.72 1 1.08a1.35 1.35 0 0 1 -1.84-1.08z" fill="#434343"/><path d="m67.85 33.94-.12.12a1.71 1.71 0 0 0 -.72-.24c.19-.11.41-.2.36-.48a.28.28 0 0 1 .48 0 .46.46 0 0 1 0 .6z" fill="#4a4a4a"/><path d="m67.85 33.94c-.11-.25-.19-.51-.48-.6-.58-.27-1-.78-1.54-1.1a39.77 39.77 0 0 1 -3.74-1.9c-.17-.1-.47 0-.49-.31s.24-.2.37-.29c.73-.07 1.2.45 1.76.77.16.09.28.26.45.29a15 15 0 0 1 2.49 1.1 1.47 1.47 0 0 1 1 .83.53.53 0 0 0 .24.25c1.24.44 1.82 1.53 2.49 2.52a3 3 0 0 0 .85.84.56.56 0 0 1 -.48.36 7 7 0 0 1 -1.37-1.7 1.87 1.87 0 0 0 -1.55-1.06z" fill="#414141"/><path d="m62 29.74c-.25.26-.13.44.12.6l-.24.24c-.4-.36-.9-.65-.72-1.32a2.27 2.27 0 0 0 .84.48z" fill="#4a4a4a"/><path d="m64.14 19.78h-.06c-.2 0-.44.18-.56-.12a.2.2 0 0 1 .15-.23c.3-.09.38.14.47.34z" fill="#6c6c6c"/><path d="m35.33 31.54c.55-.18.28.27.36.46.05.4.08.81.53 1 .49.64.88 1.36 1.36 2a9.43 9.43 0 0 1 1.35 1.54 3.17 3.17 0 0 0 .89.86 3.59 3.59 0 0 0 .62.31c.23.1.39.25.23.54a2.72 2.72 0 0 1 -2.55.21 3.23 3.23 0 0 1 -1-.56 10 10 0 0 1 -1.84-1.19c-.4-.38-.83-.22-1.12.25-.14.22-.14.55-.49.59-.61-.21-.36-.66-.25-1a6.09 6.09 0 0 1 .39-1.11 1.13 1.13 0 0 0 -.09-1.26c0-.47-.31-.95 0-1.41a.76.76 0 0 1 .11-.14c.33-.12.36.12.4.34a4.37 4.37 0 0 0 2.16 3.03c.29.19.51.5.92.51a15.73 15.73 0 0 0 -1.31-1.36 3.83 3.83 0 0 1 -1.13-2.43 1.52 1.52 0 0 1 .46-1.18z" fill="#414141"/><path d="m34.48 23.14c.17.21.3.38.45 0a1.81 1.81 0 0 0 .22-.92 1.45 1.45 0 0 1 .52.81c0 .19.07.41.36.38.1.48.09 1 .74 1.17.18 0 .15.26.15.41a1.33 1.33 0 0 0 .64 1.2c.22.13.37.32.17.59s-.3.6-.72.48a9.14 9.14 0 0 1 -.71-.93 1.35 1.35 0 0 0 -1.62-.49c-.17.07-.14.17 0 .27s.25.13.37.2.24.34.22.57-.19.27-.38.26a13.48 13.48 0 0 0 -1.74-.65 1.36 1.36 0 0 1 -.55-.35.49.49 0 0 1 -.09-.74c.24-.25.43 0 .61.15a2 2 0 0 0 .28.23.71.71 0 0 0 .22.05 3 3 0 0 1 .22-1.13c.1-.17-.32-.2-.52-.17a4.79 4.79 0 0 1 -1.31 0c-.45-.05-.94-.06-1.08.49s.38.62.72.8a.23.23 0 0 1 -.12.18c-.61.14-.84 0-.95-.54a.47.47 0 0 1 -.14-.6c0-.11 0-.15.12-.13.93-.76 2-.22 3.05-.41s.99-.32.87-1.18z" fill="#4b4b4b"/><path d="m35.33 31.54a3.2 3.2 0 0 0 .48 2.83 18.13 18.13 0 0 0 1.41 1.5c.2.22.43.41.62.64s.25.39.06.6-.38.08-.55 0c-1.61-1-3.14-2.07-3.4-4.17a.85.85 0 0 0 -.06-.17c-.14-.54 0-1.11-.17-1.64 0-.12.15-.27.23-.19.41.38.93.12 1.38.27z" fill="#4b4b4b"/><path d="m34.85 27.1c.1-.28.11-.52-.27-.56s-.35-.25-.48-.42a.44.44 0 0 1 -.09-.54.45.45 0 0 1 .56-.22 1.89 1.89 0 0 0 1 0 .63.63 0 0 1 .56.13c.37.38.57.9 1 1.27.12.12 0 .3-.08.45a.85.85 0 0 0 -.84.24c-.66.6-.94.48-1.36-.35z" fill="#515151"/><path d="m42.19 23.56a1.41 1.41 0 0 0 .94.1c.16-.05.37.09.56.16 0 0 .05.08.08.08 1 .08 1.28 1.05 2 1.42a1.64 1.64 0 0 1 .45 1.46c-.06.12-.17.23-.28.14-.29-.25-.73-.27-.94-.6a9.06 9.06 0 0 0 -2.52-2.26.53.53 0 0 1 -.29-.5z" fill="#4c4c4c"/><path d="m31.46 25.79h.15a1.33 1.33 0 0 1 .63 1.41.89.89 0 0 0 .5.93.47.47 0 0 0 .67-.17c.48-.36 1.21-.15 1.19.38s.23.68.61.82a12 12 0 0 1 0 1.8c-.49 0-1 .28-1.46-.06-.18-.34-.49 0-.7-.13a.77.77 0 0 1 -.36-.83.8.8 0 0 0 .22-1.14c-.21-.31-.34-.67-.69-.87-.37.12-.49-.16-.5-.4a2.84 2.84 0 0 0 -.34-1.53c-.04-.06.06-.14.08-.21z" fill="#4c4c4c"/><path d="m37.73 26.74a1.41 1.41 0 0 0 -.5-.41c-.23-.13-.52-.34-.51-.54.05-.9-.71-1.55-.69-2.42 0-.2-.07-.4-.1-.6s.08-.08.12 0 .08.43.1.64c.1.82.37 1.09 1.18.95a2.17 2.17 0 0 0 1.75-1.08 1.64 1.64 0 0 1 1.73-.83 8.17 8.17 0 0 1 2.8.56v.12a10.75 10.75 0 0 0 -2.81-.48 1.6 1.6 0 0 0 -1.62.89 1.56 1.56 0 0 1 -.84.72 1.28 1.28 0 0 0 -.58.5c-.26.34.17.36.28.52a1.43 1.43 0 0 1 -.31 1.46z" fill="#515151"/><path d="m35.21 29.14c-.24.11-.16.6-.45.52s-.39-.47-.57-.72c0 0 0 0 0-.05.37-.82-.38-.74-.76-.95-.12-.31-.12-.31.09-.88a2.52 2.52 0 0 1 1.69 2.08z" fill="#535353"/><path d="m33.78 30.81a.46.46 0 0 0 .64-.33c0-.14.06-.34.26-.34s.22.19.29.33.16.31.24.47l.12.24a1 1 0 0 1 -1.32 0 1.51 1.51 0 0 0 -.22-.11c-.11-.07-.1-.17-.01-.26z" fill="#535353"/><path d="m57.29 23.74c-.62.43-1.37.25-2 .43a2.75 2.75 0 0 1 -1.81-.07 31.11 31.11 0 0 0 3.81-.36z" fill="#525252"/><g fill="#424242"><path d="m72.77 45.58-.36.36a1.9 1.9 0 0 1 -.12-.82c0-.72.15-1.43.17-2.17a6.35 6.35 0 0 1 .31 2.63z"/><path d="m72.41 46.66c.14-.08.29-.17.42 0a.34.34 0 0 1 0 .39c-.12.21-.3.13-.47.09a.46.46 0 0 1 .05-.48z"/><path d="m72.41 47.5c.11.28.32.56 0 .84a1 1 0 0 1 0-.84z"/></g><path d="m46.51 32.17c.42-.25.93-.31 1.28-.7a.52.52 0 0 1 .61 0 1.33 1.33 0 0 1 .24.84c0 .36-.17.57-.62.49a7.59 7.59 0 0 0 -1.17 0 .5.5 0 0 1 -.51-.34.2.2 0 0 1 .17-.29z" fill="#4b4b4b"/><path d="m35.07 50.36c-.32-.45.28-.68.26-1 .89-1.39 1.77-2.79 2.67-4.17a4.26 4.26 0 0 0 .33-.76c0-.08.07-.08.12 0s0 .05 0 .06a1.73 1.73 0 0 0 .31 2.09c.2.22.1.31-.21.28s-.29.08-.14.32.28.57-.14.81c-.19.1-.17.38-.19.6a1.06 1.06 0 0 1 -.27.76c.07-.51.14-1 .19-1.54a.41.41 0 0 0 -.14-.43c-.18-.11-.29.06-.4.17a1.33 1.33 0 0 0 -.33.34 12.93 12.93 0 0 1 -2.06 2.47z" fill="#6b6b6b"/><path d="m32.93 44a4.41 4.41 0 0 0 .72-1.31c.14-.2.28-.39.41-.59s.16-.3.36-.23.18.26.17.41a4.8 4.8 0 0 1 -.59 1.72c-.39.8-.91 1.53-1.38 2.29a.49.49 0 0 0 -.53.29 4.52 4.52 0 0 1 -.41.71c-.18.2-.36.55-.7.18-.13-.51.2-.74.56-1a1.75 1.75 0 0 1 .42-.94c.38-.4.54-1.04.97-1.53z" fill="#8d8d8d"/><path d="m31.12 47.49a3.54 3.54 0 0 0 .69-1.09 2.18 2.18 0 0 1 .11-.27c.16-.26.27-.7.65-.55s0 .48 0 .74l-1.34 2.23h-.11c-.39-.15-.14-.65-.47-.83.06-.26.21-.35.47-.23z" fill="#7e7e7e"/><path d="m30.86 47.84c.16 0 .34-.2.48-.06s-.07.3-.11.46-.07.22-.1.33a13.41 13.41 0 0 1 -1.72 2.25c-.19.22-.4.54-.73.38s-.08-.47-.09-.71a3.83 3.83 0 0 1 0-.47c.34-1.06.69-2.12 1-3.19.06-.22.16-.54-.12-.64s-.48.18-.58.41a2.51 2.51 0 0 1 -.57.9c-.48.11-.4-.2-.36-.49a.22.22 0 0 1 -.07-.23 6.09 6.09 0 0 1 .76-1.71c.53-1.2 1.06-2.39 1.66-3.56a1.91 1.91 0 0 1 .83-.9c.47-.24.56-.74.76-1.17.1-.21.08-.56.48-.46l.72.6a10.92 10.92 0 0 1 -.87 2.68c-.22.54-.34 1.09-.54 1.63a4 4 0 0 1 -.55 1.41 1.49 1.49 0 0 0 -.19.85 3.12 3.12 0 0 1 -.38 1.47 1.52 1.52 0 0 0 -.11.32c.13-.18.25-.19.4-.1z" fill="#747474"/><path d="m33.77 37.42a4.73 4.73 0 0 0 -.49 1.58l-.13.36c-.14.15-.31.2-.46 0a.37.37 0 0 1 -.09-.36 5.09 5.09 0 0 0 .32-1.44c.29-.76.56-1.54.89-2.28.17-.39 0-.7-.06-1a1 1 0 0 1 .22 1.2c-.16.39-.27.79-.39 1.19a.92.92 0 0 0 .19.75z" fill="#585858"/><path d="m33.78 30.81a2.18 2.18 0 0 1 0 .25 4.53 4.53 0 0 1 .1 1.68c0 .07-.09.07-.14 0a8 8 0 0 0 0-1.38c-.07-.35-.25-.5-.59-.37a9.37 9.37 0 0 1 -2.38.56c-.43.06-.48.61-.92.62-.07-.48.26-.9.9-1l.69-.17a5.28 5.28 0 0 0 1.1-.24.8.8 0 0 1 .69.05.46.46 0 0 1 .55 0z" fill="#717171"/><path d="m32.92 37.51a3.67 3.67 0 0 1 -.14 1.23c-.08.32 0 .54.37.6 0 .12 0 .21-.14.24s-.21.44-.44.29-.13-.51-.17-.78v-.21a4.19 4.19 0 0 0 .52-1.37z" fill="#616161"/><path d="m33.75 32.73h.14c-.29.47-.07 1-.13 1.46a1.44 1.44 0 0 1 -.01-1.46z" fill="#555"/><path d="m21.88 38.85c-.4-.14-.55-.45-.31-.78s.46-.63.24-1.06c0 0 .05-.14.07-.22l.13-.21a8.3 8.3 0 0 0 1.58-1.44 20.18 20.18 0 0 1 1.9-1.56 2.84 2.84 0 0 0 .87-.39c.11 0 .25-.11.33 0s-.05.26-.15.33a2.55 2.55 0 0 0 -1 .79.76.76 0 0 0 -.13.72c-.67.31-1 1-1.56 1.43a.41.41 0 0 1 -.44 0c.11.42-.43.63-.37 1a.71.71 0 0 1 -.4.77l-.48.49a.29.29 0 0 1 -.28.13z" fill="#5b5b5b"/><path d="m22.61 38.26c.27-.31.38-.57-.05-.88-.22-.15-.12-.52.14-.45.47.13.39-.1.42-.38a.68.68 0 0 1 .32-.5c.15.12.14.38.38.41-.28.47-.74.83-.79 1.42-.03.21-.22.32-.42.38z" fill="#646464"/><path d="m28.35 23.12c.41-.34.53 0 .61.28a3.1 3.1 0 0 1 -.1 1.54c-.12.08-.15.28-.35.29a6.49 6.49 0 0 0 -.16-2.11z" fill="#6e6e6e"/><path d="m31.49 31.18a2.16 2.16 0 0 0 -1.7.93c-.33 0-.8.41-.95 0s.44-.51.74-.7.52-.21.71-.42a10.35 10.35 0 0 1 2-1 .93.93 0 0 0 .6-1.15c.39.4.28.75-.11 1.08a1.15 1.15 0 0 1 -.75.81c-.2.05-.55.07-.54.45z" fill="#555"/><path d="m34.36 21a3.47 3.47 0 0 1 .12 2.16 15.56 15.56 0 0 1 -.12-2.16z" fill="#4b4b4b"/><path d="m36.79 13.78-.66 4.09a.6.6 0 0 1 -.19.36 12.17 12.17 0 0 1 .52-3.23c.16-.38-.08-.89.33-1.22z" fill="#535353"/><path d="m36.05 22.78h-.12c0-.62-.42-1.18-.23-1.83a4.16 4.16 0 0 1 .35 1.83z" fill="#4b4b4b"/><path d="m38.79 36.47v.23a5.43 5.43 0 0 1 -1.44-1.58z" fill="#535353"/><path d="m39.65 37.54.81.14c.33.06.43.2.14.45-.28-.25-.75-.2-.95-.59z" fill="#535353"/><path d="m31.49 31.18c-.17-.05-.36-.1-.36-.32s.16-.26.31-.3a6 6 0 0 0 1.36-.7c.13.28.25.56.37.85a4.1 4.1 0 0 1 -1.68.47z" fill="#3e3e3e"/><path d="m48 29a1.17 1.17 0 0 1 1.15-1.4 4.45 4.45 0 0 1 3.49 1.2c.11.37.22.73.31 1.1a1.86 1.86 0 0 1 -.64 2.1 5.22 5.22 0 0 0 -.69.9 1.31 1.31 0 0 1 -1 .24.87.87 0 0 1 -.17-1 .82.82 0 0 0 0-.65c-.07-.22-.25-.38-.3-.6-.44-.47-.66-1.14-1.34-1.36-.37-.11-.58-.38-.81-.53z" fill="#3c3c3c"/><path d="m48.76 29.5c.76.14 1.09.75 1.44 1.33-.34 0-.43-.39-.71-.49a1.76 1.76 0 0 0 -.73-.84z" fill="#444"/><path d="m30.3 47.5c0 .3-.31.68.23.83a1.67 1.67 0 0 1 -.28.31c-.2.15-.31.14-.3-.17a1.38 1.38 0 0 1 .35-.97z" fill="#7e7e7e"/><path d="m52.24 30.22c0 .33-.23.66-.26 1s-.73.23-.88-.15c-.28-.71-1-1-1.39-1.58-.05-.06-.11-.11-.16-.18a.72.72 0 0 1 -.18-.77.37.37 0 0 1 .46-.18.53.53 0 0 1 .45.61c0 .12 0 .26.18.23a.29.29 0 0 0 .25-.3c-.08-.66.18-.35.5-.23a1.62 1.62 0 0 1 1.03 1.55z" fill="#444"/></svg>