<svg viewBox="0 0 79.88 66.9" xmlns="http://www.w3.org/2000/svg"><path d="m40.28 32.17a2.43 2.43 0 0 1 -1.55 1.08 9.87 9.87 0 0 0 -1.51-.8 1.54 1.54 0 0 1 -.59-2.13 9 9 0 0 0 .66-2.14 2.77 2.77 0 0 1 .23-.91 1.27 1.27 0 0 0 -.43-1.67c.16-.45.47-.55.79-.21s.59.52.85.81a2.07 2.07 0 0 1 .08 1.88 6.16 6.16 0 0 0 -.43 1.85 1.21 1.21 0 0 1 -.05.18 1.06 1.06 0 0 0 .77 1.67c.18 0 .24-.08.31-.21s.07-.44.32-.53a.42.42 0 0 0 .32-.23c.2-.37.46-.38.73 0a4.75 4.75 0 0 1 -.5 1.36z" fill="#a3a3a3"/><path d="m77.12 27.84c-.56-.24-.46-.75-.49-1.21.25-.36.66-.59.83-1s.13-.74.59-.7.4.47.45.79a4.42 4.42 0 0 1 -1.15 2z" fill="#858585"/><path d="m54.46 25.92a2.5 2.5 0 0 0 -1.64-.1 15.9 15.9 0 0 1 -3.58-.11 12.68 12.68 0 0 0 -3.2-.12 5.23 5.23 0 0 0 -1.31.09c-.14-.15-.43.11-.53-.18s.18-.3.38-.32a3.91 3.91 0 0 0 1.32-.05c.29 0 .49.26.76.26a.6.6 0 0 1 -.59-.54.46.46 0 0 0 -.51-.39c-.15-.14-.35-.24-.39-.47h2.87l9.63.38c3.74.16 7.48.07 11.21 0h.3a16.91 16.91 0 0 1 2.25-.05c.26 0 .41.19.28.39-.3.42-.74 1-1.13 1s-1.09.31-1.63 0a19.47 19.47 0 0 0 -2.53.11 32.26 32.26 0 0 1 -4.17.1c-1 0-2 .13-3.08 0a5.71 5.71 0 0 0 -1.09.07 21.8 21.8 0 0 1 -3.62-.07z" fill="#707070"/><path d="m37.16 0c.28 0 .56.06.83.12a2.28 2.28 0 0 1 1.37.88 11.91 11.91 0 0 0 2.71 2.18c.26.25.5.52.78.74a2.14 2.14 0 0 1 .81 2.49 5.41 5.41 0 0 0 0 2.88 2 2 0 0 1 .09.95 30.55 30.55 0 0 0 -.17 4.88 6.06 6.06 0 0 1 -.22 1.11 4.93 4.93 0 0 0 -.52 2.32 3.63 3.63 0 0 1 -.05.93.19.19 0 0 1 -.14.09.44.44 0 0 1 -.16-.06c-.38-.38-.21-.91-.3-1.35a1 1 0 0 0 -.46-.75 2.4 2.4 0 0 1 .39-1.61c.22-.17.48.25.65 0s-.26-.43-.21-.63a4.35 4.35 0 0 0 -.05-1.35 2.21 2.21 0 0 0 -.07-.88c-.12-.23 0-.42.24-.53a.42.42 0 0 0 .26-.49c-.2-.65-.16-1.34-.36-2-.15-.46-.07-.74.28-.8s.45.29.52.57a2.34 2.34 0 0 0 -.22-.69 1.62 1.62 0 0 1 -.25-1.14.76.76 0 0 0 -.46-.88c-.28-.35-.17-.8-.34-1.19-.34-.79-1.06-1.19-1.65-1.7q-.63-.54-1.23-1.09a5.45 5.45 0 0 0 -2.72-1.7c-.28-.15-.73-.15-.69-.61s.45-.45.77-.55.41-.01.57-.14z" fill="#959595"/><path d="m69 25.81c.36 0 .83.16 1-.4 0 0 .17-.09.2-.06.69.56.77-.23 1.1-.48a2.13 2.13 0 0 1 .25-.16l-.06-.23h-2.31a23 23 0 0 1 3.21-.18c1.33-.09 2.67-.13 4-.14a17.49 17.49 0 0 1 3 .19c.35.06.55.22.5.6a1.54 1.54 0 0 1 -1.53.75c-.3 0-.24-.31-.35-.68l-.39 1.57c-1.16-.43-.2.64-.59.78-.25-.17-.23-.5-.38-.74a1.85 1.85 0 0 1 0-.41c.11-.51-.17-.63-.59-.65-2.1-.09-4.17.27-6.25.38a1.34 1.34 0 0 1 -.81-.14z" fill="#787878"/><path d="m44.6 25.45-.35.14c-.35.54-.85.34-1.32.24-.17-.19 0-.28.1-.37-.11.05-.21.16-.34.23a.88.88 0 0 1 -.6 0c-.34.14-.29.67-.72.72-.46-.26-.16-.56 0-.78.37-.52.39-.51-.12-.9-.23-.38.09-.6.23-.88a.74.74 0 0 1 0-.69c.25-.55.28-1.17.51-1.72a.39.39 0 0 0 0-.35.6.6 0 0 1 0-.81c.14-.18 0-.38 0-.58a.47.47 0 0 1 .73-.27 1.52 1.52 0 0 1 .13 1.09 7.82 7.82 0 0 1 -.48 2.4c-.23.72-.16.84.57.91s1.46.11 2.19.16c.2.25.47.11.71.13a.49.49 0 0 1 .36.36.94.94 0 0 0 1.06.89 2.06 2.06 0 0 1 -1.26-.04 1.25 1.25 0 0 0 -1.4.12z" fill="#696969"/><path d="m42.33 22.93.48-2.4a3.55 3.55 0 0 1 -.48 2.4z" fill="#929292"/><path d="m42.81 20.54-.13-1.09h.15c.08.36.26.73-.02 1.09z" fill="#929292"/><path d="m45.8 24.13c-.25 0-.58.51-.71-.13h.08z" fill="#676767"/><path d="m42.09 19.81c.37.11.41.32.19.62-.07.1-.3.19-.2.32.59.74-.24 1.27-.27 1.92 0 .37-.32.74 0 1.1-.19.38-.52.36-.86.3a13.58 13.58 0 0 0 -1.56-.07 11.37 11.37 0 0 0 1.45 0c.75.2.15.74.22 1.12.28-.1.09-.41.31-.49a2 2 0 0 1 .56.16c.3.16.42.4.06.63a1.35 1.35 0 0 0 -.62 1 .34.34 0 0 1 0 .1c0 .72-.3 1.38-.3 2.1a.56.56 0 0 1 -.46.61c-.39.05-.4-.29-.48-.55l-.13-.21a4.59 4.59 0 0 1 .07-1.61c0-.67-.34-1-1-.72-.18.07-.33.23-.55.14-.33.21-.44-.05-.61-.26s-.34-.7-.83-.45c-1.53-.05-3 0-4.59-.08a7.71 7.71 0 0 0 -3.31.1h-.08c-.79-.18-.79-.18-.71-1a5 5 0 0 1 .06-.54c.08-.42-.12-.65-.54-.66a.49.49 0 0 1 -.5-.23 8 8 0 0 1 .31-3.53c.05-.18.22-.23.36-.32.45 0 .63.18.58.65s-.23.92.31 1.22a.19.19 0 0 1 0 .27c-.49.41 0 .72.09 1.06a1 1 0 0 0 1.11.79c.35 0 .62.24 1 .28a6.36 6.36 0 0 0 1.45-.12 19.84 19.84 0 0 0 4.22 0c.9 0 1.8-.11 2.71 0a2 2 0 0 0 1-.17c.49-.29.49-.81.57-1.29.09-.3 0-.63.16-.94s.37-.78.61-1.15z" fill="#676767"/><path d="m39.8 31.2a10.71 10.71 0 0 1 .36-2.87c.19.19.13.65.47.6s.28-.46.35-.73c.14-.56.26-1.12.38-1.67a7.26 7.26 0 0 1 -.26 2.41c-.12.59-.34 1.18-.45 1.79a.57.57 0 0 0 -.42.38c-.08.18-.23.38-.43.09z" fill="#999"/><path d="m29.26 25.59a2.6 2.6 0 0 1 -.72.46c-.72.48-.36 1.18-.38 1.81a12.34 12.34 0 0 1 -.35 1.55 3.74 3.74 0 0 1 -.19 1c-.39.06-.54.22-.37.64s-.13.87-.25 1.3c0 .16-.27.23-.46.18a.45.45 0 0 1 -.35-.43c0-.28 0-.55 0-.83a4.83 4.83 0 0 1 .16-1.52 8.6 8.6 0 0 0 .21-1.88c0-.16 0-.32.12-.44.53 0 .25.51.41.67a5.77 5.77 0 0 1 .27-2.68.62.62 0 0 1 1.14-.15c.2.31.55 0 .74.25z" fill="#676767"/><path d="m28.17 27a1.94 1.94 0 0 1 -.12.86 4.17 4.17 0 0 0 -.05-.52 1 1 0 0 1 .54-1.28 2.64 2.64 0 0 0 -.37.94z" fill="#747474"/><path d="m24.32 56.4-.47 1.71a.58.58 0 0 1 -.38-.56c.28-.76.06-1.57.3-2.34a.52.52 0 0 0 -.14-.55c-.37-.32-.2-.68-.14-1.07.09-.56.44-1.06.33-1.65a34.58 34.58 0 0 1 1.75-5.14 3.92 3.92 0 0 0 .43-1.8c.21-.91 0-1.84.13-2.76s.38-1.66.62-2.47a1.86 1.86 0 0 0 1.25-1.9 10 10 0 0 0 -.58-2.72c0-.9-.08-1.78 0-2.67 0-.25 0-.54.27-.67l.14-.12a21 21 0 0 1 .21 3 1.18 1.18 0 0 0 .12.64 8 8 0 0 1 .05 5 24.43 24.43 0 0 0 -.38 3.61 4.29 4.29 0 0 0 -.26 1.22c-.33.62-.51 1.31-.81 1.91-.71 1.43-.82 3-1.47 4.46a5.41 5.41 0 0 0 -.38 2.16c-.2.87-.4 1.79-.59 2.71z" fill="#848484"/><path d="m6.66 25.9a2.12 2.12 0 0 0 -.82.38.9.9 0 0 0 -.42.81c0 .27 0 .61-.27.72a.85.85 0 0 1 -.91-.18 5.34 5.34 0 0 0 -2-.9c-.33-.12-.56.11-.8.28a3.08 3.08 0 0 1 -1 .12.34.34 0 0 1 -.44-.23.32.32 0 0 1 .17-.4 7.12 7.12 0 0 1 1.71-.83c.93-.22 1.83-.54 2.75-.82 1.26-.29 2.51-.6 3.78-.86a33.18 33.18 0 0 1 8.26-.6 25.43 25.43 0 0 1 3.7.13c-.43.66.32.88.5 1.31.08.19.31.33.08.56-1.48-.27-3 .07-4.47-.26-.1 0-.22.06-.33.1l-2.86-.33a2.87 2.87 0 0 0 -1.58.2 3.23 3.23 0 0 1 -1.17.19c-1 0-2.07.13-3.1.22a1.41 1.41 0 0 0 -.78.39z" fill="#707070"/><path d="m28.77 6.37a15.72 15.72 0 0 1 1.23-2.53c.2-.08.39-.24.6 0s0 .34 0 .53a12.66 12.66 0 0 1 -.43 1.94s0 .1 0 .12a1.4 1.4 0 0 0 -.31 1.54 25.92 25.92 0 0 0 -1.59 6 1 1 0 0 1 -.1.4 9.28 9.28 0 0 0 -.73 3 22.79 22.79 0 0 0 -.66 2.42 13.24 13.24 0 0 1 -.2 1.54c-.06.29-.08.63-.51.62a.76.76 0 0 1 -.34-.39.41.41 0 0 1 0-.19 4.93 4.93 0 0 0 .27-1.21c.07-.42.14-.78-.3-1.05a.33.33 0 0 1 -.11-.47.51.51 0 0 0 0-.52v-.47a14.91 14.91 0 0 1 .48-2.28 37.08 37.08 0 0 1 2.7-9z" fill="#8f8f8f"/><path d="m29.23 25.56c-.39.08-.79.44-1.11-.2-.09-.19-.44 0-.52.29-.17.57-.32 1.15-.45 1.73-.07.28.06.43.37.34.11 0 .24-.08.31.06s0 .27-.16.33c-.27.13-.43.59-.7.47s-.08-.54-.13-.83a2.71 2.71 0 0 1 0-.29c-.21-.12-.14-.3-.12-.48.1-.76.05-.85-.65-1.26-.39 0-.69.35-1.09.22-.23-.17-.44-.36-.68-.52a.74.74 0 0 1 -.35-.94c.1-.25 0-.28-.19-.28a2.54 2.54 0 0 0 -1.06.1.67.67 0 0 1 -.78-.25c-.17-.2-.18-.4.15-.46a17.16 17.16 0 0 0 2.15-.06l.36-.84a1.11 1.11 0 0 0 .18-.38c0-.16.09-.32.3-.28s.25.18.24.36c0 .49.19.8.72.8.56.16 1.1-.12 1.66 0 .34-.3.68-.16 1 .06a.67.67 0 0 1 .22.9 1.12 1.12 0 0 0 .33 1.41z" fill="#626262"/><path d="m21.93 23.65a.65.65 0 0 0 .81.31 3.19 3.19 0 0 1 2.13.16c0 .15-.17.14-.26.2-.62.4-.62.65 0 1a.88.88 0 0 1 .4.49c.14.26 0 .5-.05.74s-.24.45-.53.23-.32 0-.45-.12-.1-.32-.11-.48a.83.83 0 0 0 -.41-.74 5.18 5.18 0 0 0 -1.67-.77c.9.23 1 .27 1.07.68a1.47 1.47 0 0 0 -1.05 0 1.1 1.1 0 0 1 -.87 0 9.5 9.5 0 0 0 -1.14-1.23c-.13-.13-.36-.27-.27-.49s.35-.12.53-.14h1c.28.21.6-.01.87.16z" fill="#6b6b6b"/><path d="m25.89 23.53c-.94-.3-.94-.3-.93-1.25-.22.06-.21.32-.39.41l.36-1.32a3.65 3.65 0 0 1 .53-1.64c.11-.16.21-.35.46-.27s.18.26.17.45a14.13 14.13 0 0 0 -.09 1.46c-.27.53.1 1 .12 1.51a1.71 1.71 0 0 1 -.23.65z" fill="#6a6a6a"/><path d="m26 21.37c-.24-.53 0-1.1-.11-1.65-.66.37-.75 1.05-1 1.65a15.82 15.82 0 0 1 .69-3.25c.17 0 .5 0 .36.18-.29.41 0 .57.17.82a.66.66 0 0 1 .12.56c-.05.56-.13 1.13-.23 1.69z" fill="#808080"/><path d="m21.93 23.65a1.64 1.64 0 0 1 -.85-.13h3.13a8.71 8.71 0 0 1 -2.28.13z" fill="#707070"/><path d="m29.49 7.82a2.13 2.13 0 0 1 .19-1.24c.17-.69.88-1.3.46-2.12a.15.15 0 0 1 0-.21c.5-.44-.09-.31-.22-.41a7.48 7.48 0 0 1 3.54-3.43 5.61 5.61 0 0 1 2.21-.41h1.49a5.11 5.11 0 0 0 -.48.22c-.23.13-.57.2-.56.53s.4.17.56.34c-.44.45-1 .32-1.51.27a3.33 3.33 0 0 0 -2.4.75 4.33 4.33 0 0 0 -.85.91 11.55 11.55 0 0 0 -1 1.86 6.76 6.76 0 0 0 -.56 1.75 3.65 3.65 0 0 1 -.46 1 .26.26 0 0 1 -.41.19z" fill="#a0a0a0"/><path d="m44.6 25.45a1.13 1.13 0 0 1 1.23-.6c.21.07.26.26.21.48z" fill="#676767"/><path d="m42.32 15.83c.22-1.66-.16-3.34.15-5a15.35 15.35 0 0 0 -.17-2.2 4.84 4.84 0 0 1 .25-1.77c.15-.3.28-.39.49 0 .1.2.25.39.21.61a4.17 4.17 0 0 0 .32 1.91 1.83 1.83 0 0 1 0 .47c0 .13 0 .31-.21.31s-.14-.16-.18-.27-.06-.23-.09-.34-.09-.18-.09-.14-.15.1-.15.15a.87.87 0 0 0 .08.4 5.78 5.78 0 0 1 .47 2.12c.08.62.08.62-.6.66 0 .17.13.18.23.21.33.12.45.24 0 .42a.27.27 0 0 0 -.17.29c.11.52-.15 1.09.29 1.57a.81.81 0 0 1 -.38 1.19c-.6.16-.38-.34-.45-.59z" fill="#929292"/><path d="m41.58 22.09c0-.86 0-1.71 0-2.57a6.32 6.32 0 0 1 .42-2.11 2.08 2.08 0 0 0 .21-.21c.09-.11 0-.38.25-.32a.3.3 0 0 1 .21.43c-.29.73.23 1.42.06 2.14l-.59.36a3.28 3.28 0 0 0 -.4 1.19c-.05.36.08.75-.16 1.09z" fill="#929292"/><path d="m71.34 25.59c.31-.19.51-.12.84 0a1.34 1.34 0 0 1 -.84 0z" fill="#707070"/><path d="m40.88 24 1-.24c.2.19.46.4-.07.48a.41.41 0 0 0 -.4.36c.09.22.51.16.45.48a.65.65 0 0 1 -.46.43.55.55 0 0 1 -.74-.19.47.47 0 0 1 .12-.69c.22-.19.38-.35.14-.63z" fill="#595959"/><path d="m42.89 25.7-.22-.1c.12-.36.32-.63.76-.57.15 0 .4-.14.42.14a.45.45 0 0 1 -.31.46 4.62 4.62 0 0 1 -.65.07z" fill="#676767"/><path d="m42.91 24.09a2.15 2.15 0 0 1 1.18 0c-.3.2-.58.2-1.18 0z" fill="#676767"/><path d="m33.58 7.22a3.23 3.23 0 0 0 -2 1.74 10.16 10.16 0 0 0 -.88 2.4c-.09.65-.12 1.31-.18 2a3.17 3.17 0 0 0 -.34 1.56 6.87 6.87 0 0 1 -.58 2.9c-.28.59-.13 1.26-.39 1.86a1.63 1.63 0 0 1 -.24.54c-.24 0-.28-.21-.27-.36 0-.38-.18-.41-.46-.38l-.24.25a4.64 4.64 0 0 1 .42-1.73 10.13 10.13 0 0 0 .36-2.11 20 20 0 0 1 1.49-6 2.55 2.55 0 0 1 .28-.39c.63-.79 1.26-1.59 1.93-2.36a.7.7 0 0 1 1.1.08z" fill="#9e9e9e"/><path d="m37 23.77a2.64 2.64 0 0 1 1.18-.12.8.8 0 0 0 .81-.58 8.7 8.7 0 0 0 .45-3.82 5.39 5.39 0 0 1 .48-2.25 5.18 5.18 0 0 1 .67-1.13 1.63 1.63 0 0 0 0-1.8 2 2 0 0 1 .13-1.62l.45 1.09c0 .43.1.86.18 1.3a3.09 3.09 0 0 1 -.35 1.71 9.44 9.44 0 0 0 -.45 2.77 12.47 12.47 0 0 1 -.67 3.74c-.16.39 0 .53.35.54a1.54 1.54 0 0 0 .82-.12c-.12.33-.43.3-.66.26a29.67 29.67 0 0 0 -3.39.03z" fill="#a4a4a4"/><path d="m28.28 19.44c.2-.13.43-.32.65-.15s0 .59.08.89a3.87 3.87 0 0 0 .23 1.43 5.05 5.05 0 0 0 -.25.84.36.36 0 0 0 -.09-.08c-.75-.41-.75-.41 0-1-.59-.08-.5-.47-.48-.88s.19-.74-.14-1.05z" fill="#737373"/><path d="m40.88 24a7 7 0 0 1 -2.28 0 3.85 3.85 0 0 1 2.28 0z" fill="#595959"/><path d="m41.74 21c0-.41-.07-.87.35-1.18.11.45-.31.76-.35 1.18z" fill="#696969"/><path d="m27.68 31.81a22.42 22.42 0 0 1 0 2.72 2.47 2.47 0 0 0 .09.64c-.3.32-.76.29-1.11.54s-.38-.09-.38-.35a4.76 4.76 0 0 0 -.1-1.36 19.25 19.25 0 0 1 -.1-2.27c0-.18.06-.32.27-.3a1.94 1.94 0 0 0 0 .24c0 .21-.09.57.24.57s.11-.36.19-.53a.89.89 0 0 0 0-.88.48.48 0 0 1 .11-.61c.23-.16.44.1.66.15-.13.49.12.96.13 1.44z" fill="#747474"/><path d="m19 64.8c-.41.22-.64-.06-.85-.33a4.59 4.59 0 0 1 -.69-2.62c-.08-1-.09-2.06-.1-3.1a13.88 13.88 0 0 1 -.15-2.66 2 2 0 0 1 .11-.64c.3.21.14.58.31.82 0-.25-.24-.5 0-.78-.09 0-.2 0-.28 0a23.07 23.07 0 0 1 .83-4.88c.39-1.52.65-3.07 1-4.61.51-.23.31-.77.48-1.15.06-.11 0-.27.06-.41a3.8 3.8 0 0 1 .28-1.33c.12-.4.51-.5.89-.26a2.85 2.85 0 0 1 -.32 1.51 6.12 6.12 0 0 0 -.35 1.81c-.21 1.22-.69 2.38-.87 3.6a22.62 22.62 0 0 0 -.57 3.47.61.61 0 0 1 0 .23 8.36 8.36 0 0 0 -.31 4.53s0 0 0 .06c-.26 1.33.27 2.65.11 4a3.44 3.44 0 0 0 .21 1.35c0 .09.1.22.16.23.8.17.41.57.21 1a2.24 2.24 0 0 0 -.16.16z" fill="#9a9a9a"/><path d="m20.85 42.85c-.65.11-.85.58-.92 1.15v.53c-.19.15-.31.06-.4-.12a45.88 45.88 0 0 1 1.47-7.41c.78-2.3 1.33-4.67 2-7 .14-.51.32-1 .48-1.53.21.05.17.23.18.38s0 .31.18.3.19-.18.2-.31a.89.89 0 0 1 .05-.46l.08-.17c.09-.22.34-.35.33-.64a.21.21 0 0 1 .34-.17 2.35 2.35 0 0 1 -.53 2 2.82 2.82 0 0 0 -.4 1.34c-.49 2.12-1.24 4.15-1.86 6.23a10.76 10.76 0 0 0 -.72 2.55c-.09.48-.23.95-.32 1.42s0 1.13-.1 1.69c0 .08 0 .16-.06.22z" fill="#949494"/><path d="m20.85 42.85c-.15-.68.15-1.39-.15-2.07a.2.2 0 0 1 0-.17c.75-.86.58-2 1-3 .1-.24.1-.52.37-.65-.35 1.33-.63 2.68-.88 4-.14.66.07 1.33-.34 1.89z" fill="#9a9a9a"/><path d="m22.89 25.35a2.08 2.08 0 0 0 -1.38-.43c-.22 0-.48.13-.48-.22a.37.37 0 0 1 .51-.35 3.42 3.42 0 0 1 1.27.47c.08.06.15.15.24.17 1.07.29 1.07.29 1 1.54a.69.69 0 0 1 .42.86c-.06.35.14.72-.06 1.06v.05c-.16.25-.27.67-.66.5s-.2-.5-.13-.79c.13-.48 0-1 .09-1.47.1-.68-.33-1.06-.82-1.39z" fill="#626262"/><path d="m19.49 44.41a.4.4 0 0 1 .4.12.63.63 0 0 1 0 .62 1.06 1.06 0 0 0 -.12.74c.08.23 0 .41-.21.46s-.33-.18-.36-.39z" fill="#8e8e8e"/><path d="m23.71 26.74v1.49c0 .21-.13.47.13.58s.35-.12.5-.25l.14-.11a3.26 3.26 0 0 1 -.63 1.21.27.27 0 0 1 -.35.14c-.17-.06-.15-.21-.13-.35.05-.34.09-.67.14-1 .14-.56-.01-1.16.2-1.71z" fill="#727272"/><path d="m23.82 51.94a3.1 3.1 0 0 1 -.12 1.81c-.05.21-.15.46 0 .5.83.18.49.86.39 1.17-.2.65 0 1.33-.29 1.95-.17 1.28-.52 2.54-.59 3.84a14.82 14.82 0 0 1 -.21 3.12 3.37 3.37 0 0 0 0 .67c-.19.78-1 1.09-1.35 1.72a.26.26 0 0 1 -.37.09.57.57 0 0 1 -.27-.62c0-.33.16-.66.2-1a43.05 43.05 0 0 1 .59-4.93c.56-2.31 1.08-4.62 1.55-7a11.8 11.8 0 0 1 .47-1.32z" fill="#757575"/><path d="m23.25 61.21c-.26-.58.12-1.11.12-1.63a9.87 9.87 0 0 1 .38-2 1.45 1.45 0 0 1 .09-.22v.74z" fill="#848484"/><path d="m27 39.83a9.67 9.67 0 0 0 -.4-3.07 9.23 9.23 0 0 1 -.19-2.67c.22.4.06.86.17 1.34a1 1 0 0 1 1.27-.26 7.86 7.86 0 0 1 .42 3.83c0 .16-.07.32-.25.35a1.21 1.21 0 0 0 -.76.54c-.17.25-.26.11-.26-.06z" fill="#7b7b7b"/><path d="m19.56 24.54a.34.34 0 0 1 .33.29c0 .15-.07.22-.21.23s-.29 0-.31-.2 0-.29.19-.32z" fill="#6b6b6b"/><path d="m26 21.86a1.85 1.85 0 0 1 -.24 1.08 2.59 2.59 0 0 1 .24-1.57z" fill="#808080"/><path d="m24.45 28.45c-.19-.63-.11-1.31-.36-1.92.18 0 .34-.28.57-.06s.15-.07.19-.14 0-.4.19-.52c.41 0 .63-.52 1.09-.35a2.7 2.7 0 0 0 -.88.7c-.5.27-.2.84-.45 1.21s-.04.79-.35 1.08z" fill="#727272"/><path d="m26.89 25.22c-.21-.51-.44-.68-.82-.57a.68.68 0 0 1 -.34 0c-.19-.07-.43-.15-.36-.4s.32-.17.51-.11a.83.83 0 0 0 .51.09c.28-.07.56-.35.8.11s-.28.43-.3.88z" fill="#6b6b6b"/><path d="m40.77 12.49a6.85 6.85 0 0 0 .44 2.36 1.76 1.76 0 0 1 -.77 1.71c-.37.1-.17.34-.2.53s0 .27-.19.25-.1-.19-.13-.3a8.74 8.74 0 0 0 .23-2.39c.11-.53-.26-1-.2-1.53 0-.09-.1-.2-.07-.31.22-.83-.23-1.55-.38-2.33a5.62 5.62 0 0 0 -.71-1.43c-.41-.88-.73-1.85-1.56-2.29 0 0 .13.19-.07.35l-.71-.11a.44.44 0 0 0 -.45 0c-.58.29-1.16-.18-1.74 0a.28.28 0 0 1 -.35-.24c-.06-.3.16-.44.38-.59a6.14 6.14 0 0 1 2.93-.44 2.68 2.68 0 0 1 2 1.68 17.3 17.3 0 0 1 1.5 4c.05.33-.14.71.05 1.08z" fill="#909090"/><path d="m34.29 6.12c-.17.41-.29.57.4.61a6 6 0 0 1 1.76.27l-2.87.25c-1-.3-1.31.56-1.78 1.1s-.63 1-1.25 1.15a5 5 0 0 1 3.74-3.38z" fill="#979797"/><path d="m37.16 7.11c-.14-.26-.44-.32-.64-.52s-.23-.35-.07-.53.32-.1.47 0a5.77 5.77 0 0 1 1.18 1.09c.07.1.12.24.21.28.36.17.35.39.36.78a2.83 2.83 0 0 0 .86 1.52c.2.25.42.4.29.81s.2.62.36.92.28.39.17.6a1.81 1.81 0 0 0 -.11 1.15 3.4 3.4 0 0 0 .14 1.09c.08.19 0 .37-.23.35a10.62 10.62 0 0 1 -.67-2.83 8.46 8.46 0 0 0 -2.32-4.71z" fill="#878787"/><path d="m28.94 15.53c.28-.22.4.71.66-.06.06-.2.22 0 .29.11a3.51 3.51 0 0 1 -.32 1.59c-.17.16-.63-.06-.66-.35a3.68 3.68 0 0 1 .03-1.29z" fill="#929292"/><path d="m17.36 55.45.35-.69c.05-.1.12-.23.27-.18s.15.17.14.29a.73.73 0 0 1 0 .3 1.63 1.63 0 0 0 -.15 1.5c.05.14 0 .34-.23.32s-.36-.15-.31-.36a3.34 3.34 0 0 0 0-1.18z" fill="#878787"/></svg>