<svg viewBox="0 0 80.77 79.45" xmlns="http://www.w3.org/2000/svg"><path d="m34.29 31.85a24.52 24.52 0 0 0 2.64-2.94 6.26 6.26 0 0 1 1.61-1.23c1.79-1.17 3.56-2.37 5.36-3.52a34.21 34.21 0 0 1 5.67-3.1 85.15 85.15 0 0 1 8.24-2.68 6 6 0 0 1 1.8-.45c.27.24.52-.05.78 0 .42 0 .88-.21 1.21.24a.22.22 0 0 1 -.08.15c-.15 0-.33.12-.45.08-.64-.22-1.22.13-1.82.16-.36.09-.76.1-1 .45a.14.14 0 0 1 -.1.07c-1.22.13-2.23 1-3.48 1a6.81 6.81 0 0 0 -1.89.53 27.53 27.53 0 0 0 -3.14 1.16 4.91 4.91 0 0 0 -1.36.57c-1.74.89-3.27 2.11-5 3a19.56 19.56 0 0 0 -4 2.75 1 1 0 0 1 -.33.26c-1.51.67-2.24 2.13-3.29 3.27-.35.38-.67.79-1 1.14-1.44 1.31-2.64 2.82-4 4.16-.44.41-.88.82-1.34 1.2a15.53 15.53 0 0 0 -2.63 3.08 19.22 19.22 0 0 0 -2.09 2.9 31.28 31.28 0 0 1 -2.6 3.9 11.11 11.11 0 0 0 -1.38 2.7 14.5 14.5 0 0 1 -1.79 3.23 20.12 20.12 0 0 1 -1.13 2.22c-.26.33-.46.7-.69 1.06a8.21 8.21 0 0 1 -1.46 2.31 24.31 24.31 0 0 0 -1.14 2.21 8.38 8.38 0 0 1 -1.21 1.57 1.87 1.87 0 0 1 -.66-.44 2.57 2.57 0 0 1 .54-1.38 4.36 4.36 0 0 0 .8-1.19 7.88 7.88 0 0 0 1.54-2.48 1 1 0 0 1 .23-.42c.62-.48.87-1.25 1.38-1.83a1.62 1.62 0 0 0 .28-.73 9.29 9.29 0 0 1 .69-1.75l.12-.15c.27-.06.38-.27.51-.47.38-.57.55-1.23.89-1.82a1 1 0 0 0 .12-.51 1.39 1.39 0 0 1 .45-.91 1.55 1.55 0 0 0 .43-.95 1.09 1.09 0 0 1 .29-.55.44.44 0 0 0 .06-.16c.25-.31.66-.46.79-.87a1.77 1.77 0 0 0 .61-.93c.3-.26.41-.65.69-.93 0-.38.36-.64.48-1 0-.11 0-.27.08-.32.61-.35.66-1.1 1.12-1.54.18-.24.36-.47.56-.7.49-.23.63-.75.93-1.14.12-.15.15-.44.33-.47.65-.11.95-.65 1.35-1 1.48-1.45 3-2.82 4.44-4.33.63-.67 1.19-1.43 1.76-2.17a1.33 1.33 0 0 1 .28-.31z" fill="#a7a7a7"/><path d="m11.49 29.08c0 3.24 0 6.49-.09 9.73-.06 1.31-.14 2.63-.14 3.94 0 1.82-.17 3.62-.32 5.43a2.53 2.53 0 0 1 0 1c-.18.71 0 1.44-.08 2.17s.22 1.62 0 2.48a10.14 10.14 0 0 0 -.07 1.5c-.1 1.14-.1 2.27-.19 3.41a16.15 16.15 0 0 0 .41 4 4 4 0 0 1 0 1.57c-.3.42-.37.09-.49-.14s.12-.68-.3-.85a.27.27 0 0 1 -.08-.16c0-.26-.2-.52.1-.76a.33.33 0 0 0 -.07-.52c-.39-.24-.39-.49-.12-.81.06-.06 0-.19 0-.27a3.89 3.89 0 0 0 -.05-2.14c-.11-1.94.15-3.86.13-5.78 0-1.24.16-2.47.22-3.7s.26-2.64.3-4a2.93 2.93 0 0 0 -.08-.83 2.11 2.11 0 0 1 .11-1.4 1.36 1.36 0 0 0 0-1.43.61.61 0 0 1 -.08-.46c.28-1.55 0-3.13.26-4.69a16.36 16.36 0 0 0 .14-2.29c0-1.39 0-2.78-.08-4.17 0-.3-.05-.6.2-.83a6.8 6.8 0 0 1 .13 1.8c0-.42 0-.85 0-1.28-.05-.2-.11-.48.24-.52z" fill="#b9b9b9"/><path d="m40.29 4.85a33.21 33.21 0 0 0 3-1.5c.83-.39 1.69-.7 2.55-1 .09.2.47 0 .47.35a18.6 18.6 0 0 0 -4.94 2.3c-.57.35-1.29.47-1.69 1.09a8.35 8.35 0 0 0 -2.36 1.51c-.57.57-1.38.86-2 1.44s-1 1.11-1.47 1.66a29.15 29.15 0 0 0 -2.07 2.3 1.28 1.28 0 0 1 -.75-.3 2 2 0 0 1 1-1.42 4.7 4.7 0 0 0 1.66-1.47 5.22 5.22 0 0 1 1.57-1.5 2.5 2.5 0 0 0 1.11-.78 25.12 25.12 0 0 1 3.92-2.68z" fill="#b2b2b2"/><path d="m24.08 23.44a1.69 1.69 0 0 0 -.48.84 6.64 6.64 0 0 0 -1 2.14c-.68.9-.82 2.08-1.51 3a18.34 18.34 0 0 0 -1.09 2.3 1 1 0 0 0 0 .58 1.15 1.15 0 0 1 -.26.94 2.74 2.74 0 0 0 -.6 1.44c-.1.49-.29.94-.38 1.42 0 .24-.14.45-.44.48s-.51-.08-.24-.42a17.44 17.44 0 0 1 1.11-3.53c.31-.71.42-1.49.68-2.23a34.43 34.43 0 0 1 2.65-5.25 13.43 13.43 0 0 1 .93-1.81c.38-.51.74-1.05 1.12-1.58.22 0 .48-.06.62.21a1.54 1.54 0 0 1 -.79 1.23.77.77 0 0 0 -.32.24z" fill="#b7b7b7"/><path d="m18.08 36.16c0 .17.1.23.25.25.4.21.29.52.12.79a1.23 1.23 0 0 0 -.29.93.42.42 0 0 1 -.14.4.48.48 0 0 0 -.16.55.59.59 0 0 1 -.11.56 4.51 4.51 0 0 0 -.58 1.66 3.79 3.79 0 0 1 -.65 1.88c-.31.35-.17.85-.18 1.29a1.83 1.83 0 0 1 -.48 1.42.46.46 0 0 0 -.13.33 21.38 21.38 0 0 0 -.28 2.29 1.93 1.93 0 0 1 -.35 1.49c-.28-.18-.44-.18-.44.23a.17.17 0 0 1 -.3.13 7.93 7.93 0 0 1 .37-2.71c.52-1.92 1-3.85 1.36-5.81a8.26 8.26 0 0 1 .77-1.94c.48-1 .5-2.13.93-3.14.08-.23.09-.47.29-.6z" fill="#bebebe"/><path d="m11.49 29.08a7.86 7.86 0 0 0 -.08 2.42c0 .15.1.38-.1.41s-.22-.2-.22-.35c0-.83 0-1.65 0-2.48a8.19 8.19 0 0 1 -.09-3.26c.21-1.12-.09-2.25.26-3.35a3.87 3.87 0 0 0 0-1.31 4.75 4.75 0 0 0 .13-1.91 3 3 0 0 1 -.08-1.7 14.26 14.26 0 0 0 -.07-3.2 5.59 5.59 0 0 1 .06-.93c0-.58.28-1.13.06-1.72-.07-.19.11-.36.27-.49.42.24.22.67.22 1 0 .91-.09 1.82-.12 2.74v2c0 .27 0 .56-.15.8a.06.06 0 0 0 0 .06c0-.07 0 0 0-.07s.13-.24.28-.27a2.6 2.6 0 0 1 0 1.24c-.15 2.33-.17 4.67-.27 7-.07 1.1-.02 2.29-.1 3.37z" fill="#b8b8b8"/><path d="m14.36 50.33c.29-.41.14-1 .48-1.44a2.07 2.07 0 0 1 .13 1 .91.91 0 0 1 .07.9 64.17 64.17 0 0 0 -1.49 6.21c-.15.82-.48 1.6-.58 2.43a2.25 2.25 0 0 0 -.33 1.57.67.67 0 0 1 -.11.51c-.36.21-.45-.2-.68-.29a19.68 19.68 0 0 1 .89-4.61 28.48 28.48 0 0 0 .7-2.9c.21-1.11.53-2.2.8-3.3z" fill="#b6b6b6"/><path d="m61.52 18.16c-.58.06-1.17-.17-1.76.07-.25.1-.3-.1-.15-.3l1.08-.38c1.18-.26 2.36-.46 3.55-.67s2.27-.23 3.38-.52c.64-.16 1.34.08 2 0a.27.27 0 0 1 .28.26.35.35 0 0 1 -.17.36 1.69 1.69 0 0 1 -.7.26 15.62 15.62 0 0 1 -2.46.14 8.23 8.23 0 0 0 -2.21.29 6.63 6.63 0 0 1 -1.82.27c-.38-.05-.65.25-1.02.22z" fill="#949494"/><path d="m11.73 17.81c0 .25 0 .52-.12.74 0 0-.14 0-.15 0a1.08 1.08 0 0 1 0-.81 13.74 13.74 0 0 0 0-3.33c0-1.07.14-2.13.16-3.2.38-.17.47.07.47.36a16.36 16.36 0 0 1 0 2.1c0 .5 0 1-.07 1.5-.2.83-.14 1.76-.29 2.64z" fill="#a6a6a6"/><path d="m25.41 20.69a30.71 30.71 0 0 1 1.91-2.89c.43.32 0 .53-.1.76s-.39.17-.25.45l-.26.71a.43.43 0 0 1 0 .27c-.34.53-.66 1.08-1 1.6-.16.23-.28.55-.67.42l-.59.33c-.06-.23.09-.39.11-.58z" fill="#adadad"/><path d="m11.37 19.25a.75.75 0 0 1 .23.75 7 7 0 0 1 -.07 1.7c-.22-.15-.16-.39-.29-.54a3 3 0 0 1 .13-1.91z" fill="#b5b5b5"/><path d="m9.93 67.72a2.25 2.25 0 0 1 .07-1.18 23.85 23.85 0 0 0 .17-3.38c.11.08.27.14.25.3 0 .62.21 1.22.18 1.84a14.33 14.33 0 0 1 -.33 2.15l-.23.26z" fill="#b9b9b9"/><path d="m11.73 17.81a9.74 9.74 0 0 1 .27-2.64 17.18 17.18 0 0 1 -.12 2.27z" fill="#b5b5b5"/><path d="m13.17 63.16a17.75 17.75 0 0 1 -1.69 3.34c-.18-.06-.29-.22-.22-.37.27-.59.06-1.26.36-1.85a1.11 1.11 0 0 0 -.12-1 15.35 15.35 0 0 1 .16-1.65 1.28 1.28 0 0 1 .19-.43c.16-.15.1-.59.35-.5s.09.48.12.74 0 .53.09.8 0 .42.28.52c.15-.07.27-.31.45-.19s.05.43.03.59z" fill="#949494"/><path d="m10.29 65.45a12.45 12.45 0 0 0 -.11-2.28c.37-.11.42.13.41.39a1.32 1.32 0 0 0 .18.8c.35-.06.4-.39.59-.6a.17.17 0 0 1 .19 0c.27.61-.12 1.06-.42 1.5a.61.61 0 0 1 -.84.19z" fill="#8e8e8e"/><path d="m11.34 35.93c0 .12 0 .24-.18.25a.15.15 0 0 1 -.16-.18c0-.12.08-.23.22-.23s.12.07.12.16z" fill="#b8b8b8"/><path d="m50.49 1.73c.15.91-.1 1.11-1.33 1.08-.16-.49-.37-.93-1-.95.09-.3.36-.25.52-.38a2.39 2.39 0 0 1 .89-.29.74.74 0 0 1 .92.54z" fill="#747474"/><path d="m48.69 1.48c-.14.15-.47.26 0 .46a1 1 0 0 1 .48.87c-.57-.85-.57-.85-1.58-.57a5.34 5.34 0 0 0 -1.29.45c-.2-.06-.55.08-.47-.35a12.34 12.34 0 0 1 2.86-.86z" fill="#929292"/><path d="m50.49 1.73c-.49-.73-1.18-.37-1.81-.25.81-.59 1.51-.48 1.81.25z" fill="#929292"/><path d="m31.76 12.88-.72 1c-.19-.18-.56-.13-.61-.49.24-.24.56-.4.74-.7a.45.45 0 0 1 .59.19z" fill="#9d9d9d"/><path d="m11.49 63.78h-.13l.21-1.88a.9.9 0 0 1 .28-.63 6.8 6.8 0 0 0 -.24 2.16c.16.16.08.27-.12.35z" fill="#b6b6b6"/><path d="m27 19c-.25-.19-.07-.34.05-.48a1.16 1.16 0 0 0 .3-.73c.75-.69 1-1.73 1.81-2.39.42.17.17.42 0 .56s-.13.34 0 .52a.43.43 0 0 1 -.1.24 2.44 2.44 0 0 1 -.6.6c-.41.47-.81 1-1.2 1.43z" fill="#9d9d9d"/><path d="m27.21 18.76a4.14 4.14 0 0 1 1.2-1.43 5 5 0 0 1 -1.2 1.43z" fill="#adadad"/><path d="m30.2 15.15h-.1c-.33.32-.36.87-.85 1.06l-.24.25-.2.22c-.08.08-.17.19-.3.09s-.05-.22 0-.33c.16-.38.57-.62.63-1.06a2.27 2.27 0 0 0 .74-1.48c0-.21.16-.34.34-.44l.22-.14c.7-.18.7-.18.61.49a3.87 3.87 0 0 1 -.85 1.34z" fill="#777"/><path d="m30.21 13.49a1.43 1.43 0 0 0 -.27.66 1.67 1.67 0 0 1 -.81 1.26 4.93 4.93 0 0 0 .67-1.52.51.51 0 0 1 .41-.4z" fill="#9d9d9d"/><path d="m11.49 63.78.12-.37c.36-.07.36.18.3.4a14.36 14.36 0 0 1 -.43 2.69 1.5 1.5 0 0 1 -1.2 1c-.2-.09-.21-.25-.18-.44.07-.53.13-1.06.19-1.58a2.26 2.26 0 0 0 1.2-1.7z" fill="#757575"/><path d="m29.25 16.24c.34-.31.47-.78.85-1.06-.2.42-.31.91-.85 1.06z" fill="#9d9d9d"/><g fill="#1d1d1b" font-family="BaskervilleMTPro-Regular, Baskerville MT Pro" font-size="10"><text transform="translate(0 16.61)">B</text><text transform="translate(54.67 8.31)">D</text><text transform="translate(74.52 21.42)">E</text><text transform="translate(29.13 21.76)">C</text><text transform="translate(7.64 76.9)">A</text></g></svg>