<svg viewBox="0 0 156.54 73.2" xmlns="http://www.w3.org/2000/svg"><path d="m47.12 18.23c-.44.3-.72.76-1.25 1a1.07 1.07 0 0 1 -.78.11c-.54-.21-.66-.37-.48-1a2.44 2.44 0 0 0 -.38-2 .85.85 0 0 1 -.1-.83 2.24 2.24 0 0 0 .52-1c.18-.82.88-1 1.6-1 1.09 0 2.17.29 3.26.4a14.82 14.82 0 0 0 4.1 0 1.15 1.15 0 0 1 1.24.37c.2.28.14.5-.16.52s-.69.28-1 .37-.75.3-.87.78-.46.29-.72.22c-1.59-.48-3.25-.58-4.86-1-.58-.15-.77.05-.84.67v.65c0 .9.22 1.14 1.12 1.1.15 0 .27 0 .34.16s.05.4-.22.46-.38-.08-.52.02z" fill="#3f3f3f"/><path d="m127.75 67.08a38.24 38.24 0 0 1 -3.86.06 47 47 0 0 0 -6-.08 2.91 2.91 0 0 1 -.76-.11l-.12-.11c-.19-.26 0-.44.17-.52a1.84 1.84 0 0 1 1-.24 1.22 1.22 0 0 0 .89-.23 1.36 1.36 0 0 1 1.42 0 2.35 2.35 0 0 0 1.56.41 2.56 2.56 0 0 1 1.23.07 1.5 1.5 0 0 0 .66 0 2.76 2.76 0 0 1 1.68.11 1.57 1.57 0 0 0 1 0 5.68 5.68 0 0 1 3 0c.12.05.26 0 .39-.08a1.87 1.87 0 0 1 .88 0 .43.43 0 0 1 .36.42c0 .23-.2.27-.36.34a.66.66 0 0 1 -.24 0 19.71 19.71 0 0 1 -2.9-.04z" fill="#535353"/><path d="m87 16.21a.73.73 0 0 1 -.51.15 16.49 16.49 0 0 0 -3.58.2c-2.46.44-5 .51-7.44.76a14.27 14.27 0 0 0 -3.5.61 1.54 1.54 0 0 1 -1 0 11.55 11.55 0 0 0 -2.49-.16 4.31 4.31 0 0 0 -2 0c-.11.17-.24.16-.38 0a1.75 1.75 0 0 0 -.16-.25c-.11-.12-.45 0-.36-.35s.34-.29.58-.31h.24c1.51 0 3 .23 4.52.25a10.44 10.44 0 0 0 2.54-.35c.44-.12 1.87-.16 2.13-.2 1.16-.15 2.33-.12 3.48-.3a13.78 13.78 0 0 0 3.22-.37 19.94 19.94 0 0 1 4-.22c.17.24.55.21.71.54z" fill="#7c7c7c"/><path d="m129.19 58.2c-.84.8-1.73 1.55-2.5 2.44s-1.39 1.39-2.06 2.12a5.17 5.17 0 0 0 -.49.73c-.17.37-.47.65-.8.45s-.2-.6 0-.91l.1-.15c.58-.71 1.26-1.32 1.88-2a14.13 14.13 0 0 0 1.58-1.61c.29-.39.79-.56 1-1s.82-.29 1.25-.31c.12-.04.13.12.04.24z" fill="#606060"/><path d="m135.43 66.37a3 3 0 0 0 1.08-.13c2.45-.11 4.9-.3 7.33-.54a17.86 17.86 0 0 0 2.32-.21c1.17-.29 2.39-.17 3.56-.44a1.08 1.08 0 0 1 .68-.17s.1 0 .09.05c-.11.52.25.22.4.22s.46-.07.7-.1.38 0 .41.23a4.15 4.15 0 0 1 -2 .33c-2.2 0-4.4.33-6.6.43-1.42.06-2.84.36-4.26.55a9.4 9.4 0 0 0 -2.12 0 12.16 12.16 0 0 1 -2 .29h-.36c-.06-.27.12-.34.31-.32s.37-.01.46-.19z" fill="#979797"/><path d="m27.09 72c.17-.12.52-.17.45-.4s-.58-.25-.94-.47c.58-.07 1.08-.15 1.58-.2a.91.91 0 0 0 .81-.5 1.58 1.58 0 0 1 1.81-.84c0 .28-.18.43-.33.61a6.75 6.75 0 0 1 -3.15 2.16c-.15.07-.32.11-.41-.06s.09-.23.18-.3z" fill="#505050"/><path d="m121.52 14c-1.25.11-4.8.21-5.33.3a1.12 1.12 0 0 1 -.7 0c-.19-.31-.45-.05-.68-.07s-.42 0-.42-.28.33-.32.55-.32c1.76 0 3.51-.15 5.26-.23 1.37-.07 2.74-.23 4.11-.32.32 0 .64-.06 1-.06s.82 0 1 .42l-2.31.46c0 .08 0 .19-.08.2-.81.16-1.62.51-2.4-.1z" fill="#797979"/><path d="m24.07 49.79a8.42 8.42 0 0 1 -1.42 0 .16.16 0 0 1 -.16 0c-.22-.19-.39-.39-.11-.67a1.08 1.08 0 0 1 .74-.19c1.62 0 3.22-.14 4.83-.24a.94.94 0 0 1 .68.12 14.06 14.06 0 0 1 2-.13c.32.14.62 0 .92 0s1.49 0 .37.46c-.34.06-3.76.15-5.1.38-.88.15-1.82.06-2.75.27z" fill="#9e9e9e"/><path d="m66.47 17.27h-.59l.31.39c-.11.13-.21.26-.37.07-.66-.59-1.44-.27-2.17-.24a7 7 0 0 1 -2 0 1.67 1.67 0 0 0 -.86.12 8.63 8.63 0 0 1 -2.77.25h-1.44c-.19-.21-.44-.1-.67-.13a.21.21 0 0 1 -.09-.34c.72-.42 1.52-.19 2.28-.32 1.84-.24 3.69-.24 5.54-.3.82 0 1.63.07 2.45.08.22.03.48.07.38.42z" fill="#7e7e7e"/><path d="m55.88 17.51.23.13c0 .3-.25.31-.48.24l-.12-.07s0-.09-.07-.09c-.85.14-1.71-.13-2.57 0-.8 0-1.59.33-2.35.27-1.16-.09-2.25.64-3.4.2.14-.13.46 0 .47-.36s.13-.38.33-.39c1-.06 2.1-.16 3.14-.26.55 0 1.1-.12 1.66-.12l.21-.06a22.21 22.21 0 0 1 5 .31 17 17 0 0 0 -2.05.2z" fill="#6a6a6a"/><path d="m114.53 14h.81c.14 0 .32 0 .15.24l-.34.09a6.2 6.2 0 0 1 -2.19.11c-.95.05-1.91.1-2.86.22a1.67 1.67 0 0 1 -.7-.08.45.45 0 0 0 -.26-.12c-.29-.08-.32-.22-.08-.41.9-.08 1.81-.08 2.72-.08.36 0 .68-.12 1-.14s.7-.12 1.06-.13.54.05.69.3z" fill="#6f6f6f"/><path d="m16.65 72.57c.4-.15.78.07 1.16.13 1.2.19 5.4 0 6.62 0-.08.2.19.1.08.21-.72.14-4.89.31-5.6.27s-1.19 0-1.78-.08a3.81 3.81 0 0 1 -1.45-.27h-.1v-.11c.28-.34.65-.13 1-.16z" fill="#797979"/><path d="m27.09 72c-.11.24.06.3.23.36a36 36 0 0 1 -3.7.7.5.5 0 0 1 .46-.4z" fill="#8c8c8c"/><path d="m55.63 17.88.48-.24c.16.1.52-.21.48.25-.32-.05-.59.11-.96-.01z" fill="#7b7b7b"/><path d="m107.24 12.24 6.59-.36 2.65-.25a5.77 5.77 0 0 1 1.24-.16c.13 0 .23.08.22.22a.25.25 0 0 1 -.28.24 36.56 36.56 0 0 1 -4.6.77c-1.27 0-2.5.15-3.75.21-2.71.12-5.42.18-8.13.4a13.37 13.37 0 0 1 -3.46-.05c-.23 0-.5 0-.57-.32s.32-.2.52-.21.57 0 .86 0h2c-.15-.05-.37.1-.49-.13a8.58 8.58 0 0 1 2-.12z" fill="#8d8d8d"/><path d="m89 13 .26-.11h.58c1.45.08 2.88-.16 4.33-.1.17.29.9.26.77.43a8.35 8.35 0 0 1 -2.05.32c-1.08 0-2.16 0-3.23 0-.27 0-.58.07-.76-.23a.29.29 0 0 1 .1-.31z" fill="#979797"/><path d="m151.86 64.55a18.66 18.66 0 0 0 3.86-1.89c.4 0 .42 0 .25.47a4 4 0 0 1 -1.82 1.18c-.61.17-1.19.42-1.79.63-.21-.07-.48-.07-.5-.39z" fill="#646464"/><path d="m151.86 64.55c.24 0 .55 0 .5.39l-.36.34a11.91 11.91 0 0 1 -2.34.12c.26-.29.57-.21.78-.36a14.9 14.9 0 0 0 1.42-.49z" fill="#575757"/><path d="m156 63.13a.53.53 0 0 0 -.25-.47c.3-.14.61-.48.82.09z" fill="#969696"/><path d="m133.76 5.76-.75.18c-.2 0-.4.37-.61.07s.09-.45.28-.61h.12a2.78 2.78 0 0 0 .95-.11 7.87 7.87 0 0 1 1.61-.06c.49 0 .26.3.16.52-.59.17-1.17.51-1.76.01z" fill="#6b6b6b"/><path d="m8.86 69.94a12.43 12.43 0 0 1 2.85-.84 1 1 0 0 1 .85.14l.06.1c.08.16.37.26.22.48s-.35.07-.53 0c-.47-.06-1-.11-1.43-.13a10.12 10.12 0 0 0 -3.12 1.31 1.72 1.72 0 0 1 -.85.25c-.12.09-.28 0-.39.1a.25.25 0 0 0 -.15.23c0 .11.11.16.21.18a3.25 3.25 0 0 0 .76 0 1.48 1.48 0 0 1 1.22.24.24.24 0 0 1 -.12.14c-1 .08-2 0-3.07 0a3 3 0 0 1 -1-.32c-.16-.06-.19-.19-.09-.34a6.78 6.78 0 0 0 2.64-1s1.36-.28 1.94-.54z" fill="#5a5a5a"/><path d="m37.15 63.7c-.18 0-.46.12-.52-.13s.22-.3.38-.4a4.8 4.8 0 0 1 1.84-.63c0 .19.35.11.35.34-.64.26-1.39.19-1.92.72z" fill="#828282"/><path d="m68.29 33a5.22 5.22 0 0 0 -.44 2.47v.23c.12 1 .24 1.08 1.23.75h.09c.26.49 1 1.23 0 1.49 1 1.44.16 3.13 0 2.89s-.73-3.74-1-3.7c.06.36-1.1.4-1.41.15-.17-.48-.52.15-1 .18-.23 0-.55.11-.6-.29s.19-.28.4-.33a1.24 1.24 0 0 0 1-1.71c-.09-.33.1-.62.07-.94s-.16-.71-.67-.56a.43.43 0 0 1 -.5-.21 2.51 2.51 0 0 1 -.46-1.75 1.25 1.25 0 0 0 -.16-.67 1.53 1.53 0 0 1 .34-2.18c.72-.62.74-1.56 1-2.37a2.43 2.43 0 0 0 .08-.53c.17-.73.27-.77.87-.36a2.68 2.68 0 0 1 -.56 2.65c-.82.66-.65 1.1-.82 1.21a7.33 7.33 0 0 0 1.07-1c.5-.32.82-.45 1.22-.09v.22c.2.53-.44.39-.79.56a.74.74 0 0 0 -.43.42c-.06.11-.8 1.23-.72 1.34-.11.27 1.24-.1 1.37-.16s.13-.82.25-1c.36-.71.91-.69 1.17-.11.2.17.54-.06.72-.19s.35-.31.61-.19c.56.47-.11.58-.26.84-.31.37-.81.43-1.18.7 0 .68-.6.53-1 .63a2.48 2.48 0 0 0 -.76.13c-.29.08-1 0-1 .39a2.06 2.06 0 0 0 .66 1.09.81.81 0 0 0 .89-.2c.07-.07.1-.57.2-.62.63-.11.66-.07.52.82z" fill="#444"/><path d="m67.16 25.68c-.33-.1-.63-.12-.83.24a23.54 23.54 0 0 0 -.33-4.67 1 1 0 0 0 -.14-.51c-.06-.79-.11-1.58-.18-2.38a.78.78 0 0 1 .16-.61l.37-.07.26.07a.47.47 0 0 1 .3.53 8.77 8.77 0 0 0 .18 3c.14 1 0 2 .2 3a1.55 1.55 0 0 1 .01 1.4z" fill="#5d5d5d"/><path d="m70.16 29.4a4.24 4.24 0 0 0 .84-2.35.52.52 0 0 1 .3-.51h.42c.46 1-.12 1.77-.57 2.52a2.19 2.19 0 0 1 -1.15.94c.1-.18.44-.33.16-.6z" fill="#4a4a4a"/><path d="m41.83 51.33c-.26-.19-.42.13-.64.17a.91.91 0 0 0 -.16.11c-.09.11-.12.32-.31.3-.38 0-.44.22-.49.5a1.71 1.71 0 0 0 -.3 1.38 1.12 1.12 0 0 1 -.07.52.15.15 0 0 1 0 .07.52.52 0 0 1 -.1.34.33.33 0 0 1 -.15.2 1.21 1.21 0 0 1 -.35.33 1 1 0 0 1 -.49.17.78.78 0 0 1 -.51 0c-.35-.2-.27-.42-.07-.6a.58.58 0 0 1 .34-.36s0 0 0 0a2.65 2.65 0 0 1 1.11-.24c.11-.07 0 0 0 0 .09-.21-.07-.68-.08-.52-.74-.21-1 0-1.45-.29a.59.59 0 0 0 -1 .18 4.89 4.89 0 0 0 .06 1.7c.13.4 0 .87.29 1.29s-.08 1-.36 1.41a.75.75 0 0 0 -.17.48c-.08-.48-.35-.31-.59-.16a1.28 1.28 0 0 0 -.52 1c.1.23.18.51.52.45.17 0 .36-.15.43.13a.48.48 0 0 1 -.22.51c-.13.11-.38.12-.4.41.5 0 1 .16 1.37-.33a3.67 3.67 0 0 1 1.44-.45c.61.6.55.93-.23 1.3 0 .3.41.33.48.6s0 .72-.47.74c-.23.46.21.24.35.34.55 0 .78-.26.81-.79a7.84 7.84 0 0 1 .18-.81 15 15 0 0 0 .35-1.87 12.22 12.22 0 0 1 .4-3.4 3.24 3.24 0 0 0 .12-1.12c0-.87-.09-1.75.9-2.21.13-.17.07-.37.1-.56a.75.75 0 0 0 -.12-.92zm-3.65 8.13a.43.43 0 0 1 -.32-.29s0-.06 0-.08a1.65 1.65 0 0 1 -.22-.24l.18.15a.4.4 0 0 1 0-.21c.28-.83 1.5-1.17 1.82-.21s-.77 1.08-1.46.88zm1.46-2.25a1.74 1.74 0 0 1 -1.2.53.29.29 0 0 1 -.1 0h-.1a.52.52 0 0 1 -.24-.74 1.56 1.56 0 0 1 .33-.49.12.12 0 0 1 .05-.07c.41-.4 1-.69 1.32-.18a.89.89 0 0 1 -.06.95z" fill="#404040"/><path d="m37.06 58.43a.59.59 0 0 0 .34.28.28.28 0 0 0 -.13 0c-.12-.06-.17-.16-.21-.28z" fill="#404040"/><path d="m36.45 55.09a.41.41 0 0 1 .05-.19.06.06 0 0 1 0 0c.21-.12.41 0 .53.23a1.47 1.47 0 0 1 .08.28l.06-.05c0-.41-.21-.74-.27-1.12-.12-.07-.36-.06-.34-.2.07-.44-.27-.67-.44-1s-.29-.46-.25-.59a13.29 13.29 0 0 0 0-2.09 4.28 4.28 0 0 1 .38-2.61 1.55 1.55 0 0 1 0-1.25 3.61 3.61 0 0 0 .2-2.5c-.06-.31-.28-.55-.28-.88 0-.82 0-1.64 0-2.46a1.54 1.54 0 0 0 -.63-1.29 1.48 1.48 0 0 1 -.51.13.41.41 0 0 0 -.43.41 6 6 0 0 0 .17 1.81 19.45 19.45 0 0 1 .15 2c.15 1.24-.19 2.48-.1 3.73 0 .3-.06.48-.43.57s-.56 0-.76.24l-.24.12c-.09.06-.27 0-.26.17s.14.12.23.1l.59-.08c.33-.05.67-.12.88.26a14.48 14.48 0 0 1 0 3.48 21 21 0 0 0 .44 3c.37 0 .22-.37.42-.53.07.34 0 .74.53.61a1.08 1.08 0 0 1 .23-.3z" fill="#434343"/><path d="m42 52.68a3.05 3.05 0 0 1 -.05-.52c0-.52-.24-.61-.67-.44a3.8 3.8 0 0 1 -.15-1.86c0-.37.14-.74-.12-1.08a.52.52 0 0 1 0-.26 4.06 4.06 0 0 0 -.23-2c-.09-.46-.07-.93-.17-1.4s-.17-1.24-.34-1.84a15.29 15.29 0 0 0 -.8-2.28c-.26-.56-.16-.68.48-.8.18 0 .35-.33.56 0l.26.81a7.2 7.2 0 0 0 .35 1.44 35.67 35.67 0 0 1 .68 3.57 6.16 6.16 0 0 0 0 1.5 7.56 7.56 0 0 1 .32 1.85c.08.89.07 1.79.08 2.69a.94.94 0 0 1 -.2.62z" fill="#525252"/><path d="m29.46 37.57a9.35 9.35 0 0 1 -.32-1.71 14.16 14.16 0 0 1 -.25-1.93c0-.17 0-.35 0-.53s0-.64-.42-.76a.51.51 0 0 1 -.33-.58c0-.27.25-.27.45-.3a14.36 14.36 0 0 1 2.78-.32c.12.09.26 0 .39.06.63 0 .64 0 .37.62a7.06 7.06 0 0 1 -1.11.23.7.7 0 0 0 -.65.74 9.05 9.05 0 0 0 .63 4.28c.21.42-.12.49-.37.62-.51.09-.82-.23-1.17-.42z" fill="#4a4a4a"/><path d="m22 34.44-.12-.4c-.05-.14 0-.39-.22-.35a.33.33 0 0 0 -.23.43c0 .12.07.23.1.35s.15.4 0 .56-.37-.07-.57-.21v.46c-.1-.8-.17-1.61-.29-2.4-.2-1.28-.43-2.55-.63-3.83a5.65 5.65 0 0 1 -.05-.71.43.43 0 0 1 .18-.61.64.64 0 0 1 .7.19.92.92 0 0 1 .32.54 1.74 1.74 0 0 0 .07.82c.22.54.18 1.12.35 1.67.07.2.1.42.18.61.06.06.04 2 .21 2.88z" fill="#5c5c5c"/><path d="m44.59 30.38c0 .14.14.33.09.39-.59.67-.18 1.49-.38 2.21-.13.19 0 .34.06.5.3.33.18.71.13 1.08a2.57 2.57 0 0 0 -.07.4c0 .9.15.74-.83.74a.46.46 0 0 1 -.48-.5c0-1-.13-2-.12-3 0-.34 0-.61-.48-.57a2.87 2.87 0 0 1 -.82-.09c-.34 0-.52-.37-1-.44a4 4 0 0 1 1.71-.43c.2 0 .43.08.62-.08a3 3 0 0 1 1.57-.21z" fill="#494949"/><path d="m43 30.58c-.59.27-1.27.14-1.91.4.25.16.52.06.7.24-.19.34-.44.25-.7.09a21.41 21.41 0 0 0 -3.75.23c0 .3-.24.35-.45.4a2.16 2.16 0 0 1 -.7.13c-1.2-.06-2.38.2-3.58.14-.23 0-.54.07-.64-.28.17-.63-.46-.25-.6-.49 1.56-.08 3.13-.14 4.69-.24s2.84-.36 4.27-.43c.92-.04 1.81-.12 2.67-.19z" fill="#727272"/><path d="m21 28.08c-.35 0-.77-.29-1 .26a17.62 17.62 0 0 1 -.36-3.69c0-.9 0-.9.94-1a3.1 3.1 0 0 1 .14 1.65 8.57 8.57 0 0 0 .28 2.09 1.09 1.09 0 0 1 0 .69z" fill="#6d6d6d"/><path d="m35 38a2.29 2.29 0 0 0 1.07-.1c.14-.07.27-.07.31.11s-.1.19-.21.22-.39-.09-.57 0a6.65 6.65 0 0 1 -2.13.2c-.89 0-1.78.12-2.68.18-.27-.36.26-.4.27-.64a1.13 1.13 0 0 1 .71-.24c.85-.05 1.7 0 2.55-.1a.64.64 0 0 1 .68.37z" fill="#7a7a7a"/><path d="m22.48 45.52c.49-.11.93.4 1.43.12 1.13.06 5.36 0 6.65 0a24.28 24.28 0 0 1 -4.48.42c-1-.06-3.34.44-3.62-.13l.42-.15z" fill="#8f8f8f"/><path d="m31.16 45.71a7.28 7.28 0 0 0 -1.4.21 7 7 0 0 0 -1.29-.13 9.41 9.41 0 0 0 2.94-.79c.39 0 .91-.11 1.08.32 0 .11-.63.22-1 .3z" fill="#747474"/><path d="m39.45 37.58a19.82 19.82 0 0 1 3-.78c.19 0 .48-.1.52.13s-.28.19-.44.26c-.79.18-1.58.36-2.36.56a1.77 1.77 0 0 1 -.76 0c-.05-.03-.05-.1.04-.17z" fill="#6f6f6f"/><path d="m33.56 48.26c.16.13.16.11.42.12s.8-.14 1 .33a1.07 1.07 0 0 0 -.9-.16 4.84 4.84 0 0 0 -1.76.39h-.45c-.61-.14-1.23.1-1.95 0l.73-.2a21.73 21.73 0 0 1 2.91-.48z" fill="#6d6d6d"/><path d="m31.15 38.16c.11.11.49.19 0 .34l-.39.15c-.27 0-.54.1-.81.12s-.49-.05-.53-.35.26-.26.48-.36l-.47-.49a2.59 2.59 0 0 0 1.1.23c.2.2.69-.19.62.36z" fill="#5b5b5b"/><path d="m39.45 37.58v.21a19.12 19.12 0 0 1 -3.84.48c.48-.17.48-.17.47-.36z" fill="#8d8d8d"/><path d="m144.55 42.34a8.66 8.66 0 0 1 1.83-.17.19.19 0 0 1 .23.14.22.22 0 0 1 -.11.26c-1.23.57-.94 1.77-1 2.73a31.38 31.38 0 0 0 .07 5.65 9.29 9.29 0 0 0 1.18 4c.08.13.26.3.12.43-.61.55-.16 1 .13 1.44a1.07 1.07 0 0 1 .1.22c.09.21 0 .53.35.6l.13.12c.09.15.2.34 0 .44s-.6.42-1 .14a15.75 15.75 0 0 1 -1.76-2.46c-.22-.41.16-.82.58-1.19a4.63 4.63 0 0 0 -.46-1.56 8.35 8.35 0 0 0 -.55 3.61c0 .12.05.23-.1.28-.16.57-.6.53-1.05.5a5.31 5.31 0 0 1 .06-2.28c.05-.4-.06-.78 0-1.19a29.91 29.91 0 0 0 .49-3.77c0-.42-.14-.81-.09-1.22a1.63 1.63 0 0 0 .17-1.45 3.55 3.55 0 0 1 .13-1.61 15.46 15.46 0 0 0 .15-2.35c0-.28.37-.61-.1-.83-.15-.23-.07-.36.17-.42s.22.06.33-.06z" fill="#3d3d3d"/><path d="m141.68 40.2a2.28 2.28 0 0 0 -.12 2c.14.4.44.48.83.45.14 0 .4-.11.41.16s-.2.26-.35.23c-.39-.06-.51.23-.67.47-.77.27-.77.67-.57 1.28.3.88.3.88-.65.95a.21.21 0 0 1 -.21-.06c-.09-.08-.22-.13-.24-.25-.09-.56-.5-.79-1-1-.07-.07-.18-.13-.19-.22-.09-.5-.42-.65-.88-.68a1.5 1.5 0 0 1 -.38-.15c-.34-.21-.29-.43 0-.63a1.79 1.79 0 0 0 .34-.22c.7-.89 1.42-1.77 2.16-2.63.32-.36.27-.88.57-1.24s.71-.21.79.34a3.18 3.18 0 0 0 .25.57c.16.31.14.5-.09.63z" fill="#3a3a3a"/><path d="m130.37 55.41a29.59 29.59 0 0 0 .5-3.47 13.11 13.11 0 0 0 -.17-3.48q-.28-1.29-.51-2.58c-.05-.31-.21-.72.32-.81s.62 0 .75.55a18.87 18.87 0 0 1 .43 6.94 2.92 2.92 0 0 0 0 .59c-.17.39 0 .83-.22 1.21s-.54.68-.31 1.2c.11.25-.13.37-.38.37s-.49-.17-.41-.52z" fill="#4a4a4a"/><path d="m136.86 51.25a1.72 1.72 0 0 1 -1-2.15 4 4 0 0 1 .44-1.36 2.33 2.33 0 0 1 2.16-1.34 10.51 10.51 0 0 1 1.86 0c.08 0 .15 0 .18.11l.14.29a3.45 3.45 0 0 1 -.24 1.59 8.47 8.47 0 0 0 -.66 1.43c-.1.54-.67.83-.88 1.36-.11.27-.6.05-.76-.36a10.45 10.45 0 0 0 1-2.08c.09-.39.22-.74-.26-1a.84.84 0 0 0 -1.21.39 2.16 2.16 0 0 0 .1 2.27c.27.89-.14 1.12-.87.85z" fill="#3d3d3d"/><path d="m146.58 58.21a5.61 5.61 0 0 0 1-.49c.48.51 1 1 1.45 1.53a7.79 7.79 0 0 0 3.54 2.23c.15.06.42 0 .41.26s-.27.31-.49.33l-.71.07a14.3 14.3 0 0 0 -2.16-1.14 15.24 15.24 0 0 1 -3-2.54.13.13 0 0 1 -.04-.25z" fill="#4c4c4c"/><path d="m130.37 55.41c.16.22.38.25.71.19-.54-.66-.08-1 .4-1.24a8.18 8.18 0 0 1 -.62 2.39l-.51 1.15a.44.44 0 0 1 -.6.25c-.27-.08-.22-.32-.17-.51.09-.34.22-.67.33-1 .4-.33.32-.83.46-1.23z" fill="#595959"/><path d="m138.42 42.83c0 .44-.63.23-.71.62a2.39 2.39 0 0 1 -1.22.13 25.11 25.11 0 0 0 -2.71.27 12.87 12.87 0 0 0 -2.78.15c-.19-.14-.41-.08-.62-.1-.13-.22 0-.23.18-.25s.4.08.54-.13a4.57 4.57 0 0 0 1.33-.1.81.81 0 0 1 .51-.15 31.94 31.94 0 0 0 4.89-.53c.17-.01.41-.07.59.09z" fill="#747474"/><path d="m136.86 51.25c.88 0 .46-.5.39-.88.49-.2.76.31 1.17.36 0 .11 0 .27.14.29s.17-.14.25-.22c.59-.55.72-1.37 1.17-2a1.38 1.38 0 0 1 .39-.44 6.27 6.27 0 0 1 -1.37 2.75 2.34 2.34 0 0 1 -2.14.14z" fill="#4e4e4e"/><path d="m144.11 42.74-.53.21c-.49.26-1.07.08-1.55.35-.08.14-.14.32-.35.15a1.13 1.13 0 0 1 .86-.61c-.37-.17-.88-.07-1-.62a1.9 1.9 0 0 0 1.69.3c.44 0 .87-.12 1.3-.18-.12.14-.36.16-.42.4z" fill="#5f5f5f"/><path d="m140.37 48.37.24-1.59a1.74 1.74 0 0 1 -.24 1.59z" fill="#4e4e4e"/><path d="m37.25 25.19a5.7 5.7 0 0 0 0 1.7c-.06.48-.54.46-.78.45s-.16-.41-.17-.65c-.07-1.66 0-3.33 0-5 0-1.05 0-2.1.06-3.14a4.17 4.17 0 0 0 -.15-1.55 2.41 2.41 0 0 1 0-1.07 2.31 2.31 0 0 1 .52-.12c.55-.13.73.14.72.63v3.69a46.94 46.94 0 0 0 -.2 5.06z" fill="#4c4c4c"/><path d="m38 15.6a1.89 1.89 0 0 1 1.4-.29 22.22 22.22 0 0 0 2.31.16 4 4 0 0 1 1 .17c.25.12.18.21 0 .3h-.23a5.34 5.34 0 0 0 -1.74 0c-.18-.07-.37 0-.55 0a2.32 2.32 0 0 0 -1.38 0c-.4.17-.62-.07-.81-.34z" fill="#717171"/><path d="m131.46 13.05a12.43 12.43 0 0 0 -.27 2.11 1.84 1.84 0 0 1 -.1.53.48.48 0 0 1 -.57.32c-.25-.07-.3-.31-.24-.54a10.34 10.34 0 0 0 .11-1.67c0-.28.09-.61-.24-.81h-.22c-.35.2-.73 0-1.09.09-.1 0-.18-.07-.19-.18a.4.4 0 0 1 .13-.32c.13-.13.32-.11.49-.14a1.46 1.46 0 0 0 .94-2.11.52.52 0 0 0 -.68-.21 1.6 1.6 0 0 1 -1.27 0 .32.32 0 0 1 -.13-.48c.68-.18 1.4-.18 2.09-.37a.64.64 0 0 0 .57-.63 6.27 6.27 0 0 1 .45-1.9.72.72 0 0 1 .31-.42c.5-.24.68-.1.72.56a.46.46 0 0 1 .09.45 12.9 12.9 0 0 0 -.46 3.67 3.69 3.69 0 0 0 0 1.55c.1.28.1.62-.44.5z" fill="#474747"/><path d="m129.56 12.73-.5.16v.11h.88c-.39.33-.91.21-1.36.3a7.7 7.7 0 0 1 -2.25.17 3.58 3.58 0 0 1 -1.08-.11c0-.21.16-.26.32-.29a31.21 31.21 0 0 1 3.32-.6c.23-.06.57-.14.67.26z" fill="#606060"/><path d="m142.77 30.94a.81.81 0 0 1 .08.74 12.18 12.18 0 0 0 -.55 3.17 7.29 7.29 0 0 0 -.27 2.59c-.1.44-.2.88-.29 1.32a.47.47 0 0 0 .17.47c.42.4.35.67-.23 1 0-.35-.23-.65-.24-1s-.26-.27-.48-.18c.17-1.3.33-2.6.53-3.89a4.51 4.51 0 0 0 0-1.51c.2-.21.3-.08.4.13a12.94 12.94 0 0 1 .29-2c.12-.35.14-.78.59-.84z" fill="#535353"/><path d="m147.43 57.6c-.5 0-.7-.12-.35-.6a1.4 1.4 0 0 1 .35.6z" fill="#4c4c4c"/><path d="m135.43 66.37.85.24c-.62.18-1.14 0-1.58.25-2 .16-4.09.38-6.15.4a1.26 1.26 0 0 1 -.8-.18 25.55 25.55 0 0 0 3-.08v-.18l-1-.22z" fill="#797979"/><path d="m20.35 68.17a34.06 34.06 0 0 0 6-.26 3.45 3.45 0 0 0 .4-.11h.59a.33.33 0 0 0 .27.07c.39 0 .53.18.35.56-.1.18-.24.37-.45.31s0-.27 0-.4-.15-.17-.26-.15a9.58 9.58 0 0 0 -1.59.19c-.86-.08-1.62.42-2.51.41a22.36 22.36 0 0 1 -2.46 0c-.14-.3-.14-.3.23-.31-.09-.23-.67.32-.57-.31z" fill="#737373"/><path d="m19 71.65 2.76-.13c.14.43-.26.19-.34.31.17 0 .43-.15.56.16a1.53 1.53 0 0 1 -1 .11 23.11 23.11 0 0 0 -3.72.07c-.25 0-.65-.06-.66.4v.06a7.52 7.52 0 0 1 -1.69-.38c-2.01-.25 1.44-.64 4.09-.6z" fill="#969696"/><path d="m27.93 68.42c-.1-.31-.53-.3-.62-.63.63-.1 1.25-.22 1.88-.28.43-.05.36.17.15.4z" fill="#5a5a5a"/><path d="m12.31 69.85c.49 0 .33-.34.25-.61l.23.13a1.28 1.28 0 0 0 .74.37c.36.08.48.26.17.57a4.12 4.12 0 0 0 -.28.31c-.21.25-.38.21-.48-.08a1.41 1.41 0 0 0 -.63-.69z" fill="#7e7e7e"/><path d="m109 14.29c.1.14.47 0 .37.35a18.77 18.77 0 0 1 -3.09.08c-1 .09-2.07.08-3.1.07-2.44 0-4.81.67-7.23.8-1.09.07-2.17.12-3.25.26a.87.87 0 0 1 -.63-.12c.11-.42.61-.55.71-1a3.63 3.63 0 0 1 1.76-.12 70.4 70.4 0 0 0 7.82-.59c2.2-.29 4.41-.4 6.6-.73a.34.34 0 0 1 .39.25c.35.46-.35.46-.35.75z" fill="#545454"/><path d="m92.84 15c.06.7.06.7-.74.74s-1.58 0-2.37.14-1.84.23-2.76.34c-.2-.11-.59.25-.62-.25 0-.75.29-1 1-1.15a20 20 0 0 1 3-.11 19.86 19.86 0 0 0 2-.06c.29-.04.5.01.49.35z" fill="#4b4b4b"/><path d="m8.49 72c2.11-.06 4.22.11 6.33-.09a2.61 2.61 0 0 1 1.79.74 3.8 3.8 0 0 1 -1.06.09 25.52 25.52 0 0 0 -4.94-.21c-2.87.07-5.73-.08-8.6-.06a4.19 4.19 0 0 1 -1.41-.23c-.23-.08-.6 0-.6-.38s.35-.26.56-.37a4 4 0 0 0 1.85.63c.46 0 .87-.16 1.32-.18.74 0 1.44.25 2.18.19a18.27 18.27 0 0 1 2.09 0 .51.51 0 0 0 .46-.13z" fill="#595959"/><path d="m8.46 72c0 .29-.16.34-.38.33-2.2-.15-4.4.05-6.6-.12-.41 0-.76-.34-1.19-.28 0-.26.21-.3.27-.46a.47.47 0 0 1 .69 0 1.64 1.64 0 0 0 .88.36 1.07 1.07 0 0 0 .91-.2 1.11 1.11 0 0 1 1.24-.15c.73-.06 1.25.62 2 .51a12.73 12.73 0 0 1 2.18.01z" fill="#4d4d4d"/><path d="m56.83 14.74c-1.2-.15-2.4.23-3.6 0a5.17 5.17 0 0 1 1.48-.23 2 2 0 0 0 -1.12-.26c1.42-.14 2.84-.09 4.26-.15a30.63 30.63 0 0 0 4-.11.69.69 0 0 1 .4 0c.5.07 2.84.18.28.57-.36.19-5.32.44-5.7.18z" fill="#5e5e5e"/><path d="m43.05 15.61h1.31c0 .19.13.26.24.36h-.72a2.06 2.06 0 0 1 -.74-.08c-.14-.04-.23-.13-.09-.28z" fill="#646464"/><path d="m22 72a2.93 2.93 0 0 1 -1.31-.17l1.09-.3c1-.1 4.38-.35 5.38-.46 0 0 2.15 0-2.33.37-.91.2-1.83.34-2.83.56z" fill="#727272"/><path d="m131.11 43.55.59.2c-.48.1-.92 0-1.31.18a6.85 6.85 0 0 1 -2.07.09c-.31 0-.59 0-.8.31s-.56.11-.84.17l-1.79-.24c-.21-.49.23-.44.45-.47a23.11 23.11 0 0 1 3.33-.25c.81-.02 1.63 0 2.44.01z" fill="#565656"/><path d="m37.86 59.17a.34.34 0 0 1 -.07-.38s0 0 0 0a1.07 1.07 0 0 0 -.32-.16c-.18-.09-.22-.22-.07-.38a1.8 1.8 0 0 0 .27-2.09c-.19-.48-.08-1-.31-1.51a.18.18 0 0 1 .1-.24c.58-.3.39-.53-.07-.73s-.47.23-.51.54.21.5.26.76a1.34 1.34 0 0 1 -.14 1.26.13.13 0 0 1 -.17 0 1.14 1.14 0 0 1 -.39-1.2c-.28-.24-.08-.62-.26-.89s0-.41-.31-.35a.46.46 0 0 0 -.37.41v1a21 21 0 0 1 .24 2.24 5.17 5.17 0 0 0 .22 1.74c.14-.16.3-.32.44-.49.33-.44.58-.12.83.09s-.29.27-.18.49l.68.23c.19.06.17-.09.17-.21s0 0 0-.07a.09.09 0 0 1 -.04-.06z" fill="#353535"/><path d="m38.84 61.2c.19.17.42.32.48.6a1.3 1.3 0 0 0 -1.66.34 1.57 1.57 0 0 1 -1 .49.38.38 0 0 1 .16-.59 7 7 0 0 1 2.02-.84z" fill="#636363"/><path d="m20.47 68.86a1.49 1.49 0 0 0 -1 0c-.24.1-.47.12-.62-.15a.14.14 0 0 0 0-.09 1.2 1.2 0 0 0 .09-1 3 3 0 0 1 0-1.31 10.68 10.68 0 0 1 .44-2.45c0-.11.14-.18.22-.27 1.19 0 1.2 0 .91 1.14a9.54 9.54 0 0 0 -.1 3.41 4.31 4.31 0 0 0 1.2.29l-.95.3z" fill="#4d4d4d"/><path d="m43.05 15.61c.19.31.57.21.83.36-.41.18-.81-.05-1.21 0-.16-.49-.67-.24-1-.47a3.33 3.33 0 0 1 1.38.11z" fill="#949494"/><path d="m41.23 16-.6-.14a5.52 5.52 0 0 1 1.81.12z" fill="#949494"/><path d="m76 13.8c-1.6.13-3.21.1-4.81.13-.12-.18 0-.22.15-.25s.35.1.45-.12l2.84-.13c.23 0 4.89-.27 7-.36.48-.16 2.69.12 3.32 0a2.77 2.77 0 0 1 .7 0c.18 0 .32.09.18.31-1.88.2-3.78.12-5.67.29-1 .09-1.95 0-2.93 0a7.46 7.46 0 0 0 -1.23.13z" fill="#8d8d8d"/><path d="m71.83 13.56a1.16 1.16 0 0 1 .67.15c-.46.16-.91 0-1.27.22-.61.37-1.28.06-1.92.15-1.08.15-2.17.17-3.26.26a19.4 19.4 0 0 1 -3.81.06c.27-.52-.25-.26-.38-.37a24.91 24.91 0 0 1 3.34-.17c2.21-.14 4.42-.21 6.63-.3z" fill="#848484"/><path d="m17 44.28c0-1.13.12-2.24.2-3.36a13.66 13.66 0 0 1 .18-3.12 4.23 4.23 0 0 0 -.12-1.27 8.19 8.19 0 0 1 .18-2.21 7.74 7.74 0 0 0 -.14-1.41 15.29 15.29 0 0 1 .13-2.44c0-.22 0-2.35-.27-2.45.08-.27.49 2 .55 1.85a4.84 4.84 0 0 1 0-4.31c.09-.28.16-.57.53-.24 0 1.43.05 2.86.07 4.3s.09 2.76 0 4.14.1 2.55 0 3.83-.14 2.63-.16 3.95c0 1.12-.14 2.23-.22 3.34-.36.3-.56 0-.74-.23s-.09-.27-.19-.37z" fill="#595959"/><path d="m18.23 25.32c-.17.1-.26 1.41-.55 1.24s-.47 1.16-.48.78c0-1.47.05-5.42-.06-6.89a4.79 4.79 0 0 1 -.14-1.36c.28.07.7-.13.83.09a2.69 2.69 0 0 1 .3 1.67 5.29 5.29 0 0 0 .14 1.83c.2.69 0 1.38.2 2.06.09.26-.12.4-.24.58z" fill="#4f4f4f"/><path d="m17 44.28c.4.08.63.43 1 .6a2.42 2.42 0 0 0 1 .24c.16.11.45.1.45.38a.38.38 0 0 1 -.37.38c-.33 0-.63.08-.73.46-.24.54-.37.58-.82.23-.3-.08-.3-.08-.56.14-.16-.18-.1-.36-.05-.55 0-.55-.2-.76-.76-.63a1.93 1.93 0 0 1 -1.61-.43c.18-.51.65-.35 1-.39a2.77 2.77 0 0 1 1 .06c.35.11.45-.11.45-.49z" fill="#4f4f4f"/><path d="m18.8 45.6c.24-.11.43-.24.12-.48.48.06 1 .09 1.45.18a.72.72 0 0 0 .94-.55c0 .45-.12.72-.61.73-.17 0-.31.05-.35.24a1.16 1.16 0 0 1 -1.55-.12z" fill="#7b7b7b"/><path d="m97.29 13.16c-.88.12-1.77.05-2.65.16a1.1 1.1 0 0 1 -.72-.24c-.06-.08-.44-.14 0-.26l.27-.09h2.5c.64-.14 1.29 0 1.93-.11h.24c.11.15-.06.16-.11.23a4 4 0 0 0 -1.46.31z" fill="#7b7b7b"/><path d="m98.72 12.84.11-.23h2.44a6.7 6.7 0 0 1 -2.55.23z" fill="#777"/><path d="m98.59 12.6a6.26 6.26 0 0 1 -1.93.11 7.8 7.8 0 0 1 1.93-.11z" fill="#8d8d8d"/><path d="m83.24 13.07c1.24-.14 2.49-.07 3.76-.07h1.31.69c0 .08.91.27.91.35a30 30 0 0 1 -4 0c-.66-.29-1.33.08-2 0a3.23 3.23 0 0 1 -.7 0c-.36-.17.02-.19.03-.28z" fill="#828282"/><path d="m122.36 10.44a28.86 28.86 0 0 0 -3 .27 1.29 1.29 0 0 0 -1.15.49c-.23.33-.65.26-1 0s-.11-.38.07-.55l.2-.14a9.21 9.21 0 0 1 2.44-.39 12.72 12.72 0 0 1 2.62-.14c.37.42-.14.29-.18.46z" fill="#606060"/><path d="m122.36 10.44.35-.35 2.67-.36h1.05l1.7-.1.35.22-.6.13c-1.88.02-3.69.29-5.52.46z" fill="#757575"/><path d="m121.76 11.64a3.06 3.06 0 0 1 -.62 0c-.77.12-1.48.13-2.27.22-.49 0-1 .1-1.43.13l-.48.13c-.07-.09-.21-.19-.19-.27s.19-.08.29-.08a1.71 1.71 0 0 0 .74-.14c1.19-.22 2.4-.22 3.6-.34.03.21.49-.03.36.35z" fill="#7a7a7a"/><path d="m121.76 11.64c-.19-.14-.42 0-.62-.08 0-.19.18-.17.26-.27a20.09 20.09 0 0 0 4.73-.91 1.75 1.75 0 0 1 1.26.19c-.19.47-.66.39-1 .42a11.07 11.07 0 0 1 -2.43.3c-.16.22-.39.18-.6.17a3.2 3.2 0 0 0 -1.34.18z" fill="#555"/><path d="m17.45 46.57c.36 0 .39-.27.5-.49.38 0 .28.32.29.54 0 .58-.12 1.15-.11 1.73s.19.89.88.9c1.08 0 1.39-.28 1.41-1.36a4.33 4.33 0 0 1 0-.72c0-.23.11-.4.39-.26v1.54h.11l.18-1.16a2.1 2.1 0 0 1 .32 1.33c0 .28 0 .73-.52.7a.37.37 0 0 0 -.4.37c0 .25.12.5.42.49s.35.2.25.45-.44.22-.56.45l-.31.14c.24-1.48.24-1.48-1.26-1.37-1.33.1-1.34.1-1.53 1.45 0 .29 0 .59-.05.89l-.46 5.89a3 3 0 0 1 -.16.94c-.39 0-.22.32-.29.49-.15.35-.21.75-.67.85a.62.62 0 0 1 .05-.68.68.68 0 0 0 0-.78v-.19c.13-1.24.22-2.48.24-3.72a.41.41 0 0 1 .11-.27c.09-1.32.17-2.64.25-4-.05-1.08.32-2.13.22-3.21a.38.38 0 0 1 .3-.45c.28-.06.35-.25.4-.49z" fill="#616161"/><path d="m16.86 46.17c0 .13 0 .36.26.26a.3.3 0 0 1 .35.15c-.67 1.78-.68 1.33-.61-.41z" fill="#616161"/><path d="m144.45 3.11a3 3 0 0 0 -2.16-.11c-.1 0-.27 0-.41-.05a19.5 19.5 0 0 1 -3.77-.89.48.48 0 0 1 -.23.05c-.49 0-.73.14-.68.69a1.77 1.77 0 0 1 -.07.82c-.16.38-.06.8-.19 1.18-.07.21-.32.36-.24.63a20.18 20.18 0 0 1 -.11 2.91c-.06 1.16-.16 2.33-.14 3.49a6.73 6.73 0 0 0 .26 3 1.11 1.11 0 0 1 .24.58c0 .44.36.59.71.34a1.21 1.21 0 0 0 .35-.29c.07-.1.18-.19.18-.33a7.48 7.48 0 0 1 -.32-2.4 1.77 1.77 0 0 1 .47-1.37 15.1 15.1 0 0 0 1-1.29c.08-.16.24-.32.19-.49a1.05 1.05 0 0 1 .47-1.33c.23-.16.11-.46-.18-.53h-.09c-.2.3-.4.58-.59.88s-.45.79-.66 1.19c-.09.19-.16.38-.36.47a.39.39 0 0 1 -.29 0h-.1a.12.12 0 0 1 -.09-.15 1.27 1.27 0 0 1 .11-1 3.66 3.66 0 0 1 .36-.67c.08-.21.16-.37.18-.42.39-.83 1.08-2.93 2.36-2.63h.17s0 0 0 0h.1c.27.14 0 .49-.11.64l-.15.21a1.33 1.33 0 0 1 .14.19c.15.29.41.28.5 0a1 1 0 0 1 1.11-.79.86.86 0 0 0 .38-.44c0-.18.1-.39 0-.52-.21-.29-.13-.46 0-.78s.5-.32.8-.34a2.82 2.82 0 0 0 .7-.15c.21-.05.23-.17.16-.3zm-6.45 3.58c-.1.07-.25 0-.2-.13l.12-.26c0-.3.15-1.34.65-1.06s-.27 1.25-.57 1.45zm1.45-2.09c-.41.33-1.16.63-1.38-.06a1.1 1.1 0 0 1 .62-1.31c.2-.26.81 0 1.07.08.82.34.12.94-.31 1.29zm2.4-.31a1.71 1.71 0 0 1 -.55.64c-.32.16-1 .11-.89-.38.05-.24 1.56-1.59 1.87-.9.08.18-.28.5-.43.64z" fill="#3c3c3c"/><path d="m149.21 6.35a35.25 35.25 0 0 1 -.94 4.68 17.9 17.9 0 0 1 -1.56 3.35c-.18.3-.25.68-.58.88-.51-.2-.25-.49-.08-.77a3.4 3.4 0 0 0 .6-1.47.64.64 0 0 0 -.14-.54 1 1 0 0 1 .2-.78s.14-.15.12-.22c-.17-.61.31-1 .41-1.56a21.69 21.69 0 0 0 .83-4.17c0-.86.12-1.73.19-2.6a7.51 7.51 0 0 0 -.21-2.22c0-.06-.07-.12-.06-.17 0-.24-.6-.36-.21-.59a.7.7 0 0 1 1.05.15 2.78 2.78 0 0 1 .53 1.55 39.37 39.37 0 0 1 -.15 4.48z" fill="#4d4d4d"/><path d="m142.59 5.05a1.15 1.15 0 0 1 1-1.74 2.4 2.4 0 0 0 .87-.2c.7-.11 1.4-.23 2.1-.33.16 0 .38-.08.48.12s-.17.27-.27.39a2.91 2.91 0 0 0 -.17.3c-.08.12-.05.29-.15.39-1.05 1.1-.59 1.49.15.41.39-.1.67.24.55.66a2.13 2.13 0 0 1 -.57.82c-.59.8-1.16 1.62-1.76 2.41-1.1 1.45-2.28 2.84-3.32 4.33-.7 1-1.39 2-2 3a1.21 1.21 0 0 0 -.18 1c0 .26-.18.29-.37.19a.43.43 0 0 1 -.24-.55c.33-.81-.06-.6.52-1.22a7.33 7.33 0 0 1 .78-1.61 1.2 1.2 0 0 0 .47-.4c.32-.48.92-1.48 1.53-2.27a4.62 4.62 0 0 0 .65-1c1-1.2 1.94-2.46 2.82-3.7.06-.09.64-.85.13-.85-.23 0-.34.33-.52.51s-.18.26-.24.26c-.55-.08-.44-.57-.58-.91s.46-.41.64-.56.37-.35.27-.6-.68-.19-.9-.2a1.06 1.06 0 0 0 -1.06.52c-.14.24-.31.45-.44.7a.23.23 0 0 1 -.19.13z" fill="#494949"/><path d="m139.33 20.49a.25.25 0 0 1 -.12 0 .12.12 0 0 1 -.12-.16c.06-.28.08-.57.14-.85-.11-.09-.12-.23.05-.27s0 0 0 0a2.54 2.54 0 0 1 .33-.5.69.69 0 0 0 .15-.42s0 0 0-.05a1.3 1.3 0 0 1 .86-1 .88.88 0 0 1 .19-.48.7.7 0 0 0 0-.89c-.2-.19-.3.17-.46.25-.27.33-.52.69-1 .6-.33-.1-.28-.31-.18-.56a10.71 10.71 0 0 1 1.38-2.66c-.4 0-.52.34-.76.45-.69.15-1 .79-1.26 1.26s-.36.29-.62.2c-.52.19-.79 0-.93-.53 0 0 0-.05-.08-.08-.3 0-.32.18-.25.41a2.62 2.62 0 0 1 .12.68c.14.29 0 .47-.27.56a1.72 1.72 0 0 0 -.72.28.29.29 0 0 0 -.09.15c0 .21.18.23.27.35a9.27 9.27 0 0 1 1.17.06 1.39 1.39 0 0 1 1.09 1.65 9.6 9.6 0 0 0 .13 3.07c.18.28.05.58.08.87s.14.37.39.32.3-.22.23-.43a2.47 2.47 0 0 1 -.1-.81 1.57 1.57 0 0 1 .38-1.35s-.02-.09 0-.12z" fill="#373737"/><path d="m145.26 11a20 20 0 0 0 -1.8 2.19.48.48 0 0 1 0 .45 10.9 10.9 0 0 1 -1 1.26c-.12.12-.26.26-.46.13-.4-.26 0-.62-.11-.9 1-1.2 1.93-2.4 2.9-3.59.48-.16.53.1.47.46z" fill="#5c5c5c"/><path d="m147.08 7.7c.19.24 0 .47 0 .7a1.21 1.21 0 0 1 -.29 1.14c-.35.38-.51.9-.95 1.21-.83-.23-.89-.34-.51-.91a3 3 0 0 0 .67-1.11c.09-.62.39-1.03 1.08-1.03z" fill="#595959"/><path d="m141.89 14.14-1.57 1.93c.11 0 .24-.12.33 0a.38.38 0 0 1 -.07.49 1.06 1.06 0 0 0 -.35.86 1.73 1.73 0 0 1 .58-.32.59.59 0 0 1 .31-.09h.26a.83.83 0 0 0 0-.35c0-.37.41-.53.47-.88s.4-.55.18-.91c.13-.29.18-.55-.14-.73z" fill="#4a4a4a"/><path d="m137 4.81-.14.59a.66.66 0 0 1 -.54.37c-.35 0-.77.22-1-.25.08-.29-.15-.22-.28-.23h-1.29c.54-.25 1.15 0 1.68-.24a3.7 3.7 0 0 0 1.44-.24c.06-.07.13-.06.13 0z" fill="#949494"/><path d="m146.36 14.48a3.22 3.22 0 0 0 .63-1.72c0-.13.33-.27.11-.46s-.26.16-.43.18a21.23 21.23 0 0 1 -1.66 3.3 1.68 1.68 0 0 1 -.7.72c-.1.22-.42 0-.52.28s-.07.4-.35.46a1.22 1.22 0 0 0 -.92.77c.38.19.17.79 0 1.07a11.66 11.66 0 0 1 -1.07 2 9.38 9.38 0 0 0 -1.08 1.86c.15.33 1.46-1.18 1.53-1.15.29.19-.93 1.33-1 1.63a4.11 4.11 0 0 1 -1.13 1.26.5.5 0 0 0 .26.15l.27-.2.1-.07a3.57 3.57 0 0 0 .6-.56 1.81 1.81 0 0 1 .58-.49c.66-.28.87.05.92.55a2.77 2.77 0 0 1 0 1.28v.4a.12.12 0 0 1 -.06.09 3.32 3.32 0 0 1 -.11.75.13.13 0 0 1 -.14.09c-.14.25-.41.37-.77.64a8.24 8.24 0 0 0 -1.07 1.06c.1.18.3.24.48.33 0 .14.45-.1.2.26s-.38.55-.58.81c0 .4-.17 1 .65.71.07 0 .15.1.23.15a1 1 0 0 1 -.23 1.47c-.32.28-.67.52-1 .81s-.3.27-.23.5c.13.46.4.22.63.11s.36-.32.63-.19l.46.24c.13.27.26.54.43.91.44-1.24.43-2.45.8-3.57-.1-.57.21-1.08.25-1.63.06-.94.18-1.87.22-2.8.08-2.17.52-4.31.53-6.48 0-.36-.06-.79.17-1.05.51-.55.65-1.32 1.21-1.83.21-.57 1-.31 1.27-.81-.5-.11-.5-.11-.55-.38l.26-.7a1.11 1.11 0 0 1 .18-.75z" fill="#3f3f3f"/><path d="m145.15 17.15c.13-.46.58-.5 1-.67-.05-.2-.44-.25-.24-.52.3.36.68.23 1 .17a4 4 0 0 1 1.59-.1c-.24.24-.63.18-.72.51a4.33 4.33 0 0 0 -2.63.61z" fill="#777"/><path d="m15.91 60.36a3.81 3.81 0 0 1 .53-1.16c.07-.14.17-.42.43-.18a.37.37 0 0 0 0 .39 5.83 5.83 0 0 1 -.38 2.3c-.12.24.06.49.06.75a8.69 8.69 0 0 1 0 1.53 20.83 20.83 0 0 1 -.55 5.01 2.09 2.09 0 0 1 -.08.23.49.49 0 0 1 -.57.41c-.34 0-.31-.33-.29-.56.09-1.11.2-2.23.31-3.34.14-1.4.3-2.81.42-4.21a10.24 10.24 0 0 1 .12-1.17z" fill="#4c4c4c"/><path d="m16.53 64a5.4 5.4 0 0 0 -.25-2c-.17-.36.37-.7.14-1.11.55-.38.22-1 .45-1.48a9.64 9.64 0 0 1 0 1.52 8.44 8.44 0 0 0 -.23 2.3 2 2 0 0 1 -.11.77z" fill="#616161"/><path d="m73.07 39.58a.3.3 0 0 0 -.16 0 1.2 1.2 0 0 1 -1 .27.54.54 0 0 0 -.45.12 5.54 5.54 0 0 1 0-.56.65.65 0 0 0 -.48-.74c-.36-.11-.51.17-.58.44a1 1 0 0 1 -1 .74c-.25.11-.25.33-.23.55s.08.47.12.71c.23 1.22.2 1.26-1 1.54-.44.17-.91 0-1.34.15a2.38 2.38 0 0 1 -1.68.37c-.21 0-.45 0-.33.3l.59.12a7.28 7.28 0 0 0 2.47-.14 5.54 5.54 0 0 1 2.39-.26c.81 0 1.52-.45 2.32-.55a.37.37 0 0 0 .35-.35c0-.83.32-1.59.4-2.41.04-.33-.12-.38-.39-.3zm-1.29 2.28v.29s-.01-.15 0-.29zm0-.38a.61.61 0 0 0 0 .29.16.16 0 0 0 -.08-.1 1.29 1.29 0 0 1 -.08.7.4.4 0 0 1 -.51.22c-.32-.09-.44-.4-.54-.69s-.33-1.28.08-1.47c0 0 .07-.06.11-.06a.44.44 0 0 1 .5.15.71.71 0 0 1 .1.14c0-.11 0-.22 0-.33a2.86 2.86 0 0 0 0 .42l.12.29a1 1 0 0 0 .19.15.2.2 0 0 1 .15.29z" fill="#434343"/><path d="m69.18 36.46a2.2 2.2 0 0 1 2-.22c.09 0 .15.22.24.24.36.05.71 0 .36.43 0 .07 0 .26.06.39v.08a1 1 0 0 1 -1.45-.44c-.1-.14-.21-.24-.38-.21a1.13 1.13 0 0 1 -.78-.23z" fill="#494949"/><path d="m68.25 33.09c-.16-.1.38-.83-.25-.45-.35-.16-.17-.48-.13-.77a2.32 2.32 0 0 0 .09-.78c.09-.05 0-.32.07-.25.34.33.59-.08.83-.36a13 13 0 0 1 -.61 2.61z" fill="#676767"/><path d="m73.07 39.58h-.17c-.53.32-.94.19-1.13-.36-.12-.36-.23-.72-.37-1.07s-.06-.72.4-.85h.06c.23.55.47 1.09.7 1.64a1.34 1.34 0 0 0 .51.64z" fill="#494949"/><path d="m68 43.45a3 3 0 0 1 2.39-.26l-.48.1c-.66-.15-1.26.29-1.91.16z" fill="#575757"/><path d="m67.43 38.85c-.27-.31-.1-.72-.27-1.05-.11-.74-.56-.85-1.18-.65a2.36 2.36 0 0 1 -.53 0 2.49 2.49 0 0 1 -.59.09c-.59 0-.79.29-.91.86a12.73 12.73 0 0 1 -1 3.29c-.1.2-.17.4-.41.48a.78.78 0 0 0 -.52.79c-.11.46.14.55.53.6a7.41 7.41 0 0 0 1.76 0 1.21 1.21 0 0 0 .93-.61 1.09 1.09 0 0 1 0-.31.58.58 0 0 1 0-.45 1.93 1.93 0 0 1 .12-.41 11 11 0 0 1 .51-1.39c.12-.35.22-1 .55-1.23s.36 0 .33.3v.07a.05.05 0 0 1 0 0 3.16 3.16 0 0 1 -.11.75.34.34 0 0 0 .44 0c.21.02.49-.98.35-1.13z" fill="#383838"/><path d="m72 40.34c.39-.11 1 0 .89-.72a1.53 1.53 0 0 1 -1-1c-.16-.4-.44-.83-.13-1.3-.15-.06-.34-.07-.44-.17s-.84-.12-.46-.73c.09-.14-.14-.17-.29-.16a6 6 0 0 0 -1.4.22c-.18.18-.39.33-.09.6s.13.47.07.71a9.75 9.75 0 0 0 .39 2.21.71.71 0 0 0 .78.31.27.27 0 0 0 .22-.31c-.05-.4.27-.62.43-.94.17.45 0 .95.15 1.39l.13.11a2.29 2.29 0 0 1 .42 1.66.76.76 0 0 1 -.35.56.58.58 0 0 0 .59-.63c0-.23 0-.42.34-.24s.32-.08.32-.28c0-.41-.24-.59-.62-.66a.4.4 0 0 1 -.33-.49c.05-.4.26-.1.38-.14z" fill="#373737"/><path d="m66.92 43c-.14-.21 0-.42 0-.63.24-1.19.63-3.14.78-4.35-.28-.29-.09 0-.54-.18 0 .57.3 1.14 0 1.71 0 .1 0 .25-.19.24s-.12-.13-.13-.23a1.51 1.51 0 0 1 0-.3h-.06a.05.05 0 0 1 0 0 2.87 2.87 0 0 1 -.13.82c0 .39-.45 2.65-.87 2.78a.34.34 0 0 1 -.24.06c-.32 0-.35-.94-.29-1.06-.14.12-.17.47-.54.2-.13-.1-.25.16-.16.32.27.46 0 .43-.32.38a.72.72 0 0 0 -.34.09 2 2 0 0 1 -1.89-.16 6.39 6.39 0 0 0 -.26.6c-.08.24 0 .4.28.39a12.49 12.49 0 0 0 3-.23 1.51 1.51 0 0 1 .76 0 2 2 0 0 0 1.4-.32c-.05-.13-.18-.08-.26-.13z" fill="#424242"/><path d="m65.58 43.57 2.42-.12a5 5 0 0 1 -2.42.12z" fill="#575757"/><path d="m20.63 51.09a.52.52 0 0 1 .56-.45c.14.57-.36.36-.56.45z" fill="#989898"/><path d="m141.56 16.75c0 .12-.21.13-.18.25-.33 0-6.13.12-6.44.27-.87.05-3.56 0-4 0-.13 0-.31 0-.34-.15s.15-.23.29-.3a5.06 5.06 0 0 1 1.82-.12 14.77 14.77 0 0 0 2.66 0c.15-.05 11.57-.12 6.19.05z" fill="#737373"/><path d="m138.3 33.84c.13.57-.22 1.1-.13 1.67a8.18 8.18 0 0 0 -.31 2.3c0 .1 0 .22.1.26s.18 0 .25-.11l1.1-1.18c.08-.08.14-.19.23-.27s.29-.24.48-.1a.29.29 0 0 1 0 .47c-.71.64-1.15 1.59-2.16 1.89.17-.25-.08-.44-.1-.66a12.58 12.58 0 0 1 .54-4.27z" fill="#686868"/><path d="m138.5 35a3.1 3.1 0 0 1 1.5-1.63c.15.22.33.15.52 0a.58.58 0 0 1 .56 0 2.63 2.63 0 0 0 -1.38.91 2 2 0 0 1 -1.2.72z" fill="#6e6e6e"/><path d="m113.23 13.56a25.3 25.3 0 0 1 -3.26.28 2.05 2.05 0 0 1 -.7-.05c-.12 0-.25-.35-.37-.39.94-.12 1.9-.07 2.84-.19 1.26-.16 2.51-.22 3.77-.39a2.44 2.44 0 0 0 .14.28c-.77.32-1.65.2-2.42.46z" fill="#808080"/><path d="m37.3 56.52c.17 0 .24.11.23.24s-.12.18-.25.17-.23-.06-.21-.21.14-.17.23-.2z" fill="#404040"/><path d="m115.65 13.1c-.14 0-.23-.11-.14-.27.32-.24.72-.18 1.08-.26.63-.16 1.28-.23 1.92-.34l3.11-.21c.1.55-.09.8-.66.67a9.47 9.47 0 0 0 -4 .29 11.59 11.59 0 0 1 -1.31.12z" fill="#565656"/><path d="m144.21 5.75c.24-.29-.07-.32-.26-.32-.56 0-6.52.17-7.08.16-.08 0-.08-.27 0-.31s-.06-.35 0-.49 5.77.24 5.79.23a1.45 1.45 0 0 1 1.77 0c.07.35.06.54.36.75s0 .25-.08.45c-.5.74-.9 1.43-1.43 2.14-.15.18-1 .36-.71-.12s1.34-2.14 1.64-2.49z" fill="#545454"/><path d="m141.75 5.41c-.21.29-.45.56-.68.85a.43.43 0 0 1 -.13-.33l-.08.12c-.47.68-.93 1.36-1.39 2.06.1-.06.2-.13.35 0a4.51 4.51 0 0 0 -.9 1.9c.69-1 1.35-2 2.08-3a6.51 6.51 0 0 1 1.27-1.63v-.1c-.27-.2-.37-.06-.52.13z" fill="#494949"/><path d="m145.53 5.29-.6.6c-.18-.58.19-.62.6-.6z" fill="#545454"/><path d="m144.69 13a2.25 2.25 0 0 1 .12-.21c.12-.16 0-.59.37-.46a.59.59 0 0 1 .34.82 10.48 10.48 0 0 1 -1.44 2.52 2.58 2.58 0 0 0 -.49.81c-.33.13-.31-.14-.37-.31.35-.54.41-1.23.85-1.73a8.34 8.34 0 0 1 .62-1.44z" fill="#505050"/><path d="m143.32 16.06.27.38c.23.15.48.06.72.06l-.35.4c-.07.32-.38.23-.56.36-.33.07-.66-.12-1 .14s-.3-.17-.35-.34-.13-.42.18-.48.4 0 .52-.23a.49.49 0 0 1 .57-.29z" fill="#4a4a4a"/><path d="m143.38 16.93a1.59 1.59 0 0 0 -.86.15c-.1 0-.2 0-.25-.07a.19.19 0 0 1 .08-.26c.21-.11.44-.18.52-.44a6.51 6.51 0 0 1 -1.9.35l.22.35c.37-.05.8 0 .76.47s-.93 1.28-1.28 1.67c-.17.18-.38.52-.63.81a.41.41 0 0 1 .17.32 9.9 9.9 0 0 0 .73-.72 13.4 13.4 0 0 1 1-1.15c.18-.17.3-.49.57-.41a1.53 1.53 0 0 1 .87-.76c.09-.02.06-.24 0-.31z" fill="#505050"/><path d="m140.5 28.14c-.11.13-.23.26-.35.38a4.45 4.45 0 0 1 -.72.78h.17c-.48.57-.95 1.1-.8 1.88a2.82 2.82 0 0 1 .69-1.48c.48-.44 1-.85 1.47-1.28a.48.48 0 0 1 -.46-.28z" fill="#535353"/><path d="m139.76 31 1-1c0 .19-.17.49.27.33a.66.66 0 0 1 .57.11c-.41 0-.63.34-1 .48a4.06 4.06 0 0 0 -.51.42c-.09.06-.22.14-.33.06s-.07-.32 0-.4z" fill="#525252"/><path d="m67.15 43.11-.23-.11a4.54 4.54 0 0 0 1.56 0 1.63 1.63 0 0 1 -1.33.11z" fill="#575757"/><path d="m139.76 31c0 .2.15.25.34.15l.5-.27c-.5.46-1 .95-1.53 1.37a2.24 2.24 0 0 0 -.62.92c.11-.6.23-1.21.34-1.81 0 .13 0 .31.09.38s.2-.1.28-.18z" fill="#686868"/><path d="m142.5 9.47a8.44 8.44 0 0 0 -1.11 1.66c-.51.69-1 1.37-1.54 2a9.64 9.64 0 0 1 -1.17 1.22c-.42-.06-.54-.28-.31-.58s.39-.39.56-.61a4.83 4.83 0 0 0 1.17-1.45 12.54 12.54 0 0 1 1.65-2.34c.08-.08.13-.2.21-.29s.42-.33.63-.2-.03.4-.09.59z" fill="#474747"/><path d="m21.31 44.75a25.63 25.63 0 0 0 0-6 7.22 7.22 0 0 1 -.11-2 14.83 14.83 0 0 0 -.2-1.47c-.07-.32-.18-.63.18-.89.18-.13-.17-.41 0-.61s.22-.48.49-.49.45 1.44.57 1.67a7.06 7.06 0 0 0 0-.92 8.5 8.5 0 0 1 -.13-2.41c0-.42.24-.6.66-.41.47 0 .64.2.73.64a14.15 14.15 0 0 1 0 2.91c0 1.69-.38 3.36-.35 5-.22 1.56-.31 3.13-.41 4.7a1.79 1.79 0 0 0 .05.65 1.27 1.27 0 0 0 .13.19c.39.53.47.51-.17.94-.25.15-.19.38-.16.6-.08.57 0 1.15 0 1.72a.9.9 0 0 1 -.15.62v.08c.23.12.58.2.1.47-.21.29-.57.38-.82.61a8.88 8.88 0 0 0 -.41 2.8 27.3 27.3 0 0 0 .07 4.52c.06 1.54-.11 3.09 0 4.64.05.48-.3.64-.65.7s-.5-.21-.57-.55a5.67 5.67 0 0 1 0-1.54 6.16 6.16 0 0 1 -.16-2.37 36.41 36.41 0 0 0 -.19-3.76 11.24 11.24 0 0 1 .28-3.7c.08-.13 0-.77.1-1.33a8.62 8.62 0 0 0 .35-1.48 3.32 3.32 0 0 1 -.06-1.37c.25-.5-.18-.8-.34-1.19s1.17-.4 1.17-.97z" fill="#505050"/><path d="m141.11 25.08s0 0 0-.06h-.06l-.11.07h-.06a2.42 2.42 0 0 1 -.29.55.13.13 0 0 1 -.11.05 4.83 4.83 0 0 1 -.72 1.06c0 .14-.11.3-.25.35h-.18c-.24-.14-.13-.79-.1-1a2.13 2.13 0 0 1 1-1.44s0 0 0 0a.63.63 0 0 1 -.21-.18.31.31 0 0 1 -.46-.13.1.1 0 0 1 -.08-.1 5.73 5.73 0 0 1 0-1.17 1.48 1.48 0 0 0 0-.21 7.39 7.39 0 0 1 -.28-1.15.94.94 0 0 1 .06-.29.59.59 0 0 1 .15-.46 4.16 4.16 0 0 0 .55-.33 3.26 3.26 0 0 0 .76-.8c0-.08-.26 0-.34-.09-.3.4-.67.83-1.07.81a.12.12 0 0 1 -.12-.15c-.27-.13-.54-.31-.47.33a2.33 2.33 0 0 1 0 .58 6 6 0 0 0 .13 1.46h-.17l-.25-.78a18.76 18.76 0 0 0 0 3.09 43.35 43.35 0 0 1 -.46 6.24c-.38 2.6-.78 5.2-1.22 7.79-.17 1-.07 2.18-.86 3.06-.12.12 0 .3 0 .46.45.51.85.45 1.12-.19a4.71 4.71 0 0 1 1.22-1.87 2.83 2.83 0 0 0 1-1.13c.06-.14.37-.25.14-.43a.57.57 0 0 0 -.68 0 3.38 3.38 0 0 0 -.4.44 1 1 0 0 1 -.65.43l.25-1.08c.13-.16.58-.3 0-.48-.08 0-.08-.13-.07-.21a7.13 7.13 0 0 1 .53-3.23 2.79 2.79 0 0 0 .33-.87c.06-.25.11-.5.16-.75a3.64 3.64 0 0 0 .21-1.85l.09-.15a5.91 5.91 0 0 1 .64-1.43c.15-.22.32-.57 0-.82a1.72 1.72 0 0 1 -.48.41.14.14 0 0 1 -.19-.06.92.92 0 0 1 0-.16.08.08 0 0 1 0-.05.09.09 0 0 0 0-.05 1.28 1.28 0 0 1 .05-.27c.13-1 1.14-1.66 1.69-2.44a1.1 1.1 0 0 0 .3-1 .78.78 0 0 0 -.04-.32z" fill="#404040"/></svg>