<svg viewBox="0 0 279.85 103.1" xmlns="http://www.w3.org/2000/svg"><path d="m109.25 50.37a4.31 4.31 0 0 1 -1.18-1.06c-.84-1-1.68-2-2.5-3a10.64 10.64 0 0 1 -1.34-1.78 10.33 10.33 0 0 0 -.63-1.4 8.78 8.78 0 0 1 -1-2.39c-.15-.23-.4-.41-.45-.68a4 4 0 0 0 -.59-1.45 5.87 5.87 0 0 1 -.63-1.65c-.23-.9 0-1.87-.45-2.75a1.27 1.27 0 0 1 0-.68 14.09 14.09 0 0 0 .31-4.49 3.12 3.12 0 0 1 0-1.29c.21-.78.35-1.57.57-2.34a16.74 16.74 0 0 1 .82-2.28c.12-.25.24-.52-.07-.73a.81.81 0 0 0 -1 0c-.3.22-.81.41-.67.88s-.13.54-.42.68a16.54 16.54 0 0 0 -.85 3 12.91 12.91 0 0 0 -.31 1.37 16.2 16.2 0 0 0 0 1.84c-.29-.77-.53-1.09-1.8-1.06a.57.57 0 0 0 .27-.24c0-.24 0-.49-.13-.69s-.35-.18-.53 0a.76.76 0 0 1 -.21.19 5.2 5.2 0 0 1 -.1.78v.28a6.34 6.34 0 0 1 -.19.84 5.65 5.65 0 0 1 .22 1.24v.16a4.36 4.36 0 0 0 .41.55c.11.13 0 .34-.09.5s-.2.38-.05.49c.38.3.23.74.36 1.1v.17a8.52 8.52 0 0 0 .48 3.12c.07.4.3.76.35 1.13a6.1 6.1 0 0 0 .58 1.58 16.39 16.39 0 0 1 1.39 3 7.22 7.22 0 0 0 .69 1.46 6.76 6.76 0 0 0 1 1.54 13.79 13.79 0 0 1 1.25 2c.07.15.14.34.32.4.61.22.88.8 1.32 1.2s.49.49.52.66a5.5 5.5 0 0 1 .85.41 5.12 5.12 0 0 1 1 .79l.31.07a.44.44 0 0 1 .36.41c0 .33.25.38.51.23s.39-.12.52-.28c.16-.33-.13-.42-.31-.55a11.07 11.07 0 0 0 -1.64-.85.64.64 0 0 1 -.39-.82c.28.18.41.51.68.48a1.69 1.69 0 0 1 1.28.54 1.84 1.84 0 0 0 .71.29.64.64 0 0 0 .8-.37c.14-.25-.15-.45-.35-.55zm-9.89-11.88c-.2-.71-.3-1.45-.43-2.17-.08-.51-.45-.94-.38-1.48.15-1.18 0-2.38.21-3.56 0-.09 0-.19.06-.29 0 .42 0 .85.08 1.27a2 2 0 0 1 -.09 1 3.35 3.35 0 0 0 -.11 2c0 .31.18.6.23.92a11.33 11.33 0 0 0 .77 3.21 5.15 5.15 0 0 1 -.34-.9zm1.11 2c-.13-.19-.27-.38-.39-.57.23.31.57.6.6 1a1.11 1.11 0 0 0 -.21-.39z" fill="#424242"/><path d="m99.88 39.64-.07-.11z" fill="#424242"/><path d="m115.74 53.13a15.61 15.61 0 0 0 -3.74-2.06.59.59 0 0 1 -.36-.2 8.27 8.27 0 0 0 -1.58-1.49 4.51 4.51 0 0 1 -.67-.72 5.28 5.28 0 0 1 -1.35-1.14 2 2 0 0 1 -.39-.3c-.31-.28-.32-.8-.56-1a5.41 5.41 0 0 1 -1.09-1.53 2 2 0 0 0 -.34-.37c-.3-.31-.78-.55-.51-1.13 0-.11 0-.23-.12-.32a8.94 8.94 0 0 1 -1.03-1.87 1.91 1.91 0 0 1 -.33-.41 13.43 13.43 0 0 1 -.54-3.68.42.42 0 0 0 -.09-.16c-.47-.59-.13-1.29-.22-1.93a8.13 8.13 0 0 1 .17-1.94 21.11 21.11 0 0 0 .32-3.63 8.38 8.38 0 0 1 .4-2.4c.42-1.52 1-3 1.29-4.56a18 18 0 0 0 .86-2.09 1 1 0 0 1 .28-.44 4.52 4.52 0 0 0 1.17-1.67c.21-.36.63-.58.69-1a.62.62 0 0 1 .33-.46c.46-.23.67-.69 1-1s.81-.54 1-.92a4.87 4.87 0 0 1 1.38-1.71 3.29 3.29 0 0 0 .88-.94c0-.05 0-.11.08-.16a4.27 4.27 0 0 0 2-1.47 18.41 18.41 0 0 1 1.68-1.62 2.56 2.56 0 0 1 1.18-.77 1.06 1.06 0 0 0 .35-.35 3.56 3.56 0 0 0 .87-.55c.16-.28.74-.06.69-.58-.46-.44-.9-.17-1.3.09a17.8 17.8 0 0 0 -3.66 2.67 1.9 1.9 0 0 1 -1.82.66.73.73 0 0 0 -.46.11 7.16 7.16 0 0 0 -1.6 1 11.67 11.67 0 0 1 -2.43 2.11 4.52 4.52 0 0 0 -1.33 1.09 19.6 19.6 0 0 0 -3.21 4.84 13.91 13.91 0 0 0 -1 2.18 14.5 14.5 0 0 1 -.76 2.22c-.22.54-.39 1.09-.59 1.63a12.78 12.78 0 0 1 -.44 1.88 2.49 2.49 0 0 0 -.23 1.42 9.73 9.73 0 0 1 .23 1.47c0 .9-.21 1.8-.34 2.7a3.58 3.58 0 0 0 -.08 1.66 9 9 0 0 1 .29 1.79 5.06 5.06 0 0 0 .29 1.42c.32.77.79 1.47 1.06 2.25a2.89 2.89 0 0 0 .31.8c.06.12.2.19.22.33a22.8 22.8 0 0 0 1.63 3.72c.28.69 1 1.17 1.36 1.8s.9.93 1.29 1.46a11.58 11.58 0 0 0 1.47 1.74 10.38 10.38 0 0 1 1.1 1 4.94 4.94 0 0 0 2.07 1.5c.9.36 1.68.92 2.55 1.31a2.55 2.55 0 0 0 1.86.26c.2-.29.02-.41-.18-.54z" fill="#424242"/><path d="m139.77 37.71a15.25 15.25 0 0 1 -3.44 1.37 2 2 0 0 0 -.75.34 1.53 1.53 0 0 1 -.94.36 5.49 5.49 0 0 0 -2 .4c-.47.16-.77 0-.82-.56-.05-.33.12-.32.35-.23 1.13-.34 2.29-.54 3.44-.77a35.14 35.14 0 0 0 3.85-1.48 23.81 23.81 0 0 0 4.91-2.85 2.75 2.75 0 0 0 1.22-1.91 10.4 10.4 0 0 0 .42-3.37 7.07 7.07 0 0 0 -1.23-2.9 15.1 15.1 0 0 0 -4.6-4.54 23 23 0 0 0 -4.35-2.44c-.85-.32-1.66-.74-2.53-1a8.47 8.47 0 0 1 -1.38-.69c-1-.53-2-.87-3-1.32-.69-.31-1.48-.33-2.17-.66-.25-.13-.7-.13-.59-.52s.53-.36.87-.31a1.3 1.3 0 0 1 .38.17c-.05.24 0 .42.28.48a9.2 9.2 0 0 1 2 .64.45.45 0 0 0 .3 0c.78-.32 1.25.12 1.68.69a3.13 3.13 0 0 0 1.55.85c1 .39 1.9.91 2.89 1.26a21.49 21.49 0 0 1 5.07 2.92 14.63 14.63 0 0 1 2.53 2.19 1.5 1.5 0 0 0 .73.51s.09 0 .1 0c.26.65 1.06.7 1.4 1.24.12.18.17 0 .25 0a6.44 6.44 0 0 1 .92 5.35 11.09 11.09 0 0 1 -1 2.92 1.1 1.1 0 0 1 -.4.43c-1.31.67-2.49 1.55-3.74 2.31-.25.16-.48.36-.72.54s-.67 0-1 .17a2.61 2.61 0 0 0 -.48.41z" fill="#595959"/><path d="m146.26 25.67.16.8c-.27 0-.29-.27-.39-.41a.89.89 0 0 0 -1.18-.48c-.27.11-.37-.25-.33-.49s0-.4-.3-.44a.59.59 0 0 1 -.35-.21 21.43 21.43 0 0 0 -4.87-3.89 26.18 26.18 0 0 0 -4-2c-1-.44-2-.9-3-1.4-.31-.15-.79-.22-.75-.79 0-.1-.28-.31-.45-.33s-.09.2-.12.33-.19.11-.28.06a28.87 28.87 0 0 0 -3.39-1.17c-.2-.07-.52-.09-.43-.38s.36-.19.57-.18h.36a22.64 22.64 0 0 1 6 2c1.81.87 3.79 1.39 5.55 2.36a18.25 18.25 0 0 1 6.68 5.49c.13.46.32.79.52 1.13z" fill="#505050"/><path d="m112 23.39a12.46 12.46 0 0 1 3.18-5.39 9.27 9.27 0 0 1 1.55-1.31 24.3 24.3 0 0 1 2-1.74c.32-.18.61-.44 1-.36.19.22.06.37-.12.49a9.88 9.88 0 0 0 -2.32 2 .43.43 0 0 1 -.19.14c-1.22.22-1.77 1.26-2.41 1.89a9.19 9.19 0 0 1 1.56-1.57.56.56 0 0 1 .76-.08c.27.23 0 .48-.08.69-.48.83-1.16 1.51-1.65 2.35a12.09 12.09 0 0 0 -1.29 3c-.25 1-.51 2-.85 2.92a13 13 0 0 0 -.35 1.94c0 .34-.1.69-.52.79a.85.85 0 0 1 -1-.41 3.43 3.43 0 0 1 -.08-1.71c.18-1 .4-2.09.57-3.14a2.06 2.06 0 0 1 .24-.5z" fill="#4b4b4b"/><path d="m122.24 40a42.57 42.57 0 0 0 4.87 1.94 1 1 0 0 0 1-.15c.32-.28.65-.31.9.1s1 .4 1.4.72a9.8 9.8 0 0 0 1.59.39c.18 0 .39.08.36.31s-.26.18-.4.15a11.38 11.38 0 0 1 -1.64-.16 5.71 5.71 0 0 0 -1.76-.23 3.23 3.23 0 0 1 -1.53-.37 3.14 3.14 0 0 0 -1-.3 7.45 7.45 0 0 1 -2.44-.88 24.41 24.41 0 0 0 -3-1.19 4.18 4.18 0 0 1 -1-.5 6 6 0 0 0 -.94-.57c-.12-.58-.62-.9-.94-1.35s-.51-.63-.16-1c.3-.07.45.15.62.33a9.87 9.87 0 0 0 3.42 2.4c.21.05.41.28.65.36z" fill="#4b4b4b"/><path d="m137 43.52c-.45-.05-.92-.05-1.37-.12-1.73-.27-3.48-.44-5.2-.79.5.37 1.18.27 1.72.62-.23.16-.43.07-.62.08a26.09 26.09 0 0 1 -2.78-.36 10.91 10.91 0 0 1 -4-1c-2-.95-4.25-1.4-6.06-2.77 0-.25-.2-.25-.36-.31a3.56 3.56 0 0 1 -1.44-.68 17.88 17.88 0 0 0 -2.23-1.86c-.26-.61-.93-1-.87-1.8a.16.16 0 0 0 -.15-.16c-.35 0-.37-.32-.5-.54s-.21-.42-.48-.17a7.62 7.62 0 0 0 2.46 3.63c.23.18.48.34.71.54a1.64 1.64 0 0 1 .17.17 5.68 5.68 0 0 1 1.93 1.21 3 3 0 0 1 1 .31 11.06 11.06 0 0 0 1.74.91 17 17 0 0 1 1.85.68 23.45 23.45 0 0 0 5.38 1.89c1 .25 2 .23 3 .45.76.16 1.56.1 2.31.28a32.39 32.39 0 0 0 3.67.51c.25 0 .58 0 .61-.3s-.26-.38-.49-.42z" fill="#595959"/><path d="m161.16 37a2.51 2.51 0 0 1 -.74 1.93.66.66 0 0 0 -.15.19c-.82 2-2.4 3.67-3 5.82a1.76 1.76 0 0 1 -.89 1.07c-.12.07-.28.12-.39 0s0-.21.08-.31c.55-1.32 1.43-2.48 1.88-3.85a2 2 0 0 1 .47-.82 7.13 7.13 0 0 0 1.75-3.28 5 5 0 0 1 .37-.82c.09-.2.2-.45.46-.38s.15.32.16.45z" fill="#767676"/><path d="m145.41 52.57a2.83 2.83 0 0 0 -1.64.46 17.34 17.34 0 0 1 -3.91 1.08 2.72 2.72 0 0 0 -1 .37 7.23 7.23 0 0 1 -2.5 1 .55.55 0 0 1 -.65-.2.57.57 0 0 1 .14-.71c.24-.27.5-.52.75-.78.1-.1.23-.21.37-.11s.06.29 0 .43c-.08.21-.46.36-.28.59s.5 0 .72-.09a41.86 41.86 0 0 1 6.27-2c.25-.07.7 0 .66-.52a.11.11 0 0 1 0-.18c.37-.07.64.22 1 .27.16.05.23.23.07.39z" fill="#7e7e7e"/><path d="m114.44 36.38a5.12 5.12 0 0 1 -1-1.68 5.54 5.54 0 0 0 -.8-1.08 2.38 2.38 0 0 1 -.51-1.13 19.07 19.07 0 0 1 -1-3.94 6.25 6.25 0 0 1 .1-2c.17-.75.28-1.53.4-2.29a1.29 1.29 0 0 1 .4-.85 29.1 29.1 0 0 0 -.71 4.55 2.37 2.37 0 0 0 .12.88c.41.43.37 1 .6 1.53a4.28 4.28 0 0 0 .35 1.89c.07-.26-.54-.57 0-.87.55-.13.77.22.9.64s.27 1 .4 1.44a3.33 3.33 0 0 0 .92 1.58 7.56 7.56 0 0 1 .58.69c.16.19.29.4.11.65s-.39.14-.6.08z" fill="#4f4f4f"/><path d="m99.56 42.47a21.66 21.66 0 0 1 -1.65-3.75 11.59 11.59 0 0 0 -.42-1.95 4.27 4.27 0 0 1 -.33-2.43c-.1-.59-.84-1.08-.29-1.79 0 0 0-.11 0-.17a1.17 1.17 0 0 0 -.56-1v.2.47a1.61 1.61 0 0 1 .06 1.08.2.2 0 0 0 0 .17 7.91 7.91 0 0 1 .39 2.14 13.73 13.73 0 0 0 .59 2.73 17.19 17.19 0 0 0 1.17 2.86 8.94 8.94 0 0 1 1.18 2.4.08.08 0 0 0 .13 0 5.7 5.7 0 0 0 -.27-.96z" fill="#7c7c7c"/><path d="m131.12 11.9c-.68.1-1.34.25-2 .32a6.3 6.3 0 0 0 -2 .69 1.18 1.18 0 0 1 -.55.22c-1.49 0-2.61 1-4 1.4a5.39 5.39 0 0 0 -1.86 1.34c-.72.69-1.57 1.21-2.34 1.84a3.57 3.57 0 0 0 -.94 1.14.18.18 0 0 1 -.17.07c-.33-.23-.25-.51 0-.76a4.44 4.44 0 0 1 1.74-1.66 4.72 4.72 0 0 0 2-1.69c.43-.64.92-.68 1.49-.87a17.55 17.55 0 0 0 2.75-1.27c.17-.1.35-.24.55-.2a4.57 4.57 0 0 0 2.77-.66 1.25 1.25 0 0 1 .57-.17 3.88 3.88 0 0 0 2.12-.4c.16.24.2.47-.13.66z" fill="#525252"/><path d="m133.17 60.15-.25-.12c-.08-.06-.17-.17-.25-.16-1 .23-1.85-.44-2.81-.23a.66.66 0 0 1 -.61-.18 1 1 0 0 0 -1.17-.18.34.34 0 0 1 -.49-.19c-.13-.48-.54-.51-.9-.63a2 2 0 0 0 -1.37-.07c-.47.15-.94-.18-1.41-.26a8.3 8.3 0 0 0 -1.68-.21c-.57 0-1 .19-1.25-.52-.08-.23-.58-.19-.72-.52a.2.2 0 0 1 .12-.13.85.85 0 0 1 .78.16c.4.34 1 .07 1.38.31a2.55 2.55 0 0 0 1.49.46h.19a9.78 9.78 0 0 0 2 0h.17c.46.35 1 .25 1.56.44a.65.65 0 0 0 .82.53 1 1 0 0 1 .77.25c.43.39 1 .23 1.51.3 1 .14 2 .37 3 .56a5.24 5.24 0 0 0 2.58 0h.48a.9.9 0 0 1 .23 0c.29 0 .43.15.43.44 0 0-.05.11-.12.12a9.71 9.71 0 0 1 -4.48-.17z" fill="#747474"/><path d="m149.75 52.2c-.22 0-.42 0-.42-.24a.44.44 0 0 1 .38-.41 12.79 12.79 0 0 0 1.59-.55 10.67 10.67 0 0 0 3.23-1.2c.25-.19.73-.42.91-.1s-.37.36-.58.52a7.58 7.58 0 0 1 -2.71 1.07 14.18 14.18 0 0 0 -2 .73 2.36 2.36 0 0 1 -.4.18z" fill="#666"/><path d="m127.06 4.13-.12.22c-.92.1-1.54.88-2.41 1.08a17.58 17.58 0 0 0 -2.34.83 11.7 11.7 0 0 0 -2 .39.84.84 0 0 1 -.79-.09c-.27-.3 0-.41.2-.51.52-.24 1-.47 1.57-.69.57 0 .89-.46 1.37-.63a.37.37 0 0 1 .18 0c.42.57.88.45 1.44.16s1.38-.71 2.08-1c.28-.13.57-.22.78.12a.41.41 0 0 1 .04.12z" fill="#424242"/><path d="m144.33 52v.13c-.14-.47.23-.42.45-.37a3.57 3.57 0 0 0 2.7-.7 4.27 4.27 0 0 1 1.72-.67 4.23 4.23 0 0 0 1.61-.59 1.47 1.47 0 0 1 .88-.31 4.7 4.7 0 0 1 -2.12 1.32 18.12 18.12 0 0 0 -2 .72 2.44 2.44 0 0 0 -1.05.83c-.76-.09-1.47-.27-2.19-.36z" fill="#8e8e8e"/><path d="m162 26.42c0 .88-.5 1.71-.28 2.62a.26.26 0 0 1 -.13.31c-.15.08-.27 0-.36-.12a1.18 1.18 0 0 1 -.29-.7 5.2 5.2 0 0 1 .21-2.11 1.72 1.72 0 0 0 .32-1c0-.13-.06-.3.15-.33a.3.3 0 0 1 .31.24 1.61 1.61 0 0 1 .07 1.09z" fill="#717171"/><path d="m159.92 24.26c-.34-.72-.2-1.54-.47-2.28a.29.29 0 0 1 -.07-.16c0-.22-.45-.43-.1-.64s.4.2.58.35c0 0 0 .06.06.1l.24.24c.46.14.65.36.45.89a2.27 2.27 0 0 0 .15 1.51c.05.28.27.43.46.6-.21.3-.47.21-.69 0a2.91 2.91 0 0 1 -.61-.61z" fill="#737373"/><path d="m98 22.1a1.34 1.34 0 0 0 .33-.75 2.06 2.06 0 0 1 .86-1.69 2.26 2.26 0 0 0 .81-1.15c.08-.36.45-.54.64-.85.55-.34.59-1 .92-1.49s.7-.91 1-1.38a.53.53 0 0 1 .43.05c.24.13.29.44.06.51-.86.25-.83 1.1-1.2 1.68a.77.77 0 0 1 -.35.38 1.11 1.11 0 0 0 -.72 1.22c-.06.14-.1.29-.15.43a.88.88 0 0 1 -.5.48 1.46 1.46 0 0 0 -1 1.68 2.32 2.32 0 0 1 -1 1.29c-.11 0-.18-.05-.22-.15s.02-.18.09-.26z" fill="#787878"/><path d="m101.45 46.49c.43.71.84 1.44 1.26 2.16.09.15.18.38.31.42.61.19.88.74 1.29 1.13a1.54 1.54 0 0 1 .26.34l.54.19c.07-.28-.13-.52-.61-1a9.21 9.21 0 0 1 -2.12-2.28c-.51-1-1.39-1.69-1.86-2.7a.48.48 0 0 0 0 .49c.11.59.66.81.93 1.25z" fill="#737373"/><path d="m161.82 20.14v.53s.12.39-.11.47-.28-.12-.37-.24a4.34 4.34 0 0 1 -.8-1.84.56.56 0 0 1 .48-.66.58.58 0 0 1 .71.49 4 4 0 0 1 .09 1.25z" fill="#5d5d5d"/><path d="m142.89 8.19c.74-.24 1.43-.38 2 .41.17.24.53.34.81.5s.31.14.22.35a.32.32 0 0 1 -.41.15 6.86 6.86 0 0 1 -2-.67 1 1 0 0 0 -.8-.33c-.21 0-.47 0-.43-.28s.29-.13.47-.09a.21.21 0 0 0 .14-.04z" fill="#5d5d5d"/><path d="m120.47 56.89h-.15a5 5 0 0 1 -1.23-.21 1.17 1.17 0 0 0 -1 0c-.45.18-.93 0-1.39.1a.3.3 0 0 1 -.31-.13c-.46-.81-1.2-.83-2-.75a.28.28 0 0 1 -.22-.05 1.35 1.35 0 0 0 -1.55-.72h-.11a3.39 3.39 0 0 0 -.84-.76.21.21 0 0 1 0-.17c.5-.29.88.21 1.35.23a1.53 1.53 0 0 1 1.17.5.15.15 0 0 0 .1.06c.76 0 1.29.56 2 .73a1 1 0 0 1 .45.15.81.81 0 0 0 1.09.05 1.31 1.31 0 0 1 .71.15.67.67 0 0 0 .72 0 .84.84 0 0 1 .56-.09l.19.06c.49.13.45.5.46.85z" fill="#6f6f6f"/><path d="m157 17.48a.57.57 0 0 1 .57.51 2.88 2.88 0 0 0 .73 1.85c.1.1.17.24 0 .36a.35.35 0 0 1 -.45 0 6.15 6.15 0 0 1 -1.24-1.59.89.89 0 0 1 -.13-.69.46.46 0 0 1 .52-.44z" fill="#6d6d6d"/><path d="m107.79 47.2a1 1 0 0 1 -.38-.57 8 8 0 0 0 -1.4-2.19c-.3-.45-.83-.72-.76-1.38 0-.18-.14-.32-.28-.44-.19-.54-.69-.93-.8-1.51a.17.17 0 0 0 -.29 0c.22 1 1.07 1.7 1.29 2.76a6.49 6.49 0 0 0 1.12 1.82 13.05 13.05 0 0 0 1.3 1.65c.26.28.46.42.65.43-.16-.21-.31-.39-.45-.57z" fill="#858585"/><path d="m164.58 27.21c-.18.42-.07 1-.3 1.52-.08.17-.17.33-.39.3s-.22-.22-.25-.4c0-.37-.13-.74-.21-1.11a1.08 1.08 0 0 1 .1-.75c.14-.26.33-.41.63-.31s.44.32.42.75z" fill="#555"/><path d="m100.43 18.5a1.27 1.27 0 0 1 .54-.88 4.63 4.63 0 0 0 1.34-2c.06-.12.14-.29.25-.32.52-.15.25-.33 0-.52l.08-.14c.45-.23.68-.74 1.19-.88a.67.67 0 0 1 .53.63.32.32 0 0 1 -.17.29 7 7 0 0 0 -2.12 2.56 14.75 14.75 0 0 1 -1.07 1.28.34.34 0 0 1 -.57-.02z" fill="#656565"/><path d="m111.08 9.86c.55-.44 1.07-.89 1.63-1.3a13.54 13.54 0 0 1 3.29-1.79 4 4 0 0 0 .8-.39c.13-.12.14-.41.43-.3s0 .37-.09.52a1.76 1.76 0 0 1 -.75.45 6.37 6.37 0 0 0 -1.87 1.12c-1 .78-2.2 1.21-3.2 2a.29.29 0 0 1 -.43 0c-.05-.17.11-.24.19-.31z" fill="#686868"/><path d="m148.76 10.65a1.72 1.72 0 0 1 1.34 1.35c0 .4-.25.4-.47.21a3.07 3.07 0 0 0 -1.7-.9c-.23 0-.16-.24 0-.35a1.48 1.48 0 0 1 .83-.31z" fill="#656565"/><path d="m155.38 13c0-.37.13-.54.45-.55s.64.12.63.49-.27 1-.13 1.53c0 .15-.13.18-.26.15a.68.68 0 0 1 -.58-.6 5.31 5.31 0 0 0 -.11-1.02z" fill="#6b6b6b"/><path d="m162.46 33.27a2 2 0 0 1 0 .35c-.07.26-.06.64-.39.65s-.17-.37-.25-.56-.11-.26-.17-.38a1.34 1.34 0 0 1 .18-1.52c.17-.16.31-.12.35.08.04.46.34.88.28 1.38z" fill="#676767"/><path d="m163.19 34.83a3.16 3.16 0 0 0 0-.87.79.79 0 0 1 .49-.7.42.42 0 0 1 .48.16.62.62 0 0 1 .06.77c-.14.29-.31.55-.47.83s-.16.36-.39.28-.21-.3-.17-.47z" fill="#585858"/><path d="m153.82 14a.32.32 0 0 1 .35.26 6 6 0 0 0 .73 1.37c.07.11.18.24 0 .37a.29.29 0 0 1 -.38 0 6 6 0 0 1 -1.23-1.29c-.16-.28.15-.66.53-.71z" fill="#6d6d6d"/><path d="m161.87 40.21c.12-.35 0-.8.47-1a.5.5 0 0 1 .56 0 .37.37 0 0 1 .12.52 1.93 1.93 0 0 1 -.49.87.4.4 0 0 1 -.49.06.38.38 0 0 1 -.17-.45z" fill="#4f4f4f"/><path d="m148.33 8.36c.42 0 1.15.74 1.07 1.12s-.33.3-.49.12a2 2 0 0 0 -.74-.48c-.19-.08-.44-.2-.4-.46s.36-.26.56-.3z" fill="#686868"/><path d="m153.08 48.5c.43-.41.86-.83 1.3-1.23.13-.12.29-.31.46-.17s0 .36-.06.49c-.4.51-.74 1.1-1.45 1.26-.13-.09-.33-.09-.25-.35z" fill="#868686"/><path d="m105 42.62c-.53-.41-.6-1.12-1.09-1.55a.55.55 0 0 1 -.25-.35 15.75 15.75 0 0 1 -.59-3.86.46.46 0 0 1 -.08-.19.11.11 0 0 1 .11-.07 1.68 1.68 0 0 1 .32 1.18 7.74 7.74 0 0 0 .45 2.58 7.06 7.06 0 0 0 .85 1.54 1.37 1.37 0 0 1 .28.72z" fill="#acacac"/><path d="m142.89 8.19-.5.17c.35.29.9.1 1.09.57a2.89 2.89 0 0 0 -1.19-.28 1.11 1.11 0 0 0 -1.45-.24.58.58 0 0 1 -.67 0c.9-.54 1.75-.94 2.72-.22z" fill="#818181"/><path d="m141 7.1a1.56 1.56 0 0 1 -.89-.27c-.17-.14-.37-.29-.2-.54a.42.42 0 0 1 .57-.16 8.35 8.35 0 0 1 .91.65.16.16 0 0 1 .05.21c-.15.16-.33.09-.44.11z" fill="#717171"/><path d="m135.2 53.39a.47.47 0 0 1 -.52-.27.73.73 0 0 1 -.12-.34c0-.31-.41-.74 0-.91s.38.38.51.63a.68.68 0 0 0 .29.29c.14.08.4.1.32.35s-.34.19-.48.25z" fill="#6c6c6c"/><path d="m144.33 52c.59-.22 1.19 0 1.79 0a.36.36 0 0 1 .36.39c-.32.21-.63.51-1.07.23s-.78-.34-1.08-.62z" fill="#515151"/><path d="m103.31 31.72a24.29 24.29 0 0 1 -.25 3c-.1.61 0 1.29 0 1.94-.51 0-.27-.35-.27-.52a21.42 21.42 0 0 1 .21-3.14 3.21 3.21 0 0 0 0-.82c0-.25 0-.49.34-.51z" fill="#acacac"/><path d="m128 6.26c-.2 0-.58.08-.58-.29s.34-.32.61-.32a0 0 0 0 1 .05 0c.27.09.64-.1.79.25.06.19-.35.36-.87.36z" fill="#757575"/><path d="m140.45 52.86a1.12 1.12 0 0 1 -1.31.26c-.2-.09-.34-.24-.27-.46s.29-.11.44-.08z" fill="#676767"/><path d="m132.26 50.52c.27.06.32.28.38.49s0 .27-.15.26a.46.46 0 0 1 -.43-.43.28.28 0 0 1 .2-.32z" fill="#7c7c7c"/><path d="m100.52 44.78v.49a11 11 0 0 1 -.82-1.82h.13z" fill="#989898"/><path d="m139.77 37.71c.4-.55 1-.39 1.55-.49-.46.35-1.09.16-1.55.49z" fill="#868686"/><path d="m117.44 8.42-.61-.13c0-.2.12-.21.25-.22s.35 0 .48-.14l.36-.23c-.05.3-.31.48-.48.72z" fill="#a6a6a6"/><path d="m133.4 5.27a4.26 4.26 0 0 1 1.58.58c.24.12.16.31-.08.37a1.44 1.44 0 0 1 -.87-.07 1.54 1.54 0 0 0 -.82-.12c-.3 0-.61 0-.64-.34s.31-.36.56-.4z" fill="#787878"/><path d="m119.84 4.45c.59-.34 1-.94 1.82-.91.34 0 .61-.34.82-.65l.6-.24c.39-.21.79 0 1.19 0a3.71 3.71 0 0 0 1.73-.56 1.71 1.71 0 0 1 .6-.26c.69 0 1.21-.65 1.9-.52a2.09 2.09 0 0 0 1.14-.09 25.56 25.56 0 0 1 2.89-.46 2.13 2.13 0 0 1 1.54.51c.45.31.31.58-.35.8a4.88 4.88 0 0 0 -1.32.11 4.15 4.15 0 0 0 -1.92.12c-.57.12-1.16.17-1.72.32a2.37 2.37 0 0 0 -1.57.88c-.12.18-.34.16-.55.13a3.87 3.87 0 0 0 -2.25.36c-.29.14-.57.26-.63.65s-.22.58-.75.45c-.14 0-.29-.17-.44 0a6.29 6.29 0 0 0 -1.32.6 14.28 14.28 0 0 0 -1.91.86s0 .07 0 .1a1.75 1.75 0 0 0 -1 .26 19 19 0 0 0 -4 3 1.5 1.5 0 0 1 -1.37.54 2.36 2.36 0 0 0 -1.93.75 13.71 13.71 0 0 0 -1.29 1.24 4.35 4.35 0 0 1 -1 .82c-1.92 1-2.95 2.75-4.06 4.44a10.54 10.54 0 0 1 -.93 1.58c-.27.25-.43 0-.62-.12v-.05a3.68 3.68 0 0 1 .65-1.87 20.13 20.13 0 0 0 -2 3.51 11.19 11.19 0 0 1 -1.27 2.25c-.13.13-.06.25 0 .38.12.39.11.73-.33.92a18.2 18.2 0 0 1 -.52 2c-.09.38-.53.82.09 1.18.11.06 0 .23-.11.29a.84.84 0 0 0 -.42 1c.07.38-.28.78.08 1.14-.68 1 .15 2.05-.09 3.06a2.76 2.76 0 0 1 -.11.53 2.87 2.87 0 0 0 .16 2.33c.12.35 0 .67 0 1a11.57 11.57 0 0 0 1.65 4.29c.11.16.33.36.12.51s-.44-.1-.47-.3a2.45 2.45 0 0 0 -.9-1.35 3.34 3.34 0 0 1 -.72-2 9.65 9.65 0 0 0 -.37-1.3 3.11 3.11 0 0 1 -.37-1.3c.2-1.33 0-2.67.19-4 0 0 0-.09 0-.12.57-.7-.11-1.07-.41-1.53a.47.47 0 0 0 -.58-.18.83.83 0 0 1 -.64-.07c-.28-.16-.3-.32 0-.48l.23-.12c.06-.35.18-.56.6-.41s.44-.08.51-.34a2.17 2.17 0 0 0 .14-.64c0-.71.59-1.3.34-2.05a.83.83 0 0 1 .23-.67c.62-.81.58-1.85 1-2.74a2.8 2.8 0 0 0 .41-1c0-.9.56-1.43 1-2.12.64-1.11 1.54-2.06 2.09-3.23a1.47 1.47 0 0 1 .69-.7c.33-.15.51-.47.78-.69a10.12 10.12 0 0 1 2.21-1.55 1.42 1.42 0 0 0 .82-.89 2.64 2.64 0 0 1 1.13-.51 1.82 1.82 0 0 0 .88-.46 1.44 1.44 0 0 1 .78-.36 19.05 19.05 0 0 1 2.78-1.52 3.83 3.83 0 0 0 1.23-1 15.9 15.9 0 0 1 2.17-1.29c.64-.44 1.32-.82 2-1.21.09 0 .19-.11.2-.21.06-.45.49-.61.85-.84z" fill="#2f2f2f"/><path d="m120 56.31h-.11c-.59.06-1.1-.32-1.65-.33a17.55 17.55 0 0 1 -1.93-.25 3.28 3.28 0 0 0 -1.49-.32c-.32 0-.57-.32-.83-.51a2 2 0 0 0 -.68-.36 8.93 8.93 0 0 1 -2.12-.87c-.39-.21-.71 0-1.07 0a.29.29 0 0 1 -.18 0 3.61 3.61 0 0 0 -1.25-.89c-.15-.05-.45-.16-.32-.48a12.34 12.34 0 0 0 -2.06-1.1c-.41-.21-.79-.43-.55-1a.55.55 0 0 0 0-.18c0-.18-.33-.37 0-.51s.38.16.57.25.34.75.87.31c.07-.07.58.33.85.56a1.89 1.89 0 0 0 .93.5.29.29 0 0 0 .35-.16c.06-.13 0-.23-.12-.31a27.47 27.47 0 0 1 -3.09-3.29c-.49-.52-1-1.06-1.41-1.61a6.53 6.53 0 0 1 -1-1.87c-.3-.77-.75-1.49-1-2.3l-.18-.57c-.08-.15-.26-.28-.14-.48s.17-.07.26 0a1.61 1.61 0 0 1 .28.59 6.67 6.67 0 0 0 1.28 2.48.3.3 0 0 1 .07.1c.68 2 2.41 3.23 3.55 4.89a10.06 10.06 0 0 0 3.52 3c1 .57 2 1.07 3.07 1.6.45.24 1 .18 1.55.38h.08a12.47 12.47 0 0 0 1.8.45l.14.1a14.65 14.65 0 0 0 2.63 1.07l.24.14c.72.2 1.41.5 2.11.77a9 9 0 0 0 3 .74 4.27 4.27 0 0 1 1.26.29 7.62 7.62 0 0 0 1.34.14 1.73 1.73 0 0 1 1.12.56c.24.22.42.33.72.23a.36.36 0 0 1 .33.07 3 3 0 0 0 2.61.22 2.68 2.68 0 0 1 2.23.1 2.26 2.26 0 0 1 .76.64.56.56 0 0 0 .6.26 5.53 5.53 0 0 1 1.46.2c.17 0 .32.11.29.31s-.16.2-.31.25a.56.56 0 0 1 -.52 0 .58.58 0 0 0 -.62 0h-.24a11.83 11.83 0 0 1 -3.79-.45c-.27-.1-.54 0-.81 0-.51 0-.95-.36-1.46-.36a2.65 2.65 0 0 1 -1.75-.46c-.1-.08-.23 0-.35 0a1.44 1.44 0 0 1 -1.08-.39c-.7 0-1.24-.53-1.93-.52a.47.47 0 0 0 -.29 0 4.42 4.42 0 0 1 -3-.43c-.37-.17-.78 0-1.19-.25s-.93-.66-1.35-.95z" fill="#323232"/><path d="m108 12a2.11 2.11 0 0 1 -1.06 1 5.73 5.73 0 0 0 -2.36 1.86c0 .06-.1.15-.17.17a1.32 1.32 0 0 0 -.84.84 6.67 6.67 0 0 1 -1.15 1.64c-.64.71-.83 1.73-1.64 2.31a.18.18 0 0 0 -.08.16c.12 1.37-.93 2.43-1 3.76a1.68 1.68 0 0 1 -.34.76 1.44 1.44 0 0 0 -.28 1.28c.16.53-.35.94-.34 1.48a4.62 4.62 0 0 1 -.32 1.21c-.15.52-.37.62-.81.33a.39.39 0 0 0 -.54 0 .82.82 0 0 1 0-.49c0-.08-.15-.18-.12-.26.25-.67.08-1.48.68-2 .11-.1.25-.2.21-.39-.19-.93.39-1.75.36-2.67 0-.47.43-.8.63-1.21.08-.16.23-.3.23-.48 0-1.06.77-1.62 1.37-2.31v-.47a4 4 0 0 0 1.45-1.52 9.07 9.07 0 0 1 2.24-2.58 4.93 4.93 0 0 1 2.07-1.74 4.15 4.15 0 0 0 .92-.6c.24-.25.54-.57.89-.08z" fill="#3c3c3c"/><path d="m102.57 40.46c-.2.12-.16.3-.12.48a2.94 2.94 0 0 1 -.61-1.09 11 11 0 0 1 -1.22-3.42 8.83 8.83 0 0 0 -.51-2.68c-.11-.31.12-.77.23-1.14a6.6 6.6 0 0 0 .17-2.38 17.68 17.68 0 0 1 .17-4 3.83 3.83 0 0 1 .45-1.16 15.91 15.91 0 0 0 .67-2c.06-.15.14-.31 0-.44a.41.41 0 0 0 -.4 0 .75.75 0 0 0 -.61 1c.12.52-.06.69-.59.56a1.49 1.49 0 0 0 .2-1 .48.48 0 0 1 0-.29c.47-.81.69-1.74 1.21-2.52.31 0 .26.25.24.45s-.11.39 0 .62a6.93 6.93 0 0 0 1.18-2.31c.08-.2.08-.53.46-.32a.54.54 0 0 0 .36.36 6.57 6.57 0 0 1 -.53 1.14 6.68 6.68 0 0 0 -.6 2.09 2.8 2.8 0 0 1 -.3.82 4.42 4.42 0 0 0 -.9 3 1.08 1.08 0 0 1 -.23.73 1.93 1.93 0 0 0 -.3 2 2.78 2.78 0 0 1 0 2.19 8.73 8.73 0 0 0 -.22 1.75 5.59 5.59 0 0 0 0 2.12c.13.47.13.9.87.68-.37.35-.78.67-.58 1.15.26.63.22 1.45 1 1.81.16.08.13.24.15.37a5.19 5.19 0 0 0 .36 1.43z" fill="#353535"/><path d="m99.27 19.84c-.36.37-.7.77-.41 1.36a.46.46 0 0 1 -.17.49l-.68.65c-.39.18-.29.53-.24.82s.13.59-.27.83a.8.8 0 0 0 -.33 1 1 1 0 0 1 -.13.86 3.24 3.24 0 0 0 -.26.87 3 3 0 0 1 -.37 1.11v.17a4.22 4.22 0 0 1 0 .71 1.74 1.74 0 0 0 .66-.37 14 14 0 0 0 1.11-3.86 6 6 0 0 1 .28-1.48 18.54 18.54 0 0 1 1.94-4 4 4 0 0 0 -1.13.84z" fill="#5e5e5e"/><path d="m111.84 54.07c-.41-.32-.78-.71-1.38-.55a.49.49 0 0 1 -.45-.1 7.08 7.08 0 0 0 -1.46-.78c-.53-.19-1.18-.13-1.4-.84 0 0-.1 0-.16-.06l-.41-.08a4.83 4.83 0 0 1 .91 1.07c.79.56 1.9.43 2.62 1.14a1 1 0 0 1 1 .15 1.25 1.25 0 0 0 .72.25c.01-.08.05-.17.01-.2z" fill="#6f6f6f"/><path d="m106.74 51.81a1.47 1.47 0 0 1 .77.68.33.33 0 0 0 .19.13l2.31.8a8.29 8.29 0 0 0 -1.68-1.2c-.24 0-.46.27-.71 0a2.16 2.16 0 0 0 -1.24-.73z" fill="#585858"/><path d="m97.16 34.34-.15-.7c0-.24-.28-.42-.22-.71.19-.9.09-1.28-.52-1.62v.23a1 1 0 0 1 .37 1.08 1.74 1.74 0 0 0 .52 1.72z" fill="#717171"/><path d="m118.44 54.12a3.84 3.84 0 0 0 -1.63-.7 1.45 1.45 0 0 1 -1.13-.57.45.45 0 0 0 -.36-.18 1.1 1.1 0 0 1 -.86-.45 12.47 12.47 0 0 1 -2.35-1.22 9.85 9.85 0 0 1 -2.11-1.87 1.65 1.65 0 0 0 -.29-.3 4.79 4.79 0 0 1 -1-.67c0 .11 0 .22.17.35.58.52 1.08 1.12 1.7 1.59s1.08 1.16 1.88 1.43a14 14 0 0 1 3.44 2c.36.06.64.39 1 .36a.88.88 0 0 1 .8.36 1.61 1.61 0 0 0 .43.17 5.47 5.47 0 0 1 2.33.91h.22c.15 0 .35.18.38-.13a4.6 4.6 0 0 0 -2.24-.91 1 1 0 0 1 -.38-.17z" fill="#6f6f6f"/><path d="m103.27 31.69s-.1.1-.1.14c0 1.14-.36 2.25-.25 3.39a1.94 1.94 0 0 1 0 .64c-.06.28-.11.56.14.78v.23a.66.66 0 0 1 -.36-.64c0-.85 0-1.7.07-2.55.12-1.63.43-3.25.42-4.89a5.12 5.12 0 0 1 .28-1.59 16.72 16.72 0 0 1 .74-2.57 20 20 0 0 0 .66-2.41c.11-.13 0-.43.35-.36-.39 1-.41 2-.73 3-.61.78-.43 1.79-.81 2.65-.6 1.33-.15 2.79-.41 4.18z" fill="#858585"/><path d="m117.56 7.93c-.17.27-.49.22-.73.36a8.71 8.71 0 0 1 -1.69 1.71 2.09 2.09 0 0 0 -.69 1 .55.55 0 0 1 -.73.42c-.43-.11-.71.18-1 .46h-.21c.14-.23.3-.47.55-.53.93-.23 1.34-1.06 2-1.63a18 18 0 0 0 1.67-1.6c.2-.22.53-.18.83-.19z" fill="#757575"/><path d="m112.53 11.9a1.69 1.69 0 0 1 -.78 1.29c-.53.43-.84 1.07-1.5 1.35-.19.08-.23.32-.32.49a.94.94 0 0 1 -.75.62c-.11-.09-.08-.18 0-.27.43-.16.58-.58.82-.9.72-.98 1.74-1.67 2.53-2.58z" fill="#757575"/><path d="m105.2 21.86-.35.36a11.76 11.76 0 0 1 1.48-2.94 14.91 14.91 0 0 0 1.5-2.35c0-.07.09-.07.13 0a2.91 2.91 0 0 1 -.81 1.42c-.36.35-.32 1-.74 1.32-.68.58-.77 1.48-1.21 2.19z" fill="#747474"/><path d="m119.36 6.62a.3.3 0 0 1 0-.1c1 0 1.88-.48 2.87-.38-1.2.35-2.43.53-3.61 1z" fill="#757575"/><path d="m103 36.86a5.62 5.62 0 0 1 .21 1.58c.09.76.25 1.52.38 2.28a9.07 9.07 0 0 1 -.59-3.86z" fill="#858585"/><path d="m108 16.94h-.12c.37-.57 1-.91 1.33-1.55v.48c-.35.46-.9.65-1.21 1.07z" fill="#6a6a6a"/><path d="m129.14 11.07c-1.14.29-2.27.65-3.4 1a17.32 17.32 0 0 0 -2.66 1.14 1.08 1.08 0 0 1 -.49.32 17.57 17.57 0 0 0 -2.64 1l-.22.12a9.06 9.06 0 0 0 -2.38 2.07.66.66 0 0 1 -.35.28c-1.45.41-2 1.75-2.84 2.77 1-.4 1.45-1.68 2.66-2-.25.87-1 1.33-1.35 2a10.3 10.3 0 0 0 -1.66 3.41 27 27 0 0 1 -1 3.37 3.3 3.3 0 0 0 -.23 1.33c.07 1-.23 1.19-1.16 1a3.25 3.25 0 0 0 .36 1.68c.27.32.18.84.6 1.08.53.07.61.47.71.9a4.91 4.91 0 0 0 1.43 2.92c.6.52.55.59-.11 1a1.4 1.4 0 0 0 .62.63 4.08 4.08 0 0 1 1.15.94 2.27 2.27 0 0 0 .18.25 5.32 5.32 0 0 1 1.19.72 8.8 8.8 0 0 0 1.07.22c.61-.11.38-.38.09-.6a3 3 0 0 1 -1.14-1.62 29.64 29.64 0 0 1 -2.41-2.72c-.52-.62-.51-1.46-.87-2.14a4 4 0 0 1 -.49-2.88c.21-1 0-2.14.49-3.14a.86.86 0 0 0 0-.17 13.92 13.92 0 0 1 3-7 3.22 3.22 0 0 1 1.51-1.9 4.79 4.79 0 0 0 1.29-.84 3.16 3.16 0 0 1 1.18-1c.18-.07.33-.2.29-.4-.09-.43.2-.44.48-.51a8.29 8.29 0 0 0 2.57-.9c.33-.22.74-.64 1.11-.49.93.35 1.62-.29 2.38-.5a5.53 5.53 0 0 1 1.8-.41c.47 0 1.07 0 1.24-.7a2.16 2.16 0 0 0 -2-.23z" fill="#3f3f3f"/><path d="m137.16 43.86a9.85 9.85 0 0 1 -4.34-.56 26.44 26.44 0 0 1 4.34.56z" fill="#4b4b4b"/><path d="m132.33 2.06a5 5 0 0 1 1.44-.12c1.29-.59 2.61-.28 4 0h-.11s0-.06 0 0a2.3 2.3 0 0 1 -1.54-.45c-.12-.07-.3-.12-.29-.27 0-.37-.22-.46-.52-.51-.12 0-.14-.13-.14-.23a3.38 3.38 0 0 1 1.62-.48c.36 0 .53.13.55.53 0 .89.12.92 1 .93a11.48 11.48 0 0 1 4.83.63c.25.11.64.1.64.45s-.42.27-.65.39l-.16.07a11.35 11.35 0 0 1 -2.65-.36c-.13 0-.29-.12-.4-.08-.8.25-1.5-.29-2.28-.26a3.23 3.23 0 0 0 -.93.05 2.28 2.28 0 0 1 -1.07 0 8.34 8.34 0 0 0 -5 .65 9.54 9.54 0 0 1 -3.62 1.11c-.11-.18 0-.29.14-.38a2.66 2.66 0 0 1 1.4-.54 2.37 2.37 0 0 0 1.27-.39.66.66 0 0 1 .5-.19h.29a2.85 2.85 0 0 1 1.68-.55z" fill="#3b3b3b"/><path d="m135.17.37 1.07-.15c.11 0 .25 0 .3.12s0 .19-.07.28-.41.21-.21.4a1.21 1.21 0 0 0 .71.38c.49 0 .92.36 1.43.3.09 0 .17.12.16.22s-.2.24-.36.23a14 14 0 0 1 -1.84-.15 3.17 3.17 0 0 0 -1.53 0 3.14 3.14 0 0 1 -1.06 0c.12-.11.34-.38.17-.39-.59-.06-.89-.73-1.6-.56a23.3 23.3 0 0 1 -2.66.35c0-.06 0-.14 0-.16a16.92 16.92 0 0 1 2-.47 19.78 19.78 0 0 0 3.32-.38z" fill="#3a3a3a"/><path d="m135 .39a2.58 2.58 0 0 1 -1.09.24 15.73 15.73 0 0 0 -4.2.71 1.91 1.91 0 0 1 -.52.1 8.19 8.19 0 0 0 -3.3.89 3 3 0 0 1 -2.13.31 1.78 1.78 0 0 0 -.65 0c.45-.42 1.08-.25 1.58-.31a3.63 3.63 0 0 0 1.31-.43c.66-.34 1.43-.33 2.06-.72a.72.72 0 0 1 .64 0c.31.14.57 0 .86-.08a10.28 10.28 0 0 1 2.35-.53 20.69 20.69 0 0 0 3.09-.18z" fill="#5b5b5b"/><path d="m111.81 30.5c.44.23.4.72.6 1.08l.23 1.48a8.63 8.63 0 0 1 -.83-2.56z" fill="#4b4b4b"/><path d="m137.13 60a1.3 1.3 0 0 1 .75-.09c.16 0 .36 0 .38-.2s-.18-.18-.31-.22a6.36 6.36 0 0 0 -1.07-.11 1.84 1.84 0 0 1 -1.39-.7 1.4 1.4 0 0 0 -1.58-.41 3.76 3.76 0 0 1 -1.93.41 3.38 3.38 0 0 1 -1.45-.49.65.65 0 0 1 .81 0 1.72 1.72 0 0 0 1.84-.13 5.59 5.59 0 0 1 2.3.17c.16.07.38.11.47.24.58.81 1.49.7 2.3.87a11.3 11.3 0 0 0 3.07.28c.58 0 .72.28.49 1a21.72 21.72 0 0 1 -2.55-.2 11.63 11.63 0 0 1 -1.65-.29z" fill="#434343"/><path d="m120.67 55.35.38-.13c.66-.46 1 .1 1.43.44a1.71 1.71 0 0 0 1.4.47c.2 0 .38.11.57.14.87.4 1.86.34 2.73.76.07 0 .07.07 0 .11-1-.3-2.12-.21-3.17-.51s-2.19-.97-3.34-1.28z" fill="#636363"/><path d="m127.17 57.14v-.14h1.07a1.35 1.35 0 0 1 1.35.59.68.68 0 0 0 .72.31 1.26 1.26 0 0 1 .75.13 2.33 2.33 0 0 0 2.12.08 1.6 1.6 0 0 1 -1.69.32 2 2 0 0 0 -1-.22c-.85-.06-1.49-.72-2.33-.83a9.09 9.09 0 0 1 -.99-.24z" fill="#676767"/><path d="m124.44 56.27a2.66 2.66 0 0 1 -2.33-.74 1.31 1.31 0 0 0 -1.07-.31 1.21 1.21 0 0 1 .96-.22 2.05 2.05 0 0 0 1.87 1 .7.7 0 0 1 .57.27z" fill="#6f6f6f"/><path d="m127.76 58.23a27.23 27.23 0 0 0 5.43 1.24c1.28.15 2.54.46 3.83.56a11.66 11.66 0 0 1 -3.68-.18 18.07 18.07 0 0 0 -2.91-.5 1.66 1.66 0 0 1 -1.12-.34 1.08 1.08 0 0 0 -.8-.19.69.69 0 0 1 -.75-.47q-.12-.06 0-.12z" fill="#434343"/><path d="m120 56.31a5.26 5.26 0 0 1 1.26.5c1 .39 2.13.48 3.15.86a1.16 1.16 0 0 0 .76 0c.26-.08.51-.14.72.1a3.16 3.16 0 0 1 -1.8.12 4.53 4.53 0 0 1 -1.57-.47c-.75.17-1.33-.39-2-.5z" fill="#474747"/><path d="m124.05 57.86a9.08 9.08 0 0 0 1.8-.12c.69 0 1.26.39 1.91.49v.12a2.1 2.1 0 0 1 -1.14-.26 2 2 0 0 0 -1.16-.15 2.7 2.7 0 0 1 -1.41-.08z" fill="#535353"/><path d="m122.48 57.39a6.61 6.61 0 0 1 1.57.47c-.56-.04-1.16.04-1.57-.47z" fill="#535353"/><path d="m130.05 3a17.55 17.55 0 0 0 -3 1.07 1.27 1.27 0 0 0 -1.13.24c-.47.3-1 .48-1.48.74a1.55 1.55 0 0 1 -1.83 0l.52-.13c.1 0 .3 0 .18-.2-.33-.43.06-.53.29-.66a4.29 4.29 0 0 1 3.1-.78c.26 0 .39-.14.55-.28.42-.37.83-.78 1.48-.59a2.41 2.41 0 0 0 .93 0c.49.01.55.09.39.59z" fill="#3a3a3a"/><path d="m121.29 5.66a1.67 1.67 0 0 1 1.32-.6c-.25.28-.73.24-.88.7-.06.18-.3-.01-.44-.1z" fill="#3a3a3a"/><path d="m111.82 54.24a2.11 2.11 0 0 0 -1.29-.61.7.7 0 0 1 -.52-.21c1-.33 1.77.39 2.61.72a7.69 7.69 0 0 1 2 1 1.2 1.2 0 0 0 .75.15 1.32 1.32 0 0 1 .9.24 14.19 14.19 0 0 1 1.69.49c-.38.41-.8.33-1.25 0a3.23 3.23 0 0 0 -1.7-.62.85.85 0 0 1 -.62-.18 5.91 5.91 0 0 0 -2.57-.98z" fill="#585858"/><path d="m117.94 56.07c-.66.18-1.12-.36-1.69-.49a11.7 11.7 0 0 1 3.6.72 1.36 1.36 0 0 1 -1.18 0 2.06 2.06 0 0 0 -.73-.23z" fill="#474747"/><path d="m108 12a5.31 5.31 0 0 0 -2 1 20.2 20.2 0 0 0 -1.86 1.37c0-.25-.24-.38-.35-.59a.44.44 0 0 1 0-.1 2.77 2.77 0 0 0 1.65-.86 1 1 0 0 1 .56-.33 1.27 1.27 0 0 0 1-1c1-.23 2.11-.21 2.94-1 .12-.12.41-.06.63-.09 0 0 .05.06 0 .09s0 .06 0 .06z" fill="#555"/><path d="m110.62 10.59v-.15l.36-.34c1-.48 1.81-1.24 2.77-1.75a26.62 26.62 0 0 1 2.75-1.56 1 1 0 0 0 .73-.65c.33-.34.85-.25 1.22-.54a1.38 1.38 0 0 0 .58-.77 2.84 2.84 0 0 1 .83-.38 9.46 9.46 0 0 1 -4 3 3.19 3.19 0 0 0 -1.19 1 2.56 2.56 0 0 1 -1.54 1.05 10.53 10.53 0 0 0 -2.51 1.09z" fill="#3f3f3f"/><path d="m123.08 13.19c-.11.11-.2.28-.33.33-.93.35-1.87.68-2.8 1l.28-.2c.83-.65 1.96-.59 2.85-1.13z" fill="#4b4b4b"/><path d="m124.05 33.11-.49-.33a1.5 1.5 0 0 1 -.78-1.14 3.53 3.53 0 0 0 -.29-1 2.74 2.74 0 0 1 -.07-2.05 5.39 5.39 0 0 0 .34-1.63 5.94 5.94 0 0 1 .71-1.88 17.77 17.77 0 0 1 2.46-4 24.17 24.17 0 0 1 2.56-2.5c.24 0 .53-.1.63.19s-.24.35-.38.51c-.76.84-1.57 1.62-2.32 2.47-1.19 1.35-1.67 3.07-2.57 4.56a.58.58 0 0 0 -.09.34 6.27 6.27 0 0 1 -.44 2.22 1.93 1.93 0 0 0 .09 1.56 1.07 1.07 0 0 1 .14.46 2.24 2.24 0 0 0 1.4 1.91 11.72 11.72 0 0 1 2.9 2.19 2.32 2.32 0 0 0 1.4.61 3.86 3.86 0 0 1 2.11.75c.23.21.48.12.68-.11s.31-.32.5-.12 0 .41-.13.56a1.79 1.79 0 0 1 -1.95 0 2.52 2.52 0 0 0 -1.71-.6 1.84 1.84 0 0 1 -1.6-.68 8.45 8.45 0 0 0 -3.1-2.29z" fill="#6b6b6b"/><path d="m134.34 31.33c.77-.75 1.44-1.6 2.28-2.27a.66.66 0 0 0 .22-.94 1.78 1.78 0 0 1 -.2-.93 2 2 0 0 0 -.33-1.19.75.75 0 0 1 -.14-.5 1.11 1.11 0 0 0 -.72-1.34c-.1-.05-.17-.17-.25-.25.1-.4.54-.13.73-.36a7.14 7.14 0 0 0 .65.41.81.81 0 0 1 .46 1 1.78 1.78 0 0 0 .2 1.27 1.76 1.76 0 0 1 .21 1.15.72.72 0 0 0 .09.58.76.76 0 0 1 -.27 1.21c-.58.39-.83 1-1.33 1.48a8 8 0 0 1 -.73.7.5.5 0 0 0 -.44.1c-.15.09-.35.17-.43-.12z" fill="#777"/><path d="m135.93 23.55c0 .65-.35.52-.73.36a1.05 1.05 0 0 0 -.89-.68 2.36 2.36 0 0 1 -1.37-.74 2.49 2.49 0 0 0 -1.87-.93 2.26 2.26 0 0 1 -.56-.17c-.37-.05-.61-.37-.94-.5a1.68 1.68 0 0 1 -.33-.25c-.16-.2-.54-.37-.25-.68a.65.65 0 0 1 .87-.12c.2.12.37.31.56.44a6.2 6.2 0 0 0 1.63.86 3.11 3.11 0 0 1 1.77 1 1.57 1.57 0 0 0 1.09.56 1.15 1.15 0 0 1 1.02.85z" fill="#686868"/><path d="m134.34 31.33c.29.08.58-.65.87 0-1 .95-1.89 1.91-2.85 2.86a.44.44 0 0 1 -.72-.06c-.2-.28.06-.45.28-.54a2 2 0 0 0 .88-.78 7.5 7.5 0 0 1 1.54-1.48z" fill="#606060"/><path d="m130.51 21.39a3.71 3.71 0 0 1 2.65 1.18 2.26 2.26 0 0 0 1.28.61.87.87 0 0 1 .76.73 1.75 1.75 0 0 0 -1.1-.66 2.13 2.13 0 0 1 -1.22-.69 2.63 2.63 0 0 0 -1.71-.91 1.23 1.23 0 0 1 -.66-.26z" fill="#777"/><path d="m160.67 44.92c-.15 0-.36 0-.36-.21s.67-.73 1-.72a.26.26 0 0 1 .28.31c-.05.57-.51.57-.92.62z" fill="#6e6e6e"/><path d="m157.39 48.53c-.3 0-.43-.21-.26-.4a1.89 1.89 0 0 1 1.09-.78.32.32 0 0 1 .4.17c.06.14.08.3-.05.38-.39.23-.8.43-1.18.63z" fill="#646464"/><path d="m103.53 18.86a10.17 10.17 0 0 1 -1.06 2.38.56.56 0 0 0 -.06.23.63.63 0 0 1 -1.06.45c-.18-.13-.13-.27 0-.42a2.89 2.89 0 0 0 .29-1.08c.33-1 1.05-1.71 1.46-2.65a6.68 6.68 0 0 1 1.33-1.51.2.2 0 0 1 .27-.05c.09.06.09.16.09.26s0 .4-.18.5c-.7.46-.74 1.26-1.08 1.89z" fill="#424242"/><path d="m132.33 2.06a3.86 3.86 0 0 1 -1.92.72c-.47-.35-.14-.59.12-.84l.75-.14a1.1 1.1 0 0 1 1.05.26z" fill="#3a3a3a"/><path d="m130.53 1.94-.12.84-.36.24c-.16-.38-.46-.22-.72-.18s-.63 0-.6-.42a.6.6 0 0 1 .54-.29 3 3 0 0 0 1.26-.19z" fill="#3a3a3a"/><path d="m117.69 54.26a20.63 20.63 0 0 1 2.2.51c.3 0 .44.31.56.57a10.76 10.76 0 0 0 -2.49-.78c-.09-.01-.18-.2-.27-.3z" fill="#424242"/><path d="m115.89 53.54c.62.2 1.39 0 1.8.72-.59-.26-1.31-.21-1.8-.72z" fill="#424242"/><path d="m135 27.56c-.24-1.76-1.6-2.81-2.61-4.08 0 0-.11 0-.17-.05a9.9 9.9 0 0 0 -1.43-.09 5.21 5.21 0 0 0 -4.56 4.19 1.48 1.48 0 0 0 0 .47c.23 1.32.52 2.57 2 3.1a3.91 3.91 0 0 0 2.16.45c1.23-.25 2.51-.31 3.43-1.37a4.16 4.16 0 0 0 1.18-2.52zm-6.54-2.56a.19.19 0 0 1 .26-.09.18.18 0 0 1 .05.26 4.08 4.08 0 0 1 -1 1.46 3.63 3.63 0 0 1 .69-1.63zm-.31 4.17c-.29.24-.45.19-.52-.18s-.15-.75-.23-1.11c-.12-.53 2.25-2.83 2.83-3.64a.43.43 0 0 1 .6-.09c.23.21-.07.35-.2.45a23.27 23.27 0 0 0 -2.54 3.16c-.08.24-.48.49-.14.71s.57-.12.75-.39a4 4 0 0 1 .26-.32 8.94 8.94 0 0 1 2.78-3.14c.26-.19.45-.06.63.13s.1.35-.08.49c-1.11.88-2.15 1.83-3.2 2.78a14.73 14.73 0 0 1 -.94 1.13zm6.3-1.46c-.08.15-.14.33-.33.4l-1.39 1.12c-.21.21-.47.4-.65.56a7.37 7.37 0 0 1 -1 .85 1.45 1.45 0 0 1 -1.28.35c.28-.34.73-.38 1.07-.61.06 0 .81-.58 1.07-.82a10 10 0 0 0 -1.27.35 21 21 0 0 1 2-2.25 7.79 7.79 0 0 0 .64-.76.41.41 0 0 0 -.38.11 16.55 16.55 0 0 0 -3.35 3.49c-.33.53-.63.27-1 0a.54.54 0 0 1 0-.61 9.73 9.73 0 0 1 2.5-2.89c.44-.33.83-.73 1.25-1.1.71-.52.71-.52 1.34.1a2 2 0 0 1 .41.45.7.7 0 0 1 .16.19.78.78 0 0 1 .21 1.05z" fill="#4d4d4d"/><g fill="#1d1d1b" font-family="BaskervilleMTPro-Regular, Baskerville MT Pro"><text font-size="25" transform="translate(52.02 36.49)">}</text><text font-size="24" transform="translate(52.02 92.45)">}</text><text font-size="10" transform="translate(.2 28.7)"><tspan xml:space="preserve">     Scutellum</tspan><tspan x="-.2" y="12">or Cotyledon</tspan></text><text font-size="10" transform="translate(189.5 30.5)">a<tspan letter-spacing=".01em" x="4.69" y="0">r</tspan><tspan letter-spacing="-.01em" x="8.44" y="0">r</tspan><tspan x="11.99" y="0">ested Cotyledon or </tspan><tspan x=".06" y="12">Lo</tspan><tspan letter-spacing="-.02em" x="11.1" y="12">b</tspan><tspan x="16.13" y="12">ule</tspan></text></g><path d="m165.21 29.27h20.36" fill="none" stroke="#1d1d1b" stroke-miterlimit="10" stroke-width=".5"/><path d="m60.49 87.38h15.56l41.08-49.13" fill="none" stroke="#1d1d1b" stroke-miterlimit="10" stroke-width=".5"/><text fill="#1d1d1b" font-family="BaskervilleMTPro-Regular, Baskerville MT Pro" font-size="10" transform="translate(17.52 88.55)">Pileole</text><path d="m61.31 31.24h34.97" fill="none" stroke="#1d1d1b" stroke-miterlimit="10" stroke-width=".5"/></svg>