<svg viewBox="0 0 236.61 135.15" xmlns="http://www.w3.org/2000/svg"><path d="m.37 114.4a.16.16 0 0 1 -.22.13.18.18 0 0 1 -.14-.22.15.15 0 0 1 .18-.11.19.19 0 0 1 .18.2z" fill="#d6d6d6"/><path d="m217.17 34.24c0-.07 0-.16 0-.24a1.87 1.87 0 0 0 -.4-1.59.81.81 0 0 1 -.15-.63c0-.6-.05-1.22.47-1.73a.65.65 0 0 0 0-.83c-.19-.29-.46-.21-.73-.16s-.71-.22-.52-.54a.54.54 0 0 0 -.17-.81c-.29-.23-.53 0-.71.24a3.41 3.41 0 0 0 -1 1.68 5.85 5.85 0 0 1 -.34.48c-.38.62-.84 1.18-1.23 1.79s-.4 1.58-1.47 1.66a4.51 4.51 0 0 0 -.72.16c-.13 0-.27 0-.27-.17 0-.58-.43-.39-.73-.4s-.75 0-.89.36a13 13 0 0 0 -.74 1.61 1.08 1.08 0 0 1 0 .18 1 1 0 0 0 .58 1.06c.39.17.68-.19.93-.48.07-.09.13-.21.26-.24a12.76 12.76 0 0 1 .27 4.69c0-.18 0-.36-.08-.52a1.12 1.12 0 0 0 -.08-.26 2.89 2.89 0 0 0 -.68-.67c-.45-.36-.74-.28-1 .22-.16.29-.07.62-.25.9a2.81 2.81 0 0 0 -.26 1.32 10.4 10.4 0 0 1 0 1.58.86.86 0 0 0 -.1.16 2.54 2.54 0 0 0 -.3 1.77 1.29 1.29 0 0 1 0 .19c-.07.21-.3.37-.18.65a.54.54 0 0 1 -.08.52c-.53.62-.3 1.25-.08 1.91.16.51.58 1 .41 1.57a4.61 4.61 0 0 0 -.19 1.16 5.57 5.57 0 0 0 -.58-3.08.91.91 0 0 0 -.86-.44c-.39 0-.31.34-.39.57a7.44 7.44 0 0 0 -.37 2.38c0 .39-.31.61-.32 1a24.63 24.63 0 0 1 -.41 3.19c-.12.83-.39 1.63-.44 2.49a5.78 5.78 0 0 1 -.62 2.76c-.35.58-.73 1.15-1 1.77a13 13 0 0 1 -.85 1.66c-.24.41-.6.73-.84 1.15-.07.12-.1.28-.29.22s-.18-.19-.15-.34a6.35 6.35 0 0 0 0-1.07c0-.13.06-.31-.13-.35s-.28.14-.29.3a6.73 6.73 0 0 0 -.13 2.28l-.24.81a1.88 1.88 0 0 1 -.26.83c-.24.28-.17.58-.12.93.08.6.56 1.15.23 1.81-.07.13-.15.37.08.46s.29-.16.37-.32a7 7 0 0 1 1.62-4c.8-1.22 1.54-2.48 2.28-3.74l1.8-2.75c.24-.31.66-.43.88-.76l.1-.19a.05.05 0 0 1 0 0c.32-.65.68-1.26 1.43-1.37a5.09 5.09 0 0 0 1.26-1.23 25.28 25.28 0 0 0 1.27-2.8c.22-.55.34-1.17.93-1.42a.12.12 0 0 1 .17.09 1.5 1.5 0 0 1 -.32 1l-.14.23-.52 1.38c-.09.24-.17.46-.26.68a.42.42 0 0 0 .16.12c.39.15.67-.25.92-.53a.61.61 0 0 0 .12-.27c.43-.79.68-1.67 1.1-2.47a2 2 0 0 0 .42-1.58c-.37-.48-.57-1 0-1.47 0 0 0-.07.06-.1a2.12 2.12 0 0 0 .33-.51 13.87 13.87 0 0 0 1-2.08.87.87 0 0 1 .17-.38 1 1 0 0 0 .23-.73 10 10 0 0 0 .58-2.35c0-.17 0-.37.19-.48a5.06 5.06 0 0 0 1.45-2c.14-.18.07-.43.2-.61a5.15 5.15 0 0 0 .65-2.38c.03-1.01.42-1.96-.04-2.9zm-8.13.43a.36.36 0 0 1 -.34.14h-.12a.16.16 0 0 1 -.08-.1c0-.45.56-.87 1-.86 0 0 .08 0 .09.1a.23.23 0 0 1 0 .17 1.26 1.26 0 0 1 -.59.55zm-4.26 21.79c-.39.19-.44-.35-.41-.61s.14-.73.41-.86a.61.61 0 0 1 .55-.19.13.13 0 0 1 .11.11 2.07 2.07 0 0 1 -.66 1.55zm8.49-12.88a16.75 16.75 0 0 1 -1.39 4 11.69 11.69 0 0 1 -2.8 3.49.12.12 0 0 1 -.2-.1 7.09 7.09 0 0 1 .6-2.73 1.78 1.78 0 0 1 1.13-.74l.55-.26a2.12 2.12 0 0 0 .46-1s0 0 0-.07a.11.11 0 0 1 0-.08l.13-.34c.09-.33.19-.65.28-1 .18-.56.35-1.11.92-1.35h.06a0 0 0 0 0 0 0h.09a.12.12 0 0 1 .17.18zm3-8.88a12.11 12.11 0 0 1 -1.07 4.15c-.23.5-.6 1.46-1.12 1.75a.44.44 0 0 1 -.4 0c-.15 0-.25-.21-.39-.27-.46-.21-1.19.23-1.41.61a.13.13 0 0 0 0-.06c.06-.21.13-.67.18-.79a5.48 5.48 0 0 0 .23-1 7.66 7.66 0 0 1 .74-2.61 0 0 0 0 0 0 0 22.7 22.7 0 0 1 1.45-2.48 6.92 6.92 0 0 1 .82-1.13c.12-.13.28-.35.49-.33s.38.51.41.77a.13.13 0 0 0 0 .06 2.55 2.55 0 0 1 .05 1.33z" fill="#606060"/><path d="m195 65.66a8 8 0 0 1 -.29-1.19c0-.67.18-1.32.17-2 0-.11 0-.26-.11-.3s-.2.1-.27.2a1.8 1.8 0 0 0 -.22.79c0 .13.07.32-.12.35s-.22-.14-.3-.25c-.91-1.63-1.39-3.44-2.25-5.1a38.33 38.33 0 0 1 -2-5.57 22.64 22.64 0 0 1 -.89-3.15 3.75 3.75 0 0 0 -.5-1.27 1.36 1.36 0 0 0 -1.85-.52c-.53.48-.58.47-.91-.17a24.1 24.1 0 0 0 -2.43-3.86 18 18 0 0 1 -2-3.63 20.47 20.47 0 0 0 -2-3.48c-.62-.94-1.65-1.63-1.8-2.88a.39.39 0 0 0 -.19-.29 1.73 1.73 0 0 1 -.76-.88c-.18-.37-.54-.36-.89-.33s-.25.33-.28.54a.86.86 0 0 1 -.06.23c-.1.33-.4.64-.09 1s.34.7.7.88a1.48 1.48 0 0 1 .71.77 1.07 1.07 0 0 0 .47.51 1 1 0 0 1 .39.59 3.79 3.79 0 0 0 .69 1.24 9.35 9.35 0 0 1 1.08 1.62c.32.57.32 1.24.66 1.78.12.2.2.43.31.64.3.56.19.89-.36 1.22-.23.14-.23.34-.23.56a1.51 1.51 0 0 0 0 .7 27.11 27.11 0 0 0 1.3 3.74 1.79 1.79 0 0 1 .32.93c-.38-.28-.45-.86-.89-1.17a2.27 2.27 0 0 1 -.89-1 1 1 0 0 0 -.33-.33 3.68 3.68 0 0 1 -1.59-1.58 4.45 4.45 0 0 1 -1.18-1.6 3.38 3.38 0 0 1 -.66-1.24 3.27 3.27 0 0 0 -.26-1.32 4.33 4.33 0 0 1 -.42-1.24c-.19-.76-.22-1.61-1.17-1.91-.07 0-.12-.1-.16-.17s-.16-.35-.39-.29-.22.25-.25.43a3.93 3.93 0 0 0 .52 2.53c-.23-.41-.46-.83-.7-1.23a5 5 0 0 0 -1.16-1.42c-.13-.09-.26-.19-.44-.12a.27.27 0 0 0 -.18.34c.18.65.14 1.47.7 1.89 1.17.87 1.32 2.41 2.34 3.35v.06a15.28 15.28 0 0 0 1.36 1.65c.29.24.61.54.44 1s0 .6.32.79a9.8 9.8 0 0 1 1.42 1.46 5.06 5.06 0 0 1 -1.78-1.24 1.44 1.44 0 0 1 -.46-.75 2 2 0 0 0 -.65-1.26 3.68 3.68 0 0 1 -.92-1.23 7.49 7.49 0 0 1 -.9-1.27c-1-1.58-2.49-2.68-3.72-4-.19-.21-.39-.15-.59 0a.47.47 0 0 0 -.19.55c.17.7.61 1.27.83 1.93a1 1 0 0 0 .84.82.87.87 0 0 1 .66.56 5.83 5.83 0 0 0 .72 1.23 35.68 35.68 0 0 0 3.73 4.19 12.48 12.48 0 0 0 2.78 2.29c.79.41 1.08.32 1.54-.45.07 0 0-.28.13-.18a1.61 1.61 0 0 1 .71 1c.46.44.74 1 1.21 1.47a17.4 17.4 0 0 1 2.86 2.7 2.42 2.42 0 0 0 .61.58 7.78 7.78 0 0 1 2.09 2.19 7.65 7.65 0 0 0 1 1.25 7.25 7.25 0 0 0 -1.68-1 3.41 3.41 0 0 1 -1.54-1.12l-.14-.1c-.66-.31-1.23-.76-1.92-1.06s-1.5-.91-2.27-1.33a1.23 1.23 0 0 1 -.44-.41.29.29 0 0 1 0-.34.17.17 0 0 1 .26 0c.57.43 1.34.54 1.8 1.17a3 3 0 0 0 .66.56.53.53 0 0 0 .66 0c.2-.17.12-.39 0-.6a7.4 7.4 0 0 0 -.69-1 6 6 0 0 0 -3.26-1.88 4.35 4.35 0 0 1 -1.32-.43.88.88 0 0 0 -.69-.09c-.39.08-.66.54-.46.82a7.13 7.13 0 0 0 1.59 2 2.48 2.48 0 0 1 1 1.19c.64.53 1.41.87 2 1.44l.14.1a14.73 14.73 0 0 1 2.37 1.47 5.57 5.57 0 0 0 2.09 1.21 18.89 18.89 0 0 0 2.83 1.69c.47.24 1 .33 1.37.8.7 1 1.66 1.8 2.3 2.87.32.54.48 1.15.84 1.67.55.46.38 1.09.38 1.68a3.75 3.75 0 0 0 .18 1.41c.05.17.15.29.34.27s.2-.21.2-.36 0-.44 0-.66a5.27 5.27 0 0 1 .09-1.68c.54-.17.57-.5.38-.97zm-20.65-24c0 .08-.11.14-.19.07a5.22 5.22 0 0 1 -1.16-1.36.14.14 0 0 1 0-.18s0 0 .06 0a1.24 1.24 0 0 1 .41.33c0-.08-.09-.14-.13-.21a.13.13 0 0 1 .23-.12 9.48 9.48 0 0 0 .73 1.23.12.12 0 0 1 .07.2zm10.09 6.18c.43-.07.7.26.88.71a2.42 2.42 0 0 1 .34 1.79.55.55 0 0 1 0 .18.13.13 0 0 1 -.25 0 .1.1 0 0 1 -.05 0 4.48 4.48 0 0 1 -.56-1.42 2.68 2.68 0 0 1 -.49-1.15.12.12 0 0 1 .15-.15zm1.56 5.85c0 .35-.2.72-.61.67s-.89-.78-1.17-1.08c-.51-.55-.68-.42-1-1.08 0 0-.49-.73-.47-.76a3.27 3.27 0 0 1 -.38-.84s-.16-.64-.18-.68-.22-.81-.36-1.41-.19-1.17-.32-1.75a6.38 6.38 0 0 1 -.22-1.22s0-1.09 0-1.1 0-.25.1-.26a.11.11 0 0 1 .17-.1l.16.11c1 .72 1.51 2.11 2 3.31a1.59 1.59 0 0 1 .15.21 3.13 3.13 0 0 1 .33.83 12.42 12.42 0 0 1 .78 2 7.33 7.33 0 0 1 .41 1.12c.18.39.12.36.38.57s.23 1.08.23 1.46zm2.35 4.06c-.22-.23-.39-.51-.6-.76s-.66-.7-.94-1.08a1.11 1.11 0 0 1 -.18-.44.89.89 0 0 1 0-.49v-.06c0-.46 0-.93 0-1.39a2.58 2.58 0 0 1 .08-1.11c.15-.32.4-.29.59 0a2.23 2.23 0 0 1 .16.43 1.91 1.91 0 0 0 .36.53 2 2 0 0 1 .51.75c.26.72.81 1.24 1.1 1.94s-.08 2.74-1.11 1.68z" fill="#646464"/><path d="m226.63 64.47a3.52 3.52 0 0 0 -2.47-1.71c-.23 0-.51-.23-.63.06s.22.3.39.41a4.68 4.68 0 0 0 1 .48c.37.13.66.41.41.88a4.2 4.2 0 0 1 -.83.91 3.88 3.88 0 0 0 -.95 1 2.18 2.18 0 0 1 -1.2.89c-.36.12-.33.31-.39.53a2.4 2.4 0 0 1 -.46.44c-.55.47-1 1-1.59 1.47l-.33.38a4.62 4.62 0 0 0 -.91.8c-.18 0-.28-.08-.4-.18-.3-.24-.67-.19-.72.17s-.33.39-.51.56a2.63 2.63 0 0 0 -.54 1.44 5.3 5.3 0 0 1 -.64 1.67c-.45.81-1.17 1.43-1.62 2.24a2.71 2.71 0 0 1 -1.16 1.3c-.47-.07-.19-.3-.07-.43s.46-.47.22-.77a3.44 3.44 0 0 1 -.59-1.29c-.07-.22-.17-.43-.44-.39s-.23.3-.27.51c-.16.91 0 1.87-.52 2.71a.93.93 0 0 0 -.1.58c.06.51-.21 1-.09 1.5 0 .15-.1.22-.21.26a2.07 2.07 0 0 0 -1 1 5.49 5.49 0 0 1 -.92 1.27 1.58 1.58 0 0 0 -.29.58 2 2 0 0 1 -.77 1.17 1.59 1.59 0 0 0 -.86 1.11c-.14.44-.09.69.11.82a1.05 1.05 0 0 0 -1 .42 22.18 22.18 0 0 1 -4 5c.1-.47.27-.77.36-1.09a1.41 1.41 0 0 1 1-1.13 1.09 1.09 0 0 0 .57-.42 12.88 12.88 0 0 0 1.68-2.62 4.74 4.74 0 0 0 0-3 2.58 2.58 0 0 0 -.54-1c-.31-.46-.85-.51-1.06-.08a7.22 7.22 0 0 0 -1 2.38 3.13 3.13 0 0 1 -.5 1.25 4.66 4.66 0 0 0 -.28.6 17.17 17.17 0 0 1 -1.55 3.27 2.58 2.58 0 0 0 -.4 1.43 1.93 1.93 0 0 1 -.11.86 2.07 2.07 0 0 0 -.2 1 2 2 0 0 1 -.59 1.51 2.43 2.43 0 0 0 -1 1.42 2.34 2.34 0 0 1 -.51 1c-.33.47-.91.78-.94 1.47a.49.49 0 0 1 -.54.42c-.35 0-.26-.35-.32-.56a1.29 1.29 0 0 1 0-.39c0-.26 0-.52 0-.77a1.05 1.05 0 0 0 0-.7c-.06-.12-.14-.2-.28-.17s-.25.12-.21.23c.13.37 0 .58-.3.79s-.07.25 0 .37a3.49 3.49 0 0 0 -.24 2c.08.19.15.37 0 .53a2.78 2.78 0 0 0 -.59 2 4.51 4.51 0 0 1 .22 1.08c0 .2 0 .39.24.42s.22-.22.29-.36a4 4 0 0 0 0-.84c-.08-.34 0-.64.45-.61.24 0 .53 0 .62-.28.34-.91 1.56-1.17 1.65-2.26 0-.09.14-.13.22-.2a6.41 6.41 0 0 0 1.23-1.64 2.24 2.24 0 0 1 .47-.68c.45-.38 1-.67 1.19-1.31a.78.78 0 0 1 .56-.46.6.6 0 0 0 .31-.15c.56-.65 1.14-1.27 1.66-2s.92-.8 1.42.12c.06.11.09.22.15.33.18.37.45.5.82.25a3.38 3.38 0 0 0 1.8-.79 2.82 2.82 0 0 0 .29-.18.73.73 0 0 0 -.56-1.07 1.77 1.77 0 0 0 -1.24.3c-.18.1-.42.24-.61.06a.5.5 0 0 1 0-.66 9.51 9.51 0 0 0 .89-1.12 12.72 12.72 0 0 1 2.06-3 1 1 0 0 0 .2-.43 2.56 2.56 0 0 1 .68-1.11 8.69 8.69 0 0 0 1-1.36 9.11 9.11 0 0 1 2.07-2.39 4.52 4.52 0 0 0 1-1.11 11.36 11.36 0 0 1 1.7-2.08 3.7 3.7 0 0 1 1.35-.89c.25-.1.5-.17.67.14a2.72 2.72 0 0 1 -.29 1.48 1 1 0 0 0 .21 1.18.52.52 0 0 0 .85-.14 6 6 0 0 0 .7-1.93l.51-.58c.11-.32.5-.66-.09-.91a2.76 2.76 0 0 1 -.39-.18 1.38 1.38 0 0 1 -.39-.09c-.27-.23-.67-.47-.62-.82a3.19 3.19 0 0 1 .59-1.39 8.87 8.87 0 0 0 .76-1 11 11 0 0 1 1.63-2.2.28.28 0 0 0 0 .13c.22.61.27.61.74.19.14-.12.3-.36.55-.14.44.4.8.31 1.11-.17a.67.67 0 0 1 .3-.19c.47-.19.76-.71 1.34-.68 1 .13 1 .12.88-.66a.41.41 0 0 1 0-.11c-.29-.48-.61-.93-1.27-.91-.3 0-.25-.17-.15-.36a4.89 4.89 0 0 1 .93-1.14 2.7 2.7 0 0 0 .85-1.44 4 4 0 0 0 .24-.84 1.87 1.87 0 0 0 .11-1.21zm-5.33 7.26a1 1 0 0 1 .22-.2 1.9 1.9 0 0 0 -.22.2zm2.5-1a.13.13 0 0 1 -.13-.12.46.46 0 0 1 .27-.43.09.09 0 0 1 .07 0s0 0 0 0h.06c.07 0 .16.06.14.14a.59.59 0 0 1 -.41.46z" fill="#606060"/><path d="m193.89 104.67c-.53.46-.38 1.11-.46 1.69-.11.84-.14 1.7-.22 2.56a13.49 13.49 0 0 0 .1 2.19c.09 1.07.08 2.15.15 3.22a1 1 0 0 0 .23.54c.17.21.59.33.47.63-.22.55-.14 1.21-.57 1.68-.28.31-.58.16-.89.07-.15-.07-.31-.17-.26-.35.18-.76 0-1.55.22-2.29a2.13 2.13 0 0 0 -.06-1.23 1.45 1.45 0 0 1 0-.94 1.48 1.48 0 0 0 -.16-1.19 1.87 1.87 0 0 1 -.17-1 11.55 11.55 0 0 0 -.16-2.55 6.62 6.62 0 0 1 .12-1.75.89.89 0 0 0 -.16-.73 5.92 5.92 0 0 1 -.7-1.61c-.11-.22.08-.48 0-.7a10.07 10.07 0 0 0 -.61-2.49c-.35-.77-.91-1.4-1.23-2.18-.22-.51-.87-.61-1.31-.91a9.75 9.75 0 0 1 -1.93-1.33c.09-.41.43-.54 1-.43a6.8 6.8 0 0 0 1.25.39c-.83-1.22-1.71-2.34-2.48-3.53a27.37 27.37 0 0 1 -3-2.75c0-.28 0-.6.29-.78a.43.43 0 0 1 .58.09c.3.28.58.58.86.88s.32.5.67.36c.14-.27-.15-.46-.24-.58a16.14 16.14 0 0 0 -1-1.72c-.17-.18-.35-.43 0-.67a.47.47 0 0 1 .17 0c.31-.06.39.19.53.38.34.43.45 1 .92 1.38a6 6 0 0 0 -.5-1.65 9.1 9.1 0 0 1 -.74-2.76 5.85 5.85 0 0 0 -.79-3 7.16 7.16 0 0 1 -.64-1.66 9 9 0 0 0 -.81-1.72 14.25 14.25 0 0 1 -1.18-2.38.15.15 0 0 0 -.18-.11.26.26 0 0 0 -.22.23 2.88 2.88 0 0 0 0 1.24 2 2 0 0 1 0 1.38c-.32.15-.43 0-.51-.3a2 2 0 0 0 -.46-.83.69.69 0 0 1 -.58.55 1.36 1.36 0 0 1 -.87 0 1.39 1.39 0 0 1 -.56-1.53c.34-.17.52 0 .68.28.06.1.15.21.29.16s.14-.19.13-.31a3.37 3.37 0 0 0 -.29-1 2 2 0 0 1 -.24-1.59c.38-.19.25-.44.11-.71a13 13 0 0 1 -.5-1.22.55.55 0 0 1 .15-.74c.49-.15.56.26.61.53a3.68 3.68 0 0 0 .31.86.75.75 0 0 0 .94.52.68.68 0 0 1 .8.39 9.91 9.91 0 0 0 1.14 1.35 6.37 6.37 0 0 1 1.37 2.61 1.1 1.1 0 0 0 .38.56.82.82 0 0 1 .29.39 8.89 8.89 0 0 0 .94 2.34c.5.86.67 1.84 1.23 2.69a33.1 33.1 0 0 1 1.75 3.08 8.32 8.32 0 0 0 1.11 1.84 9.48 9.48 0 0 1 1 2.22c.07.31.25.58.31.89s.07.38-.11.5-.33 0-.46-.13c-.37-.27-.5-.72-.78-1a19.54 19.54 0 0 0 -1.55-2.88c.45 1.54.65 3.39 1.18 5.17a5.86 5.86 0 0 0 .79 1.79 7.66 7.66 0 0 1 .68 1.26 5 5 0 0 0 1.29 1.88c.22.18.16.69.13 1.06 0 .63.46 1 .79 1.48a.26.26 0 0 0 .43 0c.15-.2.41-.37.26-.68a2.08 2.08 0 0 1 -.13-1.45 2.41 2.41 0 0 0 0-1c-.07-.36-.09-.73.4-.85s.62.19.62.6v3.1a5.09 5.09 0 0 0 .2 1.69c-.21.84-.05 1.67-.16 2.51z" fill="#636363"/><path d="m76 24a.59.59 0 0 1 .11.57l-.08.14a2.92 2.92 0 0 0 -.14.74 4.39 4.39 0 0 0 1.96-.45c.67-.25 1.41-.39 2.11-.59a2.71 2.71 0 0 0 1.1-.44.56.56 0 0 1 .5-.14 2.66 2.66 0 0 0 1.34-.15 9.29 9.29 0 0 1 1.58-.25 4.82 4.82 0 0 0 2.34-1 1.74 1.74 0 0 1 .74-.35c.11 0 .24 0 .28-.1.48-.9 1.45-1.09 2.22-1.58a1.81 1.81 0 0 0 .91-.23.92.92 0 0 1 .39-.14 29.19 29.19 0 0 1 3.75-.33 20.15 20.15 0 0 0 2.2 0 1 1 0 0 0 .51-.14 5.4 5.4 0 0 1 1.62-.92 21.13 21.13 0 0 0 2-1c.25-.11.5-.1.74-.19a.53.53 0 0 1 .76.35c.1.35.14.75-.32.9a11.64 11.64 0 0 0 -1.14.51 6.87 6.87 0 0 0 -1.31.8 19.14 19.14 0 0 1 -2.17 1.23 3.21 3.21 0 0 1 -2.06.31 11.13 11.13 0 0 0 -4.94.09 5.52 5.52 0 0 0 -1.64 1 11.31 11.31 0 0 1 -3.79 2.07 4.65 4.65 0 0 1 -.83.07 1.28 1.28 0 0 0 -.74.22 3.7 3.7 0 0 0 -1.26.35c-.95.44-2 .31-3 .74a11.84 11.84 0 0 1 -2.22.75 12.16 12.16 0 0 1 -3 .56.67.67 0 0 1 -.4-.07c-.84-.61-1.72-.25-2.58-.09a24.84 24.84 0 0 1 -5.65.15c-.84-.08-1.68-.19-2.54-.19a18.62 18.62 0 0 0 -4 .86 6.9 6.9 0 0 1 -1.9.38c-.2 0-.38-.07-.38-.29s.13-.3.32-.41a3.2 3.2 0 0 1 1.6-.52.93.93 0 0 0 .7-.3 6.36 6.36 0 0 1 2.73-.71 5.2 5.2 0 0 0 1.23-.21 9.08 9.08 0 0 1 2.5.16 9.12 9.12 0 0 0 1.17 0 24.1 24.1 0 0 0 2.55 0 1 1 0 0 1 .84-.2.44.44 0 0 0 .35-.07c.69-.49 1.59-.59 2.26-1.06s1.34-.47 1.87-1c.32-.31.66-.25.81.17z" fill="#606060"/><path d="m201.18 11.3a2.37 2.37 0 0 0 -1.12 1.11 2.27 2.27 0 0 1 -1.75 1.19 33.48 33.48 0 0 0 -4.79.8 7.61 7.61 0 0 1 -1.72.07c-1.65.11-3.28.36-4.92.46-1 .07-2.09.06-3.09.2-.72.11-1.61-.11-2.22.55a2.2 2.2 0 0 1 -1.16-.31.25.25 0 0 1 .1-.31 1.42 1.42 0 0 1 .64-.31 10 10 0 0 1 2.85-.25 29.19 29.19 0 0 0 4.67-.25l1.73-.19a6.14 6.14 0 0 0 2.74-1 2.8 2.8 0 0 1 2-.31 2.58 2.58 0 0 0 2.48-.81 8.48 8.48 0 0 1 2.64-1.61 39.32 39.32 0 0 0 3.74-2.13 19 19 0 0 1 6.42-3.11 28.19 28.19 0 0 0 3-.66 20 20 0 0 0 3.5-1.65c1-.52 2-.92 3-1.46.17-.09.4-.34.57-.06s-.12.4-.19.48a.69.69 0 0 1 .89-.2c.22.09.36.18.25.44a5.89 5.89 0 0 1 -1.65.81c-.32.07-.37.42-.65.58-1.12.65-2.32 1.14-3.38 1.9a1.15 1.15 0 0 1 -.52.14 3.56 3.56 0 0 0 -1.5.5c-.38.29-.87.15-1.31.13a.77.77 0 0 0 -.71.22c-.23.26-.58.28-.83.42-.71.38-1.5.26-2.21.64a10.85 10.85 0 0 0 -2.5 1.68 1 1 0 0 1 -.74.29 2.72 2.72 0 0 0 -1.56.67 18.86 18.86 0 0 1 -2.37 1.1 1.12 1.12 0 0 0 -.33.24z" fill="#636363"/><path d="m218.48 16.71a4.33 4.33 0 0 1 -2.37 1.05 25.62 25.62 0 0 0 -6.11 2.24 11.91 11.91 0 0 1 -2.6 1 3.51 3.51 0 0 0 -2.31 2.39 13 13 0 0 1 -1.09 2.44 1.57 1.57 0 0 1 -.3.37 3.9 3.9 0 0 0 -1.31 2.7 49 49 0 0 0 -.6 6c-.17.72 0 1.45-.12 2.28-.32-.37-.74-.57-.45-1.08 0 0 0-.08 0-.11-.43-1.3 0-2.64-.13-4a1.1 1.1 0 0 0 -.19-.61c0-.13-.11-.28-.07-.4.39-1.18.44-2.46.92-3.62a.54.54 0 0 0 -.16-.64 1.15 1.15 0 0 1 -.19-1.05 8.16 8.16 0 0 1 1.86-3.89 2.39 2.39 0 0 1 .85-.73 2.94 2.94 0 0 1 1.25-.48 6.78 6.78 0 0 0 2.18-.89 17.38 17.38 0 0 1 3.06-1.43c1.17-.41 2.4-.67 3.58-1 .78-.25 1.57-.53 2.37-.75a12.36 12.36 0 0 0 1.87-.7 23.6 23.6 0 0 1 2.34-.6.8.8 0 0 1 .46 0c.33.09.4.3.19.57a1.12 1.12 0 0 1 -.55.33 7.55 7.55 0 0 1 -2.38.61z" fill="#5f5f5f"/><path d="m194.73 64.47c-.1-.69.17-1.37.06-2.15-.34.28-.32.61-.41.9 0 .13 0 .29-.23.31s-.22-.14-.27-.27c.13.05.33.18.33 0 0-.62.51-1.15.28-1.8a.28.28 0 0 1 0-.18 4.9 4.9 0 0 0 .14-2.63 6.11 6.11 0 0 1 .09-2 .28.28 0 0 0 0-.18c-.61-1.47-.22-3-.15-4.46a7.74 7.74 0 0 1 .24-1.58 10.75 10.75 0 0 0 -.07-1.59c.12-1.69.17-3.38.24-5.08a2.53 2.53 0 0 0 -.08-.77c-.23-.73.09-1.45 0-2.17-.16-1.5 0-3-.24-4.5 0-.12 0-.26 0-.35.52-1.16 0-2.27-.18-3.39-.24-.83-.16-1.7-.4-2.53.21-.27.05-.56.07-.84s-.18-.6.28-.65c.35.45.18 1 .31 1.51a25.52 25.52 0 0 0 .6 3c.07.41 0 .82.06 1.23 0 .16-.07.42.2.4s.12-.23.12-.39-.16-.7.15-.72.22.42.25.67a35.58 35.58 0 0 1 -.2 4.5c0 1-.19 2.06-.16 3.09 0 .2.06.4-.06.58-.15 2.41-.32 4.82-.35 7.24 0 2-.18 4-.19 6 0 1.4.1 2.79 0 4.19a30.77 30.77 0 0 1 -.43 4.61z" fill="#7c7c7c"/><path d="m218.48 16.71c.22-.09.45-.26.66-.24a4.49 4.49 0 0 0 1.86-.47c.14 0 .35-.1.28-.3s-.27-.17-.42-.12c-.78.29-1.63 0-2.41.31.89-.37 1.79-.68 2.65-1.1a28.87 28.87 0 0 1 3.38-1.2c2-.71 3.94-1.39 6-2a10 10 0 0 1 3.64-.48 5.52 5.52 0 0 1 1.85.45 1 1 0 0 1 .63.75.55.55 0 0 1 -.19.64c-.24.15-.39-.05-.59-.13-1-.41-2-.94-3.17-.45a18.94 18.94 0 0 1 -2.92.75 10.29 10.29 0 0 0 -2.6 1 1.18 1.18 0 0 1 -.42.21c-1.66.14-3.12 1-4.72 1.35-.62.14-1.09.63-1.73.76a4.06 4.06 0 0 1 -1.78.27z" fill="#686868"/><path d="m196.16 98.67c-.07-.5.12-1-.07-1.51 0 .49-.43.73-.53 1.14-.1-.07-.22-.22-.15-.29.5-.54.19-1.15.15-1.71a6.94 6.94 0 0 1 0-1.58 6.08 6.08 0 0 0 .13-2c-.06-.33.51-.54.32-1-.52-1.33-.08-2.72-.24-4.08a.84.84 0 0 1 .27-.81c.23-.19.16-.44.07-.66a1.59 1.59 0 0 1 0-1.38 2.74 2.74 0 0 0 .06-1.18c0-1 .51-1.85.48-2.79a19.06 19.06 0 0 1 .91-4.86 7.61 7.61 0 0 0 .25-2 12.5 12.5 0 0 1 .27-2.17 8.44 8.44 0 0 1 .51-2.37.81.81 0 0 0 0-.59 2.67 2.67 0 0 1 .21-2.7c0 .18 0 .4-.06.53a2.25 2.25 0 0 0 0 2 2 2 0 0 1 0 1c0 .09-.05.23.08.24s.15-.12.22-.19a5.9 5.9 0 0 1 -.12 2.29.75.75 0 0 1 0 .2c-.28 1-.21 2.07-.41 3.09-.11.65-.19 1.3-.27 2s-.26 1.37-.4 2a4 4 0 0 0 -.12.52 2.55 2.55 0 0 1 -.28 1.23 1.21 1.21 0 0 0 0 .74 2.13 2.13 0 0 1 -.26 1c-.16 1.48-.45 3-.49 4.44v2.85s.11 2.08.17 3.12a11 11 0 0 1 -.17 2.15c-.16.95-.06 1.89-.21 2.83-.11.23.02.49-.32.5z" fill="#7c7c7c"/><path d="m194 102.14a2.88 2.88 0 0 1 -.29-1.73c0-.94 0-1.87 0-2.81 0-.37-.08-.7-.58-.61-.25-.07-.3-.21-.18-.43.6-.46.44-1.17.58-1.69-.18.51.08 1.28-.65 1.68-.17 0-.29-.17-.23-.35.18-.47 0-1 .29-1.47.15-.24 0-.58 0-.88 0-.06-.09-.15-.06-.22a9.85 9.85 0 0 0 .3-3c0-.51.12-1 .18-1.51a21.43 21.43 0 0 0 -.07-2.66 3.93 3.93 0 0 1 .47-2.31.51.51 0 0 0 .07-.4 13.33 13.33 0 0 1 -.26-2.95 13.51 13.51 0 0 1 0-3.36 10.35 10.35 0 0 0 -.15-3 5.9 5.9 0 0 1 .33-1.55c0-.06.13-.13.11-.2-.23-.87 0-1.75-.16-2.65a8 8 0 0 1 -.13-2.19c0-.19 0-.37.23-.44a.31.31 0 0 1 .19.06 2.7 2.7 0 0 0 .36 1.71c.29-.9-.09-1.77.28-2.54 0 .72-.06 1.44 0 2.16a30.11 30.11 0 0 1 -.16 5.2 37.87 37.87 0 0 0 0 6.21c.12 2.06 0 4.11-.07 6.16-.08 1.83-.17 3.67-.38 5.49-.33 2.87-.08 5.75-.16 8.62a15.63 15.63 0 0 0 .14 1.66z" fill="#7f7f7f"/><path d="m201 31.46a1.13 1.13 0 0 1 .27 1.06c-.09.93 0 1.88 0 2.81a2.49 2.49 0 0 0 .39 1.66c.24-.75-.06-1.43.24-2.05.05 2.12-.26 4.22-.32 6.34s-.31 4.25-.43 6.38c-.14 2.49-.37 5-.61 7.46-.27 2.68-.68 5.34-.8 8v1.2c.58-.36.73-1 1.19-1.23a5.63 5.63 0 0 1 -.81 1.24.29.29 0 0 1 -.35.15c-.19-.07-.21-.22-.2-.39a2.38 2.38 0 0 0 -.17-1.09 5.2 5.2 0 0 0 -.37 2.31 3.38 3.38 0 0 1 -.03-1.51 7.37 7.37 0 0 0 .17-2.52.45.45 0 0 1 .1-.45 1.26 1.26 0 0 0 .21-1.13 3.22 3.22 0 0 1 .17-1.55c.23-1.06.08-2.14.27-3.21a14 14 0 0 0 .3-2.75c-.06-1.42.34-2.83.2-4.26a1 1 0 0 1 0-.3c.51-1.94.26-3.93.36-5.89.05-.89.1-1.78.23-2.67a11.24 11.24 0 0 0 .08-3.38 16.48 16.48 0 0 1 0-3 4.05 4.05 0 0 0 -.09-1.23z" fill="#838383"/><path d="m221.36 1.93a.93.93 0 0 0 -1 .05 2.59 2.59 0 0 1 -1 .15c.26-.28.66-.38.85-.87a32 32 0 0 1 -3.37 1.52 5.73 5.73 0 0 1 1.57-.86 8.86 8.86 0 0 0 1.59-.77 8.81 8.81 0 0 1 5.89-1.08 9.78 9.78 0 0 0 1.79.06 31.86 31.86 0 0 1 5.26.12 5.64 5.64 0 0 1 .82.15.37.37 0 0 1 .34.3c0 .22-.15.34-.32.39a2.64 2.64 0 0 1 -1.62-.09c-.5-.16-1-.53-1.56-.07a4.76 4.76 0 0 1 -2.59.14 1.6 1.6 0 0 0 -.67-.09c-1.23.21-2.44-.19-3.66-.09a1.5 1.5 0 0 0 -1.18.52 1.25 1.25 0 0 1 -1.14.52z" fill="#747474"/><path d="m210.64 54.4c-.21.23-.54.43-.78.3a.19.19 0 0 1 -.1-.12 8.37 8.37 0 0 1 -.84 1.73 4 4 0 0 1 -1.18 1.28l-.34.22a3.28 3.28 0 0 1 -1.49.8.12.12 0 0 1 -.14-.17h-.37a1.87 1.87 0 0 0 -.61.95.6.6 0 0 1 .59.34.45.45 0 0 0 .62.27c.58-.28 1.24-.32 1.8-.62a3.63 3.63 0 0 0 1.61-1.45c.6-1.08.75-2.35 1.44-3.39a.27.27 0 0 0 0-.35z" fill="#8e8e8e"/><path d="m195.32 100.34c.17.3.25.51-.15.77s-.31.84-.39 1.28a4.15 4.15 0 0 0 .22 1.61c.06.31.21.06.32 0a2.32 2.32 0 0 1 .09 1.38 39.61 39.61 0 0 0 -.4 6 .33.33 0 0 0 .06.22 18.45 18.45 0 0 0 -.49 3.21c-.47.16-.63-.08-.61-.5a3.52 3.52 0 0 1 .1-.65 4.68 4.68 0 0 0 .1-1.71c-.11-.77.37-1.47.35-2.27 0-1.18.21-2.35.1-3.53a1.73 1.73 0 0 1 .11-.94 2.16 2.16 0 0 0 0-1.56 3.5 3.5 0 0 1 -.06-1.76c.12-.43.06-.92.56-1.17.08-.12.07-.28.09-.38z" fill="#828282"/><path d="m218.48 15.85a7.17 7.17 0 0 1 -2.68 1c-2.6.81-5.29 1.36-7.71 2.7-.22.12-.5.18-.54.5 0 .14-.1.17-.24.2a24.74 24.74 0 0 0 -3.14.86 1.14 1.14 0 0 1 .69-.45 10.27 10.27 0 0 0 3.14-1.23 24.69 24.69 0 0 1 5-1.92c1.68-.46 3.34-1 5-1.54.17-.05.33-.08.48-.12z" fill="#686868"/><path d="m193.89 104.67a6.34 6.34 0 0 1 .12-2.53 8.93 8.93 0 0 1 -.12 2.53z" fill="#7f7f7f"/><path d="m49.17 75a14.16 14.16 0 0 1 -.05 2.91 5.67 5.67 0 0 0 0 1.54 38.36 38.36 0 0 1 .11 6.34 45.86 45.86 0 0 0 .21 6.09 6.3 6.3 0 0 1 0 1.68 4.1 4.1 0 0 0 .28 2.56s0 .08 0 .11c-.38 1.29-.06 2.65-.39 4a.32.32 0 0 1 -.24.26c0-.62 0-1.23 0-1.82.11-1-.08-2-.06-2.93a22.19 22.19 0 0 0 0-3.46c-.17-1.26.14-2.55-.26-3.79a28.3 28.3 0 0 0 0-4.22c0-1 0-2 .05-3.07a12.1 12.1 0 0 0 -.13-2.48 8.31 8.31 0 0 1 0-2.49c.12-.84-.25-1.67.05-2.5.42-.06.28.24.25.43s-.1.59.18.84z" fill="#b2b2b2"/><path d="m41.72 58.34a2.82 2.82 0 0 1 1.94-1.72 2.36 2.36 0 0 1 .65 0c.1 0 .21.07.19.19a.25.25 0 0 1 -.14.16c-.68.09-.92.66-1.23 1.14-.22.33-.4.68-.61 1a1.28 1.28 0 0 0 .57 1.89 15 15 0 0 1 1.63.87c.1.1.35.18.23.34s-.39.1-.6 0c-.46-.15-.92-.34-1.4-.46a3.11 3.11 0 0 0 -1.45.1c-.22 0-.52.25-.53-.22a.84.84 0 0 1 .53-.26c.13 0 .3 0 .31-.2s-.15-.21-.26-.29c-.32-.23-.68-.4-1-.65-.09-.29 0-.41.31-.35.57.12.6.12.56-.46a1.79 1.79 0 0 1 .3-1.08z" fill="#626262"/><path d="m18 84.76c-.26-.24-.39-.81-.84-.58s-.17.72 0 1a29.32 29.32 0 0 0 1.47 3.82 2.65 2.65 0 0 1 .32 1.2c0 .18.1.39 0 .52s-.32-.08-.48-.13a3.42 3.42 0 0 1 -.34-.13 1.12 1.12 0 0 0 -.31-1c-.52-.58-.41-1.4-.77-2.06-.17-.32-.46-.67-.13-1.1.12-.16-.11-.32-.22-.45a2.47 2.47 0 0 1 -.07-2.85.78.78 0 0 1 1-.33v.22c-.2.36-.72.43-.77.86a1 1 0 0 1 1.36.55c.02.26-.04.41-.22.46z" fill="#7e7e7e"/><path d="m41.12 61.58c0 .26.22.22.38.25a6.28 6.28 0 0 0 -3.3 2.17c-.12.13-.28.27-.21.47s.29.23.5.25a3.22 3.22 0 0 0 3.15-1.6 1.22 1.22 0 0 1 .24-.34.47.47 0 0 1 .56-.1c.19.12.13.32.09.49a2.36 2.36 0 0 1 -1.9 1.79 6.34 6.34 0 0 1 -2.78.11c-.93-.21-1-.32-.44-1.14a8.82 8.82 0 0 1 3.12-2.17c.19-.1.35-.32.59-.18z" fill="#747474"/><path d="m34.05 60.39c.13 0 .27-.14.37 0s0 .18-.05.27a3.58 3.58 0 0 1 -4.29 1.51 2.9 2.9 0 0 1 .55-3.2c.28-.19.62-.31.9-.52a4.56 4.56 0 0 1 1.47-.53c.13 0 .29-.1.34.1s-.12.16-.23.22a7.47 7.47 0 0 0 -1.5.8 1.77 1.77 0 0 0 -.54 2.32c.32.6.55.66 1.13.32a17.88 17.88 0 0 0 1.85-1.29z" fill="#737373"/><path d="m44.35 62.19c.19-.06.6.1.37-.37a12.91 12.91 0 0 1 3.46 1.43c.56.4.24-.39.48-.48s.25-.28.32 0c0 .15 0 .32.06.46a10.38 10.38 0 0 0 0 2 1 1 0 0 1 -.13.63.18.18 0 0 1 -.17.06c-.23-.28-.13-.61-.1-.9a1.25 1.25 0 0 0 -.64-1.27l-.37-.24a11.33 11.33 0 0 1 -1.91-.72z" fill="#838383"/><path d="m49.17 75c0 .08 0 .19-.06.22s-.14 0-.18-.12c-.2-.46.07-1-.12-1.42-.21-.41.05-.8.07-1.21 0-.87-.18-1.72-.12-2.59 0-.13 0-.27 0-.4 0-.4-.21-.8 0-1.19.27-.14.28 0 .29.23a2.63 2.63 0 0 0 .06.84c.22.92-.11 1.86.12 2.77a25 25 0 0 1 -.06 2.87z" fill="#9c9c9c"/><path d="m37.89 58.7v-.12c0-.18.29-.18.35-.34.86.33 1.51 1 2.35 1.4.66.29.67.32.75-.38a1.34 1.34 0 0 1 .38-.92 3.77 3.77 0 0 0 -.2 1.16c0 .33-.13.54-.5.5-.18 0-.31 0-.37.2s0 .12-.13.06c-.92-.44-1.62-1.26-2.63-1.56z" fill="#878787"/><path d="m48.8 65.91h.11a2.13 2.13 0 0 1 .14.83 2.42 2.42 0 0 1 0 .93c0 .3-.19.29-.4.16 0-.52-.27-1 0-1.56.17-.09.01-.27.15-.36z" fill="#9c9c9c"/><path d="m48.8 69.5a20.33 20.33 0 0 1 0 4.2s0 0 0 0a35.91 35.91 0 0 1 0-4.2z" fill="#b2b2b2"/><path d="m48.69 67.82c.56-.22.27-.72.36-1.09a14.7 14.7 0 0 1 .11 2.65c-.22-.32 0-.8-.35-1.07z" fill="#a3a3a3"/><path d="m38.24 58.24c.08.31-.13.33-.35.34-.66-.48-1.32-.9-2.17-.45a.56.56 0 0 1 -.63 0c-.36-.31-.85 0-1.24-.31.16-.3 1.07 0 .56-.79a6.64 6.64 0 0 0 -1.76-1 1.28 1.28 0 0 1 -.53-.33c-.47 0-.68-.46-1-.69-.11-.07-.2-.16-.12-.3s.2-.1.31 0a7.25 7.25 0 0 1 1.09.61c.54.26 1.09.51 1.62.78.35.19.54.21.57-.28a3.76 3.76 0 0 1 1.75-2.78 1.89 1.89 0 0 1 1.15-.21c0 .31-.22.35-.36.46a4.06 4.06 0 0 0 -1.56 3.16c0 .37.21.53.49.67a17.49 17.49 0 0 1 2.18 1.12z" fill="#656565"/><path d="m16.62 47.91c-.71-.16-1.14-.76-1.78-1.07a25.12 25.12 0 0 1 -3-1.42 3.42 3.42 0 0 1 -.4-.26c-.15-.13-.34-.29-.19-.5s.33-.09.48 0c1.83 1.1 3.93 1.67 5.67 2.93a17.62 17.62 0 0 0 4.51 2.41 2.17 2.17 0 0 1 .49.32 3.35 3.35 0 0 1 .72.39c.12.1.28.17.25.36s-.24.22-.42.22a.87.87 0 0 1 -.57-.14c-1-.67-2.13-.94-3.14-1.51-.11 0-.21-.17-.32-.13-.56.24-.93-.17-1.36-.37-.1-.12-.31-.21-.28-.35.11-.59-.28-.69-.66-.88z" fill="#656565"/><path d="m21.7 54.63.59-.35c.57-.55 1.39-.41 2-.73a10.09 10.09 0 0 1 1.22-.23.18.18 0 0 1 .23.13c0 .11-.05.17-.15.2a14.64 14.64 0 0 1 -2 .61 1.59 1.59 0 0 0 -.61.45c-.59.35-.68.57-.6 1.13a.58.58 0 0 0 .64.56 3.72 3.72 0 0 0 3.1-1.53.61.61 0 0 1 .23-.27c.21-.12.44-.26.64 0a.45.45 0 0 1 -.08.61c-.7.77-1.39 1.58-2.59 1.54-.45 0-.84.3-1.32.33a6.54 6.54 0 0 1 -1.53-.08c-.67-.1-.91-1.17-.4-1.77a2.09 2.09 0 0 1 .63-.6z" fill="#6b6b6b"/><path d="m16.62 47.91c.61.11 1.1.33 1 1.1a7.71 7.71 0 0 0 -1.86.16 2.91 2.91 0 0 0 -1.74 1 .72.72 0 0 0 -.02.83 2.51 2.51 0 0 0 2.64-.3c.22-.16.5-.57.74-.27s-.18.63-.42.78a3.46 3.46 0 0 1 -2.22.58c-.45 0-.92 0-1.37-.08a.89.89 0 0 1 -.88-.6 1 1 0 0 1 .45-1.09 8.23 8.23 0 0 1 3.54-1.52c.17 0 .42 0 .48-.19s-.26-.23-.34-.4z" fill="#747474"/><path d="m22.87 51.15c.34-.09.3-.26.09-.44a5.84 5.84 0 0 0 -.56-.42 34.46 34.46 0 0 1 4 1.75c1.75.85 3.48 1.75 5.22 2.63a2.23 2.23 0 0 1 .78.54c-.42-.07-.72-.47-1.21-.47a2.2 2.2 0 0 0 .94.9 1.32 1.32 0 0 1 -.83-.41c-.49-.51-1.25-.57-1.83-.95-.15-.1-.32-.17-.47-.25-.53-.28-1.12-.39-1.67-.62-.32 0-.46-.24-.61-.46l-3.12-1.44c-.2-.21-.6-.02-.73-.36z" fill="#747474"/><path d="m19.06 44.42a4.25 4.25 0 0 0 -.78-2.64c-.15-.25-.29-.52-.42-.78s-.14-.26 0-.39a.33.33 0 0 1 .39 0 1.1 1.1 0 0 1 .36.21 4.4 4.4 0 0 1 1.59 3.18c0 .6-.43 1-.65 1.53a4 4 0 0 1 -.61.88.35.35 0 0 1 -.48.1c-.17-.13 0-.28.05-.42.17-.63.63-1.09.55-1.67z" fill="#707070"/><path d="m32 48.32a3.6 3.6 0 0 1 -1.58 2.61c-.27.11-.4 0-.35-.27a1.26 1.26 0 0 1 .15-.45 3.67 3.67 0 0 0 .53-2 1.39 1.39 0 0 0 -1.53-1.59c-.16 0-.43.15-.45-.1s.29-.18.47-.21a3 3 0 0 1 2 .26c.76.43.67 1.15.76 1.75z" fill="#696969"/><path d="m29.9 52.25a2 2 0 0 1 -2.27-.66 3 3 0 0 1 -.84-1.48 1.4 1.4 0 0 1 .37-1.48c.33-.29.52-.72.91-1a1.16 1.16 0 0 1 .62-.22.37.37 0 0 1 .26.08c.09.09 0 .18-.08.25a2.17 2.17 0 0 1 -.31.36c-1.13.89-.78 2 .06 3a3.64 3.64 0 0 0 1.28 1.15z" fill="#707070"/><path d="m40.07 53.83a2.63 2.63 0 0 1 -.58 1.84 5.67 5.67 0 0 1 -1 1.45c-.14.11-.29.28-.47.13s-.12-.34 0-.49a5.84 5.84 0 0 0 .75-3.39c0-.47.07-.92.68-.9s.64.5.66 1z" fill="#636363"/><path d="m49 63.26c-.13-.16 0-.48-.38-.49.13-1.36-.1-2.71-.07-4.05 0-1.89-.07-3.78 0-5.68a17.58 17.58 0 0 0 -.07-2.61v-.09a5.18 5.18 0 0 1 .25-1.34c.12-.42.29-.45.66-.13a1.38 1.38 0 0 0 -.46 1.29c0 2.17.11 4.34.1 6.5s.15 4.4-.03 6.6z" fill="#a3a3a3"/><path d="m17.27 41.71c-.35.89.09 1.75 0 2.61-.07.55-.13 1.1-.22 1.65 0 .19-.13.41-.38.39s-.35-.24-.35-.48c0-1.05 0-2.1 0-3.16-.08-.62.21-.97.95-1.01z" fill="#6e6e6e"/><path d="m45 59.76a5.62 5.62 0 0 1 .3-1.51 1.59 1.59 0 0 0 -.05-1.68.18.18 0 0 1 .09-.29c.31-.1.65-.26 1-.07a.69.69 0 0 1 .32.78 8.3 8.3 0 0 1 -.42 1.61c-.2.44-.37.88-.56 1.32a.37.37 0 0 1 -.46.28c-.22-.07-.22-.26-.22-.44z" fill="#6b6b6b"/><path d="m217.77 78.38c.31.67-.06 1.26-.25 1.85-.07.22-.43.36-.23.65a.66.66 0 0 0 .84.27 8 8 0 0 1 -2.55 2.79c-.47.28-1.08.63-.79 1.41 0 .08 0 .24-.11.33-1 1.31-1.94 2.62-2.93 3.93-.26.35-.55.67-.83 1-.62-.11-.67-.19-.45-.75 0-.07.06 0 0 0s0 0 0 0a2.65 2.65 0 0 1 -1.23 1.46c-.19.14-.39.19-.57 0a1.44 1.44 0 0 1 .63-1.32 16 16 0 0 0 2.34-2.53 1.45 1.45 0 0 1 .45-.44.43.43 0 0 1 -.13 0 1.15 1.15 0 0 1 -.55-2 11 11 0 0 0 3.13-2.43c.55-.49 1.06-1 1.61-1.5a3.78 3.78 0 0 0 1.2-2c.07-.23-.01-.62.42-.72z" fill="#909090"/><path d="m219.2 77.9h-.47c-.22-.22 0-.36.11-.48 1.07-.81 2-1.73 3.15-2.5.17-.12.38-.25.6-.09s.06.46-.15.63a.67.67 0 0 0 .91-.14 17.44 17.44 0 0 0 1.48-1.22.63.63 0 0 0 .21-.62.79.79 0 0 1 1-.43 3.5 3.5 0 0 1 -1.79 2.44c-1.13.71-2.32 1.32-3.39 2.14a.85.85 0 0 1 -.34.1 2.29 2.29 0 0 1 -1.32.17z" fill="#a0a0a0"/><path d="m208.76 91.22c.67-.23 1-.87 1.47-1.32a2.63 2.63 0 0 1 .8-.71c-.25.56-.6 1-.11 1.42a17 17 0 0 1 -2.53 2.63h-.23c-.07-.6-.38.11-.49-.07s-.08-.2 0-.28.16-.25 0-.37-.26 0-.38 0c-.28.15-.55.33-.84.45s-.77.27-1-.07-.44-.83 0-1.26a.44.44 0 0 1 .16.06.34.34 0 0 1 .09.15c.24.71.5.82 1.12.41a6.36 6.36 0 0 0 1.29-1c.13-.11.35-.33.65-.04z" fill="#7f7f7f"/><path d="m226 73.1c-.28.17-.38.64-.84.48a2.3 2.3 0 0 1 -1 1.14 6.34 6.34 0 0 1 -1.45 1c-.15.06-.26.15-.41 0-.18 0-.32.22-.59.19.1-.48.61-.58.81-.93-.15-.21-.08-.37.13-.49.42-.24.74-.61 1.15-.86a3.26 3.26 0 0 0 .93-.92 1.83 1.83 0 0 0 .19-2 .39.39 0 0 1 .49 0c.38.29.49.11.49-.28a3.06 3.06 0 0 1 .1 2.67z" fill="#919191"/><path d="m219.2 77.9c.22-.18.31-.75.77-.23.12.15.31-.08.47-.13s.2-.12.24 0-.1.15-.16.22c-.42.25-.61.81-1.18.86-.29-.18-.05-.48-.14-.72z" fill="#848484"/><path d="m226.28 66.5c.11-.68.23-1.35.35-2" fill="#b2b2b2"/><path d="m218.13 81.15.7-1.93a3.07 3.07 0 0 1 -.7 1.93z" fill="#909090"/><path d="m75 55.71a3.63 3.63 0 0 1 -.8-2.71 1.17 1.17 0 0 1 .8-1.17.39.39 0 0 1 .45.05c.13.15 0 .25-.07.37a3.12 3.12 0 0 0 .82 3.13c.42.26.72.07.94-.31a3 3 0 0 0 0-3.17 5.19 5.19 0 0 1 -.31-.5c-.16-.37-.39-.44-.71-.24s-.55.23-.67-.14.12-.51.42-.6a2 2 0 0 1 2.31.93 3.09 3.09 0 0 1 .41 2.85c-.1.26-.54.51-.31.76s.59-.1.89-.16l.29-.07c.23 0 .54-.26.58.22-.24.48-.77.46-1.16.7s-.63.19-.13.58c.26.2.16.55-.18.7s-.38.43-.13.74a7.32 7.32 0 0 0 .86.9 5.39 5.39 0 0 1 1 1.23c.16.81-.08 1.14-.91 1.23s-1.44.35-2-.27a9 9 0 0 1 -1.62-1.76 2.34 2.34 0 0 1 -.18-.69c0-.21 0-.43.26-.46s.27.17.34.34a3.86 3.86 0 0 0 1.51 2c.34.21.78.59 1.1.14s0-.82-.38-1.14c-.16-.14-.31-.31-.46-.47a14 14 0 0 0 -1-1.06l-.11-.12c-.4-.24-.77-.53-1.19-.73a.84.84 0 0 1 -.49-.1c-.29-.19-.56-.06-.83.05-.1 0-.2 0-.25-.07s0-.17.14-.21a4.23 4.23 0 0 0 .47-.25c.16-.14.45-.23.3-.52z" fill="#636363"/><path d="m72.92 93.84c-.06.44.25.19.36.17.49-.08 1-.25 1.4.19.06.06.25 0 .19.17-.33.59.3.95.32 1.45a2.75 2.75 0 0 1 -.57-.9c-.3-.85-.29-.85-1.15-.73a19 19 0 0 0 -4.24 1.21c-.61.24-1.21.54-1.81.8-.28.12-.18.26 0 .41a1.81 1.81 0 0 0 .86.38c.27.19.2.31-.07.4a2.17 2.17 0 0 1 -1.21-.18 2.79 2.79 0 0 0 -1.22 0 1.15 1.15 0 0 1 -.68-.1.9.9 0 0 0 -.7 0c-1.35.56-2.81.73-4.19 1.2a4.93 4.93 0 0 0 -1.36.53 2.29 2.29 0 0 1 -.28.07c-.2 0-.49.15-.58-.13s.23-.32.4-.43a21.19 21.19 0 0 1 4.14-1.45c.85-.19 1.66-.46 2.49-.7s.77-.4.62-1.12a7.15 7.15 0 0 1 0-3 7.39 7.39 0 0 0 .07 3.34c0 .15.08.3-.08.41s-.24-.06-.36-.12c-1.12-.55-.87-1.59-.85-2.5a9.07 9.07 0 0 0 .07-2.33c.08-.52.19-1 .88-1a1.41 1.41 0 0 1 1.48.88 4.79 4.79 0 0 1 .15 2.13 8.53 8.53 0 0 0 -.09 2c.08.63.23.77.8.54 1.56-.63 3.2-1 4.78-1.53.15-.02.29-.03.43-.06z" fill="#6d6d6d"/><path d="m68.1 97.24a.21.21 0 0 0 .14-.25 10.28 10.28 0 0 1 5.26 3.68 5.55 5.55 0 0 1 .86 1.37.89.89 0 0 0 1 .55c.17 0 .44 0 .43.18s-.29.21-.47.19a16.62 16.62 0 0 1 -6.56-2c-.13-.09-.32-.06-.43-.19-.75-.92-1.76-1.59-2.46-2.56l-.12-.25c-.27-.55-.16-.75.43-.76a1.38 1.38 0 0 1 1.19.62 3.92 3.92 0 0 0 .78 1c.58.57 1.21 1.09 1.8 1.65a5.76 5.76 0 0 0 2.53 1.17c.09 0 .21.07.26 0s0-.23-.13-.32a17.47 17.47 0 0 0 -2.37-2.34 7.09 7.09 0 0 0 -1.81-1c-.34-.22-.43-.45-.33-.74z" fill="#777"/><path d="m65.36 59.41c.78-.43 1.7-.47 2.5-.84a.64.64 0 0 1 .57 0c-.41.32-.43.52.1.74a10.2 10.2 0 0 1 1 .45 9 9 0 0 1 2.2 1.74 4.24 4.24 0 0 1 .91 1.53c.2.55 0 .84-.51.92a3.17 3.17 0 0 1 -2.13-.21 6.09 6.09 0 0 1 -2.34-2.16.92.92 0 0 1 0-1c.05-.1.12-.22.27-.2s.18.14.21.26a4.2 4.2 0 0 0 2.55 2.74c.25.13.58.26.78 0s.06-.57-.11-.83a8.14 8.14 0 0 0 -3.69-3.1 2.6 2.6 0 0 0 -1.79.23.61.61 0 0 1 -.46 0c-.31-.02-.2-.15-.06-.27z" fill="#787878"/><path d="m58.52 98.41c-.07.11-.28.15-.23.29s.23.06.36.09c-.47.26-.84.76-1.48.59-.32-.26-.55-.1-.84.09s-.63.52-1 .07a.18.18 0 0 1 .07-.15l.6-.19a.48.48 0 0 0 .33-.67 11.64 11.64 0 0 1 -.39-4.15 3.6 3.6 0 0 0 -.15-1.3.94.94 0 0 1 .7-1.13c.6-.16.9 0 1 .62a21.3 21.3 0 0 1 .76 3.13 5.68 5.68 0 0 1 -.11 1.37c0 .25-.16.4-.43.38s-.35-.18-.32-.44a6.45 6.45 0 0 0 -.21-1.75c0-.17-.09-.38-.31-.37s-.2.25-.2.42c0 .78-.07 1.57-.07 2.36 0 1.22.48 1.1 1.35.83.18-.06.34-.34.57-.09z" fill="#757575"/><path d="m50.24 95c-.15-.38-.2-.72.24-1s.25-.53.23-.82c-.08-1.68-.13-3.35-.29-5a19.82 19.82 0 0 1 .1-4.29c.14-1.14-.14-2.28.08-3.41h.06s0 0 0 0a2.87 2.87 0 0 0 .07-.77 38 38 0 0 1 .2-6c0-.16-.12-.44.25-.4a35.22 35.22 0 0 1 -.18 4.27c-.1.94.15 1.87.05 2.81-.17 1.7.06 3.42-.26 5.13a7.38 7.38 0 0 0 0 2.15 41.58 41.58 0 0 1 .21 6.11 7.59 7.59 0 0 1 -.29 1.89c-.25 0-.22-.18-.24-.35s.05-.39-.23-.32z" fill="#b5b5b5"/><path d="m73.16 87.14a1.81 1.81 0 0 1 2.43.12 2.63 2.63 0 0 1 .7 2.59c-.12.71-.3 1.4-.36 2.12 0 .2-.06.44-.3.47s-.31-.22-.39-.4a2.54 2.54 0 0 1 -.11-1.47 7.74 7.74 0 0 0 .14-2.15 1.15 1.15 0 0 0 -.14-.51c-.59-1-1.24-1.16-2 .19-.11.15 0 .47-.33.42s-.16-.35-.18-.55c-.03-.41.38-.52.54-.83z" fill="#747474"/><path d="m51.21 73.23a24.77 24.77 0 0 0 -.21 2.77c-.25 1.7 0 3.42-.15 5.22l-.21-.75c-.12-2.22 0-4.45.14-6.67.09-1.86.25-3.72.19-5.59a11 11 0 0 1 .5-3.35c.13 0 .26-.13.38 0-.8 2.72-.38 5.57-.64 8.37z" fill="#9a9a9a"/><path d="m65.36 59.41c0 .32.31.21.49.26l-5.08 1.84c-.28.1-.58.14-.85.25s-.38.14-.37.35.24.19.38.25c.57.24 1.14.45 1.71.7a2.34 2.34 0 0 1 1 .69 14 14 0 0 0 -3.41-1.43c-.1 0-.19-.08-.2-.2s.11-.15.2-.19l1.16-.62a3.81 3.81 0 0 0 -1.47.29c-.05 0-.1 0-.13 0a.55.55 0 0 0 0-.47c.26-.35.74-.41 1-.77.07-.1.22 0 .32.05s-.29.44-.16.61.45 0 .67-.05c1.59-.43 3.14-1.07 4.74-1.56z" fill="#949494"/><path d="m69.55 59.79a2.91 2.91 0 0 1 -1.35-.55c-.19-.1-.29-.24-.14-.48s-.12-.14-.2-.19c1.38-.47 2.75-.93 4.12-1.41.79-.27 1.57-.56 2.35-.85.29-.11.55-.25.62-.6.28.2.07.35-.07.47a5.32 5.32 0 0 1 -.67.43c.42 0 .73-.16 1 .08a1.44 1.44 0 0 0 -.65.08c-1.43.58-2.93.95-4.35 1.56-.49.21-1.07.11-1.55.4-.11.07-.28.08-.29.26s.15.21.26.29c.29.19.66.24.92.51z" fill="#959595"/><path d="m51.81 64.82c-.13.14-.26.41-.38 0a2.67 2.67 0 0 1 0-1.43 1.73 1.73 0 0 0 0-.68c0-.17 0-.44.32-.27v.47c-.09.64 0 .72.58.59.25-.05.51 0 .74-.1l1.49-.4a6 6 0 0 0 1.44-.4c.12 0 .22-.18.37-.07a.49.49 0 0 0 .36.23c-.86.24-1.62.72-2.53.89a3.82 3.82 0 0 0 -2.39 1.17z" fill="#797979"/><path d="m73.16 87.14c-.06.33-.44.54-.32 1s.21 0 .32 0a9.79 9.79 0 0 0 .61 3.86c-.82-.08-1-.25-1.25-1.3a8 8 0 0 1 -.13-2.24 1.77 1.77 0 0 1 .77-1.32z" fill="#939393"/><path d="m55.41 99.39a.37.37 0 0 1 0 .11c0 .21-.13.27-.29.31a22.85 22.85 0 0 0 -4 1.31.64.64 0 0 1 -.16.06c-.53-.1-.6.26-.66.64a.24.24 0 0 1 -.15.09.78.78 0 0 1 -.14-.72c.25-1.23 0-2.49.27-3.72.14-.1.17 0 .24.11a8.67 8.67 0 0 1 .08 2.49c-.06.62.08.69.65.52 1.36-.4 2.66-1.17 4.16-1.2z" fill="#b5b5b5"/><path d="m50.48 97.58-.24-.11a5.32 5.32 0 0 1 0-1.69v-.78c0-.1 0-.2 0-.3s.09-.37.32-.34.21.24.2.41c0 .32 0 .63-.05 1a3.56 3.56 0 0 0 -.23 1.81z" fill="#999"/><path d="m77 57.64a2.34 2.34 0 0 1 1 1.06 3.55 3.55 0 0 1 -1-1.06z" fill="#959595"/><path d="m75.68 56.79a2.35 2.35 0 0 1 1.19.73 3.12 3.12 0 0 1 -1.19-.73z" fill="#959595"/><path d="m32.85 97.33a1.81 1.81 0 0 0 -1-.23 9.11 9.11 0 0 1 -4-.92 13 13 0 0 0 -1.82-.52 1.73 1.73 0 0 1 -.81-.35c-.11-.49.29-.52.59-.64a.16.16 0 0 1 .16 0 11 11 0 0 1 2.66.84 8.66 8.66 0 0 0 2.82.38 1.11 1.11 0 0 1 .86.34 10.22 10.22 0 0 0 1.19.37l.62.24a1.31 1.31 0 0 0 1 0 .58.58 0 0 1 .6.08 5.82 5.82 0 0 0 2.3 1c.34.07.52.43.92.54a12.18 12.18 0 0 1 1.7.34c.69.19 1.41.26 2.1.4.91.19 1.79.52 2.69.79a.33.33 0 0 1 .07.16c-.12.33-.37.23-.6.17a7.76 7.76 0 0 1 -1.42-.43 1 1 0 0 0 -.7-.11c.2.06.41.1.61.15s.52.15.56.45-.23.43-.47.53c-.7.32-1.47.45-2.19.7-.38.13-.68.25-.82.63a.52.52 0 0 1 -.45.08c-.19-.09-.36-.19-.4-.42a13.92 13.92 0 0 1 2.79-1.16.84.84 0 0 0 .56-.36 12.18 12.18 0 0 1 -3.43-1.1c-1-.28-2.08-.53-3.11-.84-.29-.09-.58.11-.87 0-.11 0-.28 0-.34-.1-.58-.84-1.59-.63-2.37-1.01z" fill="#6c6c6c"/><path d="m57.8 100a6.84 6.84 0 0 1 2.07.7c1.31.64 2.79 1 3.84 2.14a7.51 7.51 0 0 1 1.76 2.31 1.39 1.39 0 0 1 .12.7.52.52 0 0 1 -.45.49c-.28 0-.37-.19-.39-.43 0-.45-.29-.59-.72-.6a8.72 8.72 0 0 1 -4.62-1.75 35.94 35.94 0 0 1 -2.89-2.5 2 2 0 0 1 -.29-.45c.14-.11.21 0 .28.1a.46.46 0 0 0 .77 0 1.28 1.28 0 0 1 1.09.55 13.38 13.38 0 0 0 4.06 3.1c.33.15.78.45 1 .11s-.21-.64-.45-.89a6.28 6.28 0 0 0 -2.59-1.75c-.52-.16-1-.52-1.5-.74a3 3 0 0 0 -1.7-.32c-.25.28-.48.18-.71 0a.42.42 0 0 1 0-.67c.09-.1.13-.25.29-.28a5.43 5.43 0 0 1 1.03.18z" fill="#797979"/><path d="m40.66 98.78a6.65 6.65 0 0 1 -2-.14c-.21-.1-.49-.08-.5-.42s-.27-.24-.44-.31a20.5 20.5 0 0 0 -3.51-1c.3 0 .66.1.81-.3s0-.62-.36-.83a1 1 0 0 1 -.4-.82c0-.18 0-.36-.16-.48a9.58 9.58 0 0 1 .25-2.77.65.65 0 0 1 .48-.48c.27-.1.43 0 .61.23a13.32 13.32 0 0 1 2.47 3.43 5.64 5.64 0 0 1 .25 2.11c0 .3-.23.25-.42.11s-.19-.38-.22-.6a5.58 5.58 0 0 0 -2.05-3.51c-.33-.29-.49-.2-.6.23-.2.81.24 1.49.36 2.23.54 1.59 1.85 2.13 3.32 2.47a15.7 15.7 0 0 1 2.11.85z" fill="#767676"/><path d="m42.22 93.31a3.54 3.54 0 0 1 2.47 2.06 7.13 7.13 0 0 0 1.41 2.75 1.81 1.81 0 0 1 .31.64c.08.2.2.45-.07.57s-.55.12-.68-.18c-.51-1.14-1.59-2-1.8-3.26 0-.23-.21-.49-.48-.46s-.33.38-.3.58a5.18 5.18 0 0 0 .7 2.19c.14.23.47.51.16.71s-.59-.11-.73-.41a1.77 1.77 0 0 0 -.66-.82c-.14-.08-.28-.22-.26-.38.11-.63-.27-1.2-.22-1.83a3 3 0 0 0 -.36-1.47c-.2-.44-.01-.69.51-.69z" fill="#686868"/><path d="m40.4 102c-.08-.38.22-.42.46-.51l2.36-.85c.14-.06.37-.07.36-.26s-.27-.21-.43-.24a6.87 6.87 0 0 0 -.78-.08.43.43 0 0 1 -.44-.52c0-.38.32-.2.51-.2 1.07 0 2 .62 3 .73.52-.08.93.25 1.38.39.11 0 .19.14.32.15.32 0 .56.22.49.53s-.41.18-.65.14-.37-.14-.56-.19-.51-.08-.61.11c-.44.87-1.37 1.26-1.92 2-.19.05-.39.12-.53-.11l-.06-.17c0-.36.37-.51.43-.82a2.85 2.85 0 0 0 -2.34 0 .82.82 0 0 1 -.99-.1z" fill="#5f5f5f"/><path d="m51.8 62.43c-.35.23-.14.67-.35 1-.1-1 .25-2 0-3a2 2 0 0 0 .24-1.43 32.54 32.54 0 0 1 .27-3.7 52.3 52.3 0 0 0 .3-6.62c.21-.13.26 0 .3.17a3.64 3.64 0 0 1 0 .66c0 .08.09 0 0 0s0 0 0-.05a3.77 3.77 0 0 0 0-.75c0-.27 0-.43.35-.24a34.48 34.48 0 0 1 -.42 5.84c-.4 2.47-.4 5-.61 7.46.01.23-.04.42-.08.66z" fill="#9a9a9a"/><path d="m32.48 99.38a3.63 3.63 0 0 0 -1.68 1.45c-.33.71-.2 1.13.59 1.19a5.78 5.78 0 0 0 1.94-.24l.47-.12a2.25 2.25 0 0 1 .73-.35 1.93 1.93 0 0 0 1.09-.53c.15-.18.4-.3.56-.11s-.13.3-.25.44-.49.24-.69.43a10.81 10.81 0 0 1 -2.84.9 8.23 8.23 0 0 1 -1.72 0c-1.05-.19-1.31-1.12-.67-2.06a3.25 3.25 0 0 1 1.89-1.18c.19-.06.38-.1.58-.15s.42-.23.47 0-.31.22-.47.33z" fill="#858585"/><path d="m57.33 100.68c0 .17.2.36 0 .5s-.37-.05-.53-.16-.38-.29-.57-.44a1.71 1.71 0 0 0 -2.11-.26 11.68 11.68 0 0 1 -2 .61c-.56 0-.88.64-1.5.59-.22 0 0 .36-.18.51-.24.09-.25-.14-.34-.26v-.54c0-.29.09-.37.44-.35a3.92 3.92 0 0 0 1.86-.53 22.59 22.59 0 0 1 3-.85 7.17 7.17 0 0 0 1.51-.5 1.14 1.14 0 0 1 .71 0c-.11.24-.39.21-.53.37s-.33.31-.36.56c0 .08.12.21.09.26-.52.74.09.47.41.46a.11.11 0 0 1 .1.03z" fill="#6d6d6d"/><path d="m47 101.31c.17 0 .39 0 .42-.26s-.18-.28-.34-.35a7.89 7.89 0 0 0 -1.62-.6v-.1a9.84 9.84 0 0 1 2.76 1.1c.28.14.52.34.86 0s.33.07.3.24a19.5 19.5 0 0 1 -.16 3.14 1 1 0 0 0 .38 1.26c.3.18.24.57.12.88a.41.41 0 0 1 -.49.24c-.31-.11-.36-.38-.4-.68-.14-1.13.13-2.26 0-3.4a1 1 0 0 0 -.66-.9c-.4-.17-.79-.37-1.17-.57z" fill="#7f7f7f"/><path d="m43.51 103a.59.59 0 0 0 .39.26 15.71 15.71 0 0 1 -3.07 1.53 6.66 6.66 0 0 1 -2.47.23 1 1 0 0 1 -.86-.56.26.26 0 0 1 .11-.14c.45 0 .74.37 1.11.4.12 0 .05-.07 0 0s0 0-.06 0c-.42-.15-.38-.47-.32-.82a1.49 1.49 0 0 1 1.14-1.35.38.38 0 0 1 .15.09c.23.29.06.51-.13.73s-.26.34-.15.54.36.22.58.2a4.28 4.28 0 0 0 1.72-.61 3.93 3.93 0 0 1 1.47-.63c.18-.02.31-.06.39.13z" fill="#858585"/><path d="m39.54 102.72a2.82 2.82 0 0 0 -.68.74c-.35.6-.25.84.57 1.34a1.7 1.7 0 0 1 -1.79-.37c-.24-.68.28-1.08.6-1.53.16-.21.41-.36.59-.57l.81-.45a.61.61 0 0 1 .41.27c.09.42-.15.55-.51.57z" fill="#5f5f5f"/><path d="m32.48 99.38c.07-.1.26-.12.25-.28s-.17-.06-.25-.08a8.08 8.08 0 0 1 1.79-.56c.2-.06.5 0 .51-.31s-.29-.28-.49-.34l-1.44-.35v-.13a18.22 18.22 0 0 1 3.6 1.09z" fill="#a9a9a9"/><path d="m50.14 101.77.34.26a22.31 22.31 0 0 1 .1 3.92c0 .17 0 .41-.25.4s-.21-.25-.21-.42c0-1.2 0-2.41.05-3.61a2 2 0 0 0 -.06-.41z" fill="#9d9d9d"/><path d="m38.83 102.33a3.13 3.13 0 0 1 -.63.77 2.05 2.05 0 0 0 -.56 1.33h-.14c-.13-.74.33-1.21.76-1.69a3.5 3.5 0 0 1 .57-.41z" fill="#6c6c6c"/><path d="m50.48 102a.54.54 0 0 1 .52-.65c.41-.07.7-.48 1.16-.45a4.26 4.26 0 0 1 -1.26.63c-.25.08-.28.34-.42.47z" fill="#9d9d9d"/><path d="m50.24 95.78v1.69a2.46 2.46 0 0 1 0-1.69z" fill="#b5b5b5"/><path d="m49 21.88a1.69 1.69 0 0 1 -.89.3c-1.55.18-3 .71-4.55 1a4.74 4.74 0 0 1 -2.92-.25c-.41-.2-.77-.48-1.21-.65s-.5-.74 0-1.07a2 2 0 0 1 1.49-.27 13.76 13.76 0 0 0 3.79-.14c1.43-.11 2.69-.89 4.14-.84.32 0 .63.07.95.07a48.36 48.36 0 0 0 5.11-.35 14.75 14.75 0 0 1 4.69.06.87.87 0 0 0 .74-.1.58.58 0 0 1 .34-.13 5.31 5.31 0 0 0 2.22-.77 3.05 3.05 0 0 0 1.74-1.64 5.4 5.4 0 0 1 2.68-2.42 7.29 7.29 0 0 1 2.61-.7 23.11 23.11 0 0 1 4.48-.6 8 8 0 0 0 3.59-.56c.66-.28 1.33-.07 2-.36a16.78 16.78 0 0 1 3.52-.71 1.22 1.22 0 0 1 1 .34 1.76 1.76 0 0 1 .37.17c.14.11.25.21.18.4s-.23.16-.4.1a1 1 0 0 0 -.8 0c-.59.15-1.19 0-1.79.26a19.18 19.18 0 0 1 -2 .63 3 3 0 0 0 -.67.19l-2.32.56c-2 .49-4.13.22-6.17.61a15.41 15.41 0 0 0 -4.46 1.28 1.11 1.11 0 0 0 -.72 1.46 1.24 1.24 0 0 1 -.6 1.27c-.33-.11-.21-.32-.14-.53s.09-.24 0-.33-.23 0-.34 0a1.56 1.56 0 0 0 -.4.27 5.28 5.28 0 0 1 -2.42 1.38 5.38 5.38 0 0 1 -2.84.39 11.36 11.36 0 0 0 -3.68 0c-.82.05-1.63.27-2.43.28-1 0-1.91.16-2.86.1a7.86 7.86 0 0 0 -1.61 0c-.53.06-1 .18-1.56.29.25.8.85.93 1.59.8.16-.06.45-.18.55.21z" fill="#606060"/><path d="m49 21.88c-.43 0-.87.08-1.31.1s-.94.27-.93-.56c0-.44-.52-.36-.88-.4a5.85 5.85 0 0 1 3.44-.81 26.12 26.12 0 0 0 4.68-.21 17.19 17.19 0 0 1 5.59 0 .73.73 0 0 0 .41 0c1.5-.44 3.08-.7 4.23-1.93a3.76 3.76 0 0 1 .68-.48.43.43 0 0 1 .64.5c-.12.31-.27.62-.4.93a7.61 7.61 0 0 1 -2.77 1.56 6.26 6.26 0 0 1 -3.22.72 5.62 5.62 0 0 0 -1.59-.15c-1.67.23-3.36.23-5 .54a28.17 28.17 0 0 1 -3.57.19z" fill="#565656"/><path d="m48.59 50.42a1.29 1.29 0 0 1 -.15-1.21 15.3 15.3 0 0 0 .2-2.25 16.71 16.71 0 0 0 -.17-5.96 23.91 23.91 0 0 1 -.18-2.55c-.11-.63-.27-1.24-.44-1.85a.86.86 0 0 1 -.08-.57 3.76 3.76 0 0 0 -.07-1.53.48.48 0 0 1 0-.35c.31-.64 0-1.1-.39-1.56 0-.06 0-.13 0-.17.33-.3.35-.55 0-.88a.64.64 0 0 1 -.13-.9.3.3 0 0 1 .33.06c.28.43.45.18.62-.09.36-.05.33.21.32.43a2.51 2.51 0 0 1 -.13.82 2.4 2.4 0 0 0 0 1.63 43.76 43.76 0 0 1 1 10.58 29.54 29.54 0 0 0 .38 3.39 2 2 0 0 1 -.3 1.37c-.44 0-.5.33-.55.65s0 .59-.05.89-.13.14-.21.05z" fill="#676767"/><path d="m59.73 26.91c-.19.43-.58.47-1 .46a2.31 2.31 0 0 0 -1.24.5c-.15.09-.28.2-.07.36.06.38-.27.44-.49.52-.56.22-1.07.53-1.62.76s-.69.7-1.07 1c-.19.15-.35.38-.57.41-.79.1-.86.74-1 1.29a11.77 11.77 0 0 0 -.26 2.58 10.81 10.81 0 0 0 -.12 1.61c0 .17 0 .4-.27.36s-.19-.2-.19-.37a4.19 4.19 0 0 0 -.07-1.39.53.53 0 0 1 0-.35 8.66 8.66 0 0 0 .17-2.38 1.69 1.69 0 0 1 .2-.8c.11-.16.18-.31 0-.48 0-.69.13-1.37.19-2 0-.11.09-.22.19-.17.49.21 1.06 0 1.53.3.31.11.52-.07.73-.25a5.24 5.24 0 0 0 1.23-.77 8.49 8.49 0 0 1 3.73-1.19z" fill="#6d6d6d"/><path d="m52.86 48.37c-.25.59 0 1.26-.28 1.94-.34-.58 0-1.19-.32-1.67a14.82 14.82 0 0 0 -.65-1.91.82.82 0 0 1 .24-1.07 1 1 0 0 0 .36-.89 12.18 12.18 0 0 1 .06-2.26c-.06-.25 0-.43.29-.37a28.75 28.75 0 0 1 .34 2.94c0 .13 0 .28.08.39a1.15 1.15 0 0 1 .2.91c0 .5-.06 1-.06 1.49a.52.52 0 0 1 -.26.5z" fill="#646464"/><path d="m52.52 42.14-.25.37a3.48 3.48 0 0 1 -.27-2.82 1.44 1.44 0 0 0 0-.69 23.7 23.7 0 0 1 -.24-4.28 10 10 0 0 1 .4-3.72.28.28 0 0 1 .12.36 7.81 7.81 0 0 0 -.28 2.4 8.58 8.58 0 0 0 .07 2.77c.16-.59 0-1.22.21-1.8.33 0 .3.19.27.38a25.86 25.86 0 0 0 .07 4.22 10.46 10.46 0 0 1 0 2.5c-.01.11.02.23-.1.31z" fill="#818181"/><path d="m59.73 26.91a5.22 5.22 0 0 1 -.93.22 12.89 12.89 0 0 0 -2.8 1 6.32 6.32 0 0 1 3-1.18 13.46 13.46 0 0 0 1.92-.63 2.25 2.25 0 0 1 1.33-.23c.38.09.71-.16 1.1-.18 1.79-.08 3.57.31 5.36.19a3.74 3.74 0 0 0 1.2.11 3.42 3.42 0 0 1 -1.65.07 3.06 3.06 0 0 0 -1.47.1.5.5 0 0 1 -.34 0 8.24 8.24 0 0 0 -3.92-.18 15.63 15.63 0 0 0 -2.8.71z" fill="#838383"/><path d="m79.4 13.83a10.91 10.91 0 0 1 4.45-1.08l-.13.13c-1.2-.17-2.22.49-3.33.76a4.13 4.13 0 0 1 -.99.19z" fill="#848484"/><path d="m54.07 29.07c-.38-.05-.76-.07-1.13-.14s-.61.18-.58.53a5.59 5.59 0 0 1 -.2 1.53 5.51 5.51 0 0 1 .17-2.14.19.19 0 0 1 .22-.17c.5.15 1.08-.02 1.52.39z" fill="#838383"/><path d="m56 28.1c-.27.46-.53.94-1.2.72a4 4 0 0 1 1.2-.72z" fill="#838383"/><path d="m209.83 35.32h-.11c-.16-.41-.36-.22-.5 0a8.46 8.46 0 0 0 -.95 1.43c-.22.41-.47.31-.61 0a1.16 1.16 0 0 1 -.09-1c.07-.17.15-.33.22-.49.07.15-.15.54.36.34.19-.07-.07.4.22.57.35-.23.5-.67.79-1 .13-.14.25-.36.48-.3s.18.26.19.45z" fill="#7e7e7e"/><path d="m179.13 42.85a30.62 30.62 0 0 0 -1.74-4.09 3.91 3.91 0 0 0 -.53-.7 7.4 7.4 0 0 0 -.86-1.14c-.09-.08-.18-.19-.31-.12s-.1.2-.08.32a7.21 7.21 0 0 0 .81 3.05c.6 1.52 1.14 3.07 1.78 4.58a1.54 1.54 0 0 1 .06.63c0 .18 0 .33-.2.39s-.34-.09-.41-.25a11.32 11.32 0 0 1 -1.31-2.52 5.93 5.93 0 0 0 -.38-1.07 1 1 0 0 1 -.06-.81 16.11 16.11 0 0 0 -.6-1.69 20.15 20.15 0 0 1 -1-3.12c0-.2 0-.4 0-.59a.71.71 0 0 1 .44-.66c.3-.13.47.11.65.3a19.74 19.74 0 0 1 4.27 7c.07.23.1.62.39.59s.22-.43.29-.67c.17-.47-.37-.76-.37-1.21a1.48 1.48 0 0 1 .45 1.71c-.11.31-.18.62-.58.66-.17 0-.22.15-.25.29-.3-.22-.15-.67-.46-.88z" fill="#707070"/><path d="m190.06 55.08c-.6-.3-.47-.65-.37-1.11.15-.67-.14-1.29-.63-1.36a1.44 1.44 0 0 1 -1.08-.86c-.22-.45-.7-.71-.84-1.21a.25.25 0 0 0 -.35-.14.6.6 0 0 0 -.33.47c-.06.21.11.21.25.23a.61.61 0 0 1 .57.66 2.46 2.46 0 0 0 .15 1.21 2.13 2.13 0 0 0 .29.4 2.3 2.3 0 0 1 .46.64 14.11 14.11 0 0 1 1.37 2.52s0 .09.06.09c.59 0 .74.53 1 .87.3-.56 0-2.14-.55-2.41z" fill="#5a5a5a"/><path d="m218.7 65.91c0 .3-.15.65.4.75.33.06.36.51.33.83a5.8 5.8 0 0 1 -.68 2.58 2.34 2.34 0 0 0 -.3.9c0 .48.2.24.39.18-.2.23-.35.75-.66.07-.1-.25-.28-.19-.39 0a1.23 1.23 0 0 1 -.52.54c-.25-.1-.34-.31-.43-.65-.81 1.86-1.46 3.68-2.32 5.41a7.57 7.57 0 0 1 -1.07 1.5.6.6 0 0 0 -.25.59c-.13.07-.24.53-.43 0a.19.19 0 0 0 -.1-.13.43.43 0 0 1 -.11-.81c.34-.25.73-.37.06-.71-.16-.08-.12-.55-.18-.84a3.88 3.88 0 0 0 -.14-.45c-.18 0-.13.16-.12.23.24 1.42-.37 2.7-.69 4-.1.4.24.76.11 1s-.65.19-.82.58a1.33 1.33 0 0 1 -.48.67c-.3-.16-.2-.39-.08-.56.82-1.23.94-2.71 1.42-4a2.9 2.9 0 0 0 0-1.49c-.07-.39-.31-.43-.59-.15a1.65 1.65 0 0 0 -.29.45 29.07 29.07 0 0 0 -2.08 5.87c-.16.66 0 1.35-.25 2a2.7 2.7 0 0 0 .48-.8c.13-.24.29-.42.54-.13a3.39 3.39 0 0 1 -1.23 1.92c-.36.27-.67.47-.74.93 0 .16-.1.33.09.42s.23-.11.28-.25.17-.16.29-.1a.31.31 0 0 1 .19.39 2.48 2.48 0 0 1 -.59.88.18.18 0 0 1 -.3 0c-.26-.69-.56-.33-.87-.06 0-1.74.65-3.4.78-5.12a14.87 14.87 0 0 1 1.26-4.62 18.23 18.23 0 0 1 1.85-3.66 3.09 3.09 0 0 1 .48-.54c.53-.47.83-.39 1.27.15a3.22 3.22 0 0 1 .73 1.86c0 .13 0 .31.19.34s.22-.15.25-.27c.53-1.68 1.37-3.23 2-4.88a28.4 28.4 0 0 1 1.32-2.73 12.3 12.3 0 0 1 1.11-1.75c.26-.39.49-.54.89-.34z" fill="#686868"/><path d="m220.29 73.23a7.39 7.39 0 0 0 .94-1.21c.08.38.24.19.41.06s.53-.57.92-.09c.14.18.42 0 .6-.1s.27-.3.47-.37a.56.56 0 0 1 -.55.63c-.42 0-.63.37-.88.64a3.8 3.8 0 0 1 -.49.41c-.08-.08-.11-.15-.25 0-.53.57-.76.6-1.13.2a.24.24 0 0 1 -.04-.17z" fill="#a3a3a3"/><path d="m207.94 93.39a2.35 2.35 0 0 1 -1.82.83 15.66 15.66 0 0 0 1.82-.83z" fill="#7f7f7f"/><path d="m169.05 63.62a7.57 7.57 0 0 1 -.84-2c0-.39-.29-.81 0-1.12s.78 0 1.15.12a7.11 7.11 0 0 1 1.45 1.16 19.27 19.27 0 0 1 2 2.05c.43.57.59 1.27 1 1.86.17.28 0 .53-.4.52s-.53-.29-.66-.56a8.68 8.68 0 0 0 -1.7-2.45 1 1 0 0 0 -.58-.34c.17 1.28 1.07 2.15 1.59 3.19a1.42 1.42 0 0 1 .29 1 1.4 1.4 0 0 0 .27 1 1.76 1.76 0 0 1 .39.77c.08.45.56.29.78.52.07 0 0 .1 0 0-.09-.09-.29-.13-.25-.3.16-.69-.21-1.32-.17-2a.74.74 0 0 1 .37-.7c.23-.1.32.15.46.27-.22-.24-.55-.48-.32-.83a1 1 0 0 1 .8-.44c.14 0 .26 0 .32.13.38.69 1.08 1.19 1.25 2l1.19 2.53c.2.5.51 1 .74 1.44a6.26 6.26 0 0 0 .62 1.92c.13.3.34.7-.29.74-.41.17-.39-.22-.5-.41a38 38 0 0 1 -1.59-3.79c-.21-.5-.54-.93-.75-1.43 0-.1-.13-.22-.28-.15s-.1.16-.09.26a3.54 3.54 0 0 0 .07.47 3.68 3.68 0 0 1 .14 1.92c-.17.66.3 1.23.63 1.76.59 1 1.17 1.94 1.73 2.93.16.26.51.59.06.93l.24.74a.63.63 0 0 0 .74.46.57.57 0 0 0 .57-.58 3.89 3.89 0 0 1 .1-.54c.42.06.71.12.68.7 0 .38.28.77.43 1.16.34-.09.52.08.62.38a.55.55 0 0 1 .05.17 18 18 0 0 0 1.64 5.19 1.77 1.77 0 0 0 .39.71c.34.49.6 1 .9 1.55a.71.71 0 0 1 0 .84 18.37 18.37 0 0 0 2 3.35c-.38.11-.49-.15-.68-.22-.55-.37-.64-1-1-1.54-.53-.77-.95-1.62-1.42-2.44-.16-.28-.43-.44-.7-.29-.91.5-1.55-.09-2.22-.52a7.35 7.35 0 0 1 -1.64-1.56c-.07-.16-.16-.35.07-.46a.52.52 0 0 1 .65.1 3.66 3.66 0 0 0 1.34 1.07c.19.09.39.17.57 0s.1-.37 0-.56a10.87 10.87 0 0 0 -.82-1.59c-.17-.27-.35-.52-.77-.31s-.57 0-.7-.37a8.88 8.88 0 0 1 -.36-1.14 8 8 0 0 0 -2.84-4.26 7.2 7.2 0 0 0 -1.25-.92 1.86 1.86 0 0 0 -.55-.22c-.2 0-.41-.06-.55.14s0 .34.07.5a7.53 7.53 0 0 0 .68.92c.48.61.93 1.24 1.39 1.87a.87.87 0 0 1 .18.61c-.09.38-.22.42-.6.17a9.57 9.57 0 0 0 -1.33-1.7 25.08 25.08 0 0 1 -1.93-2.78c-.16-.23-.37-.46-.12-.75a1 1 0 0 1 .93-.42 3.79 3.79 0 0 1 1.09.32 2.38 2.38 0 0 0 .51.18c.24 0 .5.29.73.07s.09-.59 0-.79c-.61-1.05-.91-2.31-2.12-3-.46-.26-.63-1-.81-1.49a7.59 7.59 0 0 0 -1.27-1.93 1.29 1.29 0 0 0 -.45-.29.59.59 0 0 0 -.72.1c-.22.19-.16.42-.07.66a10.12 10.12 0 0 0 1.25 2.31c.12.18.42.4.16.61s-.39-.12-.55-.29a8.41 8.41 0 0 1 -1.89-3.34 2.09 2.09 0 0 1 0-1.24c.18-.54.69-.57 1.32-.11.26.14.4 0 .27-.2-.26-.34-.23-.79-.5-1.11z" fill="#5d5d5d"/><path d="m183.43 89.71-1.78-1.71a1.13 1.13 0 0 0 -.92-.34c-.37 0-.54.2-.44.6a6.21 6.21 0 0 0 1.39 2.74c.4.44.95.76 1.32 1.25a3.81 3.81 0 0 1 .63.86.78.78 0 0 0 .29.37 30.14 30.14 0 0 1 2.69 1.74 20 20 0 0 1 1.89.83 2.53 2.53 0 0 0 -.72-1.68 6.52 6.52 0 0 1 -1.23-1.78c-.12-.18-.25-.36-.38-.53.54.15.65.65.85 1.07.09.2.12.44.31.57.94.65 1.19 1.73 1.78 2.77-.58-.23-1-.4-1.48-.59a1.22 1.22 0 0 0 -1.2 0 14.06 14.06 0 0 1 -3.62-2.65 20.82 20.82 0 0 1 -2.74-3.73 6.06 6.06 0 0 1 -.78-2.34.85.85 0 0 1 1.07-.86 1.45 1.45 0 0 1 .49.22 17.89 17.89 0 0 1 2.7 2.52c-.27.2-.13.45-.12.67z" fill="#6f6f6f"/><path d="m189.69 96.36a1.26 1.26 0 0 1 .42.77.48.48 0 0 0 .5.36c.22 0 .24-.22.32-.38.32-.73-.14-1.44-.05-2.17.32-.18.37.07.43.28a3.48 3.48 0 0 1 .17 1.7c0-1.1.22-2.44-.79-3.53 0-.07-.05 0 0 0 .17.27.43.54-.05.75-.42-.7-.46-1.54-.84-2.27a11.42 11.42 0 0 1 -.61-1.21c.47.27.58.82.88 1.23.05-.41-.28-.73-.26-1.12a17 17 0 0 1 .88 1.82c.13.23.24.46.38.68s.17.26.33.17.07-.21.07-.33a24.69 24.69 0 0 0 -.82-6c-.05-.19-.07-.43-.33-.43s-.29.23-.37.41 0 .55-.07.83-.09.28-.26.28a.26.26 0 0 1 -.24-.23 2.39 2.39 0 0 1 .23-2.18c.31-.39.51-.47.83-.08a6.47 6.47 0 0 1 1.15 3.23c.18 1.2.19 2.43.43 3.62a6.53 6.53 0 0 1 -.08 2.33 6 6 0 0 0 .06 1.89 7.27 7.27 0 0 1 .09 1.13.84.84 0 0 1 -.46.85c-.26.11-.31.35-.38.57-.17-.31 0-.66-.12-1-.27.3-.48.4-.47-.13a.41.41 0 0 0 -.19-.41c-.56-.36-.62-.92-.78-1.43z" fill="#7e7e7e"/><path d="m183.07 85.11a8.22 8.22 0 0 1 1.35 2.26h-.13c-.29-.79-.94-1.44-1.22-2.26z" fill="#9e9e9e"/><path d="m194.13 30h-.13a2.1 2.1 0 0 1 -.18-1.22 1.4 1.4 0 0 0 -1.42-1.34c-.34 0-.43-.1-.42-.4a1 1 0 0 1 .91-.95 1.28 1.28 0 0 1 1.32 1 14.73 14.73 0 0 1 .14 1.49c0 .32.07.65.09 1s.06.47-.31.42z" fill="#6b6b6b"/><path d="m193 96.5a3.19 3.19 0 0 1 .13-.75 2.41 2.41 0 0 0 .2-1.45c0-.12 0-.32.14-.35s.2.18.2.3v1.9s-.32.49-.69.35z" fill="#636363"/><path d="m175.14 79.72c.13 0 .33.07.24-.19l-.22-.54c.38-.28.5.08.64.29.83 1.29 1.83 2.46 2.78 3.67.2.25.43.46.63.71s.29.32 0 .49-.4-.49-.61 0a15.92 15.92 0 0 1 -2.74-3.57 1.32 1.32 0 0 0 -.34-.4 1.36 1.36 0 0 1 -.38-.46z" fill="#8f8f8f"/><path d="m181.66 25.44a1.6 1.6 0 0 0 -1.08-.22c-1.06 0-2.1-.22-3.14-.34-.63-.08-1.2-.4-1.85-.43-.14 0-.34-.07-.31-.29s.21-.23.37-.24l2-.12c.72.28 1.49.27 2.22.48a25.37 25.37 0 0 0 8.41.76c1.25-.05 2.51 0 3.76 0a1.07 1.07 0 0 1 .79.22.33.33 0 0 1 .11.38.18.18 0 0 1 -.23.13c-.68-.36-1.32.08-2 0a.74.74 0 0 1 -.3 0 3.53 3.53 0 0 0 -2.16-.23c-2.18.24-4.38-.15-6.59-.1z" fill="#6c6c6c"/><path d="m84.44 12.15h.83c.14.17.3.35.13.58a.49.49 0 0 1 -.63.16 2.45 2.45 0 0 0 -.93-.14 1.52 1.52 0 0 1 .94-.1c0-.31-.23-.36-.34-.5z" fill="#848484"/><path d="m16.28 90.39a2.72 2.72 0 0 1 1.18.61 4.21 4.21 0 0 0 1.28.66c.52.16.78.62.55 1l-.29-.23c-.56-.09-1.12-.36-1.68 0a12.06 12.06 0 0 0 -3.78 2.08c-.26.18-.72.48-.5.84s.61 0 .93-.06a2.71 2.71 0 0 0 2-1.61c.09-.18.26-.43.5-.31s.1.38 0 .58a2.81 2.81 0 0 1 -1.87 1.76 5.92 5.92 0 0 1 -2.58.06c-.53 0-.66-.44-.27-.81a6.67 6.67 0 0 1 1.06-.77 14.91 14.91 0 0 1 3.86-2c.48-.13.4-.42.13-.71s-.69-.4-.94-.72c.05-.26.3-.26.42-.37z" fill="#757575"/><path d="m18 84.76a.83.83 0 0 0 -.63-.79c-.46-.11-.52.39-.79.61-.33-.94.17-1.69 1.06-1.64.56.71 1.33 1.21 1.94 1.87a2.11 2.11 0 0 1 .64.91 10.3 10.3 0 0 1 .52 3.93c0 .2 0 .5-.31.49s-.45-.22-.5-.51a22.82 22.82 0 0 1 -.63-3.51c-.05-.78-.7-1.12-1.3-1.36z" fill="#6a6a6a"/><path d="m22.65 91.82c-.41-.15-.52-.52-.62-.89a5.05 5.05 0 0 0 -.65-1.9c-.24-.33.09-.6.38-.76a2.1 2.1 0 0 1 2.41.48c.65.75 1.28 1.52 2 2.23a2.79 2.79 0 0 1 .5 2.75c0 .16-.13.29-.34.23a.48.48 0 0 1 -.36-.54 3.45 3.45 0 0 0 -.42-1.72c-.13 0-.34.08-.36-.07-.08-.59-.58-.81-.94-1.15a8.18 8.18 0 0 1 -1.1-1.18c-.12-.15-.3-.33-.51-.22s-.09.36 0 .53a9.09 9.09 0 0 1 .6 1.68c0 .22.14.42-.1.59a.46.46 0 0 1 -.49-.06z" fill="#747474"/><path d="m19.29 92.64c-.12-.46-.28-.84-.88-.67-.11 0-.29 0-.29-.13 0-.41-.22-.44-.59-.41s-.07-.27-.07-.43l1 .36c.42.26.91.42 1.32.71a2.78 2.78 0 0 0 1.08.59 10.58 10.58 0 0 0 1.54.58.6.6 0 0 0 .62-.1l.12-.12c.15-.22.32-.39.61-.2a.45.45 0 0 1 .34.38 1.08 1.08 0 0 0 .78.8c.43.12.64.53 1 .72-.09.32-.39.41-.6.59a38.58 38.58 0 0 1 -4.27-1.74 12.88 12.88 0 0 0 -1.71-.93z" fill="#595959"/><path d="m19.05 96.76a11 11 0 0 1 2.62-.44 6.6 6.6 0 0 1 -1.4.59c-.41.21-.73.46-.59 1a.82.82 0 0 0 1 .54 3.72 3.72 0 0 0 1.32-.37 8.53 8.53 0 0 0 2.69-1.36c.11-.11.33-.14.59 0a7.27 7.27 0 0 1 -1.56 1.28c-.61.3-1.26.5-1.9.74a4.51 4.51 0 0 1 -2.88-.12.88.88 0 0 1 -.29-1.47 4.48 4.48 0 0 1 .4-.36z" fill="#757575"/><path d="m16.28 90.39a.41.41 0 0 1 -.36.36c-.66-.36-1.4-.61-1.76-1.36-.07-.15-.24-.31-.06-.48s.34 0 .48.1z" fill="#656565"/><path d="m25.87 94.72a1.12 1.12 0 0 1 -.51-.28 1.24 1.24 0 0 0 -1-.36c-.46 0-.65-.27-.48-.67.09-.2 0-.34-.08-.5s-.07-.08 0-.12a8.84 8.84 0 0 0 2.2 1.91z" fill="#797979"/><path d="m23 93.14a.48.48 0 0 1 -.53.2 4.32 4.32 0 0 1 -1.63-.68 6.45 6.45 0 0 0 2.16.48z" fill="#757575"/><path d="m23 91.68a2.56 2.56 0 0 0 .68.75v.23c-.2.15-.41 0-.61 0-.23-.26-.19-.65-.46-.88z" fill="#757575"/><path d="m23.11 92.7c.16-.8.41 0 .61 0l.12.13v.12l-.72.11z" fill="#747474"/><path d="m19.76 92.07a3.45 3.45 0 0 1 -1.32-.71 2.84 2.84 0 0 1 1.32.71z" fill="#757575"/><path d="m33.55 96.63c-.47.13-.82-.16-1.19-.37a2.29 2.29 0 0 1 1.19.37z" fill="#767676"/><path d="m212 86.77c-.85.84-1.84 1.52-2.75 2.29-.11-.17-.46 0-.45-.22.43-.66-.23.15.21-.31-.33.27.53-.35.09 0a.68.68 0 0 1 -.67.06c0-.14.35-.21.81-1a12.64 12.64 0 0 1 2.41-2.27c-.1.17-.2.34-.29.52s-.08.28.08.27c.47 0 .51.22.4.58a.78.78 0 0 0 .16.08z" fill="#a7a7a7"/><path d="m211.88 87.62a1.79 1.79 0 0 1 .52-.7c.24-.25.15-.36-.16-.38.18-.08.4-.19.54 0s-.09.32-.21.44-.46.43-.69.64z" fill="#a7a7a7"/><path d="m67.84 50.53a2.27 2.27 0 0 1 1.94.39c1.59 1.08 2 2.44 1 4.37-.22.45-.65.83-.55 1.41v.11a4 4 0 0 1 -2 .33 1.16 1.16 0 0 0 -.49-.2 1.45 1.45 0 0 1 -1.44-1.41 3.47 3.47 0 0 1 .43-2.63 1.49 1.49 0 0 1 1.51-.74 4.46 4.46 0 0 0 -.72 3.54 1.33 1.33 0 0 0 .15.45.94.94 0 0 0 .89.5 1.11 1.11 0 0 0 .84-.78 7 7 0 0 0 .6-3.32 2.44 2.44 0 0 0 -1.75-1.78.37.37 0 0 1 -.41-.24z" fill="#666"/><path d="m60.08 60.38c-.36.4-.68.85-1.32.72a1.07 1.07 0 0 1 .24-1.35 5.33 5.33 0 0 0 .16-3.06 10.23 10.23 0 0 1 -.26-1.34c0-.39-.14-.78-.64-.8s-.63.35-.62.87a6.21 6.21 0 0 0 .25 1.77.6.6 0 0 1 -.16.43c-.17.27-.33.29-.54 0s-.31-.58-.5-.85a.25.25 0 0 1 -.07-.22c.15-.65-.12-1.31.07-2a1.38 1.38 0 0 1 1.38-1.08 1.83 1.83 0 0 1 2.07 1.05 10 10 0 0 1 .54 4.34 2.36 2.36 0 0 1 -.6 1.52z" fill="#6c6c6c"/><path d="m86.23 53.79a23.31 23.31 0 0 1 2.68 3.27c.09.11.18.23.1.38s-.26.16-.42.14a3.45 3.45 0 0 1 -1.69-.83 12.39 12.39 0 0 1 -2-2c-.11-.14-.29-.38-.09-.53s.26.16.38.26a1 1 0 0 0 .24.18c.2.09.3.54.54.31s-.1-.47-.26-.63a1.66 1.66 0 0 0 -2-.54 1.07 1.07 0 0 1 -.92.13c-.08-.14-.42.1-.37-.24.31-.15.65-.26.82-.61a.2.2 0 0 1 .06-.08 4 4 0 0 1 2-.38c-.01.6.44.9.93 1.17z" fill="#636363"/><path d="m56.72 56.79c.13.17.25.35.39.5s.19.31.37.23.06-.25.09-.38c.31-.18.37.09.45.28a2.78 2.78 0 0 1 .12.7c.13.79.35 1.51 1.22 1.79 0 .17 0 .43-.2.45-.52.07-.39.43-.39.74a3.86 3.86 0 0 0 -.58-.81 5.6 5.6 0 0 1 -1-2 11.77 11.77 0 0 1 -.47-1.5z" fill="#8d8d8d"/><path d="m82.39 53.66.37.24-.25.1a10.38 10.38 0 0 1 -2.75 1c0-.26-.22-.21-.38-.25a29.94 29.94 0 0 1 3.01-1.09z" fill="#7c7c7c"/><path d="m85.27 52.59a3.59 3.59 0 0 0 -2.28.83.85.85 0 0 1 -.59.24 4.13 4.13 0 0 1 2.21-1.18c.24-.03.47-.13.66.11z" fill="#7c7c7c"/><path d="m58.75 61.57h.13l-2.29.93q-.12-.06 0-.12a5.25 5.25 0 0 1 2.16-.81z" fill="#797979"/><path d="m56.72 54.62a11.24 11.24 0 0 1 0 2.17 4.09 4.09 0 0 1 0-2.17z" fill="#8d8d8d"/><path d="m56.59 62.41v.12h-.22a4.19 4.19 0 0 1 -1.81.47 18.25 18.25 0 0 1 2.03-.59z" fill="#9a9a9a"/><path d="m53.12 63.39a7.44 7.44 0 0 1 -.78.2c-.54.07-.67-.11-.54-.69 0 .4.19.58.61.51a4.18 4.18 0 0 1 .71-.02z" fill="#9a9a9a"/><path d="m173.34 66c.38-.08.28-.32.18-.55a6.32 6.32 0 0 0 -1.52-2.45 5.93 5.93 0 0 1 -1.11-1.18 7.8 7.8 0 0 1 2.66 3.09c.17.42.33.71.86.44.33-.17.59 0 .84.32a4 4 0 0 1 1.05 1.82 8.63 8.63 0 0 0 -1.15-1.66c-.19-.19-.32-.42-.63-.33a.53.53 0 0 0 -.43.45c0 .3.22.45.43.6s.54.1.38.47c-.06.15-.12.32-.31.34s-.27-.14-.37-.26-.13-.48-.35-.42 0 .33-.06.51c0 .41-.13.84.47.92.05 0 .11.13.11.2s-.12.12-.23.12c-.41 0-.39.26-.34.53s.12.27.29.09.15-.32.29-.12a.86.86 0 0 1 .09.75c-.06.18-.25 0-.36 0a1.19 1.19 0 0 0 -.86-.19.23.23 0 0 1 -.28-.16l-1.25-3.18a.86.86 0 0 1 1 .63c.13.4.31.77.43 1.19a2.12 2.12 0 0 0 0-1.06c-.09-.34-.17-.67.17-.91z" fill="#636363"/><path d="m178.18 71.42a2.93 2.93 0 0 1 -.74-1.44 3.73 3.73 0 0 1 .74 1.44z" fill="#636363"/><path d="m72.92 93.84c1.34-.58 2.78-.85 4.16-1.3a9.53 9.53 0 0 0 3.09-1.25 2.14 2.14 0 0 1 1.54-.35 4.24 4.24 0 0 0 2.52-.6 1.33 1.33 0 0 1 .32-.15c.32 0 .78-.24.9.15s-.38.41-.65.51-.45.07-.47.3.23.31.41.4a12.74 12.74 0 0 1 3.82 3 2.1 2.1 0 0 1 .44 2.45.82.82 0 0 1 -.76.49c-.26 0-.51 0-.41-.4s-.17-.49-.46-.53a5.77 5.77 0 0 1 -4.37-3.19 3.47 3.47 0 0 0 -1-1.37.76.76 0 0 0 -.67-.16 13.37 13.37 0 0 0 -2.94 1 6.17 6.17 0 0 1 -1.44.33c-.22.06-.57 0-.6.29s.3.28.49.35a11.69 11.69 0 0 1 3.56 2.15 10.78 10.78 0 0 1 2.14 2.62c.27.42.09.65-.3.84a2.06 2.06 0 0 1 -1.36.09 7.34 7.34 0 0 1 -4.75-2.21 7.73 7.73 0 0 1 -.94-1.46 5.62 5.62 0 0 1 -.62-1.39c-.07-.49-.33-.56-.82-.39a3.87 3.87 0 0 1 -.82.12c-.1 0-.26.06-.27-.12s.21-.06.26-.22zm8.51 4.83c.2-.34-.17-.49-.32-.69a16.36 16.36 0 0 0 -2.45-2.54 5.48 5.48 0 0 0 -2.57-1.44c-.16 0-.33-.11-.45 0s0 .31.08.45l1 1.88a5 5 0 0 0 3.83 2.54c.38-.01.71.13.88-.2zm4.77-3.2a2.9 2.9 0 0 0 1.27.59.3.3 0 0 0 .36-.14c.09-.13.17-.26.07-.43a5.3 5.3 0 0 0 -.8-1.41c-1.1-1.16-2.1-2.38-3.96-2.38.22 1.2 1.15 1.82 1.78 2.64.31.51.88.73 1.28 1.13z" fill="#646464"/><path d="m62.6 63.75c.55.48 1.13 1 1.65 1.47a2 2 0 0 1 .15 2.24 1.91 1.91 0 0 1 -1.94.37 8 8 0 0 1 -3.08-2.46 9.54 9.54 0 0 1 -1.27-2 1 1 0 0 0 -1.38-.6c-.2.07-.41.16-.44-.18 0-.11.13-.13.23-.13a.36.36 0 0 0 .18 0 7.41 7.41 0 0 1 2.15-.91c.39-.47 1-.29 1.44-.42.11 0 .19 0 .2.16a.2.2 0 0 1 -.18.21 1.67 1.67 0 0 0 -.73.36c-.1.09-.29.12-.25.29s.21.17.34.21a10 10 0 0 1 2.93 1.39zm0 .91a6.46 6.46 0 0 0 -2.46-1.53 1 1 0 0 0 -.7 0c-.37.1-.45.31-.27.63a10.2 10.2 0 0 0 3.53 3.5c.19.13.52.25.61-.16s.09-.63.13-1c.06-.68-.44-.99-.88-1.44z" fill="#616161"/><path d="m39.54 102.72.51-.57.35-.12a2.8 2.8 0 0 1 1-.23.09.09 0 0 1 0 0 2.12 2.12 0 0 1 -1.81.92z" fill="#858585"/><path d="m46.11 22.29c-.18.25-.46.21-.7.25-.57.11-1.12.32-1.69.39-1.27.16-2.57.36-3.7-.54a3.13 3.13 0 0 0 -.3-.2c-.18-.14-.53-.14-.47-.46s.32-.39.57-.48a2 2 0 0 1 .94-.1 11.54 11.54 0 0 0 3.52 0c.42-.07.68.11.71.51s.25.63.7.52c.15-.07.31-.1.42.11z" fill="#565656"/><path d="m45.67 30.15c.47.36 1.11.23 1.57.6.13.34.2.7.67.79s.26.68-.09.9a1.35 1.35 0 0 1 -.46.1 4.05 4.05 0 0 0 -1.69-.3 30.71 30.71 0 0 1 -3.32-.24c-.7-.07-1.39.05-2.09 0-1.28 0-2.58 0-3.87.06a1.79 1.79 0 0 1 -1.15-.38c-.2-.66.23-1.19.36-1.78 0-.21.37-.23.57-.23a54.45 54.45 0 0 1 6-.08 29.42 29.42 0 0 1 3.5.56z" fill="#4e4e4e"/><path d="m45.67 30.15a37.84 37.84 0 0 0 -9.33-.36.79.79 0 0 0 -.83.7 8 8 0 0 0 -.27 1.22c-.36-.73.13-1.3.37-1.91.08-.2.38-.19.6-.19 2.7-.05 5.41-.42 8.09.26.45.13.97-.1 1.37.28z" fill="#676767"/><path d="m209.35 88.57c.1.19 0 .34-.11.49a18.63 18.63 0 0 1 -1.57 1.76c-.23.21-.45.39-.59-.08a2.06 2.06 0 0 1 .76-1.22c.22-.14.25-.44.33-.69s.34-.52.71-.49c.18.04.36.06.47.23z" fill="#868686"/><path d="m220.29 73.23c.8.37 1.18-.23 1.62-.72a.3.3 0 0 1 .14-.1s.07 0 .14 0c-.06.34-.4.5-.48.8a9.67 9.67 0 0 0 -1.94 2.29c-.11.16-.09.56-.45.38a.47.47 0 0 1 -.24-.73 1.62 1.62 0 0 0 .57-.88 2 2 0 0 1 .64-1.04z" fill="#787878"/><path d="m190.64 94.11a6.27 6.27 0 0 0 -.24-1.47 14.83 14.83 0 0 0 1.31 1.63c.16.16.08.42.06.64a6.43 6.43 0 0 0 .11 2.43c.05.17.13.37-.09.47a.75.75 0 0 1 -.64 0c-.23-.11-.14-.3-.08-.46a3 3 0 0 0 -.19-2.42z" fill="#636363"/><path d="m81.84 49.39c0-.1 0-.2 0-.3-.14-1.32.24-1.78 1.59-1.83a4.86 4.86 0 0 1 1 .07 2 2 0 0 1 1.41 2.81 1.58 1.58 0 0 0 -.27 1c.12.55-.25.65-.6.65a3.63 3.63 0 0 1 -2.39-.6 2.37 2.37 0 0 1 -.74-1.8zm2.79-1.24a.86.86 0 0 0 -1.06-.45c-.32.09-.71.12-.69.59a5 5 0 0 0 .77 2.65c.22.31.57.42.77 0a3.55 3.55 0 0 0 .58-1.59 4.35 4.35 0 0 0 -.37-1.2z" fill="#636363"/><path d="m81.11 84.23a1.47 1.47 0 0 1 1.31-.53c.55.06.64.55.79 1a8.47 8.47 0 0 1 .37 3.35 1 1 0 0 1 -.29.75 2.79 2.79 0 0 1 -.24.9c-.15.21-.23.51-.56.46a.65.65 0 0 1 -.52-.59.93.93 0 0 1 0-.23v-.19a8 8 0 0 0 -.29-3.83.15.15 0 0 0 -.16 0c-.13.07-.18.23-.31.28s-.32.32-.53.12a.52.52 0 0 1 -.12-.66c.2-.27.24-.65.55-.83z" fill="#686868"/><path d="m81.11 84.23c-.15.4-.56.74-.36 1.3.34-.21.3-.65.61-.81.25.11.22.29.15.5a5.4 5.4 0 0 0 .11 3.3c.11.4.42.55.7.76.08.25-.25.67.21.74s.43-.35.55-.61a5.46 5.46 0 0 0 .21-.61 1.22 1.22 0 0 1 -.52 1.32c-.43.26-.89-.07-1.27-.31a1.72 1.72 0 0 1 -.73-1 11.31 11.31 0 0 1 -.33-3.47 1.3 1.3 0 0 1 .67-1.11z" fill="#9e9e9e"/><g fill="#1d1d1b" font-family="BaskervilleMTPro-Regular, Baskerville MT Pro" font-size="10"><text transform="translate(43.55 132.6)">d<tspan letter-spacing="-.01em" x="5.21" y="0">a</tspan><tspan x="9.8" y="0">y</tspan></text><text transform="translate(183.67 132.6)">ni<tspan letter-spacing=".01em" x="7.81" y="0">g</tspan><tspan x="12.6" y="0">ht</tspan></text></g></svg>