<svg viewBox="0 0 159.44 160.66" xmlns="http://www.w3.org/2000/svg"><path d="m34.93 103.93a20.24 20.24 0 0 1 -.24-2c0-.68-.07-1.36-.06-2s.08-1.36.14-2a15.46 15.46 0 0 0 .07-2c.14-.64.25-1.29.36-1.94v-.05a33.31 33.31 0 0 1 2.31-3.44c.45-.46.91-.92 1.39-1.36.63-.45 1.29-.86 2-1.25l.5.07a.05.05 0 0 1 0 0s0 0 0 0l-.5.07h.06c-.55.55-1.12 1.08-1.7 1.58-.41.5-.83 1-1.27 1.47-.41.55-.83 1.08-1.26 1.62s-.83 1.09-1.27 1.62v-.08c-.21.62-.44 1.24-.63 1.88a15.46 15.46 0 0 0 .07 2c.06.68.15 1.36.15 2s0 1.36-.07 2a20.21 20.21 0 0 1 -.23 2s0 0 0 0a0 0 0 0 1 .18-.19z" fill="#464646"/><path d="m19.57 86.12a20.78 20.78 0 0 1 -1.17 1.72.12.12 0 0 1 0 0c-.67.39-1.36.73-2 1.08l-.15-.65c.47 0 .94 0 1.42.06a.11.11 0 0 1 .08 0l1 .57a26.72 26.72 0 0 0 2.47 1.79l1 1c.38.59.74 1.18 1.09 1.79a.23.23 0 0 1 0 .14c.05 1.37.08 2.74 0 4.12s-.14 2.74-.33 4.12a0 0 0 0 1 0 0c-.2-1.38-.26-2.75-.33-4.12s0-2.75 0-4.12v.16c-.31-.62-.62-1.25-.9-1.89l-.82-.89a16.7 16.7 0 0 0 -2.53-1.7l-1-.42h.13c-.48 0-.95 0-1.42 0a.34.34 0 0 1 -.34-.33.34.34 0 0 1 .19-.31c.7-.32 1.4-.65 2.12-.92l-.08.06c.48-.5 1-1 1.5-1.45a0 0 0 0 1 .05 0 0 0 0 0 1 .02.19z" fill="#464646"/><path d="m14.3 88.89c-.67.06-1.34.09-2 .13-1-.13-2-.24-3-.39h-.08l-2.58-1.32-.1-.07c-.51-.6-1-1.18-1.51-1.79l-1.4-1.89c-.35-.74-.71-1.48-1.1-2.2-.31-.87-.66-1.72-1-2.58-.32-1-.67-2-1-3-.16-1-.29-2-.43-3v-3a.17.17 0 0 1 0-.07c.24-1.07.5-2.13.76-3.19s.61-2.11 1-3.15a.08.08 0 0 0 0 0c.48-.82.93-1.65 1.41-2.46l1.3-1.2 1.05-.77h.06l.92.06s0 0 0 0a0 0 0 0 1 0 0l-.92.06h.06l-1 .89-1.18 1.05v-.06c-.4.85-.84 1.69-1.25 2.54v-.06c-.26 1-.6 2.08-.82 3.15s-.49 2.15-.74 3.2v-.09l-.05 3c.08 1 .17 2 .24 3 .27 1 .53 2 .82 3 .32.87.64 1.74 1 2.59.39.72.81 1.43 1.23 2.13l1.51 1.65c.49.6 1 1.16 1.55 1.74l-.05-.07 2.48 1.37h-.09c1 .19 2 .41 3 .62.66 0 1.33.08 2 .14s-.08.03-.09.04z" fill="#464646"/><path d="m35.4 85.07c.45.29.89.6 1.33.91.4.14.79.3 1.19.45l1.52.44h-.14c1.52 0 3.05-.08 4.58 0h-.1c1-.32 2-.59 3-.88.46-.31.91-.63 1.36-1 .46-.49.91-1 1.34-1.49.93-1.33 1.76-2.72 2.62-4.09l.85-2.15.72-2.2q.22-1.29.48-2.58v.07-1.91.06l-.28-2-.45-2-.47-2-.65-1.55s0 0 0 0a0 0 0 0 1 0 0l.85 1.45c.46 1.27.89 2.56 1.25 3.87l.39 2v.07 1.91.08c-.17.86-.34 1.72-.52 2.58l-.8 2.19-1 2.13c-1 1.31-2 2.58-2.88 3.91-.46.49-.89 1-1.33 1.51-.44.33-.87.68-1.3 1-1 .37-2 .77-3 1.12h-.1c-1.53 0-3.06 0-4.58 0h-.09l-1.48-.56c-.38-.19-.77-.36-1.14-.56-.39-.36-.79-.72-1.17-1.09a0 0 0 0 1 0-.06z" fill="#464646"/><path d="m5.77 57.91c.21-.29.45-.56.67-.83.24-.25.5-.49.74-.73.5-.26 1-.51 1.51-.74l1.31-.72a.28.28 0 0 1 .15 0h1.17-.12c.54-.18 1.08-.33 1.62-.49h.08c.47 0 .94.07 1.42.09.5-.09 1-.19 1.5-.31h1.5.05l1.11.36c.46.11.92.19 1.37.32l1.35.4 1.34.56c.42.12.84.25 1.26.4h.09c.42.27.83.56 1.24.85l-.13-.07c.42.2.82.41 1.23.62l1.05.88.84 1.31s0 0 0 0c.07.5.14 1 .19 1.53s0 0 0 0q-.25-.72-.48-1.47v.07l-1-1.19.17.25-1.12-.79h.07c-.43-.18-.86-.35-1.27-.54-.43-.27-.85-.54-1.26-.82h.09c-.41-.13-.83-.28-1.24-.43l-1.32-.61-1.31-.49-1.31-.46-1.06-.47h.06c-.5 0-1 0-1.5 0-.5.1-1 .22-1.49.35-.48 0-1 .06-1.42.08h.08c-.52.22-1 .47-1.55.67h-.09c-.39 0-.78 0-1.17 0h.16l-1.35.62c-.52.22-1 .41-1.57.6h.05c-.28.2-.55.41-.84.61-.27.22-.54.45-.83.67a0 0 0 0 1 -.05 0 0 0 0 0 1 .01-.08z" fill="#464646"/><path d="m28.43 59.24c.62-.93 1.3-1.8 2-2.66a25.63 25.63 0 0 1 2.65-1.73h.1c.56-.11 1.11-.2 1.68-.28h.14c1.22.06 2.45.17 3.67.17s2.44 0 3.67-.11c.76.12 1.52.25 2.28.4h.05l1.68.63 1.68.91c.56.32 1.08.69 1.61 1a19.53 19.53 0 0 1 1.52 1.35c.5.47 1 1 1.41 1.49a.1.1 0 0 1 0 .07l.43 1.32s0 0 0 0l-.12 1.5s0 0 0 0l-.13-1.5-.49-1.22.06.09c-.51-.44-1-.92-1.5-1.34s-1-.82-1.57-1.24c-.54-.32-1-.69-1.59-1l-1.63-1-1.65-.7c-.75-.19-1.49-.38-2.23-.6-1.23-.07-2.45-.11-3.67-.11s-2.45.11-3.67.17h.19c-.55.15-1.1.28-1.66.39h.11c-.45.27-.91.51-1.36.77l-1.31.99c-.78.78-1.53 1.58-2.34 2.34s-.02-.09-.01-.1z" fill="#464646"/><path d="m24.42 64.76c.07 1 .13 2.09.16 3.13s.09 2.08.09 3.12a.29.29 0 0 1 -.29.3.24.24 0 0 1 -.18-.07l-1.43-1.15c-.51-.32-1-.62-1.52-1l-1.48-1h.17-1.58.09l-1.27.42h.07l-1 .88v-.06c-.19.44-.35.88-.53 1.32v1.75l-.3 2.25.12 3.75-.08-.19.86.81h-.05l.67.4h-.16 1-.11l1-.35-.16.11.74-.92-.05.08.65-1.51a.38.38 0 0 1 .09-.13l1.06-1.07a.35.35 0 0 1 .13-.08l1.08-.32a.39.39 0 0 1 .35 0l1.65 1.17a.43.43 0 0 1 .11.12l.68 1.23a.42.42 0 0 1 0 .1l.29 1.67v.07c0 1.3-.07 2.61-.12 3.91-.15.61-.32 1.21-.5 1.81l-.49 1.31a0 0 0 0 1 -.05 0s0 0 0 0l.34-1.36c.1-.62.21-1.23.33-1.85-.05-1.3-.1-2.61-.12-3.91v.06l-.32-1.56v.11l-.64-1.11.11.13-1.68-1.16h.34l-1.08.34.14-.08c-.36.31-.72.62-1.09.91l.11-.13-.69 1.49-.05.07-.76.91a.39.39 0 0 1 -.15.11l-1 .32h-.09-1a.37.37 0 0 1 -.15 0l-.68-.48s0 0 0 0l-.81-.85a.22.22 0 0 1 -.07-.17l.12-3.75.36-2.25c0-.59 0-1.17 0-1.75.16-.45.33-.89.48-1.34l1-1h.05l1.23-.5h.07 1.58a.35.35 0 0 1 .18 0c1 .67 2 1.3 3 2l1.4 1.19-.48.22c0-1 .05-2.08.09-3.12s.09-2.08.16-3.13a0 0 0 0 1 .06-.22z" fill="#464646"/><path d="m34.26 85.69-.48-1.82-1.06-1.87-.95-2-.54-2.16a.32.32 0 0 1 0-.17l.56-1.09a.23.23 0 0 1 .16-.13l.83-.25a.25.25 0 0 1 .19 0l1 .41a.15.15 0 0 1 .07 0l1.09.83.84.41h-.2l.92-.17h-.13l1-.68-.09.1.53-.84v.18-3.75.13l-.53-1.17-1-1.52-.9-.85.16.06h-1.41.1l-.93.48-1.93 1.88a.13.13 0 0 1 -.2 0 .14.14 0 0 1 0-.1c0-2.06 0-4.11 0-6.17l.39-1.43a.13.13 0 0 1 .05-.07l.91-.68c.49-.48.94-1 1.39-1.51l1.25-.74 1.26-.66h.06l1.92-.36h2.58.07l1.84.39h.06l1.88.89a.22.22 0 0 1 .09.07l1.22 1.25 1.26 1.58a.21.21 0 0 1 0 .06l.59 1.25.85 1.41a.05.05 0 0 0 0 0l.66 1.5v.08l.41 1.83a.28.28 0 0 1 0 .09v3.08a.28.28 0 0 1 0 .09l-.42 1.79a.11.11 0 0 1 0 0l-1 2.53a.41.41 0 0 1 -.05.09l-1.13 1.48-1.32 1.36c-.58.36-1.14.73-1.73 1.07l-1.73 1-1 1.06a.2.2 0 0 1 -.08 0c-1.09.4-2.21.75-3.32 1.08l-2.2-.07a0 0 0 0 1 0 0s0 0 0 0l2.2-.07c1.09-.41 2.18-.83 3.26-1.26h-.08l1-1.1 3.38-2.22h-.06l1.18-1.29 1.18-1.47v.1l1-2.55.41-1.79v-2.86l-.42-1.83v.08l-.66-1.5-.83-1.42-.68-1.25.05.07-1.2-1.58-1.2-1.25.1.07-1.87-.94h.07l-1.82-.44h.06-2.58l-1.92.31h.06l-1.27.61-1.18.64h.05c-.48.5-.94 1-1.45 1.48l-.92.65v-.07l-.43 1.42v6.17l-.25-.1 1.89-2 .9-.52a.19.19 0 0 1 .1 0h1.41a.23.23 0 0 1 .16.06l.94.82 1.3 1.43.55 1.16a.27.27 0 0 1 0 .12v3.75a.41.41 0 0 1 -.05.19l-.55.82-.09.09-1 .66h-.12l-.92.16a.3.3 0 0 1 -.19 0l-.8-.29-1.08-.84h.07l-1-.42h.18l-.83.24.16-.14-.6 1.08v-.18l.46 2.17.86 2 .95 2 .36 1.84s0 0 0 0-.1-.04-.1-.06z" fill="#464646"/><path d="m23 86.14-.75.06h.07l-.63.64-.81.46h-.08-.54a.28.28 0 0 1 -.13 0l-.65-.47h.05l-1-.47h.14-1.42a.2.2 0 0 1 -.11 0c-.33-.13-.67-.26-1-.41-.65-.2-1.32-.36-2-.59l-1.92-.72h-.05c-.61-.46-1.25-.87-1.88-1.31a0 0 0 0 1 0 0c-.51-.56-1-1.1-1.55-1.65s-1-1.13-1.51-1.69c-.32-.85-.64-1.71-.93-2.58l-.87-2.71a.31.31 0 0 1 0-.08c0-.86 0-1.72 0-2.58s0-.05 0-.07l.46-2.32.64-1.9a.25.25 0 0 1 0-.07c.37-.48.76-1 1.14-1.42s.72-1 1.09-1.46l.87-.36s0 0 0 0a0 0 0 0 1 0 0l-.8.48c-.3.54-.59 1.08-.91 1.6s-.67 1-1 1.52v-.09l-.52 1.94v-.05l-.38 2.35v-.19 2.58-.1l.65 2.65c.23.88.51 1.74.74 2.62v-.07l.67.91c.23.3.44.61.69.89.5.56 1 1.13 1.5 1.69.65.4 1.29.82 2 1.19l2 .53c.66.15 1.32.33 2 .49l1 .42h-.12 1.42a.27.27 0 0 1 .12 0l1 .52.6.53h-.15.54-.09l.85-.38.71-.54a0 0 0 0 1 .05 0l.75.06a0 0 0 0 1 0 0s.05.14.05.15z" fill="#464646"/><path d="m8 64.75a9.61 9.61 0 0 1 .61-1.55 8.09 8.09 0 0 1 1.23-1.2c.36-.18.73-.34 1.09-.53a8.83 8.83 0 0 0 1.89-.83h.18a23 23 0 0 1 2.34-.16h.1a15.85 15.85 0 0 1 1.81.57h.06a.25.25 0 0 1 .12.11 13.64 13.64 0 0 1 .85 1.66s0 0 0 0a15 15 0 0 1 -1.31-1.34l.17.13c-.62-.12-1.24-.25-1.85-.43h.11c-.78 0-1.56 0-2.34-.16h.09a9.33 9.33 0 0 0 -2 .66c-.31.26-.6.54-.91.8a9.24 9.24 0 0 1 -1.17 1.17v-.06a9 9 0 0 1 -1.05 1.28 0 0 0 0 1 -.06 0 0 0 0 0 1 .04-.12z" fill="#464646"/><path d="m18.21 61.23a3.94 3.94 0 0 1 1.67-.3 6.11 6.11 0 0 1 .83.17 2.64 2.64 0 0 0 .84 0c.29 0 .59 0 .89.08h.05l.07.06a8.18 8.18 0 0 1 .64.53v.06a10.52 10.52 0 0 1 .59 1.27v.08a.2.2 0 0 1 0 .07 6.47 6.47 0 0 1 -.27 1 0 0 0 0 1 -.06 0s0 0 0 0a5.51 5.51 0 0 1 -.27-1v.15a4.29 4.29 0 0 1 -.74-1.23l.07.1c-.18-.21-.36-.42-.53-.64l.13.08-.78-.42a2.64 2.64 0 0 0 -.84 0 6.11 6.11 0 0 1 -.83.17 3.94 3.94 0 0 1 -1.67-.3 0 0 0 0 1 0 0s.2.07.21.07z" fill="#464646"/><path d="m25.08 62.74a.77.77 0 0 1 .42.14.38.38 0 0 1 .19.31v.16c-.13.16-.23.33-.12.5a1.14 1.14 0 0 1 .21.5l-.7-.18a.69.69 0 0 1 .23-.38 1.13 1.13 0 0 1 .49-.25s0 0 .06 0a1.09 1.09 0 0 1 .07.54.63.63 0 0 1 -.19.41l-.12.12a.36.36 0 0 1 -.49 0 .32.32 0 0 1 -.09-.26 1.3 1.3 0 0 1 .22-.5c.1-.17 0-.34-.12-.5v.16a.38.38 0 0 1 -.23-.28.67.67 0 0 1 0-.44.06.06 0 0 1 .17-.05z" fill="#464646"/><path d="m31 57.18-.63-6.65v-4.54l.11-4.55a.09.09 0 0 1 0-.05c.38-1.52.79-3 1.25-4.53s.9-3 1.38-4.5l1.55-3.36.42-1.33 1.43-3.33v.13-1l.15.27-.41-.25.38-.05c-.35.35-.7.72-1 1.08a1.66 1.66 0 0 0 -.36.53c-.11.27-.21.48-.32.72a24.64 24.64 0 0 0 -1.22 2.74c-.39 1-.83 1.85-1.26 2.77l-1.26 2.72-.95 4a.14.14 0 0 1 -.16.11.16.16 0 0 1 -.11-.13l-.3-4.29c-.12-1.44-.29-2.86-.43-4.29v-2.53l-.52-3.08-.85-1.74h.32l-.65 2.17-.28 3.85-.08 3.83v1.92c0 .64.11 1.28.17 1.92l.37 3.83a.32.32 0 0 1 -.3.36.33.33 0 0 1 -.36-.25l-1-4v.06l-1.08-2.45c-.36-.82-.78-1.62-1.17-2.43s-.77-1.62-1.17-2.4a10 10 0 0 0 -.66-1.12l-.15-.18a2.64 2.64 0 0 1 -.29-.29 1.42 1.42 0 0 1 -.36-.85l.05.2-1.37-2.34.12.12-2-1 .45-.62c.37.39.73.78 1.09 1.19.17.2.35.4.52.62s.17.22.25.34l.13.22a.73.73 0 0 1 .07.2.69.69 0 0 1 0 .25s0 .13.06.21l.12.36.29.73c.2.48.41 1 .62 1.44a.19.19 0 0 1 0 .07l.66 2.66 1.67 4.33c.2.71.42 1.43.65 2.13.11.35.23.7.36 1a3.3 3.3 0 0 0 .22.46s.06.08 0 0 .14.05.16.11a.84.84 0 0 1 .21.35 10 10 0 0 1 .26 2.31l.12 2.24-.16 2.53-.08 1.27c0 .42.06.84.08 1.26.15 1.67.17 3.39.25 5.08l-.46 2.66s0 0 0 0l-1 1.35s0 0 0 0a0 0 0 0 1 0-.05l1-1.4.36-2.67c-.14-1.69-.22-3.37-.39-5.08 0-.42-.09-.85-.11-1.27l.06-1.28.11-2.55-.16-2.24a10.09 10.09 0 0 0 -.41-1.89.3.3 0 0 0 -.07-.13h-.07c-.15-.11-.13-.14-.18-.19a5.59 5.59 0 0 1 -.27-.56c-.15-.35-.28-.71-.4-1.06-.25-.72-.48-1.43-.7-2.15l-1.7-4.32a.08.08 0 0 1 0 0l-.67-2.67v.07c-.22-.49-.43-1-.64-1.47l-.3-.84-.14-.39a1.32 1.32 0 0 1 -.09-.56s.05-.17 0-.13a.25.25 0 0 0 0 .15l-.06-.07c-.06-.09-.14-.19-.22-.29s-.32-.4-.49-.59c-.35-.39-.71-.78-1.07-1.16a.39.39 0 0 1 0-.55.4.4 0 0 1 .45-.07l2 1a.46.46 0 0 1 .16.15l1.38 2.33a.41.41 0 0 1 .05.18 1 1 0 0 0 .18.36l.19.19a1.56 1.56 0 0 1 .28.32 9.61 9.61 0 0 1 .71 1.22c.41.82.77 1.64 1.17 2.44s.79 1.61 1.15 2.44l1.08 2.47a.14.14 0 0 1 0 .06l1 4-.67.11-.3-3.87c0-.65-.11-1.29-.14-1.94l.07-1.93.14-3.87.36-3.85a.09.09 0 0 1 0-.05l.69-2.1a.17.17 0 0 1 .21-.11.17.17 0 0 1 .11.09l.8 1.72s0 0 0 0l.48 3.09v2.52l.43 4.28.34 4.3h-.28l.89-4a0 0 0 0 1 0 0l1.14-2.83c.41-.92.83-1.84 1.18-2.76a24 24 0 0 1 1.16-2.81c.1-.22.21-.47.28-.67a2.54 2.54 0 0 1 .46-.73c.33-.4.68-.76 1-1.13a.32.32 0 0 1 .38-.05l.42.25a.34.34 0 0 1 .15.27v1a.25.25 0 0 1 0 .12l-1.4 3.34-.42 1.34-1.51 3.32c-.49 1.48-1 3-1.42 4.47s-.88 3-1.29 4.5v-.06l-.14 4.54-.14 4.54.37 6.68s0 0 0 0a0 0 0 0 1 -.08-.04z" fill="#464646"/><path d="m23.93 28.77a11.83 11.83 0 0 1 -.39-1.5 13.71 13.71 0 0 1 -.26-1.56 19.1 19.1 0 0 1 .22-3.12 13.92 13.92 0 0 0 .14-1.42.14.14 0 0 1 .14-.14.17.17 0 0 1 .13.1c.29 1 .64 1.92.87 2.91a29.49 29.49 0 0 1 .61 3v-.09c.24.57.49 1.14.69 1.73.07.4.12.8.17 1.21a0 0 0 0 1 0 0s0 0 0 0c-.18-.37-.35-.74-.5-1.12-.34-.52-.65-1.06-1-1.6 0 0 0 0 0-.05a24.66 24.66 0 0 1 -.61-3l-.25-1.49-.2-1.51h.28a13.55 13.55 0 0 0 -.17 1.41c0 .52.08 1 .12 1.55s.06 1 .07 1.52.08 1 .08 1.52a13.71 13.71 0 0 1 0 1.57 0 0 0 0 1 0 0s-.14.09-.14.08z" fill="#464646"/><path d="m30.09 29.92a14.63 14.63 0 0 1 .39-2.57 9.82 9.82 0 0 1 .77-1.84v-.05a10.1 10.1 0 0 0 1.39-1.92.15.15 0 0 1 .2-.06.14.14 0 0 1 .08.12c.06.65.15 1.3.18 2v.08l-.31 1.47c-.11.49-.24 1-.39 1.45a21.88 21.88 0 0 1 -.92 2.88 0 0 0 0 1 -.05 0s0 0 0 0a20.42 20.42 0 0 1 .26-3c.1-.49.21-1 .35-1.47l.43-1.45v.09c0-.66.13-1.31.18-2l.29.09a9.7 9.7 0 0 0 -1.29 2v-.05a10.5 10.5 0 0 1 -.57 1.91 14.59 14.59 0 0 1 -.94 2.42 0 0 0 0 1 -.06 0 .05.05 0 0 1 .01-.1z" fill="#464646"/><path d="m10.43 54.26a4.86 4.86 0 0 1 -.3-1.66v-.07a5.82 5.82 0 0 1 .44-1.25 3.83 3.83 0 0 0 .19-1.3 9.07 9.07 0 0 1 .24-.98c.1-.28.2-.57.32-.86a7.38 7.38 0 0 1 .72-.87l.05-.06a.24.24 0 0 1 .22-.08 7.92 7.92 0 0 1 1.33.29.05.05 0 0 1 0 0s0 0 0 0a8 8 0 0 1 -1.33.3l.27-.14a7.7 7.7 0 0 1 -.61.95v-.07c-.14.28-.29.54-.43.81a6.44 6.44 0 0 1 -.5.78v-.05a4.12 4.12 0 0 0 -.3 1.28 5.85 5.85 0 0 1 -.07 1.33v-.01a5.39 5.39 0 0 1 -.3 1.66s0 0-.05 0 .11.02.11 0z" fill="#464646"/><path d="m12.05 54.26a3 3 0 0 1 0-1.11 3 3 0 0 1 .36-1 3.33 3.33 0 0 0 .2-1.1 4.78 4.78 0 0 1 .15-1.05v-.06a4.29 4.29 0 0 1 .69-1.11l.08-.09a3.1 3.1 0 0 1 .7-.13s0 0 0 0a0 0 0 0 1 0 0 3.44 3.44 0 0 1 -.46.53l.1-.11a4.18 4.18 0 0 1 -.47 1.22v-.05a6.24 6.24 0 0 1 -.48 1 1.55 1.55 0 0 0 -.32 1 2 2 0 0 1 0 1.13 2.61 2.61 0 0 1 -.54 1s0 0-.06 0z" fill="#464646"/><path d="m41.51 54.25a1.85 1.85 0 0 1 0-.85 1.74 1.74 0 0 1 .14-.38c.08-.11.18-.22.27-.33v.07a1.19 1.19 0 0 0 0-.85 3.25 3.25 0 0 1 -.19-.85 2.49 2.49 0 0 1 0-.86 2.92 2.92 0 0 1 .31-.85 0 0 0 0 1 .06 0 2.92 2.92 0 0 1 .31.85 2.49 2.49 0 0 1 0 .86 3.23 3.23 0 0 1 -.18.85 1.19 1.19 0 0 0 0 .85v.08a3 3 0 0 1 0 .42 1.28 1.28 0 0 1 -.14.37 1.89 1.89 0 0 1 -.56.65s0 0-.06 0z" fill="#464646"/><path d="m43.59 54.26a2.82 2.82 0 0 1 -.3-1.31c0-.44.28-.87.22-1.31s-.23-.88-.24-1.31a4.11 4.11 0 0 1 0-1.31l.09.22a4.16 4.16 0 0 1 -.45-1s0 0 0 0a3.93 3.93 0 0 1 .89.55.19.19 0 0 1 .07.11l.13.1a4.11 4.11 0 0 1 0 1.31c0 .43-.2.87-.23 1.31s.23.89.23 1.38a2.69 2.69 0 0 1 -.29 1.31 0 0 0 0 1 -.06 0s-.05-.04-.06-.05z" fill="#464646"/><path d="m14.74 37.33c-.08.27-.18.52-.28.78-.06.51-.15 1-.25 1.49a10.22 10.22 0 0 1 -.21 1.16 11.26 11.26 0 0 0 -.34 1.17 10 10 0 0 0 0 2.5c.09.37.18.73.24 1.1s.13.73.2 1a6.46 6.46 0 0 0 .23 1c.12.37.23.74.33 1.12.08.47.16.93.21 1.41v-.06c.16.39.3.78.42 1.18s0 0 0 0c-.27-.32-.51-.65-.75-1-.17-.45-.32-.9-.46-1.35-.14-.34-.26-.67-.38-1a4.88 4.88 0 0 1 -.22-1.16 15.26 15.26 0 0 1 -.15-2.29 10.45 10.45 0 0 0 0-2.5 9.32 9.32 0 0 1 .07-1.28 10.17 10.17 0 0 1 .2-1.23c.15-.48.31-1 .5-1.42.18-.21.35-.43.55-.63h.05s.05-.01.04.01z" fill="#464646"/><path d="m14.41 39.37a11.78 11.78 0 0 1 .88 1.37 16.6 16.6 0 0 1 .54 1.69 15.26 15.26 0 0 1 .17 1.83 9.16 9.16 0 0 0 .37 1 11.38 11.38 0 0 0 .49 1.46c.22.47.41.94.6 1.42v.05l.21 1.08v.06a18 18 0 0 1 0 2.08.19.19 0 0 1 0 .1l-.19.36a.28.28 0 0 1 -.28.15h-.63-.05a.21.21 0 0 1 -.22-.02c-.35-.48-.71-1-1-1.46a0 0 0 0 1 0 0 17 17 0 0 1 1.39 1.12l-.21-.09h.63l-.3.19.14-.38v.14a18 18 0 0 1 0-2.08v.06l-.12-1.09c-.13-.5-.26-1-.36-1.51s-.16-1-.3-1.52a9.11 9.11 0 0 0 -.47-1c-.16-.56-.34-1.11-.47-1.68a16.37 16.37 0 0 1 -.41-1.71 13.75 13.75 0 0 1 -.45-1.55s0 0 0 0z" fill="#464646"/><path d="m14.83 38c.26.28.5.57.73.86s.48.58.7.88.42.64.61 1 .33.68.48 1v1.35a11 11 0 0 0 .32 1.08c.13.34.25.73.38 1.11v.14.07c0-.14 0-.06 0-.06l.16.21.33.47a2.11 2.11 0 0 1 .25.58l.19.53c.09.38.17.77.24 1.16v.07c0 .82-.06 1.64-.14 2.46a.21.21 0 0 1 -.12.17l-.36.17h-.07-.42a.09.09 0 0 1 -.08 0c-.15-.22-.31-.44-.45-.67 0 0 0 0 0-.06.22.15.42.33.64.49h-.13l.42-.05h-.12l.31-.25-.12.23c-.07-.82-.13-1.64-.14-2.46v.07c-.07-.39-.14-.78-.19-1.17v-.38a4.89 4.89 0 0 0 -.14-.47l-.26-.49a2.1 2.1 0 0 1 -.13-.26.44.44 0 0 1 -.06-.2v-.18c-.06-.34-.09-.69-.17-1.06s-.18-.73-.29-1.08c-.08-.44-.2-.88-.3-1.32v.09a13.87 13.87 0 0 1 -1.17-1.9c-.19-.32-.37-.65-.54-1a8 8 0 0 1 -.44-1.05s0 0 0 0 .07-.08.08-.08z" fill="#464646"/><path d="m44.7 37.33c-.3.46-.62.89-.93 1.34v-.05l-.59 1.66c-.72 1.4-1.43 2.8-2.27 4.12-.61 1.3-1.26 2.58-1.8 3.91l-1.13 2v-.22l.56.31h-.1l1.88-.09h-.11l.62-.28-.13.1.34-.47c.46-.45.94-.86 1.41-1.29l-.07.09.56-1v.08c.17-.6.37-1.2.52-1.8s.31-1.21.45-1.82v-.12l.15-.37.1-.3.21-.86v.08c0-1.49.14-3 .27-4.46s0 0 0 0c.13 1.49.22 3 .27 4.46v.07l-.13.75a2.61 2.61 0 0 1 -.11.49l-.13.4v-.05c-.12.62-.23 1.25-.4 1.87s-.35 1.23-.55 1.83a.33.33 0 0 1 0 .06l-.6 1a.31.31 0 0 1 -.07.09l-1.46 1.21-.37.44a.25.25 0 0 1 -.12.08l-.63.23h-.1l-1.88-.1h-.08l-.52-.36a.16.16 0 0 1 0-.21c.44-.62.81-1.29 1.21-1.93.54-1.33 1-2.7 1.45-4 .36-.7.73-1.39 1.13-2.06s.78-1.36 1.19-2l.75-1.59c.39-.38.76-.78 1.15-1.16h.06a0 0 0 0 1 0-.08z" fill="#464646"/><path d="m43.63 38.22-.33.07h.07c-.09.13-.17.27-.27.39a13.9 13.9 0 0 1 -.73 1.24 7.46 7.46 0 0 1 -.62 1.23 13.67 13.67 0 0 0 -1.57 2.16l-1.18 2.3c-.17.6-.39 1.18-.58 1.77v-.11c0 .35 0 .7-.08 1v.05a13.78 13.78 0 0 1 -.49 1.54.05.05 0 0 1 -.05 0s0 0 0 0c0-.54 0-1.08 0-1.62 0-.34-.06-.69-.08-1v-.1c.08-.31.15-.62.25-.92s.22-.6.34-.89v-.06a12.1 12.1 0 0 1 .73-1.13l.96-1.08a7.61 7.61 0 0 0 .73-1.06c.21-.39.38-.8.58-1.2a7.07 7.07 0 0 1 .55-1.26c.29-.37.6-.74.93-1.09.12-.1.26-.18.39-.28l.33.07a.05.05 0 0 1 0 0s.13-.02.12-.02z" fill="#464646"/><path d="m19.31 68.41a6.51 6.51 0 0 1 .66-1l.06-.05a2.45 2.45 0 0 0 .29-.23s0 .09 0 .09v-.06-.23a4.88 4.88 0 0 1 .31-.91v.18c-.09-.31-.14-.63-.25-.93a5.39 5.39 0 0 0 -.65-.86l-.49-.74h.5c-.16.29-.34.56-.52.84l.07-.22a10.81 10.81 0 0 1 -.08 2.41l-.2-.27a1 1 0 0 1 .34.22l.1.1a.37.37 0 0 1 .05.11s0 .13 0 .06 0 0 0 0 .26.33.39.51a2.65 2.65 0 0 1 -.61-.3.39.39 0 0 1 -.18-.21c0-.09 0 0 0 0a0 0 0 0 1 0 0s0 0 0 0l-.23.08a.23.23 0 0 1 -.19-.2v-.08a11.43 11.43 0 0 1 -.07-2.41v-.06a.29.29 0 0 1 .07-.16c.21-.25.41-.51.64-.75l.06-.05a.26.26 0 0 1 .44.1l.26.85a4.81 4.81 0 0 0 .59.9c.14.29.34.55.5.82a.1.1 0 0 1 0 .07v.11a3.52 3.52 0 0 1 -.17.86l-.06.19a.93.93 0 0 1 0 .14.56.56 0 0 1 -.05.08.51.51 0 0 1 -.13.15 2 2 0 0 1 -.45.25h.07a5.9 5.9 0 0 1 -1 .67 0 0 0 0 1 -.05 0s-.02-.06-.02-.07z" fill="#464646"/><path d="m17.55 67.51a10.64 10.64 0 0 1 -1.21.22.16.16 0 0 1 -.12 0c-.19-.13-.36-.28-.54-.42a11.11 11.11 0 0 1 -1.05-.75.24.24 0 0 1 -.09-.22c0-.44.12-.88.17-1.33a.09.09 0 0 1 0-.06 7 7 0 0 0 .52-.57 6.54 6.54 0 0 0 .52-.4h.06.33c.39.15.79.29 1.18.46a.2.2 0 0 1 .11.09 11 11 0 0 1 .65 1.16c.07.18.12.36.18.54a.43.43 0 0 1 0 .12c0 .58 0 1.16-.1 1.74v.06a.3.3 0 0 1 0 .1l-.3.39c-.11.18-.21.37-.33.55a.11.11 0 0 1 -.11 0h-.25l.09-.05c-.07.09-.15.17-.23.26a0 0 0 0 1 -.05 0s0 0 0 0 .06-.22.1-.33a.1.1 0 0 1 .06 0h.25l.01-.07c.05-.21.11-.41.17-.62.07-.15.13-.3.2-.44v.15a16.9 16.9 0 0 1 -.09-1.74v.11c-.05-.18-.11-.36-.15-.54-.17-.4-.33-.8-.52-1.18l.14.14c-.37-.21-.71-.47-1.07-.71h.09-.33.08a6.42 6.42 0 0 0 -.56.34 5.5 5.5 0 0 0 -.47.61v-.1c.05.45.13.89.17 1.33l-.06-.35a11 11 0 0 1 1 .75c.15.16.31.32.46.5l-.17-.07a7.53 7.53 0 0 1 1.21.22s0 0 0 0 .06.11.05.11z" fill="#464646"/><path d="m16.09 70.06c-.08-.37-.14-.76-.19-1.15s-.07-.73-.09-1.08a9.37 9.37 0 0 1 -.29-1.16l.11.17c-.17-.14-.33-.31-.5-.47h.09c-.29-.1-.57-.23-.87-.33a5.31 5.31 0 0 0 -.69 0l-.51.29a3.12 3.12 0 0 0 -.32.4l-.29.45-.16.44c-.05.19-.1.38-.17.57v-.11.61l-.1-.24.35.36-.13-.1.71.28h-.15 1.5-.11l.69-.15a5.06 5.06 0 0 1 .55 0h-.08c.21-.08.41-.18.63-.25a.09.09 0 0 1 .1 0l.4.41s0 0 0 .06l-.52-.25h.15c-.17.15-.36.28-.54.42h-.08c-.17.05-.35.11-.53.15l-.65.26h-.1c-.5 0-1 0-1.5 0h-.15l-.7-.31a.31.31 0 0 1 -.11-.08l-.32-.39a.33.33 0 0 1 -.07-.21v-.61a.19.19 0 0 1 0-.08c.08-.18.16-.36.25-.54l.26-.4.38-.38c.13-.11.26-.22.39-.35a0 0 0 0 1 0 0l.53-.26h.05q.34 0 .69 0c.3 0 .61.08.92.12.19.12.4.22.58.36a.26.26 0 0 1 .11.14c.12.38.2.78.29 1.17v.06c0 .39-.05.8-.09 1.17s-.11.72-.19 1.09a.05.05 0 0 1 -.05 0s.53-.07.52-.08z" fill="#464646"/><path d="m14.59 72.93a5.62 5.62 0 0 1 -.16-.71c-.17-.42-.33-.83-.46-1.25l.08.14a7.65 7.65 0 0 1 -1-1.26c-.14-.1-.27-.21-.41-.3h-.22l-.33.17a7.33 7.33 0 0 0 -.71.76l-.24.42c-.08.18-.16.35-.25.53l.05-.18v.71l-.28-.37.5.11h-.1.88.06.59-.09l.49-.15a8.58 8.58 0 0 1 1.24-.16s0 0 .05 0a.05.05 0 0 1 0 0c-.36.22-.73.4-1.1.59l-.43.26-.58.13h-.05c-.29 0-.59 0-.88 0h-.08l-.5-.14a.35.35 0 0 1 -.25-.36v-.71a.33.33 0 0 1 0-.14l.34-.48.34-.34c.29-.2.59-.38.87-.58l.34-.16h.38s0 0 .05 0a3.9 3.9 0 0 0 .47.2 6.58 6.58 0 0 1 1.21 1.08.54.54 0 0 1 0 .11 6 6 0 0 1 .21 1.34 5.62 5.62 0 0 1 -.16.71.05.05 0 0 1 -.05 0s.19.04.18.03z" fill="#464646"/><path d="m14.27 74.25a4.53 4.53 0 0 1 -.77-.66l.08.07c-.18-.07-.37-.15-.55-.24h.16a3.72 3.72 0 0 1 -.94 0l.19-.07-.38.23a4.75 4.75 0 0 0 -1.24.76l-.21.29.06-.15c0 .21.08.42.1.63l-.17-.28.26.1.35.19-.19-.06a8.77 8.77 0 0 1 1.62 0h-.15l.48-.16-.11.09a3.73 3.73 0 0 1 .36-.32c.12-.1.22-.22.35-.31l.34-.11s0 0 0 0a2.91 2.91 0 0 1 -.24.27 5.51 5.51 0 0 1 -.45.87s0 0 0 0l-.07.05c-.14.09-.29.17-.44.25a.11.11 0 0 1 -.08 0h-.07a8.77 8.77 0 0 1 -1.62 0h.06a.34.34 0 0 1 -.14-.05l-.32-.23-.24-.15h-.05a.26.26 0 0 1 -.12-.24c0-.21.07-.42.1-.63v-.06a.1.1 0 0 1 .06-.08l.28-.22a3.21 3.21 0 0 0 1.17-.83l.28-.35a.2.2 0 0 1 .09 0h.1a3.72 3.72 0 0 1 .94 0 .28.28 0 0 1 .12 0 5.36 5.36 0 0 1 .49.34h.06a5.54 5.54 0 0 1 .4.93.05.05 0 0 1 0 0z" fill="#464646"/><path d="m15.09 77a4.52 4.52 0 0 1 -.61.15.13.13 0 0 1 -.13-.05v-.06c-.09-.13-.17-.26-.25-.39v.07q-.33-.27-.63-.57l.14.08a3.5 3.5 0 0 1 -.52-.17h.24c-.18.07-.37.12-.55.17l.11-.1a6.16 6.16 0 0 0 -.53.73q-.21.39-.39.81l-.12.65v-.08.38-.14c.09.13.16.27.24.4l-.09-.19.26.15-.2-.06h.58-.09c.23-.06.45-.13.69-.17l-.2.11.38-.35c.14-.16.28-.31.43-.46v.09c.09-.22.21-.42.31-.64v.06c0-.22.1-.44.16-.67h.05a0 0 0 0 1 0 0 5.89 5.89 0 0 1 .16.67v.06c0 .23-.06.47-.1.7v.07c-.1.18-.21.36-.32.54-.11.14-.22.26-.33.39a.42.42 0 0 1 -.16.11l-.69.16h-.09-.58a.38.38 0 0 1 -.16-.06l-.24-.18a.39.39 0 0 1 -.08-.1c-.06-.15-.12-.29-.17-.44v-.07-.06l.05-.38v-.07l.3-.59a5.13 5.13 0 0 0 .76-1.62.07.07 0 0 1 0-.06h.07a5 5 0 0 1 .48-.32.34.34 0 0 1 .2 0 4.51 4.51 0 0 1 .52.17.21.21 0 0 1 .11.07c.19.22.37.44.54.68l.12.44-.18-.11c.2.05.41.09.61.15a0 0 0 0 1 0 0s-.09.1-.1.1z" fill="#464646"/><path d="m15.28 78.76-.41.13a2 2 0 0 1 -.39.09l.24-.15c0 .15-.09.29-.14.44a4.48 4.48 0 0 1 -.49.88 7.05 7.05 0 0 0 -.62.82 1.38 1.38 0 0 0 -.17.25v-.16a2.39 2.39 0 0 0 .34.21h-.11l.5-.09h.09l.42.1h-.21l.67-.28-.23.19a5.43 5.43 0 0 1 .41-.84v.18a7.61 7.61 0 0 1 .21-1.42v.08zm0-.07a3.23 3.23 0 0 1 .34.37v.08a8.54 8.54 0 0 1 .21 1.42.25.25 0 0 1 0 .12 6.46 6.46 0 0 1 -.42.83.27.27 0 0 1 -.19.14l-.71.16h-.06a.22.22 0 0 1 -.16 0c-.12-.06-.24-.14-.37-.22h.1l-.5-.09h-.05a3.83 3.83 0 0 0 -.28-.29.12.12 0 0 1 0-.15l.17-.25a6.12 6.12 0 0 0 .32-1 2.89 2.89 0 0 1 .32-.81c.08-.13.15-.26.24-.39l.05-.07a.19.19 0 0 1 .18-.08l.43.08c.16.06.31.1.42.15z" fill="#464646"/><path d="m17.32 80a4.18 4.18 0 0 1 -.27.61v-.06a5.47 5.47 0 0 1 -.16.7 5.71 5.71 0 0 1 -.19.71v-.09a5 5 0 0 1 -.08.54v-.1c.05.21.08.43.14.63v-.06a3.87 3.87 0 0 0 .45.35h-.07c.3 0 .61-.08.92-.13l-.06-.1c.16-.1.31-.2.47-.28l-.1.07.38-.45-.06.08c.07-.15.14-.31.22-.47l-.05.19c0-.19 0-.39 0-.58v.11a14.5 14.5 0 0 1 -.27-1.49 4.79 4.79 0 0 1 -.21-.57s0 0 0 0a4.31 4.31 0 0 1 .46.39 7.32 7.32 0 0 1 .65 1.39.43.43 0 0 1 0 .05v.06a5.61 5.61 0 0 1 0 .58.34.34 0 0 1 -.05.17c-.09.15-.18.3-.28.45a.1.1 0 0 1 0 .05l-.45.38h-.07a4.58 4.58 0 0 1 -.53.14h-.09c-.31-.05-.62-.11-.92-.13h-.06a3 3 0 0 0 -.47-.32c-.11-.18-.24-.35-.36-.53v-.09a5 5 0 0 1 -.08-.54.07.07 0 0 1 0 0v-.05a5.73 5.73 0 0 1 .23-.7 4.77 4.77 0 0 1 .34-.63v-.07a3.67 3.67 0 0 1 .56-.38s0 0 .05 0 .02.11.01.17z" fill="#464646"/><path d="m19.58 78.72a4.18 4.18 0 0 1 .26 1.07 4.69 4.69 0 0 1 0 1.06l-.15-.26a5.71 5.71 0 0 1 .55.55h-.09a2.7 2.7 0 0 0 .75 0h-.08a4.94 4.94 0 0 0 .36-.44l-.05.08c.06-.26.1-.53.18-.78v.12c0-.34-.05-.68-.07-1v.13a5 5 0 0 1 -.19-.63l.09.14c-.15-.17-.3-.36-.44-.55-.1-.15-.17-.32-.26-.48a3.12 3.12 0 0 1 -.31-.49s0 0 0 0a0 0 0 0 1 0 0 3.54 3.54 0 0 1 .52.25 4.58 4.58 0 0 1 .42.35 6.12 6.12 0 0 1 .56.45.22.22 0 0 1 .07.09 5.19 5.19 0 0 1 .3.62.34.34 0 0 1 0 .1c0 .34-.05.68-.07 1v.06a.14.14 0 0 1 0 .06 5.84 5.84 0 0 1 -.41.68v.06c-.16.1-.32.2-.47.31a.11.11 0 0 1 -.07 0 2.7 2.7 0 0 0 -.75 0h-.05l-.7-.28a.23.23 0 0 1 -.13-.17v-.09a4.69 4.69 0 0 1 0-1.06 4.64 4.64 0 0 1 .26-1.07 0 0 0 0 1 0 0 0 0 0 0 1 -.03.12z" fill="#464646"/><path d="m34.3 68.81a3.68 3.68 0 0 1 -.16-.54l.06.13a6.79 6.79 0 0 1 -.67-.49.21.21 0 0 1 0-.06 4.59 4.59 0 0 1 -.26-.49.31.31 0 0 1 0-.13 2.5 2.5 0 0 1 .07-.54v-.1a5.15 5.15 0 0 0 .55-.77 4.16 4.16 0 0 0 .61-.71l.35-.24h.09l.42-.06a.26.26 0 0 1 .15 0l.22.15a.23.23 0 0 1 .07.07l.23.4a.36.36 0 0 1 0 .11v.06a5.06 5.06 0 0 1 0 .87.25.25 0 0 1 0 .12 5.57 5.57 0 0 1 -.5.85v.07l-.5.38a4.46 4.46 0 0 1 -.43.33s0 0-.06 0c.06-.18.13-.34.2-.5.11-.18.21-.36.33-.53v.06q.15-.45.33-.9v.16a8.42 8.42 0 0 1 0-.87v.16l-.18-.43.09.12-.19-.19.2.07a3 3 0 0 1 -.42-.06h.11l-.41.1h.06a5.35 5.35 0 0 0 -.72.62 8.6 8.6 0 0 0 -.29.9v-.12a2.5 2.5 0 0 1 .07.54v-.15a4.74 4.74 0 0 1 .24.51l.04-.25a6.86 6.86 0 0 1 .5.67v.07a.06.06 0 0 1 0 .07 3.68 3.68 0 0 1 -.16.54s0 0 0 0z" fill="#464646"/><path d="m36.34 69.31a6.82 6.82 0 0 1 -.19-.71v-.07a7.66 7.66 0 0 0 .09-.77 3.62 3.62 0 0 1 0-.87v-.07c.12-.28.26-.57.37-.86a3.85 3.85 0 0 0 .38-.52 3.78 3.78 0 0 0 .41-.39h.06.06l.42-.08a.19.19 0 0 1 .14 0h.06l.24.22.38.58a.28.28 0 0 1 .24.23v.4a.32.32 0 0 1 0 .14 5.89 5.89 0 0 1 -.34.66.27.27 0 0 1 -.07.08l-.83.62a7.8 7.8 0 0 1 -.57.58l-.29.1s0 0 0 0l.21-.24c.09-.26.2-.5.3-.75a8.91 8.91 0 0 1 .7-.8l-.09.12c.1-.23.22-.45.34-.67v.18-.4l.05.18c-.1-.21-.2-.42-.29-.63l-.17-.28.21.1-.42-.08h.11c-.17.09-.34.17-.5.27a5 5 0 0 0 -.37.53c0 .31 0 .63-.06.94v-.07a3.62 3.62 0 0 1 0 .87 1.3 1.3 0 0 1 -.13.5 3.75 3.75 0 0 1 -.19.41v-.16a4.93 4.93 0 0 1 -.18.71 0 0 0 0 1 -.05 0s-.02.01-.03 0z" fill="#464646"/><path d="m37.45 70.71a9.58 9.58 0 0 1 .49-2.39 5.61 5.61 0 0 1 .68-.92c.24-.33.47-.64.74-1a.64.64 0 0 1 .17-.13l.12-.07.24-.16a5.48 5.48 0 0 0 .46-.34h.06l.59-.06a.12.12 0 0 1 .1 0h.05l.55.4q.18.3.33.6a.27.27 0 0 1 0 .12v.54a.32.32 0 0 1 -.05.19l-.53.83a.38.38 0 0 1 -.14.14 11.91 11.91 0 0 1 -1.68.74h-.07a.17.17 0 0 1 -.1 0l-.6-.16h-.06s0 0-.05 0l-.21-.24v-.05c0-.19-.07-.38-.1-.58a0 0 0 0 1 0 0s0 0 0 0a5.29 5.29 0 0 1 .32.5v-.06l.28.17h-.11.63-.17c.52-.33 1-.62 1.55-.93l-.14.14a8.27 8.27 0 0 1 .59-.83l-.07.21v-.54.15c-.09-.22-.17-.43-.25-.65l.07.1-.24-.43.15.06-.59-.06h.09c-.19.1-.36.19-.54.3l-.25.16a.59.59 0 0 0 -.19.14 6.87 6.87 0 0 0 -.45 1.07 5.41 5.41 0 0 1 -.57 1v-.07a12.56 12.56 0 0 1 -1 2.19s0 0-.05 0-.05-.06-.05-.08z" fill="#464646"/><path d="m38 71.21c0-.24 0-.47.06-.71.2-.21.4-.4.61-.59.3-.13.6-.26.9-.37a6 6 0 0 1 .95-.35 10.5 10.5 0 0 0 1.12-.2h.59c.21.11.43.2.65.29l.19.19a.11.11 0 0 1 0 .08l.08.58v.06c0 .21-.07.43-.11.64a.25.25 0 0 1 -.08.14 12.82 12.82 0 0 1 -1.1 1l.14.03c-.26.09-.53.17-.8.24h-.11c-.31 0-.62 0-.92-.06h-.06a.26.26 0 0 1 -.2-.13c-.14-.23-.26-.48-.38-.72a1.65 1.65 0 0 1 -.28-.44.41.41 0 0 1 0-.28.78.78 0 0 0 0-.21s0 0 0 0a.68.68 0 0 1 .14.23c0 .12 0 .1.09.16s.22.19.33.27c.19.2.37.4.55.61l-.26-.14c.3 0 .61 0 .92-.06h-.12l.79-.26-.13.06c.19-.15.39-.27.59-.41l.56-.44-.1.17c.07-.21.14-.41.22-.61v.07l.08-.58v.12l-.14-.23h.05a4.67 4.67 0 0 0 -.6-.38h.06c-.17 0-.34 0-.5 0-.35.12-.69.3-1 .46a7 7 0 0 1 -.78.56c-.31.1-.61.21-.93.29h.07q-.35.22-.72.42l.06-.1a5.45 5.45 0 0 1 -.35.62 0 0 0 0 1 0 0 .08.08 0 0 1 -.13-.02z" fill="#464646"/><path d="m38.59 73.1c.19-.06.39-.09.58-.13h-.05a9.81 9.81 0 0 1 1.37-.6h.1a5.28 5.28 0 0 1 1.25.07h.08.08l.26.28.38.28.23.27c.05.14.1.28.16.41a.09.09 0 0 1 0 0c0 .34 0 .69.05 1v.05l-.16.4a.16.16 0 0 1 -.07.07h-.06c-.19.1-.39.2-.58.32h-.11a8.29 8.29 0 0 1 -.85.06h-.13l-.6-.2h.31l-.42.19a.37.37 0 0 1 -.15 0h-.37a.34.34 0 0 1 -.15-.06l-.25-.18a2.49 2.49 0 0 1 -.27-.28.37.37 0 0 1 -.07-.24v.09-.31l.07-.5v-.09a.08.08 0 0 1 0 0l.21-.22c.08-.14.16-.29.25-.42s0 0 .06 0 0 0 0 0c0 .17 0 .33-.06.49 0 .09-.08.18-.12.28v-.11l.08.5.07.23v.12s0 .1 0 0 .08.06.15.09l.21.12h-.19.37-.17l.41-.22a.37.37 0 0 1 .29 0c.21.06.4.14.6.21h-.12l.85.06h-.11c.23 0 .45-.06.67-.09l-.13.1.25-.35v.08c0-.35.05-.7.06-1-.05-.14-.1-.28-.16-.42-.08-.08-.18-.15-.27-.23l-.42-.13-.32-.19h.16a5.28 5.28 0 0 1 -1.25.07h.1a9.15 9.15 0 0 1 -1.47.31c-.19 0-.39-.07-.58-.13a.05.05 0 0 1 0-.05z" fill="#464646"/><path d="m38.59 75.52a5 5 0 0 1 .83-.2h.06a5.06 5.06 0 0 1 .68.09.19.19 0 0 1 .14.07 6 6 0 0 1 .57.66c.18.23.33.48.5.72a3.81 3.81 0 0 0 .23.45 0 0 0 0 1 0 .05 6.25 6.25 0 0 0 .11 1.29v.07l-.2.56a.26.26 0 0 1 -.29.17 2.28 2.28 0 0 1 -.45-.11 1.41 1.41 0 0 1 -.27-.14c-.13-.12-.15-.16-.2-.2s-.36-.37-.52-.57a.3.3 0 0 1 0-.08 6.5 6.5 0 0 1 -.36-.86v-.06a.28.28 0 0 1 0-.09 10.25 10.25 0 0 1 .31-1.71 0 0 0 0 1 .05 0 9.32 9.32 0 0 1 .22 1.8v-.15a8 8 0 0 1 .46.81l-.09-.09c.18.21.35.43.51.65 0 .06.1.13.07.1s0 0 .08.06l.31.13-.34.16.35-.48v.1a6.25 6.25 0 0 0 .11-1.29v.07a4.16 4.16 0 0 0 -.32-.39c-.24-.18-.49-.35-.72-.54a5.26 5.26 0 0 1 -.58-.67l.16.1c-.22-.07-.43-.15-.65-.24h.06a5 5 0 0 1 -.83-.21s0 0 0 0z" fill="#464646"/><path d="m37.46 77.73a3.3 3.3 0 0 1 .59-.16h.05.07a5.25 5.25 0 0 1 .61.38 5.6 5.6 0 0 1 .36.49.25.25 0 0 1 0 .07 3.34 3.34 0 0 1 .12.78v.06l-.09.46a4 4 0 0 0 -.25.65s0 0 0 0a4.21 4.21 0 0 0 -.28.45.09.09 0 0 1 -.08.06h-.06l-.54.09a.11.11 0 0 1 -.08 0h-.08a5.11 5.11 0 0 1 -.61-.35l-.72-.39a.36.36 0 0 1 -.17-.23 5.2 5.2 0 0 1 -.11-.51 2.63 2.63 0 0 1 0-.59.69.69 0 0 1 .18-.39l.18-.2a3.15 3.15 0 0 1 .38-.35 4.14 4.14 0 0 1 .53-.32zm0 .07c-.06.25-.09.47-.15.65l-.22.44-.1.21c0 .06-.06.17 0 .07l.2.87-.19-.22.66.49c.18.15.35.31.52.48h-.16l.54.09-.14.06a4.54 4.54 0 0 0 .38-.38 3.87 3.87 0 0 0 .17-.67l-.08-.46v.07a3.83 3.83 0 0 1 -.29-.73v.1c-.11-.17-.21-.34-.31-.52l.06.07a4.78 4.78 0 0 1 -.47-.54h.13z" fill="#464646"/><path d="m35.76 80c-.25.06-.34 0-.31 0s.13-.12.14-.15 0 0-.11 0-.21 0-.23-.06.07-.14.26-.28h.07c.24-.05.34 0 .39 0s0 .11-.11.21-.08.1 0 .11a1.62 1.62 0 0 0 .21 0c.07 0 0 .09-.19.25z" fill="#464646"/><path d="m148.66 75.89-.54.86-.38.85.07 2.16a.19.19 0 0 1 0 .08l-.56 1.1-.84 1.35-.6 1.34-.74 1.17a.3.3 0 0 1 -.08.08l-1.08.77h.05l-1.07 1.18c-.55.48-1.1 1-1.66 1.42l-1.1 1.07-1 .81c-.34.27-.72.5-1.09.75-.76.39-1.52.77-2.29 1.12l-.93.31h-.06c-1.33 0-2.67 0-4-.06h.06l-.84.41h-1.09c-.9-.34-1.81-.66-2.72-1a21.5 21.5 0 0 1 -2.66-1.14h.08-.58a.11.11 0 0 1 -.08 0l-1.09-.48-1.18-.65-1.18-.81h.26l-.66.26h-.07c-.9.1-1.77.22-2.65.38h-1.36a.37.37 0 0 1 -.15 0l-1.42-.73h-.06l-1.09-.91c-.72-.47-1.44-.94-2.17-1.39l-.5-.42.32.08-1.41.25a.38.38 0 0 1 -.26 0l-1.33-.75a.18.18 0 0 1 -.07-.05c-.51-.44-1-.9-1.52-1.34a17.83 17.83 0 0 1 -1.55-1.35.36.36 0 0 1 -.11-.25v-1.34a.36.36 0 0 1 .11-.24l1.1-1h.08l1.6-.64h-.06l1.49-1.14 1.61-1 .94-.89 1.37-.87 1.3-1.37a0 0 0 0 1 .06 0l-1.28 1.57-1.3 1-.89.95-1.54 1-1.48 1.12-1.57.7.09-.06-1.07 1 .11-.25v1.34l-.15-.24c.51.44 1 .89 1.56 1.3s1 .9 1.54 1.34h-.06l1.33.74h-.26l1.42-.26a.41.41 0 0 1 .32.09l.5.41c.73.47 1.45 1 2.16 1.44l1.07.92h-.06l1.41.76h-.17 1.12c.89-.14 1.79-.23 2.69-.29h-.08l.67-.23a.3.3 0 0 1 .26 0l1.15.86 1.15.69 1.08.52h.5.08c.42.22.84.45 1.27.66s.86.41 1.32.57c.9.31 1.8.65 2.7 1h.9l.83-.42h.06c1.33 0 2.67 0 4-.06h-.07l.91-.35c.75-.39 1.48-.81 2.22-1.22.34-.26.7-.49 1-.78l1-.82 1.08-1.09c.55-.48 1.11-1 1.67-1.41l1.1-1.15 1.09-.74-.08.09.76-1.16.65-1.32.9-1.31.61-1.07v.09l.07-2.16s0 0 0 0l.45-.81.62-.8a0 0 0 1 1 .06 0z" fill="#464646"/><path d="m115 69.34a16.57 16.57 0 0 1 1.86 1.38c.49.56 1 1.11 1.48 1.69a17.19 17.19 0 0 1 1.38 1.34 1.9 1.9 0 0 1 .29.46c0 .07.09.11.2.19a2.49 2.49 0 0 0 .76.32h-.08 1.42a.26.26 0 0 1 .15.07l1 .88h.35.45 1a1.69 1.69 0 0 1 .49.06l.13.06a.46.46 0 0 0 .19 0 4 4 0 0 0 .81-.39h.05l1.5-.11c.59 0 1.17.07 1.76.11h.92-.13l.82-.53a.18.18 0 0 1 .14 0 6.72 6.72 0 0 0 1 0 2.42 2.42 0 0 0 .38-.2l.46-.28c.61-.37 1.23-.75 1.86-1.11a.39.39 0 0 1 .18 0h.42l-.21.07.65-.47.83-.42-.12.1.58-.67h.06l2.53-2 .52-.56-.07.12c.16-.55.31-1.1.48-1.65a.25.25 0 0 1 .31-.16.25.25 0 0 1 .17.28c-.24 1.14-.51 2.26-.79 3.39a0 0 0 0 1 0 0s0 0 0 0c.11-1.15.23-2.3.38-3.45l.48.1c-.1.57-.23 1.13-.35 1.69a.37.37 0 0 1 0 .11l-.48.6c-.81.71-1.63 1.39-2.47 2.06h.06l-.59.66a.29.29 0 0 1 -.12.1l-.83.41-.67.45a.39.39 0 0 1 -.21.06h-.41.18c-.64.32-1.25.67-1.89 1l-.48.26a2.06 2.06 0 0 1 -.6.24 6.24 6.24 0 0 1 -1.16 0h.17l-.85.46a.18.18 0 0 1 -.1 0h-.92c-.58-.07-1.16-.16-1.74-.22l-1.5.06a4.54 4.54 0 0 1 -.85.44.89.89 0 0 1 -.26.07.42.42 0 0 1 -.18 0 .11.11 0 0 0 -.08 0 1.49 1.49 0 0 0 -.43 0 6.86 6.86 0 0 0 -.9.09c-.15 0-.31 0-.47.06h-.25-.22s0 0-.16-.08l-1-.78.19.06c-.48 0-1 0-1.42 0h-.08a3.46 3.46 0 0 1 -1-.39 1 1 0 0 1 -.43-.49 1.71 1.71 0 0 0 -.2-.33 17.11 17.11 0 0 0 -1.27-1.31c-.47-.59-.9-1.2-1.35-1.81-.27-.27-.54-.55-.8-.83l-.84-.79s0 0 0-.05-.08-.43-.08-.42z" fill="#464646"/><path d="m115.92 68.54-.31 2.08c-.1.69-.29 1.37-.42 2.06a.2.2 0 0 1 -.08.12l-1.23.92v-.44l1.09 1-.08-.06 1.09.49 1.1.82h-.06l1.26.6c.42.21.83.45 1.24.68a6.64 6.64 0 0 0 .6.38 1.69 1.69 0 0 0 .3.13l.38.14a5.94 5.94 0 0 1 .72.35l.17.12.1.06a1.35 1.35 0 0 0 .31 0 12.8 12.8 0 0 1 1.54 0 6.72 6.72 0 0 0 1.47.14 6 6 0 0 1 1.53 0c.47 0 1-.09 1.51-.08a3.6 3.6 0 0 1 .79.06 3.36 3.36 0 0 0 .72 0c.5 0 1 0 1.5-.09h1.33 1.33-.11a4.09 4.09 0 0 0 .68-.41.43.43 0 0 0 .12-.11c0-.05 0 0 .08-.13l.25-.39c.34-.48.69-.94 1.05-1.39a.23.23 0 0 1 .07-.07l2.07-1.42 1.15-1.09h.06c.9-.53 1.79-1.07 2.66-1.64l-.13.16c.08-.18.17-.37.24-.55a3 3 0 0 0 .15-.48s0-.07 0-.1a1.5 1.5 0 0 1 0-.2c0-.12 0-.24 0-.35s0-.43 0-.65a.36.36 0 0 1 .39-.32h.11l1.16.53.09.06 1.06 1 1 1.11 1.46 1.42 1 1.13 1.25 1.74a0 0 0 0 1 0 .05s0 0 0 0l-1.42-1.6-1.13-1-1.45-1.12-1-1.06-1.1-1 .09.06-1.18-.47.52-.31v.61.28.12a.73.73 0 0 1 0 .18 2.7 2.7 0 0 1 -.2.73 6.57 6.57 0 0 1 -.26.61.28.28 0 0 1 -.13.15c-.87.58-1.76 1.14-2.67 1.66h.06l-1.18 1-2.1 1.36.07-.07c-.36.44-.72.89-1.07 1.34-.08.11-.17.22-.23.32a2 2 0 0 1 -.16.23 1 1 0 0 1 -.21.17 3.67 3.67 0 0 1 -.82.45h-.1-1.33c-.45 0-.9-.07-1.34-.09-.51 0-1 0-1.53 0a4.37 4.37 0 0 1 -.79-.07 3.39 3.39 0 0 0 -.72-.06c-.51 0-1 0-1.52 0a5.3 5.3 0 0 0 -1.49 0 7.87 7.87 0 0 1 -1.55-.1 14.27 14.27 0 0 0 -1.48.15 1.79 1.79 0 0 1 -.45 0 1.08 1.08 0 0 1 -.24-.11l-.14-.09a6.69 6.69 0 0 0 -.67-.27l-.34-.1a2 2 0 0 1 -.41-.14 4.86 4.86 0 0 1 -.7-.4c-.42-.21-.82-.43-1.24-.63s-.84-.38-1.26-.59a.1.1 0 0 1 0 0l-1.07-.84h.06l-1.08-.51-.07-.06-1.07-1a.27.27 0 0 1 0-.39c.43-.27.86-.54 1.28-.83l-.09.13c.19-.67.39-1.33.57-2l.53-2a.05.05 0 0 1 0 0 .05.05 0 0 1 .05-.02z" fill="#464646"/><path d="m142.59 69.38c-.28-.08-.39-.2-.37-.35s.13-.18.14-.26-.06-.13-.14-.18a.62.62 0 0 1 -.29-.37.66.66 0 0 1 .25-.51.08.08 0 0 1 .07 0 .75.75 0 0 1 .46.33.65.65 0 0 1 -.09.47.22.22 0 0 0 0 .23c0 .06.17.1.24.16s0 .28-.16.48a.08.08 0 0 1 -.11 0z" fill="#464646"/><path d="m140 67.67c1.39-.07 2.78-.11 4.17-.15l2.76.27-.28.29a55.73 55.73 0 0 1 -.9-6.95c-.19-2.31-.42-4.6-.5-6.92s-.16-4.65-.3-7-.28-4.63-.47-6.94l.4-5.62c.08-1.88.15-3.76.25-5.63.24-1.66.53-3.32.73-5l.66-5c.43-2 .89-4.05 1.35-6.07s1.11-4 1.67-6l2-4.36a0 0 0 0 1 .07 0l-1.72 4.41-1.43 6c-.39 2-.79 4.05-1.22 6.08l-.63 5c-.23 1.67-.55 3.33-.82 5-.12 1.88-.27 3.75-.42 5.63l-.6 5.61c.1 2.32.22 4.63.39 6.95s.36 4.63.55 6.94.46 4.63.65 6.95a69 69 0 0 0 .73 6.87.24.24 0 0 1 -.19.29.11.11 0 0 1 -.08 0l-2.74-.39c-1.39 0-2.78-.08-4.17-.15a0 0 0 0 1 .09-.11z" fill="#464646"/><path d="m122.88 69.37h-1-1.17-.91" fill="none" stroke="#464646" stroke-linecap="round" stroke-linejoin="round" stroke-width=".75"/><path d="m117.88 69.41h-.92l-2 .49-2 .38-1.15.44h-.07-1.41.09l-1.15.53-1.24.79a.28.28 0 0 1 -.39-.09.29.29 0 0 1 0-.18l.31-3.29c0-1.56 0-3.11 0-4.67l.27-2.83c0-1.27 0-2.53-.09-3.8 0-.63-.08-1.26 0-1.89v-1.91l.1-1.17a7.58 7.58 0 0 0 .06-1.16 20.8 20.8 0 0 0 -.46-2.3l-.53-3.75-.1-6.34v.1l-1.38-3.06a.14.14 0 0 1 0-.06l-.9-5-.92-2.84c-.32-1-.57-2-.8-3-.47-2-.92-4-1.33-6v.06l-1.16-2.8c-.38-.94-.8-1.86-1.2-2.8v.06l-1.39-2-1.28-3-.8-1.52-1.04-1.25-1-1.63-.62-1.36a0 0 0 0 1 0 0s0 0 0 0l.71 1.31 1.13 1.55 1.11 1.22.86 1.48 1.39 3v-.05l1.44 2c.42.92.86 1.84 1.27 2.77l1.2 2.8v.07q.63 3 1.35 5.94c.23 1 .45 2 .76 2.94l.85 2.93.78 5v-.07l1.28 3.11a.15.15 0 0 1 0 .09l-.1 6.34.47 3.75c.18.77.38 1.53.5 2.32a7.89 7.89 0 0 1 0 1.2l-.09 1.19v1.9c0 .63.07 1.26.12 1.89.12 1.25.18 2.52.25 3.79l-.23 2.84v4.67l-.36 3.27-.44-.27 1.26-.76 1.18-.48a.15.15 0 0 1 .09 0h1.41-.07l1.17-.39 2.06-.27 2-.36h.92a0 0 0 0 1 0 .08z" fill="#464646"/><path d="m93 1.67c.55-.34 1.11-.66 1.68-1a.2.2 0 0 1 .17 0l1.46.76.43.41-.21-.08 2.17-.05h.07c.59.14 1.17.29 1.75.46 1.12.62 2.21 1.3 3.34 1.91.55.62 1.12 1.21 1.69 1.81l1.77 2.08c.65 1 1.28 2 1.91 2.95.61 1.27 1.2 2.56 1.73 3.86.27.65.49 1.32.82 2s.58 1.28.87 1.92c.42.6.81 1.21 1.21 1.82v.06s0 0 0 0q-.75-.79-1.47-1.62c-.36-.61-.72-1.22-1.07-1.84s-.63-1.27-.95-1.9c-.58-1.29-1.18-2.57-1.72-3.87-.59-1-1.18-2-1.75-3.05l-1.56-2.25c-.34-.45-.9-1.05-1.47-1.68-1.14-.58-2.32-1.07-3.5-1.59h.07c-.59-.11-1.18-.24-1.76-.38h.08-2.17a.28.28 0 0 1 -.2-.08l-.39-.42h.06l-1.36-.9h.18c-.6.24-1.2.47-1.82.69a.05.05 0 0 1 0 0 .08.08 0 0 1 -.06-.02z" fill="#464646"/><path d="m112.18 19.7a22.05 22.05 0 0 1 .26-2.31v.06c0-.68-.06-1.37-.05-2.06s.09-1.37.15-2.06a21.93 21.93 0 0 0 -.08-4.13v.05c-.23-.93-.42-1.87-.62-2.81-.17-.45-.32-.91-.46-1.37l-.2-.7a3.59 3.59 0 0 1 -.08-.35 1.93 1.93 0 0 1 -.07-.45c0-.08-.08-.41-.13-.61l-.16-.7c-.1-.46-.22-.93-.31-1.41l.07-.5s0 0 0 0a0 0 0 0 1 0 0l.07.5c.21.43.39.88.58 1.32.1.22.18.45.26.68l.12.34a1.84 1.84 0 0 1 .11.44l.43 1.26c.15.46.3.91.43 1.37.14 1 .29 1.9.38 2.86a21.12 21.12 0 0 0 -.08 4.13c0 .69.14 1.37.15 2.06s0 1.38 0 2.06v.06a21.86 21.86 0 0 1 -.74 2.2 0 0 0 0 1 0 0s-.03.08-.03.07z" fill="#464646"/><path d="m111.64 0c.72.22 1.43.47 2.14.71l1.8.91a17.08 17.08 0 0 1 1.57 1.28 19.06 19.06 0 0 1 1.47 1.37c.48.48.94 1 1.39 1.45v.07c.29.65.61 1.28.88 1.94l.31 1.26c.1.42.23.83.29 1.26.15.85.32 1.69.5 2.53.11 1 .28 2 .42 3v1.75-.12l1.13 1.22v.06l.55 1.4h-.55l.53-3.11.37-3.13v-1.1c0-.44 0-.81 0-1.32s.16-.87.25-1.3l.27-1.26v.13l.07-3.41a.19.19 0 0 1 0-.1l.9-2 .5-1.9s0 0 0 0l1.34-1.59s0 0 0 0a0 0 0 0 1 0 0l-1 1.64v-.05l-.33 1.93-.77 2v-.11l.17 3.59a.15.15 0 0 1 0 .07l-.25 1.26c-.08.41-.17.85-.23 1.22v2.45.05l-.46 3.14-.65 3.11a.28.28 0 0 1 -.54 0l-.47-1.3.05.07-1-1.28a.15.15 0 0 1 0-.11c0-.58 0-1.17 0-1.75-.13-1-.25-2-.41-3-.2-.84-.4-1.67-.62-2.5-.09-.42-.26-.82-.38-1.23l-.44-1.2c-.33-.62-.63-1.26-1-1.9l.06.09c-.47-.47-.92-.95-1.37-1.44a18.49 18.49 0 0 0 -1.41-1.39c-.49-.44-1-.92-1.45-1.31l-1.7-1c-.68-.32-1.36-.62-2-1a0 0 0 0 1 0 0 0 0 0 0 1 .07-.05z" fill="#464646"/><path d="m129 .36c.32.76.59 1.52.92 2.27s.52 1.56.77 2.34v.03c.22 1.27.39 2.54.57 3.82l.76 3.33c.13.89.27 1.78.38 2.68l-.06 2c.15 1 .26 1.9.43 2.85h-.28c.19-.93.4-1.85.56-2.78s.3-1.87.43-2.8c.48-1.68 1-3.36 1.45-5l.07-.1 1.22-2a.1.1 0 0 1 0-.05l1.32-1.35-.07.1.9-1.85c.41-.59.82-1.18 1.24-1.76a.4.4 0 0 1 .18-.14l1.75-.66a.39.39 0 0 1 .5.23.32.32 0 0 1 0 .14v2.4l.45 3.18v1.49c0 .5-.05 1 0 1.5 0 1 .08 2 .09 3l-.31 2.07a0 0 0 0 1 0 0s0 0 0 0l.11-2.1c-.12-1-.2-2-.3-3-.05-.5-.05-1-.07-1.51v-1.5l-.56-3.16v-2.49l.52.36-1.75.67.18-.14c-.41.59-.83 1.17-1.26 1.75v-.06l-1.02 1.88a.15.15 0 0 1 -.06.09l-1.36 1.27.05-.06-1.29 2v-.07l-1.71 5-.49 2.8c-.2.93-.35 1.86-.52 2.79a.14.14 0 0 1 -.28 0c-.17-.95-.38-1.88-.57-2.82l-.06-2c-.17-.88-.31-1.77-.46-2.66-.29-1.11-.51-2.23-.74-3.34-.14-1.28-.31-2.56-.43-3.84l-.62-2.37c-.13-.36-.24-.78-.35-1.16l-.3-1.25s0 0 0 0a0 0 0 0 1 .07-.02z" fill="#464646"/><path d="m141.18 21.19.8-2.44q.11-.3.18-.6v-.14-.13a2.94 2.94 0 0 1 .05-.35c.1-.43.2-.85.31-1.26.5-1.65 1-3.29 1.51-4.91.42-1 .89-2 1.35-3 .22-.51.5-1 .75-1.47l.75-1.46c.54-.49 1.06-1 1.58-1.5l1.07-.76 1.76-2.4a.24.24 0 0 1 .33 0 .23.23 0 0 1 .08.12l.37 1.24a.09.09 0 0 1 0 .05l.06 2.58-.3 2.34v-.1 1.75a.21.21 0 0 1 0 .11c-.29 1-.56 1.93-.86 2.9-.15.49-.3 1-.49 1.44l-.48 1.45-1.13 2-1.1 2.35c-.38.76-.79 1.51-1.19 2.27 0 0 0 0-.05 0s0 0 0 0l1.86-4.77 1-2c.29-.95.67-1.89.92-2.85l.84-2.9v.12-1.75-.12l.36-2.33.06-2.58v.07l-.26-1.23.42.09-1.91 2.27-1.09.74c-.54.49-1.07 1-1.59 1.51l-.66 1.46c-.21.5-.46 1-.64 1.51-.38 1-.75 2.06-1.16 3.07-.48 1.64-1.08 3.26-1.59 4.88-.14.4-.27.81-.39 1.21a2 2 0 0 0 -.06.27c0-.05 0 .14 0 .19l-.05.17c-.07.21-.15.41-.23.61-.34.8-.7 1.57-1.09 2.34 0 0 0 0-.05 0s-.05-.04-.04-.06z" fill="#464646"/><path d="m118.88 74.54s-.67-2.84-.67-3.25-.33-2.75-.33-2.75l.5-.5-.5-.34v-5.41l.5-2.17v-4.42l.5-.75.42-1 .5.42.41.83v5l.34 1.34v7l-1.34.83.5 1.33.09 1.5.33.84.42.91" fill="none" stroke="#464646" stroke-linecap="round" stroke-linejoin="round" stroke-width=".75"/><path d="m119.21 67.7v-1.16s-.31-1.25-.31-1.44.31-2.06.31-2.06v-4.04l-.31-.68" fill="none" stroke="#464646" stroke-linecap="round" stroke-linejoin="round" stroke-width=".75"/><path d="m124.9 75.41-.44-.87v-1.38-1-1.31" fill="none" stroke="#464646" stroke-linecap="round" stroke-linejoin="round" stroke-width=".75"/><path d="m126 75.41v-2.28l-.25-1.32-.81-.59-.94-.37-.75-.75v-3.1l-.33-1.43.75-1.84s.33-1.83.33-2.08.46-1.92.46-1.92l.26-1.41.22-1 .65.41.41.92v1.35l.34 2.66v3.65l.33.94v3.16l-.33.4-.42.35" fill="none" stroke="#464646" stroke-linecap="round" stroke-linejoin="round" stroke-width=".75"/><path d="m124.68 70.29.62-.92v-.83a8.12 8.12 0 0 1 -.3-1.54 16.85 16.85 0 0 0 -.1-2l-.15-2-.07-1.54.07-2.41" fill="none" stroke="#464646" stroke-linecap="round" stroke-linejoin="round" stroke-width=".75"/><path d="m133.49 74a15.68 15.68 0 0 0 0-1.82 9.09 9.09 0 0 1 0-1.28v-.75l.05-.91" fill="none" stroke="#464646" stroke-linecap="round" stroke-linejoin="round" stroke-width=".75"/><path d="m133.15 68.54-.28.15h-.5l-.53-.15s-.44-1.22-.44-1.32.13-.81 0-1-.37-.63-.37-.63v-.56l.25-.41.15-.42.1-1.52.18-2.21.19-1.47.19-1.53.37-1.32.69.66.32.84.24 1.1.28.84.19.72v5.87s.19 1 .19 1.13v.69l.16.5.15.15.13.68.19.67s-.12.59 0 .71-.06.47 0 .69a2.8 2.8 0 0 1 0 .69v1.36" fill="none" stroke="#464646" stroke-linecap="round" stroke-linejoin="round" stroke-width=".75"/><path d="m135.59 68.68c.18.18.19.26.16.31s-.12 0-.19 0-.09 0-.08.06c0 .08.09.21.07.25s0 .11-.07.13l-.29.13-.17-.34a.09.09 0 0 1 0-.07l.17-.34-.28.13a.13.13 0 0 1 .11-.09s.18 0 .26 0c.05 0 .06 0 0-.09s-.1-.13-.09-.16.11-.08.34 0z" fill="#464646"/><path d="m134.12 59.32v-2.32l.31-.78.31-.22.54.22.28.38v.72l.28 1 .16.68v2.81l.19 1.14.16 1 .15 1.53v3.25h1.16" fill="none" stroke="#464646" stroke-linecap="round" stroke-linejoin="round" stroke-width=".75"/><path d="m132.65 69.87c0-.25 0-.33.06-.27a1 1 0 0 0 0 .19s0 0 0-.08 0-.19.05-.2a1.14 1.14 0 0 1 .06.36v.13a1.06 1.06 0 0 1 -.06.36s0 0-.05-.19 0-.12 0-.09a1 1 0 0 0 0 .19c0 .06 0 0-.06-.27z" fill="#464646"/><path d="m138.43 72.47v-1.47s0-1.18 0-1.28 0-1 0-1v-1.34l-.33-.59a5.72 5.72 0 0 0 0-.72 8.55 8.55 0 0 1 0-.88h-.44l-.25-.36v-6.54l.25-2 .27-1.56.53-1.22h.39l.15.49v4.1a10.72 10.72 0 0 1 0 1.5 14.45 14.45 0 0 0 0 1.69v2.4l-.24.07" fill="none" stroke="#464646" stroke-linecap="round" stroke-linejoin="round" stroke-width=".75"/><path d="m138.62 63.19v1.06l.16.58.24.36h.22.25l.47-.19.47-.34.19-.41.16-.71.15-.88v-1.56-1.31l-.25-1-.15-1.13-.25-1.12-.1-.91-.09-.78-.13-.59-.18-1v-.72l-.25-.28-.32-.22h-.19l-.24.15-.16.25v.28.22.32" fill="none" stroke="#464646" stroke-linecap="round" stroke-linejoin="round" stroke-width=".75"/><path d="m139.62 70.47v-.81l.16-.62v-1.19-.88-.62l-.08-.28-.08-.25v-.32l-.13-.31" fill="none" stroke="#464646" stroke-linecap="round" stroke-linejoin="round" stroke-width=".75"/><path d="m127.29 68 .29.11.39.36h-.13l.39-.52v.08c-.05-1-.08-2-.11-2.94 0-.15 0-.3 0-.45a1.34 1.34 0 0 0 0-.21c0-.1 0 .06-.07-.2a3.29 3.29 0 0 1 0-.53v-.48l-.05-4.06v.09l-.26-.87s0-.06 0-.09v-3.93.08l-.21-.7-.26-1.19v-.72.09l-.32-.51-.47-.58a.17.17 0 0 1 0-.1v-.28.07l-.33-.7c-.14-.72-.22-1.44-.31-2.17l-.32-1.09c-.15-.81-.26-1.62-.39-2.43v-1.07-.06c-.16-.41-.33-.82-.48-1.24l-.43-1.25-.75-1.35a14.75 14.75 0 0 1 -.91-1.41l.07.09-.58-.51h.07l-.38-.2.47-.15-.18.38a.36.36 0 0 1 -.47.16.39.39 0 0 1 -.2-.31v-.53l.15.29-.41-.28a.32.32 0 0 1 -.15-.28v-.22l.2.32-.54-.28a.36.36 0 0 1 -.16-.49.41.41 0 0 1 .22-.19l.75-.23.56-.22a.31.31 0 0 1 .13 0h.32a.37.37 0 0 1 .21.06l.28.18a.34.34 0 0 1 .12.12l.17.28a.36.36 0 0 1 .06.2v.5a.41.41 0 0 1 -.23.36l-.2.09.05-.69.56.38h.05l.41.37.43.48s0 0 0 0l.5.72.62 1.28c.21.42.45.82.66 1.24v.05l.29 1v-.05l.81 1.57a.08.08 0 0 1 0 0l.44 1.61.08 1.17.15 1.17.42 2 .52 1.68a.05.05 0 0 1 0 0s0 0 0 0l-.67-1.63-.57-1.92-.23-1.17-.16-1.18-.5-1.58v.06l-.87-1.55-.34-1v.07c-.24-.42-.48-.83-.7-1.26l-.63-1.28-.51-.72-.44-.47-.41-.37-.57-.37a.4.4 0 0 1 -.11-.55.43.43 0 0 1 .16-.14l.2-.09-.23.36v-.5l.06.2-.16-.28.11.12-.27-.19.21.07h-.31.14l-.57.21-.75.21.07-.68.53.29a.36.36 0 0 1 .18.32v.22l-.16-.3.41.28a.35.35 0 0 1 .15.29v.53l-.66-.16.19-.37a.34.34 0 0 1 .46-.15l.37.2h.06l.56.53s0 0 .06.07a15.22 15.22 0 0 0 .82 1.41l.68 1.39.36 1.26c.12.42.27.83.4 1.25v1.07c.07.81.19 1.62.31 2.43l.3 1.1c.08.72.2 1.44.35 2.15l.34.69a.14.14 0 0 1 0 .06v.28-.1l.51.55.36.49a.11.11 0 0 1 0 .08l.08.72.34 1.18.25.68s0 0 0 .06c.11 1.32.07 2.64.09 3.95v-.1l.24.88s0 .05 0 .08v4.06l-.05.46a3 3 0 0 0 0 .41c-.05-.1.09.19.06.25a2.35 2.35 0 0 1 0 .27c0 .16 0 .32-.05.49 0 1-.06 2-.11 2.94a.14.14 0 0 1 0 .06l-.43.48a.08.08 0 0 1 -.11 0l-.35-.4-.27-.14a0 0 0 0 1 0 0s.22.57.24.57z" fill="#464646"/><path d="m127.89 53.26c-.06-.45-.11-.9-.14-1.37a1.15 1.15 0 0 1 0-.4 1 1 0 0 0 0-.28v-.67c0-.45 0-.92.06-1.36l.13-1.36s0 0 0-.06l.3-.85c.09-.39.17-.78.27-1.16v.08-1.53.06a13.26 13.26 0 0 1 -.3-2.58c0-.87-.08-1.73 0-2.58 0-1.72 0-3.43-.13-5.15a.24.24 0 0 1 .47-.11l.57 1.36.31 1.34.43 3.62v1.74l.19 1.81-.1 3.56-.35 1.37c-.21.44-.44.87-.67 1.31l-.66.9s0 0-.05 0a0 0 0 0 1 0 0l.52-1q.24-.69.51-1.38l.21-1.38v.05l-.11-3.56-.24-1.81v-1.6l-.31-3.63-.24-1.36-.47-1.39.48-.09c-.08 1.71-.15 3.43-.13 5.14a21.56 21.56 0 0 0 .2 2.55 17.17 17.17 0 0 0 .51 2.49v.07 1.53s0 0 0 .07c-.09.38-.2.77-.3 1.15l-.33.83v-.07l-.18 1.35c-.07.45-.15.88-.18 1.34 0 .23-.06.45-.1.68a1 1 0 0 1 -.11.38 2 2 0 0 0 0 .27c0 .44 0 .9-.06 1.35a0 0 0 0 1 0 0s.01.34 0 .33z" fill="#464646"/><path d="m130.05 46.37a23.52 23.52 0 0 1 .75-2.37c.26-.78.44-1.59.74-2.39a17.92 17.92 0 0 1 1-2.31c.37-.75.79-1.46 1.19-2.2a.1.1 0 0 1 0 0c.33-.24.65-.47 1-.72a.11.11 0 0 1 .08 0h.47a.11.11 0 0 1 .08 0l.27.26a.09.09 0 0 1 0 .08v.75.05l-.26.66c-.12.34-.2.68-.32 1l-.36 1c-.23.67-.47 1.34-.73 2l-.42.7-.43 1v-.06l-.16.69a.16.16 0 0 1 0 .09l-.36.63v-.09l-.55 2a.6.6 0 0 1 -.06.11l-.7 1v-.1l-.31.9v-.05c-.05.21-.12.48-.17.64l-.16.57v-.05l-.11 1v-.06l.12.67-.09-.13.4.3a1.5 1.5 0 0 0 .44.26 9.47 9.47 0 0 1 1 .4h.33s0 0 0 .05 0 0 0 0h-.33c-.34-.09-.69-.17-1-.24a1.18 1.18 0 0 1 -.51-.21l-.49-.28a.16.16 0 0 1 -.08-.1l-.19-.65a.07.07 0 0 1 0 0v-1l.13-.62c0-.22.06-.36.1-.54l.25-.92a.3.3 0 0 1 0-.08l.67-1v.12c.17-.68.35-1.36.57-2v-.08l.39-.61v.1l.18-.69a.08.08 0 0 1 0-.05l.47-1 .46-.67.91-1.92a16.49 16.49 0 0 0 .83-1.93l.29-.65c0-.25 0-.5 0-.75v.09l-.28-.25h.08-.47.08l-.9.81v-.06l-.95 2.3-1 2.27a10.62 10.62 0 0 0 -.24.96c-.15.39-.31.77-.48 1.16l-1.1 2.24a0 0 0 0 1 -.05 0 .08.08 0 0 1 -.02-.03z" fill="#464646"/><path d="m131.92 69.41h-.18c-.08 0-.06 0-.14.06a.89.89 0 0 1 -.45 0h.12c-.11.1-.21.21-.32.3l.08-.15v.28l-.06-.15.22.2-.33.34s0 0-.07-.07a.84.84 0 0 1 -.12-.19 1.9 1.9 0 0 1 -.15-.68c0-.4 0-.8 0-1.19s-.06-.8-.07-1.19a7.85 7.85 0 0 1 0-1.19l.1-.19c-.1.1 0 .06-.05.07a.1.1 0 0 0 0 0v-.12a1.42 1.42 0 0 0 -.24-.77s0 0 0 0c0-.56-.1-1.11-.19-1.66s-.13-1.1-.2-1.66c-.15-1.11-.13-2.2-.18-3.29s0-2.25.06-3.37.14-2.21.29-3.32 0 0 0 0c.15 1.11.24 2.22.29 3.33s.08 2.16.05 3.28-.08 2.25-.12 3.35v1.66a15.47 15.47 0 0 0 .2 1.65v-.08a2 2 0 0 1 .35.57 3.18 3.18 0 0 1 .1.33.9.9 0 0 1 0 .18.53.53 0 0 1 0 .12s0 .07-.12.21l.1-.19c0 .39.08.79.14 1.19a11.69 11.69 0 0 1 .09 1.19v1.19a2.49 2.49 0 0 0 0 .49.41.41 0 0 1 0 .07c.08-.07-.63.64-.33.34l-.19-.23a.17.17 0 0 1 0-.13v-.28a.19.19 0 0 1 .07-.12c.12-.08.25-.15.38-.22a.08.08 0 0 1 .08 0 1.11 1.11 0 0 0 .31.07.35.35 0 0 1 .23 0 1.06 1.06 0 0 1 .19.06 0 0 0 0 1 0 0s.08-.09.06-.09z" fill="#464646"/><path d="m131 50.66a1.7 1.7 0 0 1 .86.18 1.11 1.11 0 0 1 .34.24l.26.34c.36.33.88.2 1.32.32h-.13a4.48 4.48 0 0 1 .63-.06.32.32 0 0 1 .14 0l.24.12a1.47 1.47 0 0 0 .22.1 2.3 2.3 0 0 1 .66.27s0 0 0 .06a2.63 2.63 0 0 1 -.66.27 1.18 1.18 0 0 1 -.42 0 1.58 1.58 0 0 1 -.37-.11h.17a4.48 4.48 0 0 1 -.63-.06h-.06-.06a4.21 4.21 0 0 1 -.56-.41 1.06 1.06 0 0 0 -.63-.21l-.41-.11a1.24 1.24 0 0 1 -.34-.22 1.76 1.76 0 0 1 -.54-.65s0 0 0-.07z" fill="#464646"/><path d="m131 54a.51.51 0 0 1 -.34 0c-.08 0-.07-.11 0-.22s0-.18 0-.21-.22 0-.27-.08c-.08 0-.16-.09-.15-.19a.68.68 0 0 1 .13-.39.07.07 0 0 1 .06 0 .76.76 0 0 1 .41 0c.1 0 .12.12.13.22 0 .06 0 .18-.07.27s0 .14.15.14.2 0 .19.13a.56.56 0 0 1 -.15.31.11.11 0 0 1 -.09.02z" fill="#464646"/><path d="m121 51a2.08 2.08 0 0 1 .54-.37h.07a3.43 3.43 0 0 1 .56-.07h-.16a1.62 1.62 0 0 1 .35-.17h.11a4.63 4.63 0 0 0 .86.2 3.16 3.16 0 0 0 .86-.14h-.1l.25-.19h.13.22l-.33.27v-.32a.35.35 0 0 1 .3-.28h.4l-.35.22a3.48 3.48 0 0 1 .22-.43v-.07a.14.14 0 0 1 .09-.08l.42-.15.28-.16.4-.34s0 0 0 0l-.17.5-.16.28-.29.34.12-.14a3.49 3.49 0 0 1 -.2.44.39.39 0 0 1 -.33.19h-.34l.37-.29-.1.31a.31.31 0 0 1 -.32.22h-.22.13l-.3.07h-.11a2.54 2.54 0 0 0 -.86-.14 4.59 4.59 0 0 0 -.86.19h.15a1.15 1.15 0 0 1 -.33.21.17.17 0 0 1 -.12 0 3.43 3.43 0 0 1 -.56-.07h.06a2.46 2.46 0 0 1 -.65-.06s0 0 0 0-.03.03-.03.03z" fill="#464646"/><path d="m126.19 46.79a6 6 0 0 1 .21.81 6 6 0 0 1 0 1.2 9.93 9.93 0 0 1 -.28 1.17 4.32 4.32 0 0 0 -.17.71 6.42 6.42 0 0 0 .1.75v.08a6.48 6.48 0 0 1 -.17.63l-.23.43-.28.43a.12.12 0 0 1 0 0c-.17.14-.34.28-.53.41l-.68.22h-.07-.06c-.31 0-.62-.1-.93-.16-.15-.09-.3-.17-.44-.27a0 0 0 0 1 0-.06 4.47 4.47 0 0 1 .52 0h-.05c.31-.06.62-.12.93-.16h-.14l.64-.34h-.09c.17-.14.35-.27.53-.4l-.08.07.34-.38.29-.39c.1-.19.22-.37.34-.56v.09a6.42 6.42 0 0 0 .1-.75 3.51 3.51 0 0 0 .13-.72 9.87 9.87 0 0 1 -.1-1.21 6.9 6.9 0 0 1 .19-1.18 4.79 4.79 0 0 1 .2-.81.05.05 0 0 1 0 0s-.23.38-.22.39z" fill="#464646"/><path d="m125.26 39.47a13.22 13.22 0 0 1 -.26-2.47 8.67 8.67 0 0 1 -.12-1.13c-.12-.55-.18-1.11-.3-1.65a.12.12 0 0 1 .09-.14.13.13 0 0 1 .14.07 11.11 11.11 0 0 0 .85 1.5c.37.74.7 1.49 1 2.24.12.36.22.72.32 1.09a15.31 15.31 0 0 1 .16 2.44 10.29 10.29 0 0 1 -.19 1.22s0 0 0 0c-.09-.41-.15-.81-.2-1.22-.19-.79-.34-1.58-.5-2.37-.1-.37-.19-.73-.27-1.1-.14-.39-.28-.78-.41-1.18s-.2-.8-.3-1.21a10 10 0 0 0 -.72-1.56l.23-.09c.18.53.42 1 .64 1.54v.05a8.41 8.41 0 0 1 .17 1.12 13.22 13.22 0 0 1 -.29 2.5s0 0 0 0a0 0 0 0 1 -.04.35z" fill="#464646"/><path d="m130.71 42.82c.07.28.1.56.15.84h-.38a15.75 15.75 0 0 1 -.14-1.81v-.07a8.5 8.5 0 0 1 .43-1.55 11.36 11.36 0 0 0 .38-1.73 15.82 15.82 0 0 0 -.13-1.69v-.06c.13-.69.33-1.36.52-2a.38.38 0 0 1 .46-.26.39.39 0 0 1 .28.34 20.38 20.38 0 0 1 0 2.47 21.1 21.1 0 0 1 -.31 2.47s0 0-.05 0a21.06 21.06 0 0 1 -.3-2.47 20.4 20.4 0 0 1 0-2.47l.74.12c-.25.65-.48 1.32-.78 2v-.07a15.82 15.82 0 0 0 -.13 1.69 13 13 0 0 0 -.12 1.77 9.16 9.16 0 0 1 -.28 1.58v-.07a15.75 15.75 0 0 1 -.14 1.81v.06a.19.19 0 0 1 -.21.16.2.2 0 0 1 -.16-.21c.05-.28.09-.56.15-.84h.05z" fill="#464646"/><g fill="none"><path d="m104.9 24.66v1.38l.38 1.5.35.62.27.88v.81l.38.5v.37" stroke="#464646" stroke-linecap="round" stroke-linejoin="round" stroke-width=".5"/><path d="m105.63 26.1.65 1.44.31 1 .37 1.12v1.06c0 .13-.31 1.32-.31 1.32l-.35 1.06-.48 1.16" stroke="#464646" stroke-linecap="round" stroke-linejoin="round" stroke-width=".5"/><path d="m106.71 24.45a10.08 10.08 0 0 1 .46 1.13c0 .12.25 1.21.25 1.21l.21 1.33.17 1 .25.87" stroke="#464646" stroke-linecap="round" stroke-linejoin="round" stroke-width=".5"/><path d="m107.55 33.49-.38-1.08v-.71-.98-.54-.56l-.21-1" stroke="#464646" stroke-linecap="round" stroke-linejoin="round" stroke-width=".5"/><path d="m99.67 16.25.5.91.58.5.46.17.71.26" stroke="#464646" stroke-linecap="round" stroke-linejoin="round" stroke-width=".5"/><path d="m97.3 12.54.79.5.66.54.55.46.9.43" stroke="#464646" stroke-linecap="round" stroke-linejoin="round" stroke-width=".5"/><path d="m95.63 9.49.71.38.96.33.37-.04.52.61" stroke="#464646" stroke-linecap="round" stroke-linejoin="round" stroke-width=".5"/><path d="m107.8 23.91.45.96.25.88.25 1.45.25 1.21v.79l.3.42" stroke="#464646" stroke-linecap="round" stroke-linejoin="round" stroke-width=".5"/><path d="m110.17 25.29.38.58.25.67v.66.96.67.62" stroke="#464646" stroke-linecap="round" stroke-linejoin="round" stroke-width=".5"/><path d="m108.84 30.5v.7 1.04l.21.84.25.16h.5v.83l-.17 1.22-.13 1.12" stroke="#464646" stroke-linecap="round" stroke-linejoin="round" stroke-width=".5"/><path d="m111.05 23.91.2.75.38.79.37.65.38.67" stroke="#464646" stroke-linecap="round" stroke-linejoin="round" stroke-width=".5"/><path d="m112.38 27.37.79.67a2.26 2.26 0 0 0 .33.58c.13.08 0 1.33 0 1.33l.55-1.5" stroke="#464646" stroke-linecap="round" stroke-linejoin="round" stroke-width=".5"/><path d="m112.13 29.95v1.11 1.18 1.55" stroke="#464646" stroke-linecap="round" stroke-linejoin="round" stroke-width=".5"/><path d="m112.71 31.54h.34.41l.34.33h.25l.41.21h.25.21v-.71-.87-.55 2.75 1.09" stroke="#464646" stroke-linecap="round" stroke-linejoin="round" stroke-width=".5"/><path d="m114.92 23.49s.21 1.69.21 1.85v1.66l-.1 1.67" stroke="#464646" stroke-linecap="round" stroke-linejoin="round" stroke-width=".5"/><path d="m116.59 23.12v1.33 1.34 1.41 1" stroke="#464646" stroke-linecap="round" stroke-linejoin="round" stroke-width=".5"/><path d="m117.67 26.41v.79.49l.21.51-.21.21v.25.38l.11.41.1.34v.39l-.21.32v.56.81l-.17.92v.66.34" stroke="#464646" stroke-linecap="round" stroke-linejoin="round" stroke-width=".5"/><path d="m120.17 22.5v1.2.96l.21.63v.37.75" stroke="#464646" stroke-linecap="round" stroke-linejoin="round" stroke-width=".5"/><path d="m121.21 24.2v.8.83.94.18l-.25 1.5" stroke="#464646" stroke-linecap="round" stroke-linejoin="round" stroke-width=".5"/><path d="m120.17 29.04-.17 1.06-.29 1.23-.21.87v.63.46h.34l.54-.17" stroke="#464646" stroke-linecap="round" stroke-linejoin="round" stroke-width=".5"/><path d="m121.67 27.37v.63l.17.62.37.42" stroke="#464646" stroke-linecap="round" stroke-linejoin="round" stroke-width=".5"/><path d="m122.88 29.04-.29 1.46-.19.83v.54.42l.24.12h.24" stroke="#464646" stroke-linecap="round" stroke-linejoin="round" stroke-width=".5"/><path d="m123.21 25.34v.76.67.27l.17.65" stroke="#464646" stroke-linecap="round" stroke-linejoin="round" stroke-width=".5"/><path d="m125.82 23.91-.27 1.43-.25 1.18-.31 1.17v.76l.31-.25" stroke="#464646" stroke-linecap="round" stroke-linejoin="round" stroke-width=".5"/><path d="m125.3 29.45-.31 1.05v.83.75.33.25h.6" stroke="#464646" stroke-linecap="round" stroke-linejoin="round" stroke-width=".5"/><path d="m127.59 23.12v1.08.75l-.17.39v.32l-.21.52-.25.77.84-2.5.29.21v.63.79.87l-.2.59.2.66" stroke="#464646" stroke-linecap="round" stroke-linejoin="round" stroke-width=".5"/><path d="m129.59 23.91v.96l-.21.47-.42.74v.44.85l.17.83" stroke="#464646" stroke-linecap="round" stroke-linejoin="round" stroke-width=".5"/><path d="m127.89 29.95-.09.77.04.94.25.58.21.42h.29.26" stroke="#464646" stroke-linecap="round" stroke-linejoin="round" stroke-width=".5"/><path d="m132.13 22.79-.2 1.41-.22.88-.21 1.1-.22.82-.28 1.2" stroke="#464646" stroke-linecap="round" stroke-linejoin="round" stroke-width=".5"/><path d="m133.02 23.5v1.16 1.25l-.39 1.29-.25.67v1.17" stroke="#464646" stroke-linecap="round" stroke-linejoin="round" stroke-width=".5"/><path d="m133.67 24.45v.89l-.38 1.43-.47 1.18-.12.5" stroke="#464646" stroke-linecap="round" stroke-linejoin="round" stroke-width=".5"/><path d="m133.29 27.2.38.49.21.51.24.46" stroke="#464646" stroke-linecap="round" stroke-linejoin="round" stroke-width=".5"/><path d="m131.8 29.04-.23 1.14-.27.88-.02 1.14.02.63h.27.56" stroke="#464646" stroke-linecap="round" stroke-linejoin="round" stroke-width=".5"/><path d="m133.67 29.62-.38 1.1-.27.9v.79l.17.63" stroke="#464646" stroke-linecap="round" stroke-linejoin="round" stroke-width=".5"/><path d="m136.13 23.12-.25 1.33-.19 1.21-.13 1.11v.6.56l.13.27" stroke="#464646" stroke-linecap="round" stroke-linejoin="round" stroke-width=".5"/><path d="m136.13 28.66a7.66 7.66 0 0 0 0 1 2.42 2.42 0 0 1 0 .56l-.23.75v.61l.29.54h.54" stroke="#464646" stroke-linecap="round" stroke-linejoin="round" stroke-width=".5"/><path d="m137.92 23.91v.75l-.27.63-.25.77-.27.46v.68.34l.27.39" stroke="#464646" stroke-linecap="round" stroke-linejoin="round" stroke-width=".5"/><path d="m140.93 23.12-.22.79-.21.75v.84.77.5l.22.43" stroke="#464646" stroke-linecap="round" stroke-linejoin="round" stroke-width=".5"/><path d="m143.3 23.33-.5.87-.38.96-.25.92v.69.6" stroke="#464646" stroke-linecap="round" stroke-linejoin="round" stroke-width=".5"/><path d="m139 27.93-.18.73a5.29 5.29 0 0 0 -.22 1.29v1.92" stroke="#464646" stroke-linecap="round" stroke-linejoin="round" stroke-width=".5"/><path d="m141.21 29-.28.41-.21.73v.54a2.9 2.9 0 0 1 0 .61 1.79 1.79 0 0 0 0 .54v.54l.23.25.28.17.5.21h.71v-.38l.13-.25v-.79l-.13-.46" stroke="#464646" stroke-linecap="round" stroke-linejoin="round" stroke-width=".5"/><path d="m137.92 30.5 1.29.54.75.46.74.58 1.47 1.37.25.62.13.78" stroke="#464646" stroke-linecap="round" stroke-linejoin="round" stroke-width=".5"/><path d="m144.3 26.06-.11 1.48-.38 2.08" stroke="#464646" stroke-linecap="round" stroke-linejoin="round" stroke-width=".5"/><path d="m143.46 30.5v1 .58" stroke="#464646" stroke-linecap="round" stroke-linejoin="round" stroke-width=".5"/><path d="m143.98 32.66.32 1.13.25 1.06" stroke="#464646" stroke-linecap="round" stroke-linejoin="round" stroke-width=".5"/><path d="m146.05 23.12-.3 1.33-.2 1.47v.85" stroke="#464646" stroke-linecap="round" stroke-linejoin="round" stroke-width=".75"/><path d="m142.17 16.66v.71.72.69l-.2.53" stroke="#464646" stroke-linecap="round" stroke-linejoin="round" stroke-width=".75"/><path d="m94.13 7.33.83.29.67.33.67.21h.79l.21-.21" stroke="#464646" stroke-linecap="round" stroke-linejoin="round" stroke-width=".5"/><path d="m92.17 4.62h.88l.79.29.93.39.94.65.75.46" stroke="#464646" stroke-linecap="round" stroke-linejoin="round" stroke-width=".5"/><path d="m93.38 4.95h.75l.46.57.16.48.25.04" stroke="#464646" stroke-linecap="round" stroke-linejoin="round" stroke-width=".5"/><path d="m97.63 1.79 1.42 1.75" stroke="#464646" stroke-linecap="round" stroke-linejoin="round" stroke-width=".5"/><path d="m100.8 1.58-.25.83v.75l.12.54" stroke="#464646" stroke-linecap="round" stroke-linejoin="round" stroke-width=".5"/><path d="m102.63 2.12v.79l-.17.79v.67l-.25.63" stroke="#464646" stroke-linecap="round" stroke-linejoin="round" stroke-width=".5"/><path d="m104.46 3.33-.25 2" stroke="#464646" stroke-linecap="round" stroke-linejoin="round" stroke-width=".5"/><path d="m105.88 5.52-.25.97" stroke="#464646" stroke-linecap="round" stroke-linejoin="round" stroke-width=".5"/><path d="m111.05 7.74.29 1.13.37 1 .42 1 .58.91" stroke="#464646" stroke-linecap="round" stroke-linejoin="round" stroke-width=".5"/><path d="m111.05 6.49.58.55s0 0 .25.16a1.75 1.75 0 0 1 .25.84l.47.53" stroke="#464646" stroke-linecap="round" stroke-linejoin="round" stroke-width=".5"/><path d="m109.05 3.18.75.15.68.79v.02" stroke="#464646" stroke-linecap="round" stroke-linejoin="round" stroke-width=".5"/><path d="m115.13 1.08a6.36 6.36 0 0 0 .17.71c0 .08.2.91.29 1.12s.25.79.25.79" stroke="#464646" stroke-linecap="round" stroke-linejoin="round" stroke-width=".5"/><path d="m117.5 2.54v.37 1.13.1.31" stroke="#464646" stroke-linecap="round" stroke-linejoin="round" stroke-width=".5"/><path d="m119.5 3.16v.5.29.5l-.2.72-.38.33" stroke="#464646" stroke-linecap="round" stroke-linejoin="round" stroke-width=".5"/><path d="m120.81 6.71.28 2.07" stroke="#464646" stroke-linecap="round" stroke-linejoin="round" stroke-width=".5"/><path d="m124.87 7.74.12.76.47.45.71.54" stroke="#464646" stroke-linecap="round" stroke-linejoin="round" stroke-width=".5"/><path d="m124.87 4.62c.08.58.13.55.65 1.67" stroke="#464646" stroke-linecap="round" stroke-linejoin="round" stroke-width=".5"/><path d="m125.29 3.37.53.79" stroke="#464646" stroke-linecap="round" stroke-linejoin="round" stroke-width=".5"/><path d="m127.38 1.96-.67-.34" stroke="#464646" stroke-linecap="round" stroke-linejoin="round" stroke-width=".5"/><path d="m132.38 2.27h-.45l-.36.02-.29.25h-.28v.46l-.33.16" stroke="#464646" stroke-linecap="round" stroke-linejoin="round" stroke-width=".5"/><path d="m132.13 4.33-.43.12-.4.17-.3.55-.33-.03" stroke="#464646" stroke-linecap="round" stroke-linejoin="round" stroke-width=".5"/><path d="m132.13 5.84-.43.49-.3.54" stroke="#464646" stroke-linecap="round" stroke-linejoin="round" stroke-width=".5"/><path d="m132.13 8.2-.37.31-.48.06" stroke="#464646" stroke-linecap="round" stroke-linejoin="round" stroke-width=".5"/><path d="m134.38 7.12v3.65" stroke="#464646" stroke-linecap="round" stroke-linejoin="round" stroke-width=".5"/><path d="m135.34 5.14v.98 2.08" stroke="#464646" stroke-linecap="round" stroke-linejoin="round" stroke-width=".5"/><path d="m137.13 3.95v.78l-.21.77v.65" stroke="#464646" stroke-linecap="round" stroke-linejoin="round" stroke-width=".5"/><path d="m138.46 2.02v.69.45.4.39" stroke="#464646" stroke-linecap="round" stroke-linejoin="round" stroke-width=".5"/><path d="m139.71 1.41.25 1.75" stroke="#464646" stroke-linecap="round" stroke-linejoin="round" stroke-width=".5"/><path d="m140.93.87.45 1.15" stroke="#464646" stroke-linecap="round" stroke-linejoin="round" stroke-width=".5"/><path d="m143.67 2.54h-.37l-.57.17-.56.45-.79.79" stroke="#464646" stroke-linecap="round" stroke-linejoin="round" stroke-width=".5"/><path d="m143.46 4.33-.5.29-.54.33-.45.5" stroke="#464646" stroke-linecap="round" stroke-linejoin="round" stroke-width=".5"/><path d="m143.05 7.34h-1.08" stroke="#464646" stroke-linecap="round" stroke-linejoin="round" stroke-width=".5"/><path d="m147.46 3.66-.33.48v.59" stroke="#464646" stroke-linecap="round" stroke-linejoin="round" stroke-width=".5"/><path d="m145.38 5.14v.9.46.45.39.45l.17.6" stroke="#464646" stroke-linecap="round" stroke-linejoin="round" stroke-width=".5"/><path d="m143.98 7.95v1.42 1l.28.67" stroke="#464646" stroke-linecap="round" stroke-linejoin="round" stroke-width=".5"/><path d="m143.05 8.95.93.42" stroke="#464646" stroke-linecap="round" stroke-linejoin="round" stroke-width=".5"/><path d="m150.55 3.66-.84-.46" stroke="#464646" stroke-linecap="round" stroke-linejoin="round" stroke-width=".5"/></g><text fill="#1d1d1b" font-family="BaskervilleMTPro-Regular, Baskerville MT Pro" font-size="10" transform="translate(11.67 134.11)">Copied f<tspan letter-spacing="-.02em" x="34.7" y="0">r</tspan><tspan x="38.16" y="0">om </tspan><tspan letter-spacing="-.04em" x="53.68" y="0">W</tspan><tspan x="62.79" y="0">i</tspan><tspan letter-spacing=".01em" x="65.29" y="0">g</tspan><tspan letter-spacing="0em" x="70.08" y="0">ht Icones t. 1070</tspan><tspan x="0" y="12">L</tspan><tspan letter-spacing="-.01em" x="6.04" y="12">a</tspan><tspan x="10.63" y="12">wia acumin</tspan><tspan letter-spacing="-.01em" x="57.09" y="12">a</tspan><tspan x="61.68" y="12">ta, R. </tspan><tspan letter-spacing="-.04em" x="86.58" y="12">W</tspan><tspan x="95.69" y="12">i</tspan><tspan letter-spacing=".01em" x="98.19" y="12">g</tspan><tspan letter-spacing="0em" x="102.98" y="12">ht.</tspan><tspan x="0" y="24">i.</tspan><tspan letter-spacing="-.03em" x="5" y="24">e</tspan><tspan x="9.09" y="24">. Adenosacme acumin</tspan><tspan letter-spacing="-.01em" x="97.95" y="24">a</tspan><tspan x="102.54" y="24">ta, Hook. </tspan><tspan letter-spacing="-.02em" x="142.75" y="24">f</tspan><tspan x="145.27" y="24">.</tspan></text><path d="m140 112.91c0 1.27-2.21 2.3-4 2.77-6.54 1.77-14 1.52-20.91.38a36.08 36.08 0 0 0 -6.43-.49c-4.92.06-13.44.42-18.47 2.13-2.18 1-4.79 2-5.14 3.45-.35-1.45-3-2.45-5.13-3.45-5-1.71-13.55-2.07-18.47-2.13a36 36 0 0 0 -6.43.49c-6.87 1.14-14.37 1.39-20.92-.38-1.76-.47-3.91-1.5-4-2.77" fill="none" stroke="#1d1d1b" stroke-miterlimit="10" stroke-width=".5"/></svg>