<svg height="92.887733" viewBox="0 0 308.95468 92.887733" width="308.95468" xmlns="http://www.w3.org/2000/svg"><g transform="translate(-.568064 -.712344)"><path d="m255.88 51.46a22.37 22.37 0 0 1 -3.57.2c-1.05 0-2.11 0-3.16-.1s-2.26.24-3.4.14c-1-.09-1.92.07-2.9-.07s-2.18-.09-3.28-.14l-5.66-.24c-1.38-.06-2.75-.13-4.12-.31l-2.59-.35c-.71-.19-1.45.08-2.16-.12h-.23c-.69.07-1.38-.11-2.08 0s-1.73-.23-2.58.13a.51.51 0 0 1 -.52 0 3 3 0 0 0 -1.74-.47c-1.77-.24-3.55-.31-5.33-.43a26.7 26.7 0 0 0 -3.09-.19c-.76 0-1.51-.15-2.26-.24-2-.23-3.93-.58-5.92-.69a18.87 18.87 0 0 1 -2.38-.06c-1.65-.29-3.31-.43-5-.74a24.12 24.12 0 0 0 -2.81-.43c-1.38-.1-2.72-.41-4.08-.62h-.42c-.34-.12-.73 0-1.06-.17-.75-.22-1.53-.31-2.28-.51a.35.35 0 0 1 -.15-.12c-.13-.41.1-.37.36-.28a15.68 15.68 0 0 0 2.82.48c3 .61 6.14.76 9.16 1.52a23 23 0 0 0 4.75.5c2.46.1 4.89.38 7.33.67 2.27.28 4.56.38 6.85.49 1.31.07 2.62.31 3.93.45a66 66 0 0 0 6.74.36 30.07 30.07 0 0 1 4.24.36c1.61.25 3.22.32 4.83.41 3 .17 6 .28 9 .38 1.83.06 3.66 0 5.49-.06s3.4.12 5.09.08c.15 0-.16.19.06.17.61-.06 1.21-.11 1.82-.11.14-.09.42-.2.3.11z" fill="#848484"/><path d="m76.48 14.22-.84-.59a1.48 1.48 0 0 0 -.89-.27 1 1 0 0 1 -.68-.33c.21-.24.4 0 .59 0a1.61 1.61 0 0 0 .62.09 23.35 23.35 0 0 0 3.33 1.33c1.87.43 3.68 1 5.5 1.65a11.33 11.33 0 0 1 1.85.66 7.89 7.89 0 0 0 3 .91 22.28 22.28 0 0 1 4.8 1.43c1.89.6 3.61 1.62 5.48 2.22 2.62.84 5 2.11 7.56 3.14a38.58 38.58 0 0 1 5.17 2.2 9.5 9.5 0 0 0 2.29.46 13.29 13.29 0 0 1 2 .6c1.54.69 3.09 1.37 4.61 2.12a28 28 0 0 0 3.28 1.31 36.71 36.71 0 0 0 4 1.41c1.73.36 3.33 1.08 5 1.56-.27.28-.65.17-1 .29a5.69 5.69 0 0 0 -1.17-.17c-.81-.31-1.65-.54-2.49-.78-.22-.06-.48-.12-.52-.42a26.09 26.09 0 0 0 -4.92-1.79c-.41-.09-.8-.25-1.2-.37a.68.68 0 0 1 -.77 0 20.81 20.81 0 0 0 -3-1.6 14.25 14.25 0 0 1 -1.33-.68 18.92 18.92 0 0 0 -2-.84c-.22-.07-2-.24-2.49-.43-1.09-.42-2.09-1.1-3.2-1.45-1.74-.53-3.36-1.34-5-2a17 17 0 0 1 -1.82-.88 6.12 6.12 0 0 0 -1-.44c-2-.83-4.13-1.7-6.24-2.56a21.65 21.65 0 0 0 -5.81-1.79 5.3 5.3 0 0 0 -1-.22l-1.68-.37c-.16.05-.31.15-.51.07a14.26 14.26 0 0 1 -1.77-.83c-.12-.07-.24-.15-.23-.32a8 8 0 0 0 -3.13-1z" fill="#a3a3a3"/><path d="m233.44 57.08a10.49 10.49 0 0 0 2.9.21 23 23 0 0 1 5 .27 1.91 1.91 0 0 1 .34.1.3.3 0 0 1 -.38.28c-.7-.13-1.4.32-1.91 0 .86.1 1.91-.09 3 .05a2.34 2.34 0 0 0 1.58-.14 8.06 8.06 0 0 1 3.72-.06 18.12 18.12 0 0 0 4.31.21h1.55c.74 0 1.15.58 1.63 1a.25.25 0 0 1 0 .38c-.14.12-.25 0-.36-.06a2.63 2.63 0 0 0 -2.13-.51c-.28 0-.33.24-.41.45s-.36.41-.76.35a10.23 10.23 0 0 0 -2.6-.21 22.26 22.26 0 0 1 -4 .07 3.1 3.1 0 0 1 -1.28-.47 2.58 2.58 0 0 0 -1.84-.36c-.58.11-1.15-.2-1.72-.09a30.54 30.54 0 0 1 -5.06 0 3.94 3.94 0 0 1 -.82-.15 4.12 4.12 0 0 0 -1.75.09 8.81 8.81 0 0 1 -1.35.08c-.63-.12-1.11-.58-1.75-.69a.21.21 0 0 1 -.11-.34c.32-.28.69-.06 1-.11 1-.13 2-.25 3-.4a.2.2 0 0 1 .2.05z" fill="#6f6f6f"/><path d="m183.51 45.55c-.15 0-.26.07-.23.25a.87.87 0 0 1 -1 .46 10.24 10.24 0 0 0 -2.37-.57c-1.49-.31-3-.57-4.46-.89-1.72-.38-3.39-1.06-5.2-1h-.21a.48.48 0 0 1 -.46-.07c-.25-.21-.58-.17-.86-.27-1.12-.38-2.34-.36-3.44-.79a3.18 3.18 0 0 0 -1.72-.25.83.83 0 0 1 -.47 0c-.89-.34-1.86-.27-2.75-.61-.53-.2-1.12-.22-1.68-.38a3.92 3.92 0 0 1 -.49-.13 19.77 19.77 0 0 0 -3.11-1 11.44 11.44 0 0 0 -2.54-.43 9.61 9.61 0 0 1 -3.31-.95c-.46-.2-2.07-.16-2.79-.38-1.21-.52-.24-.25-.36-.92 0-.1 2.23.5 2.93.6 1.26.18 2.39.79 3.63 1 .76.16 1.54.19 2.31.33a21.7 21.7 0 0 1 4 1.15 14.15 14.15 0 0 0 3.8.8 38.16 38.16 0 0 1 5.51 1.12 21.58 21.58 0 0 0 3.07.5 42.74 42.74 0 0 1 4.49 1q2.7.55 5.41 1.07a11.29 11.29 0 0 1 2.3.36z" fill="#8a8a8a"/><path d="m181.25 53.49a2.19 2.19 0 0 1 -.68.17 8.43 8.43 0 0 0 -2.45.29 2.16 2.16 0 0 0 -1.33 0 2.34 2.34 0 0 1 -.95 0 8.09 8.09 0 0 0 -1.77.3 5.71 5.71 0 0 1 -2.18 0c-.29-.07-.54 0-.5.38a3.57 3.57 0 0 1 -.09.8 1.41 1.41 0 0 0 .52 1.46c.3.21.16.55.2.83-.47.18-.48.5-.33.92a2.64 2.64 0 0 1 0 1.28c0 .18-.07.35-.28.41a.45.45 0 0 1 -.2 0c-.33-.13-.31-.42-.27-.69a1.52 1.52 0 0 0 -.23-1.06c-.19-.32-.06-.67-.07-1 0-1-.43-1.89-.37-2.87 0-.24-.23-.21-.41-.17a20.69 20.69 0 0 1 -5.26.41 20.36 20.36 0 0 0 -3.12-.21 33 33 0 0 1 -3.85 0c-.34 0-.63.21-1 .23a18.63 18.63 0 0 1 -3.08 0 2.48 2.48 0 0 0 -1 .08 2.38 2.38 0 0 1 -1.64.13c-.33-.13-.65.09-.94.24a4.94 4.94 0 0 1 -2.63.65 2.07 2.07 0 0 1 -1-.25c-.49-.31-1-.1-1.57-.16-1.22-.15-2.47-.17-3.67-.39-.91-.16-1.82-.34-2.73-.52a13.14 13.14 0 0 1 -2-.36c-.11 0-.23 0-.32.1s-.35.08-.39 0c-.46-.74-1.31-.41-1.92-.73a1.49 1.49 0 0 0 -1-.2c-.21 0-.37-.12-.37-.37a.7.7 0 0 1 .37-.42 1.82 1.82 0 0 1 .33 0 15.22 15.22 0 0 0 4.45 1.06c.72 0 1.37.38 2.11.37.5 0 .94-.31 1.45-.19.19 0 .42 0 .52.22.17.41.56.42.89.42 1.57 0 3.11.34 4.66.51a1.86 1.86 0 0 0 1.72-.35 2.23 2.23 0 0 1 1.53-.33 23.5 23.5 0 0 0 3.35-.36.89.89 0 0 1 .36 0c1.07.29 2.13-.1 3.18-.08a13.64 13.64 0 0 1 2 .07c.87.06 1.74-.1 2.61 0a4.29 4.29 0 0 0 1.13.1h.73a15.29 15.29 0 0 0 2.44 0 8.23 8.23 0 0 0 2.21-.23 44.33 44.33 0 0 1 4.88-.37c2.09-.17 4.18-.26 6.27-.45a3.24 3.24 0 0 1 1.79.21.2.2 0 0 1 -.1.12z" fill="#6e6e6e"/><path d="m75.28 13.15c-.43.23-.81-.06-1.21-.12-1.18-.27-2.37-.53-3.55-.82-1.67-.41-3.33-.87-5-1.17-1.49-.25-3-.46-4.48-.68a9.27 9.27 0 0 1 -2.54-.63 1.79 1.79 0 0 0 -1-.05 2.77 2.77 0 0 1 -1.18-.09.88.88 0 0 0 -1.1.54c-.2-.21-.61-.1-.71-.46s-.27-.32-.47-.34c-2.04-.15-4.11-.39-6.18-.33-1 0-2.1-.12-3.15 0a1 1 0 0 1 -.63-.12.7.7 0 0 1 .71-.32c.36 0 .73 0 1.06.05s.22-.15.32-.22a6.65 6.65 0 0 1 1.26-.05c.37.07.67.42 1.1.3h.16a.35.35 0 0 1 -.17-.06.44.44 0 0 1 -.06-.58c.07-.2.16-.38.42-.24 0 .51.2.7.7.73a29.22 29.22 0 0 1 4.88.4c1.81.42 3.69.08 5.47.81a16.6 16.6 0 0 0 3.36.48c1.84.33 3.67.7 5.49 1.18 2.22.57 4.32 1.23 6.5 1.79z" fill="#939393"/><path d="m43.47 4.26c.65-.65 1.28-1.31 1.94-1.95a4.07 4.07 0 0 1 .67-.48c.13-.08.32-.12.38 0 .3.78 1.11.83 1.68 1.22l.14.11a5.4 5.4 0 0 1 1.14 1.2c.11.17.19.34.06.49s-.3.08-.49 0a1.25 1.25 0 0 1 -.82-.62c-.36-.64-1.1-.84-1.67-1.24a.67.67 0 0 0 -.68 0 1.1 1.1 0 0 0 -.62 1.01c0 .52-.35 1-.36 1.54 0 .83.25 1.61.29 2.42 0 .28.31.29.39.49s-.1.32-.31.33a4.18 4.18 0 0 1 -1.53-.18c-.24-.08-.31-.14-.11-.36a2.64 2.64 0 0 0 .16-1.93c-.31-.52-1.15-.45-1.68.14-.11.07-.24.09-.31 0a.36.36 0 0 1 .11-.45c.35-.37.72-.72 1.08-1.09a2.65 2.65 0 0 0 .54-.65z" fill="#4c4c4c"/><path d="m230.38 63.24a63.74 63.74 0 0 0 -6.63-.18 10.06 10.06 0 0 1 -1.12-.16c-1.23-.16-2.46-.06-3.68-.11a63.74 63.74 0 0 1 -6.63-.15 17.27 17.27 0 0 0 -2.16 0 4 4 0 0 1 -.6 0c-.23 0-.6 0-.58-.28s.38-.14.59-.15c2-.13 4 .23 6 .22 1.69 0 3.39.14 5.08 0 2.06-.12 4.08.55 6.13.27a26.87 26.87 0 0 1 3.7 0 1.91 1.91 0 0 0 .71-.1c.14-.06.32-.19.4 0s-.11.28-.26.35a1.81 1.81 0 0 1 -.95.29z" fill="#818181"/><path d="m226.35 58.16a13.57 13.57 0 0 1 -4-.35 20 20 0 0 0 -2.17-.36 11.35 11.35 0 0 1 -2.42-.57 7.05 7.05 0 0 0 -3.59-.33 11.56 11.56 0 0 1 -3.56-.31l-.05-.08a.22.22 0 0 1 .08-.18c.59-.35 1.2 0 1.79 0h.67a28 28 0 0 0 4.76 0 2.78 2.78 0 0 1 .89.13 21.75 21.75 0 0 0 3.4.67 2.78 2.78 0 0 1 .76.16 11.5 11.5 0 0 0 2.88.79c.23 0 .54.05.57.41z" fill="#787878"/><path d="m246 65.71a3.44 3.44 0 0 0 -2-.44 47.12 47.12 0 0 0 -4.9 0 17.9 17.9 0 0 1 -3.94 0 1.42 1.42 0 0 1 -.56-.18 3.49 3.49 0 0 0 -3.26-.39c-1 .25-2 .58-3.07.76-.35.06-.71.07-1.07.1-.12 0-.27 0-.27-.15s.15-.16.26-.17a48.85 48.85 0 0 0 4.92-1 3.69 3.69 0 0 1 2.4.27 6.21 6.21 0 0 0 3.27.48c1.79-.06 3.58-.16 5.37-.06a14.3 14.3 0 0 1 2.26.22 3.15 3.15 0 0 1 1.07.36c-.07.16.2.32 0 .48l-.48-.24z" fill="#8d8d8d"/><path d="m146.81 38.32v.3c-.12 0-.21 0-.32 0a3.53 3.53 0 0 0 -1.3-.54 36.32 36.32 0 0 0 -3.74-.89 5.13 5.13 0 0 1 -1.11-.36 8.66 8.66 0 0 0 -1.73-.46 4 4 0 0 1 -1.57-.53 2.43 2.43 0 0 0 -1-.29 15.37 15.37 0 0 0 -3.07-.71 1 1 0 0 1 -.61-.31.29.29 0 0 1 0-.31c.31-.19.64 0 1 0 2.13.18 4.06 1.15 6.11 1.63s4.14 1.06 6.19 1.63c.5.11 1.6.34 1.15.84z" fill="#909090"/><path d="m196 61.27a2.85 2.85 0 0 1 -2.32.08 4.71 4.71 0 0 0 -2.11-.26 16.77 16.77 0 0 1 -3.47 0c-.84-.06-1.67 0-2.51 0a4 4 0 0 1 -1.65-.21.6.6 0 0 0 -.78.23 1.9 1.9 0 0 0 -.66-.14c-.88-.14-1-.39-.76-1.29.11-.09.26-.1.25.07 0 .69.48.7.93.71.64 0 1.28.13 1.91.13 2.29 0 4.58.19 6.87.1a5.28 5.28 0 0 1 2.86.33 1 1 0 0 0 .71 0c.27-.02.56-.08.73.25z" fill="#828282"/><path d="m45.64 2.83a.42.42 0 0 1 .63-.13 5.67 5.67 0 0 1 2.1 1.53 1.32 1.32 0 0 0 .6.47c.13 0 .26.17.39 0s0-.27-.07-.38c-.33-.4-.67-.79-1-1.18a2.73 2.73 0 0 1 1.19 1.14c.28.46.12.76-.41.71s-.5.2-.53.55a7.84 7.84 0 0 0 .26 1.46c0 .24.05.47.08.71-.29.63-.27.69.42.92-.58-.06-1.21.49-1.73-.2.26-.53-.08-1-.18-1.49a6.38 6.38 0 0 0 -.15-.76 1.21 1.21 0 0 1 .21-1.07c.43-.63.36-.83-.33-1.2a7.82 7.82 0 0 1 -1.12-.71c-.13-.13-.27-.2-.36-.37z" fill="#6d6d6d"/><path d="m42.05 6.44a1.18 1.18 0 0 1 1.59-.44c.25.14.41.31.34.62-.13.58.29 1.24-.35 1.82.64.14 1.18.52 1.77 0a.43.43 0 0 1 .71 0c.31.18.7 0 1 .25-1-.13-2 .18-3 .1a12 12 0 0 0 -3.33-.06c-.28 0-.56 0-.84 0s-.36 0-.37-.2.15-.33.34-.34a17.57 17.57 0 0 1 3.09-.14c.43.06.6-.1.62-.5 0-.08 0-.16 0-.23-.08-.4.08-.9-.35-1.15s-.83.02-1.22.27z" fill="#6d6d6d"/><path d="m217.72 67.76a.48.48 0 0 0 -.54-.17 1.25 1.25 0 0 1 -.46.09c-.37 0-.82.14-1.06-.24s.05-.7.23-1 .1-.75.28-1.09.19-.57.51-.48.17.4.14.62-.1.43-.12.65a.45.45 0 0 0 .39.51c.3.07.38-.1.44-.34a1.6 1.6 0 0 1 .43-1c.06 0 .15.11.13.18a15.6 15.6 0 0 0 -.17 2c0 .18-.11.24-.2.27z" fill="#7d7d7d"/><path d="m244 57.89c.21.06.58 0 .5.34s-.38.17-.6.1c-.47-.15-.93.07-1.43 0a17.64 17.64 0 0 0 -2.91-.18c-.37 0-.72.43-1.13 0a.91.91 0 0 1 1.09-.33c.76.21 1.47-.3 2.23-.17.73.08 1.46.09 2.18.24z" fill="#5b5b5b"/><path d="m200 58.62a1.45 1.45 0 0 0 1.08 2.3c.2 0 .52 0 .25.35-.72.15-1.45.36-1.91-.5a2.23 2.23 0 0 1 .26-2.79c.07-.08.15-.14.25-.1a.21.21 0 0 1 .17.22 3.39 3.39 0 0 1 -.1.52z" fill="#727272"/><path d="m210.65 56.24a1.45 1.45 0 0 1 -1.08.26c-1.68-.2-3.37-.23-5-.59-1-.22-2.05-.27-3.08-.4a37.34 37.34 0 0 0 -4.07-.61 1 1 0 0 1 -.68-.34.28.28 0 0 1 .15-.15c.68-.08 1.31.27 2 .25a6.69 6.69 0 0 1 .88.08 18.56 18.56 0 0 0 3.55.53 2.48 2.48 0 0 0 .94 0 2.81 2.81 0 0 0 1 .27 1.63 1.63 0 0 0 .92.16 27.29 27.29 0 0 0 4 .35.52.52 0 0 1 .44.16z" fill="#787878"/><path d="m198.16 63a15.53 15.53 0 0 1 -3.9-.31c.1-.29.31-.25.5-.24 1.25.06 2.5.1 3.74.2a3.41 3.41 0 0 1 1.35.1c0 .17-.17.15-.25.24-.48.01-.96-.16-1.44.01z" fill="#8e8e8e"/><path d="m81.59 17.9a10.1 10.1 0 0 0 -.53 1.53c-.06.25-.41.27-.63.14s-.53-.47-.33-.67c.4-.41.5-1.06 1.07-1.33.11-.05.2-.23.36-.11s.08.22.06.44z" fill="#606060"/><path d="m217.72 67.76a4.75 4.75 0 0 1 .24-2.42c.3-.23.44-.16.38.22a7.15 7.15 0 0 0 0 2 .88.88 0 0 0 .36.71c.15.11.24.25 0 .29a.86.86 0 0 1 -.57 0z" fill="#626262"/><path d="m181.74 59.72a1 1 0 0 0 1 1c.23 0 .33.19.38.4a3.24 3.24 0 0 1 -2-.11c-.13-.12-.29 0-.43-.07s-.3-.09-.16-.29c.36-.15.79-.22.84-.73z" fill="#5a5a5a"/><path d="m231.69 53.36a1.44 1.44 0 0 1 -1-.41c-.14-.11-.37-.29 0-.4.12 0 .12-.14.1-.25a.34.34 0 0 1 .2-.39c.2-.06.21.14.29.24a.79.79 0 0 0 .56.32c.22 0 .53-.09.55.27s-.27.45-.52.57a1 1 0 0 1 -.18.05z" fill="#666"/><path d="m191.58 49c-.42 0-.74-.14-.84-.56s.24-.49.49-.63a.34.34 0 0 1 .48.07.93.93 0 0 0 .74.43.26.26 0 0 1 .26.27c0 .17-.14.23-.28.26z" fill="#747474"/><path d="m189.4 54.54a6.17 6.17 0 0 1 -1.71-.21c.59-.25 1.29 0 1.87-.41a1.43 1.43 0 0 0 -1.11-.32v-.09c0-.21.21-.23.37-.22.58 0 1.19 0 1.61.53.16.22.42.17.66.17a20.77 20.77 0 0 1 2.23.07.22.22 0 0 1 .11.15c-1 .19-2.12.12-3.17.23a3.18 3.18 0 0 0 -.86.1z" fill="#808080"/><path d="m223.67 66.17c-.24 0-.51-.07-.5-.34s0-.66.3-.85a.22.22 0 0 1 .33.16c.1.48.36.4.7.25s.57-.4.72-.11-.3.4-.51.54a2.62 2.62 0 0 1 -1.04.35z" fill="#7e7e7e"/><path d="m189.67 49.91c.24.13.77-.14.82.32s-.49.47-.83.59h-.06c-.31 0-.64.18-.88-.16a.24.24 0 0 1 0-.33c.28-.21.49-.51.95-.42z" fill="#616161"/><path d="m188.45 53.6a4 4 0 0 1 -1.81-.24 20.73 20.73 0 0 0 -4.09.18c-.44.05-.86-.11-1.3 0v-.13c.09-.3.36-.28.59-.29 1.65-.08 3.31-.21 5-.14a1.85 1.85 0 0 1 1.61.62z" fill="#808080"/><path d="m246.52 66c0-.16-.48-.32 0-.48a2.37 2.37 0 0 0 1.69.48 7.85 7.85 0 0 1 .84 0c.13 0 .31 0 .32.17s-.14.18-.26.2a3.23 3.23 0 0 1 -2.59-.37z" fill="#8c8c8c"/><path d="m206.56 54.27a1.39 1.39 0 0 1 -1-.62.15.15 0 0 1 0-.25c.22-.12.41-.35.7-.23s.27.16.42.22.67 0 .54.44-.47.38-.66.44z" fill="#5f5f5f"/><path d="m230.92 58.5a11.29 11.29 0 0 0 2.32-.18 1.6 1.6 0 0 1 .94.08 20.27 20.27 0 0 1 -5.5.15 15.31 15.31 0 0 1 -2.33-.39.6.6 0 0 1 .62-.27c.77 0 1.55 0 2.32.14.43.38 1 .3 1.47.37a.35.35 0 0 1 .16.1z" fill="#787878"/><path d="m199.6 62.94c-.16-.33.16-.17.25-.24a5.13 5.13 0 0 0 2.63-.35c.14-.1.27-.1.34.06s0 .42-.22.54a8.18 8.18 0 0 1 -3-.01z" fill="#777"/><path d="m246.82 54.4c.29 0 .51 0 .52.34a.87.87 0 0 1 -.8.75c-.32 0-.65-.16-.59-.52s.56-.48.87-.57z" fill="#5b5b5b"/><path d="m66.77 15.15a3.21 3.21 0 0 1 -.11.52c-.1.28-.14.73-.6.54s-.35-.57-.24-.89a1 1 0 0 1 .58-.59c.38-.16.32.2.37.42z" fill="#6a6a6a"/><path d="m215.84 51.64c.18 0 .54-.23.62.12s-.35.46-.61.62a.31.31 0 0 1 -.22.06c-.31-.07-.82.06-.83-.37s.41-.51.8-.44z" fill="#6a6a6a"/><path d="m240.45 53.16c.17.05.45.05.51.33s-.15.4-.34.5a3.78 3.78 0 0 1 -.56.21c-.31.07-.48-.12-.58-.38s.07-.41.31-.47.37-.23.66-.19z" fill="#535353"/><path d="m54.61 12.77c-.19 0-.4-.06-.42-.34s.52-.73.79-.67.65 0 .68.41c.02.24-.6.6-1.05.6z" fill="#5e5e5e"/><path d="m43.38 11.59c.23 0 .39.07.4.33a.94.94 0 0 1 -.8.82.51.51 0 0 1 -.5-.42c-.04-.27.52-.73.9-.73z" fill="#575757"/><path d="m176.44 58.37a.41.41 0 0 1 .36.47.88.88 0 0 0 .23.82.19.19 0 0 1 0 .27c-.07.09-.18.06-.28.06a.65.65 0 0 1 -.67-.88c0-.2.08-.39.13-.58z" fill="#595959"/><path d="m235.63 54.33c0 .37 0 .77-.46.75s-.72-.23-.68-.61.56-.52.92-.59.15.3.22.45z" fill="#5c5c5c"/><path d="m242.93 56.13c-.1.29-.17.73-.71.69-.35 0-.45-.33-.39-.62a.79.79 0 0 1 .85-.59c.25-.01.32.2.25.52z" fill="#505050"/><path d="m253 54c0 .39-.1.68-.51.67a.54.54 0 0 1 -.55-.57c-.05-.59.52-.49.79-.6s.27.29.27.5z" fill="#5a5a5a"/><path d="m223.8 52.23c0 .63-.32 1.13-.69 1.1s-.46-.13-.46-.44.68-.94 1-.92c.13.03.16.03.15.26z" fill="#565656"/><path d="m209.81 52.77a4.36 4.36 0 0 1 -.91.91.48.48 0 0 1 -.47-.3.31.31 0 0 1 .18-.44c.3-.15.52-.54.95-.36.11.04.23.07.25.19z" fill="#636363"/><path d="m48.29 12.23a.53.53 0 0 1 -.58.52c-.3 0-.62-.14-.55-.48a.73.73 0 0 1 .7-.63c.28.01.43.25.43.59z" fill="#5a5a5a"/><path d="m249.73 53.41c-.33-.09-.73-.12-.72-.53s.41-.47.68-.46.67.15.65.56-.34.37-.61.43z" fill="#585858"/><path d="m225.26 55.74a2 2 0 0 1 -.94.14c-.35.11-.47-.13-.53-.39s.17-.29.32-.42c.44-.35.83-.1 1.18 0s.01.46-.03.67z" fill="#767676"/><path d="m219.17 51.79c.48.11 1-.33 1.44 0 .19.49-.06.7-.5.67a5 5 0 0 1 -1-.32c-.37-.14-.11-.26.06-.35z" fill="#686868"/><path d="m240.45 57.09c-.27 0-.62 0-.57-.3s.51-.56.92-.57c.22 0 .53 0 .5.27-.06.51-.42.64-.85.6z" fill="#5e5e5e"/><path d="m255.88 51.46a1.27 1.27 0 0 0 -.92-.1 18.14 18.14 0 0 1 -2.22.1c.3-.23.69-.07 1-.27h2.09a.65.65 0 0 1 .24 0c.2 0 .41.05.49.28a.19.19 0 0 1 -.14.23.36.36 0 0 1 -.54-.24z" fill="#838383"/><path d="m70.11 14.28a.61.61 0 0 1 -.64.5c-.27 0-.54-.23-.48-.51a.67.67 0 0 1 .7-.52c.31 0 .44.16.42.53z" fill="#585858"/><path d="m62.18 13c.34 0 .49.18.48.43a.65.65 0 0 1 -.66.64c-.23 0-.48-.06-.46-.34s.46-.52.64-.73z" fill="#676767"/><path d="m236.65 55.15c.3.07.52.23.5.52s-.35.47-.65.46a.47.47 0 0 1 -.5-.48c0-.35.38-.41.65-.5z" fill="#4e4e4e"/><path d="m64.5 12.22c0 .29-.08.55-.42.54s-.61-.21-.58-.54a.67.67 0 0 1 .62-.54c.32-.04.35.32.38.54z" fill="#5c5c5c"/><path d="m54.52 9.67c.65-.23.68-.21.71.46l-.13.13c-.15.16-.17.49-.48.43s-.27-.21-.34-.38.03-.48.24-.64z" fill="#5d5d5d"/><path d="m51.62 13.86c-.35.41-.7.32-1 0-.18-.27 0-.43.2-.56.08 0 .17 0 .22-.07.21-.23.44-.46.72-.17s.13.55-.14.8z" fill="#6c6c6c"/><path d="m197.09 50.22c-.25-.11-.62-.15-.64-.5s.41-.4.65-.45.38.29.4.54-.12.4-.41.41z" fill="#5e5e5e"/><path d="m211.19 51.7a.78.78 0 0 1 -.62.66c-.25 0-.48-.1-.45-.35s.41-.51.71-.62.31.13.36.31z" fill="#686868"/><path d="m73.22 17.63c-.25-.07-.5-.19-.49-.45a.64.64 0 0 1 .61-.56c.27-.05.33.24.33.47a.48.48 0 0 1 -.45.54z" fill="#696969"/><path d="m204.28 51.45c-.27 0-.55-.06-.55-.36s.31-.47.57-.51.48.24.51.48-.31.34-.53.39z" fill="#5c5c5c"/><path d="m91.28 21.8c-.22 0-.5-.07-.44-.36a.66.66 0 0 1 .63-.53c.27 0 .38.18.37.43s-.26.46-.56.46z" fill="#747474"/><path d="m76.64 16.75c-.24 0-.5 0-.47-.29a.64.64 0 0 1 .58-.59c.3 0 .41.23.41.48s-.3.37-.52.4z" fill="#6e6e6e"/><path d="m228.82 54.38c.21 0 .3.09.31.25s-.55.7-.77.66-.37-.17-.34-.35c.09-.44.53-.41.8-.56z" fill="#6b6b6b"/><path d="m86.09 19.72a.69.69 0 0 1 -.61.59.3.3 0 0 1 -.37-.35.81.81 0 0 1 .64-.6c.19-.05.3.14.34.36z" fill="#636363"/><path d="m193.39 54.21h-.15a.63.63 0 0 1 .82-.47 4.73 4.73 0 0 0 1.91 0 1.92 1.92 0 0 1 .7.35c.1.15.27.26.18.47h-.15a16 16 0 0 0 -3.31-.35z" fill="#6d6d6d"/><path d="m203.21 52c-.06.28-.18.5-.5.49s-.48-.1-.46-.37.38-.46.64-.53.3.17.32.41z" fill="#636363"/><path d="m187.72 49.06c-.1.44-.27.72-.67.74-.22 0-.45-.11-.37-.34a.9.9 0 0 1 .78-.54c.15-.02.27.08.26.14z" fill="#5d5d5d"/><path d="m231.82 55.49c.27 0 .33.21.29.4a.58.58 0 0 1 -.59.48.3.3 0 0 1 -.33-.38c.07-.35.44-.33.63-.5z" fill="#6e6e6e"/><path d="m251.53 56.7c-.05.31-.29.4-.56.41s-.42-.12-.37-.35.35-.42.63-.45.28.18.3.39z" fill="#616161"/><path d="m43.47 4.26c-.27.67-.92 1-1.35 1.56-.15.19-.44.37-.07.62-.11.17-.25.38-.46.23s-.07-.38.06-.53a13.48 13.48 0 0 1 1.82-1.88z" fill="#6d6d6d"/><path d="m193.73 51.65c-.2-.34 0-.54.28-.63a.72.72 0 0 1 .9.38c-.4.08-.68.67-1.18.25z" fill="#7c7c7c"/><path d="m197.21 51.46a.52.52 0 0 1 -.49.27c-.23 0-.32-.14-.3-.34s.14-.27.33-.23.4.06.46.3z" fill="#808080"/><path d="m243.9 57.9a10 10 0 0 1 -2.18-.24 5.53 5.53 0 0 1 2.18.24z" fill="#6f6f6f"/><path d="m96.66 42.06c-1.76-.44-3.41-1.29-5.3-1.23-.77 0-1.46-.52-2.26-.42v-.09c.11-.31.4-.21.61-.28.57-.07 1 .34 1.58.36a2.36 2.36 0 0 0 1 0c.58.15 1.19 0 1.77.18a1.63 1.63 0 0 1 .86.38 2.42 2.42 0 0 0 1.46.46 4 4 0 0 1 1.39.34c1.16.5 2.32 1.06 3.52 1.46 1.48.49 2.91 1.13 4.42 1.52a6.15 6.15 0 0 1 2.1 1 14.58 14.58 0 0 0 5.52 2.3 20.72 20.72 0 0 1 4.85 1.65 1.34 1.34 0 0 0 .45.13c.86 0 1.62.5 2.46.63l.17.06c.28.16.61 0 .89.12.11 0 .23.07.34.11.35.19.79 0 1.13.27.18.15.42 0 .61.11a3.16 3.16 0 0 0 1 .41 23.18 23.18 0 0 0 4.74.82 4.72 4.72 0 0 1 1.33.33 3.4 3.4 0 0 0 .78.18c.21 0 .38.1.26.37a14.71 14.71 0 0 1 -3.24-.45 3.76 3.76 0 0 1 -1.84-.34c-.38-.19-.8.07-1.17-.12a21.07 21.07 0 0 0 -4.34-1.23 22.77 22.77 0 0 1 -5.24-1.57 19.35 19.35 0 0 0 -3.25-1 15.69 15.69 0 0 1 -3.24-1 27.51 27.51 0 0 1 -3-1.69 20.82 20.82 0 0 0 -4.08-1.52c-.75-.27-1.52-.46-2.28-.69a.44.44 0 0 0 -.15-.1c-1.35-.4-2.51-1.18-3.85-1.46z" fill="#787878"/><path d="m75.71 45.64a14.38 14.38 0 0 1 -2.88-.27c-.54-.21-1.14.06-1.71.12a4 4 0 0 1 -1.43 0 23.49 23.49 0 0 0 -4.57-.49 1 1 0 0 1 -.17 0c-.2-.06-.52-.07-.47-.35s.36-.18.56-.13c1.06.28 2.15 0 3.21.26.41.08.82.18 1.24.23a6.59 6.59 0 0 0 2.08 0c1.19-.25 2.38.12 3.58 0a1.12 1.12 0 0 1 .55.2c.11.06.27.14.21.31a.18.18 0 0 1 -.2.12z" fill="#7f7f7f"/><path d="m90.38 46.84c1.65.24 3.31.4 5 .54a8.07 8.07 0 0 0 2.54-.2 5.5 5.5 0 0 1 2.49-.14 3.05 3.05 0 0 0 1.24 0 13.29 13.29 0 0 1 2.19.15.18.18 0 0 1 .19.11c0 .11 0 .19-.11.25a1.13 1.13 0 0 1 -.86.12 18 18 0 0 0 -5.34 0 11.37 11.37 0 0 1 -4.5-.06 7.43 7.43 0 0 1 -2.84-.77z" fill="#888"/><path d="m78.29 50.19a2.65 2.65 0 0 0 -.2-1.75 2.49 2.49 0 0 1 .14-1.91c.07-.16.12-.38.36-.31a.31.31 0 0 1 .19.44 3 3 0 0 0 .22 2.26.8.8 0 0 1 .08.58 1.75 1.75 0 0 0 .19 1.38c.1.18.17.41 0 .54s-.34-.09-.48-.23a1.24 1.24 0 0 1 -.5-1z" fill="#707070"/><path d="m49.86 42.2a11.49 11.49 0 0 1 -5-.2c-.14 0-.36-.06-.31-.28s.22-.12.36-.13a.24.24 0 0 1 .12 0c1.9.56 3.83.16 5.75.23a2.54 2.54 0 0 1 1.06.12c-.09.39-.38.22-.6.21-.6 0-1.2 0-1.79-.09.18.02.34-.06.41.14z" fill="#8e8e8e"/><path d="m66.63 41.62a1.52 1.52 0 0 0 .31 1.17c.09.11.19.22.08.37a.38.38 0 0 1 -.38.12.83.83 0 0 1 -.71-.55 2.25 2.25 0 0 1 -.12-1.06c0-.37.18-.73.58-.71s.2.46.24.66z" fill="#6a6a6a"/><path d="m49.86 42.2h-1.23v-.2c1.08-.14 2.18 0 3.26-.07l.93.25c.15 0 .34.09.3.3s-.23.19-.39.2a1 1 0 0 1 -.3 0 17.36 17.36 0 0 0 -2.57-.48z" fill="#7a7a7a"/><path d="m64.87 39.54a3.21 3.21 0 0 0 .13 2.05c.07.19.08.41-.14.52a.44.44 0 0 1 -.58-.18 1.48 1.48 0 0 1 -.36-1.48 5.11 5.11 0 0 0 .21-1c0-.27.1-.62.46-.57s.19.43.28.66z" fill="#828282"/><path d="m95.56 52.86c-.45-.34-.68-.75-.35-1.3.12-.26.36-.23.56-.17s.12.29.13.46a.79.79 0 0 0 .18.53c.12.13.34.23.24.43s-.36.09-.54.12a.26.26 0 0 1 -.22-.07z" fill="#6f6f6f"/><path d="m68.91 43.28a1.11 1.11 0 0 1 -.71-.12.35.35 0 0 1 -.12-.47c.08-.17.21-.35.4-.28a4.84 4.84 0 0 1 1 .5c.15.1 0 .26-.11.3a3.37 3.37 0 0 1 -.46.07z" fill="#7a7a7a"/><path d="m93.16 51c-.32-.24-.87-.4-.36-1a1.44 1.44 0 0 1 1.22.7c.09.2 0 .29-.18.34a.74.74 0 0 1 -.56-.08h-.12z" fill="#737373"/><path d="m71 43.4c0 .25-.07.5-.37.54a.3.3 0 0 1 -.34-.33.49.49 0 0 1 .46-.53c.25-.01.25.14.25.32z" fill="#717171"/><path d="m95.9 22.25c-.32 0-.54-.06-.65-.31s.2-.44.32-.65.33-.18.51-.07a.81.81 0 0 0 .61.18c.19 0 .38 0 .42.21a.4.4 0 0 1 -.33.49c-.31.07-.62.11-.88.15z" fill="#676767"/><path d="m106.22 26a2 2 0 0 1 -.86-.22c-.14-.08-.29-.16-.27-.35a.58.58 0 0 1 .36-.45c.18-.09.29 0 .4.16l.51.5c.09.09.29.13.19.31s-.21.05-.33.05z" fill="#8b8b8b"/><path d="m99.17 24.06c-.13.24 0 .68-.5.67-.23 0-.56-.07-.51-.36a.83.83 0 0 1 .69-.65c.15-.03.35.08.32.34z" fill="#626262"/><path d="m102.38 25.61h-.82a.51.51 0 0 1 .34-.64.39.39 0 0 1 .49.11.32.32 0 0 1 -.01.53z" fill="#6a6a6a"/><path d="m123.29 36.78a14.25 14.25 0 0 1 3.59 1.22 4.19 4.19 0 0 0 1.07.35 4.76 4.76 0 0 1 1.94 1.09 7.19 7.19 0 0 0 2.51 1.28 13.68 13.68 0 0 0 2.05.77 3.52 3.52 0 0 0 1.55.08 2.87 2.87 0 0 1 1 0 15.66 15.66 0 0 1 2.88.69 17.86 17.86 0 0 0 3.43 1.11 17.17 17.17 0 0 1 2.33.47.41.41 0 0 1 .26.22c.09.45.53.39.82.52s3.45 1.32 3.16 1.65c-.35 0-3.63-1-4-1.12-1.69-.55-3.44-.85-5.16-1.25a14.06 14.06 0 0 1 -2.2-.89 5.1 5.1 0 0 0 -3.16-.13 1.32 1.32 0 0 1 -1.17-.28c-.43-.37-1-.34-1.44-.65-.17-.12-.39 0-.58 0a.35.35 0 0 1 -.16-.08 2.74 2.74 0 0 0 -1.67-.47c-1.43-.07-2.79-.59-4.22-.65-.46 0-5-.6-5.39-1.11-.14-.19-.39-.1-.6-.06a9.12 9.12 0 0 1 -2.36.45 2.48 2.48 0 0 1 -1.18-.08c-.12 0-.24-.07-.24-.22s.12-.18.22-.24a2 2 0 0 1 1-.25 23.57 23.57 0 0 1 4.75-.41c.87.1 1.62 1.69 4.17 1a3.7 3.7 0 0 1 1.58.22 4.22 4.22 0 0 0 1.1.36h.11a7.71 7.71 0 0 0 -2.53-1.34c-.88-.24-1.65-.78-2.54-1a16.83 16.83 0 0 0 -4.27-.78.75.75 0 0 1 -.83-.73c.09-.18.26-.3.43-.23.74.32 1.56 0 2.31.38.46.2.99.05 1.44.11z" fill="#858585"/><path d="m123.29 36.78c.08.1.25.27-.05.21a7.57 7.57 0 0 1 -1.77-.26 1.14 1.14 0 0 0 -1 0c-.41.19-.77-.15-1.16-.16h-.1c-.55.11-1.08-.17-1.64-.11a.47.47 0 0 1 -.47-.39c.11-.56 0-.76-.59-.91a5.66 5.66 0 0 1 -1.27-.33l-.3-.14-.87-.35c-.15-.23 0-.4.13-.55a1.39 1.39 0 0 0 .42-.48 8 8 0 0 1 3.15 1.51 4.33 4.33 0 0 0 .88.61l2.22.87c.8.2 1.62.22 2.41.47z" fill="#737373"/><path d="m127.71 36.66a1.64 1.64 0 0 1 -.82.3.69.69 0 0 1 -.73-.29c-.17-.24 0-.4.13-.57a1.19 1.19 0 0 0 .08-.16c.08-.16 0-.48.28-.43s.13.3.14.47c0 .32.17.42.47.33s.45 0 .45.35z" fill="#919191"/><path d="m107.05 28.85c-.2 0-.49 0-.44-.25a.78.78 0 0 1 .8-.64c.18 0 .33 0 .3.23-.04.4-.21.68-.66.66z" fill="#636363"/><path d="m123.28 33.18c-.24 0-.53 0-.56-.34s.26-.3.43-.43a1.92 1.92 0 0 1 .31-.18c.16-.08.34-.16.45.06a.27.27 0 0 1 -.17.39.83.83 0 0 0 -.47.5z" fill="#6b6b6b"/><path d="m93.52 24.31c0-.08 0-.16 0-.23 0-.36.09-.74.41-.75s.2.42.23.67a1.09 1.09 0 0 1 0 .18 1 1 0 0 1 -.64.13z" fill="#7d7d7d"/><path d="m111.65 30.66a.39.39 0 0 1 .12-.52c.18-.16.33-.36.61-.22a.29.29 0 0 1 .17.34c0 .28-.29.28-.5.32z" fill="#6f6f6f"/><path d="m123.45 35.23c0 .19-.08.39-.29.4s-.28-.19-.3-.37a.25.25 0 0 1 .3-.32.28.28 0 0 1 .29.29z" fill="#6a6a6a"/><path d="m127.29 34.61c0 .15 0 .3-.17.27s-.28-.34-.33-.56 0-.28.15-.25c.3.05.29.34.35.54z" fill="#969696"/><path d="m123.29 36.78a11.68 11.68 0 0 1 -2.41-.47 7.37 7.37 0 0 1 2.41.47z" fill="#858585"/><path d="m230.92 58.5h-.11c-.37-.21-.79-.08-1.18-.13a.78.78 0 0 1 -.39-.1l-2.87-.14a.83.83 0 0 0 -.22-.08c-1.19-.19-2.33-.61-3.49-.88-1.54-.36-3.11-.66-4.67-1-.47-.09-1 .29-1.5.15a4.17 4.17 0 0 0 -2.19 0c-.42.12-.73-.29-1.14-.26-.09-.09-.32 0-.29-.26.4-.19.75-.55 1.25-.34a4 4 0 0 0 1.92.12 27.71 27.71 0 0 1 4.17.25 60.46 60.46 0 0 0 7.3 1.59 16 16 0 0 0 1.71.18c.65-.07 1.08.54 1.71.56.13.05.07.24-.01.34z" fill="#5e5e5e"/><path d="m250.56 59c-.22.16-.3 0-.41 0a1.61 1.61 0 0 0 -1.27-.1.58.58 0 0 1 -.62-.09c-.13-.1-.08-.25 0-.38a.52.52 0 0 1 .56-.25c.36.05.71.15 1.06.19a5.17 5.17 0 0 0 1.84.07c.19-.05.43 0 .48.24s-.18.28-.37.37a1.28 1.28 0 0 1 -1.27-.05z" fill="#5a5a5a"/><path d="m159.17 54.31c-.84.29-1.7-.08-2.55.1a12.17 12.17 0 0 1 -2.63 0 8 8 0 0 0 -2.66.3c-.57.19-1.19 0-1.78.11a1.12 1.12 0 0 0 -.6.25 1.61 1.61 0 0 1 -1.54.42c-2.12-.24-4.23-.5-6.35-.75a1.39 1.39 0 0 1 -.32-.12c0-.31.37-.11.45-.37a.85.85 0 0 0 -.79 0 1.52 1.52 0 0 1 -1.31.15c-1-.15-2.08-.32-3.12-.46a20.06 20.06 0 0 1 -2.39-.69l-.58-.15c-.17-.47.08-.55.49-.58s.95.32 1.45.38c.91.09 1.81.27 2.72.3a2.1 2.1 0 0 1 .91.28c.8 0 1.54.39 2.34.45.56 0 1.06.33 1.52.32a21.66 21.66 0 0 0 -2.39-.45.23.23 0 0 1 -.21-.24.27.27 0 0 1 .21-.32 4.29 4.29 0 0 1 1.9.14c-.11-.17-.35-.09-.56-.15s3.92.26 4.67.3 1.59.44 2.42.48c.26 0 .27.26.25.47 0 .42-.38.24-.57.29.22 0 .59.13.58-.36 0-.23.12-.28.34-.32 1-.18 1.92 0 2.85-.11s1.9.24 2.79-.26a.32.32 0 0 1 .34 0 3.4 3.4 0 0 0 2.16.18 2.92 2.92 0 0 1 1.94.31z" fill="#545454"/><path d="m186.87 53.11a28.38 28.38 0 0 0 -4.32.24 11.28 11.28 0 0 1 -1.3 0c-1.05.08-2.11.11-3.16.17-1.71.1-3.42.29-5.13.32-2.29 0-4.55.49-6.84.46a7.64 7.64 0 0 1 -1.85 0c-.29-.25 0-.38.1-.57a3.77 3.77 0 0 1 1.57-.13c.28 0 .59.11.77-.27.07-.15.28-.1.44-.1.38 0 5.5-.51 5.78-.48a14.36 14.36 0 0 0 3-.17c.89-.08 1.78-.15 2.66-.17 1.3 0 2.59-.25 3.89-.16.27 0 .5-.19.78-.18a2.11 2.11 0 0 1 1.11.21c.13.25.13.25-.09.38a9.72 9.72 0 0 1 2.22-.15c.38 0 .62.13.52.57a.14.14 0 0 1 -.15.03z" fill="#505050"/><path d="m138.52 53.71a1.9 1.9 0 0 0 -1.15-.21 21.48 21.48 0 0 1 -2.87-.38c-.14 0-.26-.18-.4-.24a.79.79 0 0 0 -1.1.23h-.24a3.78 3.78 0 0 0 -1.56-.24c-1.53-.24-3.06-.47-4.58-.74-.52-.1-1-.31-1.54-.46-.07-.05-.17-.08-.2-.18a.32.32 0 0 1 .14-.31.61.61 0 0 1 .51 0c.11 0 .28.08.33 0 .38-.56.9-.19 1.36-.21a20 20 0 0 1 2.42.51c1.54.15 3 .58 4.57.71a17.54 17.54 0 0 0 3 .4c.34.06.71 0 1.06 0 1.24.35.33.5.55.71a.3.3 0 0 1 -.3.41z" fill="#4a4a4a"/><path d="m168.89 60.79c.59 0 1.18-.09 1.77-.16h1.19c2.93.08 5.8.07 8.68 0 .11.25.42.19.59.36-2-.13-4 .28-6 .22-1.31 0-2.63-.18-3.94-.17a11.14 11.14 0 0 0 -3.89.42 2.07 2.07 0 0 1 -.85-.12c-.72-.1-1.45-.06-2.17-.18a16.71 16.71 0 0 0 -2.65-.06 1.16 1.16 0 0 1 -.57-.13c0-.25.12-.36.31-.32a5.43 5.43 0 0 0 .71 0c.89.09 1.78 0 2.67.13a8.49 8.49 0 0 0 2.71 0c.55-.03.97.11 1.44.01z" fill="#858585"/><path d="m172.48 60c-.17.56-.54.64-1.08.24a4 4 0 0 0 -.23-2.15c-.12-.2-.29-.61 0-.68a.64.64 0 0 1 .76.43 9 9 0 0 0 .55 2.16z" fill="#4b4b4b"/><path d="m163.72 54.3h-.72a1 1 0 0 0 -1.2 0h-2.64c-.13-.22-.14-.42.13-.54s.27-.23.42-.32a1.11 1.11 0 0 1 .36 0h.23c.36.43.72.31 1.07 0 .16 0 .31-.11.48-.14h.15a3.08 3.08 0 0 1 1.86.5.56.56 0 0 1 0 .4.57.57 0 0 1 -.14.1z" fill="#545454"/><path d="m161.8 54.3c-.1-.09-.28-.13-.24-.3s.2-.15.34-.13l.81.08c.22 0 .32.13.29.35z" fill="#4a4a4a"/><path d="m131.2 52.87c.63-.65 1 .15 1.56.24l-.34.09h-.13c-.29-.36-.76-.12-1.09-.33z" fill="#545454"/><path d="m163.72 54.3v-.11a.28.28 0 0 1 .48 0 6.88 6.88 0 0 0 1.92.12 4.35 4.35 0 0 1 -2.4-.01z" fill="#5f5f5f"/><path d="m174.16 59.76c-.38-.13-.47 0-.38.25s.17.36-.08.45a.47.47 0 0 1 -.56-.23 1.08 1.08 0 0 1 -.14-.86 3.63 3.63 0 0 0 .22-1.57.32.32 0 0 1 .29-.38c.21-.05.28.12.34.27.21.51.44 1 .61 1.54.11.31.11.64-.3.53z" fill="#575757"/><path d="m179.59 60c0 .19-.07.3-.21.31a.71.71 0 0 1 -.72-.49c-.11-.32.18-.49.39-.66s.17-.05.2 0c.11.29.11.62.34.84z" fill="#707070"/><path d="m114.71 33.45c.14.13-.33.13-.08-.13.06 0 .48 1.25.23 1.35s-2.42-.56-2.44-1a.54.54 0 0 0 -.42-.67 19 19 0 0 0 -3.11-.34 2.51 2.51 0 0 1 -1.56-.42c-.15-.07-.74-.43-.9-.51-.62-.11-1.13 1.95-1.59 2.13-.28.11-.51.27-.81 0s-.11-.49 0-.74a.67.67 0 0 1 .16-.25c.27-.44.83-.69.89-1.28a.81.81 0 0 0 -.39-.75 3.92 3.92 0 0 0 -1.84-.92 3.05 3.05 0 0 1 -1.22-.58 13.32 13.32 0 0 0 -3.09-1.24 8.61 8.61 0 0 1 -3.23-1.71.86.86 0 0 0 -.67-.17c-.94.09-1.88-.18-2.82 0h-.27c-.6.15-.77-.32-.81-.71-.09-.76-.66-1-1.21-1.16-.71-.22-1.28-.76-2-.83a.29.29 0 0 1 -.18-.43c.08-.17.23-.11.35-.05.52.26 1.1.35 1.62.6a12.72 12.72 0 0 0 5.46 1.36 1.8 1.8 0 0 1 1.21.45 8.36 8.36 0 0 0 3.43 1.62 6 6 0 0 1 1.74.77 16.23 16.23 0 0 0 1.84.87.87.87 0 0 0 1.17-.19c.31-.37.54-.2.63.16s.28.54.07.86.11.3.25.39a10.87 10.87 0 0 0 3 1.14 18.75 18.75 0 0 1 4.38 1.38 17.67 17.67 0 0 1 2.21 1z" fill="#585858"/><path d="m89.2 23.71c-.6-.08-1.14-.35-1.74-.44.63.26 1.19.62 1.81.89l1 .44a1.07 1.07 0 0 1 .75 1.1c0 .35.16.35.41.28.37.34.1.68 0 1a55.31 55.31 0 0 1 -3.53 5.42c-.25.36-.4.77-.66 1.14a.53.53 0 0 1 -.81.19c-.32-.22-.28-.53-.09-.84 1-1.57 2-3.11 3-4.65.4-.6.69-1.26 1-1.89a.76.76 0 0 0 -.46-1.24 17.74 17.74 0 0 0 -2.63-1c-.1 0-.22-.09-.32-.15a20.49 20.49 0 0 0 -4.21-1.56 3.85 3.85 0 0 1 -.85-.28 2 2 0 0 0 -2.18.34c-.81 1.08-1.41 2.3-2.13 3.44s-1.36 2.1-2 3.18c-.13.23-.26.53-.63.41-.07-.37-.25-.29-.49-.14a6.14 6.14 0 0 0 -1.37 1.65c-.28.37-.56.72-.86 1.07-.17.19-.38.39-.66.12a1.73 1.73 0 0 1 -.1-.24c.13-.64.68-1 1-1.51a26.68 26.68 0 0 1 1.88-2.44.72.72 0 0 1 .36-.29 1.08 1.08 0 0 0 1-1.11 1 1 0 0 1 .1-.28 13.84 13.84 0 0 0 2.18-3.41c.2-.46.72-.76.7-1.33a1 1 0 0 1 1.12-.76 13.32 13.32 0 0 1 3.81.67 13.11 13.11 0 0 1 2.16 1.13 2 2 0 0 0 1 .26 6.3 6.3 0 0 1 2.44.83z" fill="#787878"/><path d="m79.74 20.82a1.74 1.74 0 0 0 -.87.86c-.45.36-1 .09-1.35-.05a18 18 0 0 0 -2.26-.53c-.67-.15-1.26-.49-1.92-.66a19.72 19.72 0 0 0 -2.43-.18 2 2 0 0 1 -.73-.21 1.14 1.14 0 0 0 -.81-.2.81.81 0 0 1 -.59-.23 2.64 2.64 0 0 0 -1.24-.49 12.22 12.22 0 0 1 -1.8-.59c-1.29-.44-2.56-1.15-4-.61a4.19 4.19 0 0 1 -1.66.2 2.55 2.55 0 0 0 -1.33.27.56.56 0 0 0 -.8.3.31.31 0 0 1 -.52.12c-.21-.28 0-.48.14-.66s.2-.46-.12-.52c-.7-.15-1.26-.68-2-.72a6 6 0 0 0 -1.52-.08 3.2 3.2 0 0 1 -1.86-.15 1.82 1.82 0 0 0 -1.77.23c-.24 0-.24-.24-.31-.4a3 3 0 0 0 -2-.77c-.39 0-.78.13-1.18.14s-.5.47-.79.65c-.24 0-.23-.25-.28-.41s-.15-.35-.34-.33c-.35 0-.73-.29-1 .11-.09.12-.18.25-.26.38-.36-.14 0-.43-.15-.63a.35.35 0 0 0 -.37-.31c-.14 0-.3 0-.38-.12-.34-.61-.73-.33-1.14-.08-.14.09-.22.34-.43.25s-.13-.31-.11-.49a.44.44 0 0 1 .41-.43 2.18 2.18 0 0 1 .76.1 4.84 4.84 0 0 0 1.64.25l1 .11c.08.28-.09.32-.29.28s-.58-.06-.86-.11a28.34 28.34 0 0 0 3.57.14 5.07 5.07 0 0 1 1.73.2 5.92 5.92 0 0 0 1.63.2c.19 0 .31 0 .32-.23a.5.5 0 0 1 .41-.05 5.42 5.42 0 0 0 3 .32 2.25 2.25 0 0 1 1.4.21.3.3 0 0 1 -.44.24 4.47 4.47 0 0 0 -2.15 0 1.39 1.39 0 0 1 -.43 0 5.61 5.61 0 0 0 1.32-.14 4.57 4.57 0 0 1 2.37.47.53.53 0 0 0 .33 0l.73.23a.72.72 0 0 0 .84.37 2.9 2.9 0 0 1 1 .07 5.87 5.87 0 0 0 2.15-.14 4.56 4.56 0 0 1 2.51.27c.3.11.63.44 1 .05a5.45 5.45 0 0 1 1.21.48c-.13.23 0 .31.2.34s.61.18.87-.1a2.12 2.12 0 0 1 1.2.48c0 .4.33.44.59.49a20 20 0 0 0 3.69.6 2.69 2.69 0 0 1 1.2.35 1.53 1.53 0 0 0 1.36.22 38.24 38.24 0 0 1 3.91.64z" fill="#7c7c7c"/><path d="m65.44 17.35c.11.62 0 .74-.52.46a6.67 6.67 0 0 0 -4.29-.38 2.1 2.1 0 0 1 -.83-.08c-.19 0-.41-.14-.57 0-.57.48-1 0-1.37-.25s-.12-.33.15-.36a.92.92 0 0 1 .91 0 3.89 3.89 0 0 0 2.29.2 7.5 7.5 0 0 1 2.4-.22 6.23 6.23 0 0 1 1.83.63z" fill="#787878"/><path d="m75.76 20.21c0 .29-.23.38-.47.27-1.29-.57-2.71-.52-4-.92a9.12 9.12 0 0 0 -1.58-.24 3.79 3.79 0 0 1 -1.49-.83c.31-.15.51 0 .74.06a10.85 10.85 0 0 0 4.13.84 2.66 2.66 0 0 1 1.58.46c.33.26.73.22 1.09.36z" fill="#787878"/><path d="m67.72 18.07c0 .51-.15.67-.63.47a5.27 5.27 0 0 0 -.51-.19c-.16-.07-.4-.11-.38-.32s.28-.17.45-.2z" fill="#787878"/><path d="m63.05 15.91c-.16.16-.1.58-.47.47s-.35-.34-.27-.62.29-.47.59-.37.1.34.15.52z" fill="#5f5f5f"/><path d="m184.47 52.52h-1.19a.19.19 0 0 1 0-.18c.45-.45 1-.12 1.39-.24a27.43 27.43 0 0 1 -3.87-.48 8 8 0 0 0 -3 .21 17.52 17.52 0 0 1 -1.78.36 9.65 9.65 0 0 1 -5.17-.83 3 3 0 0 0 -.91-.25c-1-.09-1.85-.57-2.8-.74a.33.33 0 0 1 -.28-.27c0-.39.44-.18.54-.42-.17-.2-.4-.06-.59-.1s-.51-.11-.38-.48a.49.49 0 0 1 .44-.1c.6.14 1.33.66 1.86.81a29.77 29.77 0 0 0 5.71 1.55 6.47 6.47 0 0 0 2.77-.32 8.61 8.61 0 0 1 4.95-.17c1.28.3 2.61.32 3.89.66.87.23 1.74.43 2.61.64v.11c-.15.27-.38.15-.58.11a1.77 1.77 0 0 0 -1.2.12 6.41 6.41 0 0 1 -2.41.01z" fill="#848484"/><path d="m183 50.24a.78.78 0 0 1 -.67-.76c0-.36.38-.52.61-.5.49 0 .42.55.51.88s-.17.37-.45.38z" fill="#5c5c5c"/><path d="m168.65 49.15c-.73.12-.92-.11-.72-.83l.38-.18c.21-.1.42-.3.64 0s.09.45 0 .66-.22.2-.3.35z" fill="#494949"/><path d="m182.93 47.11.07-.11a.73.73 0 0 1 1.1.17c.2.28.15.54-.22.64a.9.9 0 0 1 -.95-.7z" fill="#656565"/><path d="m177.08 50.14c-.23-.11-.67-.07-.65-.44s.45-.47.76-.54a.33.33 0 0 1 .43.35.59.59 0 0 1 -.54.63z" fill="#585858"/><path d="m212.92 55.87.24.24a9.11 9.11 0 0 1 -1.81 0h-.71a14.48 14.48 0 0 1 -2.63-.18s-.06 0-.1 0a5.12 5.12 0 0 1 -1.95-.05.72.72 0 0 1 -.72-.12c-.21-.12-.39-.32-.66-.13s-.29 0-.42-.11c-.28 0-.55.12-.83 0-.42-.39-1-.27-1.48-.37a12.61 12.61 0 0 0 -2.13-.22 12 12 0 0 1 -2.87-.37l-.25-.24c.14-.5-.27-.54-.57-.62a4 4 0 0 1 -.75-.27c-.16-.08-.26-.18-.09-.35a6.11 6.11 0 0 1 3.13.49 2.15 2.15 0 0 0 .87.18 10.18 10.18 0 0 1 2.61.59c.25.09.54 0 .79.11l3 .46.64.13c1.05.09 2.09.23 3.13.36a3 3 0 0 0 2 .12c.47 0 .95-.07 1.43 0 .17 0 .44-.13.5.13s-.29.03-.37.22z" fill="#5a5a5a"/><path d="m206 55.87-.09-.45c.26.13.61-.11.7.39 0 .16.41.23.62 0s.24-.24.41-.19c.75.23 1.57 0 2.28.37.27.14.55-.25.76.09v.1a17.44 17.44 0 0 1 -4.68-.31z" fill="#6d6d6d"/><path d="m51.38 15.42c.17.08.46.11.32.39a.54.54 0 0 1 -.61.25 17.9 17.9 0 0 0 -3.17-.51 17 17 0 0 1 -4.09-.35c-.15 0-.32 0-.46-.19.64-.25 1.3.22 1.91-.07 1.34.16 2.71-.37 4 .2a4.71 4.71 0 0 0 2.1.28z" fill="#787878"/><path d="m57.28 16.51c-.4.43-.86.08-1.2 0a3.64 3.64 0 0 0 -2.6 0c-.47.2-.74-.24-1.06-.56 1.28.15 2.54-.2 3.8 0a4 4 0 0 1 1.06.56z" fill="#787878"/><path d="m136.12 35.23a30 30 0 0 1 -3.73-.95c1.07.15 2.11.41 3.15.66a1.38 1.38 0 0 1 .58.29z" fill="#a3a3a3"/><path d="m195.16 53.11a2.75 2.75 0 0 0 1.09.25c.61.08.73.42.35.94a1.34 1.34 0 0 0 -.6-.11 1.9 1.9 0 0 0 -1.52-.22 6 6 0 0 1 -1.6.08c-.66 0-1.32 0-2 0a.45.45 0 0 1 -.34-.09 2.64 2.64 0 0 0 -2.17-.51.72.72 0 0 1 -.51-.13c-.09-.41-.09-.41.53-.47-.18.06-.39 0-.61 0s-.4.25-.63.3a.12.12 0 0 1 -.15 0c-.55-.62-1.27-.3-1.9-.3a2.41 2.41 0 0 0 -1.38.24.28.28 0 0 1 -.42-.2c0-.23.2-.19.35-.2a2.21 2.21 0 0 0 .81-.12c.63 0 1.24-.25 1.87-.05.21.07.36-.11.53-.21a1 1 0 0 1 .64-.1 22.62 22.62 0 0 0 3.84.46 12.62 12.62 0 0 1 2.73.36c.36.12.75-.03 1.09.08z" fill="#434343"/><path d="m195.16 53.11a2.48 2.48 0 0 1 -1.08-.13 20.9 20.9 0 0 1 8.25 1.31 2.15 2.15 0 0 1 .26.14 2.17 2.17 0 0 1 -1.2-.16 4.56 4.56 0 0 0 -1.52-.23 3.77 3.77 0 0 1 -2.41-.57c-.66-.47-1.52-.32-2.3-.36z" fill="#777"/><path d="m212.92 55.87c-.51-.24.13-.19.1-.31-.56-.24-1.13.45-1.66-.06a9.29 9.29 0 0 1 2-.12 1.59 1.59 0 0 1 .72.13c-.1.11-.41-.23-.39.27.05.27-.48.07-.77.09z" fill="#787878"/><path d="m191.35 52.62a17.18 17.18 0 0 1 -3.36-.26c-.37 0-.75-.07-1.12-.1.61-.44 1.2 0 1.81 0a13.4 13.4 0 0 0 2.09.25 1.42 1.42 0 0 1 .58.11z" fill="#505050"/><path d="m209.33 55.38a17.46 17.46 0 0 1 -3.13-.38 13.19 13.19 0 0 1 3.13.38z" fill="#787878"/><path d="m218.66 54.56a1.65 1.65 0 0 1 -2.23.41c-.13-.11-.37-.26-.24-.42s.37-.48.56-.37c.61.33 1.3.14 1.92.38z" fill="#717171"/><path d="m217.24 53.71a.71.71 0 0 1 .68-.5c.2 0 .56.09.49.37a.71.71 0 0 1 -.72.6.41.41 0 0 1 -.45-.47z" fill="#535353"/><path d="m216 55.63a2.61 2.61 0 0 1 -1.92-.12z" fill="#787878"/><path d="m204.42 62.81a.69.69 0 0 0 -.9-.67 1.25 1.25 0 0 1 -1.14-.4 1.78 1.78 0 0 0 -.51-.8c-.1-.1-.19-.22-.1-.37s.24-.12.38-.11a.9.9 0 0 1 .73.62c.35.79.39.8 1.21.56l.51-.16c.27-.08.45 0 .45.29 0 .66.42.62.86.53s.78-.28 1.2 0a4.74 4.74 0 0 1 -2.69.51z" fill="#6f6f6f"/><path d="m199.72 54.91c1.32-.54 2.56.13 3.93.18l-.32.41a9.48 9.48 0 0 1 -3.61-.59z" fill="#6d6d6d"/><path d="m204.16 55.51a.54.54 0 0 0 .39-.09c.42-.28.63-.12.69.33-.37-.03-.78.1-1.08-.24z" fill="#6d6d6d"/><path d="m43.94 15.66c.3.15.17.4.15.63a6.79 6.79 0 0 1 -1.09 1.42.38.38 0 0 1 -.48 0c-.16-.18.06-.32.13-.47s.26-.3.35-.47a4.24 4.24 0 0 1 .6-1z" fill="#787878"/><path d="m187.84 53.23a2.06 2.06 0 0 0 .53.1c1.11-.14 2.11.48 3.18.49s2.14.41 3.21-.13c.49-.24.86.23 1.24.5a6.93 6.93 0 0 0 -2.76 0 21.69 21.69 0 0 0 -2.79.1c-.22 0-.52.07-.43-.34 0-.13 0-.28-.15-.27-.49 0-.94-.37-1.45-.12a6.08 6.08 0 0 1 -1.55-.44h.25c.27-.12.53-.23.72.11z" fill="#585858"/><path d="m229.24 58.27a2.1 2.1 0 0 1 1.57.23c-.53-.06-1.1.19-1.57-.23z" fill="#6f6f6f"/><path d="m243.9 54.17c-.07-.29-.15-.56.19-.78a.56.56 0 0 1 .65 0 .92.92 0 0 1 .48.78.41.41 0 0 1 -.64.4 2.61 2.61 0 0 0 -.68-.36z" fill="#4c4c4c"/><path d="m58.59 14.34a.59.59 0 0 1 -.81-.26c-.16-.3 0-.47.24-.65s.47-.19.54.15a3.21 3.21 0 0 1 0 .76z" fill="#515151"/><path d="m158.2 62.71a1 1 0 0 0 -1.14-.91c-.77 0-1.35-.56-2.09-.68a7.15 7.15 0 0 0 -2.73.17 8.59 8.59 0 0 1 -2.72.21c-.13 0-.32 0-.28-.22s.19-.14.3-.13a12.78 12.78 0 0 0 3.2-.31c.49-.05 1-.13 1.48-.17a3.6 3.6 0 0 1 2.09.36 3.14 3.14 0 0 0 1.68.36 1.8 1.8 0 0 1 1 .12 1.46 1.46 0 0 0 -.69 1.1s-.05.06-.1.1z" fill="#8b8b8b"/><path d="m158.2 62.71c0-.45.07-.93-.7-1.07a5.12 5.12 0 0 1 1.54-.13c.34.1.65.22.11.51-.24.13-.28.28-.14.53s.35.45.11.63-.5-.08-.69-.28a2.11 2.11 0 0 0 -.23-.19z" fill="#5b5b5b"/><path d="m159.28 64.9a7.67 7.67 0 0 0 -.18 1.78c.05.33-.24.37-.5.21a.71.71 0 0 1 -.32-.67 3.07 3.07 0 0 1 .4-1.35.35.35 0 0 1 .45-.19.22.22 0 0 1 .15.22z" fill="#535353"/><path d="m154.13 62.86a.39.39 0 0 1 .36.26 3.41 3.41 0 0 0 .76 1.19c.1.11.26.25.15.41s-.31.11-.48 0a1.71 1.71 0 0 1 -1.12-1.35c-.09-.26.11-.37.33-.51z" fill="#656565"/><path d="m156.22 65.73c0 .23-.12.32-.31.29s-.58-.12-.54-.49.19-.5.47-.45.27.44.38.65z" fill="#555"/><path d="m132 57.3c-.52.41-.44.69.34 1.1-.23.16-.47.06-.68.1a.88.88 0 0 1 -.6-.81c0-.38-.24-.39-.55-.45a20.71 20.71 0 0 0 -3-.16 4.66 4.66 0 0 1 -1.58 0c.34-.22.74-.18 1.09-.34a11.71 11.71 0 0 1 .06-1.19c0-.2.12-.41.36-.4s.27.25.29.45v.18c0 .94.12 1 1.08 1a3 3 0 0 1 .6 0c.35 0 .59 0 .53-.45 0-.22.08-.34.33-.23 0 .17.07.25.24.23.15.53.56.63 1 .59a20.23 20.23 0 0 1 2.58-.09 3.24 3.24 0 0 1 1.91.17c.43.28 1 0 1.49-.05a1.71 1.71 0 0 1 -2.42.23 7.3 7.3 0 0 0 -3 .1z" fill="#757575"/><path d="m120.72 59.77a5.89 5.89 0 0 0 .42 2.75.78.78 0 0 1 0 .7c-.06.11-.14.26-.3.25s-.16-.19-.2-.31c-.15-.52-.29-1-.48-1.54-.3-.79 0-1.63-.22-2.42a.31.31 0 0 1 .18-.4.35.35 0 0 1 .41.17 1.19 1.19 0 0 1 .19.8z" fill="#666"/><path d="m127 56.7c-.23.19-.53.21-.79.38h1.28a1.46 1.46 0 0 1 -.34.1c-2.09 0-4.18 0-6.27-.07a9 9 0 0 0 -2.38 0c-.15 0-.31.1-.47 0 0-.24.19-.23.33-.23a16.1 16.1 0 0 1 3.4-.05 12 12 0 0 0 2.08 0 12.86 12.86 0 0 0 3.16-.13z" fill="#949494"/><path d="m123.27 59.34a.82.82 0 0 1 .37-.73c.33-.11.33.13.33.32s-.08.32-.08.47c0 1 0 1.35 1.25 1.16a.44.44 0 0 1 .1.67c-.15.22-.42.14-.64 0-.33-.17-.72 0-1-.36a1.25 1.25 0 0 1 -.33-1.53z" fill="#5c5c5c"/><path d="m130.49 56.21c-.05.14-.06.37-.29.2s-.16-.3.05-.43z" fill="#5f5f5f"/><path d="m78.64 57.78a7.41 7.41 0 0 0 -3.24-.29 6 6 0 0 1 -2.59-.32 8.1 8.1 0 0 0 -3.14-.07c-.36 0-.71.09-1.07.08-1.83 0-3.66.19-5.5.12-.2 0-.52.07-.53-.22s.3-.29.54-.29l2.81-.07c.68-.06 1.38-.09 2.06-.1 1.07 0 2.11-.19 3.17-.22a6.92 6.92 0 0 1 2.59.26 3.94 3.94 0 0 0 1.77.17 7.3 7.3 0 0 1 3.19.25 7.54 7.54 0 0 0 1.57.1c.26 0 .51 0 .51.36s-.24.33-.48.31a8.39 8.39 0 0 1 -1.66-.07z" fill="#767676"/><path d="m73.46 60.3a3.65 3.65 0 0 1 .17-1.13c.05-.13.12-.26.29-.24a.28.28 0 0 1 .26.29c.07.68.12 1.35.18 2a.26.26 0 0 1 -.17.29.39.39 0 0 1 -.43-.12 1.47 1.47 0 0 1 -.3-1.09z" fill="#6e6e6e"/><path d="m77 60.78a1 1 0 0 1 -1-.22.56.56 0 0 1 -.07-.67 1.42 1.42 0 0 1 .53-.56h.16a14.47 14.47 0 0 1 .38 1.45z" fill="#757575"/><path d="m76.47 37.87c-1.45-.49-3-.53-4.41-1.25-.57-.29-1.33-.19-1.9-.48a10.94 10.94 0 0 0 -3.2-1c-.43-.08-.71-.42-1.1-.59a9.34 9.34 0 0 0 -2.86-.55c-.69-.07-1.37-.21-2.07-.22a18.8 18.8 0 0 0 -2.38.22 13.41 13.41 0 0 1 -4.81.13 1 1 0 0 0 -.42 0 10.43 10.43 0 0 1 -4.38-.13 12.08 12.08 0 0 0 -1.79-.26c-.76 0-1.45-.32-2.22-.28a2.84 2.84 0 0 1 -2.42-.79 1 1 0 0 0 -.66-.22c-.26 0-.51-.11-.42-.44a.4.4 0 0 1 .56-.3 4.59 4.59 0 0 0 1.84.13.19.19 0 0 1 .06.2c-.12.32-.44.18-.65.28-.28.36.1.35.25.4a14.94 14.94 0 0 0 2 .27c.81.12 1.63.19 2.44.3a.37.37 0 0 0 .18 0c.35-.06.69.14 1 .14 1.07 0 2.08.46 3.15.33.12 0 .23-.05.35-.05a15.35 15.35 0 0 0 3-.27.58.58 0 0 1 .41 0c.71.48 1.35 0 2-.16.28-.09.56 0 .83-.07 1.11-.07 2.23.07 3.34 0h.43a3.39 3.39 0 0 1 .89.15c.59 0 1.1.38 1.7.4 1.14.34 2.23.84 3.39 1.12a2.29 2.29 0 0 1 1.51.61 1.3 1.3 0 0 0 .51.29c1.83.38 3.57 1.12 5.41 1.47a3.14 3.14 0 0 1 1.08.32c.18.11.36.21.23.46a1.2 1.2 0 0 1 -.87-.16z" fill="#6b6b6b"/><path d="m43.84 32v-.14a25.28 25.28 0 0 1 2.45-3.86 13.65 13.65 0 0 0 1.13-2c.23-.38-.29-.59-.24-.93.56 0 .61.5.83.83a4.11 4.11 0 0 1 -1 1.79c-.12.15-.25.26-.06.44.2.37-.1.59-.27.84-.36.55-.81 1-1.15 1.59a.7.7 0 0 0 -.08.14c-.09.27-.3.6 0 .8s.66 0 .91-.24a1.66 1.66 0 0 0 .29-.52 5.24 5.24 0 0 1 1.09-1.55 9.3 9.3 0 0 1 1.09-1.88 22.82 22.82 0 0 1 2.25-3.49c.15-.1.25-.3.48-.2s.2.27.19.45c0 .82-.63 1.31-.92 2a32.77 32.77 0 0 1 -2.76 4.24 1.65 1.65 0 0 0 -.29.77c-.06.13-.19.2-.28.3-.33.43-.3.59.17.88.18.11.38.21.44.45a.44.44 0 0 1 -.06.16 1.22 1.22 0 0 1 -1 0 11.38 11.38 0 0 0 -3-.63.25.25 0 0 1 -.21-.24z" fill="#616161"/><path d="m42.45 30.87c-.34-.06-.25-.29-.13-.48.28-.41.57-.82.88-1.21.8-1 1.42-2.17 2.15-3.23.19-.28.44-.72.75-.53s-.09.51-.21.75a31.78 31.78 0 0 1 -3.08 4.48.56.56 0 0 1 -.36.22z" fill="#6a6a6a"/><path d="m76.47 37.87.86.11a.38.38 0 0 1 .32-.24 2.93 2.93 0 0 1 1.62.44c.28.2.65-.07 1 .07a11.41 11.41 0 0 0 3.21.77c.23 0 .49 0 .62.25a.17.17 0 0 1 0 .18 9.2 9.2 0 0 1 -3.6-.55l-3.5-.79a1.1 1.1 0 0 1 -.53-.24z" fill="#787878"/><path d="m89.1 40.41a1 1 0 0 1 -.82.08c-1-.43-2.14-.23-3.15-.6l-1.13-.44v-.05c.16-.27.42-.25.67-.19a7 7 0 0 0 .91.2 3 3 0 0 0 2 .37 2.06 2.06 0 0 1 1.4.6z" fill="#787878"/><path d="m88.46 49.26c.15-.09.16-.4.38-.31s.07.31.06.48a6.46 6.46 0 0 0 .1 2.36 1.14 1.14 0 0 0 .36.53c.1.12.26.24.09.4a.36.36 0 0 1 -.45 0 1.38 1.38 0 0 1 -.49-.58 4.18 4.18 0 0 1 -.12-2.66z" fill="#707070"/><path d="m91.22 51.3h-.57c-.61-.68-.63-.82-.13-1.41a.29.29 0 0 1 .42 0 2.06 2.06 0 0 1 .28 1.41z" fill="#7a7a7a"/><path d="m47.93 16.66c0 .15-.13.28-.22.43-.59 1-1.45 1.89-2.1 2.89a9.09 9.09 0 0 1 -1.33 2c-.15.13-.25.38-.47.24s-.06-.38.06-.55q1.71-2.52 3.43-5c.11-.16.23-.34.47-.3s.14.12.16.29z" fill="#656565"/><path d="m45.73 16.13c.33 0 .39.13.28.41-.73 1.32-1.73 2.46-2.56 3.72-.1.15-.27.31-.45.19s-.07-.33 0-.48a37.87 37.87 0 0 1 2.73-3.84z" fill="#646464"/><path d="m85.49 39.77a5.11 5.11 0 0 0 -1.43-.37 16.94 16.94 0 0 1 -3.53-.68l-.34-.13c-.83-.2-1.68-.34-2.51-.6h-.35a26.78 26.78 0 0 0 -3.5-1 32.72 32.72 0 0 1 -5.27-1.88c.09-.36.38-.28.58-.19a8.71 8.71 0 0 1 2 .85l-.17-.1a.37.37 0 0 1 -.2-.53.42.42 0 0 1 .6-.21c.38.16.66.12.76-.34a1.59 1.59 0 0 1 .15-.21.85.85 0 0 1 .55-.43l.24-.1c.24-.16.55-.08.8-.21a.3.3 0 0 1 .37.12.32.32 0 0 1 0 .39c-.24.27-.32.64-.62.86s-.21.3 0 .5a1.92 1.92 0 0 0 1.54.59c.22 0 .37.12.56.18a6.54 6.54 0 0 0 1 .24 22.56 22.56 0 0 0 2.56.47 7.49 7.49 0 0 1 2.91.77 3.14 3.14 0 0 0 1.66.39 5.68 5.68 0 0 1 1.64.26 19.09 19.09 0 0 0 4.25.59c1.17.09 2.28.51 3.46.54 0 0 .12.05.17 0 1.16-.26 2.2.53 3.36.41.41 0 .76.31 1.16.44a1.77 1.77 0 0 0 .63.19 1.27 1.27 0 0 1 1.1.44 1.89 1.89 0 0 0 .5.33c.25.1.49.24.39.57s-.37.22-.61.22a6 6 0 0 1 -2-.72c-.48-.19-1-.14-1.45-.53-.11-.1 0 0-.06.07 0 .47-.36.41-.64.34a14.41 14.41 0 0 1 -1.75-.43 7.77 7.77 0 0 0 -1.8-.14 2.94 2.94 0 0 0 -1-.19.87.87 0 0 1 -.56-.17 1.19 1.19 0 0 0 -1.41-.16 2.21 2.21 0 0 1 -.51 0 1.24 1.24 0 0 0 -1.49-.4c-.57.19-1.15-.1-1.74-.04z" fill="#4c4c4c"/><path d="m94 40.87c.68 0 1.32.41 2.07.25-.15-.33-.51-.15-.74-.43 1.82-.22 3.23 1 5 1.25-.29-.41-.77-.31-.83-.71a.73.73 0 0 1 1 .08 13.76 13.76 0 0 0 2.25 1.43 17.14 17.14 0 0 0 2.59 1c.89.28 1.69.75 2.55 1.09a1.93 1.93 0 0 1 .61.63 1 1 0 0 0 .52.52c.94.45 2 .59 2.8 1.36-.23-.23-.82-.21-.45-.8.4-.06.6.3.91.44.56.26 1.17.18 1.72.39a20 20 0 0 0 2.41.55 2.86 2.86 0 0 1 1.47.81c.06.41.36.51.7.58a10.34 10.34 0 0 1 2.21.54c.51.22.55.47.15.88a35.59 35.59 0 0 1 -5-1.6c-1.55-.64-3.25-.82-4.83-1.39a12.77 12.77 0 0 1 -3.11-1.51 8.68 8.68 0 0 0 -2.52-1.23c-1.1-.35-2.17-.8-3.28-1.13-1.62-.47-3.11-1.27-4.68-1.86-.87-.32-1.79-.39-2.65-.73a5.24 5.24 0 0 1 -.87-.41z" fill="#5a5a5a"/><path d="m121 50.69a.43.43 0 0 0 -.31-.6 5.43 5.43 0 0 0 -1.82-.51c-.63 0-1-.61-1.81-.74.36-.17.59 0 .8-.05a.84.84 0 0 1 .66 0 12.73 12.73 0 0 0 2.12.47c.39 0 .68.34 1.06.37.63.17 1.24.38 1.88.49a11 11 0 0 0 1.51.34c.38.06.78.06.94.51 0 .28-.2.33-.46.3s-.36-.07-.5.09l-.12.23c-.31 0-.47-.48-.84-.23a1 1 0 0 1 -.6-.12c-.14-.16-.23-.33-.52-.21a.81.81 0 0 1 -.68 0l-.24-.12a.88.88 0 0 0 -1-.14z" fill="#4e4e4e"/><path d="m89.32 40.14c.61-.5.87-.49 1.42.08a.94.94 0 0 0 .59.22c.3.06.65 0 .87.29a10.88 10.88 0 0 1 -2.52-.47c-.1-.1-.27.01-.36-.12z" fill="#5a5a5a"/><path d="m122.32 51c.19-.05.53.16.48-.32 0-.17.24-.12.39-.07a.44.44 0 0 1 .33.63z" fill="#5a5a5a"/><path d="m121.12 50.69a1.25 1.25 0 0 0 .16-.17.53.53 0 0 1 .62-.25c.32.1.09.38.18.56a2.6 2.6 0 0 1 -.96-.14z" fill="#5a5a5a"/><path d="m124.12 51.31a1.38 1.38 0 0 1 .22-.26c.26-.2.5-.34.47.19 0 .1.1.2.15.3l.12.13a2.54 2.54 0 0 1 -.96-.36z" fill="#5a5a5a"/><path d="m89.32 40.14.36.12a1.14 1.14 0 0 0 -.6.12 2.49 2.49 0 0 1 -1.44-.38c.41-.47.75-.16 1.08.12z" fill="#6b6b6b"/><path d="m54.64 45.07a6.35 6.35 0 0 0 .52-1.52.61.61 0 0 0 -.23-.64c-.08-.07-.21-.16-.1-.29s.23-.06.34 0a.73.73 0 0 1 .5.9c-.14.82-.3 1.64-.47 2.46a2.12 2.12 0 0 0 .19 1.67c.12.18.31.4 0 .55a.43.43 0 0 1 -.62-.29 2.54 2.54 0 0 1 -.22-1.51 5.77 5.77 0 0 0 .08-1.31z" fill="#6f6f6f"/><path d="m61.13 37.4c.35-.11.52.05.58.39a9.4 9.4 0 0 0 .83 2.35c.11.2.27.48 0 .63s-.39-.14-.5-.32a4.19 4.19 0 0 1 -.89-3.05z" fill="#6e6e6e"/><path d="m64.45 39.11a.54.54 0 0 1 .22.57 3.53 3.53 0 0 0 .13 1.88.25.25 0 0 1 -.09.36c-.17.07-.27-.07-.34-.18a1.55 1.55 0 0 1 -.29-1.18c.13-.47.24-.95.37-1.45z" fill="#616161"/><path d="m178.58 48a1.39 1.39 0 0 1 -.92-.53c-.16-.2-.26-.48 0-.6s.51-.63.83-.08a.85.85 0 0 0 .39.36c.21.09.43.19.32.47a.62.62 0 0 1 -.62.38z" fill="#5b5b5b"/><path d="m133.82 36.65a2.06 2.06 0 0 1 -.53-.13c-.2-.11-.62-.15-.46-.47s.33-.63.77-.5a4 4 0 0 1 .44.17c.23.12.5.23.4.56s-.38.3-.62.37z" fill="#626262"/><path d="m157.75 42.61a.38.38 0 0 1 -.42-.17c-.09-.18.09-.27.17-.4.37-.58.91-.42 1.4-.29s.28.34 0 .53a2.19 2.19 0 0 1 -1.15.33z" fill="#707070"/><path d="m172.48 48.67a.51.51 0 0 1 -.57.56.66.66 0 0 1 -.66-.71c0-.35.42-.5.75-.52.5 0 .36.43.48.67z" fill="#4f4f4f"/><path d="m155.31 44.84c-.28 0-.53 0-.55-.36s.64-.8 1-.8a.42.42 0 0 1 .48.48c-.09.55-.55.59-.93.68z" fill="#575757"/><path d="m166.9 46c-.33-.06-.55-.2-.57-.54s.66-.7 1-.67.43.27.4.55c-.09.47-.48.56-.83.66z" fill="#555"/><path d="m163.51 45c0 .19-.26.36.13.51s.2.43 0 .58a2 2 0 0 1 -1 .2c-.34 0-.12-.25 0-.37s.41-.29.08-.61.08-.4.26-.55c.1.05.41-.13.53.24z" fill="#6d6d6d"/><path d="m145 39.81c.26.08.54.18.46.47a.68.68 0 0 1 -.72.59c-.26 0-.45-.16-.41-.41a.82.82 0 0 1 .67-.65z" fill="#676767"/><path d="m151 40.47c-.06.35-.1.65-.48.61s-.61-.22-.56-.56a.72.72 0 0 1 .71-.52c.33 0 .33.3.33.47z" fill="#5c5c5c"/><path d="m163.51 45c-.28.11-.68.51-.63-.24.25-.41.72-.48 1.07-.73s.29 0 .25.21a1 1 0 0 1 -.69.76z" fill="#666"/><path d="m174.54 46.29c0 .32-.08.55-.43.53s-.56-.16-.53-.51a.62.62 0 0 1 .61-.54c.38-.05.32.31.35.52z" fill="#5c5c5c"/><path d="m138.7 37.83a.52.52 0 0 1 .28.55c0 .33-.3.4-.57.41s-.41-.07-.35-.29a1.23 1.23 0 0 1 .64-.67z" fill="#6c6c6c"/><path d="m132.2 37.67c.19 0 .31.06.29.24a.52.52 0 0 1 -.56.49c-.21 0-.43-.1-.4-.34.03-.43.47-.25.67-.39z" fill="#787878"/><path d="m118.6 32.59c-.43.08-.9.24-.95-.46.1-.1.22-.18.31-.28.28-.31.54-.27.8 0s.16.56-.16.74z" fill="#606060"/><path d="m115.72 39.43 2.16.12c-.35.21-.77.05-1.14.24h1.26a3.44 3.44 0 0 1 -1.77.09 9.58 9.58 0 0 1 -3.39-.94c-.56-.18-1.15.05-1.71-.08 0-.42.27-.42.54-.45a5 5 0 0 1 2.31.51 5.48 5.48 0 0 0 1.74.51z" fill="#8d8d8d"/><path d="m124.73 39.08a.6.6 0 0 1 .71-.15c.29.16.28.45.23.73-.21.1-.37.44-.65.26s-.27-.53-.29-.84z" fill="#494949"/><path d="m123.17 41h.1c.3 0 .61 0 .74.36a1.2 1.2 0 0 1 0 .53.24.24 0 0 1 -.13.25c-.22.12-.77-.17-1-.56s.12-.45.29-.58z" fill="#353535"/><path d="m121.12 38c.5-.19.66.27.95.51a.76.76 0 0 1 -.9.22c-.51-.17-.17-.49-.05-.73z" fill="#454545"/><path d="m114.74 36.5a1.49 1.49 0 0 1 .62-.38 7.37 7.37 0 0 0 1.29-.39c.22 0 .47 0 .63.22s.72.22 1.08.34.64.18 1 .26a3.9 3.9 0 0 1 -1.48-.15.94.94 0 0 0 -.64 0 14.36 14.36 0 0 1 -2.63.49" fill="#858585"/><path d="m114.57 38.94c.38.16 2.31.32 2.9.58 1.58.08-2 .09-2.1 0a20 20 0 0 1 -2.27-.72c-.62-.26-3 .66-3.45.77-.52-.15 2-1.43 2.85-1.46" fill="#858585"/><path d="m159.76 53.59-.6.72a21.13 21.13 0 0 0 -3.28 0c-.3 0-.61 0-.83-.24a.22.22 0 0 0 -.36 0c-.29.3-.66.23-1 .22-1.33 0-2.66-.15-4-.07-.33 0-.73 0-.73.54 0 .2-.24.29-.47.24l-1.38-.3a1.24 1.24 0 0 1 .89-.08c.19 0 .46.07.49-.19s-.24-.23-.41-.26c-1.06-.19-2.12-.34-3.2-.44-.32 0-.56.31-.84.16-.44-.23 0-.84 0-.9a38.68 38.68 0 0 1 5.32.46.26.26 0 0 1 -.26.2h-.62a12.54 12.54 0 0 0 3.05 0c.79-.1 1.59-.16 2.38-.25 1.15-.13 2.3.12 3.45.06a4.77 4.77 0 0 1 2.19 0 .28.28 0 0 1 .21.13z" fill="#4a4a4a"/><path d="m138.52 53.71.12-.36c-.06-.53 2.41-.68 2.52-.47.15 0 4.41 0 3.61.48 0 0-2.28.13-2 .28l-2.63-.17v.2a16.25 16.25 0 0 0 3.18.52 1.66 1.66 0 0 1 -1.26.11 9.09 9.09 0 0 0 -3-.38.62.62 0 0 1 -.54-.21z" fill="#434343"/><path d="m161.91 53.46a3.25 3.25 0 0 1 1.42-.12h4.83c-.36.22-.77.07-1.16.17.1.16.44 0 .39.26s-.29.17-.46.17h-2.49a.56.56 0 0 1 -.72 0c-.41-.25-.89-.06-1.36-.15 0-.24.26-.16.46-.33z" fill="#5f5f5f"/><path d="m163.72 53.94h.72l.22.16c-.13.14-.31 0-.46.08h-.48c-.06 0-.18 0-.19-.1s.11-.08.19-.14z" fill="#4a4a4a"/><path d="m148.49 52.15a6.73 6.73 0 0 0 -2.24.16c-1.38.08-2.74.23-4.12.21s-2.86 0-4.28-.2a1.52 1.52 0 0 0 -.69.13c-.26.11-1.32-.36-.74-.53a5.15 5.15 0 0 1 1.94-.37 24.36 24.36 0 0 0 4.6.09c1.22-.14 2.47.07 3.7-.14l.76-.15a19.61 19.61 0 0 0 3.75.12c1.82 0 3.63-.32 5.44-.47 2.13-.18 4.25-.14 6.38-.11a6.31 6.31 0 0 1 1.61.22 1 1 0 0 0 .92.39 26.93 26.93 0 0 1 3 0c.28 0 .51 0 .43.39s-.52.19-.78.19a43 43 0 0 1 -5-.15 42.1 42.1 0 0 0 -4.35 0 46.18 46.18 0 0 0 -5 .4c-1.64.18-3.27.06-4.91.08-.15.02-.36-.01-.42-.26z" fill="#888"/><path d="m125.93 50.94a2.83 2.83 0 0 1 1.22.24c-.32.09-.72-.25-1 .25-.07.12-.69-.07-1.06-.12.18-.31.59-.18.84-.37z" fill="#5a5a5a"/><path d="m138.28 52.86h2.4a2.62 2.62 0 0 1 -1.21.13.94.94 0 0 0 -.83.36c-.4.05-.52-.12-.36-.49z" fill="#545454"/><path d="m126.53 51.4a2.69 2.69 0 0 1 1.23.33 1.28 1.28 0 0 1 -1.23-.33z" fill="#5a5a5a"/><path d="m159.52 53.47c.8-.47 1.6 0 2.4 0a1 1 0 0 1 -.49.14 1.36 1.36 0 0 1 -1.31 0h-.59c-.08-.06-.08-.1-.01-.14z" fill="#5f5f5f"/><path d="m160.12 53.59h1.31a1 1 0 0 0 -.2.21c-.21.47-.46.48-.77.09a3.39 3.39 0 0 0 -.34-.3z" fill="#4a4a4a"/><path d="m79 32.83a1.82 1.82 0 0 1 1 .22 5.58 5.58 0 0 0 2.54.74c.75.1 1.48.28 2.21.44a5.83 5.83 0 0 0 3.5-.19c.16-.36 4.06-.59 5.24-.29a11.62 11.62 0 0 0 3.91.57c1.45.11 3.78-.9 5.48-.65a10.49 10.49 0 0 1 1.54.15c.24.06 2.46-1.28 2.4-1.94.2 0 .25.05.33.24a.3.3 0 0 0 .4.17 2.88 2.88 0 0 1 1.37.08c1 .23 2 .14 3 .43.39.12.73.24.7.74l-.62-.34c-.13.23-.32.18-.52.12-.42-.11-.85-.19-1.27-.27a3.72 3.72 0 0 1 -1-.23 2 2 0 0 0 -1.91.36 5.06 5.06 0 0 1 -1.59.8 15.17 15.17 0 0 1 -3.14.4 1.08 1.08 0 0 1 -.36 0c-1.18-.45-2.18.1-3.18.6a4.75 4.75 0 0 1 -2 .18 11.41 11.41 0 0 1 -2.67-.16 26.85 26.85 0 0 1 -2.82-.66 2.82 2.82 0 0 0 -1.93.18 8.69 8.69 0 0 1 -1.82.74c-.17 0-3.89-.48-4.71-.59s-3.56-.87-4-.85a3.23 3.23 0 0 1 -.76 0 5.14 5.14 0 0 0 -3.19.39 2.89 2.89 0 0 0 -1.54 1.07c-.18.68.25.86-.52.4-.18-.11-.48-.11-.48-.38s.27-.26.44-.36a1.94 1.94 0 0 0 1-1c-.39-.07-.57.4-.92.26-.11-.32.11-.48.33-.64.74-.56 5.3-.73 5.56-.73z" fill="#7f7f7f"/><path d="m105.39 31.87c0-.34-.19-.46-.43-.63-1.51-1-3.28-1.56-4.84-2.48a1 1 0 0 0 -.83-.2c-.21 0-.43.15-.63 0a8.8 8.8 0 0 1 -2.35-1.09c-.32-.27-.71 0-1 .28-.54.64-1 1.38-1.46 2a14.6 14.6 0 0 1 -1.22 2 2.22 2.22 0 0 0 -.5 1 .57.57 0 0 1 -.75.42c-.4-.1-.34-.45-.25-.74a7.53 7.53 0 0 1 .95-1.93 38.29 38.29 0 0 0 2.28-3.37 1.11 1.11 0 0 0 .23-.6c0-.16 0-.32 0-.48.27-.15.45 0 .64.18a8.26 8.26 0 0 0 3.81 1.89 8.71 8.71 0 0 1 2.28 1 7.78 7.78 0 0 0 1.74.78 6.41 6.41 0 0 1 2.35 1.46c.21.09.17.32-.02.51z" fill="#6e6e6e"/><path d="m94.6 26a.61.61 0 0 1 .36.25c-.11.27-.35.25-.56.25a1 1 0 0 0 -.85.57 24.87 24.87 0 0 1 -3 4.05 7.32 7.32 0 0 0 -1.23 1.88c-.11.39-.49.49-.77.7-.13.1-.29.23-.45.07a.36.36 0 0 1 0-.44 1.32 1.32 0 0 1 .16-.25c1-1.6 2.27-3.06 3.36-4.63.42-.6.81-1.23 1.23-1.83.27-.4.07-.56-.3-.59a4.29 4.29 0 0 1 -.94-.15 3.23 3.23 0 0 1 1.66.12c.43.19.88-.09 1.33 0z" fill="#747474"/><path d="m74.93 29.36-.25.47c-.32.86-1.14 1.37-1.57 2.15-.4.52-.66 1.12-1 1.65s-.27.7.32.87l-.12.13a1.32 1.32 0 0 1 -1.91-.23c0-.1.07-.23.15-.22.46.07.62-.23.8-.56a.86.86 0 0 0 .1-.94c-.1-.19-.16-.53.25-.58a11.06 11.06 0 0 0 1.7-2.1c.35-.43.62-.94 1.23-1.07.2 0 .15-.17.17-.31s.19-.43.39-.36 0 .3 0 .45-.19.43-.26.65z" fill="#595959"/><path d="m53.33 24.81a6.75 6.75 0 0 0 1-1.35c1.07-1.56 2.14-3.11 3.2-4.67.2-.2.38-.41.58-.6s.36-.28.54 0c-1.76 2.5-3.58 4.94-5.2 7.54-.18-.18-.18-.18-.06-.44-.2.13-.2.66-.64.33-.19-.53.16-.69.58-.81z" fill="#797979"/><path d="m76.11 20.72c.32-.14.53-.24.75-.08v.16c-.23.2-.44.05-.75-.08z" fill="#787878"/><path d="m167 50a8.56 8.56 0 0 0 -3.37-.35 4.76 4.76 0 0 1 -1.41 0 11.29 11.29 0 0 1 -2.66-.08c-.19 0-.72-.05-.79-.26a21.7 21.7 0 0 1 4.95-.36c.26.05 1.37-.16.38.25 1.2-.24 2.33.23 3.49.37a.74.74 0 0 1 .6.39c-.43.18-.83-.04-1.19.04z" fill="#6c6c6c"/><path d="m168.16 50a16.19 16.19 0 0 0 -5-.65l.55-.17c.11-.3.42-.12.6-.26.4 0 .81-.32 1.21 0l.95.27c.28.31.66.19 1 .22s.73.08.69.59z" fill="#535353"/><path d="m198 54.19 1.82.29a3.32 3.32 0 0 1 -1.85-.1z" fill="#6d6d6d"/><path d="m187.84 53.23-.72-.13c-.08-.57.25-.69.71-.6a4.31 4.31 0 0 1 1.36.36z" fill="#505050"/><path d="m70.48 34.27c.25.44.66.31 1 .32s.51 0 .76 0v.12c0 .87 0 .87-.87.54-.12 0-.27-.17-.35 0s.07.27.2.32.38.12.56.19.34 0 .27.23-.23.13-.36.09c-.8-.27-1.59-.53-2.37-.81a2.11 2.11 0 0 0 -.8-.21 7.69 7.69 0 0 1 -2.52-.77 2.23 2.23 0 0 0 -.8-.29c-.61-.05-1.18-.33-1.8-.36l-.72-.23a1.6 1.6 0 0 0 -1.43-.2c-.65.09-1.29-.09-1.92 0a2.91 2.91 0 0 0 -1.47.33 1.94 1.94 0 0 0 -.82.16s-.11.09-.16.06c-.59-.34-1.13.11-1.7.09s-.76-.37-1.19-.45a.26.26 0 0 1 .12-.49c.48.09.93-.17 1.42 0a1.84 1.84 0 0 0 1.47-.36 10.76 10.76 0 0 0 2.58-.47h.2a2 2 0 0 1 1.36.23 4.37 4.37 0 0 0 1.73.33 5.73 5.73 0 0 1 1.24.06c1.7.51 3.3 1.3 5 1.67-.35-.1-.48-.2-.44-.37.08-.36.38-.2.53-.15a12.66 12.66 0 0 1 1.23.41z" fill="#424242"/><path d="m57.05 32.72c-.72.59-1.59.39-2.41.46a4.42 4.42 0 0 0 -.51 0c.36.12.72.16.95.52.09.14.37.12.51 0a1.77 1.77 0 0 1 1.4-.21 4.58 4.58 0 0 0 .89-.1c.32-.37.64 0 1 0a4.93 4.93 0 0 1 -2 .47c-.88-.08-1.74.12-2.61 0a14.4 14.4 0 0 0 -1.61 0 .14.14 0 0 1 0-.15c.21-.29.51 0 .72-.11-.61-.08-1.23.17-1.88.07-.16 0-.41.06-.44-.12-.08-.49-.38-.29-.66-.28a1.32 1.32 0 0 1 -1.4-.4.26.26 0 0 1 .09-.16c.17-.12.34 0 .51 0 .6 0 1.16 0 1.41-.72 1-1.33 1.91-2.7 3-4a10.69 10.69 0 0 0 .69-.82c.2-.29.39-.21.51.09a6.43 6.43 0 0 1 -1.19 2c-.66.89-1.4 1.71-2 2.66-.27.45-.11.68.48.75a10.94 10.94 0 0 0 1.81 0 12.09 12.09 0 0 0 2.4-.2c.17.08.29.1.34.25z" fill="#565656"/><path d="m49.11 32.86a2.16 2.16 0 0 0 1.46.1l.41-.08a.47.47 0 0 1 .54.16c.17.29-.3.18-.28.46.93.17 1.92-.18 2.86.11v.18h-1.5a4.25 4.25 0 0 1 -2.94-.07 7.71 7.71 0 0 0 -1.16-.11c-.19 0-.4.06-.58-.06a1.37 1.37 0 0 0 -.61-.24c-1.37-.22-2.75-.34-4.1-.68-.34-.09-.5-.26-.09-.5l.72-.14a2 2 0 0 1 .95-.14c1.11.21 2.14.67 3.25.85.47-.7.67-.63 1.07.16z" fill="#414141"/><path d="m58.85 33.43h-1c-.07-.21-.1-.48.21-.38s.8-.13 1.12-.06c.92.2 1.81-.19 2.71 0a.85.85 0 0 1 .76.49 27.19 27.19 0 0 1 -3.8-.05z" fill="#515151"/><path d="m43.12 32.13c-.09.3.15.3.33.37a15.9 15.9 0 0 0 2.37.33c.24.05.5 0 .67.21a.69.69 0 0 0 .83.14c.4-.16.56 0 .6.37l-4.07-.55a1.38 1.38 0 0 1 -1.05-.49c-.08-.13-.3-.24-.2-.4s.4-.11.52.02z" fill="#535353"/><path d="m47.92 33.55c.45 0 .92.1 1.32-.23a.24.24 0 0 1 .22 0c.77.81 1.74.55 2.67.5h.47v.12a3 3 0 0 1 -1.87.11c-.94-.16-1.87-.34-2.81-.5z" fill="#535353"/><path d="m63.4 33.67a4.45 4.45 0 0 1 1.8.36 5.29 5.29 0 0 1 -1.8-.36z" fill="#515151"/><path d="m48.51 26a12.32 12.32 0 0 1 -1.51 2.53c-.19.06-.39-.07-.75 0a10.46 10.46 0 0 0 1.43-2.53.73.73 0 0 0 -.46-1.11 5.12 5.12 0 0 0 -2-.46c-.25 0-.59.09-.69-.22s.14-.55.51-.76c-.09.6.28.66.69.68a1 1 0 0 1 .29.07c1 .39 1.47.24 2-.69a12.72 12.72 0 0 1 .73-1.3c.27-.4.08-.76-.38-.7s-1.13-.09-1.71.33a.58.58 0 0 1 .6-.52c.55-.07.85.05 1.41 0 .15-.22.45-.25.67-.33a.34.34 0 0 1 .43.13.31.31 0 0 1 0 .44 4.17 4.17 0 0 0 -1.32 2.3c.46-.05 1.18-1.54 1.57-2.15.1-.19.11-.38.3-.28a.3.3 0 0 1 .07.51c-.33.37-.24.41-.47.82s-.58 1-.72 1.35c0 .11-.15.23-.12.33.2.63-.19 1.08-.57 1.56z" fill="#3c3c3c"/><path d="m48 32.55c.88-1.23 1.49-2.64 2.48-3.8a35 35 0 0 0 2.32-3.12c.4-.2.57-.64 1-1-.06.44-.56.65-.39 1.08 0 .08-.07.15-.1.23-.23.52-.67.88-.93 1.37a12.82 12.82 0 0 0 -1.17 1.82 7.19 7.19 0 0 1 -1.08 1.45 10 10 0 0 0 -1 1.63c-.13.18.12.38 0 .57-.35-.08-.64-.59-1.07-.16z" fill="#616161"/><path d="m55 17.82c.11-.16.18-.35.39-.43s.43-.18.6 0-.07.34-.16.46c-.74 1-1.38 2.07-2.1 3.08a10.84 10.84 0 0 0 -1.95 3.09c0 .05-.1 0-.15 0-.11-.42-.29-.18-.46-.05-.48.38-1.26 1.74-1.2 1.4-.07 0-.22 0-.17 0 .91-1.3 2-2.73 2.88-4 .19-.32 1.91-2.88 2.32-3.55z" fill="#757575"/><path d="m50 25.22c0 .05.23-.12.23-.07-.08.28-.56.64-.64.9s-1.36 1.86-1.3 1.57a4.92 4.92 0 0 1 1.71-2.4z" fill="#7b7b7b"/><path d="m50.18 22.1c-.36.55-.52.07-.44 0s.61-1.27.77-1.45c.71-1.06 1.41-2.12 2.11-3.18a4 4 0 0 1 .27-.31c.13-.13.29-.19.43-.08s.06.27 0 .41c-.92 1.51-2.99 4.51-3.14 4.61z" fill="#676767"/><path d="m47.68 26a1.26 1.26 0 0 0 -.5-1 8.81 8.81 0 0 0 -2.7-.37c-.22 0-.47 0-.56-.22s.08-.46.27-.6a11 11 0 0 0 1.81-1.7 1.4 1.4 0 0 0 .36-.73c.08-.64.61-1.06.85-1.63.54-.76 1.09-1.52 1.63-2.29a2.47 2.47 0 0 1 1.16-.94c.16 0 .24.08.23.25s.11.24 0 .32c-.57.53-.75 1.33-1.32 1.87-.4.39-.53 1-.9 1.41-.18.21 0 .35.24.39s.44-.06.62.13a.45.45 0 0 1 .13.11c0 .24-.12.31-.34.29a6.1 6.1 0 0 0 -1 .1 4.74 4.74 0 0 1 1.13-.07c.41.06.47.25.36.6a.79.79 0 0 1 -.1.27 5.38 5.38 0 0 0 -.93 1.67 1 1 0 0 1 -1.3.68 5.27 5.27 0 0 0 -1.49-.34c.65-.07 1.31.4 2.06.42.4 0 .65.39.82.72s-.11.66-.53.66zm-1.27-3.56c-.16.18-.31.37-.47.54-.72.75-.72.75.26 1.1s1.25.13 1.6-.7a4.54 4.54 0 0 1 .47-.9c.14-.18.41-.34.28-.61s-.44-.07-.63-.1c-.92 0-.92.01-1.51.66z" fill="#545454"/><path d="m77.68 38a10.22 10.22 0 0 1 2.51.6 6.65 6.65 0 0 1 -2.51-.6z" fill="#6b6b6b"/><path d="m88.72 40.15-1.08-.15a6.51 6.51 0 0 1 -2.15-.26 1.1 1.1 0 0 1 .69-.07 1.81 1.81 0 0 0 1.21-.13 1.45 1.45 0 0 1 1.1 0c.28.17.29.37.23.61z" fill="#5a5a5a"/><path d="m98.44 40.87 1.84.3a1.32 1.32 0 0 0 .81-.05c0-.29.3-.2.44-.31.77 0 2.71-.78 3.72-.5 1.33.37.56.69.91 1a.32.32 0 0 1 0 .16.26.26 0 0 1 -.26.12c-.49-.13-1 0-1.48-.1a4.73 4.73 0 0 0 -2.42.36c-.23.06-.13.22 0 .31a1.13 1.13 0 0 0 .48.19c.19.12.5.16.33.52a4.81 4.81 0 0 1 -2.25-1.36c-.25-.31-.64-.25-1-.33a2.93 2.93 0 0 1 -1.12-.31z" fill="#878787"/><path d="m107.92 45a.92.92 0 0 1 .46.26.71.71 0 0 0 1 .1 1 1 0 0 1 .51-.14 10.91 10.91 0 0 1 4.18.25c.06.51-.32.47-.56.35a3.2 3.2 0 0 0 -1.91-.1 1.35 1.35 0 0 1 -.4 0 .65.65 0 0 0 -.81.48.47.47 0 0 1 -.55.08c-.47-.21-1-.23-1.4-.69z" fill="#7c7c7c"/><path d="m108.41 45.53 1.89.53c.11-.05.19 0 .27.08l.84.44c.2.49.68.62 1.09.94a3.48 3.48 0 0 1 -.74-.18 23.54 23.54 0 0 1 -3-1.36c-.2-.11-.38-.2-.35-.45z" fill="#434343"/><path d="m121.72 49.75a5 5 0 0 1 1.79.5 5.55 5.55 0 0 1 -1.79-.5z" fill="#848484"/><path d="m147.34 50.15c0 .35 2.79-.21 3.79-.16a20.14 20.14 0 0 0 3.11-.2 30.63 30.63 0 0 1 4.28-.24c.72 0 1.43.26 2.14.26a11.8 11.8 0 0 0 2.84-.17 24.79 24.79 0 0 0 -2.86 0 5 5 0 0 1 -1.3-.18 9.38 9.38 0 0 0 1.85 0c0-.07-.77-.15-1-.17-1-.11-3.08-.38-4.21-.36-1 .17-1.94-.11-2.9.06s-4.81 1-5.79.74m.06-1.2a45.66 45.66 0 0 1 7.4 0 7.72 7.72 0 0 0 1.44-.06c2.19-.42 4.44.83 4.54.32s-1.5-.26-1.39-.86c1.4 0 4-.08 4.89 1.2.46.2.79-.22 1.2-.26a.57.57 0 0 0 -.33-.33 14.19 14.19 0 0 0 -3.51-1.1 19.47 19.47 0 0 1 -2.3-.23 5.71 5.71 0 0 1 -1.43-.1 13.25 13.25 0 0 0 -3.6-.39 1.88 1.88 0 0 0 -.7-.12 16 16 0 0 1 -2.19-.24 5 5 0 0 1 -2-.6c-.13.22-.32.19-.52.13a1.22 1.22 0 0 0 -.73-.1.33.33 0 0 0 -.18.3c.06.24.26.28.45.35a6.94 6.94 0 0 0 1.43.38c-.54 0-1.18-.16-1.83-.16-.18 0-.81-.07-1.17-.07 0 0-9.75-.17-10.46-.35-.56 0-2.69.07-3.21.09h-.1c-.08.07-.18.05-.28.06s-.51-.12-.49.23 1.14.23 1.43.3c.9.24 10.86.34 11.71.59a4.07 4.07 0 0 1 .51 0 6.9 6.9 0 0 1 1.16 0h1.42 1.38c.2 0 .75.11.9-.07s.31 0 .21.14c-.32.39-1.24.18-1.67.17-1.08 0-2.29 0-3.37 0 0 0-.42 0-.44 0s.27.19.34.37a.34.34 0 0 0 .35.17h.84m3.64-1.06a5.52 5.52 0 0 0 2.75-.19 1.17 1.17 0 0 0 .84-.46.72.72 0 0 1 -.35.34 10.8 10.8 0 0 0 -1.75.56c-.58.52-1.07.02-1.52-.04zm8.45.64a14 14 0 0 1 -2.89.1h-1.39c-.36 0-.74 0-1.09 0a2.15 2.15 0 0 1 -.75-.41v-.09a.13.13 0 0 1 .11-.13c.05 0 .53-.06.7 0s.64-.13.84-.17a9.15 9.15 0 0 1 2 .1h2c.31 0 .55.17.61.5a.1767767.1767767 0 0 1 -.17.31z" fill="#7c7c7c"/><path d="m147.76 43c.12-.12 1 0 1.36 0 .14 0 .29 0 .32.21a.3.3 0 0 1 -.15.3 1.37 1.37 0 0 1 -1.13.28c-.29-.06-.49-.21-.25-.54s0-.19-.15-.25z" fill="#717171"/><path d="m137.09 39.76a1.93 1.93 0 0 0 -.09.69.29.29 0 0 1 -.26.34.5.5 0 0 1 -.48-.16c-.13-.17 0-.3.1-.41a1.09 1.09 0 0 1 .73-.46z" fill="#878787"/><path d="m150.41 42.88c-.14 0-.39 0-.35-.18a.6.6 0 0 1 .58-.49c.17 0 .45 0 .43.2s-.34.45-.66.47z" fill="#808080"/><path d="m148.35 46c.26-.36.65-.12 1-.23h.13c.21.36 0 .42-.29.4a7.6 7.6 0 0 1 -.84-.17z" fill="#606060"/><path d="m141.69 40.6c0 .51-.17.88-.68.93a.43.43 0 0 1 -.5-.4c0-.19.78-.84 1-.82s.18.2.18.29z" fill="#5c5c5c"/><path d="m126.66 42.51a.74.74 0 0 1 .1-.56c.3-.37.61-.26.93 0s.26.48.11.75c-.38-.08-.8.04-1.14-.19z" fill="#5d5d5d"/><path d="m119.51 41.82c-.28-.06-.6 0-.63-.36s.23-.43.48-.43.68.17.7.5-.38.17-.55.29z" fill="#626262"/><path d="m116.66 41.24c-.2-.1-.59.12-.6-.27s.31-.34.54-.34.55.13.55.42-.31.14-.49.19z" fill="#676767"/><path d="m115.75 38.59c-.23 0-.53 0-.52-.35s.27-.32.48-.33a.46.46 0 0 1 .53.39c.02.31-.24.25-.49.29z" fill="#626262"/><path d="m118.6 37.89c-.22 0-.53 0-.53-.33s.25-.28.45-.28a.44.44 0 0 1 .46.38c.02.28-.22.21-.38.23z" fill="#646464"/><path d="m98.68 39.91a36.2 36.2 0 0 0 3.72-1.11 1.66 1.66 0 0 1 1.22 0 4.85 4.85 0 0 0 2.09.41 1.06 1.06 0 0 1 .47.08 4.41 4.41 0 0 0 4-.28.84.84 0 0 1 .17 0c-.31.34-.31.34-.13.48a5.92 5.92 0 0 1 -3.37.43c-1.26-.17-2.5-.43-3.75-.61a3.88 3.88 0 0 0 -2.52.76 6.41 6.41 0 0 1 -1.57.23c-.37 0-.75.26-1.19 0 .27-.3.62-.21.86-.39z" fill="#8d8d8d"/><path d="m109 36.32a4.42 4.42 0 0 1 1.3-.61c1 .09 3.8.54 4.84.49.55-.07 1.84.09-.59.7a5.73 5.73 0 0 0 -2-.45 5.6 5.6 0 0 0 -3.85.57 5 5 0 0 1 -4.05.4c-.66-.22-1.17-.75-1.83-1a7.09 7.09 0 0 0 -2.28.35c-.4 0-.71.26-1.07.37a8 8 0 0 1 -1 .25c-.38.13-.34-.11-.25-.35.29-.55.89-.42 1.34-.61l.93-.35a7.29 7.29 0 0 1 2.75-.27c.6 0 1.06.44 1.55.72a3.54 3.54 0 0 0 3.44 0 5.17 5.17 0 0 0 .77-.21z" fill="#8d8d8d"/><path d="m159.52 53.47a.45.45 0 0 0 0 .11 10 10 0 0 0 -2 0h-3.9a7.11 7.11 0 0 0 -1.86.25 7.55 7.55 0 0 1 -2.6.09c-.42 0-.82 0-1.24 0-.2 0-.52 0-.51-.28s.29-.1.46-.12c.37 0 .75 0 1.24-.06-.34-.09 2.48.06 4.11 0s3.51.14 5.26-.06a1.9 1.9 0 0 1 1.04.07z" fill="#545454"/><path d="m164.58 51.3a51.37 51.37 0 0 1 5.95.1c.2 0 .53 0 .51.25s-.33.32-.57.3a6.56 6.56 0 0 1 -1.59-.17 5.09 5.09 0 0 0 -1.78-.12 12.82 12.82 0 0 1 -3.23-.23c.28-.17.51-.09.71-.13z" fill="#7a7a7a"/><path d="m147.24 48.46a34.26 34.26 0 0 0 -5.26.17.93.93 0 0 1 -.47 0c-1.53-.59-3.08-.21-4.61-.09a46.44 46.44 0 0 1 -6.46.09 33.29 33.29 0 0 0 -4.23-.3 21.88 21.88 0 0 1 -2.92 0 .39.39 0 0 0 -.17-.06c-1.23.07-2.44-.21-3.67-.06a3.88 3.88 0 0 1 -1.21-.24 2.76 2.76 0 0 0 -1.59-.37c-.19 0-.5.06-.51-.17s.31-.24.51-.27a2.92 2.92 0 0 1 1.7.18 5.12 5.12 0 0 0 2.35.33c1.65 0 3.29.36 4.94.29a1.85 1.85 0 0 0 .77-.11c1.81-.06 3.62.17 5.43.26 1.5.06 3 0 4.52-.08a19.27 19.27 0 0 1 5.31 0 8.06 8.06 0 0 0 2.08 0h3.53c-.33.21-.74 0-1.16.24.42.21.8.07 1.17.12a.17.17 0 0 1 0 .14c.02-.02-.02-.02-.05-.07z" fill="#898989"/><path d="m150.73 49.46c3.77.38-1 .22-2.53.44.1.57-2 .25-2.49.44a29 29 0 0 1 -3.73.09 19.61 19.61 0 0 0 -3.43 0 16.36 16.36 0 0 1 -2.43.08c-1.84.27-3.63-.33-5.46-.31-.52 0-1 0-1.55 0-1.64.14-3.29-.09-4.94-.08-.4 0-.35-.22-.15-.46a4.08 4.08 0 0 1 1.84 0 32.22 32.22 0 0 0 5.38 0c1.33 0 2.6.41 3.93.39 1.5 0 3-.12 4.49-.23a11.8 11.8 0 0 1 1.79.08" fill="#848484"/><path d="m141.17 47.23c-.08 0-.16.09-.23.08a25.7 25.7 0 0 0 -3.51 0 24.57 24.57 0 0 1 -3.54-.53 2.5 2.5 0 0 0 -1 0 5.11 5.11 0 0 1 -3.2-.29 4.53 4.53 0 0 0 -2.2-.09 36.27 36.27 0 0 1 -4.17 0 49.29 49.29 0 0 0 -5-.25 21.93 21.93 0 0 1 -4.51-.18 2.94 2.94 0 0 0 -.42 0 2.08 2.08 0 0 0 -1.83-.2c-.33 0-.81-.18-1 .37l-.27-.08a.88.88 0 0 1 1-.52 18.65 18.65 0 0 1 2.36.06c.1 0 .24-.11.36-.17a7.74 7.74 0 0 1 .86.23 6.34 6.34 0 0 0 3.09.09c2-.23 4.05.2 6.08.23 1.26 0 2.51.08 3.76 0a5.11 5.11 0 0 1 2.93.33 4.94 4.94 0 0 0 2.36.1l-.53.2a12.36 12.36 0 0 1 3.44.39 9.89 9.89 0 0 0 2.83.07 11.94 11.94 0 0 1 2.34.16z" fill="#8a8a8a"/><path d="m82.37 25.27a4.79 4.79 0 0 0 1.12-1.81c.08-.14.12-.29.2-.43s.17-.26.33-.17.08.2 0 .32-.11.34-.16.51a43.52 43.52 0 0 1 -3.21 5.09 10.63 10.63 0 0 0 -1.16 1.8 2.11 2.11 0 0 1 -.54.78c-.2-.18-.39.3-.6 0a44.92 44.92 0 0 1 2.93-4.45c.44-.49.72-1.08 1.09-1.64z" fill="#727272"/><path d="m82.23 30.42a.42.42 0 0 1 .37.25c-.27.54-.52 1.08-.81 1.6-.16.29-.29.83-.71.62s-.06-.6.07-.89a7.13 7.13 0 0 1 1.08-1.58z" fill="#636363"/><path d="m86.93 27.06c-.42 0-1 .19-1.22-.08s.25-.72.26-1.12a1.46 1.46 0 0 0 0-.21c-.53.36-.44 1.12-1 1.41a11.85 11.85 0 0 1 1.34-2.63c.05-.06 0 0 0-.05s.24-.42.45-.28.1.37 0 .56a13.07 13.07 0 0 0 -.85 1.77c-.16.35-.1.53.31.51a1.14 1.14 0 0 1 .71.12z" fill="#737373"/><path d="m78.39 31.39.64-.52c.11.19-.06.34 0 .49a4.23 4.23 0 0 0 -.59 1.11.37.37 0 0 0 0 .39c.08.2 0 .29-.2.34a.48.48 0 0 1 -.54-.12c-.13-.14 0-.25 0-.36a1.69 1.69 0 0 0 .3-.72z" fill="#5d5d5d"/><path d="m82.24 30a.65.65 0 0 1 -.61-.38 4.74 4.74 0 0 1 1.69-1.81l-1.15 1.29c-.26.31-.28.6.07.9z" fill="#636363"/><path d="m86.77 24.66c0-.14.1-.33-.06-.41s-.26.12-.39.18a.8.8 0 0 1 .36-.48c.53.17.26.45.09.71z" fill="#a7a7a7"/><path d="m81.09 35.78a6.45 6.45 0 0 1 1.63.38 2.93 2.93 0 0 0 1.47.08 1.5 1.5 0 0 1 1.35.3 1.27 1.27 0 0 0 .84.25 14.75 14.75 0 0 0 4-.39 5.52 5.52 0 0 1 .71-.1c.22.17.74 0 .69.35s-.48.09-.75.14-.72 0-1 .25a15.72 15.72 0 0 1 -4.54.34 7.35 7.35 0 0 0 -2.72-.24h-.17a.56.56 0 0 1 -.29 0 10.19 10.19 0 0 0 -3.43-.82c-.27 0-.58-.08-.66-.42s.14-.43.36-.55 1.52-.13 1.69.4z" fill="#858585"/><path d="m101.43 33.18c.6-.5.86-1.25 1.4-1.79.12-.11.22-.35.42-.2s0 .3 0 .43-.3.55-.46.83-.19.65-.47.87a.47.47 0 0 1 -.66.45c-.4-.08-.39-.33-.23-.59z" fill="#525252"/><path d="m98.91 32.69a11.76 11.76 0 0 1 1.24-1.33c.07-.08.18-.21.29-.12s0 .26 0 .36c-.33.42-.67.82-1 1.23l-.38.46c-.16.18-.24.38 0 .56s.21.28 0 .45a.45.45 0 0 1 -.54.13c-.2-.11-.17-.3-.12-.48a10.75 10.75 0 0 0 .51-1.26z" fill="#646464"/><path d="m80.31 35.34c-.41-.18-.85-.32-1-.84 0-.29.14-.33.37-.24s.53-.21.72.08.1.66-.09 1z" fill="#4a4a4a"/><path d="m86.92 35.83a2.08 2.08 0 0 1 -1 .05.29.29 0 0 1 -.25-.29.33.33 0 0 1 .22-.31.76.76 0 0 1 1 .55z" fill="#3c3c3c"/><path d="m74.57 35h.22c.08.28.39.57 0 .86-.12.1-.35.13-.44 0-.18-.31.03-.59.22-.86z" fill="#494949"/><path d="m98.69 29.37c.07-.07.15-.14.21-.21.45-.57.44-.6-.23-.88a2 2 0 0 1 1.45.48c-.35-.13-.54-.05-.64.34-.17.66-.77 1.07-1 1.69a23.59 23.59 0 0 0 -1.55 2.29c-.12.16-.3.68-.6.11a1 1 0 0 1 .17-.81c.55-1 1.31-1.8 1.85-2.78a.36.36 0 0 1 .34-.23z" fill="#8e8e8e"/><path d="m61.13 27.68c-.63 0-.86.46-1 1a1 1 0 0 1 -.23.47v.08c-.13.09-.25.22-.41.23-.32 0-.54-.13-.44-.45a2.8 2.8 0 0 1 .68-1.43c.23-.17.39-.49.27-.66a.86.86 0 0 0 -.82-.18 3.62 3.62 0 0 0 -2.18 1.6l-.12.12a.86.86 0 0 0 -.24.41c0 .26 0 .43.36.44.77 0 1.54.12 2.31.14a.82.82 0 0 1 .57.26v.35a4.56 4.56 0 0 1 -2.29 0c-.37 0-.72-.23-1.06.06s-.56.49-.73.84c-.09.11-.15.34-.34.23s-.05-.3 0-.41a.62.62 0 0 0 -.1-.94.53.53 0 0 1 -.12-.66 4 4 0 0 1 1.26-1.7l.23-.13c.31-.17.67-.31.57-.79a.17.17 0 0 1 .08-.15c.77-.48 1-1.38 1.63-2 .15-.15.29-.36.55-.18 0 .45-.31.73-.46 1.09s0 .48.27.54a1.35 1.35 0 0 0 1 0 1.89 1.89 0 0 1 .58-.08c.38-.11.51-.2.81 0s-1 .79.18.81c-.02.17-.55 1.06-.81 1.09z" fill="#474747"/><path d="m59.67 32.21c.11 0 .22-.12.33-.1.53 0 .74-.23.77-.71a16.44 16.44 0 0 0 .9-2.12c.17-.43.62-.72.85-1.15s.74-.91 1-1.42a3.69 3.69 0 0 0 .91-1.16l2.59-3.72a1.61 1.61 0 0 0 .32-.76l.71-1c.18-.12.41-.31.59-.12s0 .39-.14.58a9.44 9.44 0 0 1 -1.42 2.17 7.06 7.06 0 0 1 -.73 1.08 74.32 74.32 0 0 0 -4.33 6.37c-.27.46-.49 1-.74 1.44s-.1.73.41.79 1 .11 1.43.14a5.44 5.44 0 0 1 1.7.26.69.69 0 0 1 -.61 0c-1.51-.03-3.02-.34-4.54-.57z" fill="#6e6e6e"/><path d="m64.24 32.83h.61a7.65 7.65 0 0 1 2.69.46c.37.16.52 0 .71-.3.91-1.41 1.73-2.87 2.72-4.22a1.34 1.34 0 0 1 .87-.89c.18-.08.44-.25.57 0s-.2.28-.33.4c-.31.13-.35.46-.49.71a15.9 15.9 0 0 1 -2.09 3.1l-.13.12c-.86 1.14-.8 1.35.53 1.77a1.26 1.26 0 0 1 .58.28l-1.56-.37c.23.32.49.27.68.35s.38 0 .35.23-.26.13-.41.14a5.94 5.94 0 0 1 -2.72-.61c-.73-.32-1.55-.3-2.27-.66.07-.23.34-.07.46-.28z" fill="#595959"/><path d="m70.25 22.28c-1.29 2-2.64 4-4 6-.6.87-1.09 1.81-1.64 2.71-.12.2-.24.52-.51.38s-.12-.44 0-.65a12.48 12.48 0 0 1 1.21-2 3 3 0 0 0 .45-.83 5.14 5.14 0 0 1 1.07-1.66 4.07 4.07 0 0 0 .9-1.39 5.12 5.12 0 0 1 .9-1.23 2 2 0 0 0 .42-.81c.42-.32.65-.83 1.07-1.16.16-.13.31-.41.52-.24s-.07.33-.14.49-.19.27-.25.39z" fill="#6e6e6e"/><path d="m58.6 22.38c-.83 1-1.45 2.09-2.21 3.1-.45.62-.93 1.21-1.4 1.82-.2-.21-.26 0-.34.13a1.87 1.87 0 0 1 -.65.57c.93-1.34 1.9-2.66 2.8-4a44.28 44.28 0 0 0 2.91-4.16 5.75 5.75 0 0 1 1-1.13c.13-.14.33-.32.52-.13s0 .37-.14.51a24 24 0 0 0 -2.49 3.29z" fill="#7d7d7d"/><path d="m69.86 25.85a4.83 4.83 0 0 0 -.16.5c0 .34 0 .59.44.61s.71.1 1.06.1a2.65 2.65 0 0 1 2 .49c.16.15.41.11.63.13l-.26.22h-.33c-.2-.17-.53-.17-.62-.47-.33-.36-.76-.09-1.14-.17a1.85 1.85 0 0 0 -2.26 1.14c-.73 1.38-1.85 2.5-2.63 3.85-.08.13-.2.3-.38.22s-.1-.31 0-.47a3.41 3.41 0 0 1 .56-1 22.64 22.64 0 0 0 2.09-3.12 2.86 2.86 0 0 1 .42-.5c.16-.17.3-.35.23-.58a.8.8 0 0 1 .35-.95z" fill="#6f6f6f"/><path d="m61.88 26.69c0-.13 0-.07-.09-.22-.23 0-.08.05-.26-.07a19.5 19.5 0 0 0 1.25-2.08 25.29 25.29 0 0 1 2.06-3.27c.26-.44.56-.86.84-1.29.27-.12.44-.67.73-.39s-.2.54-.38.77a6.09 6.09 0 0 0 -.71 1.17c-.77 1.42-1.7 2.74-2.53 4.12a5.78 5.78 0 0 1 -.91 1.26z" fill="#777"/><path d="m61 22.62-.35.36a5.36 5.36 0 0 1 -.49 1c-.22.3-1.6 1.48-.57.28-.32-.12.21-.49.09-.66a8.33 8.33 0 0 1 1.51-2.27c.64-.88 1-1.87 1.63-2.77.17-.26.3-.78.67-.59s0 .58-.13.86c-.24.47-.52.93-.78 1.4a17.44 17.44 0 0 1 -1.58 2.39z" fill="#717171"/><path d="m72.45 23.5c-.2 0-.26-.15-.19-.29a8.29 8.29 0 0 1 1-2c.12-.14.27-.35.49-.21s.11.33 0 .49c-.29.58-.6 1.16-.91 1.73a.46.46 0 0 1 -.39.28z" fill="#5c5c5c"/><path d="m59.66 23.59.6-.56c-.2.45-.59 1.1-.72 1.39 0 .1.16-.21.06-.23a3 3 0 0 0 -1.27 1.36c-.3.5-.82.85-1 1.46-.05.2-.33.26-.55.29.19-.21.45-.39.42-.74a.38.38 0 0 1 .27-.36 1.23 1.23 0 0 0 .65-.81 14.56 14.56 0 0 1 1.54-1.8z" fill="#626262"/><path d="m69.16 23c.11-.51.56-.82.73-1.3.4-.26.52-.76.88-1.05.15-.11.33-.33.52-.19s0 .38-.11.52c-.35.41-.51 1-.93 1.31.08-.22.16-.44.27-.76-.69.34-.82 1.09-1.36 1.47z" fill="#898989"/><path d="m74.68 23v-.43c-.55.65-.93 1.39-1.86 1.14.87 0 1.25-.67 1.66-1.27a2.38 2.38 0 0 1 .7-.81c.12-.08.26-.13.38 0s0 .23 0 .33l-.65.93z" fill="#696969"/><path d="m71.44 24.42a15.13 15.13 0 0 1 -1.44 1.31 3 3 0 0 1 1.44-1.31z" fill="#6f6f6f"/><path d="m75.76 32.11a.93.93 0 0 1 0-1.16 45.62 45.62 0 0 1 2.83-4.39c.33-.45.6-.94.89-1.42a11 11 0 0 0 1.09-1.76c.08-.15.17-.38.38-.26s0 .28 0 .42a6 6 0 0 0 -.32.9 9.6 9.6 0 0 1 -.87 1.31 24.7 24.7 0 0 1 -2.48 4.16c-.36.28-.07.67-.16 1a2.63 2.63 0 0 0 -.57 1c-.2.47-.32.49-.79.2z" fill="#666"/><path d="m77.07 29.82c.25.3.35 0 .47-.13a20.59 20.59 0 0 0 1.62-2.4c.13-.26.38-.5.55 0a36.27 36.27 0 0 0 -2.32 3.17c-.11.14-.21.29-.31.44-.17-.46-.39.24-.59-.13a2.52 2.52 0 0 1 .58-.95z" fill="#989898"/><path d="m80.44 24.42.44-1.08-.13-.08c-.44.62-.64 1.42-1.29 1.88.44-.76.89-1.52 1.33-2.29a3.92 3.92 0 0 0 .39-.52.25.25 0 0 1 .36-.07.21.21 0 0 1 .06.34c-.16.19-.14.46-.32.63a1.93 1.93 0 0 0 -.48.83c-.12.12-.01.47-.36.36z" fill="#777"/><path d="m75.76 32.11c.34.16.55.06.69-.29a1.55 1.55 0 0 1 .63-.91c-.14.38-.37.72-.52 1.11s-.48.46-.8.09z" fill="#989898"/><path d="m75.17 23.94c-.29 0-.63.09-.78-.25a.58.58 0 0 1 .29-.7c-.31.56-.11.86.49.95z" fill="#696969"/><path d="m75.88 24.91c.28-.62-.22-.76-.6-1 .85.14 1.02.42.6 1z" fill="#696969"/><path d="m56.67 32.7 3-.49a5.21 5.21 0 0 1 -2.63.51z" fill="#6e6e6e"/><path d="m91.74 38.36.22-.12c.26.09.56.11.67.42a.2.2 0 0 1 -.12.25 1.79 1.79 0 0 1 -1.05.09c-.14 0-.12-.18 0-.29z" fill="#434343"/><path d="m89.31 38.24c.08.21 0 .35-.22.37s-.55.06-.82.06c-.44 0-.54-.19-.26-.55.47-.36.88 0 1.31.12z" fill="#505050"/><path d="m76.94 34.18a.42.42 0 0 1 0 .63.74.74 0 0 1 -.67.33c-.39 0-.39-.36 0-.86a.88.88 0 0 1 .67-.1z" fill="#484848"/><path d="m105.52 40.26a.81.81 0 0 1 1.07.61c-.15.22-.22.52-.59.48a2 2 0 0 0 -.22-.08c-.33 0-.7-.09-.78-.44s.39-.33.52-.57z" fill="#474747"/><path d="m101.59 40h.08.18c.31 0 .66.06.68.39s-.35.33-.61.36c-.62-.18-.69-.32-.33-.75z" fill="#474747"/><path d="m106 41.48v-.13c.14-.3.2-.68.68-.58a2.86 2.86 0 0 0 2.47.82c.63 0 1.27 0 1.9-.06a6.15 6.15 0 0 0 1.59-.21 4.69 4.69 0 0 1 2.38.37 6.69 6.69 0 0 0 2.58.45 1.62 1.62 0 0 0 .6.19 19 19 0 0 0 3.19.45 40.15 40.15 0 0 1 4.08.48 8.14 8.14 0 0 0 1.78 0c.68 0 1.37 0 2.05.08a9.29 9.29 0 0 0 2-.07 5.77 5.77 0 0 1 2.39.32 1.38 1.38 0 0 0 .29.08 5.25 5.25 0 0 1 2.11.3 12.17 12.17 0 0 0 3 .18c.21 0 .44-.06.64.06a3 3 0 0 0 1.64.36 1.74 1.74 0 0 1 .75.12c.06.44-.18.61-.57.59a12.79 12.79 0 0 1 -2.31-.19c-.34-.07-.67-.39-1-.32a6.33 6.33 0 0 1 -2.21-.1 12.32 12.32 0 0 0 -3.92-.46 17.85 17.85 0 0 1 -3.35 0c-.78-.13-1.83.06-2.62 0-1.84-.24-2.81-.62-4.64-.4-1.93-.1-3.24-.54-5.14-.78-.81-.1-2-.56-2.75-.72-.07 0-1.28 0-1.35 0a15.79 15.79 0 0 0 -3.82.15 2.55 2.55 0 0 1 -1.55-.29 6.9 6.9 0 0 1 -.87-.52.19.19 0 0 1 -.02-.17z" fill="#808080"/><path d="m134.47 44.76c-1.54 0-2.94-.14-4.47-.13a22.35 22.35 0 0 1 -3.66-.07 6.3 6.3 0 0 0 -2.25 0 2.76 2.76 0 0 1 -1.77 0 8.54 8.54 0 0 0 -2.85-.44 19.48 19.48 0 0 1 -4.24-.56 9.7 9.7 0 0 0 -2.5-.25c-1.14 0-2.08-.61-3.23-.54-.41 0-3.1.11-3.57 0s-.84-.39-1.24 0c0 .22.23.3.41.39a6.75 6.75 0 0 0 3 .43 1.52 1.52 0 0 0 1.26.18 1.35 1.35 0 0 1 .53 0c1.93.1 3.86.35 5.76.61s3.68.4 5.5.71a1 1 0 0 0 .39 0 3.27 3.27 0 0 0 1.28.24 25.94 25.94 0 0 1 4.58 0 3.88 3.88 0 0 0 1 .05c1.86-.16 3.73-.12 5.6-.1.3.46.79.39 1.24.44 1.45.16 2.92-.09 4.38.31.77.2 7.58 0 8.4.1.21 0 .57-.61.1-.45-.54-.29-6.27-.12-6.64-.08a12.73 12.73 0 0 1 -2.13-.11c.18-.07-.27-.18-.64-.34a3.65 3.65 0 0 0 -1.94 0 3.3 3.3 0 0 1 -1.69-.22c-.01-.18-.4-.17-.61-.17z" fill="#808080"/><path d="m153 47.64a.13.13 0 0 1 .11-.13s.56-.06.7 0 1.39-.71.56-.71-1 .38-1.54.36c-1 0-2 .39-3.21.15a.79.79 0 0 0 .91.27c.11 0 .44 0 .46.19s-.2.18-.18.35h2c.09 0 .26 0 .24-.1s-.05-.35-.05-.38z" fill="#676767"/><path d="m134.44 46.38a5.67 5.67 0 0 1 1.92.25 6.58 6.58 0 0 1 -1.92-.25z" fill="#8a8a8a"/><path d="m110.05 40.52a4.16 4.16 0 0 1 .5.16.27.27 0 0 1 0 .52 2.9 2.9 0 0 1 -.87.16c-.24 0-.46-.1-.49-.35s.18-.33.39-.38z" fill="#4e4e4e"/><path d="m112.76 41c-.28 0-.53-.1-.53-.39s.23-.33.47-.36a.48.48 0 0 1 .12 0c.27.07.75-.07.76.25s-.51.39-.82.5z" fill="#4b4b4b"/><path d="m130.86 42.44.19-.14c.19-.15.4-.31.63-.08a.26.26 0 0 1 0 .42.49.49 0 0 1 -.74 0 .77.77 0 0 1 -.07-.16z" fill="#3d3d3d"/><path d="m132.83 42.79c-.07.21-.19.39-.44.38a.29.29 0 0 1 -.31-.34c0-.27.25-.33.47-.35s.29.11.28.31z" fill="#5c5c5c"/><path d="m90 37c.44-.44 1-.28 1.58-.43-.11-.23-.37-.17-.5-.31a12.23 12.23 0 0 1 3.35 1.06 3.73 3.73 0 0 0 3.38-.09l.6-.11c.11.31.31.06.46.06s.42 0 .63-.07a10.94 10.94 0 0 1 -1.61.56 4.51 4.51 0 0 1 -2.58.31 8.71 8.71 0 0 1 -2.77-.7c-.51-.13-.95-.5-1.53-.43a6.9 6.9 0 0 0 -1.01.15z" fill="#959595"/><path d="m95.79 38.57c.66-.45.85-.43 1.19.12a1.12 1.12 0 0 1 -.91.36c-.3-.05-.44-.17-.28-.48z" fill="#474747"/><path d="m102.4 38.34c-.24-.07-.54-.11-.53-.35s.34-.39.63-.37.68 0 .68.31c-.01.48-.57.2-.78.41z" fill="#474747"/><path d="m105.77 38.81c-.19-.14-.6 0-.59-.31s.36-.34.61-.34.61 0 .61.33-.4.23-.63.32z" fill="#5e5e5e"/><path d="m99.93 38.16a.79.79 0 0 1 -.66.42c-.16 0-.3-.09-.26-.25.08-.32.35-.41.64-.43a.24.24 0 0 1 .28.26z" fill="#494949"/><path d="m109.1 38.56c-.17 0-.36 0-.36-.23s.2-.41.46-.44.37.08.36.3-.26.32-.46.37z" fill="#3d3d3d"/><path d="m110.73 37.64c.23 0 .41.07.4.3a.37.37 0 0 1 -.4.35c-.18 0-.41 0-.42-.25s.25-.32.42-.4z" fill="#585858"/><path d="m100.6 36.78a4 4 0 0 1 2.28-.35z" fill="#959595"/><path d="m99.64 40.51s.36-.33.57-.13a.17.17 0 0 1 0 .26c-.23.17-.4.1-.53-.13z" fill="#4b4b4b"/><path d="m86.93 27.06c.58.38.62.58.1 1a2.4 2.4 0 0 0 -.72 1.21.3.3 0 0 0 0 .16 1.25 1.25 0 0 1 -1.77 1.28 6.54 6.54 0 0 0 -2-.46c-.08 0-.17-.08-.27-.12-.56-.38-.56-.41-.19-.95a7.6 7.6 0 0 1 1.29-1.37 4 4 0 0 1 1.63-.75c.31-.39.42-.89.69-1.31.09-.14.18-.37.39-.25s0 .28 0 .42a.43.43 0 0 1 -.08.08c-.06.32-.49.62-.27.9s.63.05 1 .08a.37.37 0 0 1 .2.08zm-2.68.64a4.69 4.69 0 0 0 -1.4 1.44c-.1.13 0 .26.16.31l1.79.47a.46.46 0 0 0 .59-.29 7.23 7.23 0 0 1 .75-1.43c.17-.27.07-.4-.23-.42a7.25 7.25 0 0 1 -1.41-.13 1.22 1.22 0 0 0 -.25.05z" fill="#505050"/><path d="m110.4 34.23a.34.34 0 0 1 -.26.3 3.06 3.06 0 0 0 -1.08.72c-.18.18-.43.34-.62.07s.08-.39.27-.48a.88.88 0 0 0 .42-.47.75.75 0 0 1 1.05-.39c.11.02.21.11.22.25z" fill="#5e5e5e"/><path d="m91.69 34.84a1.36 1.36 0 0 1 1 .62c.17.19-.1.3-.27.33a1.89 1.89 0 0 1 -1.2-.29.21.21 0 0 1 -.1-.31.77.77 0 0 1 .57-.35z" fill="#575757"/><path d="m95.21 36.89a.8.8 0 0 1 -.72-.65c0-.31.36-.46.65-.49s.44.33.5.61-.11.48-.43.53z" fill="#373737"/><path d="m83.05 35.61c-.21-.14-.69.08-.68-.26s.47-.52.83-.51.65.07.6.42-.45.3-.75.35z" fill="#414141"/><path d="m98.2 36.51c-.28 0-.62-.12-.61-.44s.33-.44.61-.45.64.09.65.4-.33.45-.65.49z" fill="#414141"/><path d="m89.38 36c-.25-.06-.67.1-.67-.29s.41-.51.75-.55a.48.48 0 0 1 .55.5c-.01.4-.37.28-.63.34z" fill="#4f4f4f"/><path d="m100.25 35.58a.65.65 0 0 1 .13-.47h.11a.63.63 0 0 1 .85.19c.1.12 0 .23-.09.3-.28.23-.58.35-.9.06z" fill="#5b5b5b"/><path d="m106.32 35.14c.31 0 .51.15.55.41s-.14.37-.36.37a.59.59 0 0 1 -.6-.41c-.06-.26.26-.29.41-.37z" fill="#3c3c3c"/><path d="m109 33.53c-.2 0-.35 0-.32-.23a.51.51 0 0 1 .51-.42.2.2 0 0 1 .24.2c-.05.29-.28.38-.43.45z" fill="#7f7f7f"/><path d="m93.54 32.84a2.28 2.28 0 0 0 .71-1.2 22 22 0 0 0 2.28-3.13c0-.21 0-.35.23-.35s.5-.11.39.28a1.48 1.48 0 0 1 -.25.54 40.22 40.22 0 0 0 -3 4.2c-.35.09-.47-.01-.36-.34z" fill="#888"/><path d="m56.56 27.43a6.12 6.12 0 0 0 -1 1.45c-.09.21-.22.42-.1.63a1.22 1.22 0 0 1 .16 1.38c-.09.15.14 0 .23 0a2.68 2.68 0 0 1 -.68 1.1c-.08.11-.21.22-.36.13s-.08-.28 0-.41c.17-.31.36-.62.56-.92s.33-.62 0-.93a.5.5 0 0 1 -.15-.55 3.1 3.1 0 0 1 1.34-1.88z" fill="#676767"/><path d="m75.17 23.94h.11c.83.22.92.36.6 1a4 4 0 0 1 -.68.74 1 1 0 0 0 -.34.55c0 .7-.57 1.06-1 1.48a.83.83 0 0 1 -1.1-.28.65.65 0 0 0 -.68-.26c-.73.12-1.45-.1-2.18 0-.26 0-.45-.57-.29-.87.07-.14.22-.23.26-.39l.11-.12c.49-.43.84-1 1.47-1.31l1.43-.72a1.61 1.61 0 0 0 1.56-.92c.09-.14.18-.4.38-.24s-.07.3-.13.45a1.28 1.28 0 0 0 -.15.25c-.25.49-.18.61.36.65a.44.44 0 0 1 .27-.01zm-3.28.65c-.48.25-.66.74-1 1-.22.18-.48.41-.34.7a.73.73 0 0 0 .73.32 9.48 9.48 0 0 1 1.92 0 .54.54 0 0 0 .49-.17c.4-.44.81-.88 1.19-1.34.25-.3.16-.51-.23-.6a7.77 7.77 0 0 0 -1.8-.24 1.7 1.7 0 0 0 -.96.33z" fill="#454545"/><path d="m104.31 35.22a1.49 1.49 0 0 1 -.93.09.34.34 0 0 1 -.27-.21c0-.18.11-.23.22-.3.41-.27.78-.12 1 .42z" fill="#3c3c3c"/><path d="m86.23 30.09c.11-.23.33-.53.43-.77 0 .6 0 .06 0-.08a7.57 7.57 0 0 0 1.34-2.06 2.78 2.78 0 0 1 .26-.32c.09-.09.21-.15.32-.06s.06.19 0 .28a3.2 3.2 0 0 1 -.26.6c-1 1.67-2.07 3.32-3.11 5a.76.76 0 0 1 -.11.14c-.12.11-.2.4-.39.27s0-.36.08-.52c.21-.36.46-.7.68-1.06a1.09 1.09 0 0 0 .2-.44" fill="#858585"/><path d="m85.68 31.09v.02" fill="#858585"/><path d="m86.14 30.27-.19.34-.18.3-.09.18" fill="#858585"/><text fill="#1d1d1b" font-family="BaskervilleMTPro-Regular, 'Baskerville MT Pro'" font-size="10" transform="translate(111.42 17.28)">c</text><text fill="#1d1d1b" font-family="BaskervilleMTPro-Regular, 'Baskerville MT Pro'" font-size="10" transform="translate(145.28 17.12)">d</text><g fill="none" stroke="#1d1d1b" stroke-linecap="round" stroke-miterlimit="10" stroke-width=".5"><path d="m113.58 18.89v1"/><path d="m113.58 20.97v5.94" stroke-dasharray="2.16 1.08 2.16 1.08"/><path d="m113.58 27.45v9.18" stroke-dasharray="2.16 1.08 2.16 1.08 2.16 1.08"/><path d="m113.58 37.17v1"/><path d="m147.44 18.89v1"/><path d="m147.44 21v6.3" stroke-dasharray="2.29 1.14 2.29 1.14"/><path d="m147.44 27.9v20" stroke-dasharray="2.29 1.14 2.29 1.14 2.29 1.14"/><path d="m147.45 48.48v1"/></g><g fill="#1d1d1b" font-family="BaskervilleMTPro-Regular, 'Baskerville MT Pro'" font-size="10"><text transform="translate(189.57 8.31)">Section <tspan letter-spacing="-.01em" x="32.299999" y="0">a</tspan><tspan x="36.889999" y="0">t</tspan><tspan letter-spacing="-.07em" x="42.310001" y="0">W</tspan><tspan x="51.049999" y="0">a</tspan><tspan letter-spacing=".01em" x="55.740002" y="0">r</tspan><tspan letter-spacing="-.01em" x="59.490002" y="0">r</tspan><tspan x="63.040001" xml:space="preserve" y="0">en Hill.       </tspan></text><text transform="translate(191.72 17.36)">MILDENHALL, SUFFOLK.</text><text transform="translate(30.64 12.9)">a</text><text transform="translate(31.54 27.67)">b</text><text transform="translate(19.52 77.02)">a. <tspan letter-spacing=".04em" x="9.69" y="0">F</tspan><tspan x="15.57" y="0">lood Gr</tspan><tspan letter-spacing="-.03em" x="47.040001" y="0">a</tspan><tspan letter-spacing="-.02em" x="51.439999" y="0">v</tspan><tspan x="55.830002" y="0">el</tspan></text><text transform="translate(19.5 91.52)"><tspan letter-spacing="-.04em">b</tspan><tspan x="4.84" y="0">. Boulder Cl</tspan><tspan letter-spacing="-.01em" x="53.93" y="0">a</tspan><tspan x="58.52" y="0">y</tspan></text><text transform="translate(138.87 77.12)">c. Sand<tspan letter-spacing="-.02em" x="29.9" y="0">s</tspan><tspan x="33.040001" y="0">, implements</tspan><tspan letter-spacing="-.01em" x="87.010002" y="0">a</tspan><tspan x="91.599998" y="0">t base</tspan></text><text transform="translate(138.83 91.51)">d. Bri<tspan letter-spacing="-.01em" x="22.51" y="0">c</tspan><tspan x="26.67" y="0">k-earth, implements th</tspan><tspan letter-spacing="-.02em" x="117.53" y="0">r</tspan><tspan x="120.99" y="0">ou</tspan><tspan letter-spacing=".01em" x="131.2" y="0">g</tspan><tspan x="135.99001" y="0">hout.</tspan></text><text transform="translate(70.63 56.16)">CHALK</text><text transform="matrix(.99955467 .0298407 -.0298407 .99955467 .079996 38.129999)"><tspan letter-spacing=".01em">4</tspan><tspan x="4.79" y="0">0ft</tspan></text></g><g fill="none" stroke="#1d1d1b" stroke-linecap="round" stroke-miterlimit="10" stroke-width=".5"><path d="m20.17 13v48.13"/><path d="m19.28 7.84 2.15 2.62"/><path d="m21.32 7.86-1.93 2.8"/><path d="m19.55 64.1 2.15 2.63"/><path d="m21.59 64.12-1.93 2.8"/></g></g></svg>