<svg viewBox="0 0 168.67 47.23" xmlns="http://www.w3.org/2000/svg"><path d="m1.83 30.81c-.69-.54 0-.79.24-1.14s.4-.48.85-.36.62-.33 1-.44c.15 0 .3-.2.44-.15.5.16.77-.17 1.09-.44.54-.2 1.07-.43 1.63-.59a1.75 1.75 0 0 1 .86-.05 8.24 8.24 0 0 0 2.27-.06c.6-.06 1.12-.32 1.72-.4a15 15 0 0 1 2 .14c.57 0 1.22.22 1.73-.3.14-.14.42-.16.69-.25a19.36 19.36 0 0 0 -2.35-1.71 11.16 11.16 0 0 1 -1.74-1.31.49.49 0 0 1 -.05-.74 1.89 1.89 0 0 1 1.05-.71.62.62 0 0 1 .81.4 3.1 3.1 0 0 0 1.56 1.57c.69.31 1.26.85 1.92 1.23.28.15.57.29.86.42a1.18 1.18 0 0 0 1.07.37c1.06-.05 2.1-.23 3.16-.21.28 0 .53.16.81.13.6.12.65.68.85 1.1a.31.31 0 0 1 -.25.45c-.37.08-.75.28-1.12 0-.18-.15-.38 0-.57 0a3.78 3.78 0 0 0 -2.28 0c-.2 0-.4.16-.58.12-.63-.12-1.12.27-1.67.42a3.13 3.13 0 0 1 -1 .19 6.39 6.39 0 0 0 -2.13.31 1.64 1.64 0 0 1 -.82 0 5.58 5.58 0 0 0 -1.73-.14 19 19 0 0 0 -3.15.34c-.13 0-.27 0-.39.07a6.3 6.3 0 0 1 -1.1.11 3.76 3.76 0 0 0 -2.51.41 16.65 16.65 0 0 0 -2.64 1.13c-.15.13-.31.33-.53.09z" fill="#5c5c5c"/><path d="m44.32 1.82a2.1 2.1 0 0 0 1.18-.24c.3-.27.69-.15 1-.23.64.41.65.44.37 1-.71.13-1.37.42-2.07.61a18.16 18.16 0 0 0 -3.8 1.04 15 15 0 0 1 -2.64.84 4.89 4.89 0 0 0 -.85.25 2.24 2.24 0 0 0 -1 .4 11.25 11.25 0 0 1 -2.43.89c-.51.14-.91.51-1.41.66a13.68 13.68 0 0 0 -2.53 1.06 24.74 24.74 0 0 0 -3.41 1.72 19.23 19.23 0 0 1 -2.43 1.25 1.85 1.85 0 0 1 -1.27.16c-.42-.42 0-.58.23-.83s.38-.18.55-.3a6.67 6.67 0 0 1 2-1c.46-.15.76-.56 1.19-.75.79-.36 1.54-.8 2.35-1.11l.58-.27a8.09 8.09 0 0 0 1.56-.7 3.14 3.14 0 0 1 .69-.27c.22-.31.59-.26.89-.38.66-.27 1.3-.57 2-.81a9.63 9.63 0 0 1 1.35-.36 5 5 0 0 1 2.15-1 15.43 15.43 0 0 0 2.25-.71 2.3 2.3 0 0 1 1.12-.29c.47 0 .86-.37 1.35-.48a4.36 4.36 0 0 1 1.03-.15z" fill="#6c6c6c"/><path d="m49.69 24.45a4.06 4.06 0 0 0 -.6.27 9.4 9.4 0 0 1 -3.63 1.43c-1.06.17-2.06.66-3.14.83-.27 0-.55.14-.8-.09.07-.22.16-.43-.09-.61a.3.3 0 0 1 0-.46 1.18 1.18 0 0 1 1.11-.05 1.14 1.14 0 0 0 .87 0c.8-.34 1.72-.22 2.46-.73.49-.27 1.11 0 1.57-.36a2.35 2.35 0 0 1 .54-.29c.44-.11.8-.42 1.24-.53.23-.06.24-.3.36-.44a.49.49 0 0 1 .14-.11 2.3 2.3 0 0 0 1.39-1.18 1.13 1.13 0 0 1 .44-.55c.35-.23.53-.65.87-.9s.36-.38.66-.35a.74.74 0 0 0 .73-.12c.15-.13.32-.28.51-.05a2.43 2.43 0 0 1 -.88 1.08 19.93 19.93 0 0 0 -1.91 1.88 4.43 4.43 0 0 1 -1.84 1.33z" fill="#7d7d7d"/><path d="m.14 26.5c-.13-.21-.24-.43 0-.62a7 7 0 0 0 1.67-2c.35-.51.48-1.15 1-1.54.21-.14.3-.45.43-.7s.3-.61.68-.68a.32.32 0 0 1 .24.16 1 1 0 0 0 1.1.69.3.3 0 0 1 .31.22c-.13.54-.58.55-1 .47a.72.72 0 0 0 -.8.3 13.44 13.44 0 0 1 -.77 1.29c-.11.15 0 .31-.11.45a9.72 9.72 0 0 0 -1.34 1.67 1.22 1.22 0 0 1 -1.41.29z" fill="#656565"/><path d="m95.83 25.94-.43.15a5 5 0 0 1 -.75.15c-.44.07-.61-.17-.48-.62a2.6 2.6 0 0 1 1.56-.76 18 18 0 0 0 3-.68c.46-.13.93-.47 1.46-.27.17.09.22.45.55.23.14-.1.32 0 .37.2a.43.43 0 0 1 -.31.55c-.63.16-1.26.35-1.9.47a15.74 15.74 0 0 0 -1.93.54c-.4.1-.78-.18-1.14.04z" fill="#6d6d6d"/><path d="m54.27 20.16a2.69 2.69 0 0 0 -.39.36c-.27.42-.54.39-.82 0a.59.59 0 0 1 .06-.72 3.46 3.46 0 0 0 .41-.66c.84-.43 1-1.36 1.59-2 .31-.1.42-.4.62-.6s.31-.39.59-.31.27.36.31.58a6.89 6.89 0 0 1 -.84 1.67c-.07.14-.24.12-.34.22-.46.45-.67 1.09-1.19 1.46z" fill="#656565"/><path d="m94.3 25.72c0 .36.14.48.45.39a1.58 1.58 0 0 1 .65 0 7.59 7.59 0 0 1 -3.24.38.75.75 0 0 0 -.62.07 2.46 2.46 0 0 1 -2 0 8.65 8.65 0 0 1 -1-.35c-.31-.31-.2-.57.08-.82a21.69 21.69 0 0 0 3.32.31 4.7 4.7 0 0 0 1.75-.16c.31-.11.53-.19.61.18z" fill="#808080"/><path d="m2.78 27-.13.22a10.07 10.07 0 0 0 -1.43 1.1c-.35 0-.52-.13-.48-.49l.47-1a2 2 0 0 1 .79-1.06c.28.05.67-.24.8.25v.17c-.08.26.29.57-.02.81z" fill="#5e5e5e"/><path d="m152.38 18.4a1.24 1.24 0 0 1 1.3.73c.2.34.12.58-.31.58a4.71 4.71 0 0 0 -1 .13l-.13-.12a.21.21 0 0 1 -.05-.15c.46-.28.73-.58.14-1-.02-.04.01-.12.05-.17z" fill="#6d6d6d"/><path d="m.74 27.84a1.6 1.6 0 0 0 .48.49c-.55.16-.61.1-.48-.49z" fill="#989898"/><path d="m41.42 25.91c.36.11.49.58.92.58a.12.12 0 0 1 .11.17.27.27 0 0 1 -.17.14c-.25 0-.5.06-.76.09-.55 0-1.11 0-1.67.09a13 13 0 0 1 -3.34-.35c-.8-.11-1.62-.11-2.42-.2a1.9 1.9 0 0 0 -1.2.13c-.52.27-1.1.08-1.64.18a6.61 6.61 0 0 0 -1.54.36 9.27 9.27 0 0 1 -2.62.49 8.55 8.55 0 0 0 -1.66.2 3.54 3.54 0 0 1 -3-.31.42.42 0 0 1 .54.08.77.77 0 0 0 .79.06c.1 0 .23-.16.18-.18-.46-.2 0-.88-.55-1 .15-.29.39-.19.56-.06a2.77 2.77 0 0 0 2.5.16 9.32 9.32 0 0 1 1.55-.27c1.17-.15 2.29-.5 3.44-.75h.2a4.56 4.56 0 0 0 2.49-.63c1.87.33 3.77.44 5.64.78a5.18 5.18 0 0 0 1.18 0c.24-.01.42-.03.47.24z" fill="#696969"/><path d="m23.09 11.07c-1 .63-2 1.25-3 1.91a5.56 5.56 0 0 1 -1.08.5 18.49 18.49 0 0 0 -3.63 2.11c-.24.16-.51.22-.74.37a3 3 0 0 1 -1.88 1.2.76.76 0 0 0 -.6.47 1.09 1.09 0 0 0 -.08.15c-.81.26-1.38 1-2.21 1.19-.24.06-.31.35-.57.4-.85 0-1.07.71-1.35 1.33a.46.46 0 0 1 -.35.14c-.56-.11-.22-.63-.41-.92.34-.5 1-.57 1.36-1.06.89-.57 1.74-1.17 2.58-1.81.69-.51 1.52-.84 2.26-1.29a56.19 56.19 0 0 0 5-2.92 6.44 6.44 0 0 0 1.94-.84 24 24 0 0 0 3.08-1.55c-.07.21-.41.31-.32.62z" fill="#707070"/><path d="m46.57 1.41c.62-.14 1.23-.31 1.86-.4 1.28-.17 2.51-.6 3.81-.71 1.59-.14 3.18-.12 4.76-.21a5.81 5.81 0 0 1 2.08 0 2.08 2.08 0 0 0 0 1c-.26.39-.65.2-1 .2-.76 0-1.53 0-2.29 0a4.47 4.47 0 0 1 -1.71-.07 3 3 0 0 0 -1.4.07 8 8 0 0 0 -2.34.35 2.13 2.13 0 0 1 -1 .24c-.21 0-.31.13-.45.24a1.74 1.74 0 0 1 -.38.14c-.51.01-.92-.26-1.4.04-.08.05-.19 0-.25-.12z" fill="#6a6a6a"/><path d="m135.46 13.72a1.68 1.68 0 0 1 1.11.61 3.74 3.74 0 0 0 1.61.85 10.29 10.29 0 0 1 2.19 1.3.9.9 0 0 1 .31.43 2.37 2.37 0 0 0 2.32 1.61c1.22 0 2.37.52 3.58.62.28 0 .38.27.38.54a4 4 0 0 1 -2.72.18l-1.67-.4a.85.85 0 0 0 -.72.16 1.19 1.19 0 0 0 -.42.18c-.51.39-.74.29-.93-.34a2.9 2.9 0 0 0 -1.05-.42 11.3 11.3 0 0 0 -1.42-.21.65.65 0 0 1 -.64-.65c0-.36.28-.42.58-.46a3.47 3.47 0 0 0 .7-.14c.27-.26 0-.41-.14-.53a7 7 0 0 0 -2.37-1.3 2.07 2.07 0 0 1 -1.39-1.27.85.85 0 0 1 .69-.76z" fill="#424242"/><path d="m126.82 22.23-3.11.1a5.08 5.08 0 0 0 -2 0 2.88 2.88 0 0 1 -.88.06 6 6 0 0 1 -1.12.05c-.32 0-.63 0-.69-.39s.4-.24.58-.4a54.28 54.28 0 0 1 6.25-.08c1.16 0 2.33-.08 3.5-.17a7.71 7.71 0 0 1 1.18.07 23.66 23.66 0 0 1 3.15.05c0 .3.23.22.41.27s.75 0 .63.59a8.33 8.33 0 0 1 -2.59-.18c-.34-.1-.6.19-.87.13a9.7 9.7 0 0 0 -3.18 0c-.39-.03-.81-.48-1.26-.1z" fill="#656565"/><path d="m141.45 22.72a3.53 3.53 0 0 1 -1.55-.12c-.11-.13-.45 0-.41-.29a.42.42 0 0 1 .46-.37 5.4 5.4 0 0 1 1.39.06c.6.16 1.22 0 1.83.11h.45a2.44 2.44 0 0 0 1.68-.11.78.78 0 0 1 .95.09l.25.32c.15.37.3.77 0 1.11a1 1 0 0 1 -1.17.14c-.47-.15-1.05 0-1.38-.55-.08-.14-.37-.06-.57 0a2 2 0 0 1 -1.08-.11 5.09 5.09 0 0 0 -.85-.28z" fill="#434343"/><path d="m119.62 21.63c-.16.12-.43.15-.31.47s.27.25.47.25h1.07a2.87 2.87 0 0 1 -1.48.08 1.93 1.93 0 0 0 -1.21.14 1.39 1.39 0 0 1 -1 .11 3.6 3.6 0 0 0 -2.09.15c-.84.21-1.69.22-2.52.4-.2 0-.39.1-.57-.05s-.14-.45.17-.57c.15-.06 0-.16 0-.24a1.21 1.21 0 0 1 1.15-.28 12.07 12.07 0 0 0 1.7-.19 8.22 8.22 0 0 1 .88-.08 10.53 10.53 0 0 0 1.86-.07h.1z" fill="#707070"/><path d="m141.34 22a7.85 7.85 0 0 0 -1.19 0c-.3 0-.63.18-.25.57a8 8 0 0 1 -2.75-.28 2.1 2.1 0 0 0 -1.05.1 6 6 0 0 1 -1.12 0l-.24-.11c-.3-.15-.55-.37-1-.2a.51.51 0 0 1 -.6-.37c-.05-.38.33-.21.52-.29a28.75 28.75 0 0 0 4.15.29 29.18 29.18 0 0 1 3.53.29z" fill="#565656"/><path d="m148.4 21.88c-.06-.09-.25-.11-.19-.25s.2-.11.3-.07a2 2 0 0 0 1.37 0l1 .24c.12 0 .23.08.23.23a.25.25 0 0 1 -.24.23 2.61 2.61 0 0 0 -1 .33c-.13.06-.33.05-.37-.07-.22-.52-.73-.46-1.1-.64z" fill="#505050"/><path d="m141 19.24c0 .19-.24.37 0 .55s.35 0 .53-.09a2.45 2.45 0 0 1 .39-.08 6.6 6.6 0 0 1 -2.79 1.18c-.15.11-.25 0-.33-.09a.57.57 0 0 1 .08-.56 9.75 9.75 0 0 1 1.85-.94.25.25 0 0 1 .27.03z" fill="#616161"/><path d="m143.17 22.11a5.63 5.63 0 0 1 -1.83-.11 5.92 5.92 0 0 1 1.83.11z" fill="#565656"/><path d="m17.64 20-.11.11a30.9 30.9 0 0 0 -3.9 1.74c-2.15 1-4.27 2.05-6.4 3.09-.39.16-.62.05-.66-.39 0-.25.2-.34.38-.42a11.56 11.56 0 0 0 2.54-1.38 3.42 3.42 0 0 0 1.51-.75c.08-.06.17-.14.26-.13a3.33 3.33 0 0 0 1.84-.67l4.42-2.05c.54-.26 1.12-.39 1.65-.65a13.56 13.56 0 0 0 3.7-1.57c.2-.36.64-.42.9-.72 1.19-.47 2.27-1.16 3.46-1.61.4-.15.72-.44 1.1-.61.87-.16 1.61-.74 2.53-.74a2.09 2.09 0 0 0 .76-.3c1.45-.57 3-.92 4.43-1.43a15.42 15.42 0 0 0 2.84-1.13.58.58 0 0 1 .21-.1 7.75 7.75 0 0 0 2.25-.75l.18-.08c.66 0 1.25-.34 1.92-.33a1 1 0 0 1 .45.72c-.06.43-.45.53-.74.56a30.82 30.82 0 0 0 -3 .84 6.35 6.35 0 0 0 -1.47.43c-.31.15-.68.21-.91.51a.4.4 0 0 1 -.18.07 5.3 5.3 0 0 0 -2.6.92.35.35 0 0 1 -.27.1 2.54 2.54 0 0 0 -2 .57 1.61 1.61 0 0 1 -.61.23c-1.12.24-2.2.6-3.3.89-.31.08-.52.35-.82.47-.61-.13-.91.34-1.29.65a.48.48 0 0 1 -.16.08c-.38 0-.61.39-1 .46a20.51 20.51 0 0 0 -2.8 1.37 3.78 3.78 0 0 1 -1.18.42c-.35.08-.69.18-.81.55-.07.22.53.83.86.91 1.12.24 2.2.65 3.33.83.65.2 1.31.32 1.95.54.48.39.48.39.08 1a.48.48 0 0 1 -.27 0c-.44-.26-.88 0-1.33 0-.84-.14-1.63-.52-2.45-.74-.57-.15-1.15-.29-1.73-.4a2.28 2.28 0 0 1 -1.33-.66 2.61 2.61 0 0 0 -1.36-.76c-.36-.03-.58.25-.87.31z" fill="#777"/><path d="m6.74 24.51a.53.53 0 0 0 .49.46 22.67 22.67 0 0 1 -4.45 2c-.19-.26-.74-.47-.12-.84a10 10 0 0 0 2.45-1c.45-.27.93-.44 1.38-.7a.17.17 0 0 1 .25.08z" fill="#828282"/><path d="m105.94 3.89c2.29 0 4.58.07 6.87.18 1.52.06 3 .37 4.51.46l.89.17a.4.4 0 0 1 -.37.45c-.35 0-.42.29-.61.46a3.75 3.75 0 0 1 -1.63-.18 8.26 8.26 0 0 0 -2.48-.23 5.8 5.8 0 0 1 -3-.21 1.35 1.35 0 0 0 -.77-.07c-1.06 0-2.55.08-3.82 0a1.1 1.1 0 0 0 -.64.14 2.27 2.27 0 0 1 -1 .29s.15-.11.13 0 0 0 .06 0c1.25-.36 5.65 0 6 0 .7.33.24.42.06.71a6.82 6.82 0 0 1 -3.08.09c-.16 0-.31-.09-.46 0a6.25 6.25 0 0 1 -2.5.29 6.12 6.12 0 0 0 -2.8.67c-.27.09-.48.4-.82.19a.33.33 0 0 1 -.11-.15c-.06-.31.16-.42.37-.54s.68-.3 1-.5c-.41-.19-.92 0-1.16-.5a9.85 9.85 0 0 1 1.94-.85c1.21-.43 2.37-.47 3.42-.87z" fill="#686868"/><path d="m100.66 7.12v.13c-.1.56-.47 1-.53 1.6a4.11 4.11 0 0 1 -1 2 8.89 8.89 0 0 0 -.39.91 35.22 35.22 0 0 0 -1.74 3.24.44.44 0 0 1 -.3.25 1.25 1.25 0 0 1 -.46.12.5.5 0 0 0 -.53.51.91.91 0 0 1 -.23.46.28.28 0 0 1 -.31.12.27.27 0 0 1 -.19-.28 1.49 1.49 0 0 1 .15-.8 5.11 5.11 0 0 0 1.1-2.45 1.67 1.67 0 0 1 .39-.73c.22-.14.43-.29.66-.41s.56-.33.32-.73a.37.37 0 0 1 0-.34c.67-.89.68-2 1.18-3 .11-.2.19-.39.42-.47h.11c.25.53.48.32.73 0s.34-.45.62-.13z" fill="#5b5b5b"/><path d="m100.66 7.12c-.49.31-.76.84-1.24 1.27 0-.43-.51-.7-.21-1.17a1.44 1.44 0 0 1 .86-1l.71-.59c.58-.08 1.12.21 1.7.16a.23.23 0 0 1 .18.12c0 .15-.1.2-.19.26-.56.43-1.23.61-1.81.95z" fill="#474747"/><path d="m100.06 6.26a5.25 5.25 0 0 0 -.86 1 1 1 0 0 1 .86-1z" fill="#5b5b5b"/><path d="m117.22 5.44c-.07-.2-.41-.31-.28-.53s.45-.2.7-.12a.87.87 0 0 0 .57-.09 6.37 6.37 0 0 1 1.89.24 8.78 8.78 0 0 0 2.55.31 8.59 8.59 0 0 1 2.88.72 5.25 5.25 0 0 0 1 .32.42.42 0 0 0 0 .1c.23.23.55.18.83.19a.43.43 0 0 1 .46.37c.07.28-.13.37-.34.48a1.36 1.36 0 0 1 -.93 0 13.28 13.28 0 0 1 -2.91-.64 4.44 4.44 0 0 0 -2.22-.39.55.55 0 0 1 -.18 0 17.35 17.35 0 0 0 -3.58-.57c-.17-.01-.5.02-.44-.39z" fill="#595959"/><path d="m132.34 13-.41-.39a4.07 4.07 0 0 1 1.49.4 5.93 5.93 0 0 0 1.81.73.28.28 0 0 1 -.41.23.81.81 0 0 0 -.57.13 4.65 4.65 0 0 1 -1.91-1.1z" fill="#bebebe"/><path d="m134.28 14c0-.28.19-.3.4-.25s.36.16.55 0h.23a.93.93 0 0 0 -.36.83c-.46.03-.64-.3-.82-.58z" fill="#7a7a7a"/><path d="m112.17 22.47h.64a.17.17 0 0 1 .17.25c0 .11-.14.26-.24.17-.46-.4-.59.06-.81.28a1.59 1.59 0 0 0 -1.31.34c-.6.13-1.21.16-1.81.25a1.46 1.46 0 0 1 -1.24.13c-.11 0-.21-.1-.33 0-.91.25-1.86.07-2.76.37a7 7 0 0 1 -2.42.29c-.39 0-.75.27-1.17.19h-.1c0-.15.14-.34-.15-.31-.1 0-.19.07-.28.08s-.44.16-.52-.1.22-.22.34-.33v-.09a7.75 7.75 0 0 0 .94-.39 14.48 14.48 0 0 1 1.46-.16 10.73 10.73 0 0 0 1.88-.34 6.72 6.72 0 0 1 2.85-.3 4.69 4.69 0 0 0 1.35-.11c.91-.21 1.85-.17 2.75-.39a.66.66 0 0 1 .76.17z" fill="#5c5c5c"/><path d="m126.67 7.14h.58c.17 0 .33 0 .35-.19s-.12-.27-.3-.27h-.52c-.25 0-.25-.14-.19-.31a27.91 27.91 0 0 1 5.21 1.42c.25.1.52.17.78.26a.14.14 0 0 1 0 .1s0 .06 0 .06-.34 0-.49.12a2 2 0 0 0 -1.18.49.68.68 0 0 1 -.39.11 1 1 0 0 0 -1.12.41s-.11 0-.17 0c-.39-.29-.81 0-1.21-.08a4 4 0 0 1 -1.8-.5c0-.39.28-.38.53-.4a9.67 9.67 0 0 1 1.42.18c.29 0 .58.06.63-.34a1.92 1.92 0 0 0 -1.06-.44 3.51 3.51 0 0 1 -.9-.29c-.14-.03-.24-.14-.17-.33z" fill="#666"/><path d="m132.58 8.2v-.13l3.8 1.46a.61.61 0 0 1 0 .11c-.07.21-.23.24-.42.22a3.74 3.74 0 0 1 -1.67-.47 2.6 2.6 0 0 0 -1-.53 1 1 0 0 1 -.71-.66z" fill="#6f6f6f"/><path d="m59 1.1c-.69 0-.33-.54-.38-.81s.32-.1.49-.18c.6.26 1.26.06 1.88.2a3.8 3.8 0 0 1 2.8 1.81c.35.66.27 1.09-.38 1.46a3 3 0 0 0 -.83.75c-.25.22.06.62-.26.83-.74.21-1 .85-1.24 1.47a4.93 4.93 0 0 1 -1.08 1.77 1.89 1.89 0 0 0 -.46.8c0 .24-.11.51-.34.57s-.42-.23-.59-.41a1 1 0 0 1 -.15-.25.66.66 0 0 1 .12-.51c.55-.78.69-1.76 1.19-2.56.09-.37.42-.56.6-.86.6-.42 1-1 1.59-1.48a.26.26 0 0 0 .04-.31c-.17-.38-.31-.86-.66-1.07a2.71 2.71 0 0 0 -1.72-.6l-.16-.08c-.24-.08-.34-.33-.46-.54z" fill="#535353"/><path d="m62.29 5.16a.79.79 0 0 1 .26-.83c0 .23.05.46.08.69z" fill="#7c7c7c"/><path d="m152.27 19.59a1.55 1.55 0 0 0 -1.2-.26 2 2 0 0 0 -1.53-1.13 7.85 7.85 0 0 1 -2.74-1.41 22.71 22.71 0 0 0 -2.31-1.38 4.72 4.72 0 0 1 -.87-.71c-.45-.44-1.08-.51-1.57-.85-.13-.18 0-.35 0-.51.13-.66.29-.72.85-.33s.93.39 1.35.71a7.36 7.36 0 0 0 .77.7c.57.37 1.29.39 1.81.85.87.7 1.94 1.07 2.76 1.85a2.1 2.1 0 0 0 1.33.62 2 2 0 0 1 1.42.66c.23.17.61.12.71.48 0 .18.44.18.29.43a.73.73 0 0 1 -.58.27z" fill="#444"/><path d="m146.87 15.27a7.21 7.21 0 0 1 -1.82-.75c-.78-.51-1.58-1-2.37-1.48-.2-.12-.3 0-.34.16a1.21 1.21 0 0 1 -.29.65l-.84-.25c.1-.2.38-.37.23-.62a.67.67 0 0 0 -.74-.25c.08.35.83.3.52.87-.75-.15-1.39-.61-2.15-.74h-.07a2 2 0 0 1 -1.24-.67c-.19-.14-.47-.22-.38-.55.31-.37.61-.26.93 0s.41.48.84.46c-.21-.49-.68-.6-1-.87a.78.78 0 0 1 -.16-1.12 3.2 3.2 0 0 0 1.68.91 19 19 0 0 1 2.26 1.32c.4.19.79.39 1.2.54.26.14.51.3.77.43a2 2 0 0 1 .94.77 1.35 1.35 0 0 0 1 .57 1.69 1.69 0 0 1 1.03.62z" fill="#565656"/><path d="m6.38 21.5c-.18.34-.55.4-.83.59h-.12c-1.1.15-1.25 0-1.45-1l.11-.24a19.33 19.33 0 0 1 1.61-1.36.25.25 0 0 1 .22-.06c.12 0 .09.15.06.25s-.05.19-.08.28a.6.6 0 0 0 .23.7c.26.2.35-.14.51-.26l.36-.24c.13-.1.3-.11.33.06s.07.55-.16.66-.51.44-.79.62z" fill="#4b4b4b"/><path d="m141.45 22.72c.25-.15-.08-.24 0-.4.52-.09.55.5.9.63a1.42 1.42 0 0 1 -.9-.23z" fill="#565656"/><path d="m55.16 17.28a12 12 0 0 1 .66-1.91c.39-.62.72-1.28 1.07-1.92.1-.36.3-.43.63-.26s.24.37.1.6a10.25 10.25 0 0 0 -.6 1.35 7 7 0 0 1 -.47 1.67c-.5-.61-.69 0-.91.28s-.21.38-.48.19z" fill="#575757"/><path d="m95.12 15.35a6.43 6.43 0 0 1 .13.87c.16-.76.5-1.26 1.32-1.19a1.9 1.9 0 0 1 -1 1.55 15.54 15.54 0 0 0 -3.83 3.67 12.7 12.7 0 0 1 -1.51 1.6c-.16.17-.31.36-.47.53-.31.36-.46.32-.64-.13-.08-.21-.25-.43 0-.63a1.73 1.73 0 0 1 1-1.44 4.73 4.73 0 0 0 1.38-1.54 4.77 4.77 0 0 1 1.68-1.64 2.59 2.59 0 0 0 1.47-1.1.79.79 0 0 1 .17.14 1.15 1.15 0 0 0 -.17-.14 1 1 0 0 1 .47-.55z" fill="#656565"/><path d="m88.77 23.42a2.53 2.53 0 0 0 -.11 2c0 .23.32.21.42.41l-.54.2-.12.11a2.63 2.63 0 0 1 -1-.6 1.34 1.34 0 0 1 -.11-1.75l.68-1 .93-.28c.38.05.32.27.18.49s-.24.3-.33.42z" fill="#5e5e5e"/><path d="m88.77 23.42c.08-.27.36-.5.13-.83.24-.28-.19-.72.22-1a1 1 0 0 0 0 .35c0 .15.07.33.24.37s.22-.14.29-.25a1.52 1.52 0 0 1 .47-.44c.17.13.12.27 0 .4a2.28 2.28 0 0 0 -.36.6c-.22.15-.29.5-.63.53z" fill="#9e9e9e"/><path d="m6.38 21.5c.23-.23.27-.58.59-.76a.33.33 0 0 0 0-.58l.24-.24c.48.07.17.5.32.72 0 0 .11 0 .08.08a.18.18 0 0 1 -.17.12z" fill="#5c5c5c"/><path d="m138 10.12c0 .83.71 1.16 1.3 1.48.43.24.41.49.32.86s-.2.26-.39.18a2.55 2.55 0 0 1 -.94-.61.91.91 0 0 0 -.79-.34c-.09.05-.23.07-.27 0-.47-.82-1.3-.58-2-.7a8.36 8.36 0 0 0 -1.69-1.2.71.71 0 0 1 0-.29c.15-.29.46-.3.71-.41a.22.22 0 0 1 .17.07 10.16 10.16 0 0 0 2 .48z" fill="#434343"/><path d="m57 15.14c-.08-.2.31-.57-.22-.63-.09 0 0-.18.08-.23a1.54 1.54 0 0 1 .31-.17c.22-.11.41-.3.3-.51a.39.39 0 0 0 -.6-.15c0-.78.53-1.41.64-2.17a.48.48 0 0 1 -.06-.45c.23-.5.43-1 .69-1.51.11-.21.25-.37.52-.23a1.37 1.37 0 0 1 .22.19c.37.39.6.19.56-.21s.21-.58.55-.67a42.32 42.32 0 0 0 -1.78 4.6c-.49.63-.67 1.48-1.21 2.14z" fill="#636363"/><path d="m2.91 24.85c.12-.05.25-.16.37 0s0 .22 0 .32c-.19.34-.39.68-.59 1-.16-.27-.47-.17-.69-.27a6.36 6.36 0 0 1 .91-1.05z" fill="#7f7f7f"/><path d="m21.13 15.58-.66.05c-.91 0-1.12.22-1.32 1.12-.07.34-.13.67-.56.74a.46.46 0 0 1 -.44-.09.33.33 0 0 1 0-.44 4.31 4.31 0 0 1 .26-.47c.21-.28.28-.5-.17-.57-.16 0-.27-.09-.27-.26s.12-.24.26-.29.2-.1.28-.09c.88.1 1.38-.46 1.89-1a.3.3 0 0 1 .46.16 1.2 1.2 0 0 1 .19.45c.18.2.45.41.08.69z" fill="#666"/><path d="m20.65 14.64a.46.46 0 0 0 -.26-.38 13.42 13.42 0 0 1 4.32-2.81c.43-.22.85-.45 1.28-.64s.65-.29.9.11l-.95.47a7.8 7.8 0 0 0 -2.07 1.06c-.42.26-.88.48-1.3.74-.37.23-.55.7-1.06.77-.17 0-.19.29-.26.45s-.25.44-.6.23z" fill="#8a8a8a"/><path d="m20.66 15.13 1.94-.35c.14 0 .36-.08.41.11s-.17.24-.31.28l-1.33.31-.24.1c.09-.41-.31-.3-.47-.45z" fill="#939393"/><path d="m22.81 16.8a1.57 1.57 0 0 1 1.08-.36c-.26.39-.74.28-1.07.48z" fill="#ccc"/><path d="m9.26 19.2a9.09 9.09 0 0 1 -1.19 1 .44.44 0 0 1 -.26.34c.07-.68.66-1 1.07-1.39.12-.15.26-.02.38.05z" fill="#959595"/><path d="m41.18 5.41h.06c.18 0 .43-.23.51 0s-.22.24-.39.29c-.49.16-1 .28-1.47.47a19.37 19.37 0 0 0 -4.36 2.31.55.55 0 0 1 -.12-.37 21.18 21.18 0 0 1 4.45-2.39 5.47 5.47 0 0 0 1.32-.31z" fill="#bdbdbd"/><path d="m135.1 17.68a15.72 15.72 0 0 1 4 .34.93.93 0 0 1 -.8 0c-.21-.1-.5-.23-.59.1s.21.44.51.49a7.18 7.18 0 0 1 1.45.23 6.41 6.41 0 0 1 -2.64-.36c-.61-.14-1.26.06-1.85-.25-.38-.16-.42-.31-.08-.55z" fill="#545454"/><path d="m132.82 21.8a.9.9 0 0 1 -.14.22c-.14.11-.37.09-.43 0-.21-.35-.39-.22-.61-.05s-.22.25-.32 0a.22.22 0 0 1 .2-.3c.33-.06.67-.11 1-.14.15-.01.28.05.3.27z" fill="#565656"/><path d="m125.84 18.79a.56.56 0 0 1 -.42.57 9.87 9.87 0 0 1 -1.75.71l-1.69.68c-.19.07-.44.12-.52-.09s.2-.24.32-.35a3.61 3.61 0 0 1 1.15-.42 2.5 2.5 0 0 0 1.26-.77 4.33 4.33 0 0 1 .94-.58c.32-.12.55-.08.71.25z" fill="#777"/><path d="m26.78 21.47 4.42.9c.5.1 1 .13 1.52.27s.91 0 1 .61c0 .18.31.13.48.17s.36 0 .3.27-.17.15-.29.11a22.8 22.8 0 0 0 -2.32-.5c-1.08-.09-2.1-.47-3.17-.63a6.23 6.23 0 0 1 -1.84-.47c-.16-.2.24-.53-.1-.73z" fill="#838383"/><path d="m47.9 8.52a5.08 5.08 0 0 0 -1.08.63 1.26 1.26 0 0 1 -1 .25 3.38 3.38 0 0 0 -2.09.45l-.37-.62a2.9 2.9 0 0 1 1.36-.56 12.09 12.09 0 0 0 2.8-1.36c.73.14.86.54.38 1.21z" fill="#595959"/><path d="m26.66 22.2a2.34 2.34 0 0 1 -1.22-.2c.42 0 .88-.26 1.22.2z" fill="#838383"/><path d="m113.12 6.41a21.32 21.32 0 0 1 -2.53-.1.41.41 0 0 1 -.33-.23c-.21-.22-.58-.12-.79-.42a1.27 1.27 0 0 1 .7-.23 5.15 5.15 0 0 0 1.75.13 12.41 12.41 0 0 1 1.82.23c.16.13.43.2.34.48s-.36.17-.56.18a1.09 1.09 0 0 1 -.4-.04z" fill="#5c5c5c"/><path d="m36.86 17.05a9.92 9.92 0 0 1 3.39 1.33 3.08 3.08 0 0 0 .83.31c.45.15 1 .17 1.23.69s.66.29 1 .28c.18.41-.11.61-.35.84-.32-.05-.62-.13-.72-.49l-.13-.08c-.21.22-.44.14-.67.05-.63-.25-1.22-.59-1.85-.82-.4-.15-.85-.12-1.17-.55-.18-.23-.71 0-1-.32a6.51 6.51 0 0 0 -.55-.72c-.1-.18-.17-.33-.01-.52z" fill="#787878"/><path d="m43 20.36c-.32-.46.05-.56.36-.7a1.75 1.75 0 0 1 1.64.59 5.08 5.08 0 0 1 .41.51l-.13.37c-.39.6-.41.63-1 .32a2.67 2.67 0 0 1 -1.28-1.09z" fill="#6b6b6b"/><path d="m36.5 23.65c.72-.1 1.34.33 2 .4.18.15.61.28.37.54s-.68.61-1 .41c-.53-.29-1.16-.32-1.61-.74-.11-.14-.37-.2-.26-.45s.32-.12.5-.16z" fill="#727272"/><path d="m36.5 23.65c-.28.13-.47.28-.25.61-1.49-.07-2.87-.66-4.33-.85a.37.37 0 0 0 0-.11 2.72 2.72 0 0 1 1.91.3c.3.18.44.08.4-.18.28-.13.54-.26.79.06.14.17.35.14.56.1a1.36 1.36 0 0 1 .92.07z" fill="#969696"/><path d="m114.82 11.08v.13a.6.6 0 0 1 -.64.34 1 1 0 0 0 -.57.13 4.16 4.16 0 0 1 -1.18-.42 2.59 2.59 0 0 0 -2.77-.08.43.43 0 0 1 -.23.05s-.06 0-.09-.05a2.33 2.33 0 0 1 2.56-.69 12.11 12.11 0 0 0 2.92.59z" fill="#cecece"/><path d="m113.61 11.68c0-.16-.33-.24-.21-.44s.36-.12.54 0 .58 0 .88 0c.32.35.79.33 1.2.47.14.27 0 .43-.25.49l-1.68-.36a.94.94 0 0 1 -.48-.16z" fill="#919191"/><path d="m126.32 8.69a3.51 3.51 0 0 1 -2.15-.48c-.07-.15-.09-.33-.29-.41a.26.26 0 0 1 -.12-.4c.1-.15.25-.14.4 0 1.6.37 3.2.71 4.82 1 .08.45-.42.75-1 .58a4.65 4.65 0 0 0 -1.66-.29z" fill="#585858"/><path d="m133.3 9.76a11.79 11.79 0 0 1 -2.14-.15c-.54-.21-1.19.07-1.69-.37h-.09c.21-.86.23-.85 1-.59a3.07 3.07 0 0 0 .53.06.84.84 0 0 1 .82.12 2.32 2.32 0 0 0 1.34.52 1.58 1.58 0 0 1 .56.13v.07.23a.29.29 0 0 1 -.33-.02z" fill="#585858"/><path d="m133.06 9.51c-.9.18-1.49-.43-2.16-.83.19-.6.74-.48 1.18-.59.27.25.68.3.92.62.47.44.47.47.06.8z" fill="#414141"/><path d="m132.7 8.92c-.09-.19-.14-.4-.42-.41s-.25-.22-.2-.42l.5.11c.53.44 1.3.45 1.8 1h-.12c-.22.19-.46 0-.69.06a4.48 4.48 0 0 0 -.87-.34z" fill="#585858"/><path d="m60 6.12a5.35 5.35 0 0 0 -2.65.35 5.63 5.63 0 0 1 -2.88.17.68.68 0 0 1 0-.62.65.65 0 0 1 .6-.19.65.65 0 0 0 .55-.18h.2a14.23 14.23 0 0 1 2.69-.22c.34 0 .59-.3 1-.27a2.48 2.48 0 0 1 1 .15 1.66 1.66 0 0 1 -.51.81z" fill="#656565"/><path d="m141.22 13.6a1.35 1.35 0 0 0 -.73-.48.68.68 0 0 1 -.47-.34c-.06-.12-.18-.24-.1-.38s.22-.06.33-.06a2.41 2.41 0 0 1 1.48.36c.18.14.43.25.35.55s-.33.3-.57.32h-.3z" fill="#444"/><path d="m54.12 14a1 1 0 0 0 .62.06c.27.2.61.1.91.22-.35.46-1.45.56-2.7.27l-.49-.23c0-.31.22-.4.5-.35a1.28 1.28 0 0 0 .7 0z" fill="#868686"/><path d="m94.65 15.87c.16.05.3.13.22.33s-.1.31-.25.27-.07-.21 0-.33a2.16 2.16 0 0 0 .05-.27z" fill="#5b5b5b"/><path d="m133.3 9.76h.37a5.52 5.52 0 0 1 1.67 1c-.53 0-1.06 0-1.38-.61-.11-.22-.44-.27-.66-.39z" fill="#6a6a6a"/><path d="m133.54 9 .72.12c-.12.25-.39.26-.6.36-.19-.09-.31-.23-.12-.48z" fill="#414141"/><path d="m33 11.4c-.24.31-.39.7-.78.89-.18.09-.37.21-.52 0s0-.34.2-.43a1.84 1.84 0 0 0 .65-.68 13.69 13.69 0 0 1 1.87-2.08 1.57 1.57 0 0 0 .58-.69l.46-.26a.25.25 0 0 1 .12.37 13.78 13.78 0 0 0 -2.58 2.88z" fill="#909090"/><path d="m11.37 19.46a1.79 1.79 0 0 0 -.29 1.74c-.32.05-.32-.25-.5-.31a6.4 6.4 0 0 1 -.37-.8.77.77 0 0 1 .47-1c.32-.16.54.11.69.37z" fill="#616161"/><path d="m54.62 6v.6c-.34.52-.92.28-1.38.42a4.71 4.71 0 0 1 -1.2.1c-.47 0-.79.38-1.24.48l-1.35.31a4.56 4.56 0 0 1 -1.54.61.78.78 0 0 0 -.48-1.08l.49-.59a5 5 0 0 0 .83-.56 10.6 10.6 0 0 1 3.83-2 .4.4 0 0 1 .47 0c.16.14 0 .26-.09.39a32.89 32.89 0 0 0 -3.38 1.64c-.06 0-.14.09-.19.14s-.33.33-.22.51.51.28.63.16c.4-.39.91-.26 1.34-.44a5.86 5.86 0 0 1 2.55-.66c.31-.03.62-.31.93-.03z" fill="#7a7a7a"/><path d="m52.81 4.67c.14-.27 0-.36-.24-.36a21.26 21.26 0 0 1 3.79-1 3.26 3.26 0 0 1 .54 0c.21 0 .41.09.38.35s-.23.28-.42.24a7.5 7.5 0 0 0 -3 .4 1.1 1.1 0 0 1 -1.05.37z" fill="#989898"/><path d="m45.57 4.24c-.68.55-1.42.54-2 .88a.22.22 0 0 1 -.33-.12.2.2 0 0 1 .12-.29c.73.06 1.32-.55 2.21-.47z" fill="#cdcdcd"/><path d="m125.3 15.14a24 24 0 0 0 3 2l.26.42c.14.16.39.26.27.53s-.35.28-.6.29-.34-.11-.52-.05a2 2 0 0 1 -.81 0c-.29.11-.61 0-.92.1s-.53-.11-.58-.4.19-.37.45-.38.44.06.39-.29c-.52-.38-1.23-.42-1.69-.92a4.09 4.09 0 0 0 -.44-.39c-.24-.26-.56-.42-.82-.66s-.57-.24-.35-.62a.59.59 0 0 1 .79-.29l.38.12c.32.26.82.26 1.19.54z" fill="#3a3a3a"/><path d="m126.19 17.32c.14.33-.12.31-.3.36s-.32 0-.25.23.08.37.34.33a3.18 3.18 0 0 1 .87.05l-.63.11a4.79 4.79 0 0 1 -2.52.11 2.2 2.2 0 0 0 -1.32 0c-.36.13-.67-.07-1-.15-.15 0-.39-.15-.36-.4s.26-.2.4-.28c1.36 0 2.72-.07 4.08-.13.24 0 .5.06.69-.23z" fill="#535353"/><path d="m135.1 17.68c-.09.76.56.58.93.69s.67 0 1 .14a18.25 18.25 0 0 1 -2-.12 9.18 9.18 0 0 0 -2.62-.16 4.79 4.79 0 0 1 -1.31 0 12.29 12.29 0 0 0 -2.27.07c-.14-.37.15-.36.37-.43s.64 0 .83-.3a3.41 3.41 0 0 1 1.42-.1 17.57 17.57 0 0 1 3.65.21z" fill="#747474"/><path d="m130.06 17.56h.24c.18 0 .48-.05.47.23s-.32.23-.53.21a3.28 3.28 0 0 0 -1.38.28 1.44 1.44 0 0 1 -1.2 0 1.37 1.37 0 0 1 .28-.05c.64 0 .69-.07.57-.72z" fill="#565656"/><path d="m100.67 19.25a32.46 32.46 0 0 1 3.24-.37c1.46 0 2.89-.27 4.34-.41a15.11 15.11 0 0 1 2.85-.18c.16.27.43.12.66.17h.16c.16.32.55.38.77.64a20.56 20.56 0 0 1 -2.69 1.67 2.53 2.53 0 0 0 -.82.37c-.29.09-.51.37-.86.27s-.56 0-.62-.36a.28.28 0 0 1 .15-.3 13 13 0 0 1 2.3-1.16 1.3 1.3 0 0 0 .58-.35c-1.1.19-2.15 0-3.19.17-.44.06-.9-.09-1.33.13a1.05 1.05 0 0 0 -.58.1.68.68 0 0 1 -.7 0 2 2 0 0 0 -1 0c-1 0-1.92.09-2.88.15a3.18 3.18 0 0 0 -.33-.09c-.13 0-.29 0-.33-.15s.15-.22.28-.3z" fill="#747474"/><path d="m121.42 17.69c-.34.24-.25.46.06.6a5.66 5.66 0 0 0 .9.23 1.3 1.3 0 0 1 -.93 0 3.63 3.63 0 0 0 -.93-.09c-2.45-.07-4.89.32-7.35.26l-.06-.06c0-.27.17-.33.37-.35a2 2 0 0 1 1 .07c-.14-.25-.23-.52.14-.72a1.55 1.55 0 0 0 1.1.3c.91-.05 1.81-.11 2.72-.2.64.2 1.26-.17 1.91 0a7 7 0 0 0 1.07-.04z" fill="#707070"/><path d="m112.69 19.13c-.43.08-.82.08-.87-.49.67-.44 1-.44 1.26 0h.09z" fill="#515151"/><path d="m53.66 13.9c.09.15.28.29.14.48s-.33.08-.48 0a1.08 1.08 0 0 0 -.86-.1c-1.61-.61-3.12-1.43-4.69-2.12-.13-.2-.42-.38-.21-.66a.55.55 0 0 1 .71-.22 6.71 6.71 0 0 1 3.11 1.54.58.58 0 0 0 .42.2c.82-.12 1.31.44 1.86.88z" fill="#656565"/><path d="m48.27 11.28c-.52.09-.59.44-.5.88a5.72 5.72 0 0 0 -2.13-.41c-.24 0-1.06-.78-1-1a1.61 1.61 0 0 1 1.12-.89.62.62 0 0 1 .56.47c.13.66.65.67 1.13.75a2.14 2.14 0 0 1 .82.2z" fill="#6b6b6b"/><path d="m37.34 18c-1.3-.19-2.57-.48-3.84-.76a3.25 3.25 0 0 1 -1.77-2c-.2-.49.12-.58.41-.75s.62-.28.87.11.29.88.73 1.13c.49.84 1.39.89 2.2 1.09.21.05.44 0 .58.22a1.66 1.66 0 0 0 .66.75c.09.05.24.07.16.21z" fill="#7a7a7a"/><path d="m113.08 18.63c-.42-.19-.84.3-1.26 0h-.1a.23.23 0 0 1 0-.33h.06c1-.26 1-.34.41-1.18-.21-.19-.72-.16-.57-.61s.52-.16.79-.19a1.45 1.45 0 0 1 .77.05 1 1 0 0 1 .78.64 1.19 1.19 0 0 0 .63.6c0 .36 0 .71.55.5a.21.21 0 0 1 .3.11c0 .15-.11.2-.22.23a3.07 3.07 0 0 1 -1 .07 2.66 2.66 0 0 0 -1.14.11z" fill="#404040"/><path d="m101 19.71 5.27-.23q.11.06 0 .12c-.47-.06-.59.43-.89.57s-.46-.5-.94-.46c-1.94.16-3.89.14-5.84.14a5.54 5.54 0 0 0 -1.69.35 15.32 15.32 0 0 0 -3 .59c0 .05-.08.05-.12 0a8.57 8.57 0 0 0 -2 .58c-.13 0-.29.17-.35 0s.15-.2.28-.24c.29-.1.65-.06.81-.42s.24-.32.44-.4a15.75 15.75 0 0 1 2.56-.44 1.09 1.09 0 0 0 .59-.16 1.11 1.11 0 0 1 1.32-.08c.8.15 1.5-.39 2.28-.36.33.38.85.33 1.28.44z" fill="#cacaca"/><path d="m109.42 15.88a4.59 4.59 0 0 1 -1.8-.8 4 4 0 0 0 -1.44-.87c-.17-.13-.33-.27-.19-.5s.36-.14.53 0 .43.05.63.15c.85.34 1.36 1.21 2.29 1.43.04.17.22.39-.02.59z" fill="#7c7c7c"/><path d="m109.42 15.88a.43.43 0 0 1 0-.62l.58.1a9.59 9.59 0 0 0 3.14 1c-.24 0-.47 0-.7 0s-.57-.1-.67.21.27.34.38.53a6.51 6.51 0 0 1 -2.73-1.22z" fill="#646464"/><path d="m107.15 13.83a2.78 2.78 0 0 1 -.58-.06c-.46-.14-.53.05-.39.44a18.41 18.41 0 0 0 -3.18-1.62 11.85 11.85 0 0 1 4.15 1.24z" fill="#9e9e9e"/><path d="m101 19.71a4 4 0 0 1 -1.78-.19c.1-.22.33-.16.45-.28h1c-.3.49.27.29.33.47z" fill="#a3a3a3"/><path d="m111.7 18.29v.33h-.48c-.4 0-.24-.19-.14-.36z" fill="#515151"/><path d="m124.16 7.36c-.13 0-.34.14-.11.22.48.17.32.38.12.63a6.48 6.48 0 0 0 -2.29-.49 4.61 4.61 0 0 1 -1.37-.35 6.3 6.3 0 0 0 -2.32-.58c-1.62 0-3.24-.12-4.85-.31a.94.94 0 0 1 -.22-.07 1.35 1.35 0 0 1 .28 0c.57.07.55-.2.34-.58a10.35 10.35 0 0 1 2.07.24c1.26.15 2.54.06 3.8.3a25 25 0 0 1 2.73.58 8.08 8.08 0 0 1 1.82.41z" fill="#696969"/><path d="m37.34 18c-.44-.12-.72-.57-1.2-.6a.13.13 0 0 1 -.1-.18c.08-.24.27-.25.48-.21h.34a1.3 1.3 0 0 0 .62.69c.15.07.32.23.07.41z" fill="#5b5b5b"/><path d="m123.68 14.44c-.62.27-.68.57-.18 1 .21-.13 0-.39.2-.55.3.33.07.84.36 1.16a21.37 21.37 0 0 0 -3.64-1.75 17.39 17.39 0 0 0 -2.12-.92 2.29 2.29 0 0 0 -1.12-.59c-.18 0-.48 0-.44-.36s.33-.21.51-.28a.27.27 0 0 1 .23 0c.14 0 .24.24.42.16.51-.22.93 0 1.37.23z" fill="#4a4a4a"/><path d="m117.48 12.15c-.18.11-.41.13-.56.37.46.3 1.1.28 1.38.82-.78-.53-1.79-.56-2.53-1.17l.25-.49c.58-.12.98.24 1.46.47z" fill="#5e5e5e"/><path d="m125.3 15.14c-.44-.14-1-.05-1.24-.58a2.63 2.63 0 0 1 1.24.58z" fill="#4a4a4a"/><path d="m106.07 21.52 1.79-.59a.52.52 0 0 0 .5.36 29.93 29.93 0 0 0 -3.87 1.53 1.32 1.32 0 0 0 -.94.26c-.46.11-.48.1-.48-.22.59-.53 1.45-.47 2.08-.92a5.5 5.5 0 0 1 .92-.42z" fill="#7f7f7f"/><path d="m103.07 22.86a.51.51 0 0 0 .48.22 5.12 5.12 0 0 1 -1.44.39c-.23.05-.36 0-.26-.28a2.4 2.4 0 0 1 1.22-.33z" fill="#8e8e8e"/><path d="m133.54 9 .12.48a.88.88 0 0 1 -.6 0c.25-.42-.23-.4-.36-.59a2.17 2.17 0 0 1 .84.11z" fill="#434343"/><g fill="#1d1d1b" font-family="BaskervilleMTPro-Regular, Baskerville MT Pro" font-size="10"><text transform="translate(3.34 44.68)"><tspan letter-spacing="-.07em">T</tspan><tspan x="6.24" y="0">rue position.</tspan></text><text transform="translate(74.46 44.68)"><tspan letter-spacing="-.05em">P</tspan><tspan x="5.17" y="0">osition in photo</tspan><tspan letter-spacing=".02em" x="67.98" y="0">g</tspan><tspan x="72.85" y="0">raph.</tspan></text></g></svg>