<svg xmlns="http://www.w3.org/2000/svg" viewBox="0 0 481.275 153.325"><defs><style>.cls-1{fill:#515151;}.cls-2{fill:#565656;}.cls-3{fill:#727272;}.cls-4{fill:#5b5b5b;}.cls-5{fill:#545454;}.cls-6{fill:#646464;}.cls-7{fill:#585858;}.cls-8{fill:#6d6d6d;}.cls-9{fill:#5e5e5e;}.cls-10{fill:#707070;}.cls-11{fill:#5c5c5c;}.cls-12{fill:#5f5f5f;}.cls-13{fill:#606060;}.cls-14{fill:#656565;}.cls-15{fill:#7b7b7b;}.cls-16{fill:#4b4b4b;}.cls-17{fill:#7a7a7a;}.cls-18{fill:#6f6f6f;}.cls-19{fill:#686868;}.cls-20{fill:#797979;}.cls-21{fill:#787878;}.cls-22{fill:#747474;}.cls-23{fill:#818181;}.cls-24{fill:#676767;}.cls-25{fill:#535353;}.cls-26{fill:#7f7f7f;}.cls-27{fill:#5a5a5a;}.cls-28{fill:#898989;}.cls-29{fill:gray;}.cls-30{fill:#616161;}.cls-31{fill:#404040;}.cls-32{fill:#4a4a4a;}.cls-33{fill:#494949;}.cls-34{fill:#505050;}.cls-35{fill:#555;}.cls-36{fill:#595959;}.cls-37{fill:#4e4e4e;}.cls-38{fill:#484848;}.cls-39{fill:#474747;}.cls-40{fill:#6e6e6e;}.cls-41{font-size:10px;fill:#181716;font-family:BaskervilleMTPro-Regular, Baskerville MT Pro;}</style></defs><g id="Layer_2" data-name="Layer 2"><g id="_12239_draft" data-name="12239_draft"><path class="cls-1" d="M182,12.62c-.05.37-.32.33-.58.33a21.11,21.11,0,0,0-3.37.13,10.6,10.6,0,0,1-1.26.17.49.49,0,0,1-.48-.35c-.11-.28.13-.32.26-.45a1.18,1.18,0,0,1,.84-.23c.6,0,1.09,0,1.79,0C179.56,12.23,181.83,12,182,12.62Z"/><path class="cls-2" d="M145.37,15.82c.37,1.45.26,4.27-.11,4.21-.47.18-.47-.1-.49-.5,0-.64.07-1,0-1.83.07-.56.13-.88-.16-.94s-.2-.55-.13-.84S145.07,15.43,145.37,15.82Z"/><path class="cls-3" d="M123,44.11a.28.28,0,0,1,.15.08c.35.35.61.81,1.16,1a3,3,0,0,1,1.22.94c-.43.18-1.16-.22-1.44-.43s-.83-.48-1.22-.75a3.93,3.93,0,0,0-1.51-.8c-.61-.16-1.27-.65-1.89-.82-.17-.05-.49,0-.41-.28s.33-.09.51-.07a2.42,2.42,0,0,1,1,.24,8.3,8.3,0,0,0,1.17.45A11.54,11.54,0,0,0,123,44.11Z"/><path class="cls-2" d="M20.85,16.56c-.09-.63.11-.84.73-.79a30.41,30.41,0,0,0,3.44.1c.14.1.39.12.36.34s-.31.23-.49.25c-.79.09-1.58-.06-2.38,0A5.14,5.14,0,0,1,20.85,16.56Z"/><path class="cls-4" d="M167.07,12.86c0,.36-.27.35-.56.36a35.16,35.16,0,0,0-3.84.22c-.24-.22-.24-.39.05-.56a2.1,2.1,0,0,1,.8-.2,19.17,19.17,0,0,1,3-.07A.8.8,0,0,1,167.07,12.86Z"/><path class="cls-5" d="M153.78,16.81a4.2,4.2,0,0,0,1.47.5,1.46,1.46,0,0,1,1,.61c.1.13.24.27.11.42s-.34.1-.49,0A29,29,0,0,0,152.61,17c-.16-.08-.39,0-.59,0s-.37.05-.41-.14.2-.2.33-.26l.28-.11A2.15,2.15,0,0,1,153.78,16.81Z"/><path class="cls-6" d="M43.22,15.41c.92.11,1.84,0,2.75.06.17,0,.41,0,.41.24s-.23.18-.4.19c-1.13.07-2.27.13-3.4.21-.28,0-.55.06-.56-.33s.27-.4.55-.4Z"/><path class="cls-7" d="M51.94,16l-.27,0c-.2-.05-.41-.08-.39-.36s.19-.31.41-.35a31.25,31.25,0,0,1,3.21,0c.14,0,.36,0,.36.22s-.25.3-.44.3C53.86,15.72,52.91,15.86,51.94,16Z"/><path class="cls-8" d="M92.44,32.3l1.55.55a2.68,2.68,0,0,1,1.1.78c-.28.33-.54,0-.81,0A2.48,2.48,0,0,0,92.77,33c-.71,0-1.39-.32-2.11-.34-.15,0-.35,0-.33-.25s.2-.21.36-.22c.56,0,1.1.19,1.66.11Z"/><path class="cls-9" d="M98.63,15.07h-.3c-.18-.11-.55-.25-.47-.53s.48-.32.7-.32c1,0,1.91-.1,2.86,0a.93.93,0,0,1,.24,0c.17.05.55.12.54.33s-.29.25-.46.26c-.73.05-1.16,0-2,.06h-.44C98.85,14.94,98.89,14.86,98.63,15.07Z"/><path class="cls-10" d="M61.52,14.93l4.06.08c.31,0,.5.13.47.47H61.72C61.21,15.47,61.31,15,61.52,14.93Z"/><path class="cls-11" d="M32.18,15.62c.86.05,1.72.09,2.57.15.18,0,.48,0,.49.24s-.29.18-.46.21c-1.05.17-2.11-.08-3.15.16a.33.33,0,0,1-.43-.31.36.36,0,0,1,.33-.42A3.3,3.3,0,0,1,32.18,15.62Z"/><path class="cls-12" d="M149.46,13.21a1.09,1.09,0,0,1,.57-.3,14.25,14.25,0,0,1,2.77,0c.29,0,.4.23.38.51-.48.23-1,.05-1.46.08a8.88,8.88,0,0,0-2.06.06C149.28,13.69,149.34,13.44,149.46,13.21Z"/><path class="cls-13" d="M86.58,14.4l2.8,0c.14,0,.28,0,.42,0s.49.07.5.24-.38.21-.54.21c-1,0-2,.23-3,.17a1,1,0,0,0-.24,0c-.2,0-.47,0-.47-.31S86.35,14.46,86.58,14.4Z"/><path class="cls-14" d="M73.27,15.48c-.29-.62-.19-.76.48-.75a27.28,27.28,0,0,0,2.86,0c.23,0,.56-.06.59.23s-.34.25-.54.24c-.38,0-.73.17-1.11.16A5.48,5.48,0,0,0,73.27,15.48Z"/><path class="cls-15" d="M61.25,24.25a9.59,9.59,0,0,0,1.71.66c.13.06.37.05.33.26s-.26.07-.4.08c-.65.05-1.16-.38-1.75-.52a5.59,5.59,0,0,0-2.32-.49c-.14,0-.37.05-.37-.18s.22-.21.36-.23A4.65,4.65,0,0,1,61.25,24.25Z"/><path class="cls-16" d="M166.25,22a2,2,0,0,1,0,1.29c0,.12-.05.24-.2.26a.22.22,0,0,1-.22-.18,2.89,2.89,0,0,0-1.76-1.89c-.06,0-.07-.14-.1-.21a.84.84,0,0,1,1.17,0C165.51,21.5,166.05,21.5,166.25,22Z"/><path class="cls-17" d="M69.79,26.06a6.81,6.81,0,0,1,3.36,1.05l.52.39s0,.07,0,.15a1.52,1.52,0,0,1-1-.24,4.93,4.93,0,0,0-2.86-.78c-.18,0-.39,0-.43-.22S69.66,26.16,69.79,26.06Z"/><path class="cls-18" d="M83.94,30.13c-1.16-.87-2.5-.77-3.83-.73a.7.7,0,0,1,.74-.56,4.66,4.66,0,0,1,2.74.54c.18.17.36.34.56.5s.13.17,0,.25A.18.18,0,0,1,83.94,30.13Z"/><path class="cls-19" d="M41.72,21.14a13,13,0,0,1,2.51.54l1.16.28c.23.06.45.2.36.45s-.32.09-.49,0a9.85,9.85,0,0,0-3.63-.86c-.2,0-.4-.06-.35-.28S41.61,21.15,41.72,21.14Z"/><path class="cls-20" d="M25.78,19.83c-.22-.06-.6.18-.65-.17s.38-.26.61-.34a1.85,1.85,0,0,1,1.32.24c.51.22,1,.45,1.54.64.13,0,.31.09.26.27s-.22.14-.35.14a3.49,3.49,0,0,1-1.57-.56A1.8,1.8,0,0,0,25.78,19.83Z"/><path class="cls-21" d="M50.22,22.12a5.38,5.38,0,0,1,1.24.29,16.35,16.35,0,0,0,2,.6c.16,0,.45.14.38.37s-.34.09-.51,0A9.23,9.23,0,0,0,50,22.7c-.12,0-.25,0-.27-.16a.29.29,0,0,1,.16-.3A2.54,2.54,0,0,1,50.22,22.12Z"/><path class="cls-22" d="M132.75,48c.53.51,1.77,1.17,1.84,1.46-.58,0-1.53-.86-2.29-1.11-.58-.08-1-.54-1.58-.64-.11,0-.19-.08-.17-.2s.14-.14.24-.13a1.48,1.48,0,0,1,.47.05C131.76,47.63,132.26,47.83,132.75,48Z"/><path class="cls-23" d="M12.3,18c-.38-.25-1.67,0-2-.38.27-.24,1.32,0,1.57-.06a6.93,6.93,0,0,1,3.16.37c.45.18.64.34.54.55a14.29,14.29,0,0,1-1.9-.49c-.41-.16-.81,0-1.22,0A.08.08,0,0,1,12.3,18Z"/><path class="cls-24" d="M107.69,38l.37.09c.3.19.15.33-.07.4a.63.63,0,0,1-.52,0,5.16,5.16,0,0,1-1.35-.62,2.87,2.87,0,0,0-1.2-.48c-.15,0-.35,0-.32-.26s.19-.17.33-.18h.6C106.28,37.16,106.94,37.65,107.69,38Z"/><path class="cls-25" d="M159.42,19.05a3.93,3.93,0,0,1,1.46.39,1,1,0,0,1,.47.52c.09.21.16.46-.06.6s-.37-.07-.52-.24a2.3,2.3,0,0,0-1.46-.84c-.22,0-.62.22-.62-.19S159.09,19.06,159.42,19.05Z"/><path class="cls-3" d="M114.66,40.69c.35.29.7.58,1.06.86s.2.28-.08.33l-2.06-1.31c-.32-.21-.63.23-1,0s-.27-.35-.1-.57a.45.45,0,0,1,.6-.09A5.85,5.85,0,0,1,114.66,40.69Z"/><path class="cls-26" d="M34.51,20.06a4.29,4.29,0,0,1,1.93.84c.15.15.4.31,0,.45l-1.26-.66a1,1,0,0,0-.64-.07,4.52,4.52,0,0,1-.64.12c-.19,0-.46.11-.52-.13s.23-.27.4-.33S34.26,20.13,34.51,20.06Z"/><path class="cls-27" d="M145.05,45.11c0-.25,0-.52.27-.56a.46.46,0,0,1,.57.4,2.17,2.17,0,0,1-.26,1.32.34.34,0,0,1-.4.2c-.16-.06-.13-.22-.13-.36C145.09,45.78,145.07,45.44,145.05,45.11Z"/><path class="cls-4" d="M149.58,15.92c-.09.1-1.59-.61-2.55-.3-.1,0-.18-.12-.2-.25s.14-.15.19-.2C147.66,14.67,149.89,15.33,149.58,15.92Z"/><path class="cls-28" d="M101.88,36.56a6.08,6.08,0,0,1-2.79-1.27c-.1-.07-.2-.17-.13-.3s.23-.13.36-.06a7.51,7.51,0,0,1,1.11.68C100.79,35.9,102,36.43,101.88,36.56Z"/><path class="cls-29" d="M83.94,30.13c.19-.39-.31-.47-.35-.75A6.19,6.19,0,0,0,86,30.52c.11,0,.29.1.29.19C85.83,31.13,84.67,30.61,83.94,30.13Z"/><path class="cls-23" d="M20.09,19.07h-.95c-.11,0-.21,0-.2-.17a.31.31,0,0,1,.12-.18,3.39,3.39,0,0,1,2,.12c.06.06.13.13.08.2a.29.29,0,0,1-.2.09h-.84Z"/><path class="cls-25" d="M135,13.77c0-.36.27-.2.41-.37s.16-.32.36-.32l.52,0c.6.06,1.25-.1,1.86,0a3.59,3.59,0,0,1,.87.13c.23.09.47.23.18.52a1.36,1.36,0,0,1-.63.15h-2.5c-.2,0-.38.19-.63.18S135,14,135,13.77Z"/><path class="cls-30" d="M10.43,16.2c.12-.32.35-.38.67-.3a8.6,8.6,0,0,0,2.76.23,1.11,1.11,0,0,1,.34.05c.25.05.73,0,.68.32s-.61.21-.86.2a27.54,27.54,0,0,1-3.27-.16c-.22.05-.31-.05-.28-.27A.25.25,0,0,0,10.43,16.2Z"/><path class="cls-25" d="M147.67,58.36c-.12.14-.64.2-.82.22a3.94,3.94,0,0,1-2.07.1,16.49,16.49,0,0,1-2.2-.56,5,5,0,0,1-3.18-3.63,1.66,1.66,0,0,0-.13-.27,3.12,3.12,0,0,1,.58-2.5.51.51,0,0,1,.16-.09c.23.06.5-.14.69.12,0,.06-.06.14,0,.2.07.3-.17.57-.35.77s-.11.6-.07.82a3.75,3.75,0,0,0,.58,1.79,2.46,2.46,0,0,1,.49.63,3.81,3.81,0,0,0,.82.87,4.79,4.79,0,0,0,2.58,1.23,1.18,1.18,0,0,0,.74.22,1.62,1.62,0,0,0,.79,0c.22,0,.31,0,.37-.34s.23-.41.48-.33.12.17.17.27C147.4,58.16,147.77,58.19,147.67,58.36Z"/><path class="cls-1" d="M142.59,49.24c1.29-.07,2.29-.85,3.65-.28-.18.13-.2.14-.76.12.15.1.77-.09.6.46a3.17,3.17,0,0,1-1.13-.06c-.93,0-.54.2-.61.66,0,.23-.11.23-.38.24-.09,0-.08-.54-.32-.57a3.3,3.3,0,0,0-1.78.7c-.21.12-.24.45-.54.75-.06,0-.09-.08-.14-.08s-.23-.13-.38-.11-.32-.1-.23-.32A6.12,6.12,0,0,1,142.59,49.24Z"/><path class="cls-31" d="M140.57,50.75c.27,0,.63-.33.62.26s.11.75-.61.83a.65.65,0,0,1-.59-.11c-.05-.23.29-.42,0-.71-.15-.15.1-.2.26-.14Z"/><path class="cls-27" d="M140.24,50.88c-.18.25,0,.62-.25.85h-.14c.38-.66-.2-.58-.57-.75-.15-.1-.31-.06-.46-.1s-.61-.26-.44-.66C139,50.35,139.77,50.27,140.24,50.88Z"/><path class="cls-32" d="M169.24,23.76a.76.76,0,0,1,.63.32,6.54,6.54,0,0,1,.41.51c.15.24.52.42.3.76a1.23,1.23,0,0,1-1.05.58c-.19,0-.36-.1-.26-.29.28-.54-.06-.89-.32-1.29S168.78,23.78,169.24,23.76Z"/><path class="cls-30" d="M128.93,14c-2,0-3.93-.06-5.9.14-.22,0-.52.12-.57-.24s.25-.45.5-.48a11.85,11.85,0,0,1,1.78-.08c1.21.09,2.42.05,3.63.12.33,0,.67,0,.56.54Z"/><path class="cls-25" d="M186.67,12.76h-1.31c-.29,0-.55,0-.58-.36s.27-.41.54-.4a14.61,14.61,0,0,1,2.8.14c.19,0,.44,0,.42.32s-.27.3-.49.29l-1.38-.05Z"/><path class="cls-33" d="M145.87,49.3l-1.3-.14c.53-.37,1.12-.11,1.67-.2,1.59.52,3.19,1.2,3.95,2.73s1.38,3.22.33,4.93a12.7,12.7,0,0,1-2.09,1.49,6.12,6.12,0,0,1-2.34.67c-.32,0-1.26-.28-1.4-.65,0-.17.19-.49.36-.45s.17.36.48.43c.87.31,2.37-.57,2.59-.69.4-.22,1.21-.67,1.43-1.21a2.12,2.12,0,0,0,.11-1.68c-.19-.94-.42-1.53-.68-2.45-.13-.45-.62-.7-.82-1.11a1,1,0,0,0-.74-.45,2,2,0,0,1-.75-.54c-.27-.34-.49,0-.78-.34A1.94,1.94,0,0,1,145.87,49.3Z"/><path class="cls-6" d="M144.78,58.57a11,11,0,0,0,2.07,0A2.75,2.75,0,0,1,144.78,58.57Z"/><path class="cls-5" d="M143.79,12.56c.35,0,.69,0,1,.06.17,0,.32.06.34.26a.3.3,0,0,1-.33.34c-.69,0-1.39.06-2.08.07-.17,0-.38,0-.4-.27a.41.41,0,0,1,.33-.44C143.05,12.44,143.43,12.59,143.79,12.56Z"/><path class="cls-34" d="M145.16,38.75c-.06-.08-.15-.16-.16-.25-.06-.7-.1-1.41-.14-2.12,0-.19,0-.38.25-.4s.48,0,.55.27a4.64,4.64,0,0,1,0,2.19c0,.22-.29.25-.48.31Z"/><path class="cls-35" d="M145.62,30.34a4.7,4.7,0,0,1-.21,1.29c-.08.23-.19.42-.46.34a.36.36,0,0,1-.24-.48,4.77,4.77,0,0,0,0-2.06c-.07-.36.2-.39.47-.28C145.76,29.4,145.65,29.88,145.62,30.34Z"/><path class="cls-36" d="M110.6,14.51c-.23-.62.22-.7.62-.71,1.06,0,2.11,0,3.17,0l1.79,0c.19,0,.45,0,.46.28s-.26.26-.45.25c-1.51-.1-3,.2-4.52.16l-1.07,0Z"/><path class="cls-37" d="M145.59,24.46c0,.34,0,.68,0,1s-.1.54-.45.51-.4-.3-.33-.57a9.57,9.57,0,0,0,0-2.14c0-.25,0-.6.31-.63s.46.3.48.57a10.43,10.43,0,0,1,0,1.25Z"/><path class="cls-38" d="M169.43,13c0-.41.37-.54.69-.63s.48-.05.52.23-.18.42-.45.43-.51,0-.76,0Z"/><path class="cls-39" d="M8.27,18.12A15.68,15.68,0,0,1,6.92,19a1,1,0,0,0-.2.15c-.09.17.36.4,0,.49s-1.17.33-1.51.14c-.17-.09-.15-.35-.34-.38-.71-.11-2.09-.56-2.24-.89a7.19,7.19,0,0,0-.28-.82,2.45,2.45,0,0,1,.34-2.27,4,4,0,0,1,.95-.83,2,2,0,0,0,.62-.46,1,1,0,0,1,1.56.12.57.57,0,0,0,.77.36,1.46,1.46,0,0,1,1,.32c.13.07.25.26.37.33a1.19,1.19,0,0,1,.6.63l.15.31a2.62,2.62,0,0,1,0,1.39A1.68,1.68,0,0,1,8.27,18.12ZM4.71,15.37c0-.12.47-.75.33-.78a3.41,3.41,0,0,0-1,.49,1.94,1.94,0,0,0-.43,2.55,1.84,1.84,0,0,0,2.91.74,2.22,2.22,0,0,0,1-2A1.24,1.24,0,0,0,6.5,15.18c-.47,0-1-.06-1.16.65C4.88,16,4.74,15.87,4.71,15.37Z"/><path class="cls-9" d="M141.34,51c-.11.4.18.62.4.87s.29.28.11.45-.32,0-.46-.1-.41-.56-.79-.25l0-.15a1.46,1.46,0,0,0,.61-.83Z"/><path class="cls-40" d="M144,50.1c-.44-.23-.9-.19-1.07.33-.07.19,0,.74-.46.74s-.32-.43-.48-.71c0-.05-.3,0-.34,0,.26-.26.63-.78,1.1-.61.19.07.32-.07.5-.14S144,49.54,144,50.1Z"/><path class="cls-32" d="M145.8,53.75a.34.34,0,0,1-.41.34c-.25,0-.23-.22-.25-.4,0-.7-.11-1.39-.14-2.09,0-.22,0-.54.34-.53a.51.51,0,0,1,.53.53c0,.34,0,.68,0,1C145.89,52.62,145.85,53.38,145.8,53.75Z"/><text class="cls-41" transform="translate(11.75 12.35)">A</text><text class="cls-41" transform="translate(0 28.5)">P</text><text class="cls-41" transform="translate(141.39 8.31)">B</text><text class="cls-41" transform="translate(185.32 8.31)">C</text><text class="cls-41" transform="translate(172 31.99)">E</text><text class="cls-41" transform="translate(155.74 58.78)">S</text></g></g></svg>