<svg xmlns="http://www.w3.org/2000/svg" viewBox="0 0 716.08 268.4"><defs><style>.cls-1{fill:#7b7b7b;}.cls-2{fill:#818181;}.cls-3{fill:#494949;}.cls-4{fill:#777;}.cls-5{fill:#8b8b8b;}.cls-6{fill:#828282;}.cls-7{fill:#7a7a7a;}.cls-8{fill:#5b5b5b;}.cls-9{fill:#737373;}.cls-10{fill:#515151;}.cls-11{fill:#4c4c4c;}.cls-12{fill:#7f7f7f;}.cls-13{fill:#7c7c7c;}.cls-14{fill:#6b6b6b;}.cls-15{fill:#4b4b4b;}.cls-16{fill:#858585;}.cls-17{fill:#4d4d4d;}.cls-18{fill:#585858;}.cls-19{fill:#686868;}.cls-20{fill:#535353;}.cls-21{fill:#6a6a6a;}.cls-22{fill:#a5a5a5;}.cls-23{fill:#878787;}.cls-24{fill:#8d8d8d;}.cls-25{fill:#a1a1a1;}.cls-26{fill:#888;}.cls-27{fill:#999;}.cls-28{fill:#848484;}.cls-29{fill:#979797;}.cls-30{fill:#898989;}.cls-31{fill:#9d9d9d;}.cls-32{fill:#8c8c8c;}.cls-33{fill:#8f8f8f;}.cls-34{fill:#b5b5b5;}.cls-35{fill:gray;}.cls-36{fill:#aaa;}.cls-37{fill:#959595;}.cls-38{fill:#707070;}.cls-39{fill:#3b3b3b;}.cls-40{fill:#919191;}.cls-41{fill:#909090;}.cls-42{fill:#b0b0b0;}.cls-43{fill:#b6b6b6;}.cls-44{fill:#555;}.cls-45{fill:#a6a6a6;}.cls-46{fill:#9e9e9e;}.cls-47{fill:#cecece;}.cls-48{fill:#626262;}.cls-49{fill:#727272;}.cls-50{fill:#8a8a8a;}.cls-51{fill:#797979;}.cls-52{fill:#868686;}.cls-53{fill:#636363;}.cls-54{fill:#676767;}.cls-55{fill:#9c9c9c;}.cls-56{fill:#9a9a9a;}.cls-57{fill:#7d7d7d;}.cls-58{fill:#a7a7a7;}.cls-59{fill:#a0a0a0;}.cls-60{fill:#767676;}.cls-61{fill:#aeaeae;}.cls-62{fill:#b8b8b8;}.cls-63{fill:#acacac;}.cls-64{fill:#bebebe;}.cls-65{fill:#595959;}.cls-66{fill:#616161;}.cls-67{fill:#444;}.cls-68{fill:#4e4e4e;}.cls-69{fill:#7e7e7e;}.cls-70{fill:#414141;}.cls-71{fill:#656565;}.cls-72{fill:#6d6d6d;}.cls-73{fill:#6e6e6e;}.cls-74{fill:#4f4f4f;}.cls-75{fill:#545454;}.cls-76{fill:#4a4a4a;}.cls-77{fill:#c1c1c1;}.cls-78{fill:#646464;}.cls-79{fill:#434343;}.cls-80{fill:#ccc;}.cls-81{fill:#454545;}.cls-82{fill:#d1d1d1;}.cls-83{fill:#b1b1b1;}.cls-84{fill:#5e5e5e;}.cls-85{fill:#5c5c5c;}.cls-86{fill:#565656;}.cls-87{fill:#505050;}.cls-88{fill:#747474;}.cls-89{fill:#a2a2a2;}.cls-90{fill:#a3a3a3;}.cls-91{font-size:8px;}.cls-91,.cls-93,.cls-97{fill:#231f20;}.cls-91,.cls-93{font-family:BaskervilleMTPro-Regular, Baskerville MT Pro;}.cls-100,.cls-101,.cls-92,.cls-96,.cls-98,.cls-99{fill:none;stroke:#231f20;}.cls-100,.cls-92,.cls-96,.cls-98,.cls-99{stroke-miterlimit:10;}.cls-92{stroke-width:0.25px;}.cls-93{font-size:10px;}.cls-94{letter-spacing:-0.02em;}.cls-95{letter-spacing:0.01em;}.cls-100,.cls-101,.cls-96,.cls-98,.cls-99{stroke-width:0.5px;}.cls-96{stroke-dasharray:6 3;}.cls-99{stroke-dasharray:5.82 2.91;}.cls-100{stroke-dasharray:6.4 3.2;}.cls-101{stroke-linecap:round;stroke-linejoin:round;}</style></defs><g id="Layer_2" data-name="Layer 2"><g id="_12742a_final" data-name="12742a_final"><path class="cls-1" d="M98.58,78.4c-.31.36-.75.18-1.07.12A13,13,0,0,0,95,78.25c-1.6,0-3.14-.4-4.76-.27-1.08.08-2.32.36-3.42-.28-.23-.13-.5,0-.75.13a1.29,1.29,0,0,1-1.49-.27c-.06-.07-.19-.19-.22-.17-.82.47-1.72-.22-2.53.19a3,3,0,0,1-1.76.1,11.14,11.14,0,0,0-3.41,0,5.54,5.54,0,0,1-2.07,0c-.55-.09-1.11.15-1.7,0s-1.22-.16-1.83-.21a17.11,17.11,0,0,0-2.86.11,10.82,10.82,0,0,1-3.89-.22,3.18,3.18,0,0,0-1.65,0,14.5,14.5,0,0,1-2.8.09s-.14,0-.17-.05c-.41-.57-.95-.27-1.44-.19a20.37,20.37,0,0,1-4-.16c-.11,0-.25-.08-.35,0-1.57.53-3.11-.17-4.68-.12a4.32,4.32,0,0,1-1.8-.21.45.45,0,0,0-.23,0,8.74,8.74,0,0,1-4.27-.49,3,3,0,0,0-.53-.06c-.24-.43,0-.69.33-.9a5.52,5.52,0,0,1,1.72,0,9.22,9.22,0,0,0,1.66.14,35.82,35.82,0,0,1,5.85.42c1,.15,2,0,3.05.09,1.9.12,3.81.08,5.68.27,1.69.17,3.39.13,5.08.29a23.4,23.4,0,0,0,5,0,25,25,0,0,1,3.35,0c1,0,2,0,2.93-.07,1.95-.12,3.9,0,5.85.07,1.36,0,2.73.14,4.09.21,1.55.07,3.11.23,4.67.26a33.28,33.28,0,0,1,5,.36c.62.1,1.27-.14,1.89.09.11,0,.23,0,.32.14C99.18,77.9,98.81,78.13,98.58,78.4Z"/><path class="cls-2" d="M98.58,78.4c0-.25.24-.48.11-.75.14-.35.46-.3.72-.25,1.16.21,2.33.13,3.49.23.29,0,.54-.18.82-.13l.32,0a6.51,6.51,0,0,0,1.81.17c.17,0,.33,0,.49,0a5.33,5.33,0,0,0,1.49-.12,4.19,4.19,0,0,1,1.83,0,2.9,2.9,0,0,0,1.06,0,1.16,1.16,0,0,0,.49.1,2,2,0,0,0,.42,0,14.81,14.81,0,0,1,3.05.11c.72.07,1.45,0,2.18,0a3.29,3.29,0,0,1,.83.06,1.71,1.71,0,0,0,1.2-.06,31.32,31.32,0,0,1,4,.37,3.83,3.83,0,0,0,.76,0,1.82,1.82,0,0,1,.92.14.58.58,0,0,0,.41,0,20.13,20.13,0,0,1,4.39.18,4.29,4.29,0,0,0,.81-.15c1.34.27,2.71.14,4.06.28s2.5.13,3.76.21a38.64,38.64,0,0,0,3.88-.06c1.56,0,3.11,0,4.67,0,2.31,0,4.61.41,6.92.29a35.84,35.84,0,0,1,3.88.07c1.22.09,2.45.23,3.68.4a2.81,2.81,0,0,1,1.11.17c.29.74.27.8-.34.92a24.73,24.73,0,0,0-3.11-.16,3.27,3.27,0,0,1-1.73-.23,2.34,2.34,0,0,0-1.63,0h0c-.31-.09-.61-.32-.91,0-.07.09-.22.08-.34,0a5.09,5.09,0,0,0-1.86-.18,1.69,1.69,0,0,1-1.63.23,4.83,4.83,0,0,1-1.14-.35,23.15,23.15,0,0,0-2.51-.47h0a10,10,0,0,0-2.78.09,5.66,5.66,0,0,1-2.19.39c-1.27-.06-2.53-.1-3.79-.14-.11,0-.21.14-.33.13-1.26-.16-2.53.26-3.79-.12a2.1,2.1,0,0,0-1.24,0,1.11,1.11,0,0,1-.65,0,.63.63,0,0,0-.46,0c-.74.38-1.44,0-2.15-.09a1.43,1.43,0,0,0-.41,0,17.89,17.89,0,0,1-3.19-.1.9.9,0,0,1-.5-.16c-.47-.22-1,0-1.46-.13s-1.11-.17-1.67-.25c-.14.09-.19,0-.21-.12a.41.41,0,0,0-.4,0,1.53,1.53,0,0,1-1.45-.06c-.73-.43-1.57-.1-2.35-.17s-1.48.27-2.19-.13c-.14-.08-.42-.12-.51,0-.47.42-.93.14-1.39,0a.58.58,0,0,0-.63,0,2.86,2.86,0,0,1-2.36,0,.7.7,0,0,0-.47,0,3.66,3.66,0,0,1-2.22-.11,2.38,2.38,0,0,0-.53,0,4.25,4.25,0,0,1-1.81,0c-.44-.16-.88.24-1.38.2-.69,0-1.42.26-2-.2s-.88.11-1.34,0C100.22,78.47,99.4,78.45,98.58,78.4Z"/><path class="cls-3" d="M12.39,65.88c.31-.09.41.07.33.34a1.81,1.81,0,0,0-.14.45.29.29,0,0,1-.18.29,2.51,2.51,0,0,0-1.12.94c-.54.61-.84.68-1.54.26a3.22,3.22,0,0,1-.93-.62c-.07-.08-.15-.16-.26-.12s-.1.2-.07.31a4.46,4.46,0,0,0,1.08,2,1.74,1.74,0,0,1,.69.44,5.78,5.78,0,0,0,2.62,2,2,2,0,0,1,1,1.15c.14.66.14.65-.5.69a.46.46,0,0,0-.28.08c-.44,0-.92.4-1.32-.11-.15-.12-.35-.1-.52-.15-.38-.13-.44-.37-.22-.73A3.05,3.05,0,0,0,10,72.43a8.7,8.7,0,0,1-2.56-1.69,2.65,2.65,0,0,1-1-1.8c0-.29-.24-.53-.27-.85s.06-.78.56-.88.3-.25.08-.46-.51-.13-.34-.49a.5.5,0,0,1,.31-.18c.42,0,2.39-.07,3-.12"/><path class="cls-4" d="M318.89,130.69l.48-.59a.49.49,0,0,1,.25-.24,2.76,2.76,0,0,1,.71-.85,2.1,2.1,0,0,1,.93-1.2l.26-.27c.09-.11.09-.31.29-.31a19.46,19.46,0,0,1,1.76-2.09c.24-.18.26-.5.4-.74a2.67,2.67,0,0,1,1-.9,8,8,0,0,1,1.07-1.1c.08-.34.12-.71.6-.7a24.78,24.78,0,0,0,2.44-2.68c1-1,2-2.09,2.91-3.22.52-.65,1-1.3,1.52-2,.8-1.14,1.82-2.1,2.62-3.25l1.05-1.25c.2-.19.43-.32.69-.15s.15.34.05.52c-.71.87-1.45,1.7-2.1,2.61a15.59,15.59,0,0,0-1.54,1.9,15,15,0,0,1-2.7,3.13,27.83,27.83,0,0,0-2.13,2.39c-.92,1.21-2.08,2.17-3,3.39-.5.67-1.2,1.17-1.72,1.86s-1.3,1.58-1.91,2.41a22.76,22.76,0,0,1-2.65,3c-.14,0-.36-.14-.42.15s-.36.38-.55.57a.29.29,0,0,1-.38,0C318.73,131,318.79,130.83,318.89,130.69Z"/><path class="cls-5" d="M316.61,104.66c1.42-1.69,2.87-3.36,4.27-5.06,1-1.28,2-2.6,3.06-3.89s2.15-2.57,3.16-3.9c1.17-1.53,2.43-3,3.54-4.57.76-1.09,1.66-2.08,2.5-3.12.16-.16.33-.31.56-.14a.37.37,0,0,1,.08.52,19.7,19.7,0,0,1-1.62,2.22c-.64.87-1.32,1.7-1.94,2.58a3.61,3.61,0,0,1-.53.63,19.1,19.1,0,0,0-1.86,2.36,54.89,54.89,0,0,0-3.57,4.37c-.94,1.38-2.17,2.49-3.2,3.78l-2.9,3.63a9.26,9.26,0,0,0-1.32,1.54c-.37.17-.47,0-.45-.35A1.22,1.22,0,0,1,316.61,104.66Z"/><path class="cls-6" d="M174.41,73.7c-1,.07-1.79.73-2.8.67a2.53,2.53,0,0,0-1.64.29c-.13-.21-.51-.23-.47-.58,0-.1.08-.21.17-.23,1.14-.27,2.11-1,3.25-1.23,1.3-.32,2.6-.65,3.88-1,2.14-.66,4.27-1.35,6.36-2.13a40.91,40.91,0,0,1,5.39-1.56,4.91,4.91,0,0,0,.63-.17c1.76-.6,3.54-1.12,5.31-1.67a11.36,11.36,0,0,0,1.73-.38c.53,0,.32.48.5.7a12.28,12.28,0,0,1-4,1.14.31.31,0,0,0-.21.09c-.47.68-1.2.48-1.85.54-.14,0-.33-.07-.41,0-.57.51-1.39.45-2,.91a1.21,1.21,0,0,1-1,.26,2.12,2.12,0,0,0-1.47.31,8.32,8.32,0,0,1-1.85.77c-1.34.49-2.73.8-4.11,1.16a11.12,11.12,0,0,0-1.7.72,7.18,7.18,0,0,1-2.22.79A2.1,2.1,0,0,0,174.41,73.7Z"/><path class="cls-7" d="M321.53,86.29c-.68.66-1.1,1.52-1.74,2.2a30,30,0,0,0-1.93,2.69c-.9,1.17-1.8,2.33-2.77,3.43a14.64,14.64,0,0,0-1.54,2.17,14.64,14.64,0,0,1-1.9,2.66,17.76,17.76,0,0,0-1.31,2,45.13,45.13,0,0,0-2.7,4.27,4.58,4.58,0,0,0-.74,3.52,2,2,0,0,1,0,.42c-.39.12-.43-.15-.42-.42a1.78,1.78,0,0,0-.23-1c-.28-.46.1-.84.28-1.24a8.43,8.43,0,0,1,.24-2.5c0-.12,0-.19.14-.18s.15.19.21.3c.33.16.35-.15.45-.31a37,37,0,0,1,3.06-4.79c.52-.61.86-1.37,1.36-2,1.37-1.73,2.59-3.57,4-5.27,1.16-1.38,2.17-2.89,3.24-4.34a1.2,1.2,0,0,1,.47-.45c.54-.17.68-.68.93-1.09a4,4,0,0,1,.28-.43.35.35,0,0,1,.47-.1A.27.27,0,0,1,321.53,86.29Z"/><path class="cls-8" d="M207.28,55.56c.2-.31.58-.29.86-.46a.23.23,0,0,1,.35,0l.36,0a.19.19,0,0,0,.16,0c.54-.09.88.08.92.67a1,1,0,0,0,.47.6,42.47,42.47,0,0,0,3.53,2.9c.8.53,1.57,1.21,2.66.89a.51.51,0,0,1,.66.25c.15.31-.23.35-.35.54a1.61,1.61,0,0,1-1.43.52c-.72,0-1.42.29-2.16.22-.17-.07-.14-.22-.16-.36s-.33-.31-.53-.4a24.3,24.3,0,0,1-4-2.37,6.15,6.15,0,0,1-1.15-1.29,1.48,1.48,0,0,1-.3-1.06C207,56,206.83,55.71,207.28,55.56Z"/><path class="cls-9" d="M344.33,112.69c-.55.85-1.29,1.57-1.8,2.42s-1.4,1.61-1.87,2.59a9.83,9.83,0,0,1-1.15,1.37c-1.17,1.59-2.35,3.18-3.6,4.71-.74.89-1.48,1.8-2.29,2.64a8.15,8.15,0,0,0-2.14,2.94.71.71,0,0,1-.8.4c-.32,0-.46-.27-.24-.57.46-.62.93-1.24,1.41-1.85.91-1.13,1.83-2.24,2.73-3.37s1.66-2.14,2.52-3.18,1.75-2.29,2.58-3.47c.27-.38.72-.64.79-1.16a.49.49,0,0,1,.37-.36c1.12-1.3,1.89-2.86,3.1-4.08.41,0,.46.17.25.45s-.33.26-.46.41c.16-.12.31-.33.56-.19A.18.18,0,0,1,344.33,112.69Z"/><path class="cls-2" d="M332.69,101.06a40.64,40.64,0,0,0-2.77,3.23,1.28,1.28,0,0,1-.34.06c-.14,0-.32.12-.46-.06s0-.32.09-.47c1.73-2,3.49-4.07,5.17-6.16,1.42-1.76,2.73-3.59,4.1-5.39l3.41-4.44a.65.65,0,0,0,.44-.26.26.26,0,0,1,.36-.09c.19.09.17.24.1.4a52.59,52.59,0,0,1-4.61,6.29c-1.09,1.34-2.13,2.73-3.24,4a15.11,15.11,0,0,0-2.14,2.71A.12.12,0,0,1,332.69,101.06Z"/><path class="cls-10" d="M208,63.72a.16.16,0,0,1-.09,0,10.09,10.09,0,0,0-1.34.21,2.25,2.25,0,0,1-1.42.15c-.23,0-.36.2-.55.29s-.68.33-.9-.16c.12-.4,0-.61-.38-.87A13.16,13.16,0,0,1,200,60.16a1.83,1.83,0,0,1-.29-2.22,1.44,1.44,0,0,1,1-.85c.42.1,1-.07,1.12.55a31.7,31.7,0,0,1,2.43,3.23,8.16,8.16,0,0,0,1.39,1.6c.55.61,1.37.53,2,.78C207.89,63.34,208.1,63.39,208,63.72Z"/><path class="cls-11" d="M196.72,66.37c-.33-.06-.31-.4-.47-.6a2.07,2.07,0,0,1-1.41-.09A12.23,12.23,0,0,1,190.3,62c-.27-.37-.43-.8-.72-1.16-.2-.64-.08-.86.55-1.06l1.79-.36c.58-.15.52.32.62.64A17.27,17.27,0,0,0,195.85,64a4.38,4.38,0,0,0,1.2.79,3.46,3.46,0,0,1,1,.59c.3.36,0,.55-.21.78C197.51,66.53,197.06,66.21,196.72,66.37Z"/><path class="cls-10" d="M226.48,58.44a3.79,3.79,0,0,1-2.75.82c-.07,0-.16.1-.24.16-.7.35-.89.27-1.45-.64a9.13,9.13,0,0,1-2.55-1.84c-.64-.58-1.17-1.25-1.76-1.88s-.49-.92.27-1.25c.17-.08.2-.24.32-.35.31-.19.61-.43,1-.17a15.54,15.54,0,0,1,2.24,1.53,5.63,5.63,0,0,1,1.18,1.4c.29.51.83.79,1.16,1.27a.52.52,0,0,0,.67.48c.69,0,1.35-.41,2.06-.12C227,58.15,226.87,58.33,226.48,58.44Z"/><path class="cls-12" d="M40.85,75.86a2.6,2.6,0,0,1-2.56.32c-1-.31-2-.14-2.94-.42a37.2,37.2,0,0,0-3.82-.44A11.82,11.82,0,0,0,28.69,75c-.26,0-.45.21-.73.23-.94,0-1.84-.23-2.77-.23a3.23,3.23,0,0,1-1.87-.18.91.91,0,0,0-.64-.39c-.3,0-.39-.23-.29-.52s.41-.22.65-.22a15.78,15.78,0,0,1,2.38.08,33.42,33.42,0,0,0,4.36.21,10.68,10.68,0,0,1,1.37.11c2,.26,4.05.31,6.05.64a3,3,0,0,0,.42,0,4.17,4.17,0,0,1,2.45.48C40.3,75.45,40.72,75.49,40.85,75.86Z"/><path class="cls-5" d="M335.8,80.77a32,32,0,0,1,3.7-4.58,17.55,17.55,0,0,0,1-1.44c1.12-1.34,2.22-2.71,3.28-4.09,1.29-1.68,2.65-3.28,4-4.91.22,0,.34-.16.5-.28s.43-.21.46.17a8,8,0,0,1-1.27,1.62,16.88,16.88,0,0,0-1.5,2,.2.2,0,0,1-.21.26c-.69.64-1.08,1.52-1.76,2.16a.08.08,0,0,1-.05.1,33.3,33.3,0,0,1-2.45,3,2.1,2.1,0,0,0-.31.5,23.29,23.29,0,0,0-2,2.52c-.28.43-.65.8-1,1.2l-1.55,2a.94.94,0,0,1-.46.27C335.88,81.26,335.67,81.18,335.8,80.77Z"/><path class="cls-1" d="M245.44,53.65a.37.37,0,0,1-.46.18,2.47,2.47,0,0,0-1.91.5,2.6,2.6,0,0,1-1.46.45c-.29,0-.59.21-.86.22a7.38,7.38,0,0,0-2.14.71,15.57,15.57,0,0,1-4,.82,1,1,0,0,1-.94.1c-.3-.07-.43-.24-.27-.55s.55-.15.78-.31.47-.31.77-.31a4.57,4.57,0,0,0,.82-.16,22.49,22.49,0,0,1,3.31-1,37.84,37.84,0,0,0,4.14-1.14c-.3-.13-.82-.1-.93-.69a1.37,1.37,0,0,1,1.3-.45,1.63,1.63,0,0,0,.6-.06,11.05,11.05,0,0,1,1.5.4,2.74,2.74,0,0,0,1.65-.07c1.5-.39,3-.69,4.53-1.09a8.24,8.24,0,0,1,1-.19,1,1,0,0,1,.42,0,.46.46,0,0,1,.36.42c0,.21-.14.32-.3.38a1.19,1.19,0,0,1-.62.11.62.62,0,0,0-.58.16,18.14,18.14,0,0,1-1.78.37c-.21,0-.32,0-.42.21a.38.38,0,0,1-.35.19,12.1,12.1,0,0,0-2.86.64,5.26,5.26,0,0,0-1.31.14.59.59,0,0,1,0-.29A.57.57,0,0,0,245.44,53.65Z"/><path class="cls-1" d="M298.25,41.79c-.48-.08-.85.27-1.31.34-1.31.17-2.63.32-3.93.55a10.22,10.22,0,0,0-2.24.39,8.92,8.92,0,0,1-2,.61c-.09,0-.2.11-.28.08-1.31-.44-2.37.42-3.51.73a10.39,10.39,0,0,0-2.43.5c-.54.31-1.16.2-1.72.39-.3-.11-.32-.32-.11-.49s.29-.42.45-.62a16.26,16.26,0,0,1,5.09-1.22c.87,0,1.64-.45,2.49-.57a28,28,0,0,0,3.59-.88c.77-.22,1.62-.1,2.41-.34a10.89,10.89,0,0,1,1.7-.34.76.76,0,0,0,.53-.23A2.22,2.22,0,0,1,298.25,41.79Z"/><path class="cls-13" d="M320.58,114.87a2.32,2.32,0,0,1-.85,1.08c-.09.26-.17.51-.49.58s-.33.37-.44.6a2.45,2.45,0,0,1-1,1.12s-.07.06-.08.1a3.66,3.66,0,0,1-1.34,1.83.33.33,0,0,0-.13.26,1.62,1.62,0,0,1-1,1.36,11.53,11.53,0,0,0-1.76,2.29,1.15,1.15,0,0,1-.88,1.08.44.44,0,0,0-.34.22.92.92,0,0,1-.59.74l-.12.24c-.13.22-.09.6-.51.58-.12.12-.32.14-.34.35a.2.2,0,0,1-.12.13c-.24,0-.53,0-.49-.36a27,27,0,0,1,2-2.71c1.06-1.29,1.9-2.74,2.95-4,1.22-1.5,2.47-3,3.71-4.46a4.93,4.93,0,0,1,1.15-1.26C320.46,114.35,320.52,114.38,320.58,114.87Z"/><path class="cls-14" d="M281.29,44.51c.26.16.08.22-.07.3s-.44.25-.37.57c-.46.31-1,.19-1.53.33-1.23.34-2.48.55-3.71,1a15.61,15.61,0,0,1-4.09.94,14.18,14.18,0,0,0-2.55.56,3.45,3.45,0,0,1-.71.09,2.48,2.48,0,0,1-.86,0,2.6,2.6,0,0,0-1.41.32,8.49,8.49,0,0,1-2.32.58c-.43.06-.55-.1-.5-.59a21.47,21.47,0,0,1,5.28-1.47,17,17,0,0,0,3.65-.84c1.22-.43,2.52-.63,3.77-1a41.5,41.5,0,0,1,4.13-.87C280.42,44.38,280.88,44.1,281.29,44.51Z"/><path class="cls-15" d="M311.92,40.93c-.15.34,0,.75-.23,1.09s-.41.74-.87.25a1.9,1.9,0,0,1,0-1.37,2.94,2.94,0,0,0,.07-1.35.44.44,0,0,0-.61-.39,12.52,12.52,0,0,1-1.3.35c-.32.09-.69,0-1,.27a.31.31,0,0,1-.46-.1.36.36,0,0,1,.05-.36c.06-.1.15-.19.22-.29a.36.36,0,0,1,.24-.16,2.69,2.69,0,0,0,2-2.12,2.65,2.65,0,0,1,.25-.54.38.38,0,0,0-.11-.53,1.2,1.2,0,0,1-.36-1c.19-.5.75-.39,1.07-.66-.11-.66.48-.88.83-1.24.19-.18.47,0,.47.3a1.47,1.47,0,0,1-.11.47,1.34,1.34,0,0,0,.07,1.23l-.09,2.72a6.93,6.93,0,0,1-.41,1.24c-.09.25,0,.53-.13.79a.6.6,0,0,0,.22.78A.5.5,0,0,1,311.92,40.93Z"/><path class="cls-16" d="M263.21,48.75c.56.29,1.07,0,1.6-.12.77-.12,1.49-.43,2.24-.58a2,2,0,0,1,1.21.21,2.23,2.23,0,0,1-1.25.3,1.88,1.88,0,0,0-1.33.44,1.93,1.93,0,0,1-1.16.43,7.1,7.1,0,0,0-1.77.28c-1.26.34-2.56.5-3.83.83s-2.66.73-4,1a3,3,0,0,0-1.58.56c-.27.25-.77,0-1.16,0,.2-.61.9-.25,1.24-.61-.17-.18-.38-.09-.56-.14,0-.26.15-.34.36-.37s.59-.13.88-.17c.77-.3,1.58-.49,2.37-.73a.55.55,0,0,1,.18,0,1.89,1.89,0,0,0,.62-.16c1.72-.67,3.56-.82,5.31-1.35C262.82,48.47,263.09,48.4,263.21,48.75Z"/><path class="cls-17" d="M298.25,41.79a1.31,1.31,0,0,1-1.18-1c-.13,0-.26.11-.4,0a4.51,4.51,0,0,1-2.3-2.33c-.29-.78-.16-1.41.39-1.68a3.05,3.05,0,0,1,1.64-.24c.28,0,.41.26.5.54a8.44,8.44,0,0,0,.92,2.06,2.69,2.69,0,0,0,2.08,1.33c.41.59-.15.67-.46.88A2,2,0,0,1,298.25,41.79Z"/><path class="cls-18" d="M309.59,69.22c.52-.3.74-.87,1.1-1.3.61-.72,1.16-1.5,1.73-2.26.45,0,.69.12.48.61-.07.27-.31.41-.45.63a32.32,32.32,0,0,0-2.81,4.29c-.16.37-.58.63-.11,1.06.1.1-.07.25-.13.38a2.74,2.74,0,0,0-.35,1.18c-.49.32-.36-.18-.48-.35-.82-.43-.87-.46-.48-1.29a8,8,0,0,0,.74-2.43,4.51,4.51,0,0,0,0-.82c0-.14-.12-.41.17-.4a.5.5,0,0,1,.54.36C309.61,69,309.52,69.11,309.59,69.22Z"/><path class="cls-19" d="M22.47,74c.54-.05.74.54,1.21.65-.1.14-.25,0-.36.09a1.89,1.89,0,0,0-1.38-.14,3.37,3.37,0,0,1-2-.08,1.16,1.16,0,0,0-.76,0,1.58,1.58,0,0,1-1.33-.16,1.56,1.56,0,0,0-1.31-.11,8.47,8.47,0,0,1-1,.09,10.63,10.63,0,0,1-2.46-.32c.21-.23.81-.13.6-.71.13-.36.45-.28.71-.29,1,0,1.93.15,2.91.07a15.46,15.46,0,0,1,2.15,0,11.2,11.2,0,0,1,2.55.57A.63.63,0,0,1,22.47,74Z"/><path class="cls-20" d="M306.76,116.76l1-1.3c.43,0,.45,0,.35.6-.48.91-1.19,1.67-1.61,2.63a1.46,1.46,0,0,0-.09,1.12,1,1,0,0,1-.11,1c-.11.25-.29.24-.48.1-.38-.19-.49.17-.55.36-.15.48-.58.57-.94.76a.46.46,0,0,1-.54-.14c-.14-.14-.07-.29,0-.44a16.44,16.44,0,0,1,1.79-3.06c.32-.36.27-.82.47-1.2S306.55,116.94,306.76,116.76Z"/><path class="cls-9" d="M310.82,42.27l.87-.25a7.65,7.65,0,0,1-.26,2.08,8.08,8.08,0,0,0-.23,2.9,7.24,7.24,0,0,1-.17,2.93,3.13,3.13,0,0,0,0,1.82.93.93,0,0,1,0,.86c-.2,0-.39.25-.58,0a.92.92,0,0,1,0-.37,4.42,4.42,0,0,0,0-.63,30.44,30.44,0,0,1,0-3.17c.14-1.28.19-2.57.27-3.86C310.71,43.81,310.76,43,310.82,42.27Z"/><path class="cls-21" d="M11.07,73.06c0,.5.59.51.74.88l-1.09.21c-.46-.07-1,.16-1.38-.28,0,0-.13-.06-.16,0-.7.47-1.51,0-2.25.24-.39.12-.85,0-1.27.19a1.33,1.33,0,0,1-1.22-.35c-.13-.1-.28-.18-.22-.38a.42.42,0,0,1,.36-.28,14.16,14.16,0,0,1,5.31-.15A2.61,2.61,0,0,0,11.07,73.06Z"/><path class="cls-22" d="M329.21,103.82c0,.53.48.3.71.47v.12a1,1,0,0,0-.62.6,2.06,2.06,0,0,0-.59.72c.07.38-.12.5-.47.48-.78.68-1.22,1.66-2,2.35a25.73,25.73,0,0,1-2.31,2.36c-.22,0-.46,0-.52-.28a20.16,20.16,0,0,1,2.64-3.19,28.22,28.22,0,0,0,2.09-2.43C328.48,104.6,328.86,104.22,329.21,103.82Z"/><path class="cls-23" d="M308.09,116.06c-.06-.23-.09-.48-.35-.6a16.62,16.62,0,0,0,1.4-1.68c.57-.9,1.34-1.62,2-2.46a12.93,12.93,0,0,1,2-2.35,1,1,0,0,0,.49-.25.23.23,0,0,1,.32,0,.24.24,0,0,1,0,.39,27.74,27.74,0,0,0-2.21,2.93,7.87,7.87,0,0,1-1.57,1.59C309.4,114.35,308.9,115.34,308.09,116.06Z"/><path class="cls-24" d="M308.57,73.46a.65.65,0,0,0,.48.35c.18.72,0,1.47.16,2.19a.48.48,0,0,1,0,.29,6.32,6.32,0,0,0-.28,2.44c-.07,1-.1,2-.27,3a27.3,27.3,0,0,0-.24,3.14s.1.1.16.15,0,.22-.07.31-.34.38-.64.2a28.53,28.53,0,0,0,.21-3.81c.1-1.69.27-3.37.4-5C308.54,75.63,308.54,74.54,308.57,73.46Z"/><path class="cls-23" d="M349.25,104.78c.8-1.07,1.69-2.06,2.43-3.17.38-.56.84-1.06,1.27-1.58a1.59,1.59,0,0,1,.33-.25c.3-.18.71-.43.92-.15s-.27.44-.45.64a24.75,24.75,0,0,0-1.48,2.09,10.35,10.35,0,0,1-1.33,1.68,15.66,15.66,0,0,0-1.1,1.34c-.24.33-.45.31-.55-.1C349.25,105.13,349.1,105,349.25,104.78Z"/><path class="cls-25" d="M233.58,56.2c.24.48.66.37,1.06.33,0,0-.08.12-.12.13-1.33.15-2.44,1.12-3.83,1a1.24,1.24,0,0,0-.8.21,1.34,1.34,0,0,1-1.13.2c-.11,0-.28,0-.34,0a2.51,2.51,0,0,1-1.94.35c.17-.15.25-.3,0-.46s0-.42.24-.51c.41-.16.86-.13,1.28-.26,1.64-.54,3.35-.82,5-1.2C233.29,56,233.48,55.92,233.58,56.2Z"/><path class="cls-26" d="M310.87,54.83c.32.53.07,1-.06,1.56,0,.11-.15.21-.14.32,0,1.07-.34,2.1-.29,3.17s-.33,1.84-.31,2.79c0,.07-.11.15-.17.23s-.28,0-.4-.12a16.11,16.11,0,0,1,.17-2.77c.05-1.44.37-2.86.33-4.31a.47.47,0,0,1,.06-.15C310.37,55.36,310.38,54.82,310.87,54.83Z"/><path class="cls-23" d="M342.07,103.11c.37-.38.59-.9,1.12-1.12.18-.08.4-.24.55-.07s-.06.34-.17.49c-1,1.36-2.05,2.72-3.09,4.08-.25.33-.54.63-.82.94-.52.12-.59.06-.51-.51a20.38,20.38,0,0,1,1.94-2.5.18.18,0,0,1,.14-.22,7.92,7.92,0,0,1,.84-1.09Z"/><path class="cls-27" d="M351,77.41a2,2,0,0,1-.1.21,28.37,28.37,0,0,0-2.24,2.78c-.7.87-1.43,1.71-2.18,2.54-.36,0-.5-.08-.36-.43a1.52,1.52,0,0,1,.24-.41,11.36,11.36,0,0,1,1.35-1.81,31.71,31.71,0,0,1,2.19-2.6A.8.8,0,0,1,351,77.41Z"/><path class="cls-28" d="M344.33,112.69c-.4-.15-.54.31-.85.36,0,0,.15.26-.09.22s-.18-.2-.12-.34a1.74,1.74,0,0,1,.59-.87c.13-.09.3-.17.08-.34a2.44,2.44,0,0,1,.73-1.07,25,25,0,0,1,1.93-2.4c.53,0,.6.19.49,1Z"/><path class="cls-1" d="M208,63.72l-2.37-.8a1.35,1.35,0,0,1-.26-.15c.15-.36.45-.28.71-.23a3.37,3.37,0,0,0,2.37-.32,2.78,2.78,0,0,1,1.19-.29,4.93,4.93,0,0,0,2-.45,4.76,4.76,0,0,1,1.34-.27.35.35,0,0,1,.47.25l-.1.28a6.75,6.75,0,0,1-3.11,1.14A22.22,22.22,0,0,0,208,63.72Z"/><path class="cls-6" d="M197.81,66.13c0-.2.24-.4,0-.6.06-.26.3-.3.5-.36,1.66-.49,3.38-.71,5-1.27a.34.34,0,0,1,.48.21c.18.24.41.18.64.1a1.68,1.68,0,0,1,.7-.1,1.74,1.74,0,0,1-2,.77.53.53,0,0,0-.34.07,11.09,11.09,0,0,1-3.75,1C198.66,66.07,198.2,65.84,197.81,66.13Z"/><path class="cls-29" d="M306.76,116.76c-.17.25-.48.23-.71.38a22.36,22.36,0,0,1,.29-3.65,6.12,6.12,0,0,0,.08-2c0-.73,0-1.47,0-2.2,0-.45,0-.85-.58-1-.24,0-.29-.21-.12-.39s.43-.72.8-.95a5.77,5.77,0,0,0,0,2c.05.27.09.5.36.63s.09.44.09.67c0,1.08-.18,2.15-.28,3.23,0,.48.06,1,0,1.47a4.7,4.7,0,0,1-.18,1C306.41,116.32,306.3,116.66,306.76,116.76Z"/><path class="cls-26" d="M318.89,130.69c0,.19.08.25.26.1a3.1,3.1,0,0,0,.75-.82c.12-.21.24-.44.55-.49,0,.34-.45.53-.21.89a28.32,28.32,0,0,0-2,2.79,1.71,1.71,0,0,1-.77.92c-.17.08-.32.19-.5.07s-.15-.35-.1-.54a5.45,5.45,0,0,1,1-1.65c.13-.18.24-.36.36-.55Z"/><path class="cls-30" d="M299.44,41.4c.06-.26.36-.4.36-.69a.48.48,0,0,1,.44-.42,17.38,17.38,0,0,1,3.51-.58.49.49,0,0,1,.23.06c.35.49.76.17,1.15.07a.51.51,0,0,1,.2.16,1,1,0,0,1,.11.33,1.83,1.83,0,0,1-1.19.46,17.38,17.38,0,0,0-2.76.5A11.59,11.59,0,0,1,299.44,41.4Z"/><path class="cls-31" d="M347.09,109.21c-.22-.29-.18-.71-.49-1a11,11,0,0,1,1.43-1.88,17.17,17.17,0,0,0,1.22-1.59c.27.13.17.62.59.6C349,106.72,348,108,347.09,109.21Z"/><path class="cls-32" d="M323.43,110.64a.58.58,0,0,1,.52.28,5.78,5.78,0,0,1-1.64,2.12,1.12,1.12,0,0,0-.41.5l-1.32,1.33a.63.63,0,0,0-.63-.26A43.74,43.74,0,0,1,323.43,110.64Z"/><path class="cls-16" d="M222.15,58.59c.21,0,.41,0,.43.29,0,.62.43.66.91.54a2.67,2.67,0,0,1-1.91.34c-.24,0-.5-.07-.68.08a3.12,3.12,0,0,1-1.63.74c-.12,0-.25.11-.35.08-.73-.22-1.33.32-2,.34,0-.15.21-.23.17-.44l-.56,0c-.12-.42.22-.48.47-.54,1.07-.26,2.11-.6,3.19-.82A8.21,8.21,0,0,0,222.15,58.59Z"/><path class="cls-33" d="M307.8,94.09c.13.08.24.21.19.34-.21.68,0,1.4-.29,2.07a3.17,3.17,0,0,0,0,1.3,4.06,4.06,0,0,1-.1,1.76,2.81,2.81,0,0,0-.1,1.53,1.4,1.4,0,0,1-.17.92.2.2,0,0,1-.25,0,3.76,3.76,0,0,1,0-1.53c.13-1.83.18-3.66.17-5.49a1.67,1.67,0,0,1,.2-1.19C307.71,93.74,307.62,94.09,307.8,94.09Z"/><path class="cls-34" d="M314,109.08c0-.16-.08-.21-.22-.12a.57.57,0,0,1-.6,0,19.35,19.35,0,0,1,2.17-2.69,7.33,7.33,0,0,1,1.31-1.62c.13.3-.11.7.23,1Z"/><path class="cls-35" d="M305.8,120.86c.58-.13.59-.59.59-1a.66.66,0,0,1,.11.57c-.42,1.73-.23,3.53-.56,5.27-.15.78-.23,1.57-.45,2.33-.06.21-.12.43-.36.39s-.2-.31-.17-.48c.08-.51.17-1,.3-1.52A24.3,24.3,0,0,0,305.8,120.86Z"/><path class="cls-17" d="M307.85,85.58c.17-.11.25-.32.47-.35.27.15.71.19.48.69a2,2,0,0,0-.4,1.15,4,4,0,0,1-.3,1.63c-.17.41-.33.26-.5,0a.42.42,0,0,0-.56-.15c-.22.08-.45-.08-.65-.19.28-.37.86-.65.36-1.25A1.59,1.59,0,0,0,307.85,85.58Z"/><path class="cls-36" d="M335.8,80.77c.24.38.58.11.87.14-.55,1.14-1.61,1.9-2.31,2.93a2,2,0,0,1-.58.66c-.13-.27-.3-.47-.64-.38l1.53-2.06a3.25,3.25,0,0,0,.62-1C335.38,80.74,335.58,80.76,335.8,80.77Z"/><path class="cls-37" d="M342.79,87.88c-.13-.21-.26-.24-.4,0l-.33.56c-.23-.18.14-.47-.17-.59.84-1.13,1.67-2.27,2.5-3.4a2.83,2.83,0,0,1,.3-.3c.21-.15.43-.21.61,0s.1.43-.13.59c-.19.8-.91,1.23-1.35,1.86A3.65,3.65,0,0,1,342.79,87.88Z"/><path class="cls-30" d="M309.5,62.78l.4.12c-.25,1.35-.11,2.74-.4,4.08a5.65,5.65,0,0,0,.08,1.59,2,2,0,0,1,0,.65c-.23,0,0-.3-.23-.36-.19.09,0,.36-.2.45-.23-.1,0-.37-.18-.5-.09.31,0,.64-.15.93a26.15,26.15,0,0,1,.65-6.66A1.51,1.51,0,0,0,309.5,62.78Z"/><path class="cls-38" d="M310.12,55.71H310c-.53-.14-.8.32-1.17.53-.22.12-.43.27-.64.41s-.34.12-.44-.08.11-.42.22-.62a23.27,23.27,0,0,1,2.14-2.19c.22,0,.49-.15.66.12s0,.47-.15.7S310.34,55.35,310.12,55.71Z"/><path class="cls-39" d="M40.85,75.86a.56.56,0,0,1-.71-.47.25.25,0,0,1,.15-.28c.24-.06.42-.09.54-.41a.79.79,0,0,1,1-.58,7.68,7.68,0,0,1,.78.6c.21.18.34.38.2.66l-.35.72C41.88,76.09,41.32,76.29,40.85,75.86Z"/><path class="cls-40" d="M310.1,127.07a1.44,1.44,0,0,1,.52.27,3.05,3.05,0,0,1-1.6,1.91.37.37,0,0,0-.33.24c-.19.31-.35.63-.56.91a1.86,1.86,0,0,1-.48.33,1,1,0,0,1,.34-1.3A16.32,16.32,0,0,0,310.1,127.07Z"/><path class="cls-41" d="M307.6,88.7c.17.1.33.18.5,0,.18.72-.21,1.41-.1,2.15.07.47,0,1,0,1.47a2.85,2.85,0,0,1-.24,1.77l-.34-.26c0-1,0-2,0-3A8.77,8.77,0,0,0,307.6,88.7Z"/><path class="cls-42" d="M339.15,106.92c.08.27.2.48.51.51a19.54,19.54,0,0,1-1.69,2.26c-.11-.39-.42-.4-.74-.37A13.85,13.85,0,0,1,339.15,106.92Z"/><path class="cls-20" d="M310.12,55.71a1.35,1.35,0,0,1,.49-1.53c0-.32-.44-.17-.5-.43l.09-.1c.23-.32,0-.69.11-1,0-.14-.14-.38.17-.4v.35c.11.19.34.11.49.23h0c.44.32.1.72.1,1.08a3.45,3.45,0,0,0-.21.94C310.67,55.16,310.63,55.64,310.12,55.71Z"/><path class="cls-43" d="M345.17,84.74c.14-.44-.14-.55-.48-.61a10.86,10.86,0,0,1,1.68-2c-.07.29-.31.61.12.84C346,83.52,345.88,84.34,345.17,84.74Z"/><path class="cls-44" d="M307.59,57.48c-.35.41-.57,1-1.3.84-.36,0-.36-.12-.24-.38s.6-.58.84-.93C307.62,56.77,307.71,56.83,307.59,57.48Z"/><path class="cls-45" d="M307.1,102l.25,0a2.83,2.83,0,0,0-.05,1.23,1.86,1.86,0,0,1-.19,1.42c-.1-.1-.19-.21-.35-.12a3.71,3.71,0,0,1,.23-1.62A1.88,1.88,0,0,0,307.1,102Z"/><path class="cls-46" d="M307.59,57.48c.05-.57-.36-.47-.7-.47A6.43,6.43,0,0,1,308,55.94c0,.26-.3.61.22.7C307.83,56.81,307.74,57.16,307.59,57.48Z"/><path class="cls-47" d="M340.84,115.8a.54.54,0,0,1-.37.36c-.08-.15-.2-.29-.13-.49s0-.83.4-.8,0,.49.06.75A1.16,1.16,0,0,0,340.84,115.8Z"/><path class="cls-48" d="M307.61,39.6c.46.15.88-.37,1.35-.09l-1.72.63a.86.86,0,0,1-.75,0,.44.44,0,0,1,.06-.16C306.88,39.77,307.13,39.37,307.61,39.6Z"/><path class="cls-38" d="M310.48,52.23c-.24.44.06,1-.28,1.42a19.78,19.78,0,0,1,.15-2A1,1,0,0,1,310.48,52.23Z"/><path class="cls-49" d="M358,94.87a.2.2,0,0,1-.18.25.25.25,0,0,1-.31-.26c0-.12,0-.25.17-.26S358,94.71,358,94.87Z"/><path class="cls-1" d="M206.57,64c.39-.39.88-.2,1.34-.21A3,3,0,0,1,206.57,64Z"/><path class="cls-21" d="M305.44,40.33l-.24-.23c.1-.46.48-.4.78-.37s.58-.08.57.35l-.06.05A1.5,1.5,0,0,0,305.44,40.33Z"/><path class="cls-1" d="M311.92,40.93c-1.07-.61-.33-1.42-.25-2.15V40c.51-.19.76-.62,1.11-1,.84-.84,1.47-1.84,2.36-2.62a27.35,27.35,0,0,0,2-2.3,30.18,30.18,0,0,0,2.41-2.78c.55-.78,1.25-1.42,1.8-2.21s1.51-1.64,2.2-2.51c1-1.28,2.25-2.3,3.32-3.51,2-2.25,4.17-4.35,6.27-6.5,1.59-1.62,3.24-3.17,4.84-4.79.28-.06.58-.09.71.23s-.12.47-.35.6c-.39.59-1.09.87-1.42,1.54a2.79,2.79,0,0,1-1,.95,21.2,21.2,0,0,0-2.77,2.67c-1.05,1-2.1,2-3.17,3s-2.21,2.35-3.31,3.52c-.69.74-1.4,1.46-2.09,2.21s-1.28,1.35-1.85,2.08-1.4,1.71-2.09,2.57c-.84,1-1.74,2-2.59,3-.41.5-.76,1-1.13,1.54a24,24,0,0,1-2.32,2.41A32.83,32.83,0,0,0,311.92,40.93Z"/><path class="cls-23" d="M272.32,40a.36.36,0,0,1,0-.1c1.14-.09,2.21-.54,3.33-.72,1.74-.3,3.49-.59,5.22-.93,2.21-.43,4.45-.67,6.66-1.14,1.33-.28,2.71-.37,4.06-.61,1.12-.2,2.27-.26,3.36-.5,1.8-.41,3.69-.43,5.41-1.17a2.32,2.32,0,0,1,1-.2c.8,0,1.58-.16,2.38-.14.39-.06.85,0,.87.41s-.45.57-.87.59a1.11,1.11,0,0,0-.41,0c-1.14.55-2.39.38-3.58.56-.87.14-1.68.5-2.56.63a1.51,1.51,0,0,1-.67,0,2.64,2.64,0,0,0-1.6.09,23.84,23.84,0,0,1-3.91.82,16.66,16.66,0,0,1-2.07.3,10.75,10.75,0,0,0-2.7.58,31.64,31.64,0,0,1-6.18,1c-1.27.08-2.44.63-3.71.54a1.46,1.46,0,0,0-.63.2,13.07,13.07,0,0,1-2.9.64.52.52,0,0,1-.34-.09C272.22,40.51,272.28,40.24,272.32,40Z"/><path class="cls-50" d="M311.55,81.12l3.35-4.2c.13-.16.22-.4.51-.35a.13.13,0,0,0,.16-.13c-.1-.66.44-1,.78-1.34.54-.64,1-1.36,1.49-2,.12-.14.21-.35.47-.3a.16.16,0,0,0,.18-.12c.22-1.18,1.14-2,1.79-2.86s1.35-1.81,2-2.71c1.85-2.47,3.65-5,5.63-7.33.23-.27.34-.64.66-.84.59-.14.65-.09.62.5a29.23,29.23,0,0,1-1.84,2.43c-1.39,1.49-2.34,3.32-3.75,4.79-.51.53-.79,1.23-1.3,1.78-1.38,1.51-2.46,3.26-3.72,4.86-1.1,1.41-2.25,2.81-3.27,4.31a13.23,13.23,0,0,1-2.24,2.61,1.56,1.56,0,0,0-.23.34l-.71,1.18c-.07.09-.18.06-.27.07-.5.08-.55,0-.39-.46A.87.87,0,0,1,311.55,81.12Z"/><path class="cls-6" d="M348,36.13a20.72,20.72,0,0,1-1.53,2.21c-1.24,1.83-2.72,3.47-4.07,5.23-.69.9-1.57,1.67-2.25,2.59-1,1.3-2.14,2.46-3,3.86A3.89,3.89,0,0,1,336,51.28a3.53,3.53,0,0,0-.92.93c-.84,1.17-1.78,2.26-2.72,3.36-.33.16-.41,0-.41-.31a1.59,1.59,0,0,1,.17-.55,39.62,39.62,0,0,1,2.8-3.41,25.13,25.13,0,0,0,1.69-2c.59-.84,1.36-1.57,2-2.4A16.83,16.83,0,0,1,340.1,45c1.32-1.39,2.4-3,3.63-4.44s2.26-3.08,3.38-4.63l.22-.29C348,35.47,348.13,35.58,348,36.13Z"/><path class="cls-50" d="M340.26,62.78c-.93,1-1.84,2.09-2.79,3.11-.68.74-1.19,1.61-1.89,2.32-1,1.05-1.93,2.21-2.88,3.31-.66.75-1.24,1.6-1.85,2.39-1.11,1.43-2.36,2.77-3.36,4.27a31.94,31.94,0,0,0-2.12,2.92,5.43,5.43,0,0,1-.72.88c-.53.12-.59,0-.5-.5.81-1.23,1.6-2.47,2.51-3.63s1.8-2.29,2.68-3.44c.18-.25.42-.43.6-.66.77-.94,1.48-1.92,2.3-2.82,1.3-1.43,2.4-3,3.76-4.41,1-1,1.76-2.22,2.77-3.21a2.28,2.28,0,0,1,.5-.43,5.29,5.29,0,0,0,.54-.25C340,62.51,340.2,62.47,340.26,62.78Z"/><path class="cls-26" d="M335.44,38.63a18.46,18.46,0,0,0-1.67,2.25c-.42.49-.83,1-1.28,1.48a10.24,10.24,0,0,0-1,1.47c-.66,1-1.46,1.88-2.2,2.8l-1.77,2.25c-.67.86-1.28,1.76-2,2.57-.88,1-1.67,2.08-2.56,3.07-.56.62-1,1.3-1.61,1.91-.57.06-.62,0-.49-.62.82-1,1.61-2,2.5-3,.41-.44.74-.94,1.12-1.4,1-1.24,2.06-2.48,3-3.79s1.82-2.26,2.71-3.41,1.93-2.58,2.9-3.86a13.64,13.64,0,0,1,1.31-1.62c.21-.29.62-.32.83-.62a.18.18,0,0,1,.27,0A.41.41,0,0,1,335.44,38.63Z"/><path class="cls-51" d="M322.27,19.59c-.93,1.4-2.06,2.64-3.09,3.95-.85,1.08-1.76,2.11-2.64,3.15a4.24,4.24,0,0,1-.63.64c-.93.68-1.36,1.85-2.36,2.48a2.14,2.14,0,0,1-1,.45c-.26-.17-.48-.44-.84-.36,0-2.49.11-5,.23-7.44.17-.24.37-.33.63-.12a6.65,6.65,0,0,1,.07,2.81,20.94,20.94,0,0,0-.08,4.42l1.15-.93a20.25,20.25,0,0,0,2.72-2.84,29.71,29.71,0,0,0,2-2.66c.48-.73,1.08-1.37,1.63-2.05l1.67-2C322.17,19,322.31,19.21,322.27,19.59Z"/><path class="cls-52" d="M325.62,37.23c-1.51,2.05-3,4.13-4.54,6.13a39.35,39.35,0,0,1-3.41,4c-.51.49-.77,1.22-1.37,1.64a30,30,0,0,0-3.22,2.84c-.35.33-.46.85-.91,1.09-.21-.13-.62.08-.63-.38a7.25,7.25,0,0,1,1.53-1.5,51.19,51.19,0,0,0,3.69-3.82c1.1-1.2,2.09-2.48,3.11-3.74a34.33,34.33,0,0,0,2.21-2.88,19.6,19.6,0,0,1,1.69-2.16c.33-.39.35-1,.89-1.23.15-.09.22-.27.37-.36C325.35,36.66,325.61,36.83,325.62,37.23Z"/><path class="cls-53" d="M312.51,15c-.24-.55.07-1.08.1-1.61.12-1.65.28-3.29.49-4.93a8.22,8.22,0,0,1,.62-3c.1-.18.19-.48.44-.42s.16.4.18.62c.12,1.74,0,3.48,0,5.23,0,1.1-.24,2.21-.16,3.33,0,.29-.22.5-.39.72-.28.37-.62.72-.47,1.27a.54.54,0,0,1-.18.48c-.56,0-.76-.12-.66-.62S312.38,15.33,312.51,15Z"/><path class="cls-2" d="M339.63,20c-1.36,1.53-2.63,3.13-4,4.65a24.34,24.34,0,0,0-2.46,3,19.31,19.31,0,0,1-1.31,1.56l-1.79,2.22c-.31.15-.44,0-.4-.28a1.9,1.9,0,0,1,.14-.57,1,1,0,0,1,.27-.65c2-2.24,3.72-4.78,5.9-6.9.85-.83,1.6-1.76,2.44-2.61a12.75,12.75,0,0,0,.87-1.12c.22-.1.37-.05.36.2S339.7,19.87,339.63,20Z"/><path class="cls-2" d="M323.82,9.15a47.29,47.29,0,0,1-3.33,3.74c-1.24,1-2.2,2.39-3.51,3.37-.45.33-.71.87-1.22,1.14a.32.32,0,0,0-.4.06c-.15.1-.35.2-.48-.06.21-.46.69-.65,1-1,1.47-1.67,3.14-3.15,4.61-4.81A23.26,23.26,0,0,0,322.86,9a2.77,2.77,0,0,1,.35-.33C323.74,8.55,323.8,8.6,323.82,9.15Z"/><path class="cls-32" d="M322.27,19.59l-.52-.51A6.26,6.26,0,0,1,323,17.56a25.52,25.52,0,0,0,1.94-2.1,26.22,26.22,0,0,1,1.94-2c.53-.54,1-1.11,1.5-1.69.09,0,.16-.12.25-.16s.38-.31.56-.06,0,.44-.2.58a16,16,0,0,1-1.82,2.12c-1,1-1.89,2-2.8,3.07C323.67,18.09,323,18.84,322.27,19.59Z"/><path class="cls-37" d="M344.7,56.42c2.19-2.42,4-5.13,6.23-7.56.15-.08.28-.28.47-.08s0,.3-.08.43-.25.25-.37.39c0,.38-.33.58-.53.84-1.62,2.12-3.22,4.25-5,6.27-.26.3-.63.5-.78.89-.21.1-.39.1-.5-.13a.32.32,0,0,1,.17-.49C344.63,56.88,344.59,56.61,344.7,56.42Z"/><path class="cls-31" d="M329.79,30.6c.17.26-.1.65.26.85A4.71,4.71,0,0,1,328.9,33a34.44,34.44,0,0,0-3,3.82c-.09.13-.19.25-.29.37-.31-.34-.64-.1-1,0a32,32,0,0,1,3.28-4.4,2,2,0,0,0,.45-.62C328.65,31.49,329.33,31.14,329.79,30.6Z"/><path class="cls-54" d="M311.69,29.9a1.62,1.62,0,0,0,.11-.28c.05-.2,0-.48.3-.51s.15.3.21.44.36.27.57.36c0,.22-.34.13-.35.35a4.32,4.32,0,0,0-.21,2.11c0,.3.26.36.52.35h1c.11,0,.25,0,.27.18a.28.28,0,0,1-.18.28,3.73,3.73,0,0,1-.71.31c-.89.25-1,.4-1,1.33-.86-.47-.28-1.17-.26-1.83-.39.25-.7.46-.49,1a.47.47,0,0,1-.11.5c-.26-.43-.66-.17-1-.21-.79-.21-.85-.34-.4-.85.47,0,.86-.25,1.31-.31.25,0,.2-.29.24-.48C311.63,31.71,311.46,30.78,311.69,29.9Z"/><path class="cls-5" d="M339,32.51c.59-.74,1-1.59,1.63-2.32s1.11-1.23,1.58-1.92A13.91,13.91,0,0,1,344,26.16c.33-.09.51,0,.51.39-1.43,1.75-2.72,3.6-4,5.45a6,6,0,0,1-.79.8c-.13.19-.22.46-.53.32S338.93,32.74,339,32.51Z"/><path class="cls-49" d="M328.13,4c.16-.18.32-.35.47-.53s.18-.21.16-.24c-.36-.61.24-.77.5-1.06C330,1.4,330.93,1,331.61.22a.72.72,0,0,1,.5-.18c.17,0,.38-.12.48.09s-.06.3-.15.42a20.78,20.78,0,0,1-3.7,3.91C328.16,4.68,328.06,4.59,328.13,4Z"/><path class="cls-2" d="M312.9,66.27a.59.59,0,0,0-.48-.61c.45-.19.46-.7.75-1,1.05-1.19,2.06-2.43,3.1-3.64.35-.41.71-.79,1.07-1.19.49-.2.58-.15.58.33-.84,1.15-1.74,2.27-2.63,3.38-.6.74-1.26,1.46-1.93,2.14C313.18,65.85,313.08,66.09,312.9,66.27Z"/><path class="cls-55" d="M339,32.51c.07.41.28.51.64.29a1.75,1.75,0,0,1-.56,1c-1.07.95-1.62,2.3-2.61,3.32a4.09,4.09,0,0,0-1.06,1.47c0-.07,0-.34-.14-.18a1.14,1.14,0,0,1-.95.32c.37-.64.89-1.16,1.31-1.76C336.73,35.47,337.94,34,339,32.51Z"/><path class="cls-56" d="M338.33,12.6c.45-.52-.15-.59-.36-.83a31.67,31.67,0,0,1,2.42-2.63,4,4,0,0,0,.48-.6,2.69,2.69,0,0,1,1.44-1.11c.11,0,.23-.1.33,0s.08.26,0,.38a3.55,3.55,0,0,1-.6.81,31.24,31.24,0,0,0-2.56,3C339.13,12,338.85,12.43,338.33,12.6Z"/><path class="cls-57" d="M333.66,6.39a3.46,3.46,0,0,1,.73-.7,6,6,0,0,0,1.13-1.28,14.81,14.81,0,0,1,2-2.17A1.22,1.22,0,0,1,338,2c.14-.06.32-.15.44,0s0,.31-.07.43c-.81,1-1.57,2-2.47,2.87-.62.61-1.21,1.24-1.84,1.84-.23.22-.41.13-.45-.14S333.49,6.57,333.66,6.39Z"/><path class="cls-50" d="M328.13,4c.21.15.31.44.61.48-.67.62-1.09,1.49-2,1.86a2.13,2.13,0,0,0-.86.8,17.86,17.86,0,0,1-2.05,2,1.64,1.64,0,0,0-.61-.5l.83-.73c.16,0,.2-.11.24-.23C325.67,6.56,326.83,5.2,328.13,4Z"/><path class="cls-3" d="M312.55,22.34c-.19.14-.33.57-.63.12l-.17-.17c-.16-.12-.49.06-.54-.24a1,1,0,0,1,.22-.84,3.6,3.6,0,0,0,.61-1.28.66.66,0,0,0,.14-.32c.12-.48.4-.64.85-.42l.43-.1c.13-.06.09-.39.35-.25s.19.28.1.45-.12.19-.18.29a4.44,4.44,0,0,0-.8,2.33C312.93,22.14,312.71,22.23,312.55,22.34Z"/><path class="cls-58" d="M348.75,65.64c-.34-.14-.61.36-1,.11.71-1,1.64-1.73,2.38-2.67a14.85,14.85,0,0,1,2-2.08c.08-.06.14-.15.22-.21s.39-.34.58-.16,0,.44-.17.61l-2.68,3h0C349.62,64.66,349.35,65.31,348.75,65.64Z"/><path class="cls-58" d="M309.9,33.39c-.15.54.16.62.58.58.07.4-.3.41-.5.46a41.29,41.29,0,0,1-5.85,1c-.24,0-.5,0-.5-.33l.77-.18a1.33,1.33,0,0,0-.64-.45,4.35,4.35,0,0,1,1.92-.33A28.87,28.87,0,0,0,309.9,33.39Z"/><path class="cls-59" d="M332.07,54.71c.11.28,0,.63.24.86-.41.78-1.17,1.3-1.61,2s-1.14,1.1-1.48,1.82a.73.73,0,0,0-.62-.5A45.22,45.22,0,0,1,332.07,54.71Z"/><path class="cls-58" d="M317.92,60.13c-.1-.27-.46-.08-.58-.33a9.63,9.63,0,0,1,1.46-1.72c.72-.71,1.27-1.57,2-2.27a.62.62,0,0,0,.49.62c-.86,1.11-1.93,2-2.72,3.2A1.36,1.36,0,0,1,317.92,60.13Z"/><path class="cls-56" d="M340.26,62.78l-1,.1c1.28-1.37,2.43-2.85,3.6-4.32l.08-.08c.17-.2.37-.35.61-.16s.05.41-.07.61C342.48,60.27,341.32,61.48,340.26,62.78Z"/><path class="cls-32" d="M321.53,86.29c-.24-.32-.45-.23-.58.07a5.45,5.45,0,0,1-.49.81.62.62,0,0,1-.76.31,16.52,16.52,0,0,1,2.67-3.7c.11-.19.27-.31.48-.19s.25.33.12.55C322.74,85,321.9,85.5,321.53,86.29Z"/><path class="cls-41" d="M333.66,6.39c.13.24,0,.64.39.72a9.42,9.42,0,0,1-2.11,2.21l-.57.42c-.11.17-.25.21-.39,0s-.11-.43,0-.64c.69-.7,1.35-1.43,2.09-2.09C333.34,6.85,333.36,6.52,333.66,6.39Z"/><path class="cls-56" d="M339.63,20c-.53,0-.07-.56-.36-.72l2.43-2.62c.19-.1.31-.3.49-.41a.38.38,0,0,1,.44,0c.16.12.11.27,0,.41l-2.28,2.53a.81.81,0,0,0-.58.62Z"/><path class="cls-60" d="M313,19.19c-.45.08-.68.46-1,.74a33.17,33.17,0,0,1,.47-5c-.13.43.33.79.12,1.26-.05.14.31.32.5.46a8.33,8.33,0,0,1-.26,1.56A1,1,0,0,0,313,19.19Z"/><path class="cls-61" d="M331,9.15c.06.23,0,.55.35.59a5.76,5.76,0,0,1-2.4,2.39V11.6l-.61.17Z"/><path class="cls-62" d="M348,36.13c-.13-.32-.42-.4-.71-.48.58-.88,1.38-1.6,1.9-2.54.42.08.26.55.5.75-.24.69-1,1-1.2,1.73C348.44,35.83,348.34,36.08,348,36.13Z"/><path class="cls-34" d="M323,84.14c-.09-.31-.24-.51-.6-.36a8.5,8.5,0,0,1,1.78-2.3.57.57,0,0,0,.5.5A8.78,8.78,0,0,1,323,84.14Z"/><path class="cls-46" d="M349.73,33.86c-.55,0-.42-.44-.5-.75l1.11-1.4.08-.09c.23-.28.6-.42.83-.18s-.12.49-.28.71C350.55,32.71,350.14,33.29,349.73,33.86Z"/><path class="cls-46" d="M311.55,81.12c0,.16.56.24.08.48.13.21.35.1.53.13-.82.75-1.36,1.75-2.16,2.52a.2.2,0,0,1-.11-.24,1.14,1.14,0,0,1,.31-1.09C310.66,82.32,311.1,81.72,311.55,81.12Z"/><path class="cls-63" d="M344.47,26.55l-.51-.39c.55-.64,1.11-1.28,1.65-1.94.2-.25.46-.52.72-.25s-.06.54-.25.76C345.55,25.34,345,25.94,344.47,26.55Z"/><path class="cls-54" d="M313.73,19.58c-.12-.15.43-.67-.27-.49a3.32,3.32,0,0,1,1.42-1.69c.15-.08.31-.16.45-.25s.22-.29.39-.19,0,.29,0,.44C315,18.06,314.55,19,313.73,19.58Z"/><path class="cls-64" d="M351,49.6c.08-.13.18-.26.26-.39.2-.35.05-.42-.28-.35.49-.5,1-1,1.46-1.49.09-.09.22-.24.36-.15s.09.31,0,.44a5.27,5.27,0,0,1-.52.72A6.49,6.49,0,0,1,351,49.6Z"/><path class="cls-21" d="M309.89,84l.11.24a11.36,11.36,0,0,1-1.2,1.67c-.48,0-.34-.44-.48-.69l.24-.16C309,84.7,309.15,84,309.89,84Z"/><path class="cls-34" d="M343.49,58.93c0-.58,0-.61-.62-.37l1.83-2.14c0,.27.09.48-.24.7s.12.32.22.48A7.55,7.55,0,0,1,343.49,58.93Z"/><path class="cls-64" d="M342.65,16.69c-.06-.3-.23-.4-.5-.22a1.07,1.07,0,0,1-.45.23c.26-.51.84-.69,1.19-1.13a.44.44,0,0,1,.69,0c.21.23,0,.41-.18.54S342.9,16.5,342.65,16.69Z"/><path class="cls-38" d="M311.54,52.55c.18.18.76-.32.63.38a5.25,5.25,0,0,0-1.09,1c-.24-.34-.08-.72-.1-1.08C311.22,52.85,311.35,52.62,311.54,52.55Z"/><path class="cls-2" d="M339.79,19.84c-.11-.49.07-.72.58-.62C340.29,19.53,340,19.68,339.79,19.84Z"/><path class="cls-38" d="M311,52.81c-.34.3-.54.28-.49-.23.17,0,.35-.24.5,0Z"/><path class="cls-2" d="M324.28,7.69l.29,0c0,.14,0,.35-.14.42s-.29-.05-.39-.17Z"/><path class="cls-23" d="M138.25,71.44c-.74.29-1.45-.15-2.18-.1-1.11.09-2.21-.11-3.31-.09-.35,0-.68.22-1,.15a1.18,1.18,0,0,0-.56,0c-1.07.17-2.16,0-3.22.29a12.76,12.76,0,0,1-2.62,0,8.79,8.79,0,0,1-3-.19.48.48,0,0,0-.42.08,1.33,1.33,0,0,1-1,.12,12.1,12.1,0,0,0-3.12-.17,5.89,5.89,0,0,0-1.11,0,1,1,0,0,1-.39,0,22.58,22.58,0,0,0-2.33-.08,32.64,32.64,0,0,1-3.81-.25,7.18,7.18,0,0,0-1.72.26c-.13,0-.29.11-.43.07a17.52,17.52,0,0,0-2.8-.14H105a5.59,5.59,0,0,1-1.58-.11c-.57-.19-1.17.22-1.74-.06-.24-.33-.34-.65.1-.91a4.52,4.52,0,0,0,1-.08.57.57,0,0,1,.66.14,1.38,1.38,0,0,0,1,0c.21-.09.45-.07.67-.18a.69.69,0,0,1,.89.19h.36c2.31,0,4.62.09,6.93.15,2,0,3.94,0,5.91,0,3.23,0,6.46.25,9.69.14,1,0,2.07.08,3.08,0,.77,0,1.54,0,2.31,0a6.55,6.55,0,0,1,1.65.08,14.59,14.59,0,0,0,2.09,0,.35.35,0,0,1,.24-.08c.21.13.46.25.42.55S138.44,71.41,138.25,71.44Z"/><path class="cls-10" d="M164.09,74.53c0-.1,0-.22,0-.29.55-.64.27-1.24-.07-1.85A1.63,1.63,0,0,1,164,71.3a14.42,14.42,0,0,1,.35-1.76,3.41,3.41,0,0,0,.22-1.5c0-.19.15-.4.23-.6.77.19,1.36-.39,2.08-.46.27,0,.5-.13.61.22,0,.1,0,.26.11.3.54.11.55.46.43.88a1.48,1.48,0,0,0-.56,1.71c.17.49,0,.7-.49.88.27,0,.36.2.39.43.09.49.29.95.33,1.44,0,0,0,.11,0,.12.86.34.05,1.08.38,1.59.17.26-.46.71-.95.71-.08.22.13.5-.1.71-.4.22-.56-.09-.76-.34s-.15-.4-.36-.33-.18.32-.19.51,0,.64,0,1,0,.7-.47.74a.36.36,0,0,1-.26-.36,3,3,0,0,0-.88-1.91A.54.54,0,0,1,164.09,74.53Z"/><path class="cls-24" d="M219.2,53.63c-.27-.22-.46-.06-.64.14a3.25,3.25,0,0,0-1.22.25,7.63,7.63,0,0,1-1.71.49c-1.85.37-3.68.82-5.49,1.33a3,3,0,0,1-.59.1s-.08-.06-.08-.08c.23-.61-.23-.66-.62-.76a6.71,6.71,0,0,0,2-.4c2.6-.73,5.24-1.28,7.87-1.89a25.61,25.61,0,0,0,3.35-.83,1.08,1.08,0,0,0,.59-.06,43.62,43.62,0,0,1,4.45-1.32c1.73-.55,3.5-1,5.26-1.37.45-.11.9-.17,1.35-.25a.16.16,0,0,1,.22-.1,19,19,0,0,1,3.62-.85c.4.23.59.51.28.94-1.83.33-3.57,1-5.36,1.43a6.53,6.53,0,0,1-2.6.44,1.37,1.37,0,0,0-1.53.41.35.35,0,0,1-.26.11,1.2,1.2,0,0,0-1,.08,2.87,2.87,0,0,1-1.59.41.43.43,0,0,0-.29.07,26.11,26.11,0,0,1-3.52,1.41,6.25,6.25,0,0,1-2,.25C219.5,53.6,219.34,53.5,219.2,53.63Z"/><path class="cls-65" d="M47.84,68a1.5,1.5,0,0,1,1.77,0c.31.23.14.49,0,.74,0,0,0,.09,0,.11a1.53,1.53,0,0,0-.41,2,4.52,4.52,0,0,0,1.95,2.21,4.09,4.09,0,0,0,1.79.76.71.71,0,0,1,.64.7c0,.43-.34.44-.63.48a6,6,0,0,1-5.41-1.57A3.32,3.32,0,0,1,46.71,70c.13-.48.38-.91.49-1.4S47.36,67.91,47.84,68Z"/><path class="cls-66" d="M180.29,62.41a.54.54,0,0,0,.17-.42.8.8,0,0,1,1.28-.59,1.69,1.69,0,0,0,.83.31c.15.08.37,0,.4.28a.65.65,0,0,0,.29.73,17.2,17.2,0,0,0,2.3,2,2.16,2.16,0,0,1,.83.84c-.2,1-.67,1.49-1.39,1.38a12.24,12.24,0,0,1-4.39-3.32,5.48,5.48,0,0,0-.4-.44C180.09,62.94,179.86,62.64,180.29,62.41Z"/><path class="cls-67" d="M167.33,67.2a.93.93,0,0,0-1.08.29c-.29.34-.83.47-1.22.76-.17.12-.26-.13-.22-.29s.23-.35,0-.52A2.13,2.13,0,0,1,166,67c.27,0,.55.07.8-.11,0-.48.33-.6.77-.66a9.47,9.47,0,0,0,2.41-.71c.87-.3,3.72-1.14,3.87-.7.18.13-.64.44-.73.78s-2.92.84-3.18,1a9.45,9.45,0,0,1-1.67.93C168,67.58,167.52,67.75,167.33,67.2Z"/><path class="cls-24" d="M151.72,71.92c-1.46.52-2.92.1-4.38,0a19.58,19.58,0,0,1-3.91-.27,8.64,8.64,0,0,0-3.58,0,.62.62,0,0,0-.26-.21.34.34,0,0,1-.25-.36c0-.23.21-.27.4-.27,1.95,0,3.89.17,5.83.34a24.22,24.22,0,0,0,3.61.14,1.32,1.32,0,0,1,.65.11c.4.16.85,0,1.25.15C151.31,71.62,151.72,71.45,151.72,71.92Z"/><path class="cls-16" d="M49.49,68.77l.12-.72.72-.11h0c.5.18,1-.13,1.49-.06.19,0,.41,0,.55.18,1.06,0,2.13,0,3.2,0s2.12.14,3.19.13a2.93,2.93,0,0,1,.69.18,1.29,1.29,0,0,1-.83,1.21,2,2,0,0,0-1.8-.35.74.74,0,0,1-.36,0c-.7-.28-1.45.06-2.17-.19-.36-.12-.74.12-1.12.08a19.16,19.16,0,0,0-3,0C49.89,69.16,49.57,69.13,49.49,68.77Z"/><path class="cls-68" d="M155,72.37l-.23.13c-.09.07-.25,0-.29.18-.15.41-.44.31-.66.13a1.59,1.59,0,0,0-.75-.3c-.48-.09-.71-.51-1-.87s.08-.44.36-.37.64,0,.83.06a9,9,0,0,1,1.82.56C155.48,72.16,155.23,72.27,155,72.37Z"/><path class="cls-29" d="M170.44,65.87l-.23-.46a4.53,4.53,0,0,0,2.17-.47c1.37-.52,2.74-1.06,4.12-1.55.73-.25,1.49-.4,2.23-.6a6.47,6.47,0,0,1,1.56-.38c-.17.3.07.44.23.61a4.52,4.52,0,0,1-2.26.93s-.09,0-.12,0c-1.23.55-2.71.36-3.83,1.27a.54.54,0,0,1-.25.15c-1,.27-2,.69-3,.87C170.73,66.29,170.46,66.28,170.44,65.87Z"/><path class="cls-50" d="M182.8,62.05l-.23-.34a.86.86,0,0,0,.49-.13h0a7.74,7.74,0,0,0,1.71-.47c0-.13.07-.19.21-.14a1.69,1.69,0,0,0,1-.22,13.54,13.54,0,0,1,3.14-.74c.35,0,.66-.29,1-.24a.61.61,0,0,0-.24,1,1.36,1.36,0,0,1-.82.31,42.05,42.05,0,0,0-4.29,1.08c-.44.1-.89.18-1.34.29A.47.47,0,0,1,182.8,62.05Z"/><path class="cls-9" d="M20.94,65.77c1,.07,2,.09,3,.23.42.06.83,0,1.24,0a1.31,1.31,0,0,1,.84.21c0,.59-.61.8-.86,1.24-1.46-.33-2.95-.4-4.41-.63a1.09,1.09,0,0,1-.48-.24L20,66.33c-.12-.14-.23-.28-.13-.48s.28-.11.43-.12A1.38,1.38,0,0,1,20.94,65.77Z"/><path class="cls-10" d="M36.05,67.55l.48,0a8.87,8.87,0,0,0,1.46,0c.24,0,.48-.06.7,0h0c.08.09.18.07.28.08.46,0,.5.24.25.58s-.51.19-.71.39c-.2,0-.41.17-.62,0s-.37,0-.43.18a2.78,2.78,0,0,0,0,1.95,2.08,2.08,0,0,0,.49.94c.32.28.43.57.13.92a.63.63,0,0,1-.94.11,4.71,4.71,0,0,1-1.07-3.71,2.82,2.82,0,0,0,0-.82C36.05,68.07,35.63,67.84,36.05,67.55Z"/><path class="cls-67" d="M164,71.3a.71.71,0,0,1,.08,1.09,1.69,1.69,0,0,0-1.28-.28c-.57.07-1.11-.23-1.72-.14-.34,0-.6.23-.9.27-.19-.25-.59-.46-.44-.78s.61-.38,1-.43a9.62,9.62,0,0,1,2.88.27A1.87,1.87,0,0,0,164,71.3Z"/><path class="cls-32" d="M39,68.18c.3-.45-.32-.26-.35-.5a10,10,0,0,1,2.89,0c.9.1,1.82.06,2.73.07a1.53,1.53,0,0,1,.64.09c0,.31-.34.44-.49.68a3.68,3.68,0,0,1-2.33.27,5.09,5.09,0,0,0-1.65-.07,2.12,2.12,0,0,1-1.06-.06C39.22,68.55,39,68.49,39,68.18Z"/><path class="cls-28" d="M201.52,57.86c-.06-.5-.45-.58-.85-.62-.25-.21-.17-.3.11-.26a1.41,1.41,0,0,0,.86-.1,8.09,8.09,0,0,1,1.93-.57c1.22-.29,2.47-.5,3.71-.75-.22.26.15.4.12.63a12.59,12.59,0,0,1-3.46,1.1A9,9,0,0,0,201.52,57.86Z"/><path class="cls-69" d="M36.05,67.55c0,.34.4.36.47.64a1.65,1.65,0,0,1-1.55.26c-1-.19-2-.13-3-.24-.69-.08-1.39-.06-2.08-.19,0,0,0,0,0,0-.13-.25-.47-.5-.24-.78s.59-.14.88,0a1.17,1.17,0,0,0,1-.11Z"/><path class="cls-21" d="M153.06,71.55c-.23,0-.47-.06-.77-.1.27.41.5.78,1,.82.09,0,.23,0,.27.08.34.5.74.37,1.16.15-.3.19-.37.6-.73.73a3.43,3.43,0,0,0-.85-.13l-1.44-1.18a3.57,3.57,0,0,0-1.93-.35c-.06,0-.22,0-.18-.12s-.08-.11,0-.13c.59,0,1.31-.07,2-.07a5.8,5.8,0,0,1,1.3,0C153.16,71.35,153.31,71.56,153.06,71.55Z"/><path class="cls-70" d="M25.12,67.35c-.07-.65.4-.88.86-1.11.49.05,1-.13,1.43.25a.63.63,0,0,1,.4.88,2.63,2.63,0,0,0,0,.88,3.34,3.34,0,0,0,.84,1.87.27.27,0,0,1,.06.17c-.05.25.14.6-.23.72s-.44-.25-.62-.48A4.85,4.85,0,0,1,27,69c-.08-.29-.07-.59-.15-.88a.58.58,0,0,0-.66-.51c-.36,0-.75.22-1.09-.09A.17.17,0,0,1,25.12,67.35Z"/><path class="cls-22" d="M201.64,56.88c0,.2-.08.25-.3.24s-.5-.2-.67.12a2.16,2.16,0,0,0-.81.86c-1.06.24-2.1.58-3.15.83-.19,0-.38.16-.56,0a.55.55,0,0,1-.16-.6,5.1,5.1,0,0,1,2.52-.83A10.79,10.79,0,0,1,201.64,56.88Z"/><path class="cls-71" d="M27.53,68.29a1,1,0,0,1-.06-.91.88.88,0,0,0-.06-.89,15.37,15.37,0,0,1,3.43.57,2,2,0,0,0,.65,0c-.43.77-1.06.18-1.62.24-.1.16.19.3.06.46s-.25.23-.44.17a4.09,4.09,0,0,1-.69-.17c-.5-.24-.88-.21-1.07.39C27.71,68.26,27.62,68.29,27.53,68.29Z"/><path class="cls-33" d="M196,58.32a1,1,0,0,1,.26.5c.06.13,0,.27-.09.3-.64.15-1.11.68-1.81.71a13.31,13.31,0,0,1-2.18.31c-.07-.25.16-.6-.25-.73a3.05,3.05,0,0,1,1.43-.4C194.28,58.94,195.08,58.44,196,58.32Z"/><path class="cls-72" d="M12.42,66.64c-.25-.24.25-.52,0-.76a37.36,37.36,0,0,1,4.1-.09c.12.11.41-.05.41.25a1.26,1.26,0,0,1-.82.51c-.37,0-.58.39-1,.32-.77.14-1.54-.2-2.31,0A.35.35,0,0,1,12.42,66.64Z"/><path class="cls-50" d="M16.85,66l-.36-.22a17.91,17.91,0,0,1,4.45,0,1.46,1.46,0,0,0-.29,0c-.18,0-.46-.06-.54.12s.23.31.33.49a1,1,0,0,1-1.2.44A8.66,8.66,0,0,0,17,66.72C16.63,66.54,16.73,66.28,16.85,66Z"/><path class="cls-73" d="M155,72.37a.38.38,0,0,0,.12-.48,15.33,15.33,0,0,0,3,.08c.28,0,.65,0,.65.33s-.32.44-.62.45h-.66c-.39-.25-.73-.5-1.27-.2C155.86,72.75,155.39,72.45,155,72.37Z"/><path class="cls-60" d="M44.43,68.34A.53.53,0,0,1,45,67.8a27.92,27.92,0,0,1,2.89.24c-.39,0-.36.36-.4.63a3.78,3.78,0,0,1-2.86,0A.23.23,0,0,1,44.43,68.34Z"/><path class="cls-53" d="M139.74,70.81c-.13.14-.2.28,0,.44a.36.36,0,0,1,.13.4,4,4,0,0,1-1.6-.21c0-.13.57-.39-.09-.35-.1,0-.21,0-.19-.16s.23-.13.33-.21c.13-.37.31-.15.48,0A2.6,2.6,0,0,1,139.74,70.81Z"/><path class="cls-64" d="M9.66,63.6s0,.07-.07.14"/><path class="cls-69" d="M38.69,67.69a8.09,8.09,0,0,0-1.84.1c-.18,0-.26-.07-.32-.2A8.68,8.68,0,0,1,38.69,67.69Z"/><path class="cls-74" d="M237.77,48.86a1.73,1.73,0,0,1-.23-.83,4.44,4.44,0,0,1,1.78-.5c.35-.22.59-.11.73.26a5.1,5.1,0,0,0,1.28,1.93,2.26,2.26,0,0,1,.82.91.47.47,0,0,1,0,.17,1.82,1.82,0,0,0-.08,1.07c.09.38-.19.47-.47.54a8.64,8.64,0,0,1-3.28-2,4.4,4.4,0,0,1-.64-1.07A.31.31,0,0,1,237.77,48.86Z"/><path class="cls-52" d="M259.13,43.09l1.44-.36c.25,0,.57-.32.72,0s-.31.28-.43.45c-.27.36-.54.64-1,.47-.76-.07-1.37.11-1.57,1,0,.1-.12.15-.22.18a2.56,2.56,0,0,0-1.55,0c-.93.25-1.9.31-2.83.64a8.7,8.7,0,0,1-2.35.3c-.49,0-.89.36-1.38.26-.23-.28-.75-.45-.39-1,.24,0,.46-.27.71,0,1.82-.34,3.63-.7,5.42-1.18a1.46,1.46,0,0,1,.93-.26l.25-.1a5.42,5.42,0,0,1,1.93-.55A.32.32,0,0,1,259.13,43.09Z"/><path class="cls-5" d="M267.65,41.05c1.06-.13,2.06-.55,3.11-.73.18.41-.39.59-.29,1a.38.38,0,0,1-.13.23,25.06,25.06,0,0,1-3.25.76c-1.17.23-2.3.63-3.47.83a2.91,2.91,0,0,1-.66,0c-.19,0-.32-.14-.48-.21s-.44-.23-.35-.52.36-.32.63-.32.29.14.45.06a2.11,2.11,0,0,0,.85-.23h0Z"/><path class="cls-5" d="M239.81,48c0-.33-.2-.45-.49-.48l0-.1c.06-.17.2-.15.33-.12l.75-.13c1.46-.35,2.91-.73,4.4-1,.54-.09,1-.5,1.57-.44s1-.36,1.56-.26c.16.34.25.68-.09,1-1.13.15-2.18.65-3.31.79s-1.93.44-2.92.56a1.55,1.55,0,0,0-.73.25A.9.9,0,0,1,239.81,48Z"/><path class="cls-75" d="M247.83,46.35a.77.77,0,0,1,.14-.85l.85-.24a.46.46,0,0,1,.7-.12c.16.22.37.41.36.71a.27.27,0,0,1-.07.14.92.92,0,0,0-.36,1.27c.28.69.17,1-.38,1.22a3.45,3.45,0,0,1-1.39-1.67A.33.33,0,0,1,247.83,46.35Z"/><path class="cls-76" d="M270.28,41.18c-.27-.53.27-.6.48-.86l.49-.1a3.57,3.57,0,0,0,1.07-.26,1,1,0,0,1,.27.64.34.34,0,0,1,0,.43c-.22.14-.46.07-.69.08a.93.93,0,0,0-.65.25C270.72,41.86,270.54,41.82,270.28,41.18Z"/><path class="cls-77" d="M260.57,42.73c.38-.32.95-.13,1.33-.47.32-.64.78-.18,1.18-.14l.13,0-.1.06c-.23.13-.68-.06-.7.26s.49.17.69.38c-.05.34-.35.44-.6.48a15.06,15.06,0,0,1-2.67.46c-.14-.07-.21-.16-.08-.31"/><path class="cls-78" d="M5.19,67.18c-.58,0-1.15.33-1.74,0-.33-.76-.26-.87.59-.89a12.53,12.53,0,0,1,2.37.07,3.24,3.24,0,0,1,.43.4c.19.24.11.4-.2.43.33-.34,0-.45-.21-.43C6,66.83,5.52,66.78,5.19,67.18Z"/><path class="cls-79" d="M167,75.88a2.5,2.5,0,0,0-.35-.94.2.2,0,0,1,0-.32c.15-.11.19,0,.26.14a.42.42,0,0,0,.57.16.49.49,0,0,0,.27-.59,1,1,0,0,1,.23-.92c-.29-.07-.28.28-.53.25a10,10,0,0,0-.85-3.2c.35-.24.23.37.5.14s0-.35-.06-.53c-.22-.36.24-1.39.78-1.77.3.06.27.3.26.51a1.19,1.19,0,0,0,.08.65c.52.76.8,1.64,1.24,2.44s.52,1.08-.27,1.75c-.07.07-.17.11-.22.25.18.21.57,0,.72.28.29,0,.68,0,.35.48a4.4,4.4,0,0,1-.84.29c-.42,0-.55.31-.61.66-.22.56-.82.56-1.24.84-.17.12-.37,0-.46-.25A.36.36,0,0,1,167,75.88Z"/><path class="cls-18" d="M165.05,78.14c.06.16.18.34.09.51-.36.65-.1,1.32-.1,2-.16.74-.72.75-1.3.73-.21,0-.46.26-.59-.12-.4-.32-.92-.25-1.37-.43a.8.8,0,0,0,.28-.65,2.44,2.44,0,0,1,.47,0c.37.06.5-.09.6-.45a7.5,7.5,0,0,1,.47-1.82C164.15,77.59,164.57,78,165.05,78.14Z"/><path class="cls-8" d="M168.15,76.82c-.65.65-.9.65-1.3,0l.13-.59a.77.77,0,0,0,.27-.07,3.32,3.32,0,0,1,1.27-.54A3,3,0,0,1,168.15,76.82Z"/><path class="cls-16" d="M223.62,57.6a2,2,0,0,0,.95.75C223.73,58.39,223.65,58.32,223.62,57.6Z"/><path class="cls-78" d="M242,50.66a9.23,9.23,0,0,1,2.19,1.52c-.21.35-.45.18-.68,0-.05.2.27.69-.3.36a1.31,1.31,0,0,0-.76-.06,1.63,1.63,0,0,1-.8-.39c.08,0,.25,0,.09-.16-.89-.66-.89-.7.11-1.17Z"/><path class="cls-80" d="M233.18,54.76c.36.08.72.18,1.09.24a.79.79,0,0,1,.74.7l-.71.24a.79.79,0,0,0-.51-.26c-.1-.2-.32-.27-.47-.42S233.06,55,233.18,54.76Z"/><path class="cls-76" d="M245.44,53.65c-.24-.11-.73.06-.67-.36s.47-.35.79-.36l.42,0c0,.37-.35.48-.53.69Z"/><path class="cls-48" d="M305.55,39.52c-.48-.55-1.21-.83-1.52-1.56a1.94,1.94,0,0,1-.07-1,.14.14,0,0,1,0-.11c.33-.34.8-.23,1.2-.31a.61.61,0,0,1,.64.57A2.16,2.16,0,0,0,308,39.2l-.24.18a13.53,13.53,0,0,1-1.53.35A.75.75,0,0,1,305.55,39.52Z"/><path class="cls-81" d="M305.55,39.52c.73,0,1.42-.57,2.17-.14l-.11.22c-.34.2-.59.59-1.06.48a1.9,1.9,0,0,0-1.35,0l-.12-.12c-.11-.29,0-.33.27-.26Z"/><path class="cls-38" d="M310.46,35.41a.09.09,0,0,1,0,0c-.28,0-.6.48-.81.06s.25-.54.5-.73C310.07,35.07,310.13,35.31,310.46,35.41Z"/><path class="cls-82" d="M254.55,49.59c.68.26,1.5.1,2.06.71-.79.26-1.63.38-2.4.71v-.35C254.51,50.25,254.51,50.25,254.55,49.59Z"/><path class="cls-21" d="M305.35,39.72l-.27.26a2,2,0,0,1-1.39.27c0-.2.25-.18.32-.31C304.47,40,304.87,39.59,305.35,39.72Z"/><path class="cls-12" d="M40.34,75.23v-.18c0-.75.17-.9.75-.87l.61.23c-.7.09-.76.2-.46.88Z"/><path class="cls-10" d="M60.4,69.26A25.79,25.79,0,0,1,62.71,72a15.38,15.38,0,0,0,2,2.78c.21.19.33.39.1.59s-.34.77-.86.55a3.26,3.26,0,0,1-1.09-.73c-.85-.89-1.7-1.77-2.49-2.71-.5-.58-1-1.18-1.53-1.73a1.1,1.1,0,0,1-.27-1.21,4.54,4.54,0,0,1,.87-1.08l.71,0C60.7,68.58,60.34,69,60.4,69.26Z"/><path class="cls-7" d="M60.4,69.26c-.18-.24,0-.58-.24-.81a26.75,26.75,0,0,1,3.09.22c1.5.15,3,.21,4.51.21.87,0,1.73.2,2.61.14l1.82.21a1.23,1.23,0,0,1-1.14.85c-.12-.21-.3-.2-.52-.2a3.59,3.59,0,0,1-1.75-.18.37.37,0,0,0-.29,0,2.77,2.77,0,0,1-2.13-.16,4.83,4.83,0,0,0-1.42,0c-.47,0-.94.17-1.36-.2a.4.4,0,0,0-.34,0,2.86,2.86,0,0,1-1.68-.2A1.15,1.15,0,0,0,60.4,69.26Z"/><path class="cls-73" d="M89.69,70.07c1.34,0,2.69.06,4,.05.62,0,1.22-.13,1.84-.11l.23.09a10.12,10.12,0,0,1,1.82.12h3.11a.23.23,0,0,1,.06.16,3.64,3.64,0,0,1-1.37.8.63.63,0,0,0-.76-.18,15.37,15.37,0,0,1-2.5.19c-.9.12-1.72-.53-2.59,0-.18.1-.5-.05-.75-.09a3.44,3.44,0,0,0-2.15-.41c-.51,0-1,.3-1.53,0-.26-.16-.35-.27-.22-.54s.35-.12.53,0Z"/><path class="cls-3" d="M86,70.1h.47c.2.21.41-.12.6,0,.52.22.54.32.12.67a.39.39,0,0,0,0,.53c.39.42.49,1,.89,1.42,0,.3-.09.48-.38.44s-.65-.09-.68-.53a1.07,1.07,0,0,0-.89-1c-.11.26,0,.48,0,.7,0,.44-.17.56-.63.41a2.13,2.13,0,0,1-.34-1.25.74.74,0,0,0-.12-.56.22.22,0,0,1-.12-.13c-.18-.38.09-.45.36-.56A1.82,1.82,0,0,1,86,70.1Z"/><path class="cls-23" d="M87.16,70.79a.47.47,0,0,0-.12-.67l.83-.13c.23.05.43-.16.66-.11s.42.06.44.34c.42.59,1,.19,1.52.22s1,0,1.48,0,.78.15.84.66a2.23,2.23,0,0,1-1.23-.1,2.55,2.55,0,0,0-1.37,0A18.34,18.34,0,0,1,87.16,70.79Z"/><path class="cls-68" d="M153.16,73.1c.33-.26.67-.57.85.13-.06.1-.17.2-.07.32a12.78,12.78,0,0,1,1.18,2.26A5.36,5.36,0,0,0,158,78a.72.72,0,0,1,.21.12c.15.14.49.09.45.39s-.38.31-.56.34a2.09,2.09,0,0,1-1.16,0A6.2,6.2,0,0,1,153.23,77a4,4,0,0,1-1.12-2.37.6.6,0,0,1,.53-.69,2.14,2.14,0,0,0,.85-.4Z"/><path class="cls-68" d="M141.53,78.38c-.66-.18-1.36,0-2-.25A7.45,7.45,0,0,1,136.73,76c-.31-.39-.57-.81-.86-1.2s-.52-.73-.32-1.06a1.3,1.3,0,0,1,1.21-.52,1.83,1.83,0,0,1,1.57,1,8,8,0,0,0,1.64,2.5,8.85,8.85,0,0,0,.76.57,1.54,1.54,0,0,0,1.21.4c.13,0,.29,0,.34.15s-.11.24-.22.32S141.69,78.25,141.53,78.38Z"/><path class="cls-70" d="M165.05,78.14c-.54.27-1,0-1.45-.24a2.51,2.51,0,0,0-1-1.7,2,2,0,0,1-.58-1.73c0-.57.61-.76,1.08-.87s.62.3.7.68c0,.16.08.26.26.25.17.14.55.11.34.53,0,.09.15.32.28.44a2.3,2.3,0,0,1,.58,1.91C165,77.58,165.1,77.88,165.05,78.14Z"/><path class="cls-7" d="M141.53,78.38c.12-.23.46-.22.58-.54A2.86,2.86,0,0,1,140,76.69a1.65,1.65,0,0,1,.42.21,2.62,2.62,0,0,0,2,.67,1,1,0,0,1,.3,0c.18.05.46.1.44.3s-.31.25-.49.21C142.24,78,141.94,78.44,141.53,78.38Z"/><path class="cls-83" d="M156.89,78.84c.52,0,1.08.11,1.56-.26-.07-.27-.41-.3-.5-.55l1.22.2A1.81,1.81,0,0,1,156.89,78.84Z"/><path class="cls-20" d="M100.76,70.31l.93,0c.19.24.62.48,0,.72a.55.55,0,0,0,0,.5.41.41,0,0,1,.25.58,7.23,7.23,0,0,0,2.53,3.1,1.48,1.48,0,0,0,.56.43c.37.16.3.51.25.77s-.36.22-.59.15a9.63,9.63,0,0,1-2.15-.63c-.43.16-.58-.07-.59-.46-.18-.43-.68-.4-1-.72a15.56,15.56,0,0,1-1.53-2.27.42.42,0,0,1,0-.36v-1C99.58,70.45,100.19,70.41,100.76,70.31Z"/><path class="cls-79" d="M166.33,70.55c-.13-.38,0-.66-.2-.89a.15.15,0,0,1,.07-.24.73.73,0,0,1,.35,0c.12,0,0,.16,0,.26Z"/><path class="cls-84" d="M233.18,54.76c.27.16.45.51.86.41a.23.23,0,0,1,.28.17c.05.2-.11.21-.25.24l-.28.1a3.78,3.78,0,0,0-.95.09.58.58,0,0,1-.41,0A12.42,12.42,0,0,1,228.28,53a2.52,2.52,0,0,1-.27-1.85,2.11,2.11,0,0,1,1.3-.77c.25-.08.48,0,.53.29a5.75,5.75,0,0,0,1.66,2.7A12.62,12.62,0,0,0,233.18,54.76Z"/><path class="cls-9" d="M187,67.33c-.62-.34-1.43-.11-2-.71.22,0,.5.19.63-.13s-.32-.29-.38-.54c.22-.26.75.34.84-.28a15.56,15.56,0,0,0,1.92,1,.58.58,0,0,1-.55.79C187.36,67.41,187.17,67.46,187,67.33Z"/><path class="cls-66" d="M41.08,74.18c-.4.15-.4.66-.75.87-.7,0-1.1-.53-1.57-.93a11.06,11.06,0,0,1-1.4-1.5c.18,0,.36.19.52-.06s0-.35-.15-.49a2.68,2.68,0,0,1-.68-1.52c0-.11,0-.26-.07-.33-.44-.33-.25-.6.06-.88.05,0,.14-.15.12-.19-.32-.77.29-.86.78-1.05.12.1-.09.67.4.32l-.12.74a.21.21,0,0,0-.19.24A5.14,5.14,0,0,0,39,71.68c.08.13.22,0,.33,0a9,9,0,0,0,1.26,1.68A4.58,4.58,0,0,1,41.08,74.18Z"/><path class="cls-85" d="M28.37,70.22A12.79,12.79,0,0,0,31,72.72c.12.08.24.2.12.34s-.22.5-.54.51a1.14,1.14,0,0,1-.53,0,7.65,7.65,0,0,1-2.38-1.41c-.3-.36-.77-.55-1-1a3.6,3.6,0,0,1-.78-1.59A4,4,0,0,0,25.25,68a.94.94,0,0,1-.12-.56c.48-.18,1,0,1.49-.37.24-.16.37.09.42.34.11.56.27,1.12.35,1.68.1.73.88,1,1,1.83C28.54,70.58,28.33,70.42,28.37,70.22Z"/><path class="cls-86" d="M17.1,66.61a3.19,3.19,0,0,1,1,1.9,4,4,0,0,0,1.69,2.21,3.9,3.9,0,0,0,2.12,1,.25.25,0,0,1,.23.34c-.07.27-.15.62-.5.57a10.08,10.08,0,0,1-3.91-1.39c-1.33-.82-1.77-2.2-2.24-3.56-.09-.18-.14-.42.06-.52.35-.18.34-.5.41-.79a1.27,1.27,0,0,1,.85-.37C16.94,66.21,17,66.41,17.1,66.61Z"/><path class="cls-50" d="M16,66.38a.8.8,0,0,1-.27.79.67.67,0,0,0-.2.52c-.15-.21-.19-.42.05-.6s.33-.22.24-.42-.28,0-.41-.06a2.14,2.14,0,0,1-.27-.09c.15,0,.33,0,.41-.19C15.75,65.94,15.86,66.25,16,66.38Z"/><path class="cls-10" d="M259.85,43.7a11.86,11.86,0,0,0,3,2.9c.26.17.4.48.69.64.14.08.06.21,0,.31a.52.52,0,0,1-.53.3,4.16,4.16,0,0,1-2.52-.92,15,15,0,0,1-1.8-1.37,4,4,0,0,1-.66-.89c.1-1,.23-1.1,1.14-1.36a.46.46,0,0,1,.57.16Z"/><path class="cls-71" d="M272.45,40.94c-.2,1.52.88,2.15,1.95,2.78A3.76,3.76,0,0,0,275,44c.11.1.19.23.36.27.36.09.34.3.13.55-.22,0-.41-.12-.68,0a2.36,2.36,0,0,1-1.68-.24c-.67-.29-1.31-.67-2-1-.89-.44-.85-1.26-.84-2.07v-.25c.27.2.39.28.67-.13S271.92,40.73,272.45,40.94Z"/><path class="cls-54" d="M249.79,45.87a11.16,11.16,0,0,0,4.54,3.71c.2.21.11.4-.05.58a.56.56,0,0,1-.65.17,5.35,5.35,0,0,0-1.35-.39,20.57,20.57,0,0,1-3.15-1.66,1,1,0,0,0-.14-1.09c-.18-.23-.32-.42,0-.65,0,0,.1-.1.09-.14C248.89,45.63,249.41,45.85,249.79,45.87Z"/><path class="cls-11" d="M71.05,70.08a2.41,2.41,0,0,1,1.14-.85l.1,0c.24.26,0,.42-.12.6a.88.88,0,0,0,.06.88,29.13,29.13,0,0,1,1.24,3.08c.16.42.73.44.76.93.08.18,0,.39.08.58s.11.42-.14.56-.34-.15-.49-.26a1.66,1.66,0,0,1-1.78-1.11c-.05-.16-.34,0-.49-.19A6.37,6.37,0,0,1,70.13,71,.82.82,0,0,1,71.05,70.08Z"/><path class="cls-87" d="M121.37,77.64a4.22,4.22,0,0,1-1.85-.78c-.5-.28-.92-.67-1.41-1a4,4,0,0,1-1.47-2.12.72.72,0,0,1,.34-.93c.61-.22,1.26-.63,1.86,0,0,.39.28.59.47.86.21,0,.26.16.26.34.11.38.5.55.71.85a4.61,4.61,0,0,1,1.28.85.66.66,0,0,1,.18.66c0,.17,0,.3.12.4a.54.54,0,0,1,.14.74C121.86,77.87,121.58,77.61,121.37,77.64Z"/><path class="cls-84" d="M85.47,72.75a.4.4,0,0,0,.3-.55c0-.16-.09-.31-.15-.46s-.22-.45,0-.61.07.3.27.2c.46-.22.68.14,1,.37a1.1,1.1,0,0,1,.43.75c.08.54.36.55.74.29.2.36.71.41.84.84-.19.3,0,.37.24.38l1.44.59a5.89,5.89,0,0,0,1,.27c.16,0,.39,0,.39.23s-.17.29-.37.3-.21.09-.32.14h0a13.64,13.64,0,0,1-1.57.1c-1,.14-1.7-.58-2.49-1a2.06,2.06,0,0,1-.37-.29c-.3-.07-.66,0-.67-.49S85.55,73.19,85.47,72.75Z"/><path class="cls-7" d="M72.17,69.86a.9.9,0,0,1,.12-.6c.39-.17.78,0,1.17,0,1.37,0,2.74.1,4.11.25.23.59.16.67-.53.61-.41-.1-.73.3-1.15.21h0c-.49-.32-1.16-.07-1.63-.5a.17.17,0,0,0-.16,0c-.37.54-.79.31-1.19.06A1,1,0,0,0,72.17,69.86Z"/><path class="cls-54" d="M123.05,76.83a2.85,2.85,0,0,0,1.56.43l.11,0c.23.45.13.74-.32.82-.18,0-.36,0-.52.13l-.23.14c-.2-.39-.63-.38-.92-.39a3.31,3.31,0,0,1-1.36-.36c.31,0,.45-.17.35-.49a4.2,4.2,0,0,0-.46-1.19c.6-.3.6.24.78.55S122.71,76.71,123.05,76.83Z"/><path class="cls-88" d="M86,70.1c-.27.33-.76.35-1,.74a.12.12,0,0,1-.19,0,1,1,0,0,0-1-.22c-.84.32-1.49-.17-2.21-.35a.83.83,0,0,1-.35,0,.27.27,0,0,1-.28-.3.28.28,0,0,1,.29-.3.9.9,0,0,1,.46,0,34.37,34.37,0,0,0,3.79.2C85.67,69.91,85.81,70,86,70.1Z"/><path class="cls-50" d="M81.68,69.72c-.19,0-.49,0-.54.22s.24.24.42.29a2.54,2.54,0,0,1-1.61.15,8.7,8.7,0,0,0-2.22-.19c-.23,0-.47.1-.68-.07.4,0,.54-.24.52-.61A33.28,33.28,0,0,1,81.68,69.72Z"/><path class="cls-66" d="M73.68,75.63c.17.06.46.3.35-.17-.06-.29.11-.48.2-.71.13.22.36.23.58.26s.35,0,.46.14a5.31,5.31,0,0,0,.64.3.4.4,0,0,1,.33.48.36.36,0,0,1-.48.32c-.54-.16-1.09,0-1.62-.16C73.86,76,73.72,75.89,73.68,75.63Z"/><path class="cls-10" d="M39.29,71.66c-.1.25.31.6-.06.73s-.26-.35-.4-.52a5.28,5.28,0,0,1-1.15-2.57c0-.16,0-.29.12-.36s.31.09.42.22A5,5,0,0,0,39.29,71.66Z"/><path class="cls-4" d="M104.68,76.58a.65.65,0,0,0,.11-.89,1.39,1.39,0,0,1-.33-.46l.94.41a.19.19,0,0,1,.21.11c.4.17.9.19,1.09.69h0A2.7,2.7,0,0,1,104.68,76.58Z"/><path class="cls-89" d="M123.88,78.25c.4-.21.57-.63.84-1a2.33,2.33,0,0,1,.83.09c.16,0,.42,0,.45.19s-.19.29-.33.4A2.58,2.58,0,0,1,123.88,78.25Z"/><path class="cls-43" d="M91.24,75.49c.08-.24.53-.19.44-.46s-.4-.2-.62-.26a1.43,1.43,0,0,1-.54-.22,9.62,9.62,0,0,0,1.93.17c.1,0,.21,0,.25.1s0,.17-.13.22A2.36,2.36,0,0,1,91.24,75.49Z"/><path class="cls-3" d="M89.08,74a.3.3,0,0,1-.32.1c-.21,0-.42-.1-.39-.35s.3-.13.47-.13A.58.58,0,0,0,89.08,74Z"/><path class="cls-43" d="M89.67,75.59c.51-.27,1-.07,1.57-.1A2.71,2.71,0,0,1,89.67,75.59Z"/><path class="cls-8" d="M174.5,71.43a.7.7,0,0,0-.45-.12A3.53,3.53,0,0,1,171.37,70a3.37,3.37,0,0,1-1-1.38.68.68,0,0,1,.4-.92,3.71,3.71,0,0,1,1-.28.48.48,0,0,1,.59.37,3.12,3.12,0,0,0,1.43,2,4.23,4.23,0,0,1,.88.77,4.88,4.88,0,0,0,.73.44.23.23,0,0,1,.17.27.24.24,0,0,1-.3.22C175,71.45,174.75,71.53,174.5,71.43Z"/><path class="cls-88" d="M174.5,71.43a2,2,0,0,0,.83-.12c-.39-.12-.46-.49-.68-.73a5.61,5.61,0,0,0,1.62.37c.14,0,.3,0,.33.2s-.13.21-.25.28A2.25,2.25,0,0,1,174.5,71.43Z"/><path class="cls-90" d="M187,67.33c.58.11.81-.32,1.06-.71a1.91,1.91,0,0,0,.82.13c.16,0,.35,0,.4.17a.3.3,0,0,1-.25.36A2.69,2.69,0,0,1,187,67.33Z"/><path class="cls-16" d="M252.28,49.94A1.31,1.31,0,0,1,253,50c.62.36,1,.12,1.29-.45h.22a1.44,1.44,0,0,0,.89.55,1.41,1.41,0,0,1-1.23.52Z"/><path class="cls-66" d="M286.25,42.85a1,1,0,0,1-1.07-.12,7.71,7.71,0,0,0-1.93-1,5.94,5.94,0,0,1-1.31-1.18.66.66,0,0,1-.12-.72c.09-.28.37-.15.54-.23.93-.44,1.36.21,1.78.81s1.36,1,2,1.5a3.92,3.92,0,0,0,.32.25C286.78,42.67,286.77,42.69,286.25,42.85Z"/><path class="cls-2" d="M286.25,42.85c.24-.2.18-.49.25-.74l.06,0c.28.16.88.14.74.56S286.64,43,286.25,42.85Z"/><path class="cls-42" d="M275.44,44.77c.07-.42-.4-.5-.49-.82l.83.31c.13.05.37,0,.33.24s-.21.22-.38.25Z"/><text class="cls-91" transform="translate(4.86 50.75)">1</text><line class="cls-92" x1="7.88" y1="49.19" x2="11.98" y2="49.19"/><text class="cls-91" transform="translate(8.4 47.21)">1</text><text class="cls-91" transform="translate(8.11 54.11)">4</text><text class="cls-91" transform="translate(10.85 47.44)">&quot;</text><text class="cls-91" transform="translate(146.7 56.47)">1</text><line class="cls-92" x1="149.73" y1="54.91" x2="153.83" y2="54.91"/><text class="cls-91" transform="translate(150.25 51.93)">3</text><text class="cls-91" transform="translate(149.95 60.83)">8</text><text class="cls-91" transform="translate(153.31 52.33)">&quot;</text><text class="cls-91" transform="translate(162.45 51.44)">1</text><line class="cls-92" x1="165.48" y1="49.88" x2="169.58" y2="49.88"/><text class="cls-91" transform="translate(166 47.9)">1</text><text class="cls-91" transform="translate(165.7 54.8)">4</text><text class="cls-91" transform="translate(168.23 48.13)">&quot;</text><text class="cls-93" transform="translate(121.2 9.1)">Section th<tspan class="cls-94" x="40.53" y="0">r</tspan><tspan x="43.99" y="0">ou</tspan><tspan class="cls-95" x="54.2" y="0">g</tspan><tspan x="58.99" y="0">h wall.</tspan></text><text class="cls-93" transform="translate(74.96 90.31)">12&quot;</text><text class="cls-93" transform="translate(231.13 86.68)">14&quot;</text><line class="cls-96" x1="168.29" y1="86.68" x2="226.41" y2="86.68"/><path class="cls-97" d="M171.7,89.08a.26.26,0,0,0-.07-.35l-3.23-2,3.23-2.05a.26.26,0,0,0,.07-.35.25.25,0,0,0-.34-.08l-3.56,2.27a.26.26,0,0,0-.12.21.24.24,0,0,0,.12.21l3.56,2.27a.33.33,0,0,0,.13,0A.26.26,0,0,0,171.7,89.08Z"/><line class="cls-96" x1="306.46" y1="86.68" x2="247.18" y2="86.68"/><path class="cls-97" d="M303,84.28a.26.26,0,0,0,.08.35l3.22,2.05-3.22,2a.25.25,0,1,0,.27.43l3.55-2.27a.22.22,0,0,0,.12-.21.24.24,0,0,0-.12-.21l-3.55-2.27a.37.37,0,0,0-.14,0A.27.27,0,0,0,303,84.28Z"/><line class="cls-98" x1="0.6" y1="89.66" x2="3.6" y2="89.66"/><line class="cls-99" x1="6.51" y1="89.66" x2="66.18" y2="89.66"/><line class="cls-98" x1="67.64" y1="89.66" x2="70.64" y2="89.66"/><path class="cls-97" d="M4,92.06a.26.26,0,0,0-.08-.35l-3.22-2L3.94,87.6A.25.25,0,0,0,4,87.26a.26.26,0,0,0-.35-.08L.12,89.45a.22.22,0,0,0-.12.21.25.25,0,0,0,.12.21l3.55,2.26a.23.23,0,0,0,.14,0A.26.26,0,0,0,4,92.06Z"/><line class="cls-98" x1="89.67" y1="89.66" x2="92.67" y2="89.66"/><line class="cls-100" x1="95.87" y1="89.66" x2="161.43" y2="89.66"/><line class="cls-98" x1="163.03" y1="89.66" x2="166.03" y2="89.66"/><path class="cls-97" d="M162.61,92.06a.25.25,0,0,1,.08-.35l3.22-2-3.22-2.06a.24.24,0,0,1-.08-.34.25.25,0,0,1,.34-.08l3.56,2.27a.24.24,0,0,1,.12.21.27.27,0,0,1-.12.21L163,92.13a.2.2,0,0,1-.13,0A.26.26,0,0,1,162.61,92.06Z"/><line class="cls-101" x1="167.28" y1="76.45" x2="167.28" y2="111.71"/><line class="cls-96" x1="9.56" y1="39.21" x2="9.56" y2="33.62"/><path class="cls-97" d="M12,37a.25.25,0,0,1-.34-.08L9.56,33.74,7.51,37a.26.26,0,0,1-.35.08.24.24,0,0,1-.07-.34l2.26-3.56A.27.27,0,0,1,9.56,33a.24.24,0,0,1,.21.12L12,36.7a.2.2,0,0,1,0,.13A.25.25,0,0,1,12,37Z"/><line class="cls-96" x1="167.51" y1="59.78" x2="167.51" y2="65.37"/><path class="cls-97" d="M165.11,62a.25.25,0,0,1,.35.08l2,3.22L169.57,62a.24.24,0,0,1,.34-.08.25.25,0,0,1,.08.34l-2.26,3.56a.27.27,0,0,1-.22.12.27.27,0,0,1-.21-.12L165,62.29a.2.2,0,0,1,0-.13A.26.26,0,0,1,165.11,62Z"/><line class="cls-96" x1="151.72" y1="64.89" x2="151.72" y2="70.47"/><path class="cls-97" d="M149.32,67.05a.26.26,0,0,1,.35.08l2.05,3.23,2.06-3.23a.25.25,0,0,1,.34-.08.26.26,0,0,1,.08.35L151.94,71a.27.27,0,0,1-.22.11.26.26,0,0,1-.21-.11l-2.26-3.56a.22.22,0,0,1,0-.13A.27.27,0,0,1,149.32,67.05Z"/><line class="cls-96" x1="9.57" y1="59.26" x2="9.57" y2="64.85"/><path class="cls-97" d="M7.17,61.43a.25.25,0,0,1,.34.08l2.06,3.22,2-3.22a.26.26,0,0,1,.35-.08.26.26,0,0,1,.07.35L9.78,65.33a.25.25,0,0,1-.21.12.22.22,0,0,1-.21-.12L7.09,61.78a.25.25,0,0,1,0-.14A.25.25,0,0,1,7.17,61.43Z"/><line class="cls-96" x1="167.51" y1="39.85" x2="167.51" y2="34.26"/><path class="cls-97" d="M169.91,37.68a.25.25,0,0,1-.34-.08l-2.06-3.22-2,3.22a.25.25,0,1,1-.42-.27l2.26-3.55a.27.27,0,0,1,.21-.12.27.27,0,0,1,.22.12L170,37.33a.25.25,0,0,1,0,.14A.25.25,0,0,1,169.91,37.68Z"/><line class="cls-96" x1="151.79" y1="44.98" x2="151.79" y2="39.39"/><path class="cls-97" d="M154.19,42.81a.26.26,0,0,1-.35-.08l-2.05-3.22-2.06,3.22a.24.24,0,0,1-.34.08.26.26,0,0,1-.08-.35l2.27-3.55a.24.24,0,0,1,.21-.12.27.27,0,0,1,.21.12l2.27,3.55a.35.35,0,0,1,0,.14A.26.26,0,0,1,154.19,42.81Z"/></g></g></svg>