<?xml version="1.0" encoding="utf-8"?>
<!-- Generator: Adobe Illustrator 24.2.0, SVG Export Plug-In . SVG Version: 6.00 Build 0)  -->
<svg version="1.1" id="Layer_1" xmlns="http://www.w3.org/2000/svg" xmlns:xlink="http://www.w3.org/1999/xlink" x="0px" y="0px"
	 viewBox="0 0 304.5 93.4" style="enable-background:new 0 0 304.5 93.4;" xml:space="preserve">
<style type="text/css">
	.st0{fill:none;stroke:url(#SVGID_1_);stroke-width:0.75;stroke-linecap:round;stroke-linejoin:round;}
	.st1{fill:#231F20;}
	.st2{fill:none;stroke:#231F20;stroke-width:0.75;stroke-linecap:round;stroke-linejoin:round;}
	.st3{fill:#58595B;}
	.st4{fill:none;stroke:#6D6E71;stroke-width:0.75;stroke-linecap:round;stroke-linejoin:round;}
	.st5{fill:none;stroke:#231F20;stroke-width:0.5;stroke-miterlimit:10;}
	.st6{fill:none;stroke:#58595B;stroke-width:0.75;stroke-linecap:round;stroke-linejoin:round;}
	.st7{fill:none;stroke:#231F20;stroke-width:0.5;stroke-linecap:round;stroke-linejoin:round;}
	.st8{fill:#939598;}
</style>
<g id="Layer_2_1_">
	<g id="_12843_final">
		<g id="single_stroke_uniform">
			
				<linearGradient id="SVGID_1_" gradientUnits="userSpaceOnUse" x1="0" y1="145.5014" x2="304.5482" y2="145.5014" gradientTransform="matrix(1 0 0 -1 0 187.2656)">
				<stop  offset="3.000000e-02" style="stop-color:#231F20"/>
				<stop  offset="0.18" style="stop-color:#A7A9AC"/>
				<stop  offset="0.27" style="stop-color:#A2A4A6"/>
				<stop  offset="0.45" style="stop-color:#9FA1A3"/>
				<stop  offset="0.57" style="stop-color:#97989A"/>
				<stop  offset="0.68" style="stop-color:#89898B"/>
				<stop  offset="0.78" style="stop-color:#747476"/>
				<stop  offset="0.87" style="stop-color:#5A595A"/>
				<stop  offset="0.95" style="stop-color:#3A3738"/>
				<stop  offset="1" style="stop-color:#231F20"/>
			</linearGradient>
			<path class="st0" d="M0.4,39.1c0,0,28.5-2,31.4-0.7s0.7,1.4,3.7,1.7c2.7,0.2,5.5,0.2,8.2,0c0,0,16-0.8,16.7-1s2,0.2,7.2,0
				s1.9,0.2,6.8,0s5.5-0.5,6.8,0s4.8,0.4,7.2,0s0.5,0.4,4.9,0s4.8,0.4,7.5,0s5.1,0.4,7.8,0s5.5,1.2,6,1.2s-0.3,0.3,5.1,0
				s3.8,0.3,10.4,0c6.7-0.3,5.6,0.6,10.4,0.2s4.4,0.5,10.4,0s3.9,0.5,9.7,0s4.6-1.5,9.7-1.2s8.9,0.1,11.8,0s3.9,0.3,9.7,0
				s1.9,0.4,10.8,0s4.4-0.2,14.6-1.2c5.9-0.7,11.8-1.1,17.8-1.1c4.6,0,12.8,0,17.7,0.3c4.9,0.3,19.8,0.9,22.7,1.5s15,1.3,17.7,1.8
				s6.7,0.9,8.9,2.5s2.5,0.7,1.2,2s-0.9,1.2-2.4,1.5"/>
			<path class="st1" d="M0.4,39.1c6.4-0.5,12.9-0.9,19.4-1.1c3.2-0.1,6.5-0.2,9.7,0c0.8,0,1.6,0.1,2.4,0.4c0.4,0.2,0.7,0.4,1.1,0.6
				c0.2,0.1,0.4,0.2,0.5,0.4c0.2,0.2,0.3,0.3,0.4,0.4c0.8,0.2,1.5,0.3,2.3,0.4c0.8,0.1,1.6,0.1,2.4,0.1c3.2,0,6.4-0.3,9.7-0.4
				l9.7-0.6c0.8-0.1,1.6-0.1,2.4-0.2c0.8-0.1,1.6-0.1,2.5,0c1.6,0.1,3.2,0,4.8,0c0.8,0,1.6,0,2.4,0c0.4,0,0.8,0,1.2,0.1
				c0.4,0,0.8,0,1.2,0c1.6,0,3.2-0.1,4.8-0.2c0.8,0,1.6-0.1,2.4-0.1c0.4,0,0.8,0.1,1.3,0.2c0.4,0.1,0.8,0.2,1.1,0.3
				c1.6,0.2,3.2,0.2,4.8,0c0.8-0.1,1.6-0.2,2.4-0.3c0.4,0,0.8,0.1,1.2,0.2c0.4,0,0.8,0,1.2,0c1.6,0,3.2-0.3,4.8-0.2
				c0.8,0,1.6,0.1,2.4,0.2c0.8,0,1.6,0,2.4-0.1c1.6-0.1,3.2,0,4.8,0.2c0.8,0,1.6,0,2.4-0.1c0.8-0.1,1.6-0.1,2.4,0.1
				c0.8,0.2,1.6,0.4,2.3,0.7c0.7,0.3,1.5,0.5,2.3,0.6c1.6,0,3.2-0.1,4.8-0.2c1.6-0.1,3.2-0.1,4.8,0.1c3.2,0.2,6.4-0.3,9.7,0
				c0.8,0.1,1.6,0.2,2.4,0.2c0.8,0.1,1.6,0.1,2.4,0c1.6-0.2,3.2-0.2,4.9-0.1c1.6,0.2,3.2,0.2,4.8,0.1c1.6-0.1,3.2-0.3,4.9-0.2
				c3.2,0.4,6.4,0.3,9.6-0.3c0.8-0.2,1.6-0.4,2.4-0.6c0.8-0.2,1.6-0.3,2.4-0.3c1.6,0,3.2,0.1,4.9,0.1c3.2,0.1,6.4-0.1,9.7-0.2
				c1.6,0,3.2,0.1,4.8,0.1s3.2-0.1,4.8-0.1c0.8,0,1.6,0,2.4,0c0.8,0.1,1.6,0.1,2.4,0.2c1.6,0,3.2-0.1,4.8-0.1
				c3.2-0.2,6.4-0.3,9.6-0.7c6.4-0.7,12.9-1.5,19.3-1.6s12.9-0.1,19.4,0.2s12.9,0.7,19.3,1.2c1.6,0.1,3.2,0.2,4.8,0.5
				s3.2,0.4,4.8,0.6l9.6,0.9c1.6,0.1,3.2,0.4,4.8,0.7c1.6,0.3,3.2,0.5,4.8,1c0.8,0.2,1.5,0.5,2.3,0.9c0.7,0.4,1.3,0.9,2.1,1.2
				c0.2,0.1,0.4,0.2,0.5,0.3c0.1,0.1,0,0.3,0,0.3c-0.1,0.1-0.1,0.1-0.2,0.2c-0.3,0.3-0.6,0.6-0.9,0.8c-0.3,0.3-0.6,0.6-0.9,0.8
				c-0.4,0.2-0.8,0.3-1.2,0.3v0c0.4-0.1,0.8-0.2,1.1-0.3c0.3-0.3,0.6-0.5,0.9-0.8c0.3-0.3,0.6-0.6,0.9-0.8l0.2-0.2
				c0.1-0.1,0.1-0.2,0-0.2c-0.2-0.1-0.3-0.2-0.5-0.3c-0.7-0.3-1.4-0.8-2.1-1.2c-0.7-0.4-1.5-0.6-2.3-0.8c-1.5-0.4-3.1-0.7-4.7-1
				c-1.6-0.3-3.2-0.5-4.8-0.7l-9.7-0.9c-1.6-0.2-3.2-0.3-4.8-0.5s-3.2-0.3-4.8-0.4c-6.4-0.4-12.9-0.7-19.4-1s-12.9-0.3-19.4-0.2
				s-12.9,0.9-19.3,1.6c-3.2,0.4-6.5,0.5-9.7,0.7c-1.6,0.1-3.2,0.2-4.9,0.1c-0.8,0-1.6-0.1-2.4-0.2c-0.8,0-1.6,0-2.4,0
				c-1.6,0-3.2,0.1-4.8,0.1s-3.3-0.1-4.9-0.1c-3.2,0-6.5,0.2-9.7,0.1c-1.6,0-3.2-0.2-4.8-0.2c-0.8,0-1.6,0.1-2.4,0.2
				c-0.8,0.2-1.6,0.4-2.4,0.6c-3.2,0.6-6.5,0.7-9.7,0.3c-1.6-0.1-3.2,0.1-4.8,0.2c-1.6,0.1-3.2,0-4.9-0.2c-1.6-0.1-3.2-0.1-4.8,0.1
				c-0.8,0.1-1.6,0.1-2.4,0c-0.8,0-1.6-0.2-2.4-0.2c-3.2-0.3-6.4,0.2-9.7,0c-3.2-0.4-6.4,0.1-9.7,0.1c-0.8,0-1.6-0.2-2.4-0.6
				c-0.8-0.3-1.5-0.5-2.3-0.6c-1.6-0.3-3.2,0.2-4.8,0c-1.6-0.1-3.2-0.2-4.8-0.1c-0.8,0.1-1.6,0.2-2.4,0.2c-0.8,0-1.6-0.1-2.4-0.2
				c-1.6-0.1-3.2,0.1-4.8,0.2c-0.4,0-0.8,0-1.2,0c-0.4-0.1-0.8-0.2-1.2-0.2c-0.8,0-1.6,0.2-2.4,0.3c-1.6,0.2-3.3,0.2-4.9,0
				c-0.4-0.1-0.8-0.2-1.2-0.3C80.5,39,80.1,39,79.7,39c-0.8,0-1.6,0.1-2.4,0.1c-1.6,0.1-3.2,0.2-4.8,0.2c-0.4,0-0.8,0-1.2,0
				s-0.8-0.1-1.2-0.1c-0.8,0-1.6,0-2.4,0.1c-1.6,0.1-3.2,0.1-4.9,0c-0.8-0.1-1.6-0.1-2.4,0c-0.8,0.1-1.6,0.1-2.4,0.2l-9.7,0.5
				c-3.2,0.1-6.5,0.4-9.7,0.4c-0.8,0-1.6,0-2.4-0.1l-1.2-0.1c-0.4,0-0.8-0.1-1.2-0.2c-0.2-0.1-0.3-0.3-0.5-0.5
				c-0.1-0.1-0.3-0.3-0.5-0.4c-0.3-0.2-0.7-0.4-1-0.6c-0.8-0.2-1.5-0.4-2.3-0.4c-3.2-0.2-6.4-0.1-9.7,0c-6.5,0.2-12.9,0.5-19.4,0.9
				L0.4,39.1z"/>
			<path class="st2" d="M31.4,9.1c1,2.2,1.9,4.6,2.5,6.3s2.4,3.4,2.9,4.8s2.6,3.4,3.1,4.8c0.6,1.6,1.6,3,2.7,4.3
				c1.2,1.3,2.5,2.5,3.9,3.6c0.8,0.8,2.4,1.4,2.6,2.6c0.3,1.1,0.3,2.2,0,3.2c-0.4,1.3,0.3,1.2-1,3.2s-1.5,0.1-1.5,3.3
				c0,2,0,4.1-0.2,6.1c-0.3,1.8-0.7,3.7-1.2,5.5c-0.3,1.7-0.8,3.4-0.8,4.1"/>
			<polygon class="st3" points="45.1,60.8 45.1,60.7 45,60.7 			"/>
			<path class="st3" d="M44.9,60.4L44.9,60.4c0,0.1,0.1,0.2,0.2,0.3C45.2,60.6,44.7,60.4,44.9,60.4z"/>
			<path class="st3" d="M44.9,60.3c0.1-0.1,0-0.2-0.1-0.2S44.8,60.3,44.9,60.3z"/>
			<path class="st3" d="M46.8,51L46.8,51C46.8,51,46.8,51,46.8,51z"/>
			<path class="st3" d="M46.4,48.5h-0.1c0.2,0.5,0,1,0,1.5l0,0c0,0.6,0,1.2,0,1.8c0,0.6-0.1,1.2-0.2,1.8l0,0c0,0,0.1,0.1,0,0.2
				s0,0,0-0.1c-0.2,0.2-0.1,0.8-0.3,0.9c0,0.1,0,0.1,0.1,0.1c0,0,0,0,0,0c-0.2,1-0.4,1.9-0.5,2.9c0,0-0.1,0-0.2,0
				c0,0.9-0.1,1.7-0.5,2.5c0.1,0,0.1-0.1,0.2,0c0.1-0.2-0.1-0.5,0.1-0.7h0.1c0.1-0.2-0.2-0.1,0-0.2s0.1,0,0.1,0
				c0.1-0.4,0.1-0.8,0-1.2c0.2,0,0.1-0.4,0.3-0.5c0-0.1,0-0.2-0.1-0.3c0.3-1.3,0.6-2.6,0.9-4c-0.2-0.7,0.3-1.4,0.3-2.2l0,0
				c-0.1-0.3-0.1-0.6,0-0.9l-0.1-0.3c0.2-1.8,0.3-3.6,0.4-5.5c0-0.2,0-0.5,0.1-0.7c0-0.2,0.1-0.3,0.2-0.3s0.2-0.1,0.3-0.2
				c0.1-0.1,0.2-0.2,0.4-0.3c0.2-0.2,0.4-0.4,0.5-0.6c0.3-0.4,0.6-0.9,0.8-1.3c0.1-0.3,0.2-0.6,0.2-0.8c0-0.3,0-0.5-0.1-0.8
				c0,0,0,0,0.1,0c0-0.5,0.3-1,0.3-1.6l0,0c-0.1-0.7-0.2-1.5-0.3-2.2c0-0.4-0.2-0.7-0.4-1c-0.2-0.3-0.5-0.5-0.9-0.6l-1-0.7
				c-0.3-0.2-0.6-0.6-1-0.8c-0.7-0.5-1.4-1-2.1-1.6v0c-1.1-0.8-1.7-2.1-2.5-3.1c-0.3-0.6-0.8-1.1-1.2-1.7s-0.7-1.3-1-1.9
				c-0.2-0.9-1.5-1.4-1.7-2.3c-0.1-0.4-0.3-0.8-0.5-1.2c-0.1-0.4-0.3-0.8-0.5-1.1c-0.5-0.7-1-1.3-1.6-1.9c-0.4-0.7-0.8-1.3-1.2-2
				c-0.4-0.7-0.6-1.4-0.8-2.1c-0.5-0.6-0.3-1.5-0.7-2.2l-0.1,0.1c0.1-0.4-0.5-0.4-0.3-0.8l0,0c0.1-0.2-0.5-0.1-0.3-0.3h-0.1
				c-0.1-0.2,0.1-0.1,0.1-0.2s-0.1,0-0.1-0.1c0.3-0.2-0.2-0.4,0.1-0.6c0,0.1,0.1-0.2,0.2,0c0-0.1-0.1-0.4-0.3-0.3s-0.4,0-0.4,0.2
				h0.1c-0.1,0.1,0,0.1-0.1,0.1c0.1,0.2-0.1,0.3-0.1,0.5l0,0c0.2,0.1,0.2,0.2,0.2,0.3l0,0.1c-0.1,0.1,0.4,0.1,0.1,0.2
				c0.2,0.5,0.5,1,0.7,1.5c0.1,0,0.2,0.4,0.3,0.2c-0.1,0.2-0.1,0.5,0,0.8l0,0c-0.2,0.4,0.4,0.2,0.2,0.6c0.3-0.1,0.1,0.5,0.5,0.5
				c0,0-0.1,0.1-0.1,0.1c0.2,0.5,0.3,1,0.5,1.4c0.3,0.2,0.3,0.9,0.7,1c0.1,0.4,0.2,0.7,0.5,1l0,0c0.2,0.4,0.5,0.7,0.9,0.9
				c-0.2,0.3,0,0.4,0,0.6c0.3,0.1,0.5,0.6,0.8,0.9c-0.1,0.1,0.2,0.3,0,0.4c0.1,0.1,0.2,0.2,0.3,0.3l0.3,0.4l0.6,0.8
				c0.4,0.6,0.7,1.1,0.9,1.7l0,0c0.2,0.1,0.5,0.1,0.7,0.1l0,0c0.2,0.2,0.1,0.4,0.3,0.6H39c0.2,0.1,0.1,0.4,0.3,0.6l0,0l0.1,0.1
				c-0.1,0-0.2,0.1-0.2,0c0.2,0.3,0.3,0.9,0.6,1.3c0.3,0.4,0.5,0.9,0.9,1.3c0.6,0.8,1.3,1.5,1.9,2.3h-0.1l0.3,0.2c0,0,0,0-0.1,0
				c0.3,0.5,0.8,0.7,1.1,1c0,0-0.1,0-0.1,0.1c0.4,0.1,0.3,0.6,0.7,0.4c0,0,0,0.1-0.1,0.1c0.4,0.3,0.8,0.6,1.2,0.9
				c0.4,0.3,0.8,0.6,1.1,1c0.8,0.3,1.5,0.8,2.2,1.4h-0.1c0.2,0.2,0.3,0.4,0.3,0.7c0.1,0.3,0.1,0.6,0.1,0.8c0,0.6,0,1.1-0.1,1.7
				c-0.1,0.4-0.2,0.9-0.2,1.3h-0.1c0.1,0.4,0.1,0.8-0.2,1.2c-0.3,0.3-0.5,0.7-0.6,1.1L48,41.5c0.1,0.2-0.3,0.4-0.1,0.5
				c0,0-0.1,0-0.2,0.1c0,0.3-0.3,0.5-0.5,0.6c-0.1,0-0.3,0.1-0.4,0.2c-0.1,0.1-0.2,0.3-0.2,0.5l-0.1-0.1c0,0.2,0,0.4,0,0.5
				c0,0,0,0,0-0.1c-0.3,0.6,0,1.2,0,1.8l-0.1-0.1c0.1,0.3,0,0.8,0,1.2h-0.1l0.1,0.2h-0.1C46.3,47.5,46.4,48,46.4,48.5z"/>
			<path class="st3" d="M46.1,53.6"/>
			<path class="st3" d="M31.2,9.9L31.2,9.9C31.2,9.8,31.2,9.9,31.2,9.9z"/>
			<path class="st4" d="M35,9.1c1.3,1.2,2.2,2.6,2.7,4.3c0.2,0.9,1.2,2.1,1.7,3.8s1.5,3.3,1.7,4.7c0.4,1.5,0.8,3,1.4,4.4
				c0.3,1.2-0.6,2,0.2,2.9c0.6,0.8,1.1,1.8,1.5,2.7c0.4-0.9,0.7-1.8,1-2.7c0.6-2,1.2-2.9,1.2-4.1v-4.9c0-1.7-1.2-7.2-1.2-8.4V2.4"/>
			<path class="st4" d="M53.6,0.4c0,0.7-1,3.9-1,5.3v8.9c-0.1,1.5-0.1,3,0,4.4c0.2,1-0.3,1.9-0.1,3.1s0.5,2.7,0.5,2.7"/>
			<path class="st4" d="M61.8,4.6c-0.9,0.9-1.5,2.1-1.5,3.4c-0.1,1.5-0.4,3.1-0.9,4.5c-0.4,1.2-0.8,2.4-1.4,3.5"/>
			<path class="st5" d="M59.9,16.1c-0.5,0.8-1.2,1.6-1.9,2.2c-0.5,0.5-1.5,0.9-2,1.9c-0.3,1-0.7,2-1.2,2.9c-0.8,1.5-0.3,1.7-1.8,3.1
				s-4.1,3.6-3.6,4.4s0.1,0.7-0.1,2.7"/>
			<path class="st4" d="M59.9,16.1c-0.5,0.8-1.2,1.6-1.9,2.2c-0.5,0.5-1.5,0.9-2,1.9c-0.3,1-0.7,2-1.2,2.9c-0.8,1.5-0.3,1.7-1.8,3.1
				s-4.1,3.6-3.6,4.4s0.1,0.7-0.1,2.7"/>
			<path class="st2" d="M65,15.4c-0.3,0.5-1.9,3.2-1.9,4.4s-2.6,3.4-3.2,5C59,26.4,58,28,56.8,29.5c-0.9,1.2-3.6,4.3-3.3,4.8
				s-1.2,5.3-1.2,5.3s-1.4,4.6-1.9,7s-1,3.9-1.2,5.1s-0.8,4.6-0.8,5.1v3.9"/>
			<polygon class="st3" points="49.2,60.8 49.2,60.7 49.1,60.7 			"/>
			<path class="st3" d="M48.9,60.4L48.9,60.4l0.2,0.2C49.3,60.5,48.8,60.4,48.9,60.4z"/>
			<path class="st3" d="M49,60.3c0.1-0.1-0.1-0.1-0.1-0.2S48.8,60.3,49,60.3z"/>
			<path class="st3" d="M49.6,52.4L49.6,52.4C49.6,52.4,49.6,52.4,49.6,52.4z"/>
			<path class="st3" d="M49.5,50.3h-0.1c0.1,0.4-0.2,0.8-0.2,1.2l0,0c-0.2,1-0.2,2-0.3,3l0,0c0,0.1,0.1,0.1,0.1,0.2s0,0-0.1,0
				c-0.2,0.2,0,0.7-0.2,0.8c0,0.1,0.1,0.1,0.1,0.1c0,0,0,0,0,0c0,0.4-0.1,0.8-0.1,1.2c0,0.4,0.1,0.8,0.1,1.2c0,0-0.1,0-0.1,0
				c0.2,0.7,0.3,1.4,0.1,2.2c0.1,0,0.1-0.1,0.2,0c0.1-0.2-0.2-0.4,0-0.6h0.1c0-0.2-0.2,0-0.1-0.2s0.1,0,0.1,0c0-0.3,0-0.7-0.2-1
				c0.2-0.1,0-0.3,0.2-0.5c-0.1-0.1,0-0.2-0.2-0.2c0-0.3,0-0.6,0-0.8s0-0.5,0.1-0.8c0.1-0.6,0.1-1.1,0.2-1.7
				c-0.2-0.6,0.3-1.2,0.3-1.8l0,0c-0.1-0.3-0.1-0.5,0-0.8l-0.1-0.2c0.5-1.4,0.8-2.9,1.3-4.4c0.6-1.6,1-3.2,1.2-4.9h0
				c0.1-0.5,0.3-0.9,0.4-1.3l0,0c0.1-1.2,0.7-2.3,0.8-3.4c0.2-0.7,0.4-1.4,0.5-2.1c0.1-0.4,0.1-0.8,0-1.1c0-0.3,0.2-0.7,0.3-0.9h0
				c0.5-1,1.5-1.7,2.1-2.6c0.9-0.8,1.2-2.2,2-3c0.7-0.4,0.7-1.6,1.3-2c0.3-0.2,0.5-0.5,0.7-0.8l0.5-0.9c0.3-0.6,0.7-1.2,1-1.9
				c0.5-0.5,0.8-1,1.1-1.6c0.1-0.3,0.2-0.6,0.2-0.9c0-0.3,0.2-0.7,0.3-0.9c0-0.7,0.7-1.1,1-1.7h-0.1c0.3-0.1-0.1-0.6,0.3-0.6l0,0
				c0.2,0-0.2-0.5,0-0.4l-0.1,0c0.1-0.1,0.1,0,0.2,0s-0.1-0.1,0-0.1c0.3,0.2,0.1-0.4,0.5-0.2c0,0.1,0.2,0,0.2,0.2
				c0.1,0,0.2-0.2,0-0.3s-0.2-0.3-0.4-0.2l0.1,0.1c-0.1,0-0.1,0-0.2,0c-0.1,0.2-0.3,0.1-0.4,0.2l0,0c0.1,0.2-0.1,0.3-0.1,0.3h-0.1
				c-0.2,0,0.2,0.4-0.1,0.2c-0.1,0.4-0.4,0.8-0.6,1.3c0.1,0.1-0.2,0.3,0.1,0.3c-0.3,0-0.4,0.3-0.5,0.5s0,0,0,0
				c-0.4,0.1,0.1,0.4-0.3,0.5c0.2,0.1-0.2,0.4,0,0.6c0,0-0.1,0-0.2,0l-0.1,0.4v0.2v0.1l0,0c0,0.1-0.1,0.2-0.2,0.3
				c0.1,0.3-0.4,0.5-0.3,0.8c-0.2,0.1-0.4,0.4-0.6,0.6v0c-0.2,0.3-0.4,0.6-0.5,0.9c-0.3-0.1-0.3,0-0.5,0.1c0,0.3-0.4,0.6-0.5,1
				c-0.1,0-0.1,0.3-0.3,0.2c-0.1,0.3-0.2,0.5-0.3,0.8c-0.1,0.2-0.2,0.5-0.3,0.7c-0.3,0.5-0.6,0.9-1,1.2l0,0c0,0.2,0.1,0.4,0.2,0.6
				c0,0,0,0,0,0c-0.1,0.2-0.3,0.2-0.4,0.4c0,0,0,0,0-0.1c0,0.2-0.3,0.2-0.3,0.5l0,0v0c0,0-0.1-0.1-0.1-0.1c-0.5,0.6-0.9,1.4-1.4,2
				c-0.5,0.7-0.9,1.4-1.5,2v-0.1l-0.1,0.3c0,0,0,0,0-0.1c-0.3,0.3-0.4,0.7-0.7,1.1c0,0,0-0.1-0.1-0.1c0,0.3-0.5,0.3-0.2,0.7
				c0,0-0.1,0-0.1-0.1c0,0.1-0.1,0.3-0.1,0.4c0,0.1,0,0.3,0.1,0.4l0,0l0,0l0.2-0.1l0,0l0,0h-0.1c0,0-0.1,0.1-0.1,0l0,0
				c0,0.2,0,0.4,0,0.5c-0.2,0.5-0.4,0.9-0.6,1.4c0.2,0.8-0.3,1.4-0.3,2.2h-0.1c-0.2,0.9-0.4,1.9-0.8,2.8c-0.1,0.4-0.1,0.7-0.3,1
				h-0.1c0.1,0.7-0.7,1.3-0.5,2.1l-0.1-0.1c0.1,0.2-0.2,0.4,0.1,0.4l-0.1,0.1c0.3,0.6-0.4,0.8-0.3,1.4h-0.1c0,0.2,0,0.3-0.1,0.5
				c0,0,0,0,0,0c-0.4,0.4-0.2,1-0.3,1.5L50.1,48c0.1,0.3-0.2,0.7-0.2,1h-0.1v0.2h-0.1C49.6,49.5,49.6,49.9,49.5,50.3z"/>
			<path class="st3" d="M48.9,54.6L48.9,54.6C48.9,54.6,48.9,54.6,48.9,54.6z"/>
			<path class="st3" d="M64.3,15.6L64.3,15.6C64.3,15.6,64.3,15.6,64.3,15.6z"/>
			<path class="st4" d="M67.8,18.6c-0.5,0-2.5,1.3-3.9,2c-1.4,0.7-5.7,2.9-5.8,5.1s-3.3,3.8-3.4,5.3s-2,4.8-3.1,5.8s-2.2,2.2-3.1,3
				l-0.9,0.8"/>
			<path class="st4" d="M34.1,22.7c0.5,1.7,2.4,3.3,3.3,4.4c0.9,1.3,2.1,2.5,3.3,3.6c1.3,1,2.1,3.4,2.8,4.2s0,0.6,2,3.2l2,2.6"/>
			<path class="st4" d="M28.5,23.7c0.4,0.5,2,1.9,2.9,3.1c0.9,1.2,2.7,1.9,2.7,2.8s3.6,3.4,3.9,3.7s1.8,2,2.3,1.6s3.1,0,3.1,0"/>
			<path class="st4" d="M101.4,10.4c0,1.8-1,2.8,0,3.7s2.2,1.5,2.4,3.2s0,3,0.5,4.4s1.9,1.5,2.2,3.2c0.4,1.7,1.1,3.3,1.9,4.9
				c0.8,2,0.8,2.3,2.4,3.7c1,0.9,2.1,1.8,3.2,2.6"/>
			<path class="st4" d="M123.9,9.1c-1.6,2.1-2.8,4.5-3.6,7c-0.2,1.4-2.9,5.5-3.6,7.7s-1.7,4.3-2,5.6s0.2,1.4-0.7,3.9
				c-0.4,1.1-0.7,2.4-0.8,3.6"/>
			<path class="st3" d="M118.9,31.4L118.9,31.4L118.9,31.4l0.2,0.2l0,0l0,0L118.9,31.4l0.1,0.1l0,0l0.1,0.1l0,0l0,0L118.9,31.4
				L118.9,31.4L118.9,31.4z"/>
			<path class="st3" d="M118.9,31.6L118.9,31.6c0,0,0-0.1,0-0.2C118.8,31.2,119,31.7,118.9,31.6z"/>
			<path class="st3" d="M118.9,31.6c-0.1,0,0,0.1,0,0.1C118.8,31.6,118.9,31.8,118.9,31.6z"/>
			<path class="st3" d="M114.3,30.4L114.3,30.4C114.3,30.4,114.3,30.4,114.3,30.4z"/>
			<path class="st3" d="M112.9,30.3l-0.1,0.1c0.3-0.1,0.5,0.3,0.8,0.3l0,0c0.6,0.3,1.2,0.5,1.9,0.5l0,0c0,0,0.1-0.1,0.1-0.1
				c0,0,0,0,0,0c0.1,0.2,0.4,0,0.5,0.2c0.1,0,0.1-0.1,0.1-0.1c0.5,0.1,1,0.2,1.6,0.3c0,0,0,0.1,0,0.1c0.4-0.1,0.8-0.1,1.2-0.1
				c0-0.1-0.1-0.1-0.1-0.2s-0.2,0.2-0.3,0.1v-0.1c-0.1,0,0,0.2-0.1,0.1s0-0.1,0-0.1s-0.3-0.1-0.5,0.1c0-0.2-0.2-0.1-0.2-0.2
				c-0.1,0-0.1,0-0.2,0.1c-0.7-0.3-1.4-0.5-2.1-0.7c-0.4,0.2-0.7-0.3-1.1-0.4l0,0c-0.2,0-0.3,0-0.5-0.1l-0.2,0.1
				c-0.8-0.6-1.6-1.1-2.5-1.6c-0.5-0.3-1-0.6-1.5-0.8c-0.5-0.2-1-0.3-1.6-0.3c0,0,0,0,0,0c-0.3-0.1-0.5-0.3-0.8-0.4l0,0
				c-0.8-0.1-1.6-0.5-2.3-0.3c-0.9-0.1-1.8,0-2.8-0.1v-0.1c-0.4,0-0.7-0.1-1-0.4c-0.2-0.2-0.4-0.5-0.6-0.8c-0.2-0.7-0.8-1.3-0.8-2.1
				c0.2-0.5-0.6-1-0.4-1.5c0.1-1-0.4-1.7-0.7-2.6c-0.1-0.8-0.2-1.6-0.4-2.4c-0.2-0.1-0.2-0.3-0.4-0.5c-0.1-0.2-0.3-0.4-0.5-0.4v0.1
				c-0.1-0.3-0.4,0.3-0.4-0.1l0,0c0-0.2-0.3,0.4-0.3,0.2v0.1c-0.1,0,0-0.1-0.1-0.1s0,0.1-0.1,0.1c0.1-0.4-0.3,0-0.2-0.4
				c0,0,0-0.2,0.1-0.2s-0.2-0.1-0.2,0.1s-0.2,0.3-0.1,0.5l0.1-0.1c0,0.1,0,0.1,0,0.2c0.1,0,0.1,0.2,0.2,0.3l0,0c0.1-0.1,0.2,0,0.2,0
				v0.1c0,0.2,0.2-0.3,0.1,0c0.3,0,0.5,0,0.8,0.1c0.1-0.1,0.1,0.1,0.2-0.1c0,0.2,0,0.3,0.1,0.4s0,0,0,0c-0.2,0.2,0.3-0.1,0,0.2
				c0.2-0.1,0,0.2,0.3,0.1c0,0-0.1,0.1-0.1,0.1c0,0.2,0,0.4,0,0.6c0.3,0.1,0,0.4,0.3,0.6c-0.1,0.1-0.2,0.4,0,0.6l0,0
				c0,0.2,0.1,0.5,0.3,0.6c-0.3,0.1-0.2,0.2-0.3,0.3c0.2,0.1,0.2,0.5,0.3,0.6c-0.1,0.1,0.1,0.2-0.1,0.2c0.5,0.5,0.7,1.3,0.6,2l0,0
				c0.1,0,0.4,0.1,0.5,0.1l0,0c0.1,0.1-0.1,0.3,0,0.4h-0.2c0.1,0.1-0.1,0.3,0.1,0.4l0,0l0.1,0.1c-0.1,0-0.2,0-0.1,0
				c0.1,0.5,0.3,1.1,0.6,1.5c0.3,0.5,0.7,1,1.3,1.3h-0.1h0.3c0,0,0,0,0,0c0.2,0.2,0.6,0.1,0.8,0.2c0,0-0.1,0.1,0,0.1
				c0.2-0.1,0.3,0.3,0.4-0.1c0,0,0,0.1,0,0.1c0.5-0.1,1.1-0.1,1.7,0c0.4-0.3,0.9,0,1.4-0.2v0.1c0.6-0.1,1.2,0.3,1.7,0.5
				c0.2,0.1,0.4,0.2,0.7,0.3v0.1c0.5-0.1,0.8,0.6,1.3,0.4l-0.1,0.1c0.1-0.1,0.2,0.1,0.3-0.1l0.1,0.1c0.4-0.3,0.4,0.4,0.9,0.3v0
				c0.1,0,0.2,0,0.3,0.1s0,0-0.1,0c0.1,0.4,0.6,0.3,0.9,0.5l-0.1,0.1c0.2,0,0.4,0.2,0.6,0.3v0h0.1l-0.1,0.1
				C112.6,30.1,112.8,30.2,112.9,30.3z"/>
			<path class="st3" d="M115.5,31.3L115.5,31.3C115.5,31.3,115.5,31.3,115.5,31.3z"/>
			<path class="st3" d="M96.5,16.7L96.5,16.7C96.5,16.7,96.5,16.7,96.5,16.7z"/>
			<path class="st6" d="M96.3,16.1c1.4,0.3,2.4,0,2.6,2.6s0.5,2.5,1,4.5s0.7,3.4,2.4,3.7s3.5-0.1,5.2,0.8s1.9,0.5,4.5,2
				c1.7,1,3.4,1.8,5.3,2.3c0.6,0.3,1.4,0.3,2.1,0"/>
			<polygon class="st3" points="108,76.3 108,76.2 107.9,76.2 			"/>
			<path class="st3" d="M107.6,76L107.6,76l0.4,0.1C108,76,107.5,76.1,107.6,76z"/>
			<path class="st3" d="M107.6,75.9c0-0.1-0.1-0.1-0.2-0.1C107.5,75.8,107.5,76,107.6,75.9z"/>
			<path class="st3" d="M106.1,67L106.1,67C106.1,67,106.1,67,106.1,67z"/>
			<path class="st3" d="M106.5,64.5L106.5,64.5c-0.1,0.5-0.5,0.9-0.6,1.4l0,0c-0.3,0.6-0.4,1.2-0.5,1.8c-0.1,0.7,0.3,1.2,0.2,1.8
				l0,0c0,0,0.1,0.1,0.1,0.2s0,0-0.1,0c-0.2,0.2,0,0.8-0.2,0.9c0,0.1,0.1,0.1,0.1,0.1c0,0,0,0,0,0c0,1,0.2,1.9,0.7,2.8
				c0,0.1-0.1,0.1-0.1,0.1c0.5,0.7,0.9,1.5,1.2,2.3c0.1,0,0-0.1,0.2-0.1c0-0.3-0.4-0.4-0.4-0.7h0.1c0-0.2-0.2,0.1-0.2-0.2
				s0.1,0,0.1-0.1c-0.1-0.4-0.4-0.7-0.6-1c0.1-0.2-0.2-0.4-0.1-0.6c-0.1-0.1-0.1-0.2-0.2-0.2c-0.2-0.6-0.3-1.3-0.4-1.9
				c0-0.7,0.1-1.4,0.1-2.1c-0.1-0.2-0.2-0.4-0.2-0.6c0-0.2,0-0.3,0-0.5c0.1-0.3,0.2-0.7,0.3-1l0,0c0-0.3,0.1-0.6,0.3-0.9V66
				c0.9-1.7,1.5-3.5,1.9-5.3c0.3-1,0.5-2.1,0.5-3.2c-0.1-0.6-0.3-1-0.3-1.4s-0.2-1-0.3-1.4c0,0,0,0,0.1,0c0-0.5,0.1-1.1,0.2-1.6l0,0
				c0.1-1.4,1.3-2.6,1.2-4.1c0.1-1.7,0.1-3.5-0.1-5.2h0.1c-0.1-0.7-0.1-1.4,0-2.1c0-0.3,0-0.7,0.2-0.8c0.3-0.2,0.5-0.5,0.7-0.8
				c0.3-0.3,0.5-0.6,0.7-0.9c0.2-0.3,0.4-0.7,0.6-1.1c-0.4-0.1-0.8-0.2-1.2-0.3c-0.3-0.1-0.7-0.2-1-0.4c-0.4-0.3-0.9-0.4-1.3-0.7
				c-0.4-0.2-0.8-0.6-1-1c-0.2-0.4-0.5-0.7-0.9-0.9c-0.3-0.2-0.7-0.4-1-0.7c-0.7-0.5-1.4-1-2-1.6c-0.9-1.3-1.7-2.7-2.3-4.1
				c-0.3-0.3-0.4-0.6-0.5-1c0-0.4-0.1-0.8-0.2-1.2l-0.1,0c0.2-0.4-0.5-0.5-0.2-0.8l0,0c0.1-0.2-0.5-0.2-0.4-0.3h-0.1
				c-0.1-0.1,0.1-0.1,0-0.2s-0.2,0.1-0.2-0.1c0.3-0.2-0.3-0.3,0-0.6c0.1,0.1,0-0.2,0.2-0.1c0-0.1-0.3-0.3-0.4-0.2s-0.3,0.1-0.3,0.4
				l0.1-0.1c-0.1,0.1,0,0.1-0.1,0.2c0.1,0.2,0,0.3,0,0.5l0,0c0.2,0,0.2,0.2,0.2,0.3l-0.1,0.1c-0.1,0.1,0.4,0.1,0.1,0.1
				c0.2,0.5,0.4,1,0.5,1.5c0.1,0,0.1,0.5,0.3,0.3c-0.2,0.2,0,0.7,0.1,0.8l0,0c-0.1,0.5,0.4,0.2,0.3,0.6c0.2-0.1,0.2,0.5,0.5,0.5
				c0,0-0.1,0.1-0.1,0.1c0.2,0.4,0.4,1,0.6,1.3c0.3,0.2,0.3,0.9,0.8,1c0.1,0.4,0.3,0.7,0.5,0.9l0,0c0.2,0.4,0.6,0.7,1,0.8
				c-0.1,0.3,0,0.4,0.1,0.6c0.3,0.1,0.7,0.6,1.1,0.8c0,0.2,0.3,0.2,0.2,0.4c0.3,0.1,0.6,0.3,1,0.4c0.3,0.1,0.5,0.2,0.7,0.4
				c0.4,0.4,0.7,1,1.2,1.6l0,0c0.3,0,0.5,0,0.8-0.1l0,0c0.2,0.1,0.4,0.3,0.6,0.4c0,0,0,0-0.1,0c0.2,0,0.4,0.3,0.7,0.3v0.1h0.2
				c0,0.1-0.1,0.2-0.1,0.1c0.2,0.1,0.4,0.2,0.7,0.2c0,0,0,0.1,0,0.1v0.1l0,0l-0.1,0.1l-0.6,1l-0.3,0.5l-0.2,0.2l0,0
				c-0.1,0.1-0.2,0.1-0.2,0.2c-0.1,0.2-0.2,0.5-0.2,0.8v0.6l-0.1-0.1l0.1,0.4c0,0,0,0-0.1,0c0,0.5,0,1,0.1,1.5c0,0-0.1-0.1-0.1,0
				c0.2,0.3-0.2,0.6,0.2,0.8c0,0-0.1,0-0.1,0c0.2,1,0.2,2,0.2,3c0.2,0.9,0.1,1.7-0.1,2.6L109,50c-0.2,1.1-1,2.1-1.2,3.3
				c-0.1,0.4-0.1,0.9-0.1,1.3h-0.1c0.1,0.4,0.1,0.9,0.1,1.3c0,0.4,0,0.9,0.3,1.3h-0.1c0.2,0.1,0,0.5,0.3,0.4l-0.1,0.2
				c0.4,0.6-0.2,1-0.1,1.8l-0.1-0.1c0,0.2,0,0.4-0.1,0.5c0,0,0,0,0-0.1c-0.4,0.5-0.2,1.2-0.4,1.8l-0.1-0.1c0.1,0.3-0.2,0.8-0.3,1.2
				l0,0v0.2H107C106.8,63.5,106.7,64,106.5,64.5z"/>
			<path class="st3" d="M105.6,69.5L105.6,69.5C105.6,69.5,105.6,69.5,105.6,69.5z"/>
			<path class="st3" d="M99.3,25C99.3,25,99.3,25,99.3,25C99.3,24.9,99.3,24.9,99.3,25z"/>
			<path class="st6" d="M99.3,24.1c1.2,1.3,0.8,2.4,1.6,3.7c0.5,0.9,1,1.8,1.5,2.7c0.9,1.8,2.2,3.3,3.9,4.3c1,0.4,1.5,1.5,2.2,2
				c1,0.5,2,0.9,3.1,1.2c-0.6,0.9-1.3,1.8-2,2.6c-0.3,0.2-0.2,0.7-0.2,2.4s0.3,4.4,0,6.1s-1.7,3.1-1.6,5.8s0.9,1.7,0,5.8
				s-2.6,6.5-2.3,7.7s-0.3,1.7,0,3.6c0.4,1.6,1.1,3.2,2,4.6"/>
			<path class="st6" d="M118.5,32.2v1.1l-0.9,2.6c-0.8-1.2-1.4-2.4-2-3.7c-0.4-0.9-0.7-1.8-0.8-2.8c-1.2-1.7-2.2-3.4-3.1-5.3
				c-0.6-1.4-1-2.9-1.2-4.5c-0.2-1.4-0.5-2.9,0-4.3c0.5-1.3,0.8-2.7,1.1-4.1c0.1-0.3,0.1-0.6,0.1-0.9c0,0,1.9-0.9,1.5,0
				c-0.5,3.5-0.6,7.1-0.5,10.6c0.3,1.5-0.1,2.6,0.4,3.7s0.9,1,0.8,2.3s0.7,1.5,0.3,3.9"/>
			<path class="st4" d="M138.7,18.6c-1.9,1.2-3.7,2.6-5.5,4.1c-1.2,1-3.3,4.1-4.1,4.8s-1-0.2-2.2,2.1c-1.2,2.3-2.7,2.8-3.1,4.3
				s-0.5,3.8-1.4,4.1s-1.4,1.2-2.7,2.2c-1.2,0.8-2.2,1.8-2.9,3.1c-1,1.7-2.1,0.2-2.6,3.2s-0.2,3.4-1.2,6c-0.8,2.3-1.3,4.7-1.5,7.2
				c-0.3,2.4-1.6,6.1-1.5,8s-0.1,7,0,8.2s-0.6,7,0,7.5s1.6,5.6,1.5,6.7c-0.1,1-0.1,1.9,0,2.9"/>
			<path class="st7" d="M145,18.6c-0.2,0.7-4.6,3.8-6.3,4.5s-5.5,3.7-6.3,4.6c-1.3,1.6-2.8,3.2-4.4,4.5c-2.6,2-6.3,5.2-7.2,5.9
				s-2.2,1.8-2.3,2.6l-0.2,0.8"/>
			<path class="st4" d="M145,18.6c-0.2,0.7-4.6,3.8-6.3,4.5s-5.5,3.7-6.3,4.6c-1.3,1.6-2.8,3.2-4.4,4.5c-2.6,2-6.3,5.2-7.2,5.9
				s-2.2,1.8-2.3,2.6l-0.2,0.8"/>
			<path class="st4" d="M119.3,30c0.2,0,1.7-3.9,2.2-4.1s0.9-1,2.4-3.3c1-1.5,2.3-2.9,3.6-4.1c0.5-0.5,3.7-2.6,4.2-3.9
				c0.6-1.2,1.3-2.4,2.1-3.4c0,0,4.6-0.9,3.6,0s-0.2,0.2-2.1,2.7c-1.1,1.6-2.3,3.2-3.6,4.6c-1.2,1.2,0,0.9-2.4,3.1
				c-2.4,2.2-3.1,2.6-3.7,4.3s-2.2,2.5-2.9,3.7s-1,0.5-1.9,2.5c-0.9,2-0.2,2.2-1.5,3.7c-0.7,0.8-1.4,1.5-2.2,2.2l1.3,0.7h0.9"/>
			<path class="st4" d="M208.7,15.4c-0.5,0.2-1.4,3.8-1.5,5.8s-0.2,3.2-0.2,6.1s-0.9,4.6,0,6s2.3,2.2,2.3,5.5s-1.9,8-1.4,8.5
				c1,0.7,1.6,1.9,1.4,3.1c-0.3,1.9,0.5,2.4,0,3.7c-0.3,1-0.7,1.9-1.3,2.7c-0.9,1.1-1.4,2.5-1.4,3.9c0,1.4,1.5,3.8,1.4,5.3
				s-0.6,3.6,0,5.3c0.6,1.8,1.2,3.6,2,5.3l0.3,0.3"/>
			<polygon class="st3" points="210.9,76.5 210.9,76.5 210.7,76.5 			"/>
			<path class="st3" d="M210.4,76.3C210.4,76.3,210.4,76.3,210.4,76.3c0.1,0,0.2,0,0.3,0C210.8,76.2,210.3,76.4,210.4,76.3z"/>
			<path class="st3" d="M210.4,76.3c0-0.1-0.1-0.1-0.2-0.1C210.3,76.2,210.2,76.4,210.4,76.3z"/>
			<path class="st3" d="M208.4,66.5L208.4,66.5C208.4,66.5,208.4,66.5,208.4,66.5z"/>
			<path class="st3" d="M207.4,63.9h-0.1c0.4,0.4,0.4,1,0.5,1.5l0,0c0.1,0.7,0.1,1.3,0,2c0,0.7,0,1.3,0,2c0,0,0,0,0-0.1
				s0.1,0.1,0.1,0.2s-0.1,0-0.1,0c-0.2,0.3,0.1,0.8,0,1c0,0.1,0.1,0.1,0.2,0c0.1,0.5,0.3,1,0.5,1.5c0.2,0.5,0.4,1,0.7,1.5
				c0,0.1,0,0.1-0.1,0.1c0.5,0.8,0.9,1.7,1.1,2.6c0.1,0,0-0.1,0.1-0.1c0-0.3-0.4-0.4-0.4-0.7h0.1c0-0.2-0.2,0-0.2-0.2s0.1,0,0.1,0
				c-0.1-0.4-0.3-0.8-0.6-1.1c0.1-0.2-0.1-0.4,0-0.6c-0.1-0.1-0.1-0.2-0.2-0.2c-0.2-0.7-0.5-1.4-0.8-2.1c-0.2-0.7-0.3-1.4-0.2-2.1
				c-0.3-0.7,0.2-1.5,0.2-2.4l0,0c-0.1-0.4-0.1-0.7-0.1-1.1l-0.2-0.3c-0.1-1-0.4-2-0.8-2.9c-0.2-0.4-0.3-0.9-0.4-1.4
				c0-0.5,0-0.9,0.2-1.4c0.4-1,0.9-1.9,1.6-2.7c0.3-0.5,0.6-1,0.8-1.5c0.1-0.3,0.1-0.5,0.2-0.8c0.1-0.3,0.1-0.6,0.1-0.9h0.1
				c0-0.6,0-1.3-0.2-1.9l0,0c-0.1-0.4-0.1-0.7-0.1-1.1c0-0.4,0-0.8,0-1.2c-0.1-0.8-0.6-1.6-1.3-2l-0.2-0.2c-0.1-0.1-0.2-0.3-0.1-0.5
				c0-0.2,0-0.4,0.1-0.6c0.1-0.4,0.2-0.9,0.3-1.3c0.2-0.9,0.4-1.8,0.6-2.7h0.1c0.2-1.5,0.7-2.9,0.4-4.4c0-0.8-0.3-1.6-0.8-2.2
				c-0.4-0.7-1.1-1.2-1.4-1.9c-0.2-0.5-0.4-0.9-0.6-1.4c-0.2-0.5-0.1-1,0.1-1.5c0.4-0.9,0.5-1.8,0.5-2.7c0-0.9-0.1-1.8-0.3-2.8
				c0.1-0.8,0.1-1.7,0-2.5c-0.1-0.8,0-1.7,0.3-2.5c-0.1-0.8,0.6-1.6,0.7-2.4h-0.1c0.3-0.2-0.1-0.8,0.3-0.9l0,0
				c0.2-0.1-0.3-0.5-0.1-0.5l0,0c0.1-0.2,0.1,0,0.2-0.1s-0.1-0.1,0-0.2c0.3,0.1,0.1-0.5,0.5-0.3c0,0.1,0.2,0,0.2,0.2
				c0,0,0.1-0.1,0.1-0.1c0,0-0.1,0-0.1-0.1s0.1-0.4-0.2-0.4c0,0,0,0.1,0,0.1c-0.2,0-0.1,0-0.2,0c-0.2,0.3-0.4,0.2-0.5,0.4l0,0
				c0.1,0.2-0.1,0.3-0.1,0.4h-0.1c-0.2,0,0.2,0.4,0,0.2c-0.1,0.5-0.3,1.2-0.4,1.8c0.1,0.1-0.1,0.5,0.1,0.4c-0.3,0.1-0.4,0.5-0.4,0.7
				l0,0c-0.3,0.3,0.2,0.4-0.2,0.7c0.2,0.1-0.2,0.5,0.1,0.8c0,0-0.1,0-0.2,0c-0.1,0.6-0.1,1.2-0.2,1.6c0.2,0.4-0.1,1,0.2,1.3
				c-0.1,0.4-0.2,0.8-0.1,1.1l0,0c0,0.4,0,0.9,0.2,1.3c-0.3,0.1-0.2,0.3-0.3,0.5c0.1,0.3,0.1,0.9,0.2,1.3c-0.1,0.1,0,0.4-0.2,0.4
				c0.1,0.7,0.1,1.3,0,2c-0.2,0.8-0.3,1.5-0.3,2.3l0,0c0.2,0.2,0.4,0.4,0.6,0.5c0,0,0,0-0.1,0c0.1,0.2,0.1,0.5,0.3,0.8
				c0,0,0,0-0.1,0c0.2,0.1,0.2,0.5,0.5,0.6l0,0l0.2,0.1c-0.1,0-0.1,0.1-0.2,0c1.4,1.6,2,3.6,1.7,5.7v-0.1l0.1,0.4c0,0-0.1,0-0.1,0
				c-0.2,0.5-0.1,1.1-0.2,1.6c0,0-0.1-0.1-0.1,0c0.1,0.4-0.4,0.5,0,0.8c0,0-0.1,0-0.1,0c-0.2,1.1-0.4,2.2-0.7,3.2c0,0.2,0,0.4,0,0.7
				c0,0.3,0.1,0.5,0.2,0.7c0.3,0.3,0.6,0.7,0.9,1h-0.1c0.8,1-0.1,2.4,0.3,3.7c0.1,0.4,0.2,0.9,0.1,1.4h-0.1c0,0.5-0.1,1-0.4,1.4
				c-0.2,0.4-0.4,0.8-0.6,1.3l-0.1-0.1c0.1,0.2-0.4,0.4-0.1,0.5l-0.2,0.1c0,0.7-0.8,0.9-0.9,1.7v-0.1c0,0.2-0.1,0.4-0.2,0.6
				c0,0,0,0,0-0.1c-0.5,0.5-0.4,1.3-0.3,2l-0.1-0.1c0.2,0.3,0.2,0.9,0.4,1.3h-0.1l0.1,0.2h-0.1C207,62.9,207.2,63.3,207.4,63.9z"/>
			<path class="st3" d="M207.8,69.4L207.8,69.4C207.8,69.4,207.8,69.4,207.8,69.4z"/>
			<path class="st3" d="M207.8,15.8L207.8,15.8C207.8,15.7,207.8,15.7,207.8,15.8z"/>
			<path class="st4" d="M242.8,12.6c0,0-4.4,2.1-5.1,3.5c-0.8,1.6-1.9,3-3.2,4.1c-1.7,1.5-3.8,2-4.9,3.6s-1.4,2.2-3.1,3.6
				s-0.9,0.8-3.4,2.7c-1.9,1.3-3.6,2.9-4.8,4.9c-1.5,2.3-1,1.8-1.7,3.8s-0.8,2.2-1.5,4.6s-1.4,3.8-1.4,7s-0.2,4.6-0.3,7.3
				s-1,3.1,0.2,5.1c1.2,2.1,1.7,1.9,2.2,3.8c0.4,1.3,0.7,2.7,0.7,4.1V73"/>
			<polygon class="st3" points="217,73 217.1,73 217,72.9 			"/>
			<path class="st3" d="M216.8,72.5C216.8,72.5,216.7,72.5,216.8,72.5l0.2,0.3C217.2,72.7,216.7,72.6,216.8,72.5z"/>
			<path class="st3" d="M216.8,72.4c0.1-0.1-0.1-0.2-0.1-0.2C216.8,72.2,216.7,72.4,216.8,72.4z"/>
			<path class="st3" d="M213.3,61.3L213.3,61.3C213.3,61.3,213.3,61.3,213.3,61.3z"/>
			<path class="st3" d="M213.2,58.3h-0.1c0.1,0.6-0.2,1.2-0.2,1.8v0c-0.1,0.4-0.1,0.8-0.1,1.2c0.1,0.4,0.2,0.8,0.4,1.1
				c0.4,0.6,0.8,1.3,1.3,1.8c0,0-0.1,0-0.1,0s0.2,0.1,0.2,0.1s-0.1,0-0.1,0c0.1,0.4,0.7,0.7,0.7,1c0.1,0.1,0.1,0.1,0.2,0
				c0.3,0.6,0.6,1.1,0.7,1.8l0.6,1.8c0,0.1-0.1,0.1-0.1,0.1c0.2,0.5,0.4,1.1,0.4,1.6c0,0.6,0,1.1-0.1,1.6c0.1,0,0.1-0.1,0.2,0
				c0.1-0.3-0.2-0.6-0.1-1h0.1c0-0.2-0.2,0-0.1-0.3c0.1-0.1,0.1,0,0.1,0c0-0.5,0-1-0.2-1.5c0.1-0.1-0.1-0.5,0.1-0.8
				c-0.1-0.1-0.1-0.3-0.2-0.3c-0.1-0.9-0.4-1.7-0.7-2.6c-0.2-0.4-0.4-0.9-0.7-1.2c-0.3-0.4-0.6-0.7-0.8-1c-0.6-0.6-1-1.4-1.2-2.3
				l0,0c-0.1-0.3-0.1-0.7,0-1l-0.1-0.3c0.4-1.1,0.5-2.2,0.6-3.4c0.1-1.2,0.2-2.3,0.3-3.4s0.1-2.6,0.2-3.7s0.2-2.3,0.4-3.6
				c0,0,0,0,0,0.1c0.1-0.7,0.5-1.3,0.6-2l0,0c0.1-0.9,0.3-1.7,0.6-2.5c0.3-0.8,0.6-1.6,0.7-2.5c0.2-1,0.6-2,1.1-2.9
				c0.6-0.9,1.1-1.8,1.8-2.7h0.1c0.9-1.4,2.5-2.1,3.8-3.2c1.5-0.9,2.6-2.5,4.1-3.5c1-0.6,1.2-2.2,2.1-2.8s1.7-1.1,2.6-1.7
				c0.9-0.5,1.7-1.2,2.4-2c0.8-0.6,1.4-1.3,1.9-2.1c0.3-0.4,0.5-0.8,0.8-1.2l0.4-0.6c0.1-0.2,0.3-0.4,0.5-0.5c0.5-0.8,1.6-1,2.4-1.5
				h-0.1c0.4,0,0.5-0.7,0.9-0.5l0,0c0.3,0.1,0.2-0.6,0.4-0.4v-0.1c0.2-0.1,0.1,0.1,0.3,0s-0.1-0.2,0.1-0.2c0.2,0.3,0.5-0.3,0.7,0
				c-0.1,0.1,0.2,0.1,0,0.3c0.1,0,0.4-0.2,0.3-0.3s0-0.4-0.3-0.4v0.1c-0.1-0.1-0.1,0-0.1-0.1c-0.3,0.1-0.4,0-0.6,0l0,0
				c-0.1,0.2-0.3,0.2-0.4,0.3h-0.1c-0.1-0.1-0.2,0.4-0.2,0.1c-0.5,0.4-1.1,0.7-1.7,1.1c0,0.1-0.4,0.3-0.2,0.4
				c-0.3,0-0.6,0.1-0.9,0.3c0,0,0-0.1,0-0.1c-0.5,0-0.2,0.5-0.7,0.5c0.1,0.1-0.1,0.2-0.2,0.4s-0.3,0.4-0.2,0.5c0,0-0.1,0-0.1,0
				c-0.3,0.5-0.6,1-1,1.4c-0.1,0.5-0.7,0.7-0.7,1.2c-0.4,0.2-0.7,0.5-0.9,0.8v-0.1c-0.4,0.3-0.7,0.7-0.9,1.1c-0.3-0.1-0.4,0-0.6,0
				c-0.4,0.4-0.8,0.7-1.2,1c-0.1-0.1-0.3,0.3-0.5,0.1c-0.5,0.5-1.2,1-1.8,1.7s-1.1,1.3-1.7,1.8l0,0c0,0.2,0,0.5,0,0.8c0,0-0.1,0,0,0
				c-0.1,0.2-0.5,0.3-0.6,0.5c0,0,0,0,0-0.1c-0.1,0.2-0.5,0.3-0.6,0.5h-0.1l-0.1,0.2c0,0-0.1-0.1,0-0.2c-0.4,0.4-1,0.8-1.4,1.2
				s-0.9,0.8-1.4,1.2l-2.9,2.4v-0.1l-0.3,0.4c0,0,0-0.1,0-0.1c-0.5,0.4-0.9,0.9-1.3,1.4c0,0,0-0.1-0.1-0.1c-0.1,0.5-0.6,0.5-0.5,0.8
				c0,0-0.1,0-0.1-0.1c-0.3,0.5-0.6,1.1-1,1.6c-0.4,0.5-0.7,1.1-0.9,1.7c0.1,1.1-0.6,2.1-0.7,3.2h-0.1c-0.3,1.4-0.9,2.7-1.3,4.1
				c-0.2,0.6-0.3,1-0.4,1.5H214c0,1-0.8,2-0.5,3.2l-0.1-0.1c0.1,0.2-0.1,0.6,0.2,0.6l-0.1,0.2c0.4,0.7-0.2,1.3,0.1,2.2l-0.1-0.1
				c0.1,0.2,0.1,0.5,0,0.7c0,0,0,0,0-0.1c-0.2,0.8-0.2,1.5-0.1,2.3l-0.1-0.1c0,0.5,0,1,0,1.5h-0.1l0.1,0.3h-0.1
				C213.1,57,213.2,57.6,213.2,58.3z"/>
			<path class="st3" d="M214.5,64.2L214.5,64.2C214.5,64.2,214.4,64.2,214.5,64.2z"/>
			<path class="st3" d="M241.8,12.4L241.8,12.4C241.9,12.4,241.8,12.4,241.8,12.4z"/>
			<path class="st4" d="M199.1,13.3c0.3,0.7,2.4,3.4,2.6,3.8s2.2,1.3,2.6,3.3s2,3.4,2.4,5.1c0.2,1.5,0.3,2.9,0.2,4.4"/>
			<path class="st4" d="M231.4,9.1c0,0-2.5,3.6-3.6,4.3c-1,0.7-1.8,1.6-2.3,2.7c-0.9,1.5-2.9,2.2-3.1,4.1s-2.2,2.9-2.1,4.7
				s-0.8,3.5-1.1,4.8s-1,2-1,3.7v1.6"/>
			<path class="st4" d="M212.1,11.6c0.1,1.5,0.4,3,0.7,4.4c0.1,1.2-0.8,2.6,0,3.6c0.7,1,1.1,2.1,1.2,3.3c0,0.7,0.7,1.2,0,1.9
				s0.3,0-1.1,2.2s-2.6,3.6-2.4,4.7c0.2,1.1-0.2,1.2,0,3.3c0.1,1.3,0.1,2.5,0,3.8c0.1,0.7,0.3,1.3,0.7,1.9c0.5,0.8,1.1,1.5,1.8,2.2
				c0.4,0.5,0.9,1,1.4,1.4"/>
			<path class="st3" d="M214.7,43.7L214.7,43.7l-0.1,0.1L214.7,43.7z"/>
			<path class="st3" d="M214.3,43.7L214.3,43.7l0.3-0.1C214.7,43.5,214.3,43.8,214.3,43.7z"/>
			<path class="st3" d="M214.3,43.6c0-0.1-0.1,0-0.1,0S214.2,43.8,214.3,43.6z"/>
			<path class="st3" d="M210.9,39.4L210.9,39.4z"/>
			<path class="st3" d="M210.4,38h-0.1c0.2,0.2,0,0.5,0,0.7c0,0.1,0,0.1,0,0.2l0,0c0.1,0.7,0.5,1.4,1.1,1.9h-0.1c0,0,0.1,0,0.1,0
				s0,0-0.1,0c-0.1,0.2,0.4,0.3,0.3,0.5c0.1,0,0.1,0,0.1-0.1c0.4,0.4,0.8,0.8,1.3,1.2c0,0,0,0.1-0.1,0.1c0.5,0.2,0.9,0.6,1.1,1
				c0.1,0,0-0.1,0.1-0.1s-0.3-0.1-0.4-0.3h0.1c0-0.1-0.1,0.1-0.2,0s0.1-0.1,0.1-0.1c-0.2-0.1-0.3-0.3-0.6-0.4
				c0.1-0.2-0.1-0.2-0.1-0.3c-0.1,0-0.1-0.1-0.2,0c-0.5-0.7-1.1-1.1-1.6-1.8c-0.5-0.1-0.4-0.7-0.6-1.1l0,0c-0.1-0.1-0.2-0.3-0.2-0.5
				l-0.1-0.1v0c0.2-1.1,0.3-2.2,0.2-3.3c0-0.7,0-1.2,0.1-1.8c0-0.3,0-0.5,0-0.8c0-0.3-0.1-0.7-0.2-1c0,0,0.1,0,0.1,0
				c-0.1-0.3-0.1-0.6,0-0.9l0,0c0-0.8,0.8-1.4,1-2.2c0.6-0.8,1.1-1.7,1.6-2.6h0.1c0.1-0.2,0.2-0.4,0.3-0.6c0-0.1,0.1-0.2,0.1-0.3
				c0-0.1,0-0.2,0.1-0.3c0.2-0.1,0.3-0.3,0.4-0.4c0.2-0.2,0.2-0.5,0.2-0.7c0-0.5-0.4-0.8-0.4-1.2c-0.1-0.4-0.2-0.8-0.3-1.3
				c0.1-0.6-0.7-1-0.7-1.5c-0.1-0.5-0.2-0.9-0.3-1.4l-0.1-1.5c0.4-0.9-0.3-1.7-0.2-2.7c-0.3-0.4,0.1-0.9-0.1-1.4h-0.1
				c0.2-0.2-0.4-0.3-0.1-0.5l0,0c0.2-0.1-0.4-0.2-0.2-0.2h0c0-0.1,0.1,0,0.1-0.1s-0.2,0-0.1-0.1c0.4,0-0.1-0.3,0.3-0.3
				c0,0,0.2-0.1,0.3,0c0,0,0-0.2-0.2-0.2s-0.3-0.1-0.5,0h0.1c-0.1,0-0.1,0-0.2,0.1c0,0.1-0.2,0.2-0.3,0.3l0,0
				c0.2,0.1,0.1,0.2,0.1,0.2h-0.1c-0.2,0.1,0.3,0.1,0.1,0.1c0.1,0.3,0.1,0.7,0.2,1c0.1,0,0,0.3,0.2,0.1c-0.1,0.1-0.2,0.3-0.2,0.5
				c0,0-0.1,0,0,0c-0.2,0.2,0.3,0.1,0,0.4c0.3,0,0,0.3,0.3,0.3c0,0-0.1,0.1-0.1,0.1c0.1,0.3,0,0.6,0.1,0.9c0.3,0.2,0,0.5,0.3,0.6
				c-0.1,0.1-0.2,0.3-0.1,0.5l0,0c-0.1,0.2,0,0.5,0.1,0.7c-0.3,0-0.3,0.1-0.4,0.2c0.1,0.2,0,0.5,0.1,0.9c-0.1,0,0.1,0.2-0.1,0.3
				c0.1,0.2,0.2,0.4,0.3,0.6c0.1,0.2,0.3,0.4,0.4,0.6c0.2,0.3,0.3,0.6,0.3,1l0,0c0.1,0,0.4,0,0.6,0.1l0,0c0,0-0.1,0.3,0,0.4h-0.1
				c0.1,0.1-0.1,0.3,0.1,0.4h-0.1l0.1,0.1c-0.1,0-0.2,0-0.1,0l0.1,0.8c0,0.2,0,0.4,0.1,0.5c0.1,0.2,0.1,0.3,0.2,0.5
				c0.1,0.3,0.2,0.4,0.1,0.5c0,0.1-0.1,0.2-0.2,0.3c-0.2,0.1-0.3,0.3-0.3,0.5l-0.1-0.1c0,0.1,0,0.2,0.1,0.3l0,0
				c-0.1,0.2-0.1,0.5-0.3,0.7c0,0-0.1-0.1-0.1-0.1c0.1,0.3-0.4,0.2-0.1,0.4c0,0-0.1,0-0.1-0.1c-0.2,0.6-0.5,1.1-0.9,1.5
				c0,0.6-0.6,0.9-0.6,1.5h-0.1c-0.1,0.7-0.8,1.2-0.9,1.9c-0.1,0.3,0.1,0.5,0.1,0.8h-0.1c0.4,0.5-0.4,1,0,1.5h-0.1
				c0.2,0.1-0.1,0.3,0.2,0.3l-0.1,0.1c0.4,0.3-0.2,0.6,0.1,1h-0.1c0.1,0.1,0.1,0.2,0.1,0.3s0,0-0.1,0c-0.3,0.4,0.1,0.7,0.1,1.1h-0.1
				c0.2,0.2,0,0.5,0.1,0.7h-0.1l0.1,0.1h-0.1C210.3,37.4,210.4,37.7,210.4,38z"/>
			<path class="st3" d="M211.3,40.9L211.3,40.9z"/>
			<path class="st3" d="M211.5,12.1L211.5,12.1C211.5,12.1,211.5,12,211.5,12.1z"/>
			<path class="st2" d="M222.5,17.2c-0.9,0.6-1.4,1.8-2.1,2.8s-1.6,0-2.1,1.7c0,0,0-2.5,0-3.7s1.2-3.2,1.5-5.4
				c0.2-1.8,1.2-3.5,2.7-4.5"/>
			<polygon class="st3" points="222.1,7.5 222.1,7.5 222.1,7.6 			"/>
			<path class="st3" d="M222.1,7.8L222.1,7.8L222,7.5C222,7.4,222.2,7.9,222.1,7.8z"/>
			<path class="st3" d="M222.1,7.8c-0.1,0,0,0.1,0,0.1S222.2,7.9,222.1,7.8z"/>
			<path class="st3" d="M219.9,10.7L219.9,10.7C219.9,10.7,219.9,10.7,219.9,10.7z"/>
			<path class="st3" d="M220,11.7h0.1c-0.1-0.2,0.1-0.3,0.1-0.5l0,0c0.1-0.4,0.2-0.8,0.3-1.3l0,0c0,0-0.1-0.1-0.1-0.1c0,0,0,0,0.1,0
				c0.2,0,0-0.3,0.2-0.3c0,0-0.1-0.1-0.1-0.1c0.2-0.3,0.4-0.6,0.5-1c0,0,0.1,0.1,0.1,0.1c0-0.4,0.4-0.6,0.7-0.7c0-0.1-0.1,0-0.1-0.1
				s-0.1,0.3-0.2,0.2V7.8c-0.1,0,0.1,0.2,0,0.1s0-0.1-0.1-0.1s-0.3,0.2-0.3,0.4c-0.1-0.1-0.1,0.1-0.3,0c0,0.1,0,0.1,0.1,0.2
				c-0.4,0.4-0.7,0.8-0.9,1.3c0.2,0.4-0.3,0.5-0.3,0.8l0,0c0.1,0.1,0.1,0.2,0,0.4l0.1,0.1c-0.5,0.6-0.4,1.3-0.6,1.9s-0.7,1.2-0.5,2
				h-0.1c0,0.2-0.2,0.4-0.2,0.6l0,0c0.1,0.6-0.4,1-0.3,1.5c-0.1,0.6-0.1,1.3,0,1.9h-0.1c0.1,0.2,0.1,0.5,0,0.7
				c-0.1,0.3-0.1,0.6-0.1,0.9c0,0.2,0,0.3,0,0.5c0.1,0.1,0.1,0.1,0.1,0.2c0,0.1,0,0.2,0.1,0.3l0,0l0,0v-0.1c0,0,0-0.1,0-0.1
				c0,0.1-0.1,0.2-0.1,0.3c0.1-0.2,0.2-0.4,0.3-0.6c0-0.1,0.1-0.2,0.1-0.3c0,0,0.1-0.1,0.1-0.1c0.1-0.1,0.1-0.1,0.2-0.1h0.1
				c0.3,0.2,0.7,0.2,1,0c0.3-0.2,0.4-0.5,0.4-0.9c0.5-0.4,0.4-1.1,1-1.3c0-0.4,0.5-0.3,0.7-0.5l-0.1,0c0.2,0.1-0.1-0.4,0.2-0.2l0,0
				c0.2,0.1-0.2-0.4,0-0.3l-0.1-0.1c0-0.1,0.1,0.1,0.1,0.1s-0.1-0.1,0-0.1c0.2,0.3,0.1-0.2,0.3,0.1c0,0,0.1,0.1,0.1,0.2s0.1,0,0-0.2
				c-0.1-0.1-0.2-0.3-0.3-0.4l0.1,0.1c0,0-0.1-0.1-0.1-0.1c-0.1,0-0.2-0.1-0.3-0.1l0,0c0.1,0.1-0.1,0.1-0.1,0.1H222
				c-0.1-0.1,0.1,0.3,0,0.1c-0.1,0.2-0.2,0.4-0.4,0.5c0.1,0.1-0.1,0.1,0.1,0.2c-0.2-0.1-0.4,0-0.4,0.1s0,0,0,0
				c-0.3-0.1,0.1,0.3-0.2,0.1c0.2,0.2-0.2,0.1,0,0.3l-0.1-0.1c-0.1,0.1-0.3,0.3-0.4,0.4c0.1,0.2-0.3,0.2-0.1,0.5
				c-0.1,0-0.3,0.1-0.3,0.3l0,0c-0.1,0.1-0.1,0.3-0.1,0.5c-0.1-0.1-0.2-0.1-0.3-0.1c0.1,0.1,0,0.2-0.1,0.3c-0.1-0.1,0,0.1-0.1-0.1
				c0,0.1-0.1,0.2-0.3,0.3l-0.2,0.1h-0.1c-0.1,0-0.1-0.1,0-0.2l0,0c-0.1,0.2-0.2,0.6-0.3,0.8v-0.1c-0.1,0.1,0.1-0.2,0-0.1l0.1-0.1
				c-0.1,0.2,0.1-0.3,0,0.1l0.1-0.1l-0.1,0.2l0.1-0.3c0-0.1-0.3,0.1-0.2-0.6h0.1l-0.1-0.1c0,0,0,0,0.1,0c0.1-0.2-0.1-0.4-0.1-0.5
				c0,0,0.1,0,0.1,0c-0.2-0.1,0.2-0.2-0.1-0.3h0.1c-0.1-0.3-0.1-0.7,0-1c-0.3-0.3,0.1-0.6-0.1-0.9h0.1c-0.1-0.5,0.3-0.8,0.4-1.2
				c0-0.1,0.1-0.3,0.1-0.4h0.1c-0.2-0.4,0.5-0.5,0.2-0.9h0.1c-0.1-0.1,0.1-0.1-0.2-0.2h0.1c-0.3-0.3,0.3-0.3,0.1-0.6h0.1
				c0-0.1-0.1-0.2,0-0.2s0,0,0,0c0.3-0.1,0.1-0.4,0.1-0.7l0.1,0.1c-0.1-0.1,0-0.3,0-0.4h0.1L220,12h0.1
				C220.1,12.1,220,11.9,220,11.7z"/>
			<path class="st3" d="M220.6,9.9"/>
			<path class="st3" d="M222,16.9L222,16.9C222,16.9,222,16.9,222,16.9z"/>
			<path class="st6" d="M216.7,24.8c0,0.1-0.2,0.5-0.4,1.1c-0.3,0.7-0.7,1.4-1.1,2c-0.7,1.1-1,2.4-0.9,3.8c-0.1,0.8-0.1,1.6,0,2.5
				c0.2,0.7,1.1,1-0.8,2.7c-1.1,1-2,2.3-2.4,3.8"/>
			<path class="st4" d="M199.8,23.1c0.7,1.5,2.9,3.7,3.2,4.8c0.5,1.3,1.2,2.6,2,3.8c0.7,1,1.2,2.1,1.7,3.2c0.4,1.2,1,2.3,1.9,3.2
				c0.8,0.8,1.9,3.2,2.6,3.3"/>
			<path class="st4" d="M194.2,23.7c0.9,1.7,0.2,5.1,2.6,5.6s2.9,1.7,3.8,2.3c0.9,0.6,1.9,0.8,2.5,1.6s3.6,1.6,3.6,1.6l1.9,0.5"/>
			<path class="st4" d="M190.8,29.4c1-0.7,3.6,2,4.8,2.9s3.8,2.2,4.3,2.7s2.6,3,3.2,3.2s3.8,0.7,3.8,0.7l2.5,0.1"/>
			<polygon class="st8" points="53,44.4 53,44.4 53,44.5 			"/>
			<path class="st8" d="M52.7,44.6C52.7,44.6,52.7,44.6,52.7,44.6l0.2-0.2C52.8,44.2,52.7,44.7,52.7,44.6z"/>
			<path class="st8" d="M52.6,44.6c-0.1-0.1-0.1,0.1-0.1,0.1C52.5,44.6,52.6,44.7,52.6,44.6z"/>
			<path class="st8" d="M45.8,44.6L45.8,44.6z"/>
			<path class="st8" d="M44.1,45.1v0.1c0.3-0.2,0.7,0,1-0.1l0,0c0.9,0,1.7-0.1,2.6-0.3c0,0,0,0,0,0.1s0.1-0.1,0.1-0.1s0,0,0,0.1
				c0.2,0.2,0.5-0.1,0.7,0c0,0,0-0.1,0-0.2c0.7,0,1.4-0.1,2.1-0.2c0,0,0,0.1,0,0.1c0.6-0.2,1.2-0.2,1.8-0.1c0-0.1-0.1-0.1,0-0.2
				c-0.2-0.1-0.4,0.2-0.5,0v-0.1c-0.1,0,0,0.2-0.2,0.1s0-0.1,0-0.1c-0.3,0-0.6,0-0.8,0.1c-0.1-0.2-0.3,0-0.4-0.2
				c-0.1,0.1-0.1,0-0.2,0.2c-1-0.1-2,0.1-3,0c-0.5,0.3-1,0-1.6,0.1l0,0c-0.2,0.1-0.4,0.1-0.7,0.1l-0.2,0.1c-1.3-0.3-2.6,0-3.9-0.1
				c-1.4-0.2-2.8-0.2-4.2,0.1c0,0,0,0,0-0.1c-0.4,0.1-0.8,0-1.2,0l0,0c-1,0.3-2,0-3,0.3c-1.1,0-2.4,0-3.7,0.1v0
				c-1,0.1-1.9-0.2-2.9-0.1c-1-0.2-2,0.4-3,0.2c-0.6-0.3-1.5,0.3-2,0c-1.2-0.3-2.4-0.3-3.6,0.1c-1.1-0.2-2.2,0.3-3.3-0.1
				c-0.5,0.2-1.1-0.3-1.6-0.2V45c-0.2-0.2-0.5,0.3-0.6,0l0,0c-0.1-0.2-0.3,0.4-0.3,0.2v0.1c-0.1,0,0-0.1-0.1-0.1s0,0.2-0.1,0.1
				c0-0.4-0.3,0.1-0.3-0.3c0.1,0-0.1-0.2,0-0.3c0,0-0.3,0-0.2,0.2s-0.1,0.3,0,0.5v-0.1c0,0.1,0,0.1,0,0.2c0.2,0,0.2,0.2,0.3,0.3l0,0
				c0.1-0.2,0.2-0.1,0.3,0v0.1c0,0.2,0.2-0.3,0.1,0c0.5-0.1,1-0.2,1.5-0.2c0.1-0.1,0.3,0,0.2-0.2c0.1,0.2,0.3,0.3,0.5,0.3l0,0
				c0.2,0.3,0.3-0.3,0.4,0.1c0-0.3,0.4,0.1,0.5-0.2c0,0,0,0.1,0,0.2c0.4,0,0.8,0.1,1.1,0.1c0.3-0.2,0.6,0.1,0.8-0.2
				c0.2,0.1,0.5,0.1,0.7,0.1l0,0c0.3,0,0.6-0.1,0.9-0.2c0.1,0.3,0.2,0.2,0.3,0.3c0.2-0.1,0.6-0.1,0.9-0.2c0,0.1,0.2,0,0.3,0.1
				c0.9-0.3,1.8-0.3,2.7,0l0,0c0.1-0.1,0.2-0.3,0.4-0.5s0,0,0,0c0.2,0,0.3,0.2,0.5,0.1c0,0,0,0,0,0.1c0.1-0.1,0.3,0.2,0.5,0l0,0
				l0.1-0.1c0,0.1,0,0.2-0.1,0.1c1.4,0.1,2.8-0.3,4.2-0.2l0,0.1l0.3-0.1c0,0,0,0,0,0.1c0.4,0.1,0.7-0.1,1,0c0,0,0,0.1,0,0.1
				c0.3-0.2,0.4,0.2,0.5-0.1c0,0,0,0.1,0,0.1c0.7-0.1,1.4-0.1,2.1-0.1c0.6-0.3,1.2,0,1.8-0.3V45c0.8-0.1,1.6-0.1,2.5,0
				c0.3,0,0.6,0,0.9-0.1v0.1c0.6-0.3,1.2,0.3,1.8-0.1v0.1c0.1-0.2,0.4,0.1,0.3-0.2l0.1,0.1c0.4-0.4,0.8,0.2,1.2-0.1V45
				c0.1-0.1,0.3-0.1,0.4,0l0,0c0.4,0.3,0.9,0,1.3,0v0.1c0.2-0.2,0.6,0,0.9-0.1v0.1l0.1-0.1v0.1C43.4,45.3,43.7,45.1,44.1,45.1z"/>
			<path class="st8" d="M47.7,44.9L47.7,44.9C47.7,44.9,47.7,44.9,47.7,44.9z"/>
			<path class="st8" d="M11.4,45.6L11.4,45.6C11.4,45.6,11.4,45.6,11.4,45.6z"/>
			<polygon class="st8" points="215,42.7 214.9,42.7 214.8,42.8 			"/>
			<path class="st8" d="M214.1,42.9C214.1,42.9,214.1,43,214.1,42.9l0.5-0.2C214.4,42.5,214.2,43,214.1,42.9z"/>
			<path class="st8" d="M213.9,42.9c-0.1,0-0.3,0-0.4,0.1C213.6,42.9,214,43,213.9,42.9z"/>
			<path class="st8" d="M195.5,42.7L195.5,42.7C195.5,42.6,195.5,42.6,195.5,42.7z"/>
			<path class="st8" d="M190.7,43.2l-0.1,0.1c1-0.1,1.9-0.1,2.9-0.1h-0.1c2.4,0,4.6-0.2,7-0.3c0,0,0,0-0.1,0.1
				c0.1-0.1,0.2-0.1,0.4-0.1c0,0,0,0-0.1,0.1c0.5,0.2,1.5-0.1,1.8,0.1c0.1,0,0.2-0.1,0.1-0.2c1.9,0,3.9,0,5.8-0.1
				c0.1,0,0.1,0.1,0.1,0.1c1.7-0.2,3.3-0.2,5,0c0.1-0.1-0.2-0.1,0-0.2c-0.5-0.1-1,0.2-1.5,0l0.1-0.1c-0.4-0.1-0.1,0.2-0.4,0.1
				c-0.1-0.1,0-0.1,0-0.1c-0.7-0.1-1.5,0-2.2,0.1c-0.2-0.2-0.8,0-1.1-0.2c-0.2,0.1-0.4,0-0.5,0.2c-2.6-0.1-5.3-0.1-8-0.1
				c-1.3,0.3-2.8-0.1-4.3,0.1l0,0c-0.6,0.1-1.2,0.1-1.8,0.1l-0.5,0.1c-1.8-0.1-3.5-0.1-5.3-0.1s-3.6,0-5.3-0.1
				c-3.8-0.2-7.7-0.2-11.5,0.1c0,0,0,0,0.1-0.1c-1.1,0.1-2.2,0-3.2,0l0,0c-2.6,0.3-5.5,0-8.1,0.3c-3.1,0-6.6-0.1-9.9-0.2v-0.1
				c-2.6,0.1-5.2-0.1-7.8-0.1c-2.7-0.2-5.6,0.3-8.3,0.1c-1.7-0.3-3.9,0.4-5.5,0.1c-3.2-0.4-6.5-0.4-9.7,0.1c-3-0.1-6,0.3-8.9,0
				c-1.4,0.3-2.9-0.2-4.4-0.1l0.1,0.1c-0.6-0.2-1.2,0.4-1.6,0.1h0.1c-0.3-0.2-0.7,0.5-0.8,0.3v0.1c-0.3,0.1,0-0.1-0.3-0.1
				c-0.1,0,0,0.2-0.3,0.1c-0.1-0.4-0.8,0.2-0.9-0.2c0.2,0-0.3-0.1,0.1-0.3c-0.1,0-0.7,0.1-0.7,0.2s-0.2,0.4,0.1,0.5l0.1-0.1
				c0.1,0.1,0.1,0.1,0.2,0.2c0.5,0,0.6,0.2,0.9,0.2l0,0c0.2-0.1,0.5-0.2,0.7-0.1l0.1,0.1c0.1,0.1,0.5-0.3,0.4-0.1
				c0.9-0.1,2-0.2,3.1-0.2c0.2-0.1,0.8,0,0.6-0.2c0.4,0.2,0.9,0.3,1.4,0.2c0,0-0.1,0-0.1,0c0.6,0.3,0.7-0.3,1.2,0.1
				c0.1-0.3,1,0.1,1.3-0.2c0.1,0,0.1,0.1,0.1,0.2c1,0,2,0.1,2.8,0.1c0.7-0.2,1.7,0.1,2.3-0.2c0.7,0.1,1.3,0.1,2,0.1h-0.1
				c0.4,0,0.8,0,1.3-0.1c0.3,0,0.7-0.1,1-0.2c0.2,0.3,0.6,0.2,0.9,0.3c0.5-0.1,1.6-0.1,2.4-0.2c0.1,0.1,0.7,0,0.7,0.1
				c2.5-0.3,5-0.2,7.4,0.1l0,0c0.3-0.1,0.7-0.3,1-0.5l0,0c0.4,0,0.9,0.1,1.3,0.1c0,0,0,0-0.1,0.1c0.4-0.1,0.8,0.2,1.3,0v0l0.3-0.1
				c0,0.1,0,0.2-0.2,0.1c3.7,0.1,7.6-0.1,11.5-0.2l-0.1,0.1l0.7-0.1c0,0,0,0-0.1,0.1c1,0.1,1.9-0.1,2.9,0c0,0-0.1,0.1,0,0.1
				c0.7-0.2,1.1,0.3,1.4-0.1c0,0,0,0.1,0,0.1c0,0,0,0,0,0c1.9,0,3.9,0,5.8,0.1c1.6-0.3,3.4,0,5.1-0.3v0.1c2.2-0.2,4.4,0,6.7,0
				c0.9,0,1.6,0,2.5-0.1v0.1c1.6-0.3,3.3,0.3,4.9-0.1l-0.1,0.1c0.3-0.2,1,0.1,0.9-0.2l0.3,0.1c1.1-0.4,2,0.2,3.4-0.1l-0.1,0.1
				c0.3-0.1,0.7-0.1,1.1,0c0,0,0,0-0.1,0c1.2,0.1,2.4,0.1,3.6,0l-0.1,0.1c0.8-0.1,1.6-0.1,2.4,0v0.1l0.4-0.1v0.1
				C188.8,43.3,189.7,43.2,190.7,43.2z"/>
			<path class="st8" d="M200.6,43L200.6,43C200.6,43,200.6,43,200.6,43z"/>
			<path class="st8" d="M102.2,43.8h-0.1C102.1,43.8,102.2,43.8,102.2,43.8z"/>
			<polygon class="st8" points="221.6,47.3 221.7,47.3 222,47.3 			"/>
			<path class="st8" d="M223.4,47.4C223.4,47.4,223.4,47.3,223.4,47.4l-1.2,0C222.7,47.6,223.1,47.2,223.4,47.4z"/>
			<path class="st8" d="M223.7,47.4c0.2,0.1,0.5,0.1,0.7,0C224.3,47.5,223.7,47.3,223.7,47.4z"/>
			<path class="st8" d="M260.5,49.3h-0.1C260.4,49.3,260.5,49.3,260.5,49.3z"/>
			<path class="st8" d="M270.2,49.6l0.1-0.1c-1.9,0.2-3.8,0.1-5.7-0.2h0.1c-2.4-0.3-4.7-0.6-7-0.7c-1.1-0.1-2.3,0-3.5-0.1
				s-2.3-0.1-3.5-0.1c0.1,0,0.1,0,0.2,0c-0.2,0-0.5,0-0.8,0c-0.1,0,0.1,0,0.2,0c-1-0.3-3-0.1-3.6-0.3c-0.3,0-0.4,0.1-0.3,0.1
				c-3.7-0.2-7.7-0.4-11.5-0.5c-0.2,0-0.2-0.1-0.2-0.1c-1.6,0.1-3.3,0-4.9,0.1c-1.7,0.1-3.4,0.1-5.1-0.2c-0.1,0.1,0.3,0.1,0,0.2
				c1.1,0.2,2,0,3,0.2l-0.1,0.1c0.7,0.1,0.1-0.2,0.9-0.1c0.3,0.1-0.1,0.1,0.1,0.1c0.4,0,0.8,0,1.2-0.1s0.7-0.1,1.1-0.1
				c0.7,0,1.5,0,2.2-0.1c0.4,0.2,1.6,0.1,2.2,0.3c0.3,0,0.6,0,0.9-0.1c5.2,0.4,10.6,0.6,16,0.9c1.4,0,2.7,0,4.1,0.1
				c1.4,0.1,2.9,0.3,4.4,0.5l0,0c1,0,2.4,0.2,3.5,0.4h1c0.9,0.1,1.8,0.2,2.6,0.3s1.8,0,2.7,0c1.8,0,3.5,0.1,5.3,0.1
				c0.9,0,1.8-0.1,2.6,0c0.4,0,0.7,0.1,1,0.4L280,51c0.1,0.1,0.2,0.2,0.1,0.3c-0.1,0-0.2,0.1-0.3,0.1h-0.9c-0.9,0-1.8,0-2.7,0.1
				c-1.9,0.2-3.9,0.3-5.8,0.3l-5.7-0.1l-11.4-0.2c0,0-0.1-0.1,0.2-0.1c-2.3-0.1-4.3-0.4-6.5-0.5l0,0h-8.2c-2.7,0-5.4-0.3-8-0.3
				c-3.1-0.2-6.4-0.3-9.8-0.3c-1.7,0-3.4,0-5.1,0.1c-1.7,0.1-3.4-0.1-5-0.5v-0.1c-1.3-0.3-2.5-0.7-3.8-0.9c-1.3-0.2-2.6-0.2-3.9-0.1
				c-0.6,0.1-1.3,0.1-1.9,0.1l-2-0.1c-1.3-0.1-2.6-0.1-3.9-0.1c-5.4-0.3-11.1,0-16.6-0.4c-3.4-0.4-7.8,0.1-11-0.3
				c-6.4-0.5-12.9-0.5-19.4-0.1c-6-0.3-12,0.1-17.8-0.3c-2.8,0.2-5.8-0.3-8.9-0.3l0.1,0.1c-1.1-0.3-2.5,0.3-3.1-0.1h0.1
				c-0.6-0.2-1.4,0.4-1.7,0.2l-0.1,0.1c-0.7,0-0.1-0.1-0.6-0.1c-0.2,0-0.1,0.2-0.5,0.1c-0.1-0.4-1.7,0.1-1.8-0.3
				c0.4,0-0.6-0.2,0.3-0.2c-0.2,0-1.4,0-1.3,0.1c-0.1,0.2-0.6,0.3,0.2,0.5l0.1-0.1c0.3,0.1,0.2,0.1,0.3,0.2c0.6,0.1,1.2,0.2,1.7,0.3
				l0,0c0.5-0.1,1-0.1,1.5,0l0.2,0.1c0.2,0.2,1.1-0.3,0.8,0c1.9,0,4.1,0,6.2,0c0.3-0.1,1.6,0,1.2-0.2c1,0.2,1.9,0.2,2.9,0.1
				c0,0,0,0-0.1,0c1.1,0.3,1.4-0.3,2.4,0.1c0.2-0.2,1.9,0.1,2.6-0.2C133,48,133,48,133,48.1l5.7,0.2c1.4-0.2,3.4,0.1,4.6-0.2
				c1.3,0.1,2.7,0.2,4,0.1h-0.1c1.5,0,3.1,0,4.6-0.2c0.6,0.2,1.2,0.3,1.8,0.3c1-0.1,3.2-0.1,4.8-0.2c0.2,0.1,1.3,0,1.4,0.2
				c2.2-0.2,4.7-0.2,7.3-0.1s5.1,0.3,7.5,0.5h-0.1c0.6-0.1,1.3-0.3,2-0.4c0.1,0,0.1,0-0.1,0c0.9,0,1.7,0.2,2.6,0.2c0,0,0,0-0.1,0
				c0.8,0,1.7,0.2,2.6,0.1h0.1h0.6c0,0.1,0,0.2-0.4,0.1c3.7,0.2,7.6,0.2,11.4,0.3l5.8,0.1c1,0,1.9,0.1,2.9,0.1s2-0.2,2.9-0.2
				l-0.3,0.1c0.5-0.1,1-0.1,1.4-0.2c0,0-0.1,0-0.1,0.1c1.9,0.2,3.7,0.6,5.5,1.1c0,0-0.3,0-0.1,0.1c1.4,0.2,2.2,0.6,2.9,0.3
				c0.1,0,0.1,0.1,0,0.1c1,0,1.9,0,2.9,0c1-0.1,1.9-0.1,2.9-0.1c1.9,0,3.9,0.1,5.8,0.2c3.2-0.3,6.8,0.3,10.1,0.2V51
				c2.2,0,4.4,0,6.6,0s4.5,0.2,6.7,0.3c1.8,0.2,3.1,0.2,5,0.3v0.1c3.2-0.1,6.6,0.6,9.8,0.3l-0.2,0.1c0.5-0.2,2,0.1,1.8-0.2L266,52
				c2.2-0.4,4,0.2,6.8-0.1l-0.2,0.1c0.7-0.1,1.6-0.2,2.1-0.2c-0.1,0,0,0-0.2,0.1c1.2,0,2.4-0.1,3.5-0.3c0.6,0,1.2,0,1.9-0.1
				c0.3,0,0.6,0,0.9-0.1c0.1,0,0.3,0,0.4-0.2s-0.1-0.3-0.2-0.4c0.1,0.1,0.2,0.1,0.3,0.2c-0.2-0.3-0.5-0.6-0.8-0.8
				c-0.3-0.3-0.6-0.6-1-0.8c-0.8-0.2-1.7-0.3-2.5-0.1l0.1-0.1l-0.8,0.1v-0.1C274,49.5,272.1,49.5,270.2,49.6z"/>
			<path class="st8" d="M250.3,48.3L250.3,48.3z"/>
			<path class="st8" d="M115.7,47.8h-0.2C115.5,47.8,115.6,47.8,115.7,47.8z"/>
			<polygon class="st8" points="203,54.1 202.9,54.1 202.7,54.2 			"/>
			<path class="st8" d="M201.5,54.3C201.5,54.3,201.5,54.3,201.5,54.3l0.9-0.2C202.1,53.9,201.8,54.4,201.5,54.3z"/>
			<path class="st8" d="M201.3,54.2c-0.2-0.1-0.4,0-0.6,0.1C200.8,54.2,201.3,54.4,201.3,54.2z"/>
			<path class="st8" d="M171.8,52.9L171.8,52.9z"/>
			<path class="st8" d="M164,53L164,53c1.4,0,3,0.3,4.5,0.2h-0.1c3.9,0.2,7.4,0.2,11.2,0.3c-0.1,0-0.1,0-0.1,0
				c0.2,0,0.4-0.1,0.6-0.1c0.1,0-0.1,0-0.1,0c0.8,0.2,2.4,0,2.9,0.2c0.2,0,0.3-0.1,0.2-0.2c3,0.1,6.2,0.2,9.3,0.2
				c0.1,0,0.2,0.1,0.1,0.1c2.7-0.1,5.3,0,8,0.3c0.1-0.1-0.3-0.1,0-0.2c-0.9-0.1-1.6,0.1-2.4-0.1l0.1-0.1c-0.6-0.1-0.1,0.2-0.7,0
				c-0.2-0.1,0.1-0.1-0.1-0.1c-1.2-0.1-2.4-0.1-3.6,0c-0.3-0.2-1.3-0.1-1.7-0.2c-0.3,0-0.6,0-0.8,0.1c-4.2-0.3-8.5-0.3-12.8-0.5
				c-2,0.2-4.4-0.3-6.8-0.3l0,0c-1,0.1-1.9,0.1-2.9,0l-0.8,0.1c-5.6-0.5-11.3-0.6-17-1l-4.7-0.3c-0.8,0-1.5-0.1-2.4-0.1h-2.2
				c-3-0.1-6-0.1-9.2,0.1c0,0,0,0,0.1,0c-1.8,0-3.5-0.1-5.2-0.1l0,0c-4.3,0.2-8.9-0.2-13,0c-5-0.1-10.6-0.2-15.9-0.3v-0.1
				c-4.2,0-8.3-0.4-12.5-0.4c-4.3-0.2-8.9,0.2-13.3-0.1c-2.7-0.4-6.3,0.2-8.8-0.2l-2-0.2c-0.7,0-1.3,0-1.9,0c-1.3,0-2.6,0.1-3.9,0.2
				c-2.6,0.2-5.1,0.4-7.8,0.7c-4.8,0-9.6,0.7-14.3,0.5c-2.2,0.3-4.7-0.1-7.1,0.1l0.1,0.1c-0.9-0.2-2,0.4-2.5,0.1h0.1
				c-0.5-0.2-1.1,0.5-1.4,0.3l-0.1,0.1c-0.6,0-0.1-0.1-0.5-0.1c-0.2,0-0.1,0.2-0.4,0.1c-0.1-0.4-1.4,0.1-1.4-0.3
				c0.3,0-0.5-0.1,0.2-0.3c-0.2,0-1.1,0-1.1,0.2c-0.1,0.2-0.4,0.4,0.1,0.5l0.1-0.1c0.2,0.1,0.1,0.1,0.2,0.2c0.5,0,0.9,0.1,1.4,0.2
				l0,0c0.4-0.1,0.8-0.2,1.2-0.1l0.1,0.1c0.2,0.1,0.9-0.3,0.6-0.1c1.5-0.1,3.3-0.2,5-0.3c0.2-0.1,1.3,0,0.9-0.2
				c0.7,0.2,1.4,0.2,2.2,0.2c0,0,0,0-0.1,0c0.9,0.2,1.1-0.3,1.9,0c0.1-0.3,1.6,0,2-0.3c0.1,0,0.2,0.1,0.1,0.2
				c1.7-0.2,3.4-0.2,4.7-0.2c1.1-0.3,2.7,0,3.7-0.3c1.1,0.1,2.1,0.1,3.2-0.1h-0.1c1.2,0,2.4-0.2,3.6-0.4c0.4,0.3,0.9,0.2,1.5,0.3
				c0.8-0.2,2.5-0.2,3.8-0.4c0.2,0.1,1-0.1,1.1,0.1c0.9-0.1,1.8-0.2,2.8-0.3l1.5-0.1h1.5c2,0.1,4.1,0.2,6,0.4l0,0
				c0.5-0.1,1.1-0.3,1.6-0.5c0,0,0,0-0.1,0c0.7,0,1.3,0.2,2.1,0.2c0,0,0,0-0.1,0.1c0.7-0.1,1.3,0.2,2.1,0l0,0l0.5-0.1
				c0,0.1,0,0.2-0.3,0.1c6,0.2,12.2,0,18.4,0.2l-0.2,0.1l1.2-0.1c0,0-0.1,0-0.1,0.1c1.5,0.1,3.1,0,4.6,0c0,0-0.2,0.1,0,0.1
				c1.1-0.2,1.8,0.3,2.3-0.1c0,0,0.1,0.1,0,0.1c3.1,0,6.2,0,9.3,0.2c2.6-0.3,5.4,0.1,8.1-0.1v0.1c3.4-0.2,7.1,0.2,10.7,0.2
				c1.5,0.1,2.5,0,4,0v0.1c2.5-0.3,5.3,0.4,7.9,0.1l-0.2,0.1c0.4-0.2,1.6,0.1,1.4-0.2l0.5,0.1c0.4,0,0.9,0,1.3,0.1
				c0.4,0,0.9,0,1.3,0.1c0.9,0.1,1.9,0.2,2.9,0.1l-0.1,0.1c0.6-0.1,1.1-0.1,1.7,0c-0.1,0,0,0-0.2,0c1.9,0.2,3.8,0.3,5.7,0.2
				l-0.2,0.1c0.9-0.1,2.6,0.1,3.8,0.1l-0.1,0.1l0.6-0.1v0.1C161,53,162.5,53,164,53z"/>
			<path class="st8" d="M180,53.6L180,53.6z"/>
			<path class="st8" d="M22.2,52.6H22C22,52.6,22.2,52.6,22.2,52.6z"/>
			<path class="st8" d="M26.3,55.9l0.1,0.4l0.1,0.2l0,0l0,0l0.1-0.1h-0.1h-0.1l0,0l-0.1-0.2L26.3,55.9z"/>
			<path class="st8" d="M27.3,56.2C27.3,56.2,27.3,56.2,27.3,56.2c-0.2,0-0.4,0.1-0.5,0.2C27,56.6,27.1,56.1,27.3,56.2z"/>
			<path class="st8" d="M27.4,56.2c0.1,0,0.3,0,0.4-0.1C27.7,56.2,27.4,56.1,27.4,56.2z"/>
			<path class="st8" d="M46.5,56.1L46.5,56.1z"/>
			<path class="st8" d="M51.4,55.6l0-0.1c-1,0.1-2,0.1-3,0.1h0.1c-2.5,0-4.8,0.1-7.3,0.2c0,0,0,0,0.1,0c-0.1,0.1-0.2,0.1-0.4,0.1
				c0,0,0,0,0.1-0.1c-0.5-0.2-1.5,0.1-1.9,0c-0.2,0-0.2,0.1-0.1,0.2c-1.9,0-4,0.1-6,0.2c-0.1,0-0.1-0.1-0.1-0.1
				c-1.7,0.2-3.4,0.3-5.2,0.2c-0.1,0.1,0.2,0.1,0,0.2c0.5,0.1,1-0.2,1.5-0.1l-0.1,0.1c0.4,0,0.1-0.2,0.5-0.1c0.1,0.1,0,0.1,0,0.1
				c0.8,0,1.5,0,2.3-0.2c0.2,0.2,0.8,0,1.1,0.2c0.2-0.1,0.4,0,0.5-0.2c2.7,0.1,5.5-0.1,8.3-0.1c1.3-0.3,2.9,0.1,4.4,0l0,0
				c0.6-0.1,1.3-0.2,2-0.2l0.5-0.1c3.6,0.3,7.3,0.1,11,0.2c4,0.2,7.9,0.2,11.9-0.1c0,0,0,0-0.1,0.1c1.2-0.1,2.2,0.1,3.3,0l0,0
				c2.8-0.3,5.7,0,8.4-0.2h4.4v-0.2c-1.9,0-3.9,0.1-5.9,0.3v-0.1c-1.4,0.2-2.7,0.2-4,0.4c-0.7,0.1-1.4,0.2-2,0.4
				c-0.2,0.1-0.3,0.1-0.5,0.2c-0.1,0.1-0.3,0.2-0.4,0.4c-0.2,0.2-0.5,0.3-0.8,0.4c-2.6,0.1-5.3,0-7.9-0.3l-0.5,0.1
				c-1.8,0.2-3.8,1.5-5.4,1.6c-0.8,0.1-1.6,0.2-2.5,0.3c-0.8,0-1.7,0-2.5,0c-1.7,0-3.3,0.2-5,0.3c-3.1-0.2-6.2,0.3-9.2-0.1
				c-1.4,0.2-3-0.3-4.6-0.2l0.1,0.1c-0.6-0.2-1.3,0.3-1.6,0H35c-0.3-0.2-0.7,0.4-0.9,0.2l0,0.1c-0.4,0,0-0.1-0.3-0.1
				c-0.1,0,0,0.2-0.3,0.1c0-0.4-0.9,0.1-0.9-0.3c0.2,0-0.3-0.2,0.1-0.3c-0.1,0-0.7,0-0.7,0.2s-0.3,0.3,0.1,0.5l0.1-0.1
				c0.1,0.1,0.1,0.1,0.1,0.2c0.5,0,0.5,0.2,0.9,0.3l0,0c0.2-0.1,0.5-0.1,0.8,0l0.1,0.1c0.1,0.2,0.5-0.3,0.4,0c1-0.1,2.1-0.1,3.2-0.1
				c0.2-0.1,0.8,0,0.6-0.2c0.4,0.2,0.9,0.3,1.4,0.3c0,0-0.1,0-0.1,0c0.6,0.3,0.7-0.3,1.3,0.1c0.1-0.3,1,0.1,1.3-0.2
				c0.1,0,0.1,0.1,0.1,0.2c1,0,2.1,0.1,2.9,0.1c0.7-0.2,1.8,0.1,2.4-0.2c0.7,0.1,1.4,0.1,2.1,0.1h-0.1c0.8,0,1.6-0.1,2.3-0.2
				c0.2,0.3,0.6,0.2,0.9,0.3c0.5-0.1,1.6-0.1,2.5-0.2c0.1,0.1,0.7-0.1,0.7,0.1c0.6-0.1,1.2-0.2,1.8-0.2c0.7-0.1,1.3-0.2,2-0.4
				c1.3-0.3,2.6-0.6,3.8-0.8l0,0c0.3-0.2,0.6-0.5,0.8-0.8c0,0,0,0,0,0.1c0.4-0.2,0.9-0.1,1.3-0.3c0,0,0,0-0.1,0.1
				c0.2-0.1,0.4-0.1,0.7-0.2c0.2,0,0.3,0,0.5,0v0.1h0.3c0,0.1,0,0.2-0.2,0.1c1.9,0.3,3.9,0.5,5.9,0.5c0.5,0,1.1-0.1,1.6-0.2
				c0.3-0.1,0.6-0.2,0.8-0.4c0.1-0.1,0.3-0.3,0.3-0.3c0.1-0.1,0.1-0.1,0.2-0.2c0.9-0.4,1.8-0.6,2.8-0.7l-0.1,0.1l0.7-0.2
				c0,0,0,0-0.1,0.1c1,0,2-0.3,2.9-0.3c0,0-0.1,0.1,0,0.1c0.7-0.2,1.1,0.2,1.5-0.2c0,0,0.1,0.1,0,0.1c0,0,0,0,0,0
				c1.4-0.1,2.9-0.2,4.3-0.2v-0.7l-1.7,0c-1.7,0.3-3.5,0-5.2,0.3v-0.1c-2.2,0.2-4.6,0-6.9,0c-1,0-1.6,0-2.6,0v-0.1
				c-1.6,0.3-3.4-0.3-5.1,0l0.1-0.1c-0.3,0.2-1-0.1-0.9,0.2l-0.3-0.1c-1.2,0.4-2.1-0.2-3.5,0.1l0.1-0.1c-0.4,0.1-0.7,0.1-1.1,0
				c0,0,0,0,0.1,0c-1.2-0.1-2.5-0.1-3.7,0l0.1-0.1c-0.8,0.1-1.6,0.1-2.5,0.1v-0.1l-0.4,0.1v-0.1C53.4,55.5,52.4,55.6,51.4,55.6z"/>
			<path class="st8" d="M41.1,55.8L41.1,55.8C41.1,55.8,41.2,55.8,41.1,55.8z"/>
			<path class="st8" d="M33.3,60.2h-0.1C33.2,60.2,33.3,60.2,33.3,60.2z"/>
			<polygon class="st8" points="210.4,59 210.3,58.9 210.2,59.1 			"/>
			<path class="st8" d="M209.7,59.2C209.7,59.2,209.7,59.3,209.7,59.2l0.4-0.2C209.9,58.8,209.8,59.3,209.7,59.2z"/>
			<path class="st8" d="M209.6,59.2c-0.1,0-0.2,0-0.3,0.1C209.3,59.2,209.6,59.3,209.6,59.2z"/>
			<path class="st8" d="M195.4,59.3L195.4,59.3z"/>
			<path class="st8" d="M191.7,59.8v0.1c0.7-0.1,1.5-0.1,2.2-0.1l0,0c1.9,0,3.6-0.2,5.4-0.2c0,0,0,0-0.1,0.1
				c0.1-0.1,0.2-0.1,0.3-0.1c0,0,0,0-0.1,0.1c0.4,0.2,1.1-0.1,1.4,0c0.1,0,0.2-0.1,0.1-0.2c1.4,0,3-0.1,4.4-0.2
				c0.1,0,0.1,0.1,0.1,0.1c0,0,0,0,0,0c1.3-0.2,2.6-0.3,3.8-0.1c0-0.1-0.1-0.1,0-0.2c-0.4-0.1-0.8,0.2-1.1,0v-0.1
				c-0.3,0,0,0.2-0.3,0.1c-0.1-0.1,0-0.1,0-0.1c-0.6,0-1.2,0-1.7,0.2c-0.1-0.2-0.6,0-0.8-0.2c-0.1,0.1-0.3,0-0.4,0.2
				c-2-0.1-4.1,0.1-6.1,0.1c-1,0.3-2.1-0.1-3.3,0l0,0c-0.4,0.1-0.9,0.1-1.4,0.1l-0.4,0.1c-2.7-0.3-5.4-0.1-8.2-0.2
				c-2.9-0.2-5.9-0.2-8.8,0.1c0,0,0,0,0.1-0.1c-0.9,0.1-1.7,0-2.5,0l0,0c-2,0.3-4.2,0-6.2,0.3c-2.4,0-5.1,0-7.6,0.1v-0.1
				c-2,0.1-4-0.2-6-0.1c-2.1-0.1-4.3,0.4-6.4,0.2c-1.3-0.3-3,0.3-4.2,0c-2.5-0.3-5-0.3-7.4,0.1c-2.3-0.2-4.6,0.3-6.9-0.1
				c-1.1,0.2-2.2-0.3-3.4-0.2v0.1c-0.4-0.2-1,0.3-1.2,0l0,0c-0.2-0.2-0.5,0.4-0.7,0.2v0.1c-0.3,0,0-0.1-0.2-0.1s0,0.2-0.2,0.1
				c0-0.4-0.7,0-0.6-0.3c0.1,0-0.2-0.2,0.1-0.2c-0.1,0-0.2,0-0.3,0l-0.2,0h-0.1l0,0l-0.1,0.2v0.1l0.1-0.3l0,0l-0.1,0.3l0.1-0.2l0,0
				l0,0l0,0v0.1l-0.1,0.1c0,0.1,0,0.2,0.1,0.3l0.1-0.1c0.1,0.1,0.1,0.1,0.1,0.2c0.4,0,0.4,0.2,0.7,0.3l0,0c0.2-0.1,0.4-0.1,0.6,0
				l0.1,0.1c0.1,0.2,0.4-0.3,0.3,0c0.7-0.1,1.6,0,2.4,0c0.1-0.1,0.6,0,0.4-0.2c0.3,0.2,0.6,0.3,1,0.3c0,0,0,0-0.1,0
				c0.4,0.3,0.5-0.3,0.9,0.1c0.1-0.3,0.8,0.1,1-0.2c0,0,0,0.1,0,0.2c0.7,0,1.6,0.1,2.2,0.1c0.5-0.2,1.3,0.1,1.8-0.2
				c0.5,0.1,1,0.2,1.5,0.1h-0.1c0.6,0,1.2,0,1.8-0.2c0.2,0.3,0.4,0.2,0.7,0.3c0.4-0.1,1.2-0.1,1.8-0.2c0.1,0.1,0.5,0,0.5,0.1
				c1.9-0.3,3.8-0.3,5.7,0l0,0c0.2-0.1,0.5-0.3,0.8-0.5c0,0,0,0,0,0c0.3,0,0.6,0.2,1,0.1c0,0,0,0-0.1,0.1c0.3-0.1,0.6,0.2,1,0l0,0
				l0.2-0.1c0,0.1,0,0.2-0.1,0.1c2.9,0.1,5.8-0.3,8.8-0.2l-0.1,0.1l0.6-0.1c0,0,0,0-0.1,0.1c0.7,0.1,1.5-0.1,2.2,0
				c0,0-0.1,0.1,0,0.1c0.5-0.2,0.8,0.2,1.1-0.1c0,0,0,0.1,0,0.1c0,0,0,0,0,0c1.5-0.1,3-0.1,4.4-0.1c1.2-0.3,2.6,0,3.9-0.3v0.1
				c1.7-0.1,3.4-0.1,5.1,0c0.7,0,1.2-0.1,1.9-0.1v0.1c1.2-0.3,2.5,0.3,3.8-0.1l-0.1,0.1c0.2-0.2,0.8,0.1,0.7-0.2l0.2,0.1
				c0.9-0.4,1.6,0.2,2.6-0.1l-0.1,0.1c0.3-0.1,0.5-0.1,0.8,0c0,0,0,0-0.1,0c0.9,0.1,1.8,0.1,2.8,0l-0.1,0.1c0.6-0.1,1.2-0.1,1.8-0.1
				v0.1l0.3-0.1v0.1C190.3,59.9,191,59.8,191.7,59.8z"/>
			<path class="st8" d="M199.4,59.6L199.4,59.6C199.4,59.6,199.3,59.6,199.4,59.6z"/>
			<path class="st8" d="M123.7,60.3L123.7,60.3C123.6,60.3,123.7,60.2,123.7,60.3z"/>
			<polygon class="st8" points="9.1,70 9.2,70.1 9.4,70 			"/>
			<path class="st8" d="M10.7,69.9C10.7,69.9,10.7,69.9,10.7,69.9l-1.1,0.2C10.1,70.3,10.4,69.8,10.7,69.9z"/>
			<path class="st8" d="M11,70c0.2,0.1,0.4,0,0.6-0.1C11.4,70,10.9,69.8,11,70z"/>
			<path class="st8" d="M42.5,68.6h-0.1C42.4,68.6,42.5,68.6,42.5,68.6z"/>
			<path class="st8" d="M50.7,67.5l0.1-0.1c-1.5,0.3-3.3,0.1-4.9,0.3H46c-2.1,0.2-4,0.5-6,0.7s-3.9,0.3-6,0.4c0.1,0,0.1,0,0.2-0.1
				c-0.2,0.1-0.4,0.1-0.6,0.1c-0.1,0,0.1,0,0.1-0.1c-0.9-0.2-2.5,0.2-3.1,0.2c-0.2,0-0.3,0.1-0.2,0.2c-0.8,0.1-1.6,0.2-2.4,0.4
				c-0.4,0.1-0.8,0.1-1.3,0.1c-0.4,0-0.9-0.1-1.3-0.2c-1.6-0.2-3.2-0.2-4.8,0.1c-0.1,0-0.2-0.1-0.1-0.1c-2.8,0.5-5.7,0.7-8.6,0.6
				c-0.1,0.1,0.3,0.1,0,0.2c0.9,0.1,1.7-0.2,2.5,0l-0.1,0.1c0.6,0,0.1-0.2,0.8-0.1c0.3,0.1-0.1,0.1,0.1,0.1c1.3,0,2.6-0.2,3.9-0.4
				c0.3,0.1,1.4-0.1,1.9,0c0.3,0,0.5-0.1,0.8-0.2c1.1-0.1,2.2-0.1,3.3,0c0.3,0,0.5,0.1,0.8,0.2c0.3,0.1,0.7,0.2,1,0.2
				c0.6,0,1.2-0.1,1.8-0.2c2.2-0.4,4.5-0.6,6.8-0.6c2.2-0.4,4.8,0,7.3-0.4c1.7-0.3,1.7-0.3,0,0c1-0.2,2-0.4,3-0.4l0.8-0.2
				c3-0.1,6,0,9.1-0.3s6.1-0.6,9.1-0.5c1.7,0,3.3,0.4,5,0.4s3.3-0.1,4.9-0.2c3.3-0.2,6.5-0.6,9.8-1.2c0,0,0,0-0.1,0.1
				c1.9-0.3,3.7-0.4,5.5-0.9l0,0c4.4-1.2,9.4-1.7,13.6-2.7l4.2-0.7v-0.2c-4.1,0-8.5,0-12.8,0.2V62c-4.5,0.3-8.9,0.2-13.4,0.8
				c-4.7,0.7-9.4,1-14.2,0.8c-2.9-0.4-6.7,0.2-9.4-0.2c-5.6-0.7-11,0-16.6,0.8c-2.6,0.2-5.1,0.5-7.7,0.8l-1.9,0.2
				c-0.7,0-1.3-0.1-1.9-0.1c-1.3-0.1-2.5-0.3-3.8-0.5c-2.4,0-5-0.7-7.6-0.9l0.1,0.1c-0.9-0.3-2.1,0.1-2.7-0.3h0.1
				c-0.5-0.2-1.2,0.3-1.5,0.1l-0.1,0.1c-0.6,0-0.1-0.1-0.5-0.2c-0.2,0-0.1,0.2-0.4,0.1c0-0.4-1.5-0.1-1.5-0.5c0.3,0-0.5-0.2,0.2-0.2
				c-0.2-0.1-1.2-0.1-1.1,0c-0.1,0.2-0.5,0.3,0.1,0.5l0.1-0.1c0.2,0.2,0.1,0.1,0.2,0.2c0.5,0.1,1,0.2,1.5,0.4l0,0
				c0.4-0.1,0.8,0,1.3,0.1l0.1,0.1c0.2,0.2,0.9-0.2,0.7,0c1.6,0.1,3.5,0.3,5.3,0.4c0.3-0.1,1.4,0.1,1-0.1c0.7,0.3,1.5,0.4,2.3,0.5
				c0,0,0,0-0.1,0c1,0.4,1.2-0.2,2.1,0.3c0.1-0.2,1.7,0.2,2.2,0c0.1,0.1,0.1,0.1,0.1,0.2c0.8,0.1,1.7,0.2,2.5,0.3
				c0.4,0.1,0.9,0.1,1.3,0.1l1.1-0.1c1.2-0.3,2.9-0.2,3.9-0.6c1.1,0,2.3-0.1,3.4-0.3H40c1.3-0.1,2.6-0.3,3.9-0.6
				c0.5,0.2,1,0.2,1.6,0.2c0.9-0.2,2.7-0.3,4-0.5c0.2,0.1,1.1-0.1,1.2,0.1c3.8-0.5,8.5-0.2,12.6,0.2h-0.1c0.5-0.1,1.2-0.3,1.7-0.4
				c0,0,0,0-0.1,0c0.8,0,1.4,0.2,2.2,0.2c0,0,0,0-0.1,0.1c0.8,0,1.5,0,2.3,0v0.1l0.6,0.1c0,0.1,0,0.2-0.3,0.1c3.3,0.1,6.6,0,9.8-0.5
				c3.2-0.5,6.5-0.8,9.8-1l-0.2,0.1l1.3-0.2c0,0-0.1,0-0.1,0.1c1.6,0,3.3-0.2,4.9-0.3c0,0-0.2,0.1,0,0.1c1.2-0.2,1.9,0.2,2.5-0.2
				c0,0,0.1,0.1,0,0.1c3.3-0.2,6.6-0.1,9.9-0.1h0.3l-0.1-0.7c-2.6,0.7-5.6,0.9-8.3,1.6v-0.1c-3.6,0.8-7.5,1.3-11.2,2.1
				c-1.6,0.2-2.6,0.4-4.2,0.6v-0.1c-2.6,0.6-5.6,0.3-8.4,0.9l0.2-0.1c-0.4,0.2-1.7,0.1-1.5,0.3h-0.5c-1.9,0.5-3.5,0.1-5.8,0.1
				l0.2-0.1c-0.6,0-1.2,0-1.8-0.1c0.1,0,0.1,0,0.2,0c-1.9-0.4-4.1,0-6.2,0.2l0.2-0.2c-1,0.2-2.8,0.3-4.1,0.4l0.1-0.1l-0.7,0.1v-0.1
				C53.9,67.3,52.3,67.4,50.7,67.5z"/>
			<path class="st8" d="M33.6,68.7L33.6,68.7C33.6,68.7,33.7,68.7,33.6,68.7z"/>
			<path class="st8" d="M13.1,64h-0.2C12.9,64,13,64,13.1,64z"/>
			<polygon class="st8" points="139.6,65.1 139.6,65 139.5,65.2 			"/>
			<path class="st8" d="M139,65.4C139,65.4,139,65.4,139,65.4l0.3-0.3C139.2,65,139.1,65.5,139,65.4z"/>
			<path class="st8" d="M138.9,65.3c-0.1-0.1-0.2,0.1-0.2,0.1C138.7,65.4,138.9,65.5,138.9,65.3z"/>
			<path class="st8" d="M126.3,66.5L126.3,66.5z"/>
			<path class="st8" d="M123,67.2v0.1c0.6-0.2,1.3,0,2-0.2l-0.1,0.1c1.7-0.1,3.2-0.4,4.8-0.7c0,0,0,0-0.1,0.1s0.2-0.1,0.3-0.1
				s0,0.1-0.1,0.1c0.4,0.2,1-0.2,1.2-0.1s0.1-0.1,0.1-0.2c1.3-0.2,2.6-0.3,4-0.6c0.1,0,0.1,0.1,0.1,0.1c1.1-0.3,2.3-0.5,3.4-0.4
				c0-0.1-0.1-0.1,0-0.2c-0.4-0.1-0.6,0.3-1,0.1v-0.1c-0.3,0,0,0.2-0.3,0.1s0-0.1,0-0.1c-0.5,0-1,0.1-1.5,0.3
				c-0.1-0.2-0.6,0-0.8-0.1c-0.1,0.1-0.3,0.1-0.3,0.2c-1.8,0.1-3.6,0.4-5.5,0.5c-0.9,0.4-1.9,0.1-2.9,0.3l0,0
				c-0.4,0.1-0.8,0.2-1.2,0.2l-0.3,0.2c-2.4-0.2-4.9,0.1-7.3,0.1c-2.7-0.1-5.3,0.2-7.9,0.7c0,0,0,0,0-0.1c-0.8,0.1-1.5,0.1-2.2,0.3
				l0,0c-1.8,0.5-3.8,0.4-5.5,0.8c-2.1,0.2-4.6,0.1-6.8,0.2v-0.1c-1.8,0.2-3.6,0-5.4,0.3c-1.9,0.1-3.8,0.8-5.7,0.8
				c-1.2-0.2-2.7,0.5-3.8,0.1c-2.2-0.6-4.4-0.7-6.7-0.3c-2.1-0.1-4,0.8-6,1.1c-0.8,0.5-2,0.4-2.9,0.9h0.1c-0.4-0.1-0.7,0.6-1,0.4
				l0,0c-0.3-0.1-0.3,0.6-0.5,0.4v0.1c-0.2,0.1-0.1-0.1-0.3,0s0,0.2-0.1,0.2c-0.2-0.3-0.5,0.3-0.7,0c0.1-0.1-0.3,0,0-0.3
				c-0.1,0-0.5,0.2-0.3,0.3s0,0.4,0.3,0.4v-0.1c0.1,0.1,0.1,0,0.2,0.1c0.3-0.1,0.4,0,0.7,0l0,0c0.1-0.2,0.3-0.2,0.4-0.3h0.1
				c0.1,0.1,0.2-0.4,0.2-0.1c0.6-0.3,1.3-0.6,1.9-0.9c0.1-0.1,0.5-0.2,0.3-0.3c0.3,0.1,0.7,0.1,1-0.1c0,0,0,0,0,0.1
				c0.5,0.1,0.3-0.4,0.8-0.2c0-0.3,0.7-0.1,0.8-0.5c0.1,0,0.1,0.1,0.1,0.1c0.6-0.2,1.3-0.3,1.9-0.4c0.4-0.3,1.1-0.1,1.5-0.5
				c0.4,0,0.8,0,1.2-0.1l0,0c0.5,0,1-0.1,1.5-0.2c0.2,0.3,0.4,0.2,0.6,0.3c0.5-0.1,1.1-0.1,1.6-0.1c0.1,0.1,0.5,0,0.5,0.2
				c1.7-0.1,3.5,0,5.2,0.3l0,0c0.2-0.2,0.5-0.3,0.7-0.5l0,0c0.3,0,0.6,0.1,0.9,0.1c0,0,0,0,0,0.1c0.3-0.1,0.6,0.1,0.9-0.1l0,0
				l0.2-0.1c0,0.1,0,0.2-0.1,0.2c2.6-0.2,5.2-1,7.8-1l-0.1,0.1l0.5-0.1c0,0,0,0,0,0.1c0.7,0.1,1.3-0.1,2-0.1c0,0-0.1,0.1,0,0.1
				c0.5-0.2,0.8,0.2,1-0.1c0,0,0,0.1,0,0.1c1.3-0.1,2.7-0.1,4-0.1c1.1-0.4,2.3-0.2,3.5-0.5v0.1c1.5-0.3,3-0.4,4.6-0.6
				c0.6,0,1.1-0.2,1.7-0.2V68c1-0.4,2.3,0.1,3.4-0.4l-0.1,0.1c0.2-0.2,0.7,0,0.6-0.3l0.2,0.1c0.7-0.4,1.4,0.1,2.3-0.2l-0.1,0.1
				c0.2-0.1,0.5-0.1,0.7-0.1c0,0,0,0-0.1,0c0.8,0.1,1.7,0,2.5-0.2l-0.1,0.1c0.5-0.1,1.1-0.2,1.7-0.2v0.1l0.3-0.1v0.1
				C121.7,67.3,122.3,67.2,123,67.2z"/>
			<path class="st8" d="M129.8,66.5L129.8,66.5z"/>
			<path class="st8" d="M62.8,73.2L62.8,73.2C62.7,73.2,62.8,73.2,62.8,73.2z"/>
			<polygon class="st8" points="265.7,59 265.7,59 265.6,59.1 			"/>
			<path class="st8" d="M264.9,59.3C264.9,59.3,264.9,59.3,264.9,59.3l0.5-0.3C265.2,58.9,265.1,59.4,264.9,59.3z"/>
			<path class="st8" d="M264.8,59.3c-0.1,0-0.3,0-0.3,0.2C264.5,59.4,264.8,59.5,264.8,59.3z"/>
			<path class="st8" d="M247.9,61.2L247.9,61.2z"/>
			<path class="st8" d="M243.5,62v0.1c0.8-0.2,1.8-0.1,2.6-0.2h-0.1c2.2-0.1,4.2-0.5,6.4-0.8c0,0-0.1,0-0.1,0.1
				c0.1-0.1,0.2-0.1,0.3-0.1c0,0,0,0-0.1,0.1c0.5,0.1,1.3-0.3,1.6-0.2c0.1,0,0.2-0.1,0.1-0.2c1.7-0.2,3.5-0.5,5.3-0.8
				c0.1,0,0.1,0.1,0.1,0.1c1.5-0.4,3-0.6,4.6-0.7c0-0.1-0.2-0.1,0-0.2c-0.5,0-0.9,0.3-1.3,0.2l0-0.1c-0.3,0,0,0.2-0.4,0.1
				c-0.1,0,0-0.1,0-0.1c-0.7,0.1-1.4,0.2-2,0.4c-0.2-0.1-0.7,0.1-1,0c-0.2,0.1-0.4,0.1-0.4,0.2c-2.4,0.2-4.9,0.6-7.3,0.9
				c-1.1,0.4-2.5,0.2-3.9,0.4l0,0c-0.5,0.1-1.1,0.2-1.6,0.2l-0.4,0.2c-3.2-0.1-6.5,0.2-9.8,0.1c-3.7,0-7-0.3-10.6,0c0,0,0,0,0.1-0.1
				c-1.1,0-2-0.1-3,0l0,0c-2.5,0.1-5,0.5-7.4,0.9c-2.9,0.4-6.1,0.9-9.1,1.3v-0.1c-2.4,0.4-4.8,0.3-7.2,0.5c-2.5,0-5.1,0.5-7.6,0.1
				c-1.5-0.4-3.6,0.1-5.1-0.3c-1.5-0.2-3-0.2-4.5,0.1l-4.4,0.6c-2.8-0.1-5.6,0.3-8.2-0.1c-1.3,0.2-2.7-0.3-4.1-0.3v0.1
				c-0.5-0.3-1.1,0.3-1.4-0.1h0.1c-0.3-0.2-0.6,0.4-0.8,0.2v0.1c-0.3,0,0-0.1-0.3-0.2s-0.1,0.2-0.2,0.1c0-0.4-0.8,0-0.8-0.4
				c0.2,0-0.3-0.2,0.1-0.2c-0.1,0-0.6,0-0.6,0.1c0,0.2-0.3,0.3,0,0.5l0.1-0.1c0.1,0.1,0.1,0.1,0.1,0.2c0.4,0,0.5,0.2,0.8,0.3l0,0
				c0.2-0.1,0.5-0.1,0.7,0l0.1,0.1c0.1,0.2,0.5-0.3,0.4,0c0.9,0,1.9,0,2.9,0c0.1-0.1,0.8,0,0.6-0.2c0.4,0.2,0.8,0.3,1.2,0.3
				 M167.8,65.2c0.5,0.3,0.6-0.3,1.1,0.1c0.1-0.2,0.9,0.1,1.2-0.2c0.1,0.1,0.1,0.1,0.1,0.2c0.9,0,1.9,0.1,2.6,0.1
				c0.6-0.2,1.6,0.1,2.1-0.2c0.6,0.1,1.2,0.1,1.9,0h-0.1c0.7,0,1.4-0.1,2.1-0.3c0.2,0.3,0.5,0.2,0.9,0.3c0.5-0.2,1.5-0.2,2.2-0.4
				c0.1,0.1,0.6-0.1,0.7,0.1c1.1-0.3,2.2-0.5,3.3-0.5c1.1,0,2.3,0.2,3.4,0.4l0,0c0.3-0.1,0.6-0.3,0.9-0.4c0,0,0,0.1,0,0
				c0.4,0,0.8,0.2,1.2,0.2c0,0,0,0-0.1,0.1c0.4-0.1,0.8,0.2,1.2,0.1l0,0l0.3-0.1c0,0.1,0,0.2-0.2,0.1c3.5,0.1,6.9,0,10.4-0.4
				l-0.1,0.1l0.7-0.2c0,0,0,0.1-0.1,0.1c0.9-0.1,1.8-0.2,2.6-0.3c0,0-0.1,0.1,0,0.1c0.6-0.2,1,0.1,1.3-0.3c0,0,0.1,0.1,0,0.1
				c1.7-0.3,3.5-0.6,5.3-0.8c1.4-0.5,3.1-0.5,4.6-0.9v0.1c2-0.4,4.1-0.5,6.1-0.4c0.9,0,1.4,0,2.3,0v0.1c1.4-0.3,3,0.4,4.5,0.1
				l-0.1,0.1c0.2-0.2,0.9,0.1,0.8-0.2l0.3,0.1c1-0.4,1.9,0.2,3.1,0l-0.1,0.1c0.3-0.1,0.7-0.1,1,0c0,0,0,0-0.1,0
				c1.1,0.1,2.2,0.1,3.3-0.1l-0.1,0.1c0.7-0.1,1.5-0.1,2.2-0.1v0.1l0.4-0.1v0.1c0.9-0.1,1.8-0.2,2.6-0.3L167.8,65.2z"/>
			<path class="st8" d="M252.7,61.1L252.7,61.1C252.7,61.1,252.7,61.1,252.7,61.1z"/>
			<path class="st8" d="M162.1,64.9H162C162,64.9,162,64.9,162.1,64.9z"/>
			<polygon class="st8" points="106.2,73.7 106.2,73.6 106.1,73.7 			"/>
			<path class="st8" d="M105.7,73.9C105.7,73.9,105.7,73.9,105.7,73.9l0.3-0.2C105.9,73.5,105.8,74,105.7,73.9z"/>
			<path class="st8" d="M105.6,73.9c-0.1-0.1-0.2,0.1-0.2,0.1C105.5,73.9,105.7,74,105.6,73.9z"/>
			<path class="st8" d="M95.5,74.5L95.5,74.5C95.5,74.5,95.5,74.5,95.5,74.5z"/>
			<path class="st8" d="M92.9,75.1v0.1c0.5-0.2,1-0.1,1.6-0.2l0,0c1.3-0.1,2.6-0.2,3.8-0.4c0,0,0,0,0,0.1s0.1-0.1,0.2-0.1
				s0,0.1,0,0.1c0.3,0.2,0.8-0.2,1,0c0.1,0,0.1-0.1,0.1-0.1c0,0,0,0,0,0c1-0.1,2.1-0.2,3.2-0.4c0,0,0.1,0.1,0.1,0.1
				c0.9-0.3,1.8-0.4,2.8-0.3c0-0.1-0.1-0.1,0-0.2c-0.3-0.1-0.5,0.2-0.8,0.1v-0.1c-0.2,0,0,0.2-0.2,0.1s0-0.1,0-0.1
				c-0.4,0-0.8,0.1-1.2,0.2c-0.1-0.2-0.4,0-0.6-0.1c-0.1,0.1-0.2,0.1-0.3,0.2c-1.4,0-2.9,0.2-4.4,0.3c-0.7,0.3-1.5,0-2.3,0.2l0,0
				c-0.3,0.1-0.7,0.1-1,0.1l-0.3,0.2c-1.9-0.2-3.9,0.1-5.9,0.1c-2.1-0.1-4.3,0.1-6.3,0.5c0,0,0,0,0-0.1c-0.6,0.1-1.2,0-1.8,0.2l0,0
				c-1.4,0.4-3,0.2-4.4,0.7c-0.4,0.1-0.9,0.1-1.3,0.2c-0.2,0.1-0.4,0.1-0.7,0.2c-0.2,0.1-0.4,0.1-0.7,0.2c-0.9,0.2-1.8,0.3-2.7,0.4
				v-0.1c-1.4,0.3-2.9,0.1-4.3,0.3c-1.5,0-3,0.6-4.6,0.6c-1-0.2-2.1,0.5-3,0.3c-1.8-0.2-3.6,0-5.3,0.5c-1.7-0.1-3.3,0.5-4.9,0.3
				c-0.7,0.3-1.6-0.2-2.5,0v0.1c-0.3-0.2-0.7,0.4-0.9,0l0,0c-0.2-0.2-0.3,0.4-0.5,0.2v0.1c-0.2,0,0-0.1-0.2-0.1s0,0.2-0.1,0.1
				c0-0.4-0.5,0.1-0.5-0.3c0.1,0-0.2-0.1,0.1-0.2c-0.1,0-0.4,0-0.4,0.2s-0.1,0.3,0.1,0.5v-0.1c0.1,0.1,0,0.1,0.1,0.2
				c0.3,0,0.3,0.2,0.5,0.3l0,0c0.1-0.2,0.3-0.1,0.4-0.1v0.1c0.1,0.2,0.3-0.3,0.2,0c0.6-0.1,1.1-0.2,1.7-0.2c0.1-0.1,0.5,0,0.3-0.2
				c0.2,0.2,0.5,0.2,0.8,0.2c0,0,0,0.1,0,0c0.3,0.3,0.4-0.3,0.7,0c0-0.3,0.5,0.1,0.7-0.3c0,0,0.1,0.1,0,0.2c0.5,0,1.1,0,1.6,0
				c0.4-0.3,0.9,0,1.2-0.3c0.4,0.1,0.7,0.1,1.1,0l0,0c0.4,0,0.8-0.2,1.2-0.4c0.1,0.3,0.3,0.2,0.5,0.3c0.4-0.1,0.9-0.2,1.3-0.3
				c0.1,0.1,0.4-0.1,0.4,0.1c1.3-0.4,2.7-0.5,4.1-0.3l0,0c0.2-0.1,0.3-0.4,0.5-0.5l0,0c0.2,0,0.5,0.1,0.7,0.1c0,0,0,0,0,0.1
				c0.2-0.1,0.5,0.1,0.7-0.1l0,0l0.2-0.1c0,0.1,0,0.2-0.1,0.1c2.1-0.1,4.2-0.6,6.3-0.8l-0.1,0.1l0.4-0.2c0,0,0,0,0,0.1
				c0.5,0,1.1-0.1,1.6-0.2c0,0-0.1,0.1,0,0.1c0.4-0.2,0.6,0.2,0.8-0.2c0,0,0,0.1,0,0.1c0.5-0.1,1-0.2,1.6-0.3l0.8-0.1
				c0.2,0,0.3-0.1,0.5-0.1l0.2-0.1l0,0c-0.1-0.1,0.1,0.2-0.1-0.2l0,0l0,0l0.1,0.1c0.1,0.1,0.1,0.1,0.1,0.1l0,0h0.1
				c0.7-0.5,1.8-0.3,2.7-0.7v0.1c1.2-0.2,2.4-0.3,3.7-0.3c0.5,0,0.8-0.1,1.4-0.2v0.1c0.8-0.4,1.8,0.2,2.7-0.3v0.1
				c0.1-0.2,0.5,0,0.5-0.3l0.2,0.1c0.6-0.4,1.1,0.1,1.8-0.2v0.1c0.2-0.1,0.4-0.1,0.6-0.1l0,0c0.6,0.2,1.3-0.1,2-0.1L90,75.2
				c0.3-0.2,0.9-0.1,1.3-0.2v0.1l0.2-0.1v0.1C91.8,75.3,92.3,75.1,92.9,75.1z"/>
			<path class="st8" d="M98.3,74.7L98.3,74.7C98.3,74.7,98.3,74.7,98.3,74.7z"/>
			<path class="st8" d="M44.3,79.9L44.3,79.9C44.2,79.9,44.3,79.9,44.3,79.9z"/>
			<polygon class="st8" points="285.5,71.3 285.5,71.2 285.3,71.3 			"/>
			<path class="st8" d="M284.4,71.5C284.4,71.5,284.4,71.5,284.4,71.5l0.7-0.2C284.8,71.1,284.6,71.6,284.4,71.5z"/>
			<path class="st8" d="M284.2,71.5c-0.2,0-0.3,0-0.4,0.1C283.8,71.5,284.2,71.6,284.2,71.5z"/>
			<path class="st8" d="M260.7,71.5L260.7,71.5C260.8,71.5,260.8,71.5,260.7,71.5z"/>
			<path class="st8" d="M254.6,72l-0.1,0.1c1.1-0.2,2.4,0,3.6-0.1h-0.1c3.1,0.1,5.9-0.1,8.9-0.2c0,0-0.1,0-0.1,0.1
				c0.2-0.1,0.3-0.1,0.5-0.1c0,0,0,0.1-0.1,0.1c0.6,0.2,1.9-0.1,2.3,0c0.2,0,0.3-0.1,0.2-0.2c2.4,0,4.9-0.1,7.3-0.2
				c0.1,0,0.1,0.1,0.1,0.1c2.1-0.2,4.2-0.3,6.4-0.1c0.1-0.1-0.2-0.1,0-0.2c-0.7-0.1-1.3,0.2-1.9,0l0.1-0.1c-0.5,0-0.1,0.2-0.6,0.1
				c-0.2-0.1,0-0.1,0-0.1c-1,0-1.9,0-2.9,0.2c-0.2-0.2-1,0-1.4-0.2c-0.3,0.1-0.5,0-0.6,0.2c-3.4-0.1-6.8,0.1-10.2,0.1
				c-1.6,0.3-3.5-0.1-5.4,0l0,0c-0.8,0.1-1.5,0.1-2.3,0.1l-0.6,0.1c-4.4-0.3-9-0.2-13.5-0.3c-5.1-0.2-9.6-0.5-14.6-0.2
				c0,0,0,0,0.1-0.1c-1.4,0-2.8-0.1-4.1-0.1l0,0c-1.7,0-3.5,0-5.2-0.1l-2.6-0.2c-0.4,0-0.8-0.1-1.2-0.1l-0.6-0.1
				c-0.2,0-0.4-0.1-0.6-0.1c-4.2-0.1-8.4,0.1-12.6,0.7v0c-3.3,0.5-6.6,0.5-9.9,1.2c-3.4,0.4-6.9,1.6-10.3,2.4
				c-2.1,0.2-4.9,1.1-6.9,0.8c-4.1-0.2-8.2-0.1-12.3,0.2c-3.8-0.3-7.6,0-11.3-0.5c-1.8,0.1-3.7-0.5-5.6-0.5l0.1,0.1
				c-0.7-0.3-1.6,0.2-2-0.2h0.1c-0.4-0.2-0.9,0.4-1.1,0.1l-0.1,0.1c-0.4,0,0-0.1-0.4-0.2c-0.1,0-0.1,0.2-0.3,0.1
				c0-0.4-1.1,0-1.1-0.4c0.2,0-0.4-0.2,0.2-0.2c-0.2,0-0.9-0.1-0.9,0.1s-0.4,0.3,0.1,0.5l0.1-0.1c0.1,0.2,0.1,0.1,0.1,0.2
				c0.6,0.1,0.7,0.3,1.1,0.4l0,0c0.3-0.1,0.6-0.1,0.9,0l0.1,0.1c0.1,0.2,0.7-0.3,0.5,0c1.2,0,2.6,0.1,4,0.2c0.2-0.1,1,0.1,0.8-0.1
				c0.5,0.2,1.1,0.4,1.7,0.4c0,0-0.1,0-0.1,0c0.7,0.3,0.9-0.2,1.5,0.2c0.1-0.2,1.2,0.2,1.6-0.1c0.1,0.1,0.1,0.1,0.1,0.2
				c1.2,0.1,2.6,0.2,3.6,0.3c0.9-0.2,2.1,0.2,2.9-0.1c0.8,0.1,1.7,0.2,2.5,0.1h-0.1c1,0,2,0,2.9-0.2c0.3,0.3,0.7,0.2,1.2,0.3
				c0.7-0.1,2-0.1,3-0.2c0.1,0.1,0.8,0,0.9,0.1c3.1-0.3,6.3-0.5,9.5-0.4h-0.1c0.4-0.2,0.8-0.5,1.2-0.7c0,0,0,0,0,0.1
				c0.6,0,1.1-0.1,1.6-0.2c0,0,0,0-0.1,0.1c0.5-0.2,1.1-0.1,1.7-0.4h0.1l0.4-0.2c0,0.1,0,0.2-0.2,0.2c4.7-1.3,9.4-2.2,14.2-2.8
				l-0.2,0.1l0.9-0.2c0,0-0.1,0-0.1,0.1c1.2,0,2.4-0.3,3.6-0.4c0,0-0.2,0.1,0,0.1c0.9-0.3,1.4,0.1,1.8-0.3c0,0,0.1,0.1,0,0.1
				c2.4-0.3,4.9-0.5,7.3-0.5c1-0.2,2.1-0.2,3.1-0.1c0.5,0.1,1.1,0.2,1.6,0.3c0.5,0.1,1.1,0.1,1.6,0.1V71c2.7,0,5.6,0.3,8.5,0.4
				c1.2,0.1,2,0,3.1,0v0.1c2-0.3,4.2,0.4,6.3,0.1l-0.1,0.1c0.3-0.2,1.3,0.1,1.1-0.2l0.4,0.1c1.4-0.4,2.6,0.2,4.3,0l-0.1,0.1
				c0.4-0.1,0.9-0.1,1.3,0c-0.1,0,0,0-0.1,0c1.5,0.1,3,0.1,4.6,0l-0.2,0.1c0.7-0.1,2.1,0,3,0l-0.1,0.1l0.5-0.1v0.1
				C252.2,72.1,253.4,72,254.6,72z"/>
			<path class="st8" d="M267.3,71.9L267.3,71.9C267.3,71.9,267.3,71.9,267.3,71.9z"/>
			<path class="st8" d="M142.5,75h-0.1C142.4,75,142.5,75,142.5,75z"/>
			<path class="st4" d="M216.1,25.6l0.2-1.4c0-0.1,0.1-0.3,0.1-0.4c0.1-0.1-0.1-0.5,0.3-0.6c0.3-0.2,0.6-0.4,0.8-0.7
				c0.2-0.2,0.4-0.5,0.5-0.8c0.1-0.1,0.3-0.4,0.3-0.5c0-0.1,0.1-0.3,0.2-0.4"/>
		</g>
	</g>
</g>
</svg>
