<?xml version="1.0" encoding="utf-8"?>

<svg version="1.1" id="" xmlns="http://www.w3.org/2000/svg" xmlns:xlink="http://www.w3.org/1999/xlink"
	 x="0px" y="0px" viewBox="0 0 94 27.9" enable-background="new 0 0 94 27.9" xml:space="preserve">
<g id="_x31_3565_x5F_b">
	<path fill="#4C4C4C" d="M12.9,20.3c-0.4,0.3-0.8,0-1.2,0c-0.7,0-1.2,0.4-1.4,0.9c-0.3,0.8-1,1-1.6,1.3C8.2,22.9,7.6,23,7,23.2
		c-1.1,0.3-2.3,0-3.4,0.2c-0.3,0.1-0.5-0.1-0.6-0.3c-0.1-0.4-0.4-0.5-0.7-0.7C2.1,22.2,2,22.1,1.7,22c-0.8-0.2-1.2-0.7-1.3-1.3
		c0,0,0-0.1,0-0.1c-0.3-1.3-0.1-2.6-0.1-4.1l0,0c0-0.5,0-1,0.1-1.6c0.1-0.2,0-0.4,0.2-0.6c0.1,0,0.1-0.1,0.1-0.2
		c0-0.1,0-0.3,0.1-0.3c0.2,0,0.3,0.1,0.3,0.3c0.1,0.1,0.1,0.3,0.2,0.4c0.1,0.2,0.1,0.5,0.2,0.7c0.1,0.1,0.1,0.3,0,0.4
		c-0.5,0.6-0.4,1.3-0.2,2c0.1,0.3,0.1,0.7,0,1c-0.1,0.6-0.1,1.2,0.1,1.7c0.1,0.4,0.6,0.3,0.9,0.6c0.1,0.6,0.4,0.9,1,0.8
		c0.2,0,0.4-0.1,0.6-0.1c0.6-0.2,0.6-0.2,0.5,0.4c0,0.1,0,0.3,0,0.4c0,0,0,0,0,0.1c0,0,0-0.1,0-0.1c0-0.3,0-0.6,0.3-0.6
		c0.3,0.5,0.8,0.5,1.1,0.7c0.6,0.3,1.3,0.3,1.9,0.2c0.2,0,0.7-0.6,0.8-0.8C9,21.5,8.9,21.2,9,20.7c0-0.4,0.1-0.6,0.4-0.9
		c0.2-0.1,0.4-0.2,0.7-0.1c0.3,0.1,0.7,0.5,1,0.3c0.7-0.3,1-0.7,1.9-0.6c0.2,0,0.8-0.2,0.9,0c0.2,0.4-0.1,0.3-0.4,0.4
		c-0.1,0-0.2,0-0.3,0c0.1,0,0.1,0.1,0.2,0.1c0,0.1,0,0.1,0,0.2C13.2,20.2,13,20.2,12.9,20.3z"/>
	<path fill="#4A4A4A" d="M17.9,12.2c0,0,0.5-0.1,0.5-0.1c0.3,0.3,0.6,0.2,1.1,0.1c0.5,0,0.7-0.3,1.2-0.5c0.3-0.1,0.5-0.2,0.7,0.2
		c0.1,0.2,0.1,0.5-0.2,0.6c-0.3,0.1-0.5,0.2-0.6,0.4c-0.2,0.5-0.6,0.6-1.1,0.6c-0.4,0.2-0.7,0.7-1.2,0.5c-0.1-0.1-0.3-0.3-0.2-0.5
		c0-0.1,0.9-0.4,0.9-0.5c-0.2-0.3-1.2,0-1.4-0.2c-0.5-0.1-1.2-0.2-1.7-0.1c-0.2,0.3-0.1,0.9-0.5,1C15.2,13.7,15,14,15,14.2
		c0,0.1-0.1,0.1-0.1,0.2c-0.2,0.2-0.5,0.1-0.7,0.1c-0.3-0.1-0.6-0.1-0.9-0.3C12.8,14,13,13.6,13,13.3c0-0.2,0.3-0.3,0.1-0.5
		c-0.5-0.5-1.1-0.9-1.5-1.6c-0.1-0.2-0.3-0.4-0.6-0.4c-0.2,0-0.3-0.1-0.3-0.3c0-0.2,0.2-0.2,0.3-0.3c0.3-0.2,0.6,0.1,0.9,0.1
		c0.4,0.2,0.6,0.2,0.7,0.5c0.2,0.3,0.6,0.8,0.8,1c1,0.2,1.8,0.4,2.8,0.4C16.9,12.1,17.3,12.3,17.9,12.2z"/>
	<path fill="#565656" d="M32.3,14.6c0,0.7-0.1,1.4,0,2.1c0.1,0.5-0.4,0.8-0.3,1.3c-0.3,0.2-0.5,0.2-0.8-0.1c-0.1,0-0.1-0.1-0.2-0.2
		c-0.3,0.4-0.3,0.8,0.1,1.1c0.3,0.5-0.1,0.7-0.3,1c-0.5-0.4-1.2,0-1.7-0.3c-0.2-0.1-0.4,0-0.5-0.3c0.2-0.6,0.2-1.2,0.5-1.7
		c0.4-0.4,0.5-0.8,0.6-1.4c0-0.2,0-0.4,0-0.6c0.1-0.2,0-0.5,0.1-0.7c0.3-0.6,0.3-0.6,0.8-0.2c0,0,0.1,0.1,0.1,0.1
		c0,0.1,0,0.3,0.2,0.3c0.2-0.1,0.4,0,0.5,0.1c0.2,0,0.3,0.1,0.2,0.4c0.1-0.3,0-0.4-0.3-0.4c-0.7-0.3-0.7-0.5-0.1-1.4
		c0.1-0.2,0-0.5,0.3-0.6c0.3-0.1,0.4,0.1,0.6,0.3c0,0.3,0,0.6-0.1,0.9C32.2,14.4,32.2,14.5,32.3,14.6z"/>
	<path fill="#474747" d="M25.5,11.8c0.7-0.1,1.2-0.5,1.7-1c0.3-0.1,0.6-0.2,0.8-0.5c0.2-0.2,0.5-0.3,0.7,0.1
		c-0.2,0.9-0.6,1.1-1.4,1.3c-0.5,0.6-1.4,0.4-1.8,1c-0.3-0.1-0.7-0.1-1-0.1c-0.3,0.1-0.5,0.1-0.8,0.1c-0.5,0-1-0.1-1.4,0.2
		c-0.1,0-0.1,0-0.2,0c-0.3-0.1-0.6,0-0.9-0.1c-0.2,0-0.5-0.1-0.4-0.4c0-0.3,0.3-0.3,0.5-0.3c0.8,0,1.3,0,2.1,0
		c0.1,0,0.6-0.1,0.9-0.1l0.3-0.1C24.9,11.7,25.1,12,25.5,11.8z"/>
	<path fill="#4E4E4E" d="M28.5,10.6c-0.2-0.1-0.3-0.2-0.5,0c-0.2,0.3-0.5,0.3-0.8,0.3c0.4-0.4,0.9-0.8,1.4-1.2
		c0.9-0.8,1.8-0.5,2.5,0.5c0.7,0.9,0.9,2,1.1,3.2c-0.2,0-0.4-0.1-0.6-0.1c-0.2,0-0.3,0-0.4-0.2c0-0.1,0-0.1-0.1-0.2
		c0-0.9-0.3-1.6-0.7-2.4c-0.1-0.2-0.2-0.2-0.4-0.2c-0.2,0-0.2,0.1-0.2,0.3c0.1,0.4,0,0.5-0.4,0.3c-0.2-0.1-0.4-0.1-0.6-0.1
		C28.7,10.9,28.6,10.9,28.5,10.6z"/>
	<path fill="#505050" d="M5.7,10c0.2,0,0.3,0,0.5,0c0.3,0.1,0.3,0.3,0,0.5C6,10.6,6,10.8,5.8,11c-0.1,0-0.1,0-0.1,0
		c-1-0.1-2-0.3-2.5,1c-0.3,0-0.6,0-0.6,0.4c0,0,0,0.1,0,0.1c-0.6,0.4-1,0.9-1.3,1.5c-0.1,0-0.1,0-0.2,0c-0.2-0.1-0.5-0.2-0.3-0.5
		c0.3-1.8,1.8-2.4,3.3-3C4.5,10.2,5.1,10.2,5.7,10z"/>
	<path fill="#525252" d="M23.7,12.1c-0.9,0-1.7,0.5-2.7,0.4c0.4,0.4,0.9,0.1,1.2,0.4c0,0.6-0.7,0.3-1.1,0.4c-0.4,0-0.3,0.1-0.6,0.4
		c-0.2,0-0.8,0.2-1,0.1c-0.2-0.1-0.4,0-0.3-0.2c0-0.2,0.1-0.5,0.4-0.5c0.2,0.1,0.4,0.2,0.5-0.1c0.1-0.4,0.5-0.6,0.9-0.8
		c0.2-0.1,0.3-0.1,0.2-0.3c-0.1-0.2-0.2,0-0.3,0.1c-0.5,0.1-1.1,0.5-1.7,0.3c0.3-0.1,0.7,0,0.9-0.2c0.4-0.4,1-0.7,1.4-0.3
		c0.1,0.1-0.2,0-0.2,0.2c0,0.2,0.4,0.2,0.6,0.3c0,0,0.1,0,0.1,0c0.5-0.1,1,0.1,1.5,0C23.5,12,23.7,11.9,23.7,12.1z"/>
	<path fill="#525252" d="M0.7,13.5c0.1,0.2,0.2,0.3,0.4,0.4c0.4,0.3,0.4,0.6,0,0.8c0-0.1-0.1-0.2-0.1-0.3c0-0.1,0-0.3-0.1-0.3
		c-0.2,0-0.2,0.2-0.3,0.3C0.5,14,0.6,13.8,0.7,13.5z"/>
	<path fill="#595959" d="M61.7,13.6c0.1-0.2,0.3-0.3,0.4-0.5c0.2-0.2,0.5-0.4,0.7-0.1c0.2,0.2,0.3,0.5,0.2,0.8
		c-0.1,0.4-0.1,0.8-0.2,1.2c-0.1,0.2-0.1,0.4,0.1,0.5c0.4,0.7-0.1,2.1-0.1,2.9c0.5-0.4,1.1-1.2,1.5-1.6c0.2-0.2,0.3-0.7,0.6-0.9
		c0.2-0.1,0.4-0.5,0.4-0.7c0-0.2,0.1-0.2,0.3-0.4c0.1,0,0-0.3,0.1-0.3c0.2,0,0.1,0,0.3,0c0.4-0.1,0.3,0,0.5,0.4c0,0.8-0.6,1-1,1.6
		c-0.3,0.4-0.6,0.9-1,1.2c-0.1,0.3-0.3,0.6-0.5,0.9c-0.3,0.5-0.3,0.4-0.7,0.9c-0.2,0.1,0,1.1-0.1,0.9c-0.1-0.5-0.9-0.6-1.2-0.7
		c-0.1-0.4-0.6-0.2-0.8-0.4c-0.1-0.2,0-0.3,0.1-0.4c0.2-0.2,0.3-0.5,0.6-0.7c0.2-0.1,0.1-0.3,0-0.5c-0.1-0.3-0.4-0.4-0.4-0.7
		c-0.2-0.4,0.2-0.8-0.1-1.1c-0.2-0.7,0.3-1.2,0.4-1.8C61.8,13.8,61.8,13.7,61.7,13.6z"/>
	<path fill="#4F4F4F" d="M62.9,15.5c-0.1,0.2-0.1,0.5-0.4,0.7c0.1-0.6,0.1-1,0.2-1.5c0.1-0.4,0.1-0.7,0.1-1.1c0-0.5-0.3-0.5-0.6-0.5
		c0.1-0.5,0.5-0.9,0.9-1.2c0.1-0.3,0.3-0.5,0.6-0.6c1.2-0.7,2.2-1.5,3.8-1.2c0.3,0.1,0.7-0.1,1,0.2c0.5,0.2,1.1,0.3,1.3,1
		c0.1,0.2,0.4,0,0.5,0c0.5-0.3,0.7,0,1.1,0.4c0.1,0.1,0.4,0.2,0.5,0.3c0.1,0.1,0,0.3-0.1,0.5c-0.2,0.2-0.4,0.2-0.6,0.1
		c-0.2-0.1-0.3-0.2-0.5-0.2c-1.2-0.5,0.4,0.5-0.3,0.7c-0.6-0.2-0.9-0.6-1.3-1c-0.3-0.5-0.2-0.6-0.8-1c-0.1-0.1-0.7-0.1-0.9-0.1
		c-1.1-0.2-2.5-0.1-3.2,0.5c-0.4,0.6-0.7,1.6-0.9,2.3c-0.1,0.2-0.2,0.6-0.2,0.8C63.1,14.8,63.1,15.1,62.9,15.5z"/>
	<path fill="#5F5F5F" d="M73.4,12.6c0.6,0.1,1.3,0.2,1.9,0.2c0,0.4-0.5,0.3-0.5,0.6c0.4,0.1,0.7,0.1,0.9,0.5
		c0.2,0.2-0.3,0.3-0.4,0.4c-0.4,0.5-0.8,1-1.1,1.6c-0.5,0.9-1.3,1.6-1.9,2.4c-0.2,0.2,0,0.4-0.1,0.6c-0.6,0-0.8-0.3-1.1-0.8
		c0-0.3,0-0.4,0.3-0.5c0.5,0.1,0.7-0.3,0.5-0.7c0.1-0.5,0.4-0.6,0.7-1.1c0.2-0.3,0.5-0.7,0.6-1c0.3-0.6,0.8-1,0.2-1.3
		c-0.1,0-0.7-0.1-1.1,0c-0.2,0,0.3-0.3-0.1-0.3c-0.2,0-0.3-0.2-0.2-0.4c0.1-0.3,0.4-0.4,0.7-0.3C72.9,12.7,73.2,12.8,73.4,12.6z"/>
	<path fill="#505050" d="M93.7,16.1C93.7,16.1,93.6,16.1,93.7,16.1c0,0.1,0,0.1,0,0.1c0.1,0.8,0,1.5-0.3,2.2c-0.2,0.5-0.3,1-0.5,1.4
		c-0.3,0.1-0.5,0.6-0.8,0.1c0-0.7,0.2-1.3,0.4-1.9c0.4-0.8,0.5-1.6-0.1-2.4c-0.3-0.4-0.4-0.9-0.3-1.4c0.1-0.6-0.1-0.9-0.5-1.2
		c-0.4-0.3-0.5-0.7-0.3-1.2c0.1-0.2,0.4-0.2,0.6-0.2c0.1,0,0.2,0.1,0.2,0.1c0.1,0.2,0.2,0.5,0.3,0.7c0.4,0.4,0.8,0.8,0.7,1.5
		c0,0.3,0.1,0.1,0.4,1C93.9,15.3,93.8,15.7,93.7,16.1z"/>
	<path fill="#4E4E4E" d="M75.6,13.9c-0.2,0-0.4-0.2-0.6-0.1c-0.4,0.2-0.6-0.1-0.8-0.3c0.2-0.2,0.2-0.8,0.7-0.7c0.2,0,0.3,0,0.5,0
		c0.9,0,1.8,0.2,2.7,0.1c0.7,0.1,1.5,0.2,2.1-0.2c0.1,0,0.3-0.1,0.4,0c0.2,0.1,0.5,0.3,0.6,0.5c0.1,0.2-0.1,0.4-0.3,0.5
		c-0.1,0.1-0.3,0.1-0.4,0.2c-0.1,0.2-0.1,0.2-0.3,0.2c-0.3-0.1-0.5-0.1-0.9,0.1c-0.1,0.1-0.2,0.1-0.3,0c-0.3-0.7-1.1-0.8-1.7-0.9
		c-0.5,0-0.8,0.1-1.3,0.1C75.9,13.6,75.7,14,75.6,13.9z"/>
	<path fill="#646464" d="M70.6,13.3c0.3-0.2-0.5-0.3-0.7-0.5c-0.2-0.2-0.1-0.9,0.1-0.9c0.2-0.1,0.6-0.4,0.8,0.1
		c0.1,0.2,0.3,0.3,0.5,0.3c0.1-0.3,0-0.5,0-0.7c0.3,0.2,1.3,0.4,1.6,0.7c-0.1,0.1-0.8,0.2-0.9,0.2c-0.5,0.4-0.3,0.6,0.1,0.9
		c0,0.1-0.1,0-0.1,0.1c-0.5,0.4-0.9,0.8-1.4,1.3c-0.3,0.3-0.6,0.6-0.8,1c-0.2,0.1-0.2,0.4-0.3,0.7c-0.5-0.1-0.6-0.3-0.7-0.8
		c0.4-0.4,0.5-0.8,0.8-1C70.2,13.8,70.4,13.9,70.6,13.3z"/>
	<path fill="#464646" d="M92.3,11.7c-0.1,0.1-0.8-0.1-1-0.1c0,0-0.1,0-0.1,0c-0.1-0.2-0.2-0.4-0.5-0.3c-0.2,0-0.4-0.2-0.6-0.3
		c-0.6-0.4-1.4-0.3-2-0.2C87.8,10.9,87.4,11,87,11c-0.6,0.3-1.1,0.4-1.4,1c-0.4,0.7-0.9,0.8-1.3,0.9c-0.5,0.1-0.9,0.6-1.2,0.7
		c-0.1-0.1-0.3-0.2-0.4-0.2c-0.2-0.1-0.3-0.2-0.3-0.4c0-0.2,0.2-0.3,0.4-0.4c0.5-0.3,1.1-0.2,1.6-0.3c0.2-0.5,0.5-0.8,1-1
		c1.1-0.7,2.4-1.2,3.7-1.2C90.1,10.1,91.6,10.8,92.3,11.7z"/>
	<path fill="#525252" d="M60.6,19.8c-0.1-0.4,0.2-0.8,0-1.2c0.2-0.3,0-0.8,0.2-1.1c0.1-0.2,0.2-0.3,0.4-0.3c0.2,0.3,0.4,0.7,0.4,1.1
		c0,0.1,0,0.2,0,0.3c0,0.1-0.1,0.2-0.1,0.4c0.1,0.2,0.9,0.1,0.3,0.6c0.1-0.1,0.2-0.3,0.4-0.3c0.8-0.4,0.8-0.4,0.9,0.5
		c0,0.1,0.1,0.2,0.2,0.2c0.2-0.2,0.3,0.1,0.5,0.2c0.2,0.1,0.6,0.3,0.8,0.4c0.3,0.1,0.5,0.2,0.4,0.5c-0.1,0.3-0.4,0.3-0.6,0.2
		c-0.2,0-0.4,0-0.5-0.1c-0.4-0.4-0.8-0.2-1.2,0.1c0,0-0.1,0.1-0.2,0.1c-0.8-0.2-1.5-0.5-1.7-1.4C60.7,19.9,60.7,19.8,60.6,19.8z"/>
	<path fill="#5D5D5D" d="M80.4,13.9c0.1-0.3,0.6-0.4,0.5-0.7c-0.2-0.3-0.6-0.1-0.9-0.1c-0.3,0-0.6,0-0.9,0c-0.2,0-0.4-0.1-0.5,0.2
		c0,0.1-0.2,0.2-0.4,0.1c-0.2-0.1,0-0.3-0.1-0.5c1.2,0.1,2.2-0.5,3.4,0.1c0.2,0.4,0.9,0.3,1.2,0.6c0.1,0.1,0.3,0.1,0.3,0.2
		c-0.4,0.2-0.4,0.3-0.6,0.5c-0.3,0.4-0.3,0.6-0.6,1c-0.3,0.3-0.5,0.6-0.8,0.6c-0.3,0.1-0.5-0.2-0.6-0.6c0.1-0.2,0.6-0.5,0.7-0.7
		C81.2,14.3,81.3,13.3,80.4,13.9z"/>
	<path fill="#4F4F4F" d="M82.9,13.8c-0.4,0.3-0.9,0-1.3,0c-0.3,0-0.1-0.4,0-0.6c0.4-0.3,0.8-0.5,1.2-0.7c0.5-0.2,0.6-0.6,1.4,0
		c-0.4,0.6-1.2,0.3-1.7,0.6c0.1,0.3,0.4,0.3,0.5,0.5C83.2,13.8,83.1,13.8,82.9,13.8z"/>
	<path fill="#4F4F4F" d="M72,13.6c-0.4,0.1-0.6-0.3-1-0.2c-0.2,0,0-0.3,0.1-0.3c0.4-0.3,0.8-0.5,1.1-0.8c0.4,0.1,0.8,0.2,1.2,0.4
		c-0.2,0.2-0.4,0.2-0.7,0.2c-0.2,0-0.4,0-0.4,0.2c0,0.2,0.2,0.1,0.4,0.2c0.1,0,0.3-0.1,0.4,0c-0.2,0.2-0.5,0.1-0.7,0.3
		C72.3,13.6,72.1,13.7,72,13.6z"/>
	<path fill="#4F4F4F" d="M61.7,13.6c0.1-0.1,0.3-0.1,0.4-0.2c0.1,0,0.2,0,0.2,0.1c0,0.1,0,0.2-0.1,0.2c-0.6,0.5-0.7,1.2-0.8,1.9
		c-0.1,0.2,0.1,0.8-0.5,0.5c-0.1-0.6,0.2-1.1,0.3-1.6C61.4,14.2,61.5,13.8,61.7,13.6z"/>
	<path fill="#575757" d="M61,16.1c0.2-0.1,0.3-0.3,0.5-0.5c0.3,0.4,0.1,0.8,0.1,1.2c0.1,0.2,0.5,0.4,0,0.7c-0.2,0.1-0.3,0-0.5-0.1
		c-0.1,0-0.2,0.1-0.4,0.1C60.8,16.9,60.7,16.5,61,16.1z"/>
	<path fill="#474747" d="M80.7,24.5c0,0.2,0,0.4,0,0.6c-0.4,0.5-0.4,1.2-0.9,1.7c-0.4,0.4-0.8,0.7-1.4,0.7c-0.3,0.1-0.6,0.2-0.9,0.2
		c-0.2,0-0.4-0.1-0.5-0.4c-0.2-0.4-0.6-0.7-0.8-1.1c-0.2-0.5-0.1-0.8,0.4-1c0.1,0,0.1,0,0.2,0c0.3,0,0.3,0.4,0.4,0.6
		c0.1,0.2,0.4,0.5,0.5,0.6c0.2,0.3,0.5,0.5,0.9,0.4c0.4-0.1,0.9-0.4,0.9-0.8c0-0.5-0.1-0.9,0.3-1.2c0.2-0.1,0.4-0.1,0.4-0.3
		c0.1-0.1-0.4-0.3-0.3-0.4c0.1-0.1,0.5-0.8,0.7-0.7c0.2,0.1,0.1,0.3,0.1,0.4C80.8,24,80.8,24.3,80.7,24.5z"/>
	<path fill="#474747" d="M92.2,19.8c0.2,0.1,0.3,0,0.4-0.1c0.1-0.1,0.2,0.2,0.2,0.3c-0.8,1.2-2,1.7-3.3,2.1c-0.3,0.1-0.7,0.6-1,0.1
		c-0.1-0.2-0.4-0.4-0.2-0.7c0-0.1,0.1-0.2,0.2-0.1c0.6,0.1,1.2,0.1,1.7-0.2c0.3-0.2,0.3-0.8,0.4-1.1c0.2-0.3,0.5-0.5,0.8-0.3
		C91.7,19.8,92,19.6,92.2,19.8z"/>
	<path fill="#535353" d="M88.5,21.5c0,0.2,0,0.4,0,0.7c-0.5,0-0.9,0-1.4,0.1c-0.4-0.3-0.9-0.4-1.4-0.5c-0.3-0.1-0.6-0.2-0.7-0.5
		c0-0.4-0.2-0.8-0.2-1.2c0-0.2,0-0.4,0.3-0.4c0.2,0,0.4,0.1,0.4,0.3c0.2,0.6,0.6,0.5,1,0.4c0.5,0.5,1.1,0.9,1.8,0.8
		C88.4,21.1,88.5,21.3,88.5,21.5z"/>
	<path fill="#595959" d="M76.8,25.4c-0.3,0.2-0.4,0.3-0.2,0.6c0.2,0.5,0.7,0.8,0.8,1.4c0,0.2,0.2,0.1,0.4,0.1c0.2,0,0.5-0.1,0.7-0.1
		c-0.6,0.4-1.3,0.4-2.1,0.2c0,0-0.1-0.1-0.1-0.1c-0.1-0.4-0.4-0.5-0.6-0.7c-0.2-0.1-0.3-0.3-0.4-0.4c-0.4-0.6,0.1-0.9,0.4-1.2
		c0.2-0.1,0.4-0.3,0.6-0.3C76.6,24.9,76.7,25.1,76.8,25.4z"/>
	<path fill="#4A4A4A" d="M85.2,21.1c0.4,0.4,1.1,0.4,1.6,0.6c0.2,0.1,0.4,0.2,0.3,0.4c-0.3,0-0.7-0.1-1-0.1c-0.8-0.2-1.6-0.4-2.2-1
		c-0.1-0.1-0.2-0.2-0.3-0.4c-0.1-0.3,0.2-0.6,0.4-0.4C84.3,20.6,85,20.5,85.2,21.1z"/>
	<path fill="#494949" d="M29.2,21c-1.5,0.4-3,0.7-4.6,1c-0.8-0.1-1.7-0.2-2.5-0.6c-0.3-0.1-0.5-0.3-0.7-0.5c-0.3-0.3-0.7-0.4-1-0.6
		c-0.3-0.2-0.7-0.5-0.4-1c1-0.4,1.5-0.2,2,0.8c0,0,0.1,0.1,0.1,0.1c0.5,0.2,0.9,0.5,1.4,0.6c0.3,0.1,0.3,0.4,0.5,0.5
		c-0.6-0.6-0.5-0.8,0-1c0.2-0.1,0.5-0.2,0.7,0c0.3,0.1,0.6,0.3,0.8,0.2c0.6-0.2,1.3-0.3,1.8-0.6c0.2-0.1,0.6-0.2,0.8-0.3
		c0.2,0,0.1-0.4,0.3-0.3c0.2,0,0.5-0.4,0.5,0.1c0.2,0.5,0.1,0.7-0.4,0.7c-0.2,0-0.6-0.1-0.8,0c-0.3,0.3-0.6,0.6-1,0.7
		c-0.1,0-0.7,0.1-0.7,0.2c0.1,0.3,1.1,0.2,1.2,0.1c0.2,0,0.6,0.1,0.9-0.2c0.6,0,1-0.6,1.4-1.1c0.2-0.2,0.6-0.1,0.9,0
		c0.2-0.3,0.3-0.5,0.1-0.8c0.1-0.2,0-0.3-0.1-0.4c-0.1-0.3,0-0.6,0.4-0.6c0.2,0.1,0.5,0.2,0.7,0.2C31.4,19.3,30.7,20.5,29.2,21z"/>
	<path fill="#5A5A5A" d="M17.2,20.3c-0.6,0.1-1.2-0.1-1.8,0.1c0,0.5,0,1-0.9,1c-0.2,0-0.3-0.2-0.4-0.4c-0.1-0.7-0.7-0.8-1.3-0.7
		c0.1-0.1,0.2-0.2,0.2-0.3c0,0.1,0.1,0.1,0.2,0.1c-0.1,0-0.1-0.1-0.2-0.1c-0.3-0.2-0.7,0.1-1-0.2c0.4-0.4,1.1-0.1,1.5-0.4
		c0-0.1,0.1,0,0.2,0c0.1,0,0.4-0.2,0.5-0.1c0.2,0.1,0,0.1,0.1,0.3c0.3,0.4,0.6,0.5,1.1,0.4c0.4-0.1,0.8,0.1,1.3,0
		C16.9,19.8,17.3,19.9,17.2,20.3C17.3,20.3,17.2,20.3,17.2,20.3z"/>
	<path fill="#646464" d="M1.1,14.7c0-0.3,0.1-0.6,0-0.8c0,0,0.1,0,0.1,0c0.6-0.2,1.2,0.2,1.2,0.8c0,0.3,0.1,0.5,0.3,0.8
		c0.3,0.4,0.2,1.5-0.1,1.8c-0.2,0-0.3-0.1-0.5-0.1c-0.4,0-0.5-0.2-0.4-0.4c-0.1,0.2,0,0.5,0.4,0.4c0.2,0,0.3,0.1,0.5,0.1
		c0.4,0.3,0.2,0.8,0.3,1.2c0,0.5-0.2,0.9-0.5,1.2c0.3,0,0.5,0.1,0.5,0.4c0,0.3,0.1,0.5,0.3,0.7c0.1,0.3,0,0.5-0.3,0.5
		c-0.3,0.1-0.4,0-0.5-0.3c-0.7,0-0.9-0.4-1.1-1c-0.4-1.4-0.1-2.9-0.1-4.3C1,15.5,1,15.1,1.1,14.7z"/>
	<path fill="#545454" d="M7.2,18.2c-0.8,1-1.5,2-2.2,3.1c-0.1,0.2-0.3,0.4-0.1,0.6c-0.2,0.1-0.2,0.3-0.3,0.5c-0.1,0.1-0.2,0.1-0.4,0
		c0.1-0.3,0.5-0.7-0.2-0.6c-0.4-0.1-0.2-0.2-0.1-0.5c0-0.5,0.6-0.6,0.8-1c0.3-0.4,0.5-0.7,0.7-1.2c0.1-0.2,0.1-0.8,0.4-0.8
		c0.4,0.1,0.5-0.2,0.6-0.5c0.1-0.1,0.1-0.3,0.2-0.4c0.1-0.1,0.2-0.2,0.4-0.1c0.2,0.1,0.1,0.2,0.1,0.4C7.2,17.9,7.3,18.1,7.2,18.2z"
		/>
	<path fill="#5E5E5E" d="M9.4,20c0-0.1,0-0.2,0-0.2c0.3-0.5,0.6-1.1,0.9-1.6c0.2,0,0.3-0.1,0.4-0.4c0.1-0.5,0.5-0.9,0.8-1.4
		c0.1-0.2,0.2-0.4,0.5-0.3c0.3,0.2,0.4,0.5,0.2,0.7c-0.3,0.3-0.4,0.8-0.6,1.1c-0.1,0.1-0.2,0.3-0.1,0.5c-0.2,0.3-0.4,0.6-0.6,0.8
		c-0.1,0.2-0.3,0.7-0.2,0.9C10.3,20.5,9.9,20.1,9.4,20z"/>
	<path fill="#5B5B5B" d="M4.2,21.2c0,0.2-0.2,0.4-0.1,0.6c-0.6,0.4-1.1,0.4-1.7-0.1c-0.2-0.2-0.3-0.4-0.1-0.6
		c0.3,0.1,0.6,0.1,0.5-0.4c0.1-0.3,0-0.7,0.1-1.1c0-0.2,0-0.5,0.4-0.5c0.3,0.1-0.1,0.7-0.1,0.9C3.2,20.6,3.7,21.6,4.2,21.2z"/>
	<path fill="#606060" d="M4.3,22.4c0.1,0,0.2,0,0.4,0c0.1,0.3,0.5,0.1,0.7,0.3c-0.4,0.3-0.8,0.1-1.1,0C4.1,22.6,4.2,22.5,4.3,22.4z"
		/>
	<path fill="#5B5B5B" d="M15.1,18.4c0.4-0.8,0.9-1.7,1.5-2.4c0.3-0.4,0.5-0.9,0.9-1.3c0,0,0.1-0.1,0.1-0.1c0.2-0.3,0.4,0.2,0.5,0
		c0.1-0.2,0.1-0.5,0.2-0.7c0,0,0-0.1,0.1-0.1c0.4-0.1,0.6-0.3,0.8-0.7c0.1-0.1,0.2-0.4,0.4,0c-0.4,0.3-0.2,0.5,0,0.7
		c0.1,0.2-0.5,0.7-0.6,0.9c-0.7,1-0.8,1-1.5,2c-0.1,0.1-0.3,0.8-0.5,0.7c-0.7,0-0.8,0.1-0.5,0.8c0,0.1-0.1,0.1-0.1,0.2
		c-0.4,0.6-0.8,0.3-1.2,0.3C15.1,18.7,15,18.5,15.1,18.4z"/>
	<path fill="#535353" d="M11.5,18.4c-0.5,0.2-0.3-0.2-0.2-0.3c0.2-0.4,0.4-0.8,0.6-1.2c0.1-0.2,0.3-0.3,0.1-0.5
		c-0.2-0.1-0.3,0.1-0.4,0.3C11.4,17.1,11,17.5,11,18c0,0.3-0.3,0.3-0.6,0.2c0.4-0.9,1-1.8,1.6-2.6c0.4-0.1,0.8-0.3,1-0.7
		c0.3-0.4,0.7-0.6,1.2-0.6c0.2,0,0.3-0.1,0.5-0.1c-0.8,0.7-1.2,1.8-1.9,2.6C12.4,17.3,11.9,17.9,11.5,18.4z"/>
	<path fill="#555555" d="M11.7,10.2c0.1,0.1,0.2,0.2,0.2,0.2c-0.3,0-0.5-0.2-0.9,0.1c1,0.3,1.2,1.3,2,1.8c0.3,0.2,0.8,0.1,0.8,0.6
		c-0.4,0-0.9,0.2-1.3-0.3c-0.2-0.2-0.7-0.4-1.1-0.3c0,0-0.1-0.1-0.1-0.1c-0.2-0.3-0.3-0.6-0.8-0.6c-0.5,0-0.6-0.7-1.1-0.9
		c-0.1,0,0-0.2,0-0.3c0.5,0.1,0.9-0.2,1.4-0.2C11.1,10.1,11.4,10.1,11.7,10.2z"/>
	<path fill="#535353" d="M11.5,11.9c0,0,0,0.1,0,0.1c0.6,0.2,1.1,0.6,1.7,0.8c0.2,0.1,0.1,0.2,0.1,0.4c0.1,0.2-0.2,0.5,0.1,0.7
		c0.2,0.3,0,0.6-0.3,0.7c-0.1,0.1-0.2,0-0.3-0.1c-0.1-0.1,0-0.2,0.1-0.3c0-0.4-0.7-1-1.2-1.1c-0.1,0-0.2,0-0.3-0.1
		c-0.2-0.1-0.5-0.2-0.5-0.4C10.8,12.1,11,11.9,11.5,11.9z"/>
	<path fill="#535353" d="M15.5,14c-0.1,0.3-0.4,0.3-0.7,0.3c0.2-0.6,0.6-0.8,0.8-1.4c0.3,0.4,0.9,0.3,1.3,0.3c0.2,0,0.9-0.1,1.1-0.1
		c0.4,0,0.6-0.4,0.9-0.2c-0.1,0.2-0.4,0.3-0.6,0.3c-0.2,0.2-0.4,0.3-0.6,0.2c-0.4,0.1-0.9-0.1-1.2,0.2C16.1,13.9,15.7,13.7,15.5,14z
		"/>
	<path fill="#6C6C6C" d="M15.5,14c0-0.3,0.1-0.5,0.4-0.3c0.2,0.1,0.3,0,0.5,0c0.4-0.3,0.8-0.2,1.2-0.2c0.2,0,0.5-0.1,0.7-0.1
		c0,0.1,0,0.3,0.1,0.4c0.3,0.4,0.2,1.2-0.2,1.4c-0.2,0.2-0.4,0.1-0.4-0.3c0-0.2-0.2-0.2-0.3-0.2c0.1-0.3,0.6-0.5,0.5-0.8
		c-0.2-0.4-0.6,0-0.9,0C16.5,13.9,16,13.9,15.5,14z"/>
	<path fill="#616161" d="M12.9,14.3c0,0.2,0.1,0.2,0.2,0.1c0.1-0.1,0.2-0.3,0.3-0.4c0.3,0.1,0.6,0.2,0.8,0.2c-0.3,0.4-0.9,0.5-1,1.1
		c-0.1,0.4-0.9,0.5-1.3,0.2C12.3,15.1,12.6,14.7,12.9,14.3z"/>
	<path fill="#676767" d="M13.3,13.3c-0.4-0.2-0.9-0.5-1.3-0.7c-0.2-0.1-0.5-0.2-0.5-0.5c0.3-0.1,0.7-0.1,1,0.1
		c0.4,0.3,0.9,0.4,1.3,0.6C13.6,12.9,13.5,13.1,13.3,13.3z"/>
	<path fill="#535353" d="M14.5,12.5c0.5,0.6,0.4,0.9-0.2,1.1c-0.1,0-0.2,0.1-0.3,0c-0.1-0.1,0-0.2,0.1-0.3
		C14.2,13.1,14.4,12.8,14.5,12.5z"/>
	<path fill="#606060" d="M29.8,15.7c0.1-0.5,0.1-0.8-0.2-1.3c-0.2-0.3-0.4-0.4-0.6-0.1c-0.3,0.5-0.8,0.9-1.1,1.4
		c-0.2,0.1-0.5,0-0.7,0.1c-0.2,0.1-0.4,0-0.5-0.3c0.3-0.4,0.4-0.4,0.5-0.7c1-0.6,1.7-1.6,2.5-2.5c0.2-0.2,0.3-0.4,0.5-0.6
		c0-0.2,0.3-0.1,0.3-0.3c0,0,0-0.1,0-0.1c0-0.1,0.1-0.1,0,0c0,0,0,0.1,0,0.2c-0.4,0.2-0.6,0.6-0.9,0.9c-0.3,0.3-0.7,0.8-1,0.4
		c0-0.1,0.4-0.2,0.8-1.1c0.2-0.6-0.5-0.5-0.5-1c0.2-0.3,0.4-0.1,0.7,0c0-0.3-0.3-0.7,0.2-0.8c0.4-0.1,1,0.3,1,0.7
		c0,0.1,0,0.3,0.1,0.3c0.7,0.3,0.3,1.1,0.7,1.6c0.1,0.1-0.1,0.3-0.2,0.3c-0.1,0-0.3-0.1-0.4-0.1c-0.4,0-0.5,0.1-0.3,0.5
		c0.1,0.2,0.3,0.5,0.3,0.8c0,0.4-0.1,0.6-0.5,0.6c-0.2-0.1-0.4-0.2-0.4,0.2C30.1,15.2,30.2,15.5,29.8,15.7z"/>
	<path fill="#6D6D6D" d="M30.6,14.7c0.3-0.4,0.1-0.9-0.1-1.3c-0.1-0.1-0.2-0.2-0.2-0.4c0-0.2,0.1-0.6,0.3-0.6c0.3,0,0.7,0.1,0.8,0.5
		c0,0,0,0,0,0c-0.1,0.2-0.1,0.3,0.1,0.5c0.1,0.1,0.3,0.2,0.1,0.4c-0.2,0.4-0.7,0.7-0.1,1.2c0.1,0.1,0.1,0.2,0,0.2
		c-0.2,0-0.4,0.1-0.6,0.1c-0.4,0.2-0.5,0.1-0.4-0.3C30.6,14.9,30.6,14.8,30.6,14.7L30.6,14.7z"/>
	<path fill="#646464" d="M30.7,19.6c-0.3,0.1-0.6,0.2-0.8,0.5c-0.3,0.5-0.9,0.7-1.4,0.6c-0.3,0,0-0.7-0.2-0.8
		c0.2-0.2,0.2-0.3,0.5-0.2c0.3,0,0.4-0.1,0.5-0.4c0.3,0.2,0.6-0.1,0.8-0.2c0.3-0.2,0.3-0.1,0.4,0.2C30.4,19.4,30.6,19.5,30.7,19.6z"
		/>
	<path fill="#636363" d="M31.2,17.7c-0.2,0.2-0.3,0.4-0.2,0.6c0.1,0.2,0,0.3-0.2,0.5c-0.1-0.2-0.5-0.4-0.3-0.7
		c0.2-0.4,0.4-0.8,0.7-1.1c0.1-0.1,0.1-0.1,0.2,0c0.1,0.1,0.2,0.2,0.1,0.4C31.4,17.5,31.3,17.6,31.2,17.7z"/>
	<path fill="#4E4E4E" d="M31.5,15.2c0-0.1,0-0.2,0-0.2c0.1-0.2,0.2-0.3,0.4-0.3c0.2,0.1,0.2,0.3,0.2,0.5c-0.1,0.4-0.3,0.7-0.7,1.1
		C31.4,15.9,31.4,15.5,31.5,15.2z"/>
	<path fill="#606060" d="M31.7,13.7c-0.1-0.1-0.2-0.2-0.3-0.3c-0.2-0.1-0.5,0-0.5-0.3c0-0.3,0.4-0.2,0.6-0.3
		c0.1,0.1,0.2,0.2,0.2,0.4C31.7,13.4,31.7,13.6,31.7,13.7z"/>
	<path fill="#606060" d="M30.6,14.7c0.3,0.1-0.1,0.6,0.4,0.6c-0.1,0.1-0.3,0.3-0.4,0.1C30.3,15.1,30.4,14.9,30.6,14.7z"/>
	<path fill="#505050" d="M20.3,19.4c0.2,0.8,0.2,0.8,1.1,0.8c0.1,0,0.2,0.1,0.2,0.2c0,0.2,0,0.4,0,0.5c-0.3-0.1-0.6-0.3-0.9-0.3
		c-0.2-0.4-0.5-0.6-1-0.6c-0.5-0.4-0.4-0.5,0.2-0.9c0.1,0,0.2-0.1,0.3,0C20.2,19.3,20.3,19.3,20.3,19.4z"/>
	<path fill="#646464" d="M24.5,13.1c0.1-0.2,0.4-0.4,0.1-0.6c0.3-0.1,0.6,0.1,1,0.1c0.3,0,0.8-0.6,0.7,0.3c-0.4,0.7-0.9,1.3-1.4,1.9
		c0,0.3-0.1,0.5-0.4,0.6c-0.1,0-0.2-0.1-0.2-0.3c-0.1-0.1-0.1-0.2-0.2-0.3c-0.4-0.3-0.2-0.6,0-1C24.3,13.7,24.7,13.5,24.5,13.1z"/>
	<path fill="#515151" d="M26.3,12.9c-0.2-0.3-0.5,0-0.7-0.3c0.5-0.7,0.8-0.8,1.5-0.6C27.1,12.6,26.6,12.7,26.3,12.9z"/>
	<path fill="#525252" d="M23.8,12.7c-0.5,0.1-1,0.1-1.5,0.2c0-0.2,0-0.3,0.2-0.3C22.9,12.7,23.3,12.5,23.8,12.7z"/>
	<path fill="#4A4A4A" d="M11.5,11.9c-0.3,0.2-0.4,0.5-0.5,0.8c-0.7,0.3-1,0.2-1.3-0.5c-0.1-0.3-0.3-0.6-0.6-0.8
		c-0.2-0.1-0.4-0.2-0.6-0.2c-0.3-0.1-0.5,0-0.8,0.1c-0.6-0.1-1.3-0.3-1.7,0.5C6,11.9,5.9,12,5.8,11.9c-0.1,0-0.2-0.1-0.2-0.3
		c0-0.3-0.1-0.6,0.2-0.8C5.5,10.4,6,10.3,6.2,10C6.8,9.9,7.3,9.6,8,10.1c0.4,0.3,1,0.1,1.5,0.2c0.1,0.1,0.2,0.2,0.4,0.2
		c0.3-0.1,0.8-0.3,0.4,0.4c-0.1,0.2,0.2,0.3,0.4,0.3C11.4,11.1,11.5,11.2,11.5,11.9z"/>
	<path fill="#585858" d="M4.3,15.3c0.6-0.8,0.7-1.8,1.1-2.7c0.2-0.6,0.4-1.1,0.3-1.7c0,0,0.1,0,0.1,0c0,0.2,0,0.4,0,0.9
		C6.2,10.4,7.1,11,7.8,11c0.2,0.3-0.4,0.8-0.5,1c-0.5,1.3-0.7,1.8-1.4,3c-0.2,0.3-0.3,0.4-0.5,0.8c-0.5,0.9-0.8,0.7-1.1,0.7
		C4,16.4,4,16.3,4,16.1C4.1,15.8,4.2,15.5,4.3,15.3z"/>
	<path fill="#525252" d="M3.1,11.8c-0.1,0.4-0.2,0.7-0.4,1.1c-0.4,1.2,0.1,2.3,0.3,3.4c0,0.2,0.1,0.5,0.1,0.7c0,0.2,0.1,0.2,0.2,0.3
		c0.5,0.7,0.5,1-0.3,1.5c-0.3,0.1-0.5,0-0.6-0.3c0-0.4-0.1-0.8-0.1-1.2c-0.1-0.1,0-0.2,0.1-0.2c0.2-0.6,0.4-1.1-0.3-1.5
		C2,15.5,2,15.2,2.1,15c0.2-0.5-0.1-0.8-0.6-0.9c-0.1,0-0.2-0.1-0.3-0.3c-0.1-0.8,0.4-1.1,1-1.4c-0.1-0.1-0.5-0.1-0.3-0.4
		c0.1-0.2,0.2-0.5,0.5-0.4C2.6,11.7,3.1,11.2,3.1,11.8z"/>
	<path fill="#4D4D4D" d="M20,19.4c-0.3,0.2-0.5,0.4-0.4,0.7c-0.5,0.2-1,0-1.6,0c-0.3,0-0.5,0-0.8,0.1c-0.7,0-1.4-0.2-2.1,0.2
		c-0.2,0.1-0.8-0.2-0.8-0.5c0-0.2-0.2-0.4-0.3-0.6c0.6,0,0.8-0.6,1.4-0.7c0.3,0,0.4,0.1,0.5,0.5c0.1,0.3,0.3,0.2,0.5,0.2
		c0.6,0,1.1-0.1,1.7-0.1c0.6,0,1,0,1.5,0.1C19.7,19.4,20.1,19.2,20,19.4z"/>
	<path fill="#505050" d="M76.4,27.6c-0.9-0.2-1.5-0.6-1.6-1.6c0-0.2-0.1-0.4-0.3-0.5c0-0.6,0.1-1.2,0.1-1.8c0.1-0.2,0.3-0.3,0.5-0.3
		c0.2,0,0.5,0.1,0.5-0.2c0.1-0.3,0.3-0.7-0.1-0.9c-0.3-0.2-0.2-0.5,0-0.8c-0.3,0-0.7,0.1-0.7-0.3c-0.3-0.3-0.5-0.6-0.5-1
		c0-0.4-0.5-0.4-0.7-0.6c0.2,0.2,0.7,0.3,0.7,0.9c0,0.2,0.2,0.6,0.5,0.7c0,0.2,0.1,0.3,0.3,0.4c0.3,0.1,0.3,0.3,0.3,0.5
		c0,0.3,0,0.5,0.2,0.8c0.1,0.2,0.2,0.4-0.1,0.6c-0.2,0.1-0.7-0.1-0.8-0.2c-0.1-0.2-0.1-0.5-0.2-0.7c-0.2-0.3-0.2-0.6-0.4-0.9
		c-0.3-0.2-0.3-0.3-0.5-0.5c-0.3-0.6-0.8-1.1-1.2-1.5c-0.3-0.3-0.8-0.2-1.2,0C71,19.6,71,19.5,71,19.4c0-0.4,0-0.7-0.5-0.5
		c-0.2,0.1-0.6,0-0.5-0.4c0.4,0,0.7,0.1,1.2-0.5c0.4,0.1,0.4,0.7,0.9,0.7c0.7,0,1.2,0,2.1-0.1c0.5,0.2,1,1.6,1.5,0.1
		c0.9,0,0.6,0.2,0.3,0.9c-0.2,0.3,0,0.8,0.2,1.1c0.2,0.3,0.5,0.4,0.7,0.7c0.2,0.2,0.3,0.5,0.4,0.7c0,0.5-0.3,0.1-0.3,0.6
		c0,0.4-0.1,1.7,0,2.1c0,0.2,0.2,0.5-0.1,0.6c0,0-0.1,0-0.1,0c-0.2-0.1-0.4-0.2-0.6-0.2c-0.4-0.1-0.4-0.4-0.4-0.7c0.1-0.1,0.1,0,0,0
		c0,0,0,0,0,0c-0.1,0.2-0.2,0.4,0,0.6c0.1,0.1,0.2,0.3,0.1,0.4c-0.5,0.4-0.5,0.7,0,1.1c0.2,0.2,0.4,0.3,0.6,0.5
		c0.1,0.1,0.4,0,0.4,0.3C76.8,27.6,76.5,27.6,76.4,27.6z"/>
	<path fill="#4E4E4E" d="M62.3,21.8c-0.3-0.2-0.7-0.1-1-0.4c0-0.3,0.1-0.3,0.4-0.3c0.3,0,0.5,0.2,0.8,0l0,0c0.2-0.1,0.5-0.1,0.7-0.2
		c0.2-0.1,0.3-0.1,0.5,0c0.8,0.4,1.1,0.4,1.7-0.2c-0.2-0.1-0.1,0-0.1-0.2c0-0.1,0.2-0.4,0.2-0.5c0.1-0.5,0.3-0.6,0.6-1.1
		c0.3-0.3,0.5-0.6,0.8-0.9c0.1-0.2,0-0.6,0.3-0.6c0.8,0,0.7,0,0.6,0.7c-0.1,0.5-1.3,1.8-1,2.3c0.1-0.3,1,0.6,0.9-1.1
		c0.1,0.1,0.5-0.2,0.6-0.3c0.4-0.4,1-0.2,1.4-0.4c0.1-0.1,0.3-0.1,0.4-0.1c0.3,0.1,0.5,0.2,0.7,0c0.1-0.1,0.3,0,0.4,0.1
		c0.1,0.1,0,0.2-0.1,0.3c-0.2,0.3-0.3,0.6-0.3,1c-0.3,0.5-0.4,0.8-0.7,1.2c0,0-0.1,0.1-0.1,0.1c-0.5,0-0.9,0-0.9-1.3
		c-0.1-0.1-0.5,0.4-0.6,0.5c-0.6,0.4-1.2,0.5-1.9,0.8c-0.4,0.1-0.7,0.4-1.3,0.5c-0.2,0-0.5,0-0.7,0.1c-0.3-0.1-0.5,0.1-0.7,0
		C63.5,21.9,62.9,21.9,62.3,21.8z"/>
	<path fill="#5E5E5E" d="M74.8,21.2c0.1,0,0.2,0.1,0.3,0c0.3-0.3,0.7-0.3,0.9,0.1c0.3,0.4-0.3,0.4-0.4,0.7c0.1,0.2,0.6,0.2,0.4,0.5
		c-0.2,0.4-0.3,0.9-0.9,1c-0.2,0-0.5,0.1-0.7,0.2c-0.1-0.4-0.1-0.8-0.2-1.2c0.2,0.1,0.2,0.4,0.3,0.6c0.2,0.3,0.4,0.3,0.7,0.2
		C75,22.7,75,21.9,74.8,21.2L74.8,21.2z"/>
	<path fill="#444444" d="M70.8,20c-0.1-0.4,0.3-0.7,0.4-1.1c-0.4,0.1-0.5,0.4-0.6,0.6c-0.1,0.1-0.1,0.3-0.3,0.2
		c-0.1-0.1-0.2-0.2-0.1-0.4c0-0.1,0.2-0.2,0-0.3c-0.1-0.1-0.2,0-0.3,0.1c-0.1,0.2-0.3,0.3-0.5,0.2c-0.3-0.1-0.5,0-0.6,0.3
		c-0.1,0.3-0.3,0.4-0.5,0.3c-0.2,0-0.5-0.1-0.4-0.4c0-0.2,0.2-0.2,0.3-0.3c0.5-0.4,0.7-0.3,1.3-0.5c0.1-0.1,0.6-0.4,0.6-0.2
		c0.4,0.2,0.7,0,1.1,0.1c0.3,0,0.4,0.1,0.2,0.4c-0.1,0.2-0.2,0.5-0.3,0.7c0,0,0,0.1,0,0.1c0,0,0,0.1,0,0.1
		C71.1,20.1,70.9,20.1,70.8,20z"/>
	<path fill="#717171" d="M66.7,12.4c0.3-0.4,0.8-0.5,1.2-0.7c0.4-0.1,0.5,0,0.4,0.4c0,0.3-0.2,0.5-0.4,0.6c-0.5,0.7-0.8,1.6-1.5,2.2
		c-0.2-0.3-0.6-0.1-0.9-0.2c0.2-0.5,0.3-1,0.6-1.4C66.3,12.9,66.5,12.6,66.7,12.4z"/>
	<path fill="#636363" d="M61.6,17.3c0.1-0.2-0.6-0.3,0-0.5c0.3,0.3,0.9,0.4,0.6,1c-0.1,0.4-0.2,0.9-0.8,0.9
		c-0.1-0.1-0.2-0.2-0.2-0.2C61.3,18,61.2,17.6,61.6,17.3z"/>
	<path fill="#666666" d="M62.1,19.4c-0.2,0.2-0.3,0.5-0.3,0.8c0,0.1,0,0.3-0.2,0.2c-0.1,0-0.1-0.1-0.2-0.2c0-0.1,0-0.2,0-0.3
		c0-0.3,0.3-0.6-0.2-0.7c0-0.1,0.1-0.1,0.1-0.2C61.7,19.1,62.1,18.9,62.1,19.4z"/>
	<path fill="#505050" d="M71.5,17.5c0.2-0.2,0.3-0.4,0.5-0.6c0.1,0,0.4,0,0.2,0.2c-0.2,0.3-0.3,0.6-0.3,1
		C71.5,18,71.6,17.7,71.5,17.5z"/>
	<path fill="#646464" d="M92.2,19.8c-0.3,0.2-0.4,0.6-0.8,0.7c0,0-0.1-0.1-0.1-0.1c0-0.2,0.1-0.4-0.1-0.5c-0.3-0.1-0.3,0.2-0.4,0.3
		c-0.2,0.3-0.2,0.7-0.7,0.6c0.2-0.4-0.3-0.9-0.3-1.4c0-0.7,0.1-1,0.7-1.6c0.4-0.4,1-1.2,0.9-1.5c-0.1-0.3-0.1,0,0.2-0.4
		c-0.1,0.1-0.3,0.2-0.4,0.2c0-0.5-0.2-0.7-0.3-1.1c0-0.1-0.3-0.1-0.3-0.2c0.2-0.2-0.1-0.8,0.5-0.8c-0.2,0-0.5,0-0.7,0.1
		c-0.1,0,0.2-0.2,0.2-0.3c-0.2-0.3-0.5-0.5-0.3-0.8c0.1-0.2,0.4-0.1,0.1-0.6c-0.2-0.3-0.3-0.5-0.5-0.3c-0.3-0.5-0.4-0.6-0.8-0.7
		c0.2-0.6,0.3-0.7,0.9-0.6c0.2,0,0.4,0,0.6,0.1c0.2,0.1,0.4,0.2,0.5,0.4c0.2,0.1,0.3,0.3,0.5,0.5c0,0,0,0,0,0
		c0.1,0.6,0.5,1.1,0.8,1.6c0.2,0.3,0.3,0.6,0.3,1c0,0.3,0.1,0.8,0.2,1c0.3,0.6,0.6,1,0.3,1.8c-0.2,0.5-0.3,1.1-0.4,1.6
		C92.5,19.1,92.4,19.4,92.2,19.8z"/>
	<path fill="#696969" d="M80.1,14.3c0.1-0.1-0.5,0.6-0.7,1c-0.7,0.5-0.7,0.5-1.1-0.4c0-0.1,0.1-0.1,0.2-0.2c0.3-0.4,0.6-0.7,0-0.8
		c-0.2-0.1-0.4,0.1-0.9-0.1l0,0c0.5,0,1-0.1,1.4,0.3c0.1,0.1,0.2,0.1,0.3,0C79.7,13.8,79.9,13.9,80.1,14.3z"/>
	<path fill="#585858" d="M69.5,16.3c-0.3,0.4-0.6,0.7-0.9,1.1c-0.3,0.4-0.4,1-0.9,1.2c0.1-0.4,0-0.8-0.5-0.8
		c0.4-0.7,0.8-1.4,1.4-1.9c0.1-0.1,0.2-0.2,0.3-0.4C69.1,15.8,69.1,16.2,69.5,16.3z"/>
	<path fill="#545454" d="M89.1,11.4c-0.1,0-0.3,0-0.4-0.1C88.2,11,87.6,11,87,11c1.1-0.3,2.3-0.8,3.5-0.1
		C89.9,10.9,89.4,10.9,89.1,11.4z"/>
	<path fill="#505050" d="M91.4,11.7c-0.3,0-0.5-0.2-0.5-0.5C91.4,11.1,91.4,11.4,91.4,11.7z"/>
	<path fill="#454545" d="M62.5,21.2c-0.3,0.4-0.8,0.2-1.2,0.2c-0.7-0.3-1-1-0.7-1.7c0.3-0.2,0.6-0.4,0.6,0.2
		c0.1,0.7,0.2,0.8,0.9,0.6c0.2,0,0.4,0,0.3,0.3C62.4,21.1,62.3,21.2,62.5,21.2z"/>
	<path fill="#5C5C5C" d="M64.3,20.9c0.2,0,0.4,0,0.5,0.1c0.4,0.1,0.5,0,0.5-0.4c0.2,0.2,0.5,0.2,0.7,0.4c-1.1,0.9-2.4,0.5-3.6,0.3
		c0.4-0.5,0.9-0.7,1.4-0.2c0.2,0.2,0.4,0.2,0.7,0.1C64.6,21,64.4,21,64.3,20.9z"/>
	<path fill="#595959" d="M61.6,17.3c0.1,0.5-0.3,0.8-0.4,1.2c-0.3-0.3,0-0.7-0.1-1.1C61.3,17.3,61.5,17.3,61.6,17.3z"/>
	<path fill="#6B6B6B" d="M81.9,15.1c-0.2,0.4-0.6,0.7-0.7,1.2c-0.5-0.2-0.4,0.4-0.7,0.5c-0.2,0-0.5,0-0.6-0.2c0.2-0.6,0.5-1,0.9-1.5
		c0.2,0.6,0.3,0.7,0.8,0.3C81.6,15.3,81.8,15.2,81.9,15.1z"/>
	<path fill="#4B4B4B" d="M82,19c0.4-0.2,0.9-0.5,1.3-0.5c0.6-0.3,0.7-0.1,1.1,0.5c0.1,0.2,0.3,0.2,0.5,0.3c0.5,0.5,1.2,0.7,1.6,1.3
		c-0.5,0.1-1.2,0.2-1.4-0.6c0-0.2-0.2-0.1-0.3,0c-0.1,0.1-0.2,0.2-0.3,0.2c-0.1,0-0.2,0-0.3-0.1c-0.1-0.3-0.3-0.3-0.5,0
		c-0.1,0.1-0.2,0.3-0.3,0.4c-0.2,0.3-0.4,0.2-0.6-0.2c-0.1-0.2-0.6-0.7-0.8-0.8c-0.4,0.2-0.4,1-0.4,1.3c0,0.5-0.2,0.9-0.5,1.3
		c-0.5,0.7-0.4,1.6-0.6,2.4c0,0,0-0.1,0-0.1c0-0.2,0.1-0.6-0.2-0.6c-0.3-0.1-0.4,0.3-0.5,0.5c-0.4,0-0.1-0.3-0.3-0.7
		c0-0.1-0.2-0.2-0.1-0.4c0.1-0.5,0.3-0.6,0.4-1.1c0-0.1,0.1-0.4,0.1-0.4c0.2-0.5,0.6-0.9,0.6-1.4c-0.1-0.4,0-0.6,0.5-1.1
		C81.5,19.1,81.7,19,82,19z"/>
	<path fill="#606060" d="M84.6,20c0.1,0,0.2,0,0.4,0c0.1,0.4,0.4,0.7,0.2,1.1c-0.3,0.1-0.5-0.5-0.9-0.1c-0.1,0.1-0.1-0.4-0.3-0.5
		c-0.2,0.2-0.1,0.4-0.1,0.5c-0.4-0.2-0.8-0.2-0.9,0.3c-0.1,0.3-0.3,0.3-0.5,0.5c-0.7-0.3-0.3-0.1-0.2-0.6c0.1-0.6,0.1-1,0.4-1.5
		c0.2-0.1,0.5,0.1,0.5,0.4c0,0.1-0.1,0.3,0.1,0.3c0.1,0,0.2-0.1,0.2-0.2c0.1-0.1,0.2-0.3,0.3-0.5c0.1-0.2,0.1-0.4,0.4-0.4
		c0.3,0,0.3,0.3,0.3,0.5C84.4,20,84.4,20.1,84.6,20z"/>
	<path fill="#636363" d="M75.8,25.5c-0.6-0.1-0.7-0.6-0.7-1c0-0.7,0.8-0.2,1.2-0.6c-0.3,0.4-0.2,0.8-0.1,1.2
		C76.3,25.5,76.2,25.7,75.8,25.5z"/>
	<path fill="#595959" d="M26.7,15.5C26.8,15.5,26.8,15.5,26.7,15.5c0.5,0,0.9-0.2,1.2,0.1c0,0,0,0,0,0c-0.4,0.4-0.6,0.8-0.8,1.2
		c-0.1,0.1-0.1,0.3-0.2,0.4c0,0.4-0.4,0.8-0.6,1.1c-0.5,0.6-1.3,1.5-0.6,2c-0.5,0.1-1,0.1-1.5,0c0-0.2,0-0.2,0.1-0.5
		c0.7-0.9,0.2-1.2,1.3-2.8C26,16.6,26.5,16.2,26.7,15.5z"/>
	<path fill="#505050" d="M24.1,20c0.1,0.1,0.4,0.2,0.1,0.5c-0.3,0.4-0.2,0.6,0.3,0.6c0.2,0,0.4,0,0.5,0.1c-0.4,0.5-0.4,0.5-0.9,0.3
		c-0.6-0.3-1.2-0.8-2-0.8c-0.1,0-0.2-0.1-0.2-0.3c0.3-0.2,0.5-0.6,1-0.3c-0.4-0.3-0.7,0-1,0.3c-0.2-0.2-0.3-0.4-0.4-0.6
		c-0.1-0.2-0.3-0.4-0.5-0.2c-0.4,0.2-0.6,0-0.9-0.1c0,0,0,0,0,0c0-0.1,0-0.2,0.1-0.2c0.4,0.1,0.5-0.2,0.6-0.4
		c0.3-0.2,0.6-0.3,0.9-0.1c0.2,0.1,0.3,0.1,0.5,0c0.4-0.1,0.6,0.4,0.9,0.6C23.8,19.5,23.7,19.5,24.1,20z"/>
	<path fill="#6A6A6A" d="M15.8,18.9c-0.6,0.2-1.2,0.3-1.8,0.5c0,0-0.1,0-0.1,0c0.6-0.1,0.9-0.5,1.2-1c0.4-0.2,0.9,0.2,1.4-0.2
		c0,0.2-0.3,0.3-0.4,0.5C16,18.7,16.1,19,15.8,18.9z"/>
	<path fill="#4C4C4C" d="M13.2,20c0.3,0,0.5-0.2,1,0C13.8,20.2,13.5,20.3,13.2,20L13.2,20z"/>
	<path fill="#585858" d="M9.2,11.2c0.3,0.1,0.6,0.3,0.7,0.6c0.1,0.4,0.3,0.4,0.7,0.2c-0.2,0.6-0.2,0.9,0.5,0.8
		c0.1,0.1,0.2,0.2,0.4,0.4c-0.7-0.2-1.1,0.1-1.3,0.6c-0.4,0.7-0.8,1.4-1.3,2c-0.2,0.1-0.3,0-0.3-0.1c0,0,0-0.1,0-0.2c0,0,0,0,0,0
		c0,0,0,0.1-0.1,0.1c-0.3,0.5-0.6,0.9-0.9,1.4c-0.2,0.2-0.3,0.5-0.6,0.3c-0.3-0.2-0.2-0.5-0.1-0.7c0-0.2,0.2-0.3,0.2-0.4
		c0.8-0.3,0.5-0.8,0.8-1.2c0.5-0.5,0.5-0.7,0.9-1.3c0.3-1,1.1-1.3,0.9-1.9c0-0.1-0.5-0.1-0.5-0.2C9.1,11.5,9.1,11.3,9.2,11.2z"/>
	<path fill="#5F5F5F" d="M7.2,16.3c-0.1,0.3-0.2,0.5-0.3,0.8c0.9-0.6,0.9-1.9,2-2.4c-0.1,0.4-0.5,0.7-0.2,1.1
		c-0.5,0.8-1.2,1.5-1.6,2.4c0-0.2,0-0.4-0.1-0.5c-0.3,0.3-0.4,1.1-1.1,0.9c-0.1-0.1-0.1-0.1,0-0.2C6.4,17.9,6.6,17,7,16.2
		C7.1,16.2,7.1,16.2,7.2,16.3z"/>
	<path fill="#505050" d="M2.5,18.5c0.2,0,0.4,0.1,0.6,0.1c0.3,0.1,0.3,0.3,0.2,0.6c0,0-0.1,0-0.1,0.1c-0.2,0.3-0.2,0.5-0.1,0.8
		c0.1,0.3-0.1,0.5-0.4,0.6c-0.1-0.1-0.2-0.2-0.2-0.3C2.5,20,2.3,20,2,20.1c-0.1,0.1-0.3,0.2-0.4,0.1c-0.1-0.2,0-0.4,0.2-0.5
		C2.2,19.4,2.4,19,2.5,18.5z"/>
	<path fill="#727272" d="M2.5,17.1c0,0.1-0.1,0.2-0.1,0.2c-0.1,0-0.2,0-0.3,0.1c-0.6,0.1-0.7,0-0.7-0.6c0-0.1,0-0.2,0-0.4
		c0-0.1-0.4-0.3,0-0.4C1.7,16,2,16.3,1.9,16.4C1.8,17,2.3,16.9,2.5,17.1z"/>
	<path fill="#6A6A6A" d="M17,17.2c-0.2,0.3-0.4,0.6-0.6,1c-0.1-0.2-0.2-0.3-0.3-0.5c-0.1-0.3,0-0.5,0.2-0.7
		C16.7,16.8,16.8,17,17,17.2z"/>
	<path fill="#4A4A4A" d="M17.6,13.5c-0.4,0.2-0.8,0.2-1.2,0.2c-0.1-0.3-0.1-0.5,0.3-0.4C17,13.4,17.3,13.5,17.6,13.5z"/>
	<path fill="#606060" d="M27.1,16.9c0-0.3,0.2-0.5,0-0.8c-0.2-0.2,0-0.3,0.2-0.3c0.3,0.1,0.5-0.1,0.7-0.2
		C27.7,16.1,27.4,16.5,27.1,16.9z"/>
	<path fill="#717171" d="M27.2,14.8c0.4-1,1.5-2.3,2.2-3c0.2,0.2,0,0.4,0.3,0.4c0.1,0,0.1,0.1,0.1,0.1c-0.3,0.5-0.6,1-1.1,1.3
		c-0.1,0.1-0.2,0.2-0.2,0.2c0,0.5-0.3,0.4-0.6,0.3c0,0.2,0.3,0.5-0.2,0.5C27.6,14.7,27.4,14.8,27.2,14.8z"/>
	<path fill="#707070" d="M30.5,11.5c0-0.1-0.1-0.2-0.3-0.3C30,11.1,30,10.9,30,10.8c0.1-0.1,0.2-0.2,0.3-0.2c0.2,0,0.3,0.1,0.3,0.3
		c0.1,0.2,0.3,0.5,0.3,0.6c0.1,0.4-0.3,0.5-0.6,0.5C30.2,11.7,30.4,11.6,30.5,11.5z"/>
	<path fill="#4F4F4F" d="M30.5,11.5c0.1,0.2,0,0.3-0.1,0.5c-0.2,0.2-0.3,0.3-0.5,0.5c0,0-0.1-0.1-0.1-0.1
		C29.8,11.9,30,11.6,30.5,11.5z"/>
	<path fill="#5C5C5C" d="M23.4,16.9c0,0.3-0.4,0.5-0.5,0.8c-0.3,0.3-0.1,0.3-0.3,0.6c-0.3,0.2-0.4,0.6-0.9,0.4
		c-0.4-0.2-0.5-0.4-0.4-0.7c0.5-0.7,0.8-1.4,1.2-2.2c0,0,0.1,0,0.1,0c0.2,0,0.2-0.1,0.3-0.2c0.1-0.1,0.3-0.4,0.5-0.2
		c0.2,0.2,0.2,0.4,0.1,0.6c-0.1,0.2-0.2,0.4-0.3,0.6C23.3,16.6,23.3,16.8,23.4,16.9z"/>
	<path fill="#525252" d="M23.4,16.9c-0.6-0.4,0-0.9,0.1-1.2c-0.3-0.2-0.5,0.5-0.8,0.1c0.3-0.4,0.4-0.9,0.8-1.2
		c0.5-0.2,0.8,0.1,1.2,0.4c0,0.1,0,0.3,0,0.4C24.3,15.9,23.8,16.3,23.4,16.9z"/>
	<path fill="#5C5C5C" d="M24.6,14.9c-0.4-0.2-0.5,0-0.6,0.3c0,0.1-0.1,0.3-0.3,0.2c-0.2-0.1-0.3-0.3-0.1-0.4
		c0.3-0.3,0.1-0.4-0.2-0.4c0.1-0.4,0.4-0.6,0.6-0.8c0-0.1,0.1-0.2,0.2-0.2c0.1-0.1,0.2-0.3,0.3-0.4c0.2,0,0.3-0.2,0.6-0.1
		C24.8,13.7,23.6,14.1,24.6,14.9z"/>
	<path fill="#646464" d="M5,16.3c-0.1,0.2-0.2,0.4-0.3,0.6c-0.5,0-0.6,0.5-0.8,0.8c-0.1,0.1,0,0.2,0.1,0.3c-0.4,0.3-0.5,0.9-0.8,1.3
		c0-0.2-0.1-0.4-0.1-0.6c0.4-0.4,0.3-0.8,0.1-1.2C3.1,17.3,3,17.1,3.1,17c0.5-0.2,0.6-0.7,0.9-1.1c0.1-0.2,0.1-0.4,0.3-0.6
		c0,0.3-0.1,0.5-0.1,0.8c0.2,0,0.4-0.5,0.5,0C4.7,16.4,4.9,16.3,5,16.3z"/>
	<path fill="#6C6C6C" d="M21.3,17.9c0,0.1,0.1,0.3,0.2,0.3c0.3-0.1,0.4-0.1,0.6,0.2c0.1,0.2,0.3-0.2,0.4-0.2
		c0.1,0.3-0.5,0.6,0.3,0.8c0.1,0.1,0.4,0.2,0.4,0.3c-0.3-0.1-0.5-0.3-0.9-0.2c-0.4,0.1-0.9,0.4-1.1-0.2c0,0-0.2,0-0.3,0
		c0,0,0-0.1,0-0.1C21.2,18.5,21.1,18.1,21.3,17.9z"/>
	<path fill="#606060" d="M16.8,19.7c0,0.2-0.2,0.2-0.3,0.2c-0.1,0-0.2,0-0.2-0.1c0-0.1,0.2-0.2,0.3-0.2
		C16.7,19.5,16.8,19.6,16.8,19.7z"/>
	<path fill="#585858" d="M77.6,21.7c-0.1,0.1-0.2,0.3-0.3,0.4c-0.2-0.2-0.5-0.3-0.6-0.7c0.3,0,0.4-0.3,0.5-0.5
		c0.6-1.2,1.3-2.3,2-3.5c0.2-0.3,0.2-0.7,0.6-0.9c0.2-0.3,0.4-0.2,0.6,0c0.2-0.1,0.3-0.2,0.5,0c-0.1,0.2-0.2,0.3-0.3,0.5
		c0,0.2-0.1,0.2-0.3,0.3c-0.3,0.3-0.4,0.4-0.5,0.8c-0.1,0.2-0.2,0.4-0.4,0.6c-0.1,0.1-0.5,0.5-0.6,0.6
		C78.4,20.1,78.3,20.8,77.6,21.7z"/>
	<path fill="#5E5E5E" d="M74.8,21.2c-0.4-0.1-0.6-0.4-0.7-0.6c-0.2-0.4-0.6-0.6-0.9-0.9c-0.2-0.1-0.3-0.3-0.3-0.5
		c0-0.1,0.1-0.2,0.2-0.1c0.2,0.2,0.6-0.1,0.7,0.2c0.1,0.2,0.2,0.2,0.3,0.3c0.4,0.1,0.7,0.3,0.5,0.8c0,0.1-0.1,0.3,0.2,0.4
		C75,20.9,74.9,21.1,74.8,21.2C74.8,21.2,74.8,21.2,74.8,21.2z"/>
	<path fill="#717171" d="M77.1,17.9c-0.2,0.7-0.7,1.2-1.1,1.7c-0.1-0.3,0.4-0.8-0.4-0.7c0.2-0.4,0.5-0.7,0.7-1.1
		c0.1-0.2,0.1-0.3,0.2-0.5c0.1-0.2,0.2-0.3,0.4-0.3C77.4,17.2,76.9,17.6,77.1,17.9z"/>
	<path fill="#636363" d="M69.3,19.5c0.5,0.2,0.7,0.5,0.8,0.8c0.1,0.1,0.1,0.3,0,0.4c-0.1,0.1-0.2,0.1-0.3,0.1
		c-0.2-0.1-0.2-0.2-0.2-0.3C69.6,20.2,69.5,19.9,69.3,19.5z"/>
	<path fill="#636363" d="M70.1,21.4c-0.7,0.1-0.9-0.1-0.8-0.7c0-0.2,0-0.3,0.1-0.5c0,0.1,0.1,0.2,0.1,0.3
		C69.2,21.1,69.6,21.3,70.1,21.4z"/>
	<path fill="#606060" d="M90.8,15.1c-0.4,0-0.7,0.2-0.9,0.5c-0.7,1-1.3,2-1.8,3.1c-0.2,0.3-0.4,0.7-0.8,0.5c-0.4-0.2-0.3-0.7-0.1-1
		c0.6-1.5,1.5-2.8,2.7-3.9c0.1-0.1,0.3-0.3,0.4-0.4c0,0,0,0,0,0c0.5,0.1,0.3,0.6,0.5,0.8C90.8,14.9,90.8,15,90.8,15.1z"/>
	<path fill="#575757" d="M90.1,13.1c-0.1-0.3-0.2-0.6-0.3-1c0.1-0.3,0-0.5,0-0.9c0.4,0.1,0.6,0.3,0.7,0.6c0.1,0.3,0.3,0.6,0.4,0.9
		c0.1,0.1,0.3,0.2,0.2,0.4c-0.1,0.2-0.3,0.1-0.5,0.1C90.3,13.2,90.2,13.1,90.1,13.1z"/>
	<path fill="#515151" d="M90.8,14.8c-0.3-0.2-0.3-0.6-0.5-0.8c0.3-0.3,0.8-0.2,1.1-0.6c0.1-0.1,0.2,0,0.3,0.1
		c0.1,0.1,0.1,0.3-0.1,0.4C91.3,14,91,14.4,90.8,14.8z"/>
	<path fill="#505050" d="M92.1,16.8c0.2,0.7-0.5,0.9-0.7,1.4c-0.3-0.5-0.2-0.8,0.2-1.1c0.2,0.1,0.2-0.1,0.2-0.2
		C91.9,16.7,92,16.7,92.1,16.8z"/>
	<path fill="#535353" d="M92.1,16.8c-0.2,0.1-0.2,0.3-0.5,0.2c0.1-0.4-0.2-0.6-0.4-1c0,0,0,0,0,0c0-0.4,0.4-0.5,0.6-1.1
		C92,15.7,91.4,16.4,92.1,16.8z"/>
	<path fill="#818181" d="M92.7,17.3c-0.2-0.3-0.5-0.4-0.3-0.8c0.1-0.1,0.3-0.2,0.4-0.1C93,16.7,92.8,16.9,92.7,17.3z"/>
	<path fill="#5A5A5A" d="M76.9,17c0.5-0.7,0.9-1.5,1.5-2.1c0.3,0,0.3,0.3,0.5,0.5c0.1-0.3,0.3-0.6,0.5-0.1c-0.6,1-1.3,2-2.3,2.6
		C76.5,17.7,76.8,17.3,76.9,17z"/>
	<path fill="#6F6F6F" d="M86.1,14.5c0.4-0.2,0.4-0.7,0.7-0.9c0.4-0.4,0.7-0.8,1-1.2c0.2-0.3,0.4-0.2,0.6-0.2c0.2,0,0.4,0.2,0.2,0.4
		c-0.6,1.3-1.4,2.5-2.4,3.6c-0.3-0.1-0.4,0.2-0.6,0.3c-0.2,0-0.3,0.1-0.4-0.1c-0.1-0.1,0-0.2,0.1-0.4c0.2-0.3,0.5-0.5,0.4-0.9
		C86,15,85.8,14.6,86.1,14.5z"/>
	<path fill="#5E5E5E" d="M84.9,19.3c-0.6-0.1-1-0.6-1.6-0.6c0.6-0.5,0.7-1.2,1.2-1.7c0.2-0.2,0.3-0.4,0.5-0.6
		c0.3-0.1,0.5-0.1,0.8,0.1c-0.1,0.7-0.6,1.2-1,1.8C84.6,18.8,84.5,19,84.9,19.3z"/>
	<path fill="#606060" d="M85.8,16.6c-0.3,0-0.5-0.1-0.8-0.1c-0.1-0.3,0.1-0.4,0.2-0.6c0.1-0.3,0.2-0.5,0.6-0.6
		c0.1,0.1,0.2,0.2,0.4,0.4c-0.4,0.2-0.7,0.2-0.8,0.6c0.3,0.2,0.5-0.2,0.8,0C86.1,16.3,85.9,16.4,85.8,16.6z"/>
	<path fill="#5D5D5D" d="M81,16.6c-0.2,0-0.3,0-0.5,0c0.1-0.1,0.2-0.3,0.2-0.4c0.1-0.1,0.2-0.2,0.3-0.2c0.2,0,0.1,0.2,0.2,0.3
		C81.1,16.4,81,16.5,81,16.6z"/>
	<path fill="#8A8A8A" d="M84.6,20c0,0.1,0.1,0.3-0.1,0.3c-0.2,0-0.3-0.1-0.3-0.3c0-0.2,0.2-0.1,0.4-0.1C84.5,20,84.5,20,84.6,20z"/>
	<path fill="#606060" d="M26.6,17.3c-0.3,0.1-0.3,0.4-0.5,0.6c-0.1,0.1-0.2,0.1-0.2,0c-0.1-0.2,0.1-0.4,0.2-0.5
		c0.1-0.2,0.2-0.3,0.4-0.3C26.5,17.1,26.6,17.2,26.6,17.3z"/>
	<path fill="#616161" d="M22.1,20.3c0.4-0.8,0.8-0.8,1.3-0.2c0.1,0.1,0.2,0.2,0.1,0.3c-0.1,0.1-0.3,0.1-0.3,0.1
		C22.8,20,22.4,20.3,22.1,20.3C22.1,20.3,22.1,20.3,22.1,20.3z"/>
	<path fill="#585858" d="M4.1,17.9c-0.4-0.1-0.5-0.5-0.5-0.8c0-0.2,0.1-0.4,0.3-0.4c0.2,0,0,0.3,0.1,0.4c0.3-0.1,0.4-0.7,0.8-0.2
		C4.5,17.2,4.3,17.6,4.1,17.9z"/>
	<g>
		<g>
			<path fill="#4F4F4F" d="M81.1,14.2c0,0.1,0,0.3,0,0.4c0,0,0,0,0,0c0,0,0.1,0,0.1,0c0,0,0.1,0,0.1,0c0,0,0.1,0,0.1,0
				c0.1,0,0.2-0.1,0.2-0.1c0,0,0.1-0.1,0.1-0.1c0-0.1,0-0.2,0-0.3c0,0,0,0,0,0c0,0,0-0.1,0-0.1c0,0,0,0,0,0c0,0,0,0-0.1,0
				c0,0-0.1,0-0.1,0c0,0-0.1,0-0.1,0c-0.1,0-0.2,0-0.3,0.1C81.2,14.1,81.2,14.1,81.1,14.2C81.1,14.2,81.1,14.2,81.1,14.2L81.1,14.2z
				"/>
		</g>
	</g>
	<g>
		<g>
			<path fill="#4F4F4F" d="M80.7,16.1c0,0.2-0.1,0.3-0.1,0.5c0,0,0,0,0,0c0,0-0.1,0.1-0.1,0.1c0,0,0,0,0,0c0,0,0,0,0,0c0,0,0,0,0,0
				c0,0,0.1,0,0,0c0,0,0,0,0,0c0,0,0.1,0,0.1,0c0,0,0,0,0,0c0,0,0,0,0,0c0,0,0.1,0,0,0c0,0,0,0,0,0c-0.1,0-0.2,0.1-0.2,0.1
				c0,0-0.1,0.1-0.1,0.1c0,0.1,0.1,0.1,0.1,0.1c0.1,0,0.2,0,0.3,0c0.1,0,0.3-0.1,0.4-0.2c0.1-0.1,0.1-0.1,0.2-0.2
				c0.1-0.1,0.1-0.3,0.1-0.5c0,0,0,0,0-0.1c0,0,0,0-0.1,0c-0.1,0-0.2,0-0.2,0c-0.1,0-0.2,0-0.3,0.1C80.8,16,80.8,16,80.7,16.1
				C80.7,16,80.7,16.1,80.7,16.1L80.7,16.1z"/>
		</g>
	</g>
	<g>
		<g>
			<path fill="#4F4F4F" d="M78.6,15.5c0,0.1,0,0.3,0,0.4c0,0,0,0,0,0c0,0,0,0,0,0c0,0,0,0,0,0c0,0,0,0,0.1,0c0,0,0.1,0,0.1,0
				c0,0,0.1,0,0.1,0c0.1,0,0.2,0,0.3-0.1c0,0,0,0,0.1,0c0,0,0.1,0,0.1-0.1c0-0.2,0.1-0.3,0-0.5c0,0-0.1,0-0.1,0c-0.1,0-0.2,0-0.3,0
				C78.8,15.3,78.7,15.3,78.6,15.5C78.6,15.4,78.5,15.4,78.6,15.5L78.6,15.5z"/>
		</g>
	</g>
	<g>
		<g>
			<path fill="#4F4F4F" d="M76.1,13.7c0.1,0.1,0.3,0.2,0.4,0.2c0.1,0,0.2,0,0.3,0c0.1,0,0.2-0.1,0.2-0.1c0.1,0,0.2-0.1,0.2-0.1
				c0,0,0-0.1,0-0.1c-0.1,0-0.1-0.1-0.2-0.1c-0.1,0-0.2,0-0.3,0.1c0,0-0.1,0-0.1,0c0,0,0.1,0,0.1,0c0,0,0,0-0.1,0c0,0,0.1,0,0.1,0
				c0,0,0,0-0.1,0c0,0,0.1,0,0.1,0c0,0,0,0,0,0c0,0,0.1,0,0.1,0c0,0,0,0-0.1,0c0,0,0,0,0.1,0c0,0-0.1,0-0.1,0c0,0,0,0,0,0
				c0,0,0,0-0.1,0c0,0-0.1-0.1-0.2-0.1c0,0-0.1,0-0.1,0c0,0-0.1,0-0.1,0c0,0-0.1,0-0.1,0c0,0-0.1,0.1-0.1,0.1
				C76.1,13.6,76.1,13.6,76.1,13.7L76.1,13.7z"/>
		</g>
	</g>
	<g>
		<g>
			<path fill="#4F4F4F" d="M84.6,12.4c0,0.1,0,0.1,0,0.2c0,0,0,0,0,0c0,0.1,0,0.1-0.1,0.2c0,0,0,0,0,0c0,0,0,0.1-0.1,0.1
				c0,0,0,0,0,0c0,0,0,0-0.1,0c0,0,0,0,0.1,0c0,0,0,0-0.1,0c0.1,0,0.1,0,0.1,0c0,0,0,0,0,0c0,0,0,0,0,0c0.1,0,0.1,0,0.1,0
				c0,0,0,0,0,0c0,0,0,0,0,0c0,0,0.1,0,0,0c0,0,0,0,0,0c0,0,0.1,0,0.1,0c0,0,0,0,0,0c0,0,0.1,0,0.1,0c0,0,0,0-0.1,0c0,0,0,0,0.1,0
				c0,0-0.1,0-0.1,0c0,0,0,0,0,0c0,0,0,0,0,0c-0.1,0-0.1,0-0.2,0c-0.1,0-0.2,0-0.3,0.1c-0.1,0-0.2,0.1-0.2,0.1c0,0-0.1,0.1,0,0.1
				c0.2,0.1,0.3,0.1,0.5,0.1c0.2,0,0.4-0.1,0.6-0.2c0.2-0.1,0.3-0.4,0.2-0.6c0-0.1-0.1-0.1-0.1-0.1c-0.1,0-0.2,0-0.3,0
				c-0.1,0-0.2,0.1-0.2,0.1C84.7,12.3,84.6,12.3,84.6,12.4L84.6,12.4z"/>
		</g>
	</g>
	<g>
		<g>
			<path fill="#4F4F4F" d="M85.6,11.5C85.6,11.5,85.6,11.5,85.6,11.5C85.6,11.5,85.6,11.5,85.6,11.5c-0.1,0-0.1,0.1-0.2,0.1
				c-0.1,0-0.1,0.1-0.2,0.1c-0.1,0.1-0.2,0.2-0.2,0.3c0,0,0,0,0,0c0,0,0,0,0.1,0c0,0,0.1,0,0.1,0c0,0,0.1,0,0.1,0
				c0.1,0,0.2,0,0.3-0.1c0,0,0,0,0.1,0c0,0,0.1,0,0.1-0.1c0-0.1,0.1-0.1,0.1-0.2c0,0,0,0,0,0c0,0,0.1-0.1,0.1-0.1c0,0,0,0-0.1,0
				c0.1,0,0.1-0.1,0.2-0.1c0.1,0,0.1-0.1,0.2-0.1c0,0,0.1-0.1,0-0.1c0,0,0,0-0.1,0c0,0-0.1,0-0.1,0c-0.1,0-0.2,0-0.3,0.1
				C85.8,11.4,85.7,11.4,85.6,11.5L85.6,11.5z"/>
		</g>
	</g>
	<g>
		<g>
			<path fill="#4F4F4F" d="M81.9,13C81.9,13,81.9,13,81.9,13C81.9,13,82,13,81.9,13C82,13,81.9,13,81.9,13C81.9,13,82,13,81.9,13
				C82,13,81.9,13,81.9,13C81.9,13,81.9,13,81.9,13C81.9,13,81.9,13,81.9,13C81.8,13,81.9,13,81.9,13c-0.1,0-0.2,0-0.2-0.1
				c0,0-0.1,0-0.1,0c0,0-0.1,0-0.1,0c-0.1,0-0.2,0-0.3,0.1c0,0,0,0-0.1,0c0,0-0.1,0.1-0.1,0.1c0,0,0,0,0,0c0,0,0,0.1,0.1,0.1
				c0.1,0.1,0.2,0.1,0.3,0.1c0.1,0,0.1,0,0.2,0c0.1,0,0.2,0,0.3,0c0,0,0.1,0,0.1-0.1c0,0,0.1,0,0.1-0.1c0,0,0.1-0.1,0.1-0.1
				c0-0.1-0.1-0.1-0.1-0.1C82.1,13,82,13,81.9,13L81.9,13z"/>
		</g>
	</g>
	<g>
		<g>
			<path fill="#4F4F4F" d="M88.1,12.1C88.1,12.1,88,12.2,88.1,12.1C88,12.2,88,12.2,88,12.2c0,0,0,0,0,0.1c0,0,0,0.1,0,0.1
				c0,0,0,0,0,0.1c0,0,0.1,0,0.1,0c0,0,0.1,0,0.1,0c0,0,0.1,0,0.1,0c0,0,0.1,0,0.1,0c0.1,0,0.1,0,0.1-0.1c0,0,0,0,0,0
				c0,0,0-0.1,0-0.1c0,0,0,0,0,0c0,0,0,0,0,0c0,0,0-0.1,0-0.1c0,0,0,0,0,0c0,0,0,0,0,0c0,0,0,0,0,0c0,0,0,0,0,0c0,0,0,0,0.1-0.1
				c0,0,0,0,0-0.1c0,0,0,0,0-0.1c0,0-0.1,0-0.1,0c0,0-0.1,0-0.1,0c-0.1,0-0.1,0-0.2,0c0,0-0.1,0-0.1,0
				C88.2,12.1,88.1,12.1,88.1,12.1L88.1,12.1z"/>
		</g>
	</g>
	<g>
		<g>
			<path fill="#4F4F4F" d="M70.7,11.8c0,0.1,0.1,0.1,0.1,0.2c0,0.1,0.1,0.1,0.2,0.1c0.1,0.1,0.3,0.2,0.5,0.2c0.1,0,0.1,0,0.2,0
				c0.1,0,0.3-0.1,0.4-0.1c0.1,0,0.1-0.1,0.1-0.2c0,0,0-0.1-0.1-0.1c-0.1-0.1-0.3-0.2-0.4-0.2c-0.2-0.1-0.4-0.1-0.6-0.2
				c-0.1,0-0.2,0-0.2,0c-0.1,0-0.2,0-0.3,0.1c-0.1,0-0.1,0.1-0.1,0.1c0,0.1,0,0.1,0.1,0.1c0.1,0.1,0.3,0.1,0.4,0.2
				c0.1,0,0.2,0.1,0.4,0.2c0,0,0,0,0,0c0.1,0,0.1,0.1,0.2,0.1c0,0,0,0,0,0c0,0,0,0,0,0c0,0,0,0,0,0c0,0,0,0,0,0c0,0,0,0,0,0
				c0,0,0,0,0,0c0,0,0.1-0.1,0.1-0.1c0,0,0,0,0,0c0.1,0,0.1,0,0.2-0.1c0,0,0.1,0,0.1,0c0,0,0,0,0,0c0,0,0,0,0,0c0,0,0,0-0.1,0
				c0,0,0,0,0,0c0,0,0,0,0,0c-0.1,0-0.1-0.1-0.2-0.1c0,0,0,0,0,0c-0.1,0-0.1-0.1-0.2-0.1c-0.1-0.1-0.1-0.1-0.1-0.2
				c0,0-0.1-0.1-0.2-0.1c-0.1,0-0.2,0-0.3,0.1C70.8,11.6,70.6,11.7,70.7,11.8L70.7,11.8z"/>
		</g>
	</g>
	<g>
		<g>
			<path fill="#4F4F4F" d="M69.9,14.1c0,0.1,0,0.2,0,0.2c0,0,0,0,0,0.1c0,0,0.1,0,0.1,0c0,0,0.1,0,0.1,0c0,0,0.1,0,0.1,0
				c0,0,0.1,0,0.1,0c0.1,0,0.1,0,0.1-0.1c0,0,0,0,0,0c0,0,0-0.1,0-0.1c0-0.1,0-0.2,0-0.2c0,0,0,0,0-0.1c0,0-0.1,0-0.1,0
				c0,0-0.1,0-0.1,0c0,0-0.1,0-0.1,0c0,0-0.1,0-0.1,0c-0.1,0-0.1,0-0.1,0.1C69.9,14,69.9,14,69.9,14.1C69.9,14,69.9,14.1,69.9,14.1
				L69.9,14.1z"/>
		</g>
	</g>
	<g>
		<g>
			<path fill="#4F4F4F" d="M69.5,14.5c-0.1,0-0.1,0.1-0.1,0.2c0,0,0,0.1,0,0.1c0,0,0,0,0-0.1c0,0.1,0,0.1,0,0.2c0,0,0,0,0-0.1
				c0,0.1-0.1,0.2-0.1,0.3c0,0.1,0,0.1-0.1,0.2c0,0.1,0,0.1,0,0.2c0,0,0,0,0-0.1c0,0,0,0,0,0c0,0,0,0,0-0.1c0,0,0,0,0,0
				c-0.1,0.1-0.1,0.1-0.1,0.2c0,0.1,0,0.1,0.1,0.2c0.1,0.1,0.4,0.1,0.5,0c0.1-0.1,0.1-0.1,0.2-0.2c0,0,0-0.1,0-0.2
				c0-0.1,0-0.2,0-0.2c0,0,0,0,0,0.1c0-0.1,0.1-0.2,0.1-0.3c0-0.1,0-0.1,0.1-0.2c0-0.1,0-0.1,0-0.2c0,0,0,0,0,0.1c0,0,0,0,0-0.1
				c0,0,0,0,0,0.1c0,0,0,0,0,0c0,0,0,0,0,0.1c0,0,0,0,0,0c0.1-0.1,0.2-0.3,0-0.4C69.8,14.4,69.6,14.4,69.5,14.5L69.5,14.5z"/>
		</g>
	</g>
	<g>
		<g>
			<path fill="#4F4F4F" d="M69.6,15.4C69.6,15.5,69.6,15.5,69.6,15.4C69.6,15.5,69.6,15.5,69.6,15.4C69.6,15.5,69.6,15.5,69.6,15.4
				C69.6,15.5,69.6,15.5,69.6,15.4C69.6,15.5,69.6,15.5,69.6,15.4C69.6,15.5,69.6,15.5,69.6,15.4C69.6,15.5,69.6,15.5,69.6,15.4
				C69.6,15.5,69.7,15.5,69.6,15.4C69.7,15.4,69.7,15.4,69.6,15.4c0.1,0,0.1,0,0.1,0c0,0,0,0,0,0c0,0,0.1,0,0.1,0c0,0,0,0,0,0
				C69.8,15.4,69.7,15.4,69.6,15.4c0,0-0.1,0-0.1,0.1c0,0-0.1,0-0.1,0.1c0,0,0,0,0,0.1c0,0,0,0,0,0c0,0,0,0.1,0.1,0.1c0,0,0,0,0.1,0
				c0.1,0,0.1,0,0.2,0c0,0,0,0,0,0c0,0,0.1,0,0.1,0c0,0,0.1,0,0.1,0c0.1,0,0.2-0.1,0.2-0.1c0,0,0.1-0.1,0.1-0.1c0,0,0,0,0,0
				c0,0,0-0.1,0.1-0.1c0,0,0,0,0-0.1c0,0,0,0-0.1-0.1c0,0-0.1,0-0.1,0c0,0-0.1,0-0.1,0c0,0-0.1,0-0.1,0c-0.1,0-0.1,0-0.2,0.1
				C69.7,15.3,69.7,15.3,69.6,15.4C69.7,15.4,69.6,15.4,69.6,15.4L69.6,15.4z"/>
		</g>
	</g>
	<g>
		<g>
			<path fill="#4F4F4F" d="M65.1,15.6c-0.1,0-0.1,0.1-0.2,0.1c0,0-0.1,0.1-0.1,0.1c0,0.1-0.1,0.2,0,0.3c0,0,0,0,0,0c0,0,0.1,0,0.1,0
				c0,0,0.1,0,0.1,0c0,0,0.1,0,0.1,0c0.1,0,0.2-0.1,0.2-0.1c0,0,0.1-0.1,0.1-0.1c0,0,0,0,0-0.1c0,0,0,0,0,0c0-0.1,0-0.1,0.1-0.2
				c0,0,0,0,0,0c0,0,0-0.1,0.1-0.1c0,0,0,0,0,0c0,0,0,0,0,0c0,0,0,0-0.1,0c0,0,0,0,0,0c0,0,0.1,0,0.1-0.1c0,0,0,0,0.1-0.1
				c0,0,0,0,0-0.1c0,0,0,0-0.1,0c0,0,0,0-0.1,0c-0.1,0-0.1,0-0.2,0c0,0-0.1,0-0.1,0C65.2,15.6,65.1,15.6,65.1,15.6L65.1,15.6z"/>
		</g>
	</g>
	<g>
		<g>
			<path fill="#4F4F4F" d="M64.4,10.9C64.4,10.9,64.4,11,64.4,10.9C64.4,10.9,64.4,10.9,64.4,10.9C64.4,10.9,64.4,10.9,64.4,10.9
				C64.4,10.9,64.5,10.9,64.4,10.9C64.5,10.9,64.4,10.9,64.4,10.9C64.4,10.9,64.5,10.9,64.4,10.9C64.5,10.9,64.5,10.9,64.4,10.9
				C64.4,10.9,64.4,11,64.4,10.9c-0.1,0-0.2,0.1-0.2,0.1c0,0,0,0-0.1,0.1c0,0,0,0,0,0.1c0,0,0,0,0,0c0,0,0.1,0,0.1,0
				c0,0,0.1,0,0.1,0c0.1,0,0.1,0,0.2,0c0,0,0.1,0,0.1,0c0,0,0.1,0,0.1-0.1c0.1,0,0.1-0.1,0.2-0.1c0,0,0,0,0.1-0.1c0,0,0,0,0-0.1
				c0,0,0,0,0,0c0,0-0.1,0-0.1,0c0,0-0.1,0-0.1,0c-0.1,0-0.1,0-0.2,0c0,0-0.1,0-0.1,0C64.5,10.9,64.5,10.9,64.4,10.9L64.4,10.9z"/>
		</g>
	</g>
	<g>
		<g>
			<path fill="#4F4F4F" d="M64.8,16.4c-0.1,0-0.2,0-0.3,0c-0.1,0-0.2,0.1-0.2,0.1c-0.1,0.1-0.2,0.1-0.2,0.2
				c-0.1,0.1-0.1,0.3-0.2,0.4c0,0.1,0,0.1,0,0.2c0,0.1,0.1,0.1,0.2,0.1c0.1,0,0.2,0,0.3-0.1c0.1,0,0.2-0.1,0.2-0.2
				c0-0.1,0.1-0.2,0.1-0.3c0-0.1,0.1-0.2,0.1-0.2c0,0,0,0,0,0.1c0,0,0,0,0,0c0,0,0,0-0.1,0.1c0,0,0,0,0,0c0,0-0.1,0-0.1,0
				c0,0,0,0,0,0c0,0-0.1,0-0.1,0c0,0,0,0,0,0c0,0-0.1,0-0.1,0c0,0,0,0,0,0c0,0-0.1,0-0.1,0c0,0,0,0,0,0c0,0,0.1,0,0.1,0
				c0,0,0.1,0,0.1,0c0.1,0,0.2-0.1,0.2-0.2c0-0.1,0-0.1,0-0.2C64.9,16.4,64.8,16.4,64.8,16.4L64.8,16.4z"/>
		</g>
	</g>
	<g>
		<g>
			<path fill="#4F4F4F" d="M62.7,19.5c0,0.2,0,0.4,0,0.6c0,0.1,0,0.2,0.1,0.3c0,0.1,0,0.2,0,0.3c0,0,0,0,0,0c0,0,0,0,0,0.1
				c0,0.1,0,0.1,0.1,0.1c0.1,0,0.2,0,0.2,0c0.1,0,0.2,0,0.3-0.1c0,0,0.1-0.1,0.1-0.1c0-0.2,0-0.4,0-0.5c0-0.2-0.1-0.3-0.1-0.5
				c0,0,0,0,0,0c0,0,0-0.1,0-0.1c0-0.2-0.2-0.1-0.3-0.1c-0.1,0-0.2,0-0.3,0.1C62.8,19.4,62.7,19.5,62.7,19.5L62.7,19.5z"/>
		</g>
	</g>
	<g>
		<g>
			<path fill="#4F4F4F" d="M65.1,20.7c-0.3,0-0.6,0.1-0.8,0.2c-0.1,0-0.2,0.1-0.2,0.2c0,0.1,0,0.1,0,0.2c0.1,0.1,0.3,0.1,0.5,0
				c0,0,0.1,0,0.1,0c0,0-0.1,0-0.1,0c0.1,0,0.2-0.1,0.3-0.1c0,0-0.1,0-0.1,0c0.1,0,0.2,0,0.3,0c0.1,0,0.1,0,0.1,0c0,0,0.1,0,0.1-0.1
				c0.1,0,0.1-0.1,0.1-0.2c0-0.1,0-0.1-0.1-0.2C65.3,20.7,65.2,20.7,65.1,20.7L65.1,20.7z"/>
		</g>
	</g>
	<g>
		<g>
			<path fill="#4F4F4F" d="M68.3,19.3C68.3,19.3,68.2,19.3,68.3,19.3c-0.1,0-0.2,0-0.2,0c0,0-0.1,0-0.1,0c0,0-0.1,0-0.1,0.1
				c0,0-0.1,0.1-0.1,0.1c0,0,0,0,0,0.1c0,0,0,0.1,0,0.1c0,0,0,0,0.1,0c0,0,0.1,0,0.2,0c0,0,0.1,0,0.1,0c0,0,0.1,0,0.1,0
				c0,0,0.1,0,0.1,0c0,0,0.1,0,0.1-0.1c0,0,0.1-0.1,0.1-0.1c0,0,0,0,0-0.1c0,0,0-0.1,0-0.1c0,0,0,0-0.1,0
				C68.4,19.3,68.3,19.3,68.3,19.3L68.3,19.3z"/>
		</g>
	</g>
	<g>
		<g>
			<path fill="#4F4F4F" d="M71.4,17.6c0,0.1-0.1,0.2-0.1,0.3c0,0,0,0,0,0c0,0.1-0.1,0.1-0.1,0.1c0,0,0,0.1,0,0.1c0,0,0,0,0.1,0
				c0,0,0.1,0,0.1,0c0.1,0,0.2,0,0.3-0.1c0.1,0,0.1-0.1,0.2-0.1c0.1-0.1,0.3-0.3,0.3-0.5c0,0,0,0,0-0.1c0,0,0,0-0.1,0
				c0,0-0.1,0-0.1,0c0,0-0.1,0-0.1,0c-0.1,0-0.2,0-0.3,0.1C71.6,17.5,71.5,17.5,71.4,17.6C71.5,17.5,71.5,17.5,71.4,17.6L71.4,17.6z
				"/>
		</g>
	</g>
	<g>
		<g>
			<path fill="#4F4F4F" d="M79.5,23.4c0.1,0,0.1,0.1,0.1,0.1c0,0,0,0,0,0c0,0,0,0,0,0c0,0,0,0,0,0c0,0,0.1,0,0.1,0c0,0,0.1,0,0.1,0
				c0,0,0.1,0,0.1,0c0,0,0.1,0,0.1,0c0.1,0,0.1,0,0.2-0.1c0,0,0,0,0.1,0c0,0,0,0,0-0.1c0-0.1-0.1-0.1-0.2-0.2c0,0,0,0-0.1,0
				c0,0-0.1,0-0.1,0c0,0-0.1,0-0.1,0c0,0-0.1,0-0.1,0c0,0-0.1,0-0.1,0C79.6,23.3,79.5,23.3,79.5,23.4C79.5,23.3,79.5,23.4,79.5,23.4
				C79.5,23.4,79.5,23.4,79.5,23.4L79.5,23.4z"/>
		</g>
	</g>
	<g>
		<g>
			<path fill="#4F4F4F" d="M82.1,20.6C82.1,20.6,82.1,20.6,82.1,20.6C82.1,20.6,82.1,20.6,82.1,20.6c0,0.1,0,0.2,0,0.4
				c0,0.1,0.1,0.2,0.1,0.3c0,0,0,0,0-0.1c0,0,0,0.1,0,0.1c0,0,0,0,0-0.1c0,0,0,0,0,0c0,0,0,0,0-0.1c0,0,0,0,0,0c0,0-0.1,0.1-0.1,0.2
				c0,0.1,0.1,0.1,0.1,0.1c0.1,0,0.2,0,0.3,0c0.1,0,0.2-0.1,0.2-0.1c0.1-0.1,0.1-0.1,0.1-0.2c0-0.1,0-0.1,0-0.2
				c0-0.1-0.1-0.2-0.1-0.3c0,0,0,0,0,0.1c0-0.1,0-0.2,0-0.3c0-0.1-0.1-0.1-0.1-0.1c-0.1,0-0.2,0-0.3,0c-0.1,0-0.2,0.1-0.2,0.1
				C82.1,20.5,82.1,20.5,82.1,20.6L82.1,20.6z"/>
		</g>
	</g>
	<g>
		<g>
			<path fill="#4F4F4F" d="M80.6,20C80.6,20,80.6,20,80.6,20c0,0.1,0,0.1,0,0.1c0,0,0,0.1,0,0.1c0,0,0,0,0,0c0,0,0.1,0,0.1,0
				c0,0,0.1,0,0.1,0c0,0,0.1,0,0.1,0c0,0,0.1,0,0.1,0c0.1,0,0.1,0,0.2-0.1c0,0,0,0,0.1,0c0,0,0,0,0-0.1c0,0,0-0.1,0-0.1c0,0,0,0,0,0
				c0,0,0,0,0,0c0,0,0,0,0,0c0,0,0,0-0.1,0c0,0-0.1,0-0.1,0c0,0-0.1,0-0.1,0c-0.1,0-0.2,0-0.3,0.1C80.7,19.9,80.7,19.9,80.6,20
				C80.7,19.9,80.6,20,80.6,20L80.6,20z"/>
		</g>
	</g>
	<g>
		<g>
			<path fill="#4F4F4F" d="M85.3,16.7c0,0.2-0.1,0.3-0.1,0.5c0,0,0,0,0,0c0,0,0,0,0.1,0c0,0,0.1,0,0.1,0c0,0,0.1,0,0.1,0
				c0.1,0,0.2,0,0.3-0.1c0,0,0,0,0.1,0c0,0,0.1,0,0.1-0.1c0-0.2,0.1-0.3,0.1-0.5c0,0,0,0,0,0c0,0,0,0-0.1,0c0,0-0.1,0-0.1,0
				c0,0-0.1,0-0.1,0c-0.1,0-0.2,0-0.3,0.1C85.4,16.6,85.4,16.6,85.3,16.7C85.3,16.6,85.3,16.7,85.3,16.7L85.3,16.7z"/>
		</g>
	</g>
	<g>
		<g>
			<path fill="#4F4F4F" d="M85.8,16c0,0.1-0.1,0.2-0.2,0.3c0,0,0,0.1,0,0.1c0,0,0,0.1,0,0.1c0,0,0.1,0,0.1,0.1c0,0,0.1,0,0.1,0
				c0,0,0.1,0,0.1,0c0.1,0,0.1,0,0.2-0.1c0,0,0.1,0,0.1,0c0,0,0.1-0.1,0.1-0.1c0.1-0.1,0.1-0.2,0.2-0.3c0,0,0-0.1,0-0.1
				c0,0,0-0.1,0-0.1c0,0-0.1,0-0.1-0.1c0,0-0.1,0-0.1,0c0,0-0.1,0-0.1,0c-0.1,0-0.1,0-0.2,0.1c0,0-0.1,0-0.1,0
				C85.8,15.9,85.8,15.9,85.8,16L85.8,16z"/>
		</g>
	</g>
	<g>
		<g>
			<path fill="#4F4F4F" d="M86.5,14C86.5,14,86.5,14,86.5,14c0,0,0,0.1,0,0.1c0,0,0,0.1,0.1,0.1c0,0,0.1,0,0.1,0c0,0,0.1,0,0.1,0
				c0,0,0.1,0,0.1,0c0.1,0,0.1,0,0.2-0.1c0,0,0,0,0.1-0.1c0,0,0.1-0.1,0.1-0.1c0,0,0,0,0,0c0,0,0-0.1,0-0.1c0,0,0-0.1-0.1-0.1
				c0,0-0.1,0-0.1,0c0,0-0.1,0-0.1,0c0,0-0.1,0-0.1,0c-0.1,0-0.1,0-0.2,0.1c0,0,0,0-0.1,0.1C86.5,13.9,86.5,13.9,86.5,14L86.5,14z"
				/>
		</g>
	</g>
	<g>
		<g>
			<path fill="#4F4F4F" d="M89.1,14.8c0,0.1,0,0.2,0,0.3c0,0,0,0,0,0c0,0,0.1,0,0.1,0c0,0,0.1,0,0.1,0c0,0,0.1,0,0.1,0
				c0,0,0.1,0,0.1,0c0.1,0,0.1,0,0.2-0.1c0,0,0,0,0.1,0c0,0,0,0,0-0.1c0-0.1,0-0.2,0-0.3c0,0,0,0,0,0c0,0-0.1,0-0.1,0
				c0,0-0.1,0-0.1,0c0,0-0.1,0-0.1,0c0,0-0.1,0-0.1,0c-0.1,0-0.1,0-0.2,0.1C89.2,14.7,89.2,14.8,89.1,14.8
				C89.1,14.8,89.1,14.8,89.1,14.8L89.1,14.8z"/>
		</g>
	</g>
	<g>
		<g>
			<path fill="#4F4F4F" d="M89.9,14.2c-0.1,0.1-0.1,0.2-0.2,0.3c0,0,0,0.1,0,0.1c0,0,0,0.1,0,0.1c0,0,0.1,0,0.1,0.1c0,0,0.1,0,0.1,0
				c0.1,0,0.2,0,0.3-0.1c0.1,0,0.2-0.1,0.2-0.2c0.1-0.1,0.1-0.2,0.2-0.3c0,0,0-0.1,0-0.1c0,0,0-0.1,0-0.1c0,0-0.1,0-0.1-0.1
				c0,0-0.1,0-0.1,0c-0.1,0-0.2,0-0.3,0.1C90,14.1,89.9,14.1,89.9,14.2L89.9,14.2z"/>
		</g>
	</g>
	<g>
		<g>
			<path fill="#4F4F4F" d="M91.5,11.7c0.1,0.2,0.1,0.5,0.2,0.7c0,0.1,0.1,0.1,0.1,0.1c0.1,0,0.2,0,0.3,0c0.1,0,0.2-0.1,0.2-0.1
				c0,0,0.1-0.1,0.1-0.2c-0.1-0.2-0.1-0.5-0.2-0.7c0-0.1-0.1-0.1-0.1-0.1c-0.1,0-0.2,0-0.3,0c-0.1,0-0.2,0.1-0.2,0.1
				C91.5,11.6,91.5,11.7,91.5,11.7L91.5,11.7z"/>
		</g>
	</g>
	<g>
		<g>
			<path fill="#4F4F4F" d="M92.6,14.3c0,0,0.1,0.1,0.1,0.1C92.7,14.4,92.7,14.4,92.6,14.3c0.1,0.1,0.1,0.2,0.1,0.2
				c0,0,0,0.1,0.1,0.1c0,0,0.1,0.1,0.1,0.1c0,0,0.1,0,0.1,0c0,0,0.1,0,0.1,0c0,0,0.1,0,0.1,0c0.1,0,0.1-0.1,0.1-0.1c0,0,0,0,0-0.1
				c0,0,0-0.1,0-0.1c0-0.1,0-0.1-0.1-0.2c0,0-0.1-0.1-0.1-0.1c0,0-0.1-0.1-0.1-0.1c0,0-0.1,0-0.1,0c0,0-0.1,0-0.1,0
				c-0.1,0-0.1,0-0.1,0c0,0-0.1,0-0.1,0c0,0-0.1,0.1-0.1,0.1c0,0,0,0,0,0.1C92.6,14.2,92.6,14.2,92.6,14.3L92.6,14.3z"/>
		</g>
	</g>
	<g>
		<g>
			<path fill="#4F4F4F" d="M93.1,16.4c0,0,0,0.1,0,0.1C93.1,16.5,93.1,16.5,93.1,16.4c0,0.3,0,0.5-0.1,0.7c0,0.1-0.1,0.2,0,0.4
				c0,0.1,0.1,0.2,0.1,0.3c0,0.1,0.1,0.1,0.2,0.1c0.1,0,0.2,0,0.3-0.1c0.1-0.1,0.3-0.2,0.2-0.3c0,0-0.1-0.1-0.1-0.1c0,0,0,0,0,0.1
				c0,0,0-0.1,0-0.1c0,0,0,0,0,0.1c0-0.1,0-0.2,0-0.3c0-0.1,0-0.2,0.1-0.3c0-0.2,0.1-0.4,0-0.6c0-0.1-0.1-0.1-0.1-0.1
				c-0.1,0-0.2,0-0.3,0C93.3,16.1,93.1,16.2,93.1,16.4L93.1,16.4z"/>
		</g>
	</g>
	<g>
		<g>
			<path fill="#4F4F4F" d="M92.3,19.6c0,0,0,0.1,0,0.1C92.3,19.8,92.3,19.7,92.3,19.6c0,0.2,0,0.4-0.1,0.5c0,0,0,0,0-0.1
				c0,0,0,0.1-0.1,0.1c0,0,0,0,0-0.1c0,0,0,0-0.1,0c0,0,0,0,0.1,0c0,0,0,0,0,0c0.1,0,0.1,0,0.1,0c0,0,0,0,0,0c0,0,0.1,0,0.1,0
				c0,0-0.1,0,0.1,0c0,0,0,0,0,0c0,0,0.1,0,0.1,0c0,0,0,0,0,0c0,0,0.1,0,0.1,0c0,0-0.1,0-0.1,0c0,0,0,0,0.1,0c0,0,0,0,0,0
				c-0.1,0-0.2,0-0.2,0c-0.1,0-0.2,0-0.3,0.1c-0.1,0-0.1,0.1-0.1,0.2c0,0.1,0,0.1,0.1,0.1c0.2,0.1,0.4,0.1,0.6,0
				c0.2-0.1,0.4-0.1,0.5-0.3C93,20.1,93,20,93,19.8c0-0.1,0-0.3,0-0.4c0-0.1-0.1-0.1-0.1-0.1c-0.1,0-0.2,0-0.3,0
				c-0.1,0-0.2,0.1-0.2,0.1C92.3,19.5,92.3,19.6,92.3,19.6L92.3,19.6z"/>
		</g>
	</g>
	<g>
		<g>
			<path fill="#4F4F4F" d="M90.6,20.5c-0.1,0-0.2,0.1-0.2,0.2c0,0.1-0.1,0.1-0.1,0.2c0,0,0,0,0-0.1c0,0,0,0,0,0c0,0,0,0,0.1-0.1
				c0,0-0.1,0.1-0.1,0.1c-0.1,0-0.1,0.1-0.2,0.2c-0.1,0.1-0.2,0.2-0.2,0.3c0,0.1,0,0.1,0,0.2c0,0.1,0.1,0.1,0.2,0.1
				c0.2,0,0.4-0.1,0.5-0.2c0-0.1,0.1-0.1,0.1-0.2c0,0,0,0,0,0.1c0-0.1,0.1-0.1,0.1-0.1c0,0,0,0-0.1,0.1c0.1-0.1,0.1-0.1,0.2-0.2
				c0.1,0,0.1-0.1,0.1-0.2c0,0,0-0.1,0-0.1c0,0,0,0,0,0.1c0,0,0,0,0,0c0,0,0,0-0.1,0.1c0,0,0,0,0,0c0,0-0.1,0-0.1,0c0,0,0,0,0,0
				c0.1,0,0.2-0.1,0.2-0.2c0-0.1,0-0.1,0-0.2c-0.1-0.1-0.1-0.1-0.2-0.1C90.7,20.5,90.7,20.5,90.6,20.5L90.6,20.5z"/>
		</g>
	</g>
	<g>
		<g>
			<path fill="#4F4F4F" d="M14,12.1c0.1,0,0.2,0.1,0.3,0.1c0,0,0,0,0,0c0.1,0,0.2,0.1,0.3,0.2c0.1,0,0.1,0,0.2,0
				c0.1,0,0.2,0,0.3-0.1c0.1,0,0.2-0.1,0.2-0.1c0,0,0.1-0.1,0-0.1c-0.2-0.1-0.5-0.2-0.7-0.3c0,0-0.1,0-0.1,0c0,0-0.1,0-0.1,0
				c-0.1,0-0.2,0-0.3,0.1c0,0,0,0-0.1,0C14,12,14,12,14,12.1C14,12.1,14,12.1,14,12.1L14,12.1z"/>
		</g>
	</g>
	<g>
		<g>
			<path fill="#4F4F4F" d="M16.4,13.7C16.4,13.7,16.4,13.7,16.4,13.7c-0.1,0-0.2,0-0.3,0c0,0-0.1,0-0.1,0c0,0-0.1,0-0.1,0.1
				c0,0,0,0-0.1,0c0,0,0,0,0,0.1c0,0,0,0,0,0c0,0,0.1,0,0.1,0c0,0,0,0,0.1,0c0.1,0,0.2,0,0.3,0c0,0,0.1,0,0.1,0c0,0,0.1,0,0.1-0.1
				c0,0,0,0,0.1,0c0,0,0,0,0-0.1c0,0,0,0,0,0C16.5,13.7,16.5,13.7,16.4,13.7L16.4,13.7z"/>
		</g>
	</g>
	<g>
		<g>
			<path fill="#4F4F4F" d="M28.4,20.6C28.4,20.6,28.4,20.7,28.4,20.6C28.4,20.7,28.4,20.6,28.4,20.6C28.4,20.6,28.3,20.7,28.4,20.6
				C28.3,20.7,28.4,20.6,28.4,20.6C28.4,20.6,28.3,20.7,28.4,20.6C28.3,20.7,28.4,20.7,28.4,20.6C28.4,20.6,28.4,20.7,28.4,20.6
				c-0.1,0.1-0.1,0.1-0.2,0.1c0,0-0.1,0-0.1,0.1c0,0,0,0.1-0.1,0.1c0,0,0,0.1,0,0.1c0,0,0,0,0,0.1c0,0,0.1,0.1,0.1,0.1
				c0,0,0.1,0,0.1,0c0.1,0,0.1,0,0.2,0c0.1,0,0.1,0,0.2-0.1c0,0,0,0,0,0c0,0,0.1,0,0.1-0.1c0,0,0,0,0.1-0.1c0,0,0.1-0.1,0.1-0.1
				c0,0,0-0.1,0.1-0.1c0,0,0-0.1,0-0.1c0,0,0-0.1-0.1-0.1c0,0-0.1,0-0.1-0.1c0,0-0.1,0-0.1,0c-0.1,0-0.1,0-0.2,0c0,0-0.1,0-0.1,0
				C28.5,20.5,28.4,20.6,28.4,20.6L28.4,20.6z"/>
		</g>
	</g>
	<g>
		<g>
			<path fill="#4F4F4F" d="M27.2,21.3c0.4,0,0.6-0.5,0.1-0.5C26.9,20.8,26.7,21.3,27.2,21.3L27.2,21.3z"/>
		</g>
	</g>
	<g>
		<g>
			<path fill="#4F4F4F" d="M27.1,21.4c0.4,0,0.5-0.6,0.1-0.6C26.8,20.8,26.6,21.4,27.1,21.4L27.1,21.4z"/>
		</g>
	</g>
	<g>
		<g>
			<path fill="#4F4F4F" d="M28.2,13.1C28.2,13.1,28.2,13.2,28.2,13.1C28.2,13.2,28.2,13.1,28.2,13.1c0,0.1,0,0.2,0,0.3
				c0,0,0,0.1,0,0.1c0,0,0,0,0.1,0.1c0,0,0.1,0,0.1,0c0,0,0.1,0,0.1,0c0.1,0,0.2,0,0.3-0.1c0,0,0,0,0.1,0c0,0,0.1-0.1,0.1-0.1
				c0-0.1,0-0.3,0-0.4c0,0,0,0-0.1-0.1c0,0-0.1,0-0.1,0c0,0-0.1,0-0.1,0c0,0-0.1,0-0.1,0c0,0-0.1,0-0.1,0c-0.1,0-0.1,0.1-0.1,0.1
				c0,0,0,0,0,0.1C28.2,13,28.2,13.1,28.2,13.1L28.2,13.1z"/>
		</g>
	</g>
	<g>
		<g>
			<path fill="#4F4F4F" d="M29.2,11.4c0,0.1,0.1,0.3,0.1,0.4c0,0,0,0,0,0c0,0,0.1,0,0.1,0c0,0,0.1,0,0.1,0c0,0,0.1,0,0.1,0
				c0.1,0,0.2-0.1,0.2-0.1c0,0,0.1-0.1,0.1-0.1c0-0.1-0.1-0.3-0.1-0.4c0,0,0,0,0,0c0,0-0.1,0-0.1,0c0,0-0.1,0-0.1,0c0,0-0.1,0-0.1,0
				c-0.1,0-0.2,0.1-0.2,0.1C29.3,11.3,29.2,11.3,29.2,11.4L29.2,11.4z"/>
		</g>
	</g>
	<g>
		<g>
			<path fill="#4F4F4F" d="M16.9,12.4c0.2,0,0.4,0.1,0.7,0.1c0.1,0,0.2,0,0.2,0c0.1,0,0.2,0,0.3-0.1c0,0,0,0,0.1,0
				c0,0,0.1,0,0.1-0.1c0,0,0,0,0,0c0,0,0,0-0.1-0.1c-0.2,0-0.4-0.1-0.7-0.1c-0.1,0-0.2,0-0.2,0c-0.1,0-0.2,0-0.3,0.1c0,0,0,0-0.1,0
				C16.9,12.3,16.9,12.3,16.9,12.4C16.9,12.3,16.9,12.4,16.9,12.4C16.9,12.4,16.9,12.4,16.9,12.4L16.9,12.4z"/>
		</g>
	</g>
	<g>
		<g>
			<path fill="#4F4F4F" d="M17.6,13.5c0.4,0,0.6-0.5,0.1-0.5C17.2,13,17.1,13.5,17.6,13.5L17.6,13.5z"/>
		</g>
	</g>
	<g>
		<g>
			<path fill="#4F4F4F" d="M10.2,20.1c0,0.3,0.3,0.3,0.5,0.3c0.2,0,0.4,0,0.6,0c0.2,0,0.4-0.1,0.6-0.1c0.1,0,0.2-0.1,0.3-0.1
				c0.1-0.1,0.2-0.1,0.2-0.3c0-0.1,0-0.1-0.1-0.1c-0.3-0.1-0.6,0-0.9,0.1c-0.2,0.1-0.4,0.2-0.7,0.3c-0.1,0-0.2,0.1-0.2,0.1
				c0,0,0,0.1,0,0.2c0.1,0.1,0.4,0.1,0.5,0c0.2-0.1,0.3-0.1,0.5-0.2c0.1,0,0.2-0.1,0.3-0.1c0,0,0,0,0.1,0c0,0,0,0,0,0c0,0,0,0,0,0
				c0,0,0,0,0,0c0,0,0,0,0,0c0,0,0,0-0.1,0c0,0-0.1,0-0.1,0c0,0-0.1-0.1-0.1-0.1c0,0,0,0,0,0c0,0,0,0,0,0c0,0,0,0-0.1,0
				c0.1,0,0,0,0,0c0,0-0.1,0-0.1,0c0,0,0,0,0,0c0,0,0,0-0.1,0c-0.1,0,0.1,0,0,0c-0.1,0-0.1,0-0.2,0c-0.1,0-0.2,0-0.4,0
				c0,0-0.1,0-0.1,0c0,0,0,0,0,0c0.1,0,0.1,0,0,0c0,0,0,0,0.1,0c0,0,0,0,0,0c0,0,0,0,0,0C11,19.7,10.2,19.8,10.2,20.1L10.2,20.1z"/>
		</g>
	</g>
	<g>
		<g>
			<path fill="#4F4F4F" d="M7,17.6C7,17.6,7,17.6,7,17.6c0,0.1,0,0.1,0,0.1C7,17.7,7,17.7,7,17.6c0,0.1-0.1,0.2-0.1,0.2
				c0,0-0.1,0.1-0.1,0.1c0,0.1-0.1,0.2-0.1,0.2c0,0,0,0.1,0,0.1c0,0,0,0,0,0c0,0,0.1-0.1,0,0c-0.1,0.1-0.2,0.1-0.2,0.2
				c0,0.1-0.1,0.2-0.1,0.2c-0.1,0.2-0.2,0.3-0.3,0.4c0,0-0.1,0.1-0.1,0.2c0,0.1,0.1,0.1,0.1,0.1c0.2,0,0.4,0,0.5-0.1
				c0.2-0.2,0.3-0.3,0.4-0.5c0,0,0-0.1,0-0.1c0,0,0-0.1,0,0c0,0,0,0,0,0c0,0,0,0,0,0c0,0,0,0,0,0c0.1,0,0,0,0,0
				c0.1,0,0.1-0.1,0.1-0.1c0.1-0.1,0.1-0.2,0.1-0.3c0,0,0-0.1,0-0.1c0,0,0,0,0-0.1c0,0,0,0,0,0c0,0-0.1,0.1,0,0c0,0,0.1,0,0.1-0.1
				c0.1,0,0.1-0.1,0.1-0.1c0.1-0.1,0.1-0.2,0.1-0.3c0-0.1-0.1-0.1-0.1-0.1c-0.1,0-0.2,0-0.3,0C7.2,17.3,7,17.4,7,17.6L7,17.6z"/>
		</g>
	</g>
	<g>
		<g>
			<path fill="#4F4F4F" d="M7.9,14.6c0,0.1-0.1,0.1-0.1,0.2c0,0,0,0.1,0,0.1c0,0,0,0.1,0,0.1c0,0,0.1,0,0.1,0.1c0,0,0.1,0,0.1,0
				c0,0,0.1,0,0.1,0c0.1,0,0.1,0,0.2-0.1c0,0,0.1,0,0.1,0c0,0,0.1-0.1,0.1-0.1c0-0.1,0.1-0.1,0.1-0.2c0,0,0-0.1,0-0.1
				c0,0,0-0.1,0-0.1c0,0-0.1,0-0.1-0.1c0,0-0.1,0-0.1,0c0,0-0.1,0-0.1,0c-0.1,0-0.1,0-0.2,0.1c0,0-0.1,0-0.1,0
				C8,14.5,8,14.5,7.9,14.6L7.9,14.6z"/>
		</g>
	</g>
	<g>
		<g>
			<path fill="#4F4F4F" d="M8.3,14.1C8.3,14.1,8.3,14.1,8.3,14.1C8.3,14.1,8.3,14.1,8.3,14.1C8.3,14,8.3,14.1,8.3,14.1
				C8.3,14.1,8.3,14,8.3,14.1C8.3,14,8.3,14,8.3,14.1C8.3,14,8.4,14,8.3,14.1C8.4,14,8.4,14,8.3,14.1C8.3,14,8.3,14,8.3,14.1
				c0,0-0.1,0.1-0.1,0.1c0,0,0,0.1,0,0.1c0,0,0,0.1,0.1,0.1c0,0,0,0,0.1,0c0.1,0,0.1,0,0.2,0c0,0,0.1,0,0.1,0c0.1,0,0.1,0,0.2-0.1
				c0,0,0.1-0.1,0.1-0.1c0,0,0-0.1,0.1-0.1c0,0,0,0,0,0c0,0,0-0.1,0-0.1c0,0,0,0,0,0c0,0,0-0.1,0-0.1c0,0,0-0.1-0.1-0.1
				c0,0-0.1,0-0.1,0c0,0-0.1,0-0.1,0c0,0-0.1,0-0.1,0c-0.1,0-0.1,0-0.2,0.1c0,0,0,0-0.1,0.1C8.3,14,8.3,14,8.3,14.1L8.3,14.1z"/>
		</g>
	</g>
	<g>
		<g>
			<path fill="#4F4F4F" d="M9.2,12.5c-0.1,0-0.1,0.1-0.2,0.1c0,0-0.1,0.1-0.1,0.1c0,0.1-0.1,0.1-0.1,0.2c0,0.1-0.1,0.1-0.1,0.2
				c0,0,0,0.1,0,0.1c0,0,0,0.1,0.1,0.1c0,0,0.1,0,0.1,0c0,0,0.1,0,0.1,0c0.1,0,0.2,0,0.3-0.1c0,0,0,0,0.1-0.1c0,0,0.1-0.1,0.1-0.1
				c0,0,0,0,0,0c0,0,0,0,0,0.1c0-0.1,0.1-0.1,0.1-0.2c0,0,0,0,0,0.1c0,0,0.1-0.1,0.1-0.1c0,0,0,0-0.1,0.1c0,0,0.1,0,0.1-0.1
				c0,0,0.1,0,0.1-0.1c0,0,0-0.1,0-0.1c0-0.1,0-0.1-0.1-0.1c-0.1,0-0.2,0-0.2,0c0,0-0.1,0-0.1,0C9.3,12.4,9.3,12.4,9.2,12.5
				L9.2,12.5z"/>
		</g>
	</g>
	<g>
		<g>
			<path fill="#4F4F4F" d="M5.5,10.7c-0.1,0.1-0.2,0.3-0.2,0.4c0,0.2,0.1,0.4,0.1,0.5c0,0.2-0.1,0.3-0.1,0.5c0,0.2-0.1,0.3-0.1,0.5
				c0,0.1,0,0.2,0,0.3c0,0.1-0.1,0.2-0.1,0.3c-0.1,0.2-0.2,0.3-0.3,0.5c-0.1,0.2-0.1,0.4-0.1,0.5c0,0.1,0,0.4,0,0.4
				c-0.1,0.1-0.2,0.2-0.1,0.3c0.1,0.1,0.4,0,0.5-0.1c0.3-0.2,0.3-0.5,0.3-0.9c0-0.2,0.1-0.4,0.2-0.6c0.1-0.2,0.2-0.3,0.3-0.5
				c0-0.2,0-0.4,0.1-0.5c0-0.1,0.1-0.2,0.1-0.2c0-0.1,0-0.2,0-0.3c0-0.2,0.1-0.3,0.1-0.5c0-0.1-0.2-0.4-0.1-0.5
				c0.1-0.1,0.1-0.2-0.1-0.3C5.8,10.5,5.6,10.5,5.5,10.7L5.5,10.7z"/>
		</g>
	</g>
	<g>
		<g>
			<path fill="#4F4F4F" d="M4.1,17.2c0,0,0,0.1-0.1,0.1C4.1,17.3,4.1,17.3,4.1,17.2C4,17.3,4,17.4,3.9,17.5
				c-0.1,0.1-0.1,0.1-0.2,0.2c0,0,0,0,0,0c0,0,0,0,0,0c0,0,0.1,0,0,0c0,0,0.1,0,0.1,0c0,0,0,0,0,0c0.1,0,0,0,0,0c-0.1,0,0.1,0,0,0
				c0,0-0.1,0-0.1,0c-0.1,0-0.1,0-0.2,0c-0.1,0-0.2,0.1-0.2,0.1c0,0-0.1,0.1-0.1,0.1c0,0.1,0.1,0.1,0.1,0.1c0.1,0,0.2,0,0.3,0
				c0.1,0-0.1,0,0,0c0,0,0,0,0,0c0,0-0.1,0,0,0c0,0,0.1,0,0.1,0c0.1,0,0.2,0,0.3-0.1c0.1-0.1,0.3-0.1,0.4-0.3
				c0.1-0.2,0.3-0.3,0.4-0.5c0,0,0-0.1-0.1-0.1c-0.1,0-0.2,0-0.2,0c-0.1,0-0.2,0-0.3,0.1C4.2,17.1,4.1,17.1,4.1,17.2L4.1,17.2z"/>
		</g>
	</g>
	<g>
		<g>
			<path fill="#4F4F4F" d="M0.4,14.3c-0.1,0.2-0.1,0.4-0.1,0.7c0,0,0.1,0,0.1,0c0.1,0,0.2,0,0.3,0c0.1,0,0.2-0.1,0.2-0.1
				c0,0,0.1-0.1,0.1-0.1c0-0.1,0-0.2,0-0.4c0,0,0,0,0,0c0-0.1,0-0.2,0.1-0.3c0-0.1-0.2-0.1-0.3-0.1c-0.1,0-0.2,0-0.3,0.1
				C0.5,14.2,0.5,14.2,0.4,14.3C0.4,14.2,0.4,14.2,0.4,14.3L0.4,14.3z"/>
		</g>
	</g>
	<g>
		<g>
			<path fill="#4F4F4F" d="M15.8,12.7c0.1,0.1,0.2,0.1,0.3,0.1c0.1,0,0.3,0.1,0.4,0.1c0.1,0,0.3,0,0.4-0.1c0.1,0,0.2-0.1,0.3-0.1
				c0.1,0,0.2-0.1,0.2-0.1c0,0,0.1-0.1,0.1-0.2c-0.1-0.2-0.3-0.2-0.4-0.1c-0.1,0-0.2,0-0.3,0.1c0,0-0.1,0-0.1,0c0,0,0,0-0.1,0
				c0,0-0.1,0,0,0c0,0,0,0,0,0c0,0,0,0,0,0c0,0,0,0-0.1,0c-0.1,0,0.1,0,0,0c0,0,0,0-0.1,0c0,0-0.1,0-0.1,0c0,0-0.1,0-0.1,0
				c0,0,0,0,0,0c0,0,0,0,0,0c-0.1-0.1-0.4-0.1-0.5,0.1c-0.1,0-0.1,0.1-0.1,0.2C15.7,12.6,15.8,12.7,15.8,12.7L15.8,12.7z"/>
		</g>
	</g>
	<g>
		<path fill="none" stroke="#878787" stroke-width="0.25" stroke-miterlimit="10" d="M70.6,11.1c-0.2,0-0.3,0.2-0.4,0.2
			c-0.1,0-0.3,0-0.3,0c-0.1,0-0.1-0.2-0.2-0.3s-0.2-0.2-0.4-0.3s-0.5-0.2-0.6-0.3s-0.4-0.1-0.5-0.1s-0.4,0-0.5-0.1
			c-0.1-0.1-0.3-0.1-0.3-0.1S67,10,66.8,10s-0.5-0.1-0.6,0c-0.1,0.1-0.3,0.2-0.4,0.2c-0.1,0-0.4,0-0.5,0.1c-0.1,0.1-0.1,0.1-0.3,0.2
			c-0.2,0.1-0.3,0.1-0.4,0.3S64.4,11,64.3,11c-0.1,0-0.3-0.1-0.4,0.1c-0.1,0.1-0.3,0.2-0.4,0.4c-0.1,0.2-0.2,0.3-0.3,0.4
			s-0.2,0.3-0.4,0.4c-0.2,0.1-0.3,0.1-0.4,0.3s-0.1,0.3-0.2,0.5c-0.1,0.2-0.2,0.3-0.2,0.5s-0.2,0.2-0.3,0.4s0,0.3-0.1,0.5
			c-0.2,0.2-0.3,0.2-0.3,0.5S61,15.3,61,15.5c0,0.2,0,0.2-0.1,0.5s-0.1,0.3-0.1,0.6c-0.1,0.3,0.1,0.6,0,0.8c-0.1,0.2,0,0.8-0.1,0.9
			s-0.1,0.6-0.1,0.7s-0.1,0.4-0.1,0.6c0,0.2,0,0.6,0,0.7c0,0.1,0,0.5,0,0.5s0.2,0.4,0.2,0.4c0,0.1,0.4,0.2,0.4,0.3
			c0,0,0.3,0.2,0.4,0.2c0.1,0,0.4,0.1,0.5,0.1s0.5,0,0.5,0.1c0.1,0.1,0.5,0.1,0.6,0.1c0.1,0,0.7,0,0.8,0c0.1,0,0.6,0,0.7,0
			c0.1,0,0.4-0.1,0.5-0.1c0.1,0,0.2-0.1,0.6-0.1s0.6-0.2,0.8-0.3c0.2-0.1,0.3-0.1,0.5-0.1c0.2,0,0.6-0.1,0.6-0.1s0.1-0.2,0.3-0.2
			c0.2,0,0.4-0.2,0.4-0.2s0.3-0.2,0.4-0.3c0,0,0.2-0.2,0.2-0.2s0-0.1,0.1-0.1c0.1,0,0.2,0.1,0.1,0.2c0,0.1,0,0.1-0.1,0.2
			c-0.1,0.1-0.1,0.2-0.1,0.3s0,0.3,0,0.4s0.1,0.1,0.1,0.1s0.3,0,0.4,0.1c0.1,0,0.3,0,0.3,0l0.1,0c0,0,0.2-0.1,0.2-0.2
			c0-0.1,0.1-0.3,0.1-0.3s0.2-0.2,0.2-0.3s0.1-0.4,0.1-0.4S71,20,71,19.9s0.2-0.1,0.2-0.1s0-0.2,0.1-0.2c0.1,0,0.3,0,0.4,0
			s0.4,0,0.6,0s0.2,0,0.2,0.1s0,0.2,0.1,0.3s0.3,0.1,0.3,0.2s0.2,0.4,0.2,0.4s0.3,0.2,0.3,0.2c0,0,0.1,0.1,0.2,0.3s0.3,0.2,0.3,0.2
			l0.3,0.4l0.2,0.5c0,0,0.1,0.3,0.1,0.3s0.1,0.4,0.1,0.4s0.1,0.6,0.1,0.6c0,0-0.1,0.4-0.1,0.4l0,0.9v0.5l0.2,0.4l0.1,0.4
			c0,0,0,0.3,0.1,0.5s0.2,0.4,0.3,0.4c0.1,0,0.2,0.2,0.3,0.2s0.6,0.1,0.7,0.2s0.4,0.2,0.5,0.2c0.1,0,0.7,0.1,0.7,0.1
			s0.8-0.1,0.9-0.1s0.2-0.3,0.3-0.3c0.1,0,0.3,0,0.4,0s0.3-0.1,0.4-0.1c0.1,0,0.3-0.2,0.4-0.3c0-0.1,0.6-0.5,0.6-0.5
			s0.1-0.5,0.2-0.6c0-0.1,0.1-0.6,0.2-0.6c0,0,0.2-0.3,0.2-0.3v-0.4l0.1-0.3v-0.6c0,0,0.1-0.2,0.1-0.2s0-0.7,0-0.7l0.3-0.5l0.4-0.5
			c0,0,0.1-0.4,0.1-0.6c0-0.1,0-0.5,0-0.6c0-0.1,0.1-0.4,0.1-0.5c0-0.1,0.1-0.3,0.1-0.3c0-0.1,0.3,0,0.3,0l0.3,0.2
			c0,0,0,0.1-0.1,0.3s-0.2,0.3-0.3,0.4s-0.1,0.3-0.1,0.4c0,0.1,0.1,0.4,0.1,0.4c0,0-0.2,0.1-0.2,0.3s0.2,0.3,0.2,0.3l0.3-0.1
			l0.4-0.1c0,0,0.1-0.3,0.2-0.4c0,0,0.1-0.3,0.1-0.3l0.3-0.2l0.3,0.1L84,21c0,0,0.1,0.1,0.1,0.2c0,0.2-0.1,0.2,0.1,0.2
			c0.2,0,0.5,0.1,0.5,0.1s0.1,0.1,0.2,0.2c0.1,0.1,0-0.1,0.1,0.1c0.2,0.1,0.3,0.2,0.4,0.2s0.4,0,0.4,0l0.4,0l0.4,0.1l0.1,0.1l0.6,0
			c0,0,0.2-0.1,0.3-0.1s0.3,0,0.3,0l0.5,0.1l0.1,0.1l0.4,0.1l0.3-0.1l0.3-0.2l0.5-0.1l0.5-0.3l0.5-0.3l0.2-0.1c0,0,0.3-0.2,0.3-0.2
			c0,0,0.4-0.2,0.4-0.2s0.4-0.4,0.4-0.4s0.3-0.1,0.4-0.2c0.1-0.1,0.3-0.6,0.3-0.6l0.2-0.6l0.2-0.6l0.2-0.4l0.1-0.4
			c0,0,0.2-0.3,0.2-0.3c0,0,0.1-1.2,0.1-1.2s-0.2-0.1-0.2-0.2c0-0.1,0.1-0.5,0.1-0.5l-0.3-1.1L93.3,14c0,0-0.3-0.1-0.3-0.1
			s0-0.5,0-0.6c0-0.1-0.1-0.3-0.1-0.3s-0.1-0.4-0.3-0.6c-0.2-0.2-0.3-0.7-0.3-0.7c0-0.1-0.6-0.7-0.6-0.7s-0.7-0.5-0.8-0.5
			c-0.1,0-0.8-0.3-0.8-0.3l-0.6-0.2l-0.8,0.1c0,0,0,0.1-0.2,0.1s-0.9,0-1,0c-0.1,0-0.2,0.1-0.3,0.1c-0.1,0-0.3,0.2-0.4,0.2
			s-0.4,0.2-0.5,0.3S86,10.9,85.9,11c-0.1,0.1-0.4,0.2-0.5,0.3c-0.1,0.1-0.2,0.2-0.4,0.2c-0.2,0.1-0.5,0.3-0.5,0.4
			c0,0.1,0,0.1,0,0.3s-0.1,0.2-0.1,0.3c0,0.1-0.2,0.1-0.2,0.1l-0.2,0L84,12.2L83.8,12l-0.4,0.1c0,0-0.2,0.1-0.2,0.2
			c-0.1,0.1-0.3,0.1-0.3,0.1s-0.2,0-0.3,0.1c-0.1,0.1-0.3,0.3-0.3,0.3L82,12.9L81.7,13l-0.3-0.1c0,0-0.1-0.1-0.2-0.1s-0.3,0-0.3,0
			s-0.1-0.1-0.2-0.1c-0.1,0-0.3,0-0.3,0s-0.1,0.1-0.3,0.1c-0.2,0-0.2,0.1-0.7,0.1s-1.1,0-1.6,0c-0.5,0-2.1-0.1-2.1-0.1l-1.3-0.1
			l-0.6-0.1l-0.3-0.1l-0.5-0.1c0,0-0.2-0.1-0.3-0.3c0-0.2-0.2-0.2-0.4-0.2S72,12,71.8,11.8c-0.2-0.2-0.5-0.3-0.5-0.3L71,11.3
			L70.6,11.1z"/>
		<path fill="none" stroke="#878787" stroke-width="0.25" stroke-miterlimit="10" d="M65.4,10.7c-0.1,0-0.2,0-0.3,0.1
			s-0.1,0.2-0.2,0.3s-0.3,0.1-0.4,0.1c-0.1,0-0.2,0-0.3,0.1c-0.1,0.1-0.1,0.2-0.1,0.4c0,0.1-0.1,0.3-0.1,0.4s-0.2,0.1-0.2,0.3
			s0,0.1-0.1,0.4c-0.1,0.2-0.1,0.3-0.1,0.5c0,0.1-0.1,0.3-0.1,0.4s-0.2,0.4-0.2,0.6c0,0.1,0.1,0.4,0,0.5C63.1,14.8,63,15,63,15.2
			c0,0.2,0,0.5-0.1,0.6c0,0.1,0,0.5,0,0.6c0,0.1-0.1,0.4-0.1,0.6c0,0.2,0,0.6,0,0.7s0,0.3,0,0.4c0,0.1,0,0.3,0,0.3l0.1-0.1
			c0,0,0.1-0.1,0.2-0.2c0.1-0.1,0-0.1,0.2-0.2c0.2-0.1,0.5-0.4,0.5-0.4c0,0,0-0.2,0.1-0.4c0.1-0.2,0.1-0.2,0.2-0.4
			c0.1-0.2,0.2-0.2,0.3-0.3s0.2-0.1,0.3-0.3c0.1-0.2,0.2-0.4,0.3-0.5s0.2-0.3,0.2-0.4c0.1-0.1,0.4-0.6,0.4-0.6l0.3-0.5l0.2-0.4
			l0.2-0.7l0.3-0.6l0.3-0.4l0.4-0.3l0.2-0.1l0.4-0.1c0,0,0,0,0.2,0c0.1,0,0.2,0.2,0.2,0.3c0,0.1,0,0.2-0.1,0.4S68,12.6,68,12.7
			s0,0.2-0.1,0.4c-0.1,0.2-0.3,0.2-0.4,0.4c0,0.2-0.2,0.5-0.2,0.5s-0.1,0.2-0.3,0.4c-0.2,0.2-0.4,0.4-0.4,0.5c0,0.1-0.2,0.2-0.2,0.4
			s-0.2,0.3-0.3,0.3s-0.2,0.4-0.3,0.5c-0.1,0.1-0.3,0.4-0.3,0.4c0,0-0.3,0.3-0.3,0.3s-0.1,0.5-0.3,0.5c-0.1,0.1-0.4,0.3-0.4,0.4
			c0,0.1-0.1,0.2-0.2,0.4c-0.1,0.1-0.3,0.4-0.3,0.6c-0.1,0.1-0.1,0.3-0.2,0.4s-0.3,0.3-0.3,0.3c-0.1,0.1-0.1,0.3-0.1,0.4
			c0.1,0.1,0,0.3,0.1,0.4c0.1,0.1,0,0.1,0.2,0.2s0.3,0.2,0.5,0.3c0.2,0.1,0.4,0.2,0.5,0.2c0,0,0.4,0,0.5,0c0,0,0.2,0.1,0.3-0.1
			c0-0.1,0.1-0.4,0.1-0.5c0-0.1,0-0.3,0.2-0.4c0.2-0.1,0.3-0.5,0.3-0.6c0.1-0.1,0.2-0.3,0.4-0.4c0.2-0.1,0.6-0.3,0.6-0.4
			c0-0.1,0-0.4,0.1-0.5c0.1-0.1,0.4-0.6,0.4-0.7c0-0.1,0.4-0.4,0.5-0.5c0-0.1,0.2-0.5,0.3-0.5c0.1-0.1,0.4-0.2,0.5-0.3
			c0.1-0.1,0-0.1,0.2-0.4s0.3-0.2,0.4-0.3c0-0.1,0.1-0.4,0.1-0.5c0-0.2,0.4-0.1,0.5-0.2s0.1-0.5,0.1-0.5c0.1,0,0.4-0.3,0.4-0.3
			c0,0,0.2-0.3,0.2-0.4s-0.1-0.1-0.2-0.1c-0.1,0-0.6-0.4-0.6-0.4c0,0-0.2-0.2-0.3-0.3S69.1,12,69.1,12c0-0.1-0.2-0.3-0.2-0.3
			c0-0.1-0.1-0.3-0.2-0.3S68.3,11,68.3,11s0,0-0.2,0c-0.2,0-0.3,0-0.4,0c-0.1,0-0.4,0-0.4,0L67,10.7c0,0-0.1,0-0.3,0s-0.3-0.1-0.4,0
			c-0.1,0-0.6,0-0.6,0L65.4,10.7z"/>
		<path fill="none" stroke="#878787" stroke-width="0.25" stroke-miterlimit="10" d="M71.8,13.6c-0.2,0.1-0.3,0.3-0.4,0.4
			s-0.2,0.3-0.4,0.4s-0.3,0.1-0.4,0.3c-0.1,0.2-0.4,0.5-0.4,0.5s-0.3,0.5-0.4,0.5s-0.3-0.1-0.3,0.3c-0.1,0.4-0.2,0.4-0.3,0.4
			c-0.1,0-0.3,0.2-0.3,0.3c0,0.1,0,0.2-0.1,0.2s-0.4,0.4-0.4,0.4s-0.1,0.3-0.2,0.3c-0.1,0.1-0.2-0.3-0.2,0.3s-0.2,0.2-0.2,0.2
			s-0.1,0.2-0.2,0.3c0,0.1-0.1,0.5-0.1,0.5s-0.3,0.3-0.3,0.3c0,0-0.1,0.1-0.1,0.2c0,0.1-0.1-0.2-0.1,0.2C67,19.9,67,19.9,66.9,20
			c-0.1,0.1-0.2,0.1-0.2,0.2s-0.1,0.3,0,0.4c0.1,0.1,0.3,0.1,0.3,0.1c0,0,0.2-0.1,0.3-0.1s0.3-0.1,0.4-0.1c0,0,0.2-0.4,0.2-0.4
			s-0.1-0.1-0.1-0.2c0-0.1-0.1-0.4-0.1-0.4l0.4-0.1l0.4-0.3c0,0,0.1,0,0.5-0.1c0.4-0.1,0.6-0.3,0.6-0.3s0.5-0.3,0.6-0.3
			c0.1,0,0.4,0,0.4,0c0,0,0.3-0.2,0.5-0.3s0.3-0.7,0.5-0.8s0.5-0.6,0.5-0.6s0.3-0.4,0.3-0.4c0,0,0.4-0.6,0.4-0.6l0.4-0.6
			c0,0,0.2-0.5,0.3-0.5c0.1-0.1,0.4-0.5,0.4-0.5s0.1-0.4,0-0.4c-0.1,0-0.3-0.2-0.4-0.2s-0.3,0-0.4,0c-0.1,0-0.1-0.1-0.2-0.1
			c-0.1,0-0.2,0-0.4,0.1C72.2,13.5,71.8,13.6,71.8,13.6z"/>
		<path fill="none" stroke="#878787" stroke-width="0.25" stroke-miterlimit="10" d="M75.9,13.8c-0.1,0-0.1,0.3-0.3,0.4
			c-0.2,0-0.3,0.2-0.3,0.3s-0.4,0.4-0.5,0.6c-0.1,0.1-0.4,0.5-0.5,0.6c-0.1,0.1-0.2,0.4-0.3,0.6c-0.1,0.2-0.2,0.4-0.4,0.5
			c-0.2,0.1-0.2,0.2-0.4,0.5s-0.4,0.5-0.4,0.6c-0.1,0.1-0.4,0.3-0.4,0.4s-0.2,0.3-0.2,0.4c0.1,0.1,0.2,0.1,0.3,0.1
			c0.2,0,0.6,0,0.7,0c0.1,0,0.2-0.1,0.6-0.1c0.4,0.1,0.3-0.1,0.4,0.1c0.2,0.1,0.3,0.3,0.5,0.3c0.1,0,0.3,0.2,0.4,0.3
			c0,0,0.1,0.1,0.3,0.1c0.1-0.1,0.3-0.3,0.4-0.5c0.1-0.2,0-0.4,0.3-0.5c0.3-0.2,0.3-0.5,0.4-0.5c0.2-0.1,0.2-0.3,0.3-0.5
			c0.1-0.1,0.3-0.8,0.4-0.7c0.1,0,0.2-0.3,0.3-0.3c0.1-0.1,0.2-0.3,0.3-0.4c0.1-0.1,0.3-0.4,0.3-0.5c0,0,0.3-0.4,0.4-0.5
			s0.1-0.1,0.3-0.3c0.2-0.2,0.3-0.4,0.3-0.4c-0.1,0-0.1-0.4-0.1-0.4s-0.3,0-0.4,0.1c-0.1,0-0.4-0.2-0.6-0.1c-0.1,0-0.4-0.2-0.4-0.2
			s-0.3,0-0.3,0c-0.1,0-0.2,0-0.3,0.1c-0.1,0.1-0.3,0.1-0.3,0.1l-0.3-0.2c0,0-0.1-0.1-0.1-0.1C76.1,13.7,75.9,13.8,75.9,13.8z"/>
		<path fill="none" stroke="#878787" stroke-width="0.25" stroke-miterlimit="10" d="M80.7,13.8c-0.1,0-0.3,0.3-0.3,0.3
			s-0.1,0.1-0.3,0.1c-0.2,0.1-0.2,0.3-0.3,0.4s-0.3,0.4-0.3,0.5s-0.1,0.2-0.2,0.3c0,0.1-0.1,0.4-0.2,0.4S79,15.9,79,16
			c-0.1,0.1-0.1,0.2-0.3,0.3c-0.1,0.1-0.2,0.1-0.3,0.3c-0.1,0.2-0.1,0.2-0.2,0.4c-0.1,0.1-0.2,0.3-0.2,0.3c-0.1,0.1-0.2,0.1-0.3,0.2
			s0,0.3-0.2,0.3c-0.2,0.1-0.3,0-0.4,0.2S77,18.2,77,18.4c-0.1,0.1-0.2,0.1-0.3,0.2c0,0.1-0.1,0.2-0.1,0.3c-0.1,0.1-0.3,0.1-0.3,0.3
			s0,0.1-0.1,0.3c-0.1,0.2-0.2,0.3-0.2,0.4c0,0.1,0.1,0.3,0.1,0.3s0.2,0.5,0.3,0.5c0.1,0,0.2,0.2,0.2,0.3c0,0.1,0.2,0.4,0.2,0.4
			s0.1-0.1,0.1-0.3c0-0.1,0.1,0,0.2-0.3c0.1-0.3,0.2-0.4,0.2-0.5c0-0.1,0.3-0.1,0.3-0.3c0-0.2,0.2-0.3,0.3-0.3s0-0.3,0.2-0.5
			c0.2-0.2,0.2-0.5,0.3-0.6s0.1-0.3,0.2-0.3c0.1,0,0.3-0.4,0.3-0.4c0,0,0.3-0.4,0.3-0.4s0.2-0.2,0.2-0.3c0-0.1,0-0.5,0.1-0.5
			s0.4-0.2,0.4-0.3c0,0,0.1-0.4,0.2-0.5c0.1-0.1,0.4-0.5,0.4-0.5l0.3-0.5l0.3-0.2c0,0-0.1-0.5,0-0.5s0.2-0.2,0.2-0.2l-0.2-0.2H80.7z
			"/>
		<path fill="none" stroke="#878787" stroke-width="0.25" stroke-miterlimit="10" d="M87,11c0,0-0.1,0.2-0.3,0.2
			c-0.1,0-0.4,0.1-0.5,0.2c-0.1,0.1-0.3,0.3-0.4,0.3c0,0.1-0.2,0.1-0.3,0.2c-0.1,0.1-0.1,0.2-0.2,0.4c0,0.2-0.1,0.2-0.2,0.3
			c-0.1,0.1-0.3,0.2-0.5,0.3c-0.2,0.1-0.1,0-0.3,0.1c-0.2,0.1-0.5-0.2-0.6,0c-0.1,0.2-0.2,0.4-0.3,0.4c-0.1,0-0.4,0.1-0.5,0.1
			c0,0-0.4,0.3-0.5,0.5c-0.1,0.2-0.1,0.1-0.3,0.5c-0.3,0.3-0.4,0.6-0.4,0.6s-0.1,0.3-0.3,0.4c-0.1,0.1-0.2,0.1-0.2,0.3
			c0,0.2,0.2,0.4,0,0.5c-0.2,0.1-0.3,0.4-0.4,0.5s-0.4,0.3-0.4,0.4c-0.1,0.1,0,0.1-0.2,0.4c-0.2,0.3-0.1,0.1-0.3,0.5
			c-0.2,0.3,0,0.3-0.3,0.5c-0.3,0.3-0.3,0.1-0.5,0.4c-0.2,0.3-0.2,0.4-0.2,0.5s-0.2,0.2-0.3,0.4c-0.1,0.2-0.1,0.4-0.2,0.6
			s-0.3,0.3-0.3,0.4c-0.1,0.2,0,0.2-0.2,0.4c-0.1,0.2-0.2,0.2-0.2,0.2l-0.1,0.3c0,0-0.1,0.1-0.1,0.2c0,0.1,0,0.3-0.1,0.3
			c-0.1,0.1-0.3,0-0.3,0.2c0,0.2,0,0.4,0,0.8s0,0.9,0,1.1c0,0.3,0,0.5,0,0.7c0,0.2,0.2,0.5,0.2,0.6s0.3,0.4,0.3,0.4
			c0,0.1,0.2,0.2,0.3,0.3c0.1,0.1,0.1,0.4,0.3,0.3s0.5,0,0.6,0c0.1,0,0.2-0.1,0.4-0.3s0.4-0.2,0.4-0.2s0.1-0.1,0.1-0.3
			c0-0.2-0.1-0.1-0.1-0.4c0-0.3,0-0.3,0.1-0.4s0.2-0.3,0.2-0.4s0.5-0.2,0.5-0.2s0-0.3-0.1-0.3c-0.1,0-0.4-0.2-0.4-0.2s0-0.1,0.1-0.1
			s0.1-0.2,0.1-0.2l-0.3-0.1c0,0-0.2-0.3-0.2-0.4s0.1-0.2,0.1-0.2c0,0,0.1,0,0.1-0.1s0-0.1,0.1-0.2c0.1-0.1,0-0.5,0.1-0.6
			c0-0.1,0.1-0.1,0.2-0.2c0.1-0.1,0.2-0.7,0.2-0.7s0,0,0.2-0.1c0.1-0.1,0.2-0.4,0.2-0.5s0-0.3,0-0.4c0-0.1-0.1-0.4-0.1-0.5
			c0.1-0.1,0.3-0.4,0.3-0.4l0.6-0.5c0,0,0.6-0.3,0.6-0.4c0.1,0,0.9-0.2,0.9-0.2l0.5-0.1c0,0,0.3-0.7,0.3-0.7c0,0,0.1-0.2,0.1-0.3
			c0-0.1,0.3-0.4,0.3-0.4c0,0,0.4-0.4,0.3-0.5c0-0.1,0.2-0.2,0.2-0.2s0-0.3,0.1-0.3c0,0,0.3-0.5,0.3-0.5l0.1-0.2
			c0,0,0.2-0.2,0.3-0.3c0.1-0.1,0.2-0.3,0.2-0.3s0-0.3,0.1-0.3s0.3-0.1,0.3-0.1c0-0.1,0-0.5,0.1-0.5c0.1,0,0.4-0.2,0.4-0.2
			s0.2-0.3,0.3-0.4c0.1-0.1,0.3-0.6,0.3-0.6l0.2-0.1l0.1-0.3c0,0,0.3,0,0.3-0.1c0.1,0,0.3-0.2,0.3-0.2s0.1-0.1,0.2,0
			c0.1,0.1,0,0.2,0,0.3s0,0.2,0,0.4c0,0.1-0.1,0.1-0.2,0.3s-0.1,0.2-0.1,0.3c0,0.1,0.1,0-0.1,0.3c-0.2,0.3-0.2,0.3-0.3,0.4
			c-0.1,0.1,0.1,0.1-0.1,0.4c-0.3,0.3-0.2,0.4-0.3,0.5s-0.2,0.2-0.3,0.3c-0.1,0.2,0,0.3-0.2,0.4c-0.2,0.1-0.5,0.2-0.6,0.4
			c-0.1,0.2,0.1,0.4-0.2,0.5c-0.3,0.1-0.4,0.2-0.4,0.3c0,0.1,0,0.4-0.1,0.5c-0.1,0.1-0.5,0.2-0.5,0.2s0.1,0.4-0.1,0.5
			C85,18.1,85,18.1,85,18.2c0,0.1-0.3,0.5-0.3,0.5s-0.2,0.1-0.2,0.1c0.1,0.1,0,0.2,0.3,0.4s0.6,0.4,0.6,0.5c0.1,0.1,0.3,0.3,0.6,0.5
			s0.5,0.4,0.6,0.6s0.8,0.4,0.8,0.4s0.4,0.3,0.5,0.3s0.6,0.1,0.7,0.1c0.1,0,0.6,0,0.7,0s0.5,0,0.5-0.1s0.3-0.5,0.3-0.5l-0.2-0.4
			c0,0-0.1-0.4-0.1-0.4c0-0.1-0.1-0.1-0.1-0.2s-0.1-0.4-0.1-0.4c0-0.1,0.2-0.1,0.1-0.3c-0.1-0.2,0-0.4,0-0.5c0,0,0.2-0.2,0.2-0.2
			s0-0.3,0.1-0.3c0.1-0.1,0.2-0.3,0.3-0.3c0.1-0.1,0.4-0.3,0.4-0.5c0-0.2,0.1-0.2,0.2-0.2c0.1,0,0.3-0.1,0.3-0.3
			c0-0.2-0.2-0.7-0.2-0.7L91,15.5l0-0.3l-0.3-0.3c0,0-0.2,0.2-0.3,0.2c-0.1,0.1-0.4,0.4-0.4,0.4s-0.3,0.4-0.4,0.6
			c-0.1,0.2-0.4,0.4-0.4,0.5c0,0.1,0,0.4-0.2,0.4c-0.2,0.1-0.2,0.2-0.2,0.4c-0.1,0.2-0.2,0.5-0.3,0.6c-0.1,0.1-0.3,0.1-0.3,0.2
			c0,0.1-0.1,0.6-0.1,0.6s0,0.4-0.1,0.4s-0.5,0.1-0.5,0.1c-0.1,0-0.4-0.1-0.4-0.2c0-0.1,0-0.3,0-0.4s0-0.4,0.1-0.5
			c0.1-0.1,0-0.1,0.1-0.2c0.1-0.1,0.3-0.1,0.3-0.3s0.1-0.5,0.1-0.5c0-0.1,0.3-0.7,0.4-0.7c0,0,0.7-0.9,0.7-0.9l0.3-0.3
			c0,0,0.1-0.5,0.1-0.5s0.2,0,0.3-0.1c0.1-0.1,0.3-0.4,0.4-0.5c0.2-0.1,0.5-0.3,0.5-0.3s-0.1-0.3-0.2-0.4c-0.1-0.1-0.2-0.5-0.2-0.7
			c0-0.1-0.3-0.6-0.3-0.6s-0.1-0.4-0.3-0.4c-0.2,0-0.4-0.2-0.5-0.2c-0.1,0-0.5-0.2-0.5-0.2l-0.3-0.2L87.8,11L87.5,11L87,11z"/>
	</g>
	<g>
		<path fill="none" stroke="#878787" stroke-width="0.25" stroke-miterlimit="10" d="M7.4,9.7L7,9.9H6.7L6.4,10l-0.3,0.1
			c0,0-0.2,0-0.3,0c-0.1,0-0.5,0-0.5,0S5,10.1,5,10.1s-0.3,0-0.4,0.1s-0.3,0.2-0.4,0.2c-0.1,0-0.3,0-0.4,0.1
			c-0.2,0.1-0.2,0.2-0.4,0.2S3,10.9,2.8,10.9c-0.2,0-0.5,0.2-0.6,0.2c-0.1,0.1-0.5,0.5-0.6,0.5S1,12.6,1,12.6l-0.3,0.9l-0.3,1.1v1
			l-0.1,1.3l-0.1,1.4l-0.1,1.4v0.5c0,0,0,0.2,0.1,0.4c0.1,0.2,0.2,0.4,0.2,0.4l0.2,0.4c0,0,0.2,0.3,0.2,0.3c0,0,0.4,0.3,0.4,0.3
			l0.4,0.3l0.4,0.2c0,0,0.3,0.2,0.3,0.2c0,0,0.3,0.1,0.3,0.1l0.5,0c0,0-0.2,0.6-0.2,0.6c0,0.1,0.3,0.1,0.3,0.2s0.3,0.1,0.4,0
			c0.2-0.3,0.8,0,0.8,0s-0.1,0,0,0c0.1,0,0.7,0,0.8,0s1,0,1,0l0.6-0.1l0.4-0.2l0.5-0.2l0.7-0.5c0,0,0.5-0.2,0.5-0.2s0.4-0.1,0.4-0.1
			s0-0.2,0.1-0.2s0.4-0.3,0.4-0.3l0.2-0.1c0,0,0.2-0.1,0.2-0.2c0-0.1,0-0.6,0.1-0.7s0.5-0.2,0.5-0.2s0.1-0.1,0.2-0.1
			s0.7-0.2,0.7-0.2l1,0l1.1,0.2c0,0,0.3,0.3,0.3,0.3c0,0.1,0.2,0.1,0.2,0.2c0.3,0.6,0.6,0,0.6,0l0.3-0.2c0,0,0.1-0.2,0.1-0.2
			s0.2-0.1,0.2-0.1s0.5-0.2,0.6-0.2c0.1,0,0.6,0.1,0.6,0.1l0.4-0.2c0,0,0.4,0.1,0.4,0.1s0.7-0.1,0.7-0.1l0.6-0.1l0.5,0l0.3,0
			l0.2,0.1c0,0,0.1,0,0.2,0s0.3,0.1,0.3,0.1l0.3,0.1c0,0,0.1,0.2,0.4,0.3c0.2,0.1,0.5,0.2,0.5,0.2l0.5,0.1l0.5,0.4l0.3,0.1l0.7,0.1
			l0.6,0.2l0.6,0.1l0.8,0l0.2,0l0.7-0.3l1.1-0.2l0.5-0.2l0.3-0.1l0.3-0.1c0,0,0.6-0.2,0.6-0.2c0,0,0.2-0.1,0.2-0.1l0.6-0.2l0.6-0.4
			l0.2-0.1l0.1-0.1l0.1-0.2l0.2-0.2l0.1-0.3v-0.3l0.2-0.2l0.3-0.4L32,18L32,17.9l0-0.3l0.3-0.4v-0.4v-1.4v-0.7V14l0.1-0.2l0-0.3
			l0-0.4L32,12.8l0-0.7l-0.2-0.4l0-0.4l-0.3-0.4l-0.3-0.5L31,10.1l-0.4-0.4l-0.2-0.2l-0.4,0h-0.4l-0.3,0.2l-0.4,0.1
			c0,0-0.3,0.1-0.3,0.1s-0.1,0.3-0.1,0.3c0,0-0.2,0-0.3,0.1s-0.3,0.3-0.4,0.4c-0.1,0.1-0.3,0.3-0.3,0.3s-0.7,0.4-0.7,0.4
			c0,0-0.7,0.4-0.7,0.4l-0.6,0.1l-0.7,0.1L23.7,12l-0.9,0.1h-0.9L21.5,12l-0.2-0.3l0.1-0.1l-0.1-0.2l-0.4,0.1l-0.2,0.1l-0.4,0.2
			c0,0-0.3,0.1-0.3,0.2c0,0-0.2,0.2-0.2,0.2s-0.5,0-0.8,0c-0.3,0-1.1-0.1-1.3-0.1c-0.2,0-0.7,0-1,0s-1.1,0-1.1,0
			c0,0-0.5-0.1-0.6-0.1c-0.1,0-0.2-0.1-0.2-0.1l-0.3,0l-0.8,0l-0.3-0.1l-0.3-0.1L13,11.4c0,0-0.3-0.4-0.3-0.5c0,0-0.3-0.2-0.3-0.3
			c0,0-0.4-0.3-0.4-0.3c0,0-0.5-0.2-0.5-0.2S11,10,11,10c0,0-0.3,0-0.4,0c-0.2,0-0.4,0.2-0.4,0.2c0,0-0.5,0.1-0.5,0.1
			c0,0-0.2-0.1-0.2-0.1s-0.1,0-0.3,0s-0.4,0-0.5,0s-0.4,0-0.6,0c-0.1,0-0.2,0-0.2,0s0-0.2-0.1-0.2C7.6,9.9,7.4,9.7,7.4,9.7z"/>
		<path fill="none" stroke="#878787" stroke-width="0.25" stroke-miterlimit="10" d="M5.2,10.8c0,0-0.6,0.1-0.7,0.1S4.1,10.9,4,11
			c-0.1,0-0.3,0.1-0.4,0.2c-0.1,0.1-0.1,0.3-0.3,0.3c-0.1,0.1-0.2,0.2-0.2,0.3C3.1,11.9,3,12,3,12.2c-0.1,0.2-0.2,0.3-0.2,0.4
			c0,0.1-0.2,0.5-0.2,0.5s-0.1,0.4-0.1,0.5s0,0.8,0,0.8L2.7,15c0,0,0.2,0.5,0.2,0.5c0,0,0,0.5,0,0.6c0,0.1,0.1,0.3,0.1,0.3l0.2,0.3
			l-0.1,0.4h0.2c0,0,0.2-0.4,0.3-0.4c0-0.1,0.3-0.6,0.3-0.6c0,0,0.2-0.4,0.2-0.5s0.1-0.1,0.2-0.2c0.1,0,0.3-0.2,0.3-0.4
			c0-0.1,0.2-0.5,0.2-0.6c0-0.1,0-0.5,0-0.6c0,0,0.3-0.1,0.3-0.2c0-0.1,0-0.3,0-0.5s0.2-0.3,0.2-0.3v-0.4l0.1-0.3l0.1-0.3l0.1-0.2
			v-0.3l-0.1-0.2v-0.3H5.2z"/>
		<path fill="none" stroke="#878787" stroke-width="0.25" stroke-miterlimit="10" d="M8.1,11.1l-0.4,0.1l-0.2,0.4l-0.1,0.5
			c0,0-0.3,0.2-0.3,0.3s-0.2,0.4-0.2,0.4c0,0.1-0.1,0.2-0.1,0.3c0,0.2-0.1,0.3-0.1,0.4c0,0.1-0.3,0.2-0.3,0.3c0,0.1-0.2,0.5-0.2,0.5
			S6,14.6,6,14.7c0,0.1-0.1,0.3-0.2,0.4s-0.1,0.3-0.2,0.4c-0.1,0.1-0.3,0.3-0.4,0.4S5,15.8,5,16.1c0,0.3-0.2,0.5-0.2,0.5
			s0.1,0.3,0,0.3c-0.1,0.1-0.3,0.1-0.3,0.2s0.1,0.3,0,0.4c-0.1,0.1-0.1,0.1-0.2,0.2S4.1,18,4,18.1c0,0.1-0.1,0.1-0.2,0.2
			s-0.1,0.2-0.1,0.3c-0.1,0.1-0.2,0.1-0.2,0.2S3.4,19,3.4,19l-0.2,0.2c0,0,0,0.6,0,0.8c0,0.2-0.1,0.4,0,0.5c0.1,0.1,0.1,0.2,0.1,0.2
			c0,0.1,0.1,0.3,0.1,0.3l0.3,0.2l0.2,0.2c0,0,0.1,0.1,0.2,0c0-0.1,0.1-0.3,0.1-0.4c0-0.1,0.2-0.3,0.2-0.3l0.3-0.2l0.1-0.1l0-0.4
			c0,0,0.2-0.2,0.3-0.3c0.1-0.1,0.1-0.4,0.3-0.5s0.3-0.4,0.3-0.5c0-0.1,0.1-0.3,0.1-0.4c0-0.1,0.2-0.2,0.3-0.3
			c0.1-0.2,0.3-0.6,0.3-0.7c0-0.1,0.3-0.7,0.4-0.8C6.9,16.5,7.2,16,7.2,16l0.3-0.1l0-0.5l0.3-0.5L8,14.4c0,0,0.3-0.1,0.3-0.2
			c0,0,0-0.3,0-0.3l0.3-0.2c0,0,0.2-0.2,0.2-0.2s0.1-0.4,0.1-0.5c0-0.1,0.2-0.4,0.2-0.4l0.2-0.2c0,0,0.1-0.2,0.2-0.3
			c0.1-0.1,0.2-0.4,0.2-0.4l-0.4-0.2l-0.2-0.2c0,0-0.1,0-0.2-0.1s-0.1-0.3-0.1-0.3H8.5H8.1z"/>
		<path fill="none" stroke="#878787" stroke-width="0.25" stroke-miterlimit="10" d="M10.7,13.1l-0.3,0.2c0,0-0.3,0-0.3,0.1
			c0,0.1-0.1,0.4-0.1,0.5c0,0.1-0.2,0.1-0.3,0.2c0,0.1-0.1,0.4-0.2,0.5C9.5,14.8,9.5,15,9.5,15c0,0.1-0.4,0.4-0.4,0.5
			c-0.1,0.1-0.2,0.4-0.3,0.4c-0.1,0-0.5,0.6-0.5,0.6L8,16.9c0,0-0.3,0.4-0.3,0.5c0,0.1,0,0.3-0.1,0.3c-0.1,0.1-0.2,0.1-0.3,0.2
			c-0.1,0.1-0.1,0.1-0.1,0.3c0,0.2-0.3,0.4-0.3,0.5c-0.1,0.1-0.3,0.5-0.3,0.5l-0.3,0.2c0,0-0.1,0.1-0.2,0.3
			c-0.1,0.1-0.4,0.4-0.4,0.5c-0.1,0.1-0.3,0.4-0.3,0.5c-0.1,0.2-0.2,0.5-0.3,0.6c-0.1,0.1-0.3,0.4-0.3,0.4l-0.1,0.1
			c0,0,0.2,0,0.2,0.2s0.4,0.2,0.4,0.2c0,0,0.2,0.1,0.3,0.2s0.3,0.1,0.4,0.1c0.1,0-0.1,0.1,0.5,0.1c0.5,0,0.6,0.1,0.8,0.1
			c0.2,0,0.6,0.1,0.6,0c0-0.1,0.3-0.3,0.4-0.3s0.3-0.2,0.3-0.3c0.1-0.1,0.2-0.1,0.3-0.3c0-0.2,0-0.7,0-0.7c0,0,0.1-0.2,0.2-0.4
			c0.1-0.2,0.4-0.7,0.4-0.7c0-0.1,0.6-1.1,0.6-1.1l0.4-0.6l0.5-0.8l0.4-0.8c0,0,0.4-0.3,0.5-0.6c0.1-0.2,0.4-0.7,0.4-0.7l0.3-0.4
			l0.3-0.2l0.3-0.5L13,14.1L12.9,14l-0.2-0.2c0,0-0.3-0.3-0.4-0.3s-0.3-0.2-0.3-0.2c0,0-0.2-0.1-0.2-0.1c-0.1,0-0.4-0.1-0.4-0.1
			L11,13L10.7,13.1z"/>
		<path fill="none" stroke="#878787" stroke-width="0.25" stroke-miterlimit="10" d="M14.8,14.3l-0.4,0.2c0,0-0.4,0.6-0.5,0.7
			c0,0-0.3,0.4-0.3,0.4c0,0-0.2,0.3-0.2,0.3c0,0-0.5,0.7-0.6,0.8s0,0.2-0.1,0.3c-0.2,0.1-0.3,0.2-0.4,0.3c-0.1,0.1-0.1,0.3-0.1,0.3
			c0,0.1-0.3,0.4-0.3,0.4c0,0.1-0.3,0.3-0.4,0.5c-0.1,0.1-0.2,0.4-0.3,0.5c-0.1,0.1-0.3,0.4-0.3,0.4l-0.1,0.4H11
			c0,0,0.2-0.1,0.3-0.1s0.2-0.1,0.4-0.1c0.2,0,0.3-0.2,0.4-0.3c0.2,0,0.5-0.1,0.6-0.1c0.1,0,0.7,0,0.7,0h0.2c0,0,0.3,0.1,0.3,0
			c0,0,0.1-0.1,0.3-0.1s0.4,0.1,0.4,0c0-0.1,0-0.3,0.1-0.5c0.1-0.1,0.4-0.7,0.4-0.7s0.4-0.8,0.4-0.8c0-0.1,0.6-0.7,0.6-0.8
			c0-0.1,0.2-0.3,0.2-0.3c0,0,0.1-0.2,0.1-0.2c0,0,0.3-0.2,0.3-0.3c0-0.1,0.2-0.3,0.3-0.4c0.1-0.2,0.2-0.3,0.2-0.4
			c0.1-0.1,0.3-0.4,0.3-0.4L18,14c0,0-0.1-0.2-0.2-0.2s-0.4-0.1-0.5,0c-0.2,0.1-0.4,0.2-0.4,0.2s-0.3,0-0.5,0.1
			c-0.2,0-0.8,0-0.8,0.1c-0.1,0.1,0,0.1-0.1,0.2C15.3,14.3,14.9,14.3,14.8,14.3C14.8,14.3,14.8,14.3,14.8,14.3z"/>
		<path fill="none" stroke="#878787" stroke-width="0.25" stroke-miterlimit="10" d="M20.8,13.3c-0.1,0-0.1,0.3-0.3,0.4
			c-0.2,0-0.3,0.1-0.4,0.1s-0.3,0-0.4,0.1c-0.1,0.1-0.2,0.4-0.3,0.5s-0.1,0.2-0.2,0.3s-0.3,0.3-0.3,0.4c-0.1,0.1-0.3,0.3-0.4,0.4
			C18.3,15.6,18,16,18,16s-0.1,0.2-0.2,0.4c-0.1,0.2-0.2,0.1-0.3,0.3c-0.1,0.2-0.1,0.3-0.2,0.4s-0.4,0.3-0.5,0.3
			c0,0-0.3,0.2-0.3,0.4c0,0.2,0,0.3-0.1,0.4s-0.1,0.3-0.3,0.4C16,18.7,16,18.8,16,18.8c0,0-0.1,0.3-0.1,0.3v0.1v0.2l0.8-0.1l0.8,0
			c0,0,0.4,0,0.4,0c0,0,0.7,0,0.7,0s0.7,0.1,0.7,0.1s0.4,0,0.6,0c0.1,0,0.4-0.1,0.5-0.1c0.1,0,0.3,0,0.3-0.1c0,0,0.3-0.7,0.3-0.7
			c0,0,0.5-0.5,0.5-0.7c0-0.1,0.4-0.9,0.5-0.9s0.3-0.5,0.4-0.7s0.4-0.8,0.4-0.8s0.3-0.5,0.4-0.7c0.1-0.1,0.5-0.7,0.5-0.7l0.4-0.3
			l0.1-0.3l0.2-0.4c0,0,0.2-0.2,0.3-0.3c0.1-0.1,0.2-0.3,0-0.3c-0.2,0-0.7-0.1-0.8,0c-0.2,0.1-0.4,0.1-0.5,0.1c-0.1,0-0.4,0-0.8,0.1
			c-0.4,0.1-0.2,0.2-0.5,0.3c-0.3,0.1-0.4,0.1-0.6,0.1C21.3,13.3,20.8,13.3,20.8,13.3z"/>
		<path fill="none" stroke="#878787" stroke-width="0.25" stroke-miterlimit="10" d="M28.6,10.8c0,0-0.2,0.1-0.3,0.2
			c0,0.1,0,0.2-0.2,0.3c-0.1,0.2-0.2,0.3-0.4,0.4c-0.2,0-0.2-0.1-0.5,0.2c-0.3,0.2-0.5,0.5-0.5,0.5s-0.1,0,0,0.1s0.3,0.2,0.2,0.3
			c-0.1,0-0.1,0-0.3,0.1c-0.2,0.1-0.1,0.1-0.3,0.2c-0.1,0.1-0.3,0.2-0.4,0.3c-0.1,0.1-0.3,0.4-0.3,0.4s0.1,0.2-0.1,0.3
			c-0.1,0.1-0.1,0.1-0.4,0.3c-0.3,0.3-0.4,0.3-0.5,0.4c-0.1,0.2-0.1,0.4-0.2,0.5c0,0.1-0.1,0.3-0.2,0.4s-0.2,0.2-0.3,0.3
			s-0.2,0.5-0.3,0.5c-0.1,0-0.3,0.1-0.4,0.2c0,0.1-0.3,0.4-0.3,0.5s-0.1,0.4-0.2,0.5c-0.1,0.1-0.4,0.2-0.4,0.3
			c0,0.1-0.1,0.5-0.2,0.5s-0.2,0.1-0.2,0.2c0,0.1,0,0.3,0,0.3s0.5-0.1,0.5,0s0,0.3,0.2,0.3s0.3,0.1,0.3,0.1l0.2,0.3l0.3,0.2
			c0,0,0.1,0.1,0.2,0.2c0.1,0.1,0.2,0.2,0.2,0.2h0.1c0,0,0-0.3,0-0.3c0-0.1,0.1-0.3,0.2-0.3c0.1,0,0.2-0.3,0.2-0.5
			c0-0.1,0.1-0.2,0.2-0.4c0.1-0.1,0-0.3,0.1-0.3c0.1-0.1,0.1-0.3,0.2-0.4s0.2-0.1,0.3-0.2s0.1-0.6,0.1-0.6c0.1,0,0.4-0.3,0.4-0.3
			l0.2-0.3c0,0,0.2-0.3,0.2-0.3c0,0,0.3-0.5,0.3-0.5s0.1-0.1,0.1-0.3c0.1-0.1,0.2-0.3,0.2-0.4s0.3-0.4,0.3-0.4l0.2-0.3l0-0.4
			l0.2-0.3c0,0,0.1,0,0.1,0c0,0,0.1-0.2,0.1-0.3c0-0.1,0.1-0.2,0.2-0.2s0.1-0.4,0.1-0.4s0.2,0,0.3-0.1c0.1,0,0.1-0.2,0.2-0.3
			c0.1-0.1,0.2-0.1,0.3-0.2c0.1-0.1,0.3-0.3,0.3-0.3c0,0,0.1-0.3,0.1-0.4c0,0-0.1-0.3-0.2-0.3c-0.1-0.1-0.1-0.3-0.1-0.3l-0.3-0.1
			H28.6z"/>
		<path fill="none" stroke="#878787" stroke-width="0.25" stroke-miterlimit="10" d="M29.4,14.1c0,0-0.1,0.1-0.2,0.1
			c-0.1,0-0.2,0.1-0.3,0.3c-0.1,0.2,0,0.3-0.2,0.4c-0.2,0.1-0.2,0-0.3,0.3c-0.2,0.3-0.2,0.2-0.4,0.5s-0.4,0.5-0.5,0.6
			c-0.1,0.1-0.1,0.3-0.3,0.5c-0.1,0.2-0.1,0.2-0.2,0.4c-0.1,0.2-0.2,0.2-0.4,0.5c-0.2,0.3-0.1,0.3-0.2,0.5c-0.1,0.1-0.1,0.3-0.3,0.5
			c-0.2,0.2-0.2,0.4-0.3,0.4c0,0.1-0.4,0.2-0.3,0.4c0,0.2-0.1,0.2-0.1,0.4s0,0.4,0,0.4s0.2,0.1,0.2,0.1c0.1,0,0.3,0.1,0.4,0
			c0.1-0.1,0-0.2,0.3-0.2c0.3,0,0.5,0,0.6-0.1c0.1-0.1,0-0.1,0.3-0.3c0.3-0.1,0.4-0.1,0.5-0.2c0.1,0,0.2-0.1,0.2-0.1
			c0,0,0.4-0.2,0.4-0.2s0.2,0,0.3-0.1c0.1-0.1-0.1-0.4,0.1-0.6c0.2-0.2,0.2-0.3,0.3-0.4c0-0.1,0.1-0.4,0.1-0.5s0.1-0.4,0.2-0.5
			c0-0.1,0.2-0.3,0.3-0.3s0.2-0.3,0.2-0.4s-0.1-0.4-0.1-0.5s0.1-0.5,0.1-0.5l0.1-0.2c0,0,0.1-0.5,0.1-0.5s-0.1-0.3-0.1-0.3
			s-0.3-0.1-0.3-0.2S29.4,14.1,29.4,14.1z"/>
		<path fill="none" stroke="#878787" stroke-width="0.25" stroke-miterlimit="10" d="M15.9,12.6l-0.1,0.1l-0.1,0.1
			c0,0-0.1,0.1-0.1,0.2s0.2,0.1,0.2,0.1h0.3l0.6,0.1c0,0,0.5,0,0.6,0s0.3-0.1,0.5-0.1c0.2,0,0.6-0.1,0.7,0c0.1,0.1,0.4,0,0.4,0
			S19,13,19,12.9c0-0.1-0.2-0.2-0.3-0.2c-0.1,0-0.2,0-0.4,0s-0.5,0-0.7,0s-0.4,0-0.5,0c-0.1,0-0.2,0-0.5,0c-0.3,0-0.2,0-0.3,0
			C16.1,12.7,15.9,12.6,15.9,12.6z"/>
		<path fill="none" stroke="#878787" stroke-width="0.25" stroke-miterlimit="10" d="M28.2,19.9c0,0-0.1,0-0.2,0.1
			c-0.1,0.1-0.3,0.2-0.3,0.2s0,0.1-0.1,0.2c-0.1,0.1-0.2,0.1-0.3,0.1s-0.3-0.1-0.3,0c-0.1,0.1-0.2,0.2-0.2,0.2h-0.3
			c0,0-0.2-0.1-0.3,0c-0.1,0.1-0.1,0.2-0.1,0.3c0.1,0.1,0.1,0.1,0.1,0.1s0.1,0,0.2,0c0.1,0,0.2,0,0.3-0.1c0.1-0.1,0.1-0.1,0.3-0.1
			c0.1,0,0.2,0,0.2,0.1c0.1,0,0.2,0.1,0.3,0c0.1-0.1,0.4-0.1,0.4-0.1s0.2-0.1,0.2-0.2s0.1,0,0.1-0.2s0-0.3,0-0.3v-0.3H28.2z"/>
	</g>
	<g>
		<path d="M75.5,11.3c-0.7-0.8-1.6-2.4-1.6-4.6c0-1.6,0.5-3.2,1.6-4.5h0.3c-0.9,1.1-1.6,2.6-1.6,4.5c0,2.4,1.1,4,1.6,4.6H75.5z"/>
		<path d="M78.7,4.7v0.2h-0.2c-0.5,0-0.5,0.3-0.5,0.7V8c0,0.6,0.1,0.6,0.7,0.7v0.2h-2V8.6c0.6,0,0.7-0.1,0.7-0.7V5.7
			c0-0.5,0-0.8-0.5-0.8h-0.2V4.7H78.7z"/>
		<path d="M79.9,2.2c0.7,0.8,1.6,2.4,1.6,4.6c0,1.6-0.5,3.2-1.6,4.5h-0.3c0.9-1.1,1.6-2.6,1.6-4.5c0-2.4-1.1-4-1.6-4.6H79.9z"/>
	</g>
	<g>
		<path d="M18.8,10.7c-0.7-0.8-1.6-2.4-1.6-4.6c0-1.6,0.5-3.2,1.6-4.5h0.3c-0.9,1.1-1.6,2.6-1.6,4.5c0,2.4,1.1,4,1.6,4.6H18.8z"/>
		<path d="M22.8,8.7h-0.2c0-0.3,0-0.4-0.4-0.4h-2.6V8.1c2.2-1.5,2.6-2,2.6-2.9c0-0.5-0.3-1-0.9-1c-0.7,0-1.3,0.5-1.3,1.1
			c0,0.3,0.1,0.4,0.3,0.7c-0.1,0.1-0.4,0.2-0.5,0.2c-0.1,0-0.3-0.3-0.3-0.7c0-0.8,0.8-1.5,1.9-1.5c0.9,0,1.6,0.5,1.6,1.2
			c0,0.6-0.6,1.2-1,1.5c-0.9,0.6-1,0.7-1.5,1v0H23L22.8,8.7z"/>
		<path d="M23.9,1.6c0.7,0.8,1.6,2.4,1.6,4.6c0,1.6-0.5,3.2-1.6,4.5h-0.3c0.9-1.1,1.6-2.6,1.6-4.5c0-2.4-1.1-4-1.6-4.6H23.9z"/>
	</g>
</g>
</svg>
