<svg xmlns="http://www.w3.org/2000/svg" xmlns:xlink="http://www.w3.org/1999/xlink" viewBox="0 0 434.94 429.06"><defs><style>.cls-1{fill:url(#linear-gradient);}.cls-2{fill:url(#linear-gradient-2);}.cls-3{fill:url(#linear-gradient-3);}.cls-4{fill:url(#linear-gradient-4);}.cls-5{fill:url(#linear-gradient-5);}.cls-6{fill:url(#linear-gradient-6);}.cls-7{fill:url(#linear-gradient-7);}.cls-8{fill:url(#linear-gradient-8);}.cls-9{fill:url(#linear-gradient-9);}.cls-10{fill:url(#linear-gradient-10);}.cls-11{fill:url(#linear-gradient-11);}.cls-12{fill:url(#linear-gradient-12);}.cls-13{fill:url(#linear-gradient-13);}.cls-14{fill:url(#linear-gradient-14);}.cls-15{fill:url(#linear-gradient-15);}.cls-16{fill:url(#linear-gradient-16);}.cls-17{fill:url(#linear-gradient-17);}.cls-18{fill:url(#linear-gradient-18);}.cls-19{fill:url(#linear-gradient-19);}.cls-20{fill:url(#linear-gradient-20);}.cls-21{fill:url(#linear-gradient-21);}.cls-22{fill:url(#linear-gradient-22);}.cls-23{fill:url(#linear-gradient-23);}.cls-24{fill:url(#linear-gradient-24);}.cls-25{fill:url(#linear-gradient-25);}.cls-26{fill:url(#linear-gradient-26);}.cls-27{fill:url(#linear-gradient-27);}.cls-28{fill:url(#linear-gradient-28);}.cls-29{fill:url(#linear-gradient-29);}.cls-30{fill:url(#linear-gradient-30);}.cls-31{fill:url(#linear-gradient-31);}.cls-32{fill:url(#linear-gradient-32);}.cls-33{fill:url(#linear-gradient-33);}.cls-34{fill:url(#linear-gradient-34);}.cls-35{fill:url(#linear-gradient-35);}.cls-36{fill:url(#linear-gradient-36);}.cls-37{fill:url(#linear-gradient-37);}.cls-38{fill:url(#linear-gradient-38);}.cls-39{fill:url(#linear-gradient-39);}.cls-40{fill:url(#linear-gradient-40);}.cls-41{fill:url(#linear-gradient-41);}.cls-42{fill:url(#linear-gradient-42);}.cls-43{fill:url(#linear-gradient-43);}.cls-44{fill:url(#linear-gradient-44);}.cls-45{fill:url(#linear-gradient-45);}.cls-46{fill:url(#linear-gradient-46);}.cls-47{fill:url(#linear-gradient-47);}.cls-48{fill:url(#linear-gradient-48);}.cls-49{fill:url(#linear-gradient-49);}.cls-50{fill:url(#linear-gradient-50);}.cls-51{fill:url(#linear-gradient-51);}.cls-52{fill:url(#linear-gradient-52);}.cls-53{fill:url(#linear-gradient-53);}.cls-54{fill:url(#linear-gradient-54);}.cls-55{fill:url(#linear-gradient-55);}.cls-56{fill:url(#linear-gradient-56);}.cls-57{fill:url(#linear-gradient-57);}.cls-58{fill:url(#linear-gradient-58);}.cls-59{fill:url(#linear-gradient-59);}.cls-60{fill:url(#linear-gradient-60);}.cls-61{fill:url(#linear-gradient-61);}.cls-62{fill:url(#linear-gradient-62);}.cls-63{fill:url(#linear-gradient-63);}.cls-64{fill:url(#linear-gradient-64);}.cls-65{fill:url(#linear-gradient-65);}.cls-66{fill:url(#linear-gradient-66);}.cls-67{fill:url(#linear-gradient-67);}.cls-68{fill:url(#linear-gradient-68);}.cls-69{fill:url(#linear-gradient-69);}.cls-70{fill:url(#linear-gradient-70);}.cls-71{fill:url(#linear-gradient-71);}.cls-72{fill:url(#linear-gradient-72);}.cls-73{fill:url(#linear-gradient-73);}.cls-74{fill:url(#linear-gradient-74);}.cls-75{fill:url(#linear-gradient-75);}.cls-76{fill:url(#linear-gradient-76);}.cls-77{fill:url(#linear-gradient-77);}.cls-78{fill:url(#linear-gradient-78);}.cls-79{fill:url(#linear-gradient-79);}.cls-80{fill:url(#linear-gradient-80);}.cls-81{fill:url(#linear-gradient-81);}.cls-82{font-size:10px;fill:#181716;font-family:BaskervilleMTPro-Regular, Baskerville MT Pro;}</style><linearGradient id="linear-gradient" x1="9.5" y1="75.93" x2="137.5" y2="75.93" gradientUnits="userSpaceOnUse"><stop offset="0" stop-color="#9c9c9c"/><stop offset="0.21" stop-color="#989898"/><stop offset="0.42" stop-color="#8c8c8c"/><stop offset="0.63" stop-color="#797979"/><stop offset="0.83" stop-color="#5d5d5d"/><stop offset="1" stop-color="#404040"/></linearGradient><linearGradient id="linear-gradient-2" x1="118.06" y1="20.03" x2="126.38" y2="20.03" xlink:href="#linear-gradient"/><linearGradient id="linear-gradient-3" x1="14.25" y1="11.17" x2="16.23" y2="11.17" xlink:href="#linear-gradient"/><linearGradient id="linear-gradient-4" x1="17.81" y1="13.47" x2="21.06" y2="13.47" xlink:href="#linear-gradient"/><linearGradient id="linear-gradient-5" x1="20.62" y1="15.56" x2="24.26" y2="15.56" xlink:href="#linear-gradient"/><linearGradient id="linear-gradient-6" x1="23.48" y1="17.47" x2="27.5" y2="17.47" xlink:href="#linear-gradient"/><linearGradient id="linear-gradient-7" x1="25.44" y1="18.97" x2="29.31" y2="18.97" xlink:href="#linear-gradient"/><linearGradient id="linear-gradient-8" x1="27.73" y1="21.92" x2="32.09" y2="21.92" xlink:href="#linear-gradient"/><linearGradient id="linear-gradient-9" x1="30.02" y1="24.28" x2="34.61" y2="24.28" xlink:href="#linear-gradient"/><linearGradient id="linear-gradient-10" x1="32.13" y1="26.26" x2="37.19" y2="26.26" xlink:href="#linear-gradient"/><linearGradient id="linear-gradient-11" x1="34.5" y1="29.14" x2="39.07" y2="29.14" xlink:href="#linear-gradient"/><linearGradient id="linear-gradient-12" x1="36.49" y1="31.69" x2="41.31" y2="31.69" xlink:href="#linear-gradient"/><linearGradient id="linear-gradient-13" x1="38.4" y1="34.58" x2="43.43" y2="34.58" xlink:href="#linear-gradient"/><linearGradient id="linear-gradient-14" x1="40.31" y1="37.52" x2="45.83" y2="37.52" xlink:href="#linear-gradient"/><linearGradient id="linear-gradient-15" x1="42.5" y1="40.41" x2="47.89" y2="40.41" xlink:href="#linear-gradient"/><linearGradient id="linear-gradient-16" x1="44.7" y1="43.37" x2="49.56" y2="43.37" xlink:href="#linear-gradient"/><linearGradient id="linear-gradient-17" x1="46.18" y1="46.68" x2="52.06" y2="46.68" xlink:href="#linear-gradient"/><linearGradient id="linear-gradient-18" x1="47.99" y1="50.02" x2="53.69" y2="50.02" xlink:href="#linear-gradient"/><linearGradient id="linear-gradient-19" x1="49.66" y1="53.3" x2="55.38" y2="53.3" xlink:href="#linear-gradient"/><linearGradient id="linear-gradient-20" x1="51.06" y1="56.08" x2="56.38" y2="56.08" xlink:href="#linear-gradient"/><linearGradient id="linear-gradient-21" x1="52.69" y1="59.36" x2="58.43" y2="59.36" xlink:href="#linear-gradient"/><linearGradient id="linear-gradient-22" x1="54.38" y1="62.95" x2="60.16" y2="62.95" xlink:href="#linear-gradient"/><linearGradient id="linear-gradient-23" x1="55.85" y1="66.53" x2="61.7" y2="66.53" xlink:href="#linear-gradient"/><linearGradient id="linear-gradient-24" x1="57.18" y1="70.22" x2="62.75" y2="70.22" xlink:href="#linear-gradient"/><linearGradient id="linear-gradient-25" x1="58.44" y1="73.84" x2="64.16" y2="73.84" xlink:href="#linear-gradient"/><linearGradient id="linear-gradient-26" x1="59.71" y1="78.24" x2="65.31" y2="78.24" xlink:href="#linear-gradient"/><linearGradient id="linear-gradient-27" x1="60.8" y1="81.82" x2="66.2" y2="81.82" xlink:href="#linear-gradient"/><linearGradient id="linear-gradient-28" x1="62.01" y1="85.8" x2="67.06" y2="85.8" xlink:href="#linear-gradient"/><linearGradient id="linear-gradient-29" x1="63" y1="90.08" x2="67.97" y2="90.08" xlink:href="#linear-gradient"/><linearGradient id="linear-gradient-30" x1="63.36" y1="93.9" x2="68.8" y2="93.9" xlink:href="#linear-gradient"/><linearGradient id="linear-gradient-31" x1="64.15" y1="97.63" x2="69.46" y2="97.63" xlink:href="#linear-gradient"/><linearGradient id="linear-gradient-32" x1="64.58" y1="101.23" x2="70.12" y2="101.23" xlink:href="#linear-gradient"/><linearGradient id="linear-gradient-33" x1="64.99" y1="104.86" x2="70.54" y2="104.86" xlink:href="#linear-gradient"/><linearGradient id="linear-gradient-34" x1="65.38" y1="108.65" x2="71" y2="108.65" xlink:href="#linear-gradient"/><linearGradient id="linear-gradient-35" x1="65.58" y1="112.62" x2="70.54" y2="112.62" xlink:href="#linear-gradient"/><linearGradient id="linear-gradient-36" x1="65.59" y1="115.71" x2="72.02" y2="115.71" xlink:href="#linear-gradient"/><linearGradient id="linear-gradient-37" x1="65.58" y1="119.72" x2="71.88" y2="119.72" xlink:href="#linear-gradient"/><linearGradient id="linear-gradient-38" x1="65.58" y1="122.97" x2="72.75" y2="122.97" xlink:href="#linear-gradient"/><linearGradient id="linear-gradient-39" x1="65.38" y1="126.59" x2="72.01" y2="126.59" xlink:href="#linear-gradient"/><linearGradient id="linear-gradient-40" x1="64.99" y1="131.67" x2="71.2" y2="131.67" xlink:href="#linear-gradient"/><linearGradient id="linear-gradient-41" x1="64.58" y1="134.81" x2="70.12" y2="134.81" xlink:href="#linear-gradient"/><linearGradient id="linear-gradient-42" x1="63.53" y1="139.09" x2="69.61" y2="139.09" xlink:href="#linear-gradient"/><linearGradient id="linear-gradient-43" x1="68.19" y1="117.13" x2="74" y2="117.13" xlink:href="#linear-gradient"/><linearGradient id="linear-gradient-44" x1="69.12" y1="113.47" x2="75.25" y2="113.47" xlink:href="#linear-gradient"/><linearGradient id="linear-gradient-45" x1="70.6" y1="110.9" x2="76.51" y2="110.9" xlink:href="#linear-gradient"/><linearGradient id="linear-gradient-46" x1="73.22" y1="103.16" x2="80.21" y2="103.16" xlink:href="#linear-gradient"/><linearGradient id="linear-gradient-47" x1="71.9" y1="106.55" x2="78.75" y2="106.55" xlink:href="#linear-gradient"/><linearGradient id="linear-gradient-48" x1="74.5" y1="100.87" x2="81.23" y2="100.87" xlink:href="#linear-gradient"/><linearGradient id="linear-gradient-49" x1="76.22" y1="96.41" x2="83.06" y2="96.41" xlink:href="#linear-gradient"/><linearGradient id="linear-gradient-50" x1="77.75" y1="92.98" x2="84.57" y2="92.98" xlink:href="#linear-gradient"/><linearGradient id="linear-gradient-51" x1="79.5" y1="89.71" x2="86" y2="89.71" xlink:href="#linear-gradient"/><linearGradient id="linear-gradient-52" x1="81.1" y1="85.65" x2="87.48" y2="85.65" xlink:href="#linear-gradient"/><linearGradient id="linear-gradient-53" x1="82.94" y1="81.98" x2="89.19" y2="81.98" xlink:href="#linear-gradient"/><linearGradient id="linear-gradient-54" x1="84.44" y1="78.56" x2="90.31" y2="78.56" xlink:href="#linear-gradient"/><linearGradient id="linear-gradient-55" x1="86.48" y1="75.34" x2="91.69" y2="75.34" xlink:href="#linear-gradient"/><linearGradient id="linear-gradient-56" x1="88.19" y1="72.31" x2="93.45" y2="72.31" xlink:href="#linear-gradient"/><linearGradient id="linear-gradient-57" x1="89.89" y1="68.71" x2="95.15" y2="68.71" xlink:href="#linear-gradient"/><linearGradient id="linear-gradient-58" x1="91.37" y1="65.66" x2="96.83" y2="65.66" xlink:href="#linear-gradient"/><linearGradient id="linear-gradient-59" x1="93.6" y1="61.76" x2="99.1" y2="61.76" xlink:href="#linear-gradient"/><linearGradient id="linear-gradient-60" x1="94.86" y1="59.31" x2="100.48" y2="59.31" xlink:href="#linear-gradient"/><linearGradient id="linear-gradient-61" x1="96.77" y1="55.82" x2="102.65" y2="55.82" xlink:href="#linear-gradient"/><linearGradient id="linear-gradient-62" x1="98.37" y1="52.86" x2="104.49" y2="52.86" xlink:href="#linear-gradient"/><linearGradient id="linear-gradient-63" x1="100.39" y1="49.58" x2="106.53" y2="49.58" xlink:href="#linear-gradient"/><linearGradient id="linear-gradient-64" x1="102.5" y1="46.83" x2="107.92" y2="46.83" xlink:href="#linear-gradient"/><linearGradient id="linear-gradient-65" x1="105.53" y1="44.63" x2="109.75" y2="44.63" xlink:href="#linear-gradient"/><linearGradient id="linear-gradient-66" x1="106.75" y1="41.4" x2="111.49" y2="41.4" xlink:href="#linear-gradient"/><linearGradient id="linear-gradient-67" x1="108.21" y1="39.33" x2="113" y2="39.33" xlink:href="#linear-gradient"/><linearGradient id="linear-gradient-68" x1="109.7" y1="37.06" x2="115" y2="37.06" xlink:href="#linear-gradient"/><linearGradient id="linear-gradient-69" x1="112.25" y1="33.89" x2="117.56" y2="33.89" xlink:href="#linear-gradient"/><linearGradient id="linear-gradient-70" x1="114.19" y1="31.63" x2="120.06" y2="31.63" xlink:href="#linear-gradient"/><linearGradient id="linear-gradient-71" x1="116.31" y1="28.38" x2="122.43" y2="28.38" xlink:href="#linear-gradient"/><linearGradient id="linear-gradient-72" x1="119.06" y1="26.13" x2="123.77" y2="26.13" xlink:href="#linear-gradient"/><linearGradient id="linear-gradient-73" x1="121.44" y1="23.25" x2="124.96" y2="23.25" xlink:href="#linear-gradient"/><linearGradient id="linear-gradient-74" x1="121.94" y1="20.31" x2="125.74" y2="20.31" xlink:href="#linear-gradient"/><linearGradient id="linear-gradient-75" x1="122.44" y1="17.81" x2="126.18" y2="17.81" xlink:href="#linear-gradient"/><linearGradient id="linear-gradient-76" x1="122.44" y1="15.06" x2="126.02" y2="15.06" xlink:href="#linear-gradient"/><linearGradient id="linear-gradient-77" x1="125.02" y1="22.84" x2="129.88" y2="22.84" xlink:href="#linear-gradient"/><linearGradient id="linear-gradient-78" x1="126.95" y1="21.23" x2="132.06" y2="21.23" xlink:href="#linear-gradient"/><linearGradient id="linear-gradient-79" x1="128.88" y1="19.37" x2="132.44" y2="19.37" xlink:href="#linear-gradient"/><linearGradient id="linear-gradient-80" x1="130.28" y1="18.15" x2="134.03" y2="18.15" xlink:href="#linear-gradient"/><linearGradient id="linear-gradient-81" x1="133.8" y1="16.78" x2="136.11" y2="16.78" xlink:href="#linear-gradient"/></defs><g id="Layer_2" data-name="Layer 2"><g id="_12134_draft" data-name="12134_draft"><path class="cls-1" d="M69.06,141.43l3.38-15.76a33.88,33.88,0,0,1,1-4.19l3.13-8.89c1.33-3.74,3-7.36,4.61-11,2.12-4.82,4.24-9.63,6.26-14.49,1.82-4.42,3.71-8.78,5.71-13.12C94,72.05,95,70.12,95.89,68.2l2-4.15a23.88,23.88,0,0,1,1.71-2.57c.26-.4.45-.82.71-1.23.43-.66.89-1.29,1.32-1.94.55-.83,1-1.73,1.51-2.58,1.21-2,2.48-4,3.72-5.94s2.56-4.1,3.91-6.1c.73-1.09,1.42-2.22,2.2-3.27s1.66-2,2.48-3c1.32-1.61,2.59-3.27,4-4.78,2-2,3.65-3.78,5.64-5.69.84-.79,1.75-1.51,2.63-2.25s1.71-1.58,2.57-2.38,1.92-1.09,2.74-1.85c.46-.43.81-1,1.27-1.39a11.38,11.38,0,0,1,1.19-.91,14.58,14.58,0,0,0,1.54-1,1.77,1.77,0,0,0,.44-1.48c0-.18-.4-.2-.5-.19l-1.92.1a9,9,0,0,0-1.87.15,12.51,12.51,0,0,0-3.28,1.34c-.57.33-1.19.64-1.74,1s-1,.8-1.54,1.2c-1,.75-1.93,1.49-2.9,2.23s-2,1.51-3,2.23a7.36,7.36,0,0,0-1.12.88c-.41.43-1,1.14-1.35,1.41-.54.48-1.14.9-1.69,1.35a4.89,4.89,0,0,0-.91,1.44q-.4.75-.87,1.47a4.47,4.47,0,0,1-1,1.32,30,30,0,0,0-2.8,2.73,8.54,8.54,0,0,0-1.5,1.94,9.49,9.49,0,0,1-1.09,1.8c-.71,1-1.48,1.93-2.2,2.91-.53.72-1.06,1.45-1.55,2.2a5.89,5.89,0,0,1-.89,1.39,8,8,0,0,0-1.32,1.14c-.38.54-.75,1.1-1.1,1.66-.73,1.13-1.41,2.3-2.11,3.45C98,52.68,97,54.57,96,56.47c-2.32,4.3-4.64,8.58-7,12.83s-4.78,8.15-6.73,12.44L78,91.13c-.76,1.66-1.57,3.3-2.26,5-2.24,5.45-4.3,11-6.44,16.46-.5,1.29-1,2.56-1.44,3.88L65,125.92c-.57,1.88-1.1,3.73-1.57,5.64l-1.16,4.71a10.06,10.06,0,0,0-.09,2.63l.08,3.92c0,.33.84.18,1,0,.32-.32.79-.62.91-1.05a14.37,14.37,0,0,0,.29-1.84c.23-1.49.47-3,.68-4.45.37-2.62.64-5.25,1-7.87.11-.88.27-1.77.32-2.65.07-1.47,0-3,0-4.45V113.1c0-1.2.05-2.42,0-3.62,0-.86-.19-1.72-.28-2.57-.29-2.58-.43-5.23-.86-7.79-.47-2.76-1.15-5.5-1.73-8.24-.41-2-.77-4-1.28-6-.74-2.82-1.38-5.68-2.21-8.48-.25-.85-.6-1.67-.9-2.5L57.36,69c-.83-2.28-1.94-4.46-2.94-6.68s-2.12-4.42-3.2-6.63c-2.21-4.5-4.73-8.8-7.29-13.1-1.17-2-2.64-3.74-3.94-5.62a47.31,47.31,0,0,0-3.8-5.48c-3.45-3.75-6.81-7.61-10.51-11.1C24.8,19.6,24,18.72,23,17.93c-1.12-.95-2.33-1.82-3.49-2.73a25.39,25.39,0,0,0-2.45-1.69A30.88,30.88,0,0,0,14,11.69c-1.21-.56-2.43-1.1-3.65-1.65l.13.19.25-.48a2.14,2.14,0,0,1,.1-.22c.05-.08-.18.1,0,0a9.15,9.15,0,0,1,1-.4l-.61,0c2.42.68,4.73,1.45,7.3,2.3a2.17,2.17,0,0,0,.31.09l.39.25,2,1.26a21.28,21.28,0,0,1,2.19,1.45l3.76,3c.72.58,1.42,1.21,2.18,1.73.6.42,1.21.81,1.81,1.22a8.86,8.86,0,0,1,1.65,1.21c.62.71,1.34,1.59,2,2.33.85.89,1.72,1.76,2.51,2.7.42.5.9,1,1.28,1.52s.67,1.12,1,1.67a17.56,17.56,0,0,0,2.36,2.67c.7.78,1.3,1.67,1.93,2.51A71.91,71.91,0,0,1,51.7,46.56c2.22,4.51,4.46,9,6.6,13.54,1,2.12,2,4.25,2.91,6.39a47,47,0,0,1,1.93,6.34q1.8,6.93,3.36,13.92c.46,2,.94,4.1,1.31,6.17.46,2.57,1,5.14,1.38,7.72.34,2.4.51,4.83.81,7.24s.85,5.05,1,7.58a21.16,21.16,0,0,1-.11,2.52l-.25,4.93a59.65,59.65,0,0,0-.06,6l.18,3.8c0,.29,1,.27,1,0-.12-2.52-.25-5-.2-7.53s.23-5.17.36-7.76a11.87,11.87,0,0,0,0-2.23l-.66-4.75c-.33-2.4-.6-4.81-.87-7.21s-.62-4.43-1-6.65-.75-4.43-1.24-6.62c-1.09-4.83-2.15-9.66-3.39-14.45-.69-2.64-1.37-5.24-2.22-7.82a68.59,68.59,0,0,0-3-6.94c-1.87-4.13-3.92-8.16-5.92-12.22-.55-1.11-1-2.27-1.66-3.34-.7-1.24-1.52-2.43-2.27-3.64-1.12-1.78-2.43-3.45-3.71-5.13-.92-1.21-1.82-2.44-2.77-3.63-.71-.89-1.58-1.64-2.31-2.52s-1-1.77-1.66-2.54c-.85-1-1.7-2-2.61-2.94a35.49,35.49,0,0,1-2.64-2.85,12.58,12.58,0,0,0-3-2.36c-2.12-1.42-4.05-3.13-6-4.72a20.59,20.59,0,0,0-2-1.46L20.72,12a10,10,0,0,0-1.13-.68,41.11,41.11,0,0,0-4-1.33c-1.08-.35-2.15-.67-3.24-1A2.24,2.24,0,0,0,10.7,9a2.19,2.19,0,0,0-.81.36,3.08,3.08,0,0,0-.37.75c0,.1.05.15.13.19L13.36,12l.16.07c-.16-.08,0,0,0,0l.75.45,2.24,1.36A24.23,24.23,0,0,1,19,15.63l2.13,1.67.76.6c.07.05.39.3.3.22a125.66,125.66,0,0,1,10,10.15l3.35,3.64a17.46,17.46,0,0,1,1.69,2.39c1.48,2.24,3,4.41,4.56,6.59s2.72,4.33,4,6.52,2.34,4.3,3.48,6.46c2.32,4.4,4.37,8.93,6.43,13.45,1,2.22,1.73,4.57,2.56,6.85L58.88,76a5,5,0,0,1,.17.52c.35,1.38.71,2.75,1.07,4.12.52,2,1.09,4,1.51,6l2,9.77c.19.91.42,1.82.57,2.73s.2,1.75.29,2.61l.59,5.32c.09.81.22,1.62.26,2.43.11,2.94,0,5.9,0,8.84,0,2.21.11,4.46,0,6.67,0,.89-.22,1.8-.32,2.69l-.64,5.3c-.28,2.29-.62,4.56-1,6.83-.1.63-.16,1.28-.3,1.9,0,.23,0,.11-.15.28s-.49.49-.73.73l1,.05-.08-4a9.27,9.27,0,0,1,.11-2.58c.58-2.38,1.08-4.81,1.77-7.16.8-2.78,1.67-5.54,2.51-8.31l1.28-4.24c.09-.29.17-.59.27-.89,0-.09,0,.07,0,0l.1-.25,6.59-16.85c1.62-4.14,3.55-8.14,5.39-12.18,1-2.21,1.94-4.47,3-6.64.89-1.79,2-3.52,3-5.26,2.4-4.27,4.82-8.52,7.13-12.83,2.55-4.74,5-9.48,7.91-14,.3-.47.62-.93.94-1.4l.33-.5c.27-.26.64-.46.93-.71a2.53,2.53,0,0,0,.7-.76,5.38,5.38,0,0,1,.28-.6c.45-.73,1-1.43,1.47-2.12.68-.95,1.41-1.86,2.11-2.79.92-1.24,1.55-2.61,2.56-3.78a24.64,24.64,0,0,1,2.78-2.81,5.45,5.45,0,0,0,1.11-1.14c.31-.5.65-1,.93-1.51.2-.35.39-.71.58-1.06.09-.16.18-.31.26-.48s.13-.21.09-.17A15.09,15.09,0,0,1,119,26.33a15.33,15.33,0,0,0,1.14-1.14,6.57,6.57,0,0,1,1.16-1c2-1.39,3.93-2.86,5.85-4.36a28.54,28.54,0,0,1,3.21-2.26l1-.6.3-.18c.09,0-.08,0,.11,0,.35-.13.7-.24,1.06-.36a3.79,3.79,0,0,0,1-.33c.17-.12-.48,0-.22,0a1.94,1.94,0,0,0,.34,0l1.17-.06,1.85-.1-.5-.2a1.57,1.57,0,0,1-.45,1.37c-.48.38-1.06.66-1.56,1a8.07,8.07,0,0,0-1.31,1.09,14.19,14.19,0,0,1-1.43,1.46,12.19,12.19,0,0,1-1.57,1,5.73,5.73,0,0,0-1.13.9c-.87.83-1.74,1.61-2.66,2.39a81.32,81.32,0,0,0-10.14,10.27c-1.41,1.72-3,3.39-4.27,5.19s-2.52,3.65-3.69,5.52c-1.33,2.11-2.66,4.21-4,6.32-.73,1.16-1.47,2.31-2.17,3.48-.54.89-1,1.84-1.61,2.7-.75,1.08-1.38,2.24-2.11,3.31a20.21,20.21,0,0,0-1.63,2.5c-1.13,2.35-2.29,4.69-3.41,7.05-2,4.32-4,8.66-5.81,13.06S83.91,93.12,82,97.48c-.87,2-1.75,3.92-2.6,5.89-1,2.36-2.12,4.69-3.06,7.08s-1.72,4.86-2.57,7.28a41.19,41.19,0,0,0-1.68,5L68.4,139.85l-.34,1.59c0,.23.94.3,1,0Z"/><path class="cls-2" d="M119,28.83c1.06-2.26,2.19-4.5,3.18-6.8a20.49,20.49,0,0,0,1.14-3.42,4,4,0,0,0,0-.92V11h-.66l1.57.68-.3-.23a13,13,0,0,1,.64,1.48c.18.64.27,1.33.4,2l.23,1.13c0,.12,0,.24.07.36s0,.23,0,.12a8.27,8.27,0,0,1-.25,1.39c-.26,1.49-.47,3-.78,4.47a15.7,15.7,0,0,1-1,2.62l-1.6,4c-.1.24.85.57,1,.29l1.6-4a15.19,15.19,0,0,0,1-2.92l.9-5.14a2.16,2.16,0,0,0,0-1l-.53-2.63a7,7,0,0,0-.69-1.87c-.16-.3-.44-.38-.74-.51l-1.16-.51c-.05,0-.66-.22-.66,0V17a8.52,8.52,0,0,1,0,1.13,10.87,10.87,0,0,1-.49,1.84,17.63,17.63,0,0,1-.67,1.7c-.42,1-.92,2-1.39,3l-1.82,3.91c-.11.23.82.57,1,.29Z"/><path class="cls-3" d="M15.22,12.21l.86-1.61.12-.23c.09-.17-.19-.27-.31-.3a1.63,1.63,0,0,0-.38,0c-.07,0-.21,0-.25.09l-.86,1.62-.12.23c-.09.17.19.26.31.29a1,1,0,0,0,.39,0c.06,0,.2,0,.24-.09Z"/><path class="cls-4" d="M18.75,15l2-2.39.28-.34c.12-.15-.14-.3-.25-.35a1,1,0,0,0-.37-.11c-.07,0-.21,0-.26,0l-2,2.4-.28.34c-.12.14.14.29.25.34a1,1,0,0,0,.37.11c.07,0,.21,0,.26,0Z"/><path class="cls-5" d="M21.6,17.12l2.31-2.59.33-.37c.13-.15-.26-.25-.34-.26s-.48-.05-.62.1L21,16.6l-.33.36c-.13.15.26.25.34.26s.48.05.62-.1Z"/><path class="cls-6" d="M24.46,19.42l2.66-3.34.37-.47c.12-.16-.28-.24-.35-.24s-.49,0-.62.14l-2.65,3.35-.37.47c-.13.15.27.23.35.24a.74.74,0,0,0,.61-.15Z"/><path class="cls-7" d="M26.4,20.71l2.51-2.78.36-.4c.19-.21-.72-.53-.92-.31L25.84,20l-.36.4c-.19.21.72.52.92.3Z"/><path class="cls-8" d="M28.67,23.56l2.93-2.77.43-.4c.15-.15-.09-.23-.21-.25a.92.92,0,0,0-.67.15l-2.94,2.76-.42.4c-.16.15.08.24.21.25a.88.88,0,0,0,.67-.14Z"/><path class="cls-9" d="M31,26.17l3.15-3,.44-.42c.21-.19-.67-.59-.89-.39l-3.15,3-.43.41c-.21.2.67.59.88.4Z"/><path class="cls-10" d="M33.11,28.31l3.56-3.48.5-.48c.14-.14-.28-.25-.34-.26a.75.75,0,0,0-.62.13l-3.56,3.47-.5.49c-.15.14.28.24.34.25a.75.75,0,0,0,.62-.12Z"/><path class="cls-11" d="M35.43,30.92,38.55,28l.45-.43c.16-.14,0-.24-.18-.27s-.53-.07-.68.08L35,30.3l-.45.42c-.15.15,0,.24.18.27a.89.89,0,0,0,.68-.07Z"/><path class="cls-12" d="M37.46,33.37l3.34-2.73.48-.39c.16-.13-.24-.28-.31-.3a.77.77,0,0,0-.63.05L37,32.74l-.47.39c-.16.13.24.28.3.29a.73.73,0,0,0,.63-.05Z"/><path class="cls-13" d="M39.33,36.28l3.53-2.76.49-.39c.17-.13,0-.24-.16-.28a.89.89,0,0,0-.68,0L39,35.63l-.5.39c-.17.14,0,.25.16.29a.92.92,0,0,0,.69,0Z"/><path class="cls-14" d="M41.27,39.05l3.95-2.39.57-.34c.17-.11-.23-.3-.28-.32a.79.79,0,0,0-.64,0l-3.95,2.39-.56.35c-.18.1.22.3.28.32a.81.81,0,0,0,.63,0Z"/><path class="cls-15" d="M43.43,42l3.84-2.66.55-.39c.18-.12-.06-.24-.18-.27a.94.94,0,0,0-.68.06l-3.84,2.67-.55.38c-.18.13.06.25.18.28a.89.89,0,0,0,.68-.07Z"/><path class="cls-16" d="M45.65,45,49,42.45l.48-.35c.16-.12-.22-.3-.28-.32a.72.72,0,0,0-.64,0L45.21,44.3l-.47.35c-.17.12.21.29.28.32s.47.13.63,0Z"/><path class="cls-17" d="M47.13,48.29l4.27-2.5.61-.36c.18-.1-.21-.3-.27-.33a.73.73,0,0,0-.63,0l-4.27,2.5-.61.36c-.18.1.21.31.27.33a.73.73,0,0,0,.63,0Z"/><path class="cls-18" d="M48.93,51.6,53,49l.58-.36c.19-.12-.08-.25-.18-.27a1,1,0,0,0-.69.08l-4.11,2.6-.58.36c-.19.12.08.25.18.27a1,1,0,0,0,.69-.08Z"/><path class="cls-19" d="M50.53,54.79l4.12-2.4.59-.34c.16-.09.16-.22,0-.28a1,1,0,0,0-.71,0l-4.12,2.39-.59.35c-.16.09-.16.21,0,.28a1,1,0,0,0,.71-.05Z"/><path class="cls-20" d="M52,57.63l3.77-2.46.54-.35c.18-.12,0-.25-.15-.29a.85.85,0,0,0-.68,0L51.69,57l-.55.35c-.18.12,0,.25.15.3a1,1,0,0,0,.69,0Z"/><path class="cls-21" d="M53.56,60.59l4.14-2,.6-.28c.18-.09.13-.24,0-.28a1,1,0,0,0-.7.1l-4.15,2-.59.29c-.18.09-.13.23,0,.28a1.06,1.06,0,0,0,.7-.1Z"/><path class="cls-22" d="M55.15,64.07l4.19-1.73.59-.25c.13-.05.32-.18.14-.29a.87.87,0,0,0-.69,0L55.2,63.55l-.6.25c-.13.05-.32.18-.14.3a.92.92,0,0,0,.69,0Z"/><path class="cls-23" d="M56.71,67.83,61,65.74l.6-.29c.18-.09.15-.22,0-.28a1,1,0,0,0-.7.06l-4.25,2.09-.6.3c-.17.08-.14.22,0,.28a1,1,0,0,0,.7-.07Z"/><path class="cls-24" d="M58.12,71.52l4-1.92.57-.27c.18-.09-.2-.32-.25-.35a.82.82,0,0,0-.63-.06l-4,1.91-.58.28c-.18.09.2.32.26.34a.75.75,0,0,0,.62.07Z"/><path class="cls-25" d="M59.35,74.91l4.14-1.6.59-.23c.21-.08,0-.26-.14-.3a1,1,0,0,0-.69,0l-4.14,1.6-.59.23c-.22.08,0,.26.14.3a1,1,0,0,0,.69,0Z"/><path class="cls-26" d="M60.62,79.22l4-1.4.57-.2c.21-.08,0-.26-.13-.3a.94.94,0,0,0-.68-.06l-4,1.4-.58.2c-.21.08,0,.26.13.3a1,1,0,0,0,.69.06Z"/><path class="cls-27" d="M61.65,82.72l3.85-1.29.55-.18c.19-.07.18-.2,0-.29a1,1,0,0,0-.7,0L61.5,82.22,61,82.4c-.18.06-.17.2,0,.29a1,1,0,0,0,.71,0Z"/><path class="cls-28" d="M62.87,87l3.55-1.78.5-.25c.16-.08.18-.21,0-.28a.94.94,0,0,0-.7,0l-3.55,1.77-.5.25c-.17.09-.18.21,0,.29a1,1,0,0,0,.71,0Z"/><path class="cls-29" d="M63.94,91.39l3.48-2.15.49-.31c.2-.12-.09-.25-.19-.26a1,1,0,0,0-.68.1l-3.48,2.15-.5.31c-.19.12.1.25.2.27a1,1,0,0,0,.68-.11Z"/><path class="cls-30" d="M64.22,95l3.89-1.78.56-.25c.18-.08.14-.23,0-.28a1.05,1.05,0,0,0-.7.07l-3.89,1.78-.56.25c-.18.09-.14.23,0,.28a1,1,0,0,0,.7-.07Z"/><path class="cls-31" d="M65.09,98.89,68.87,97l.53-.26c.18-.09-.2-.32-.25-.35a.78.78,0,0,0-.63,0l-3.78,1.87-.53.26c-.19.09.2.32.25.35a.78.78,0,0,0,.63,0Z"/><path class="cls-32" d="M65.44,102.32l4-1.69.56-.24c.18-.07.16-.21,0-.28a1,1,0,0,0-.71,0l-4,1.68-.57.24c-.18.08-.16.22,0,.29a1.08,1.08,0,0,0,.71,0Z"/><path class="cls-33" d="M65.89,106.1l4-1.85.56-.26c.2-.1,0-.25-.11-.31a.92.92,0,0,0-.69-.07l-4,1.85-.56.26c-.2.1,0,.25.12.31a.89.89,0,0,0,.68.07Z"/><path class="cls-34" d="M66.22,109.6l4-1.37.58-.2c.18-.06.18-.2,0-.28a1,1,0,0,0-.71,0l-4.05,1.37-.57.2c-.19.06-.18.19,0,.28a1,1,0,0,0,.71,0Z"/><path class="cls-35" d="M66.48,113.49l3.48-1.2.49-.17c.21-.08,0-.26-.13-.31a.94.94,0,0,0-.68-.06L66.17,113l-.49.17c-.22.07,0,.25.12.3a.94.94,0,0,0,.68.06Z"/><path class="cls-36" d="M66.23,116.43l4.74-.94.69-.13c.11,0,.42-.1.33-.28s-.5-.11-.63-.09l-4.74.94-.69.14c-.11,0-.42.1-.33.27s.5.12.63.09Z"/><path class="cls-37" d="M66.34,120.41l4.63-.92.66-.13c.15,0,.33-.15.18-.28a.92.92,0,0,0-.69,0l-4.63.92-.67.13c-.14,0-.32.15-.17.28a.92.92,0,0,0,.69,0Z"/><path class="cls-38" d="M66.37,123.43l5.4-.38.77-.06c.2,0,.22-.14.09-.27a1,1,0,0,0-.67-.22l-5.4.39-.77,0c-.2,0-.22.14-.09.27a1,1,0,0,0,.67.22Z"/><path class="cls-39" d="M66.18,127l4.92-.38.71-.06c.2,0,.21-.15.08-.27a1,1,0,0,0-.68-.19l-4.93.39-.71,0c-.2,0-.21.16-.07.27a1,1,0,0,0,.68.19Z"/><path class="cls-40" d="M65.5,132.07l4.56-.36.65-.05c.12,0,.5,0,.49-.23s-.41-.18-.51-.17l-4.56.36-.66,0c-.11,0-.49.05-.48.24s.41.17.51.16Z"/><path class="cls-41" d="M65.09,135h4.54c.12,0,.5,0,.49-.21s-.4-.19-.5-.19H65.07c-.11,0-.49,0-.49.21s.4.19.51.19Z"/><path class="cls-42" d="M64,139.5l4.44-.37.64,0c.12,0,.5,0,.49-.23s-.41-.18-.51-.17l-4.44.36-.64.06c-.12,0-.5,0-.49.23s.41.17.51.17Z"/><path class="cls-43" d="M68.76,117.1c.64.14,1.29.28,1.95.4a4.21,4.21,0,0,0,1.06.12,6.38,6.38,0,0,0,1-.24l1.06-.27c.21-.06,0-.26-.09-.32a.93.93,0,0,0-.67-.15l-1.93.48c-.11,0,0,0,0,0s.09,0,0,0h-.1l-.23,0-.12,0h-.08c-.42-.07-.83-.16-1.25-.25l-.77-.16c-.11,0-.43-.08-.41.12s.41.3.54.33Z"/><path class="cls-44" d="M69.28,113.17l2.21.7a4.76,4.76,0,0,0,.89.26,8.85,8.85,0,0,0,1,0h1.22c.15,0,.52,0,.6-.18s-.26-.22-.36-.22H73.16a2.16,2.16,0,0,0-.44,0c-.11,0,.2.05.17,0a.36.36,0,0,0-.11,0l-.47-.15-1.42-.44-.92-.29a1,1,0,0,0-.71,0c-.16.09-.18.23,0,.29Z"/><path class="cls-45" d="M70.94,110.42l4.29,1.15.62.17c.14,0,.52.08.62-.07s-.22-.26-.32-.29l-4.29-1.14-.61-.17c-.15,0-.52-.09-.63.07s.23.26.32.28Z"/><path class="cls-46" d="M73.67,102.72l5.24,1.11.75.16c.11,0,.49.11.53-.07s-.33-.29-.43-.32l-5.24-1.11-.75-.16c-.11,0-.49-.11-.53.07s.33.3.43.32Z"/><path class="cls-47" d="M72.14,106.07l5.12,1.12.73.15a.85.85,0,0,0,.68,0c.17-.12,0-.25-.16-.28l-5.12-1.11-.73-.16a.91.91,0,0,0-.69,0c-.16.13,0,.25.17.28Z"/><path class="cls-48" d="M74.74,100.43l5,1.06.72.15c.19,0,.51.1.68,0s0-.25-.17-.28l-5-1.07-.71-.15a.92.92,0,0,0-.69.05c-.16.13,0,.25.17.28Z"/><path class="cls-49" d="M76.39,95.69l5.11,1.59.74.23a.88.88,0,0,0,.69-.11c.17-.11.15-.22,0-.28l-5.11-1.59L77,95.3a1,1,0,0,0-.7.11c-.16.11-.14.23,0,.28Z"/><path class="cls-50" d="M78.18,92.25l5.1,1.61.73.23c.11,0,.48.14.54,0s-.32-.32-.42-.35L79,92.1l-.73-.23c-.11,0-.48-.14-.54,0s.31.32.41.35Z"/><path class="cls-51" d="M79.67,89l4.81,1.51.69.22a1,1,0,0,0,.7-.11c.17-.11.14-.22,0-.28L81,88.87l-.69-.21a1,1,0,0,0-.7.1c-.17.11-.15.22,0,.28Z"/><path class="cls-52" d="M81.23,84.39l4.71,2.37.67.33a1.06,1.06,0,0,0,.7.1c.17-.06.22-.19,0-.28l-4.72-2.37L82,84.2a1,1,0,0,0-.71-.09c-.16,0-.22.19,0,.28Z"/><path class="cls-53" d="M83.26,81.25l1.08.43.61.25s.12,0,.12,0-.17-.08,0,0a11.17,11.17,0,0,0,2.21.84l1.37.25c.11,0,.49.1.53-.08s-.34-.29-.44-.31l-1.16-.21a4.68,4.68,0,0,0-.54-.1c-.12,0,.34.13.18.06L87,82.34c-.7-.3-1.41-.61-2.12-.9l-1.26-.51c-.14-.06-.51-.15-.63,0s.19.29.28.33Z"/><path class="cls-54" d="M84.51,77.56l2.18,1.17.12.07,0,0a1.13,1.13,0,0,1,.1.13.89.89,0,0,0,.32.32c.36.2.71.41,1.08.59a2.1,2.1,0,0,0,.87.08h.68c.12,0,.5,0,.49-.23s-.4-.17-.51-.17H88.68l.44.07-.83-.44c-.11-.07-.24-.12-.36-.2s.06.07,0,0l-.08-.1c0-.07-.09-.15-.15-.22a2,2,0,0,0-.55-.32l-1.09-.59-.73-.39a1,1,0,0,0-.69,0c-.11,0-.37.17-.17.28Z"/><path class="cls-55" d="M86.7,74.5l3.69,1.7.52.24a.92.92,0,0,0,.69,0c.19-.11,0-.25-.13-.31l-3.69-1.69-.52-.24a.88.88,0,0,0-.69,0c-.19.1,0,.24.13.3Z"/><path class="cls-56" d="M88.41,71.41l3.73,1.75.53.25a.9.9,0,0,0,.68.11c.19-.09,0-.25-.11-.31l-3.73-1.75L89,71.21a.91.91,0,0,0-.68-.11c-.19.09,0,.26.11.31Z"/><path class="cls-57" d="M90.21,67.88,94,69.61l.53.24c.13.06.5.17.63,0s-.19-.29-.28-.33L91.1,67.82l-.53-.24c-.14-.07-.51-.17-.63,0s.18.29.27.33Z"/><path class="cls-58" d="M91.49,65.1l.84.66a2.45,2.45,0,0,0,.43.31,1.55,1.55,0,0,0,.7.12c.39,0,.79,0,1.18,0,.08,0-.15,0,0,0l.19,0,.6.09,1.13.17c.14,0,.37,0,.26-.2s-.42-.27-.62-.3l-1.86-.28a5.3,5.3,0,0,0-.69,0h-.93l.66.24-1.08-.85a1.08,1.08,0,0,0-.67-.24c-.17,0-.25.14-.09.27Z"/><path class="cls-59" d="M93.76,61.47c.55.14,1.11.32,1.67.42s1.21.23,1.81.32l1.12.19a.87.87,0,0,0,.67-.11c.16-.15,0-.24-.19-.27-.54-.08-1.08-.16-1.62-.26l-1.15-.21-.2,0c-.1,0,0,0,0,0l-.37-.09-1.08-.28a1,1,0,0,0-.71,0c-.15.08-.19.23,0,.28Z"/><path class="cls-60" d="M95.18,58.79l1.8.67a5.25,5.25,0,0,0,1.81.14l-.37-.09,1.38.63c.14.06.51.16.63,0s-.18-.29-.27-.33c-.46-.21-.91-.43-1.37-.62a2.24,2.24,0,0,0-.89-.09h-.78l.37.08-1.95-.72c-.15-.06-.5-.18-.63,0s.17.29.27.33Z"/><path class="cls-61" d="M96.8,55.19l.91.69c.13.1.26.21.4.3a1,1,0,0,0,.58.11h.72c.16,0,.13.05-.11,0l.11,0,1.29.25,1.12.22a1.06,1.06,0,0,0,.7-.09c.15-.1.16-.24,0-.28l-2-.4a3.9,3.9,0,0,0-.75-.12h-1l.37.09-1.33-1a.75.75,0,0,0-.62-.06c-.06,0-.48.17-.32.29Z"/><path class="cls-62" d="M98.5,52.26l2,.89c.36.16.72.31,1.09.44a2.13,2.13,0,0,0,.7.18h1.83c.12,0,.44,0,.38-.21s-.46-.21-.6-.21H102l.38.07-.43-.16a1.84,1.84,0,0,0-.25-.09c-.1,0,.13.06,0,0l-1-.45-1.51-.68a1,1,0,0,0-.71-.08c-.16.05-.22.19,0,.28Z"/><path class="cls-63" d="M100.51,48.9l.84.51a2.88,2.88,0,0,0,.73.4l1.08.34a3.25,3.25,0,0,0,1,.1l-.37-.07a4.36,4.36,0,0,0,1.23.36h1.18c.14,0,.36,0,.24-.22a.88.88,0,0,0-.64-.24h-1.22l.38.08-.79-.28a2.85,2.85,0,0,0-1-.09l.37.08-.69-.22-.43-.13a.65.65,0,0,0-.13,0c-.12,0,.17.11.15.08a.88.88,0,0,0-.23-.14l-.43-.26-.58-.37a1.05,1.05,0,0,0-.69-.17c-.17,0-.24.16-.07.28Z"/><path class="cls-64" d="M102.52,45.63l.77.87a1.22,1.22,0,0,0,.35.33,3.21,3.21,0,0,0,.52.11l.71.15.13,0s-.16,0-.06,0l.12,0,.66.24a1.87,1.87,0,0,0,.22.07l0,0,.06,0c.34.26.69.5,1,.75a.93.93,0,0,0,.68.05c.13,0,.35-.15.17-.28l-.62-.45a3.27,3.27,0,0,0-.58-.39,8.52,8.52,0,0,0-1.46-.46l-.94-.19.23.11-1-1.12a.75.75,0,0,0-.62-.12c-.07,0-.47.11-.34.26Z"/><path class="cls-65" d="M105.77,44.23l.63.14.46.1a1.53,1.53,0,0,0,.29.07s-.13-.06-.08,0l.13.05.4.15c.2.08.41.15.61.24s.46.25.68.37a1,1,0,0,0,.71,0c.19-.07.17-.19,0-.28L109,44.7a3.44,3.44,0,0,0-.53-.21l-.65-.25a6.09,6.09,0,0,0-.71-.17l-.78-.18a.94.94,0,0,0-.68.06c-.18.13.05.25.17.28Z"/><path class="cls-66" d="M106.88,40.28c.43.28.84.58,1.28.85a3.57,3.57,0,0,0,.56.26l.69.31-.16-.1,1.29,1.06a1,1,0,0,0,.67.16c.11,0,.4-.1.22-.25l-.71-.57a3.83,3.83,0,0,0-.76-.58L109,41l-.16-.08c-.09,0,.13.09,0,0l-.37-.25-.91-.61a.94.94,0,0,0-.7-.09c-.2,0-.2.17,0,.28Z"/><path class="cls-67" d="M108.37,38.45c.56.19,1.12.43,1.7.59.08,0-.1,0,0,0l.17.08.54.28a.91.91,0,0,0,.17.09c.09,0,0-.06,0,0s.21.19.32.28l.78.7a.81.81,0,0,0,.63.1c.06,0,.48-.14.33-.27l-.69-.61a2.65,2.65,0,0,0-.58-.48c-.29-.15-.58-.33-.89-.46s-.54-.19-.81-.29l-1-.33a.94.94,0,0,0-.7,0c-.18.09-.17.22,0,.29Z"/><path class="cls-68" d="M109.93,36l1.71.67.63.25a2.47,2.47,0,0,0,.39.16s-.13-.08-.07,0l.08.05.28.17.51.32c.09.05,0,0,0,0l0,0a1.59,1.59,0,0,0,.2.24l.38.47a.85.85,0,0,0,.66.17c.15,0,.36-.08.22-.24a6.62,6.62,0,0,0-.62-.76,3.12,3.12,0,0,0-.45-.29c-.17-.11-.34-.22-.52-.32a5.63,5.63,0,0,0-.95-.4l-.73-.29-1.19-.47a.92.92,0,0,0-.69,0c-.19.11,0,.25.14.3Z"/><path class="cls-69" d="M112.51,33.12l1,.24.24.06c.12,0,0,0,0,0a1.62,1.62,0,0,0,.42.15l.61.21.18.06c.1,0-.11,0,0,0l.52.25.25.12s.2.09.07,0a3.7,3.7,0,0,1,.42.37l.39.35a.79.79,0,0,0,.62.11c.06,0,.49-.13.34-.26l-.78-.69a3.64,3.64,0,0,0-.9-.46,6.15,6.15,0,0,0-.85-.31,7.32,7.32,0,0,0-.83-.27L113,32.75a.9.9,0,0,0-.68.1c-.16.15.07.24.2.27Z"/><path class="cls-70" d="M114.81,31.45h2l-.56-.13.5.32.19.12a1.12,1.12,0,0,0,.63.13h1.11l-.38-.05,1,.32a.87.87,0,0,0,.69,0c.17-.13,0-.24-.16-.29a4.9,4.9,0,0,0-1.39-.35h-1.19l.56.12-.67-.43a2.27,2.27,0,0,0-1.13-.13h-1.44c-.12,0-.43,0-.37.22s.47.18.61.18Z"/><path class="cls-71" d="M116.34,27.75l1,.75a5.6,5.6,0,0,0,.89.52c.17.09.35.2.53.28a1.76,1.76,0,0,0,.65.05h2.41c.16,0,.53-.05.59-.23s-.28-.19-.38-.19h-2.75l.31,0-.65-.33-.38-.2-.09,0s.06.05,0,0l-1.21-.91a.77.77,0,0,0-.63-.05c-.06,0-.47.18-.31.3Z"/><path class="cls-72" d="M119.15,25.79l.71.33a4.21,4.21,0,0,0,.75.34,2.57,2.57,0,0,0,.48,0h.54a1,1,0,0,0,.17,0c.14,0-.28,0-.16,0a2.66,2.66,0,0,0,.38.1l.92.26a1,1,0,0,0,.7-.12c.17-.1.14-.23,0-.28l-1.28-.35a2.47,2.47,0,0,0-.61,0H121l.31,0L120,25.45a.94.94,0,0,0-.68,0c-.11.05-.34.21-.14.3Z"/><path class="cls-73" d="M121.5,22.94l1,.7a1.14,1.14,0,0,0,.63.19h1.46c.1,0,.46,0,.37-.22s-.44-.19-.6-.19h-1.47l.56.14-1.06-.75a1,1,0,0,0-.68-.13c-.1,0-.39.12-.2.26Z"/><path class="cls-74" d="M122.38,20.31l1.12.38a3,3,0,0,0,.79,0,2.59,2.59,0,0,0,.62,0l.71-.17c.22-.05,0-.26-.09-.31a.94.94,0,0,0-.67-.13l-.78.19.19,0h-.9l.25,0-1.12-.38c-.12,0-.49-.12-.54.05s.32.3.42.33Z"/><path class="cls-75" d="M122.82,18h2.74c.17,0,.51,0,.6-.18s-.28-.22-.36-.22h-2.74c-.17,0-.52,0-.61.18s.28.22.37.22Z"/><path class="cls-76" d="M123.14,15.41h1.15a2.29,2.29,0,0,0,.37,0l.61-.12.56-.11c.06,0,.16,0,.18-.11s-.07-.14-.11-.17a1.05,1.05,0,0,0-.69-.17l-1.11.22L124,15c-.07,0,.08,0,.08,0a.85.85,0,0,0-.16,0h-1.21c-.12,0-.38,0-.24.22a.91.91,0,0,0,.65.23Z"/><path class="cls-77" d="M125.09,21.14l.81.72.5.45.14.12c.07.05-.06-.09,0,0s.26.37.39.55a2.78,2.78,0,0,0,.26.34l.87.9a3,3,0,0,0,1,.51,1,1,0,0,0,.7,0c.18-.07.19-.2,0-.28l-.5-.23a2.4,2.4,0,0,0-.23-.11s.06.05.05,0,0,0-.05-.05l-.9-.93s0,0,0,0,.06.08,0,0A1.59,1.59,0,0,0,128,23l-.41-.57a4,4,0,0,0-.63-.6L126,21a.9.9,0,0,0-.68-.1c-.14,0-.36.12-.19.26Z"/><path class="cls-78" d="M127,19.75l1,.58a4.39,4.39,0,0,0,.47.27c.07,0,0-.06,0,0s.1.13.13.18l.42.6a4.37,4.37,0,0,0,.31.44,1.58,1.58,0,0,0,.29.22l.6.43a2.11,2.11,0,0,0,.4.26l.6.27a.9.9,0,0,0,.7,0c.19-.08.16-.2,0-.28l-.54-.24-.08,0s.09.07.05,0a1.18,1.18,0,0,0-.18-.13l-.6-.43-.23-.17-.07-.05s0,0,0,0-.07-.09-.09-.13l-.17-.25-.43-.61a1.43,1.43,0,0,0-.24-.31,2.43,2.43,0,0,0-.35-.2l-1.14-.67a.94.94,0,0,0-.68,0c-.11,0-.36.17-.17.29Z"/><path class="cls-79" d="M128.91,17.94c.42.31.86.61,1.26.95s.48.44.72.67l.15.14s0,0,0,0,0,0,0,0a1.92,1.92,0,0,0,.09.32l.28,1c.05.17.4.14.53.11s.51-.1.46-.27l-.25-.87a3.31,3.31,0,0,0-.12-.42.34.34,0,0,0-.14-.18l-.76-.71a6.26,6.26,0,0,0-.51-.39l-.81-.61a.77.77,0,0,0-.63,0c-.06,0-.46.18-.3.3Z"/><path class="cls-80" d="M130.36,17.1l1.47.77s.15.11.19.1-.06-.06,0,0L132,18l.16.18a3.14,3.14,0,0,1,.39.51l.49.81c0,.06.19.08.24.08a1,1,0,0,0,.38,0c.12,0,.41-.12.31-.29l-.42-.71-.17-.28a2.41,2.41,0,0,0-.21-.24,1.57,1.57,0,0,0-.46-.43l-.85-.45-.7-.37a.92.92,0,0,0-.69,0c-.12.05-.34.19-.14.3Z"/><path class="cls-81" d="M133.83,15.92l.62.77c.08.11.18.21.25.32s.12.22.18.32l.25.48c0,.07.18.1.24.11a1.21,1.21,0,0,0,.38,0c.12,0,.43-.1.34-.27l-.22-.4c-.07-.13-.13-.27-.21-.39a2.78,2.78,0,0,0-.21-.27l-.41-.51-.26-.32a.41.41,0,0,0-.24-.11,1,1,0,0,0-.38,0c-.09,0-.46.11-.33.27Z"/><text class="cls-82" transform="translate(0 12.1)">B</text><text class="cls-82" transform="translate(138.17 19.98)">A</text><text class="cls-82" transform="translate(118.56 8.31)">a</text></g></g></svg>