<?xml version="1.0" encoding="utf-8"?>

<svg version="1.1" id="" xmlns="http://www.w3.org/2000/svg" xmlns:xlink="http://www.w3.org/1999/xlink"
	 x="0px" y="0px" viewBox="0 0 66.7 68.8" enable-background="new 0 0 66.7 68.8" xml:space="preserve">
<g id="_x31_3137">
	<g id="lines">
		
			<polyline fill="none" stroke="#979696" stroke-width="0.6" stroke-linecap="round" stroke-linejoin="round" stroke-miterlimit="10" points="
			5.3,53.2 5.9,52.1 5.6,51.5 		"/>
		
			<path fill="none" stroke="#979696" stroke-width="0.6" stroke-linecap="round" stroke-linejoin="round" stroke-miterlimit="10" d="
			M5.6,49.8c0,0,1.3-1.6,1.3-1.7c0-0.1-0.1-1.2-0.1-1.2c0-0.1,0-0.7,0.1-0.7C6.9,46.1,7,45.7,7,45.7l-0.1-1c0,0,0.3-0.7,0.4-0.9
			c0.1-0.2,0.3-0.7,0.3-0.7c0-0.1-0.2-1-0.2-1s0.2-0.8,0.2-0.8v-0.8l-0.6-1.6L6.8,38l-0.6-1l-0.7-0.5l-0.3-1.1l-0.6-0.9
			c0,0-0.7-1.1-0.7-1.2c0-0.1-0.2-0.8-0.2-0.8s-0.2-0.6-0.2-0.7s-0.5-0.6-0.5-0.6l-0.8-0.8L2,29.6l-0.1-1l-0.2-0.2
			c0,0-0.4-0.4-0.4-0.7s0-1.8,0-1.8l0.5-1l0.2-0.5c0,0,0.1-0.9,0.1-1.1c0-0.2,0.9-1.6,0.9-1.6l2-4c0,0,0.6-0.7,0.6-0.8
			S5.9,16,5.9,16l1-1.4L7.8,13L9,11.3l1.5-1.9l0.8-0.7l0.5-0.6l0.6-0.3l1.5-1.5L15.8,5L16,4.8"/>
		
			<path fill="none" stroke="#979696" stroke-width="0.6" stroke-linecap="round" stroke-linejoin="round" stroke-miterlimit="10" d="
			M16.2,4.8L17.7,4l1.1-0.4L23.2,2l4.8-1l2-0.3l1.9-0.1l3.4-0.2l3,0.2l1.6,0.4l1.5,0.4l1.2,0.3l0.7,0.2l0.3,0.3c0,0,0.8,0.1,0.8,0.1
			s0.1,0.2,0.3,0.4s1,0.4,1,0.4s0.7,0.2,0.8,0.2c0.1,0.1,0.9,0.3,0.9,0.3l0.5,0.1c0,0,0.7,0,0.8,0c0.1,0,0.6,0.4,0.6,0.4
			s1,0.2,1.1,0.2c0.2,0,0.8,0.4,0.8,0.4s0.8,0.1,0.9,0.1s0.7,0.3,0.7,0.4c0,0.1,0.4,0.5,0.5,0.5c0.1,0,0.4,0.2,0.5,0.3
			c0.1,0.1,0.6,0.4,0.6,0.4L54.9,7c0,0,0,0.3,0,0.5c0,0.1,0.6,0.5,0.6,0.7c0.1,0.1,0.4,0.7,0.4,0.8C56,9,56.1,9.2,56.2,9.3
			c0,0.1,0.5,0.3,0.5,0.3l0.5,0.4c0,0,0.1,0.3,0.1,0.5c0.1,0.2,0.4,0.4,0.5,0.7c0.1,0.2,1,0.5,1,0.5l0.8,0.6l0.2,0.7l0.3,0.4"/>
		
			<path fill="none" stroke="#979696" stroke-width="0.6" stroke-linecap="round" stroke-linejoin="round" stroke-miterlimit="10" d="
			M63.2,19c0,0,0.4,0.5,0.4,0.7c0.1,0.2,0.1,1.1,0.1,1.1s0.5,0.7,0.5,0.8s0.5,1,0.5,1.1s0,1.5,0,1.6c0,0.1,0.3,0.4,0.3,0.7
			s-0.1,0.7-0.1,1s0,0.6,0,0.8c0,0.2-0.1,0.6-0.1,0.6l-0.1,0.1"/>
		
			<path fill="none" stroke="#979696" stroke-width="0.6" stroke-linecap="round" stroke-linejoin="round" stroke-miterlimit="10" d="
			M65.1,25.1c0,0,0.7,0.4,0.8,0.5c0.1,0.1,0.2,0.6,0.2,0.6s-0.2,0.2,0,0.4c0.2,0.1,0.3,0.3,0.2,0.4c-0.1,0.1-0.7,0.3-0.6,0.4
			s0.1,1.5,0.1,1.5s-0.3,3-0.3,3c0,0.1-0.7,2.2-0.8,2.3c-0.2,0.2-0.3,0.5-0.4,0.7c-0.1,0.2-0.1,0.7-0.2,0.8c0,0.1-0.2,0.4-0.3,0.8
			c-0.1,0.4-0.1,0.6-0.3,0.9c-0.2,0.3-0.7,0.9-0.7,1c-0.1,0.1-0.5,0.7-0.5,0.7l-0.1,0.2"/>
		
			<path fill="none" stroke="#979696" stroke-width="0.6" stroke-linecap="round" stroke-linejoin="round" stroke-miterlimit="10" d="
			M63.9,37c0,0,0.2,1,0.1,1.1c-0.1,0.2-0.2,0.7-0.4,1c-0.1,0.2-0.3,0.7-0.4,0.8c-0.1,0.1-0.3,1-0.3,1.5s-1,2.8-1.1,2.9
			c-0.1,0.1-1.6,1.9-1.6,1.9s-1.2,1.4-1.5,1.5c-0.2,0.1-0.2,0.2-0.6,0.3s-0.6,0.1-0.8,0.3s-0.5,0.7-0.6,0.9c-0.1,0.2-1.4,2-1.6,2.1
			c-0.2,0.1-0.3,0.2-0.4,0.5c-0.1,0.2-0.2,0.7-0.5,1s-2.1,2.6-2.1,2.6L50,58.8c0,0-0.9,1.9-0.9,2s0,0.5,0,0.5"/>
		
			<path fill="none" stroke="#979696" stroke-width="0.6" stroke-linecap="round" stroke-linejoin="round" stroke-miterlimit="10" d="
			M50.6,58.5v0.4c0,0-0.3,0.5-0.4,0.7c-0.1,0.1-0.2,0.8-0.2,0.8c-0.1,0.1-0.7,1.9-0.9,2.2C49,62.9,48,65.1,48,65.2s-0.6,1.9-0.6,1.9
			l-0.2,1.3v0.1"/>
		
			<path fill="none" stroke="#979696" stroke-width="0.6" stroke-linecap="round" stroke-linejoin="round" stroke-miterlimit="10" d="
			M49.8,44.8c0,0-1,0.1-1.2,0.2c-0.3,0.1-1,0.5-1.4,0.6c-0.4,0.2-0.9,0.7-1.3,0.8c-0.4,0.1-0.8,0.3-1.1,0.3s-1.2,0.4-1.6,0.4
			c-0.4,0-1.5,0.2-1.5,0.2"/>
		
			<path fill="none" stroke="#979696" stroke-width="0.6" stroke-linecap="round" stroke-linejoin="round" stroke-miterlimit="10" d="
			M41.8,41.6c0,0-0.4,0.3-0.7,0.3s-0.7,0.1-1,0.2c-0.3,0-0.7,0-0.7,0"/>
		
			<polyline fill="none" stroke="#979696" stroke-width="0.6" stroke-linecap="round" stroke-linejoin="round" stroke-miterlimit="10" points="
			38.8,42.1 38.2,41.8 37.9,41.6 37.4,41.3 		"/>
		
			<path fill="none" stroke="#979696" stroke-width="0.6" stroke-linecap="round" stroke-linejoin="round" stroke-miterlimit="10" d="
			M32.9,41.6c0,0-1.5-0.4-1.5-0.4c-0.1,0-1.5-0.2-1.5-0.2L29,40.4"/>
		
			<path fill="none" stroke="#979696" stroke-width="0.6" stroke-linecap="round" stroke-linejoin="round" stroke-miterlimit="10" d="
			M30.3,51.1c0,0-0.4-0.6-0.5-0.6S29,50.1,28.6,50s-0.9-0.1-1.2-0.1c-0.3-0.1-1.4,0-1.4,0L25.7,50"/>
		
			<path fill="none" stroke="#979696" stroke-width="0.6" stroke-linecap="round" stroke-linejoin="round" stroke-miterlimit="10" d="
			M24.9,42.4c0,0-0.3-0.2-0.8-0.3c-0.5-0.1-0.9-0.1-1.4-0.2s-1.5-0.2-2.1-0.2c-0.6,0-2.6-0.6-2.9-0.7c-0.3-0.1-1-0.4-1.2-0.4
			c-0.2-0.1-0.5-0.6-0.8-0.8c-0.4-0.1-1.1,0-1.2,0s-0.9-0.4-1.1-0.6c-0.2-0.2-0.8-0.9-1.1-1.1c-0.3-0.3-0.6-0.5-0.6-0.5l-1-1"/>
		
			<line fill="none" stroke="#979696" stroke-width="0.6" stroke-linecap="round" stroke-linejoin="round" stroke-miterlimit="10" x1="20.3" y1="30.8" x2="21.3" y2="31.3"/>
		
			<line fill="none" stroke="#979696" stroke-width="0.6" stroke-linecap="round" stroke-linejoin="round" stroke-miterlimit="10" x1="22" y1="31.8" x2="24.6" y2="34.1"/>
		
			<path fill="none" stroke="#979696" stroke-width="0.6" stroke-linecap="round" stroke-linejoin="round" stroke-miterlimit="10" d="
			M23.9,33.2l1.6,0.3l0.7,0.2l1.4,0.2h1.5l1.1,0.3c0,0,0.7,0.4,0.7,0.6c0,0.1,0.8,0.3,0.8,0.3s1,0.2,1.1,0.2
			c0.1,0.1,0.6,0.3,0.8,0.4c0.2,0,0.6,0.3,0.8,0.2s0.6-0.2,0.6-0.2"/>
		
			<polyline fill="none" stroke="#979696" stroke-width="0.6" stroke-linecap="round" stroke-linejoin="round" stroke-miterlimit="10" points="
			35.4,35.7 36.9,35.9 37.9,36.1 38.2,36.1 		"/>
		
			<polyline fill="none" stroke="#979696" stroke-width="0.6" stroke-linecap="round" stroke-linejoin="round" stroke-miterlimit="10" points="
			38.5,36.1 40.2,35.7 41.8,34.9 42.8,34.5 		"/>
		
			<path fill="none" stroke="#979696" stroke-width="0.6" stroke-linecap="round" stroke-linejoin="round" stroke-miterlimit="10" d="
			M20.3,2.4l-1.6,2.9c0,0-0.4,0.6-0.6,0.8c-0.2,0.2-0.8,1.3-0.8,1.4c-0.1,0.1-0.7,1.2-1,1.7S15,11.2,15,11.2"/>
		
			<path fill="none" stroke="#979696" stroke-width="0.6" stroke-linecap="round" stroke-linejoin="round" stroke-miterlimit="10" d="
			M15.5,17.2c0,0,0.9,0.6,1,0.7s1.7,0.3,1.7,0.3l1.5,0.3l2.2,0.9c0,0,1.2,0.4,1.3,0.4c0.1,0.1,0.2,0.2,0.6,0.2c0.3,0,1,0,1,0
			c0.1,0,1.1,0.2,1.1,0.2l0.5,0.2"/>
		
			<path fill="none" stroke="#979696" stroke-width="0.6" stroke-linecap="round" stroke-linejoin="round" stroke-miterlimit="10" d="
			M15,17.7l1.2,1l1.4,0.2c0,0,1.2,0.1,1.4,0.1c0.2,0.1,1.4,0.6,1.4,0.6l1.7,0.7h1.2l1.3,0.6l1.1,0.2h1.1l1,0.6l1,0.4l1.2,0.3
			c0,0,1.3,0.1,1.6,0.2s1.1,0.3,1.1,0.3s0.8,0.2,0.9,0.3c0.1,0,1.1,0.6,1.2,0.7c0.1,0,1.5,0.6,1.5,0.6"/>
		
			<path fill="none" stroke="#979696" stroke-width="0.6" stroke-linecap="round" stroke-linejoin="round" stroke-miterlimit="10" d="
			M36.5,24.5c0,0,1.2,0.7,1.5,0.7s1.2,0.1,1.4,0c0.2-0.1,1.3,0,1.3,0l1.2,0.7c0,0,1.3,0.7,1.7,0.7c0.3,0,1.4,0,1.4,0
			s1.6,0.7,1.9,0.8s3,0.5,3,0.5l2,0.3l1.4-0.1c0,0,1.5,0.1,1.5,0.1s1.3,0,1.3,0l0.5-0.3"/>
		
			<path fill="none" stroke="#979696" stroke-width="0.6" stroke-linecap="round" stroke-linejoin="round" stroke-miterlimit="10" d="
			M63.2,19.8c0,0-0.9,0.2-1,0.3c-0.2,0.1-0.5,0.4-0.7,0.6c-0.2,0.2-0.3,0.2-0.4,0.6s-0.1,0.6-0.2,0.7s-0.6,1-0.6,1"/>
		
			<path fill="none" stroke="#979696" stroke-width="0.6" stroke-linecap="round" stroke-linejoin="round" stroke-miterlimit="10" d="
			M61.3,23.3l0.8-1.7l0.4-1.2c0,0-0.4-0.6-0.4-0.7c0-0.1-0.2-0.6-0.2-0.6"/>
		
			<path fill="none" stroke="#979696" stroke-width="0.6" stroke-linecap="round" stroke-linejoin="round" stroke-miterlimit="10" d="
			M59.3,13.5c-0.1,0-0.3,0-0.5-0.4c-0.2-0.4-0.3-0.4-0.5-0.5s-0.5-0.3-0.5-0.4s-0.7-0.7-0.7-0.7s-0.1-0.1-0.5-0.2
			C56.2,11.3,56,11,56,11l-0.5-0.8l-0.7-0.5l-0.7-0.6c0,0-0.6-0.7-0.8-0.9s-1.1-0.6-1.4-0.6s-1.1-0.4-1.1-0.4s-0.3-0.3-0.4-0.4
			c-0.1-0.1-1-0.2-1.3-0.3C48.8,6.4,48,6.3,48,6.3s-1.3-0.5-1.4-0.5c-0.1,0-1.1-0.3-1.4-0.3s-0.9,0-1-0.2c-0.1-0.2-0.3-0.5-0.7-0.6
			c-0.4-0.1-0.9-0.2-1.1-0.2c-0.2-0.1-0.3-0.1-1-0.2c-0.7-0.1-1-0.1-1-0.1s-0.3-0.2-0.6-0.2c-0.2,0-0.7,0-0.7,0s-0.2-0.2-0.5-0.3
			c-0.2-0.1-0.5,0.1-0.7,0s-0.7,0-0.7,0l-0.4-0.2c0,0-0.9-0.5-1-0.5c-0.1,0-0.9,0-1.1,0c-0.1,0-0.9-0.1-1.3-0.2
			c-0.4-0.1-0.8-0.1-1.1-0.1c-0.2,0-1-0.1-1.1,0c-0.1,0.1-0.9,0.2-1.2,0.2s-0.7,0-1-0.1c-0.2,0-0.9-0.2-1.1-0.1s-1.2,0-1.2,0
			l-0.3-0.2H26c0,0-0.5-0.1-0.6,0c-0.1,0.1-0.5,0.2-0.7,0.2s-0.6,0.2-0.8,0.2s-0.5,0.2-0.6,0.2c0,0-0.3,0.2-0.3,0.2"/>
	</g>
	<g id="dark_x5F_spots">
		<g>
			<path fill="#575756" d="M1.1,25.6c-0.2,0-0.4,0-0.4,0s-0.1,0.2-0.1,0.2s-0.1,0.2-0.1,0.2c0,0-0.3,0.1-0.3,0.3s0,0.3,0.1,0.5
				c0.1,0.2,0.2,0.3,0.4,0.5s0.2,0.3,0.2,0.4c0,0.1,0,0.2,0,0.3c-0.1,0.1-0.2,0.2-0.2,0.4s0,0.2,0,0.2s0.2,0,0.3,0
				c0.1-0.1,0.4-0.2,0.4-0.3s0-0.4,0-0.6c0-0.2,0-0.2-0.1-0.4c-0.1-0.2-0.1-0.3-0.1-0.5c0.1-0.2,0.2-0.3,0.2-0.5s-0.1-0.3-0.2-0.4
				C1.2,25.8,1.1,25.6,1.1,25.6z"/>
			<g>
				<path fill="#575756" d="M1.2,25.6c-0.1,0-0.3,0-0.4,0c-0.1,0-0.1,0-0.2,0.1c-0.1,0.1-0.1,0.2-0.2,0.4c-0.1,0.1-0.1,0.1-0.2,0.2
					C0,26.3,0,26.4,0,26.6c0,0.4,0.3,0.6,0.6,0.9c0.1,0.1,0.2,0.2,0.2,0.3c0,0.1,0,0.2,0,0.2c0,0.1-0.1,0.2-0.1,0.2
					c0,0.1-0.1,0.1-0.1,0.2c0,0,0,0.2,0,0.2c0.1,0.1,0.2,0,0.3,0c0.1-0.1,0.2-0.1,0.3-0.2c0.1-0.1,0.2-0.1,0.3-0.2
					c0.1-0.1,0.1-0.2,0.1-0.3c0-0.2,0-0.3,0-0.5c0-0.2-0.1-0.3-0.1-0.5c-0.1-0.2,0-0.3,0.1-0.5c0.1-0.2,0.1-0.4,0-0.6
					C1.4,25.8,1.3,25.7,1.2,25.6c0,0-0.2,0.1-0.2,0.1c0.1,0.1,0.2,0.2,0.3,0.2c0.1,0.1,0.1,0.3,0.1,0.4c0,0.2-0.1,0.3-0.2,0.5
					c-0.1,0.2,0,0.3,0.1,0.4c0.1,0.3,0.1,0.5,0.1,0.8c0,0.1,0,0.2-0.1,0.3c0,0.1-0.1,0.1-0.2,0.1c0,0-0.3,0.2-0.1,0c0,0,0,0,0.1,0
					c-0.1,0-0.2,0.1-0.3,0c-0.1,0-0.1-0.1,0-0.2c0-0.1,0-0.2,0.1-0.2C0.9,28,1,28,1,27.9c0.1-0.4-0.3-0.6-0.6-0.9
					c-0.1-0.2-0.2-0.3-0.2-0.5c0-0.2,0.1-0.2,0.2-0.3c0.1-0.1,0.1-0.2,0.2-0.3c0-0.1,0-0.2,0.1-0.2c-0.1,0-0.1,0.1-0.2,0.1
					c0.1,0,0.3,0,0.5,0C1,25.7,1.1,25.6,1.2,25.6z"/>
			</g>
		</g>
		<g>
			<path fill="#575756" d="M15.1,11.2c0,0-0.4,0.2-0.5,0.3c0,0-0.1,0.2-0.3,0.4c-0.1,0.2-0.2,0.3-0.3,0.4c-0.1,0.2-0.1,0.3-0.2,0.4
				s-0.3,0-0.4,0c-0.1,0-0.1,0.1-0.2,0.1c0,0.1,0,0.3,0,0.4c0,0.1,0.1,0.2-0.1,0.3c-0.1,0.1-0.3,0.3-0.3,0.3c0,0-0.2,0-0.4,0.1
				c-0.2,0.1-0.2,0.2-0.2,0.4c0,0.2,0,0.7,0,0.8c0,0,0.3,1.5,0.3,1.5l0.3,0.3c0,0,0.3,0.1,0.5,0.1c0.3,0,0.5,0.1,0.7,0.2
				c0.1,0.1,0.5,0.4,0.5,0.5c0,0.1,0.3,0.2,0.3,0.2s0.5-0.3,0.5-0.3c0-0.1,0.3-0.4,0.3-0.5s-0.2-0.8-0.2-0.8s-0.4-0.4-0.4-0.4
				s-0.6-0.6-0.6-0.6c0,0-0.2-0.6-0.2-0.7s0.2-0.5,0.2-0.6c0,0,0.3-0.5,0.3-0.5c0,0,0.1-0.4,0.1-0.4s0-0.5,0-0.5
				c0,0,0.4-0.4,0.4-0.4l0.3-0.3l-0.3-0.4L15.1,11.2z"/>
			<g>
				<path fill="#575756" d="M15.2,11.1c-0.2,0.1-0.5,0.2-0.6,0.4c-0.2,0.1-0.3,0.3-0.4,0.5c-0.1,0.1-0.1,0.2-0.2,0.4
					c-0.1,0.1-0.1,0.3-0.2,0.4c0.1,0,0.1-0.1,0.2-0.1c-0.3,0-0.4,0-0.6,0.2c-0.2,0.1-0.2,0.3-0.1,0.5c0,0.1,0,0.2,0,0.3
					c-0.1,0.1-0.3,0.3-0.4,0.3c0.1,0,0.1-0.1,0.2-0.1c-0.2,0-0.4,0.1-0.6,0.2c-0.3,0.2-0.3,0.5-0.3,0.8c0,0.5,0.2,1,0.3,1.5
					c0,0.2,0,0.3,0.1,0.4c0.2,0.3,0.5,0.3,0.8,0.4c0.2,0,0.4,0,0.6,0.2c0.1,0.1,0.3,0.3,0.4,0.4c0.1,0.1,0.3,0.4,0.5,0.4
					c0.1,0,0.4-0.2,0.5-0.3c0.2-0.1,0.4-0.3,0.5-0.5c0.1-0.3-0.1-0.6-0.2-0.8c-0.1-0.2-0.3-0.3-0.4-0.5c-0.2-0.2-0.4-0.4-0.5-0.5
					c-0.2-0.2-0.2-0.4-0.3-0.6c-0.1-0.5,0.3-0.9,0.5-1.2c0.1-0.2,0.1-0.5,0.1-0.7c0-0.1,0-0.2,0-0.3c0.1-0.1,0.2-0.2,0.3-0.3
					c0.1-0.1,0.1-0.1,0.2-0.2c0.1-0.1,0.1-0.1,0-0.2C15.5,11.5,15.4,11.3,15.2,11.1c0,0-0.2,0.1-0.2,0.1c0.1,0.1,0.2,0.3,0.3,0.4
					c0,0.1,0.2,0.2,0.2,0.3c0,0.1-0.1,0.1-0.1,0.2c-0.1,0.1-0.2,0.3-0.4,0.4c-0.2,0.2-0.1,0.3-0.2,0.5c0,0.2,0,0.4-0.1,0.5
					c-0.1,0.2-0.3,0.3-0.3,0.5c-0.1,0.2-0.2,0.4-0.2,0.6c0,0.2,0.1,0.5,0.2,0.6c0.1,0.2,0.2,0.3,0.4,0.4c0.1,0.1,0.3,0.3,0.4,0.4
					c0.2,0.2,0.3,0.2,0.3,0.4c0.1,0.2,0.2,0.5,0.1,0.7c-0.1,0.2-0.3,0.5-0.5,0.5c-0.2,0-0.4-0.3-0.5-0.4c-0.3-0.2-0.4-0.4-0.8-0.5
					c-0.3,0-0.5,0-0.8-0.3c-0.2-0.2-0.2-0.2-0.2-0.4c-0.1-0.3-0.1-0.6-0.2-0.9c-0.1-0.4-0.3-1.2,0.1-1.5c-0.1,0-0.1,0.1-0.2,0.1
					c0.2-0.1,0.4-0.1,0.6-0.2c0.2-0.1,0.4-0.3,0.4-0.5c0-0.2-0.1-0.5,0.1-0.6c-0.1,0-0.1,0.1-0.2,0.1c0.2-0.1,0.3,0,0.5-0.1
					c0.1,0,0.2-0.1,0.2-0.2c0.3-0.4,0.5-1.1,0.9-1.3C15.1,11.2,15.1,11.1,15.2,11.1z"/>
			</g>
		</g>
		<g>
			<path fill="#575756" d="M21.3,0.9c-0.1,0-0.4,0.3-0.6,0.4c-0.2,0.1-0.3,0.4-0.4,0.6c-0.1,0.1,0,0.2-0.1,0.3s-0.3,0.1-0.4,0.2
				c-0.1,0.1,0,0.2-0.2,0.3c-0.1,0.2-0.1,0.2-0.3,0.3S19,3.2,19,3.2s0.1,0,0.2,0.2c0,0.2,0.1,0.4,0.2,0.3c0.1,0,0.3-0.1,0.5-0.2
				S20.3,3,20.4,3c0.1,0,0.4-0.1,0.6,0c0.1,0.1,0.3,0.1,0.5,0c0.2-0.2,0.4-0.3,0.5-0.4s0.3-0.1,0.4,0s0.4,0.1,0.5,0
				c0.1-0.1,0.4-0.3,0.4-0.3s0.6-0.1,0.6-0.1c0,0,0.5,0.1,0.5,0.1c0,0,0.1,0.2,0.2,0.3c0.1,0.1,0.8-0.1,0.8-0.1s0.1-0.1,0.1-0.3
				s0-0.4,0.2-0.6c0.2-0.2,0.3-0.2,0.4-0.2c0,0,0.6-0.2,0.6-0.2c0,0-0.3-0.3-0.4-0.3c-0.1,0-0.5-0.2-0.8-0.1c-0.2,0-0.7,0-1.1,0.1
				c-0.5,0-1,0.1-1.2,0.1c-0.2,0-0.3,0-0.4,0c0,0-0.1-0.2-0.3-0.2s-0.6,0.1-0.7,0.1S21.3,0.9,21.3,0.9z"/>
			<g>
				<path fill="#575756" d="M21.4,0.9C21.3,0.9,21.1,1,21,1.1c-0.2,0.1-0.4,0.3-0.5,0.5c-0.1,0.1-0.2,0.2-0.2,0.3
					c0,0.1,0,0.2-0.1,0.3c0.1,0,0.1-0.1,0.2-0.1c-0.3,0.1-0.5,0.1-0.7,0.4c-0.1,0.2-0.2,0.3-0.4,0.5c-0.1,0.1-0.2,0.1-0.3,0.2
					c-0.1,0.1-0.1,0.1,0,0.2c0,0,0.1,0,0.1,0.1c0,0.1,0,0.1,0,0.2c0.1,0.2,0.3,0.1,0.5,0c0.4-0.2,0.5-0.6,0.8-0.8
					c-0.1,0-0.1,0.1-0.2,0.1C20.5,3,20.6,3,20.8,3c0.2,0.1,0.2,0.1,0.4,0c0.3-0.1,0.5-0.3,0.7-0.5c-0.1,0-0.1,0.1-0.2,0.1
					c0.4-0.2,0.8,0.1,1.2-0.1c0.1-0.1,0.2-0.2,0.3-0.2c0.1,0,0.2,0,0.3-0.1c0.2,0,0.5-0.1,0.6,0c0.2,0.1,0.2,0.3,0.5,0.3
					c0.2,0,0.4,0,0.6-0.1c0.1,0,0.2-0.1,0.2-0.1c0.1-0.1,0.1-0.3,0.1-0.5c0-0.2,0.2-0.4,0.4-0.5c-0.1,0-0.1,0.1-0.2,0.1
					c0.2-0.1,0.4-0.1,0.6-0.2c0,0,0.2-0.1,0.2-0.1c0-0.1-0.4-0.3-0.5-0.4c-0.4-0.1-0.7-0.1-1.1-0.1c-0.5,0-1,0.1-1.6,0.1
					c-0.2,0-0.4,0-0.5,0c-0.1,0-0.1-0.1-0.2-0.2c-0.2-0.1-0.8,0-1,0.1c-0.2,0.1-0.3,0.2-0.5,0.3c-0.1,0.1-0.1,0.1,0,0
					c0.2-0.1,0.4-0.2,0.7-0.3c0.3,0,0.4-0.1,0.6,0.1c0.1,0.1,0,0.1,0.2,0.1c0.1,0,0.3,0,0.4,0c0.3,0,0.6,0,0.8,0c0.3,0,0.6,0,1-0.1
					c0.2,0,0.5-0.1,0.7,0c0.1,0,1,0.3,0.8,0.5c0.1,0,0.1-0.1,0.2-0.1c-0.3,0.1-0.6,0.2-0.8,0.3c-0.1,0.1-0.3,0.1-0.4,0.3
					c-0.2,0.2-0.1,0.6-0.3,0.8c0.1,0,0.1-0.1,0.2-0.1c-0.2,0.1-0.7,0.2-0.9,0c-0.1-0.1-0.1-0.2-0.1-0.2c0,0-0.2,0-0.2-0.1
					c-0.1,0-0.2,0-0.4,0c-0.5,0-0.9,0.2-1.2,0.6c0.1,0,0.1-0.1,0.2-0.1c-0.2,0.1-0.4,0-0.6-0.1c-0.1,0-0.3,0-0.4,0.1
					c-0.3,0.1-0.5,0.3-0.7,0.5c0.1,0,0.1-0.1,0.2-0.1C21.2,3,21,2.8,20.8,2.9c-0.1,0-0.2,0-0.4,0.1c-0.3,0.2-0.5,0.5-0.8,0.8
					c0.1,0,0.1-0.1,0.2-0.1c-0.1,0-0.3,0.1-0.4,0.1c-0.1-0.1-0.1-0.3-0.2-0.4c0-0.1-0.1-0.1-0.1-0.2c0-0.1,0.1-0.1,0.2-0.2
					c0.1,0,0.2-0.1,0.2-0.1c0.2-0.2,0.2-0.5,0.4-0.6c-0.1,0-0.1,0.1-0.2,0.1c0.2-0.1,0.4-0.1,0.5-0.2c0.1-0.1,0.2-0.4,0.3-0.6
					c0.2-0.2,0.4-0.4,0.6-0.6c0,0-0.1,0.1-0.1,0.1c0,0,0,0,0.1,0C21.3,0.9,21.4,0.9,21.4,0.9z"/>
			</g>
		</g>
		<g>
			<path fill="#575756" d="M60.2,13.2l-0.1,0.3c0,0-0.1,0.2-0.1,0.2s-0.3-0.1-0.3-0.1s-0.2-0.1-0.2-0.1c0,0-0.4,0-0.4,0
				s-0.2,0.1,0,0.2s0.4,0.1,0.6,0.2c0.2,0.1,0.5,0.2,0.6,0.3c0.1,0.1,0,0.1,0.1,0.2c0.1,0.1,0.2,0,0.2,0.1s-0.1,0.3,0,0.5
				c0,0.2,0,0.3,0.2,0.4c0.1,0.1,0.1,0.3,0.3,0.4c0.1,0.1,0.3,0.4,0.3,0.4s0.2,0.2,0.4,0.4c0.2,0.2,0.3,0.4,0.3,0.5
				c0.1,0.1,0.2,0.3,0.3,0.4s0.1,0.2,0.1,0.2s0,0.4,0,0.4s0.1,0.5,0.1,0.6s0.1,0.1,0.1,0.3c0.1,0.2,0.1,0.2,0.2,0.2
				c0.1,0,0.2-0.2,0.2-0.3s-0.1-0.5,0-0.6c0.1-0.1,0.1,0,0.1-0.2c0-0.2-0.1-0.8-0.1-0.8S63,17,62.9,16.9c-0.1,0-0.4-0.3-0.4-0.3
				s-0.3-0.7-0.3-0.7c0,0-0.3-0.9-0.3-1s-0.3-0.4-0.3-0.4c0,0-0.7-0.8-0.7-0.8l-0.5-0.5L60.2,13.2z"/>
			<g>
				<path fill="#575756" d="M60.1,13.2c0,0.1-0.1,0.4-0.2,0.5c0.1,0,0.1-0.1,0.2-0.1c-0.4,0-0.7-0.3-1.1-0.1c-0.1,0.1-0.1,0.1,0,0.2
					c0.2,0.1,0.5,0.2,0.7,0.3c0.1,0.1,0.4,0.1,0.5,0.2c0.1,0.1,0,0.1,0.1,0.2c0.1,0,0.1,0,0.1,0.1c0,0.2-0.1,0.4,0,0.6
					c0,0.1,0.1,0.2,0.1,0.3c0.1,0.1,0.1,0.2,0.2,0.3c0.1,0.1,0.2,0.2,0.3,0.4c0.1,0.1,0.2,0.2,0.2,0.3c0.2,0.2,0.3,0.3,0.4,0.5
					c0.1,0.2,0.2,0.3,0.3,0.5c0.1,0.1,0.2,0.2,0.2,0.3c0,0.1,0,0.3,0,0.4c0,0.2,0.1,0.5,0.2,0.8c0.1,0.3,0.2,0.5,0.4,0.3
					c0.3-0.2,0.2-0.3,0.2-0.6c0-0.1,0-0.2,0-0.3c0-0.1,0.1-0.1,0.1-0.1c0.1-0.1,0.1-0.3,0-0.4c0-0.2,0-0.5-0.2-0.7
					c-0.2-0.2-0.5-0.3-0.6-0.5c-0.3-0.3-0.4-0.8-0.5-1.2c-0.1-0.3-0.2-0.5-0.3-0.7c-0.1-0.2-0.3-0.4-0.5-0.6c-0.3-0.4-0.6-0.7-1-0.9
					C60.2,13.1,60.1,13.2,60.1,13.2c0.4,0.1,0.6,0.4,0.9,0.7c0.3,0.3,0.6,0.7,0.8,1.1c0.2,0.4,0.2,0.9,0.4,1.3
					c0.1,0.2,0.2,0.4,0.4,0.5c0.2,0.2,0.5,0.3,0.6,0.5c0,0.1,0,0.3,0.1,0.5c0,0.1,0.1,0.4,0,0.5c0,0.1-0.1,0.1-0.1,0.1
					c0,0.1,0,0.2,0,0.3c0,0.2,0.1,0.4-0.1,0.6c0.1,0,0.1-0.1,0.2-0.1c-0.2,0.1-0.3-0.5-0.4-0.6c-0.1-0.3-0.1-0.5-0.1-0.8
					c0-0.3-0.2-0.4-0.4-0.7c-0.1-0.2-0.2-0.4-0.3-0.5c-0.1-0.1-0.3-0.3-0.4-0.4c-0.1-0.1-0.1-0.2-0.2-0.3c-0.1-0.2-0.2-0.3-0.3-0.4
					c-0.1-0.2-0.2-0.3-0.3-0.5c0-0.2,0.1-0.4,0-0.5c0-0.1,0-0.1-0.1-0.1c-0.1,0-0.1,0-0.1-0.1c0,0,0-0.1,0-0.1
					c-0.1-0.1-0.3-0.2-0.5-0.2c-0.2-0.1-0.4-0.2-0.6-0.2c-0.1,0-0.5-0.1-0.2-0.3c-0.1,0-0.1,0.1-0.2,0.1c0.2,0,0.3,0,0.5,0.1
					c0.1,0,0.2,0.1,0.4,0.1c0.3-0.1,0.3-0.4,0.4-0.6C60.3,13.2,60.1,13.2,60.1,13.2z"/>
			</g>
		</g>
		<g>
			<path fill="#575756" d="M60.5,15.7c-0.1,0-0.2,0.1-0.2,0.2c0,0.1,0,0.5,0,0.5c0,0.1,0.2,0.1,0.2,0.2c0,0.1,0,0.2,0,0.3
				c0,0.1,0,0.2,0,0.2s0.2-0.1,0.2,0s0.1,0.2,0.1,0.2c0,0.1,0,0.3,0,0.4s-0.1,0.3-0.2,0.3c-0.1,0.1-0.1,0.3-0.1,0.3s0.2,0.2,0.2,0.2
				s0.2,0,0.3-0.1c0,0,0.2-0.3,0.3-0.4c0.1-0.1,0.1-0.2,0.2-0.1c0.1,0.1,0.2,0.4,0.1,0.4s0,0.3,0,0.4c0,0.1,0,0.2,0,0.3
				s0.1,0.4,0.1,0.4l0,0.2l-0.3,0.4c0,0,0.2,0.4,0.2,0.5s0.2,0.1,0.2,0s0.3,0,0.3,0s0.1,0.1,0.2,0.1c0,0,0.1,0,0.2,0
				c0.1,0,0.3-0.2,0.3-0.3s-0.1-0.5-0.2-0.7c-0.1-0.2-0.3-0.3-0.3-0.6c0-0.3-0.1-0.6-0.1-0.8s0.1-0.3,0.1-0.4s-0.1-0.4-0.2-0.5
				c-0.1-0.1,0-0.4-0.1-0.4s-0.4,0-0.4-0.1c0-0.1-0.1-0.3-0.2-0.4c-0.1,0-0.4-0.1-0.4-0.1s-0.1-0.4-0.1-0.5c0,0,0.1-0.2,0-0.2
				c-0.1,0-0.2-0.2-0.2-0.2L60.5,15.7z"/>
			<g>
				<path fill="#575756" d="M60.6,15.6c-0.1,0-0.3,0.1-0.3,0.2c-0.1,0.1-0.1,0.2-0.1,0.3c0,0.1,0,0.3,0,0.4c0.1,0.1,0.2,0.1,0.2,0.2
					c0,0.1-0.1,0.4,0,0.5c0.1,0.1,0.2,0,0.3,0.1c0.1,0.1,0.1,0.3,0.1,0.4c0,0.3-0.2,0.4-0.3,0.7c0,0.1-0.1,0.2,0,0.3
					c0.1,0.1,0.1,0.1,0.2,0.1c0.4-0.1,0.5-0.4,0.8-0.7c-0.1,0-0.1,0.1-0.2,0.1c0.3,0,0.2,0.9,0.2,1.1c0,0.3,0.3,0.5,0.1,0.8
					c-0.1,0.1-0.2,0.2-0.2,0.3c0,0.1,0.1,0.4,0.1,0.4c0.1,0.1,0.2,0.1,0.3,0.1c0.1,0,0.1,0,0.2,0c0.1,0,0.1,0.1,0.2,0.2
					c0.2,0.1,0.7-0.2,0.7-0.4c0-0.2-0.2-0.5-0.2-0.7c-0.1-0.2-0.3-0.3-0.3-0.6c0-0.3-0.1-0.6,0-0.8c0.1-0.2,0-0.4,0-0.6
					c0-0.1-0.1-0.2-0.1-0.3c0-0.1,0-0.2,0-0.3c0-0.2-0.3-0.1-0.4-0.2c-0.1-0.1-0.1-0.2-0.2-0.3c-0.1-0.1-0.2-0.1-0.3-0.2
					c-0.2-0.1-0.2,0-0.3-0.2c0-0.1-0.1-0.2,0-0.3c0-0.1,0.1-0.1,0-0.2C61,15.8,60.7,15.7,60.6,15.6c0,0-0.2,0.1-0.2,0.1
					c0.2,0.1,0.4,0.2,0.4,0.4c0,0.1,0,0.1,0,0.2c0,0.1,0,0.2,0.1,0.3c0,0.1,0.2,0.1,0.3,0.1c0.1,0,0.2,0.1,0.3,0.2
					c0.1,0.2,0.1,0.2,0.3,0.3c0.1,0,0.2,0,0.2,0.1c0,0.1,0,0.2,0,0.4c0.1,0.1,0.1,0.3,0.2,0.4c0.1,0.2,0,0.3,0,0.4
					c-0.1,0.2,0,0.3,0,0.5c0,0.2,0,0.4,0.1,0.6c0.1,0.1,0.2,0.2,0.3,0.4c0.2,0.3,0.4,0.6,0.1,0.9c0,0,0,0,0.1,0c0,0,0,0,0,0
					c0.1,0,0.1-0.1,0.2-0.1c-0.1,0-0.3,0-0.4-0.1c-0.1-0.1-0.1-0.1-0.2-0.1c-0.1,0-0.2,0-0.3,0c-0.1,0-0.1-0.1-0.1-0.2
					c0-0.1-0.1-0.2-0.1-0.3c0,0,0.1-0.1,0.1-0.2c0.1-0.1,0.2-0.3,0.2-0.5c0-0.1-0.1-0.2-0.1-0.3c-0.1-0.2-0.1-0.3-0.1-0.5
					c0-0.3,0.1-0.5,0-0.7c-0.1-0.2-0.2-0.1-0.3,0c-0.2,0.1-0.3,0.3-0.4,0.5c0.1,0,0.1-0.1,0.2-0.1c-0.1,0.1-0.2,0.1-0.3,0
					c-0.1-0.1-0.1-0.2-0.1-0.4c0-0.2,0.2-0.3,0.2-0.5c0.1-0.2,0-0.3-0.1-0.5c0-0.1,0-0.2-0.2-0.2c-0.1,0-0.1,0.1-0.2-0.1
					c-0.1-0.2,0.1-0.4,0-0.5c0,0-0.1,0-0.2-0.1c0-0.1,0-0.2,0-0.2C60.4,15.9,60.4,15.8,60.6,15.6c-0.1,0.1-0.2,0.1-0.3,0.1
					c0,0,0,0,0,0C60.5,15.7,60.5,15.6,60.6,15.6z"/>
			</g>
		</g>
		<g>
			<path fill="#575756" d="M60.7,23c0,0,0,0.1,0,0.2c0,0.1,0.2,0.1,0.2,0.1s0.2-0.1,0.2-0.2s0-0.3,0.1-0.4c0-0.1,0.1-0.2,0.2-0.3
				c0.1-0.1,0.2,0,0.2,0s0.1,0.1,0.2,0.1c0.1,0,0.1,0.3,0.1,0.4s-0.1,0.4-0.1,0.4s0,0.6,0,0.7s-0.1,0.4-0.1,0.5c0,0-0.3,0.4-0.3,0.4
				s-0.3,0.5-0.4,0.5c-0.1,0.1-0.3,0.5-0.4,0.6c-0.1,0.1-0.4,0.4-0.5,0.5c-0.1,0.1-0.6,0.3-0.7,0.3c-0.1,0-1,0.1-1.2,0.2
				c-0.1,0-0.2,0.1-0.2,0.3c-0.1,0.1-0.2,0.2-0.2,0.3c-0.1,0.1-0.4,0.3-0.6,0.4s-0.3,0-0.4,0s-0.2-0.3-0.2-0.3c0,0,0-0.2,0.1-0.3
				c0.1-0.1-0.1-0.3-0.1-0.3S56.1,27,55.9,27s-0.4,0.1-0.6,0.1c-0.2,0-0.4,0.2-0.5,0.2c-0.1,0-0.2-0.1-0.3-0.1c0,0,0-0.2,0.1-0.2
				s0.4-0.2,0.5-0.2s0.5-0.2,0.6-0.2c0.1,0,0.3,0,0.5,0s0.4,0,0.6,0.1c0.2,0.1,0.4,0.1,0.4,0.1c0,0,0.4,0,0.6,0
				c0.2,0,0.3-0.1,0.4-0.2c0.1-0.1,0.4-0.3,0.6-0.5c0.2-0.1,0.4-0.5,0.6-0.6c0.2-0.1,0.3-0.4,0.3-0.5s0-0.7,0-0.8s0.1-0.4,0.2-0.5
				c0.1-0.1,0.1-0.3,0.3-0.4c0.2-0.2,0.1-0.2,0.1-0.4c0.1-0.1,0.2-0.1,0.4-0.1L60.7,23z M60.6,24.3c-0.2,0-0.2,0-0.3,0
				s0,0.2-0.1,0.2c0,0-0.1,0.1,0,0.1c0.1,0,0.3,0.1,0.3,0.1s0.1-0.1,0.1-0.1c0-0.1,0-0.2,0-0.2C60.7,24.3,60.6,24.3,60.6,24.3z"/>
			<g>
				<path fill="#575756" d="M60.6,23c0.1,0.3,0.1,0.4,0.4,0.3c0.1-0.1,0.2-0.1,0.2-0.2c0-0.1,0-0.2,0-0.3c0-0.1,0.1-0.2,0.2-0.3
					c-0.1,0-0.1,0.1-0.2,0.1c0.2-0.1,0.4,0.2,0.4,0.3c0,0.3-0.1,0.4-0.1,0.7c-0.1,0.3,0,0.7-0.1,1c-0.1,0.3-0.2,0.4-0.4,0.7
					c-0.2,0.3-0.4,0.7-0.7,1c-0.3,0.3-0.5,0.6-1,0.7c-0.4,0.1-0.7,0.1-1.1,0.2c-0.2,0-0.4,0.1-0.5,0.2c-0.1,0.1-0.1,0.2-0.2,0.4
					c-0.1,0.1-0.1,0.2-0.2,0.2c-0.2,0.2-0.6,0.3-0.8,0.1c-0.2-0.3,0-0.4-0.1-0.7c-0.1-0.3-0.4-0.3-0.7-0.3c-0.3,0-0.6,0.2-0.9,0.3
					c-0.2,0-0.5,0-0.3-0.3c-0.1,0-0.1,0.1-0.2,0.1c0.3-0.1,0.6-0.3,0.8-0.4c0.4-0.2,1-0.1,1.4,0c0.3,0.1,0.7,0.2,1,0
					c0.1-0.1,0.2-0.1,0.4-0.2c0.3-0.2,0.5-0.3,0.7-0.5c0.3-0.3,0.8-0.6,0.9-1.1c0.1-0.3,0-0.7,0.1-1.1c0.1-0.2,0.1-0.4,0.3-0.6
					c0.1-0.1,0.2-0.1,0.2-0.3c0-0.1,0-0.1,0.1-0.2c-0.1,0-0.1,0.1-0.2,0.1c0.1,0,0.3-0.1,0.3,0C60.6,22.8,60.6,23,60.6,23
					c0,0,0.2-0.1,0.2-0.1c0-0.1-0.1-0.2-0.1-0.2c-0.1,0-0.2,0-0.3,0c-0.1,0-0.2,0.1-0.2,0.1c-0.1,0.1,0,0.2-0.1,0.3
					c-0.1,0.1-0.2,0.2-0.3,0.3c-0.1,0.3-0.2,0.6-0.2,0.9c0,0.3,0,0.5-0.1,0.7c-0.1,0.3-0.4,0.5-0.7,0.7c-0.4,0.4-0.7,0.6-1.1,0.8
					c0.1,0,0.1-0.1,0.2-0.1c-0.3,0.1-0.7,0.1-0.9,0c-0.4-0.1-0.9-0.2-1.3-0.1c-0.4,0.1-0.8,0.3-1.2,0.5c-0.1,0.1-0.3,0.2-0.1,0.3
					c0.3,0.2,0.7-0.1,1-0.2c0.3-0.1,0.8-0.1,0.8,0.4c0,0.2-0.1,0.2-0.1,0.4c0.1,0.1,0.1,0.2,0.3,0.3c0.3,0,0.6-0.2,0.8-0.3
					c0.1-0.1,0.2-0.1,0.3-0.2c0.2-0.2,0.2-0.4,0.4-0.6c-0.1,0-0.1,0.1-0.2,0.1c0.3-0.1,0.7-0.1,1-0.2c0.3,0,0.6-0.1,0.9-0.3
					c0.4-0.2,0.7-0.5,1-0.9c0.2-0.3,0.4-0.5,0.6-0.8c0.1-0.2,0.3-0.3,0.4-0.5c0.1-0.3,0.1-0.6,0.1-0.9c0-0.3,0.2-0.6,0.2-1
					c0-0.1-0.2-0.3-0.3-0.3c-0.1,0-0.2,0.1-0.2,0.1c-0.1,0.1-0.2,0.2-0.2,0.3c-0.1,0.2,0,0.5-0.3,0.6c0.1,0,0.1-0.1,0.2-0.1
					c-0.2-0.1-0.2-0.2-0.2-0.4C60.9,22.9,60.6,23,60.6,23z"/>
				<path fill="#575756" d="M60.8,24.2c-0.1,0-0.1,0-0.2,0c0,0,0,0-0.1,0c-0.1,0-0.1,0.1-0.2,0.1c0,0,0,0-0.1,0c0,0,0,0,0,0.1
					c0,0,0,0.1,0,0.1c0,0,0,0,0,0.1c0,0,0,0.1,0,0.1c0,0,0,0,0.1,0c0,0,0.1,0,0.1,0c0,0,0.1,0,0.1,0c0,0,0,0,0,0c0,0,0.1,0,0.1-0.1
					c0.1,0,0.1-0.1,0.2-0.1c0,0,0,0,0.1-0.1c0,0,0-0.1,0-0.1c0,0,0-0.1,0-0.1C60.9,24.2,60.8,24.2,60.8,24.2
					C60.8,24.2,60.7,24.2,60.8,24.2c-0.1,0-0.1,0-0.1,0.1c0,0-0.1,0-0.1,0c0,0,0,0,0,0c0,0,0.1,0,0.1,0c0,0,0,0.1,0,0.1
					c0,0.1,0,0.1,0,0.2c0,0,0,0.1-0.1,0.1c0,0,0,0,0,0c0,0,0,0,0,0c0,0,0,0,0.1-0.1c0.2-0.1,0.1-0.1,0.1-0.1c0,0,0,0,0,0
					c0,0,0,0,0,0c0,0,0,0,0,0c-0.1,0-0.1,0-0.2,0c0,0-0.1,0-0.1-0.1c0,0,0-0.1,0-0.1c0,0,0,0,0-0.1c0,0,0-0.1,0-0.1c0,0,0-0.1,0-0.1
					c0,0,0,0,0,0c0,0,0,0,0,0c0,0-0.1,0.1-0.1,0.1c0,0,0,0-0.1,0c0,0,0,0,0,0c0,0,0.1,0,0.1,0c0.1,0,0.1,0,0.2,0c0,0,0,0,0,0
					c0,0,0.1,0,0.1,0C60.7,24.2,60.7,24.2,60.8,24.2C60.7,24.2,60.7,24.2,60.8,24.2z"/>
			</g>
		</g>
		<g>
			<path fill="#575756" d="M43.3,40.6c0,0-0.3,0.1-0.3,0.2c0,0.1,0.1,0.2,0.1,0.1c0.1,0,0.3,0,0.3,0c0.1,0,0.2-0.1,0.3-0.1
				s0.2-0.1,0.3-0.1c0.1,0,0.2,0.1,0.3,0s-0.1-0.2-0.2-0.3c-0.1,0-0.2,0-0.3,0S43.3,40.6,43.3,40.6z"/>
			<g>
				<path fill="#575756" d="M43.5,40.6c-0.1,0.1-0.3,0.1-0.4,0.2c0,0-0.1,0.1-0.1,0.1c0,0.1,0,0.1,0.1,0.2c0.1,0,0.1,0,0.2,0
					c0,0,0.1,0,0.1,0c0,0,0.1,0,0.1,0c0.1,0,0.2-0.1,0.3-0.1c0.1,0,0.1-0.1,0.2-0.1c0,0,0,0,0,0c0,0-0.2,0.1-0.1,0.1c0,0,0,0,0.1,0
					c0,0,0.1,0,0.1,0c0.1,0,0.1,0,0.2,0c0.1,0,0.2,0,0.3-0.1c0.1,0,0.1-0.1,0.1-0.1c0-0.1-0.1-0.1-0.1-0.1c0,0-0.1,0-0.2,0
					c-0.1,0-0.3,0-0.4,0C43.7,40.5,43.6,40.6,43.5,40.6c0,0-0.1,0-0.1,0.1c0,0-0.1,0.1-0.1,0.1c0.2,0,0.4-0.1,0.6-0.1
					c0.1,0,0.2,0,0.2,0c0,0,0.1,0,0.1,0c0.1,0,0.2,0.2,0.1,0.2c0.1,0,0.1-0.1,0.2-0.1c-0.1,0-0.2,0-0.2,0c-0.1,0-0.1,0-0.2,0
					c-0.1,0-0.3,0.1-0.4,0.2c0,0,0,0,0,0c0,0,0.1-0.1,0.1-0.1c0,0,0,0,0,0c0,0-0.1,0-0.1,0c-0.1,0-0.1,0-0.2,0
					c-0.1,0-0.3,0.1-0.3-0.1c0-0.1,0-0.1,0.1-0.2c0,0,0.1-0.1-0.1,0c-0.1,0.1-0.1,0-0.1,0c0,0,0,0,0,0c0,0,0,0,0,0
					C43.3,40.7,43.4,40.6,43.5,40.6z"/>
			</g>
		</g>
		<g>
			<path fill="#575756" d="M21.6,38.4c0,0-0.2,0.1-0.2,0.1s0,0.1,0.2,0.1c0.2,0.1,0.2,0.2,0.2,0.3c0,0.1,0.1,0.1,0.1,0.1
				c0.1,0,0.1,0,0.2,0c0.1,0,0.2-0.2,0.2-0.2c0,0-0.2-0.2-0.2-0.2s0,0-0.2,0C21.7,38.6,21.6,38.4,21.6,38.4z"/>
			<g>
				<path fill="#575756" d="M21.7,38.3c-0.1,0-0.1,0-0.2,0.1c0,0-0.2,0.1-0.2,0.1c0,0.1,0.2,0.1,0.3,0.2c0.1,0,0.1,0.1,0.1,0.1
					c0,0,0,0.1,0,0.1c0,0.1,0.1,0.1,0.2,0.1c0.1,0,0.1,0,0.2-0.1c0.1,0,0.2-0.1,0.2-0.2c0,0,0.1-0.1,0.1-0.1c0,0-0.1-0.1-0.1-0.1
					c0,0-0.1-0.1-0.1-0.1c0,0-0.1,0.1-0.1,0.1c0,0-0.1,0-0.1,0c0,0,0,0,0,0c0,0,0,0,0,0c0.1,0,0.1-0.1,0.2-0.1c0,0,0,0,0,0
					c0,0,0,0,0,0c-0.1,0-0.2,0-0.2-0.1C21.8,38.5,21.8,38.4,21.7,38.3c0,0-0.2,0.1-0.2,0.1c0.1,0.1,0.2,0.2,0.3,0.2c0,0,0.1,0,0.1,0
					c0,0,0,0,0,0c0,0,0.1,0,0.1,0c0,0,0.1-0.1,0.1-0.1c0,0,0,0,0,0c-0.1,0-0.1,0.1-0.2,0.1c0.1,0.1,0.1,0.1,0.1,0.2c0,0,0,0.1,0,0.1
					c0,0.1-0.1,0.1-0.1,0.1c0,0,0,0,0,0c-0.1,0,0,0,0.2-0.1c0,0,0,0,0,0c0,0,0,0,0,0c0,0-0.1,0-0.1,0c-0.1,0-0.1-0.1-0.1-0.1
					c0,0,0-0.1,0-0.1c0-0.1,0-0.1-0.1-0.1c-0.1-0.1-0.2-0.1-0.3-0.2c-0.1,0-0.1,0.1-0.2,0.1c0.1,0,0.1-0.1,0.2-0.1c0,0,0,0,0,0
					c0,0,0.1,0,0.1,0C21.6,38.4,21.7,38.4,21.7,38.3C21.7,38.4,21.7,38.3,21.7,38.3z"/>
			</g>
		</g>
	</g>
	<g>
		<path d="M30.1,11.1v4.7c0,0.7,0.1,1.1,1.2,1.1v0.2h-2.5v-0.2c1.1-0.1,1.1-0.5,1.1-1.1v-3.6c0-1.3-0.1-1.4-1-1.4v-0.2h1.9l3.9,5.2
			v-4c0-0.6-0.1-1-1.1-1v-0.2h2.4v0.2c-1,0.1-1,0.4-1,1.1v5.5h-0.2L30.1,11.1z"/>
		<path d="M40.8,16.4c0,0.4-0.3,0.8-0.8,0.8c-0.6,0-0.7-0.5-0.8-0.7c-0.5,0.3-1.1,0.7-1.6,0.7c-0.4,0-1-0.3-1-0.8
			c0-0.6,0.5-1,1.8-1.6l0.8-0.3v-0.2c0-0.6-0.1-1.1-0.9-1.1c-0.3,0-0.8,0.1-0.8,0.4c0,0.2-0.1,0.5-0.4,0.5c-0.2,0-0.3-0.1-0.3-0.3
			c0-0.3,0.4-0.9,1.6-0.9c1.5,0,1.5,0.9,1.5,1.4V16c0,0.6,0,0.9,0.3,0.9c0.1,0,0.3-0.1,0.4-0.5H40.8z M39.2,14.7l-0.5,0.2
			c-0.5,0.2-1.3,0.6-1.3,1.3c0,0.3,0.2,0.7,0.6,0.7c0.4,0,1-0.5,1.2-0.6V14.7z"/>
		<path d="M42.6,15.8c0,0.9-0.1,1.1,0.5,1.1h0.2v0.2h-2.2v-0.2h0.2c0.4,0,0.6-0.1,0.6-0.8v-1.6c0-1.1-0.1-1.1-0.8-1.1v-0.2
			c0.3,0,0.9-0.1,1.4-0.3h0.1V15.8z M42.2,10.4c0.3,0,0.5,0.2,0.5,0.5c0,0.3-0.2,0.5-0.5,0.5c-0.3,0-0.5-0.2-0.5-0.5
			C41.6,10.7,41.9,10.4,42.2,10.4z"/>
		<path d="M44.9,15.8c0,1.1,0,1.1,0.7,1.1v0.2h-2.1v-0.2h0.1c0.6,0,0.6-0.1,0.6-1.1v-4c0-0.7,0-1-0.7-1v-0.2c0.4,0,0.9-0.1,1.3-0.2
			h0.1V15.8z"/>
	</g>
</g>
<g>
</g>
<g>
</g>
<g>
</g>
<g>
</g>
<g>
</g>
<g>
</g>
</svg>
