<?xml version="1.0" encoding="utf-8"?>
<!-- Generator: Adobe Illustrator 24.2.0, SVG Export Plug-In . SVG Version: 6.00 Build 0)  -->
<svg version="1.1" id="Layer_1" xmlns="http://www.w3.org/2000/svg" xmlns:xlink="http://www.w3.org/1999/xlink" x="0px" y="0px"
	 viewBox="0 0 278.5 23.9" style="enable-background:new 0 0 278.5 23.9;" xml:space="preserve">
<style type="text/css">
	.st0{fill:#9D9D9D;}
	.st1{fill:#A8A8A8;}
	.st2{fill:#8A8A8A;}
	.st3{fill:#858585;}
	.st4{fill:#7F7F7F;}
	.st5{fill:#888888;}
	.st6{fill:#939393;}
	.st7{fill:#969696;}
	.st8{fill:#A0A0A0;}
	.st9{fill:#A2A2A2;}
	.st10{fill:#7C7C7C;}
	.st11{fill:#A3A3A3;}
	.st12{fill:#AFAFAF;}
	.st13{fill:#A1A1A1;}
	.st14{fill:#B1B1B1;}
	.st15{fill:#949494;}
	.st16{fill:#7B7B7B;}
	.st17{fill:#7A7A7A;}
	.st18{fill:#767676;}
	.st19{fill:#808080;}
	.st20{fill:#9C9C9C;}
	.st21{fill:#9E9E9E;}
	.st22{fill:#B0B0B0;}
	.st23{fill:#BDBDBD;}
	.st24{fill:#909090;}
	.st25{fill:#707070;}
	.st26{fill:#6C6C6C;}
	.st27{fill:#8D8D8D;}
	.st28{fill:#6D6D6D;}
	.st29{fill:#686868;}
	.st30{fill:#606060;}
	.st31{fill:#5E5E5E;}
	.st32{fill:#737373;}
	.st33{fill:#797979;}
	.st34{fill:#6E6E6E;}
	.st35{fill:#818181;}
	.st36{fill:#AAAAAA;}
	.st37{fill:#828282;}
	.st38{fill:#727272;}
	.st39{fill:#8C8C8C;}
	.st40{fill:#9B9B9B;}
	.st41{fill:#A4A4A4;}
	.st42{fill:#999999;}
	.st43{fill:#656565;}
	.st44{fill:#787878;}
	.st45{fill:#ABABAB;}
	.st46{fill:#616161;}
	.st47{fill:#545454;}
</style>
<g id="Layer_2_1_">
	<g id="_12130a_galley_draft">
		<g id="_12130a_draft">
			<path class="st0" d="M103.3,5.6h0.5c0.4-0.2,0.9,0.1,1.3,0c0.2,0,0.4,0,0.5,0c0.4-0.1,0.7-0.1,0.8,0.5s-0.1,0.7-0.6,0.8
				c-0.8,0.2-1.3-0.1-2.1,0c-0.5,0.1-0.6,0-1.2,0.1c-0.3,0-0.6,0-0.9,0c-1-0.1-2-0.1-2.9,0c-0.1,0-0.2,0.3-0.3,0.3S98.2,7,98.3,6.8
				c0.3-0.4,0.5-0.8,0.9-1.2C100.5,5.9,101.9,5.6,103.3,5.6z"/>
			<path class="st1" d="M103.5,6.9c0.7-0.1,1.4-0.6,2.2-0.3c0.3,0.1,0.5-0.2,0.5-0.5s0-0.4-0.5-0.4c-0.7,0-1.3,0-2-0.2
				c0.3-0.1,0.6-0.1,0.9-0.1l4.9-0.2c0.1,0,0.2,0,0.3-0.1c0.3-0.1,0.7-0.2,1-0.1c0.4,0.1,0.8,0.2,1.2,0c0.3-0.1,0.7,0,0.8,0.3
				c0,0,0,0,0,0c0.2,0.4,0.3,0.6,0,0.7c-0.9,0.1-1.7,0.2-2.6,0.3c-1.3,0.2-2.6,0.3-3.9,0.3C105.4,6.9,104.5,7,103.5,6.9z"/>
			<path class="st2" d="M45,10.6c-0.6,0-1.1-0.2-1.7-0.4C43.1,10.1,43,9.8,43,9.6c0-0.3,0.3-0.3,0.4-0.4c0.7-0.3,1.3,0.1,1.9,0.3
				c0.3,0.1,0.8,0.2,0.8,0.7S45.5,10.7,45,10.6z"/>
			<path class="st3" d="M57.4,8c0.3,0.7,1,0.8,1.5,1.1c0.2,0.4-0.1,0.7-0.4,0.8s-0.7,0.4-1.2,0.1c-0.2-0.1-0.3-0.3-0.5-0.5l0,0
				c-0.1-0.2-0.3-0.3-0.4-0.4s-0.3-0.5,0-0.8S57,7.8,57.4,8z"/>
			<path class="st4" d="M59,15.9c0-0.4-0.1-0.9,0.4-1.1c0.5-0.2,1,0,1.4,0.3c0.4,0.3,0.3,0.8,0,1.2c-0.6,0.3-1.1-0.1-1.7-0.1
				C59,16.2,59,16,59,15.9z"/>
			<path class="st5" d="M69.7,10c-0.4-0.1-1-0.6-0.9-1c0.1-0.3,0.4-0.6,0.8-0.5c0.4,0,1.1,0.6,1,0.9C70.5,9.7,70.1,10,69.7,10z"/>
			<path class="st6" d="M52.9,20.7c0.3,0.1,0.6,0.2,0.9,0.4c0,0,0.1,0.1,0.1,0.1c0,0.3-0.2,0.7-0.6,0.7c0,0,0,0,0,0
				c-0.5,0.1-0.9-0.2-1.1-0.7C52.1,21,52.4,20.7,52.9,20.7z"/>
			<path class="st7" d="M71,21.7c-0.3,0-0.6-0.3-0.6-0.6c0-0.4,0.4-0.5,0.7-0.5s0.5,0.4,0.5,0.7C71.7,21.6,71.3,21.5,71,21.7z"/>
			<path class="st8" d="M235.7,0.7c1.3-1,2.6-0.4,3.9-0.2c0.2,0,0.3,0.1,0.3,0.3c0,0.2-0.2,0.2-0.4,0.2c-0.9,0.4-1.9,0.5-2.9,0.2
				c-0.2-0.1-0.3-0.2-0.5-0.1s-0.4,0.2-0.6,0S235.6,0.9,235.7,0.7z"/>
			<path class="st9" d="M220.5,8.7c1-0.3,2.1-0.4,3.2-0.3c0.3,0,0.7,0,0.8,0.4s-0.4,0.5-0.7,0.5c-1.2,0.2-2.4,0.2-3.5,0.1
				C220.1,9.1,220.3,8.9,220.5,8.7z"/>
			<path class="st10" d="M215.6,8c0.4,0,0.7,0.4,0.7,0.8c0,0,0,0,0,0c0,0.4-0.1,0.7-0.6,0.8c-0.5-0.1-0.9-0.5-1-1
				C214.8,8.3,215.1,8,215.6,8z"/>
			<path class="st11" d="M241.6,7.3c0.2,0,0.5-0.2,0.6,0.2c0,0.3-0.1,0.6-0.4,0.6c-0.3,0.1-0.6,0.2-0.8,0.3s-0.6,0-0.6-0.4
				c0-0.3,0.3-0.6,0.6-0.6C241.1,7.3,241.3,7.3,241.6,7.3z"/>
			<path class="st12" d="M235.7,0.7c-0.1,0.3,0,0.4,0.3,0.4c0.2-0.1,0.5,0,0.6,0.2c-0.2,0-0.3,0-0.4,0.1s-0.5,0.3-0.7,0
				S235.4,0.9,235.7,0.7z"/>
			<path class="st13" d="M144.8,12.6c-1,0-2.1,0.2-3.1,0.3c-1,0.2-2,0.3-3,0.3c-0.1,0-0.3,0.1-0.4,0.1c-0.6,0.1-1.2,0.1-1.8-0.1
				c-0.2,0-0.3-0.3-0.3-0.5s0.2-0.5,0.4-0.4c0.7,0.1,1-0.2,1.6-0.4c0.1,0,0.2,0,0.3,0c0.8,0,1.5-0.1,2.3-0.3c0.8-0.1,1.2,0,2-0.1
				c1.3-0.2,3-0.3,4.4-0.4c0.7-0.2,1.4-0.1,2.2-0.3c1.2-0.2,2.4-0.3,3.6-0.3c1.4-0.1,2.7-0.2,4.1-0.3c0.3,0,3.2-0.1,4-0.2
				c0.3,0,0.6,0,0.9,0c0.4,0.2,0.3,0.4,0,0.6s-0.5,0.2-0.8,0.3c0.4,0.1,1-0.1,0.9,0.4c-0.7,0.1-1.4,0.1-2.1,0.1
				c-0.8,0-2.7,0.2-3.4,0.2c-1.1,0.2-2.2,0.3-3.2,0.2c-0.7,0.1-1.5,0.1-2.2,0.1c-1.3,0.1-2.6,0.2-3.8,0.4
				C146.4,12.5,145.6,12.4,144.8,12.6z"/>
			<path class="st14" d="M138.5,12.1c-0.5,0.3-1.1,0.4-1.6,0.3c-0.1-0.1-0.3,0-0.4,0.1c0,0,0,0,0,0c-0.1,0.2,0,0.3,0.2,0.4
				c0.3,0.2,0.7,0.3,1.1,0.2c0.8-0.2,1.7-0.1,2.5-0.2c0.4-0.2,0.9-0.2,1.3-0.1c-1.5,0.3-3,0.4-4.6,0.5c-0.8,0.1-1.7,0.2-2.5,0.3
				c-1,0.2-2,0.2-3,0.2c-0.7,0-1.5,0.1-2.2,0.3c-0.3,0.1-0.7,0.1-1,0.1c-0.8,0-1.6,0-2.4,0.3c-0.1,0-0.6-0.1-0.5-0.2
				c0.2-0.4-1.2-0.6-1.1-1.1c1.1-0.1,2.1,0,2.6-0.1c1-0.1,2-0.1,3-0.3c0.8-0.2,1.6-0.3,2.4-0.3c0.6,0,1.1-0.1,1.7-0.3
				c0.6-0.1,1.2-0.2,1.8-0.2c0.6,0,1.3-0.1,1.9-0.2C138.2,12,137.8,12,138.5,12.1z"/>
			<path class="st0" d="M277.4,1.4c-1.8,0.1-3.5-0.3-5.2,0c-0.2,0-0.3,0-0.5,0c-0.3,0-0.6-0.2-0.6-0.6s0.3-0.4,0.6-0.4
				c1.7-0.3,3.5-0.3,5.2,0c0.4,0,0.8,0.1,1.2,0.1c0.2,0,0.4,0,0.4,0.2c0,0.2-0.1,0.5-0.3,0.6C277.9,1.3,277.6,1.4,277.4,1.4z"/>
			<path class="st15" d="M264.3,8.8h0.7c0.2,0,0.5,0.2,0.5,0.4c0,0.3-0.2,0.4-0.4,0.4c-0.9,0.2-1.8,0.4-2.7,0.4
				c-0.2,0.1-0.5-0.1-0.6-0.3c-0.1-0.3,0.1-0.4,0.3-0.6C262.8,8.8,263.6,8.7,264.3,8.8z"/>
			<path class="st16" d="M0.7,14.1c0.5-0.4,0.8-0.2,1,0.3s0.6,1.3,0.1,1.9c-0.2,0.2-0.4,0.1-0.6-0.1c-0.2-0.2-0.5-0.4-0.7-0.6
				l-0.2-0.2C0.1,15.3,0.1,15.2,0,15c-0.1-0.2,0-0.4,0.2-0.4C0.7,14.6,0.6,14.4,0.7,14.1z"/>
			<path class="st17" d="M24.2,16.8c-0.4-0.2-0.9,0-1.2-0.6c-0.2-0.4-0.1-0.8,0.2-1.1c0,0,0,0,0,0c0.3-0.2,0.6-0.2,0.9,0.1
				c0,0,0,0.1,0.1,0.1c0.1,0.1,0.3,0.3,0.5,0.4c0.2,0.1,0.4,0.3,0.3,0.6S24.7,16.9,24.2,16.8z"/>
			<path class="st18" d="M32.7,15c0,0.2,0,0.4-0.1,0.5c-0.1,0.3-0.3,0.5-0.6,0.6c-0.3,0.1-0.4-0.3-0.5-0.4c-0.1-0.1-0.2-0.3-0.2-0.4
				c-0.1-0.3-0.4-0.5-0.1-0.9c0.3-0.3,0.8-0.4,1.2-0.3C32.8,14.2,32.7,14.6,32.7,15z"/>
			<path class="st19" d="M11.4,17.7c0.4,0,1.1,0.5,1.1,0.9c0,0.3-0.2,0.6-0.6,0.7c0,0-0.1,0-0.1,0c-0.7,0-1.2-0.4-1.2-0.9
				S11.1,17.8,11.4,17.7z"/>
			<path class="st20" d="M13.7,15c0,0.2-0.1,0.4-0.4,0.4c-0.4,0-0.7-0.1-1.1-0.2c-0.1,0-0.2-0.1-0.1-0.2c0.1-0.6,0.7-0.3,1.1-0.4
				S13.7,14.6,13.7,15z"/>
			<path class="st19" d="M20,18.2c-0.1,0.3-0.3,0.7-0.7,0.8c-0.2,0.1-0.4-0.1-0.4-0.4s0.5-0.8,0.8-0.8S20,18,20,18.2z"/>
			<path class="st21" d="M31,21.9c-0.1,0.2-0.2,0.4-0.4,0.5c-0.2,0.1-0.4,0.2-0.6,0c-0.2-0.1-0.2-0.4,0-0.6c0,0,0,0,0,0
				C30.3,21.8,30.7,21.6,31,21.9z"/>
			<path class="st22" d="M143.3,4.1c0.9-0.2,1.8-0.2,2.8-0.2c0.5,0.1,1.1,0,1.6-0.2c1,0,2-0.4,3-0.1c0.3,0.1,0.7-0.2,1.1-0.3
				c1.3-0.1,2.6-0.2,3.9-0.3c1.7-0.2,3.5-0.3,5.2-0.5c1.5-0.2,3-0.2,4.4-0.2c1.2-0.1,2.4,0,3.5-0.1c0.7,0.2,1.4,0.2,2.1,0
				c0.6-0.1,1.2,0,1.7,0.2c0.3,0.1,0.3,0.5-0.1,0.6c-0.8,0.2-1.4,0.7-2.2,0.6s-2.3-0.1-2.4-0.1c-1.3-0.1-2.6,0-3.9,0.2
				c-0.2,0-1.5,0-1.7,0c-1.4,0-2.9,0.1-4.3,0.3c-1.3,0.2-2.5,0.3-3.8,0.4c-0.6,0-1.3,0.1-1.9,0.2c-1.4,0.2-2.4,0.2-4,0.3
				s-2,0.1-3.4,0.1c-0.7,0-1.1,0.1-1.4,0.1c-0.1,0-1.6,0.1-1.7,0.1C141.8,4.8,143.4,4.4,143.3,4.1z"/>
			<path class="st23" d="M167.8,3.5c0.7-0.2,1.5-0.2,2.2-0.2c0.9-0.1,1.7-0.3,2.6-0.6c-0.3-0.1-0.7-0.2-0.9-0.5
				c-0.1-0.1-0.3-0.1-0.5,0c-0.7,0.4-1.6,0.4-2.2-0.1c1.6-0.1,3.1-0.2,4.7-0.2c1.9,0,3.8-0.1,5.7,0c1.1,0,2.2-0.1,3.3-0.3
				c0.9-0.2,1.8-0.3,2.7-0.3c0.1,0.1,0.1,0.2,0,0.2c0,0,0,0,0,0c-0.4,0.3-0.4,0.5,0,0.8c0.2,0.1-0.4,0.3-0.7,0.3
				c-0.8,0-1.7,0.1-2.5,0.3c-0.8,0-1.5,0.1-2.2,0.2c-0.4,0.1-1.2,0.5-1.5,0.4c-0.6-0.3-0.7-0.5-1.3-0.4c-0.9,0-1.6,0-2.5,0
				c-0.6,0-1.5,0.2-2.8,0.2C170.5,3.4,167.8,3.7,167.8,3.5z"/>
			<path class="st24" d="M189.4,1.3h1.1c0.6-0.2,1.2-0.2,1.8-0.2c0.7,0,1.1,0.2,1.6-0.2c0.1-0.1,0.2-0.5,0.4-0.5s0.3,0.3,0.1,0.5
				c-0.4,0.5-1,0.8-1.7,0.7c-0.2,0-0.4-0.1-0.5,0.2c-0.1,0.2,0,0.4,0.2,0.4c0,0,0.1,0,0.1,0c0.2,0,0.1,0.1,0,0.3
				c-0.2,0.2-0.5,0.2-0.8,0.1c-0.8-0.1-1.5-0.1-2.3,0c-1,0-1.6,0.1-2.6,0.1c-0.3,0-0.6,0-0.9,0c-0.3-0.1-0.4-0.1-0.7-0.2
				C185.1,2.5,185,2.2,185,2c0.1-0.3,0.3-0.5,0.6-0.4c0.3,0,0.6,0,0.9,0c0.6,0,1.1,0,1.7,0C188.6,1.6,189,1.3,189.4,1.3z"/>
			<path class="st25" d="M207.3,0.1c0.6-0.1,1.2-0.1,1.8,0c0.4,0.4,0.6,1,0.6,1.6v1.8c-0.1,0.2-0.1,0.5,0,0.7c0.3,0.3,0,0.6-0.1,0.9
				c-0.1,0.1-0.1,0.3-0.2,0.4c-0.5,0.2-0.8-0.3-1.2-0.4c-0.1,0-0.1-0.2-0.1-0.3c0.2-0.9,0.1-1.9,0.3-2.8c0.1-0.6,0-0.7-0.6-0.8
				c-0.2,0-0.6-0.1-0.6-0.4s0-0.6,0.3-0.7h-0.1C207.4,0.1,207.3,0.1,207.3,0.1z"/>
			<path class="st26" d="M216.7,1.5c0.1,0.7-0.4,1.1-0.7,1.5c-0.6,0.2-1.2,0.2-1.7-0.2c-0.2-0.2-0.3-0.3-0.4-0.5
				c-0.3-0.4-0.2-0.9,0.2-1.2c0.1-0.1,0.3-0.1,0.5-0.1C215.2,0.9,216,1.1,216.7,1.5z"/>
			<path class="st20" d="M189.4,1.3c-0.4,0.2-0.9,0.5-1.3,0.5c-0.8-0.1-1.5-0.1-2.3,0c-0.2,0-0.5-0.1-0.6,0.2s0.2,0.4,0.4,0.5
				c0.1,0.1,0.2,0.1,0.3,0.2c-0.6,0-0.2,0-0.7,0c-0.1-0.1-0.2-0.1-0.3-0.2c-0.3-0.1-0.5-0.2-0.5-0.6s0.3-0.4,0.6-0.5
				c0.1,0,0.2,0,0.2-0.1c0.8-0.1,1.5-0.2,2.3-0.1C188.2,1.3,188.8,1.3,189.4,1.3z"/>
			<path class="st4" d="M210.4,4.5l0.2,0.2c0.4,0.8,0.1,1.2-0.6,1.3C209.5,5.6,210,4.2,210.4,4.5z"/>
			<path class="st27" d="M38.8,20.5c0.2,0,0.4,0.1,0.6,0.1c0.3,0.1,0.6,0.2,0.6,0.5c0,0.4-0.3,0.6-0.7,0.7c-0.5,0-1,0-1.5-0.2
				c-0.2-0.1-0.4-0.3-0.4-0.5c0-0.3,0.2-0.4,0.4-0.5C38.1,20.5,38.4,20.4,38.8,20.5z"/>
			<path class="st28" d="M86.5,5.7c0.2,0.3,0.5,0.4,0.8,0.4c0.5,0,0.9,0.1,1.3,0.3c0.8,0.3,1.7,0.3,2.5,0.1C93,6.4,94.8,6.2,96.7,6
				c0.7-0.2,1.4,0,2.2-0.1H99c0.2,0.6-0.3,0.9-0.6,1.3c0.2,0.5,0.2,0.6-0.2,0.9C97.8,8.4,97.4,8.2,97,8c-0.7-0.3-1.4-0.1-2,0.4
				c-0.3,0-0.4,0.4-0.6,0.7c-0.2,0.5-0.7,0.9-0.8,1.4c-0.1,0.3-0.8,0.2-0.9,0.5s-0.2-0.5-0.3-0.6s0-0.4-0.1-0.6
				c-0.1-0.5,0-1.1-0.6-1.5c-0.2-0.1-0.1-0.3,0.1-0.4c-0.2,0.1-0.1,0.4-0.5,0.5c-0.5,0.1-0.8,0.4-0.8,0.9c0,0.4-0.1,0.6-0.6,0.6
				c-0.2,0-0.2,0.1-0.3,0.2c-0.3,0.7-0.6,1.1-1.2,0.5c0,0,0.2-0.4,0.2-0.4c0-0.4,0.4-1.1,0.2-1.6C88.6,8.2,88.2,8,87.8,8
				c-0.4,0.2-0.9,0.1-1.3-0.1c-0.5,0.3-1.1-0.1-1-0.7c0-0.2-0.3-0.3-0.4-0.4S84.7,7,84.6,7.2s0,0.2-0.2,0.3c-0.3,0-0.5,0.1-0.7,0.2
				c-0.4,0.1-0.5,0-0.4-0.4c0.6-0.8,1.4-1.4,2.3-1.7C85.9,5.5,86.2,5.5,86.5,5.7z"/>
			<path class="st29" d="M82,17.1c-0.4,0-0.8-0.2-1.2-0.4c-0.2-0.7-0.6-1.3-0.8-2c-0.2-0.7-0.2-1.5,0-2.1c0.3-0.3,0.7-0.4,0.8-0.9
				s0.5-0.4,0.7,0c0.3-0.4,0.5-1,0.5-1.5c0-0.6,0.3-1.2,0.8-1.6c0.2-0.2,0.5-0.2,0.7-0.1c0.2,0.4-0.2,0.7-0.2,1.1
				c-0.3,0.4-0.4,1-0.2,1.5c0.1,0.4,0.4,0.7,0.8,0.8c0.4,0,0.8,0,1.3,0c0.6,0,1,0.5,0.9,1.1c0,0.1,0,0.2-0.1,0.3
				c-0.1,0.1-0.2,0.2-0.3,0.2c-0.2,0-0.4,0.1-0.6,0.2c-0.9,0-1.7-0.2-2.6-0.4c-0.5-0.1-0.7,0.1-0.6,0.6c0,0.1,0.1,0.6,0.1,0.7
				c0.4,0.9,0.8,1.3,1.5,1.2c0.5,0.3,1.2-0.4,1.6-0.6c0.2-0.1,0.4-0.2,0.6-0.3c0.1,0.1,0,0.2,0,0.3c-0.3,0.4-0.4,1-0.7,1.4
				c-0.2,0.3-0.6,0.4-0.9,0.4c-0.4-0.1-0.8,0-1.1-0.2c-0.1-0.1-0.3-0.1-0.5,0c0,0-0.1,0.1-0.1,0.2C82.3,17,82.2,17.1,82,17.1z"/>
			<path class="st25" d="M90.9,19.9l-0.6,0.5c-1.2,0.4-2.5,0-3.2-1.1c-0.3-0.3-0.6-0.5-0.9-0.8c0.1-0.4,0.4-0.2,0.6-0.1
				c0.4,0.1,0.6,0,0.5-0.4c0-0.3-0.1-0.5,0.3-0.6c0.5,0.2,0.8,0.1,1-0.4c0-0.1,0.2-0.1,0.3-0.1c0.5,0.3,0.5,0.4,0.2,0.9
				c-0.1,0.2-0.2,0.3-0.3,0.5c-0.1,0.1-0.6,0-0.5,0.2s0.2,0.3,0.3,0.3c0.2,0.1,0.4,0.2,0.6,0.2c0.7,0.2,1.4,0,1.8-0.6
				c0.5-0.4,0.5-0.9,0.2-1.1c-0.5-0.5-0.5-0.9-0.8-1.5c-0.2-0.3-0.3-0.6,0-0.9s0.4-0.2,0.6-0.4s0.4,0.1,0.5,0.1c1.1,0.5,0.9,0,0.9-1
				c0-0.1,0.3-0.6,0.6-0.4c0.3,0.2,0.5,0.5,0.5,0.9c0,0.8-0.2,1.5-0.4,2.2c0,0.2,0,0.4,0,0.6c-0.2,1.1-1.1,1.7-1.7,2.5
				C91.1,19.6,91,19.7,90.9,19.9z"/>
			<path class="st30" d="M87.7,17.5c-0.1,0.2,0,0.4,0.1,0.5c0.1,0.3,0,0.6-0.3,0.8c-0.2,0.2-0.5,0-0.7-0.1c-0.1-0.1-0.3-0.2-0.5-0.2
				l0,0c-0.3-0.2-0.5-0.5-0.9-0.2c-0.1,0,0,0-0.1,0c-0.6-0.1-1.2-0.4-1.8-0.5c-0.3-0.1-0.2-0.4,0-0.6c-0.3,0.2-0.6,0.9-1.2,0.4
				c-0.2,0-0.3-0.1-0.5-0.2c0-0.1,0-0.2,0.1-0.2c0-0.2-0.4-0.5,0.1-0.7s0.7-0.3,1.2,0c0.7,0.6,1.5,0.3,1.6-0.6
				c0-0.4,0.3-0.6,0.6-0.9c-0.1-0.5,0.3-0.6,0.6-0.6c0.8,0.1,1.1,0.5,0.7,1.2c-0.1,0.2-0.1,0.4-0.2,0.6c0.2,0.1,0.5,0,0.6-0.2
				c0.2-0.3,0.5-0.4,0.8-0.3c0,0,0.1,0.1,0.1,0.1l0.2,0.2C88.9,17,88.8,17.3,87.7,17.5z"/>
			<path class="st31" d="M83.2,8.7c-0.7,0.3-1.1,1-1.1,1.8c0.1,0.8-0.4,1.3-0.8,1.8c-0.1,0.1-0.2,0.3-0.4,0.2s0-0.3,0-0.4
				s0.1-0.2-0.1-0.3c-0.3,0.3-0.1,0.9-0.7,1c-0.2,0-0.2,0-0.2-0.1v-0.1c0.1-0.6,0.6-1,0.5-1.6c0.2-0.5,0.5-1,0.9-1.5
				c0.7-0.7,1.2-1.5,1.9-2.2c0.2,0.2,0.3,0.1,0.5,0s0.4-0.2,0.6,0s0.2,0.6-0.1,0.8C83.9,8.4,83.6,8.6,83.2,8.7z"/>
			<path class="st26" d="M82.4,17.5c0.1,0,0.2,0.1,0.3,0c0.4-0.5,1.1-0.7,1.6-0.4c0,0,0,0,0,0c-0.2,0.1-0.7,0-0.6,0.3s0.4,0,0.6,0
				c0.4,0,0.7,0.2,0.8,0.6c0.6-0.5,0.6-0.5,1.2,0.3c-0.3-0.1-0.6-0.1-0.9-0.1C84.3,18.5,83.2,18.1,82.4,17.5z"/>
			<path class="st29" d="M80.2,11.9c0.1-0.3,0.2-0.6,0.3-0.9c0.2,0.7-0.3,1.2-0.6,1.7l0.1-0.7L80.2,11.9z"/>
			<path class="st32" d="M92.9,17c-0.2-0.5-0.3-1,0.1-1.4c0.1-0.1,0.1-0.2,0.1-0.3c-0.1-0.4-0.1-0.8,0-1.2c0-0.5-0.3-0.6-0.8-0.4
				c0.1-0.6,0.1-0.6,0.1-1c0.2-0.1,0.4-0.3,0.3-0.8c0-0.2,0.2-0.3,0.3-0.2c0.2,0.3,0.7,0.2,0.8,0.6c0,0.2,0,0.4,0,0.6
				c-0.1,0.1,0,0.4,0,0.5c-0.1,0.5-0.2,1-0.1,1.5c0.5-0.3,0.9-1.4,1.6-0.8c0.4,0.4,0.8,0.4,1.3,0.7l0.4,0.3c0.7,0.1,0.4-0.2,0.6-0.3
				c0.2-0.2,0.5-0.3,0.8-0.3c1,0.1,2,0.1,3-0.1c0.5,0.1,1,0.1,1.5,0c0.4-0.1,0.7-0.4,1.1-0.5c0.1,0,0.1,0.1,0.1,0.1
				c-0.3,0.5-0.2,1.1-0.5,1.6c-0.2,0.2-0.4,0-0.6-0.1s-0.4,0-0.6,0s-0.3,0-0.3,0s-0.2-0.2-0.4,0.2c-0.1,0.3,0,0.7,0.3,0.9
				c0.3,0.1,0.3,0.2,0.3,0.6c-0.1,0.2-0.1,0.1-0.2,0.2s-0.1,0.7-0.2,0.9c-0.1,0.3-0.3,0.4-0.6,0.4c-0.3,0-0.4-0.2-0.4-0.5
				s-0.2-0.5-0.1-0.8c0-0.1,0-0.2,0-0.2c-0.4-0.3-0.2-1.1,0-1.5c-0.2-0.2-0.9-0.1-1.1,0s-0.4,0.2-0.3,0.4c0.1,0.5-0.3,1-0.3,1.5
				s-0.2,0.4-0.5,0.2s-0.4-1.1-0.8-1.3c-0.5-0.2-1-0.3-1.5-0.1c-0.3,0-0.5,0.5-0.4,0.9c0,0.2-0.1,0.4-0.2,0.4
				c-0.1,0.1-0.2,0.2-0.2,0.4c0,0.2,0,0.4-0.3,0.4s-0.1-0.3-0.3-0.3c-0.1-0.8,0-1.7,0.1-2.5c-0.6,0-0.9-0.7-1.2-0.7
				c-0.4,0.1-0.6,0.4-0.7,0.8C93.3,16.3,93.1,16.7,92.9,17z"/>
			<path class="st33" d="M94.9,18.4c0.4,0.1,0.3-0.2,0.2-0.3c0-0.4,0-0.4,0.3-0.5c0.1,0,0.2-0.1,0.2-0.2c0-0.4,0.1-1.4,0.4-1.6
				c0.2,0.1,0.2,1.1,0.2,1.3c0.1,0.8,0.1,1.7,0,2.5c0,0.2-0.4,1.1-0.2,1.2c0.8,0.4,1.4-0.2,0.8,0.5c0,0-0.1,0.1-0.1,0.1
				c0,0.7-0.7,1-1,1.5c0,0,0,0.1,0,0.1c-0.2,0-0.3,0.2-0.3,0.3c-0.1,0.2-0.1,0.4-0.4,0.3c-0.2,0-0.4-0.2-0.5-0.5c0-0.5,0-0.9,0-1.4
				C94.9,20.6,95,19.5,94.9,18.4z"/>
			<path class="st18" d="M43,16.5c-0.6-0.1-1.2-0.4-1.6-0.9c-0.2-0.2-0.2-0.6,0-0.8c0,0,0,0,0.1-0.1c0.3-0.2,0.6-0.5,1-0.2
				c0.4,0.3,0.7,0.6,1,1c0.2,0.2,0.2,0.4,0.1,0.6C43.5,16.4,43.3,16.6,43,16.5z"/>
			<path class="st22" d="M110.9,5.3C110.9,5.2,110.9,5.2,110.9,5.3l2.4-0.3c0.8,0,1.6-0.2,2.4-0.1c0.1,0,0.2-0.1,0.3-0.2
				c1.1-0.2,2.3,0,3.4-0.1c1.9-0.2,3.8-0.3,5.7-0.3c2,0.1,3.9-0.2,5.8,0c0.6,0.1,1.2,0.1,1.8,0c0.8-0.1,1.6-0.1,2.4,0
				c0.5,0,0.9,0,1.3-0.2h2c0.4,0.2,0.1,0.4,0.1,0.6c0.3-0.1,0.7-0.2,0.8-0.6c0.4-0.2,0.8,0.1,1.2,0c0.1,0.3,0.4,0.5,0.7,0.4
				c0,0,0,0,0.1,0c0.5-0.1,1.1-0.1,1.6,0c0.2,0,0.7,0,0.8,0.2c-0.2,0.1-0.4,0.2-0.7,0.2c-0.3,0-0.7,0-1,0c-0.4,0-0.8,0-1.1,0.1
				c-0.2,0-2.9,0.2-4,0.2c-0.5,0-0.4-0.1-1.2-0.1c-0.9,0-1.4,0-2.2,0c-1.5,0.1-2.8,0.1-4.4,0.1l-4.3,0.1c-1.1,0-2.6,0-3.7,0
				s-2.4,0.3-3.9,0.4C117,5.9,116.5,6,116,6c-1,0-2,0.1-3,0.2c-0.8,0.1-1.4,0.2-2.2,0.2c-0.4,0.1-0.7,0.1-1.1,0
				c0.1-0.2,0.3-0.2,0.5-0.2c0.6,0,1.3-0.1,1.8-0.4c0.2-0.1,0.5-0.2,0.4-0.5s-0.4-0.1-0.6,0C111.6,5.6,111.2,5.5,110.9,5.3z"/>
			<path class="st34" d="M80.8,19.9c0.6-0.9,0.8-1,1.7-0.6c0.2,0.4,0.5,0.7,0.9,1c0.8,0.6,0.8,1-0.1,1.5c-0.6,0.3-0.9-0.3-1.3-0.5
				C81.5,21.1,81,20.5,80.8,19.9L80.8,19.9z"/>
			<path class="st35" d="M86,20.3c-0.3,0.6-1,1-1.4,0.8c-0.3-0.1-0.6-0.4-0.5-0.8c0.1-0.4,0.6-0.6,1-0.5C85.4,19.8,85.8,20,86,20.3
				L86,20.3z"/>
			<path class="st0" d="M107.3,6.6c-0.2,0-0.5,0-0.7-0.2c-0.2-0.1-0.2-0.3-0.1-0.5c0.1-0.2,0.2-0.2,0.3-0.1c0.3,0,0.7,0.1,1,0.2
				c0.4,0.2,0.8,0.1,1.1-0.2c0.1-0.1,0.3-0.2,0.4,0s-0.1,0.2-0.2,0.3C108.6,6.6,107.9,6.5,107.3,6.6z"/>
			<path class="st0" d="M98.8,5.9C98.1,6,97.4,6.1,96.7,6C97.4,5.9,98.1,5.8,98.8,5.9z"/>
			<path class="st36" d="M143.6,4.9c-1-0.1-1.9-0.1-2.9,0.1c-0.2,0.1-0.3,0-0.4-0.2c0,0,0,0,0-0.1c-0.1-0.3,0.1-0.5,0.4-0.6
				c0.9-0.1,1.8-0.2,2.6-0.1C144,4.3,144,4.4,143.6,4.9z"/>
			<path class="st36" d="M139.5,4.2c0.3,0.5,0.2,0.7-0.3,0.8c-0.4,0.1-0.8,0.1-1.1,0c-0.1,0-0.2,0-0.2-0.2s0.1-0.2,0.2-0.1
				c0.4,0.1,0.5-0.2,0.6-0.5C138.9,4,139.2,4.2,139.5,4.2z"/>
			<path class="st18" d="M189,9.8h-1.8c-0.3-0.1-0.4-0.3-0.5-0.6c0-0.1,0-0.3,0.1-0.4c0.5-0.3,1.1-0.4,1.6-0.3
				c0.2,0.1,0.5,0.1,0.7,0c0.2-0.2,0.6-0.2,0.8,0c0,0,0,0,0,0c0.2,0.2,0.5,0.2,0.6-0.1s0.4-0.1,0.7-0.1c1.2,0.1,2.3,0,3.5,0
				c1.3,0.1,2.5,0.3,3.7,0.6c1.5,0.3,3,0.3,4.5-0.1c1-0.4,0.5,0.2,0.2,0.5c-0.2,0.1-0.4,0.2-0.6,0.2c-0.4,0-0.8,0.1-0.9,0.5
				c-0.1,0.1-0.1,0.2-0.2,0.2c-0.4,0.1-0.6,0.5-0.5,0.9c0,0.1,0.1,0.2,0.1,0.2c0.1,0.1,0.1,0.3,0.3,0.3c0.4-0.1,0.5,0.2,0.6,0.5
				c0,0.2,0.1,0.4,0.2,0.6c0.1,0.2,0.1,0.4-0.1,0.6c-0.6,0.5-0.3,1.1-0.1,1.6c0.1,0.3,0.2,0.7,0.3,1c0.1,0.6,0.1,0.6-0.6,0.5
				c-0.1-0.6-0.2-1.2-0.3-1.7c-0.2-1-0.4-1.6-0.7-2.6c-0.1-0.5-0.1-0.9-0.1-1.4c0.1-0.4-1,0-1.3-0.1c-0.6-0.1-1.1-0.2-1.7-0.3
				c-1.2-0.1-2.4-0.2-3.6-0.3h-2.5c-0.1,0-0.2,0-0.3,0C190.5,9.9,189.7,9.8,189,9.8z"/>
			<path class="st37" d="M191.4,8.5c-0.2,0.1-0.4,0.2-0.6,0.3c-0.2,0.2-0.5,0.2-0.7,0c-0.4-0.4-0.8,0.1-1.2,0.1
				c-0.1,0-0.1,0.2-0.2,0.3s-0.2-0.1-0.2-0.2c-0.2-0.4-0.6-0.5-1-0.3c-0.1,0-0.2,0.1-0.2,0.2c-0.1,0.1-0.1,0.2,0,0.3
				c0.3,0.2,0.1,0.4,0.1,0.6c-1.1,0-2.2,0.3-3.3,0.3c-0.1,0.1-0.3,0-0.3,0c0.1-0.5-0.4-0.8-0.4-1.2c0-0.1-1.1-0.1-1-0.2
				c0.6-0.1,1.3-0.1,1.9-0.1c0.4,0,0.8,0,1.2,0c1.4-0.1,2.9-0.2,4.4-0.2C190,8.3,191.4,8.2,191.4,8.5z"/>
			<path class="st2" d="M183.4,9c0.3,0.3,0.4,0.7,0.5,1.1l-0.6,0.1h-4.8c-0.4-0.1-0.7-0.2-0.6-0.8c0.1-0.4,0.4-0.7,0.8-0.7
				c1.1,0.1,2.3-0.2,3.4-0.1c0.3,0.2,0.2,0.7,0.5,0.7c-0.3-0.2-0.4-0.4,0-0.7C182.9,8.7,183.2,8.8,183.4,9z"/>
			<path class="st35" d="M210,9.8c0.6,0.1,1.2,0.4,1.5,1c0.2,0.4-0.1,0.6-0.4,0.6c-0.6,0.2-1.1-0.1-1.7-0.3
				c-0.3-0.1-0.3-0.5-0.2-0.8S209.6,9.9,210,9.8z"/>
			<path class="st38" d="M207,9.6h-0.3c-0.4-0.1-0.4-0.5-0.2-0.6c0.7-0.4,0.6-1,0.8-1.6c0.1-0.3,0.4-0.5,0.8-0.4
				c0.1,0,0.2,0.1,0.3,0.2c-0.1,0.3-0.2,0.6-0.1,0.9c0,0.3-0.1,0.6-0.2,0.8C207.8,9.3,207.3,9.3,207,9.6z"/>
			<path class="st37" d="M189,9.8c0.8,0,1.7,0,2.5,0.2C190.7,10.1,189.8,10,189,9.8z"/>
			<path class="st11" d="M251.6,9.6c-1.1,0.2-2.2,0.2-3.3,0c-0.4,0-0.8,0-1.2,0.2c-0.2,0.1-0.5,0-0.6-0.2c0,0,0,0,0-0.1
				c-0.1-0.3,0-0.4,0.2-0.6c0.4-0.2,0.8-0.3,1.2-0.3c1,0,2,0,2.9,0.2C251.4,8.9,251.6,9.1,251.6,9.6L251.6,9.6z"/>
			<path class="st39" d="M225,11.2c-0.5-0.1-0.9-0.2-1.4-0.3c-0.3-0.1-0.4-0.4-0.3-0.7c0,0,0,0,0,0c0.2-0.3,0.5-0.4,0.8-0.3
				c0.4,0.1,0.7,0.1,1,0.2s0.6,0.2,0.6,0.6S225.4,11.1,225,11.2z"/>
			<path class="st10" d="M111.6,15.5c-0.3,0.5-0.1,1-0.2,1.5c-0.1,0.2-0.2,0.4-0.2,0.6c0,0.5-0.2,0.9-0.6,1.2
				c-0.3,0.3-0.4,0.8-0.5,1.3c0,0.1,0,0.4-0.1,0.5c-0.7,0.7-1,1.7-1.9,2.3c-0.2,0.2-0.4,0.5-0.6,0.8c-0.2,0.3-0.5,0.4-0.8,0.2
				c-0.1,0-0.1-0.1-0.1-0.1c-0.3-0.2-0.7-0.5-0.3-0.9s0.3,0,0.8-0.8s0.1-2.8,0-4.2c0.1-0.1,0-0.4-0.1-0.5c-0.2-0.5-0.2-1.1,0.2-1.5
				c0.3-0.5,0.4-0.5,0.9-0.2c0.1,0.6,0.2,1.3,0.2,1.9c0,0.6,0,1.1,0.1,1.7c0,0.1,0,1.3,0.2,1.3s0.9-1.3,0.9-1.5
				c0.2-0.8,0.4-1.7,0.5-2.6c0-0.2,0-0.7,0.1-0.8c0.4-0.1,0.7,0.1,1-0.3C111.2,15.1,111.5,15.2,111.6,15.5z"/>
			<path class="st38" d="M108,15.6c-0.5,0-1,0.9-0.9,1.5c0,0.1,0.1,0.3,0.1,0.5c0,0.2,0,0.1-0.3,0c-0.1-0.4-0.2-0.8-0.4-1.1
				c-0.1-0.1-0.2-0.3-0.3-0.4c0-0.8-0.3-0.6-0.8,0c-0.3,0-0.4-0.3-0.4-0.5c-0.2-0.5-0.5-1-0.9-1.4V14c0-0.3,0.2-0.2,0.4-0.2
				c0.2,0.2,0.4,0.4,0.7,0.4c1,0.1,2,0.1,3,0.1c1.3,0,2.6-0.2,3.9-0.4c0.6-0.1,1.2,0,1.8,0.1c0.1-0.1,0.2-0.1,0.3,0
				c0.3,0.2,0.6,0.3,0.9,0.1c0.3-0.1,0.6,0,0.6,0.5s-0.1,0.7-0.6,0.5c-1.2,0.4-2.5,0.2-3.7,0.5c-0.3,0-0.5,0.2-0.6,0.5
				c-0.2,0.5-0.4,0.6-0.7,0.1c-0.1-0.1-0.1-0.5-0.2-0.5C109.4,15.7,108.7,15.7,108,15.6z"/>
			<path class="st10" d="M105.3,15.3l0.2,0.5c-0.3,0.6-0.3,1.2-0.5,1.8c-0.3,1-0.6,1.9-0.9,2.9c-0.2,0.6-0.6,1-1.2,1.1
				c-0.5,0.2-1,0.5-1.4,0.9c-0.3,0.2-0.6,0.1-0.8-0.1s-0.2-0.4-0.1-0.7c0.5-1.6,0.6-3.3,0.2-4.9c0-0.4-0.2-0.8,0.2-1.1
				c0.2,0.1-0.2,0.3-0.2,0.5s-0.1,0.6,0.3,0.8s0.2,0.3,0.1,0.5s-0.1,0.3,0,0.5s0.2,0.4,0.4,0.4s0.3-0.2,0.4-0.3
				c0.1-0.1,0.2-0.2,0.3-0.3c0.5,0,0.1,0.3,0.1,0.5c-0.1,0.4-0.1,0.8-0.1,1.1c0,0.1-0.1,0.9,0.1,0.9s1-0.6,1.1-0.8
				c0.6-1,0.8-2.1,0.6-3.3c0-0.2,0.1-0.6-0.1-0.7s-0.8,0.1-0.6-0.1l0.6-0.1C104.3,15.4,104.8,15.1,105.3,15.3z"/>
			<path class="st37" d="M95.9,22.9c0.6-0.5,0.5-1.5,1-2c0.2-0.2,1-3.1,1.5-3.6c0.2-0.2,0.7,0,0.7-0.3s0.1-0.7,0.1-1.1
				s0.1-0.5,0.5-0.2c-0.1,0.4,0,0.9-0.4,1.3c-0.1,0.8-0.4,1.6-0.9,2.3c-0.3,0.5-0.3,1.1-0.7,1.6C97.2,21.6,96.6,22.3,95.9,22.9z"/>
			<path class="st40" d="M161.9,10.1c3.1-0.3,6.1-0.7,9.2-0.9c0.1,0.4,0,0.6-0.5,0.6c-0.5,0-0.9,0.1-1.3,0.3c-0.2,0.1-0.1,0-0.1,0.1
				s0,0,0.1,0c0.8-0.4,1.7-0.4,2.5,0c0.1,0,0.2,0.2,0.2,0.3c-0.9,0.1-1.7,0.2-2.6,0.2c-1.5,0-2.9,0.2-4.4,0.3
				c-1.2,0.1-2.3,0.3-3.5,0.3c-0.2,0-0.5,0-0.7,0c-0.3,0-0.5-0.1-0.4-0.4s0.2-0.5,0.5-0.4C161.3,10.6,161.7,10.4,161.9,10.1z"/>
			<path class="st14" d="M138.5,12.1c0.7-0.1,1.4-0.5,2.2-0.2C140,11.8,139.3,12.2,138.5,12.1z"/>
			<path class="st15" d="M172,10.4c-0.3,0-0.6-0.1-0.8-0.2c-0.2-0.1-0.4,0-0.6,0c-0.7,0-1.3,0.4-2,0.1c-0.1-0.1-0.4-0.1-0.3-0.3
				s0.2-0.2,0.4-0.2c0.8,0.1,1.4-0.6,2.1-0.3c0.1,0,0.3-0.2,0.4-0.3l0,0c0.6,0.1,1.1,0.1,1.7-0.1c0.8,0,1.5,0,2.3-0.1
				c1-0.1,2-0.2,2.9-0.1c1.8,0,3.8-0.4,5.7-0.3c0,0.1-0.2,0.3-0.2,0.4l-0.8-0.1c-0.2,0.1-0.3,0.2-0.5,0c-0.5,0.1-1.1-0.1-1.5,0.3
				c-0.1,0.1-0.3,0-0.4-0.1c-0.2-0.1-0.5-0.1-0.8,0c-0.1,0-0.3,0.2-0.4,0.1c-0.3-0.2-0.6-0.2-0.8,0.1c-0.2,0.3-0.2,0.8,0.2,1
				c0,0,0,0,0,0C176.3,10.2,174.2,10.3,172,10.4z"/>
			<path class="st41" d="M118.6,13.8c1.4-0.2,2.7-0.3,4.1-0.2c0.7-0.1,1.4-0.1,2.2-0.1c0.3,0,0.6,0,0.8-0.1c0.4,0.4,0.3,0.8-0.1,1.2
				c-1.4-0.2-2.8,0.3-4.2,0.2c-0.3-0.1-0.3-0.3-0.1-0.5c0.2-0.1,0.4-0.3,0.6-0.4c-0.6,0.4-1.3,0.2-1.9,0.3c-0.3,0-0.6,0-0.9-0.1
				C118.9,14.1,118.6,14.1,118.6,13.8z"/>
			<path class="st8" d="M133.5,13.6c-0.2,0-0.3,0-0.4-0.1c-0.1-0.1-0.1-0.1-0.2-0.2c0.3-0.2,0.5-0.4,0.8-0.5
				c0.2-0.1,0.4,0.1,0.5,0.3S134,13.6,133.5,13.6z"/>
			<path class="st42" d="M118.6,13.8c1,0.1,2-0.1,3,0.1c0.3,0,0.5-0.1,0.8-0.1c0.2,0,0.4,0,0.3,0.3s-0.2,0.4-0.4,0.3
				c-0.6-0.3-0.7,0.1-0.9,0.4c-1.2,0.2-2.5,0.2-3.7,0.2c-0.2,0-0.3-0.1-0.5-0.2c-0.2-0.3-0.7-0.5-0.1-0.9
				C117.6,13.9,118.1,13.9,118.6,13.8z"/>
			<path class="st4" d="M117.1,13.9c0,0.2,0.1,0.3,0.2,0.4c0.6,0.3,0,0.3-0.1,0.4c-0.6,0.4-1.3,0.5-1.9,0.2c0.3-0.3,0.3-0.3,0.2-0.8
				c-0.3,0.4-0.6,0.2-0.9,0c-0.2-0.1-0.4-0.2-0.6-0.3c0.3-0.2,0.6,0,0.9,0C115.7,13.8,116.4,13.9,117.1,13.9z"/>
			<path class="st27" d="M277.3,9.3c-0.9,0-1.7,0.3-2.4,0.7c-0.2,0.2-0.4,0-0.5-0.2c-0.2-0.4,0-0.9,0.5-1.1c0.8-0.3,1.6-0.4,2.5-0.3
				c0.3,0,0.4,0.2,0.3,0.5C277.5,8.9,277.3,9.3,277.3,9.3z"/>
			<path class="st17" d="M194.9,1.8c-0.2,0.1-0.4,0.3-0.4,0.5c-0.1,0.6-0.5,0.8-1,0.6c-0.3-0.1-0.5-0.2-0.7-0.4
				c-0.1,0-0.1-0.1-0.2-0.1c-0.3,0-0.6,0-0.5-0.5s0.3-0.7,0.7-0.6c0.7,0.1,1.4-0.2,1.7-0.8c0.3-0.1,0.7-0.2,1.1-0.1
				c0.5,0.2,1.1,0.3,1.6,0.3c0.5,0,1,0,1.4,0.5c0,0.1,0,0.1,0,0.2c-0.4,0.4-1.1,0.5-1.7,0.2c-0.7-0.2-1.5-0.3-2.3-0.2
				c-0.2,0-0.3,0.1-0.4,0.2c-0.1,0.2-0.3,0.4-0.5,0.4c0.3,0,0.4-0.2,0.6-0.4C194.4,1.2,194.6,1.3,194.9,1.8z"/>
			<path class="st43" d="M194.9,1.8c-0.4-0.1-0.7-0.2-0.8,0.3c-0.1,0.2-0.3,0.4-0.5,0.3c-0.1,0-0.1,0-0.2-0.1
				c-0.2-0.1-0.4-0.1-0.6-0.1c-0.1,0-0.3-0.1-0.3-0.3c0,0,0,0,0-0.1c0-0.2,0.2-0.2,0.4-0.1s0.5-0.1,0.7-0.2c1-0.7,2.3-0.8,3.3-0.2
				c0.5,0.3,0.9-0.1,1.3,0c0.6-0.1,1.2-0.2,1.7-0.2c0.5,0,1-0.1,1.4-0.3h0.2c0.8,0.6,1.7,0.4,2.6,0.4c0-0.3-0.4-0.4-0.2-0.7h0.9
				c0.1-0.1,0.2-0.1,0.3,0c0.1,0.2,0.3,0.3,0.5,0.4c0.1,0.1,0.3,0.2,0.4,0c0.1-0.3,0.4-0.5,0.7-0.5c0.1,0,0.3-0.2,0.4-0.4
				c0,0,0.1,0,0.1,0c0.3,0,0.5,0,0.8,0.1c-0.1,0.2-0.3,0-0.4,0.1s-0.2,0.3-0.2,0.5s0.2,0.2,0.4,0.2c0.5-0.1,0.9,0.1,0.9,0.6
				c0,0.2,0.3,0.2,0.3,0.4c-0.5,0-0.6,0.4-0.6,0.8c0,0.5-0.1,1-0.1,1.5c-0.1,0.6,0.1,0.8,0.6,0.9c0.1,0,0.2,0.1,0.3,0.2l0,0
				c-0.6,0.4-0.8,0.7-1.3-0.1c0-0.5,0.1-1.1,0.2-1.6c0.2-0.7,0.2-1.5,0.1-2.2c-0.1-0.4-0.6-0.4-1-0.2c-0.8,0.3-1.7,0.5-2.6,0.4h-0.1
				l-2.4,0.4c-1.7,0-3.4-0.1-5.2-0.2C196.3,1.8,195.6,1.8,194.9,1.8z"/>
			<path class="st32" d="M203.9,0.6l0.6,0.2c0.2,0.1,0.4,0.3,0.3,0.5c0,0.3-0.3,0.2-0.4,0.2c-0.6,0.1-1.1,0.2-1.7,0.2
				c-0.6,0-1.1-0.4-1.3-0.9L203.9,0.6z"/>
			<path class="st32" d="M201.3,0.8c-0.1,0.3,0.1,0.4,0.2,0.5s0.1,0.1,0.1,0.3c-0.1,0.1-0.2,0.1-0.3,0c0,0,0,0,0,0
				c-0.8-0.7-1.7-0.1-2.5-0.2c-0.2,0-0.5,0-0.7-0.1V1.2c-0.1-0.3,0.2-0.3,0.4-0.4s0.5,0.2,0.8,0C200,1,200.7,0.6,201.3,0.8z"/>
			<path class="st25" d="M205.1,0.7l-0.3-0.1c0.8-0.2,1.6-0.2,2.3-0.4c0,0.2-0.1,0.3-0.1,0.5c-0.1,0.2,0,0.7-0.5,0.2
				c-0.2-0.2-0.2,0.1-0.3,0.2c-0.2,0.4-0.5,0.4-0.8,0.1C205.6,0.8,205.2,0.9,205.1,0.7z"/>
			<path class="st24" d="M199.4,0.8c-0.4,0.2-0.9,0-1.2,0.4c-0.4-0.3-0.9-0.4-1.4-0.3c-0.5,0.1-1-0.1-1.4-0.4L199.4,0.8z"/>
			<path class="st18" d="M82.9,9.7V9.6c0.1-0.3,0.2-0.6,0.4-0.8c0-0.2,0.1-0.4,0.3-0.4c0.4-0.2,0.7-0.5,0.8-1c0-0.1,0.1-0.2,0.1-0.2
				c0-0.3,0.2,0.7,0.6,0.7s0.5-1,0.8-0.8c0,0.1,0,0.1,0,0.2c-0.1,0.5,0,0.7,0.5,0.9c-0.3,0.4-0.8,0.5-1.2,0.9s-0.5-0.1-0.8-0.2
				c-0.7-0.2-0.9-0.2-1.2,0.5C83.1,9.4,83,9.6,82.9,9.7z"/>
			<path class="st44" d="M93.9,11.6c0.1,0.9,0,1.9-0.2,2.8l-0.1-1.2c-0.1-0.1,0-0.2,0.1-0.2c0.1-0.2,0.1-0.5,0.1-0.7
				c-0.1-0.2-0.3-0.1-0.4-0.3c-0.3-0.3-0.7-0.4-0.8,0.2c0,0.4-0.1-1.6,0-1.3c0.1-0.4,0.1-0.8,0.6-0.5c0.2,0.1,0.3-0.1,0.3-0.3
				c0.2-0.6,0.7-1,1-1.6c0.1-0.1,0.2-0.2,0.4-0.2c-0.1,0.2-0.1,0.5,0,0.7C95,9.3,95,9.6,95,9.9c0,0.2,0,0.4-0.3,0.4
				s-0.3-0.1-0.4-0.2s-0.2-0.4-0.4-0.3s-0.1,0.4-0.1,0.6C93.8,10.8,93.9,11.2,93.9,11.6z"/>
			<path class="st45" d="M93.8,7.8c-0.1,0.2-0.4,0.4-0.6,0.4C93,8.2,92.9,8.1,93,8c0-0.1,0.5-0.5,0.7-0.5S93.8,7.7,93.8,7.8z"/>
			<path class="st38" d="M88.7,12.8c-0.5-0.1-0.8,0.1-0.9,0.6s-0.1,0.9-0.3,1.3c-0.1,0.3,0.2,0.4,0.4,0.5c0.4,0.1,0.7,0.3,1,0.6
				c0.5,0.3,0.7,1,0.4,1.5c-0.1,0.1-0.1,0.2-0.2,0.3c-0.1,0.1-0.1,0.2-0.2,0.1c0.2-0.2,0.3-0.5,0-0.7s-0.5-0.8-1-1v-0.1
				c-0.1-0.1-0.2-0.2-0.4-0.2c-0.3,0-0.6-0.3-0.6-0.6c0,0,0-0.1,0-0.1c0-0.2,0-0.4-0.1-0.6c-0.1-0.4-0.2-0.9,0.3-1.2
				c0.3-0.2,0.4-0.5,0.4-0.8c0-0.3,0.1-0.4,0.4-0.5c0.1-0.1,0.3-0.1,0.4,0.1c0,0,0,0,0,0.1c0.1,0.1,0.1,0.1,0.2,0.2
				C89.1,12.2,89.2,12.3,88.7,12.8z"/>
			<path class="st29" d="M87.9,15.9c0.3,0.1,0.2-0.5,0.5-0.3s0.6,0.4,0.4,0.9c0,0.1,0,0.2,0,0.4c-0.1,0.1-0.2,0.3-0.3,0.5
				c-0.4,0.6-0.4,0.6-0.9,0.1c0.2-0.1,0.2-0.3,0.5-0.3c0.5,0,0.4-0.3,0.2-0.5C88.1,16.5,87.9,16.2,87.9,15.9z"/>
			<path class="st29" d="M88.7,12.8c0-0.3,0.2-0.6-0.3-0.5c-0.2,0.1-0.1-0.5-0.4-0.3s0.1,0.4,0,0.6c-0.1,0.3-0.3,0.6-0.5,0.8
				c-0.4,0.2-0.3,0.5-0.3,0.9c0.1,0.6,0.4,1.1,0.8,1.6c-0.6,0.1-0.6,0.6-0.4,1c-0.2,0.1-0.4,0-0.5-0.1c-0.2-0.3-0.6-0.4-1-0.3
				c-0.1,0-0.2,0-0.3-0.1c0,0,0,0,0,0c0-0.1,0.1-0.2,0.1-0.2c0,0,0,0,0,0c0.8,0.1,0.5-0.6,0.7-0.9s-0.2-0.4-0.4-0.6
				c0.2-0.3,0.6-0.6,0.4-1.1c-0.3-0.6-0.2-1,0.3-1.3c0.1-0.1,0.3-0.2,0.4-0.3c0.6-0.4,1.4-0.3,2,0.1c0,0,0,0,0,0.1
				c-0.1,0.7,0.5,1,0.8,1.5C89.3,13.7,89.1,13.1,88.7,12.8z"/>
			<path class="st43" d="M105.3,15.3c-0.5,0.3-0.9,0.6-1.4,0.1c0,0,0-0.1,0-0.1c-0.4-0.8-0.4-0.8,0.4-1.2c0.7,0,1,0.2,1,0.9
				C105.3,15.1,105.3,15.2,105.3,15.3z"/>
			<path class="st46" d="M99.4,15.2c0,0.3-1,1.3-1.2,1.3c-0.2,0-0.3-0.2-0.3-0.3c0,0,0-0.1,0-0.1c0.1-0.6,0.6-1,1.2-1
				C99.2,15,99.4,15,99.4,15.2z"/>
			<path class="st25" d="M92.5,12.4c0,0,0-0.1,0-0.1c0.1-0.3,0.2-0.7,0.4-1c0.1-0.2,0.2-0.2,0.4-0.2c0.2,0.1,0.1,0.2,0,0.3
				s0,0.3,0.2,0.4s0.3,0.2,0.3,0.4c-0.3,0.2-0.6-0.4-0.7,0s-0.5,0.4-0.4,0.8C92.4,12.8,92.5,12.6,92.5,12.4z"/>
			<path class="st10" d="M102.8,15.5c-0.2,0.1-0.5,0-0.7,0.1c-0.3,0.2-0.4,0.5-0.2,0.8c0,0,0.1,0.1,0.1,0.1c0.3,0.2,0.6,0.4,0.4,0.7
				c0-0.3-0.3-0.3-0.5-0.4s-0.4-0.2-0.3-0.5s-0.2-0.8,0.3-1C102.3,15.2,102.5,15.5,102.8,15.5z"/>
			<path class="st25" d="M93.7,12.9l-0.1,0.2c-0.2,0-0.3,0.1-0.4-0.1c0-0.1,0-0.2,0.1-0.3C93.4,12.7,93.5,12.8,93.7,12.9z"/>
			<path class="st14" d="M124.9,13.4c-0.7,0.1-1.4,0.2-2.2,0.1C123.4,13.3,124.1,13.3,124.9,13.4z"/>
			<path class="st43" d="M203.2,8.6c0.3-0.3,0.6-0.6,1-0.8c0.2-0.5,0.8-0.5,1.2-0.6c0.6-0.1,1.2,0.3,1-0.9c0.2-0.5,0.5-0.9,1-1.1
				c0.5-0.2,0.8,0.2,1.1,0.4c0.1,0.1,0.1,0.2,0,0.3c0,0,0,0,0,0c-0.3,0.3-0.1,0.6-0.2,0.9l-0.1,0.1c-0.4,0.1-0.7,0.4-0.7,0.8
				c-0.1,0.5-0.3,0.9-0.7,1.2c-0.2,0.2-0.1,0.4-0.1,0.6c-0.4,0.5-0.9,0.8-1.5,0.9c-0.3,0.1-0.2-0.3-0.3-0.4c-1.2,0-2.3,0.7-3.6,0.3
				c-0.1,0.3-0.2,0.7-0.5,1c-0.4-0.3-0.2-0.8-0.3-1.2c-0.1-0.2,0.4-0.3,0.6-0.2c0.1,0,0.2,0,0.2-0.1c0,0,0,0,0,0
				c0-0.6,0.4-0.5,0.8-0.5S203.1,9.2,203.2,8.6z"/>
			<path class="st44" d="M201.7,16.5c0.1-0.4,0.1-0.8,0-1.2c-0.2-0.6-0.2-1.1-0.4-1.7c-0.1-0.3-0.1-0.6,0.3-0.6c0.1,0,0.3,0,0.3-0.2
				s-0.2-0.1-0.3-0.1c-0.3,0-0.3-0.2-0.2-0.4s0.4-0.2,0.1-0.4s-0.3,0.1-0.4,0.3l-0.1,0.2c-0.2-0.3-0.2-0.7-0.2-1
				c0-0.4,0.1-0.8,0.3-1.1c0.1-0.2,0.4-0.3,0.6-0.2c0.5,0.2,1,0.2,1.5-0.1c0.5-0.1,1.1,0,1.5-0.4c0.1,0,0.2,0,0.2,0
				c0.4,0.6,0.8,0.2,1.2,0c0.2-0.1,0.4-0.3,0.6-0.2c0.1,0,0.2,0.1,0.2,0.2c-0.1,0.2-0.2,0.4-0.3,0.6c-0.5,0.4-0.7,0.9-0.8,1.5
				c-0.2,1-0.6,1.9-1.3,2.7c-0.2,0.3-0.4,0.6-0.4,0.9c-0.2,1.2-1.1,1.8-1.8,2.6c-0.2,0.2-0.3,0-0.5-0.1
				C201.7,17.4,201.7,16.9,201.7,16.5z M202.6,14.6c0,0.2,0,1,0.2,1.1s0.4-0.8,0.6-0.9c0.1-0.1,0.2-0.2,0.2-0.3
				c0.2-0.4,0.3-1.1,0.6-1.5c0.3-0.6,0.5-1.3,0.6-2.1c0.1-0.6-0.3-0.6-0.8-0.4s-1.3,0.2-1.9,0.3c-0.3,0.1-0.3,0.3-0.2,0.7
				c0.3,0.7,0.2,0.7,0.5,1.4C202.5,13.5,202.6,14,202.6,14.6L202.6,14.6z"/>
			<path class="st37" d="M182.1,8.9h0.5c0.1,0.3,0.3,0.4,0.5,0.4s0.3,0.4,0.2,0.6s-0.4,0.2-0.6,0.1C182.3,9.8,182.1,9.3,182.1,8.9z"
				/>
			<path class="st25" d="M208.4,6.9c-0.2-0.1-0.4-0.4-0.3-0.7c0.2-0.8,0.1-0.8-0.7-0.9c0.1-0.3,0.2-0.6,0.6-0.6
				c0.1,0.8,0.7,0.7,1.2,0.6l-0.1,0.4C208.6,6.1,208.8,6.7,208.4,6.9z"/>
			<path class="st40" d="M172.9,9.1c-0.5,0.4-1.1,0.4-1.7,0.1L172.9,9.1z"/>
			<path class="st32" d="M205.1,0.7h0.2c0.2,0,0.4-0.2,0.5,0.1s-0.1,0.4-0.3,0.4C205.3,1.1,205,1,205.1,0.7z"/>
			<path class="st38" d="M82.9,9.7c-0.2,0.6,0.1,1.1,0,1.7c0,0.2,0.3,0.4,0.5,0.4c0.9,0.2,1.8,0.3,2.7,0.2c0.2,0,0.3-0.2,0.4-0.4
				s0.4-0.5,0.6-0.6c0.2-0.1,0.3-0.1,0.5-0.1c0.2,0,0.2,0.5,0.4,0.3c0.3-0.2,0.5-0.5,0.6-0.8c0-0.2,0.1-0.3,0.2-0.4
				c0.4,0.3,0.6,0.4,0.8-0.2c0.1-0.2,0.1-0.6,0.6-0.4c0.1,0,0.2-0.1,0.2-0.2c-0.1-0.3,0-0.6,0.2-0.8c0.2-0.2-0.1-0.3-0.2-0.2
				s-0.4,0.1-0.4-0.2c0-0.3,0.3-0.2,0.5-0.2c0.3,0,0.5,0,0.8,0c0.5,0,0.7-0.2,0.8-0.7c0-0.2,0.1-0.4,0.3-0.3s0,0.2,0,0.4
				c0,0.4-0.3,0.8,0.2,1.1c0.2,0.1,0.3,0.4,0.2,0.6c0,0,0,0.1-0.1,0.1c-0.8-0.5-1.2-0.4-0.8,0.6c-1.2,0.1-0.4,0.5-0.4,0.6
				S92,9.9,92,10c0.1,0.3-0.2,0.5-0.1,0.8c0,0.1-0.1,0.5-0.1,0.6c0,1-0.7,1.1-1.3,1.8c-0.2,0.2-0.4,0.3-0.6,0.3
				c-0.4-0.4-0.8-0.5-1-1.1c-0.3-0.5-0.9-0.7-1.3-0.4c0,0-0.1,0-0.1,0.1c-0.4,0.3-0.9,0.6-0.8,1.2c0,0.2-0.1,0.3-0.3,0.3
				c-0.5,0.2-1.1,0.2-1.6,0c0.1-0.3,0.6,0.1,0.7-0.4s-0.2-1-0.8-0.9c-0.8,0.1-1.5-0.1-2.1-0.6c-0.1-0.1-0.2-0.1-0.2-0.2
				c0.5-0.4,0.1-0.9,0.2-1.3c0.1-0.2,0.2-0.4,0.3-0.5C82.9,9.6,82.9,9.7,82.9,9.7z M90.3,10.2c-0.1-0.1-0.2-0.3-0.3-0.1
				c-0.1,0.4-0.5,0.6-0.6,1s0,0.6,0.3,0.7s0.8-0.2,0.8-0.8C90.5,10.8,90.4,10.5,90.3,10.2z"/>
			<path class="st40" d="M91.5,9.2c0.2,0.4,0.5,0.3,0.5,0.8c-0.1,0.1-0.5,0.7-0.6,0.8s-0.6,0.4-0.7-0.3s0-0.8,0.2-1.1
				S91.4,9.4,91.5,9.2z"/>
			<path class="st47" d="M206.7,8.5c-0.3,0.4-0.7,0.6-1.2,0.7c-0.1,0-0.2-0.1-0.2-0.3c0.1-0.3,0.1-0.7,0-1c0-0.1,0-0.2,0.1-0.2
				C205.9,7.9,206.3,8.2,206.7,8.5C206.7,8.5,206.7,8.5,206.7,8.5z"/>
		</g>
	</g>
</g>
</svg>
