<?xml version="1.0" encoding="utf-8"?>
<svg version="1.1" id="" xmlns="http://www.w3.org/2000/svg" xmlns:xlink="http://www.w3.org/1999/xlink"
	 x="0px" y="0px" viewBox="0 0 243.7 112.2" enable-background="new 0 0 243.7 112.2" xml:space="preserve">
<g id="_x31_3085_x5F_final_1_">
	<path fill="#616161" d="M5.2,29.5c-0.2,0.1-0.5,0.2-0.6,0.4c-0.4,0.5-1,0.6-1.5,0.9c-0.3,0.2-0.7-0.1-0.9-0.4
		c-0.2-0.2,0-0.3,0.2-0.3c1.5-0.6,2.7-1.7,3.9-2.7c0.3-0.2,0.4-0.5,0.5-0.8c0.1-0.4,0.2-0.8,0.5-1.1c0.4-0.4,0.4-1,0.7-1.4
		c0.4-0.5,0.6-1,0.7-1.6c0.1-0.4,0.4-0.4,0.6-0.6c0.3,0,0.4-0.2,0.5-0.4c0.3-0.9,0.7-1.7,1.3-2.3c0,0,0.1-0.1,0.1-0.1
		c0.2-0.2,0.4-0.6,0.8-0.4c0.3,0.3,0.1,0.7-0.1,0.9c-0.3,0.4-0.3,0.8-0.3,1.3c0,0.6,0,1.2-0.7,1.4c-0.1,0-0.2,0.1-0.3,0.3
		c-0.7,0.3-1.1,0.9-1.3,1.6c-0.3,0.2-0.5,0.4-0.6,0.8c-0.1,0.5-0.3,0.9-0.7,1.4c-0.3,0.4-0.6,1-0.9,1.4C6.8,28.4,6,28.9,5.2,29.5z"
		/>
	<path fill="#696969" d="M51.5,12.9c-0.3,0-0.1,0.2-0.4,0.2c-0.1,0-0.5-0.6-0.6-0.6c0-0.1,0-0.1,0.1-0.2c0.3-0.4,0.2-0.3,0.7-0.5
		c0.4-0.2,0.5,0.2,0.8,0.5c0.2,0.2,0.4,0.3,0.6,0.4c0.1,0.1,0.2,0.1,0.3,0c0.2-0.2,0-0.4,0.1-0.4c0.5-0.2,1.4,0.1,1.9,0.4
		c0.2,0.1,0.5,0.3,0.7,0.5c0,0.2,0.4,0.4,0.1,0.7c-0.2,0.2-0.6,0-0.8-0.1c-0.5-0.4-1.3-0.6-1.8-0.7c0.7,0.6,1.4,1.5,2.4,1.8
		c0.3,0.1,0.7,0.3,0.5,0.6c-0.2,0.3-0.7,0.2-1,0c-0.2-0.1-0.4-0.4-0.5-0.1c0,0.3-0.2,0.2-0.3,0.1c0-0.1,0.1-0.2,0.1-0.2
		c-0.3-0.2-0.5-0.5-0.6-0.8c-0.1-0.2-0.3-0.2-0.4-0.1c-0.1,0-0.2,0-0.2-0.1c-0.1-0.4-0.3-0.6-0.6-0.5C52,13.5,51.8,13.2,51.5,12.9z"
		/>
	<path fill="#727272" d="M24.6,21.3c-1,0.2-1.5,1-2.2,1.5c-0.3,0.2-0.6,0.3-0.9,0.5c-0.6,0.5-1.2,1-1.5,1.8
		c-0.2,0.5-0.6,1.1-1.2,1.3c-0.2,0.1-0.4,0.1-0.5-0.1c-0.1-0.2,0-0.3,0.1-0.4c0.4-0.3,0.5-0.8,0.7-1.2c0.4-0.9,1.3-1.3,2-1.9
		c0.7-0.6,1.4-1,2.1-1.5C23.6,21.1,24,20.8,24.6,21.3z"/>
	<path fill="#6F6F6F" d="M116.3,13.9c0.1-0.1,0.3-0.1,0.4-0.2c0.7-0.6,1.6-0.4,2.4-0.5c0.5,0,1.1,0.2,1.6,0.5
		c-0.1,0.4-0.4,0.4-0.7,0.4c-0.9-0.1-1.9-0.1-2.7,0.2c-1.2,0.4-2.5,0.8-3.3,1.9c-0.4,0.3-0.4,0.3-0.6,0c0.5-0.9,1.2-1.6,2.1-2
		C115.9,14.3,116.1,14.2,116.3,13.9z"/>
	<path fill="#707070" d="M42.1,67.4c-0.5-0.4-1.1-0.1-1.6,0.1c-0.2,0.1-0.6,0.1-0.8-0.1c-0.1-0.1-0.1-0.2,0-0.3
		c0.2-0.2,0.5-0.4,0.8-0.4c1.1-0.1,2.2-0.2,3.2-0.6c1.1-0.4,2-1,2.9-1.7c0.1-0.1,0.3-0.2,0.4-0.2c0.2-0.1,0.3-0.1,0.4,0.1
		c0.1,0.2,0.1,0.3-0.1,0.4c-0.7,0.4-1.3,1.1-2.1,1.4c-0.8,0.3-1.6,0.8-2.5,1.1C42.5,67.3,42.3,67.3,42.1,67.4z"/>
	<path fill="#686868" d="M60.2,21.3c0.2,0.2,0.3,0.3,0.5,0.5c0.2,0.2,0.4,0.5,0.1,0.8c-0.3,0.2-0.7,0.2-0.9-0.1
		c-0.8-1-1.8-2-2.5-3.1c-0.2-0.3-0.4-0.4-0.7-0.4c-0.3,0-0.4-0.1-0.4-0.4c0-0.3,0.2-0.4,0.4-0.3c0.4,0.1,1,0,1.1,0.6
		c0,0.1,0.1,0.2,0.2,0.2c1,0.3,1.2,1.5,2,1.9c0,0,0,0.1,0,0.2c0,0.1-0.1,0.1-0.1,0.2C60.1,21.3,60.1,21.2,60.2,21.3z"/>
	<path fill="#7D7D7D" d="M20.3,10.1c0.4,0,0.8-0.4,1,0c0.2,0.4-0.2,0.7-0.5,0.8c-0.9,0.6-1.9,1-2.8,1.8c-0.1,0.1-0.3,0.2-0.5,0.1
		c-0.2,0-0.4-0.1-0.4-0.3c-0.1-0.2,0.1-0.3,0.2-0.4c0.8-0.5,1.6-1.1,2.4-1.6c0.1-0.1,0.3-0.1,0.3-0.2c0.3-1.1,1.3-1.5,2-2.2
		c0.1-0.1,0.3-0.2,0.4-0.1c0.2,0.2,0,0.3-0.2,0.5c-0.2,0.2-0.4,0.3-0.6,0.4C21.2,9.2,20.9,9.7,20.3,10.1z"/>
	<path fill="#7E7E7E" d="M68.1,43.1c0.4-0.2,0.4-0.6,0.4-0.9c0.1-1.4,0.7-2.8,0.8-4.2c0.1-0.6,0.3-1.1,0.5-1.7c0-0.1,0-0.3,0.2-0.3
		c0.2,0,0.2,0.2,0.2,0.3c0,0.2,0,0.3,0,0.5c-0.2,1-0.3,2.1-0.6,3.1c-0.2,0.9-0.4,1.7-0.6,2.6c-0.1,0.3-0.2,0.6-0.3,0.9
		c-0.2,0.9-0.3,1-1.1,0.4C67.8,43.7,68,43.4,68.1,43.1z"/>
	<path fill="#7B7B7B" d="M67.6,38.6c0.3-0.1,0.5-0.3,0.6-0.6c0.2-0.5,0.4-1,0.4-1.7c0-0.6,0.2-1.2,0.3-1.9c0.1-0.8,0.4-1.6,0.3-2.4
		c0-0.2,0-0.6,0.4-0.5c0.3,0,0.3,0.3,0.3,0.6c0,1-0.2,1.9-0.4,2.8c-0.2,0.9-0.4,1.9-0.7,2.8c-0.2,0.5-0.6,1-0.7,1.5
		C67.9,39.1,67.6,39,67.6,38.6z"/>
	<path fill="#7C7C7C" d="M123.2,58.3c0.1,0.3,0.2,0.7,0.3,1c0,0.1,0.1,0.2,0,0.3c-0.1,0.1-0.2,0-0.3-0.1c-0.1-0.2-0.3-0.4-0.3-0.5
		c0-0.4-0.3-0.6-0.6-0.8c-0.3-0.8-1-1.2-1.5-1.9c-0.4-0.5-0.8-1-1.3-1.5c-0.1-0.1-0.1-0.1-0.2-0.2c-0.1-0.2,0-0.5,0.1-0.6
		c0.1-0.1,0.3,0.1,0.4,0.2c1,1.1,2,2.1,2.8,3.3C123,57.6,123.1,58,123.2,58.3L123.2,58.3z"/>
	<path fill="#909090" d="M13,16.4c0-0.7,0.5-1,1-1.4c0.5-0.4,0.9-0.7,1.2-1.3c0.3-0.4,0.7-0.4,1.1-0.5c0.1,0,0.3,0.1,0.3,0.2
		c0,0.2-0.1,0.3-0.3,0.4c-1.1,0.8-1.9,1.8-2.5,2.9c-0.1,0.1-0.1,0.3-0.3,0.3C13.3,17,13,17,12.9,16.7C12.9,16.6,13,16.5,13,16.4z"/>
	<path fill="#585858" d="M44.8,24.7c0.7,0.6,1,1.9,0.7,2.8c-0.1,0.2,0,0.4,0,0.5c0.2,0.6,0.2,1.2,0.5,1.7c0.3,0.5-0.1,1-0.1,1.6
		c0,0.2-0.3,0.3-0.6,0.3c-0.3,0-0.4-0.2-0.4-0.5c0-0.5,0-1.1,0-1.6c0.1-0.3,0.1-0.7,0-1c-0.1-0.4-0.2-0.8,0.1-1.1
		c0.2-0.2,0.1-0.6,0.1-0.8c0.2,0.6-0.3,1-0.3,1.6c0,0.1-0.1,0.1-0.2,0.1c-0.2-0.1-0.3-0.3-0.2-0.4c0.4-0.5,0.3-1,0.3-1.5
		c0-0.2,0.1-0.3,0.2-0.5c-0.1-0.2-0.2-0.4-0.2-0.6C44.5,24.9,44.5,24.7,44.8,24.7z"/>
	<path fill="#696969" d="M116.9,24.1c0.4-0.9,1-1.7,1.7-2.4c0.5-0.5,0.9-1.1,1.5-1.6c0.5-0.4,1.1-0.6,1.6-1.1c0.1-0.1,0.2-0.1,0.3,0
		c0.1,0.1,0.1,0.2,0.1,0.3c-0.1,0.2-0.2,0.5-0.4,0.6c-0.5,0.2-0.9,0.6-1.4,0.8c-0.5,0.2-0.7,0.7-1,1c-0.7,0.7-1.4,1.5-2,2.3
		c0,0.1-0.1,0.2-0.2,0.1C116.9,24.3,116.9,24.2,116.9,24.1z"/>
	<path fill="#626262" d="M116.7,19.6c1-1.2,2.6-1.6,3.8-2.4c0.4-0.2,0.8-0.3,0.4-1.1c-0.2-0.3,0.4-0.3,0.5-0.6
		c0.1-0.1,0.3,0,0.4,0.1c0.2,0.2,0.1,0.4-0.1,0.6c-0.5,0.3-0.2,0.3,0.1,0.4c0.2,0.1,0.3,0.2,0.3,0.5c0,0.2-0.2,0.4-0.4,0.4
		c-1.4,0.1-2.4,1-3.5,1.7c-0.4,0.3-1,0.2-1.2,0.8C116.8,20,116.6,19.9,116.7,19.6z"/>
	<path fill="#838383" d="M123.4,66.1c0.1,0.5,0.2,0.9,0.4,1.3c0,0.3,0.1,0.5,0.1,0.8c0,0.1,0.1,0.3-0.1,0.4
		c-0.2,0.1-0.2-0.1-0.3-0.2c-0.3-0.3-0.2-0.7-0.3-1c-0.1-0.7-0.5-1.3-0.8-1.8c-0.6-0.9-1.2-1.8-1.5-2.8c-0.1-0.2-0.2-0.4,0.1-0.5
		c0.2-0.1,0.3,0.1,0.4,0.3c0.2,0.4,0.2,0.8,0.5,1.1c0.4,0.2,0.6,0.6,0.6,1.1C122.8,65.2,123,65.7,123.4,66.1z"/>
	<path fill="#6E6E6E" d="M113.8,20.4c0-0.4,0.1-0.7,0.3-1c0.7-1.1,1.4-2.2,2.3-3.1c0.4-0.4,0.9-0.6,1.4-0.8c0.2-0.1,0.6-0.1,0.7,0.2
		c0.1,0.3-0.2,0.4-0.4,0.5c-2.1,0.6-3,2.3-3.8,4.1c-0.1,0.1-0.1,0.4-0.3,0.3C113.8,20.7,113.8,20.5,113.8,20.4z"/>
	<path fill="#5D5D5D" d="M47,33.1c-0.3,0.1-0.5,0-0.7-0.3c-0.1-0.2-0.3-0.3-0.4-0.4c-0.2-0.1-0.6-0.2-0.4-0.5
		c0.2-0.3,0.5-0.5,0.9-0.2c0.2,0.1,0.3,0.3,0.5,0.4c0.1,0.1,0.3,0.3,0.4,0.2c0.8-0.2,1.2,0.4,1.8,0.7c0.2,0.1,0.4,0.2,0.3,0.4
		c-0.1,0.2-0.3,0.4-0.5,0.3c-0.5-0.1-1-0.1-1.4-0.5C47.3,33.1,47.2,33,47,33.1z"/>
	<path fill="#757575" d="M104.2,93.8c0,0.1,0,0.1,0,0.2c-0.4,0.7-0.4,1.5-0.7,2.2c-0.2,0.6-0.4,1.3-0.9,1.7
		c-0.2,0.2-0.3,0.5-0.6,0.3c-0.2-0.2,0-0.4,0.2-0.6c0.3-0.3,0.4-0.6,0.2-1c0-0.1,0-0.2,0-0.2c0.6-0.6,0.3-1.6,0.9-2.2
		c0.1-0.2,0.2-0.4,0.3-0.6c0.1-0.1,0.2-0.3,0.4-0.2C104.3,93.5,104.2,93.7,104.2,93.8z"/>
	<path fill="#676767" d="M102.9,111.1c-1,0-1.6-0.6-1.8-1.8c0-0.2,0-0.4-0.1-0.5c-0.4-0.3-0.2-0.5,0.1-0.7c0.4-0.3,0.5,0,0.6,0.2
		c0.3,0.4,0.3,0.9,0.3,1.3c0,0.4,0.4,0.8,0.8,0.7c0.3,0,0.7-0.1,0.7,0.3C103.6,111.2,103.2,111.1,102.9,111.1z"/>
	<path fill="#6F6F6F" d="M29.4,67.3c0.3-0.3,0.6-0.5,1.1-0.5c1.1-0.1,2.1-0.2,3.2-0.3c0.4-0.1,0.9,0.1,1.3,0.2
		c0.6,0.2,1.2,0.1,1.8,0.1c0.2,0,0.3,0.1,0.2,0.3c-0.1,0.2-0.3,0.3-0.4,0.2c-0.5-0.1-1,0.1-1.5,0c-0.5-0.3-1.1-0.2-1.6-0.1
		c-0.2,0.1-0.4,0.1-0.6,0c-0.4-0.1-0.8-0.1-1.1,0.1c-0.5,0.2-1,0.3-1.5,0.3c-0.3-0.1-0.1-0.2-0.1-0.3c-0.2,0.1-0.3,0.4-0.6,0.3
		C29.3,67.6,29.2,67.5,29.4,67.3z"/>
	<path fill="#6C6C6C" d="M49.5,62.3c-0.1,0.2-0.2,0.4-0.2,0.6c-0.3,0.2-0.6,0.4-0.8,0.8c-0.1,0.2-0.2,0.3-0.4,0.4
		c-0.2,0.1-0.5,0-0.6-0.1c-0.2-0.2,0-0.3,0.2-0.4c0.5-0.4,0.6-1.1,1-1.5c0.4-0.4,0.7-0.9,1.1-1.3c0.2-0.2,0.4-0.3,0.7-0.1
		c0.3,0.3,0,0.4-0.2,0.6C50,61.6,49.8,62,49.5,62.3z"/>
	<path fill="#353535" d="M10.1,84.6c0.1-0.7-0.3-1.2-0.5-1.8c-0.1-0.3-0.2-0.5,0.2-0.7c0.3-0.2,0.6-0.1,0.8,0.2
		c0.7,0.6,0.9,1.3,0.7,2.2c-0.2,0.6-0.3,1.3-0.4,1.9c-0.1,0.4-0.3,0.4-0.7,0.4c-0.4-0.1-0.2-0.3-0.2-0.6
		C10,85.7,10.1,85.1,10.1,84.6z"/>
	<path fill="#5F5F5F" d="M116.7,64.1c-0.2,0.6,0.1,1.3-0.3,1.8c-0.1,0.2,0.1,0.4,0.1,0.6c0,0.3-0.1,0.6-0.4,0.7
		c-0.4,0.1-0.4-0.2-0.5-0.4c-0.3-0.5,0-1,0.2-1.5c0.1-0.3,0.2-0.6,0-0.9c-0.3-0.4,0.1-0.7,0.3-1c0.1-0.1,0.3-0.1,0.3,0.1
		C116.5,63.6,116.6,63.8,116.7,64.1z"/>
	<path fill="#646464" d="M105.4,20.1c-0.1,0-0.2,0-0.2-0.1c0-0.1,0-0.2,0.1-0.3c0.2-0.3,0.4-0.6,0.7-0.8c0.5-0.7,1.1-1.3,1.5-2
		c0.1-0.2,0.3-0.3,0.6-0.4c0.2,0,0.3,0.1,0.2,0.3c-0.6,1.2-1.1,2.5-2.4,3.2C105.7,20,105.5,20,105.4,20.1z"/>
	<path fill="#808080" d="M118.9,83.7c-0.4-0.4-0.3-0.8-0.3-1.1c-0.3-1.4-0.8-2.6-1.5-3.8c-0.1-0.1-0.1-0.2-0.2-0.4
		c-0.1-0.2-0.1-0.4,0.1-0.5c0.2-0.1,0.3,0.1,0.4,0.2c0.7,0.9,1,2,1.3,3.1C118.9,82,119.1,82.8,118.9,83.7z"/>
	<path fill="#656565" d="M104.6,110.5c0.5,0,0.8,0.1,1.1,0.4c0.3,0.3,0.8,0.6,1.3,0.5c0.3-0.1,0.6,0.1,0.6,0.5
		c0,0.4-0.3,0.3-0.6,0.3c-0.7,0.1-1.2-0.3-1.8-0.4c-0.2,0-0.4-0.2-0.6-0.4c-0.1-0.2-0.3-0.4-0.5-0.3c-0.1,0-0.3,0.1-0.3-0.1
		c0-0.1,0.1-0.3,0.2-0.3C104.3,110.5,104.5,110.5,104.6,110.5z"/>
	<path fill="#414141" d="M11.4,89.1c-0.1,0.3-0.2,0.7,0.3,1c0.2,0.1-0.1,1.2-0.3,1.3c-0.3,0.2-0.4,0-0.5-0.2
		c-0.1-0.6-0.2-1.1-0.7-1.5c-0.3-0.3,0.1-1.1,0.5-1.3C11.1,88.3,11.4,88.6,11.4,89.1z"/>
	<path fill="#535353" d="M54.2,15.5c0.1,0,0.3,0,0.4,0c0.2,0.1,0.5,0.1,0.4,0.3c-0.1,0.5,0.2,0.7,0.5,0.9c0.1,0,0.1,0.1,0.2,0.2
		c0.3,0.2,0.3,0.6,0.2,0.8c-0.2,0.4-0.6,0.2-0.8,0c-0.4-0.4-0.9-0.8-1.2-1.3C53.7,16.2,53.7,15.7,54.2,15.5z"/>
	<path fill="#424242" d="M10.6,22.5c-0.5-0.2,0.1-0.4,0.1-0.4c0.6-0.2,0.7-0.7,0.7-1.2c0-0.6,0.1-1.2,0.5-1.7c0.1-0.1,0.1-0.3,0-0.5
		c-1.1,0.5-1.5,1.4-1.8,2.4c-0.1,0.4-0.3,0.7-0.8,0.7c-0.1,0.1-0.2,0.1-0.2,0c0.7-0.3,0.7-1,1-1.6c0.3-0.6,0.8-1.2,1.2-1.8
		c0.1-0.2,0.4-0.4,0.7-0.2c0.3,0.2,0.3,0.4,0.2,0.7c-0.3,0.6-0.6,1.2-0.4,2C11.9,21.7,11.3,22.3,10.6,22.5z"/>
	<path fill="#747474" d="M120.1,24.5c-0.1,0.1-0.1,0.2-0.2,0.4c-1.1,1.3-2.1,2.6-2.8,4.2c0,0.1-0.1,0.2-0.2,0.2
		c-0.1,0.1-0.2,0.3-0.3,0.2c-0.2-0.1-0.1-0.2,0-0.4c0.2-0.4,0.5-0.9,0.7-1.3c0.7-1.2,1.4-2.3,2.4-3.3c0.1-0.1,0.2-0.2,0.3-0.2
		C120,24.2,120.1,24.3,120.1,24.5z"/>
	<path fill="#545454" d="M55.3,49.9c0,0.1,0,0.2,0,0.2c0,0.5,0.1,0.8-0.1,1.4c0.1,0.4,0.1,0.9-0.3,1.2c-0.1,0.1-0.2,0.3-0.4,0.2
		c-0.2-0.1-0.3-0.3-0.3-0.5c0-0.4,0.1-0.7,0.2-1c0.1-0.1,0.1-0.3,0-0.4c-0.3-0.5,0-0.8,0.2-1.2C54.8,49.6,55,49.6,55.3,49.9z"/>
	<path fill="#5E5E5E" d="M114.3,11.8c0.4-0.4,0.8-0.7,1.4-0.7c0.2,0,0.5,0,0.6,0.3c0.1,0.3-0.2,0.5-0.4,0.5c-0.3,0.1-0.7,0.1-1,0.2
		c-0.1,0-0.2,0.1-0.3,0.2c-0.4,0.3-0.9,0.6-1.2,1.1c-0.1,0.3,0.1,0.8-0.5,0.6c-0.2-0.6,0.2-1,0.5-1.3
		C113.6,12.4,114,12.1,114.3,11.8z"/>
	<path fill="#626262" d="M109.5,28.2c0,0,0,0.1,0,0.2c0,0.2,0,0.4-0.2,0.5c-0.3,0.1-0.4-0.1-0.5-0.3c-0.2-0.8-0.6-1.6-1-2.3
		c-0.1-0.2-0.1-0.4,0-0.5c0.2-0.1,0.4-0.1,0.5,0.1C108.8,26.5,109.6,27.1,109.5,28.2z"/>
	<path fill="#777777" d="M50.4,8.8C50.6,8.8,51,8.6,51,8.9c0.1,0.3-0.3,0.5-0.6,0.5c-1,0.1-2,0.3-3,0.3c-0.2,0-0.4,0-0.6,0.1
		c-0.2,0.1-0.4,0-0.4-0.2C46.9,9,47.6,9.1,48.2,9C48.9,8.9,49.6,8.9,50.4,8.8L50.4,8.8z"/>
	<path fill="#838383" d="M66.3,54.1c0-0.1,0-0.2,0-0.2c0-0.3,0.2-0.4,0.4-0.5c0.4-0.7,0.8-1.5,1.2-2.2c0.2-0.4,0.4-0.8,0.6-1.2
		c0.1-0.2,0.1-0.3,0.3-0.3c0.2,0,0.1,0.2,0.1,0.4c0,0.5-0.2,1-0.4,1.4c-0.5,0.7-0.8,1.6-1.3,2.2c-0.2,0.2-0.5,0.4-0.5,0.7
		C66.3,54.6,66.4,54.3,66.3,54.1z"/>
	<path fill="#505050" d="M117.7,7.3c-0.3-0.2-0.7-0.3-0.5-0.8c0.3-0.3,0.6-0.1,0.8,0.1c0.7,0.5,1.4,1.1,2.1,1.6
		c0.4,0.3,0.9,0.6,1.3,1c0.2,0.1,0.5,0.4,0.5,0.7c-0.2,0.4-0.4,0.2-0.8-0.1c-0.4-0.3-0.7-0.8-1.2-0.9c-0.4-0.1-0.5-0.5-0.8-0.8
		c0,0-0.1-0.1-0.1-0.1c0,0,0.1,0.1,0.1,0.1c0.2,0.2,0.2,0.3-0.1,0.4c-0.2-0.1-0.4-0.3-0.6-0.4C118.2,7.8,118.1,7.6,117.7,7.3z"/>
	<path fill="#676767" d="M26.3,20.3c-0.2,0-0.3,0-0.4-0.1c0-0.2,0.1-0.3,0.2-0.4c1.1-0.4,2.2-1,3.4-1.2c0.1,0,0.2,0,0.3,0.1
		c0.1,0.1,0.1,0.3-0.1,0.4c-0.1,0-0.1,0.1-0.2,0.1C28.4,19.5,27.4,20.1,26.3,20.3z"/>
	<path fill="#8C8C8C" d="M38.4,6.7c0.1-0.4,0.3-0.5,0.5-0.6c1.4-0.6,2.8-0.9,4.3-1.1c0.2,0,0.5-0.1,0.5,0.1c0.1,0.3-0.3,0.3-0.5,0.3
		C41.6,5.7,40,6.2,38.4,6.7z"/>
	<path fill="#8C8C8C" d="M69.5,44.1c0.1,0.1,0.1,0.3,0,0.5c-0.2,1.1-0.6,2.1-1,3.2c-0.2,0.5-0.5,0.9-0.7,1.3c0,0.1-0.2,0.3-0.3,0.3
		c-0.2-0.1,0-0.3,0-0.4c0.3-1,0.8-1.9,1.1-2.8C68.8,45.4,68.7,44.6,69.5,44.1z"/>
	<path fill="#6C6C6C" d="M44.8,24.7c-0.2,0.3,0.2,0.7,0,1c-0.1-0.1-0.1-0.1-0.2-0.2c-0.3-0.2-0.5-0.4-0.7-0.6
		c-0.5,0-0.9-0.2-0.8-0.8c0-0.1-0.1-0.3-0.1-0.5c-0.3-0.5,0.1-0.6,0.4-0.7c0.4-0.1,0.4,0.2,0.5,0.4c0,0.5,0.2,0.8,0.7,0.8
		C44.6,24.3,44.7,24.5,44.8,24.7z"/>
	<path fill="#8A8A8A" d="M46.3,6.5c-0.7,0.2-1.5,0.4-2.2,0.6c-0.6,0.1-1.2,0.2-1.7,0.3c-0.2,0-0.4,0-0.7-0.3
		c1.8-0.4,3.6-0.8,5.4-1.4c0.2-0.1,0.4-0.1,0.5,0.1c0.1,0.2-0.1,0.2-0.2,0.4C47,6.5,46.6,6.3,46.3,6.5z"/>
	<path fill="#5D5D5D" d="M55,41.7c0.7,0,1,0.4,0.8,1c-0.1,0.2-0.1,0.3,0,0.5c0.1,0.2,0.2,0.3,0.2,0.5c0.1,0.3,0.2,0.8-0.3,0.8
		c-0.4,0-0.6-0.3-0.7-0.7c0-0.2,0-0.4,0.1-0.6c0.2-0.4,0-0.6-0.2-0.9c-0.1-0.1-0.4-0.1-0.3-0.4C54.7,41.7,54.9,41.7,55,41.7z"/>
	<path fill="#868686" d="M65.8,30.6c0-1.3-0.2-2.6-0.4-4c0-0.1,0-0.2,0-0.2c0-0.2-0.1-0.4,0.2-0.5c0.3,0,0.2,0.2,0.3,0.4
		c0.2,1.5,0.4,3.1,0.1,4.6C65.8,31,65.7,30.8,65.8,30.6z"/>
	<path fill="#858585" d="M119.9,79.6c-0.4-0.8-0.7-1.6-0.9-2.4c0-0.2-0.2-0.3-0.3-0.5c-0.3-0.2-0.4-0.5-0.2-0.9
		c0.1-0.2,0.1-0.4,0.3-0.2c0.6,0.9,1,1.9,1.2,2.9c0,0.2,0.1,0.3,0.1,0.5c0.1,0.2,0,0.4,0,0.7c0,0.1-0.1,0.3-0.2,0.3
		C119.8,79.9,119.9,79.7,119.9,79.6z"/>
	<path fill="#6C6C6C" d="M59.7,68.9c1-0.6,1.9-1.3,2.8-2c0.2,0,0.5-0.3,0.6,0.1c-0.5,0.1-0.7,0.6-1,0.9c-0.6,0.7-1.4,1.3-2.3,1.8
		C59.2,69.5,59.8,69.1,59.7,68.9z"/>
	<path fill="#808080" d="M34.9,67.2c0.5,0,0.9-0.1,1.4-0.1c0.2,0,0.4,0.1,0.4-0.3c0.6-0.2,1.3,0,1.9,0.1c0.2,0,0.3,0.1,0.3,0.3
		c0,0.2-0.2,0.3-0.3,0.3c-0.5,0-0.9,0.1-1.4,0.1c-0.4,0-0.8,0-1.2,0c-0.3-0.1-0.7,0.1-1-0.1C34.8,67.4,34.8,67.3,34.9,67.2z"/>
	<path fill="#5A5A5A" d="M110.1,41.2c-0.1-0.4,0.4-0.9,0.1-1.4c0,0,0.1-0.2,0.1-0.2c0.4-0.2,0.6-0.5,0.9-0.8c0.1-0.2,0.3-0.1,0.5,0
		c0.2,0.2,0.1,0.4-0.1,0.5c-0.8,0.3-0.6,1-0.7,1.5c0,0.2,0,0.4-0.1,0.6c-0.1,0.3-0.3,0.3-0.5,0.3C110.1,41.7,110,41.6,110.1,41.2z"
		/>
	<path fill="#7F7F7F" d="M29.4,67.3c0.4,0.3,0.7-0.3,1.1-0.2c0.2,0,0.4-0.2,0.5,0.1c0.1,0.3-0.3,0.2-0.4,0.3c-0.2,0.1-0.4,0-0.4,0.3
		c-0.4,0.2-0.9,0.4-1.4,0.5c-0.3,0-0.4,0.2-0.6,0.4c-0.2,0.2-0.5,0.2-0.7,0c-0.2-0.2,0.1-0.4,0.3-0.5C28.2,67.6,28.7,67.3,29.4,67.3
		z"/>
	<path fill="#7E7E7E" d="M120.3,27.1c-0.9,1.4-1.8,2.8-2.7,4.3C117.5,30.6,119.3,27.5,120.3,27.1z"/>
	<path fill="#777777" d="M116.7,19.6c0.1,0.1,0.2,0.2,0.4,0.4c-0.3,0.6-0.8,1-1.3,1.5c-0.3,0.3-0.5,0.7-0.6,1.1
		c0,0.3-0.1,0.8-0.4,0.7c-0.3-0.1-0.2-0.6-0.1-0.8c0.2-0.6,0.5-1.2,1-1.7C116.2,20.5,116.3,19.9,116.7,19.6z"/>
	<path fill="#4B4B4B" d="M5.2,29.5c0.2-0.4,0.6-0.6,0.9-0.9C7,28,7.2,27,7.8,26.3c0.5-0.6,0.6-1.5,1.2-2.1C9.1,24,9.1,23.8,9.3,24
		c-0.3,0.4-0.6,0.8-0.6,1.3c0,0.4-0.4,0.6-0.6,0.9c-0.4,0.7-0.7,1.5-1.3,2.1C6.4,28.8,5.9,29.3,5.2,29.5z"/>
	<path fill="#8E8E8E" d="M122,69.6c-0.7-0.9-1-2.1-1.6-3c-0.1-0.1-0.1-0.2-0.1-0.3c0-0.1,0-0.3,0.1-0.3c0.1-0.1,0.2,0.1,0.3,0.2
		c0.2,0.3,0.4,0.6,0.5,0.9c0.2,0.7,0.6,1.3,1,1.9c0.1,0.2,0.1,0.5,0.1,0.7C122.3,69.8,122.1,69.8,122,69.6z"/>
	<path fill="#6D6D6D" d="M44.6,28.2c0.3-0.7,0.3-1.3,0.4-2c0-0.1-0.1-0.3,0.1-0.3c0.2,0,0.3,0.1,0.3,0.3c0,0.4,0.2,0.8,0,1.1
		c-0.3,0.5-0.2,0.9,0,1.4c0.2,0.5,0.1,0.8-0.4,0.9C44.5,29.2,44.7,28.6,44.6,28.2z"/>
	<path fill="#828282" d="M48.8,8.1c0.1,0.1,0.2,0.3,0.1,0.5c-0.9,0.1-1.7-0.2-2.5-0.1c-0.2,0-0.4-0.1-0.6,0c-0.2,0-0.5,0-0.5-0.3
		c0-0.3,0.3-0.2,0.4-0.3c0.8-0.2,1.5,0.1,2.2,0.2C48.2,8,48.5,8.1,48.8,8.1z"/>
	<path fill="#7E7E7E" d="M123.4,101c-0.1,0-0.3,0-0.3-0.1c-0.1-0.1,0-0.2,0.1-0.3c0.6-0.3,1-0.9,1.7-1c0.3-0.1,0.4-0.3,0.6-0.5
		c0.1-0.1,0.3-0.2,0.4-0.1c0.1,0.1,0.1,0.3,0,0.4c-0.1,0.1-0.1,0.3-0.2,0.3c-0.7,0.4-1.4,0.8-2.1,1.2C123.5,101,123.4,101,123.4,101
		z"/>
	<path fill="#929292" d="M16.3,11.9c-0.1-0.2,0-0.3,0-0.4c0.8-1.1,1.7-2.1,2.8-2.8c0.1-0.1,0.3-0.3,0.4-0.1c0.1,0.1-0.1,0.2-0.2,0.3
		c-0.8,0.8-1.6,1.6-2.4,2.4C16.7,11.6,16.6,11.9,16.3,11.9z"/>
	<path fill="#5D5D5D" d="M42.4,22.7c0,0.2-0.1,0.4-0.4,0.3c-0.3,0-0.6-0.2-0.7-0.4c-0.2-0.4-0.3-0.7-0.7-1c-0.1-0.1-0.1-0.2,0-0.3
		c0.2-0.2,0.4-0.3,0.6-0.2C41.6,21.2,42.4,22.3,42.4,22.7z"/>
	<path fill="#434343" d="M16.5,32.4c0.1,0.1,0.2,0.2,0.2,0.3c-0.1,0.8,0,1.6-0.2,2.4c-0.1,0.2,0,0.4-0.3,0.4c-0.3,0-0.4-0.2-0.4-0.5
		c-0.1-0.5-0.1-1-0.1-1.5c0-0.3,0-0.7,0-1c0-0.3,0.1-0.6,0.4-0.6C16.5,31.8,16.5,32.1,16.5,32.4c-0.4,0.2-0.3,0.6-0.4,0.9
		c0,0.2,0,0.5,0,0.6c0,0.2,0.1,0.2,0,0.2c0,0,0,0,0-0.1c0.1-0.3,0-0.7,0.1-1C16.2,32.7,16.3,32.5,16.5,32.4z"/>
	<path fill="#595959" d="M133.1,19.7c0,0.2,0.1,0.2,0.1,0.4c-0.4,0.1-0.4,0.3-0.7,0.3c-0.2,0-0.7-0.1-0.6-0.4c0-0.7-0.5-0.8-0.8-1.3
		c0-0.3,0.4-0.3,0.4-0.4c0.3-0.1,0.5,0.2,0.8,0.3c0.1,0.1,0,0.6,0,0.7c0.1,0.1,0.4,0,0.4,0.1C132.9,19.5,133,19.5,133.1,19.7z"/>
	<path fill="#444444" d="M36.3,90.7c0.4,0,0.5,0.3,0.4,0.6c-0.2,0.4-0.5,0.7-0.9,0.9c-0.2,0.1-0.4,0.1-0.6-0.1
		c-0.2-0.2-0.2-0.5-0.1-0.7C35.4,91.1,35.8,90.8,36.3,90.7z"/>
	<path fill="#8D8D8D" d="M65.7,57c0.3,0,0.4-0.2,0.5-0.4c0.5-0.7,0.9-1.3,1.4-2c0.1,0,0.1-0.1,0.2-0.1c0.1,0,0.3-0.2,0.3-0.1
		c0.1,0.1,0.1,0.3,0,0.3c-0.5,0.5-0.6,1.2-1.1,1.7c-0.1,0.4-0.4,0.8-0.7,1.2c-0.1,0.2-0.4,0.3-0.6,0.1C65.5,57.5,65.5,57.2,65.7,57z
		"/>
	<path fill="#787878" d="M24.1,8.8c-0.2-0.1-0.2-0.2-0.1-0.3c0.1-0.3,0.3-0.5,0.5-0.6c0.6-0.4,1.3-0.8,2-1.2c0.1-0.1,0.3-0.2,0.4,0
		c0.1,0.1,0,0.3-0.1,0.4c-0.2,0.2-0.5,0.4-0.7,0.5c-0.6,0.3-1.2,0.5-1.6,1.1C24.4,8.7,24.2,8.7,24.1,8.8z"/>
	<path fill="#606060" d="M105.7,22.6c0-0.1-0.1-0.2-0.2-0.1c-0.2,0.1-0.5,0.1-0.6-0.1c-0.1-0.2,0.1-0.3,0.3-0.4
		c0.2-0.2,0.1-0.3-0.1-0.4c-0.3-0.1-0.3-0.4-0.2-0.7c0.1-0.3,0.3-0.4,0.6-0.5c0.1,0,0.2,0,0.3,0.1c0,0.4,0.3,0.9,0.2,1.1
		c-0.1,0.4,0.1,0.6,0.2,0.9C105.9,22.7,105.8,22.7,105.7,22.6z"/>
	<path fill="#656565" d="M120.9,59.4c-0.5,0.1-0.6-0.4-1-0.5c-0.3-0.2-0.6-0.6-0.8-0.9c-0.1-0.2-0.2-0.4,0-0.6
		c0.2-0.2,0.4,0,0.5,0.1c0.4,0.3,0.7,0.7,1.1,1C121,58.8,121.1,59.1,120.9,59.4z"/>
	<path fill="#404040" d="M0.8,31.8c-0.4,0.1-0.5-0.3-0.8-0.5c0,0,0-0.1,0-0.2c0.1-0.3,1-0.6,1.5-0.5c0.2,0,0.4,0.2,0.4,0.4
		c-0.1,0.5-0.4,0.7-0.9,0.8C1,31.8,0.9,31.8,0.8,31.8z"/>
	<path fill="#4B4B4B" d="M107.5,86.7c0-0.7,0.7-1.3,1.4-1.2c0.2,0,0.3,0.2,0.2,0.3c-0.3,0.4-0.5,0.9-0.8,1.2
		c-0.1,0.1-0.3,0.2-0.5,0.1C107.6,87.1,107.5,86.9,107.5,86.7z"/>
	<path fill="#8B8B8B" d="M27.9,7.4c0.6-0.8,1.4-1.2,2.2-1.7c0.4-0.2,0.7-0.6,1.3-0.6c-0.2,0.4-0.5,0.7-0.8,0.8
		C29.6,6.3,29,7,28.2,7.6c0,0,0,0.1,0,0.2C27.8,7.9,27.9,7.6,27.9,7.4z"/>
	<path fill="#7C7C7C" d="M67.1,33.3c0.1-0.7,0.3-1.3,0.4-2c0-0.2,0.2-0.5,0.4-0.4c0.3,0.1,0.1,0.3,0.1,0.5c-0.1,0.7-0.1,1.3-0.2,2
		c0,0.3-0.2,0.5-0.5,0.4C67,33.7,67.1,33.4,67.1,33.3z"/>
	<path fill="#898989" d="M30.6,7.2c0.3-0.6,0.9-1,1.4-1.2c0.5-0.3,1.1-0.5,1.6-0.7c0.1,0,0.3-0.2,0.4,0c0.1,0.2-0.1,0.3-0.2,0.3
		c-0.6,0.3-1.2,0.6-1.8,0.9C31.6,6.7,31.1,7,30.6,7.2z"/>
	<path fill="#454545" d="M65.8,30.6c0.1,0.1,0.2,0.3,0.2,0.4c0,0.1,0,0.2,0,0.3c0.1,0.4,0.1,0.7-0.4,0.8c-0.5,0.1-0.8-0.2-0.9-0.6
		C64.7,30.7,64.8,30.6,65.8,30.6z"/>
	<path fill="#858585" d="M118.5,106.3c-0.4,0.1-0.7,0.5-1.1,0.7c-0.4,0-0.6,0.4-0.9,0.5c-0.2,0.1-0.5,0.2-0.6,0
		c-0.2-0.3,0.1-0.4,0.3-0.5c0.6-0.4,1.2-0.8,1.9-1.1C118.4,105.8,118.5,105.9,118.5,106.3z"/>
	<path fill="#565656" d="M111.3,34.8c-0.2,0.3-0.1,0.6-0.1,0.9c-0.1,0.3-0.2,0.6-0.5,0.5c-0.3-0.1-0.5-0.4-0.3-0.7
		c0.1-0.2,0.1-0.4,0-0.6c-0.1-0.2-0.1-0.3,0.1-0.5c0.2-0.1,0.4-0.3,0.7-0.1C111.3,34.4,111.4,34.6,111.3,34.8z"/>
	<path fill="#3D3D3D" d="M12.9,92.6c-0.1,0.2,0,0.5-0.3,0.5c-0.2,0.1-0.4,0-0.6-0.2c-0.1-0.1-0.2-0.3-0.3-0.4
		c-0.2-0.2-0.5-0.5-0.1-0.8c0.4-0.3,0.9-0.2,1.1,0.2C12.8,92.1,12.9,92.4,12.9,92.6z"/>
	<path fill="#6A6A6A" d="M27.9,7.4c0.1,0.1,0.2,0.2,0.3,0.4c0,0,0,0,0.1,0c0.2-0.1,0.5-0.1,0.7,0.1c0.1,0.1,0,0.2,0,0.2
		c-0.2,0.2-0.4,0.3-0.7,0.3c-0.5,0-1,0.2-1.5,0.4c-0.1,0-0.1,0.1-0.2,0.1c-0.2,0-0.4,0.1-0.4-0.1c-0.1-0.2,0.1-0.2,0.3-0.3
		C27,8.3,27.5,7.9,27.9,7.4z"/>
	<path fill="#4B4B4B" d="M111.9,50.2c0-0.6,0-1.2-0.6-1.6c-0.1-0.1-0.1-0.4-0.2-0.6c0-0.2,0.1-0.3,0.2-0.4c0.2-0.1,0.4-0.1,0.5,0.1
		c0.2,0.5,0.7,0.9,0.7,1.5c0,0.2,0.1,0.3,0.1,0.5c0,0.2,0.4,0.3,0.1,0.5c-0.2,0.2-0.4,0.4-0.7,0.2c0.2-0.6,0.2-1.1,0-1.6
		c0.2,0.3,0.2,0.7,0.2,1.1C112.3,50.2,112.1,50.2,111.9,50.2z"/>
	<path fill="#959595" d="M116.9,24.1c0,0.1,0.1,0.1,0.2,0.1c-0.1,0.5-0.5,0.6-0.7,1c-0.3,0.6-0.5,1.2-0.7,1.8
		c-0.1,0.2-0.1,0.3-0.3,0.3c-0.2,0-0.2-0.3-0.1-0.4C115.6,25.9,116.1,24.9,116.9,24.1z"/>
	<path fill="#6C6C6C" d="M128.9,96.7c0.2-0.1,0.4-0.2,0.6-0.1c0.3,0.5-0.1,0.8-0.5,0.9c-0.5,0.2-0.9,0.4-1.3,0.7
		c-0.2,0.1-0.3,0.1-0.3-0.1c0.1-0.5,0.5-0.7,0.9-1C128.5,97,128.8,96.9,128.9,96.7z"/>
	<path fill="#4C4C4C" d="M114,52.2c0,0.3-0.2,0.4-0.5,0.4c-0.4,0-1.1-0.7-1-1c0-0.3,0.2-0.4,0.5-0.4C113.3,51.1,114.1,51.9,114,52.2
		z"/>
	<path fill="#7F7F7F" d="M120.2,30.6c-0.1,0.1-0.1,0.3-0.2,0.4c-0.6,0.7-1,1.5-1.5,2.2c-0.1,0.1-0.1,0.3-0.3,0.2
		c-0.1-0.1-0.1-0.2,0-0.3c0.4-0.9,1-1.7,1.5-2.6c0.1-0.1,0.1-0.2,0.3-0.2C120.2,30.3,120.2,30.5,120.2,30.6z"/>
	<path fill="#5E5E5E" d="M115.6,59.4c0-0.1,0-0.3,0-0.4c0-0.2,0.2-0.4,0.4-0.4c0.3,0,0.3,0.2,0.3,0.4c0,0.3,0,0.6,0.2,0.8
		c0.2,0.2,0,0.4-0.2,0.5c-0.2,0.1-0.5,0.2-0.6-0.1C115.6,59.9,115.6,59.6,115.6,59.4z"/>
	<path fill="#626262" d="M110.6,32.3c-0.2,0.3-0.1,0.7,0.2,1c0.1,0.1,0.1,0.3,0,0.4c-0.1,0.1-0.2,0.1-0.4,0.1
		c-0.3-0.1-0.6-0.4-0.6-0.7c0-0.4,0.2-0.9,0.6-1.1C110.6,31.9,110.7,32.1,110.6,32.3z"/>
	<path fill="#656565" d="M106.3,89.2c-0.2,0.4-0.4,0.8-0.6,1.3c-0.1,0.2-0.3,0.2-0.5,0.1c-0.2-0.1-0.2-0.2-0.1-0.5
		c0.2-0.4,0.3-0.8,0.6-1.2c0.1-0.1,0.2-0.2,0.4-0.1C106.2,88.9,106.2,89,106.3,89.2z"/>
	<path fill="#9D9D9D" d="M120.3,74.8c-0.2-0.2-0.3-0.4-0.3-0.7c0-0.4-0.5-0.5-0.6-0.9c0-0.1-0.2-0.2-0.2-0.3
		c-0.1-0.2-0.1-0.4,0.1-0.5c0.2-0.1,0.3,0.1,0.4,0.2c0.4,0.8,0.9,1.4,1.1,2.3C120.6,75.1,120.4,75,120.3,74.8z"/>
	<path fill="#717171" d="M111.4,12.4c-0.1,0.2-0.2,0.4-0.3,0.5c-0.5,0.4-1,0.8-1.5,1.2c-0.1,0.1-0.3,0.1-0.4,0
		c-0.1-0.1,0-0.3,0.1-0.3c0.5-0.4,1-1,1.6-1.4C111.1,12.2,111.3,12.1,111.4,12.4z"/>
	<path fill="#606060" d="M123,101.5c0,0.1,0,0.1-0.1,0.2c-0.5,0.3-0.8,0.9-1.3,1.1c-0.2,0.1-0.3,0.1-0.3-0.2c0-0.3,1-1.3,1.3-1.3
		C122.8,101.3,123,101.3,123,101.5z"/>
	<path fill="#828282" d="M64.3,63.4c0.4-0.2,0.7-0.6,1.2-0.5c0,0.2-0.1,0.4-0.2,0.5c-0.6,0.4-1.3,0.9-1.9,1.3
		C63.3,64,64,63.8,64.3,63.4z"/>
	<path fill="#494949" d="M67.6,51c-0.1,0.9-0.2,1-1.1,0.9c-0.1-0.4-0.3-0.8,0.1-1.1C67,50.7,67.4,50.6,67.6,51z"/>
	<path fill="#626262" d="M55.3,46.4c0.1-0.4,0-0.8,0.4-0.9c0.2,0,0.4-0.2,0.5,0c0.2,0.2,0.2,0.4,0,0.6c-0.1,0.2-0.2,0.3-0.4,0.5
		c-0.1,0.2-0.2,0.5-0.5,0.4C55.3,46.9,55.3,46.6,55.3,46.4z"/>
	<path fill="#4D4D4D" d="M16.9,30c0.1-0.2-0.1-0.4,0.1-0.6c0.1-0.1,0.3-0.1,0.4-0.1c0.1-0.1,0.1-0.2,0.2-0.2c0,0,0,0,0,0
		c-0.2,0-0.3,0.1-0.3-0.2c0-0.3-0.3-0.8,0.3-0.9c0.5-0.1,0.8,0,0.6,0.5c-0.1,0.5-0.3,1.1-0.6,1.6c-0.1,0.3-0.4,0.3-0.7,0.1
		C16.8,30.1,16.8,30,16.9,30z"/>
	<path fill="#3D3D3D" d="M32.7,93.3c-0.1-0.4,0.2-0.5,0.5-0.6c0.3-0.1,0.7-0.2,1,0c0.1,0,0.1,0.1,0.1,0.2c-0.2,0.4-0.9,0.8-1.4,0.7
		C32.7,93.6,32.6,93.5,32.7,93.3z"/>
	<path fill="#3D3D3D" d="M52.2,13.8c0.5-0.2,1,0.1,1,0.6c0.2,0.2,0.5,0.4,0.1,0.7c-0.3,0.2-0.6,0.3-0.8-0.1
		c-0.1-0.1-0.2-0.3-0.3-0.3c-0.1-0.1-0.2-0.2-0.2-0.3c-0.2-0.1-0.3-0.2-0.2-0.4C51.9,13.7,52,13.6,52.2,13.8z"/>
	<path fill="#6B6B6B" d="M38.9,89.4c0.1,0,0.3,0,0.4,0.1c0,0.1-0.1,0.2-0.2,0.2c-0.4,0.1-0.7,0.4-1,0.6c-0.2,0.2-0.4,0.2-0.6,0.1
		c-0.1,0-0.3-0.1-0.3-0.2c0-0.2,0.1-0.2,0.3-0.3C37.9,89.8,38.3,89.5,38.9,89.4z"/>
	<path fill="#515151" d="M111.3,44.9c-0.2,0.3-0.5,0.3-0.7,0.1c-0.3-0.2,0-0.4,0.1-0.5c0.2-0.2,0.1-0.5-0.1-0.7
		c-0.2-0.3-0.2-0.7,0-1c0.1-0.2,0.2-0.3,0.4-0.2c0.2,0,0.2,0.2,0.2,0.4c0,0.4,0,0.7,0.1,1.1c-0.2,0.3-0.2,0-0.3-0.1
		C111.2,44.2,111.5,44.5,111.3,44.9z"/>
	<path fill="#484848" d="M9.1,21.9c0.1,0,0.2,0,0.2,0c-0.7,0.9-1,2-1.6,3c-0.1,0.2-0.1,0.6-0.5,0.6c0-0.4,0.2-0.7,0.4-1
		c0.3-0.6,0.7-1.1,0.9-1.8C8.6,22.3,8.7,22,9.1,21.9z"/>
	<path fill="#565656" d="M64,28c0.2,0,0.5-0.1,0.5,0.3c0,0.4-0.4,0.8-0.8,0.8c-0.2,0-0.5-0.1-0.4-0.4C63.4,28.4,63.3,27.9,64,28z"/>
	<path fill="#5B5B5B" d="M53,56.6c0.1,0,0.2,0,0.4,0c0,0.6-0.5,1-0.8,1.4c-0.1,0.1-0.3,0.1-0.4,0C52,58,51.9,57.9,52,57.7
		C52.4,57.4,52.5,56.8,53,56.6z"/>
	<path fill="#626262" d="M39.9,20.9c-0.1,0-0.4,0-0.6-0.1c-0.2,0-0.4-0.2-0.3-0.4c0-0.2,0.2-0.3,0.5-0.3c0.3,0,0.7,0.1,1,0.2
		c0.2,0,0.4,0.1,0.4,0.3c0,0.2-0.2,0.2-0.4,0.3C40.3,20.9,40.2,20.9,39.9,20.9z"/>
	<path fill="#4F4F4F" d="M55.2,40.7c-0.3,0-0.8-0.6-0.8-0.8c0.1-0.3,0.4-0.4,0.7-0.4c0.5,0,0.5,0.4,0.6,0.7
		C55.7,40.6,55.4,40.6,55.2,40.7z"/>
	<path fill="#444444" d="M43,86.5c0.2,0.1,0.6,0.1,0.5,0.3c-0.2,0.3-0.3,0.8-0.8,0.8c-0.3,0-0.5-0.2-0.5-0.5
		C42.2,86.5,42.8,86.7,43,86.5z"/>
	<path fill="#464646" d="M102.1,102.8c0,0.4,0,0.8-0.5,0.9c-0.5,0-0.3-0.3-0.4-0.5c-0.1-0.5,0.3-0.9,0.7-0.9
		C102.2,102.1,102,102.6,102.1,102.8z"/>
	<path fill="#6B6B6B" d="M111.9,50.2c0.5-0.4,0.2-0.8,0-1.3c0-0.1-0.1-0.2-0.2-0.2c-0.2-0.2-0.4-0.5-0.2-0.6
		c0.3-0.2,0.3,0.3,0.5,0.4c0.5,0.4,0.3,1,0.6,1.5c0.1,0.3-0.3,0.3-0.4,0.5C112,50.3,112,50.3,111.9,50.2z"/>
	<path fill="#888888" d="M34.9,67.2c0,0.1,0,0.2,0,0.2c-0.1,0.1-0.3,0-0.4,0.1c-0.6,0.1-1.2-0.1-1.8-0.2c0.1,0,0.3,0,0.3-0.1
		c0.2-0.1,0.3-0.5,0.6-0.4C34,66.9,34.5,66.9,34.9,67.2z"/>
	<path fill="#464646" d="M13.7,94.5c-0.3,0-0.6-0.2-0.6-0.6c0-0.2,0.1-0.4,0.4-0.4c0.4,0,1,0.4,1,0.7C14.5,94.4,14.4,94.4,13.7,94.5
		z"/>
	<path fill="#898989" d="M63.1,67c-0.2-0.1-0.4-0.1-0.6-0.1c0.4-0.5,1.1-0.8,1.6-1.2c0.1-0.1,0.2-0.2,0.4,0c0.1,0.1,0.1,0.3-0.1,0.4
		C63.9,66.3,63.6,66.8,63.1,67z"/>
	<path fill="#6F6F6F" d="M122.6,61.2c0.2,0.3,0.4,0.7,0.5,1c0.1,0.3,0.1,0.6-0.3,0.7c-0.2-0.1-0.4-0.3-0.4-0.6
		c0-0.3-0.1-0.6-0.3-0.8C122.1,61.3,122.2,61.1,122.6,61.2z"/>
	<path fill="#616161" d="M111.4,37.9c-0.2,0-0.4,0-0.5-0.2c-0.2-0.2,0.1-0.3,0.2-0.4c0,0,0,0,0,0c0.1-0.3,0.2-0.9,0.7-0.6
		c0.4,0.2-0.1,0.6,0,1C111.8,37.9,111.5,37.9,111.4,37.9z"/>
	<path fill="#4D4D4D" d="M62.2,24.8c-0.1,0.3-0.5,0.4-0.8,0.5c-0.3,0.1-0.6-0.1-0.6-0.4c0-0.4,0.3-0.4,0.6-0.5
		C61.7,24.3,62,24.4,62.2,24.8z"/>
	<path fill="#565656" d="M115.3,73.4c-0.1,0.4-0.3,0.7-0.5,1c-0.2,0.2-0.4,0.2-0.6,0c-0.2-0.1,0-0.3,0-0.5c0.1-0.4,0.6-0.5,0.9-0.8
		C115.1,73,115.3,73.2,115.3,73.4z"/>
	<path fill="#656565" d="M113.6,10.8c0.4-0.1,0.7-0.3,0.9-0.5c0.2-0.2,0.5-0.2,0.8-0.1c-0.4,0.6-1,0.8-1.5,1.2
		c-0.3,0.2-0.3-0.1-0.3-0.4C113.5,10.9,113.5,10.9,113.6,10.8z"/>
	<path fill="#555555" d="M112.8,79.6c-0.2,0.4-0.3,0.8-0.7,1c-0.2,0.1-0.3,0-0.4-0.1c-0.1-0.1-0.1-0.3-0.1-0.4
		c0.2-0.4,0.6-0.5,1-0.7C112.8,79.3,112.8,79.5,112.8,79.6z"/>
	<path fill="#4A4A4A" d="M58.5,71c0.3,0,0.4,0.2,0.4,0.4c0,0.3-0.2,0.6-0.5,0.6c-0.3,0-0.6-0.2-0.6-0.5C57.7,71,58.1,71.1,58.5,71z"
		/>
	<path fill="#4D4D4D" d="M32.7,93.3c0,0.1,0.1,0.2,0.1,0.3c-0.1,0.3-0.1,0.6-0.4,0.7c-0.3,0.1-0.6,0.1-0.7-0.2
		c-0.1-0.3,0-0.5,0.3-0.6C32.2,93.5,32.5,93.5,32.7,93.3z"/>
	<path fill="#929292" d="M36.1,6.1c0.7-0.4,1.5-0.5,2.2-0.9c0.1,0,0.2-0.1,0.2,0c0,0.1,0,0.2,0,0.2c0,0.1-0.1,0.1-0.2,0.2
		c-0.7,0.3-1.4,0.6-2.2,0.7C36,6.3,36,6.2,36.1,6.1z"/>
	<path fill="#414141" d="M59.7,68.9c0.2,0.2,0,0.5,0.1,0.7c-0.1,0.1-0.2,0.3-0.3,0.4c-0.1,0.1-0.3,0.2-0.5,0.1
		c-0.2-0.1-0.4-0.2-0.4-0.5c0-0.2,0.2-0.3,0.4-0.3C59.3,69.2,59.5,69.1,59.7,68.9z"/>
	<path fill="#4C4C4C" d="M63,64.8c-0.1,0.4-0.3,0.6-0.7,0.7c-0.3,0-0.5-0.2-0.5-0.4c0-0.4,0.4-0.5,0.7-0.6
		C62.8,64.3,62.9,64.5,63,64.8z"/>
	<path fill="#5B5B5B" d="M45.8,10.3c-0.1,0-0.3,0.1-0.4,0.1c-0.1-0.3-0.7-0.4-0.5-0.6C45,9.5,45.5,9.4,46,9.5c0.1,0.2,0.3,0.5,0,0.7
		C46,10.3,45.9,10.3,45.8,10.3z"/>
	<path fill="#585858" d="M101.8,104.9c0,0.5-0.2,0.6-0.5,0.6c-0.4,0-0.3-0.3-0.3-0.5c0-0.4,0.2-0.8,0.6-0.8
		C101.9,104.3,101.6,104.8,101.8,104.9z"/>
	<path fill="#656565" d="M32.7,7.6c0.2,0,0.4,0,0.4,0.2c0.1,0.2-0.1,0.3-0.2,0.3c-0.4,0.1-0.7,0.4-1.1,0.3c-0.2-0.1-0.3-0.2-0.3-0.3
		c0-0.2,0.2-0.2,0.3-0.2C32.1,7.7,32.5,7.7,32.7,7.6z"/>
	<path fill="#4E4E4E" d="M63,26.9c-0.3-0.2-0.8-0.2-0.8-0.6c0-0.4,0.5-0.2,0.8-0.2c0.3,0,0.6,0.2,0.6,0.5
		C63.5,26.9,63.2,26.8,63,26.9z"/>
	<path fill="#A5A5A5" d="M119.9,79.6C119.9,79.6,119.9,79.6,119.9,79.6c0,0.1,0.1,0.1,0.1,0.1c0.1-0.2,0.1-0.5,0.2-0.7
		c0.2,0.7,0.4,1.3,0.2,2c-0.1,0.1-0.2,0.3-0.4,0.1C120,80.6,119.8,80.1,119.9,79.6z"/>
	<path fill="#545454" d="M20.6,96.7c-0.2-0.1-0.4,0-0.6-0.1c-0.1-0.1-0.4-0.2-0.3-0.4c0.1-0.2,0.3-0.3,0.6-0.2
		c0.2,0,0.4,0.1,0.5,0.2c0.2,0.1,0.4,0.1,0.3,0.4C21.1,96.7,20.8,96.7,20.6,96.7z"/>
	<path fill="#4C4C4C" d="M48,83.3c-0.2,0.3-0.5,0.6-0.9,0.6c-0.2,0-0.5-0.1-0.5-0.4c0-0.2,0.7-0.5,1.1-0.5C47.9,83,48,83.1,48,83.3z
		"/>
	<path fill="#4F4F4F" d="M52,59.4c-0.3,0.5-0.6,0.8-1.2,0.6c-0.2-0.2-0.1-0.3,0.1-0.4c0.2-0.1,0.4-0.3,0.6-0.4
		c0.1-0.1,0.2-0.4,0.5-0.3C52.1,59,52,59.2,52,59.4z"/>
	<path fill="#565656" d="M102.6,100.3c0.1,0.5,0.2,0.9,0,1.3c-0.1,0.3-0.3,0.4-0.6,0.3c-0.3-0.1-0.2-0.4-0.1-0.6
		C102.1,101,102.3,100.7,102.6,100.3z"/>
	<path fill="#464646" d="M68.4,40.9c-0.1,0.2-0.1,0.6-0.5,0.5c-0.3,0-0.6-0.2-0.6-0.6c0-0.4,0.3-0.4,0.6-0.5
		C68.1,40.4,68.4,40.5,68.4,40.9z"/>
	<path fill="#515151" d="M67.4,37.7c-0.3-0.1-0.7-0.1-0.8-0.5c0-0.3,0.3-0.4,0.6-0.4c0.4,0,0.6,0.2,0.7,0.5
		C68,37.7,67.7,37.7,67.4,37.7z"/>
	<path fill="#6E6E6E" d="M109.6,14.5c-0.4,0.2-0.7,0.4-0.7,0.8c0,0.3-0.2,0.4-0.4,0.5c-0.1,0.1-0.3,0.1-0.4,0
		c-0.1-0.1,0-0.3,0.1-0.3c0.2-0.2,0.3-0.5,0.5-0.8C108.8,14.5,109.1,14.4,109.6,14.5z"/>
	<path fill="#4B4B4B" d="M116.7,62c0,0.3,0,0.6-0.4,0.6c-0.4,0-0.6-0.2-0.6-0.6c0-0.4,0.3-0.4,0.5-0.4
		C116.6,61.5,116.7,61.7,116.7,62z"/>
	<path fill="#737373" d="M65.9,34c0.5,0,0.6,0.3,0.7,0.6c0.1,0.2-0.1,0.4-0.4,0.3c-0.4,0-0.7-0.2-0.7-0.6C65.5,34,65.8,34.1,65.9,34
		z"/>
	<path fill="#4C4C4C" d="M55.6,48.4c0,0.4-0.1,0.6-0.5,0.6c-0.3,0-0.6-0.2-0.6-0.5c0-0.4,0.4-0.5,0.7-0.5
		C55.6,47.9,55.6,48.2,55.6,48.4z"/>
	<path fill="#505050" d="M52.2,79.8c0,0.3-0.2,0.5-0.5,0.5c-0.3,0-0.7-0.2-0.7-0.5c0-0.5,0.5-0.4,0.8-0.4
		C52.2,79.3,52.2,79.6,52.2,79.8z"/>
	<path fill="#515151" d="M40.8,89c-0.2-0.1-0.6,0-0.6-0.3c0-0.4,0.4-0.5,0.8-0.5c0.2,0,0.5,0,0.5,0.3C41.4,88.9,41.1,89,40.8,89z"/>
	<path fill="#4F4F4F" d="M15.4,95.2c0,0.3,0,0.6-0.4,0.6c-0.3,0-0.5-0.2-0.5-0.5c0-0.3,0.2-0.5,0.5-0.5
		C15.4,94.7,15.4,94.9,15.4,95.2z"/>
	<path fill="#575757" d="M51.9,35.4c-0.2-0.1-0.6,0-0.6-0.4c0-0.3,0.4-0.4,0.7-0.4c0.3,0,0.5,0.3,0.5,0.5
		C52.5,35.4,52.1,35.4,51.9,35.4z"/>
	<path fill="#575757" d="M105.7,22.6c0.1,0,0.2,0,0.3,0c0.1,0,0.1,0.1,0.2,0.1c0.1,0.2,0.7,0.2,0.3,0.6c-0.3,0.3-0.7,0.2-1,0
		C105.2,23,105.4,22.7,105.7,22.6z"/>
	<path fill="#4E4E4E" d="M44.2,85.8c-0.2-0.1-0.6,0-0.6-0.3c0-0.3,0.4-0.4,0.7-0.5c0.2,0,0.5,0.1,0.5,0.4
		C44.9,85.7,44.6,85.8,44.2,85.8z"/>
	<path fill="#474747" d="M68.1,43.1c0.2,0.2,0.4,0.4,0.3,0.7c-0.2,0.4-0.5,0-0.7,0.1c-0.1-0.2-0.4-0.4-0.3-0.6
		C67.5,43.1,67.8,43.1,68.1,43.1z"/>
	<path fill="#666666" d="M38,19.6c-0.3,0-0.5-0.1-0.7-0.1c-0.1,0-0.3,0-0.3-0.1c0-0.1,0-0.3,0.2-0.4c0.4-0.2,0.7-0.1,1.1,0
		c0.1,0.1,0.2,0.2,0.1,0.3C38.4,19.5,38.2,19.5,38,19.6z"/>
	<path fill="#8A8A8A" d="M114.8,108.2c-0.1,0.5-0.4,0.8-0.6,1.1c-0.2,0.2-0.5,0.1-0.6-0.1c-0.2-0.3,0.1-0.3,0.3-0.4
		C114.2,108.6,114.5,108.4,114.8,108.2z"/>
	<path fill="#6D6D6D" d="M111.3,44.9c-0.1-0.2,0.1-0.8-0.4,0c0-0.6,0-1.1-0.2-1.6c-0.1-0.1,0-0.4,0.1-0.4c0.2,0,0.2,0.2,0.2,0.3
		c0.1,0.2-0.1,0.5,0.2,0.7C111.5,44.3,111.4,44.6,111.3,44.9z"/>
	<path fill="#656565" d="M43.2,8.4c0.4,0,0.7,0,0.6,0.4c0,0.3-0.3,0.4-0.5,0.4c-0.4,0-0.6-0.3-0.6-0.6C42.7,8.3,43.1,8.5,43.2,8.4z"
		/>
	<path fill="#7A7A7A" d="M121.7,79.3c-0.1,0.2,0.1,0.4-0.2,0.5c-0.2,0-0.2-0.2-0.3-0.4c-0.1-0.4-0.1-0.8-0.1-1.2
		c0-0.1,0-0.3,0.2-0.3c0.2,0,0.1,0.2,0.2,0.3C121.6,78.5,121.7,78.9,121.7,79.3z"/>
	<path fill="#9C9C9C" d="M113.4,16.3c0.2,0.1,0.4,0.1,0.6,0c-0.4,0.4-0.7,0.9-0.9,1.5c0,0.1-0.1,0.3-0.3,0.2c-0.1-0.1-0.1-0.2,0-0.3
		C113,17.2,113.2,16.7,113.4,16.3z"/>
	<path fill="#757575" d="M118.7,105.2c0.5-0.3,0.6-0.8,1.1-1c0.1-0.1,0.3-0.1,0.4,0c0.1,0.2,0,0.3-0.1,0.4
		C119.7,104.9,119.4,105.4,118.7,105.2z"/>
	<path fill="#545454" d="M22.2,96.4c0.1,0,0.3,0,0.4,0.2c0.1,0.2-0.1,0.2-0.2,0.3c-0.2,0.1-0.3,0.3-0.5,0.4
		c-0.2,0.1-0.4,0.1-0.5-0.1c-0.1-0.2,0-0.4,0.3-0.5C21.8,96.4,22,96.4,22.2,96.4z"/>
	<path fill="#7C7C7C" d="M111.9,11.4c0.1,0,0.3,0,0.4-0.1c0.2-0.1,0.4-0.2,0.5,0c0.1,0.2-0.2,0.3-0.3,0.4c-0.1,0.1-0.1,0.1-0.2,0.1
		c-0.2,0.2-0.6,0.4-0.8,0.1C111.3,11.7,111.7,11.6,111.9,11.4z"/>
	<path fill="#D3D3D3" d="M121,70.7c0.2,0.6,0.3,1.3,0.6,1.9c-0.1,0.1-0.2,0.2-0.3,0.1c-0.3-0.6-0.6-1.2-0.7-1.8
		C120.7,70.8,120.9,70.8,121,70.7z"/>
	<path fill="#5E5E5E" d="M34.8,18.9c-0.2-0.2-0.7,0.1-0.6-0.3c0.1-0.5,0.6-0.3,0.9-0.4c0.2,0,0.5,0,0.4,0.3
		C35.4,18.8,35.1,18.8,34.8,18.9z"/>
	<path fill="#4F4F4F" d="M116,69.3c0,0.4-0.3,0.4-0.6,0.4c-0.2,0-0.4-0.1-0.4-0.3c0-0.2,0.6-0.7,0.7-0.7
		C116,68.8,115.9,69.1,116,69.3z"/>
	<path fill="#585858" d="M53.4,77.5c0.2,0,0.4,0.1,0.4,0.3c0,0.4-0.3,0.5-0.6,0.5c-0.3,0-0.4-0.2-0.5-0.4
		C52.6,77.6,53,77.5,53.4,77.5z"/>
	<path fill="#6B6B6B" d="M17.2,28.9c0.3,0,0.2-0.3,0.3-0.4c0-0.1,0.1-0.3,0.3-0.2c0.2,0,0.2,0.2,0.2,0.3c0,0.4-0.2,0.7-0.4,1
		c-0.2,0.3-0.3-0.1-0.5-0.1C17,29.2,17.1,29.1,17.2,28.9z"/>
	<path fill="#4F4F4F" d="M50.7,33.7c0.4,0,0.6,0.1,0.6,0.4c0,0.3-0.2,0.4-0.4,0.4c-0.3,0-0.6-0.2-0.7-0.5
		C50.2,33.7,50.5,33.8,50.7,33.7z"/>
	<path fill="#4F4F4F" d="M55.3,75c0.3,0,0.5,0.1,0.4,0.3c-0.1,0.3-0.2,0.6-0.6,0.6c-0.2,0-0.5-0.2-0.4-0.4
		C54.7,75.1,55.1,75.1,55.3,75z"/>
	<path fill="#737373" d="M127.6,13.2c0.1,0,0.2,0.1,0.3,0.1c0.1,0.1,0.3,0.2,0.2,0.4c-0.1,0.2-0.3,0.1-0.4,0.1c-0.2,0-0.5,0-0.7-0.1
		c-0.1-0.1-0.4-0.1-0.4-0.3c0.3-0.1,0.5-0.1,0.8-0.2C127.5,13.2,127.5,13.2,127.6,13.2z"/>
	<path fill="#6B6B6B" d="M24.6,9.2c0.3-0.1,0.6-0.2,0.9-0.3c0.2,0,0.4-0.1,0.4,0.2c0,0.2-0.1,0.3-0.3,0.4c-0.3,0.1-0.7,0.3-1,0
		C24.5,9.4,24.4,9.3,24.6,9.2z"/>
	<path fill="#626262" d="M105,92.2c-0.2,0.3-0.2,0.6-0.5,0.9c-0.1,0.1-0.2,0.2-0.4,0c-0.1-0.1-0.1-0.2-0.1-0.3
		c0.1-0.5,0.5-0.6,0.9-0.8C104.9,91.9,105,92.1,105,92.2z"/>
	<path fill="#565656" d="M50,81.9c-0.3,0-0.6,0-0.6-0.3c0-0.4,0.4-0.3,0.6-0.4c0.3,0,0.5,0.1,0.5,0.4C50.5,81.8,50.3,81.8,50,81.9z"
		/>
	<path fill="#CDCDCD" d="M122,69.6c0.4-0.1,0.2-0.5,0.2-0.7c0.2,0.5,0.4,1,0.6,1.4c0.1,0.2,0.1,0.3-0.1,0.4
		c-0.2,0.1-0.3-0.1-0.4-0.2C122.2,70.2,122.1,69.9,122,69.6z"/>
	<path fill="#A5A5A5" d="M36.1,6.1c0,0.1,0,0.2,0,0.2C35.4,6.8,34.7,7,34,7.2c0.3-0.3,0.6-0.6,1.1-0.7C35.4,6.4,35.8,6.3,36.1,6.1z"
		/>
	<path fill="#6A6A6A" d="M41.1,7.6c0.3,0,0.8-0.1,0.8,0.3c0,0.3-0.5,0.3-0.8,0.2c-0.1,0-0.2,0-0.2-0.1c-0.2,0-0.4,0-0.4-0.3
		c0-0.2,0.2-0.2,0.4-0.2C41,7.6,41.1,7.6,41.1,7.6z"/>
	<path fill="#5E5E5E" d="M107.4,24.6c-0.3-0.1-0.6,0-0.6-0.4c0-0.2,0.2-0.4,0.4-0.4c0.3,0,0.6,0.3,0.7,0.6
		C107.9,24.6,107.5,24.6,107.4,24.6z"/>
	<path fill="#4F4F4F" d="M10.4,88.3c-0.2,0-0.3-0.2-0.3-0.4c0.1-0.3,0.3-0.5,0.6-0.5c0.2,0,0.4,0.1,0.3,0.3
		C11,88,10.7,88.2,10.4,88.3z"/>
	<path fill="#838383" d="M121.1,26.7c0.2-0.7,0.8-0.8,1.1-1.1c0.1-0.1,0.2,0,0.2,0.1c0.1,0.1,0,0.2-0.1,0.3
		C122.1,26.4,121.7,26.5,121.1,26.7z"/>
	<path fill="#4F4F4F" d="M67.6,38.6c0.5,0,0.5,0.3,0.5,0.7c-0.1,0-0.2,0-0.3,0.1c-0.3,0-0.5,0-0.6-0.2
		C67.1,38.9,67.3,38.7,67.6,38.6z"/>
	<path fill="#6E6E6E" d="M34.8,8.2c-0.2,0-0.4,0-0.5-0.2c-0.1-0.3,0.2-0.2,0.4-0.3c0,0,0,0,0.1,0c0.3-0.1,0.5-0.2,0.8,0
		c0.1,0,0.1,0.1,0.1,0.2C35.4,8.1,35.1,8.1,34.8,8.2z"/>
	<path fill="#717171" d="M120.7,24c-0.2,0-0.3-0.1-0.2-0.2c0.3-0.3,0.7-0.5,1.1-0.8c0.1-0.1,0.2,0,0.3,0c0.1,0.1,0.1,0.2,0,0.3
		C121.6,23.7,121,23.7,120.7,24z"/>
	<path fill="#626262" d="M128.3,14.7c0.3,0,0.6-0.1,0.9,0c-0.1,0.4-1,0.7-1.3,0.6c-0.1-0.1-0.1-0.2,0-0.2
		C128.1,14.9,128.2,14.8,128.3,14.7z"/>
	<path fill="#7A7A7A" d="M125.7,13.2c-0.3,0-0.6,0.3-1,0c0.4-0.4,0.9-0.6,1.5-0.5c0.4,0,0.1,0.2,0,0.4
		C126,13.1,125.9,13.2,125.7,13.2z"/>
	<path fill="#6E6E6E" d="M25.2,96.4c-0.3,0.1-0.6,0.2-0.8,0.3c-0.2,0.1-0.4,0.1-0.4-0.1c-0.1-0.2,0-0.4,0.2-0.5
		C24.6,96.1,24.9,96.2,25.2,96.4z"/>
	<path fill="#575757" d="M115.5,71.3c-0.3,0.1-0.4-0.1-0.4-0.3c0-0.3,0.2-0.5,0.5-0.6c0.3,0,0.3,0.2,0.3,0.4
		C115.9,71.3,115.6,71.3,115.5,71.3z"/>
	<path fill="#A8A8A8" d="M121,70.7c0,0.4-0.2,0.4-0.5,0.2c-0.1-0.3-0.2-0.5-0.4-0.8c0-0.1-0.1-0.2,0-0.3c0.1-0.1,0.2,0,0.3,0.1
		C120.7,70.2,120.8,70.4,121,70.7z"/>
	<path fill="#6E6E6E" d="M113,109.5c0.2,0.1,0.3,0.2,0.2,0.4c-0.2,0.3-0.6,0.4-0.9,0.5c-0.1,0-0.2-0.1-0.1-0.2
		C112.3,109.9,112.6,109.6,113,109.5z"/>
	<path fill="#606060" d="M130.4,17c-0.2-0.1-0.6,0-0.6-0.2c0-0.3,0.4-0.3,0.7-0.4c0.2,0,0.4,0,0.4,0.3C130.8,16.9,130.6,17,130.4,17
		z"/>
	<path fill="#555555" d="M109.5,30c-0.3,0-0.5,0-0.5-0.3c0-0.3,0.2-0.4,0.5-0.4c0.3,0,0.4,0.2,0.4,0.4C110,30,109.6,30,109.5,30z"/>
	<path fill="#616161" d="M25.1,21c-0.2-0.1-0.4,0-0.4-0.2c0.1-0.3,0.5-0.4,0.8-0.5c0.1,0,0.3,0.1,0.3,0.2
		C25.6,20.9,25.3,20.9,25.1,21z"/>
	<path fill="#515151" d="M61.5,66.5c0.2,0,0.3,0.1,0.3,0.3c0,0.3-0.2,0.5-0.4,0.4c-0.2-0.1-0.6,0-0.6-0.3
		C60.8,66.5,61.2,66.6,61.5,66.5z"/>
	<path fill="#7B7B7B" d="M110.8,111.4c-0.2,0-0.4-0.1-0.3-0.3c0.1-0.3,0.4-0.5,0.8-0.5c0.1,0,0.2,0.1,0.2,0.2
		C111.2,111.1,111.1,111.4,110.8,111.4z"/>
	<path fill="#585858" d="M30.9,94.4c0.2,0.1,0.5,0,0.4,0.3c0,0.3-0.3,0.4-0.5,0.4c-0.2,0-0.4-0.1-0.4-0.3
		C30.5,94.5,30.7,94.4,30.9,94.4z"/>
	<path fill="#595959" d="M53.8,36.4c0,0.3-0.2,0.3-0.5,0.3c-0.2,0-0.5,0-0.5-0.3c0-0.3,0.2-0.4,0.5-0.4
		C53.6,36.1,53.8,36.2,53.8,36.4z"/>
	<path fill="#626262" d="M33.3,17.9c0.2,0,0.4,0,0.4,0.2c-0.1,0.3-0.4,0.4-0.7,0.4c-0.2,0-0.4,0.1-0.4-0.2
		C32.6,17.9,33,18,33.3,17.9z"/>
	<path fill="#7D7D7D" d="M123.6,75.5c0-0.4-0.1-0.7-0.1-1c0-0.1,0-0.3,0.2-0.3c0.2,0,0.2,0.1,0.2,0.3
		C123.9,74.9,124,75.2,123.6,75.5z"/>
	<path fill="#5E5E5E" d="M67.5,45.9c0.2,0,0.4,0,0.4,0.3c0,0.3-0.2,0.4-0.4,0.4c-0.2,0-0.4-0.1-0.4-0.3C67,46,67.3,45.9,67.5,45.9z"
		/>
	<path fill="#7A7A7A" d="M120.3,74.8c0.2,0,0.3,0.1,0.5,0.1c0.1,0.3,0.5,0.8,0.1,0.9c-0.4,0.1-0.4-0.5-0.6-0.8
		C120.3,75,120.3,74.9,120.3,74.8z"/>
	<path fill="#636363" d="M114.4,54c-0.2,0-0.4,0-0.4-0.3c0-0.3,0.2-0.4,0.5-0.4c0.3,0,0.3,0.2,0.4,0.4C114.8,54,114.6,54,114.4,54z"
		/>
	<path fill="#6D6D6D" d="M114,77.1c0,0.3-0.2,0.5-0.5,0.5c-0.1,0-0.3-0.1-0.3-0.2c0.2-0.3,0.4-0.5,0.6-0.7C114,76.7,114,77,114,77.1
		z"/>
	<path fill="#ADADAD" d="M31.7,18.3c-0.4,0.2-0.8,0.4-1.2,0.4C30.7,18.2,31.1,18.1,31.7,18.3z"/>
	<path fill="#6A6A6A" d="M55.1,38.2c-0.1,0.2-0.2,0.4-0.5,0.4c-0.2,0-0.4,0-0.4-0.3c0-0.3,0.3-0.3,0.5-0.4
		C54.9,37.9,55,38.1,55.1,38.2z"/>
	<path fill="#696969" d="M57.5,73.2c-0.1,0.2-0.2,0.4-0.4,0.4c-0.2,0-0.5-0.1-0.5-0.3c0-0.3,0.3-0.2,0.5-0.3
		C57.2,73,57.4,73,57.5,73.2z"/>
	<path fill="#888888" d="M112.9,14.1c0.2-0.2,0.3-0.4,0.5-0.6c0.2,0.2,0.3,0.5,0,0.8c-0.1,0.1-0.2,0.3-0.4,0.3
		C112.8,14.5,112.9,14.2,112.9,14.1z"/>
	<path fill="#6B6B6B" d="M27.6,96c-0.1,0.2-0.4,0.4-0.6,0.4c-0.1,0-0.3-0.1-0.2-0.3c0.1-0.2,0.3-0.3,0.6-0.3
		C27.5,95.7,27.6,95.8,27.6,96z"/>
	<path fill="#5F5F5F" d="M112,40.9c-0.1,0.2-0.2,0.4-0.5,0.5c-0.2,0-0.3-0.1-0.3-0.3c0-0.3,0.2-0.4,0.5-0.5
		C111.8,40.6,111.9,40.7,112,40.9z"/>
	<path fill="#636363" d="M23.8,96.9c0,0.2-0.2,0.3-0.4,0.3c-0.2,0-0.4,0-0.4-0.3c0-0.2,0.2-0.3,0.4-0.2
		C23.6,96.6,23.7,96.7,23.8,96.9z"/>
	<path fill="#949494" d="M121.7,29.3c0.2-0.2,0.5-0.4,0.7-0.6c0.1-0.1,0.2-0.1,0.3,0c0.1,0.1,0,0.2-0.1,0.3
		C122.4,29.1,122.1,29.3,121.7,29.3z"/>
	<path fill="#5D5D5D" d="M18.4,95.7c0.2,0,0.3,0.1,0.3,0.3c0,0.2-0.2,0.3-0.4,0.3c-0.2,0-0.3-0.1-0.3-0.3
		C18,95.8,18.2,95.7,18.4,95.7z"/>
	<path fill="#7B7B7B" d="M113,78.5c-0.2,0-0.3-0.1-0.3-0.3c0-0.2,0.3-0.3,0.5-0.3c0.1,0,0.3,0,0.2,0.2
		C113.3,78.3,113.2,78.5,113,78.5z"/>
	<path fill="#545454" d="M120,81.1c0.1,0,0.3-0.1,0.4-0.1c0,0.1,0,0.1,0,0.2c0,0.2,0.1,0.5-0.2,0.7c0,0-0.2,0-0.2-0.1
		C119.9,81.6,119.9,81.3,120,81.1z"/>
	<path fill="#6F6F6F" d="M34.5,67.6c-0.2-0.3-0.2-0.3,0.1-0.2c0.1,0,0.1,0.1,0.2,0.1c0.3,0,0.7-0.1,1,0.1
		C35.4,67.7,35,67.7,34.5,67.6z"/>
	<path fill="#606060" d="M106.9,87.9c-0.2,0-0.4-0.1-0.3-0.3c0-0.2,0.2-0.3,0.4-0.3c0.2,0,0.2,0.1,0.3,0.3
		C107.3,87.8,107.1,87.8,106.9,87.9z"/>
	<path fill="#888888" d="M60.2,21.3c-0.2,0.3,0,0.6,0.2,0.8c-0.3,0.1-0.4-0.1-0.5-0.2c-0.2-0.3,0.1-0.5,0.2-0.7
		C60.1,21.2,60.2,21.2,60.2,21.3z"/>
	<path fill="#656565" d="M16.9,30c0,0,0,0.1,0,0.1c-0.1,0-0.2,0-0.3,0.1c-0.1,0.1-0.2,0.4-0.4,0.3c-0.1,0-0.1-0.2-0.1-0.3
		c0.1-0.2,0.2-0.4,0.5-0.3C16.7,29.9,16.8,30,16.9,30z"/>
	<path fill="#C9C9C9" d="M111,82.6c-0.1,0-0.2-0.1-0.2-0.2c0-0.2,0.2-0.4,0.4-0.4c0.1,0,0.1,0.1,0.1,0.2
		C111.3,82.4,111.2,82.6,111,82.6z"/>
	<path fill="#888888" d="M38.6,7.3c0.1,0,0.2,0.1,0.2,0.2c-0.1,0.2-0.2,0.3-0.4,0.3c-0.1,0-0.2-0.1-0.2-0.2
		C38.2,7.4,38.4,7.3,38.6,7.3z"/>
	<path fill="#B8B8B8" d="M24.6,9.2c0,0.1,0,0.2,0,0.3c-0.2,0-0.6,0.3-0.6-0.1C23.9,9.1,24.3,9.2,24.6,9.2z"/>
	<path fill="#585858" d="M43.8,25c0.4,0,0.6,0.2,0.7,0.6C44.2,25.5,43.9,25.4,43.8,25z"/>
	<path fill="#BCBCBC" d="M115.6,57.2c-0.2-0.4-0.1-0.7,0-1C115.8,56.4,115.8,56.7,115.6,57.2z"/>
	<path fill="#828282" d="M110.5,31.6c-0.2-0.1-0.1-0.3-0.2-0.5c0-0.1,0.1-0.2,0.2-0.2c0.2,0.1,0.2,0.3,0.2,0.5
		C110.7,31.5,110.6,31.6,110.5,31.6z"/>
	<path fill="#A9A9A9" d="M127.5,98.1c0.1,0,0.2,0.1,0.3,0.1c0,0-0.1,0.1-0.1,0.1c-0.2,0.1-0.4,0.2-0.6,0.1c0,0-0.1-0.1-0.1-0.1
		C127.1,98.1,127.3,98.3,127.5,98.1z"/>
	<path fill="#C0C0C0" d="M118.9,75.6c-0.1,0.1-0.2,0.2-0.3,0.2c-0.1-0.1-0.5-0.1-0.3-0.4C118.4,75.3,118.7,75.3,118.9,75.6z"/>
	<path fill="#7B7B7B" d="M109.2,111.5c-0.1,0.1-0.2,0.3-0.3,0.3c-0.1,0-0.2-0.1-0.1-0.2c0-0.1,0.1-0.2,0.3-0.2
		C109.1,111.4,109.2,111.4,109.2,111.5z"/>
	<path fill="#838383" d="M121.3,72.7c0.1,0,0.2-0.1,0.3-0.1c0,0.2,0.3,0.4,0,0.5C121.3,73.2,121.3,73,121.3,72.7z"/>
	<path fill="#737373" d="M28.9,95.4c0.1,0,0.3,0.1,0.3,0.2c0,0.1-0.1,0.2-0.2,0.2c-0.1,0-0.3-0.1-0.3-0.2
		C28.7,95.4,28.8,95.3,28.9,95.4z"/>
	<path fill="#7B7B7B" d="M109.7,84c0,0.1,0,0.3-0.2,0.3c-0.1,0-0.2-0.1-0.2-0.2c0-0.1,0.1-0.3,0.2-0.3
		C109.7,83.7,109.7,83.8,109.7,84z"/>
	<path fill="#7E7E7E" d="M218.9,17.2c-1.1,0.8-2.4,1.3-3.6,1.8c-1.3,0.6-2.5,1.4-3.7,2.2c-0.1,0.1-0.2,0.2-0.4,0.2
		c-0.2,0.1-0.4,0.2-0.6,0c-0.2-0.3,0.2-0.2,0.3-0.4c0.7-0.9,1.8-1.1,2.8-1.7c1.5-0.9,3.2-1.4,4.8-2.6c-1.5,0.3-2.9,0.2-4.2,0.7
		c-1.5,0.5-3,0.8-4.3,1.6c-1.1,0.6-2.1,1.3-3.2,1.9c-1.6,0.9-2.6,2.2-3.7,3.6c-0.1,0.1-0.2,0.3-0.3,0.4c-1.2,0.7-2.1,1.9-3.1,2.9
		c-0.8,0.7-1.4,1.6-2,2.5c-0.7,0.9-1.6,1.6-2.4,2.4c-0.4,0.5-1.1,0.7-1,1.5c0,0,0,0.1-0.1,0.1c-0.7,0.7-0.9,1.7-1,2.7
		c-0.4,0.3-0.1,0.7-0.1,1c0,0.2,0.2,0.5-0.2,0.5c-0.3,0-0.3-0.3-0.4-0.5c0-0.1,0-0.2,0-0.3c0-0.9-0.2-1.9,0.4-2.8
		c0.5-0.7,1.1-1.4,1.6-2.1c1.1-1.3,2.3-2.5,3.4-3.9c1.2-1.5,2.5-3,4-4.2c0.8-0.6,1.2-1.5,1.9-2.2c0.9-1,1.9-1.9,3.1-2.5
		c1.5-0.7,2.8-1.8,4.4-2.4c1.6-0.6,3.3-1.1,5-1.3c0.7-0.1,1.5-0.1,2.2-0.4c0.1,0,0.3,0,0.3-0.2c0.2-0.3,0.4,0.1,0.6,0.1
		c0.2,0.1,0.3,0.2,0.7,0.2c0.1,0.3-0.1,0.2-0.3,0.3C219.4,16.7,219,16.7,218.9,17.2z"/>
	<path fill="#686868" d="M231.8,20.9c1.7,1.2,3.3,2.5,4.7,4.1c0.5,0.6,1.1,1,1.6,1.5c1.7,1.7,3.4,3.4,4.8,5.4
		c0.3,0.4,0.6,0.8,0.5,1.4c-0.1,0.3,0.1,0.5,0.2,0.7c0.1,0.2,0,0.4-0.2,0.5c-0.2,0.1-0.4,0.1-0.6-0.1c-0.2-0.3-0.4-0.7-0.4-1.1
		c0-0.5-0.2-0.9-0.6-1.2c-0.6-0.6-1.2-1.2-1.6-2c-0.3-0.5-0.9-0.6-1.2-1.1c-0.6-0.9-1.5-1.5-2.2-2.3c-1.5-1.6-3.1-3-4.8-4.4
		c-1.1-0.9-2.4-1.6-3.7-2.3c-0.5-0.3-0.9-0.6-1.4-0.9c-0.1-0.4-0.1-0.7,0.2-1c0.4,0.3,0.8,0.6,1,0.7c0.7,0.4,0.9,0.5,1.5,1
		c0.1,0.1,0.5,0.2,0.6,0.2c0.1,0,0.1-0.1,0.1,0C230.8,20.7,231.1,20.9,231.8,20.9z"/>
	<path fill="#4E4E4E" d="M218.9,17.2c-0.3-0.3-0.3-0.5,0.1-0.7c0.3-0.1,0.6-0.3,1-0.3c0.6-0.1,1.2-0.2,1.5-0.3
		c0.5-0.1,1.2-0.3,1.7-0.5c-0.6-0.4-1.4-1.2-2.5-1.5c-1.1-0.4-3.3-0.6-3.3-0.1c0.2,0.4,0.6,0.6,1.1,0.9c0.2,0.1,0.6,0.4,0.7,0.6
		c0.1,0.3,0.4,1,0,0.6c-0.2,0-0.4-0.1-0.6-0.1c-0.8-0.9-1.9-1.3-2.9-2c-0.3-0.2-0.5,0-0.7,0.1c-0.2,0.1-0.4,0.2-0.6,0.2
		c-0.1,0-0.3,0.1-0.2-0.1c0.2-0.1,0.4-0.3,0.7-0.4c-0.5-0.2-0.6-0.7-1.2-0.6c-0.1-0.1-0.7,0.1-0.2-0.4c0.6-0.1,1.1-0.1,1.7,0.2
		c0.6,0.4,1.4,0.3,2,0.1c0.9-0.3,1.8-0.2,2.6-0.1c0.3,0,0.5,0.1,0.8,0.1c0.4,0.1,0.9,0.1,1.1,0.6c0.1,0.2,0.4,0.3,0.6,0.4
		c0.8,0.3,1.5,0.6,2.2,1.1c0.4,0.3,1,0.2,1.4,0.6c0,0.1,0,0.1-0.1,0.1c-0.3,0.3-0.7,0.3-1,0.1c-0.4-0.2-0.9-0.3-1.1,0
		c-0.2,0.1-0.2,0.1-0.3,0.2c-0.3,0.4-0.6,0.6-1,0.6c-0.5,0-1,0-1.5,0C220.4,17.2,219.6,16.9,218.9,17.2z"/>
	<path fill="#676767" d="M192.4,37.7c0.3,0.1,0.1,0.4,0.4,0.6c-0.1-0.7-0.1-1.3,0.1-2.1c0.2,0.3,0.1,0.5,0.2,0.7
		c-0.2,1,0.2,1.9,0.8,2.6c0.5,0.7,1,1.4,1.5,2.1c0.4,0.7,1.1,1.3,1.3,2.1c0.2,0.8,1.1,1.3,1.1,2.2c0,0.8,0.3,1.7,0.2,2.5
		c0,0.2,0,0.3-0.1,0.4c-0.2,0.1-0.3,0.4-0.5,0.3c-0.2-0.1-0.2-0.3-0.2-0.6c-0.1-0.9-0.2-1.9-0.3-2.8c0-0.3-0.2-0.5-0.4-0.7
		c-0.5-0.5-0.6-1.2-1-1.7c-1-1.4-2-2.8-2.9-4.3C192.4,38.8,192.1,38.3,192.4,37.7z"/>
	<path fill="#909090" d="M220.8,49.9c-0.1,0.1-0.2,0.2-0.3,0.2c-0.1,0.1-0.3,0.4-0.5,0.2c-0.2-0.2,0-0.4,0.1-0.6
		c0.3-0.4,0.8-0.6,1-1c0.6-0.4,1.1-0.9,1.7-1.3c1.4-1,2.7-2.3,4.3-2.9c0.9-0.3,1.8-0.8,2.9-0.7c0.4,0,0.7,0,0.9,0.4
		c0.2,0.2-0.1,0.4,0.1,0.3c0.3,0.4,0.1,0-0.1,0.3c-0.6,0-1-0.1-1.7,0c-0.3,0.1-0.5,0.2-0.8,0.3c-0.5,0-0.9,0-1.3,0.1
		c-0.7,0.4-1.5,0.8-2.1,1.3c-0.7,0.6-1.4,1.1-2.2,1.7c-0.4,0.4-0.6,0.3-0.8,0.6C221.8,49.1,221.2,49.4,220.8,49.9z"/>
	<path fill="#5D5D5D" d="M219.6,21.1c1-0.5,2-0.6,3.1-0.6c1.3,0,2.6-0.1,3.6,0.8c0.8,0.7,1.7,0.8,2.5,1.4c0.3,0.2,0.6,0.4,0.9,0.7
		c0.2,0.2,0.3,0.4,0,0.7c-0.2,0.2-0.6,0.3-0.7,0.1c-0.6-0.8-1.5-1-2.3-1.4c-0.6-0.3-0.9-0.9-1.5-1.3c-0.2-0.1-0.3-0.2-0.5-0.2
		c-1.3-0.1-2.6-0.1-3.9,0c-0.3-0.1-0.6,0-0.8,0.1C219.8,21.4,219.6,21.4,219.6,21.1z"/>
	<path fill="#7B7B7B" d="M224.2,35.4c-0.4,0.2-0.8,0.4-1.2,0.5c-0.7,0.3-1.4,0.6-2,1.2c-0.5,0.5-1,0.9-1.6,1.3
		c-1.9,1.2-3.2,3.1-4.4,4.9c-0.1,0.1-0.1,0.2-0.2,0.3c-0.1,0.1-0.3,0.2-0.4,0.1c-0.2-0.1-0.1-0.3,0-0.4c1.1-1.8,2.2-3.6,4-4.7
		c1-0.6,1.9-1.5,2.8-2.2c0.9-0.7,1.9-1.1,3-1.3C224.2,35.1,224.2,35.3,224.2,35.4z"/>
	<path fill="#777777" d="M216.6,65.8c0.1-0.3,0.2-0.6,0.3-0.8c-0.1-0.1,0-0.2,0-0.2c0.3-0.3,0.2-0.6,0.4-0.9c0.8-1.4,1.1-3,1.9-4.5
		c0.5-0.9,0.9-1.8,1.7-2.4c0.2-0.2,0.1-0.5,0.3-0.7c0.5-0.1,0.5,0.1,0.4,0.5c-0.5,0.7-1.1,1.4-1.5,2.2c-0.6,1.1-0.9,2.4-1.4,3.5
		c-0.5,1.1-1,2.1-1.3,3.2C217.3,66,216.9,66,216.6,65.8z"/>
	<path fill="#787878" d="M214.1,36.6c0.6-0.5,0.9-1.3,1.4-1.9c0.8-0.9,1.6-1.8,2.5-2.7c0.7-0.7,1.4-1.4,2.2-2c1-0.7,2-1.4,3.1-1.9
		c0.1-0.1,0.4-0.2,0.5,0c0.1,0.2-0.2,0.2-0.3,0.3c-1.4,0.9-2.8,1.7-4,2.9c-1.9,1.8-3.6,3.8-5.2,5.8
		C213.9,37.1,214.1,36.8,214.1,36.6z"/>
	<path fill="#4F4F4F" d="M225.9,15.8c0.2,0.1,0.4,0.2,0.6,0.2c0.8,0.1,1.5,0.4,2.1,1c0.4,0.3,0.7,0.8,1.1,1.2
		c0.1,0.1,0.2,0.1,0.2,0.1c0.8,0.1,1,0.7,1.3,1.2c-0.2,0.3-0.2,0.3-0.4,0.1c-0.2-0.1-0.4-0.6-0.7-0.4c-0.8-0.5-0.9-0.4-1.6-1
		c-0.4-0.3-0.9-0.8-1.3-1.1c-0.2-0.1-1.3-0.5-1.4-0.3c0,0.1,0,0.2,0,0.3c0.1,0.2,0.5,0.7,0.3,0.8c-0.2,0.1-0.3,0-0.5,0
		c-0.8-0.3-1.3-0.8-1.3-1.7c0.1-0.3,0.3-0.4,0.6-0.2C225.4,16.5,225.6,16.2,225.9,15.8L225.9,15.8z"/>
	<path fill="#868686" d="M216.8,46.9c-0.6,0.6-2.4,3-2.6,3c-0.1-0.1,1.4-2.1,1.6-2.7c0.9-1.4,1.8-2.8,3.2-3.7c0.9-0.6,1.7-1.5,2.7-2
		c0.3-0.1,0.5-0.2,0.8-0.2c0.1,0.2-0.1,0.2-0.1,0.4c-1.2,0.9-2.4,1.8-3.6,2.6c-0.2,0.2-0.5,0.4-0.6,0.6c-0.1,0.1-0.1,0.2-0.2,0.2
		c-0.7,0.6-0.6,0.9-1,1.3C216.9,46.7,216.8,46.8,216.8,46.9z"/>
	<path fill="#8B8B8B" d="M221.6,56.6c0-0.2-0.1-0.4-0.4-0.5c1-0.9,1.5-2.3,2.4-3.3c0.5-0.5,1.1-0.8,1.6-1.3c0.8-0.6,1.5-1.2,2.3-1.9
		c0.3-0.2,0.6-0.3,1-0.5c0.2,0,0.3,0.2,0.3,0.4c-1.4,0.7-2.4,1.8-3.7,2.6c-0.7,0.4-1.3,1.1-1.7,1.8C222.9,55,222.3,55.9,221.6,56.6z
		"/>
	<path fill="#818181" d="M210.1,33.3c0.1-0.4,0.3-0.6,0.5-0.8c1.9-1.8,3.8-3.5,5.8-5c1-0.8,2.1-1.4,3.3-2c0.1-0.1,0.3-0.2,0.4,0
		c0.1,0.2-0.1,0.3-0.2,0.4c-0.5,0.4-1.1,0.7-1.7,1c-1.3,0.7-2.4,1.7-3.6,2.6c-1.3,1.1-2.5,2.2-3.8,3.3
		C210.7,33,210.5,33.2,210.1,33.3z"/>
	<path fill="#626262" d="M222.4,41.8c-0.1-0.2,0.1-0.3,0.1-0.4c0.6-0.6,1.3-1,2.1-1.1c0.4,0,0.8-0.2,1.2-0.3
		c0.7-0.2,1.5-0.3,2.2-0.6c0.4-0.2,0.8-0.6,1.3-0.6c0.3,0,0.6-0.1,0.8,0.1c0.2,0.1,0.4,0.2,0.2,0.5c-0.1,0.2-0.4,0.4-0.6,0.2
		c-0.3-0.3-0.4-0.2-0.7,0.1c-0.2,0.2-0.6,0.3-0.9,0.4c-1,0.2-2.1,0.5-3.1,0.8C224.2,41.1,223.3,41.5,222.4,41.8z"/>
	<path fill="#5E5E5E" d="M222,26.3c-0.4,0-0.5,0.1-0.7,0.1c-0.2,0.1-0.4,0.2-0.5,0c-0.1-0.2,0.2-0.2,0.3-0.3
		c0.7-0.6,1.4-0.4,2.2-0.3c1,0.1,2,0.5,3,0.6c0.3,0,0.8,0.1,0.8,0.5c-0.1,0.4-0.5,0.4-0.9,0.3c-1.3-0.2-2.6-0.7-3.9-0.8
		C222.1,26.3,221.9,26.3,222,26.3z"/>
	<path fill="#5F5F5F" d="M223.1,30.1c1.2-0.3,2.1-0.8,3.3-0.5c0.5,0.1,0.9,0.3,1.4,0.2c0.6-0.1,1,0.5,1.5,0.8c0.3,0.2,0,0.5-0.3,0.6
		c-0.4,0.1-0.8,0-1-0.3c-0.2-0.3-0.5-0.3-0.8-0.4c-1.2-0.4-2.5-0.3-3.7-0.2C223.3,30.2,223.3,30.2,223.1,30.1z"/>
	<path fill="#797979" d="M228.8,49.7c-0.2-0.1-0.2-0.2-0.3-0.4c0,0,0-0.1,0-0.1c0.6-0.3,1.1-0.4,1.7-0.8c0.3-0.2,0.8-0.2,1.2-0.1
		c0.3,0.1,0.6,0.1,0.8-0.1c0.3-0.1,0.3,0.2,0.5,0.3c0.2,0.1,0.6,0.1,0.6,0.4c0,0.3-0.2,0.5-0.4,0.6c-0.1,0.1-0.3,0.1-0.4,0
		c-0.5-0.4-1.1-0.3-1.7-0.4c-0.3-0.1-0.7,0.1-1,0.2C229.5,49.5,229.1,49.6,228.8,49.7z"/>
	<path fill="#636363" d="M224.2,35.4c0-0.1-0.1-0.2-0.1-0.4c1.1-0.7,2.3-1,3.5-1c0.5,0,1-0.2,1.5,0.2c0.2,0,0.3-0.1,0.4-0.1
		c0.1-0.1,0.3-0.2,0.5,0c0.1,0.2,0.1,0.5-0.2,0.6c-0.4,0.2-0.9,0.3-1.3,0.1c-1.1-0.4-2.1-0.3-3.2,0.2
		C224.9,35.2,224.6,35.3,224.2,35.4z"/>
	<path fill="#797979" d="M219.6,21.1c0.4,0.2,0.9-0.2,1.2,0.2c-1.5,0.6-3.1,0.8-4.4,1.7c-0.5,0.2-0.5,0.2-0.6,0
		c1-0.8,2.1-1.4,3.4-1.7C219.3,21.2,219.5,21.1,219.6,21.1z"/>
	<path fill="#747474" d="M213.7,12.7c-0.1,0.2,0.1,0.3,0.2,0.4c-0.9,0.2-1.9,0.1-2.8,0.3c-0.6,0.2-1.1,0.6-1.7,0.8
		c-0.2,0.1-0.3,0.2-0.5,0c-0.1-0.1-0.3-0.1-0.2-0.2c0-0.1,0.1-0.2,0.2-0.2C210.4,13.1,211.9,12.5,213.7,12.7z"/>
	<path fill="#3E3E3E" d="M224.6,16.2c0.2,0.3,0.2,0.6,0.3,0.9c0.2,0.3,0.3,0.5,0.6,0.6c0.2,0.1,0.4,0.3,0.5,0.1
		c0.1-0.2-0.1-0.3-0.3-0.4c-0.2-0.2,0.1-0.2,0.2-0.2c0.5,0.2,0.9,0.7,1.5,0.8c-0.2,0.3-0.1,0.7-0.3,1c-0.6-0.6-1.5-0.9-2.2-1.3
		c-0.1-0.1-0.3-0.1-0.4-0.2c-0.2-0.3-0.3-0.4-0.4-0.8c0.7-0.4-0.1-0.4-0.1-0.6C224.4,15.8,224.5,15.9,224.6,16.2z"/>
	<path fill="#868686" d="M214.4,14.1c0.1,0,0.2,0.1,0.2,0.1c-2.1,0.8-4.1,2-6.3,2.7C208.5,16.5,212.6,14.6,214.4,14.1z"/>
	<path fill="#797979" d="M224.2,16.7c0.1,0.3,0.4,0.5,0.4,0.8c-1.1-0.4-2.3-0.5-3.5-0.6c0.5-0.2,0.9-0.1,1.4-0.1
		c0.4,0,0.8-0.2,1-0.5C223.9,16.4,223.9,16.4,224.2,16.7z"/>
	<path fill="#989898" d="M215.8,22.9c0.2,0.1,0.4,0,0.6,0c-0.8,1-2.1,1.2-3,2.1c-0.2,0.2-0.4,0.5-0.7,0.5
		C213.4,24.3,214.9,23.9,215.8,22.9z"/>
	<path fill="#575757" d="M232.5,44.8c-0.2,0.1-0.4,0.1-0.6,0.2c-0.1,0.1-0.4,0-0.6,0.1c-0.1,0-0.1-0.3-0.1-0.4
		c0-0.4,0.4-0.2,0.5-0.5c0.3-0.1,0.6-0.5,1-0.3C232.9,44.3,232.7,44.5,232.5,44.8z"/>
	<path fill="#979797" d="M214.1,36.6c0,0.2,0,0.4,0.1,0.6c-0.4,0.5-0.7,1.1-1.1,1.6c-0.1,0.1-0.1,0.4-0.3,0.3c-0.2-0.1,0-0.3,0-0.5
		C213.3,37.9,213.6,37.2,214.1,36.6z"/>
	<path fill="#686868" d="M230.2,19.2c0.1-0.3,0.1-0.6,0.4-0.2c0.2,0.2,0.3,0.5,0.7,0.5c0.3,0.4,0.3,0.8,0.3,1.2
		c-0.6,0.1-0.7,0-1-0.8l0,0C230.5,19.5,230.3,19.6,230.2,19.2z"/>
	<path fill="#444444" d="M230.6,20c0.5,0.1,0.6,0.6,1,0.8c0,0,0.1,0.1,0.1,0.1c-0.3,0.4-0.6,0.3-0.9,0
		C230.6,20.7,230.2,20.4,230.6,20z"/>
	<path fill="#5D5D5D" d="M231.2,40c-0.2,0-0.3-0.1-0.3-0.2c0-0.3,0.2-0.4,0.5-0.4c0.2,0,0.4,0.1,0.3,0.3
		C231.6,40,231.3,39.9,231.2,40z"/>
	<path fill="#545454" d="M229.3,26.9c-0.1,0.3-0.3,0.3-0.5,0.3c-0.1,0-0.3-0.1-0.3-0.2c0.1-0.3,0.3-0.3,0.5-0.3
		C229.2,26.7,229.3,26.7,229.3,26.9z"/>
	<path fill="#646464" d="M229.1,34.3c-0.5-0.3-1-0.2-1.5-0.2c0.2-0.1,0.7-0.1,0.9-0.3c0.2-0.1,0.2-0.2,0.4-0.3
		c0.1-0.1,0.6,0.1,0.4,0.3c0,0.1-0.2,0.2-0.3,0.3C229,34.2,229.1,34.3,229.1,34.3z"/>
	<path fill="#636363" d="M230.6,27.2c-0.1,0.2-0.2,0.3-0.4,0.4c-0.1,0-0.3,0-0.3-0.2c0-0.2,0.2-0.3,0.4-0.4
		C230.5,27,230.6,27.1,230.6,27.2z"/>
	<path fill="#7F7F7F" d="M136.6,93.1c0.3-0.1,0.7-0.2,1-0.4c0.3-0.4,0.7-0.4,1.1-0.6c0.2,0,0.5-0.3,0.8-0.1c0.1,0.2,0.1,0.4-0.1,0.5
		c-0.7,0.2-1.2,0.8-1.8,1.1c0,0.1-0.1,0.1-0.2,0.1c-0.4,0.1-0.7,0.2-1.1,0.4c-0.1,0.4-0.5,0.3-0.8,0.4c-0.8,0.1-1.5,0.5-2.2,0.8
		c-0.6,0.2-1.2,0.4-1.9,0.6c-0.1,0-0.3,0.1-0.4-0.1c0-0.1,0-0.3,0.2-0.4c0.2-0.1,0.4-0.3,0.7-0.4l0,0c1-0.2,1.9-0.8,2.8-1.1
		c0.4-0.1,0.9,0,1.2-0.5C136,93.2,136.3,93.1,136.6,93.1z"/>
	<path fill="#3E3E3E" d="M142.5,34.5c0,0.3,0.2,0.7-0.2,0.9c-0.6,0.3-0.7-0.2-0.9-0.6c-0.2-0.3-0.1-0.7,0.3-0.6c0.2,0,0.5,0,0.7,0.2
		C142.4,34.4,142.4,34.4,142.5,34.5z"/>
	<path fill="#4C4C4C" d="M139.7,29.5c-0.2,0.7-0.7,0.5-1.2,0.5c-0.2-0.1-0.2-0.1-0.1-0.3c0.2-0.2,0.6-0.2,0.7-0.5
		C139.6,28.9,139.7,29.2,139.7,29.5z"/>
	<path fill="#474747" d="M136.4,24.9c0.3,0,0.7,0.1,0.6,0.5c-0.1,0.4-0.5,0.4-0.8,0.3c-0.1,0-0.2,0-0.2-0.1
		c-0.1-0.1-0.2-0.2-0.2-0.3l0,0C136,25.1,136.2,25,136.4,24.9z"/>
	<path fill="#535353" d="M135.9,23.4c-0.3,0.1-0.7,0.3-1,0c-0.1-0.2-0.1-0.3,0-0.5c0.2-0.4,0.6-0.4,0.9-0.1
		C135.9,23,135.9,23.2,135.9,23.4z"/>
	<path fill="#4B4B4B" d="M138.2,27.4c0.2,0,0.3,0,0.5,0c0.2,0,0.3,0.2,0.3,0.4c0,0.2-0.1,0.3-0.3,0.4c-0.3,0-0.5-0.1-0.7-0.3
		C137.7,27.5,138,27.5,138.2,27.4C138.1,27.3,138.1,27.3,138.2,27.4z"/>
	<path fill="#535353" d="M135.1,21.2c0,0.1,0.1,0.2,0.1,0.3c-0.3,0.3-0.6,0.3-0.9,0.3c0,0-0.1,0-0.1,0c0-0.2,0-0.3,0-0.5
		c0-0.1,0.1-0.2,0.2-0.2C134.6,21,134.8,21.1,135.1,21.2z"/>
	<path fill="#595959" d="M140.5,31.5c0.1,0,0.1-0.1,0.2-0.1c0.2,0,0.4-0.1,0.6,0c0.1,0.1,0.1,0.2,0,0.3c-0.2,0.2-0.4,0.4-0.7,0.3
		c-0.1,0-0.1,0-0.2,0C140.4,31.7,140.3,31.6,140.5,31.5z"/>
	<path fill="#848484" d="M68.5,57.7c-0.4,0.5-0.9,0.9-1.2,1.5c-0.2,0.4-0.6,0.5-0.8,0.8c-0.2,0.1-0.4,0.3-0.5,0.5c0,0,0,0,0,0
		c-0.7,0.2-1.1,0.9-1.9,1c0.1-0.4,0.3-0.6,0.5-0.7c1.2-0.8,2.1-1.9,3.1-2.9C68,57.7,68.1,57.3,68.5,57.7z"/>
	<path fill="#464646" d="M66.3,54.1c0.1,0.1,0.2,0.2,0.3,0.4c0,0.1,0,0.2,0,0.2c-0.1,0.3-0.1,0.7-0.5,0.8c-0.4,0.1-0.6-0.3-0.8-0.5
		c-0.3-0.6-0.2-0.7,0.3-0.7C65.9,54.2,66.1,54.4,66.3,54.1z"/>
	<path fill="#464646" d="M65.8,57.7c0,0,0,0.1,0,0.1c-0.3,0.2-0.7,0.3-0.9-0.1c-0.1-0.2-0.4-0.5-0.1-0.7c0.3-0.2,0.6-0.3,0.9-0.1
		C65.8,57.2,65.8,57.5,65.8,57.7z"/>
	<path fill="#434343" d="M64.9,59.8c0,0.4-0.4,0.5-0.6,0.5c-0.3,0-0.6-0.2-0.6-0.5c0-0.3,0.3-0.5,0.6-0.5
		C64.7,59.2,64.8,59.5,64.9,59.8z"/>
	<path fill="#595959" d="M63.8,62.6c-0.1,0-0.1-0.1-0.2-0.1c-0.2-0.1-0.4-0.2-0.4-0.5c0.1-0.3,0.3-0.3,0.5-0.4c0.2,0,0.4,0,0.5,0.2
		c0.1,0.2,0,0.4-0.2,0.6C63.9,62.5,63.9,62.6,63.8,62.6L63.8,62.6z"/>
	<path fill="#4F4F4F" d="M53.8,55.4c-0.2-0.1-0.5,0-0.4-0.3c0-0.2,0.7-0.8,0.9-0.7c0.2,0.1,0.2,0.3,0.1,0.4
		C54.3,55.1,54.1,55.4,53.8,55.4z"/>
	<path fill="#838383" d="M51.9,10.2c0.1,0.2,0.6,0.1,0.5,0.4c-0.1,0.3-0.4,0.2-0.7,0.1c-1.1,0-2.1-0.1-3.2-0.1c-0.3,0-0.6,0-0.6-0.3
		c0-0.2,0.3-0.4,0.6-0.4C49.6,9.9,50.8,10,51.9,10.2C51.9,10.2,51.9,10.2,51.9,10.2z"/>
	<path fill="#4E4E4E" d="M49.1,12.4c-0.2,0.3-0.5,0.3-0.8,0.1c-0.3-0.2-0.4-0.4-0.3-0.7c0.2-0.3,0.5-0.3,0.8-0.1
		C49,11.9,49.3,12,49.1,12.4L49.1,12.4z"/>
	<path fill="#575757" d="M46.5,10.7c0.2,0,0.3,0,0.5,0c0.3,0,0.5,0.2,0.6,0.5c0,0.2,0,0.4-0.2,0.3c-0.3,0-0.7,0.1-0.9-0.3
		c-0.1-0.1,0-0.3,0-0.5C46.4,10.7,46.4,10.7,46.5,10.7z"/>
	<path fill="#5B5B5B" d="M114.5,7.9c0.1-0.1,0.1-0.1,0.2-0.2c0.1-0.3,0.4-0.4,0.7-0.2c0.7,0.1,1.4,0.1,2,0.2c0.2,0.1,0.7,0.3,1,0.6
		c0.6,0.8,1.3,1.4,1.6,2.3c0.1,0.3,0,0.4-0.2,0.3c-0.4-0.1-0.9,0-1.3-0.1c-0.1,0-0.3,0-0.3-0.1c-0.1-0.2,0.1-0.3,0.2-0.3
		c0.3-0.1,0.3-0.2,0.1-0.5c-0.6-1.2-1.5-1.7-2.8-1.6c-0.3-0.1-0.5,0-0.8-0.1C114.7,8.2,114.5,8.2,114.5,7.9z"/>
	<path fill="#6D6D6D" d="M123.7,10.8c-0.3-0.6-0.6-1.2-0.9-1.8c-0.1-0.2-0.2-0.5-0.1-0.7c0.1-0.4,0.3-0.5,0.5,0c0.5,1,1.1,2,1.6,3.1
		c0.1,0.2,0.2,0.5-0.1,0.6c-0.3,0.2-0.4-0.1-0.5-0.3C123.9,11.3,123.8,11,123.7,10.8z"/>
	<path fill="#474747" d="M122.2,10.2c0.2,0.5,0.4,1,0.8,1.3c0.1,0,0.2,0.1,0.3,0.1c0.2,0,0.5,0,0.5,0.3c0,0.3-0.2,0.4-0.5,0.4
		c-0.7,0.1-1.2-0.2-1.4-0.8c-0.2-0.6-0.6-0.5-1.1-0.5c0.5-0.3,0.7-0.7,0.2-1.1c0.1-0.3,0.1-0.3,0.3-0.2
		C121.6,10,121.9,10.1,122.2,10.2z"/>
	<path fill="#636363" d="M122.2,10.2c-0.2,0.4-0.4,0.6-0.7,0c-0.1-0.1-0.2-0.4-0.5-0.3c-0.3-0.4-0.6-0.7-1.1-0.9
		c-0.4-0.1-0.6-0.4-0.9-0.7c0.1-0.3-0.1-0.4-0.2-0.5c-0.1-0.1-0.3-0.2-0.2-0.4c0.2-0.1,0.3,0.1,0.4,0.2c0.8,0.6,1.6,1.3,2.5,2
		c0.1,0.1,0.2,0,0.3,0C121.9,9.8,122.1,10,122.2,10.2z"/>
	<path fill="#848484" d="M114.5,7.9c0.3,0.4,0.8,0.1,1.2,0.4c-0.8,0-1.6,0.1-2.2,0.8c-0.1,0.1-0.2,0.2-0.3,0.1c-0.1-0.1,0-0.2,0-0.3
		C113.5,8.3,114,8.1,114.5,7.9z"/>
	<path fill="#474747" d="M118.3,11.5c0.3,0.1,0.5,0.2,0.5,0.5c0,0.2-0.2,0.4-0.4,0.4c-0.4,0-0.4-0.3-0.4-0.5
		C117.9,11.6,118.1,11.6,118.3,11.5z"/>
	<path fill="#6A6A6A" d="M117,10.5c-0.2,0-0.3-0.1-0.3-0.2c0-0.3,0.2-0.2,0.4-0.3c0.2,0,0.3,0.1,0.3,0.2
		C117.3,10.4,117.2,10.5,117,10.5z"/>
	<path fill="#9C9C9C" d="M115.9,10.1c-0.1,0-0.2,0-0.2-0.1c0-0.2,0.3-0.2,0.5-0.3c0.1,0,0.3,0,0.2,0.2
		C116.3,10.1,116,10.1,115.9,10.1z"/>
	<path fill="#4C4C4C" d="M118.8,13.1c-0.1,0-0.2-0.1-0.2-0.2c0-0.2,0.1-0.4,0.3-0.5c0.1,0,0.2,0,0.2,0.1
		C119.1,12.8,119,12.9,118.8,13.1z"/>
	<path fill="#515151" d="M10.5,86c-0.3-0.3-0.2-0.5-0.2-0.8c0.1-0.7,0-1.4-0.3-2c-0.1-0.2-0.4-0.6,0-0.8c0.4-0.1,0.4,0.2,0.5,0.5
		C11.1,84,10.9,85,10.5,86z"/>
	<path fill="#595959" d="M16.5,32.4c-0.1,0.8-0.2,1.6-0.3,2.5c-0.3-0.8-0.4-1.5-0.3-2.3C16,32.1,16.3,32.3,16.5,32.4
		C16.5,32.4,16.5,32.4,16.5,32.4z"/>
	<path fill="#636363" d="M52.5,14.1c0.2,0.1,0.5,0.2,0.6,0.5c0,0.1-0.1,0.2-0.2,0.2c-0.3-0.1-0.5-0.3-0.5-0.6
		C52.2,14.1,52.3,14.1,52.5,14.1z"/>
	<path fill="#919191" d="M219.9,50.8c0,0.2-0.1,0.3-0.2,0.4c-1.2,1.3-2.1,2.8-2.9,4.3c-0.2,0.3-0.3,0.7-0.7,0.9
		c-0.1,0.1-0.3,0.2-0.5,0c-0.1-0.2,0.1-0.3,0.2-0.4c0.4-0.1,0.4-0.5,0.4-0.8c0.2-0.6,0.6-1.1,0.9-1.7c0.5-1,1.3-1.7,1.9-2.5
		c0.1-0.2,0.3-0.3,0.6-0.4C219.8,50.6,219.9,50.6,219.9,50.8z"/>
	<path fill="#606060" d="M224.6,16.2c-0.1-0.1-0.3-0.2-0.5-0.1c-0.2,0-0.2,0-0.4,0c0.2-0.5,0.5-0.6,1-0.3c0.3,0.2,0.8,0.1,1.1,0.1
		c0,0.3,0.5,0.6-0.1,0.9c-0.2,0.1-0.1,0.4-0.4,0.3c-0.2-0.1-0.4-0.3-0.4-0.5C224.9,16.2,224.9,15.9,224.6,16.2z"/>
	<path fill="#636363" d="M50,12.6c0.2-0.1,0.5-0.3,0.8-0.2c0.1,0.1,0.5,0.5,0.4,0.6c-0.3,0.2-0.9,0-1.2-0.1
		C49.8,12.8,49.9,12.7,50,12.6z"/>
	<g id="arrow_3_">
		
			<path fill="none" stroke="#000000" stroke-width="0.75" stroke-linecap="round" stroke-linejoin="round" stroke-miterlimit="10" d="
			M75.9,57.5c5.2-2.6,8.2-16,6.9-20.4"/>
		
			<polyline fill="none" stroke="#000000" stroke-width="0.75" stroke-linecap="round" stroke-linejoin="round" stroke-miterlimit="10" points="
			80.1,44.3 83,36.8 85.9,43.5 		"/>
	</g>
	<g id="arrow_2_">
		
			<path fill="none" stroke="#000000" stroke-width="0.75" stroke-linecap="round" stroke-linejoin="round" stroke-miterlimit="10" d="
			M50.2,1.3C56.4-2,63.6,4.1,65.5,8.4"/>
		
			<polyline fill="none" stroke="#000000" stroke-width="0.75" stroke-linecap="round" stroke-linejoin="round" stroke-miterlimit="10" points="
			58.6,6.7 61.9,7.5 65.5,8.4 65.5,1.7 		"/>
	</g>
	<g>
		<path d="M237.6,59.9c0,0.4-0.3,0.8-0.8,0.8c-0.6,0-0.7-0.5-0.8-0.7c-0.5,0.3-1.1,0.7-1.6,0.7c-0.4,0-1-0.3-1-0.8
			c0-0.6,0.5-1,1.8-1.6L236,58v-0.2c0-0.6-0.1-1.1-0.9-1.1c-0.3,0-0.8,0.1-0.8,0.4c0,0.2-0.1,0.5-0.4,0.5c-0.2,0-0.3-0.1-0.3-0.3
			c0-0.3,0.4-0.9,1.6-0.9c1.5,0,1.5,0.9,1.5,1.4v1.6c0,0.6,0,0.9,0.3,0.9c0.1,0,0.3-0.1,0.4-0.5H237.6z M236,58.2l-0.5,0.2
			c-0.5,0.2-1.3,0.6-1.3,1.3c0,0.3,0.2,0.7,0.6,0.7c0.4,0,1-0.5,1.2-0.6V58.2z"/>
		<path d="M239,59.8c0.3,0,0.5,0.2,0.5,0.5c0,0.3-0.2,0.5-0.5,0.5c-0.3,0-0.5-0.2-0.5-0.5C238.4,60,238.7,59.8,239,59.8z"/>
	</g>
</g>
</svg>
