<svg xmlns="http://www.w3.org/2000/svg" xmlns:xlink="http://www.w3.org/1999/xlink" viewBox="0 0 206.13 123"><defs><style>.cls-1{font-size:10px;fill:#181716;font-family:BaskervilleMTPro-Regular, Baskerville MT Pro;}.cls-2{letter-spacing:-0.01em;}.cls-3{fill:url(#linear-gradient);}.cls-4{fill:url(#linear-gradient-2);}.cls-5{fill:url(#linear-gradient-3);}.cls-6{fill:url(#linear-gradient-4);}.cls-7{fill:url(#linear-gradient-5);}</style><linearGradient id="linear-gradient" y1="20.67" x2="5.47" y2="20.67" gradientUnits="userSpaceOnUse"><stop offset="0"/><stop offset="1" stop-color="#696969"/></linearGradient><linearGradient id="linear-gradient-2" x1="5.45" y1="20.5" x2="11.66" y2="20.5" xlink:href="#linear-gradient"/><linearGradient id="linear-gradient-3" x1="6.7" y1="22.94" x2="10.28" y2="22.94" gradientUnits="userSpaceOnUse"><stop offset="0"/><stop offset="1" stop-color="#a3a3a3"/></linearGradient><linearGradient id="linear-gradient-4" x1="6.45" y1="23.55" x2="35.14" y2="23.55" gradientUnits="userSpaceOnUse"><stop offset="0"/><stop offset="1" stop-color="#919191"/></linearGradient><linearGradient id="linear-gradient-5" x1="35.7" y1="13.79" x2="67.32" y2="13.79" gradientUnits="userSpaceOnUse"><stop offset="0" stop-color="#919191"/><stop offset="1"/></linearGradient></defs><g id="Layer_2" data-name="Layer 2"><g id="_12008c_german_draft" data-name="12008c_german_draft"><g id="Gc"><text class="cls-1" transform="translate(49.29 21.43)">Bl<tspan class="cls-2" x="8.55" y="0">a</tspan><tspan x="13.14" y="0">tt</tspan></text><path class="cls-3" d="M5.45,2.5S5,2.34,5,2.5V3.63C5,4,4.7,5.46,4.7,5.46s-.42,1.42-.5,1.71-.46,2.54-.75,4.25a7.83,7.83,0,0,0-.33,2.17,24,24,0,0,1-.3,3.12,9,9,0,0,1-.16,2.42c-.29.71,0-.67-.29.71a7.87,7.87,0,0,0-.25,1.79,3,3,0,0,1,0,1.46,17,17,0,0,0-.25,2.45,21,21,0,0,1,0,3.67c-.21,1.46-.05,1.58-.21,2.71s-.42,2.67-.42,2.67.17.25-.33,1.37-.34.83-.54,1.33a2.55,2.55,0,0,0-.3.88c0,.21-.16.42,0,.5a2.2,2.2,0,0,1,.34.21.59.59,0,0,1,.41,0,2.29,2.29,0,0,0,.75,0s.25-.5.34-.71A6.24,6.24,0,0,1,2.2,37a1.88,1.88,0,0,0,.29-1V34.75c0-.66.3-1.62.23-2s.19-2.83.19-3.16.08.29.08-.92a13.92,13.92,0,0,0-.27-2c.06-.25.15-3.83.27-4.5a12,12,0,0,0,0-2.16,11.37,11.37,0,0,1,.38-2.25c0-.25.16-3.05.25-3.34s.12-1.94.2-2.14.59-3.27.84-3.9a13,13,0,0,0,.25-2,12.14,12.14,0,0,0,.54-2C5.49,4.09,5.45,2.5,5.45,2.5Z"/><path class="cls-4" d="M11.24,0s-.33,0-.33.21v.92l-.38.25a5.37,5.37,0,0,0-.25,1.46c0,.7-.37,2-.37,2.29S9.49,7.5,9.49,7.5a1.13,1.13,0,0,1,0,1,5.16,5.16,0,0,0-.42,1.33,10.29,10.29,0,0,1-.29,1.3c-.12.33-.33,1.27-.33,1.27s0,1.39-.21,1.43a8.4,8.4,0,0,0-.83,2.38A14.72,14.72,0,0,1,7.12,18a4.73,4.73,0,0,1-.3.92,11.62,11.62,0,0,0-.29,1.25,11.22,11.22,0,0,1,0,1.21c0,.46-.21,1.37-.21,1.75a12.67,12.67,0,0,1-.16,2.75,3.2,3.2,0,0,0-.34,1.42,6.57,6.57,0,0,1,0,1.33c-.08.58-.16,1.71-.16,1.92s-.13.45,0,.58.12,0,.16.87-.36,2.31-.22,3a12.36,12.36,0,0,1,.27,1.56,3,3,0,0,1-.09,1.33c-.21.37-.25-.21-.31.62s.06.84,0,1.25a2.14,2.14,0,0,0,.23,1L6,41l.59-.46.45-.95-.16-.68.29-.24s.25-1.83.25-2,.12-.58,0-.75A1,1,0,0,1,7.12,35c0-.61.16-.11,0-.61a3.7,3.7,0,0,1-.21-1.29,8.91,8.91,0,0,0-.13-1.25c-.08-.59-.12-1.67-.12-1.79s0-3.38.08-3.5.54-2.3.54-2.59v-.71s.25-2.37.25-2.79a5.39,5.39,0,0,1,.13-1.79,4.5,4.5,0,0,0,.21-1.21c0-.25.12,0,.16-.27s.13-1.14.32-1.14.47-1.59.47-1.59.3-1.21.38-1.61.71-1.55.71-1.72S10,9.75,10,9.75s.21,0,.21-.58a5.37,5.37,0,0,1,0-1,6.53,6.53,0,0,0,.17-.75c0-.17.5-2.17.42-2.33a1,1,0,0,1,0-.79C11,4,11.24,3,11.24,3V1.71s.42,0,.42-.29A10.17,10.17,0,0,0,11.24,0Z"/><path class="cls-5" d="M9.63,11.85c.15.32,0,.69,0,1s0,1.11,0,1.11a3,3,0,0,1,0,.71,4.42,4.42,0,0,1-.29,1.08c-.09.25.2.63,0,1a2.56,2.56,0,0,0-.3.75c-.12.42-.16.55-.33,1.05S8.66,19.67,8.55,20a2.56,2.56,0,0,0,0,1c0,.46-.14.46,0,.92s-.14,1,0,1.29a2.17,2.17,0,0,1-.06,1.42,7.7,7.7,0,0,0-.62,1.62c0,.17-.3,2.29-.3,2.58s-.33,3.09-.41,3.34a17.07,17.07,0,0,0-.46,1.71,8.4,8.4,0,0,0,.48,1.67,12.4,12.4,0,0,0,.48-1.67c0-.3.08-2.34.08-2.46s.42-3.92.46-4.25.71-2.46.75-2.59a11.34,11.34,0,0,0,.37-1.87C9.32,22.21,9,21,9,20.5a4.27,4.27,0,0,1,.46-1.37,5,5,0,0,0,.08-.84c0-.2,0-.62.21-.75s.21-.95.21-1.12.21-.5.21-.67a3.63,3.63,0,0,0,0-.66c0-.21,0-1.92,0-1.92l.15-.81a.46.46,0,0,1-.21-.51c.09-.35.21-.43.21-.68a2.62,2.62,0,0,0-.31-.8"/><path class="cls-6" d="M6.45,30.25l.83-.54s.84-1.25,1-1.25.54.33.71,0a6.53,6.53,0,0,1,1-1s.17.21.5,0A22.71,22.71,0,0,1,12.7,26c.33-.08,2.75-1.62,3.08-1.75a7.75,7.75,0,0,0,1.79-.91A5.2,5.2,0,0,1,19.32,22c.88-.33,1.5-.33,1.84-.5s2-1,2-1a1.7,1.7,0,0,0,1.33,0,19.36,19.36,0,0,1,2.29-1c.83-.33,2-.87,2.58-1s2.63-.83,2.84-.92,1.62-.62,1.91-.66.71-.42.84,0,.37,0,.12.41-.25.59-.46.67-.29.25-.66.25a3.2,3.2,0,0,0-.63,0c-.54,0-.29-.12-.75.08s-.29.25-.79.46-.42.29-.92.29a2,2,0,0,0-1,.25c-.37.17-.37.05-.79.17a4.45,4.45,0,0,0-.79.42c-.21.08-.25-.29-.5.08s-.12.42-.83.54-.54-.08-.84.17,0-.17-.7.25-1,.83-1.09.83.25-.21-.37,0-.79.54-1,.54h-.75a8.29,8.29,0,0,1-.88,1c-.12.05-.1.14-.45.18s-.17,0-.51,0,0-.09-.33,0-.71.34-.88.42l-.66.33-1.13.5a8.4,8.4,0,0,0-1.12.25c-.13.09-.88.5-1.13.67a8.75,8.75,0,0,0-1.25.87,5.35,5.35,0,0,1-.79.71,10.78,10.78,0,0,0-.67,1c-.33.46-.45.63-.66.71a2.6,2.6,0,0,0-.46.25.82.82,0,0,0-.29.29s-.29-.46-.63-.12-.54.58-.54.58a.38.38,0,0,1-.46-.33c0-.17,0-.42-.16-.46s-.42-.29-.57,0-.18.56-.43.75a.73.73,0,0,0-.28.46Z"/><path class="cls-7" d="M67,12.36c.25.06.37-.23.37-.23L67,11.84s-1.08,0-1.33,0-1.13,0-1.71,0,.21-.05-.59-.05H61.41a.4.4,0,0,0-.54,0,.81.81,0,0,1-.55.24v-.35a4.12,4.12,0,0,1,0-.72c0-.21-.2-.29-1-.29s-1.8.42-2.34.42-3,.43-3,.43-1.83.48-2.58.57a18.29,18.29,0,0,0-3.21.8c-.38.2-.33.24-1.54.28a5,5,0,0,0-1.79.33c-.5.13-.88.17-1.55.38a14.54,14.54,0,0,1-1.79.5c-.33,0-1.41.41-1.75.41a4.43,4.43,0,0,0-1.25.59,2,2,0,0,0-.62.16c-.21.13-.13-.41-.59,0s-.08.17-.45.42-1.16.29-1.17.42v.3h1s.41.32.66.2l1.34-.75.79-.25h.46s.5-.54.79-.54a3.17,3.17,0,0,0,.87,0c.25-.09.67-.63.92-.63h.88s.91,0,1.16-.08.21-.34,1-.38A10,10,0,0,0,47.12,14c.16,0,.91-.66,1.08-.66s.33.25.83.08a23.7,23.7,0,0,1,3.71-1.1,21,21,0,0,0,2.5-.36c.21,0,2-.58,2.42-.58s1.91-.75,2-.25a2.78,2.78,0,0,1,.12.79,4.37,4.37,0,0,0,.17.71,3.14,3.14,0,0,0,.5-.13l1.13-.37a5,5,0,0,1,1.12,0c.29.08,2.63,0,2.79,0S67,12.36,67,12.36Z"/></g></g></g></svg>