<?xml version="1.0" encoding="utf-8"?>

<svg version="1.1" id="" xmlns="http://www.w3.org/2000/svg" xmlns:xlink="http://www.w3.org/1999/xlink"
	 x="0px" y="0px" viewBox="0 0 97 42.8" enable-background="new 0 0 97 42.8" xml:space="preserve">
<g id="_x31_3170F">
	<path fill="#7C7C7C" d="M6.8,27.7c0.2,0.1,0.4,0.2,0.5,0.3c0.1,0.1,0.1,0.1,0.2,0.2c0,0,0,0.1,0,0.1c0,0.1,0,0.1,0.1,0.1
		c0.2,0.1,0.2,0.4,0.3,0.6c0.1,0.1,0.1,0.2,0.1,0.3c0,0.1,0.1,0.2,0.1,0.3c0.1,0.1,0.1,0.2,0.2,0.2c0.1,0.1,0.1,0.2,0.1,0.3
		c0,0.1,0.1,0.2,0.1,0.2c0,0.1,0.1,0.1,0.2,0.2c0.1,0.1,0.3,0.2,0.4,0.3c0.1,0.1,0.1,0.2,0.1,0.3c0.1,0.1,0.1,0.2,0.3,0
		c0.1-0.2,0.2-0.5,0.2-0.7c-0.1-0.2-0.1-0.6-0.4-0.7c0,0,0-0.1-0.1-0.1C9.1,29.6,9,29.4,9,29.2c-0.1-0.3,0-0.8-0.4-1
		c-0.3-0.1-0.3-0.4-0.4-0.6c-0.2-0.2-0.3-0.7-0.7-0.8c-0.8-0.2-1,0-0.9,0.7C6.7,27.6,6.7,27.7,6.8,27.7z"/>
	<path fill="#545454" d="M33.8,34.5c-0.1-0.2-0.2-0.4-0.4-0.6c-0.1-0.4-0.6-0.5-0.7-0.9c-0.1-0.3-0.2-0.5,0.1-0.7c0.1,0,0.2,0,0.3,0
		c0.2,0,0.5,0,0.6,0.2c0.1,0.1,0.1,0.2,0.2,0.3c0,0.1,0,0.2,0.2,0.2c0.1,0,0.2,0,0.1-0.1c0-0.2,0-0.2,0-0.3c0,0-0.1-0.1-0.1-0.2
		c0-0.1,0-0.2,0-0.3c-0.1-0.5,0.1-1.1-0.3-1.6c-0.2-0.4-0.3-0.8-0.2-1.2c0-0.5,0.1-1,0.2-1.6c0.2-0.2,0.4-0.4,0.6-0.1
		c0.1,0.2,0.2,0.5,0.5,0.2c0,0,0.1,0,0.2,0c0.3,1.3,0.5,2.7,0.2,4.1c-0.1,0.3,0.2,0.6-0.2,0.9c-0.1,0.1,0,0.1,0.1,0.2
		c0.5,0.6,0.2,1.2-0.1,1.7c-0.2,0.2-0.2,0.5-0.5,0.7c-0.1,0-0.2,0-0.4,0c-0.4-0.2-0.2-0.5-0.2-0.8c0-0.1,0-0.2,0-0.2
		C33.9,34.5,33.9,34.6,33.8,34.5z"/>
	<path fill="#484848" d="M36,17.5c-0.2,0.3,0,0.6-0.2,0.9c-0.1,1-0.1,2-0.2,3c0,0.5-0.3,0.9-0.6,1.3c-0.2,0.3-0.5,0.4-0.7,0
		c0-0.2,0.1-0.4,0.1-0.6l0.1,0c0.3-0.2,0.1-0.6,0.2-0.9c0-0.2-0.1-0.4,0-0.6l0,0c0.3-0.3,0.3-0.6,0-0.8c-0.2-0.9,0.1-1.8,0.2-2.6
		c0.1-0.7,0.3-1.4,0.5-2.1c0-0.2,0-0.4,0.2-0.4c0.2-0.1,0.2,0.2,0.3,0.3c0,0.1,0.1,0.2,0.1,0.2c0.6,0,0.4,0.5,0.4,0.8
		C36.1,16.4,36.1,16.9,36,17.5z"/>
	<path fill="#606060" d="M33.9,24.9c-0.2,0-0.4,0.1-0.6,0c-0.9,0.3-1.9,0.1-2.7,0.5c-0.3,0.3-0.5-0.1-0.7-0.1l-2.3,0
		c-0.1,0.2-0.6,0-0.5,0.2c0.2,0.5,0,1.2,0.4,1.2c0.1,0,1.4,0.1,1.3,0.1c0.1,0,0.7,0,0.8,0c1,0,1.5,0.2,2.5,0
		c0.2-0.1,0.4,0.1,0.5-0.2c0.1,0-0.2-0.3,0.1-0.2c0.5,0.2,0.8-0.1,0.8-0.7c0,0,0,0.1,0.1,0.1c0,0.2,0.2,0.4,0.4,0.3
		c0.2,0,0.4-0.2,0.4-0.4C34.2,25.3,34.1,25.1,33.9,24.9z M33.3,25.4c0.1,0.1,0.1,0.1,0.1,0.2C33.4,25.5,33.4,25.4,33.3,25.4z"/>
	<path fill="#868686" d="M43.6,37.4c-0.2-0.5-0.7-0.6-1.1-0.7c-0.2,0-0.4-0.1-0.6-0.1c-0.8-0.2-1.6,0-2.4-0.1
		c-1.3-0.1-2.7-0.3-4-0.3c-0.2,0.2-0.6,0.4-0.1,0.7c0.2,0.1,0.2,0.4,0.5,0.5c0.4-0.2,0.5,0.1,0.7,0.3c0,0,0,0,0.1,0c0,0,0,0,0,0h0.7
		c0,0,0,0,0,0c0.1-0.1,0.2-0.2,0.3-0.3c0.2-0.5,0.5-0.4,0.8-0.3c0.4,0.1,0.8,0.3,1.2,0.6c0.3,0.2,0.6,0,0.8,0.3
		c0.3,0,0.5,0.1,0.8,0.1c0.1,0,0.3,0,0.4,0c0.2-0.5,0.2-0.4,0.8-0.2c0.2,0.1,0.4,0.2,0.6,0.3c0.2,0,0.3,0,0.5,0c0,0,0,0,0.1,0
		C43.9,37.9,43.8,37.7,43.6,37.4z"/>
	<path fill="#555555" d="M35.7,21.9c0-0.1,0-0.3,0-0.4c0-0.2,0.1-0.5,0.1-0.7c0-0.1,0-0.3,0-0.4c0-0.7,0-1.3,0-2
		c-0.2,0.8-0.4,1.6-0.4,2.5c0,0.2,0,0.5-0.1,0.6c-0.5,0.1-0.3,0.5-0.4,0.8c-0.1,0.3-0.2,0.5-0.6,0.3c-0.3,0.3-0.1,0.6-0.1,0.9
		c0,0.6,0,1.2-0.2,1.9c0.5,0.4,0.5,0.7-0.1,0.9c-0.2,0.1-0.4,0-0.5,0.2c-0.1,0.5,0.2,0.9,0.2,1.4c0,0.1,0.1,0.2,0.3,0.2
		c0.1-0.2,0.2-0.2,0.4-0.1c0.2,0.3,0.5,0.1,0.7,0l0,0c0.2-0.5,0.2-1,0.1-1.5c0-0.2-0.3-0.5,0.1-0.7c0.1-0.7,0.2-1.3,0.2-2
		c0.1-0.6,0.1-1.2,0.3-1.8C35.7,22,35.7,21.9,35.7,21.9z"/>
	<path fill="#8B8B8B" d="M34.8,36.2c-0.5-0.1-1.1-0.2-1.6-0.2c-1.9,0-3.8-0.1-5.6-0.6c-0.4,0.2-0.2,0.4,0,0.6
		c0.1,0.1,0.2,0.1,0.3,0.2c0.3,0.2,0.6,0.3,0.8,0.7c0.1,0.1,0.2,0.2,0.3,0.2c0.5-0.3,1,0.1,1.5,0.1c0.2,0,0.6,0,0.9,0.3c0,0,0,0,0,0
		h0.1c0,0,0,0,0,0c0.2,0,0.3,0.1,0.5,0.1c0.2,0,0.3,0,0.5,0c0.1-0.1,0.1-0.3,0.2-0.5c0.1-0.2,0.2-0.3,0.3-0.3
		c-0.4,0.3-0.4,0.4,0.1,0.9c0,0,0,0,0,0c0.2,0,0.3,0,0.5,0c0.1,0,0.3,0,0.4,0c0.1,0,0.1,0,0.2,0c0,0,0,0,0,0c0,0,0.1,0,0.1,0
		c0,0,0,0,0,0c0,0,0,0,0,0c0,0,0,0,0,0c0,0,0.1,0,0.1,0c0,0,0,0,0,0c0,0,0,0,0,0c0,0,0,0,0,0c0,0,0,0,0,0c0,0,0,0,0,0c0,0,0,0,0,0
		c0,0,0,0,0,0c0,0,0,0,0,0c0,0,0,0,0,0c0.2-0.2,0.2-0.6,0.3-0.8C35.1,36.6,35.1,36.4,34.8,36.2z"/>
	<path fill="#8B8B8B" d="M33.4,36.8C33.4,36.8,33.4,36.8,33.4,36.8c0.1,0.1,0.2,0.1,0.2,0.1C33.5,37,33.5,36.9,33.4,36.8z"/>
	<path fill="#9B9B9B" d="M43.5,15.1c-0.9,0.1-1.9,0.1-2.8-0.3c-0.3-0.4-0.5-0.4-1-0.2c-0.7,0.4-1.1,0.2-1.4-0.3
		c-0.1-0.3-0.1-0.5,0.2-0.6c0.1,0,0.1,0,0.2,0c0.7,0.2,1.4,0.1,2.1,0.1c0.2,0,0.4,0,0.6-0.1c1.2,0,2.3,0.2,3.5,0.1
		c0.1,0.3,0.3,0.4,0.7,0.5c0.6,0.1,0.7,0.5,0.4,0.9c-0.6,0-1.1-0.1-1.7-0.1C44,14.9,43.8,14.9,43.5,15.1z"/>
	<path fill="#868686" d="M49.7,36.8c-1.9-0.1-3.8-0.1-5.6-0.1c-0.1,0.2,0.1,0.2,0.2,0.3c0.3,0.1,0.4,0.7,1.1,1.1c0,0,0,0,0,0
		c0.1,0,0.3,0,0.4,0c0,0,0,0,0.1,0c0.1,0,0.2,0,0.4,0c0.1-0.1,0.4-0.2,0.5,0c0.8,0.2,1.5,0.1,2.3-0.1c0.2-0.4,0.3-0.6,0.7-0.9
		C49.9,37,49.8,36.9,49.7,36.8z"/>
	<path fill="#747474" d="M14.5,27c0.1,0,0.1,0,0.2,0c0.2,0,0.4,0,0.6,0c0,0,0-0.1,0-0.1c0.1-0.2-0.3-0.5,0-0.7
		c0.1-0.1,0.4-0.1,0.3-0.4c0-0.2-0.3-0.2-0.4-0.3c-0.3-0.1-0.7-0.1-0.8-0.1c-0.5,0.1-1.8-0.1-2-0.3c-0.1-0.1-0.2,0-0.3,0
		c-0.1,0-0.2,0.2-0.3,0.2c0,0,0,0-0.1,0c-0.2-0.1-0.6-0.7-0.6-0.8c0,0-0.1-0.1-0.2-0.2c-0.1-0.1-0.1-0.2-0.1-0.2c0,0,0-0.1,0-0.1
		c0-0.1,0-0.1,0-0.2c0-0.1,0-0.1,0.1-0.2c0,0,0.3-1-0.2-1.4c-0.1,0-0.2,0.1-0.3,0.2c0,0.1,0,0.1,0,0.2c0,0.6,0.2,1.3,0,1.9
		c0.1,0.3,0.2,0.7,0.5,0.9c0.4,0.3,0.6,0.8,0.7,1.3c0.2,0.3,0.4,0.6,0.5,1c0.1,0.1,0.2,0.1,0.3,0.1c0.1-0.1,0.1-0.1,0.2-0.1
		c0,0,0,0,0,0c0,0,0,0,0,0c0,0-0.1,0-0.1,0c0,0,0-0.1-0.1-0.1c0,0,0,0,0,0c0,0,0,0,0,0c0,0,0,0,0,0c0,0,0,0,0,0c0,0,0,0,0,0
		c0,0,0,0,0,0c0,0,0,0,0,0c0,0,0,0,0,0c0,0,0-0.1,0-0.1c0,0,0,0,0.1,0c0,0,0,0,0,0c0,0,0,0,0,0c0,0,0,0,0,0c0,0,0,0,0,0c0,0,0,0,0,0
		c0,0,0,0,0,0c0,0,0,0,0,0c0,0,0,0,0,0c0,0,0,0,0-0.1c0,0,0.1,0,0.1,0c0,0,0,0,0,0c0.1-0.1,0.1-0.1,0.2-0.2c0.1-0.1,0.2-0.1,0.3-0.1
		c0.1,0,0.2,0,0.2,0c0,0,0,0,0,0C13.9,26.8,14.2,26.5,14.5,27C14.4,27,14.4,27,14.5,27z"/>
	<path fill="#8A8A8A" d="M6.4,23.9c0-0.2,0-0.5,0-0.7c0-0.2-0.1-0.5-0.1-0.7c0-0.2,0-0.4,0.1-0.6c0.1-0.1,0.2-0.2,0.3-0.3
		c0.1-0.1,0.2-0.2,0.4-0.4c0.1-0.1,0.2-0.2,0.4-0.3c0.2-0.1,0.4,0,0.6,0.1c0.1,0.1,0.3,0.1,0.4,0.2c0,0,0.1,0,0.1,0c0,0,0.1,0,0,0.1
		c0.2-0.1,0.3-0.2,0.3-0.4c0-0.4,0.3-0.4,0.5-0.6c0,0,0.1-0.1,0.1-0.2c-0.6-0.7-1.4-0.6-2.1-0.5c-0.1,0.1-0.1,0.2-0.1,0.3
		c-0.2,0.3-0.5,0.5-0.7,0.7c-0.4,0.3-0.3,0.9-0.7,1.2c0,0,0,0.1,0,0.1c0,0,0,0,0-0.1c-0.1-0.2-0.1-0.3-0.3-0.2
		c-0.2,0.4-0.2,0.9-0.1,1.3c0.1,0.6-0.3,1.1,0,1.7c0.2,0.1,0.3,0.4,0.6,0.2c0.1-0.3,0.2-0.5,0.5-0.5C6.4,24.1,6.4,24,6.4,23.9z
		 M5.8,22.1C5.8,22.1,5.8,22.1,5.8,22.1C5.8,22.1,5.8,22.1,5.8,22.1z"/>
	<path fill="#717171" d="M57.3,15.6c-0.6,0.1-1.1,0.2-1.7,0c-0.6-0.2-1.2,0.2-1.8,0.1c-0.3,0-0.5,0-0.7-0.1
		c-0.2-0.1-0.3-0.2-0.2-0.4c0.1-0.2,0.2-0.3,0.4-0.3c0.5,0.1,0.8-0.2,1.1-0.5c0.7-0.2,1.4-0.2,2-0.2c0.6,0,1.1,0.2,1.7,0.1
		c0,0,0,0,0,0.1c0,0.4-0.3,0.3-0.5,0.3c-0.3,0.1-0.2,0.3-0.1,0.5C57.5,15.3,57.4,15.4,57.3,15.6z"/>
	<path fill="#6E6E6E" d="M20.3,25.5c-0.2-0.2-0.5,0.3-0.7,0c-0.8-0.2-1.6,0-2.4,0c-0.1-0.1-0.2,0-0.3,0c-1.1,0-1.1,0-1.2,1
		c0,0.1,0,0.1,0,0.2c0,0.1,0,0.1,0,0.2c0,0,0.1,0.1,0.1,0.1c0,0,0.1,0,0.1,0c0,0,0,0,0,0c0.1,0,0.3,0,0.4,0c0.1,0,0.1,0,0.2,0
		c0.6,0,1.3,0,1.9,0c0.3,0,0.6,0,1,0c0.2,0,0.3,0,0.5,0c0.1,0,0.3,0,0.4-0.1c0.1-0.2,0.2-0.3,0.3-0.4C20.9,26,20.8,25.8,20.3,25.5z"
		/>
	<path fill="#919191" d="M38.6,13.8c0,0.7,0.3,0.9,0.9,0.7c0.2-0.1,0.4-0.1,0.6-0.2c0.4-0.1,0.6,0.1,0.6,0.6
		c-0.8-0.1-1.5,0.3-2.3,0.2c-0.4,0-0.2,0.3-0.1,0.4c0.1,0.3,0.3,0.9,0.1,1.2c-0.2,0.2-0.3,0-0.5-0.3c-0.3-0.5-0.8-1-1.1-1.6
		c0.2-0.1,0.1-0.3,0.1-0.4c0-0.4,0.2-0.7,0.5-0.9C37.8,13.8,38.2,13.5,38.6,13.8z"/>
	<path fill="#929292" d="M46,15.3c-0.1-0.4-0.3-0.7-0.7-0.5c-0.4,0.1-0.4-0.1-0.6-0.3c-0.2-0.3,0-0.4,0.2-0.5c1,0,2.1-0.1,3.1,0.2
		c0.3,0.1,0.6,0.1,0.8,0c0.1,0,0.2,0.1,0.2,0.1c0,0,0,0,0,0c0.3,0.1,0.8,0.1,0.6,0.6c-0.2,0.4-0.7,0.3-0.9,0.2
		c-0.6-0.3-1-0.1-1.4,0.3C46.9,15.4,46.5,15.4,46,15.3C46,15.3,46,15.3,46,15.3z"/>
	<path fill="#7C7C7C" d="M8.3,27.9c-0.2-0.1-0.3-0.2-0.5-0.3c-0.1-0.1-0.1-0.1-0.1-0.2c0,0,0-0.1,0-0.1c0-0.1,0-0.1-0.1-0.1
		c-0.1-0.2-0.1-0.4-0.2-0.6c0-0.1-0.1-0.2-0.1-0.3c0-0.1,0-0.2-0.1-0.3c0-0.1-0.1-0.2-0.2-0.3C7.1,25.4,7,25.3,7,25.2
		C7,25.1,7,25,6.9,25c0-0.1-0.1-0.1-0.2-0.2c-0.1-0.1-0.2-0.2-0.3-0.4c0-0.1-0.1-0.2-0.1-0.3c0-0.1-0.1-0.2-0.3,0
		c-0.2,0.2-0.3,0.4-0.3,0.7c0.1,0.2,0,0.6,0.3,0.8c0,0,0,0.1,0,0.1c0.1,0.2,0.1,0.3,0.1,0.5c0.1,0.3-0.1,0.8,0.3,1
		c0.3,0.2,0.2,0.4,0.3,0.6c0.2,0.3,0.2,0.7,0.6,0.8c0.7,0.3,1,0.2,1-0.6C8.4,27.9,8.3,27.9,8.3,27.9z"/>
	<path fill="#8E8E8E" d="M49.1,38c0-0.1,0.1-0.2,0.1-0.3c0-0.4,0.1-0.7,0.5-0.9c0.2,0,0.5,0,0.7-0.1c0.3-0.3,0.6,0,0.8-0.1
		c0.5-0.1,1-0.2,1.5,0c0.4,0.2,0.6,0.5,1.1,0.7c0.4,0.1,0.1,0.5,0,0.7c-0.5,0.1-0.9,0-1.4,0c-0.5,0-0.4-0.1-0.7,0.2
		c-0.2,0-0.4,0.2-0.6,0c-0.1-0.5-0.7-0.3-1.1-0.2c-0.2,0.1-0.3,0-0.5,0.1C49.3,38.1,49.2,38.1,49.1,38z"/>
	<path fill="#585858" d="M22.4,25.5c0.2-0.4,0.6-0.3,0.9-0.3c0.4,0,0.8-0.1,1.2-0.1c0.1,0.1,0.2,0.2,0.1,0.4
		c-0.2,0.3,0.1,0.1,0.1,0.1c0.1,0.1,0.2,0.2,0.3,0.3c0,0.5-0.2,0.7-0.7,0.7c-0.3,0-0.7,0.1-1,0c-0.3-0.1-0.2,0.1-0.5,0.1
		c-0.1,0-0.2,0.1-0.3,0.1c-0.1,0-0.3,0.1-0.5,0.1c-0.4-0.1-0.6-0.5-1-0.4c-0.2,0-0.3,0-0.3-0.2c0-0.2,0.1-0.3,0.2-0.4
		C21.2,25.7,21.8,25.7,22.4,25.5z"/>
	<path fill="#656565" d="M30.9,33.8c-0.4,0.2-0.7,0.2-1.1,0.1c-0.1,0-0.2,0-0.2,0.1c-0.2,0-0.5,0-0.7,0c-0.5-0.1-0.1-0.4-0.2-0.7
		c-0.2-0.7,0.4-0.6,0.8-0.8c0.5-0.2,0.9-0.1,1.5,0c0.2,0.3,0.6,0.2,0.7,0.6C31.5,33.5,30.9,33.4,30.9,33.8z"/>
	<path fill="#7C7C7C" d="M45.1,37.6c-0.1-0.6-0.4-0.9-1-0.9c0,0,0,0-0.1,0c-0.2,0-0.3,0-0.5,0c-0.1,0.1-0.3,0.2,0,0.3c0,0,0,0.1,0,0
		c-0.2-0.1-0.1-0.2-0.2-0.3c-0.3,0-0.6,0-0.8,0c0.5,0.4,0.9,0.7,1.1,1.3c0,0.1,0.1,0.1,0.2,0.2c0,0,0.1,0,0.1,0c0.3,0,0.6,0,0.9,0
		c0.1-0.1,0.2-0.1,0.2-0.2c0.3-0.1,0.7,0.1,1-0.2C45.7,37.6,45.2,38,45.1,37.6z"/>
	<path fill="#838383" d="M47.4,15.4c0.1-0.7,0.7-1,1.3-0.6c0.3,0.2,0.5,0,0.8,0.1c0-0.3-0.3-0.4-0.4-0.6c0.4,0,0.7-0.2,1.1,0
		c0.6,0.3,0.6,0.4,0.1,1.1c-0.6,0-1.1,0.3-1.7-0.1c-0.2-0.1-0.4,0-0.6,0C47.8,15.4,47.6,15.5,47.4,15.4z"/>
	<path fill="#646464" d="M31.5,33.2c-0.2-0.2-0.6-0.4-0.8-0.6c0.6-0.2,1.5-0.1,2.1-0.1c0.2,0.5,0.6,0.9,0.6,1.4
		c-0.5-0.3-1.1-0.1-1.7-0.1C31.5,33.8,31.5,33.8,31.5,33.2C31.5,33.3,31.5,33.3,31.5,33.2z"/>
	<path fill="#696969" d="M22.4,25.5c-0.3,0.8-1.1,0.4-1.7,0.7c0.6-0.2,1.1,0.2,1.6,0.5c0,0.1,0,0.2-0.1,0.2c-0.6,0-1.4,0-2.1,0
		c-0.1,0-0.4-0.3-0.2-0.4c0.4-0.1,0.2-0.6,0.5-0.7c0,0-0.1-0.1-0.1-0.1c0-0.1,0.2-0.1,0.2-0.2C21.2,25.3,21.8,25.2,22.4,25.5z"/>
	<path fill="#898989" d="M54.4,14.4c0,0.6-0.3,0.9-0.9,0.8c-0.3-0.1-0.5,0.1-0.4,0.4c-0.2,0.1-0.4,0.2-0.6-0.2
		c-0.1-0.2-0.2,0-0.2,0.2c0,0-0.1,0-0.1,0c-0.3-0.2-0.7-0.1-1-0.2c-0.2-0.2-0.2-0.4,0.1-0.5c0.2-0.1,0.2-0.2,0.3-0.3
		c0.3-0.1,0.6,0.2,0.8-0.1c0.1,0,0.1,0,0.2,0c0.3,0,0.6,0,0.9,0c0,0,0.1,0,0.1-0.1C53.8,14.4,54.1,14.5,54.4,14.4z"/>
	<path fill="#A0A0A0" d="M7.4,19.8c0.2-0.1,0.4-0.1,0.6,0.1c0.1,0.1,0.1,0.3,0,0.4c-0.2,0.2-0.4,0.2-0.6,0.1
		c-0.4-0.2-0.5,0.1-0.7,0.4c-0.3,0.4-0.3,0.9-0.8,1c-0.3-0.2-0.1-0.5-0.1-0.7c0.2-0.2,0.4-0.5,0.6-0.7C6.6,20,6.8,19.6,7.4,19.8z"/>
	<path fill="#747474" d="M25.1,34.1c-0.3,0-0.6,0.2-0.9,0.1c-0.4-0.4-0.6-0.8-0.5-1.3c0.6,0,0.9,0,1.8,0c0,0.1,0.1,0.1,0.1,0.2
		c0,0.3-0.2,0.5-0.2,0.8C25.4,33.9,25.4,34.1,25.1,34.1z"/>
	<path fill="#757575" d="M27.6,35.5c-0.1,0.2,0.1,0.3,0.2,0.4c-0.3,0.3-1.3,0.4-1.6,0.1c-0.4-0.4-0.7-0.4-1.2-0.1
		C24.9,36,24.7,36,24.5,36c-0.2-0.1-0.2-0.3-0.3-0.4c0-0.3,0.1-0.5,0.4-0.7C25.7,34.9,26.7,35.1,27.6,35.5z"/>
	<path fill="#727272" d="M23.8,34.3c0,0.2,0.2,0.2,0.3,0.3c-0.1,0.5,0.1,1-0.3,1.4c-0.1,0.1-0.2,0.1-0.3,0c-0.4-0.6-1-1-1.1-1.8
		c0.1-0.3,0.4-0.3,0.6-0.5c0.3,0,0.4-0.3,0.7-0.3C23.8,33.7,24,34,23.8,34.3z"/>
	<path fill="#636363" d="M29.4,32.7C29,33,28.7,33.4,28.8,34c-0.1,0-0.3,0-0.4,0c-0.2,0.1-0.4,0-0.6,0c-0.2-0.1-0.2-0.3-0.2-0.4
		c0-0.1,0-0.3-0.1-0.4c-0.2-0.3,0-0.4,0.3-0.5C28.4,32.8,28.7,32.7,29.4,32.7z"/>
	<path fill="#585858" d="M23.8,35.9c0-0.4-0.4-0.9,0.3-1.2c0.2,0,0.4,0,0.6,0.2c0.1,0.1,0.3,0.2,0.3,0.4c-0.1,0.2-0.3,0.2-0.5,0.2
		C24.4,36.2,24.3,36.2,23.8,35.9C23.8,35.9,23.8,35.9,23.8,35.9z"/>
	<path fill="#767676" d="M27.7,34.1c0.2,0,0.4,0,0.6,0c-0.9,0.2-1.8,0.2-2.7,0c-0.2-0.1-0.4,0.1-0.6,0c0.2-0.3-0.4-0.8,0.3-1
		c0.1-0.1,0.3-0.2,0.4-0.1c0.2,0.3,0.7,0.3,0.9,0.7c0.1,0.2,0.3,0.1,0.4,0.1C27.3,33.9,27.6,33.8,27.7,34.1z"/>
	<path fill="#868686" d="M9.3,20C9.3,20,9.3,20,9.3,20c0.3,0.6,0.8,0.9,0.9,1.6c-0.1,0.1,0,0.3-0.2,0.4c-0.1,0-0.1,0-0.2,0
		c-0.2-0.1-0.4-0.1-0.6-0.1c-0.2-0.1-0.3-0.2-0.3-0.3C9,21.3,9,21,8.8,20.7C8.5,20.2,9.1,20.3,9.3,20z"/>
	<path fill="#6C6C6C" d="M24.5,25.7c-0.3,0.1-0.5,0.5-0.8,0.1c-0.1-0.1-0.1-0.2-0.1-0.3c0-0.1,0.1-0.1,0.2-0.1
		c0.4,0.2,0.4-0.1,0.5-0.4c0.5-0.2,0.9,0.1,1.3,0.1c0.1,0.1,0.2,0.2,0.1,0.4c-0.2,0.4-0.5,0.6-0.9,0.2
		C24.9,25.7,24.7,25.7,24.5,25.7z"/>
	<path fill="#969696" d="M51.6,14.6c0.1,0.4-0.5,0.4-0.5,0.7c0,0,0,0.1,0,0.1c-0.1,0-0.2-0.1-0.2-0.1c-0.2-0.1-0.3,0.1-0.4,0.1
		c-0.1,0-0.2-0.1-0.2-0.1c-0.1-0.2-0.1-0.4,0.1-0.6c-0.1-0.2-0.4,0.1-0.5-0.1c-0.1-0.3,0.3-0.2,0.3-0.3c0,0,0-0.1-0.1-0.2
		c0.4,0.1,0.9-0.1,1.3,0.1c0,0-0.1,0.1-0.1,0.1c0,0,0.1,0,0.1-0.1c0.1,0,0.1,0,0.2,0c0,0,0,0,0.1,0.1C51.8,14.5,51.7,14.6,51.6,14.6
		z"/>
	<path fill="#949494" d="M6.2,25.6c0.2,0.4,0.8,0.7,0.4,1.3c0,0.1,0.1,0.2,0.2,0.2c0.8,0,0.3,0.3,0.1,0.6c0,0,0,0.1-0.1,0.1
		c-0.1-0.2-0.2-0.4-0.4-0.6C6,26.7,6.1,26.1,6.2,25.6z"/>
	<path fill="#6D6D6D" d="M27.5,25.2c-0.1,0-0.1,0.1-0.1,0.1c0.2,0.4-0.2,0.9,0.1,1.2c-0.1,0.2-0.2,0.2-0.4,0.1
		c-0.1-0.1-0.2-0.2-0.4-0.2c-0.4,0.1-0.5-0.2-0.7-0.5c0-0.4,0.1-0.7,0.5-0.8C26.9,25.2,27.2,25.2,27.5,25.2z"/>
	<path fill="#7B7B7B" d="M5.7,21c0.2,0.2,0.2,0.5,0.1,0.7C6,22.1,5.9,22.6,6.1,23c0.1,0.2,0,0.3-0.2,0.4c-0.2,0-0.3-0.1-0.3-0.3
		c0-0.3,0-0.5,0-0.8c0.1-0.3,0-0.5-0.2-0.7C5.4,21.3,5.5,21.2,5.7,21z"/>
	<path fill="#7F7F7F" d="M17.2,25.5c-0.4,0-0.8-0.1-1.1,0.1c-0.4,0.2,0,0.7-0.2,1c-0.3-0.1-0.6-0.2-0.7-0.6c0-0.1,0.2-0.2,0.3-0.2
		c-0.3-0.4-0.8-0.2-1.1-0.4C15.4,25.6,16.3,25.3,17.2,25.5z"/>
	<path fill="#919191" d="M41.4,13.8c-0.5,0.4-2.2,0.4-2.6,0c0.6-0.2,1.2,0.1,1.8,0C40.8,13.8,41.1,13.8,41.4,13.8z"/>
	<path fill="#4B4B4B" d="M33.8,34.5c0.1-0.3,0.3-0.6,0.8-0.6c-0.5,0.5-0.4,1-0.5,1.5C33.6,35.4,33.5,35.3,33.8,34.5z"/>
	<path fill="#808080" d="M37.5,13.5c0.1,0.2-0.4,0.5,0.1,0.7c-0.2,0.2-0.5,0.4-0.7,0.6C36.7,14.1,36.9,13.6,37.5,13.5z"/>
	<path fill="#888888" d="M26.6,25.1c-0.2,0.2-0.1,0.6-0.3,0.8c0.1,0.2,0,0.3-0.1,0.3c-0.2,0-0.3,0-0.3-0.2c-0.1-0.2,0-0.3,0-0.5
		c0-0.1,0-0.2,0-0.3C26,25.1,26.3,25,26.6,25.1z"/>
	<path fill="#929292" d="M43.5,15.1c-0.1-0.1-0.4,0-0.4-0.3c0-0.2,0.2-0.3,0.4-0.1c0.1,0.1,0.3,0.1,0.4,0c0.1-0.1,0.2-0.2,0.3-0.1
		c0.1,0.2,0.1,0.3-0.1,0.5C44,15.1,43.8,15.1,43.5,15.1z"/>
	<path fill="#858585" d="M7.4,19.8c-0.4,0.1-0.7,0.4-1.1,0.5c0.2-0.5,0.5-0.7,1-0.7C7.3,19.6,7.3,19.7,7.4,19.8z"/>
	<path fill="#646464" d="M30.9,33.8c-0.2-0.1-0.2-0.2-0.1-0.4c0.2-0.4,0.5-0.2,0.7-0.2c0.1,0.6,0.1,0.6-0.4,0.6
		C31,33.8,31,33.8,30.9,33.8z"/>
	<path fill="#4B4B4B" d="M34.5,35.5c-0.1-0.3,0.2-0.6,0.2-0.9c0-0.1,0.1-0.2,0.2-0.1c0.2,0.1,0.1,0.2,0.2,0.4
		C34.9,35.1,35,35.6,34.5,35.5z"/>
	<path fill="#9C9C9C" d="M5.8,24.7c0.2-0.1,0.6-0.3,0.4,0.2c-0.1,0.2-0.1,0.3,0,0.5c-0.5-0.1-0.6-0.5-0.8-0.9
		C5.5,24.6,5.6,24.7,5.8,24.7z"/>
	<path fill="#979797" d="M43.6,36.7c0.1,0.5,0.6,0.1,0.8,0.4c-0.4,0.2-0.7,0.2-1.1,0c-0.2-0.1-0.1-0.3,0-0.4
		C43.4,36.7,43.5,36.7,43.6,36.7z"/>
	<path fill="#9F9F9F" d="M23.8,34.3c-0.1-0.3-0.1-0.6-0.2-0.9c0,0-0.1,0-0.1-0.1c-0.1-0.2-0.1-0.3,0-0.5c0.1,0,0.2,0,0.3,0
		c0,0.4,0.4,0.8,0.4,1.2C24,34.2,23.9,34.3,23.8,34.3z"/>
	<path fill="#828282" d="M34.8,36.7c0-0.2,0-0.3,0-0.5c0.2-0.2,0.5-0.1,0.7,0c0.1,0.1,0.3,0.1,0,0.3c-0.2,0.1-0.1,0.2,0,0.3
		c0,0,0,0.1-0.1,0.1C35.2,37.1,35,37.1,34.8,36.7z"/>
	<path fill="#555555" d="M20.6,25.4c0,0.1,0.1,0.2,0.1,0.2c-0.1,0.1-0.2,0.1-0.4,0.1c-0.2,0-0.4,0.1-0.6,0.1c-0.2,0-0.2-0.1-0.1-0.2
		C19.9,25.4,20.2,25.3,20.6,25.4z"/>
	<path fill="#5D5D5D" d="M10,21.8c0.1-0.1,0.2-0.1,0.2-0.2c0.2,0.2,0.4,0.5,0.6,0.7c0,0.1-0.1,0.2-0.1,0.2
		C10.1,22.6,9.8,22.4,10,21.8z"/>
	<path fill="#7E7E7E" d="M30.5,25.3c-0.1,0.3-0.2,0.5-0.6,0.4c-0.4-0.1,0.1-0.4-0.2-0.5C30.1,25.1,30.2,25.4,30.5,25.3z"/>
	<path fill="#797979" d="M48.9,14.2c-0.3,0.3-0.6,0.3-0.8,0C48.3,14,48.6,14.1,48.9,14.2z"/>
	<path fill="#555555" d="M34.6,19.8c0.3,0.2,0.3,0.5,0.3,0.8c0,0.1,0,0.2-0.1,0.3c-0.1,0-0.2-0.1-0.3-0.2
		C34.6,20.3,34.8,20.1,34.6,19.8z"/>
	<path fill="#4F4F4F" d="M34.6,20.6c0,0.5,0.3,1-0.2,1.4C34.6,21.6,34.4,21.1,34.6,20.6z"/>
	<path fill="#656565" d="M31.1,33.8c0.4,0,0.3-0.4,0.4-0.6c0.2,0.2,0.6,0.2,0.2,0.6C31.5,33.9,31.3,34,31.1,33.8z"/>
	<path fill="#4E4E4E" d="M29.6,34.1c-0.1,0-0.1-0.1-0.2-0.1c-0.2-0.1-0.1-0.3,0-0.4c0.2-0.2,0.2,0,0.3,0.1c0.1,0.1,0.1,0.2,0.2,0.2
		C29.7,34,29.6,34,29.6,34.1z"/>
	<path fill="#969696" d="M52.6,14.6c0,0-0.1,0-0.1,0c-0.3,0-0.5,0-0.7-0.2c0,0,0,0,0,0c0.6-0.2,1.2-0.1,1.8,0c0,0,0,0.1,0,0.1
		C53.3,14.6,52.9,14.5,52.6,14.6z"/>
	<path fill="#939393" d="M87.5,35c-0.1-0.1-0.2-0.1-0.2-0.1c0,0,0,0,0,0c-0.1,0.1-0.2,0.2-0.3,0.3c-0.1,0.1-0.1,0.1-0.2,0.2
		c-0.1,0-0.2,0.1-0.2,0.1c-0.1,0.1-0.2,0.2-0.4,0.3c-0.1,0.1-0.2,0.2-0.4,0.2c-0.1,0.1-0.3,0.1-0.4,0.2c-0.1,0.1-0.2,0.2-0.3,0.3
		c-0.1,0.1-0.2,0.2-0.3,0.2c-0.1,0-0.1,0.1-0.2,0.1c-0.1,0-0.1,0.1-0.2,0.1c-0.1,0-0.1,0.1-0.2,0.1c-0.1,0-0.1,0-0.2,0.1
		c0,0,0,0-0.1,0c-0.1,0.2-0.3,0.3-0.5,0.5c-0.1,0.1-0.3,0.1-0.5,0.1c-0.1,0-0.2,0-0.3,0c-0.1,0-0.2,0-0.3,0c0,0,0,0,0,0
		c-0.1,0.1-0.2,0.1-0.3,0.2c-0.2,0.1-0.3,0.1-0.5,0.2c-0.2,0.1-0.3,0.2-0.5,0.2c-0.2,0.1-0.4,0.1-0.6,0.1c-0.2,0-0.3,0.1-0.5,0.1
		c-0.2,0-0.3,0-0.5,0c-0.3,0-0.7,0.2-1,0.2c-0.1,0-0.2,0-0.3,0c-0.1,0-0.1,0.1-0.2,0.1C78,39,77.9,39,77.8,39c-0.1,0-0.2,0-0.2,0
		c-0.1,0-0.1,0.1-0.1,0.1c-0.1,0.1-0.3,0.1-0.4,0.1c-0.2,0-0.3,0-0.5,0.1c-0.2,0.1-0.3,0.1-0.5,0.2c-0.1,0-0.2,0-0.2,0.1
		c-0.1,0-0.2,0-0.2,0c-0.2,0-0.3,0.1-0.5,0.1c-0.1,0-0.2,0-0.3,0c-0.1,0-0.2,0-0.3,0c-0.2,0-0.3,0.1-0.5,0.1c-0.1,0-0.2,0-0.3,0.1
		c-0.1,0-0.1,0.1-0.2,0.1c-0.1,0-0.1,0-0.2,0c0,0,0,0,0,0c-0.2,0,0.3,0.3-0.1,0.2c-0.2,0-0.5,0-0.7,0.1c-0.3,0.1-0.4,0-0.6-0.2
		c0,0-0.1,0-0.1,0c0,0,0,0,0,0c0,0,0,0,0,0c-0.2,0-0.4,0-0.6,0.1c-0.2,0.3-0.3,0.6-0.1,0.9c0.2,0.3,0.7,0.4,1.1,0.2
		c0.3-0.1,0.6-0.1,0.8,0.1c0.7,0.2,1.3-0.3,1.9-0.4c0.3-0.5,0.4-0.5,0.9-0.1c0.6-0.1,1.1-0.2,1.7-0.4c0.5-0.2,1,0.1,1.4-0.2
		c0.8-0.2,1.6-0.6,2.5-0.7c1.7-0.1,3.1-0.9,4.4-2c0-0.1,0-0.1,0.1-0.2c0-0.1,0.1-0.1,0.1-0.1c0.2-0.1,0.3-0.2,0.4-0.4
		c0.3-0.3,0.5-0.6,0.9-0.8C87.9,35.9,87.9,35.6,87.5,35z"/>
	<path fill="#4E4E4E" d="M94.2,21.4c-0.4,0.3-1,0.4-1.3,0.9c-0.1,0.1-0.3,0.2-0.2,0.4c0.2,0.5,0.2,1-0.1,1.5c0.1,0.4-0.3,0.6-0.4,1
		c-0.3,0.3-0.3,0.8-0.7,1c-0.1,0-0.1,0.1-0.1,0.1c-0.1,0.2,0,0.4-0.2,0.6c-0.3,0.9-0.1,1.6,0.6,2c0,0,0.1-0.1,0.1-0.1
		c0.2-0.1,0.3-0.3,0.3-0.4c0.1-0.2,0.2-0.3,0.3-0.5c0.1-0.1,0.2-0.3,0.3-0.4C93,27.1,93,27,93,26.8c0-0.2,0.1-0.4,0.2-0.5
		c0-0.1,0.1-0.1,0.1-0.2c0-0.1,0.1-0.2,0.1-0.3c0-0.1,0-0.2,0.1-0.3c0-0.1,0.1-0.2,0.1-0.2c0.2-0.3,0.3-0.7,0.3-1.1c0,0,0,0,0,0
		c-0.1-0.3-0.1-0.7,0.2-0.9c0.1-0.1,0.1-0.2,0.3-0.3c0.4-0.4,0.2-0.7,0.4-1.1C95,21.5,94.7,21.3,94.2,21.4z"/>
	<path fill="#939393" d="M69.3,40.6c-0.1,0-0.2,0-0.3,0c0,0-0.1,0-0.1,0c0,0,0,0,0,0c0,0,0,0,0,0c-0.1,0-0.2,0-0.3,0
		c-0.1,0-0.2,0.1-0.4,0.1c-0.5,0.2-1.1,0.1-1.6,0.2c0,0,0,0,0,0c-0.1,0.1-0.2,0.2-0.2,0.4c0,0.1-0.1,0.1-0.1,0.2c0-0.1,0-0.3,0-0.5
		c-0.1-0.2-0.3,0.1-0.4,0.1c-0.9,0.2-1.5,0-2.3,0.2c-0.1,0-0.7,0-0.6,0.1c0.1,0.4-0.2,0.5-0.5,0.5c-0.3,0-0.7,0.5-1,0
		c-0.2-0.1-0.3-0.1-0.5,0c-0.1,0.3-0.5,0.3-0.4,0.7c1.8,0.2,3.7,0.1,5.5-0.1c0.5,0,1-0.3,1.5-0.4c0.5-0.4,1-0.5,1.6-0.2
		c0.6,0.3,0.9,0,0.9-0.7C69.8,40.9,69.6,40.7,69.3,40.6z"/>
	<path fill="#939393" d="M65.8,41.8c0.2,0,0.3,0,0.4-0.1C66.1,41.8,65.9,41.8,65.8,41.8z"/>
	<path fill="#595959" d="M59.8,19.7c-0.1-0.7,0-1.4,0-2.1c-0.1-0.3-0.2-0.5-0.1-0.9c0.1-0.2,0-0.6-0.1-0.8c-0.2-0.4-0.1-0.7,0.2-1
		c0.3,0,0.5,0.1,0.8,0.2c0.3,0.7,0.2,1.5,0.3,2.2c0,0.1,0,0.3,0.1,0.4l0,0c-0.1,0.4,0.2,0.7,0.1,1.1c0,0.8-0.1,1.6-0.1,2.3
		c0,0.6,0,1.2,0,1.8c-0.1,0.1-0.1,0.2-0.1,0.2c-0.5,0.1-0.8-0.1-0.7-0.7c0.1-0.9-0.3-1.7-0.1-2.5C59.9,19.9,59.9,19.8,59.8,19.7z"/>
	<path fill="#898989" d="M76.9,26.4c0.2,0,0.4,0,0.6,0c0.5,0.9,0.3,1.3-0.6,1.4c-0.6,0.1-1.2,0.2-1.8,0.3c-0.2,0-0.5,0-0.7,0
		c-0.4,0-0.7,0-1-0.4c-0.1-0.1-0.3-0.2-0.4-0.2c-0.4,0-0.5-0.2-0.5-0.5c0-0.2-0.1-0.3-0.1-0.5c0-0.1,0.1-0.1,0.1-0.1
		c0.2,0,0.5-0.1,0.7-0.1C74.5,26.5,75.7,26.4,76.9,26.4z"/>
	<path fill="#898989" d="M72.1,40.9c-0.3,0.1-0.6,0.2-0.8,0c-0.3-0.2,0.2-0.4,0.1-0.6c-0.2-0.1-0.3-0.2-0.5,0
		c-0.1,0.1,0,0.2-0.1,0.3c0-0.1,0-0.1-0.1-0.2c0,0-0.1-0.1-0.1-0.1c0,0,0,0,0,0c-0.3,0-0.6,0.1-0.9,0.1c-0.2,0.1-0.5,0.1-0.7,0.1
		c0,0,0,0.1,0,0.2c0.5,0.1,0.6,0.5,0.5,0.9c-0.1,0.2-0.2,0.2-0.3,0.1c-0.1,0-0.2-0.1-0.1-0.3c0.1-0.1,0.1-0.4-0.1-0.3
		c-0.5,0.3-1,0.2-1.5,0.4c-0.3,0.1-0.3,0.3-0.2,0.5c0,0-0.4,0.1-0.3,0.1c0.3,0.2,0.8,0.2,1.4,0c0.2-0.1,0.4-0.2,0.7-0.1l0.1,0
		c0,0,0,0,0,0c0.1,0,0.3,0,0.4-0.1c0.1,0,0.3,0,0.4,0c0.2-0.1,0.5-0.2,0.7-0.1c0.1-0.1,0.2-0.1,0.4-0.1c0.1,0,0.3,0,0.4,0
		c0,0,0,0,0,0c0.1,0,0.1,0,0.2,0c0.1,0,0.2-0.1,0.3-0.1c0.3-0.1,0.6-0.2,1-0.3c0-0.2,0.3-0.3,0.3-0.6C72.9,40.7,72.5,40.8,72.1,40.9
		z"/>
	<path fill="#898989" d="M70.6,40.8c0.1,0,0.2,0,0.2-0.1C70.8,40.8,70.8,40.8,70.6,40.8z"/>
	<path fill="#747474" d="M65.1,26.6c0.5,0,1,0.1,1.5,0c0.2-0.1,0.4,0,0.5,0c0.1,0,0.4-0.1,0.4,0.1c0,0.3-0.2,0.3-0.4,0.3
		c0.1,0,0.2,0,0.3,0c0.2-0.1,0.4-0.1,0.5,0.1c0.1,0.2,0,0.4-0.1,0.5c-0.2,0.1,0.1,0.2,0,0.4c-0.5,0.3-1.1,0.1-1.6,0.1
		c-0.7,0.1-1.3-0.1-2.1-0.1c-0.5,0-1.6,0.2-2.1,0c-0.2-0.3-0.1-0.5,0.2-0.5c0.6,0,0.8-0.4,1.1-0.8c0,0,0.1,0,0.2,0
		c0.2,0.1,0.4,0.1,0.6,0.1c0.4,0,0.6,0.1,0.5,0.5c0,0,0,0,0,0s0,0,0,0c0.1-0.2,0.2-0.3,0.3-0.5C65,26.6,65,26.6,65.1,26.6z"/>
	<path fill="#9B9B9B" d="M54.6,42.5c-0.4,0-0.8,0-1.2,0c-0.1-0.2-0.2-0.2-0.4-0.2c-0.3,0.1-0.6-0.1-0.6-0.5c0.2-0.2,0.3-0.2,0.4-0.5
		c0.1-0.1,0.4-0.2,0.6-0.2c0.7-0.2,1,0,1.7,0.2c0.1,0,0.7-0.1,0.7-0.1c0.4,0.2,0.6,0,1.1,0c0.4,0.1,0.9,0,1.1,0.5
		c0,0.3-0.2,0.5-0.4,0.4c-0.6-0.2-1.1,0-1.6,0.2C55.5,42.5,55,42.4,54.6,42.5z"/>
	<path fill="#5E5E5E" d="M91.5,26c0,0,0,0.1,0,0.1c-0.6,0.1-0.7,0.5-0.8,1c0,0.1,0.3,0.1,0.1,0.2c-0.2,0.1-0.6,0.1-0.8,0
		c-0.8-0.2-1.6-0.1-2.4-0.1c-0.1-0.1-0.2-0.2-0.2-0.3c0.2-0.3,0.2-0.7,0.4-1C89.1,26,90.3,25.8,91.5,26z"/>
	<path fill="#939393" d="M52.5,41.9c0.2,0.2,0.4,0.2,0.6,0.1c0.2-0.1,0.3-0.2,0.5,0c0.2,0.2,0,0.4-0.1,0.5c-0.3,0-0.6,0.1-1,0.1
		c-0.3-0.1-0.6-0.5-0.9,0c-0.6,0.2-1.2,0.1-1.8,0.1c-0.1,0-0.2,0-0.2,0c-0.3-0.2-0.4-0.5-0.2-0.9c-0.3-0.4,2.6-0.9,3-0.5
		C52.4,41.5,52.5,41.6,52.5,41.9z"/>
	<path fill="#868686" d="M85.8,37.7c0-0.1,0-0.2,0-0.2c0-0.1,0-0.1,0.1-0.1c0.2-0.2,0.4-0.4,0.5-0.6c0.1-0.3,0.3-0.5,0.6-0.6
		c0.5-0.2,0.6-0.5,0.4-0.9c0,0,0,0,0.1-0.1c0.1,0,0.2,0,0.3-0.1c0,0,0.1-0.1,0.1-0.1c0.2-0.3,0.5-0.4,0.9-0.4
		c0.2,0.2,0.6,0.2,0.4,0.7C88.3,36.4,87,36.9,85.8,37.7z"/>
	<path fill="#8A8A8A" d="M54.6,42.5c0-0.3,0.6-0.1,0.3-0.6c0.6,0.6,0.6,0.6,1,0c0.1-0.2,0.3-0.1,0.4-0.1c0.5,0,0.9,0.3,1.3,0.2
		c0.1-0.1,0.2-0.2,0.4-0.2c0,0,0,0,0.1,0c0.3,0,0.7-0.1,0.7,0.3c0,0.4-0.3,0.6-0.8,0.6c-0.9,0.1-1.9-0.1-2.8,0
		C55,42.6,54.8,42.6,54.6,42.5z"/>
	<path fill="#545454" d="M96.9,24c0.1,0.1,0.2,0.2,0.1,0.4c-0.1,0.2-0.1,0.4-0.3,0.6c-0.4,0.3-0.4,0.8-0.5,1.3c0,0,0,0.1,0,0.1
		c-0.6,0.4-0.9,0.3-1.1-0.5c0-0.1,0-0.1,0-0.2c0,0,0-0.1,0-0.1c0.7-0.3,0.8-0.9,0.7-1.6c0-0.1,0-0.1,0-0.2c0.1-0.3,0.2-0.6,0-0.9
		c-0.1-0.3,0-0.4,0.2-0.6c0.1-0.2,0.3-0.4,0.6-0.2c0.1,0.2,0.1,0.4,0.1,0.6C96.7,23.1,96.8,23.5,96.9,24z"/>
	<path fill="#606060" d="M81,26.5c0,0,0.1-0.1,0.1-0.1c1.6,0,3.1-0.1,4.7-0.1c0.2,0.2,0.2,0.4-0.1,0.5c-0.1,0.1-0.3,0.2-0.4,0.2
		c-0.3,0.3-0.7,0.3-1,0.5c-0.1,0.1-0.2,0-0.3,0c-0.5-0.3-1.1-0.4-1.7-0.4c-0.2-0.1-0.4,0.1-0.7,0.1C81.5,26.9,81,27,81,26.5z"/>
	<path fill="#898989" d="M67.2,28c0.1-0.3,0.3-0.5,0.5-0.7c-0.5-0.2-1,0.1-1.6,0.1c0.4-0.4,0.9-0.3,1.2-0.5
		c-0.2-0.2-0.5-0.1-0.7-0.1c0.4-0.2,0.7,0,1.1-0.1c0.4,0.1,0.8-0.1,1.2,0c0.1,0.1,0.3,0.3,0.1,0.4c-0.4,0.3-0.4,0.7-0.5,1.1
		c-0.3,0-0.5,0.2-0.9,0C67.5,28,67.3,28.1,67.2,28z"/>
	<path fill="#8B8B8B" d="M58.1,41.9c-0.1,0-0.2,0-0.4,0c-0.3-0.4-0.7-0.3-1.1-0.5c0-0.1,0-0.1,0-0.2c0.3-0.1,0.5-0.1,0.8,0
		c0.8,0.1,1.5,0.1,2.3,0c0.1,0,0.3,0,0.4,0.1c0.3,0.1,0.3,0.1,0.4,0.4c0,0.2-0.3,0.2-0.1,0.5c0.1,0.3,0,0.6-0.4,0.5
		c-0.2,0-0.3,0-0.3,0.2c-0.3-0.1-0.6,0.1-1,0c-0.3-0.1-0.4-0.2-0.1-0.4c0.2-0.1,0.5-0.2,0.3-0.4C58.7,41.7,58.3,41.6,58.1,41.9z"/>
	<path fill="#888888" d="M91.7,31.3c-0.2-0.2-0.4,0.1-0.6,0.1c-0.1,0-0.2,0.1-0.2,0.1c0,0,0,0,0,0c-0.2,0.1-0.3,0.2-0.5,0.4
		c-0.1,0.1-0.3,0.3-0.4,0.4c-0.1,0.1-0.1,0.2-0.2,0.2c0,0.1-0.1,0.2-0.1,0.2c0,0.1-0.1,0.1-0.1,0.2c0,0,0,0,0,0c0,0,0,0.1,0,0.1
		c0.1,0.2,0.3,0.3,0.1,0.6c-0.2,0.3-0.1,0.6,0.3,0.8c0.3-0.2,0.6-0.5,0.9-0.8c-0.1-0.6,0-1.1,0.6-1.4C91.9,32,92,31.7,91.7,31.3z"/>
	<path fill="#707070" d="M95.3,25.8c0.1,0.5,0.4,0.6,0.9,0.5c0,0.3-0.3,0.4-0.5,0.6c-0.5,0-0.4,0.3-0.4,0.6c0,0.2,0,0.3-0.1,0.5
		c-0.2-0.1-0.3,0.1-0.4,0.1c-0.5,0.3-0.8,0.2-1.1-0.3c0.2-0.8,0.7-1.5,1.3-2C95,25.7,95.1,25.7,95.3,25.8z"/>
	<path fill="#747474" d="M90.8,33.7c-0.5-0.6-0.5-0.8,0.2-1.3c0.3-0.3,0.6-0.6,0.8-0.9c-0.2-0.3-0.1-0.6-0.2-0.9
		c0.1-0.3,0.2-0.4,0.5-0.5c0.4,0.1,0.6,0.2,0.4,0.7c-0.1,0.2,0,0.5,0,0.7c0,0.1,0,0.2,0,0.3c-0.2,0.2-0.3,0.4-0.5,0.6
		c-0.4,0.4-1,0.7-1.1,1.3C90.8,33.6,90.8,33.7,90.8,33.7z"/>
	<path fill="#707070" d="M94.7,22.7c0.2-0.4-0.4-0.5-0.6-0.8c0.2-0.1,0.3,0.1,0.5,0.1c-0.2-0.1,0.1-0.5-0.4-0.6
		c0.3-0.3,0.7-0.2,1.1-0.1c0.1,0.2,0.1,0.4,0.1,0.6c0,0.2,0,0.5,0.2,0.6c0.1,0.3,0.6,0.5,0.3,0.9c-0.1,0-0.1,0.1-0.2,0.1
		C95.3,23.2,95.2,22.8,94.7,22.7z"/>
	<path fill="#686868" d="M93.8,27.8c0.3,0.2,0.6,0,0.9-0.1c0.3-0.1,0.4,0,0.4,0.2c-0.3,0.4-0.6,0.9-1,1.3c-0.1,0.1-0.2,0.3-0.4,0.2
		c-0.3-0.2-0.5-0.5-0.6-0.8C93.3,28.3,93.4,27.9,93.8,27.8z"/>
	<path fill="#717171" d="M93.9,29.4c0.1,0,0.2-0.1,0.4-0.1c0,0.4-0.2,0.7-0.5,0.9c-0.5,0.4-0.9,1-1.3,1.5c0,0-0.1-0.1-0.1-0.1
		c-0.1-0.3-0.1-0.6,0.1-0.8c0.3-0.4,0.3-0.9,0.2-1.4c0.1-0.2,0.2-0.3,0.4-0.3C93.4,29.1,93.5,29.5,93.9,29.4z"/>
	<path fill="#717171" d="M85.2,26.7c0-0.2,0.1-0.2,0.3-0.2c0.2,0,0.3,0,0.3-0.2c0.1,0,0.2,0,0.4,0c0.5,0.1,1-0.2,1.4,0.2
		c0,0.1,0,0.1,0,0.2c-0.2,0.3-0.4,0.8-0.8,1c-0.5,0.3-0.6-0.3-0.7-0.4C85.9,27.1,85.6,26.9,85.2,26.7C85.2,26.8,85.2,26.8,85.2,26.7
		z"/>
	<path fill="#727272" d="M92.9,22.2c0,0.4,0,0.7,0.2,1c0.3,0.6,0.1,0.8-0.4,0.9c0,0.1-0.1,0.1-0.1,0c-0.1-0.2-0.4-0.3-0.5-0.6
		c0-0.2,0-0.5,0.1-0.6c0.2-0.2-0.1-0.2-0.1-0.3C92.3,22.4,92.6,22.3,92.9,22.2z"/>
	<path fill="#777777" d="M89.7,33.1c0.3-0.1,0.5,0.1,0.3,0.4c-0.2,0.3-0.2,0.7-0.1,1c0,0-0.1,0-0.1,0.1c-0.4,0-0.3,0.4-0.5,0.5
		c0,0-0.1,0-0.1,0c-0.1-0.2-0.3-0.3-0.5-0.5c-0.1-0.1-0.2-0.2-0.1-0.3C89,34,89.1,33.4,89.7,33.1C89.6,33.1,89.6,33.1,89.7,33.1z"/>
	<path fill="#989898" d="M58.1,41.9c0-0.4,0.3-0.3,0.5-0.3c0.3,0,0.5,0.1,0.4,0.4c0,0.2,0.1,0.5-0.4,0.5c-0.2,0-0.1,0.1,0,0.2
		c-0.2,0-0.4,0-0.6-0.1c0.2-0.2,0.4-0.4,0.5-0.6C58.5,41.8,58.3,41.9,58.1,41.9z"/>
	<path fill="#868686" d="M59.7,42.7c0-0.3-0.1-0.6,0.4-0.4c0.2,0.1,0.2-0.1,0.2-0.2c-0.1-0.2,0-0.3,0.1-0.4
		c-0.1-0.2-0.2-0.3-0.4-0.3c0.2-0.4,0.6-0.1,0.8-0.2c0.7,0.3,0,0.6,0,0.9c-0.1,0.3-0.3,0.4-0.5,0.6C60.1,42.7,59.9,42.7,59.7,42.7z"
		/>
	<path fill="#878787" d="M74.9,41c-0.2,0-0.5,0-0.5-0.3c0-0.3,0.3-0.2,0.5-0.2c0.6-0.3,0.8,0,1,0.4C75.5,40.9,75.2,40.8,74.9,41z"/>
	<path fill="#727272" d="M60.9,17.8c-0.3-0.4-0.4-0.8-0.3-1.2c0.1-0.4-0.1-0.8-0.1-1.3c0-0.1,0-0.1,0.1-0.2c0.1,0,0.1,0.1,0.2,0.2
		c0.1,0.3-0.1,0.6,0.1,0.8C60.8,16.6,61.1,17.2,60.9,17.8z"/>
	<path fill="#8E8E8E" d="M63.5,26.6c0,0-0.1,0-0.1,0c-0.1,0.1-0.3,0.2-0.4,0.4c-0.1,0.2-0.3,0.4-0.6,0.3c-0.3,0-0.4-0.2-0.5-0.5
		c0-0.1-0.1-0.1-0.1-0.2c0-0.1,0-0.1,0.1-0.2c1,0,2.1-0.1,3.1,0.1c0,0,0,0,0,0c-0.1,0.1-0.2,0.2-0.3,0.2
		C64.4,26.6,63.9,26.8,63.5,26.6z"/>
	<path fill="#5A5A5A" d="M95.4,22.5c-0.4-0.4-0.3-0.9-0.1-1.3c0.2,0.1,0.5,0.3,0.7,0.4c0.2,0.2,0.1,0.5,0,0.7
		C95.8,22.5,95.6,22.6,95.4,22.5z"/>
	<path fill="#727272" d="M61,24.4c0,0,0,0.1,0,0.1c-0.1,0-0.1,0.1-0.2,0.2c-0.1,0.1-0.3,0.3-0.5,0.2c-0.2-0.1-0.2-0.4-0.2-0.5
		c0.1-0.3,0.2-0.5,0.1-0.9c-0.1-0.4,0.3-0.3,0.5-0.4c0,0,0.1-0.1,0.1-0.1C61,23.5,61,24,61,24.4z"/>
	<path fill="#5E5E5E" d="M92,22.5c0.4,0,0.8,0.1,0.8,0.7c-0.3-0.3-0.6-0.5-0.5,0.2c0,0.1-0.1,0.1-0.2,0.1
		C91.7,23.2,91.9,22.9,92,22.5z"/>
	<path fill="#616161" d="M96.1,26.2c-0.2-0.6,0.3-1.2,0.3-1.9c0.3,0.6,0.4,0.2,0.5,0c0.1,0.4-0.3,0.6-0.4,0.9
		C96.4,25.6,96.3,25.9,96.1,26.2z"/>
	<path fill="#8A8A8A" d="M90.9,33.6c-0.1-0.5,0.1-0.9,0.6-1.1c0.2-0.1,0.3-0.2,0.5-0.3C91.7,32.8,91.3,33.2,90.9,33.6z"/>
	<path fill="#7C7C7C" d="M51.5,42.6c-0.3-0.3-0.1-0.5,0.2-0.5c0.3,0,0.7,0.1,0.8,0.5C52.2,42.6,51.8,42.6,51.5,42.6z"/>
	<path fill="#5C5C5C" d="M95.3,27.5C95,27.3,95,27,94.8,26.7c0.3,0.1,0.7-0.2,0.9,0.2C95.5,27.1,95.4,27.3,95.3,27.5z"/>
	<path fill="#686868" d="M87.5,26.6c-0.4-0.4-0.9-0.1-1.3-0.3c0.4-0.2,0.9-0.1,1.3-0.1c0.3,0,0.3,0.2,0.3,0.4
		C87.8,26.7,87.7,26.7,87.5,26.6z"/>
	<path fill="#616161" d="M96.9,24c-0.4-0.4-0.4-0.8-0.2-1.3C97.1,23,96.8,23.5,96.9,24z"/>
	<path fill="#707070" d="M95.9,22.3c-0.1-0.1-0.2-0.2-0.3-0.3c0.1-0.2,0.4-0.1,0.4-0.4c0.2,0.2,0.3,0.3,0.5,0.5
		c-0.2,0.1-0.3,0.2-0.4,0.4C96.1,22.4,95.9,22.4,95.9,22.3z"/>
	<path fill="#888888" d="M89.3,35.1c0-0.1,0-0.3,0-0.4c0-0.1,0-0.3,0.2-0.4c0.2-0.1,0.2,0.1,0.3,0.2C89.7,34.8,89.5,35,89.3,35.1z"
		/>
	<path fill="#717171" d="M87.5,26.6c0.3-0.2,0.2-0.3,0-0.5c0.1,0,0.3-0.1,0.4-0.1c0,0.3,0.2,0.7-0.2,1
		C87.5,26.9,87.4,26.8,87.5,26.6L87.5,26.6z"/>
	<path fill="#727272" d="M61,18.8c-0.2-0.3-0.3-0.7-0.1-1.1C61,18.1,61.2,18.5,61,18.8z"/>
	<path fill="#727272" d="M60.7,15.2c0,0-0.1-0.1-0.1-0.1c-0.4-0.1-0.7-0.3-1.1-0.2c-0.1,0-0.1-0.1-0.2-0.1c-0.4-0.3-0.2-0.6,0.1-0.9
		C60,14.3,60.8,14.3,60.7,15.2z"/>
	<path fill="#8C8C8C" d="M59.4,13.9c-0.1,0.3,0,0.6,0.1,0.8c-0.3,0.4-0.4,0.5-0.8,0.2c-0.1-0.1-0.3-0.2-0.4-0.4
		c-0.1-0.1-0.2-0.2-0.2-0.3c0,0,0,0,0-0.1c0.1,0,0.2,0,0.3,0c0.3,0.2,0.5,0,0.7-0.2C59.3,14,59.3,14,59.4,13.9z"/>
	<path fill="#929292" d="M18.6,37.5c-0.2-0.2-0.4-0.7-0.4-1c0-0.1,0-0.2,0-0.3c0,0-0.1,0-0.1,0c0,0,0,0,0-0.1c0,0,0,0,0,0
		c0,0,0,0,0,0c0,0,0,0,0,0c-0.1,0-0.1,0-0.2,0c-0.1,0-0.2,0-0.3-0.1c-0.1,0-0.2,0-0.4-0.1c-0.1,0-0.2-0.1-0.2-0.1
		c-0.1-0.1-0.1-0.1-0.2-0.1c-0.1,0-0.2,0-0.3,0c-0.1,0-0.2-0.1-0.3-0.1c-0.1,0-0.2-0.1-0.3-0.1c-0.1,0-0.2-0.1-0.3-0.1
		c-0.1,0-0.2-0.1-0.3-0.1c0,0-0.1-0.1-0.1-0.1c0,0-0.1,0-0.1,0c-0.1,0-0.2-0.1-0.3-0.1c-0.1-0.1-0.2-0.1-0.3-0.2
		c-0.2-0.1-0.4-0.2-0.5-0.3c-0.2-0.1-0.3-0.3-0.4-0.4c-0.1-0.1-0.2-0.3-0.4-0.3c0,0,0,0,0,0c0,0,0,0,0,0c-0.2,0.1-0.3,0.3-0.5,0.4
		c-0.2,0.1-0.2,0.3-0.1,0.5c0.1,0.2,0.2,0.5,0.4,0.7c0.2,0.2,0.4,0.3,0.6,0.5c0.2,0.1,0.5,0.2,0.7,0.4c0.1,0,0.1,0.1,0.2,0.1
		c0,0,0.1,0,0.1,0c0.2,0.1,0.2,0.4,0.4,0.5c1.1,0.6,2.3,1,3.6,1.2C18.7,37.7,18.7,37.6,18.6,37.5z"/>
	<path fill="#848484" d="M24.9,39.6c-0.6,0-1.1-0.3-1.6-0.5c-0.9-0.3-1.9-0.5-2.8-0.8c-0.4-0.2-0.3-0.5-0.1-0.8
		c0.2-0.3,0.5-0.4,0.7-0.2c0.3,0.2,0.6,0.2,0.9,0.2c0.2,0,0.5-0.1,0.5,0.3c0,0,0,0,0,0c0.5-0.3,0.8,0.2,1.3,0.2c0.4,0.4,0.6,0,1-0.1
		c0.1,0,0.1,0,0.2,0.1c0.1,0.2,0.1,0.5,0.4,0.6c0.2,0.1,0.4,0.1,0.3,0.4c-0.1,0.2-0.1,0.5-0.4,0.5C25,39.5,24.9,39.5,24.9,39.6z"/>
	<path fill="#848484" d="M20.3,36.7c-0.1,0-0.2,0-0.3-0.1c0,0-0.1,0-0.1-0.1c-0.1,0-0.2,0-0.2,0c0,0-0.2,0-0.3,0c0,0-0.1,0-0.1,0
		c0,0-0.8,0.1-1.1-0.3c0,0-0.1,0-0.1,0c-0.1,0-0.3,0.1-0.2,0.2c0.1,0.2,0.1,0.3-0.2,0.3c-0.5-0.1-0.3,0.2-0.2,0.4
		c0.2,0.5,0.8,0.3,1.2,0.6c0.3,0.1,0.6,0.2,1,0.4c0.4-0.2,0.7-0.5,0.9-0.9C20.5,37.1,20.4,36.9,20.3,36.7z"/>
	<path fill="#939393" d="M27.5,40.2c-0.2,0-0.3-0.1-0.5-0.1c-0.1-0.3,0.1-0.2,0.3-0.2c-0.2,0-0.3,0.1-0.5,0
		c-0.2-0.1-0.4-0.1-0.5-0.4c-0.1-0.2,0-0.4,0.2-0.6c0.2-0.1,0.3-0.2,0.5-0.3c0.4,0,0.9,0.1,1.3,0.2c0.4,0.1,0.8,0,1.1,0.3
		c0.1,0.1,0,0.1-0.1,0.3c0,0.1-0.1,0.1-0.1,0.1c-0.3,0.1-0.7,0.2-0.6,0.7c0,0.1-0.1,0.1-0.2,0.1C28.1,40.4,27.8,40.5,27.5,40.2z"/>
	<path fill="#898989" d="M27,38.8C27,38.9,26.9,39,26.8,39c-0.1,0.1-0.2,0.2-0.1,0.4c0.1,0.1,0.3,0.3,0.4,0.2
		c0.4-0.2,0.6,0.1,0.9,0.3c-0.3,0.3-0.6-0.1-0.9,0.1c-0.5,0-1-0.1-1.5-0.3c0,0-0.1-0.1-0.1-0.1c0-0.4,0.1-0.8-0.3-1.1
		c-0.1,0,0-0.2,0.1-0.3c0.1-0.1,0.2,0.1,0.4,0.1c0.4,0.1,0.8,0.1,1.2,0.2C27,38.6,27,38.6,27,38.8z"/>
	<path fill="#999999" d="M25.3,38.4c0.2,0.4,0.6,0.8,0.2,1.4c-0.2-0.1-0.5-0.1-0.7-0.2c0.2-0.1,0.4-0.3,0.4-0.6
		c-0.7,0.1-0.5-0.4-0.5-0.8C25.1,38.1,25.2,38.1,25.3,38.4z"/>
	<path fill="#777777" d="M19.6,38.2c0-0.5,0-0.5,0.7-0.8c0.2,0,0.2,0.1,0.1,0.2c0,0.2-0.2,0.5,0.2,0.4c0.1,0,0.2,0.1,0.1,0.2
		c-0.1,0.2-0.2,0.1-0.4,0.1C20.1,38.3,19.9,38.3,19.6,38.2z"/>
	<path fill="#AAAAAA" d="M14.7,35.9c0.2,0.2,0.3,0.5,0.4,0.7c-0.3-0.1-0.5-0.4-0.7-0.6c0.1,0,0.2-0.1,0.3-0.1
		C14.6,35.8,14.6,35.8,14.7,35.9z"/>
	<path fill="#707070" d="M61.5,37.4c0-0.1,0-0.1,0-0.2c-0.1-0.1-0.2-0.2-0.3-0.2c-0.8,0-1.5-0.3-2.3-0.4c-0.6,0-1-0.1-1.5,0.2
		c-0.1,0.1-0.2,0.1-0.3,0.2c-0.2,0.2-0.4,0.2-0.6,0.1c-0.3-0.1-0.6-0.1-1-0.1c-0.3,0.1-0.6,0.3-0.9,0.4c-0.4,0.4-0.3,0.5,0.3,0.8
		c0,0,0.1,0,0.1,0c0.1,0,0.2,0,0.4,0c0.2,0,0.3,0.1,0.5,0.1c0,0,0,0,0,0c0.3,0,0.5,0,0.8,0c0.8,0,1.7,0,2.5,0c0.2,0,0.4,0,0.6,0
		c0.2,0,0.4,0,0.6-0.1c0.1,0,0.2,0,0.2,0c0.1,0,0.2-0.1,0.3-0.1c0,0,0,0,0,0c0,0,0.1,0,0.1-0.1c0.1,0,0.2-0.1,0.3-0.2
		C61.4,37.8,61.6,37.7,61.5,37.4z"/>
	<path fill="#646464" d="M60.7,23.1c-0.2,0.1-0.4,0.2-0.2,0.5c0.2,0.2,0.1,0.4,0,0.7c-0.1,0.1-0.1,0.3,0,0.4
		c0.2,0.1,0.2-0.1,0.3-0.2c0.1-0.1,0.1,0.1,0.2,0.1c-0.3,0.4,0,0.8-0.1,1.2c-0.1,0.1-0.2,0.2-0.4,0.2c-0.2,0-0.5,0.2-0.7,0
		c-0.2-0.5-0.2-1,0.1-1.5c0.2-0.5,0.2-0.9-0.1-1.4c0-0.1-0.1-0.2,0-0.3c0.3-1-0.1-2.1,0-3.1c0.3,0.3,0.6,0.5,0.2,1
		c-0.1,0.1,0,0.4,0,0.6c0.1,0.3,0.2,0.5,0.1,0.8C60,22.6,60.5,22.8,60.7,23.1z"/>
	<path fill="#5B5B5B" d="M61.7,29C61.7,29,61.7,29,61.7,29c-0.3,0-0.6-0.1-0.8-0.3c-0.1-0.1-0.1-0.2,0-0.3c0.1-0.1,0.2-0.2,0.3-0.2
		c0-0.1,0-0.2-0.1-0.3c-0.2-0.1-0.4-0.3-0.6-0.3c-0.1,0-0.1,0-0.2,0.1c0,0.3-0.6,0.3-0.4,0.7c0.2,0.3,0.1,0.7,0,1
		c-0.1,0.2,0,0.4,0.2,0.5c0.3,0.1,0.3,0.2,0.2,0.5c-0.2,0.7-0.2,1.3,0,2c0.2,0.2,0.4,0.2,0.6-0.1c0.1-0.3,0-0.6,0-0.9
		c0-0.1,0-0.2,0-0.3c0-0.1,0-0.1,0-0.2c0-0.1,0-0.2,0.1-0.3c0.1-0.1,0.2-0.1,0.3-0.1c0.1-0.1,0.1-0.3,0-0.5c0-0.2-0.1-0.4,0-0.5
		C61.8,29.4,61.8,29.2,61.7,29z"/>
	<path fill="#727272" d="M58.4,14.4c0.2,0,0.4,0,0.5,0.2c0.2,0.3,0.4,0.2,0.7,0.2c0,0,0,0,0,0c0.1,0.1,0.2,0.1,0.2,0.2
		c-0.3,0.8,0.2,1.7,0,2.5c-0.3-0.2-0.3-0.6-0.3-1c0.1-0.8-0.1-1-0.9-1c-0.3,0-0.7,0-1,0c-0.3-0.3-0.2-0.7-0.2-1
		C57.7,14.3,58.1,14.6,58.4,14.4z"/>
	<path fill="#7B7B7B" d="M55.6,37.2c-0.2,0.1-0.4,0.5-0.7,0.4c-0.2-0.1-0.4,0-0.5,0.2c-0.1,0.2-0.3,0.4-0.6,0.2c0,0,0-0.1,0-0.1
		c-0.1-0.1,0.1-0.4-0.1-0.4c-0.6,0.1-0.6-0.3-0.8-0.7c0.5-0.1,1-0.2,1.5-0.1c0.3,0.2,0.7,0.1,1,0.1C55.8,36.9,55.8,36.9,55.6,37.2z"
		/>
	<path fill="#626262" d="M59.8,27.8c0,0-0.1-0.1-0.1-0.1c-0.1-0.3-0.6-0.2-0.5-0.6c0.1-0.4,0.2-0.8,0.4-1.1c0.1-0.1,0.1-0.1,0.2-0.1
		c0.2,0.1,0.4,0.3,0.6,0.4c0.2,0.1,0.4,0.1,0.4,0.4c0,0.3-0.3,0.2-0.5,0.3c-0.1,0.1-0.2,0.2,0,0.3c0.1,0.1,0.2,0.2,0.1,0.3l0,0
		C60.2,27.9,60,28,59.8,27.8z"/>
	<path fill="#4F4F4F" d="M60.4,32.3c0.2,0,0.3-0.1,0.5-0.1c0.1-0.1,0.3-0.1,0.4,0c0,0,0.1,0.1,0.1,0.1c0.1,0.3-0.3,0.4-0.3,0.7
		c0,0.3-0.2,0.5-0.3,0.7c0,0.2-0.2,0.3-0.4,0.3c-0.2,0-0.3-0.1-0.4-0.3c0-0.1-0.1-0.3-0.2-0.3c0,0-0.1,0-0.1,0c0-0.4,0.3-0.6,0.4-1
		C60.3,32.3,60.3,32.3,60.4,32.3z"/>
	<path fill="#6B6B6B" d="M60.4,32.3c-0.1,0-0.1,0.1-0.2,0.1c-0.2-0.6-0.2-1.3-0.1-1.9c0-0.3,0.2-0.5-0.2-0.7c-0.1-0.1-0.1-0.3,0-0.4
		c0.6,0.5,0.7,1.1,0.5,1.8C60.2,31.5,60.4,31.9,60.4,32.3z"/>
	<path fill="#8C8C8C" d="M55.6,37.2c0-0.2-0.1-0.3-0.2-0.4c0.6,0,1.2,0,1.8,0.2c-0.1,0.3-0.3,0.5-0.6,0.3
		C56.2,37.2,55.9,37.3,55.6,37.2z"/>
	<path fill="#8D8D8D" d="M57.5,14.6c0.2,0,0.2,0.1,0.2,0.3c-0.1,0.2-0.2,0.4-0.1,0.7c-0.1,0-0.2,0-0.4,0c0-0.2,0.1-0.3,0.1-0.5
		C57.3,14.9,57.3,14.7,57.5,14.6z"/>
	<path fill="#727272" d="M59.8,27.8c0.2,0,0.4-0.1,0.6-0.1c0,0.1,0.2,0.3-0.1,0.4c-0.2,0-0.3,0.1-0.4,0.3
		C59.8,28.2,59.8,28,59.8,27.8z"/>
	<path fill="#929292" d="M12,34.3c-0.7-0.5-1.2-1.1-1.7-1.8c0-0.1,0-0.1,0-0.2c0.1-0.1,0-0.3,0.2-0.4c0.4,0,0.4,0.4,0.6,0.6
		c0-0.4-0.6-0.5-0.5-1c0-0.1,0-0.1,0.1-0.1c0.3,0.3,0.4,0.4,0.7,0.5c0.3,0.2,0.5,0.4,0.6,0.7c0.1,0.3,0.3,0.5,0.5,0.7
		c0,0.1,0,0.1,0.1,0.2C12.5,33.9,12.6,34.3,12,34.3z"/>
	<path fill="#969696" d="M8.7,30.6c0.4,0.1,0.5-0.3,0.7-0.4c0.5,0.1,0.8,0.4,0.8,1c0,0.4,0.4,0.8,0.2,1.3c0,0,0,0,0,0
		c-0.5-0.2-0.7-0.8-1.1-1.2C9,31.1,8.8,30.9,8.7,30.6z"/>
	<path fill="#9D9D9D" d="M12,34.3c0.3-0.2,0.3-0.5,0.4-0.8c0.5,0,0.5,0.1,0.4,0.6c0.1,0.4,0.2,0.7,0.2,1.1
		C12.7,34.9,12.4,34.6,12,34.3z"/>
	<path fill="#737373" d="M51.1,15.5c0,0,0-0.1,0-0.1c0.3-0.1,0.7-0.2,0.9,0.2C51.8,15.7,51.5,15.6,51.1,15.5z"/>
	<path fill="#898989" d="M50.5,15.5c0-0.2,0-0.4,0.3-0.4c0.2,0,0.1,0.2,0.1,0.3C50.8,15.5,50.7,15.6,50.5,15.5z"/>
	<path fill="#6A6A6A" d="M33.5,30.8c0.2-0.1,0.3-0.2,0.5-0.3c0.4,0.5,0.3,1,0.3,1.6c-0.2,0-0.3,0.2-0.5,0.1
		C33.4,31.8,33.4,31.3,33.5,30.8z"/>
	<path fill="#4A4A4A" d="M34.2,27.9c0.2-0.1,0.5-0.4,0.7,0c0,0.2,0.1,0.5-0.1,0.7c-0.1,0.1-0.3,0-0.5-0.1
		C34.1,28.4,34.2,28.2,34.2,27.9z"/>
	<path fill="#6F6F6F" d="M34.3,32.5c0.2,0,0.5-0.2,0.5,0.1c0,0.3-0.3,0.5-0.5,0.7c-0.2,0.1-0.4,0.2-0.5-0.1
		c-0.1-0.1-0.2-0.3-0.2-0.5c0,0,0.3,0.2,0.3,0.2C34.1,33,34.3,32.9,34.3,32.5z"/>
	<path fill="#474747" d="M33.5,26.5c-0.3,0.3-0.7,0-1,0c-0.3,0-0.4-0.4-0.9-0.3c0.3-0.3,0.6-0.3,0.8-0.2c0.5,0.3,0.8,0.1,1-0.3
		c0,0,0.1,0,0.1,0c0.2,0.1,0.4,0.5,0.6,0c-0.1-0.1-0.1-0.2,0-0.3c0.5,0.1,0.6,0.5,0.7,1c0,0.2,0.1,0.6-0.4,0.3
		c-0.1-0.1-0.2-0.1-0.3,0C34,27,33.7,26.6,33.5,26.5z"/>
	<path fill="#6E6E6E" d="M34.1,25.2c0,0.1,0,0.2,0,0.3c-0.4-0.1-0.3-0.4-0.2-0.6c0.3-0.2,0.4-0.4,0.3-0.7c-0.1-0.3,0.1-0.5,0.1-0.7
		c0.2,0.3-0.1,0.9,0.5,1c0.1,0,0.1,0.3,0,0.4c-0.1,0.2-0.2,0.1-0.3,0C34.2,24.7,34.2,25.1,34.1,25.2z"/>
	<path fill="#797979" d="M33.5,25.5c0,0-0.1,0-0.1,0c-0.2,0-0.5,0-0.7-0.1C33.1,25.1,33.2,25.1,33.5,25.5z"/>
	<path fill="#818181" d="M39.6,37.9c-0.8,0-1.5,0-2.3-0.3c-0.1-0.1-0.3-0.1-0.3-0.2c0-0.3,0.4-0.1,0.5-0.3c0-0.2-0.5,0-0.3-0.4
		c0.2-0.3,0.3-0.2,0.5-0.1c0.2,0.2,0.5,0.2,0.8,0.2c0,0,0.1,0.1,0.1,0.1c0.1,0.2,0.1,0.3,0.3,0.4c0.1,0.1,0.3,0.1,0.4,0.1
		C39.6,37.6,39.8,37.7,39.6,37.9z"/>
	<path fill="#717171" d="M39.6,37.9c-0.2-0.3-0.6-0.1-0.8-0.3c0.1-0.3-0.1-0.4-0.2-0.6c0,0,0-0.1,0-0.1c0.3,0,0.5-0.1,0.7,0.2
		c0.1,0.2,0.2,0.1,0.3,0c0.1-0.1,0.2-0.1,0.2,0c0.2,1,0.6,0.3,0.9,0c-0.1,0.2,0.3,0.5-0.1,0.7C40.3,38,39.9,38.1,39.6,37.9z"/>
	<path fill="#787878" d="M43.2,38c-0.6,0-1.1,0-1.7,0c-0.1,0-0.2-0.1-0.2-0.1c0.1-0.3,0.4-0.5,0.6-0.6c0.2-0.1,0.3,0.1,0.4,0.2
		C42.6,37.9,43.1,37.7,43.2,38z"/>
	<path fill="#707070" d="M36.6,37.7c-0.2,0.1-0.5,0-0.7,0c-0.1-0.2-0.8,0.1-0.4-0.4c0.1-0.1,0.3,0,0.4,0.1c0.1,0,0.1-0.1,0.2-0.1
		c0.2-0.1,0.2-0.5,0.5-0.4c0.4,0.1-0.1,0.4,0,0.5C36.6,37.4,36.6,37.6,36.6,37.7z"/>
	<path fill="#828282" d="M35.9,37.3c-0.1,0-0.2,0-0.4,0c-0.3-0.1-0.3-0.2,0-0.5l0,0C35.9,36.6,35.9,36.6,35.9,37.3z"/>
	<path fill="#585858" d="M24.6,35.9c0.2-0.2,0.4-0.3,0.5-0.5c0.2-0.5,0.6-0.3,0.8-0.1c0.5,0.6,1.3,0.5,1.9,0.6
		c0.1,0,0.2,0.1,0.2,0.1c0.3,0.5,0.2,0.8-0.3,1.1c-1.2-0.3-2.1-0.4-3.1-0.7C24.6,36.3,24.2,36.2,24.6,35.9z"/>
	<path fill="#757575" d="M27.7,36.8c0.4-0.2,0.2-0.6,0.4-0.8c0.5,0.1,0.9,0.3,0.9,0.8c0.2,0,0.3-0.9,0.6-0.1c0,0.1,0.2-0.2,0.4-0.3
		c0.2,0,0.1,1,0.5,0.2c0.3,0,0.1,0.4,0.4,0.4c0.2-0.1,0.1-0.4,0.3-0.4c0,0.3,0.3,0.7,0.4,0.9c-0.3,0-0.7-0.1-0.9-0.1
		c-0.9,0.1-1.3,0-1.8-0.1c-0.5-0.1-0.6-0.1-1.1-0.2C27.7,37.1,27.7,37,27.7,36.8z"/>
	<path fill="#707070" d="M35.5,36.8c-0.1,0.2-0.1,0.3,0,0.5c0,0.3,0.2,0.2,0.4,0.4c-0.4,0-0.8-0.1-1.2-0.1c0-0.1,0-0.3-0.1-0.4
		c-0.2-0.3,0-0.4,0.2-0.4C35.1,36.7,35.3,36.8,35.5,36.8z"/>
	<path fill="#6E6E6E" d="M33.3,37.5c-0.2,0-0.5,0-0.7,0c-0.2-0.5,0.2-0.8,0.8-0.7l0,0C32.9,37,33.2,37.3,33.3,37.5z"/>
	<path fill="#6D6D6D" d="M33.4,36.8c0.1,0,0.1,0,0.7,0.5C33.6,37.5,33.5,37.2,33.4,36.8C33.4,36.8,33.4,36.8,33.4,36.8z"/>
	<path fill="#7C7C7C" d="M46.7,38.1c-0.1,0-0.2,0-0.2,0c-0.1-0.4,0.4-0.4,0.4-0.7C47,37.7,47.1,38,46.7,38.1z"/>
	<path fill="#545454" d="M14.6,29.6c0-0.2,0-0.4-0.2-0.4c-0.4-0.1-0.7-0.5-1-0.7c-0.3-0.3-0.5-0.7-0.8-0.9c0,0,0,0,0,0c0,0,0,0,0,0
		c0,0,0,0,0,0l-0.3,0c0,0-0.1,0-0.1,0c-0.1,0.2-0.1,0.4-0.3,0.5c-0.2,0.1-0.4,0.3-0.2,0.5c0.1,0.2,0.2,0.4,0.3,0.5
		c0.2,0.4,0.2,0,0.2,0.2c0.1,0.3,0.3,0.5,0.5,0.8c0.3,0.4,0.6,0.9,1.1,1c0.4-0.2,0.4-0.6,0.8-0.8C14.7,30.1,14.6,29.9,14.6,29.6z"/>
	<path fill="#474747" d="M10.7,24.6c0.2,0.3,0.4,0.5,0.7,0.7c0.3,0.2,0.5,0.8,0.5,1.3c0.1,0.3,0.1,0.6,0.2,0.9
		c0.1,0.4-0.1,0.6-0.3,0.8c-0.2,0.1-0.4,0-0.5-0.2c-0.1-0.3-0.3-0.4-0.4-0.7c0.2-0.4,0-0.7-0.3-1.1c-0.4-0.5-0.2-1.1-0.2-1.7
		c0-0.1,0.1-0.1,0.1-0.1C10.6,24.5,10.7,24.5,10.7,24.6z"/>
	<path fill="#484848" d="M10,21.8c0,0.5,0.5,0.5,0.7,0.7c0,0,0,0.1,0,0.1c-0.2,0.5,0,0.9,0,1.4c0,0.2,0.1,0.4-0.1,0.5l0,0
		c-0.2,0.1-0.4,0-0.6-0.1c0,0-0.1-0.1-0.1-0.2c0.1-0.4,0.3-0.9-0.4-1.1c-0.1-0.1-0.1-0.2-0.1-0.3c0.1-0.2,0.2-0.4,0.1-0.7
		c-0.1-0.2-0.1-0.5,0.3-0.4C9.9,21.8,10,21.8,10,21.8z"/>
	<path fill="#656565" d="M14.4,26.9c-0.4,0-0.7,0.1-1.1-0.1c0-0.1-0.1-0.3-0.1-0.3c0.1-0.1,0.2,0,0.3,0c0.3-0.1,0.7,0.1,1-0.3
		C14.7,26.4,14.6,26.7,14.4,26.9z"/>
	<path fill="#5D5D5D" d="M10.6,24.6c-0.1-0.5,0-1-0.2-1.5c-0.1-0.2,0.2-0.3,0.3-0.5c0.2,0.6,0.2,1.3,0,1.9
		C10.7,24.6,10.6,24.6,10.6,24.6z"/>
	<path fill="#656565" d="M15.2,26c0.3,0.1,0.6,0.3,0.7,0.6c0,0,0,0,0,0c-0.2,0.2-0.5,0-0.7,0.1C14.8,26.5,14.9,26.3,15.2,26z"/>
	<path fill="#545454" d="M11.9,27.5c-0.4-0.3,0-0.6,0-0.8c0.2,0.3,0.4,0.6,0.4,1c0,0,0,0,0,0C12.1,27.7,12,27.6,11.9,27.5z"/>
	<path fill="#7F7F7F" d="M15.2,26.7c0.2-0.5,0.5,0,0.7-0.1c0,0.1,0,0.1,0,0.2c-0.2,0-0.5,0.1-0.7,0.1C15.2,26.8,15.2,26.8,15.2,26.7
		z"/>
	<path fill="#A1A1A1" d="M9.1,21.5c-0.2-0.3-0.5-0.4-0.8-0.6c0.1-0.1,0.4-0.1,0.2-0.3C8,20,8.6,20.2,8.9,20.1c0.1,0,0.3,0,0.4,0
		c-0.1,0.2-0.6,0.4-0.1,0.7C9.4,20.9,9.2,21.2,9.1,21.5z"/>
	<path fill="#646464" d="M57.5,14.6c0,0.2-0.1,0.3-0.1,0.5c-0.2,0-0.4,0.1-0.4-0.2c0-0.2,0.1-0.3,0.3-0.4c0.3-0.1,0.6-0.2,0.8-0.2
		c0.1,0,0.2,0.1,0.3,0.1C58.1,14.7,57.8,14.4,57.5,14.6z"/>
	<path fill="#808080" d="M18.3,26.8c-0.5,0.2-1,0.1-1.6,0.1c0.3-0.2,0.5-0.5,0.9-0.2C17.7,26.8,18,26.7,18.3,26.8z"/>
	<path fill="#808080" d="M18,26.6c-0.1-0.3-0.1-0.5,0.1-0.7c0,0,0.1,0,0.2,0C18.4,26.2,18.2,26.3,18,26.6z"/>
	<path fill="#808080" d="M17.5,25.9c0,0.1-0.1,0.2-0.3,0.2c-0.1,0-0.1-0.1-0.1-0.1c0-0.2,0.1-0.2,0.3-0.3
		C17.4,25.8,17.5,25.8,17.5,25.9z"/>
	<path fill="#808080" d="M50.9,38.2c-0.5,0-1,0.3-1.5-0.1c0-0.2,0.5-0.2,0.3-0.6c0,0,0-0.1,0.1-0.1c0.3,0.1,0.6,0.3,1,0.2
		C50.9,37.6,51,37.9,50.9,38.2z"/>
	<path fill="#7D7D7D" d="M53.8,38.3c-0.8-0.2-1.6-0.2-2.4,0c-0.1-0.4,0.3-0.4,0.5-0.4c0.6,0,1.3-0.1,1.9,0.1c0,0,0,0,0,0
		c0.2,0.2,0.6-0.2,0.6,0.3C54.2,38.4,54,38.1,53.8,38.3z"/>
	<path fill="#717171" d="M52.5,37.5c0,0.1-0.1,0.1-0.2,0.1c-0.1,0-0.3,0-0.3-0.2c0-0.1,0.1-0.1,0.2-0.1
		C52.3,37.3,52.4,37.3,52.5,37.5z"/>
	<path fill="#616161" d="M27,26.5c-0.7,0-1.5,0.2-2.2-0.1c-0.2-0.1-0.1-0.3-0.1-0.5c-0.1-0.1-0.2-0.2-0.2-0.2c0.2-0.1,0.4-0.1,0.6,0
		c0.2,0.1,0.4,0.1,0.6-0.1c0.2,0.1,0,0.7,0.5,0.4c0.2-0.1,0.2,0.3,0.4,0.3c0.2-0.1-0.1-0.3,0.1-0.4c0.1-0.1,0.2-0.1,0.3-0.1
		c0.1,0,0.1,0.1,0.1,0.2C26.9,26.1,27,26.3,27,26.5z"/>
	<path fill="#6C6C6C" d="M24.8,25.9c0.1,0.2,0.1,0.3,0.1,0.5c-0.9,0.2-1.8,0-2.6,0.2c0.5-0.5,1-0.4,1.6-0.3
		C24.2,26.4,24.6,26.4,24.8,25.9z"/>
	<path fill="#828282" d="M9.9,30.2c0.3,0.4,0.6,0.9,0.8,1.3c0,0,0,0,0,0c-0.2,0.1,0,0.3-0.1,0.5c0,0.2,0,0.4-0.2,0.5
		c-0.2-0.3-0.3-0.6-0.5-0.9c0-0.1-0.1-0.2-0.1-0.2c0.3-0.5-0.2-0.8-0.4-1.2c0,0,0-0.1,0-0.1c-0.1-0.2,0-0.3,0.2-0.2
		C9.7,30,9.8,30.1,9.9,30.2z"/>
	<path fill="#969696" d="M9.9,30.2c-0.2,0-0.3-0.4-0.5-0.1c-0.2-0.1-0.3-0.1-0.5,0c-0.3,0.1-0.4-0.2-0.5-0.4c-0.1-0.2,0-0.4,0.3-0.4
		c0.2,0,0.2-0.2,0.2-0.3C9.1,29.4,9.6,29.7,9.9,30.2z"/>
	<path fill="#777777" d="M51.8,14.4c0.3,0,0.5-0.1,0.7,0.2c-0.3,0.4-0.6,0.1-0.8,0C51.7,14.6,51.7,14.5,51.8,14.4z"/>
	<path fill="#777777" d="M52.6,14.6c0.3-0.4,0.6-0.2,1-0.2c0.1,0.2,0,0.3-0.2,0.2C53.1,14.6,52.8,14.7,52.6,14.6z"/>
	<path fill="#575757" d="M25.4,33c0.4,0.1,0.7-0.2,1.1-0.1c0.1,0.2,0.2,0.3,0.4,0.3c0.4,0,0.7,0.1,0.9,0.4c0,0.2,0,0.3,0,0.5
		c-0.3,0-0.5,0-0.8,0c-0.4,0-0.3-0.2-0.7-0.3c-0.4-0.1-0.5-0.6-0.9-0.7C25.4,33.1,25.4,33,25.4,33z"/>
	<path fill="#727272" d="M24.5,36.2c-0.2-0.1-0.5-0.1-0.7-0.4c0.4,0.1,0.5-0.1,0.6-0.4c0.1,0.1,0.2,0.2,0.2,0.4
		c0,0.2,0.1,0.2,0.2,0.4C24.8,36.3,24.6,36.3,24.5,36.2z"/>
	<path fill="#555555" d="M23.4,35.9c-0.1,0-0.2,0.1-0.2,0c-0.7-0.3-1.5-0.4-2.3-0.5c-0.1-0.4-0.2-0.6-0.7-0.6
		c-0.5,0-0.7-0.2-0.6-0.8c0.3-0.1,0.5-0.3,0.6-0.6c0.3-0.3,0.5-0.1,0.8,0.1c0.2,0.1,0.3,0.3,0.5,0.3c0.4-0.1,0.4,0.3,0.7,0.4
		c0.1,0,0.2,0.1,0.3,0.1C23,34.7,23.5,35.1,23.4,35.9z"/>
	<path fill="#6D6D6D" d="M22.1,34.7c-0.3-0.1-0.2-0.6-0.6-0.7c-0.4-0.2-0.3-0.5-0.3-0.8c0-0.3,0.3-0.2,0.5-0.3
		c0.2-0.1,0.3-0.1,0.5,0c0.2,0.1,0.4,0.3,0.6,0.4c0.3,0,0.6-0.2,0.8,0.2c0,0,0,0,0,0c-0.1,0.2,0.2,0.9-0.5,0.5c0,0,0,0.1-0.1,0.1
		C22.5,34,22.3,34.3,22.1,34.7z"/>
	<path fill="#848484" d="M22.1,34.7c0-0.6,0.4-0.7,0.9-0.7c-0.1,0.3-0.4,0.2-0.6,0.4C22.4,34.5,22.4,34.7,22.1,34.7z"/>
	<path fill="#656565" d="M27.8,33.6c-0.2,0.1-0.3,0.5-0.5,0c-0.1-0.2-0.3-0.2-0.5-0.1c-0.4-0.4-0.4-0.4,0.1-0.6c0.2,0,0.5,0,0.7,0
		c0.1,0.5,0.6,0.1,0.8,0.4C28.3,33.6,28,33.5,27.8,33.6z"/>
	<path fill="#5D5D5D" d="M9.7,22.9c-0.3-0.4-0.1-0.8-0.4-1.2c0.2-0.3,0.3,0,0.5,0.1c-0.1,0.2-0.1,0.4,0,0.6
		C9.9,22.6,10,22.8,9.7,22.9z"/>
	<path fill="#7C7C7C" d="M51.5,14.4c-0.2,0.3-0.4,0.4-0.7,0.2C51,14.3,51.3,14.4,51.5,14.4C51.5,14.4,51.5,14.4,51.5,14.4z"/>
	<path fill="#727272" d="M23.6,33.5c-0.3-0.1-0.6-0.1-0.8,0.1c-0.2,0-0.3-0.1-0.3-0.3c0-0.2,0.1-0.3,0.3-0.3c0.2-0.1,0.4,0,0.6-0.1
		c0.1,0,0.2,0.1,0.2,0.1C23.6,33.1,23.6,33.3,23.6,33.5z"/>
	<path fill="#8E8E8E" d="M39.4,40.7c0.8,0.3,1.6,0.2,2.4,0.4c0.2,0,0.5,0.1,0.7,0.1c0.1,0.5,0.4,0.3,0.7,0.3c0.5,0,1,0.1,1.5,0.1
		c0.4,0,0.4,0.6,0,1.1c-1.6,0.1-3.1,0-4.7-0.4C39.4,42,38.7,42,38,42c-0.4,0-0.7-0.1-1-0.3c-0.1-0.5,0.4-0.4,0.6-0.7
		c0.2-0.2,0.4-0.2,0.6,0c-0.3-0.2-0.6-0.1-0.9-0.2c-0.2-0.1-0.4,0-0.4-0.3c0-0.2,0.2-0.3,0.4-0.3c0.1,0,0.3,0,0.4,0
		C38.2,40.5,38.9,40.3,39.4,40.7z"/>
	<path fill="#939393" d="M37.7,41.1c0,0.5-0.5,0.4-0.7,0.5c-0.1,0-0.1,0-0.2,0c-0.5-0.2-0.9-0.3-1.5-0.2c-0.8,0.2-1.6-0.2-2.4-0.3
		c-0.2-0.3-0.4-0.5-0.8-0.5c-0.2,0-0.1,0.2-0.2,0.2c-0.4,0.1-0.8-0.1-1.2-0.1c-0.6-0.4-1.4-0.3-2.1-0.5c-0.1-0.5,0.2-0.6,0.5-0.9
		l0,0c0.8,0.1,1.5-0.2,2.3-0.2c0.1,0,0.2,0,0.3,0.1c0,0,0,0.1,0,0.1c0.4,0.3,0.8,0.2,1.3,0.3c0.3,0.1,0.6,0,0.9,0.1
		c0.5,0.2,0.9,0.6,1.5,0.6c0.7-0.1,1.3,0.4,1.9,0.4C37.7,40.8,37.7,41,37.7,41.1z"/>
	<path fill="#9C9C9C" d="M44.8,42.6c0.1-0.9,0.1-0.7-0.6-0.8c-0.7-0.1-1.5,0.3-2.2-0.2c0.1-0.3,0.6-0.1,0.5-0.5c1.1,0,2.1,0.1,3.2,0
		c0.1,0.1,0.3,0.1,0.5,0.1c0.5,0.2,1.1,0.1,1.7,0.1c0.4,0,0.9-0.2,1.2,0.2c0.1,0.1,0.1,0.2,0.1,0.4c-0.1,0.2-0.4,0.3-0.6,0.3
		c-0.4,0-0.8,0-1.2,0c-0.4,0.1-0.7,0.1-1,0.3c-0.1,0-0.2,0-0.2,0c-0.4-0.1-0.7-0.1-1.1,0C44.9,42.6,44.9,42.6,44.8,42.6z"/>
	<path fill="#898989" d="M47.2,41.9c0.6,0.1,1.3,0,1.9,0c0.1,0,0.3,0,0.4,0.1c0,0.2,0.2,0.5,0,0.7c-0.7-0.1-1.4,0.1-2-0.1
		C47.2,42.4,47,42.2,47.2,41.9z"/>
	<path fill="#7F7F7F" d="M31.9,40.9c-0.4-0.1-0.4-0.5-0.4-0.8c0.3,0.1,0.4,0.7,0.8,0.1c0.1-0.2,0.6,0.4,0.5,1
		C32.6,41,32.3,40.9,31.9,40.9z"/>
	<path fill="#8E8E8E" d="M45,42.6c0.1-0.3,0.1-0.6,0.4-0.8c0.2,0.1,0,0.4,0.2,0.5c0.2,0,0.1-0.5,0.4-0.3c0.2,0.1,0,0.4,0.1,0.6
		C45.7,42.6,45.4,42.8,45,42.6z"/>
	<path fill="#828282" d="M47.2,41.9c0.2,0.2,0.3,0.4,0.2,0.7c-0.4,0-0.7,0.2-1.1,0C46.4,42,46.8,42,47.2,41.9z"/>
	<path fill="#7B7B7B" d="M35.3,41.4c0-0.1,0.1-0.4,0.2-0.3c0.4,0.3,1,0.1,1.3,0.5C36.3,41.6,35.8,41.5,35.3,41.4z"/>
	<path fill="#858585" d="M69.3,26.5c1.1,0,2.2-0.2,3.3,0c0,0,0,0,0,0c0,0.6-0.5,0.9-0.7,1.4c-0.1,0.1-0.3,0.2-0.5,0.2
		c-0.2,0-0.3,0-0.4-0.2c-0.3-0.3-0.2,0.1-0.5,0.1c-0.4,0.1-0.9-0.5-1.2-0.2c-0.2,0.2-0.5,0.4-0.7,0.2c-0.2-0.4,0.1-0.7,0.5-0.9
		C69.1,27,69.1,26.7,69.3,26.5z"/>
	<path fill="#777777" d="M69.3,26.5c0.1,0.3,0,0.6-0.3,0.8c-0.2,0.2-0.3,0.4-0.3,0.7c-0.1,0.1-0.2,0.1-0.2,0c-0.1-0.4-0.3-0.7,0.3-1
		c0.2-0.1,0.2-0.3,0.2-0.5C69,26.5,69.1,26.5,69.3,26.5z"/>
	<path fill="#858585" d="M71.9,40.3c0.4-0.2,1,0,1.4-0.2c0.2,0,0.4,0,0.6,0.1C73.5,40.5,72.2,40.6,71.9,40.3z"/>
	<path fill="#ADADAD" d="M85.9,37.3c0,0-0.1,0.1-0.1,0.1c-0.3-0.2-0.3-0.4-0.1-0.7C85.9,36.9,85.8,37.1,85.9,37.3z"/>
	<path fill="#858585" d="M79,26.5c0.5-0.2,1-0.1,1.6,0c0.2,0.3,0.3,0.6,0.4,0.9c0,0.1,0,0.1,0,0.2c-0.1,0.1-0.1,0.3-0.3,0.4
		c-0.2,0.1-0.4-0.3-0.5-0.2c-0.2,0.1-0.6,0.1-0.6,0.1c-0.3-0.1-0.5-0.1-0.8,0c0,0-0.1-0.1-0.1-0.2C78.4,27.1,78.5,26.8,79,26.5z"/>
	<path fill="#898989" d="M79,26.5c-0.1,0.4-0.3,0.7-0.2,1.2c-0.2,0.1-0.2,0.2-0.5,0.1c-0.2,0-0.5,0.1-0.5-0.1
		c0.1-0.5-0.2-0.9-0.1-1.3C78.1,26.4,78.5,26.5,79,26.5z"/>
	<path fill="#717171" d="M80.8,27.4c-0.2-0.3-0.5,0.2-0.8-0.1c0.2-0.3,0.6-0.3,0.6-0.8c0.2,0,0.3,0,0.5,0c0.2,0.2,0.5,0.3,0.7,0.5
		C81.6,27.5,81.2,27.4,80.8,27.4z"/>
	<path fill="#959595" d="M77.7,26.4c0.5,0.4,0.1,1,0.4,1.4c-0.5,0-0.8,0-1.3,0c0.6-0.1,0.9,0,0.8-1.4C77.6,26.4,77.6,26.4,77.7,26.4
		z"/>
	<path fill="#5E5E5E" d="M91.9,28.6c-0.6,0.2-0.7,0.7-1.1,1.1c-0.1,0-0.2,0-0.2,0.1c-0.2,0.2-0.3,0.4-0.6,0.1
		c-0.2-0.2-0.3-0.5,0-0.8c0.2-0.2-0.4,0.1-0.7-0.1c-0.1-0.3,0.8-0.8,1-1c0.2-0.2,0.3-0.3,0.3-0.5c0-0.2,0.1-0.5,0.1-0.7
		c0-0.2,0.1-0.3,0.3-0.3c0.2,0,0.3,0.2,0.3,0.4C91.1,27.5,91.3,28.1,91.9,28.6z"/>
	<path fill="#3E3E3E" d="M92,27.7c-0.3,0-0.4-0.2-0.4-0.4c-0.1-0.2-0.1-0.5,0.3-0.6c0.1,0,0.2,0,0.3-0.1c0.1-0.1,0.1-0.4,0.3-0.2
		c0.2,0.1,0.1,0.3,0,0.5C92.3,27.2,92.2,27.5,92,27.7z"/>
	<path fill="#6E6E6E" d="M91.3,26.8c-0.2-0.2-0.3-0.2-0.5,0.1c-0.1,0.2-0.2,0.4-0.3,0.5c0,0-0.1,0-0.1,0c-0.1-0.3,0.1-0.6-0.1-0.9
		c-0.1-0.2,0.1-0.2,0.3-0.3c0.3-0.1,0.5-0.1,0.8,0c0.1,0.2,0.3,0.1,0.4,0.3C91.7,26.5,91.5,26.6,91.3,26.8z"/>
	<path fill="#A1A1A1" d="M61,41.4c0.7,0,1.4,0.1,2,0.1c0,0.2,0,0.3,0.2,0.2c0.2-0.1,0.4-0.1,0.6,0.3c-0.7-0.3-1,0.2-1.4,0.3
		c-0.4-0.1-0.8,0-1.2-0.2c-0.1,0-0.2,0-0.4,0c-0.2,0-0.4-0.1-0.2-0.4C60.8,41.6,60.9,41.5,61,41.4z"/>
	<path fill="#A0A0A0" d="M66.2,41.1c0.3-0.1,0.6-0.1,0.9-0.1c-0.3,0.3-0.7,0.5-0.9,0.9c-0.3,0.4-0.9,0.4-1.4,0
		c0.4-0.1,0.7-0.2,1-0.3C66,41.5,66.2,41.3,66.2,41.1z"/>
	<path fill="#8B8B8B" d="M61.2,42.1c0.4-0.1,0.8,0.1,1.2,0.2c-0.2,0-0.5,0-0.6,0.1C61.3,42.8,61.3,42.4,61.2,42.1z"/>
	<path fill="#4F4F4F" d="M59.8,15c-0.1-0.1-0.2-0.2-0.2-0.2c0.4,0,0.8,0,1.1,0.4c0,0-0.1,0.1-0.1,0.1C60.3,15.2,60,15.1,59.8,15z"/>
	<path fill="#949494" d="M74.4,27.8c-0.8,0.1-1.9,0.2-2.8,0c-0.1-0.1,0.1-0.5,0.2-0.5c0.2-0.1,0.4-0.3,0.7-0.3
		C73.1,27.5,73.8,27.6,74.4,27.8z"/>
	<path fill="#727272" d="M72.6,27c-0.3,0.2-0.7,0.3-0.7,0.7c-0.1,0-0.2,0-0.2,0c0-0.2,0-0.4,0.2-0.5c0.5-0.2,0.3-0.4-0.1-0.6
		c0.3-0.2,0.5-0.1,0.7-0.1C72.5,26.7,72.6,26.8,72.6,27z"/>
	<path fill="#A6A6A6" d="M75.8,27.4c0-0.2-0.1-0.5,0.2-0.6c0,0,0.1,0,0.1,0.1C76.2,27.1,76.1,27.2,75.8,27.4z"/>
	<path fill="#939393" d="M70.2,40.5c0.2-0.1,0.5-0.1,0.7-0.1c-0.1,0.6-0.4,0.7-1,0.6c0.1-0.3,0.5-0.2,0.7-0.5
		C70.5,40.6,70.3,40.6,70.2,40.5z"/>
	<path fill="#707070" d="M62.1,27.8c-0.1,0-0.2,0.1-0.3,0.1C61,28,61,28.1,61,28.9c-0.3-0.3-0.2-0.6,0-1c0,0-0.1-0.1-0.1-0.1
		c0-0.5-0.3-0.9-0.1-1.4c0.1-0.1,0.1-0.1,0.2-0.1c0,0,0.1,0,0.1,0c0.2,0.1,0.5,0,0.4,0.3c0,0.2,0.1,0.3,0.3,0.2
		c0.2,0,0.1-0.2,0.2-0.3c0.1,0.1,0.2,0.2,0.3,0.3c0.2,0.2,0.3,0.3,0.5,0c0.2-0.2,0.4-0.3,0.6-0.3c0,0.2,0,0.4-0.1,0.7
		c0,0.3-0.1,0.5-0.5,0.4C62.6,27.6,62.3,27.7,62.1,27.8z"/>
	<path fill="#707070" d="M63.5,26.6c0.5,0,1,0,1.5,0c0,0.3,0,0.6-0.1,0.8c-0.2-0.1-0.6,0.2-0.6-0.4c0-0.2,0-0.4-0.3-0.3
		C63.8,26.9,63.6,26.9,63.5,26.6z"/>
	<path fill="#616161" d="M64.3,27.1c0.1,0.2,0.5,0.1,0.6,0.4c-0.2,0.3-0.4,0.3-0.7,0.1C64,27.3,64.1,27.2,64.3,27.1z"/>
	<path fill="#B4B4B4" d="M52.6,41.4c0.1,0,0.2-0.1,0.3-0.1c0,0.3-0.1,0.6-0.5,0.6c-0.1-0.1-0.4-0.1-0.4-0.4
		C52.3,41.4,52.4,41.3,52.6,41.4z"/>
	<path fill="#8A8A8A" d="M55.3,41.3c0.4-0.1,0.9-0.1,1.3,0c0,0,0,0.1,0,0.1C56.2,41.4,55.8,41.6,55.3,41.3z"/>
	<path fill="#717171" d="M89.9,27.2c-0.1,0-0.2,0.1-0.4,0.1c-0.5,0.1-0.5,0.1-1.2,0.1c-0.1,0-0.7,0.2-0.8,0.1
		c-0.1-0.1,0.1-0.2,0.2-0.3c0.3-0.1,0.4-0.4,0.6-0.7c0.2,0.7,0.6,0.7,1.1,0.6C89.6,27.2,89.8,27.2,89.9,27.2z"/>
	<path fill="#5C5C5C" d="M87.7,27.2c0,0.1,0,0.1,0,0.2c-0.4,0.3-0.5,0.2-0.7,0.1c0.2-0.3,0.1-0.7,0.5-0.9c0,0.1,0.1,0.2,0.1,0.4
		C87.7,27.1,87.7,27.1,87.7,27.2z"/>
	<path fill="#9F9F9F" d="M48.6,41.4c0.7-0.2,1.4-0.1,2.2-0.1c-0.1,0.1-0.3,0.1-0.4,0.2c-0.1,0.2,0.4,0.2,0.2,0.4
		c-0.1,0.2-0.3,0.1-0.4,0.1c-0.2-0.1-0.5,0-0.7,0.1c-0.1,0-0.2-0.1-0.4-0.1c0-0.1-0.1-0.2-0.1-0.2C49,41.4,48.7,41.5,48.6,41.4z"/>
	<path fill="#9F9F9F" d="M52.6,41.4c-0.2,0-0.3,0.1-0.5,0.1c-0.2-0.3-0.4-0.3-0.6,0c-0.1,0.2-0.2,0.4-0.4,0.3
		c-0.3-0.1,0.1-0.2,0.1-0.4c0-0.3-0.3-0.1-0.4-0.2C51.4,41.1,52,41.1,52.6,41.4z"/>
	<path fill="#626262" d="M61,26.4c0,0-0.1,0.1-0.1,0.1c-0.3,0-0.5,0-0.6-0.3c-0.1-0.2,0.1-0.4,0.3-0.5c0.1,0,0.2,0.1,0.4,0.1
		C60.9,26,60.9,26.2,61,26.4z"/>
	<path fill="#939393" d="M87.5,35.1c0.6-0.8,1.4-1.4,2.2-2c-0.1,0.4-0.3,0.7-0.6,1c-0.1,0.2-0.3,0.3-0.4,0.5
		c-0.1,0.2-0.5,0.2-0.6,0.5c0,0.2-0.1,0.2-0.2,0.1C87.7,35.2,87.6,35.2,87.5,35.1z"/>
	<path fill="#6F6F6F" d="M87.9,35.3c0.1,0,0.2-0.1,0.2-0.1c0.1,0,0.2-0.1,0.2,0.1c0,0.2-0.2,0.4-0.5,0.4
		C87.7,35.5,87.8,35.4,87.9,35.3z"/>
	<path fill="#707070" d="M95.3,25.7c-0.5-0.8,0.5-1.2,0.7-1.8c0.1,0,0.3-0.1,0.3,0c0.1,0.1,0,0.2-0.1,0.3c-0.1,0.1-0.3,0.1-0.2,0.2
		C96.3,25.2,95.6,25.3,95.3,25.7z"/>
	<path fill="#707070" d="M96,23.8c-0.1-0.2-0.2-0.3-0.2-0.5c0.1-0.4-0.3-0.5-0.4-0.7c0.1-0.2,0.2-0.4,0.5-0.2
		c0.2-0.1,0.2-0.1,0.2,0.1c-0.1,0.1-0.2,0.3-0.1,0.4C96.2,23.2,96.1,23.5,96,23.8z"/>
	<path fill="#717171" d="M82.3,26.8c0.3-0.1,0.6-0.1,0.9,0.1c0.4,0.2,0.7-0.2,1-0.1c0,0.2-0.4,0.2-0.2,0.4c0.2,0.2,0.3-0.1,0.5-0.1
		c0.3,0,0.5-0.2,0.7-0.3v0c0.4,0.5,0.4,0.6-0.2,0.8c-0.2,0.1-0.4,0.1-0.5,0.2c-0.7,0.1-1.1,0-1.8,0c-0.1,0-0.4,0-0.5,0
		c-0.2,0-0.5,0-0.5-0.3c-0.1-0.3,0.2-0.4,0.4-0.5C82.1,26.9,82.3,26.8,82.3,26.8z"/>
	<path fill="#676767" d="M82.3,26.8c0,0.3-0.3,0.4-0.4,0.7c0.3,0,0.6-0.2,1,0c-0.2,0.1-0.4,0.2-0.6,0.2c-0.2,0.2-0.5,0.1-0.8,0.1
		c-0.2-0.4-0.3,0.2-0.6,0c0,0-0.2-0.5-0.2-0.5c0.3-0.1,0.6-0.2,1-0.4C81.9,26.8,82.1,26.7,82.3,26.8z"/>
	<path fill="#A1A1A1" d="M60.4,41.7c0,0.1-0.1,0.2-0.1,0.4c-0.2-0.1-0.3-0.2-0.5-0.3C60,41.6,60.2,41.7,60.4,41.7z"/>
	<path fill="#878787" d="M90.9,31.5c0-0.5,0.4-0.7,0.7-1c0,0.3,0,0.6-0.1,0.9C91.3,31.4,91.1,31.5,90.9,31.5z"/>
	<path fill="#878787" d="M92,30.1c0.2-0.2,0.6-0.9,0.7-0.6c0.1,0.4,0.5,0.9-0.2,1.3c-0.2,0.1-0.2,0.5-0.3,0.7
		c-0.3-0.3-0.3-0.6-0.1-1C92.2,30.5,92.1,30.2,92,30.1z"/>
	<path fill="#585858" d="M92.9,29.1c0.1-0.2,0.3-0.4,0.3-0.6c0.2,0.2,0.6,0.5,0.7,0.8c0,0.2-0.1,0.3-0.3,0.3
		C93.2,29.7,92.9,29.3,92.9,29.1z"/>
	<path fill="#696969" d="M85.8,27.4c0.1,0.7-1.2,0.3-1.6,0.4c0.1-0.1,0.5-0.4,0.7-0.4c0.4-0.1,0.4-0.3,0.3-0.6
		C85.5,26.8,86.1,26.7,85.8,27.4z"/>
	<path fill="#929292" d="M12.5,33.1c0.3,0.1,0.4,0.4,0.6,0.6c0,0.1,0.1,0.3,0.1,0.4c-0.2,0.1-0.3-0.1-0.5-0.1
		c-0.1-0.2-0.1-0.5-0.4-0.6l0,0c-0.1-0.1-0.3,0-0.2-0.3C12.2,33,12.4,33,12.5,33.1z"/>
	<path fill="#777777" d="M16,36.2c0.1,0,0.2,0.1,0.3,0.3c0,0.1-0.1,0.2-0.2,0.2c-0.2,0-0.2-0.1-0.2-0.3C15.8,36.3,15.9,36.2,16,36.2
		z"/>
	<path fill="#7D7D7D" d="M14.7,35.9c0,0-0.1,0-0.1,0c-0.1-0.1-0.3-0.1-0.2-0.3c0-0.1,0.1-0.1,0.2-0.1C14.8,35.5,14.7,35.7,14.7,35.9
		z"/>
	<path fill="#939393" d="M23,37.5c0.3,0.1,0.6,0.2,0.8,0.4c0.1,0.2,0,0.3-0.1,0.4c-0.6-0.3-1.3-0.2-2,0c0-0.5,0.4-0.2,0.5-0.4
		c0,0,0-0.1,0-0.1c-0.6,0-1.2-0.2-1.8-0.2c0-0.1-0.1-0.2-0.1-0.2c-0.1-0.1-0.4-0.1-0.4-0.2c0-0.1,0.2-0.1,0.3-0.2
		c0.8-0.1,1.4,0.5,2.1,0.5C22.5,37.4,22.7,37.5,23,37.5z"/>
	<path fill="#9B9B9B" d="M23.7,38.3c0-0.1,0.1-0.3,0.1-0.4c0.3,0.1,0.6,0.1,0.8,0.2c0,0.1-0.1,0.2-0.1,0.3c-0.2,0.2-0.3,0.5-0.6,0.4
		C23.5,38.8,23.8,38.5,23.7,38.3z"/>
	<path fill="#939393" d="M18,36.2c0.6,0.3,1.2,0.3,1.8,0.5c-0.3-0.1-0.5,0.1-0.5,0.3c-0.4-0.1-0.8-0.1-1.1-0.5
		C18.1,36.4,18.1,36.3,18,36.2z"/>
	<path fill="#A4A4A4" d="M29.2,39.1c0.5,0,1,0.1,1.4,0.1c0.3,0.2,0.7-0.2,1,0.2c-0.4,0-0.7,0.1-1.1,0.2c-0.5,0.1-0.9,0.2-1.4-0.2
		C29.2,39.3,29.2,39.2,29.2,39.1z"/>
	<path fill="#898989" d="M29.2,39.5c0.1,0.4-0.3,0.6-0.5,0.9c0,0-0.1,0-0.1,0c-0.1-0.3-0.3-0.5-0.3-0.9
		C28.6,39.8,28.9,39.5,29.2,39.5z"/>
	<path fill="#767676" d="M59.1,36.7c0.3,0,0.7,0.1,0.8-0.4c0.2-0.1,0.2-0.3,0.4-0.4c0.2-0.1,0.4-0.1,0.6,0.1
		c-0.4,1.1,0.5,0.6,0.8,0.5c0.5,0,1.2-0.3,1.7-0.1c0,0,0-0.1,0,0c0,0.5-0.2,0.7-0.8,0.7c-0.4,0-0.9,0.1-1.3,0.1
		c-0.5-0.1-1-0.3-1.4-0.3C59.6,37,59.3,37,59.1,36.7z"/>
	<path fill="#767676" d="M61.9,38c-0.2,0-0.4-0.1-0.6-0.1c0-0.2,0.1-0.3,0.1-0.5c0.2-0.3,0.6-0.2,0.9-0.2c0.5-0.1,1-0.3,1.6-0.1
		c0.5,0.1,0.6,0.1,0.3,0.6C63.4,37.9,62.7,37.9,61.9,38C61.9,38.1,61.9,38.1,61.9,38z"/>
	<path fill="#636363" d="M64.1,37.7C64,37,63.3,37.2,63,37.3c-0.6,0.2-1.1,0.1-1.7,0.2c0,0,0-0.1,0-0.1c0.2-0.3,0.5-0.2,0.8-0.3
		c0.4-0.1,0.9,0,1.1-0.5c0.4-0.5,0.7,0.3,1.1,0.2c0.2,0,0.2,0.3,0.2,0.6c0,0.2-0.2,0.3-0.3,0.4C64.3,37.7,64.2,37.7,64.1,37.7z"/>
	<path fill="#5E5E5E" d="M55.1,38.2c-0.2,0.1-0.5,0.1-0.7,0c-0.2-0.1-0.4-0.1-0.6-0.2c0.2,0,0.3-0.1,0.3-0.3
		c0.2-0.4,0.5-0.5,0.7-0.1C54.5,37.9,54.9,38,55.1,38.2z"/>
	<path fill="#5C5C5C" d="M58.2,37.6c0.3-0.3,0.5-0.3,0.8-0.1c0.1,0.1,0.1,0.2,0,0.3C58.6,37.9,58.5,37.5,58.2,37.6z"/>
	<path fill="#707070" d="M60.8,36.1c-0.5-0.1-0.4,0.4-0.5,0.6c-0.1-0.1-0.2-0.3-0.3-0.4c-0.2-0.6,0.2-1.2,0.2-1.8
		c0.3-0.2,0.4-0.6,0.7-0.7c0.1-0.1,0.2-0.1,0.4,0c0,0-0.1,0.1-0.1,0.1c0.3,0.5,0.1,1.1,0,1.6C61.1,36,61.2,36.2,60.8,36.1z"/>
	<path fill="#666666" d="M61.1,33.8c-0.5,0.3-0.2,1-0.5,1.3c-0.1,0.1-0.1,0.1-0.1,0.2c-0.2-0.3-0.1-0.6-0.3-0.8
		c-0.1-0.4-0.2-0.8-0.3-1.2c0.2,0.1,0.3,0.3,0.6,0.5c-0.2-0.5,0.3-0.6,0.3-1c0.2-0.2,0.5-0.3,0.7,0C61.7,33.2,61.5,33.5,61.1,33.8z"
		/>
	<path fill="#4D4D4D" d="M60.5,25.7c-0.2,0.4,0.1,0.6,0.4,0.8c-0.1,0.4,0.3,0.9,0.1,1.3c-0.3-0.1-0.5-0.4-0.9-0.5
		c-0.2-0.1-0.1-0.4,0-0.5c0.1,0,0.2,0.1,0.3,0c-0.1-0.3-0.9,0-0.7-0.7c0,0,0.1-0.1,0.1-0.1C60.1,25.8,60.2,25.6,60.5,25.7z"/>
	<path fill="#747474" d="M62.2,30.4c-0.4-0.2-0.8,0.1-1.2,0.2c0.3-0.4,0.2-0.8-0.3-0.8c0.2-0.3,0.5-0.3,0.8-0.5
		c-0.2-0.1-0.4-0.1-0.5-0.3c1.1,0.4,2.3,0,3.4,0.1c0.7,0.1,1.4,0.1,2.1,0c0.4,0.1,0.9,0.7,0.7,1.1c-0.1,0.2-0.3,0.4-0.5,0.3
		c-0.4-0.1-0.7-0.1-1.1-0.3c-0.1-0.1-0.3-0.2-0.4,0c-0.6,0.5-1.4,0.4-2.1,0.3c-0.1-0.1-0.2-0.1-0.3,0C62.6,30.5,62.4,30.4,62.2,30.4
		z"/>
	<path fill="#4D4D4D" d="M60.1,26.8c0,0.1,0.1,0.3,0.1,0.3c0.5,0,0.5,0.5,0.7,0.8c0,0,0,0.1,0,0.1c-0.2-0.1-0.4-0.2-0.6-0.2
		C59.7,27.3,59.6,27.1,60.1,26.8z"/>
	<path fill="#6B6B6B" d="M61,30.6c0,0.6,0,1.1,0.2,1.7c-0.1,0-0.2-0.1-0.4-0.1c0-0.3-0.1-0.6-0.2-0.9C60.6,31,60.7,30.7,61,30.6z"/>
	<path fill="#717171" d="M61.2,32.3c0.8,0,1.7,0.1,2.5,0c0.3,0.1,0.7,0.1,1-0.1c0.3-0.2,0.7,0,1,0c0.1,0,0.3,0,0.5,0.1
		c0.1,0,0.1,0.2,0.3,0.1c0.4-0.1,0.7-0.2,1.1-0.3c0.1,0,0.2,0.1,0.3,0.2c0.3,0.5,0.1,0.9-0.1,1.4c-0.1,0.1-0.2,0-0.4,0
		c-1.2,0.1-2.3,0-3.5,0c-0.8,0-1.8,0-2.6,0.1c0-0.1-0.1,0.1-0.1,0.1c0.3-0.8,0.3-0.9-0.4-1C60.8,32.6,61.1,32.5,61.2,32.3z"/>
	<path fill="#9D9D9D" d="M10.6,32c-0.1-0.2-0.1-0.4,0.1-0.5c0.2,0.4,0.4,0.7,0.6,1c0.2,0.3,0.2,0.5,0,0.9
		C11.3,32.8,10.9,32.4,10.6,32z"/>
	<path fill="#9D9D9D" d="M12.5,33.1c-0.2,0.1-0.3,0.2-0.1,0.4c-0.2,0-0.4-0.1-0.5-0.3c-0.1-0.5-0.4-0.8-0.6-1.1
		C11.9,32.2,12,32.8,12.5,33.1z"/>
	<path fill="#717171" d="M19,32c-0.6,0.3-1.1,0.1-1.7-0.1c-0.2,0-0.3-0.1-0.3-0.3c-0.1-0.4-0.2-0.8-0.1-1.2c0.2-0.4,0.6-0.1,0.9-0.4
		c0,0,0.1-0.1,0.1-0.2c0,0-0.2-0.1-0.2-0.1C17.3,30,17,30.1,16.5,30c-0.5-0.4-0.7-0.5-0.4-1c0.1-0.1,0.2-0.2,0.2-0.3
		c0.5-0.2,1,0,1.6,0c0.2,0.1,0.3,0,0.5,0.1c0.5,0.1,0.9-0.2,1.4,0.1c0.2,0.1,0.4-0.1,0.5-0.3c0.6-0.2,1.2-0.1,1.8-0.1
		c0.5,0.2,0.5,0.6,0.3,1c0.2,0,0.5-0.1,0.7,0.1c0,0,0.1,0.1,0.1,0.1c-1.2,0.1-2.3,0.2-3.5,0.1c-0.4,0-0.9,0.2-1.4,0.4
		c-0.2,0.1-0.5,0.1-0.6,0.5c0.2,0.1,0.5,0,0.8,0.2c0.1-0.1,0.3,0,0.4,0.1c0.1,0.3,0.1,0.7,0.2,1C19.1,31.9,19,32,19,32z"/>
	<path fill="#7D7D7D" d="M18.9,31c-0.1,0-0.3-0.1-0.4-0.1c0.5-0.3,1,0,1.5,0c0.7,0,1.5-0.1,2.3,0.1c-0.1,0.1,0,0.2,0.1,0.3
		c0.4,0.3,0.2,0.5,0,0.8c-0.2,0.2-0.5,0.3-0.8,0.2c-0.8-0.2-1.7,0-2.6-0.2c0,0,0-0.1,0-0.1C18.8,31.6,18.9,31.3,18.9,31z"/>
	<path fill="#6B6B6B" d="M26.9,29.2c-0.2,0.3-0.6,0.1-0.9,0.1c-0.5,0-0.9-0.1-1.4,0.1c-0.4,0.1-0.9,0-1.3,0.2c0,0,0,0,0,0
		c-0.2-0.2-0.7,0.1-0.7-0.4c0-0.2-0.2-0.6,0.2-0.7c0.3-0.1,0.7-0.2,1,0.2c-0.1-0.1-0.3-0.2-0.1-0.4c0.9-0.2,1.8,0,2.6-0.2
		c0.2,0.2,0,0.3-0.1,0.5c-0.1,0.3,0.1,0.2,0.3,0.2C26.6,28.9,26.9,28.9,26.9,29.2z"/>
	<path fill="#616161" d="M30.5,32c-0.3-0.1-0.5,0-0.7,0.1c-0.4,0.2-0.6,0.2-0.9,0c-0.1,0-0.2,0-0.2-0.1c-0.1-0.1-0.1-0.4,0-0.4
		c0.5-0.1,0-1.1,0.8-0.8c0.1,0,0.2,0,0.3,0c0.5-0.1,1,0,1.5,0c0.4,0.3,0.9,0.3,1.4,0.4c0.2,0.2,0.4,0.4,0.1,0.7c0,0-0.1,0-0.1,0
		c-0.3,0.3-0.7,0.2-1.1,0.2C31.1,32.1,30.8,32.1,30.5,32z"/>
	<path fill="#606060" d="M28.5,27.9c0.6,0.1,1.3,0,1.9,0c0.8,0,1.3,0.7,1.1,1.5c-0.5,0.1-1-0.1-1.4-0.6c-0.2-0.4-0.5-0.2-0.7,0
		c-0.1,0.1-0.2,0.1-0.3,0.2c-0.3,0-0.5,0.3-0.8-0.1c-0.2-0.2-0.7-0.2-0.6-0.6C27.8,27.8,28.3,28.2,28.5,27.9z"/>
	<path fill="#6D6D6D" d="M22.4,32c-0.1-0.3,0-0.5-0.3-0.7c-0.3-0.2,0-0.3,0.2-0.4c0.5,0,1-0.2,1.4,0c0,0.1-0.1,0.1-0.2,0.1
		c0,0-0.1,0-0.1,0c0,0,0,0,0.1,0c0.1,0.1,0.3,0,0.4-0.1c0.5-0.2,1,0,1.5,0.1c0,0.7,0,0.7-0.9,0.8c-0.2,0.3-0.6,0.2-0.9,0.3
		C23.1,32.2,22.7,32.3,22.4,32z"/>
	<path fill="#707070" d="M29.8,30.8c-0.2,0.1-0.4,0.1-0.6,0.2c0.2,0.2,0.4,0.1,0.6,0.2c-0.3,0.3-0.4,0.8-1,0.7c-0.1,0,0,0.2,0,0.3
		c-0.5,0-1,0.1-1.4,0c-0.1-0.1-0.1-0.1-0.1-0.2c0.1-0.2,0.4-0.2,0.4-0.5c0-0.1,0.1-0.2,0.2-0.3C28.5,31,29.1,30.8,29.8,30.8z"/>
	<path fill="#5F5F5F" d="M27.4,31.9c0,0.1,0,0.2,0,0.2c-0.5,0.3-1,0-1.4,0c-0.2-0.1-0.3-0.2-0.5-0.4c-0.3-0.2-0.5-0.4-0.1-0.7
		c0.8,0,1.7-0.3,2.5,0c0,0.1,0.1,0.2,0.1,0.4c-0.1,0.2-0.4,0.2-0.5,0.3C27.4,31.8,27.4,31.8,27.4,31.9
		C27.4,31.9,27.4,31.9,27.4,31.9z"/>
	<path fill="#747474" d="M14.3,29.6c0-0.1,0-0.2,0-0.2c-0.7,0-0.8-0.4-0.9-1c0.7-0.1,1.4,0.1,2,0.2c0,0,0.1,0.1,0.1,0.2
		c-0.2,0.3,0,0.8-0.4,1.1C14.8,29.9,14.5,29.9,14.3,29.6z"/>
	<path fill="#5D5D5D" d="M23.5,28.3c0.2,0.3,0.6,0.5,0.8,1c-0.4-0.1-0.6-0.3-0.8-0.5c-0.3-0.3-0.5-0.2-0.8-0.1
		c-0.2,0-0.1,0.2-0.1,0.3c0,0.4,0.3,0.3,0.5,0.4c0,0,0,0.1,0.1,0.1c-0.4,0-0.8,0-1.1,0c-0.2,0-0.4-0.1-0.4-0.3
		c0-0.3,0.2-0.1,0.4-0.1c0.1,0,0.2,0.1,0.3-0.1c0-0.1,0-0.3-0.1-0.4c-0.2-0.1-0.3-0.2-0.1-0.3C22.6,28.4,23.1,28.3,23.5,28.3z"/>
	<path fill="#6A6A6A" d="M32.4,31.4c-0.7,0.3-0.9,0.2-1.2-0.6c0.4-0.1,0.8-0.2,1.2-0.2c0.3,0.2,0.6,0.1,0.9,0.2
		c0.1,0.1,0.4,0.2,0.3,0.3c-0.1,0.2-0.1,0.5-0.3,0.6c-0.2,0.2-0.4,0.2-0.6-0.1C32.7,31.6,32.7,31.4,32.4,31.4z"/>
	<path fill="#606060" d="M25.4,31.1c-0.1,0.3,0.2,0.4,0.4,0.5c0.1,0.4-0.1,0.6-0.5,0.7c-0.2,0-0.5,0-0.7,0c-0.1-0.1-0.2-0.1-0.3-0.2
		c-0.1-0.1-0.1-0.3-0.1-0.4c0-0.2,0-0.4,0-0.7C24.5,31.4,24.9,31.8,25.4,31.1C25.3,31,25.3,31,25.4,31.1z"/>
	<path fill="#5B5B5B" d="M28.5,28.7c0.2,0.2,0.4,0.1,0.6,0.1c0.1,0.1,0.3,0.1,0.5,0.2c0.2,0,0.3,0.1,0.2,0.3c-0.8,0-1.6,0-2.4,0
		c-0.1-0.1-0.1-0.2-0.3-0.2c-0.4-0.1-0.5-0.4-0.2-0.7c0.3-0.1,0.7-0.2,0.9,0.2C28,28.7,28.3,28.5,28.5,28.7z"/>
	<path fill="#5B5B5B" d="M20.3,28.6c0.3,0.3-0.1,0.5-0.1,0.9c-0.5-0.5-1-0.7-1.6-0.6c-0.2,0-0.6,0.1-0.7-0.2c0.5-0.2,1-0.1,1.4-0.1
		C19.7,28.5,20,28.5,20.3,28.6z"/>
	<path fill="#5D5D5D" d="M32.4,31.4c0.1-0.1,0.3-0.1,0.4,0c0.1,0.1,0.2,0.4,0.4,0.2c0.2-0.2,0.4-0.4,0-0.7c0-0.1,0.1-0.1,0.1-0.1
		c0,0,0.1,0,0.1,0c0.4,0.3,0.3,0.9,0.4,1.3c-0.2,0-0.5,0-0.7,0c-0.1-0.1-0.4,0.1-0.5-0.2C32.7,31.7,32.6,31.6,32.4,31.4z"/>
	<path fill="#747474" d="M27,28.4c-0.1,0.2,0,0.3,0.2,0.4c0.2,0.1,0.3,0.2,0.2,0.5c-0.2,0-0.4,0-0.5,0c-0.2-0.1-0.4-0.1-0.5-0.2
		c-0.2-0.1-0.4,0.1-0.5-0.1c-0.1-0.1-0.2-0.3,0-0.4c0.4-0.2,0.7-0.6,1.2-0.3C27.1,28.3,27.1,28.4,27,28.4z"/>
	<path fill="#525252" d="M29.8,29.3c-0.2-0.2-0.7,0-0.7-0.5c0.1,0,0.2-0.1,0.2-0.1c0.2,0,0.4,0,0.5,0c0.1,0,0.2,0,0.4,0
		c0,0,0,0,0.1,0c0.4,0.2,0.7,0.7,1.2,0.7C30.9,29.7,30.3,29.5,29.8,29.3z"/>
	<path fill="#6C6C6C" d="M27,28.4c0,0,0-0.1,0-0.1c0-0.1,0.1-0.2,0.1-0.2c0.4-0.2,0.9-0.1,1.3-0.1c0,0.4-0.4,0.1-0.5,0.3
		c0.1,0.2,0.4,0.2,0.5,0.4c-0.2,0.2-0.5,0.3-0.7,0C27.6,28.4,27.3,28.5,27,28.4z"/>
	<path fill="#5B5B5B" d="M27.2,28.1c0,0.1,0,0.2-0.1,0.2c-0.4-0.1-0.7,0.2-1.1,0.4c0,0.2,0.3,0.2,0.4,0.4c-0.2,0.2-0.5,0.2-0.6-0.1
		c-0.2-0.3-0.1-0.5,0.2-0.6c0.1-0.1,0.2-0.2,0.3-0.3C26.5,28.1,26.8,28.1,27.2,28.1z"/>
	<path fill="#535353" d="M33.4,30.8c0,0-0.1,0.1-0.1,0.1c-0.3,0.1-0.7,0.4-0.8-0.3C32.8,30.5,33.1,30.4,33.4,30.8z"/>
	<path fill="#5F5F5F" d="M15.4,28.8C15.4,28.7,15.4,28.7,15.4,28.8c0.3-0.1,0.6-0.1,0.9-0.1c0.1,0.1,0.3,0,0.3,0.2
		c0,0-0.1,0-0.1,0.1c-0.2,0.1-0.4,0.1-0.6,0.2C15.6,29.2,15.4,29.1,15.4,28.8z"/>
	<path fill="#585858" d="M23.8,31c-0.2,0.5-0.6,0-0.9,0.2C23.1,30.8,23.4,31,23.8,31C23.7,30.9,23.8,30.9,23.8,31z"/>
	<path fill="#7A7A7A" d="M21.6,32.9c-0.4,0.3,0,0.7-0.1,1.1c-0.2,0.3-0.4,0.2-0.5,0c-0.2-0.2-0.4-0.4-0.7-0.4
		c-0.2,0.2-0.4,0.3-0.6,0c0-0.3-0.3-0.6,0-0.7C20.2,32.6,21.1,32.8,21.6,32.9z"/>
	<path fill="#656565" d="M17.2,31.5c0,0.1,0.1,0.2,0.1,0.4c0.1,0.6,0.6,0.8,1,1.2c0,0,0,0.1,0,0.1c-0.4,0.6-0.6,0.6-1,0.1
		c-0.4-0.4-0.9-0.7-1.1-1.2c0-0.2,0.1-0.4,0.3-0.5c0.1-0.1,0.2-0.1,0.4-0.1C16.9,31.4,17.1,31.4,17.2,31.5z"/>
	<path fill="#6D6D6D" d="M19.7,33.5c0.2,0,0.4,0,0.6,0c0,0.1,0,0.2,0,0.3c0,0.2,0.1,0.4-0.2,0.5c-0.2,0.1-0.3-0.2-0.4-0.2
		c-0.1,0-0.1,0-0.1,0.1c-0.1,0.3-0.3,0.5-0.6,0.1c-0.1-0.3-0.2-0.5,0-0.8c0,0,0.1,0,0.1,0C19.2,33.5,19.5,33.6,19.7,33.5z"/>
	<path fill="#5A5A5A" d="M18.3,33.1c0.2,0.2,0.5,0.2,0.7,0.4c0,0,0,0-0.1,0c0,0.4,0,0.9-0.6,1C17.6,34,17.6,33.9,18.3,33.1
		L18.3,33.1z"/>
	<path fill="#848484" d="M23.3,32.9c-0.3,0.2-0.9,0.1-0.6,0.7c-0.3,0.1-0.5-0.1-0.7-0.1c0-0.2,0.3-0.4,0.1-0.6
		C22.5,32.9,22.9,32.9,23.3,32.9z"/>
	<path fill="#555555" d="M24.1,31.7c0,0.1,0.1,0.3,0.1,0.4c-0.3,0.1-0.5,0.1-0.8,0.1C23.3,32,23,32.1,23,31.8
		C23.3,31.5,23.8,32.3,24.1,31.7z"/>
	<path fill="#727272" d="M24.5,32.2c0.5-0.1,1-0.1,1.2-0.7c0.3,0.1,0.2,0.4,0.2,0.6C25.5,32.2,25,32.3,24.5,32.2z"/>
	<path fill="#767676" d="M26.9,32.9c-0.3,0.2-0.2,0.4-0.1,0.6c-0.2,0-0.5-0.1-0.7-0.1c0-0.3,0.3-0.3,0.4-0.5
		C26.6,32.9,26.8,32.9,26.9,32.9z"/>
	<path fill="#9F9F9F" d="M34.5,39.9c1,0.1,2.1,0.2,3.1,0.5c-0.2,0-0.3,0-0.5,0c0.6,0.2,1.1,0.4,1.8,0.5c-0.4,0.5-0.9-0.1-1.2,0.2
		c0,0-0.1,0-0.1-0.1c-0.4-0.4-1.2,0.4-1.5-0.4c-0.6,0-1.2-0.2-1.8,0c-0.1-0.2,0.2-0.3,0.2-0.4c0.1-0.6-0.8,0.6-0.5-0.3
		c0.1-0.1,0.2,0,0.2,0C34.3,39.9,34.4,39.9,34.5,39.9z"/>
	<path fill="#868686" d="M38.6,37.1c0.4,0.1,0.6,0.2,0.2,0.6C38.6,37.5,38.3,37.4,38.6,37.1z"/>
	<path fill="#898989" d="M48.6,41.4c0.1,0.1,0.4-0.1,0.4,0.3c-0.7-0.1-1.5-0.1-2.2-0.2c-0.2,0-0.4,0-0.6-0.2c0.5,0,1.1,0,1.6-0.1
		C48.1,41.2,48.3,41.3,48.6,41.4z"/>
	<path fill="#484848" d="M16.6,31.8c-0.1,0.1-0.2,0.2-0.2,0.4c0.1,0.2,0.2,0.4,0.3,0.6c0.1,0.1,0.3,0.3,0.1,0.5
		c-0.1,0.2-0.3,0.2-0.5,0.1c-0.4-0.1-0.6-0.4-0.9-0.6c-0.3-0.2-0.6-0.3-0.9-0.4c-0.2,0-0.4-0.2-0.4-0.4c-0.1-0.3-0.1-0.5-0.3-0.8
		c-0.1-0.1-0.2-0.2-0.3-0.3c0.2-0.4,0.5-0.7,0.9-0.6c0,0,0.1,0,0.1,0c0.1,0.3,0.3,0.5,0.7,0.5c0.3,0,0.6,0.1,0.8,0.3
		c0.1,0.1,0.2,0,0.3,0.1C16.8,31.2,16.8,31.3,16.6,31.8z"/>
	<path fill="#6C6C6C" d="M12.4,29.3c-0.4-0.2-0.5-0.6-0.7-1c0.2-0.2,0.3-0.5,0.3-0.9c0.1,0,0.2,0.1,0.4,0.1c0,0.2,0.1,0.4-0.1,0.6
		c-0.1,0.1-0.3,0.3-0.1,0.5c0.3,0.2,0.3-0.2,0.5-0.2C12.7,28.7,12.5,29,12.4,29.3z"/>
	<path fill="#858585" d="M14.3,29.6c0.3,0,0.6,0.1,0.8,0.1c0.1,0,0.2,0,0.2,0.1c-0.3,0.2-0.6,0.1-0.8,0.3c-0.1,0-0.1,0.1-0.1,0
		c0,0,0,0,0,0C14.4,30,14.2,29.9,14.3,29.6z"/>
	<path fill="#5D5D5D" d="M10.9,27.5c-0.6-0.6-0.5-1.5-0.7-2.2c-0.1-0.3-0.1-0.7-0.2-1c0.2,0.1,0.4,0.2,0.6,0.3
		c0.1,0.6-0.1,1.4,0.3,2C11,26.8,11.1,27.2,10.9,27.5z"/>
	<path fill="#636363" d="M10.1,24.3c-0.2-0.4-0.3-0.8-0.4-1.2c0.4-0.1,0.5,0.1,0.5,0.4C10.2,23.8,10.2,24.1,10.1,24.3z"/>
	<path fill="#595959" d="M16.3,33.4c0.2-0.1,0.4-0.1,0.2-0.4c-0.2-0.3-0.2-0.6-0.2-0.9c0.5,0.3,1,0.6,1.3,1.1
		c0.2,0.3,0.4-0.1,0.6-0.1c-0.1,0.4-0.5,0.8,0.1,1.2c0.1,0.1,0.1,0.2,0,0.4C17.7,34.2,17.1,33.7,16.3,33.4z"/>
	<path fill="#4C4C4C" d="M18.4,34.7c0-0.1,0-0.2,0-0.4c0-0.2,0.7-0.2,0.2-0.6c-0.1-0.1,0.2-0.2,0.4-0.2c0.1,0.2,0.1,0.5,0.2,0.7
		c0,0.3,0.1,0.3,0.3,0.1c0.1-0.1-0.1-0.3,0.2-0.3c0,0,0.1,0.1,0.1,0.1c0,0.5,0.4,0.5,0.7,0.5c0.7,0,0.8,0.2,0.5,0.8l0,0
		c-0.4-0.3-0.9-0.1-1.3-0.4C19.2,35.1,18.8,34.9,18.4,34.7z"/>
	<path fill="#616161" d="M13.7,31.2c0.6,0.5,1,1.2,1.7,1.6c-0.3-0.1-0.6,0-0.9,0c-0.4,0.1-0.9-0.4-0.8-0.7
		C13.7,31.8,13.7,31.5,13.7,31.2z"/>
	<path fill="#555555" d="M19.7,35c0.4,0.1,0.8,0.1,1.1-0.3c0.2,0.2,0.1,0.5,0.2,0.6C20.5,35.3,20,35.3,19.7,35z"/>
	<path fill="#9A9A9A" d="M71.2,27.8c-0.3,0-0.6,0-1,0C70.5,27.2,70.6,27.2,71.2,27.8z"/>
	<path fill="#878787" d="M79,33.9c-0.1,0-0.1,0-0.2,0c-0.3,0-1.2,0.3-1.4,0.4c-0.1,0-0.3,0.1-0.4,0.1c-0.1,0-0.2,0.1-0.2,0.1
		c-0.1,0.1-0.2,0.2-0.4,0.1c-0.2,0.1-0.6,0.1-0.8,0.1c-0.1,0-0.5,0.1-0.6,0.1c-0.1,0-0.4,0-0.6,0c-0.3,0.1-0.5,0.1-0.8,0.2
		c-0.3,0.1-0.5,0.1-0.8,0.2c-0.3,0.1-0.5,0.2-0.8,0.2c-0.5,0.1-1.1,0-1.6,0.1c-0.2,0.1-0.4,0.2-0.6,0.2c-0.1,0-0.3,0-0.4,0
		c0,0.1,0,0.1,0,0.2c0,0.5,0.4,0.7,0.6,1.1c0.3,0,0.6-0.1,0.8-0.1c0.5-0.5,0.6-0.5,1.5-0.2c0.1,0,0.1,0,0.2,0.1c0.1,0,0.2,0,0.3-0.1
		c0.2,0,0.4-0.1,0.6-0.1c0.2,0,0.4,0,0.6-0.1c0.2-0.1,0.4-0.1,0.5-0.1c0,0,0,0,0,0c0,0,0,0,0,0c0,0,0.1,0,0.1,0
		c0.1-0.1,0.2-0.1,0.2-0.2c0.1-0.2,0.3-0.1,0.5-0.1c0.6,0,1.3,0,1.9,0c0.2-0.1,0.4-0.1,0.5-0.3c0.2-0.1,0.5-0.2,0.7-0.2
		c-0.1-0.2-0.1-0.4,0.2-0.6c0.2-0.2,0.4-0.3,0.5-0.6C79.3,34.2,79.2,34,79,33.9z"/>
	<path fill="#767676" d="M64.3,37.7c0-0.4,0.2-0.8-0.5-0.8c-0.2,0-0.2-0.5-0.6-0.4c0,0,0,0,0,0c0-0.3,0.6-0.2,0.8-0.2
		c0.3,0,0,0,0.6-0.1c0.3,0.1,0.4,0.8,0.9,0.3c0.4-0.1,0.7-0.1,0.7,0.4c0,0.2,0.3,0.3,0.3,0.5c0,0.1,0,0.1,0,0.2
		C65.7,37.9,65,37.6,64.3,37.7z"/>
	<path fill="#787878" d="M78.6,35.6c-0.4,0-0.7-0.2-0.9-0.6c0.5,0,0.9-0.3,1.4-0.5c0.7-0.8,0.8-0.6,1.7,0c0,0.1,0,0.1-0.1,0.2
		c-0.3,0.3-0.8,0.1-1,0.6C79.4,35.3,79,35.3,78.6,35.6z"/>
	<path fill="#767676" d="M68.2,37.4c-0.4,0-0.8,0.1-1.2,0.1c-0.4-0.2-0.5-0.5-0.1-0.6c0.7-0.1-0.3-0.1-0.4-0.4
		c0-0.1,0.7-0.5,0.7-0.6c0.4-0.3,1.1-0.1,1.5-0.2c0.7,0.4,0.5,0.9-0.2,1.3C68.4,37.2,68.3,37.3,68.2,37.4z"/>
	<path fill="#818181" d="M70.8,36.9c-0.1-0.3-0.1-0.5,0.2-0.7c0.3-0.2,0.7-0.3,1-0.2c0.3,0.1,0.1,0.4,0.1,0.6c0,0,0.1,0,0.1,0.1
		c0,0-0.1,0-0.1,0C71.7,36.9,71.3,36.9,70.8,36.9z"/>
	<path fill="#7D7D7D" d="M69.5,36.1c0.2,0.2,0.5,0.2,0.8,0.2c0.1,0,0.2,0,0.2,0.1c0,0.1-0.1,0.3-0.2,0.2c-0.4-0.1-0.4,0.1-0.3,0.4
		c-0.3,0.1-0.5,0.2-0.8,0.1c-0.4-0.3-0.4-0.8,0.1-1.2C69.4,36,69.4,36,69.5,36.1z"/>
	<path fill="#767676" d="M66.6,37.6c-0.1,0-0.1,0-0.2,0c0,0,0,0-0.1-0.1c0,0,0,0,0,0c-0.2-0.5-1-0.8-1.5-1.2
		c0.4-0.4,1.8-0.4,2.4-0.1c0,0,0,0,0,0.1c0.2,0.2,0.2,0.5,0,0.6C66.8,36.9,66.7,37.3,66.6,37.6z"/>
	<path fill="#919191" d="M69.3,36.1c-0.2,0.3-0.4,0.7-0.1,1.1c-0.3,0.2-0.6,0.1-1,0.2c0-0.2,0-0.4,0.2-0.5c0.5-0.3,0.3-0.6,0-0.9
		c0-0.3,0.2-0.3,0.4-0.3C69.1,35.7,69.3,35.9,69.3,36.1z"/>
	<path fill="#5F5F5F" d="M66.6,37.6c0-0.4,0-0.7,0.4-0.9c0.2-0.1,0.2-0.3,0.2-0.4c0.5-0.1,0.3,0.3,0.3,0.5c0,0.2,0,0.5-0.4,0.5
		c-0.2,0-0.2,0-0.1,0.3C66.9,37.6,66.7,37.7,66.6,37.6z"/>
	<path fill="#595959" d="M86.9,32.9c-0.5,0.6-1.3,0.6-2,0.9c-0.7,0.3-1.4,0.4-2.1,0.5c-0.2-0.2-0.1-0.4,0.1-0.5
		c0.2-0.1,0.3-0.2,0.4-0.4c-0.4,0-0.7,0-0.6-0.5c0.1-0.3,0.5-0.3,0.8-0.3c0.5-0.1,1.2-0.4,1.7-0.5c0.6-0.1,0.9-0.5,1.4-0.9
		c0.5-0.4,0.9-0.6,1.4-1.1c0.2,0,0.2-0.1,0.4-0.1c0.5,0.4,0.5,0.6,0.1,1.1c-0.2,0.3-0.5,0.5-0.8,0.6C87.3,32,87,32.4,86.9,32.9z"/>
	<path fill="#484848" d="M86.9,32.9c-0.4-0.5-0.3-0.9,0.4-1.3c0.2-0.2,0.5-0.3,0.7-0.4c0.3-0.2,0.6-0.4,0.4-0.9
		c-0.1-0.3,0.1-0.4,0.2-0.6c0.6-0.5,1.4-0.3,1.6,0.4c0.1,0.3-0.2,0.3-0.3,0.5c-0.7,0.4-1.2,1.1-1.7,1.7
		C87.9,32.6,87.4,32.7,86.9,32.9z"/>
	<path fill="#555555" d="M90,30.5c0.2-0.3,0-0.6-0.2-0.8c-0.2,0-0.1,0.2-0.2,0.3c-0.2-0.3-0.4-0.4-0.8-0.2c-0.3,0.1-0.6,0.1-0.8-0.3
		C88,29.3,88,29,88.2,28.9c0.3-0.1,0.6-0.7,1-0.1c0.4,0.1,0.7-0.3,1-0.4c0.2-0.1,0.5-0.3,0.7,0c0.1,0.3-0.1,0.5-0.3,0.6
		c-0.1,0.1-0.2,0.2-0.3,0.3c-0.1,0.1-0.2,0.2-0.1,0.4c0.2,0.2,0.2,0,0.3-0.1c0.2-0.3,0.3,0,0.4,0.1C90.7,30,90.4,30.3,90,30.5z"/>
	<path fill="#505050" d="M82.9,33c0.3,0.4,0.9,0.1,1.2,0.4c-0.5,0.2-0.8,0.7-1.3,0.9c0,0-0.1,0-0.1,0c-1,0.1-1,0.1-1.2-0.5
		c0-0.3,0.2-0.5,0.2-0.8C82.2,32.9,82.3,32.9,82.9,33z"/>
	<path fill="#717171" d="M81.7,33.7c0.1,0.6,0.6,0.6,1,0.6c-0.6,0.1-1.3,0.2-1.9,0.4c0,0,0-0.1,0-0.1c-0.1-0.3,0.1-0.5,0.2-0.7
		C81.1,33.4,81.4,33.4,81.7,33.7z"/>
	<path fill="#717171" d="M81.6,27.7c-0.4,0-0.7,0-1.1,0c0.1-0.1,0.2-0.2,0.2-0.2C81.1,27.4,81.5,27.2,81.6,27.7z"/>
	<path fill="#959595" d="M80.1,26.9c-0.4,0-0.6,0.1-0.8,0.1C79.5,26.6,79.7,26.6,80.1,26.9z"/>
	<path fill="#888888" d="M73.8,28.9c0.6,0.1,1.1,0,1.7,0c0.4,0,0.9,0.1,1.3,0c0.2,0.2,0.7,0.1,0.6,0.6c-0.4,0.2,0.3,0.6,0,0.8
		c-0.5,0.1-1.1,0.1-1.6,0c-0.9,0.1-1.4,0-1.8-0.2c-0.1,0-0.2,0-0.4-0.1c-0.1-0.1-0.2-0.2-0.2-0.4c0-0.2,0-0.5,0.2-0.7
		C73.7,29,73.7,28.9,73.8,28.9z"/>
	<path fill="#D4D4D4" d="M70.5,29c1,0.1,2-0.1,3,0c0.1,0.3-0.1,0.3-0.3,0.3c-0.7,0.1-1.4,0.2-2.1,0.1C70.8,29.4,70.5,29.4,70.5,29
		L70.5,29z"/>
	<path fill="#B6B6B6" d="M73.2,29.2c0.1,0,0.2,0,0.3-0.1c0,0,0.1,0,0.1,0c0.1,0.2,0.2,0.4,0,0.6c0,0.4-0.2,0.5-0.6,0.4
		c-0.2-0.1-0.3-0.1-0.3-0.3c0-0.2,0.1-0.3,0.3-0.4C73,29.3,73.1,29.2,73.2,29.2z"/>
	<path fill="#7B7B7B" d="M77.3,29.5c-0.1-0.2-0.4-0.3-0.5-0.6c0.7-0.1,1.4-0.1,2-0.2c0.3,0,0.3,0.2,0.5,0.3c0.2,0.2,0.3,0.1,0.4-0.1
		c0.2-0.1,0.4,0,0.5,0.2c0.1,0.3,0.2,0.7-0.1,1c0,0.1-0.4,0.1-0.5,0.1c-0.6,0.1-0.7-0.2-1.4,0.1c-0.2-0.4-0.5-0.2-0.3-0.8
		c-0.1,0.1,0,0.4-0.2,0.5C77.3,30,77.2,29.8,77.3,29.5z"/>
	<path fill="#6E6E6E" d="M79.9,29.3c0-0.1,0-0.2-0.1-0.1c-0.3,0.1-0.3,0-0.3-0.3c0.2-0.3,0.5-0.2,0.8-0.2c0.2,0,0.4,0.1,0.6,0
		c0.4,0,0.8,0,1.2,0.1c0.2,0.2,0.4,0.3,0.6,0.4c0.4,0.2,0.8,0.4,0.6,0.8c-0.7,0.1-1.1,0.1-1.6,0c-0.2,0-0.7,0.2-0.9,0.1
		C80.6,29.7,80.3,29.5,79.9,29.3z"/>
	<path fill="#8B8B8B" d="M79.6,28.9c0,0.1,0.1,0.2,0.3,0.3c-0.1,0.4-0.3,0.4-0.6,0.2c-0.3-0.2,0-0.3,0.1-0.4
		C79.4,29,79.5,28.9,79.6,28.9z"/>
	<path fill="#898989" d="M73.2,29.2c0,0.1,0,0.1,0,0.2c0,0.2-0.4,0.2-0.1,0.5c0.2,0.2,0.4,0,0.6-0.2c0,0.1,0.1,0.3,0.1,0.4
		c0,0.1,0,0.2-0.1,0.2c-1.1,0.4-2.2,0.5-3.4,0.4c-0.8-0.2-1.7-0.1-2.4-0.2c-0.7-0.1-1.3,0.3-1.9,0c-0.1-0.1-0.2-0.2-0.2-0.2
		c0.3,0,0.5-0.1,0.8-0.2c0.1,0,0.2-0.2,0.2,0c0,0.1,0,0.3,0.2,0.2c0.2-0.1,0.1-0.2,0.1-0.4c-0.1-0.3-0.1-0.6-0.4-0.7
		c0.2-0.2,0.5,0.2,0.7,0c0.2,0,0.3,0,0.5,0c0,0.1,0.1,0.1,0.1,0.2c0.2,0.2,0.3,0,0.5,0c0.2,0,0.3-0.1,0.4-0.2c0.6,0.1,1.2,0.3,1.8,0
		C71.4,29.3,72.3,29.1,73.2,29.2z"/>
	<path fill="#6C6C6C" d="M89.2,29c-0.2,0-0.4-0.2-0.4,0c-0.1,0.3-0.3,0.4-0.6,0.3c0.1,0.4,0.4,0.4,0.6,0.5c-0.1,0.2-0.2,0.4-0.4,0.5
		c-0.1,0-0.3-0.2-0.4-0.2c-0.2-0.1-0.5-0.2-0.7-0.2c-0.2,0-0.2,0.2-0.3-0.1c0-0.1,0-0.3-0.2-0.3c-0.2,0-0.4-0.1-0.6,0
		c-0.6,0.3-1.2,0-1.8-0.2c-0.4-0.2-0.4-0.4-0.1-0.7c0.9-0.1,1.9-0.2,2.8-0.1c0.4,0,0.8-0.1,1.2-0.1c0.3,0-0.2-0.8,0.5-0.7
		C89,28,89.2,28.7,89.2,29z"/>
	<path fill="#7D7D7D" d="M67.5,29.3c-0.1-0.2,0.2-0.1,0.2-0.2c0.3,0,0.6,0,1,0c0.1,0.1,0.3,0.2,0.1,0.4c-0.1,0.1-0.3,0.3-0.5,0.1
		C68,29.4,67.7,29.6,67.5,29.3z"/>
	<path fill="#6C6C6C" d="M82.9,29.9c-0.1-0.2-0.2-0.3-0.4-0.4c-0.3-0.1-0.5-0.3-0.4-0.7c0.1,0,0.2-0.1,0.3-0.1
		c0.3-0.1,0.7,0,1.1-0.1c0.4-0.1,0.6,0.2,0.7,0.5c0.1,0.3,0,0.5-0.2,0.7c-0.1,0.1-0.4,0.1-0.5,0.2C83.2,30,83.2,30,82.9,29.9z"/>
	<path fill="#6E6E6E" d="M83.6,29.9c0.3-0.2,0.4-0.5,0.3-0.9c-0.2-0.4-0.4-0.3-0.7-0.3c-0.2,0-0.5,0-0.7,0c0.5-0.2,1-0.1,1.4-0.1
		c0.2,0,0.3,0.1,0.5,0c-0.1,0.3,0.1,0.4,0.2,0.6c0.3,0.3,0.1,0.5-0.2,0.8C84.2,30,83.8,30,83.6,29.9z"/>
	<path fill="#858585" d="M62.2,30.4c0.4-0.1,0.4-0.1,1-0.8c0.2,0.3,0,0.5,0,0.8C62.8,30.4,62.5,30.5,62.2,30.4z"/>
	<path fill="#8A8A8A" d="M64.2,30c-0.3-0.1-0.5-0.1-0.6-0.4c0,0,0.1-0.1,0.1-0.1C64,29.5,64,29.8,64.2,30z"/>
	<path fill="#616161" d="M67.8,33.5c-0.1,0-0.1,0-0.2,0c0-0.4,0.1-0.7,0.1-1.1c0.2,0,0.4-0.1,0.6-0.1c0.5-0.1,0.4,0.3,0.5,0.5
		c0.1,0.2,0,0.5-0.2,0.5C68.3,33.3,68.1,33.5,67.8,33.5z"/>
	<path fill="#939393" d="M66.3,32.4c0,0,0.1,0,0.1,0c0.1,0,0.1,0.1,0.1,0.1c0.2,0.9-0.5,0.4-0.8,0.5C65.6,32.6,66.2,32.7,66.3,32.4z
		"/>
	<path fill="#9A9A9A" d="M61.9,32.6c0.1,0,0.3,0.1,0.3,0.2c0,0.2-0.1,0.2-0.3,0.2c-0.1,0-0.3,0-0.3-0.2
		C61.6,32.7,61.8,32.6,61.9,32.6z"/>
	<path fill="#575757" d="M66.5,32.5c0,0-0.1-0.1-0.1-0.1c0.4,0,0.7-0.2,1.1-0.1C67.2,32.5,66.9,32.8,66.5,32.5z"/>
	<path fill="#676767" d="M14.7,30.3c0.8,0.3,1.6,0.2,2.4,0.1c0.1,0.4,0,0.7,0.1,1.1c-0.1,0-0.2,0.1-0.4,0.1
		c-0.2-0.6-0.3-0.7-1.1-0.5c-0.5,0.1-0.9-0.2-1.3-0.4c-0.3-0.2-0.2-0.3,0-0.5C14.5,30.3,14.6,30.3,14.7,30.3z"/>
	<path fill="#8A8A8A" d="M16.5,29.9c-0.4,0-0.8-0.1-1.2,0c0,0-0.1-0.1-0.1-0.1c-0.1-0.4-0.4-0.8,0.2-1c0.3,0.2,0.7,0,1.1,0.1
		C16.3,29.2,16.1,29.6,16.5,29.9z"/>
	<path fill="#959595" d="M18,30c0-0.1-0.1-0.2-0.2-0.2c0-0.1,0-0.1,0-0.2c0-0.2-0.3-0.2-0.1-0.5c0,0,0.2-0.1,0.2,0
		c0.2,0.1,0.2,0.3,0.2,0.4C18.1,29.7,18.1,29.8,18,30z"/>
	<path fill="#5D5D5D" d="M21,28.7c0.2-0.1,0.5-0.2,0.6,0.1c0,0,0,0.2-0.1,0.2C21.3,29,21.2,28.8,21,28.7z"/>
	<path fill="#AEAEAE" d="M18,31.1c0.2,0,0.3,0,0.3,0.2c0,0.2-0.1,0.2-0.3,0.3c-0.1,0-0.2-0.1-0.2-0.2C17.8,31.1,17.9,31.1,18,31.1z"
		/>
	<path fill="#5C5C5C" d="M18.9,31c0.2,0.3,0.1,0.6,0.1,0.9C18.6,31.6,18.7,31.3,18.9,31z"/>
	<path fill="#5F5F5F" d="M20.4,31c1-0.1,1-0.1,0.8,0.7C21,31.5,20.9,31.1,20.4,31z"/>
	<path fill="#6C6C6C" d="M29.8,28.9c-0.2,0-0.4,0-0.5-0.2c0.1-0.1-0.1-0.5,0.1-0.4c0.3,0.2,0.9-0.3,0.9,0.4v0
		C30.2,28.9,30,28.8,29.8,28.9z"/>
	<path fill="#888888" d="M27.3,31.5c0.2-0.1,0.5-0.1,0.7-0.1c0.1,0.5-0.3,0.4-0.6,0.5c0,0,0,0,0,0C27.2,31.8,27.2,31.7,27.3,31.5z"
		/>
	<path fill="#707070" d="M27.3,31.5c0,0.1,0.1,0.2,0.1,0.4c-0.1,0-0.2,0.1-0.3,0.1c-0.2,0-0.3-0.2-0.3-0.3c0-0.1,0-0.2,0.1-0.3
		C27.1,31.3,27.1,31.5,27.3,31.5z"/>
	<path fill="#606060" d="M29.8,28.9c0.1-0.2,0.3-0.2,0.5-0.2c0,0.1,0.1,0.3-0.1,0.4C30,29.1,29.9,29,29.8,28.9z"/>
	<path fill="#717171" d="M15.8,31.2c0.1-0.4,0.5-0.4,0.8-0.3c0.3,0.1,0.4,0.4,0.3,0.8c-0.1,0-0.2,0.1-0.3,0.1
		C16.6,31.2,16,31.4,15.8,31.2z"/>
	<path fill="#5A5A5A" d="M19.6,33.9c-0.1,0.2-0.1,0.3-0.2,0.5c-0.1,0.2-0.3,0.2-0.4,0.1c-0.2-0.2,0-0.3,0.1-0.3
		c0.2,0.1,0.2-0.1,0.3-0.3C19.5,33.8,19.6,33.7,19.6,33.9z"/>
	<path fill="#878787" d="M78.9,34c0.4-0.1,0.8-0.2,1.1-0.4c0.8-0.4,0.9-0.6,1.9-0.3c0.1,0.2,0.3,0.4-0.1,0.5c-0.2,0-0.5,0-0.5,0.3
		c0,0.3-0.3,0.4-0.4,0.5c-0.2,0-0.4,0.1-0.7,0c-0.5-0.3-0.6-0.2-0.6,0.3c0,0.1,0,0.1-0.1,0.2c-0.3-0.1-0.2-0.3-0.3-0.5
		c0-0.2-0.1-0.4-0.2-0.5C78.8,34,78.8,34,78.9,34C78.8,34,78.9,34,78.9,34z"/>
	<path fill="#939393" d="M76,34.8c0.3-0.2,0.6-0.1,1-0.1c-0.2,0.2-0.2,0.5-0.3,0.7c-0.1,0.2,0,0.5-0.3,0.4c-0.2-0.1-0.3-0.3-0.2-0.6
		c0-0.1,0.2-0.1,0.2-0.3C76.2,34.7,76.1,34.8,76,34.8z"/>
	<path fill="#575757" d="M65.5,36.3c0,0,0.1-0.1,0.1-0.1c0.8,0.1,0.8,0.1,0.7,1c0,0.1,0,0.2,0,0.4c-0.2-0.2-0.5-0.4-0.5-0.7
		c0-0.3-0.2-0.2-0.3-0.2C65.5,36.5,65.5,36.4,65.5,36.3z"/>
	<path fill="#636363" d="M65.5,36.3c0,0.1,0,0.2,0,0.3c-0.1,0.2-0.2,0.5-0.5,0.5c-0.4,0-0.2-0.4-0.4-0.6c0,0,0-0.1,0-0.1
		C65,36.4,65.3,36.5,65.5,36.3z"/>
	<path fill="#757575" d="M84.8,33c0,0.1,0,0.2-0.2,0.2c-0.2,0-0.2-0.2-0.3-0.3c0-0.1,0-0.2,0.1-0.1C84.6,32.8,84.7,32.8,84.8,33z"/>
	<path fill="#717171" d="M85.5,32.8c0.1-0.2,0.2-0.4,0.4-0.3c0,0,0.1,0.1,0.1,0.1C85.8,32.8,85.7,32.8,85.5,32.8z"/>
	<path fill="#717171" d="M77.2,30.2c0,0-0.1,0-0.1,0c-0.1,0-0.2-0.1-0.3-0.1c-0.2-0.1-0.4-0.3-0.3-0.5c0-0.3,0.3-0.1,0.5-0.1
		c0.1,0,0.3,0,0.4,0c0.1,0.1,0.2,0.3,0.4,0.4C77.8,30.3,77.4,30.2,77.2,30.2z"/>
	<path fill="#7B7B7B" d="M75.3,30.2c-0.4,0-0.9,0.3-1.2-0.2c0-0.2,0-0.5,0.3-0.2c0.2,0.2,0.5,0.3,0.7,0c0.1-0.1,0.1-0.3,0.3-0.2
		c0.1,0.1,0.3,0.1,0.3,0.3C75.6,30.1,75.4,30.1,75.3,30.2z"/>
	<path fill="#5C5C5C" d="M80.8,30c-0.3,0.2-0.5,0.2-0.8,0c-0.1-0.1-0.3-0.1-0.4-0.3c0.3,0,0.6-0.1,0.3-0.5c0.3,0,0.6,0.1,0.9,0.1
		c0.2,0,0.5-0.1,0.5,0.2c0.1,0.3-0.2,0.3-0.4,0.4C80.9,29.9,80.8,30,80.8,30z"/>
	<path fill="#888888" d="M76.9,30.2c0.2-0.1,0.6-0.1,0.7-0.4c0-0.6,0.3-0.8,0.7-0.7c0.2,0.1,0.3,0.2,0.2,0.3c0,0.2-0.2,0.3-0.3,0.2
		c-0.7-0.2,0,0.3,0,0.5C78,30.2,77.2,30.3,76.9,30.2z"/>
	<path fill="#9C9C9C" d="M67.5,29.3c0.3,0.1,0.6,0,0.8,0.2c-0.2,0-0.4,0.1-0.6,0.1C67.3,29.7,67.4,29.5,67.5,29.3z"/>
	<path fill="#606060" d="M87.2,29.8c-0.9,0-1.9,0.1-2.8,0c0.1-0.2,0.2-0.4,0.2-0.6c0.7,0.1,1.3,0.2,2,0c0.2-0.1,0.5-0.1,0.7,0.1
		c0.2,0.1,0.5-0.1,0.5,0.3C87.8,29.8,87.4,29.7,87.2,29.8z"/>
	<path fill="#626262" d="M76.7,33c-1.1,0.2-2.2,0.1-3.2,0.1c-0.4-0.5-0.1-1.2,0.5-1.3c1.2,0,2.5-0.1,3.7-0.1
		c0.1,0.1,0.1,0.1,0.2,0.2c0.4,0.6,0.3,0.9-0.5,1C77.1,33,76.9,32.9,76.7,33z"/>
	<path fill="#616161" d="M69.6,32.3c1-0.2,2-0.4,3-0.3c0.1-0.1,0.3,0,0.4,0c0.4,0,0.4,0.2,0.2,0.5c-0.3,0.4-0.6,0.8-1.1,0.7
		c-0.2,0-0.4,0.2-0.6,0.1c-0.6-0.2-1.3,0.2-1.9,0c-0.2-0.1-0.5,0-0.5-0.3c-0.1-0.3,0.1-0.5,0.3-0.6C69.5,32.4,69.6,32.3,69.6,32.3z"
		/>
	<path fill="#727272" d="M69.6,32.3c-0.2,0.8-0.2,0.8,0.6,0.8c0.4,0,0.9-0.1,1.3,0.1c0.1,0,0.1,0.1,0,0.1c-1.1,0.1-2.3,0.1-3.4,0.2
		c-0.1,0-0.2,0-0.3-0.1c0.7-0.4,0.8-0.6,0.5-1.2C68.7,32.2,69.2,32.1,69.6,32.3z"/>
	<path fill="#757575" d="M71.5,33.4c0,0,0-0.1,0-0.1c0.5-0.2,1-0.2,1.3-0.8c0.1-0.1,0.3-0.2,0.2-0.3C73,32,72.7,32,72.6,32
		c0.4-0.2,0.9-0.1,1.3-0.2c-0.1,0.1-0.4,0.2,0,0.4c0.2,0.1,0.3,0.2,0.3,0.5c-0.5-0.3-0.8-0.1-0.7,0.4C72.8,33.2,72.2,33.3,71.5,33.4
		z"/>
	<path fill="#565656" d="M76.7,33c0-0.5,0.5-0.4,0.7-0.3c0.6,0.1,0.4-0.2,0.3-0.5c0-0.2-0.3-0.3-0.1-0.5c0.2,0,0.4,0,0.6,0
		c0.1,0.2,0.3,0.3,0.5,0.4c0.4,0.2,0.5,0.5,0.1,0.9c-0.1,0.1-0.2,0.1-0.4,0.1C78.3,32.8,78,33,77.8,33C77.4,33.1,77.1,33.1,76.7,33
		C76.7,33.1,76.7,33,76.7,33z"/>
	<path fill="#6D6D6D" d="M78.9,33c0-0.3-0.1-0.6-0.4-0.7c-0.3-0.1-0.2-0.4-0.2-0.6c0.2,0,0.3,0,0.4-0.1c0.4-0.4,0.5-0.1,0.6,0.2
		c0.1,0.2,0.1,0.4,0.1,0.6C79.4,32.8,79.3,33.1,78.9,33z"/>
	<path fill="#797979" d="M75.3,32.5c0,0.3-0.2,0.2-0.4,0.2c-0.1,0.1-0.2,0-0.2-0.2c0-0.2,0.1-0.4,0.3-0.4
		C75.2,32.1,75.2,32.3,75.3,32.5z"/>
	<path fill="#757575" d="M71.7,32.4c0.1,0.1,0.4,0,0.4,0.2c0,0.1-0.2,0.2-0.3,0.2c-0.2,0-0.3,0-0.3-0.2
		C71.4,32.4,71.5,32.4,71.7,32.4z"/>
	<g>
		<path d="M40.8,20c0,0.2,0.1,0.4,0.1,0.7c0.3-0.3,0.8-0.7,1.4-0.7c1.1,0,1.9,0.8,1.9,2.1c0,1.2-0.7,2.2-2,2.2c-0.6,0-1-0.3-1.3-0.6
			v1.5c0,1.1,0,1.1,0.7,1.1v0.2h-2.1v-0.2h0.1c0.5,0,0.6-0.1,0.6-0.9v-4.2c0-0.6-0.1-0.8-0.6-0.8h-0.1v-0.2c0.5,0,1-0.2,1.2-0.2
			H40.8z M40.8,23.4C41,23.6,41.4,24,42,24c0.4,0,1.4-0.2,1.4-2c0-1.6-1-1.8-1.3-1.8c-0.7,0-1,0.5-1.2,0.7V23.4z"/>
		<path d="M45.8,21.5c0,0.1,0,0.3,0,0.5c0,0.5,0,2.1,1.3,2.1c0.2,0,0.9,0,1.3-0.8h0.2c0,0.1-0.4,1.1-1.6,1.1c-0.9,0-2-0.7-2-2.1
			c0-1.2,0.8-2.2,1.9-2.2c1,0,1.6,0.8,1.7,1.5H45.8z M47.7,21.3c0-0.1,0-0.1,0-0.2c0-0.7-0.5-0.9-0.9-0.9c-0.9,0-1,0.8-1.1,1.1H47.7
			z"/>
		<path d="M53.5,23.4c0,0.4-0.3,0.8-0.8,0.8c-0.6,0-0.7-0.5-0.8-0.7c-0.5,0.3-1.1,0.7-1.6,0.7c-0.4,0-1-0.3-1-0.8
			c0-0.6,0.5-1,1.8-1.6l0.8-0.3v-0.2c0-0.6-0.1-1.1-0.9-1.1c-0.3,0-0.8,0.1-0.8,0.4c0,0.2-0.1,0.5-0.4,0.5c-0.2,0-0.3-0.1-0.3-0.3
			c0-0.3,0.4-0.9,1.6-0.9c1.5,0,1.5,0.9,1.5,1.4V23c0,0.6,0,0.9,0.3,0.9c0.1,0,0.3-0.1,0.4-0.5H53.5z M51.9,21.7l-0.5,0.2
			c-0.5,0.2-1.3,0.6-1.3,1.3c0,0.3,0.2,0.7,0.6,0.7c0.4,0,1-0.5,1.2-0.6V21.7z"/>
		<path d="M55.1,20.3v2.4c0,0.5,0,1.2,0.6,1.2c0.3,0,0.5-0.3,0.6-0.4l0.2,0.1c-0.3,0.6-1,0.6-1,0.6c-0.4,0-0.7-0.2-0.9-0.5
			c-0.1-0.2-0.1-0.4-0.1-1.2v-2.3h-0.6v-0.2c0.4,0,1-0.3,1.1-1.2h0.2v1.2h1.2v0.2H55.1z"/>
	</g>
	<g>
		<path d="M4.6,12.3c0,0.4-0.3,0.8-0.8,0.8c-0.6,0-0.7-0.5-0.8-0.7c-0.5,0.3-1.1,0.7-1.6,0.7c-0.4,0-1-0.3-1-0.8
			c0-0.6,0.5-1,1.8-1.6L3,10.4v-0.2c0-0.6-0.1-1.1-0.9-1.1c-0.3,0-0.8,0.1-0.8,0.4c0,0.2-0.1,0.5-0.4,0.5c-0.2,0-0.3-0.1-0.3-0.3
			c0-0.3,0.4-0.9,1.6-0.9c1.5,0,1.5,0.9,1.5,1.4v1.6c0,0.6,0,0.9,0.3,0.9c0.1,0,0.3-0.1,0.4-0.5H4.6z M3,10.6l-0.5,0.2
			c-0.5,0.2-1.3,0.6-1.3,1.3c0,0.3,0.2,0.7,0.6,0.7c0.4,0,1-0.5,1.2-0.6V10.6z"/>
	</g>
	<g>
		<path d="M90.8,12.8c0,0.5-0.3,0.8-0.8,0.8c-0.6,0-0.7-0.5-0.8-0.7c-0.5,0.3-1.1,0.7-1.6,0.7c-0.4,0-1-0.3-1-0.8
			c0-0.6,0.5-1,1.8-1.6l0.8-0.3v-0.2c0-0.6-0.1-1.1-0.9-1.1c-0.3,0-0.8,0.1-0.8,0.4c0,0.2-0.1,0.5-0.4,0.5c-0.2,0-0.3-0.1-0.3-0.3
			c0-0.3,0.4-0.9,1.6-0.9c1.5,0,1.5,0.9,1.5,1.4v1.6c0,0.6,0,0.9,0.3,0.9c0.1,0,0.3-0.1,0.4-0.5H90.8z M89.2,11.1l-0.5,0.2
			c-0.5,0.2-1.3,0.6-1.3,1.3c0,0.3,0.2,0.7,0.6,0.7c0.4,0,1-0.5,1.2-0.6V11.1z"/>
	</g>
	<g>
		<g>
			<line fill="none" stroke="#000000" stroke-width="0.25" stroke-miterlimit="10" x1="5.7" y1="13" x2="6.7" y2="13.4"/>
			
				<line fill="none" stroke="#000000" stroke-width="0.25" stroke-miterlimit="10" stroke-dasharray="2.1302,2.1302" x1="8.6" y1="14.2" x2="31.5" y2="22.9"/>
			<line fill="none" stroke="#000000" stroke-width="0.25" stroke-miterlimit="10" x1="32.5" y1="23.3" x2="33.5" y2="23.6"/>
		</g>
	</g>
	
		<line fill="none" stroke="#000000" stroke-width="0.25" stroke-miterlimit="10" stroke-dasharray="2" x1="61.2" y1="25.3" x2="85.6" y2="12.2"/>
</g>
</svg>
