<svg xmlns="http://www.w3.org/2000/svg" xmlns:xlink="http://www.w3.org/1999/xlink" viewBox="0 0 324.96 188.73"><defs><style>.cls-1{font-size:10px;fill:#181716;font-family:BaskervilleMTPro-Regular, Baskerville MT Pro;}.cls-2{letter-spacing:-0.01em;}.cls-3{fill:url(#linear-gradient);}.cls-4{fill:url(#linear-gradient-2);}.cls-5{fill:url(#linear-gradient-3);}.cls-6{fill:url(#linear-gradient-4);}.cls-7{fill:url(#linear-gradient-5);}.cls-8{fill:url(#linear-gradient-6);}.cls-9{fill:#6f6f6e;stroke:#6c6c6b;stroke-linecap:round;stroke-linejoin:round;stroke-width:0.25px;}.cls-10{fill:url(#linear-gradient-7);}.cls-11{fill:url(#linear-gradient-8);}</style><linearGradient id="linear-gradient" x1="64.63" y1="25.64" x2="66.76" y2="25.64" gradientUnits="userSpaceOnUse"><stop offset="0" stop-color="#fff"/><stop offset="0" stop-color="#eaebeb"/><stop offset="0" stop-color="#d9dada"/><stop offset="0" stop-color="#cecfcf"/><stop offset="0" stop-color="#c7c8c8"/><stop offset="0" stop-color="#c5c6c6"/><stop offset="0.05" stop-color="#b0b0b0"/><stop offset="0.14" stop-color="#8a8b8b"/><stop offset="0.24" stop-color="#6c6c6c"/><stop offset="0.34" stop-color="#545454"/><stop offset="0.45" stop-color="#434343"/><stop offset="0.57" stop-color="#393939"/><stop offset="0.71" stop-color="#363636"/></linearGradient><linearGradient id="linear-gradient-2" x1="66.16" y1="2.58" x2="66.94" y2="2.58" xlink:href="#linear-gradient"/><linearGradient id="linear-gradient-3" x1="70.16" y1="26.49" x2="71.84" y2="26.49" xlink:href="#linear-gradient"/><linearGradient id="linear-gradient-4" x1="70.16" y1="26.9" x2="89.01" y2="26.9" gradientUnits="userSpaceOnUse"><stop offset="0.29" stop-color="#363636"/><stop offset="0.49" stop-color="#393939"/><stop offset="0.66" stop-color="#434343"/><stop offset="0.81" stop-color="#545454"/><stop offset="0.94" stop-color="#696969"/></linearGradient><linearGradient id="linear-gradient-5" x1="80.79" y1="35.55" x2="84.74" y2="35.55" gradientUnits="userSpaceOnUse"><stop offset="0.29" stop-color="#363636"/><stop offset="0.43" stop-color="#393939"/><stop offset="0.55" stop-color="#434343"/><stop offset="0.66" stop-color="#545454"/><stop offset="0.76" stop-color="#6c6c6c"/><stop offset="0.86" stop-color="#8a8b8b"/><stop offset="0.95" stop-color="#b0b0b0"/><stop offset="1" stop-color="#c5c6c6"/><stop offset="1" stop-color="#c7c8c8"/><stop offset="1" stop-color="#cecfcf"/><stop offset="1" stop-color="#d9dada"/><stop offset="1" stop-color="#eaebeb"/><stop offset="1" stop-color="#fff"/></linearGradient><linearGradient id="linear-gradient-6" x1="10.75" y1="34.84" x2="12.19" y2="34.84" xlink:href="#linear-gradient-5"/><linearGradient id="linear-gradient-7" x1="14.9" y1="34.21" x2="17.28" y2="34.21" xlink:href="#linear-gradient-5"/><linearGradient id="linear-gradient-8" x1="26.96" y1="16.74" x2="50.65" y2="16.74" xlink:href="#linear-gradient-5"/></defs><g id="Layer_2" data-name="Layer 2"><g id="_12008a_draft_german" data-name="12008a_draft_german"><g id="Ga"><text class="cls-1" transform="translate(33.81 28.84)">Bl<tspan class="cls-2" x="8.55" y="0">a</tspan><tspan x="13.14" y="0">tt</tspan></text><text class="cls-1" transform="translate(93.06 28.84)">Bl<tspan class="cls-2" x="8.55" y="0">a</tspan><tspan x="13.14" y="0">tt</tspan></text><text class="cls-1" transform="translate(0 60.36)">Stengel</text><g id="solid_path"><path class="cls-3" d="M65.63.19l-.56.22-.44.43v.82l.31,1.81.19,1.41v.9l.25.69s.09.56.09.72-.15,1.4-.15,1.62-.19,7.38-.19,7.38V38.41l.25,5.43a11.83,11.83,0,0,0,0,1.75A18,18,0,0,1,65.35,48l-.22,2.59.34.5h1l.25-.15v-13s-.22-2.25-.29-2.63-.21-2.9-.21-2.9,0-4.25,0-4.38V23.06l-.09-10.5s.22.5.22-2.93-.16-2.66,0-3.44S66.76,6,66.44,5s-.22.34-.31-1a6.88,6.88,0,0,0-.25-1.84c-.12-.57-.12.12-.19-.91Z"/><path class="cls-4" d="M66.16,4.35s.22-1.32.22-1.44V1a2.72,2.72,0,0,1,.38-.91l0-.09a5.15,5.15,0,0,1,.15.88c0,.28-.28.28-.18.78s-.07.84,0,1.25a1.53,1.53,0,0,1,0,.9,2.38,2.38,0,0,0-.21.82l-.06.53Z"/><path class="cls-5" d="M70.47.38h.63s0,.84,0,.93,0-.9,0,2.35.09,3.65.16,6.75,0,1.37,0,3.31-.22,1.16,0,1.94.18-.69.25,1,.15,2.34.18,4.15,0-.78,0,2-.13,2.56,0,3.12a13.78,13.78,0,0,1,0,2.44l.06,1.94s.11-2.1,0,2.21-.08,6.19-.08,6.19l.13,6.88v3.75c-.06,2.18.06,1.18,0,1.68s.12.29-.06.5a2.44,2.44,0,0,0-.29.41s-.22.31-.31.34-.78.66-.69-.12,0-.59.1-.78a3.17,3.17,0,0,0,.22-.75l.36-.31a1.71,1.71,0,0,0,0-.41c0-.16,0-.66,0-.66v-.43a.87.87,0,0,0-.36-.07c-.22,0-.5.16-.57,0s.13-.5,0-1.06.13-.72.22-1,.22-2.83.22-2.83V39.06L71,33.47s0-3.27,0-7a32.17,32.17,0,0,0,0-3.71c-.13-1.56-.13-.94-.16-2s.16.75,0-1.53-.35-3.22-.38-3.34-.25-.19-.25-.19-.07,0,0-.38c0-.1,0-.18,0-.21a13.74,13.74,0,0,0,.21-2.32V12c0-.87-.06-1.78-.06-1.78-.07-1.49,0-2.73,0-5.87,0-.73,0-1.15,0-1.26C70.35,2.78,70.47.38,70.47.38Z"/><path class="cls-6" d="M70.16,12.63c.5-.57.12,0,.84-.72s0-.16.84-.91-.08-.28,1.2-.91a14.9,14.9,0,0,1,1.84-.87c1.38-.56.28-.44,1.59-.63s.25-.25,1.6-.25.37-.21,2,0a10.59,10.59,0,0,1,3.06.5c1.1.44.28.1,1.35.57s.59-.07,1.31.84.56,0,1,1.28.19.63.53,1.6a6.2,6.2,0,0,1,.47,1.75,2.5,2.5,0,0,0,.15.68c.07.28.19.35.19.66s-.19.47,0,.91.16.56.25.75a1.4,1.4,0,0,1,.31.56c.19.5.29.31.29,1.06a11.15,11.15,0,0,1-.44,2.38c-.13.43-.56,2.15-.69,2.5s-.78,2.46-.91,2.93a11.74,11.74,0,0,1-.81,1.82,5.84,5.84,0,0,0-.5,1,9.25,9.25,0,0,1-.44,1.15,5.37,5.37,0,0,1-.6,1c-.07.13-.27.22-.46.38l0,.05a1.06,1.06,0,0,0-.26.37c-.22.5-.58.63-.89,1.16s-.51.77-.82,1.33-.75,2-1,2.37a7.44,7.44,0,0,1-.63,1.48c-.18.24-.35.45-.45.56-.31.34-1.63,1.44-2.06,2a27.25,27.25,0,0,1-1.66,2.22c-.38.34-1.47,1.16-1.5,1.28s-.34,0-.34,0l.21-.47s1.16-1.37,1.38-1.53,1.28-1.28,1.28-1.28a1.23,1.23,0,0,1-.31-.69,2.16,2.16,0,0,1,.5-1,.9.9,0,0,1,.47-.28A10.06,10.06,0,0,0,79.13,39s.88-.81.88-1,.18-.6.25-1,.43-.53.59-.69a12.9,12.9,0,0,0,1-1.47,14.56,14.56,0,0,1,1.4-2.06,22.07,22.07,0,0,0,1.5-2.44c.13-.22,1.16-2.34,1.16-2.34s.69-1.88.75-2,.66-2.69.66-2.91.53-2.62.53-2.87.34.09,0-.66a5.4,5.4,0,0,0-.63-1.09,1.14,1.14,0,0,1-.31-.66,10.2,10.2,0,0,0-.19-1.5c-.06-.16-.37-1.28-.37-1.28a1.67,1.67,0,0,0-.57-.72C85.38,14,84.91,13,84.91,13l-.44-.72a5.4,5.4,0,0,0-.65-.22c-.1,0-1.06-.34-1.06-.34s-.72-.34-1-.41-.57-.15-1.1-.31a5.79,5.79,0,0,0-1.47-.16H78.1l-1.31-.18-.53.09a2.13,2.13,0,0,1-.66,0,1.69,1.69,0,0,0-.72.06c-.16,0-.16-.15-.25.28a4.14,4.14,0,0,0-.09.75,2.37,2.37,0,0,1-.44,0,3.33,3.33,0,0,0-.84,0c-.13.06,0-.25-.13.06s-.06.47-.28.65-.06.35-.38.5,0,.29-.63.35a4.74,4.74,0,0,1-1,0l-.66-.16Z"/><path class="cls-7" d="M84.15,32.78a2.72,2.72,0,0,1-.29.7c-.22.42,0,0-.31.54a3.64,3.64,0,0,1-.38.64c-.37.61-.19.18-.53.72a5.54,5.54,0,0,0-.54.91c-.19.4-.13.19-.34.61a2,2,0,0,1-.43.66,3,3,0,0,0-.34.78,3.1,3.1,0,0,0-.2.59,4.81,4.81,0,0,1,.59-.55c.14-.07.27-.17.48-.55s.2-.25.41-.67.13-.31.37-.76.38-.64.49-.9a6.76,6.76,0,0,1,.5-.82l.53-.87c0-.08.36-.81.37-.84s.42-1.12,0-.72-.38.23-.38.23Z"/></g><path class="cls-8" d="M11.53,17l-.38.31v3a22.58,22.58,0,0,1,.19,2.63c-.06.56.06.56,0,1.12s.06,1.63,0,1.82a5.47,5.47,0,0,0,0,1V28.9a7.53,7.53,0,0,0-.19,1.37,7,7,0,0,1,.18,1.57c-.05.18,0,1.68,0,1.68a6.46,6.46,0,0,1-.19,1.75,21.24,21.24,0,0,0,0,2.94c-.05,1-.3,5.75-.36,6.38s0,4.75,0,4.75l0,3.06.39.31h.39s.06-3.69,0-4.06.11-6,0-6.75.16-7.06.29-7.63-.13-7.06,0-7.31-.18-3.19,0-4.06.46-.44.21-.88-.25.5-.25-.43-.06-2.19-.06-2.19L12.19,18l-.29-.5Z"/><path class="cls-9" d="M16.15,27.09,14.9,28.21l.63.63h.62l.75-.57.56-1.18h.88l.5-.5.37-.32h.69l.31-.68.69-.75.75-.32h.81v-.37s0-.69.38-.81.56-.63.75-.63h1.5V21.9l.75-.31H27.4v-.82L27,20.4h-.68l-1.07.37-1.62,1.07-2,1.18-.88.57-.62.06-.13.5-1.06.47-1.19,1V26l-.62-.12H16Z"/><path class="cls-10" d="M16.4,16.27,16,17.46V30.84l-.31,1.75v3.18a3.63,3.63,0,0,0,0,.82,3.74,3.74,0,0,1,0,.87v9.13l-.28,2v1.06l-.44,1.62v.88h.75V51.4L16,49.71V48.4L16.4,47V40.15s-.06-6.44,0-6.69,0-3.69,0-3.69l.5-1.5V24l.38-.31-.5-1.06.5-.5-.38-.94-.19-1.31a12.13,12.13,0,0,1,.13-2.07A2.36,2.36,0,0,0,17,17Z"/><path class="cls-11" d="M27.4,20.4h.69l.37-.69h.88l.75-.56,1-.31s.56-.57,1-.57a7,7,0,0,0,1.69-.62l1.12-.38H36l.75-1a2.1,2.1,0,0,1,1.12,0c.5.19,1.63-.37,2.13-.5s1.5-.62,2-.68,2.87-.82,2.87-.82L48.71,13l1.38-.75h.56v.5l-1.44.63-2.31.69L45,14.77l-1.63.63L42,15.65l-1.06.62-2.37.38L37,17l-.94.75a6,6,0,0,1-1.25.56c-.25,0-1.81.38-1.81.38l-1.88.56-1,.44-.87.44-.69.31-1.19.81L27,20.4Z"/><text class="cls-1" transform="translate(55.65 60.36)">Stengel</text></g></g></g></svg>