<?xml version="1.0" encoding="utf-8"?>

<svg version="1.1" id="" xmlns="http://www.w3.org/2000/svg" xmlns:xlink="http://www.w3.org/1999/xlink"
	 x="0px" y="0px" viewBox="0 0 67.4 82.6" enable-background="new 0 0 67.4 82.6" xml:space="preserve">
<g id="_x31_33318_x5F_b">
	<path fill="#707070" d="M1.1,63.2c0,0.1,0,0.1,0,0.2c-0.2,0.5-0.2,1-0.1,1.5c0,0.6,0,1.2-0.2,1.8c0.1,0.2,0.2,0.4,0,0.6
		c-0.2,0.1-0.2,0-0.3-0.1c-0.3-0.2-0.1-0.5-0.1-0.7c0-0.3-0.1-0.7-0.1-1c0.2-0.5,0-1.1,0.2-1.6c0-0.2,0.1-0.4,0.1-0.6
		c0-0.2,0-0.5,0-0.7c0.2-0.3,0.2-0.5,0.1-0.8c-0.1-0.5,0-1.1,0-1.6c-0.2-0.9-0.1-1.8,0-2.8c0-0.4,0-0.7-0.1-1.1c0,0,0.1-0.1,0.1-0.1
		c0.5-0.4,0.6-0.3,0.7,0.2c0.1,0.3,0.1,0.6,0,0.8c-0.2,0.6-0.2,1.1,0.1,1.6c0.1,0.3,0,0.6,0,0.9c-0.2,0.4-0.3,0.7-0.2,1.1
		C1.3,61.6,0.9,62.4,1.1,63.2z"/>
	<path fill="#6C6C6C" d="M11.7,73.5c0.4,0.1,0.5,0.4,0.7,0.6c0,0.1,0,0.3,0,0.4c0,0.2,0.1,0.5-0.2,0.7c-0.2,0.1-0.3-0.1-0.4-0.3
		c-0.6-0.8-1.3-1.6-2-2.5c-0.1-0.2-0.3-0.3-0.4-0.5C9.4,71.7,9,71.5,9,71.1c0.1-0.1,0.1-0.3,0.3-0.3c0.2,0,0.3,0.2,0.4,0.3
		c0.2,0.2,0.3,0.5,0.7,0.5c0.2-0.1,0.3-0.1,0.5-0.2c0.2,0,0.3,0.1,0.3,0.3c0,0.1,0,0.2,0,0.2c-0.1,0.2-0.5,0.4-0.3,0.6
		C11.1,72.8,11.2,73.4,11.7,73.5z"/>
	<path fill="#646464" d="M12.2,75.1c0.2-0.2,0.1-0.5,0.2-0.8c0.4,0.1,0.3,0.4,0.4,0.7c0.1,0.5,0.2,1,0.7,1.4
		c0.2,0.1,0.2,0.5,0.3,0.7c0.1,0.2,0,0.5,0.3,0.6c0,0,0.1,0,0.1,0c0.4,0.2,0.2,0.5,0.1,0.8c-0.1,0.1-0.2,0.2-0.4,0.2
		c-0.3,0.1-0.5-0.1-0.5-0.4c-0.1-0.9-0.7-1.5-1.1-2.2C12.2,75.8,12.1,75.5,12.2,75.1z"/>
	<path fill="#191919" d="M8.7,70.9C8.1,70,7.6,69,6.9,68.1c-0.2-0.3-0.1-0.6,0.2-0.8c0.3-0.2,0.5,0.1,0.7,0.3c0.6,0.8,1,1.7,1.5,2.5
		c0.1,0.1,0.1,0.3,0,0.4c-0.4,0.2-0.4-0.1-0.5-0.3c-0.4-0.6-0.6-1.3-1-1.7c0.5,0.5,0.7,1.3,1.2,2C9.1,70.7,9,70.8,8.7,70.9z"/>
	<path fill="#5E5E5E" d="M8.7,70.9c0.1-0.4-0.2-0.7-0.3-1c-0.4-0.6-0.8-1.2-1.1-1.8c-0.1-0.2-0.3-0.4,0-0.5c0.2-0.1,0.3,0.1,0.4,0.3
		c0.5,0.8,1,1.7,1.6,2.5c0.2,0.1,0.4,0.2,0.2,0.5c-0.1,0.1-0.2,0.2-0.3,0.2c-0.1,0.1-0.1,0.2-0.2,0.3C8.8,71.2,8.7,71.1,8.7,70.9z"
		/>
	<path fill="#616161" d="M14.2,50.3c0,0.5-0.4,0.8-0.6,1.2c-0.2,0.5-0.8,0.8-0.8,1.4c-0.2,0.2-0.4,0.1-0.7,0.1
		c-0.3-0.2-0.4-0.5,0-0.7c0.2-0.2,0.3-0.4,0.4-0.5c0-0.3-0.1-0.6,0.2-0.9c0.4-0.1,0.6-0.3,0.8-0.6c0.1-0.2,0.2-0.5,0.5-0.2
		C14.2,50.1,14.2,50.2,14.2,50.3z"/>
	<path fill="#242424" d="M12.2,75.1c0.1,0.6,0.4,1.2,0.8,1.7c0.3,0.3,0.5,0.7,0.5,1.1c0.1,0.4,0.2,0.6,0.5,0.8
		c-0.5,0.4-0.6-0.2-0.7-0.4c-0.1-0.6-0.4-1.1-0.7-1.6c-0.4-0.5-0.5-1.2-0.8-1.8c-0.5-0.8-1.3-1.3-1.7-2.2c0-0.1-0.1-0.2-0.1-0.3
		c0.3,0.1,0.4,0.3,0.5,0.5C11,73.7,11.8,74.3,12.2,75.1z"/>
	<path fill="#3E3E3E" d="M12.6,51.7c0.1,0.3,0.1,0.6-0.3,0.7c-0.2,0.1-0.2,0.2,0,0.3c0.2,0.1,0.5,0.2,0.6,0.5
		c-0.2,0.3-0.2,0.6-0.6,0.7c0-0.1,0-0.2-0.3-0.2c-0.3-0.1-0.7,0.3-0.8-0.3c0.5-0.4,0.7-1,1-1.5C12.2,51.8,12.3,51.7,12.6,51.7z"/>
	<path fill="#292929" d="M30.2,64.6c0-0.2-0.1-0.4-0.1-0.6c-0.1-0.1-0.2-0.2-0.2-0.3c0-0.6,0.1-1.2,0.3-1.8c0.1-0.2,0.2-0.4,0.4-0.4
		c0.2-0.1,0-0.4,0.2-0.5c0.6,0,0.3,0.4,0.2,0.6c-0.2,0.7-0.4,1.5-0.3,2.3c0,0.3,0.1,0.5,0.1,0.7c0.2,0.3,0.4,0.6,0.7,0.8
		c0.2,0.2,0.4,0.4,0.1,0.6C30.9,65.7,30.5,65.2,30.2,64.6z"/>
	<path fill="#2F2F2F" d="M1.2,58.8c-0.3,0-0.2-0.2-0.3-0.4c0-0.6,0.1-1.2,0.2-1.8C1.2,56.2,1,56,0.6,56.2c0-0.2,0-0.5,0-0.7
		c0.2-0.4,0.6-0.2,0.9-0.2c0,0,0.1,0,0.1,0c0,0.1,0,0.2,0,0.3c0.1,0.6-0.2,1.2-0.1,1.8c0,0.2,0.1,0.5,0.1,0.8
		C1.5,58.4,1.5,58.7,1.2,58.8z"/>
	<path fill="#2B2B2B" d="M33.6,66.8c-0.4,0.4-0.9,0.4-1.3,0c-0.2-0.2-0.4-0.4-0.7-0.6c-0.1-0.2,0-0.3,0.1-0.4c0.1,0,0.1,0,0.2,0
		c0.2,0.2,0.3,0.3,0.4,0.5c-0.2-0.3-0.3-0.5,0.1-0.6c0.3,0.7,0.5,0.4,0.9,0.3C33.5,66.3,33.7,66.5,33.6,66.8z"/>
	<path fill="#1A1A1A" d="M14.1,77.7c-0.1,0.1-0.2,0.3-0.3,0c-0.4-1.2-1.3-2.1-1.5-3.3c0-0.1,0.1-0.2,0.1-0.2
		c0.2,0.2,0.4,0.6,0.4,0.9c0.1,0.5,0.3,1,0.7,1.3C14,76.6,13.8,77.3,14.1,77.7z"/>
	<path fill="#515151" d="M10.9,54.6c0.2,0.1,0.4,0,0.6-0.1c0.3,0.1,0.7-0.2,1,0.2c-0.2,0.4-0.6,0.5-0.8,0.4
		c-0.5-0.2-0.8,0.1-1.2,0.2c-0.2,0.1-0.3,0.2-0.4-0.1C10.1,54.8,10.5,54.7,10.9,54.6z"/>
	<path fill="#303030" d="M14.1,50.2c-0.6,0.2-0.6,0.9-1.1,1.1c0-0.2,0-0.4-0.3-0.5c0.1-0.1,0.2-0.2,0.2-0.4c0.3-0.2,0.5-0.3,0.4-0.7
		c0.1-0.3,0.2-0.7,0.6-0.7C14.6,49.3,14.6,49.4,14.1,50.2z"/>
	<path fill="#606060" d="M8.5,57c0.3-0.5,0.6-1,0.9-1.5c0.5-0.1,0.3,0.3,0.4,0.5c-0.3,0.4-0.4,0.9-0.8,1.2C8.8,57.2,8.5,57.4,8.5,57
		z"/>
	<path fill="#808080" d="M33.6,66.8c-0.1-0.3-0.3-0.5-0.3-0.8c0.4-0.1,0.5-0.1,0.9-0.1c0.4-0.1,0.7-0.1,1.1-0.2c0.1,0,0.2,0,0.2,0
		c0.1,0,0.3,0,0.3,0.2c0,0.2-0.2,0.2-0.3,0.1c-0.5-0.1-0.8,0.1-1.2,0.3c-0.2,0.2-0.4,0.3-0.6,0.5C33.6,66.8,33.6,66.8,33.6,66.8z"/>
	<path fill="#525252" d="M37.2,63.9c0-0.3,0.1-0.6,0.1-0.8c0.1-0.1,0.1-0.2,0.2-0.3c0.2,0,0.4,0,0.3-0.3c0-0.2,0.1-0.4,0.3-0.3
		c0.4,0.3,0.2,0.7,0.2,1l0,0c-0.2,0.5-0.5,0.5-0.7,0.8c0,0-0.1,0.1-0.1,0.1c-0.1,0.1,0,0.3-0.2,0.2C37,64.3,37.1,64.1,37.2,63.9z"/>
	<path fill="#1F1F1F" d="M14.1,50.2c0-0.2,0.1-0.4,0.1-0.6c-0.1,0-0.2,0.1-0.3,0.1c0-0.2,0.2-0.4,0.1-0.6c0.2-0.2,0.4-0.3,0.6-0.5
		c0.2-0.1,0.3,0,0.3,0.2c0,0.3,0.1,0.6-0.2,0.8c-0.2,0.2-0.3,0.5-0.5,0.7C14.2,50.2,14.2,50.2,14.1,50.2z"/>
	<path fill="#797979" d="M11.6,54.5c0.3-0.1,0.7-0.1,0.6-0.7c0.1-0.3,0.2-0.5,0.5-0.6c0.6,0,0.3,0.6,0.5,0.8
		c-0.1,0.1-0.2,0.2-0.3,0.3C12.5,54.6,12,54.7,11.6,54.5z"/>
	<path fill="#6D6D6D" d="M37.2,63.9c0.1,0.1,0,0.5,0.4,0.3c-0.2,0.8-0.7,1.3-1.3,1.3c0-0.2,0.2-0.2,0.3-0.3c0.1-0.2,0.1-0.3,0.2-0.5
		c0.1-0.2,0.2-0.4,0.3-0.6C37,64,37.1,63.9,37.2,63.9z"/>
	<path fill="#3A3A3A" d="M8.5,57c0.2,0.1,0.5-0.1,0.5,0.3c-0.2,0.2-0.3,0.6-0.6,0.7c-0.4,0.4-0.6,0.2-0.9-0.1l0,0l0,0
		C7.8,57.6,8.2,57.4,8.5,57z"/>
	<path fill="#6B6B6B" d="M13.1,71.8c0,0.1-0.1,0.1-0.1,0.2c-0.3,0.2-0.4-0.1-0.5-0.3c-0.2-0.3-0.3-0.5-0.6-0.7
		c-0.1-0.1-0.2-0.2-0.1-0.3c0.2-0.3,0.5-0.2,0.8-0.1C13,70.9,13,71.3,13.1,71.8z"/>
	<path fill="#474747" d="M11,71.7c0.1,0.4-0.1,0.8,0.3,1.1c0.2,0.2,0.3,0.5,0.5,0.7c0,0.1,0,0.2-0.1,0.2c-0.4-0.1-1-1.4-0.8-1.8
		C10.8,71.9,10.9,71.8,11,71.7z"/>
	<path fill="#A4A4A4" d="M36.1,63.5c-0.2-0.2-0.4-0.2-0.6-0.3c-0.1-0.1-0.3-0.1-0.4-0.3c0-0.1,0-0.1,0-0.2c0.4-0.1,0.9,0.2,1.1-0.4
		c0,0.4,0.7,0.6,0.3,1.1C36.3,63.5,36.2,63.5,36.1,63.5z"/>
	<path fill="#353535" d="M0.6,57.3c0.2,0.3,0.1,0.7,0,1.1c-0.1,0.6,0,1.2,0.1,1.7c-0.1,0.1-0.1,0.1-0.2,0
		C0.4,59.1,0.3,58.2,0.6,57.3z"/>
	<path fill="#A3A3A3" d="M9.8,56.1c-0.1-0.2-0.2-0.4-0.4-0.5c0.1-0.4,0.1-0.8,0.7-0.6c0.1,0.1,0.1,0.2,0,0.3c0,0.2,0.1,0.2,0.3,0.2
		C10.3,55.7,9.9,55.7,9.8,56.1z"/>
	<path fill="#4E4E4E" d="M11.7,70.8c0.3,0.2,0.6,0.5,0.7,0.8c-0.1,0.1-0.1,0.1-0.2,0c-0.4-0.7-0.9-0.3-1.4-0.3
		c0.1-0.4,0.5-0.5,0.7-0.7C11.6,70.7,11.7,70.7,11.7,70.8z"/>
	<path fill="#454545" d="M0.5,60c0.1,0,0.1,0,0.2,0c0,0.6,0,1.3,0,1.9c0,0.2,0.1,0.5-0.2,0.5c-0.1-0.2,0.2-0.5,0-0.7
		C0.5,61.2,0.5,60.6,0.5,60z"/>
	<path fill="#6F6F6F" d="M31.8,66c-0.1,0-0.2,0.1-0.2,0.2c0,0-0.1,0-0.1-0.1c-0.1-0.6-0.7-0.9-1-1.4c0,0,0-0.1,0-0.1
		c0.3-0.2,0.5,0,0.8,0.2c0.2,0.1,0.3,0.3,0.4,0.4C31.7,65.5,32,65.7,31.8,66z"/>
	<path fill="#313131" d="M9.4,70.9c-0.1-0.2-0.2-0.3-0.2-0.5c0-0.1,0.1-0.2,0.1-0.4c0.2,0.6,0.6,1.1,1.1,1.5c0,0.1,0.1,0.3-0.1,0.2
		C9.9,71.5,9.6,71.2,9.4,70.9z"/>
	<path fill="#5E5E5E" d="M12.3,71.6c0.1,0,0.1,0,0.2,0c0.1,0.2,0.3,0.3,0.5,0.4c-0.1,0.3-0.1,0.7-0.6,0.7c-0.2,0-0.5,0.2-0.6-0.2
		C12.3,72.4,12.5,72.2,12.3,71.6z"/>
	<path fill="#161616" d="M13.2,54c-0.4-0.2-0.1-0.7-0.5-0.8c-0.2-0.2-0.3-0.3-0.5-0.5c0.2-0.1,0.4,0.1,0.6,0.2
		C13,53.2,13.5,53.5,13.2,54z"/>
	<path fill="#232323" d="M2.7,64.9c-0.1-0.1-0.4-0.2-0.5-0.4c0-0.1,0-0.2,0-0.2c0.2-0.1,0.6,0,0.8-0.2c0.2-0.1,0.2-0.4,0.5-0.4
		c0.1,0,0.1,0,0.1,0.1C3.5,64.3,3.2,64.7,2.7,64.9z"/>
	<path fill="#464646" d="M0.6,54.7c-0.4-0.2-0.2-0.5-0.2-0.8c0.2-0.2,0.2-0.5,0.6-0.5c0.1,0.1,0.1,0.2,0.1,0.3
		c-0.1,0.2-0.2,0.5-0.2,0.7C0.9,54.6,0.9,54.8,0.6,54.7z"/>
	<path fill="#3A3A3A" d="M1,53.6c0-0.1,0-0.2,0-0.3c0.5,0.4,0.3,1,0.3,1.5c0,0.1-0.1,0.2-0.1,0.3C1,55.3,1,55.1,0.9,55
		C0.9,54.5,0.8,54.1,1,53.6z"/>
	<path fill="#797979" d="M10.1,55.2c0-0.1,0-0.2,0-0.3c0-0.2,0-0.4,0-0.6c0.2,0,0.5,0,0.7,0.2C10.8,55,10.3,54.9,10.1,55.2z"/>
	<path fill="#3A3A3A" d="M8.2,58.5c-0.2,0.1-0.4,0.3-0.6,0.4C7.3,59,7,59.1,7.1,58.6c0.1-0.3,0.4-0.3,0.6-0.5
		C8,58.1,8.1,58.2,8.2,58.5z"/>
	<path fill="#707070" d="M1.1,55c0,0.1,0.1,0.2,0.1,0.2c0.1,0,0.2,0.1,0.3,0.1c-0.3,0-0.5,0.3-0.8,0.1c0-0.2,0-0.3,0-0.5
		C0.8,54.8,0.9,54.8,1.1,55z"/>
	<path fill="#5A5A5A" d="M13.4,49.8c0.3,0.2,0.1,0.4,0,0.6c-0.1,0.2-0.2,0.2-0.4,0.1C13.1,50.2,13.2,50,13.4,49.8z"/>
	<path fill="#868686" d="M11.7,72.5c0.2,0.1,0.4,0.2,0.6,0.2c-0.2,0.2-0.3,0.4-0.6,0.3C11.5,72.9,11.6,72.7,11.7,72.5
		C11.7,72.5,11.7,72.5,11.7,72.5z"/>
	<path fill="#0C0C0C" d="M3.6,63.8c0,0-0.1,0-0.1,0c-0.3-0.4,0-0.8,0.1-1.2c0.1-0.1,0.2-0.1,0.3-0.1C4,62.9,3.9,63,4,63.3
		C3.8,63.4,3.7,63.6,3.6,63.8z"/>
	<path fill="#686868" d="M7.7,58.2c-0.1,0.3-0.3,0.4-0.6,0.4c0-0.1,0-0.2-0.1-0.2c0.2,0,0.2-0.4,0.4-0.4C7.6,58,7.7,58.1,7.7,58.2z"
		/>
	<path fill="#292929" d="M13.1,71.8c-0.2-0.3-0.1-0.8-0.6-1c0-0.3,0.1-0.2,0.3-0.1C13.1,70.9,13.3,71.3,13.1,71.8z"/>
	<path fill="#202020" d="M14.4,78.5c-0.3-0.2,0.1-0.6-0.1-0.8C14.8,77.9,14.8,78,14.4,78.5z"/>
	<path fill="#1C1C1C" d="M8.9,71.4c0-0.1,0.1-0.3,0.2-0.3c0,0.3,0.4,0.5,0.4,0.8C9.2,71.9,9.1,71.7,8.9,71.4z"/>
	<path fill="#090909" d="M7.7,58.2c-0.1-0.1-0.2-0.2-0.3-0.3c0,0,0-0.1,0.1-0.1C7.8,58,8.1,58.1,8.4,58c0,0.2-0.1,0.3-0.2,0.5
		C8,58.4,7.9,58.3,7.7,58.2z"/>
	<path fill="#2C2C2C" d="M11.6,54.5c0.5,0.2,0.9-0.2,1.3-0.1c-0.2,0.1-0.3,0.3-0.5,0.4C12.1,54.7,11.8,54.6,11.6,54.5
		C11.5,54.5,11.5,54.5,11.6,54.5z"/>
	<path fill="#D1D1D1" d="M33.7,66.8c0-0.3,0.3-0.5,0.6-0.5C34.3,66.7,34,66.8,33.7,66.8z"/>
	<path fill="#2E2E2E" d="M12.7,70.6c-0.1,0-0.2,0.1-0.3,0.1c-0.2-0.1-0.5-0.1-0.7,0c0,0-0.1-0.1-0.1-0.1
		C12,70.3,12.3,70.5,12.7,70.6z"/>
	<path fill="#666666" d="M1.1,68.1c0,0,0,0.1,0,0.1c-0.4,0.6-0.3,1.3-0.4,1.9c0,0.1,0,0.1,0,0.2c-0.2,0.2,0.1,0.7-0.3,0.8
		c-0.1,0-0.1,0-0.2-0.1c0-0.7,0.2-1.5,0.3-2.2c0.1-0.3,0-0.5,0-0.8c0-0.2-0.1-0.5,0.1-0.6c0.2-0.1,0.3,0.2,0.5,0.3
		C1.1,67.9,1.1,68,1.1,68.1z"/>
	<path fill="#343434" d="M0.5,63.2c0,0.8,0.2,1.5-0.2,2.3C0.2,64.7,0.3,63.9,0.5,63.2z"/>
	<path fill="#818181" d="M0.2,71c0.2-0.2,0.1-0.6,0.3-0.8c0.4,0,0.1,0.3,0.2,0.5c0,0.1,0,0.2,0,0.2c0,0.3,0.2,0.6-0.1,0.9
		C0,71.8,0.1,71.4,0.2,71z"/>
	<path fill="#818181" d="M1,67.9c-0.2,0.1-0.3,0-0.4-0.2c-0.1,0.4,0,0.8-0.2,1.1c0-0.6,0-1.1,0.1-1.7c0.1,0,0.2,0.1,0.3,0.1
		C1,67.4,1.2,67.6,1,67.9z"/>
	<path fill="#636363" d="M0.7,70.7c-0.3-0.1-0.1-0.4-0.2-0.5c0,0,0,0,0,0c0.2-0.3,0.1-0.6,0.2-0.9c0.1-0.2,0.1-0.4,0.3-0.2
		c-0.1,0.4-0.1,0.8-0.2,1.2C0.8,70.4,0.8,70.5,0.7,70.7z"/>
	<path fill="#555555" d="M0.6,71.7c0-0.3,0-0.6,0.1-0.8c0.1,0.3,0.6,0.6,0,1C0.7,71.8,0.6,71.8,0.6,71.7z"/>
	<path fill="#464646" d="M0.6,71.7c0,0,0.1,0.1,0.1,0.1c-0.2-0.1-0.3,0.4-0.5,0.1c-0.2-0.3-0.4-0.6-0.1-1c0,0,0.1,0,0.1,0
		C0.3,71.3,0.2,71.6,0.6,71.7z"/>
	<path fill="#0D0D0D" d="M40.2,38.1c0-0.6-0.1-1.2-0.1-1.8c0.1-0.5-0.4-0.9-0.9-0.7c-0.4,0.1-0.7-0.1-0.7-0.5
		c-0.1-0.4-0.2-0.8-0.1-1.2c0.1-0.2,0.2-0.3,0.3-0.5c0.4-0.3,0.6-0.6,0.9-0.7c0.1-0.1,0.4,0.2,0.5,0c0.1-0.2,0.2-0.8,0-1.2
		c0-0.4,0-0.8,0.1-1.2c0.5,0,0.3,0.4,0.4,0.6c0,0.3,0,0.6,0,0.8c0,0.3,0,0.6,0,0.8c-0.1,0.3-0.2,0.6-0.6,0.7
		c-0.1,0.1-0.3,0.1-0.4,0.1c-0.2,0.1-0.5,0.2-0.6,0.5c0,0.1-0.1,0.1-0.1,0.2c0.1,0.2-0.3,0.7,0.3,0.7c0,0,0.2,0.2,0.2,0.1
		c0.5-0.3,0.7-0.3,0.7-0.7c0.1-0.2-0.4-0.4-0.4-0.5c-0.1-0.1-0.2-0.4-0.1-0.4c0.3,0.1,0.8,0.5,0.9,0.8c0,0.2,0,0.3,0,0.5
		c-0.3,0.4-0.3,0.8-0.1,1.2c0.2,0.4-0.1,1,0.2,1.4c0,0.1,0,0.2,0,0.4c0,0.1-0.1,0.2-0.1,0.2C40.5,38,40.4,38.2,40.2,38.1z"/>
	<path fill="#1A1A1A" d="M36.5,23.2c0.2-0.1,0.3-0.2,0.5-0.3c0.4-0.1,0.7-0.4,1.1-0.5c0.2,0.1,0.3,0.2,0.1,0.4
		c-0.6,0.2-1,0.6-1.6,0.9c-0.1,0-0.1,0.2-0.1,0.3c0.1,0.3-0.1,0.3-0.3,0.4c-0.2,0-0.4,0-0.6,0.1c-0.4,0.2-0.7,0.4-1.1,0.5
		c0,0-0.1,0-0.1,0c-0.3,0-0.2-0.1-0.2-0.3c0.5-0.5,1.2-0.6,1.8-1C36.1,23.3,36.3,23.3,36.5,23.2z"/>
	<path fill="#121212" d="M30,26.4c0.6-0.4,1.3-0.3,1.9-0.7c0.2,0,0.4-0.1,0.5,0.2c-0.7,0.6-1.5,0.7-2.3,1.1c-0.1,0.1-0.3,0.1-0.4,0
		C29.7,26.6,30,26.5,30,26.4z"/>
	<path fill="#292929" d="M30,26.4c0.3,0.1-0.1,0.4,0.1,0.5c0,0,0,0.1,0,0.1c-0.6,0-1.2,0.4-1.8,0.5c-0.1-0.5,0-0.9,0.6-0.9
		C29.4,26.5,29.7,26.4,30,26.4z"/>
	<path fill="#4D4D4D" d="M35.4,24.1c0.3-0.2,0.7-0.1,1.1-0.2c0.2,0.1,0.5-0.1,0.7,0.2c-0.3,0.2-0.1,0.5-0.3,0.8
		c0,0.1-0.2,0.1-0.2,0.1c-0.4-0.6-0.7-0.4-1-0.2c-0.1,0-0.2,0.4-0.3,0.5c-0.1,0-0.1,0-0.2,0c-0.3-0.2-0.3-0.4,0-0.7
		C35.2,24.4,35.3,24.3,35.4,24.1z"/>
	<path fill="#1C1C1C" d="M36.5,25c0-0.1,0-0.1,0-0.2c0.3-0.1,0.5-0.4,0.8-0.2c0.2,0.4-0.2,0.5-0.4,0.7c-0.3,0.4-0.8,0.6-1.3,0.9
		c-0.2,0.1-0.4,0-0.6-0.1c0-0.1,0-0.2,0.1-0.3c0.1-0.1,0.1-0.1,0.2-0.1c0.2-0.1,0.5,0,0.6-0.2C36.3,25.3,36.6,25.4,36.5,25z"/>
	<path fill="#333333" d="M32.5,25.8c-0.2-0.1-0.4-0.1-0.5-0.2c0.7-0.4,1.4-0.9,2.2-1.1c0.1,0.1,0.1,0.2,0.2,0.3
		C33.7,25.3,33.1,25.4,32.5,25.8z"/>
	<path fill="#0C0C0C" d="M41,31.8C41,31.8,40.9,31.8,41,31.8c-0.7-0.2-0.4-0.7-0.4-1c0-0.5,0.1-1,0.4-1.5c0-0.1,0.1-0.1,0.2-0.1
		c0.3,0.3,0.6,0.7,0.1,1.1c-0.3,0.3,0,0.6-0.1,0.9C41,31.4,41,31.6,41,31.8z"/>
	<path fill="#444444" d="M38.1,22.7c0-0.1-0.1-0.2-0.1-0.4c0.3-0.2,0.6-0.4,0.8-0.6c0.1,0,0.2,0,0.4,0c0.2,0,0.3,0,0.2,0.3
		c-0.4,0.2-0.8,0.5-1.2,0.7C38.2,22.8,38.2,22.7,38.1,22.7z"/>
	<path fill="#1B1B1B" d="M40.3,31.1c0-0.3,0-0.5-0.2-0.7c-0.2,0-0.3-0.1-0.3-0.2c0.2-0.4,0.4-0.9,0.8-1.2c0.2-0.1,0.2,0,0.3,0.1l0,0
		c-0.3,0.4-0.4,0.8-0.4,1.3C40.6,30.7,40.7,31,40.3,31.1z"/>
	<path fill="#616161" d="M35.4,24.1c0.1,0,0.5,0,0.1,0.2c-0.2,0.2-0.5,0.3-0.4,0.7c0,0.1-0.1,0.1-0.2,0.1c-0.1,0-0.2-0.1-0.3-0.2
		c-0.1,0-0.2-0.1-0.3-0.1C34.6,24.5,35.1,24.4,35.4,24.1z"/>
	<path fill="#101010" d="M40.8,35.5c0.2,0.5,0.2,1.1,0.3,1.6c0,0.1-0.1,0.2-0.1,0.2c-0.1,0-0.1,0.1-0.2,0c-0.4-0.3-0.2-0.8-0.3-1.2
		c0-0.1,0-0.1-0.1-0.2c0-0.2,0.1-0.3,0.1-0.4C40.7,35.5,40.8,35.5,40.8,35.5z"/>
	<path fill="#393939" d="M37.4,24.6c-0.3,0-0.5,0.4-0.8,0.2c0.1-0.3,0.2-0.6,0.5-0.7C37.1,24.3,37.4,24.4,37.4,24.6z"/>
	<path fill="#151515" d="M34.7,24.9c0.1,0,0.2,0.1,0.2,0.1c0.2,0.3,0.5,0.5,0.5,0.8c-0.1,0-0.1,0.1-0.2,0.1
		C34.5,25.9,34.5,25.5,34.7,24.9z"/>
	<path fill="#171717" d="M40.9,37.4C41,37.4,41,37.4,40.9,37.4c0.1,0,0.1,0.1,0.1,0.1c0,0.2,0,0.4-0.1,0.6c-0.1,0.1-0.1,0.2-0.3,0.1
		c-0.1-0.1-0.1-0.2-0.1-0.3C40.8,37.7,40.5,37.3,40.9,37.4z"/>
	<path fill="#3F3F3F" d="M40.7,37.8c0,0.2,0.1,0.3,0.2,0.2c0,0.2-0.1,0.3-0.1,0.5c-0.3,0.5-0.5,1.1-0.5,1.7
		c-0.1,0.1-0.1,0.4-0.3,0.3c-0.2,0-0.1-0.2-0.2-0.4c0.2-0.8,0.3-1.6,0.6-2.4c0,0,0.1-0.1,0.1-0.1C40.7,37.7,40.7,37.7,40.7,37.8z"/>
	<path fill="#101010" d="M40.4,37.9c-0.1,0.8-0.2,1.6-0.6,2.4c0-0.7,0.1-1.5,0.4-2.2C40.3,38,40.3,37.9,40.4,37.9z"/>
	<path fill="#171717" d="M40.3,40.3c-0.2-0.6,0.1-1.1,0.2-1.7c0-0.1,0.2-0.1,0.2,0C40.8,39.2,40.4,39.7,40.3,40.3z"/>
	<path fill="#5A5A5A" d="M31.6,65.3c-0.1-0.1-0.3-0.2-0.4-0.4c-0.2-0.1-0.3-0.5-0.7-0.3l0,0c-0.4-0.7,0-1.5,0-2.2
		c0-0.5,0.5-1,0.2-1.5c0,0,0-0.1,0-0.1c0.1-0.2,0.1-0.4,0.4-0.4c0.3,0,0.1,0.3,0.2,0.5c0,0.1,0,0.2,0,0.3c0,0.1-0.1,0.1-0.1,0.2
		c-0.1,0.5-0.2,1.1-0.3,1.7c0,0.2,0,0.1,0,0.2c0.1,0.7,0.2,1.9,1.4,1.6c0,0.4-0.1,0.6,0.2,1.1c-0.3,0.5,0.3,0.4,0.4,0.7
		c-0.6,0.1-0.8-0.3-1.1-0.6c0.1-0.1,0.1-0.2-0.1-0.3C31.7,65.6,31.6,65.5,31.6,65.3z"/>
	<path fill="#373737" d="M31.4,60.9c-0.2-0.4-0.4-0.1-0.6,0l0,0c-0.1-0.5,0-0.9,0.5-1.2c0.2-0.1,0.4-0.4,0.7-0.4
		c0.1-0.1,0.2,0,0.2,0.1c0.1,0.4-0.6,0.3-0.7,0.5C31.3,60.1,31.7,60.6,31.4,60.9z"/>
	<path fill="#323232" d="M32.1,59.4c0,0-0.1-0.1-0.1-0.1c0,0-0.2,0-0.2,0c0.5-0.3,1.3-0.6,1.8-0.9c0.1,0,0.1,0.1,0.1,0.2
		c0,0.2-0.1,0.1,0,0.4c0,0,0.1,0.2,0.1,0.2C33.2,59.4,32.7,59.4,32.1,59.4z"/>
	<path fill="#757575" d="M1.1,55c-0.2,0-0.3,0-0.5,0c0,0,0-0.1,0-0.1c0,0,0-0.1,0-0.1c0.2-0.3,0-0.8,0.4-1.1C1,54.1,1.1,54.5,1.1,55
		z"/>
	<path fill="#4C4C4C" d="M36.7,58.3c0.3,0.2,0.6,0.4,0.8,0.8c-0.2,0.3,0.3,0.4,0.1,0.7c-0.1,0.1-0.3,0.2-0.4,0.3
		c-0.3,0.1-0.7,0.1-0.8,0.5l0,0c-0.1,0.2,0.1,0.5-0.4,0.1c0-0.3,0-0.7-0.3-0.6c0-0.4-0.6-0.2-0.7-0.6c0.2-0.3,0.6,0.1,0.7,0
		c0.3-0.2,0.1-0.7-0.4-0.8c0.1-0.1,0.2-0.2,0.3-0.3c0.2,0,0.3,0.1,0.5,0.2c-0.1-0.1-0.2-0.2-0.1-0.4C36.3,58.1,36.5,58.3,36.7,58.3z
		"/>
	<path fill="#636363" d="M37,59.8c0.1-0.1,0.3-0.1,0.5-0.1c0.4,0.1,0.7,0.6,0.7,1.2c0,0.3,0,0.5,0.1,0.8c0.1,0.2,0.1,0.4,0,0.6
		c-0.2,0.1-0.4,0-0.5-0.2c-0.2-0.2-0.2-0.5-0.2-0.7c0-0.4-0.2-0.7-0.5-0.9C36.8,60.2,36.9,60,37,59.8z"/>
	<path fill="#767676" d="M37.7,61.8c0.2,0.1,0.3,0.2,0.5,0.3c0,0,0,0,0,0c-0.1,0.2,0,0.5-0.1,0.7c0,0.2-0.1,0.4-0.3,0.5
		c-0.2,0-0.2-0.2-0.3-0.4C37.5,62.5,37.5,62.2,37.7,61.8z"/>
	<path fill="#0D0D0D" d="M38.2,61.6c-0.2-0.1-0.2-0.4-0.2-0.6c0-0.5-0.2-1-0.6-1.3c0-0.2-0.3-0.4,0-0.6c0.2,0.3,0.3,0.5,0.5,0.8
		C38.3,60.4,38.3,61,38.2,61.6z"/>
	<path fill="#0D0D0D" d="M36.7,58.3c-0.2,0.1-0.4,0-0.6,0c-0.4,0.2-0.8,0.1-1.1,0.2c-0.1,0-0.3-0.1-0.2-0.3
		C35.4,57.9,36.1,57.9,36.7,58.3z"/>
	<path fill="#959595" d="M33.7,58.7c0-0.1-0.1-0.2-0.1-0.2c0.2-0.2,0.4-0.2,0.6-0.2c0.1,0,0.2,0,0.3,0c0.1,0.1,0.3,0.2,0.5,0.2
		c0.2,0.1,0.3,0,0.2,0.2C34.5,58.8,34.2,58.9,33.7,58.7z"/>
	<path fill="#2E2E2E" d="M35,58.7c-0.2-0.2-0.7,0-0.6-0.4c0.1,0,0.2,0,0.3,0c0.1,0,0.2,0.1,0.3,0.1c0.2,0.1,0.6-0.2,0.7,0.2
		c-0.1,0-0.3,0.1-0.4,0.1C35.2,58.7,35.1,58.7,35,58.7z"/>
	<path fill="#3B3B3B" d="M3.7,62.7c0.1,0.4-0.2,0.7-0.2,1.1c-0.1,0.2-0.3,0.3-0.5,0.4C3,64.1,3,64,3,64c0-0.2,0.1-0.3,0.1-0.5
		c0.1-1-0.2-1.3-1.2-1.2c0.3-0.3,0.7-0.6,1-0.8c0.1,0,0.2,0,0.2,0.1c0.1,0.3,0.2,0.6,0.5,0.8C3.8,62.5,3.7,62.6,3.7,62.7z"/>
	<path fill="#818181" d="M1.1,69.1c-0.4,0.3-0.1,0.9-0.6,1.1c0.1-0.5,0.1-1.1,0.2-1.6c0-0.3,0.2-0.4,0.4-0.4
		C1.1,68.5,1.1,68.8,1.1,69.1z"/>
	<path fill="#393939" d="M1.1,63.2c-0.2-0.3-0.2-0.7-0.1-1c0.1-0.5,0.1-1.1,0.2-1.6c0.2-0.1,0.1,0.2,0.2,0.2c0,0.1-0.1,0.2-0.1,0.3
		C1.5,61.9,1,62.5,1.1,63.2z"/>
	<path fill="#1A1A1A" d="M3,61.6c0,0-0.1-0.1-0.1-0.1c0.4-0.4,0.7,0,0.9,0.2c0,0.3,0.1,0.5,0.1,0.8c-0.1,0-0.1,0.1-0.2,0.1
		c0-0.1-0.1-0.2-0.1-0.2C3.3,62.2,3.2,61.9,3,61.6z"/>
	<path fill="#515151" d="M1,67.9c-0.1-0.2-0.1-0.4-0.2-0.6c0-0.2,0-0.4,0-0.6c0,0,0.1,0,0.1,0c0.3,0.4,0.4,0.9,0.3,1.5
		C1.1,68,1,68,1,67.9z"/>
	<path fill="#2E2E2E" d="M0.8,66.7C0.8,66.7,0.8,66.7,0.8,66.7c0-0.6,0-1.2,0.1-1.8c0-0.1,0-0.2,0.1-0.1C1.1,65.4,1.2,66.1,0.8,66.7
		z"/>
	<path fill="#606060" d="M1.7,63.6c0.5-0.4,0.8-0.3,1.1,0.4c0,0,0,0.1,0,0.1c-0.4,0.2-0.6-0.1-1-0.2C1.7,63.8,1.7,63.7,1.7,63.6z"/>
	<path fill="#393939" d="M1.1,64.7c0,0-0.1,0.1-0.1,0.1c-0.1-0.5-0.3-1,0.2-1.5C1.1,63.9,1.1,64.3,1.1,64.7z"/>
	<path fill="#393939" d="M1.7,63.6c0.1,0,0.1,0.1,0.2,0.1C1.9,63.9,2,63.9,2.1,64c0.1,0.1,0.4,0.2,0.2,0.4c0,0-0.1,0.1-0.1,0.1
		c-0.2-0.1-0.3-0.1-0.5-0.2C1.4,64.1,1.3,63.9,1.7,63.6z"/>
	<path fill="#5B5B5B" d="M2.3,64.4c-0.1-0.1-0.3-0.2-0.4-0.3c0.1-0.2,0.2-0.1,0.4,0c0.2,0.1,0.3,0.2,0.5,0c0,0,0,0,0,0
		C2.8,64,2.9,64,3,64c0,0.1,0,0.1,0,0.2C2.9,64.7,2.6,64.5,2.3,64.4z"/>
	<path fill="#282828" d="M1.3,60.9c-0.1-0.1-0.1-0.2-0.2-0.2C1.1,60.4,1,60.1,1,59.8c0-0.1-0.1-0.2,0.1-0.2c0.1,0.3,0.2,0.6,0.2,0.9
		C1.3,60.6,1.3,60.7,1.3,60.9z"/>
	<path fill="#787878" d="M34.4,61.8c0,0.1,0,0.1,0,0.2c0,0-0.1,0.1-0.1,0.1c-0.1,0.2,0.1,0.6-0.2,0.7c-0.4,0.1-0.8,0.2-1.2-0.1
		c0.1-0.6,0.8-0.1,0.9-0.4c-0.1-0.3-0.1-1-0.5-1.1c-0.3-0.1-0.8,0-0.9-0.4c0-0.1,0.1-0.2,0.2-0.3c0.4,0,0.7,0,1.1,0
		c0.2,0.1,0.3-0.1,0.6-0.1c0.1,0,0.1,0.2,0.3,0.2c0.1,0,0.2,0,0.3,0.1c0.1,0.1,0.2,0.1,0.2,0.3c-0.1,0.2-0.3,0.2-0.5,0.3
		C34.3,61.5,34.2,61.6,34.4,61.8z"/>
	<path fill="#828282" d="M34.9,61.1c0-0.1,0-0.2,0-0.3c0.6,0,0.7,0,1.2,0c0.2,0.3,0.3,0,0.4-0.1c0,0.1,0,0.2,0.1,0.2
		c0.4,0.3,0.2,0.5-0.1,0.7c-0.1,0-0.1,0.2-0.2,0.3c-0.3-0.5-0.7-0.7-1.2-0.6C34.9,61.2,34.9,61.2,34.9,61.1z"/>
	<path fill="#494949" d="M33,62.5c0.7,0.4,1.1,0.1,1.5-0.5c-0.2,0.6,0.2,0.7,0.7,0.8c0,0,0,0.1,0,0.1c0.1,0.4-0.4,0.3-0.5,0.5
		c-0.2-0.1-0.5,0-0.8-0.1C33.7,63,33.4,63,33,63c-0.2,0-0.3-0.1-0.3-0.3C32.8,62.6,32.8,62.5,33,62.5z"/>
	<path fill="#2A2A2A" d="M37.7,61.8c-0.1,0.4-0.2,0.7-0.2,1.1c-0.1,0-0.1,0.1-0.2,0.1c0.1-0.6,0.2-1.1,0.1-1.7
		c0-0.4-0.1-0.7-0.5-0.9c0,0,0.1,0,0.1,0c0.4,0.1,0.6,0.3,0.6,0.7C37.7,61.3,37.7,61.6,37.7,61.8z"/>
	<path fill="#7A7A7A" d="M37,60.4c0,0-0.1,0-0.1,0c-0.2,0-0.3,0.1-0.5,0.2c-0.1-0.2-0.1-0.4-0.2-0.6c0.3,0,0.6-0.1,0.8-0.2
		C37,60,37,60.2,37,60.4z"/>
	<path fill="#545454" d="M34.9,61.1c0,0,0.1,0.1,0.1,0.1c-0.2,0.2-0.7,0.1-0.6,0.6C34.1,61.4,34.2,61.4,34.9,61.1z"/>
	<path fill="#545454" d="M33.8,64.4c0.1,0.6,0.7,0.5,1,0.8c0,0.2-0.1,0.2-0.4,0.3c-0.4-0.2-0.6-0.4-1.1-0.1c-0.1,0-0.1-0.1-0.2-0.1
		c0-0.3,0.3-0.3,0.5-0.5C33.7,64.6,33.5,64.2,33.8,64.4z"/>
	<path fill="#292929" d="M33.9,63.3c0.2-0.1,0.4-0.1,0.6,0.1c0,0.1-0.2,0.1-0.2,0.1c0,0-0.1,0.1-0.1,0.1c-0.1,0.1-0.2-0.1-0.4-0.1
		c-0.3-0.1-0.5-0.1-0.9-0.1c-0.1-0.1-0.4,0.1-0.4-0.1c0.1-0.4,0.4-0.3,0.7-0.4C33.5,62.9,33.7,63.1,33.9,63.3z"/>
	<path fill="#656565" d="M34.3,63.5c0.1,0,0.2-0.1,0.2-0.1c0.1-0.2,0.4-0.3,0.6-0.5c0.1,0,0.2,0,0.3,0c0.1,0,0.2,0,0.3,0.1
		c0,0.1-0.1,0.2-0.2,0.2C35.1,63.5,34.7,63.5,34.3,63.5z"/>
	<path fill="#C1C1C1" d="M33.8,63.6c0.2-0.1,0.2,0.1,0.4,0.1c-0.1,0.3-0.4,0.5-0.4,0.8c-0.1,0.1-0.1,0.2-0.2,0.3
		C33.5,64.2,33.8,64,33.8,63.6z"/>
	<path fill="#262626" d="M10.9,53.8c0.2,0.1,0.5,0,0.4,0.3c0,0.1-0.3,0.2-0.5,0.1C10.5,54,10.8,53.9,10.9,53.8
		C10.9,53.8,10.9,53.8,10.9,53.8z"/>
	<path fill="#999999" d="M31.6,65.3c0.2,0.1,0.3,0.3,0.5,0.4c0.2,0.3,0.1,0.3-0.2,0.3c0,0,0,0,0-0.1C31.7,65.8,31.4,65.6,31.6,65.3z
		"/>
	<path fill="#878787" d="M30.6,64.7c0,0,0-0.1,0-0.1c0-0.2-0.2-0.5,0-0.5c0.3-0.1,0.2,0.2,0.3,0.4c0.1,0.2,0.2,0.3,0.3,0.5
		C31,64.9,30.8,64.8,30.6,64.7z"/>
	<path fill="#3E3E3E" d="M41.1,21.1c-0.4,0.3-0.8,0.5-1.2,0.8c-0.3,0.1-0.4,0-0.3-0.3c0.1-0.2,0.2-0.3,0.3-0.4c0,0,0-0.1,0-0.2
		c0.2-0.2,0.5-0.3,0.7-0.4C40.9,20.8,41.1,20.8,41.1,21.1z"/>
	<path fill="#222222" d="M41.1,21.1c-0.2-0.1-0.3-0.3-0.4-0.4c0.2-0.1,0.3-0.2,0.5-0.3c0.2-0.1,0.4-0.3,0.5,0
		c0.1,0.2-0.1,0.4-0.3,0.5C41.3,21,41.2,21.1,41.1,21.1z"/>
	<path fill="#6B6B6B" d="M40,21.2c0.3,0.2-0.1,0.2-0.1,0.4c0,0.1-0.4,0.1-0.2,0.4c-0.1,0-0.2,0.1-0.4,0.1c-0.1,0-0.2-0.1-0.4-0.1
		C39.2,21.4,39.6,21.3,40,21.2z"/>
	<path fill="#2A2A2A" d="M40,21.2c-0.3,0.3-0.7,0.4-0.9,0.7c-0.1,0-0.2-0.1-0.3-0.1c0.3-0.3,0.6-0.7,1.1-0.7
		C40,21.1,40,21.1,40,21.2z"/>
	<path fill="#515151" d="M27.4,30.6c0.1-0.3-0.2-0.9,0.5-0.9c0.1,0.1,0.1,0.2,0.2,0.3c-0.1,0.8,0,1.6,0,2.4c0,0.3-0.3,0.7,0,1
		c0,0,0.1,0,0.1,0c0.2,0.1,0.4-0.1,0.6-0.1c0.3-0.1,0.6-0.1,0.8,0.2c0.2,0.3,0.2,0.7,0.1,1c-0.1,0.2-0.4,0.2-0.5,0
		c-0.1-0.5-0.4-0.6-0.7-0.3c-0.1,0.1-0.2,0.1-0.2,0.3c0,0.1,0.1,0.2,0.2,0.2c0.3,0.1,0,0.4-0.1,0.5c-0.3,0-0.6,0.2-0.9,0
		c-0.2-0.4,0-0.8-0.1-1.3c-0.1-0.3-0.1-0.6-0.4-0.8c-0.1-0.1-0.1-0.2-0.1-0.3c0-0.3-0.2-0.7,0.3-0.8c0,0,0.1,0,0.1,0
		C27.6,31.6,27.3,31.1,27.4,30.6z"/>
	<path fill="#242424" d="M28,33.4c-0.1-0.1-0.2-0.2-0.2-0.2c0.1-1-0.1-2.1,0.1-3.1C28.2,31.1,28.1,32.3,28,33.4z"/>
	<path fill="#2E2E2E" d="M40.3,31.1c0.1-0.2,0.1-0.4,0.1-0.6c-0.2-0.6,0.1-1,0.6-1.3c0,0.7-0.4,1.4-0.2,2.1c0,0.2,0,0.4,0.1,0.5
		c0,0.1,0,0.2,0,0.2c0,0.1-0.1,0.2-0.1,0.2c-0.3,0-0.2-0.3-0.4-0.4C40.3,31.6,40.3,31.3,40.3,31.1z"/>
	<path fill="#0A0A0A" d="M40.8,32.2c0.1,0,0.1-0.1,0.2-0.1c0.3,0.4,0.3,0.7,0.2,1.2c-0.2,0.6-0.1,1.3-0.1,1.9c0,0.2,0,0.3-0.1,0.4
		c0,0.1,0,0.1,0,0.2c-0.5-0.1-0.3-0.5-0.3-0.7c0-0.3,0.2-0.6,0-0.9c0-0.5,0-1,0.1-1.5C40.6,32.5,40.6,32.3,40.8,32.2z"/>
	<path fill="#595959" d="M40.5,37.4c-0.1-0.2-0.2-0.5-0.2-0.7c0.1-0.6,0-1-0.5-1.4c0.2-0.2,0.4-0.3,0.6-0.4c0.3,0,0.2,0.2,0.2,0.3
		c0.1,0.3-0.1,0.6,0.1,0.9l0,0c0.1,0.4,0,0.8,0.1,1.2C40.7,37.3,40.7,37.4,40.5,37.4z"/>
	<path fill="#444444" d="M40.8,32.6c-0.1,0.4,0.1,0.9-0.2,1.3c0,0.2,0.2,0.3-0.1,0.4c-0.1-0.2-0.2-0.4-0.4-0.6
		c0-0.2-0.4-0.3-0.2-0.6c0.3,0,0.5-0.3,0.6-0.5C40.5,32.6,40.7,32.6,40.8,32.6z"/>
	<path fill="#4C4C4C" d="M39.4,35.2c-0.5,0.2-0.7,0-0.7-0.4c0-0.2-0.1-0.4-0.1-0.7c0.1-0.1,0.3-0.3,0.5-0.2
		C39.3,34.3,39.1,34.9,39.4,35.2z"/>
	<path fill="#323232" d="M40.4,34.3c0-0.1,0.1-0.2,0.1-0.4c0.2,0.2,0.2,0.5,0.1,0.7c-0.1,0.3-0.1,0.7,0.1,1c0,0.1-0.1,0.2-0.1,0.3
		c-0.4-0.3,0.1-0.8-0.2-1.2C40.4,34.7,40.4,34.5,40.4,34.3z"/>
	<path fill="#6C6C6C" d="M39.8,33.2c0.1,0.2,0.4,0.2,0.6,0.3c0,0.2-0.2,0.2-0.4,0.3c-0.1,0-0.2,0-0.2,0c-0.1,0-0.2,0-0.2,0
		c-0.1-0.2-0.2-0.3-0.1-0.5C39.6,33.1,39.7,33.1,39.8,33.2z"/>
	<path fill="#777777" d="M40.8,32.6c-0.1,0.1-0.3,0.3-0.4,0c0-0.3,0-0.6,0-0.8c0.3-0.1,0.2,0.3,0.3,0.4
		C40.8,32.3,40.8,32.5,40.8,32.6z"/>
	<path fill="#4B4B4B" d="M39.4,33.1c0.1,0.2,0.2,0.3,0.3,0.5c-0.2,0.4-0.6,0.4-1,0.4c0,0,0,0,0,0c0,0,0,0,0-0.1
		C38.8,33.5,39.3,33.5,39.4,33.1z"/>
	<path fill="#111111" d="M39.4,35.2C39,34.9,39,34.5,39.1,34c0.2-0.1,0.3-0.1,0.3,0.2c0,0.3-0.1,0.6,0.1,0.9
		C39.5,35.1,39.5,35.2,39.4,35.2z"/>
	<path fill="#323232" d="M40.5,37.4c0.2-0.4,0.1-0.9,0.1-1.3c0.2,0.4,0,0.9,0.3,1.3c-0.1,0.2-0.2,0.3-0.2,0.5
		c-0.1,0-0.1-0.1-0.2-0.1C40.5,37.6,40.5,37.5,40.5,37.4z"/>
	<path fill="#2A2A2A" d="M39.4,34.1c-0.1-0.1-0.2-0.1-0.3-0.2c-0.2,0-0.3,0.1-0.5,0.1c0-0.1,0.1-0.2,0.1-0.3c0.4,0,0.7-0.1,1-0.3
		c0,0,0.1,0.1,0.1,0.1c0,0,0,0.1,0,0.1C39.6,33.9,39.5,34,39.4,34.1z"/>
	<path fill="#6B6B6B" d="M35.4,25.9c-0.3-0.2-0.5-0.4-0.5-0.8c0.1,0,0.2,0,0.3,0c0,0,0.1,0,0.1,0c0.2,0.1,0.3,0.3,0.5,0.5
		c0.1,0.2,0,0.3-0.1,0.3C35.5,25.9,35.4,25.9,35.4,25.9z"/>
	<path fill="#262626" d="M35.6,25.9c0.1-0.4-0.2-0.5-0.3-0.8c0.1-0.1,0.2-0.2,0.3-0.3c0,0.4,0.1,0.7,0.6,0.7
		C36,25.7,35.8,25.9,35.6,25.9z"/>
	<path fill="#212121" d="M27.4,30.6c0.1,0.5,0.4,1-0.1,1.4C27.3,31.5,27.2,31.1,27.4,30.6z"/>
	<path fill="#262626" d="M31.3,61.4c-0.1,0.6-0.2,1.3-0.4,1.9c0,0,0,0,0,0.1c0,0,0,0-0.1,0.1c0-0.7,0.1-1.5,0.4-2.1
		C31.2,61.3,31.2,61.3,31.3,61.4z"/>
	<path fill="#5C5C5C" d="M31.8,60.4c0-0.2,0-0.5-0.3-0.6c0.2-0.1,0.4-0.3,0.6-0.4c0.5-0.3,1-0.4,1.6-0.3c0.2,0.1,0.2,0.1,0.4,0.1
		c0.1,0.1,0.1,0.1,0.1,0.3c0,0.2,0.1,0.5-0.1,0.7c-0.1,0.1-0.2,0-0.3,0c-0.1-0.4-0.6-0.5-0.6-0.5c-0.7-0.3-0.8,0-0.6,1
		c0,0.1,0,0.2,0,0.4c0.1,0.1,0.1,0.2,0.1,0.2c0,0.1-0.1,0-0.1,0.1c0,0.4-0.5,0.8-0.8,0.2C31.9,61.1,32.1,60.8,31.8,60.4z"/>
	<path fill="#777777" d="M33.9,60c0-0.3-0.2-0.4-0.5-0.6c0.2-0.2,0.3,0,0.5,0c0.5-0.3,0.9,0.2,1.3,0.1c0.2,0.1,0.5,0.3,0.5,0.6
		c-0.2,0.2-0.9,0-1.1,0c-0.3,0-0.1,0.5-0.1,0.6c-0.1,0.1-0.2,0.1-0.3,0.2C33.9,60.7,33.8,60.4,33.9,60z"/>
	<path fill="#6D6D6D" d="M35.7,58.6c-0.2-0.1-0.5-0.2-0.7-0.2c0.3-0.2,0.7,0,1.1,0c0.2,0.3,0.7,0.3,0.7,0.8
		C36.2,59.4,36.2,58.6,35.7,58.6z"/>
	<path fill="#2A2A2A" d="M35.2,59.5c-0.4,0.2-0.9-0.2-1.3-0.1c0-0.1,0.1-0.1,0.1-0.2C34.5,59,34.8,59.5,35.2,59.5
		C35.2,59.5,35.2,59.5,35.2,59.5z"/>
	<path fill="#6B6B6B" d="M3,61.6c0.5,0.1,0.6,0.4,0.6,0.8C3.1,62.4,2.9,62.1,3,61.6z"/>
	<path fill="#858585" d="M2.8,64c-0.3,0.4-0.6,0-0.9,0c0-0.1-0.1-0.2-0.1-0.3C2.2,63.7,2.4,64,2.8,64z"/>
	<path fill="#5B5B5B" d="M33.8,62.4c0-0.1-0.1-0.1-0.1-0.2c-0.1-1-0.2-1-1.1-0.9c0-0.1,0-0.2,0-0.3c0.1,0,0.2,0.1,0.4,0.1
		C34,61.1,34.1,61.3,33.8,62.4z"/>
	<path fill="#585858" d="M33.7,60.6c0-0.2,0.1-0.3,0.1-0.5c0,0,0.1-0.1,0.1-0.1c0.1,0.3,0.2,0.6,0.3,0.9
		C34.1,60.8,33.8,60.9,33.7,60.6z"/>
	<path fill="#6C6C6C" d="M33.9,63.3c-0.3,0-0.5-0.2-0.7-0.2c-0.1-0.1-0.1-0.2,0-0.2C33.5,62.8,33.9,62.8,33.9,63.3z"/>
	<path fill="#717171" d="M33.2,62.8c0,0.1,0,0.2,0,0.2c-0.2,0.1-0.4,0.2-0.6,0.2c0,0-0.1,0-0.1,0c0,0-0.1-0.1-0.1-0.1
		c0-0.1,0.1-0.2,0.2-0.3c0.1-0.1,0.2-0.2,0.2-0.3C32.9,62.7,33.1,62.8,33.2,62.8z"/>
	<path fill="#7F7F7F" d="M33.3,65.2c0.5-0.3,0.8-0.2,1.1,0.3c0,0,0,0,0,0C34,65.5,33.6,65.8,33.3,65.2z"/>
	<path fill="#4E4E4E" d="M33.3,65.2c0.3,0.2,0.7,0.2,1.1,0.3c-0.1,0.2-0.3,0.1-0.4,0.2c-0.4,0-0.8,0-0.9-0.5
		C33.2,65.2,33.2,65.2,33.3,65.2z"/>
	<path fill="#5D5D5D" d="M32.6,63.6c-0.2,0.2-0.1,0.5-0.2,0.7c-0.4-0.2-0.3-0.5-0.2-0.8c0-0.2,0.2-0.3,0.4-0.2c0,0,0,0,0,0
		c0.1,0,0.2,0.1,0.3,0.1C32.8,63.5,32.7,63.5,32.6,63.6z"/>
	<path fill="#1E1E1E" d="M27.3,38.8c0.1-0.6,0.1-1.2,0-1.8c-0.2-0.7-0.2-1.3-0.1-2c0.1-0.7,0-1.4,0.1-2.1c0.4,0.7,0.3,1.4,0.3,2.2
		c0.4,0.5,0.1,1,0.2,1.5c0.1,0.3,0,0.6,0,0.9c0,0.4-0.1,0.7,0.1,1.1c0.1,0,0.2-0.1,0.3,0c0.1,0.1,0,0.3,0.1,0.4
		c0,0.3-0.1,0.6-0.4,0.8c-0.5,0.2-0.6,0.1-0.6-0.3C27.2,39.2,27.1,39,27.3,38.8z"/>
	<path fill="#2C2C2C" d="M28.5,34.8c0.2,0,0.4,0.1,0.6,0.2c0,0-0.1,0.1-0.1,0.1c-0.9,0-0.9,0.6-0.8,1.2c0,0.5,0,0.9-0.1,1.4
		c-0.1,0.1-0.1,0.1-0.2,0c-0.1-0.1-0.1-0.2-0.1-0.3c0.1-0.5,0-1,0-1.5c0-0.5,0.1-0.9,0.7-1C28.4,35,28.4,34.9,28.5,34.8z"/>
	<path fill="#202020" d="M27.9,37.7c0,0,0.1,0,0.1,0c0.2,0.3,0,0.6,0.1,0.8c-0.1,0.2-0.2,0.5-0.2,0.7C27.6,38.8,27.6,38.2,27.9,37.7
		z"/>
	<path fill="#606060" d="M28.3,35.1c-0.6,0.5-0.5,1.1-0.5,1.7c0,0.2,0.2,0.5,0,0.7c-0.1,0.1-0.2,0.2-0.3,0.1c0.1-0.8-0.1-1.7,0-2.5
		C27.8,35.1,28.1,35.1,28.3,35.1z"/>
	<path fill="#141414" d="M28.3,34.4c-0.1-0.4,0.2-0.4,0.4-0.5c0.4-0.2,0.5,0.3,0.7,0.5c0.2-0.7-0.1-1-0.7-0.8
		c-0.2,0.1-0.4,0-0.6-0.1c0.2-0.1,0.3-0.2,0.5-0.3c0.6-0.2,1.2,0.2,1.2,0.8c0,0.3-0.1,0.6-0.1,0.9c-0.2,0.1-0.4,0.3-0.7,0.3
		c-0.3,0-0.4-0.1-0.6-0.2c0,0,0-0.1,0-0.1C28.3,34.7,28.2,34.6,28.3,34.4z M28.5,34.7c0.1,0,0.1-0.1,0.2-0.1c0.1-0.1,0.4,0,0.4-0.2
		c0-0.1-0.1-0.2-0.2-0.3c-0.2-0.1-0.3,0.1-0.4,0.2c-0.1,0-0.1,0.1-0.2,0.1C28.2,34.6,28.3,34.7,28.5,34.7z"/>
	<path fill="#696969" d="M32.6,61.5c-0.2,0.3-0.2,0.7-0.2,1.1c-0.3,0.3-0.4,0.2-0.5-0.1c-0.1-0.3,0-0.7,0-1c0.1,0,0.3,0.1,0.3,0
		C32.2,61.1,32.4,61.4,32.6,61.5z"/>
	<path fill="#868686" d="M32.6,63.3c-0.4,0.3-0.4,0.6-0.2,1c0,0.1-0.1,0.2-0.2,0.1c-0.2-0.3-0.3-0.6-0.4-0.9
		c0.1-0.1,0.1-0.1,0.1-0.2c0-0.2-0.1-0.4,0.2-0.5c0.3-0.1,0.3,0.2,0.4,0.3C32.5,63.2,32.5,63.2,32.6,63.3z"/>
	<path fill="#4D4D4D" d="M32.5,63.2c-0.2-0.1-0.5-0.2-0.5,0.2c0,0.1-0.1,0.2-0.2,0.2c0-0.4,0-0.7,0-1.1c0.2,0.1,0.3,0.2,0.5,0.1
		c0,0.1,0.1,0.3,0.3,0.3C32.5,63,32.5,63.1,32.5,63.2z"/>
	<path fill="#696969" d="M27.5,37.6c0.1,0,0.2-0.1,0.3-0.1c0,0.1,0,0.2,0,0.2c0,0.5,0,1,0,1.6c-0.3,0.2-0.3-0.1-0.3-0.2
		C27.6,38.6,27.6,38.1,27.5,37.6z"/>
	<g>
		<path d="M35.7,2.2V7c0,0.7,0.1,1.1,1.2,1.1v0.2h-2.5V8.1C35.5,8,35.5,7.6,35.5,7V3.3c0-1.3-0.1-1.4-1-1.4V1.7h1.9l3.9,5.2v-4
			c0-0.6-0.1-1-1.1-1V1.7h2.4v0.2c-1,0.1-1,0.5-1,1.1v5.5h-0.2L35.7,2.2z"/>
		<path d="M42.6,7.4c0.3,0,0.5,0.2,0.5,0.5c0,0.3-0.2,0.5-0.5,0.5c-0.3,0-0.5-0.2-0.5-0.5C42,7.7,42.3,7.4,42.6,7.4z"/>
	</g>
	<g>
		<path d="M30.4,77.8h0.2c0.1,0.5,0.4,2.1,2,2.1c0.9,0,1.5-0.6,1.5-1.3c0-0.9-1-1.3-1.6-1.6c-1-0.4-2-0.9-2-2.1
			c0-0.9,0.6-1.6,1.7-1.6c0.9,0,1.3,0.4,1.5,0.7c0.2-0.3,0.2-0.5,0.3-0.6h0.2v1.7H34c-0.3-1.2-1.1-1.6-1.8-1.6c-0.7,0-1.1,0.5-1.1,1
			c0,0.8,0.8,1.2,1.6,1.5c1.3,0.5,2.1,1,2.1,2.2c0,1-0.6,1.9-2.1,1.9c-0.9,0-1.5-0.5-1.8-0.8c-0.1,0.1-0.2,0.2-0.2,0.6h-0.2V77.8z"
			/>
		<path d="M36.4,77.4c0,0.1,0,0.3,0,0.5c0,0.5,0,2.1,1.3,2.1c0.2,0,0.9,0,1.3-0.8h0.2c0,0.1-0.4,1.1-1.6,1.1c-0.9,0-2-0.7-2-2.1
			c0-1.2,0.8-2.2,1.9-2.2c1,0,1.6,0.8,1.7,1.5H36.4z M38.4,77.2c0-0.1,0-0.1,0-0.2c0-0.7-0.5-0.9-0.9-0.9c-0.9,0-1,0.8-1.1,1.1H38.4
			z"/>
		<path d="M41.1,75.9c0,0.2,0.1,0.4,0.1,0.7c0.3-0.3,0.8-0.7,1.4-0.7c1.1,0,1.9,0.8,1.9,2.1c0,1.2-0.7,2.2-2,2.2
			c-0.6,0-1-0.3-1.3-0.6v1.5c0,1.1,0,1.1,0.7,1.1v0.2h-2.1v-0.2h0.1c0.5,0,0.6-0.1,0.6-0.9v-4.2c0-0.6-0.1-0.8-0.6-0.8h-0.1v-0.2
			c0.5,0,1-0.2,1.2-0.2H41.1z M41.2,79.3c0.2,0.2,0.5,0.6,1.2,0.6c0.4,0,1.4-0.2,1.4-2c0-1.6-1-1.8-1.3-1.8c-0.7,0-1,0.5-1.2,0.7
			V79.3z"/>
		<path d="M46.5,76.2v2.4c0,0.5,0,1.2,0.6,1.2c0.3,0,0.5-0.3,0.6-0.4l0.2,0.1c-0.3,0.6-1,0.6-1,0.6c-0.4,0-0.7-0.2-0.9-0.5
			c-0.1-0.2-0.1-0.5-0.1-1.2v-2.3h-0.6V76c0.4,0,1-0.3,1.1-1.3h0.2V76h1.2v0.2H46.5z"/>
		<path d="M48.6,80.2v-5.3c0-0.9,0-1.1-0.6-1.1v-0.2c0.4,0,0.8-0.1,1.3-0.2h0.1v3.2c0.5-0.5,1-0.6,1.4-0.6c0.9,0,2,0.6,2,2.1
			c0,1.2-0.8,2.2-2,2.2c-0.5,0-1-0.1-1.3-0.7c-0.2,0.2-0.4,0.5-0.5,0.7H48.6z M49.3,78.6c0,0.5,0.5,1.3,1.2,1.3c1,0,1.4-0.8,1.4-2
			c0-1.1-0.5-1.8-1.3-1.8c-0.5,0-1,0.3-1.3,0.6V78.6z"/>
		<path d="M54.7,78.6c0,1,0,1.1,0.6,1.1h0.1V80h-2.1v-0.2c0.7,0,0.7,0,0.7-1.1v-1.1c0-1.1,0-1.1-0.7-1.1v-0.2c0.4-0.1,1-0.2,1.1-0.3
			l0.1,0c0,0.2,0.1,0.5,0.1,1c0.3-0.7,0.9-1,1.3-1c0.5,0,0.7,0.4,0.7,0.6c0,0.2-0.1,0.3-0.3,0.3c-0.2,0-0.3-0.2-0.3-0.3
			c0-0.1-0.1-0.3-0.3-0.3c-0.3,0-1,0.5-1,1.5V78.6z"/>
		<path d="M56.9,79.1c0.3,0,0.5,0.2,0.5,0.5c0,0.3-0.2,0.5-0.5,0.5c-0.3,0-0.5-0.2-0.5-0.5C56.4,79.4,56.6,79.1,56.9,79.1z"/>
		<path d="M61.8,76.4c-0.3,0-0.5,0-0.6,0.5h-0.2l0.5-1.7h0.2c0,0.2,0,0.3,0,0.3c0,0.2,0.2,0.2,0.5,0.2h2.4l-1.9,5.6
			c-0.2,0.7-0.4,1-0.7,1c-0.1,0-0.3-0.1-0.3-0.3c0-0.2,0.1-0.4,0.1-0.4c0.3-0.7,0.3-0.7,0.5-1l1.8-4.1H61.8z"/>
		<path d="M66.1,79.1c0.3,0,0.5,0.2,0.5,0.5c0,0.3-0.2,0.5-0.5,0.5c-0.3,0-0.5-0.2-0.5-0.5C65.6,79.4,65.8,79.1,66.1,79.1z"/>
	</g>
</g>
</svg>
