<svg xmlns="http://www.w3.org/2000/svg" viewBox="0 0 53.57 267.32"><defs><style>.cls-1{fill:#606060;}.cls-2{fill:#757575;}.cls-3{fill:#767676;}.cls-4{fill:#5c5c5c;}.cls-5{fill:#6a6a6a;}.cls-6{fill:#727272;}.cls-7{fill:#7e7e7e;}.cls-8{fill:#676767;}.cls-9{fill:#525252;}.cls-10{fill:#777;}.cls-11{fill:#9f9f9f;}.cls-12{fill:#686868;}.cls-13{fill:#4e4e4e;}.cls-14{fill:#737373;}.cls-15{fill:#787878;}.cls-16{fill:#4b4b4b;}.cls-17{fill:#838383;}.cls-18{fill:#585858;}.cls-19{fill:#4c4c4c;}.cls-20{fill:#707070;}.cls-21{fill:#636363;}.cls-22{fill:#464646;}.cls-23{fill:#4f4f4f;}.cls-24{fill:#626262;}.cls-25{fill:#646464;}.cls-26{fill:#7d7d7d;}.cls-27{fill:gray;}.cls-28{fill:#818181;}.cls-29{fill:#7b7b7b;}.cls-30{fill:#5a5a5a;}.cls-31{fill:#8f8f8f;}.cls-32{fill:#969696;}.cls-33{fill:#717171;}.cls-34{fill:#8a8a8a;}.cls-35{fill:#5b5b5b;}.cls-36{fill:#797979;}.cls-37{fill:#5d5d5d;}.cls-38{fill:#656565;}.cls-39{fill:#424242;}.cls-40{fill:#616161;}.cls-41{fill:#b2b2b2;}.cls-42{fill:#aeaeae;}.cls-43{fill:#a6a6a6;}.cls-44{fill:#b8b8b8;}.cls-45{fill:#4a4a4a;}.cls-46{fill:#545454;}.cls-47{fill:#4d4d4d;}.cls-48{fill:#595959;}.cls-49{fill:#7f7f7f;}.cls-50{fill:#575757;}.cls-51{fill:#919191;}</style></defs><g id="Layer_2" data-name="Layer 2"><g id="_12099_draft" data-name="12099_draft"><g id="_12099_draft-2" data-name="12099_draft"><path class="cls-1" d="M41.5,5.58a9,9,0,0,1,1.34,3.9,14.77,14.77,0,0,0,.87,2.94,11.74,11.74,0,0,1,.33,4.9,22.82,22.82,0,0,1-2,6.41,6.54,6.54,0,0,0-.24.75,2,2,0,0,1-.2.5c-.24.31-.57.62-1,.42s-.29-.64-.11-1a14.9,14.9,0,0,0,1.07-2.29c1-2.81,1.67-5.68,1-8.68A22.08,22.08,0,0,0,41.79,11a3.21,3.21,0,0,1-.22-1.18c.07-1.23-.68-2.09-1.26-3a3.22,3.22,0,0,0-.69-1C38.69,4.59,38,3.25,37,2.17a3.44,3.44,0,0,0-1.32-.7c-.27-.11-.64-.14-.56-.55a.83.83,0,0,1,.62-.67c1.37-.44,2.17.45,2.94,1.28a5,5,0,0,1,1.23,2c.08.29.38.41.55.62C40.82,4.59,41.17,5.08,41.5,5.58Z"/><path class="cls-2" d="M32.31,57.46a13,13,0,0,1,.38-3c.09-.72.17-1.44.21-2.16a6.77,6.77,0,0,1,.38-2.48,1.62,1.62,0,0,0,.08-.66c-.15-2.35.35-4.69.23-7a27.36,27.36,0,0,1,.27-5c.2-1.49.07-3,.13-4.46,0-.23.11-5.1.07-5.59C34,26.37,34,25.67,34,25c-.11-1.35-.08-2.7-.07-4.06,0-1.15.09-2.3.14-3.46a1.11,1.11,0,0,1,.71-1,.44.44,0,0,1,.36.54,14.85,14.85,0,0,1,0,2.83c-.51,2.12-.1,4.22,0,6.33a38.39,38.39,0,0,1-.15,6c-.09.78,0,1.56-.05,2.34-.07.58-.15,1.15-.23,1.72-.12.78.14,1.6,0,2.39-.4,1.85-.09,3.73-.14,5.59a61.2,61.2,0,0,0-.22,6.5c0,.59,0,1.2,0,1.8a.78.78,0,0,1-.47.89.25.25,0,0,1-.18-.1c0-.75.14-1.49.12-2.24,0-.52.07-1.05,0-1.58a28.73,28.73,0,0,1,.15-3.18,18.81,18.81,0,0,0-.1,3.45c-.52,1.66-.37,3.41-.67,5.1a15.46,15.46,0,0,0-.41,2.54C32.58,57.44,32.48,57.58,32.31,57.46Z"/><path class="cls-3" d="M29.3,29.31c.07,1.71-.2,3.4-.13,5.12.06,1.44-.12,2.92-.2,4.39,0,.54,0,1.08,0,1.62a2.63,2.63,0,0,1,0,.48,12.2,12.2,0,0,0,0,3.36c.06,1.16-.16,2.31,0,3.47a45.79,45.79,0,0,1,.09,5.37,23.09,23.09,0,0,1-.28,2.31c-.08,1.07.05,2.13,0,3.2s.29,1,1.68,1.11,3,.26,4.44.4a7.8,7.8,0,0,1,2.09.45c1.08.4,2.2.64,3.3.93a1.61,1.61,0,0,0,2.1-1.07.26.26,0,0,1,.19.08c.26.37,0,.66-.2.89a4.74,4.74,0,0,1-.69.65,4,4,0,0,1-2.23-.19c-1.3-.22-2.46-.88-3.75-1.12a14.15,14.15,0,0,0-2-.17c-1.44-.05-2.83-.41-4.26-.43a1.11,1.11,0,0,1-1.06-1A8,8,0,0,0,28,57,1.92,1.92,0,0,1,28,56c.08-.28.11-4.55.16-5.5s0-4.28-.05-5c0-1.1.06-2.43,0-3.52a36.64,36.64,0,0,0,0-4.06,4.37,4.37,0,0,1,.06-1.14c.07-.78,0-1.56,0-2.34a18,18,0,0,1,.16-2.07c.08-.53-.18-1.07-.06-1.6A1.36,1.36,0,0,0,27.34,29c.05-.34.32-.36.55-.32a4,4,0,0,1,1.45.47A.28.28,0,0,1,29.3,29.31Z"/><path class="cls-4" d="M43.67,31.46a3.15,3.15,0,0,1-1-1.29,3.27,3.27,0,0,0-2.81-1.78c-.62-.1-.92.55-1.2,1a2.46,2.46,0,0,1-.6.89c-.22.17-.47.27-.71.05s-.12-.43,0-.66.38-.75.57-1.12a1,1,0,0,0-.05-1.23c-.28-.34-.29-.79.14-.9s1.12-.17,1.57-.25c.13,0,.33.19.37.31.22.71.78.7,1.3.79A3.71,3.71,0,0,1,43.64,29c.48.66.94,1.35,1.36,2.06.26.41.82.46,1,.94s.54.78.76,1.21c.12.17.33.24.44.42s.1.61-.26.68-.78.25-1-.21a4.22,4.22,0,0,0-1.16-1.44A3.76,3.76,0,0,1,43.67,31.46Z"/><path class="cls-5" d="M12.11,54.33a8.71,8.71,0,0,1-1.45-4.52c-.13-1.5-.05-3-.2-4.51a14.12,14.12,0,0,1,.74-5.58c.5-1.69,1-3.4,1.47-5.09a5.2,5.2,0,0,1,1-1.79,2.24,2.24,0,0,0,.53-.8,49.85,49.85,0,0,1,3.49-3.63,4.66,4.66,0,0,1,1.7-1.1.46.46,0,0,1,.17.09.24.24,0,0,1-.09.4,8,8,0,0,0-2.33,1.92.9.9,0,0,0-.79.75.62.62,0,0,1-.08.24,5.09,5.09,0,0,0-1.15,1.52c-.19.45-.72.73-1.06,1.12a3.42,3.42,0,0,0-.57.85c-.11.25-.23.56.28.43.2-.06.29,0,.35.22a26.91,26.91,0,0,0-1.23,3.28,3.71,3.71,0,0,0-.28,1.1,4.73,4.73,0,0,1-.34,1.38,3,3,0,0,0-.37,1.56.9.9,0,0,1-.06.46c-.56,1.26-.08,2.58-.13,3.87s.26,2.74.34,4.11a.31.31,0,0,1,0,.23c-.43.35-.6-.06-.59-.31A11.79,11.79,0,0,0,11,47.76c-.08-.51.17-1.06.11-1.62,0-.23,0-.48,0-.71a6,6,0,0,1-.06,2,2.22,2.22,0,0,0,.27,1.41.78.78,0,0,1,.07.56,3.23,3.23,0,0,0,.5,2.86,5.58,5.58,0,0,1,.5,1.77C12.39,54.22,12.27,54.31,12.11,54.33Z"/><path class="cls-6" d="M47.06,33.64l-.36-.37c-.06-.06-.05-.11,0-.15,1.1.65,1.34,1.84,1.68,2.9a10.47,10.47,0,0,1,.53,2.58,38.3,38.3,0,0,1-.25,4.68,26.84,26.84,0,0,0-.09,2.83A6.41,6.41,0,0,1,48.31,48,14.66,14.66,0,0,1,47,51.58c-.41.73-.42,1.59-.83,2.32a15.62,15.62,0,0,0-1.32,3.53c-.48,1-1,1.92-1.44,2.93-.39,0-.32-.32-.25-.53A2.11,2.11,0,0,1,43.6,59a9.26,9.26,0,0,0-.7,1.41c-.08.2-.16.39-.42.22l0-.16a1.21,1.21,0,0,1,.22-.75A26.51,26.51,0,0,0,44.36,56c.51-1,.72-2.21,1.25-3.25a20.21,20.21,0,0,0,1.89-6.88,15.48,15.48,0,0,0,0-2.15,38,38,0,0,0,0-5.12c0-.32-.09-.64-.14-1,.35-.25.43.06.47.27a8.41,8.41,0,0,1,.29,2.33c0,.66,0,1.33-.08,2a11.07,11.07,0,0,1-.25,2.63c0,.06-.07.11,0,.16.43.54.06,1.14.14,1.7-.11-.52.32-1.06-.12-1.56,0,0-.06-.12,0-.16a7.58,7.58,0,0,0,.28-1.89,11.38,11.38,0,0,0,.25-2,7.27,7.27,0,0,1,.1-1.32.77.77,0,0,0-.06-.65,3.51,3.51,0,0,1-.32-2.2,2.45,2.45,0,0,0-.09-.72C47.67,35.33,47.28,34.52,47.06,33.64Z"/><path class="cls-7" d="M22.75,22a8.12,8.12,0,0,1-.46-1.87,29.07,29.07,0,0,1-.49-3.83,19.08,19.08,0,0,1,.79-5.46c.54-2.06,1.12-4.11,1.81-6.12a14.71,14.71,0,0,1,1.45-2.71c.13-.21.33-.51.61-.32s0,.46-.11.63a6.46,6.46,0,0,0-.67,1.74,44.48,44.48,0,0,0-1.89,5.53,17.2,17.2,0,0,0-1,4.94,15.63,15.63,0,0,0,.58,4.11c.27,1,.47,2,.71,3a.28.28,0,0,1-.17.15c-.57,0-.2-.5-.38-.72-.33-1.49-.88-2.92-1.18-4.43.23,1.17.17,2.38.43,3.55A5.77,5.77,0,0,0,23,21C23,21.33,23.39,21.82,22.75,22Z"/><path class="cls-8" d="M47.06,33.64a6.54,6.54,0,0,1,1.33,3.17c.13.67-.08,1.39.32,2a1.07,1.07,0,0,1,.1.77c-.23,1.09-.07,2.23-.31,3.29-.14.62,0,1.32-.38,1.88a.24.24,0,0,0,0,.28,3.37,3.37,0,0,1,.18,2c0,.27-.07.68-.4.66s-.35-.47-.32-.74c.11-1,.13-2,.15-3a31.47,31.47,0,0,0,0-5.66,1.61,1.61,0,0,0-.26-.73,8.52,8.52,0,0,0-1.77-3.71,6.79,6.79,0,0,0-1.26-1.36,1.73,1.73,0,0,1-.71-1.09,24.72,24.72,0,0,1,2.18,2.39C46.11,34.3,46.8,34.16,47.06,33.64Z"/><path class="cls-9" d="M33.59,31c.39,0,.32,0,.39,0s.42-.11.49.16a.33.33,0,0,1-.27.45.62.62,0,0,0-.55.68,10.48,10.48,0,0,0-.93,3.1A6.5,6.5,0,0,1,32.3,37c-.1.28-.23.67-.59.56s-.21-.56-.12-.83a2,2,0,0,0,.14-1c-.05-.39.19-.91-.43-1-.46-.06-.26-.72,0-1a3.77,3.77,0,0,0,.92-3,4,4,0,0,1,.57-2,.64.64,0,0,1,.78-.22c.31.14-.1.57-.06.83C33.73,30,33.23,30.63,33.59,31Z"/><path class="cls-10" d="M29.3,29.31l0-.17c-.24-.23,0-.38.1-.56s.29-.51.07-.77-.47-.14-.72,0A1.43,1.43,0,0,1,27,27.14a6.74,6.74,0,0,0-1.74-1.59.39.39,0,0,1,.16-.52,4.41,4.41,0,0,0,1.14.54c.26.05.35.31.42.55a1.7,1.7,0,0,0,.81,1c.45.24.58.15.66-.36a42.81,42.81,0,0,0,.21-4.38c.07-1.11-.12-2.21,0-3.31.11-.78.26-1.55.43-2.31.06-.3.15-.73.58-.62s.33.5.25.83a20.27,20.27,0,0,0-.31,5.39c0,1.2-.33,2.38-.22,3.6,0,.52-.11,1.06.61,1.25.24.06.27.34.22.57A1.85,1.85,0,0,1,29.3,29.31Z"/><path class="cls-11" d="M41.5,5.58a18.51,18.51,0,0,1-2-2.74A5.08,5.08,0,0,0,36.84.29a1.24,1.24,0,0,0-1.29.26.42.42,0,0,0,.14.74c1.7.67,2.49,2.18,3.38,3.6A9.69,9.69,0,0,0,40,6a1.46,1.46,0,0,1,.34.76,38.2,38.2,0,0,1-2.44-3.35A5.93,5.93,0,0,0,36.47,2a2.94,2.94,0,0,0-2.78,0,5.64,5.64,0,0,1-1.31.45c-.12,0-.26,0-.3-.14A.2.2,0,0,1,32.21,2c1.44-.42,2.51-1.61,4-2a1.19,1.19,0,0,1,.87.14,5.47,5.47,0,0,1,2.47,2.4A12.53,12.53,0,0,0,41,4.64,2.82,2.82,0,0,1,41.5,5.58Z"/><path class="cls-12" d="M22.75,22a3.16,3.16,0,0,0-.12-1.1c.28-.23.36-.05.42.2a30.91,30.91,0,0,0,1.4,4c.23.55.08.85-.48,1.05a2.57,2.57,0,0,1-.76.19,7.35,7.35,0,0,0-3.34,1.1c-.18.09-.33.15-.49,0l0-.16a5.3,5.3,0,0,1,3.31-1.51c1.39-.11,1.42-.15.89-1.44A18.73,18.73,0,0,1,22.75,22Z"/><path class="cls-12" d="M33.75,53.23l0,.14a10.74,10.74,0,0,1-.19,3.53c-.09.45-.05.93-.12,1.39-.09.67-.52.92-1.06.64a.21.21,0,0,1,.1-.16,2,2,0,0,0,.56-1.47c.08-1.2.23-2.39.28-3.58C33.36,53.49,33.24,53.07,33.75,53.23Z"/><path class="cls-12" d="M25.42,25l.23.39c-.38.42-.71,0-.79-.19a13,13,0,0,1-1.09-3.1c0-.2,0-.36.19-.45l.14,0A25.59,25.59,0,0,1,25.42,25Z"/><path class="cls-13" d="M31,25a1.21,1.21,0,0,1-.91,1c-.2,0-.32-.09-.28-.29a1.31,1.31,0,0,1,.72-1C30.81,24.64,30.93,24.86,31,25Z"/><path class="cls-12" d="M32.31,57.46l.13-.24c.18-.06.34,0,.33.19,0,.51.11,1.05-.31,1.48l-.05,0A2.13,2.13,0,0,1,32.31,57.46Z"/><path class="cls-8" d="M46.72,33.12l0,.15A3.7,3.7,0,0,1,46,32,2.76,2.76,0,0,1,46.72,33.12Z"/><path class="cls-14" d="M9.22,185.87c.31.54.38,1.19.73,1.71-.18.26-.47.46-.35.86,0,.14-.09.26-.27.24-.61-1.09-1-2.27-1.53-3.41-.64-1.41-1.09-2.89-1.6-4.35a11.09,11.09,0,0,1-.51-2.42,15.94,15.94,0,0,0-.43-1.75c-.7-2.91-1.41-5.81-1.9-8.77-.25-1.5-.47-3-.8-4.51a22.77,22.77,0,0,1-.25-3.79c-.17-2.75-.05-5.51-.11-8.26-.05-2.21-.17-4.42-.07-6.62a54.37,54.37,0,0,1,.43-6.62c.14-.87.42-1.72.5-2.59a18.77,18.77,0,0,1,.33-2.37c.27-1.34.58-2.67.89-4a2.35,2.35,0,0,1,.21-.42c.36,0,.29.27.28.48a3.12,3.12,0,0,1-.13.59c-.11.54-.27,1.09.19,1.57-.25,1.5-.83,2.91-1,4.42a11.61,11.61,0,0,0-.19,2.82c0,.13-.09.23-.1.35a5.38,5.38,0,0,0-.09,2.43,6.54,6.54,0,0,1,0,2.68,11,11,0,0,0-.1,2.37,13,13,0,0,1,.06,2.42c0,.63,0,1.3,0,1.94a9.89,9.89,0,0,0,.07,1.74c.12.85-.25,1.67,0,2.53a6.88,6.88,0,0,1,.06,2.27.65.65,0,0,0,.05.2,4.23,4.23,0,0,1-.09,2,5.69,5.69,0,0,0,.13,2,3.38,3.38,0,0,1,.22,2.11.2.2,0,0,0,0,.17c.4.58.15,1.34.55,1.93a.8.8,0,0,1,.15.63A4.33,4.33,0,0,0,5,169.52a5.43,5.43,0,0,1,.22,1.34c.1.8.16,1.6.19,2.41a.34.34,0,0,0,0,.17,17.71,17.71,0,0,1,.87,3.93,18,18,0,0,0,.93,3.34,30.65,30.65,0,0,0,2,5.16c-.09.09-.12.22-.16.26S9.15,186,9.22,185.87Z"/><path class="cls-15" d="M6.9,75.47a15.37,15.37,0,0,0-2.63,5c-.36.89-.7,1.79-1.14,2.65a4,4,0,0,0-.49,1.6c-.09,2.22-.84,4.33-1,6.53-.09,1.34-.15,2.68-.17,4s-.35,2.67-.38,4a4.58,4.58,0,0,0,0,.83c.2,1.56.42,3.11.71,4.65-.32.11-.79-.3-.73-.72a7.78,7.78,0,0,0-.34-2.26,6.44,6.44,0,0,0-.32-1.57c-.1-.27.07-.54.2-.85-.47.77-.08,1.49,0,2.18a10.07,10.07,0,0,1,.43,2.68,3.41,3.41,0,0,0,.22,1.57c0,.1,0,.2,0,.3,0,.3,0,.61-.4.74a29.94,29.94,0,0,1-1-7,46.27,46.27,0,0,1,.44-4.68c.09-1.1.14-2.2.18-3.3a14,14,0,0,1,.49-3.15,6.49,6.49,0,0,0,.17-1.25,29.08,29.08,0,0,1,1-4.54c.29-1,.88-1.94,1.24-2.94a29.65,29.65,0,0,1,4.61-7.65,25.39,25.39,0,0,1,2-2.43c.84-.86,1.67-1.74,2.56-2.54,1.18-1.06,2.4-2.07,3.63-3.07.32-.25.21-.47.11-.73a.24.24,0,0,1,.09-.15c.56.12.69.47.39,1.09.92-.19,1-.15,1,.43a5.21,5.21,0,0,0-1.08.66,17.07,17.07,0,0,0-2.39,1.84,7.67,7.67,0,0,1-1.82,1.38,8.47,8.47,0,0,0-2.2,2.46A9.2,9.2,0,0,0,9,72.81H9a1.62,1.62,0,0,0-.78.91A5.49,5.49,0,0,1,6.9,75.47Z"/><path class="cls-16" d="M7.9,125.3c.35,1,.74,2,1.14,3A29.1,29.1,0,0,0,11,131.44c.2.35.44.67.67,1A20.21,20.21,0,0,1,13,135c.25.52.67.92.87,1.46.54.84,1,1.75,1.58,2.55a4.75,4.75,0,0,0,1.07,1.66c.31.39.71.76,1.06,1.15h0a1.93,1.93,0,0,1,.63,1.36c.1.5.29,1-.17,1.45s-.66.16-1-.28a24.35,24.35,0,0,1-1.56-2.42c-.34-.54-3.61-5.9-4.2-6.93a53.4,53.4,0,0,1-3.69-7A1.92,1.92,0,0,0,7,127a2.11,2.11,0,0,1-.64-2.47,6.37,6.37,0,0,0-.63-2.5h0a7.6,7.6,0,0,1-.87-2.34.83.83,0,0,1,.06-.47c.09-.18.11-.38.37-.46s.39.15.49.29A9.36,9.36,0,0,1,6.86,122,18.57,18.57,0,0,0,7.9,125.3Z"/><path class="cls-17" d="M22.62,246.85c.1-1.21.16-2.43.31-3.64.31-2.48.57-5,.84-7.43.17-1.59.34-3.19.62-4.77a29.89,29.89,0,0,0,.28-4.33c0-1.27.14-2.53.27-3.79.18-1.71.24-3.44.45-5.15.28-2.24.35-4.48.46-6.72.09-1.93,0-3.86.17-5.78.08-1.4.08-2.79.07-4.18a3.39,3.39,0,0,1,0-.78,1.37,1.37,0,0,1,1.24.12,2.26,2.26,0,0,0-.56,1.88,25.45,25.45,0,0,1-.19,5.16,18.45,18.45,0,0,0,0,2.35c0,1-.16,2.08-.26,3.12-.05.63.08,1.27,0,1.92-.17,1-.12,2-.29,3a45.89,45.89,0,0,0-.44,7c-.09,3.1-.5,6.15-.83,9.23-.15,1.33-.23,2.68-.33,4a19,19,0,0,0-.24,2.37c-.61-.08-.38-.57-.38-.9s.18-.63.05-.81.07-.1,0-.14-.05,0,0,0a10,10,0,0,1-.1,2.56c-.31,1.58-.32,3.19-.55,4.78a1.13,1.13,0,0,1-.23.6C22.88,246.71,22.83,246.88,22.62,246.85Z"/><path class="cls-13" d="M27.73,125.19l0,.83c-.21,1.76-.32,3.53-.47,5.3a.88.88,0,0,1-.08.41c-.74,1.06-.38,2.4-.88,3.52a.53.53,0,0,0,0,.41c.31.55.08,1.15.21,1.71a.64.64,0,0,1,0,.41c-.16.39-.33.77-.83.75s-.68-.36-.59-.95a12.62,12.62,0,0,1,.28-2.46,1.1,1.1,0,0,0,0-.54,10.54,10.54,0,0,1,.08-2.51c.06-3.76.79-7.45,1.15-11.17.06-.88.07-1.75.19-2.62a5.62,5.62,0,0,0,0-1.16c0-.76,0-1.51.06-2.27a.54.54,0,0,1,.45-.55c.3-.06.33.21.43.41a2.25,2.25,0,0,1,0,1.71,10.19,10.19,0,0,0-.18,2.08,21.69,21.69,0,0,0,.12,3.78A13.51,13.51,0,0,1,27.73,125.19Z"/><path class="cls-18" d="M26.74,173.3c.11-1.78.11-3.58.34-5.34.3-2.2.13-4.42.47-6.6a2.17,2.17,0,0,0,0-.72,31.12,31.12,0,0,1,.23-3.48,6.88,6.88,0,0,1,.13-1.19c.11-.65.13-1.24.87-1.57.27-.12.4-.58.59-.88.3-.47.52-.47.81,0a1.29,1.29,0,0,1,.1,1.05c-.13.31-.09.68-.3,1-.43.05-.32-.33-.41-.53s0-.47,0-.74c-.31.42-.71.76-1,1.19a1.25,1.25,0,0,0-.07,1.22,1.61,1.61,0,0,1,.06,1.26c-.16.43-.28.89-.46,1.33a.84.84,0,0,0,0,.71c.3.61.24,1.32.56,1.93a.35.35,0,0,1-.17.51c-.47.21-.53.63-.57,1.05a2.85,2.85,0,0,0,.34,2,4.33,4.33,0,0,1,.25-2.29c.07-.31.27-.56.53-.09-.23,2.42-.51,4.84-.65,7.27,0,.78,0,1.57-.12,2.36a.86.86,0,0,1-.13.39c-.14,1.09,0,2.17-.06,3.26a1.09,1.09,0,0,1,0,.18.86.86,0,0,0-.11.52,16.12,16.12,0,0,1-.3,3.25c-.05.35.12.69.07,1.06s-.27.75-.29,1.15a.2.2,0,0,1-.2.19.24.24,0,0,1-.27-.2c-.08-.33.23-2.26,0-2.36-.57-.23-.28,1.23-.37,1.32,0,.92-.53.8-.57.28a10.8,10.8,0,0,1,.18-2.28,15.14,15.14,0,0,0,.26-2.49C26.51,175.75,26.74,174.53,26.74,173.3Z"/><path class="cls-10" d="M27.35,200.4a1.82,1.82,0,0,0-.31.16c-.43.36-.68.24-.78-.28-.14-.11-.11-.27-.11-.41,0-.4.51-.75.11-1.18,0-.08-.05-.17-.13-.22h0a.27.27,0,0,1,.06-.36c.35-.18.53,0,.63.31s.26.12.36-.11.07-.74.29-1.05a23.3,23.3,0,0,1,.86-3.07,6.41,6.41,0,0,0,.3-1.35c.16-1.11.87-2,1.13-3.09.3-.49.41-1.08.72-1.57h0a15.25,15.25,0,0,0,.6-1.45l.24-.61a16.61,16.61,0,0,1,.72-2.05,6.46,6.46,0,0,1,.58-1.18,21,21,0,0,0,2-4.13c.07-.2.15-.41.23-.62s.18-.78.65-.59,0,.57.12.85c0,0,0,.07-.05.11a25.27,25.27,0,0,1-1.81,4.57,61.6,61.6,0,0,0-2.7,5.83,2.69,2.69,0,0,1-.39.6,1.55,1.55,0,0,0-.47,1.43,1,1,0,0,1-.09.65,22.4,22.4,0,0,0-1.25,4.26A20.63,20.63,0,0,1,27.35,200.4Z"/><path class="cls-19" d="M22.88,258.09c.1.73-.46,1.36-.32,2.12a2,2,0,0,0,.22.78,1.36,1.36,0,0,1,0,1.44.85.85,0,0,1-.84.49c-.37,0-.47-.36-.52-.66-.12-.65-.19-1.31-.31-2-.2-1.08-.85-2.05-.83-3.18,0-.06,0-.13,0-.18,0-.32-.19-.77.29-.87s.42.39.56.65c.66.2,1-.13.89-.86a8.08,8.08,0,0,1,.25-2.73.65.65,0,0,1,0-.2c.06-.56,0-1.13.05-1.69.25-.39-.11-.88.2-1.27a4,4,0,0,0,0-.6.29.29,0,0,1,.24-.3c.18-.06.25.1.33.19a.52.52,0,0,1,.13.45c-.26,1.26,0,2.55-.17,3.81C22.82,255,23.06,256.57,22.88,258.09Z"/><path class="cls-17" d="M27.73,125.19c-.22-3-.66-6-.16-9.07a1.64,1.64,0,0,0-.11-1.17c-.08-.14-.14-.33-.34-.29s-.17.24-.18.39c-.1,1.83-.07,3.66-.25,5.48,0,.14,0,.28-.06.42a.76.76,0,0,1-.12-.85h0c.09-.72,0-1.46.17-2.19a4.41,4.41,0,0,0-.09-1.3,12.28,12.28,0,0,1,.16-2.19h0c-.08-1.1.49-2.1.49-3.19,0-.66,0-1.33.09-2a35.31,35.31,0,0,1,.36-4,10.9,10.9,0,0,0,.23-3.56.88.88,0,0,1,0-.36,9.06,9.06,0,0,0,.27-3,12.06,12.06,0,0,0,.1-2.4,1,1,0,0,1,.14-.46.75.75,0,0,0,.42-.9,1.41,1.41,0,0,1,.08-.95c.15-.29.34-.38.43,0,.1,1.53-.2,3-.24,4.54a19,19,0,0,1-.19,2.72h0a29.89,29.89,0,0,0-.18,3.14,2.33,2.33,0,0,1-.21,1.1,1.42,1.42,0,0,0-.11.87,5.27,5.27,0,0,1-.05,2.37c-.09.28.05.55,0,.83a4.18,4.18,0,0,1-.07,1h0a33.6,33.6,0,0,0-.38,5,2.24,2.24,0,0,1-.11.92,1.38,1.38,0,0,0-.21.74,36.66,36.66,0,0,0,0,5.24,14.41,14.41,0,0,1,.21,2.27A1.56,1.56,0,0,1,27.73,125.19Z"/><path class="cls-20" d="M19.27,93.86a20,20,0,0,1,.22,2.77c-.1,1.89.06,3.77,0,5.66a21.08,21.08,0,0,0,.2,3.54,16.72,16.72,0,0,1,.22,3.6c-.07.6.2,1.17.18,1.73-.07,1.78.69,3.43.68,5.19,0,.45.54.72.46,1.21-.14.11-.3.19-.42,0-.23-.37-.59-.68-.6-1.18a1.83,1.83,0,0,0-.16-.64.6.6,0,0,1,0-.62c.22-.27.16-.5,0-.62a.44.44,0,0,1,0,.58.83.83,0,0,0-.06.78,42.2,42.2,0,0,0,1.75,5.81c.18.38.08.84.25,1.21a12.26,12.26,0,0,0-.52-2.43c-.09-.44-.1-.88-.19-1.31a.39.39,0,0,1,.27-.48A4.39,4.39,0,0,1,22,120a20.59,20.59,0,0,1,.65,3.47,2,2,0,0,1,0,.42.42.42,0,0,1-.32.4c-.2,0-.29-.14-.35-.28a16.75,16.75,0,0,1-.78-2.15c-.26-1.2-.72-2.34-1-3.52a24.75,24.75,0,0,1-.9-5.34c-.1-1.58-.3-3.16-.4-4.74-.06-.85,0-1.69,0-2.53,0-1.28-.11-2.56-.2-3.84a26.16,26.16,0,0,1-.11-3.43,28.87,28.87,0,0,1-.09-2.94c.33-.16.35.11.44.31A12.91,12.91,0,0,0,19,98a2.92,2.92,0,0,0,.2,1.46.59.59,0,0,1-.06.52,1.37,1.37,0,0,0-.15.76.2.2,0,0,1,0-.15c.4-1.33-.21-2.68.14-4a.84.84,0,0,0-.08-.44,3.83,3.83,0,0,1-.26-1.06c-.09-.4.31-.72.19-1.13a.31.31,0,0,1,.15-.17A.2.2,0,0,1,19.27,93.86Z"/><path class="cls-21" d="M7.9,125.3a2.25,2.25,0,0,1-.57-1.18,35.38,35.38,0,0,0-1.17-4.05.49.49,0,0,0,0-.11c-.14-.37-.26-.91-.74-.79s-.44.72-.34,1.14c.15.6.55,1.12.66,1.74a5.12,5.12,0,0,1-.84-1.82,3.49,3.49,0,0,0-.42-1.17,9.28,9.28,0,0,1-.58-2.14,6.24,6.24,0,0,0-.28-.76,8.23,8.23,0,0,1-.83-2.3.86.86,0,0,0-.15-.32,2.14,2.14,0,0,1-.4-1.29,1.37,1.37,0,0,0-.13-.45,12.48,12.48,0,0,1-.71-2.71C1.31,108,1.1,107,1,106v-.24c-.09-.23.15-.36.19-.56A.26.26,0,0,1,1.5,105c.18,0,.22.12.26.28s0,.22.07.33c.29,1.46.51,2.93.78,4.39a1.13,1.13,0,0,0,.21.56c.56,1.6,1.28,3.17,1.75,4.79.55,1.84,1.44,3.52,2,5.33.34,1.07.59,2.17.87,3.26A6.44,6.44,0,0,1,7.9,125.3Z"/><path class="cls-22" d="M41,88.78l0-.12a22,22,0,0,0,1.59-2.53,4,4,0,0,1,1-1.56c.15-.13.27-.32.5-.24s.29.31.3.55a4.5,4.5,0,0,1-.56,2.17A35.18,35.18,0,0,0,42,90.94c-.53,1.44-1.08,2.88-1.57,4.33a11.34,11.34,0,0,0-.59,2.43.45.45,0,0,1-.45.46c-.38,0-.29-.27-.32-.47a5.25,5.25,0,0,1,.3-1.92l.09-.17a15.06,15.06,0,0,1,.4-1.67A4.88,4.88,0,0,0,40,91.1,2.34,2.34,0,0,1,40.15,90a1.65,1.65,0,0,1,.48-.76Z"/><path class="cls-23" d="M18.53,96l-.13-.47h0a4.68,4.68,0,0,1,0-1.12A28.51,28.51,0,0,0,18.42,91a17,17,0,0,1,0-2.67,2.92,2.92,0,0,0-.21-1,.3.3,0,0,0-.37-.23,2,2,0,0,0-1.62.9c-.21.24-.48.45-.77.19a.66.66,0,0,1,0-.89,21.6,21.6,0,0,1,1.45-2.13c.83-1,1.47-.94,2.12.18l.12.21a10.59,10.59,0,0,1,.3,2.75c0,.62.14,1.23.12,1.85a9.87,9.87,0,0,1-.13,1.43,4,4,0,0,0-.18,1.89.43.43,0,0,1-.12.44.49.49,0,0,1,0,.12,1.68,1.68,0,0,0,0,1.21,1.91,1.91,0,0,0,.12.85.29.29,0,0,1,.06.22c0,.21.07.48-.23.54s-.31-.26-.41-.44A3.27,3.27,0,0,0,18.53,96Z"/><path class="cls-24" d="M16.47,63.51h-.12c-.44-1.29-1.32-2.39-1.58-3.75A3.44,3.44,0,0,0,14,58.34a21.11,21.11,0,0,1-1.63-3.47c-.08-.18-.18-.36-.27-.54a23.31,23.31,0,0,0-.82-2.39A3.08,3.08,0,0,1,11,49.39c.12-.32-.21-.62-.18-1,.07-.9.09-1.81.15-2.71a2.46,2.46,0,0,0,0-1c-.05-.15,0-.36.17-.38s.21.18.2.31c-.06,1,.31,2,0,2.93a.39.39,0,0,0,0,.24,6.25,6.25,0,0,1,.48,2.7c0,.1.11.21.17.32h0a1.58,1.58,0,0,1,.3.88,8.86,8.86,0,0,0,.8,2,7.58,7.58,0,0,0,1.11,1.84,9.09,9.09,0,0,1,.8,1.47A18.64,18.64,0,0,1,16,59.64a24.79,24.79,0,0,0,1.29,2.77c.07.17.14.34.22.5-.21.41-.44.28-.59,0a16.91,16.91,0,0,1-.81-1.79,2.51,2.51,0,0,0-.28-.57c-.27-.42-.74-.76-.57-1.39a.77.77,0,0,0-.21-.55,5.71,5.71,0,0,1-1-1.5,2.23,2.23,0,0,0,.42.94,6.52,6.52,0,0,1,.77,1.75c.07.29.38.42.53.68a7.69,7.69,0,0,1,.83,2.79A.19.19,0,0,1,16.47,63.51Z"/><path class="cls-25" d="M9.33,188.68a3.1,3.1,0,0,0-.1-.53c-.11-.28-.31-.56,0-.81s.47.15.71.24c.68,1.13,1.42,2.23,2,3.4,1,2,2,4.06,3,6.08a21.52,21.52,0,0,1,1.28,2.36c.06.2,0,.36-.21.3s-.69-.06-.74-.42a4,4,0,0,0-.82-1.93.29.29,0,0,1,0-.35c-.14.33.08.53.27.75s.24.72-.21.95a6.64,6.64,0,0,1-.8-1.54c-.85-1.82-1.68-3.66-2.65-5.41C10.52,190.73,9.82,189.77,9.33,188.68Z"/><path class="cls-22" d="M32.67,159c-.18-.86.49-1.5.62-2.28A8.62,8.62,0,0,1,35,153.64c.18-.21.42-.47.72-.27s.21.48.15.77a19.87,19.87,0,0,1-1.3,4.27.27.27,0,0,0,0,.12,24,24,0,0,1-.83,3.26c-.13.65-.16,1.33-.25,2a5.33,5.33,0,0,0-.68,2.12c0,.1,0,.21,0,.3s-.14.39-.42.31-.24-.29-.18-.48c.61-1.87.65-3.87,1.3-5.73a.55.55,0,0,0-.19-.59A4.85,4.85,0,0,1,32.67,159Z"/><path class="cls-17" d="M20,199.91l-.11.72a10.94,10.94,0,0,1-.36,2.67,26.59,26.59,0,0,0-.72,6,3.78,3.78,0,0,1-.11,1.38c-.33,0-.3-.28-.3-.48a21.28,21.28,0,0,1,0-2.65.85.85,0,0,0-.23-.78c.25-1.4.53-2.8.76-4.21a38.79,38.79,0,0,0,.54-6.29c0-1.5.22-3,.34-4.5.06-.74.12-1.49.19-2.22a1.19,1.19,0,0,0-.59-1.05c.17-.22.38-.35.63-.13s.57.41.83.64c0,.86-.23,1.7-.27,2.55-.05,1.23-.18,2.45-.3,3.68a11.24,11.24,0,0,1-.07,2h0c-.06.68-.19,1.34-.19,2C20,199.48,20.12,199.71,20,199.91Z"/><path class="cls-26" d="M21.8,167.86c0,2.17-.13,4.33-.23,6.49-.08,1.62-.17,3.24-.24,4.86-.13,2.89-.25,5.78-.38,8.67,0,.3,0,.6,0,.9a.22.22,0,0,1-.14.09c-.44-.19-.22-.59-.28-.89s.11-.56-.19-.63-.4.28-.53.49-.11.53-.44.6a1.09,1.09,0,0,1,.29-1.28,2.56,2.56,0,0,0,.64-1.95c0-1.91.3-3.82.28-5.72,0-2.13.27-4.25.09-6.39-.22,0-.18.25-.3.34h-.1c-.26-.4,0-.74.13-1.09.05-.16.3-.18.47-.14s.3.1.3.35a6,6,0,0,0,0,.78,12.16,12.16,0,0,1,0-2.17,1.27,1.27,0,0,0-.22-.92c-.1-.14-.26-.27-.17-.48s0-.54.15-.77c.42-.1.49-.37.46-.76C21.43,168.1,21.32,167.61,21.8,167.86Z"/><path class="cls-27" d="M31.34,169.56a6.49,6.49,0,0,1,.6-2.56c.35,0,.3.31.39.5a36.51,36.51,0,0,1-.86,4.36c-.3.89-.27,1.94-.49,2.89a9,9,0,0,0-.17,1.46,3.44,3.44,0,0,1-.36,1.37.64.64,0,0,0-.12.46,7.69,7.69,0,0,1-.23,2.48,18.27,18.27,0,0,1-.93,4.19c-.07.19-.11.44-.35.42s-.19-.31-.19-.49a11.33,11.33,0,0,1,.18-1.41c.11-1.91.69-3.74.94-5.63a20.5,20.5,0,0,1,1-5A4.61,4.61,0,0,0,31,171a3.6,3.6,0,0,1,.34-1.4c.07.07.17.11.19.22C31.52,169.65,31.41,169.63,31.34,169.56Z"/><path class="cls-7" d="M16.34,234.26a10.54,10.54,0,0,1,0-2.86c.38-2.61.6-5.22.75-7.85a12.45,12.45,0,0,1,.23-1.36,7.41,7.41,0,0,1,.22-2.05.32.32,0,0,1,.34-.28c.18,0,.24.17.25.32a4.18,4.18,0,0,1,0,2.08c-.11.26.09.51,0,.76-.43,1.08-.18,2.23-.35,3.34a4.92,4.92,0,0,1-.07.78c-.52,1.5-.32,3.08-.54,4.62-.1.68-.08,1.42-.13,2.13a1,1,0,0,0,0,.76.61.61,0,0,1,0,.46c-.08.2-.07.54-.41.44s-.28-.35-.19-.6A.8.8,0,0,0,16.34,234.26Z"/><path class="cls-28" d="M33.52,123.12a31.58,31.58,0,0,1,.69-3.35c.26-1.47.69-2.89.94-4.36a36.82,36.82,0,0,1,.71-3.77c.53-1.88.64-3.84,1.2-5.72.2-.67.17-1.42.34-2.13.07-.29.15-.58.22-.87.22,0,.22-.21.3-.34s.25-.44.49-.1c0,.81-.32,1.58-.43,2.38a1,1,0,0,0-.23.6c-.17,1.6-.57,3.15-.84,4.72h0a7.08,7.08,0,0,1-.39,1.57l-.1.25c0,.77-.25,1.52-.26,2.29l-.23.6a24,24,0,0,1-.59,2.67h0c-.17.41.1.88-.17,1.28-.25,0-.55-.07-.49.39a11.28,11.28,0,0,1-.51,2.56c0,.3-.12.62-.18.94S34,123.38,33.52,123.12Z"/><path class="cls-18" d="M17.18,180.7c.2,1.1.14,2.25.45,3.34.12.43.27.81.76.93a.48.48,0,0,1,.33.32,2.5,2.5,0,0,1-.58,1.84c-.22.14-.45.14-.57-.09a3.36,3.36,0,0,1-.57-1.19,12.08,12.08,0,0,1-.23-3c.08-.59-.32-1.11-.33-1.71s-.13-1.27-.2-1.91a14.12,14.12,0,0,1-.42-2.82c-.08-.47-.19-.93-.26-1.4,0-.26-.14-.59.24-.62s.46.25.48.52a12.77,12.77,0,0,1,.35,3.08s.05.11.08.16h0a6.88,6.88,0,0,1,.29,1.68A4.2,4.2,0,0,0,17.18,180.7Z"/><path class="cls-29" d="M13.93,163.27c-.2-1.49-.41-3-.6-4.47a19.89,19.89,0,0,1-.5-3c0-.24-.23-.42-.37-.62a1.65,1.65,0,0,1-.11-1.76c.18-.34.4-.38.67-.12a1,1,0,0,1,.36.54,15.57,15.57,0,0,1,.5,2.48c.08,1.15.28,2.27.41,3.41.09.94.14,1.89.3,2.83a8.75,8.75,0,0,1,.23,1.76c0,.26.1.71-.28.75s-.32-.43-.41-.69S14.14,163.63,13.93,163.27Z"/><path class="cls-30" d="M14.53,198.72a.76.76,0,0,0-.27-.9.54.54,0,0,1-.14-.84.31.31,0,0,0,0-.43c-.06-.1-.11-.25.05-.3s.21.1.28.2a6.2,6.2,0,0,1,.45,1.1c.21.55.94.86.75,1.62,0,.18.32.23.54.25a12.63,12.63,0,0,1,.84,1.35c.17.21.3.32.44,0a6.79,6.79,0,0,0,.42-1.3c0-.2.13-.43.35-.43s.28.27.32.49a1.5,1.5,0,0,1-.2,1,1.31,1.31,0,0,0-.17,1.21,2.54,2.54,0,0,1,0,1.13.56.56,0,0,1-1,.3A6.22,6.22,0,0,1,15.79,201a7.86,7.86,0,0,0-.83-1.39C14.82,199.29,14.67,199,14.53,198.72Z"/><path class="cls-7" d="M35.58,178.51v-.06c0-.23.08-.54-.2-.65s-.34.23-.52.34c.29-1.48,1-2.9.86-4.47,0-.2,0-.4,0-.6h0c0-.55.36-1,.4-1.58a22.92,22.92,0,0,1,.33-2.37,3.79,3.79,0,0,0,.37-1.85,2.37,2.37,0,0,1,.24-.91,16.05,16.05,0,0,0,.42-3.52.32.32,0,0,1,.17-.28c.34-.13.38.1.4.33A3.11,3.11,0,0,1,38,164c-.14.63,0,1.32-.31,1.86,0-.28.28-.53.35-.86s.22-.21.37-.06a21.73,21.73,0,0,1-.83,4.22,21.87,21.87,0,0,0-.39,2.66,5.3,5.3,0,0,1-.22,1.48c-.16,0-.3-.07-.44-.08,0,.17.18.07.24.16a.39.39,0,0,1,.08.14,23.79,23.79,0,0,1-.75,3A12.76,12.76,0,0,1,35.58,178.51Z"/><path class="cls-31" d="M26.26,198.22l-.12.25a19.39,19.39,0,0,1,0-2.64c-.11-1.36.08-2.72.08-4.08a22.24,22.24,0,0,1,.33-3.9,13.41,13.41,0,0,0,.1-1.68c.05-1.06.08-1.79.12-2.85a11.17,11.17,0,0,0,.26-1.55c.32-1,.93-2.67.72-.26a49.34,49.34,0,0,1-.51,5.55,32.18,32.18,0,0,0-.21,3.41,12.09,12.09,0,0,1-.28,2.39,1.46,1.46,0,0,0,0,.42c.11,1.46.06,3.9.23,5.3,0,.19-.76-.64-.44-1.17C26.29,197.67,26.57,198,26.26,198.22Z"/><path class="cls-32" d="M13.93,163.27a3,3,0,0,1,.3,1.1c0,.16.07.41.29.39s.24-.27.22-.44a16.71,16.71,0,0,0-.23-1.73,14,14,0,0,1-.22-2.82c.2,1.41.48,2.82.57,4.24s.45,2.89.58,4.36c.14,1.64.38,3.27.53,4.91a20.41,20.41,0,0,0,.45,2.06,11.09,11.09,0,0,1,.29,2.81.51.51,0,0,1-.15-.5,12.26,12.26,0,0,0-.37-2.62c0-.19-.12-.38-.35-.35s-.21.31-.17.49c.32,1.34.35,2.71.57,4.06-.26-.32-.21-.75-.36-1.1,0,0-.05,0,0-.07s0,0,0,0a7.89,7.89,0,0,0-.14-1.68c-.33-2.45-.64-4.9-1-7.35A55.32,55.32,0,0,1,13.93,163.27Z"/><path class="cls-2" d="M21.8,167.86a3.77,3.77,0,0,0-.16,1c-.06.26-.13.6-.45.17a.28.28,0,0,1-.18-.25,6.24,6.24,0,0,1,.23-2.94,11.21,11.21,0,0,0,.12-1.64c.1-.84,0-1.68,0-2.52a8.27,8.27,0,0,0,.05-1.72h0a10.29,10.29,0,0,1-.12-1.47,2.87,2.87,0,0,1,0-1.54c.11-.25.23-.51.52-.51s.41.33.43.57c.06.74.09,1.49.09,2.23a82.89,82.89,0,0,1-.44,8.34A1.55,1.55,0,0,1,21.8,167.86Z"/><path class="cls-33" d="M16.45,255.93a12.28,12.28,0,0,1-.22-3,20.72,20.72,0,0,1-.25-3.16,8.78,8.78,0,0,1,0-1.7h0a.77.77,0,0,0,0-.63,4.21,4.21,0,0,1-.09-1.12,7.53,7.53,0,0,0-.06-2.17,1,1,0,0,1,.21-1,.23.23,0,0,1,.32,0,1.11,1.11,0,0,1,.27.91c0,1.37,0,2.75.05,4.12,0,.37.31.71.13,1.09.25,2,.37,4.05.43,6.07a31.7,31.7,0,0,1-.48,5.58,9.37,9.37,0,0,1-.18,1.91c-.34,0-.41-.24-.42-.52a9.83,9.83,0,0,1,.27-2.16c0-.11.13-.22.11-.33a13.39,13.39,0,0,1,.24-3,8.14,8.14,0,0,1,0-1.48C16.71,255.57,16.88,255.91,16.45,255.93Z"/><path class="cls-34" d="M16.83,249.25a18.81,18.81,0,0,1-.28-5c0-.27.08-.57-.18-.78a.18.18,0,0,0-.27,0,.84.84,0,0,0-.09.81,2.66,2.66,0,0,1,0,1.19A23.31,23.31,0,0,1,16,248a19.4,19.4,0,0,1-.18-4.37,26.72,26.72,0,0,1,.43-5.2,3,3,0,0,0,0-.84,20,20,0,0,1,.1-3.37,1.05,1.05,0,0,1,.1.58c0,.14-.1.37.16.36s.25-.2.26-.36a2,2,0,0,1,.1-1c.27,2.56-.19,5.08-.29,7.62,0,.59,0,1.16,0,1.74A54.29,54.29,0,0,0,16.9,249,.73.73,0,0,1,16.83,249.25Z"/><path class="cls-25" d="M21.55,118.66a13.63,13.63,0,0,0,.54,2.89c.17.65.2,1.31.32,2,0,.14,0,.31-.13.36s-.3-.1-.36-.25a7.51,7.51,0,0,1-.31-.91c-.59-2.13-1.35-4.2-1.83-6.36-.1-.47-.42-.94,0-1.43.15-.17-.08-.27-.15-.4a1.23,1.23,0,0,1-.13-1,.18.18,0,0,1,.26-.09c.33.15.38.48.48.79a15.26,15.26,0,0,1,.22,1.8,3.52,3.52,0,0,0,.73,1.53A3,3,0,0,0,21.55,118.66Z"/><path class="cls-35" d="M6.43,124.57a3.46,3.46,0,0,0,.62,2.11A2.4,2.4,0,0,1,7.64,128a.12.12,0,0,1-.16,0c-.47-.59-.46-.58-1.08-.14a1.38,1.38,0,0,0-.68,1.06,5.63,5.63,0,0,1-1,2.47c-.64,0-.7-.12-.57-.74a9.2,9.2,0,0,0,.33-1.8,1.6,1.6,0,0,1,.34-.84,14.42,14.42,0,0,1,1.12-3A.45.45,0,0,1,6.43,124.57Z"/><path class="cls-33" d="M2.82,110.55a1.07,1.07,0,0,1-.34-.76c-.09-.74-.36-1.45-.41-2.22,0-.59-.47-1.16-.36-1.83a.32.32,0,0,0-.26-.37c-.24,0-.33.19-.46.34a4.52,4.52,0,0,1-.28-1.92c.14-.61-.36-1-.15-1.6.11-.31-.22-.92-.34-1.4a4.74,4.74,0,0,1,.23-2,.24.24,0,0,1,.25-.22c.15,0,.16.15.2.27s0,0,0,0c-.22,1.7.47,3.29.55,5a1.44,1.44,0,0,0,.4.86c.25,1.56.56,3.1.72,4.68C2.62,109.8,2.74,110.17,2.82,110.55Z"/><path class="cls-36" d="M22.76,246.47c.35-1.88.33-3.8.72-5.68a10.06,10.06,0,0,0,.21-2,1.59,1.59,0,0,1,.56-1.22c0,1-.46,1.94,0,2.83a49.13,49.13,0,0,1-.68,5.26,10.61,10.61,0,0,0-.1,2.46,5,5,0,0,1-.18,1.72,6.87,6.87,0,0,1-.34-2.81A1.1,1.1,0,0,0,22.76,246.47Z"/><path class="cls-7" d="M18.16,206.8c.34-.2.45,0,.51.29a9.4,9.4,0,0,1,0,1.5c0,.71,0,1.41,0,2.12,0,1.08,0,2.16,0,3.25a4.36,4.36,0,0,1-.11.71c-.23.35,0,.74-.08,1.11s0,.62-.3.6-.37-.38-.29-.64a10.28,10.28,0,0,0,.05-2.48,8.78,8.78,0,0,0,0-2.11,9.57,9.57,0,0,1,0-2.07,11.6,11.6,0,0,1,.23-2.28Z"/><path class="cls-33" d="M33.52,123.12a29.16,29.16,0,0,0,1-3.7c0-.23,0-.48.1-.71s.07-.52.35-.47.12.35.15.53l0,.09a2,2,0,0,1-.15,1.07c-.09.25-.07.52-.16.77a10.58,10.58,0,0,0-.4,2.15,3.94,3.94,0,0,0-.16,1c-.11.15-.09.36-.21.52l0,1.08c-.28.38-.15.86-.32,1.26a15.41,15.41,0,0,0-.64,2.1c-.07.19-.11.44-.36.4s-.26-.37-.24-.57c.11-.83.33-1.64.5-2.46.2-1,.37-2,.58-3Z"/><path class="cls-28" d="M33.52,123.12c-.12,1.28-.4,2.54-.64,3.8-.1.49-.2,1-.29,1.48,0,.17-.07.41.16.45s.23-.2.27-.34a9.63,9.63,0,0,1,.62-1.88.17.17,0,0,1,0,.24l-1.59,5.5a2.12,2.12,0,0,1-.61,1.09c-.29.25-.43.14-.47-.19a1.32,1.32,0,0,1,.09-.71,25.73,25.73,0,0,0,1.72-6.14A33.42,33.42,0,0,1,33.52,123.12Z"/><path class="cls-37" d="M40.42,95.19c-.45,1.7-.88,3.4-1.36,5.09a6.12,6.12,0,0,0-.49,1.78l-.09.26s0,.14-.14.11c-.28.1-.19.75-.72.49l.14-1.08c.56-1.8,1-3.63,1.4-5.46.06-.24,0-.63.4-.71-.09.52-.17,1-.25,1.58,0,.22-.11.52.17.54s.19-.29.23-.47A7.22,7.22,0,0,1,40.42,95.19Z"/><path class="cls-17" d="M18.16,206.8a52.07,52.07,0,0,0-.16,6.37,14.46,14.46,0,0,1,0,2.46c0,.19-.06.48.19.5s.21-.3.24-.48c0-.33-.13-.69.15-1a37,37,0,0,1-.12,3.94,11.57,11.57,0,0,0-.13,2.69,5,5,0,0,1-.24,1.72,1.49,1.49,0,0,1,0-1,3,3,0,0,0-.07-1.6c0-.11-.06-.25-.21-.25s-.21.16-.23.29c-.09.58-.17,1.15-.25,1.73a1.24,1.24,0,0,1-.07-.71c.2-1.5.44-3,.58-4.49a13.48,13.48,0,0,0,0-2.46c-.06-.67.05-1.32,0-2a37.87,37.87,0,0,1,.06-4.88A1.86,1.86,0,0,1,18.16,206.8Z"/><path class="cls-21" d="M16.45,255.93c0-.37,0-.75,0-1.13,0-.21,0-.46.25-.5s.3.25.33.42a11.06,11.06,0,0,1,0,3,19.11,19.11,0,0,1-.3,2.38.64.64,0,0,0-.37.6c0,.23-.1.46-.43.32l-.06-.08a13.58,13.58,0,0,0,.38-3C16.24,257.31,16.64,256.65,16.45,255.93Z"/><path class="cls-26" d="M21.42,160a2.27,2.27,0,0,1,.08,1.41,1.45,1.45,0,0,0-.06.41,60.76,60.76,0,0,1-.26,7c-.2.08-.23.26-.24.46s0,.31-.25.29-.18-.21-.17-.35-.14-.31-.36-.26h-.09a14.52,14.52,0,0,1,.31-2.62c0-.2.11-.44.29-.5.51-.16.5-.56.56-1a28.65,28.65,0,0,0,.06-3.07A13.35,13.35,0,0,1,21.42,160Z"/><path class="cls-33" d="M28.05,175.77v2.3l-.36,4.23c-.22.56-.08,1.16-.26,1.72-.08.23-.05.49-.37.72l-.12-2.57a7.92,7.92,0,0,1-.2-1.53.85.85,0,0,1,0-.17c0-.11-.09-.22-.13-.34a.5.5,0,0,1,.22-.57.2.2,0,0,1,.28,0,.51.51,0,0,1,.12.56,1.87,1.87,0,0,0,.16,1.42,2.57,2.57,0,0,0,.38-1.51c.06-1.3.14-2.6.22-3.9A2.3,2.3,0,0,1,28.05,175.77Z"/><path class="cls-38" d="M22.76,246.47c.44,0,.43.36.43.65,0,.92,0,1.84.06,2.75.1,2.53-.37,5-.23,7.58a1.11,1.11,0,0,1-.14.64c-.06-2.07,0-4.14.16-6.21a6.32,6.32,0,0,1,0-2.08.29.29,0,0,0-.21-.38c-.25,0-.15.22-.2.35s-.09.23-.14.34a3.46,3.46,0,0,1,0-1.36,15.13,15.13,0,0,1,.11-1.9Z"/><path class="cls-33" d="M1,106c.21.73.41,1.45.61,2.18a.3.3,0,0,1,0,.23c-.39.67-.05,1.24.24,1.81,0,.09.13.18.14.27a12.85,12.85,0,0,0,1.35,4.75c.61,1.39.74,2.92,1.42,4.27a1.69,1.69,0,0,1,.13.77,15,15,0,0,1-1.15-3.53c-.12-.62-.57-1.16-.75-1.76-.46-1.51-1-3-1.38-4.53-.29-1.2-.21-2.43-.6-3.59Z"/><path class="cls-36" d="M19.5,62.18l1-.46c.24-.1.54-.24.71,0s-.11.51-.32.67c-.63.46-1.27.9-1.91,1.35a2.4,2.4,0,0,0-1.2-.35.35.35,0,0,1-.37-.51l-.13-.49a.89.89,0,0,0,1.35.27Z"/><path class="cls-39" d="M19.36,188.44c0-.82.56-1.29,1-1.83a.2.2,0,0,1,.26-.08c.15.08.15.23.15.37v1.86a.22.22,0,0,1-.09.27c-.19.24-.39.27-.55,0a.86.86,0,0,0-.76-.48A.36.36,0,0,1,19.36,188.44Z"/><path class="cls-7" d="M33.39,163.74V164c-.41.95-.39,2-.79,3a1.28,1.28,0,0,1-.28.51c-.53.15-.43-.2-.39-.5.35-1.74.64-3.5,1.06-5.22.25-1,.56-1.92-.33-2.74a1.49,1.49,0,0,1,.69,2c-.55,1.54-.58,3.2-1,4.78,0,.11-.08.27.07.31s.21-.13.24-.26c.14-.51.27-1,.4-1.52A1.34,1.34,0,0,1,33.39,163.74Z"/><path class="cls-21" d="M16.47,262.19l.13.62a16.34,16.34,0,0,0,.24,3.12,1.27,1.27,0,0,1-.32,1.22c-.24.24-.54.23-.61-.09a11.19,11.19,0,0,1-.23-5.77,1.87,1.87,0,0,1,.17-.31l0,0c.59.36.33.91.23,1.36a7.08,7.08,0,0,0,.16,3.73,1.34,1.34,0,0,0-.07-.68,8,8,0,0,1,0-2.92C16.19,262.32,16.25,262.17,16.47,262.19Z"/><path class="cls-33" d="M26.86,173.49a4.32,4.32,0,0,1,0,1.68c-.25,1.83-.2,3.69-.52,5.52-.05.28-.31.82.41.78l0,0a2.55,2.55,0,0,1,0,.57c0,.26-.16.34-.37.35s-.27-.17-.29-.36a4.48,4.48,0,0,1,0-1.55,17.82,17.82,0,0,1,.29-2.61c0-1.34.21-2.67.33-4A2.13,2.13,0,0,1,26.86,173.49Z"/><path class="cls-40" d="M16.23,87.94A1.62,1.62,0,0,1,17.9,87c.44.07.51.44.57.76a12.1,12.1,0,0,1,0,2.17c0,.41-.16.85.25,1.17a.17.17,0,0,1,0,.16c-.51.83-.16,1.74-.28,2.6,0,.16-.07.31-.11.47a6.38,6.38,0,0,1,0-1.95,36,36,0,0,1-.07-4c0-.43.06-.95-.35-1.13a1.32,1.32,0,0,0-1.29.3C16.53,87.67,16.38,87.81,16.23,87.94Z"/><path class="cls-40" d="M19.13,93.86a10,10,0,0,1,.25-2.62,19.67,19.67,0,0,0-.07-4.13c0-.54-.11-1.08-.17-1.61a4.06,4.06,0,0,1,.4,2,15,15,0,0,1-.06,4.13,16.37,16.37,0,0,0-.21,2.2Z"/><path class="cls-21" d="M6.43,124.57a8.75,8.75,0,0,0-1.25,2.5,4,4,0,0,1-.35.89,1.4,1.4,0,0,1,.1-.88,16.39,16.39,0,0,1,1.19-2.55c.29-.42,0-.93-.12-1.39a11.31,11.31,0,0,0-.31-1.1A4.94,4.94,0,0,1,6.43,124.57Z"/><path class="cls-31" d="M26.27,199.79v.49a31.16,31.16,0,0,0-.11,3.35,5.16,5.16,0,0,1-.13,1.61c-.05-2,0-4,.06-6,0-.26,0-.52.05-.78l.14.11A1.24,1.24,0,0,1,26.27,199.79Z"/><path class="cls-26" d="M20.36,173.44c-.14.19-.31.27-.52.12a.37.37,0,0,1-.09-.49c.62-1.33.25-2.73.32-4.1l0,0a.77.77,0,0,1,.52,1c-.2,1,.06,2.1-.42,3.08a.3.3,0,0,0,.12.44Z"/><path class="cls-38" d="M22.28,253.13A11.74,11.74,0,0,0,22,256c.06.78-.31,1-.94.69.64,0,.81-.22.78-.88a8.53,8.53,0,0,1,.31-2.71Q22.22,253,22.28,253.13Z"/><path class="cls-41" d="M6.9,75.47a12.85,12.85,0,0,0,1.49-2.29A.66.66,0,0,1,9,72.81c-.56.61-.85,1.39-1.36,2A1.69,1.69,0,0,1,6.9,75.47Z"/><path class="cls-42" d="M35.34,117.56a14.48,14.48,0,0,1,.59-2.67A6.12,6.12,0,0,1,35.34,117.56Z"/><path class="cls-43" d="M32.06,184.07a7.94,7.94,0,0,1-.72,2.05A4.18,4.18,0,0,1,32.06,184.07Z"/><path class="cls-20" d="M18.4,92.4c0,.65,0,1.3,0,1.95,0,.4,0,.81,0,1.21A8.2,8.2,0,0,1,18.4,92.4Z"/><path class="cls-36" d="M22.51,248.75c0,.45,0,.9,0,1.36s.08.74-.13,1.08a.09.09,0,0,1-.11.05l0-.07A14.1,14.1,0,0,1,22.51,248.75Z"/><path class="cls-32" d="M17.18,180.7a10.06,10.06,0,0,1-.47-2.55A8.51,8.51,0,0,1,17.18,180.7Z"/><path class="cls-42" d="M36.16,114.29a6.81,6.81,0,0,1,.26-2.29A8,8,0,0,1,36.16,114.29Z"/><path class="cls-43" d="M30.49,188.18a3.48,3.48,0,0,1-.72,1.57A3.28,3.28,0,0,1,30.49,188.18Z"/><path class="cls-44" d="M14.89,57c-.38-.39-.47-1-.83-1.37a.15.15,0,0,1,0-.23l0,0A3.83,3.83,0,0,1,14.89,57Z"/><path class="cls-43" d="M31.1,186.73a2.36,2.36,0,0,1-.6,1.45A3.32,3.32,0,0,1,31.1,186.73Z"/><path class="cls-34" d="M16,248a8.05,8.05,0,0,1,0,1.7A3.27,3.27,0,0,1,16,248Z"/><path class="cls-36" d="M22.28,253.13h-.12a9.2,9.2,0,0,1,.09-2l.05,0a7.74,7.74,0,0,1,0,1.8Z"/><path class="cls-42" d="M36.52,111.75a8.58,8.58,0,0,1,.39-1.57A2.71,2.71,0,0,1,36.52,111.75Z"/><path class="cls-26" d="M21.3,158.54a4.58,4.58,0,0,1,.12,1.47A2.63,2.63,0,0,1,21.3,158.54Z"/><path class="cls-45" d="M28.79,61.68a1.68,1.68,0,0,1-1.57-.42.87.87,0,0,0-.84-.17,20.26,20.26,0,0,0-2.65.81c-.18.06-.88.27-1,.07s.38-.49.51-.64a2.71,2.71,0,0,1,.64-.31c.84-.43,1.69-.84,2.53-1.26.13-.17.35-.13.51-.21,1.51-.37.91-1.31.91-3.21a5.61,5.61,0,0,1,.29-1c0-.23.12-.48.4-.44s.3.33.25.54a16,16,0,0,0-.07,3.25c0,.82.24,1.08,1.06,1.13,1.43.08,2.83.47,4.27.42,2-.07,3.73.88,5.61,1.3a6,6,0,0,0,1.89.25c.13-.09.23-.25.39-.28s.55-.13.54.33a1.23,1.23,0,0,0,.55.93,15.44,15.44,0,0,1,2.18,2.32,1.25,1.25,0,0,0,.71.47,6.75,6.75,0,0,1,2.32,1.2c.37.28.37.84.68,1.19l.48.86c.41.46.83.92,1.21,1.41a8.29,8.29,0,0,1,1,2.56A7.79,7.79,0,0,0,52.38,75a2.36,2.36,0,0,1,.36,1c.13.82.19,1.64.31,2.46a13.37,13.37,0,0,1,0,1.78,3.8,3.8,0,0,0,.06,1,.64.64,0,0,1-.43.86c-.4.06-.57-.13-.62-.68-.1-1.24,0-2.49-.14-3.73a4,4,0,0,0-.8-1.74,10.79,10.79,0,0,1-.87-2.34,4.28,4.28,0,0,0-.49-1.25c-.57-1-1.2-1.88-1.85-2.79a2.73,2.73,0,0,1-.37-.72,2.53,2.53,0,0,0-1.62-1.48,5.81,5.81,0,0,1-1.63-.87,12.28,12.28,0,0,0-2.11-2.15A4.48,4.48,0,0,0,39.34,63a8.38,8.38,0,0,1-1.66-.46A17.52,17.52,0,0,0,35,61.81c-1.08-.05-2.18-.21-3.26-.34-.71-.09-1.42-.13-2.12-.24C29.31,61.18,29.1,61.58,28.79,61.68Z"/><path class="cls-2" d="M46.59,118.06a2,2,0,0,0,.48-1.15,13.17,13.17,0,0,1,1.07-4c.14-.31.14-.67.25-1A59.06,59.06,0,0,0,49.86,105c.45-2.15.88-4.29,1.33-6.44a25,25,0,0,0,.64-4.88A4.41,4.41,0,0,1,52,92.35a11.56,11.56,0,0,0,.32-4c-.1-1.79-.11-3.57-.08-5.36.33-.33.45,0,.52.21a2.81,2.81,0,0,1,0,1,5.6,5.6,0,0,0,.14,2.57c.19.53,0,1.11,0,1.66a3.5,3.5,0,0,0,.05,1,18.39,18.39,0,0,0,.11-2A16.82,16.82,0,0,0,53,84.55c0-.24-.14-.63.38-.49a18.65,18.65,0,0,1,.13,4.09,8.36,8.36,0,0,1,0,1.5c-.38,1.5-.35,3.06-.66,4.57a4.37,4.37,0,0,0-.11,1.14,14.68,14.68,0,0,1-.54,2.45c-.1.92-.37,1.81-.45,2.73a1.87,1.87,0,0,1-.14.71,14.29,14.29,0,0,0-.67,3.1c-.38,1.57-.55,3.17-1,4.73-.25.94-.33,1.93-.62,2.87,0,.12,0,.26-.09.35-.72,1-.63,2.23-.88,3.35a16.5,16.5,0,0,1-1.24,3.83,20.73,20.73,0,0,0-1.36,3.58,1.86,1.86,0,0,1-.55.92c-.29,0-.29-.23-.19-.43.46-.85.48-1.84.92-2.69,0-.07,0-.12,0,0h0c-.19.52-.19.52-.63.32a6.26,6.26,0,0,1,.65-2,8.51,8.51,0,0,1,.42-1A.21.21,0,0,1,46.59,118.06Z"/><path class="cls-1" d="M53.36,84.06c-.17.34,0,.68,0,1,0,1.33,0,2.66,0,4,0,.44-.3.78-.41,1.29a3.54,3.54,0,0,1-.4-1.84,4.65,4.65,0,0,0,0-1.78,6.94,6.94,0,0,1-.1-2.68c0-.14,0-.28,0-.42a.73.73,0,0,0-.24-.65,12.61,12.61,0,0,1-.36-4.1,3.12,3.12,0,0,1,0-1.36A13.19,13.19,0,0,1,52,80.11a6.75,6.75,0,0,0,.11,1.19c0,.21.11.42.37.39a.41.41,0,0,0,.41-.44c-.11-1.08.12-2.16-.08-3.24a5.34,5.34,0,0,1-.07-.89,9,9,0,0,0-1.08-3.47A13.56,13.56,0,0,1,51.22,72,5.08,5.08,0,0,0,50,69.71a2.41,2.41,0,0,1-.63-.87,6.52,6.52,0,0,1,2.27,3.86,7.57,7.57,0,0,0,.81,2.2A5.4,5.4,0,0,1,53,77.29c.21,2,.08,4,.46,6A1.28,1.28,0,0,1,53.36,84.06Z"/><path class="cls-40" d="M45.49,121.07a1.53,1.53,0,0,0,.43-.71c0-.14.08-.37.29-.31s.23.28.16.45c-.38,1-.48,2-.92,3-.07.16-.12.34-.19.5h0c-.3,1.13-.95,2.13-1.21,3.28a16.88,16.88,0,0,0-1.45,3.25c-.11.32-.25.63-.38.94-.37.47-.4,1.15-.94,1.51-.22-.12-.27-.22-.1-.46a1.73,1.73,0,0,0,.32-.87,4.29,4.29,0,0,0,.85-1.85,8.81,8.81,0,0,1,1-2.14c.11-.2.15-.08.09-.14s0,0,0,0a6.73,6.73,0,0,0-.71,1.45c-.06.19-.22.58-.56.19a28.68,28.68,0,0,1,1.68-3.65c.18-.34.24-.31.32-.69,0,0,.26-1.37.25-1.41a7.35,7.35,0,0,1,.75-2.12C45.14,121.18,45.22,120.91,45.49,121.07Z"/><path class="cls-1" d="M48.88,68c-.06,0-.15-.09-.18-.16-.54-1.35-1.81-1.7-3-2.17-.67-.27-1-1-1.44-1.43A11,11,0,0,0,42.8,62.8a1.16,1.16,0,0,1-.43-.63c-.15-.49-.43-.59-.86-.35.31-.42,1-.55,1-1.21.24-.84.89-1.47,1.15-2.3,0-.11.11-.23.25-.21s.22.17.23.32a.85.85,0,0,1-.23.54,2.2,2.2,0,0,0-.44,1.4,3.59,3.59,0,0,1-.64,1.28.57.57,0,0,0,.08.89,22,22,0,0,1,2.38,2.54,1.16,1.16,0,0,0,.65.41,6.46,6.46,0,0,1,2,1A2.62,2.62,0,0,1,48.88,68Z"/><path class="cls-2" d="M44.05,127.25A12.81,12.81,0,0,1,45.26,124,18.17,18.17,0,0,1,44.05,127.25Z"/><path class="cls-35" d="M32.46,58.89c0-.56,0-1.12,0-1.67,0-1.32.49-2.55.54-3.86,0-.74.12-1.47.13-2.21a3.94,3.94,0,0,1,.42-1.43c.14-.14.09-.53.47-.35,0,.93,0,1.86.06,2.79a1.79,1.79,0,0,1-.31,1.07c-.13.91-.12,1.83-.19,2.74a8.1,8.1,0,0,1-.43,2.53A.6.6,0,0,1,32.46,58.89Z"/><path class="cls-12" d="M34,49.37l-.47.35a36.66,36.66,0,0,1,.11-4.32c0-.22,0-.59.25-.6s.31.39.31.62c0,.74-.07,1.47-.13,2.21A9.22,9.22,0,0,0,34,49.37Z"/><path class="cls-46" d="M27.48,28.92a8.71,8.71,0,0,1-2-1.35.94.94,0,0,0-.82-.29,12.26,12.26,0,0,0-4.75,1.41c-.69.15-1.09.74-1.65,1.1-.27.18-.58.22-.84.4s-.35,0-.48-.16-.1-.35.06-.51a6.41,6.41,0,0,1,2.42-2.05,6.6,6.6,0,0,1,3.53-1.4,2,2,0,0,0,.42-.05c1-.19,1-.3.63-1.23a14.15,14.15,0,0,1-1.1-3.37.73.73,0,0,0-.23-.48,1.81,1.81,0,0,1-.12-.73c-.08-.28,0-.52.28-.61s.4.24.54.43,0,.73.4.91c.07.25.15.49.23.74a18.3,18.3,0,0,0,1,3,1.12,1.12,0,0,0,.69.76A3.46,3.46,0,0,1,27.2,26.9a1.16,1.16,0,0,0,1.63.39,1,1,0,0,1,1,.17c.25.13.18.41.15.65a1.53,1.53,0,0,1-.66,1,.51.51,0,0,1-.79.07A1.42,1.42,0,0,0,27.48,28.92Z"/><path class="cls-47" d="M41.09,131.85a.9.9,0,0,1-.08.23c-.25.54-.7.94-1,1.44A16.94,16.94,0,0,1,37.49,137a4.56,4.56,0,0,0-.83.87c-.71.84-1.4,1.71-2.14,2.53s-1.63,1.66-2.4,2.52a1.14,1.14,0,0,1-1.15.47,1,1,0,0,0-1.24.87c-.05.24-.05.48-.08.72-.11.79,0,.92.72,1.09.22.05.53-.23.55-.14.31-.07.6-.45.93-.69a1.37,1.37,0,0,0,.34-.34c.91-1.6,2.4-2.69,3.56-4.08.39-.47.71-1,1.14-1.45s.82-.92,1.23-1.38a4,4,0,0,1,1-1.22c.07-.1,0-.23.14-.33.59-.65.76-1.55,1.32-2.23.17-.47.6-.79.73-1.29s.31-.83.46-1.24c.08-.08.07-.19.1-.28s.17-.37,0-.48-.32.12-.45.27A1.51,1.51,0,0,0,41.09,131.85Z"/><path class="cls-47" d="M30.56,148.24a.6.6,0,0,0,.19-.08,1.53,1.53,0,0,1-.1-.82c0-.34.14-.45.45-.27.17-.15.13-.35.23-.49s.48-.13,0-.55a1.49,1.49,0,0,0-.81.42,1.44,1.44,0,0,0-.29,1.42C30.25,148.07,30.34,148.29,30.56,148.24Z"/><path class="cls-48" d="M39.22,150.58a.9.9,0,0,0,.17.85,1.34,1.34,0,0,1,.3,1c-.16,1.44.1,2.87-.07,4.32a10.17,10.17,0,0,1-.77,3.49,6,6,0,0,0-.13,1.64.54.54,0,0,1-.27.59c-.19.09-.43.13-.46-.12a2.19,2.19,0,0,1,0-1.19,3.77,3.77,0,0,0,.21-1.25,6.54,6.54,0,0,1,.32-2.14,2.27,2.27,0,0,0,.13-1.35,5.88,5.88,0,0,1,0-2.25,7.67,7.67,0,0,1-.13-3.2,4.36,4.36,0,0,0-.09-1c.16-.12.3-.11.39.08A1.93,1.93,0,0,0,39.22,150.58Z"/><path class="cls-22" d="M39.22,150.58c-.72.4-.6-.36-.85-.61a8.53,8.53,0,0,1,0-1.89,2.61,2.61,0,0,0-.13-1.11,5.48,5.48,0,0,1-.26-1.76,10.69,10.69,0,0,1-.27-2.11c0-.19-.08-.45.17-.52s.28.16.36.33a.37.37,0,0,0,.36.25c.27.33.11.8.37,1.13l0,.32a4.43,4.43,0,0,1,.27,1.61c0,.78.12,1.55.11,2.32a5.61,5.61,0,0,1-.15,2Z"/><path class="cls-12" d="M38.59,154.18c-.1,1.08.17,2.15.14,3.23,0,.11,0,.27,0,.35a2.72,2.72,0,0,0-.4,1.73c0,.72-.09,1.44-.19,2.15,0,.17,0,.48.22.49s.25-.27.26-.47a3.79,3.79,0,0,1,.26-1.41,16,16,0,0,1-.49,4.72c-.15.41-.52.75-.32,1.28.05.15,0,.5-.35.47s-.25-.31-.23-.54c.09-1.17.19-2.35.28-3.53a9.58,9.58,0,0,1,.15-1.78c.33-.61.13-1.3.26-1.94s.18-1.38.34-2.06a1.11,1.11,0,0,0-.11-.87,9.62,9.62,0,0,1,.11-1.78Z"/><path class="cls-46" d="M41.74,131.71c0-.15.06-.38-.16-.4s-.22.19-.28.34A22.14,22.14,0,0,1,39,135.29,5.7,5.7,0,0,1,37.49,137c.54-.71,1.06-1.43,1.61-2.13a3.84,3.84,0,0,0,.5-.88,14.85,14.85,0,0,0,2.14-4c.11-.27.23-.55.35-.82.65-.56.77-1.44,1.25-2.09.1-.14.08-.37.36-.41a1.9,1.9,0,0,1-.21,1.1,9.63,9.63,0,0,0-1,2.58A4.44,4.44,0,0,1,41.74,131.71Z"/><path class="cls-22" d="M38,139.93l.61.62a5.4,5.4,0,0,1,.11,2.4c-.08.2-.33.23-.37.12-.11-.38-.51-.46-.67-.79a1.78,1.78,0,0,0-.64-.76c-.53-.34-.56-.52-.13-1A1.19,1.19,0,0,1,38,139.93Z"/><path class="cls-47" d="M38,139.93c-.33.25-.68.48-1,.74s-.32.43-.05.66c.6.5,1,1.18,1.66,1.63q.23.18,0,.36c-.39.13-.46-.3-.82-.52.16,1.47.3,2.82.45,4.17a8.88,8.88,0,0,1-.47-2.4,8.43,8.43,0,0,1-.13-1.67,1.47,1.47,0,0,0-.63-1.29.78.78,0,0,1-.3-1.14A1,1,0,0,1,38,139.93Z"/><path class="cls-48" d="M39.21,150.58a29.09,29.09,0,0,0-.23-6,1.3,1.3,0,0,1,.34.93,36.45,36.45,0,0,1,.11,4.79Z"/><path class="cls-16" d="M30.75,148.16a.9.9,0,0,1-.19-1.24c.25-.26.48-.33.54.15C30.85,147.44,31.1,148,30.75,148.16Z"/><path class="cls-48" d="M38.6,143.32V143a6.51,6.51,0,0,0,0-2.41,2,2,0,0,1,.26,1.22,10.14,10.14,0,0,0,.1,2.52C38.63,144,38.64,143.67,38.6,143.32Z"/><path class="cls-46" d="M38.12,138a1.76,1.76,0,0,1,1-1.22C38.87,137.28,38.38,137.55,38.12,138Z"/><path class="cls-40" d="M17,29.52c.17.37.66.46,1.21.15a2.57,2.57,0,0,0,.89-.7.69.69,0,0,1,.81-.28A20.14,20.14,0,0,0,15.12,33c-.45.58-.69,1.28-1.16,1.84l-.15.1c-.23.15-.38.6-.73.31a.77.77,0,0,1-.07-1,4.75,4.75,0,0,1,1.26-1.74c.56-.44.73-1.12,1.2-1.62.19-.2.33-.39.64-.33.11-.08.12-.16,0-.24A1.46,1.46,0,0,1,17,29.52Z"/><path class="cls-46" d="M16.11,30.37l.78-.26c-.15.46-.41.58-.78.5Z"/><path class="cls-12" d="M23.73,20.94c-.24.16-.48.35-.46-.17a1,1,0,0,0-.14-.58c-.22-.31-.43-.36-.62,0a25.41,25.41,0,0,1-.46-4c0-.24,0-.55.31-.58s.36.28.38.52C22.87,17.8,23.47,19.33,23.73,20.94Z"/><path class="cls-10" d="M36.42,172.58c.28-.19.44-.12.47.21s0,.36,0,.54l-.12.22h-.13C36.25,173.31,36.54,172.9,36.42,172.58Z"/><path class="cls-49" d="M51.3,76.32l-.12-.48a3.91,3.91,0,0,1,.74,1.68l0,1.36A6.69,6.69,0,0,0,51.3,76.32Z"/><path class="cls-35" d="M4.47,132a.5.5,0,0,1-.2.45c-.26.14-.34.31-.21.58a.27.27,0,0,1-.13.36.28.28,0,0,1-.22,0c-.15-.09-.13-.24-.09-.38.12-.38.24-.75.38-1.13,0-.13.15-.26.32-.2S4.46,131.86,4.47,132Z"/><path class="cls-25" d="M9.22,185.87c0,.2,0,.4.06.6s0,.43-.24.48-.35-.17-.43-.38a2.14,2.14,0,0,1-.09-.34c0-.17-.16-.38,0-.51s.26.13.41.15a.94.94,0,0,0,.29,0Z"/><path class="cls-50" d="M17.45,62.9a.94.94,0,0,0,.71.19c.8-.15.8-.14.86.67l-.24.72c-.29.35-.62.6-1.1.36h0c-.39-.31-.72,0-1,.14s-.31.37-.53.09a.42.42,0,0,1,.15-.63c.39-.25.52-.54.2-.93-.13-.48-.46-.91-.37-1.44,0-.18-.16-.21-.24-.31s-.34-.43-.19-.71a.6.6,0,0,0-.26-.83,2,2,0,0,1-.59-.88c-.3-.64-.67-1.26-1-1.89a1.57,1.57,0,0,1-.24-.41c-.06-.28-.09-.63.2-.75s.5.15.61.44a4.94,4.94,0,0,0,.81,1.45,1.7,1.7,0,0,1,.45,1.51.51.51,0,0,0,.14.44,10.88,10.88,0,0,1,1.39,2.46A1.6,1.6,0,0,0,17.45,62.9Z"/><path class="cls-23" d="M29.9,155.42a2.65,2.65,0,0,1-.41,1.66c-.33.47-.13,1-.11,1.53a2.54,2.54,0,0,1-.18,1.22,4,4,0,0,0-.08,1.66,4.69,4.69,0,0,1-.19,1.54,5,5,0,0,0-.37,2.22,3.64,3.64,0,0,1,0,.66c0,.24,0,.53-.38.51a.5.5,0,0,1-.45-.5,16,16,0,0,1-.09-3c.08-.45.07-.82.71-.86-.57-.21-.76-.44-.35-.94.13-.16-.15-.51-.19-.8a2.21,2.21,0,0,1,.17-1.69.39.39,0,0,0,0-.45c0-.11-.11-.27,0-.34.52-.41.14-.82.09-1.27a1.82,1.82,0,0,1,.62-1.78c.4-.28.51-.77.81-1.12.09-.1.12-.27.31-.23s.2.18.25.31a.74.74,0,0,1,0,.65A1.4,1.4,0,0,0,29.9,155.42Z"/><path class="cls-33" d="M28.08,173.07c0,.93,0,1.87,0,2.8a1.73,1.73,0,0,1-.11.71v-2.81A1.52,1.52,0,0,1,28.08,173.07Z"/><path class="cls-17" d="M26.26,198.22c0-.44,0-.88,0-1.32,0-.16,0-.37.24-.35s.17.24.13.38a5.07,5.07,0,0,0,.08,1.78C26.63,198.49,26.53,198.28,26.26,198.22Z"/><path class="cls-17" d="M26.27,199.79v-1.21C26.76,199,26.61,199.39,26.27,199.79Z"/><path class="cls-38" d="M22.29,253c0-.6,0-1.2,0-1.8l.09,0A7,7,0,0,1,22.29,253Z"/><path class="cls-5" d="M14,55.41l0,.23a12.86,12.86,0,0,1-2.18-4.84.82.82,0,0,1,.29.44A16.29,16.29,0,0,0,14,55.41Z"/><path class="cls-6" d="M28.55,95.54a10,10,0,0,1,.07-2.94c.28-3.24.23-6.51.82-9.73a1.71,1.71,0,0,1,.37-1.06c.13-.13.27-.26.47-.17a.4.4,0,0,1,.2.41,1.42,1.42,0,0,1,0,.36c-.32,1.13-.23,2.31-.46,3.45s-.2,2-.34,3c-.18.64.06,1.3-.12,1.93l-.12.37a10.24,10.24,0,0,0-.06,1.66,1.79,1.79,0,0,1-.05.65.45.45,0,0,1,0,.11c-.26.35-.15.76-.14,1.15a5.56,5.56,0,0,1,0,.71c0,.16,0,.35-.23.39S28.63,95.69,28.55,95.54Z"/><path class="cls-40" d="M18.53,96c.07.07.14.15.21.21s.18.31.37.22.12-.27.14-.42a1.69,1.69,0,0,1,.11.94c-.16,1.3,0,2.61-.15,3.9,0,.25,0,.49-.37.62-.07-.55-.34-1.07.06-1.6.06-.07.12-.21.09-.26C18.32,98.5,18.74,97.23,18.53,96Z"/><path class="cls-25" d="M19.56,109.44a6.85,6.85,0,0,0,.28,1.42,1.89,1.89,0,0,1,.12.71.3.3,0,0,1-.28.33c-.22,0-.21-.17-.26-.32-.3-.77,0-1.61-.32-2.38-.05-.13-.14-.36.1-.39a.33.33,0,0,1,.4.34A1.23,1.23,0,0,1,19.56,109.44Z"/><path class="cls-25" d="M20,112.67c0,.12,0,.25-.18.25s-.2-.11-.2-.24a.21.21,0,0,1,.19-.25C19.93,112.41,19.94,112.54,20,112.67Z"/><path class="cls-40" d="M19.13,95.19a1,1,0,0,1,0-1.21C19.13,94.38,19.13,94.78,19.13,95.19Z"/><path class="cls-37" d="M39.56,95.67A16,16,0,0,1,40.15,93a1.63,1.63,0,0,0,0-1.11,2.07,2.07,0,0,1,.15-2,3.49,3.49,0,0,0,.07,2.19.87.87,0,0,1,0,.53c-.21.91-.44,1.83-.67,2.74A1.32,1.32,0,0,1,39.56,95.67Z"/><path class="cls-17" d="M29.3,93.51a8.52,8.52,0,0,1,.11-2.31A10.5,10.5,0,0,1,29.3,93.51Z"/><path class="cls-17" d="M29.53,90.83a7,7,0,0,1,.12-1.93A6.57,6.57,0,0,1,29.53,90.83Z"/><path class="cls-2" d="M20.33,173.42c-.42,0-.36-.27-.29-.48.38-1.09,0-2.24.32-3.33a.73.73,0,0,0-.25-.66c.13-.13.27-.29.45-.17s.12.44.15.66c.17.07.23.24.36.36a1.42,1.42,0,0,1,.46,1.61c-.21.81.06,1.65-.16,2.45,0,.14.08.38-.19.36a.35.35,0,0,1-.31-.39c0-.24,0-.48.05-.72s.06-.46-.18-.51-.29.22-.34.41A2.7,2.7,0,0,0,20.33,173.42Z"/><path class="cls-51" d="M21.07,169.8a.52.52,0,0,1-.36-.36c.16-.2,0-.66.47-.6v.24A1.46,1.46,0,0,0,21.07,169.8Z"/><path class="cls-7" d="M31.34,169.56c.12-.11.11-.4.36-.3s.13.29.08.43.12.73-.18.73-.21-.48-.26-.75v-.12Z"/><path class="cls-38" d="M36.42,172.58c.52.21.34.6.25,1-.09.14-.16.28-.25.41a.31.31,0,0,1-.38.11.25.25,0,0,1-.15-.3C36,173.33,35.92,172.83,36.42,172.58Z"/><path class="cls-10" d="M35.53,176.7c.2.05.24.21.25.37s0,.32-.19.32-.2-.2-.21-.35S35.37,176.76,35.53,176.7Z"/><path class="cls-50" d="M16.47,262.19a14.11,14.11,0,0,0,.19,3.89,1.07,1.07,0,0,1,0,.53c-.05.19-.15.41-.38.41s-.23-.27-.27-.45a26.06,26.06,0,0,1-.43-3.28c-.06-.52.31-.94.3-1.46,0-.27,0-.56,0-.83a1.43,1.43,0,0,0,.27-.65c.08-.33.26-.41.55-.21Z"/><path class="cls-37" d="M21.29,151.92c.15.83-.45,1.43-.66,2.16a.2.2,0,0,1-.24.13.41.41,0,0,1-.3-.34,12.43,12.43,0,0,1-.38-1.77c-.11-1.38-.45-2.74-.43-4.14a1.61,1.61,0,0,0-.54-1.24.84.84,0,0,1-.27-.71.52.52,0,0,1,.85-.43.91.91,0,0,1,.47.53,9.77,9.77,0,0,1,.41,2.54,16.31,16.31,0,0,0,.31,2.68c.06.41.52.38.78.59Z"/><path class="cls-28" d="M34.73,120.71a16.12,16.12,0,0,1-.6,3.14c.11-.9.21-1.79.34-2.68A1.64,1.64,0,0,1,34.73,120.71Z"/><path class="cls-28" d="M35.1,118.77c0,.37.09.78-.25,1.09C34.94,119.5,34.75,119.07,35.1,118.77Z"/><path class="cls-7" d="M17.74,218.84a1,1,0,0,1,0-.25c.06-.19,0-.55.29-.49s0,.32,0,.49,0,.16,0,.24.11.44-.1.46S17.79,219,17.74,218.84Z"/><path class="cls-7" d="M18.18,217.59a1,1,0,0,1,0-1A1,1,0,0,1,18.18,217.59Z"/><path class="cls-15" d="M17.68,64.84a1.75,1.75,0,0,0,1.1-.36C18.53,64.94,18.2,65.2,17.68,64.84Z"/><path class="cls-2" d="M20.66,166.35a1.22,1.22,0,0,1,0,.86C20.44,166.87,20.44,166.87,20.66,166.35Z"/></g></g></g></svg>