<?xml version="1.0" encoding="utf-8"?>
<!-- Generator: Adobe Illustrator 24.2.0, SVG Export Plug-In . SVG Version: 6.00 Build 0)  -->
<svg version="1.1" id="Layer_1" xmlns="http://www.w3.org/2000/svg" xmlns:xlink="http://www.w3.org/1999/xlink" x="0px" y="0px"
	 viewBox="0 0 19.4 21.8" style="enable-background:new 0 0 19.4 21.8;" xml:space="preserve">
<style type="text/css">
	.st0{fill:#2A2A2A;}
	.st1{fill:#252525;}
	.st2{fill:#3F3F3F;}
	.st3{fill:#242424;}
	.st4{fill:#121212;}
	.st5{fill:#323232;}
	.st6{fill:#3E3E3E;}
</style>
<g id="Layer_2_1_">
	<g id="_11898c_draft_galley_80_">
		<path class="st0" d="M17.1,14.2c0.4-1.5,0.9-2.9,1.5-4.3c0.3-0.6,0.1-1.3-0.3-1.9c-1.5-1.7-4-4.7-4.7-4.9c-0.2-0.5,1-0.4,1.3,0.1
			c1.3,1.7,3,3.2,4.2,4.9c0.3,0.4,0.4,0.9,0.2,1.3c-0.7,1.7-1.3,3.4-1.9,5.1C17,14.7,17.1,14.4,17.1,14.2z"/>
		<path class="st1" d="M0.6,11.4c0.5,1.3,1.2,2.5,2.3,3.5C2.9,14.9,3,14.9,3,15c0.6,2.1,2.6,2.8,3.9,4.2c0.3,0.2,0.6,0.4,1,0.4
			C8,19.7,8,19.8,8,19.8c0,0,0,0,0,0c-1.1,0-1.8-0.9-2.6-1.4c-1.9-1.1-2.6-3.1-4-4.6c-0.7-0.7-1.2-1.7-1.3-2.7
			c0.2,0,0.1-0.5,0.4-0.4S0.5,11.2,0.6,11.4z"/>
		<path class="st2" d="M17.1,14.2l0.2,0.4c-0.3,1.8-1.2,3.5-2.5,4.9c-0.2,0.2-0.4,0.5-0.5,0.8c-0.2,1-1.2,1.6-2.2,1.4
			c-0.1-0.1-0.3-0.3-0.2-0.4c0.3,0,0.5,0,0.8-0.1c0.4-0.1,0.3,0.1,0.8-0.4c0.4-0.7,0.9-1.4,1.4-2C15.9,17.5,16.7,15.9,17.1,14.2z"/>
		<path class="st2" d="M0.6,11.4C0.5,11.2,0.3,11,0,11.2c0.2-1.4,0.8-2.8,1.7-3.8c0.9-1.4,1.7-2.9,2.3-4.4c0.1,0,0.3,0.1,0.3,0.3
			C3.9,4.7,3.2,6.1,2.2,7.3C1.3,8.5,0.4,9.8,0.6,11.4z"/>
		<path class="st3" d="M12,21.3c0,0.1,0.2,0.4,0.2,0.5c-1-0.2-2.2-0.1-2.9-1c-0.4-0.4-1-0.4-1.3-0.9v-0.3c0.8,0.2,1.5,0.6,2.1,1.2
			c0.3,0.3,0.6,0.3,0.9,0.2c0.5-0.7,0.6-0.9,1-0.8v0.5C13,20.4,12.8,21.1,12,21.3z"/>
		<path class="st4" d="M4.3,3.2L4.1,2.9c0.5-1-0.2-1.9,0.7-1.8c0.2,0-0.6-1,0-1.1C5,0,5.3,0.2,5.3,0.4s0.3,0.7,0.1,0.9
			C4.9,1.9,4.8,2.6,4.3,3.2z"/>
		<path class="st5" d="M12,1.6c-0.4,0.2-0.9-0.4-1.3-0.3s0.5,0.9,0.2,1.1c-0.5,0.1-0.9-0.3-0.9-0.7c0,0,0-0.1,0-0.1
			c0-0.3,0.2-0.7,0.5-0.8C11.1,0.6,11.8,1,12,1.6z"/>
		<path class="st6" d="M10,6.3c0.3,1,0.4,2,0.2,3C9.9,9.6,9.5,5.9,10,6.3z"/>
	</g>
</g>
</svg>
