<?xml version="1.0" encoding="utf-8"?>
<!-- Generator: Adobe Illustrator 24.2.0, SVG Export Plug-In . SVG Version: 6.00 Build 0)  -->
<svg version="1.1" id="Layer_1" xmlns="http://www.w3.org/2000/svg" xmlns:xlink="http://www.w3.org/1999/xlink" x="0px" y="0px"
	 viewBox="0 0 153.5 35.5" style="enable-background:new 0 0 153.5 35.5;" xml:space="preserve">
<style type="text/css">
	.st0{fill:none;stroke:#808285;stroke-width:0.75;stroke-linecap:round;stroke-linejoin:round;}
	.st1{fill:none;stroke:#808285;stroke-width:0.5;stroke-linecap:round;stroke-linejoin:round;}
	.st2{fill:none;stroke:#808285;stroke-width:0.4;stroke-linecap:round;stroke-linejoin:round;}
	.st3{fill:none;stroke:#A7A9AC;stroke-width:0.35;stroke-linecap:round;stroke-linejoin:round;}
	.st4{fill:none;stroke:#939598;stroke-width:0.5;stroke-linecap:round;stroke-linejoin:round;}
	.st5{fill:none;stroke:#939598;stroke-width:0.3;stroke-linecap:round;stroke-linejoin:round;}
	.st6{fill:none;stroke:#808285;stroke-width:0.35;stroke-linecap:round;stroke-linejoin:round;}
	.st7{fill:none;stroke:#939598;stroke-width:0.4;stroke-linecap:round;stroke-linejoin:round;}
	.st8{fill:none;stroke:#6D6E71;stroke-width:0.3;stroke-linecap:round;stroke-linejoin:round;}
	.st9{fill:none;stroke:#939598;stroke-width:0.35;stroke-linecap:round;stroke-linejoin:round;}
	.st10{fill:none;stroke:#A7A9AC;stroke-width:0.5;stroke-linecap:round;stroke-linejoin:round;}
	.st11{fill:none;stroke:#A7A9AC;stroke-width:0.25;stroke-linecap:round;stroke-linejoin:round;}
</style>
<g id="Layer_2_1_">
	<g id="_12936_final">
		<path class="st0" d="M124.8,8.4c0,0,0.1,0.5,0.3,0.5c0.2,0.1,0.3,0.3,0.3,0.4c0,0.2,0.1,0.4,0.2,0.6c0.1,0.5-0.1-1.1-0.1-1.1"/>
		<path class="st1" d="M2.6,12.7c0,0,0.8,1.2,0.9,1.3c0.3,0.4,0.5,0.8,0.7,1.2c0.2,0.3,0.3,0.7,0.4,1.1C4.6,16.8,5,17.7,5,17.9
			s0.5,1.5,0.5,1.5"/>
		<path class="st2" d="M1.4,17.8c0.4,0.1,0.8,0.2,1.2,0.3c0.4,0.2,0.7,0.3,1.1,0.3h1.9"/>
		<path class="st3" d="M0.8,13.8c0,0,0.7-1.2,0.9-1.1s0.1,0.5,0.7,0.5s1.2-0.3,1.4,0s1,1.4,1.4,1.7s0.2-0.1,0.5,0.2
			c0.5,1,0.9,2,1.3,3"/>
		<path class="st4" d="M7.6,18.4c-0.2,0.1-0.3,0.3-0.4,0.5C7,20,7,21.1,7,22.1c0.1,1.1,0.1,2.2,0,3.3c-0.1,0.5-0.2,1.1-0.3,1.6v2
			c0.1,0.9,0.1,1.8,0,2.8C6.6,32,6.5,35,6.5,35v0.3"/>
		<path class="st1" d="M0.3,12.4l1.6-0.5c0.5-0.1,1.1-0.2,1.6-0.3c0.3,0,0.7,0,1,0.2C4.9,11.9,5.3,12,5.7,12C6,12,7,12.9,7,12.9
			l1,1.3l0.5,1.2L9.2,17l0.7,1.4l0.4,1"/>
		<path class="st1" d="M5.9,9.6c0.1,0.3,0.2,0.5,0.2,0.8c0,0.2,0.1,0.4,0.2,0.6l0.1,0.2"/>
		<path class="st4" d="M10.6,18.1c0,0-0.6,2.5-0.6,2.8s-0.3,2-0.3,2.1c-0.1,0.4-0.1,0.9,0,1.3c0.1,0.7,0,1.3-0.1,2
			c-0.1,0.7-0.2,2.4-0.2,2.6v4l-0.2,2.4"/>
		<path class="st1" d="M9.7,12c0,0.2,0.7,1.1,0.7,1.2s0.3,0.8,0.3,1.3c0,0.5,0.1,1,0.2,1.5l0.3,1.1"/>
		<path class="st2" d="M12.2,18.4c0.4-0.2,0.8-0.3,1.2-0.3c0.3,0,0.8,0.1,1.2,0.2s1,0,1.3,0c0.3,0,1.9,0,1.9,0"/>
		<line class="st3" x1="11.4" y1="12" x2="12.4" y2="16"/>
		<path class="st1" d="M11.1,11.5l0.7,0.1l0.7,0.2c0,0,0-0.1,0.3,0.1c0.3,0.2,0.6,0.4,0.8,0.6c0.2,0.3,0.4,0.7,0.6,1l0.7,1.3
			l0.4,1.2c0,0.1,0.3,1.5,0.3,1.5"/>
		<path class="st5" d="M9.7,10.5l1-0.3l0.8-0.1h1l0.6-0.2"/>
		<path class="st1" d="M11.6,9.5l0.5-0.3C12.2,9.1,12.4,9,12.5,9c0.3,0,0.5,0.1,0.8,0.1c0.1,0.1,0.2,0.2,0.2,0.4c0,0.2,0,0,0.1,0
			s0.1-0.1,0.4,0s0.4,0.3,0.6,0.5s0.7,0.7,0.7,0.7l0.5,0.4l0.3,0.2"/>
		<path class="st1" d="M16,11.7c0.3,0.3,0.5,0.5,0.7,0.9c0.1,0.2,0.5,1.1,0.5,1.1s0.2,0.6,0.3,0.6s0.3,0.7,0.3,0.7l0.3,1.6l0.2,1.2
			l0.1,1.8l-0.1,0.6"/>
		<path class="st1" d="M14.1,18.5c0,0-0.2,4.8-0.3,5.1s-0.3,3.9-0.2,4.1s-0.2,2.9-0.3,3s0,2.1,0,2.3c0,0.3,0,0.7,0,1
			c0,0.1,0.2,0.7,0.2,0.8l0.1,0.4"/>
		<path class="st1" d="M17.1,19.3l0.6,0.3c0.1,0.7,0.1,1.4,0.1,2c-0.1,0.5-0.5,4.4-0.5,4.4l-0.5,4.4c0,0-0.1,2.1-0.1,2.2
			s0.1,2.5,0.1,2.5"/>
		<path class="st4" d="M17.7,9.4c0.2-0.2,0.4-0.3,0.7-0.4C18.8,9,19.2,9,19.6,9c0.2,0.3,0.3,0.5,0.4,0.9c0.1,0.5,0.2,1,0.2,1.5
			c0.1,0.4,0.1,0.9,0.3,1.3c0.1,0.5,0.3,0.9,0.5,1.3c0.1,0.2,0.5,2.4,0.5,2.5s0,2.4,0,2.4l-0.3,2.8L21,25.1c0,0-0.4,5.2-0.4,5.6
			s0,1.2,0,1.8v2.3l0.1,0.5"/>
		<path class="st2" d="M19.8,17.9c0.3,0,0.6-0.1,1-0.2c0.4-0.1,0.8-0.1,1.1-0.1H23"/>
		<path class="st5" d="M22.2,8.8c-0.4,0-0.7,0-1.1,0c-0.1,0-1,0.2-1,0.2l-0.7,0.4"/>
		<path class="st1" d="M19.5,9.9c0.4-0.1,0.8-0.2,1.2-0.2c0.4,0,0.7,0.1,1.1,0.2c0.1,0.1,0.9,1.2,0.9,1.3s1.1,2.5,1.1,2.5
			s0.7,1.6,0.8,1.7s0.3,1.2,0.3,1.4s0.3,0.9,0.3,1s0.1,1.8,0.1,1.8v0.5"/>
		<path class="st1" d="M19.7,10.4l1.9-0.1c0,0,2.1,0,2.2,0c0.4,0.1,0.8,0.2,1.2,0.4c0.1,0.1,0.8,0.6,0.9,0.9c0.2,0.5,0.4,1,0.5,1.5
			c0.1,0.4,0.2,0.7,0.3,1.1c0.2,0.3,0.4,0.6,0.5,1c0.2,0.4,0.3,0.8,0.5,1.2c0.1,0.5,0.3,0.9,0.6,1.4c0.1,0.3,0.2,0.6,0.3,0.8
			c0,0.1,0.1,1.3,0.1,1.3"/>
		<path class="st2" d="M21.2,18.2c0,0,0.9,0.3,1.5,0.5c1.1,0,2.2,0,3.2-0.1c0.1,0,3-0.5,3-0.5"/>
		<path class="st4" d="M26.3,18.1c0,0-0.3,2.5-0.3,2.9s-0.4,3.7-0.4,3.8s-0.4,3.5-0.4,3.9s-0.1,1.8-0.1,2.9c0,1.2-0.1,3.1-0.1,3.1
			v0.4"/>
		<polyline class="st5" points="25.5,8.4 26.8,8.4 27.8,8.2 		"/>
		<path class="st1" d="M26.4,9.2c0.4,0,0.8,0,1.2,0.2c0.4,0.2,0.7,0.6,0.9,1c0.1,0.2,0.5,2,0.6,2.4c0.2,0.8,0.3,1.7,0.4,2.5
			c0,0.3,0.1,3,0.1,3L29.5,24c0,0-0.4,5.9-0.4,6s-0.1,5-0.1,5"/>
		<path class="st6" d="M28.2,12.1c0.5,0,1.1,0.1,1.6,0.2c0.2,0.1,1.2,0.4,1.3,0.5s0.7,0.5,0.8,0.6c0.1,0.1,0.5,0.5,0.7,0.6
			s0.4,0.8,0.6,0.9c0.2,0.5,0.4,1,0.5,1.6c0,0.1,0.2,1.1,0.2,1.2s0.2,1.1,0.2,1.1l0.6,1.1l0.2,0.2"/>
		<path class="st1" d="M22.9,8.2c0.3-0.1,0.6-0.1,0.9,0c0.4,0.2,0.8,0.4,1.1,0.7c0.2,0.3,0.5,0.5,0.7,0.7c0.4,0.3,0.8,0.6,1.2,0.8
			c0.3,0.2,1.2,0.6,1.3,0.7c0.4,0.1,0.7,0.2,1.1,0.3c0.4,0.1,0.7,0.2,1,0.5c0.4,0.5,0.7,1,1,1.6l0.7,1.5l0.3,0.8l0.3,1l0.1,0.9
			c-0.1,0.4-0.1,0.9,0,1.3c0.1,0.3,0.3,0.3,0.3,0.5s-0.1,1.1,0,1.6c0.1,1.3,0.1,2.5,0,3.8c-0.1,0.1-0.3,3.7-0.3,3.9
			s-0.2,3.3-0.2,3.3l-0.1,2V35"/>
		<path class="st5" d="M31.6,8c0.2-0.1,0.5-0.2,0.7-0.1c0.5,0,0.8,0.1,1,0.1c0.2,0,0.4,0,0.6,0.1"/>
		<path class="st4" d="M31.2,9.5c0.3-0.1,0.7-0.1,1-0.1c0.3,0,0.5,0.1,0.7,0.3c0.1,0.2,0.3,0.3,0.5,0.4c0.4,0.4,0.7,0.8,1,1.2
			c0.3,0.4,0.6,0.5,0.7,0.7s0.5,1.1,0.7,1.5s0.8,1.3,0.8,1.4c0.3,0.4,0.5,0.8,0.7,1.2c0,0.2,0.2,2,0.2,2s-0.1,2.5-0.1,2.6
			s-0.3,4.5-0.3,4.5L37,28.7l-0.3,3L36.5,35"/>
		<path class="st2" d="M39.1,17.8c-0.2,0.1-1.8,0.4-2.2,0.4s-1.2,0.1-1.6,0.1c-0.4,0-0.8-0.1-1.2-0.1"/>
		<path class="st3" d="M36.2,8.8c0.2,0.2,0.4,0.4,0.6,0.7c0.1,0.2,0.1,0.2,0.3,0.5c0.2,0.2,0.2,0.4,0.3,0.7c0.1,0.3,0.2,0.6,0.4,0.6
			s0.4,0.3,0.6,0.3c0.2,0.1,0.4,0.2,0.6,0.4l0.4,0.4"/>
		<path class="st5" d="M36.9,8c0,0,1-0.1,1.1-0.1c0.3-0.1,0.7-0.1,1-0.2"/>
		<path class="st1" d="M35.7,8.5l1.2,0.2c0.4,0.3,0.8,0.5,1.2,0.7c0.5,0.2,0.9,0.5,1.2,0.9c0.2,0.4,0.5,0.7,0.8,1
			c0.2,0.2,0.4,0.4,0.5,0.6c0.2,0.2,0.6,0.4,0.8,0.7c0.3,0.4,0.5,0.9,0.6,1.4c0,0.2,0.2,1.3,0.2,1.4s0.2,2,0.2,2.1s0.1,1.6,0.1,1.6
			v2.1"/>
		<path class="st1" d="M35.8,6.9c0,0,1-0.1,1.2-0.1c0.3,0,0.7,0,1,0.1c0.3,0.1,0.7,0.2,1,0.4c0.3,0.2,0.5,0.4,0.8,0.6
			c0.3,0.3,0.7,0.4,0.9,0.6c0.2,0.2,0.5,0.4,0.8,0.6c0.3,0.2,0.7,0.3,1,0.4c0.4,0.1,0.8,0.2,1.2,0.4c0.3,0.1,0.7,0.1,0.8,0.3
			c0.3,0.3,0.6,0.7,0.8,1.1c0.1,0.3,0.1,0.5,0.3,0.8c0.2,0.3,0.3,0.7,0.4,1.1c0,0,0.2,1.3,0.2,1.7c0,0.3,0,0.6,0.1,0.9
			c0.1,0.4,0.2,0.7,0.2,1.1c0,0.1,0.1,1.2,0.1,1.4s0.2,1.4,0.2,1.4s0.1,1,0.1,1.1"/>
		<path class="st1" d="M41.3,18.9c0,0,0,2.5,0,2.6s-0.2,2.9-0.2,3.6S41,29.8,41,30s0,2.7,0,3s0.2,2.1,0.2,2.1"/>
		<path class="st7" d="M43.7,18.7c0.1,0,0.4-0.2,0.6-0.1c0.2,0.1,0.4,0.2,0.6,0.4c0.1,0.1,0.2,0.1,0.3,0.1"/>
		<path class="st1" d="M45.6,18.4c0,0-0.3,3.5-0.3,3.7s-0.2,4.1-0.2,4.1S45,30.6,45,30.9v4.2"/>
		<path class="st2" d="M51.9,17.4c-0.4,0.2-0.7,0.3-1.1,0.4c-0.1-0.1-0.5,0-0.7,0c-0.2,0-0.5,0-0.7,0.1c-0.2,0.1-0.1,0.2-0.5,0.1
			c-0.2,0-0.5,0-0.7,0h-0.8"/>
		<path class="st1" d="M49.1,18.3c0,0.1-0.3,1.7-0.3,2.1v2.3c0,0.2-0.2,3.9-0.2,4s-0.1,2.6-0.1,2.6s0,3.6,0,3.6s0.2,2.3,0.2,2.3"/>
		<path class="st1" d="M47.1,8.4c0,0,0.2,0.7,0.3,1s0,0.4,0.2,0.8c0.1,0.3,0.2,0.6,0.4,0.8c0.2,0.4,0.5,0.6,0.6,0.9s0.8,1.1,1,1.4
			c0.2,0.3,0.3,0.7,0.3,1.1c0.1,0.4,0.2,1.2,0.3,1.4s0.3,1,0.3,1.1s0.2,1.3,0.2,1.4c0,0.3,0,0.5,0,0.8c0,0.5,0,1-0.1,1.4
			c0,0.1-0.3,0.5-0.3,0.5"/>
		<path class="st1" d="M47.1,9.5c0,0,0.7-0.3,1-0.1c0.3,0.1,0.5,0.3,0.8,0.4c0.3,0.3,0.5,0.6,0.7,0.9c0.1,0.3,0.1,0.5,0.3,0.8
			c0.2,0.2,0.6,0.6,0.8,0.8s0.8,0.5,0.9,0.7s1.3,1.6,1.3,1.6c0.4,0.5,0.7,1.1,1.1,1.7c0,0.1,0.3,1.1,0.3,1.2s0.3,1.4,0.3,1.5
			s0,1.5,0,1.5"/>
		<path class="st2" d="M51.5,18.1c0.1,0.1,0.2,0.1,0.4,0.1c0.3,0,1.3-0.1,1.3-0.1l1.5-0.1"/>
		<path class="st4" d="M52.5,19.1c0,0-0.1,5-0.1,5.9s0,1.5,0,1.8c0,0.3,0,0.7,0,1c0,0.4,0,0.7,0,1.1c0,0.5,0,0.9,0,1.4
			c0,0.7,0,1.4,0,2.1c-0.1,0.5-0.1,0.9,0,1.4l0.1,1v0.6"/>
		<path class="st8" d="M43.7,7.2l1.6-0.2c0.3,0.1,0.6,0.1,0.9,0.1c0.3,0,0.7,0,1,0c0.2,0,0.3,0,0.5-0.1"/>
		<path class="st1" d="M44.8,7.5c0,0,2.5,0.2,2.7,0.1c0.7,0.1,1.3,0.2,2,0.3c0.2,0,1.9,0.8,1.9,0.8l3.2,2.1c0,0,1.8,1.9,1.9,2
			s1.7,2.7,1.7,2.8c0.3,0.4,0.6,0.8,0.8,1.2c0.1,0.4,0.1,0.9,0.1,1.3c0,0.2,0,0.5,0,0.7c0.1,0.3,0.2,0.6,0.2,0.9c0,0.3,0,0.6,0,1"/>
		<path class="st2" d="M60.2,18.1c-0.5,0-1.1,0-1.6-0.1c-0.2-0.1-0.4-0.2-0.6-0.2"/>
		<path class="st4" d="M55.8,19.7c0,0,0.2,0.9,0.2,1.1s-0.2,3.1-0.2,3.4s0,0.7,0,1.3c0.1,0.9,0.1,1.8,0,2.7c0,0.8,0,1.6,0,2.4
			c0,0.2,0,2.3,0,2.4c0,0.7,0,1.5,0,2.2"/>
		<path class="st4" d="M60.2,19.1c-0.1,0.6-0.1,1.2-0.1,1.7c0,0.3-0.2,2-0.2,2.5s0,1.9,0,2.2c0.1,0.8,0.1,1.5,0.1,2.3
			c0,0.2-0.2,2.2-0.1,2.5s0,1,0,1.2s0,0.7,0.1,1.2s0.1,1.1,0.2,1.3c0,0.4,0,0.7,0,1.1"/>
		<path class="st5" d="M50.7,7.2c0.2,0,0.3,0,0.5-0.1c0.2-0.1,0.4,0,0.5,0.1c0.3,0.1,0.3,0,0.5,0.1c0.3,0,0.5-0.1,0.8-0.2
			c0.2-0.1,0.4-0.1,0.5-0.1c0.1,0,0.5-0.2,0.5-0.2h0.5"/>
		<path class="st1" d="M52.9,7.8c0.2,0,0.4,0,0.6,0c0.3,0,0.5,0,0.8,0c0.4,0,1.3,0,1.4,0c0.2,0,0.5,0,0.7,0c0.1,0,0.7,0.5,0.8,0.6
			c0.3,0.2,0.5,0.4,0.7,0.6c0,0.1,0.3,0.6,0.3,0.7c0.2,0.3,0.4,0.6,0.6,0.9c0.2,0.3,1,0.7,1.1,0.8c0.3,0.3,0.6,0.7,0.9,1.1
			c0.2,0.3,0.3,0.6,0.4,1c0.1,0.3,0.2,0.6,0.4,0.9c0.1,0.2,0.7,0.9,0.7,1.1c0.2,0.5,0.3,1,0.4,1.5c0,0.2,0.3,1,0.3,1.3
			c0.1,0.3,0.1,0.7,0.2,1c0,0.1-0.1,0.7-0.1,0.7"/>
		<path class="st2" d="M61.6,17.8c0.3,0,0.6,0,0.8,0c0.5,0.1,1.1,0,1.6-0.2c0.3-0.2,0.6-0.3,1-0.3h0.7"/>
		<path class="st1" d="M64.2,17.1c0,0,0.4,0.5,0.4,0.7s0,0.8,0,1.2v1.4c0,0.2,0.1,0.5,0,0.6s-0.1,0.6-0.2,0.9s-0.2,3.4-0.2,3.4
			S64,28.5,64,28.6s0,1.3,0,1.3l-0.1,1.8l0.1,1.7V35"/>
		<path class="st3" d="M62.8,10.3c0.1,0.1,0.4,0.3,0.6,0.5c0.2,0.1,0.3,0.3,0.4,0.6c0.1,0.3,0.1,0.5,0.1,0.8c0,0.2-0.2,0.6,0,0.9
			c0.2,0.2,0.3,0.5,0.3,0.8c0,0.3,0,0.6,0.1,0.9c0.1,0.2,0.4,1.2,0.4,1.3c0.1,0.2,0.1,0.5,0.2,0.7"/>
		<path class="st1" d="M56.8,7c0.2-0.1,0.4-0.2,0.6-0.3C57.5,6.7,58,7,58.3,7s0.5,0.1,0.7,0.1c0.3,0,0.5,0.1,0.8,0.2
			c0.2,0.1,1.1,0.8,1.3,0.9c0.4,0.2,0.7,0.4,1.1,0.6c0.1,0,0.3,0.2,0.8,0.5c0.4,0.2,0.8,0.3,1.2,0.4c0.4,0.2,0.8,0.5,1,0.9
			c0.1,0.3,0.8,1.7,0.8,1.8s0.5,1.1,0.6,1.4s0.4,1.4,0.6,1.7c0.1,0.4,0.2,0.8,0.3,1.2c0,0.2,0.2,1.5,0.2,1.5"/>
		<path class="st1" d="M67.2,18.1c0,0,0.5,0.3,0.5,0.5s0.1,1.1,0.1,1.3S68,22,68,22.2s0.1,3.9,0.1,3.9l0.2,2.8l0.2,3.3
			c0,0,0.3,2.1,0.3,2.2V35"/>
		<path class="st5" d="M62.8,6.1C63,6,63.2,5.9,63.4,5.8c0.3-0.1,0.5-0.1,0.8-0.1c0.1,0,0.5,0.3,0.5,0.3"/>
		<path class="st5" d="M63.9,6.6c0,0,0,0.2,0.5,0.1c0.3,0,0.6-0.1,0.9-0.3c0.2,0,0.6-0.2,0.8-0.2h1.1"/>
		<path class="st9" d="M64.2,7.4c0.2,0.1,0.4,0.1,0.6,0.1c0.3-0.1,0.7-0.2,1-0.4c0.1,0,0.9-0.2,0.9-0.2l0.9,0.3l0.8,0.5"/>
		<path class="st1" d="M65.4,7.5c0.1,0,0.8,0.4,1,0.5c0.2,0.1,0.2,0.4,0.4,0.7s0.3,0.4,0.5,0.6s0.1,0.4,0.5,0.6s0.8,0.4,0.8,0.5
			s1,0.8,1.1,1c0.3,0.7,0.5,1.4,0.7,2.1c0,0.3,0.3,2.9,0.3,2.9L71,20l0.2,5.5c0,0,0.2,4.4,0.2,5s0.3,1.6,0.3,2.1s0.2,2,0.2,2.1v0.5"
			/>
		<path class="st1" d="M63.6,8.2c0.2,0,0.5,0,0.7,0c0.2-0.1,0.5-0.1,0.7,0c0.2,0,0.5,0.1,0.7,0.2c0.2,0.1,0.4,0.2,0.7,0.2l0.6-0.2"
			/>
		<path class="st1" d="M67.4,5.4c0.5,0,0.9,0,1.3,0.1c0.3,0.2,1,1,1.5,1.3c0.6,0.4,1.2,0.9,1.7,1.4c0.3,0.5,0.7,0.9,1.1,1.4
			c0.3,0.4,0.5,0.8,0.7,1.3c0.1,0.2,0.5,1.6,0.6,2c0.1,0.4,0.3,0.8,0.6,1.1c0.3,0.4,0.4,0.8,0.5,1.3c0.1,0.3,0.2,0.5,0.3,0.7
			c0,0.3-0.1,0.5-0.1,0.8c0,0.3,0.4,0.8,0.4,1.1v1.5L76,20.8"/>
		<path class="st1" d="M70.6,6.4c0.3,0.3,0.6,0.7,0.9,1.1c0.2,0.3,0.4,0.6,0.7,0.9"/>
		<path class="st2" d="M73,17.4c0.4,0,0.7,0,1.1,0c0.1,0,0.4,0,0.7-0.1s0.4-0.1,0.8-0.2c0.3-0.1,0.7-0.1,1-0.2
			c0.2,0,0.3,0.1,0.5,0.2"/>
		<path class="st1" d="M74.3,18.8c0,0,0.3,0.1,0.3,1s-0.1,2.3-0.1,2.9s0,3.6,0,3.6v2.5c0,0,0.2,2.6,0.1,2.9s0,3.4,0,3.4"/>
		<path class="st4" d="M78.1,17.4c-0.2,0.7-0.3,1.4-0.2,2.1v4.7c0,0.1,0,5,0,5.1s0,3.2,0,3.4S78,35,78,35"/>
		<path class="st1" d="M72.8,6.1c0.6,0.1,1.2,0.3,1.8,0.5c0.2,0.2,0.9,1.2,1.1,1.5s1.3,2,1.3,2.1c0.3,0.5,0.6,1,0.8,1.5
			c0.1,0.4,0.4,1,0.5,1.4s0.4,1.2,0.4,1.2c0,0.4,0.1,0.8,0.2,1.3c0.1,0.4,0.3,0.9,0.5,1.3c0.2,0.3,0.2,0.7,0.1,1
			c-0.1,0.5-0.1,0.9-0.1,1.4"/>
		<path class="st1" d="M73.6,6.7c0,0,1.5-0.3,1.8-0.3s1.7,0.1,1.8,0.1c0.4,0.2,0.8,0.3,1.1,0.6c0.2,0.1,1.1,0.8,1.2,1
			c0.1,0.2,0,0.6,0.3,0.9s0.3,0.6,0.7,0.8s1.4,2.1,1.4,2.1l0.7,1.9c0.2,0.4,0.4,0.8,0.5,1.3c0,0.1,0.1,1.5,0.1,1.5v0.3"/>
		<path class="st5" d="M73.2,6.3c0.3-0.2,0.6-0.4,1-0.5c0.3-0.1,1.4-0.1,1.5-0.1s1,0,1.1,0c0.2,0,0.4,0,0.5,0"/>
		<path class="st1" d="M71.6,5.2c0.3-0.1,0.5-0.2,0.8-0.3h1c0.3,0.1,0.5,0.2,0.8,0.3c0.2,0.1,0.4,0.2,0.6,0.4
			C74.9,5.8,75,6,75.1,6.2"/>
		<path class="st1" d="M72.7,5.3c0.1,0,1.1-0.6,1.3-0.7s0.8-0.2,0.9-0.1c0.2,0.2,0.4,0.4,0.6,0.6c0.1,0.1,0.3,0.6,0.3,0.6"/>
		<path class="st1" d="M80.7,18c0.2,0,0.7,0.1,0.6,0.4C81,19.1,81,19.9,81,20.6c0,1-0.2,4.8-0.2,4.8s-0.2,6.4-0.2,6.6
			c0,0.2,0.1,0.8,0.1,1.2s0,1.9,0,1.9"/>
		<path class="st1" d="M88,16.6c0.1,0.6,0.1,1.3,0,1.9c0,0.5,0,0.9,0,1.4c-0.1,0.6-0.3,5.3-0.3,5.3v2.9c0,0,0.1,3.3,0.1,3.5
			s0.2,2,0.3,2.1s0.1,0.7,0.3,1c0.1,0.1,0.3,0.2,0.4,0.3"/>
		<path class="st2" d="M83,17.3c0,0,0.5-0.1,0.8-0.2s0.3,0.1,0.8,0.1s1.4-0.3,1.8-0.3s0.8,0,1,0c0.3,0,0.7,0,1.1,0"/>
		<path class="st4" d="M76.1,4.5c0.2-0.1,0.5-0.1,0.7-0.2c0.4,0.1,0.7,0.1,1.1,0.1c0.3-0.1,0.7,0,1,0.1c0.2,0.1,0.6,0.2,0.7,0.3
			s0.4,0.8,0.4,0.8V6"/>
		<path class="st1" d="M77.2,3.8l0.6-0.3c0,0,0.5,0.1,0.5,0c0.2,0,0.4,0,0.6,0c0,0,0.4,0,0.4,0.2c0.1,0.2,0.3,0.4,0.5,0.5
			c0.2,0.2,0.4,0.4,0.5,0.6c0.1,0.2,0.3,0.5,0.5,0.7l0.8,0.6"/>
		<path class="st1" d="M75.8,7.4c0.1,0,1.4-0.3,1.5-0.3s2.1,0.1,2.1,0c0.6,0,1.2,0,1.8,0.1c0.4,0.2,0.8,0.5,1.1,0.9
			C82.5,8.4,84,10,84,10c0.3,0.4,0.6,0.8,0.8,1.3c0.4,0.6,0.7,1.3,1,2c0.1,0.5,0.3,1.1,0.3,1.2s0.4,1.7,0.4,1.9s0.2,1.6,0.2,1.6"/>
		<path class="st4" d="M83.6,16.7c0,0-0.4,2.4-0.4,2.9s-0.1,3.2-0.1,3.2s-0.2,3.3-0.1,3.7s0.1,1.2,0.1,1.4s0,0.8,0,1.2s0,1,0,1.5V33
			c0,0.1-0.1,1.2,0,1.4l0.2,0.7"/>
		<path class="st4" d="M85.7,16.4c0,0-0.2,1.7-0.2,2s0,0.6,0,1.5c0.1,0.6,0.1,1.2,0,1.8c-0.2,0.6-0.2,3.7-0.2,3.8s-0.1,3.1-0.1,3.1
			s0,2.7,0,2.8s0.1,2.3,0,2.4c-0.1,0.4-0.2,0.8-0.2,1.2"/>
		<path class="st4" d="M78.1,7c0,0,1.2-0.4,1.4-0.5c0.6-0.1,1.3-0.2,1.9-0.3c0.5,0,1,0,1.5,0.2c0.5,0.3,1,0.6,1.5,1
			c0.4,0.5,0.8,0.9,1.2,1.2c0.2,0.1,0.7,0.7,1.1,0.9c0.5,0.2,1.1,0.4,1.6,0.7c0.2,0.1,1.2,0.8,1.3,0.9c0.2,0.3,0.3,0.6,0.4,0.9
			c0.1,0.6,0.2,1.2,0.2,1.9c0,0.3,0.1,1.6,0.1,1.9c0.1,0.3,0.2,0.7,0.3,0.9c0.1,0.7,0.2,1.3,0.2,2c0,0.2-0.1,2.5-0.1,2.5v5.1
			l0.2,6.3c0,0.3,0,0.6,0,0.9c0,0.4,0.1,0.4,0,0.7s0.1,0.4,0,0.6c0,0.2-0.1,0.3-0.2,0.5"/>
		<path class="st9" d="M90.3,19.4c0,0,0.8,0.3,0.8,0.5s0,0.3,0.1,0.5s0.3,0.1,0.3,0.3l0.1,0.2"/>
		<path class="st9" d="M89.5,14.2c0.3-0.1,0.5-0.1,0.8-0.1c0.2,0,0.5,0.1,0.7,0.2c0.2,0.1,0.3,0.2,0.5,0.3c0.1,0.2,0.3,0.3,0.3,0.6
			c0,0.1,0.1,0.5,0.1,0.5"/>
		<path class="st1" d="M79.4,7c0,0.1,1.6-0.4,1.9-0.4L85,6.7c0.5,0,1.1,0.1,1.6,0.3c0.2,0.1,0.8,0.4,0.9,0.6
			c0.3,0.2,0.6,0.4,0.9,0.5c0.2,0.1,0.5,0.5,0.7,0.6c0.3,0.1,0.6,0.2,0.8,0.4c0.1,0.1,0.5,0.2,0.7,0.3c0.3,0.2,0.7,0.4,0.9,0.7
			l0.7,0.8c0,0.3,0.1,0.5,0.2,0.8c0.1,0.3,0.4,0.8,0.4,0.9s0.4,0.7,0.4,0.8c0,0.4,0,0.8,0.1,1.2l0.2,1.5c0,0,0.2,0.7,0.2,0.8
			c0,0.3,0,0.7,0,1c0,0.3-0.1,0.7-0.2,1c-0.1,0.3-0.2,0.6-0.3,0.9c-0.1,0.1-0.2,0.3-0.2,0.4"/>
		<path class="st1" d="M81.9,3.6c0.2,0,0.4-0.1,0.5-0.2c0.2-0.1,0.4-0.1,0.6-0.2c0.2,0,0.6,0,0.6,0.2s0.2,0.8,0.2,0.8
			s0.1,0.9,0.1,0.9"/>
		<path class="st1" d="M82.7,2.3c0.1,0,0.5,0.2,0.7,0.2c0.2,0.1,0.4,0.2,0.6,0.3c0.2,0.1,0.5,0.2,0.5,0.4s0.3,0.6,0.4,0.7
			s0.4,0.6,0.4,0.6c0,0.3,0,0.5,0,0.8"/>
		<path class="st4" d="M94.6,18.5c0,0-0.2,1.2-0.2,1.6s-0.1,1.7-0.1,2s-0.1,2.4-0.2,2.9s0.1,2.6,0,3.5s0,5.1,0,5.1v1.6"/>
		<path class="st1" d="M83.3,6.2c0.4-0.2,0.8-0.4,1.2-0.5c0,0,2-0.3,2.5-0.4s2,0.4,2.2,0.4c0.7,0.3,1.4,0.6,2.1,1
			c0,0,1.8,1.6,1.8,1.6s1.1,0.9,1.2,1s0.7,0.5,0.9,0.6c0.3,0.4,0.6,0.8,0.9,1.2c0.1,0.2,0.7,1,0.8,1.2s0.5,1.5,0.7,1.7
			c0.2,0.4,0.3,0.9,0.3,1.4v1.2c0,0.4,0,0.9-0.2,1.3c-0.2,0.3-0.3,0.5-0.3,0.5"/>
		<path class="st2" d="M94.9,17c0.2,0.1,0.4,0.1,0.6,0.2c0.3,0.1,0.6,0.1,0.9,0.1c0.4-0.1,0.8-0.2,1.2-0.3c0.5,0,0.9,0,1.4,0
			c0.4,0,0.9,0,1.3,0"/>
		<path class="st1" d="M98.3,17.3c0,0-0.1,1-0.2,1.6s0,5.2,0,5.3s0,4.3,0,4.8s0.1,1,0.1,1.4s0,2,0,2.1s0.2,1.2,0.2,1.3
			c0,0.2,0,0.4,0,0.5c0,0.2,0,0.5,0,0.7"/>
		<polyline class="st5" points="82.5,5.2 84.5,5.2 87.3,5.3 		"/>
		<path class="st4" d="M86.6,2.7c0,0,0.5,0.1,0.5,0.2s0,0.3,0.2,0.3c0.1,0,0.3,0.1,0.4,0.2c0.1,0.1,0.2,0.3,0.3,0.4v0.3"/>
		<path class="st4" d="M87.7,2.1C87.9,2,88.2,2,88.4,1.9c0.3,0,0.6,0.1,0.8,0.1c0.2,0.1,0.5,0.2,0.7,0.4c0.2,0.2,0.4,0.4,0.5,0.6
			c0.1,0.2,0.6,0.9,0.6,0.9"/>
		<path class="st1" d="M86.6,6.8c0.3-0.1,0.5-0.2,0.8-0.4C87.5,6.2,87.7,6,88,5.9c0.3-0.1,1-0.6,1.3-0.7s0.7-0.5,0.9-0.6
			s0.4-0.3,0.6-0.3c0.2-0.1,0.4-0.1,0.7-0.1c0.2,0.1,0.4,0.2,0.5,0.3"/>
		<path class="st1" d="M92.1,4.2c0.2-0.1,0.5-0.1,0.7-0.1c0.3,0,0.6,0.1,0.9,0.3C93.7,4.5,93.8,5,94,5.1s0.4,0,0.6,0.4
			c0.2,0.3,0.4,0.6,0.7,0.7c0.2,0.1,1,0.4,1,0.4s1,0.5,1.2,0.7c0.4,0.4,0.7,0.8,1,1.3c0.2,0.5,0.4,1,0.6,1.5c0,0.4,0.1,0.8,0.4,1.1
			c0.4,0.6,0.8,1,0.8,1.1s0.2,1.4,0.2,1.9s-0.1,1.9,0,2.1c0.1,0.7,0.2,1.4,0.2,2.1c-0.1,0.2-0.2,0.5-0.2,0.8"/>
		<path class="st4" d="M100.2,18.4c0.4,0,0.7,0,1.1,0.1c0.3,0.1,0.5,0,0.5,0.9v10.8l0.1,4.9"/>
		<path class="st1" d="M90.7,6.8c0,0,1.4-0.7,1.5-0.7s0.9-0.5,1-0.5s1.6-0.3,2.1-0.3c0.8,0,1.5,0.1,2.3,0.3c0.6,0.5,1.1,1.1,1.6,1.7
			c0.2,0.3,0.5,0.8,0.7,1c0.3,0.2,0.6,0.4,0.8,0.6c0.2,0.3,0.4,0.6,0.7,0.8c0.6,0.4,1,0.9,1.3,1.5c0.1,0.4,0.6,1.8,0.6,2
			s0.1,1.1,0.1,1.3s0.1,0.4,0.1,0.7c0.1,0.3,0.1,0.7,0.2,1c0.1,0.3,0.1,0.6,0.2,0.9c0,0.2-0.1,1-0.1,1"/>
		<path class="st1" d="M93.8,5.3c0,0,1.4-0.3,1.6-0.3c0.5-0.1,1-0.1,1.5,0c0.2,0.1,0.7,0.1,1,0.3c0.3,0,0.7,0.1,1,0.3
			c0.2,0.2,0.9,0.7,1,0.9c0.2,0.5,0.4,0.9,0.7,1.3c0.2,0.3,0.6,0.4,0.8,0.6c0.3,0.2,0.6,0.4,1,0.6c0.4,0.3,0.7,0.6,1,0.9
			c0.2,0.3,0.5,0.6,0.7,0.9c0.3,0.3,0.4,0.6,0.5,0.9c0,0.2,0.5,1,0.5,1l0.5,0.8l0.6,0.7c0.2,0.2,0.3,0.4,0.4,0.6
			c0.1,0.3,0.6,0.9,0.7,1c0.2,0.2,0.4,0.3,0.6,0.5l0.6,0.3"/>
		<path class="st2" d="M104.4,17.3h1c0.4-0.1,0.9-0.2,1.3-0.4c0.4-0.1,0.8-0.1,1.3-0.2c0.3,0,1.3,0,1.3,0"/>
		<path class="st1" d="M105.2,16.9c0.1,0.5,0.2,1,0.2,1.5c0,0.6,0,2.3,0,2.9s-0.1,2-0.1,2.8s-0.1,3-0.1,3.4s-0.2,2.7-0.2,3
			c0,0.6,0,1.2,0,1.9c-0.1,0.6-0.1,1.2,0,1.8c0,0.2,0.2,1.1,0.2,1.1"/>
		<path class="st1" d="M107.2,16.4c0,0,1,0.5,1,0.7c0.1,0.6,0.2,1.1,0.2,1.7c-0.1,0.1-0.1,0.3-0.1,0.5c0,0,0.1-0.1,0.1,0.8
			s0,4.4,0.1,4.7s0,1.5,0,1.8s0.1,0.8,0.1,1.1s0,0.9,0,1s0.1,0.8,0.1,1v2.1c0,0.9,0,1.8,0.1,2.7c0.1,0.2,0.2,0.4,0.2,0.7"/>
		<path class="st4" d="M93.8,1.9c0.3-0.1,0.6-0.1,0.8-0.2c0.3,0,1.4,0.2,1.4,0.2l0.7,0.4c0.2,0,0.4,0,0.5,0.2
			c0.1,0.2,0.4,0.6,0.4,0.6"/>
		<path class="st4" d="M96.2,3.9c0,0,0.7,0.1,0.8,0.2c0.3,0.1,0.5,0.2,0.7,0.3c0.3,0.2,0.6,0.3,0.9,0.4C99,4.9,99.3,5,99.5,5.3
			c0.1,0.2,1,0.7,1,0.7c0.2,0.1,0.3,0.2,0.5,0.2c0.2,0.1,0.4,0.2,0.5,0.3c0.4,0.2,0.8,0.3,1.2,0.4c0.4,0.1,1,0.3,1.4,0.5
			c0.6,0.3,1,0.7,1.4,1.2c0.2,0.5,0.5,0.9,0.8,1.4c0.3,0.2,0.5,0.5,0.7,0.8c0.2,0.3,0.2,0.6,0.3,0.9s0.9,1.2,1,1.3
			c0.2,0.2,0.5,0.3,0.7,0.5c0.3,0.4,0.6,0.8,0.9,1.2c0.1,0.1,0.5,1.5,0.6,1.6s0.6,1.1,0.6,1.1s0.3,1.3,0.3,1.3s0.1,0.5,0.1,0.5"/>
		<path class="st1" d="M111.8,17.5c0,0-0.1,2.5-0.1,3.2s-0.3,3.2-0.2,4.5s0,2.1,0,3.3s0.2,3,0.1,3.8c0,0.5,0,0.9,0,1.4
			c0,0.3,0.1,0.7,0.1,1c0,0.1,0,0.3,0,0.4"/>
		<path class="st5" d="M98.1,3.9c0.1-0.1,0.6-0.2,0.9-0.3c0.4-0.1,0.8-0.1,1.2-0.1c0.3-0.1,0.6-0.1,0.9-0.1h1"/>
		<path class="st4" d="M99.2,1.8c0,0,0.3-0.3,0.4-0.3s1-0.2,1.2-0.2c0.2,0,0.5,0.1,0.7,0.2c0.1,0.1,0.3,0.2,0.4,0.3
			c0.1,0.1,0.3,0.3,0.5,0.3c0.2,0,0.4,0.1,0.6,0.3c0.1,0.2,0.3,0.5,0.4,0.7c0.1,0.2,0.2,0.4,0.3,0.6l0.3,0.7"/>
		<path class="st4" d="M100.8,4.4c0.7,0.1,1.3,0.2,2,0.2c0.4,0,0.8,0.1,1.2,0.2c0.7,0.2,1.3,0.3,2,0.4c0.6,0,1.3,0.2,1.9,0.4
			c0.6,0.3,1.1,0.6,1.5,1.1c0.3,0.5,0.7,1,1.1,1.5c0.3,0.1,0.6,0.4,0.8,0.6c0.3,0.4,0.5,0.8,0.7,1.2c0.1,0.4,0.3,0.4,0.4,0.9
			s0.3,0.6,0.3,1c0,0.4,0,0.8,0.1,1.2c0.1,0.1,0.4,1.2,0.5,1.5c0.1,0.4,0.2,0.8,0.4,1.2c0.1,0.2,0.6,1.2,0.7,1.3
			c0.2,0.3,0.3,0.6,0.3,0.9c0,0.4,0.1,0.7,0.2,1.1"/>
		<path class="st4" d="M114.8,17c0,0-0.3,2.6-0.3,3.1s0,4.1,0,4.3s-0.1,2.7,0,3.3s-0.1,2.9,0,3.5s0.1,1.2,0.1,1.5s-0.1,0.7,0,0.9
			c0.1,0.4,0.1,0.8,0.2,1.2l-0.2,0.3"/>
		<path class="st5" d="M105.9,3.4c0.3,0,0.5,0,0.8,0.1c0.2,0,0.4-0.1,0.6-0.2c0.1,0,0.3,0,0.7,0s1.2-0.2,1.2-0.1s0.7,0,0.7,0"/>
		<path class="st4" d="M105.8,1.1c0.4-0.1,0.7-0.1,1.1-0.1c0.3,0.1,0.7,0.3,0.9,0.5c0.2,0.2,0.3,0.5,0.5,0.6
			c0.2,0.1,0.4,0.3,0.6,0.5c0.1,0.1,0.5,0.8,0.5,0.8l0.1,0.3"/>
		<path class="st4" d="M105.8,3.9c0,0,1.3,0.2,1.4,0.2c0.3,0,0.6,0,0.9,0.1c0.3,0,0.5,0.1,0.8,0.2c0.3,0.1,0.7,0.2,1,0.3
			c0.4,0.1,0.7,0.3,1,0.5c0.2,0.2,0.4,0.3,0.7,0.3c0.3,0,0.6,0.2,0.9,0.2s1.3,1.1,1.3,1.1l1.1,2.1c0.2,0.4,0.4,0.8,0.7,1.1
			c0.4,0.5,0.6,1,0.8,1.6c0.4,0.7,0.7,1.4,0.9,2.2c0,0.5,0.3,2.3,0.3,2.6s0.1,1.5,0.1,1.7c0,0.2,0.1,0.5,0.1,0.7"/>
		<path class="st1" d="M114.8,9.2c0.2-0.1,0.4-0.1,0.6-0.2h0.6c0,0,0.4,0.1,0.5,0.2c0.1,0.2,0.2,0.3,0.3,0.4
			c0.1,0.1,0.4,0.1,0.5,0.2c0.2,0.1,0.4,0.3,0.6,0.4c0.2,0.3,0.4,0.5,0.6,0.8c0.1,0.2,0.3,0.3,0.4,0.5s0.3,0.4,0.3,0.5
			c0.1,0.2,0.1,0.5,0,0.7c-0.1,0.3-0.2,0.4-0.1,0.6s0.3,0.5,0.4,0.7c0.1,0.2,0.1,0.3,0.1,0.5c0,0.2-0.1,0.4-0.2,0.6"/>
		<path class="st2" d="M115.3,17c0,0,0.5,0,1,0s1.7,0,2.2,0s1.6-0.1,1.6-0.1"/>
		<path class="st4" d="M118.4,18.5c0,0.3,0.1,1.8,0.1,2.5s0,0.5,0,1.1s0,0.5,0,1.3s-0.3,2.1-0.3,2.6s0,2.5,0,2.7s0.1,3.1,0,3.6
			s0.1,1.5,0,1.7c0,0.3,0,0.6,0,0.9"/>
		<path class="st4" d="M107.7,2l1.4-0.1c0.5,0,1,0,1.4,0c0.1-0.1,0.9,0.3,1.2,0.3s0.8,0.4,1,0.5c0.3,0.2,0.6,0.4,0.8,0.7
			c0.4,0.4,0.9,0.8,1.4,1.1c0.4,0.2,0.5,0.6,1,0.6c0.5,0.1,0.9,0.3,1.3,0.5c0.5,0.3,0.9,0.7,1.3,1.1c0,0.2,1.3,2.1,1.3,2.3
			s0.8,1.7,0.8,2.1c0.1,0.7,0.3,1.4,0.5,2.1c0.1,0.2,0.2,0.4,0.3,0.7c0.2,0.3,0.3,0.7,0.3,1.1c0,0.3,0.1,0.6,0.2,0.9
			c0.1,0.3,0.1,0.6,0.2,0.9c0,0.2,0.1,0.4,0.2,0.5c0.1,0.1,0.1,0.6,0.1,0.6"/>
		<path class="st1" d="M119,8c0,0,1,0.3,1.3,0.4s0.8,0.4,1.1,0.4c0.2,0,0.5,0.1,0.7,0.2c0.2,0.2,0.6,0.5,0.8,0.6
			c0.2,0.2,0.4,0.5,0.5,0.9c0.1,0.6,0.2,1.2,0.2,1.8c0,0.4,0.2,1.1,0.1,1.2c0,0.2,0.1,0.5,0.1,0.7"/>
		<path class="st5" d="M112.9,3.1l0.7-0.3c0.2-0.1,0.4-0.2,0.6-0.2h1"/>
		<path class="st1" d="M121.3,17.9c0,0,0.4,0.1,0.5,0.5s0.2,1.9,0.2,2.5v6.7c0,0-0.1,3.2,0,3.6s0,1.9,0,2.1s0,1.1,0,1.2v0.8"/>
		<path class="st4" d="M112.9,0.8c0.1,0,1-0.4,1.1-0.4s0.7-0.1,1-0.1c0.3,0,0.6,0,0.8,0.1c0.2,0.1,0.6,0.3,0.6,0.4s0.3,0.6,0.3,0.8
			s0.1,0.1,0.2,0.4c0,0.2,0,0.4,0,0.7c-0.1,0.3-0.2,0.9-0.2,0.9"/>
		<path class="st1" d="M116.2,3.5c0,0,1.4,0,1.5-0.1c0.4-0.1,0.8-0.1,1.3-0.1c0.2,0.1,0.7,0.3,1,0.3c0.3,0.1,0.6,0.1,0.9,0.3
			c0.4,0.2,0.7,0.4,1,0.8c0.1,0.1,2.2,2,2.2,2c0.1,0.2,0.2,0.3,0.3,0.5c0.1,0.3,0.2,0.5,0.3,0.7c0.3,0.2,0.5,0.4,0.8,0.7
			c0.2,0.3,0.8,1.3,1.1,1.6c0.3,0.3,0.4,0.6,0.5,1c0.1,0.4,0.2,0.9,0.2,1.3c0.1,0.6,0.1,1.1,0,1.7c-0.1,0.1-0.2,0.3-0.2,0.4
			l-0.1,0.2"/>
		<path class="st10" d="M124.8,15c0.2-0.2,0.4-0.3,0.6-0.5l0.8-0.2c0.2,0,0.4,0,0.7,0"/>
		<path class="st1" d="M121,1c0,0,0.8,0.9,1,1.1c0.4,0.4,0.7,0.9,1,1.4c0.2,0.4,0.1,0.2,0.3,0.8s0.4,0.3,0.5,0.9
			c0.1,0.4,0.3,0.8,0.4,1.2c0,0.2,0.3,2,0.3,2.3c0.1,0.3,0.2,0.6,0.3,0.8c0.1,0.3,0.2,0.5,0.3,0.8c0,0.1,0.1-0.1,0.1,0.4
			s0,0.8,0.1,1.1s0.3,0.7,0.4,1.1c0.1,0.4,0.1,0.8,0.1,1.3c0,0.3,0.1,1,0.1,1.1s0.2,1.8,0.2,1.8"/>
		<path class="st5" d="M119.8,2.2c0.2-0.1,0.4-0.1,0.6-0.1c0.2,0,0.4,0,0.6,0c0.1,0,0.2,0,0.5,0.1c0.4,0,0.8,0,1.2,0h0.4"/>
		<path class="st1" d="M126.3,6.1l-0.8-0.6c-0.2-0.1-0.9-0.6-1-0.6s-1.2-0.3-1.2-0.3"/>
		<path class="st2" d="M123.6,17c0.3,0,0.5,0.1,0.8,0.1c0.1,0,0.6,0.3,0.8,0.3c0.5,0.1,1,0.1,1.4,0.1c0.4,0,1.7-0.2,1.8-0.2
			s1.3,0,1.5,0h0.7l-0.4-0.4"/>
		<path class="st4" d="M125.5,18.1c0.2,0.4,0.2,0.8,0.2,1.2c-0.1,0.6-0.3,3.3-0.3,3.8s-0.3,5.2-0.3,5.4v2.2l0.2,0.7
			c0,0.1,0-0.2,0,0.8c0,0.6,0,1.2,0.2,1.7c0,0.4,0,0.7,0,1.1"/>
		<path class="st1" d="M127.9,17c0,0,0.5,0.2,0.6,0.5c0.1,0.6,0.2,1.2,0.2,1.8v2.9c0,0.6,0.1,3.1,0.1,3.6c-0.1,0.4-0.1,0.8,0,1.3
			c0.1,0.6,0.1,1.1,0.1,1.7c0,0.5-0.2,2.1-0.2,2.5s0.1,1.7,0.1,2v1.2c0,0.2,0.1,0.4,0.2,0.7"/>
		<path class="st4" d="M128.7,14.3c0,0,0.3-0.1,0.3-0.3s0.2-0.4,0.3-0.4c0.1,0,0.2,0,0.4,0c0.2,0,0.3,0.2,0.3,0.3v0.6
			c0,0.2,0.1,0.5,0,0.7c-0.1,0.2-0.1,0.5-0.2,0.7c-0.1,0.2-0.2,0.3-0.3,0.4"/>
		<path class="st1" d="M122.2,1h1c0.4,0,0.8,0,1.2,0.1c0.4,0.2,0.8,0.4,1.2,0.6c0.2,0.3,0.4,0.7,0.6,1c0.2,0.5,0.4,1.1,0.5,1.7
			c0.1,0.8,0.4,1.5,0.7,2.3c0.4,0.7,0.7,1.5,0.9,2.3c0.1,0.6,0.5,1.8,0.6,2.1s0.6,1.6,0.6,1.6"/>
		<line class="st1" x1="127.6" y1="12" x2="128.6" y2="11.6"/>
		<path class="st1" d="M124.3,1.6c0.4,0.4,0.9,0.8,1.5,1c0.4,0.1,0.8,0.3,1.1,0.5c0.4,0.7,0.7,1.5,0.8,2.3c0,0.5,0.3,2.4,0.3,2.4"/>
		<path class="st5" d="M132.4,1.9c-0.5-0.1-1.1-0.2-1.6-0.1c-0.8,0.1-1.6,0.1-2.5,0.1c-0.8,0-1.8,0-2.3,0.1c-0.4,0.1-1.3,0-1.3,0"/>
		<path class="st4" d="M129,5.6c0,0,0.4-0.4,0.3-0.5c0-0.3,0-0.5,0-0.8c0,0,0.2,0,0.2,0.2c0,0.3,0,0.7,0.1,1c0.1,0.4,0,0.5,0.3,0.9
			s0.4,0.7,0.7,1.1s0.5,0.6,0.7,0.8c0.2,0.4,0.3,0.9,0.3,1.4c0.1,0.8,0.1,1.6,0,2.5c-0.1,0.7-0.1,1.4-0.1,2.1l-0.1,0.2"/>
		<path class="st11" d="M131.2,19.2c0,1.3-0.2,2.5-0.4,3.8c-0.3,1.5-0.5,3.1-0.6,4.6c0,0.1-0.2,3.2-0.3,3.5s-0.1,1.2-0.1,1.3
			s-0.1,1-0.1,1"/>
		<path class="st2" d="M136.4,16.9c0.3,0,0.5,0,0.8,0.1c0.4,0,0.9,0,1.3-0.1c0.2-0.1,0.4-0.1,0.6-0.1"/>
		<path class="st2" d="M148.5,16.3c0.3,0.2,0.5,0.2,0.8,0.3c0.4,0,0.9-0.1,1.3,0c0.6,0.1,1.2,0.2,1.9,0.2c0.3-0.1,0.7-0.2,1-0.2"/>
		<path class="st0" d="M126.6,3.3c0,0,0.1,0.8,0.3,0.9c0.2,0.2,0.3,0.5,0.4,0.8v0.9l0.3,0.9"/>
	</g>
</g>
</svg>
