<?xml version="1.0" encoding="utf-8"?>

<svg version="1.1" id="" xmlns="http://www.w3.org/2000/svg" xmlns:xlink="http://www.w3.org/1999/xlink"
	 x="0px" y="0px" viewBox="0 0 40.2 40.6" enable-background="new 0 0 40.2 40.6" xml:space="preserve">
<g id="_x31_3208G">
	
		<path fill="none" stroke="#9D9D9D" stroke-width="0.25" stroke-linecap="round" stroke-linejoin="round" stroke-miterlimit="10" d="
		M16.1,38.4L15,38.2l-1.3-0.4l-0.5-0.1l0.2-0.7l0-0.8l0.2-0.6l0-1.4l0.1-1.1l0-2.4L13.6,28l0.2-3.8l0-5.7l-0.1-3.4l-0.2-2.7
		l-0.7-5.2l-0.4-1.5L12,4.4L12,3.9l0.7-0.4l2.2-0.7l3.7-1.1h0.4l-0.1,0.2L19,4c0,0-0.2,1.8-0.2,1.9s0,3.2,0,3.2l-0.4,4.3l-0.4,3
		l-0.6,4.9l-0.8,4L15.9,28L15,30.8l-0.3,1.4L14,34.4l-0.1,1l0.1,0.7l0.2,0.3l0.1,0.8l0.1,0.4l0.2,0.2l0.5-0.1c0,0,0.2-0.2,0.2-0.3
		c0-0.1,0.3-0.4,0.3-0.4l1.3-1.8l1.2-1.7l1.2-2l1.1-1.8l0.7-1.5l1.2-2.1l1.1-1.9c0,0,0.4-1.3,0.5-1.4c0.1-0.1,0.9-1.4,0.9-1.4
		l1.1-2.2l0.5-0.7l1.3-2.2l1.8-2.6l0.5-0.5l0.2-0.4l1-0.9l1.2-1.3l1.6-1.6l0.6-0.5L35,8.4l0.3,0l0.2,1.2l0.8,2.5l0.7,1.7l0.1,1.4V16
		l0.1,0.4c0,0,0,0.2-0.1,0.2s-0.5,0.4-0.5,0.5c-0.1,0.1-1.9,2.1-1.9,2.1l-3.9,3.8l-6.3,5.8l-2.4,2.1l-3.6,3.2l-0.9,0.8l-0.3,0.1
		L17.2,35v0.2c0,0-0.3,0.4-0.4,0.5c-0.1,0.1-1,1.3-1,1.3l0,0.8L16,38L16.1,38.4z"/>
	<g>
		<path fill="#B2B2B2" d="M6,5.6c1.2-1.3,2.8-1.9,4.3-2.5c0.3,0.1,0.4,0.4,0.3,0.7c0,0.2,0,0.4,0,0.6c0,0.3-0.1,0.8-0.3,1
			c0,0,0-0.9-0.1-0.9C9.4,4.7,8.7,5.3,8.1,5.7C7.7,5.9,7.3,6.4,6.9,6.6C6.7,6.6,6.7,6.5,6.5,6.4C5.8,6.3,5.8,6.3,6,5.6z"/>
		<path fill="#ABABAB" d="M2.6,30.6c-0.1-0.2-0.2-0.5-0.2-0.7c-0.1-0.2-0.2-0.3-0.4-0.5c-0.1,0-0.3-0.1-0.3-0.2
			c-0.1-0.8-0.8-1.2-0.9-1.9c-0.1-0.8-0.5-1.4-0.6-2.2c0.4-0.4,0.8,0,1.2-0.1c0,0.3,0.1,0.6,0.2,0.8c0.2,1.3,0.9,2.2,1.6,3.3
			c0.5,0.7,0.6,1.3,1.2,2c0.1,0.2,0.4,0.5,0.4,0.7C4.8,32,4.9,32,4.9,32c-0.1,0.3,0.2,0.8-0.4,0.7c-0.2,0-0.5-0.1-0.5-0.4
			c0-0.2,0-0.3-0.1-0.4c-0.3-0.2-0.5-0.6-0.7-1C3.1,30.7,2.7,30.9,2.6,30.6z"/>
		<path fill="#ABABAB" d="M14,1.9c1.5-0.7,3.1-1.1,4.7-1.5c0.1,0.1,0.2,0.2,0.1,0.2c-0.3,0.3-0.2,0.7-0.1,1c0,0.1-0.1,0-0.1,0.1
			c-0.1,0-1.9,0.6-3.3,1c-0.2,0-0.6,0.2-0.9,0.3c-0.4,0.1-0.3-0.1-0.4-0.1c-0.4,0.1-0.5-0.1-0.6-0.4C13.5,2.2,13.7,2,14,1.9z"/>
		<path fill="#ADADAD" d="M1,15.3c0.4-1.2,0.7-2.4,1.5-3.5c0.3,0,0.4-0.2,0.5-0.4c0.1-0.3,0.1-0.6,0.1-0.8c0.1-0.1,0.2-0.2,0.3-0.2
			c0.2,0.1,0.6-0.3,0.9-0.1C4.2,10.7,4,11,3.9,11.2c-0.1,0.3-0.1,0.7-0.2,0.8c-0.2,0.4-0.2,0.5-0.5,0.8c-0.2,0.4-0.2,0.7-0.4,1
			c-0.4,0.3-0.3,0.8-0.5,1.1c0,0-0.1,0.2-0.1,0.2c-0.1,0.1,0,0.1-0.1,0.2C2.1,15.6,2.1,16,1.9,16C1.5,15.9,1.1,15.8,1,15.3z"/>
		<path fill="#727272" d="M28.6,1c0.5,0.1,1-0.2,1.4-0.3c0,0.3,0.5,0.4,0.4,0.7c-0.1,0.5,0.3,0.8,0,1.2c-0.1,0.2-1.2-0.1-1.4,0
			c-0.3,0.1-0.4,0.2-0.2,0.7c0.2,0.5-0.1,0.8-0.4,1.1C28.4,4.5,28.2,4.8,28,5c-0.3-0.2-0.4-0.9-0.5-1.2c-0.1-0.2-0.2,0-0.4-0.1
			c-0.1,0-0.6,0.1-0.7,0c-0.9-0.8,0.2-0.8,0.2-1.1C26.7,2.3,27,2,27.3,2c0.4-0.1,0.8,0,1.2-0.2c0.3-0.1,0.2-0.3,0.2-0.6
			C28.6,1.1,28.6,1.1,28.6,1z"/>
		<path fill="#B1B1B1" d="M22.5,0.1c1.8-0.2,3.5,0,5,1c0,0.2-0.2,0.2-0.4,0.2c-0.2,0.1-0.4,0-0.6,0c-0.3,0-0.7,0-1-0.1
			c-0.3-0.1-0.3,0.1-0.4,0.3c0,0-0.3-0.2-0.4-0.2c-0.6,0-1,0.2-1.4-0.1c-0.2-0.1-0.4,0.1-0.6,0.1c-0.4,0,0,0.1-0.8-0.1
			C22.2,0.9,22.1,0.3,22.5,0.1z"/>
		<path fill="#B0B0B0" d="M14,1.9c-0.1,0.2-0.1,0.5-0.1,0.7c0.1,0,0.1,0,0.1,0c0.1-0.2,0.1-0.6,0.4-0.5c0.3,0.1,0,0.4,0,0.6
			c0,0.1,0.4-0.1,0.4,0c0.1,0.2-0.3,0.2-1.1,0.7c-0.6,0.3-0.4,0.2-0.9,0.3c-0.3-0.2-0.7-0.1-1.1,0c-0.2,0-0.4-0.1-0.6-0.2
			c-0.3-0.2,0-0.4,0-0.6C12,2.5,13,2.1,14,1.9z"/>
		<path fill="#858585" d="M3.6,10.7c-0.1,0-0.2,0.1-0.2,0.1c-0.1,0.2,0.1,0.5-0.2,0.5c-0.3,0-0.5-0.1-0.5-0.4c0-0.1-0.1-0.2-0.1-0.3
			c0,0,0.1-0.1,0.1-0.1C2.8,10.2,2.7,9.8,3,9.5c0-0.1,0-0.2,0-0.3c0.3-0.4,0.7-0.6,0.9-1.1C4,8,4.2,7.8,4.4,8
			c0.1,0.2,0.3,0.3,0.5,0.3C4.9,8.8,5.4,9,4.9,9.5c-0.3,0-0.1,0.4-0.6,0.8C4,10.3,3.8,10.6,3.6,10.7z"/>
		<path fill="#ABABAB" d="M8.8,36.7c-0.2-0.1-0.4-0.2-0.6-0.2C7.7,35.9,7,35.6,6.5,35c0,0,0.1-0.1,0.1-0.2c-0.1-0.8-0.1-0.5,0.8-0.6
			c0.5,0.2,0.6,0.3,0.9,0.7c0.1,0.1,0.3,0.3,0.5,0.4c0.3,0.1,0.5,0.2,0.7,0.3c0,0,0.1-0.1,0.1-0.1c-0.2,0.5-0.2,0.9,0.2,1.2
			c0.1,0.1,0,0.2-0.1,0.2C9.3,37,9.1,36.9,8.8,36.7z"/>
		<path fill="#727272" d="M32,1.4c0.1,0.1,0.3,0.1,0.4,0.2c0,0.2,0,0.4,0.3,0.4c0.1,0.1,0.2,0.2,0.2,0.4c-0.1,0.2,0.2,0.3,0.2,0.5
			c-0.1,0.4-0.2,0.7-0.6,0.9c-0.2,0-0.2-0.2-0.3-0.3c-0.3-0.3-0.4-0.5-0.8-0.6c-0.3-0.1-0.9-0.1-1.1-0.4c0-0.4,0.4-0.6,0.3-1
			c0.1-0.2,0.3-0.2,0.4-0.1C31.2,1.6,31.6,1.5,32,1.4z"/>
		<path fill="#7A7A7A" d="M0.5,18.9c0-0.2,0-0.3,0-0.5c0.1-0.3,0-0.7,0.3-0.9c0.5-0.1,0.6,0.4,0.8,0.7c0.3,0.4,0,0.7,0,1.1
			c0,0.5,0.1,1,0,1.5c-0.3,0.4-0.1,1-0.5,1.4c-0.1,0.1-0.1,0.2-0.2,0.2c-0.4-0.3-0.5-0.7-0.3-1.4c0.1-0.3,0.3-0.6,0-1
			C0.2,19.7,0.7,19.3,0.5,18.9z"/>
		<path fill="#6A6A6A" d="M35.1,5.5c0.2,0.1,0.5-0.2,0.6,0.1c0.2,0.6,0.3,1.2,0.2,1.8c-0.7,0.5-1.3,0.3-1.9-0.3
			c-0.2-0.3,0.3-0.5,0.4-0.7c0.1-0.2-0.2-0.5,0-0.6c0.1-0.1,0.3-0.3,0.5-0.4C35,5.4,35,5.4,35.1,5.5z"/>
		<path fill="#A9A9A9" d="M22.5,0.1c0,0.2,0,0.3,0.1,0.5c0.2,0.5,0,0.6-0.5,0.6c-0.6,0.1-0.6,0.2-1.2,0.2c-0.1-0.1-0.1-0.2-0.1-0.4
			c0-0.1-0.1-0.1-0.1-0.2c-0.2-0.2-0.4-0.4-0.7-0.5C20,0.3,19.9,0.2,20,0.1c0-0.1,0.1-0.1,0.2,0c0.6,0,1.2,0,1.8-0.1
			C22.1,0,22.3,0,22.5,0.1z"/>
		<path fill="#A6A6A6" d="M6,5.6c0.2,0.6,0.7,0.5,1.2,0.6C6.8,6.9,6.5,7.1,5.9,7.6c-0.3-0.2-0.6-0.3-1-0.5C4.9,7,4.9,6.9,5,6.7
			C5.3,6.3,5.6,6,6,5.6z"/>
		<path fill="#ABABAB" d="M35.1,5.5c-0.1,0-0.2,0-0.2,0c-0.2,0.1-0.3,0.2-0.4,0.4c-0.2,0.1-0.4,0-0.4-0.1c0-0.5-0.5-0.7-0.6-1.1
			c0-0.2-0.2-0.3-0.4-0.4c-0.3-0.1-0.4-0.3-0.6-0.6c0-0.1,0-0.1,0.1-0.2C33,3.4,33,3.1,33.1,2.7c0-0.1,0-0.1,0.1-0.2
			C33.7,3.6,34.4,4.5,35.1,5.5z"/>
		<path fill="#666666" d="M0.5,18.9c0.2,0,0.2,0.2,0.2,0.3c-0.1,0.3-0.1,0.7,0.2,0.9c0.2,0.1,0,0.3,0,0.5c-0.2,0.5-0.4,1.1-0.1,1.7
			c0,0,0,0.1,0,0.1c0,0.2,0,0.4-0.1,0.5C0.5,23,0.3,23.1,0.2,23c0,0-0.1,0.1-0.1,0.1c-0.1-0.1-0.1-0.2,0-0.3c0-0.6,0.1-1.1,0.1-1.7
			c-0.1-0.4,0.3-0.7,0.1-1.1C0.4,19.6,0.4,19.3,0.5,18.9z"/>
		<path fill="#6A6A6A" d="M0.8,17.7c-0.3,0.2-0.1,0.6-0.4,0.7c-0.2-0.5,0.2-1,0.1-1.6c0-0.2,0-0.3,0-0.5c0.2-0.4,0.4-0.7,0.6-1.1
			c0.3,0.2,0.5,0.4,0.9,0.5C2,15.9,2,16.1,2,16.2c-0.1,0.2-0.4,0.2-0.4,0.4c0,0,0,0.1-0.1,0.1c-0.2,0.1-0.3,0.3-0.4,0.5
			C1,17.4,0.9,17.6,0.8,17.7z"/>
		<path fill="#797979" d="M27.1,1c0.2,0,0.3,0,0.5,0c0.4,0.2,0.8,0.2,1.2,0c0,0.1,0,0.1,0,0.2c0.2,0.3-0.2,0.5-0.1,0.7
			c-0.3,0.5-0.8,0.3-1.2,0.2c-0.1-0.1-0.2,0-0.3-0.1c0,0-0.1-0.1-0.1-0.2C27.2,1.6,26.8,1.3,27.1,1z"/>
		<path fill="#A2A2A2" d="M1.3,25.3c-0.2,0.1-0.4,0-0.5,0.2c-0.1,0.2-0.2,0.1-0.2-0.1c0-0.2-0.2-0.2-0.3-0.2c-0.1-0.4,0-0.9,0.1-1.3
			c0.3-0.2,0.6,0,0.8,0.1C1.3,24.5,1.2,24.8,1.3,25.3z"/>
		<path fill="#676767" d="M32,1.4c0.1,0.5-0.5,0.3-0.7,0.7c-0.1,0.1-0.2-0.3-0.4-0.4c-0.1-0.1-0.2-0.2-0.4-0.3c0,0.1-0.1,0.1-0.1,0
			c-0.1-0.2-0.3-0.4-0.2-0.7c0.1,0,0.2,0,0.2,0.2c0.3,0.2,0.5,0.2,0.6-0.2C31.6,0.6,31.7,1.2,32,1.4z"/>
		<path fill="#898989" d="M7.2,34.4c-0.2,0-0.6-0.1-0.4,0.4c0,0.1-0.1,0.2-0.2,0.2c0,0,0,0,0-0.1c-0.3-0.3-0.7-0.4-0.9-0.8
			c-0.1-0.9-0.1-0.9,0.6-1.1C6.5,33.6,7.2,33.9,7.2,34.4z"/>
		<path fill="#909090" d="M4.5,32.7c0.2-0.2,0.1-0.8,0.2-1c0.3,0.3,0.4,0,0.4-0.2c0-0.2,0.3,0.8,0.5,0.8c0.2,0.2,0.3,0.4,0.5,0.6
			c0,0.1,0,0.1,0,0.2c-0.4,0-0.6,0.4-0.8,0.6c-0.2,0-0.3-0.1-0.3-0.3C5,33.1,4.7,33,4.5,32.7z"/>
		<path fill="#737373" d="M4.3,8.1C4,8.1,4,8.4,3.9,8.5C3.7,8.9,3.5,9.2,3,9.2C3.2,8.4,4,8,4.5,7.4c0,0,0.1,0,0.1,0
			C4.8,7.3,5,7,5.2,7.3c0.2,0.3,0,0.6-0.3,0.7C4.7,8.2,4.6,8.5,4.3,8.1z"/>
		<path fill="#B2B2B2" d="M3.4,30.9c0.2,0.3,0.2,0.8,0.8,0.8c0.1,0,0.2,0.2,0.2,0.4c0,0.3-0.3,0.2-0.4,0.3c-0.4-0.3-0.7-0.7-1-1.1
			C3,30.9,3.1,30.8,3.4,30.9z"/>
		<path fill="#676767" d="M33.2,2.5c0,0.1,0,0.3,0,0.3c0.3,0.6,0.1,0.9-0.6,0.9c-0.1,0-0.1,0-0.1-0.1c0.1-0.3,0.5-0.4,0.3-0.9
			c-0.2,0.1-0.3,0.3-0.5,0.4c0-0.5,0.2-0.7,0.6-0.8C33,2.4,33.1,2.5,33.2,2.5z"/>
		<path fill="#575757" d="M35.8,7.3c-0.1,0-0.3,0-0.4-0.1c-0.1-0.1-0.2-0.2,0-0.3c0.6-0.1,0.3-0.5,0.2-0.8c-0.1-0.2-0.3-0.4,0-0.5
			c0.1,0.1,0.1,0.2,0.2,0.3c0.3,0.4,0.1,0.9,0.3,1.3c0.1,0.2,0.1,0.4,0,0.6c-0.1,0.1-0.2,0.1-0.3,0C35.6,7.7,35.9,7.5,35.8,7.3z"/>
		<path fill="#7A7A7A" d="M2.5,10.5c0.3,0,0.4,0.6,0.9,0.2c0.2,0.3,0,0.6,0,0.8c-0.2,0.2-0.5,0.3-0.7,0C2.4,11.3,2.2,10.9,2.5,10.5z
			"/>
		<path fill="#666666" d="M19.9,0c0,0,0.1,0,0.1,0c0,0.1,0.1,0.1,0.1,0.2c0.1,0.1,0.1,0.2,0,0.3c-0.2,0.1-0.4,0.2-0.5,0.2
			c-0.3,0.1-0.4,0.2-0.4,0.5c0,0.4-0.2,0.5-0.6,0.2c-0.4-0.4-0.2-0.8,0.1-1.2C19.1,0.3,19.5,0.1,19.9,0z"/>
		<path fill="#A7A7A7" d="M11,2.9c0.1,0,0.3,0,0.4,0c0,0.2-0.3,0.2-0.3,0.4c0.1,0.2,0,0.4-0.2,0.5c-0.2,0.1-0.4,0.1-0.6,0
			c0-0.3-0.5-0.4-0.1-0.7C10.5,3,10.8,2.9,11,2.9z"/>
		<path fill="#A0A0A0" d="M5.7,34.1c0.1,0,0.2,0.1,0.3,0.1c0.3-0.1,0.4,0,0.3,0.3c-0.1,0.2,0.1,0.3,0.2,0.4
			c-0.4-0.1-0.8-0.3-1.1-0.8c-0.1-0.1-0.2-0.3-0.1-0.5C5.7,33.5,5.6,33.9,5.7,34.1z"/>
		<path fill="#B6B6B6" d="M3.4,30.9c-0.2,0.1-0.3,0.2-0.4,0.4c-0.2-0.2-0.4-0.4-0.5-0.7C3.1,30.2,3.4,30.3,3.4,30.9z"/>
		<path fill="#555555" d="M1,24.1c-0.2-0.1-0.5-0.1-0.7-0.2C0,23.6,0,23.3,0.2,23c0.1-0.1,0.2-0.1,0.3-0.2C0.8,23.1,1,23.5,1.1,24
			C1.1,24,1.1,24.1,1,24.1z"/>
		<path fill="#7E7E7E" d="M31,0.7c0,0.2,0.2,0.3,0.3,0.4c0.1,0.1,0.1,0.3-0.1,0.4c-0.2,0.2-0.2-0.1-0.3-0.2
			c-0.2-0.2-0.4-0.3-0.5-0.5C30.7,0.9,30.9,0.9,31,0.7z"/>
		<path fill="#A8A8A8" d="M0.3,20c0.5,0.4-0.1,0.7-0.1,1.1C0.1,20.7,0.2,20.4,0.3,20z"/>
		<path fill="#666666" d="M2.6,11.6c0.2-0.2,0.5,0.1,0.7,0c-0.2,0.4-0.5,0.5-0.8,0.2C2.5,11.8,2.6,11.7,2.6,11.6z"/>
		<path fill="#7A7A7A" d="M3,9.5c0,0.1-0.1,0.3,0,0.4c0.3,0.5-0.1,0.4-0.3,0.5C2.6,10.1,2.6,9.7,3,9.5z"/>
		<path fill="#676767" d="M32.7,2c-0.1,0.2-0.3,0.2-0.6,0.2c0.1-0.2,0.2-0.4,0.3-0.6C32.5,1.8,32.6,1.9,32.7,2z"/>
		<path fill="#B2B2B2" d="M5.4,33.7c0,0.2,0,0.3,0,0.5C5,34.1,4.9,33.8,5,33.4c0.1,0,0.2,0.1,0.3,0.1C5.4,33.6,5.4,33.6,5.4,33.7
			C5.4,33.7,5.4,33.7,5.4,33.7z"/>
		<path fill="#BEBEBE" d="M2,29.4c0.3,0.1,0.7,0,0.4,0.5C2.1,29.8,2,29.6,2,29.4z"/>
		<path fill="#ADADAD" d="M22,40.4c-0.2,0-0.3,0.1-0.4,0.2c-0.7,0.1-1.4-0.3-2.1-0.2c-0.6,0.1-1.1-0.1-1.6-0.3
			c-0.1-0.2-0.1-0.4,0.1-0.6c0.1-0.2,0.2-0.3,0.4-0.2c0.4,0.3,0.6-0.1,0.9-0.3c0.2,0.3,1,0.2,1.7,0.3C21.9,39.6,22.4,39.7,22,40.4z"
			/>
		<path fill="#8F8F8F" d="M9.6,37.1c-0.1-0.1-0.2-0.2-0.3-0.3c-0.4-0.5-0.4-0.8,0.1-1.1c0,0,0-0.1,0-0.1c0.1-0.2,0.3-0.2,0.4,0
			c0.2,0.6,0.6,0.8,1,0.9c0.2,0.1,0.4,0.3,0.6,0.4c-0.2,0.5-0.7,0.6-1.2,0.4c-0.2-0.1-0.4,0-0.6-0.1C9.6,37.2,9.6,37.2,9.6,37.1z"/>
		<path fill="#919191" d="M18.2,39.6c0,0.2-0.1,0.4-0.2,0.6c-0.5-0.2-1.2,0-1.7-0.4c-0.2-0.9,0-1.1,0.9-0.9c0.2,0,0.2,0.1,0.4,0.1
			c0.1,0.1,1,0.1,1.1,0.2C18.8,39.4,18.1,39.4,18.2,39.6z"/>
		<path fill="#868686" d="M11.9,38.2c-0.2,0-0.3,0-0.4-0.2c-0.2-0.4-0.1-0.8,0.2-1.2c0.8,0.2,0.5,0.4,0.7-0.3c0.4,0,0.8,0.2,0.8,0.5
			c0,0.2,0.1,0.2,0.2,0.4c0.1,0.7,0,0.9-0.7,0.8C12.3,38.2,12.1,38.2,11.9,38.2z"/>
		<path fill="#B3B3B3" d="M11.8,37.1c-0.1,0.4-0.2,0.7-0.3,1.1c-0.7-0.1-1.2-0.7-1.8-0.9c0.5,0,1,0,1.5-0.4
			C11.6,36.8,11.5,36.9,11.8,37.1z"/>
		<path fill="#939393" d="M15.8,39.7c-0.3-0.1-0.7-0.1-1-0.4c-0.1-0.2-0.3-0.4-0.4-0.6c-0.2-0.3-0.5-0.5-0.1-0.7
			c0.3,0,0.6,0.2,0.9,0.2c0.2,0,0.3,0,0.7,0.1c0.1,0.1,0.1,0.3,0.2,0.4C16.3,39.1,16.3,39.4,15.8,39.7z"/>
		<path fill="#7F7F7F" d="M15.8,39.7c0.2-0.4,0-0.8,0-1.2c0.1-0.3,0.4-0.1,0.6-0.2c0.4-0.1,0.8-0.2,0.9,0.3c0,0.1,0.1,0.3-0.1,0.3
			c-0.4-0.1-0.6-0.1-0.7,0.4c0,0.2-0.2,0.3-0.3,0.4C16.1,39.8,15.9,39.8,15.8,39.7z"/>
		<path fill="#949494" d="M11.9,38.3c0.2-0.2,0.3-0.4,0.6-0.3c0.2,0.1,0.7,0,0.7-0.4c0-0.1,0.8,0.2,0.6,0.8c0,0.1,0,0.1,0,0.2
			c-0.2,0.7-0.6,0.2-0.9,0.1C12.7,38.6,12.3,38.5,11.9,38.3z"/>
		<path fill="#9E9E9E" d="M13.8,38.5c0,0,0-0.1,0-0.1c0-0.2-0.3-0.4-0.1-0.6c0.4,0,0.7,0.4,1.3,0.4c0,0.4,0,0.7-0.2,1.1
			c-0.2-0.1-0.4,0-0.6-0.1C13.8,39.1,13.9,38.7,13.8,38.5z"/>
		<path fill="#B4B4B4" d="M13.8,38.5c0.4,0.1,0.2,0.5,0.5,0.7c-0.4-0.1-0.9-0.2-1.2-0.5C13.3,38.7,13.6,38.9,13.8,38.5z"/>
		<path fill="#757575" d="M4.3,8.1c0.4,0,0.5-0.3,0.6-0.6c0.2-0.3-0.2-0.1-0.3-0.2c0.1-0.1,0.2-0.2,0.3-0.2C5.3,7,5.6,7,5.9,7.4
			c0,0.6,0,0.7-0.7,1.1C4.9,8.7,5,8.4,4.8,8.5C4.5,8.6,4.3,8.4,4.3,8.1z"/>
		<path fill="#707070" d="M10.3,5c0.1-0.2,0.1-0.5,0-0.7c0.1-0.1,0.2-0.2,0.4-0.2c0.1,0.1,0.1,0.1,0.2,0.1C11,4.5,11.2,4.7,11,5
			C10.8,5.2,10.6,5.2,10.3,5L10.3,5z"/>
		<path fill="#5D5D5D" d="M10.5,4.2c-0.1,0-0.2,0.1-0.3,0.1c-0.1-0.2,0.1-0.3,0.1-0.5c0.2,0,0.3-0.1,0.5-0.1c0.2,0,0.3,0.1,0.3,0.3
			C11,4.2,10.8,4.3,10.5,4.2z"/>
		<path fill="#A9A9A9" d="M4.8,31.9C5.6,32.3,5,31.4,5,31c0.2-0.1,0.4-0.1,0.5,0.2c0.1,0.3,0,0.7,0.2,1c0.1,0.1,0,0.3-0.1,0.3
			C5.2,32.6,5.1,32,4.8,32C4.8,32,4.8,31.9,4.8,31.9z"/>
		<path fill="#797979" d="M18.8,2.4c0-0.1-0.1-0.2,0-0.3c0.4-0.4,0.1-0.4-0.2-0.4c0,0,0-0.1,0-0.1c0.2,0,0.3-0.1,0.2-0.3
			c-0.2-0.6,0.2-0.7,0.7-0.8c0.2,0,0.4,0,0.6,0c0.4,0.1,0.7,0.4,0.5,0.8c0,0.1-0.1,0.3-0.2,0.4c-0.4,0.3-0.2,0.7,0,1
			c0,0.1,0,0.2,0,0.3C19.6,3.4,19.2,3.2,18.8,2.4z"/>
		<path fill="#A1A1A1" d="M36.5,8.6c-0.3,0.4,0.1,0.6,0.1,1c-0.5,0.3-1.1-0.1-1-0.7c0-0.1,0.1-0.3,0.1-0.4c0-0.1,0-0.1,0-0.2
			c0.1-0.2,0.1-0.4,0.2-0.6c0.1-0.1,0.1-0.3,0.1-0.5C36.6,7.6,36.4,8.1,36.5,8.6z"/>
		<path fill="#6B6B6B" d="M4.3,10.2c-0.1,0.1-0.1,0.3-0.2,0.4c-0.2,0-0.4,0.1-0.6,0c0.1-0.1,0.2-0.3,0.2-0.4
			C3.9,9.7,4.1,10,4.3,10.2z"/>
		<path fill="#7D7D7D" d="M28.2,4.6c-0.3,0.8-0.6,1.6-0.8,2.4C27.1,7.1,27,7,27,6.8c0-0.2-0.1-0.4-0.3-0.5c0-0.2,0-0.3-0.1-0.4
			c0-0.3,0.2-1,0.4-1.3c0.3-0.3,0.4,0,0.2-0.6c-0.1-0.4,0.2-0.5,0.4-0.7C28.1,3.5,28.3,4,28.2,4.6z"/>
		<path fill="#5F5F5F" d="M30.3,2.4c-0.1,0.2-0.2,0.2-0.4,0.1c0.2-0.4,0.3-0.7,0.5-1.1c0,0,0.1,0,0.1,0C30.7,1.8,30.4,2.1,30.3,2.4z
			"/>
		<path fill="#535353" d="M28.6,1.9c-0.4-0.3,0-0.5,0.1-0.7C29.1,1.5,29.1,1.7,28.6,1.9z"/>
		<path fill="#767676" d="M26,2c-0.3-0.2-0.6-0.4-1-0.6c0,0,0.1,0,0.1,0c0.1-0.2,0.4-0.2,0.4-0.5c0.4-0.2,0.7,0.1,1.1,0.1
			c0.3,0.2,0.8,0.3,0.6,0.8c0,0,0,0,0,0C27,2.8,26.4,2.2,26,2z"/>
		<path fill="#696969" d="M27.2,1.9c-0.1-0.3-0.7-0.4-0.6-0.8c0.2-0.1,0.3-0.1,0.5,0C27.2,1.3,27.6,1.6,27.2,1.9z"/>
		<path fill="#5C5C5C" d="M25.5,0.9c0.3,0.6-0.1,0.5-0.4,0.5C25,1.1,25.2,1,25.5,0.9z"/>
		<path fill="#757575" d="M12.1,5c0.2,0.6,0.3,1.1,0.3,1.7c-0.1,0.2-0.3,0.2-0.5,0.1c-0.2-0.5-0.2-0.5-0.7-0.8
			c-0.1-0.1-0.1-0.2,0-0.3c0.3-0.4,0.1-0.8-0.1-1.2C11.1,4.3,11,4.2,11,3.9c0-0.1-0.1-0.2-0.1-0.3C11,3.6,11,3.4,11.1,3.3
			c0.2,0.1,0.4,0.1,0.6,0C11.8,3.5,12,3.7,12,3.9c0,0.1,0.1,0.3,0.1,0.4C12.2,4.5,12.2,4.8,12.1,5z"/>
		<path fill="#636363" d="M12,3.9c-0.2-0.2-0.2-0.4-0.2-0.6c0.2,0.1,0.4,0.1,0.6,0c0.2,0,0.3,0.1,0.2,0.3C12.3,3.8,12.2,3.8,12,3.9z
			"/>
		<path fill="#737373" d="M5.2,10.1C5.1,9.9,5,9.8,4.9,9.6c0-0.1,0.1-0.3,0-0.4C4.2,9,4.5,8.8,4.8,8.5c0.1-0.2,0.1-0.2,0.4,0.1
			c0.2,0.2,0.5,0.5,0.4,0.8C5.5,9.7,5.8,10.1,5.2,10.1z"/>
		<path fill="#9B9B9B" d="M8.2,35.1c0.1,0.1,0.2,0.2,0.4,0.4c-0.1,0-0.2,0.1-0.3,0.1c-0.1,0-0.4,0.2-0.4-0.1
			C7.8,35.3,8,35.2,8.2,35.1z"/>
		<path fill="#868686" d="M1.7,16.4c0.1,0.4,0.3,0.7,0.6,0.9c0.7,0.7,1.2,1.6,1.8,2.3c0.1,0.6,0.1,0.7-0.5,0.6
			c-0.5,0.1-0.3-0.2-0.4-0.6C3,19.2,2.6,18.5,2,18.5c-0.2,0,0.1-0.3,0-0.5c-0.1-0.1-0.5,0-0.7,0.3c-0.2,0-0.5,0-0.3-0.3
			c0.1-0.1-0.1-0.2-0.2-0.3c-0.1-0.2-0.1-0.4,0-0.6c0.3,0,0.4-0.3,0.6-0.5l0,0C1.5,16.6,1.4,16.3,1.7,16.4z"/>
		<path fill="#626262" d="M1.1,20.7c0,0.2,0.1,0.5,0.1,0.7c0,0.3,0.3,0.4,0.2,0.7c0,0.5-0.3,0.6-0.7,0.6c-0.2-0.2-0.2-0.3-0.1-0.5
			c0,0,0,0,0,0c0.2-0.3,0.4-0.6,0.3-1C0.9,21,1,20.9,1.1,20.7z"/>
		<path fill="#787878" d="M33.1,8.1c0.3-0.4,0.4-1,1.1-1.1c0.4,0,0.6,0.3,1,0.4c0.2,0,0.5,0,0.7-0.1c0.1,0.1,0,0.2,0,0.4
			c0,0.1,0,0.2,0,0.2c-0.2,0.2-0.6,0-0.7,0.4c-0.2,0.1-0.3,0.2-0.5,0.2c-0.5-0.2-0.8,0-0.8,0.5c0,0.2,0,0.3-0.2,0.3
			c-0.5,0-0.7-0.3-0.6-0.8C33,8.4,33,8.3,33.1,8.1z"/>
		<path fill="#535353" d="M34.6,6c-0.1-0.1-0.1-0.2-0.2-0.3c-0.1-0.2-0.2-0.4,0-0.7c0.3,0,0.3,0.4,0.5,0.5c0,0.1,0.5,0.1,0.1,0.3
			C34.8,5.8,34.7,5.9,34.6,6z"/>
		<path fill="#6C6C6C" d="M21.1,1.2c-0.6,0.2-0.7,0.8-0.9,1.3c-0.1-0.2-0.4-0.2-0.6-0.2C20,1.8,20.6,1.3,20,0.5
			c0-0.1,0.1-0.1,0.1-0.2c0.3,0,0.6,0.1,0.9,0.3c0.2,0.1,0.2,0.3,0.2,0.4C21.1,1,21.1,1.1,21.1,1.2z"/>
		<path fill="#BBBBBB" d="M21.2,1C21,0.9,21,0.7,21,0.5c0-0.1,0-0.2,0.2-0.2c0.1,0,0.1,0.1,0.1,0.2C21.3,0.7,21.3,0.8,21.2,1z"/>
		<path fill="#7C7C7C" d="M0.7,22.3c0,0.2,0.1,0.3,0.2,0.4c0.2,0.1,0.4,0.1,0.6,0.3c0.3,0.5,0.3,0.7-0.3,0.9c0,0-0.1,0.1-0.1,0.1
			c-0.3-0.3-0.9-0.6-0.6-1.2C0.5,22.6,0.5,22.4,0.7,22.3z"/>
		<path fill="#7A7A7A" d="M1.4,16.7c0.1,0.2,0.3,0.5,0,0.7c-0.3,0.2-0.4-0.1-0.6-0.3C0.7,16.6,1.1,16.7,1.4,16.7z"/>
		<path fill="#7A7A7A" d="M1.7,16.4c-0.1,0.1-0.2,0.2-0.2,0.2c0,0-0.1-0.1-0.1-0.1c-0.1-0.1-0.4-0.1-0.3-0.4c0.1-0.2,0.3-0.1,0.5,0
			c0.1,0,0.2,0,0.3,0.1C1.7,16.3,1.7,16.3,1.7,16.4z"/>
		<path fill="#797979" d="M6.1,33.1c0,0,0,0.1,0,0.1c-0.5,0.1-0.3,0.6-0.4,0.9c-0.1-0.1-0.2-0.3-0.3-0.4c0,0,0-0.1,0-0.1
			C5.5,33.3,5.6,33,6.1,33.1z"/>
		<path fill="#9A9A9A" d="M5.9,31C6,31.7,6,32.3,6.1,33c-0.2-0.1-0.3-0.3-0.5-0.5c-0.2-0.2-0.2-0.2-0.3-1.1C5.5,31.3,5.6,31,5.9,31z
			"/>
		<path fill="#4F4F4F" d="M35.7,7.8c0,0,0.1-0.1,0.1-0.1c0.1,0,0.1,0,0.2,0c0,0.2,0.3,0.5,0,0.7c-0.2-0.1-0.4,0.1-0.6,0.1
			c-0.2,0-0.3,0-0.3-0.2c0-0.2,0.1-0.3,0.3-0.3C35.6,8,35.8,8,35.7,7.8z"/>
		<path fill="#949494" d="M32.7,35.9c-0.4,0.4-0.9,0.5-1.3,0.9c-0.5-0.1-0.8-0.1-0.8-0.8c0.8-0.7,1.3-0.9,1.9-1.5
			c0.5-0.4,0.8-1,1.3-1.4c0.2-0.1,0.3-0.4,0.3-0.6c0.1-0.3,0.2-0.6,0.6-0.6c0.2,0.1,0.4,0.3,0.6,0.5c0.1,0.4,0.3,0.8-0.3,1
			c-0.1,0-0.1,0.1-0.1,0.1c-0.4,0.9-1.2,1.3-1.8,1.9C32.7,35.6,32.8,35.8,32.7,35.9z"/>
		<path fill="#A2A2A2" d="M32.7,35.8c-0.4-0.1-0.4-0.3-0.1-0.5c0.4-0.4,0.9-0.7,1.3-1.2c0.5-0.6,1.1-1,1.3-1.8c0,0,0-0.1,0-0.1
			c0.3-0.6,0.5-1.3,0.6-2c0.1-0.1,0.2-0.3,0.3-0.5c0.1-0.2,0.2-0.4,0.5-0.4c0.1,0,0.1,0.1,0.1,0.1c-0.1,0.3-0.1,0.8-0.2,1.1
			c-0.3,0.4-0.3,0.8-0.4,1.3c-0.1,0.5-0.4,0.6-0.7,0.9c-0.2,0.1-0.3,0.5-0.4,0.7C34.4,34.5,33.5,35.1,32.7,35.8z"/>
		<path fill="#929292" d="M28.5,38.6c-0.1,0-0.2,0.1-0.3,0.1c0,0-0.1,0-0.1,0c-0.9,0-0.9,0-1-0.9c0.5-0.4,0.9-0.3,1.3-0.6
			c0.3-0.1,0.8-0.5,1.2-0.4c0.2,0.2,0.1,0.3,0.3,0.5c0.2,0.2,0.2,0.4-0.1,0.6c-0.2,0.1-0.4,0.3-0.7,0.4
			C28.9,38.4,28.7,38.5,28.5,38.6z"/>
		<path fill="#8A8A8A" d="M29.1,38.3c0,0,0-0.1,0.1-0.1c0.5-0.6,0.5-0.6-0.1-1.2c0.3-0.3,0.4-0.4,0.6-0.6c0.2,0,0.4-0.2,0.6-0.3
			c0.2-0.2,0.2-0.2,0.3-0.1c0.1,0.4,0.7,0.3,0.7,0.7c0,0,0,0,0,0c-0.2,0-0.2,0.2-0.3,0.4c-0.1,0.1-0.2,0.2-0.4,0.2
			c-0.4,0.1-0.6,0.5-1,0.7C29.6,38.1,29.4,38.4,29.1,38.3z"/>
		<path fill="#949494" d="M31.1,37c-0.2,0-0.3-0.1-0.6-0.1c0.2-0.3,0.5-0.2,0.8-0.2C31.3,36.8,31.2,36.9,31.1,37z"/>
		<path fill="#ABABAB" d="M26.2,39.4c-0.3,0.4-0.8,0.2-1.2,0.4c-0.7,0.2-1.3,0.5-2,0.6c-0.2,0.1-0.4,0.2-0.6,0
			c-0.3-0.5-0.1-0.9,0.3-1.3c0.5-0.3,1-0.1,1.5-0.3c0.6-0.2,0.9-0.4,1.6-0.3c0.2,0.1,0.4,0,0.6,0.1c0.1,0.1,0.1,0.2,0.2,0.3
			C26.6,39,26.4,39.2,26.2,39.4z"/>
		<path fill="#A3A3A3" d="M26.3,38.6c-0.1-0.1-0.5,0-0.6-0.1c0-0.1,0.4-0.2,0.5-0.3c0.2-0.1,0.3-0.2,0.6-0.2c0.2-0.1,0.8-0.4,1-0.1
			c0.1,0.1-0.3,0.2-0.3,0.3c0,0.4,0.1,0.6,0.5,0.3c0.3-0.2,0.2,0.1,0.3,0.2c-0.7,0.1-1.3,0.6-2,0.7c0-0.2,0-0.5,0.1-0.7
			C26.5,38.6,26.4,38.6,26.3,38.6z"/>
		<path fill="#A0A0A0" d="M22.6,39.2c0.1,0,0.3,0.1,0.1,0.2c-0.5,0.2-0.5,0.4-0.2,0.7c0,0,0,0.1,0,0.2c-0.1,0.2-0.2,0.2-0.4,0.1
			c0,0-0.1,0-0.1,0c-0.1-0.4-0.3-0.8-0.7-1C21.8,39.3,21.9,39.2,22.6,39.2z"/>
		<path fill="#DDDDDD" d="M22.2,40.4c0.1,0,0.2-0.1,0.4-0.1c0.2,0,0.3,0.1,0.5,0.1C22.7,40.7,22.4,40.7,22.2,40.4z"/>
		<path fill="#A1A1A1" d="M18.1,39.2c0.7,0.1,1.6-1.6,1.1,0.1c-0.3,0.2-0.1,0.7-0.6,0.8c-0.1-0.2,0.2-0.7-0.4-0.6
			C18,39.5,17.8,39.4,18.1,39.2z"/>
		<path fill="#A2A2A2" d="M10.5,35.6c0.1,0.3,0.1,0.8,0.4,0.9c-0.3-0.1-0.7-0.2-1-0.3c-0.2-0.1-0.4-0.1-0.2-0.4
			c0.1-0.2-0.1-0.1-0.2-0.1c-0.1-1.5-0.4-3-0.7-4.4c0-0.4-0.1-0.8,0.5-0.9c0.5,0.6,0.6,0.3,0.5,0.9c0.3,1.2-0.1,1.9,0.1,2.7
			c0,0.2,0.1,0.4,0.1,0.7c0,0.3,0,0.8,0.5,0.8C10.4,35.5,10.5,35.6,10.5,35.6z"/>
		<path fill="#A0A0A0" d="M18.3,38c-0.3-0.1-0.4,0.2-0.6,0.4c0,0.2-0.4,0.1-0.3,0.4c-0.2,0.5,0.4,0.2,0.3,0.3
			c-0.4,0.7-0.3,0-0.5-0.1c0-0.1-0.1-0.2-0.1-0.2c-0.1-0.3-0.1-0.6,0.1-0.8c0.2-0.5,0.7-0.5,1.3-0.1C18.5,37.9,18.4,37.9,18.3,38z"
			/>
		<path fill="#9E9E9E" d="M12.4,36.8c0-0.1-0.1-0.1-0.1-0.2c0.1-0.4,0.5-0.6,0.8-0.6c0.4-0.1,0.3,0.3,0.4,0.6c0,0.4-0.1,0.8-0.2,1.1
			c0,0-0.1,0-0.1,0C12.9,37.3,12.9,36.8,12.4,36.8z"/>
		<path fill="#ACACAC" d="M15.8,38.5c0.5,0,0.3-0.2,0-0.8c-0.1-0.2,0-0.5-0.1-0.7c-0.1,0-0.1-0.1-0.1-0.2c0.1-0.4,0.3-0.8,0.8-0.9
			c0.9,1-0.2,1.5,0.3,1.7c0.1,0.5-0.1,0.7-0.3,1C16.2,38.6,16,38.5,15.8,38.5C15.6,38.4,16,38.5,15.8,38.5z"/>
		<path fill="#969696" d="M16.4,38.6c-0.1-0.2-0.4-0.5,0.2-0.5c0.1,0,0-0.2,0-0.3c-0.1-0.2,0.3-0.3,0.3-0.5c1.1-0.7,2-1.5,3.1-2.1
			c0.4,0.1,0.2,0.1,0.2,0.5c-0.1,0.6-0.4,0.7-0.6,1.2c-0.3,0.3-0.6,0.6-1.2,0.9c-0.5,0.5-0.6,0.4-1.3,0.8
			C16.9,38.3,16.6,38.6,16.4,38.6z"/>
		<path fill="#838383" d="M13.4,37.7c0.1,0,0.2,0.1,0.4,0.1c0,0.2,0.1,0.3,0,0.5C13.2,38.4,13.6,37.9,13.4,37.7z"/>
		<path fill="#B5B5B5" d="M37.7,26.3l-0.3-0.2V26c-0.3,0.1,0.2-0.8,0.1-1c-0.1-0.4-0.3-0.2-0.4,0c0,0-0.1,0.1-0.1,0.1
			c-0.2,0.1-0.5,0.8-0.6,0.6c-0.1-0.1,0.2-1.1,0.2-1.2c0.2-0.8,0.1-0.6,0.2-1.4c0.1-0.2,0.2-1.4,0.2-1.7c0.1-0.4,0-0.6,0.1-1
			c0-0.2,0.1-0.8,0.4-0.8c0.8,0.1,0.5,0.4,0.3,1.3c0,0.7-0.2,1.5-0.2,2.2c0.3,0,0.5-0.2,0.7,0c-0.1,0.5-0.1,0.5-0.1,0.9
			C38.1,24.4,37.9,26,37.7,26.3z"/>
		<path fill="#9D9D9D" d="M36.7,29.7c0,0-0.1,0-0.1,0c-0.2-0.1-0.2-0.3-0.2-0.5c0-0.2-0.3-0.2-0.5-0.4c0-0.5,0.2-0.6,0.3-1.3
			c0-0.4,0-0.7,0.1-1.1c0.3-0.3,0.3-0.2,0.1-0.5c0-0.1,0-0.1,0-0.2c0.2-0.3,0.5-0.5,0.6-0.8l0,0c0.5-0.2,0.6-0.1,0.6,0.5
			c0,0.3,0.1,0.6,0.1,0.9c-0.1,0.4-0.3,0.9-0.3,1.2c-0.1,0.6-0.4,0.8-0.6,1.4C36.8,29.3,36.8,29.3,36.7,29.7z"/>
		<path fill="#AFAFAF" d="M37.5,21c0.1-0.4,0.3-0.8-0.2-1c0-0.5,0-0.7,0.1-1.1c0-0.3,0-0.2,0.3-0.2c0.1,0,0.1,0,0.2,0
			c0.2,0.1,0.3,0.2,0.4,0.4c0,0.2-0.1,0.3-0.4,0.3c0.5,0,0.8,0.2,0.8,0.6c-0.1,0.2-0.1,0.4-0.1,0.6c0,0,0,0,0,0
			c-0.2,0.7,0.2,2.5-0.1,2.7c-0.1,0-0.2,0-0.3,0c-0.4,0.2-0.5,0-0.4-0.4c0.1-0.4,0-0.9,0.1-1.3C37.8,21.2,37.6,21.1,37.5,21z"/>
		<path fill="#9F9F9F" d="M38.6,19.9c-0.2-0.3-0.7-0.4-0.9-0.7c0.1-0.2,0.3,0,0.4-0.2c0-0.2,0.1-0.5,0.1-0.7c0-0.3,0.2-0.3,0.4-0.3
			c0.3,0.5-0.2,1,0.1,1.4C38.8,19.7,38.8,19.8,38.6,19.9z"/>
		<path fill="#ACACAC" d="M37.6,25.4c-0.1-0.3-0.3-0.4-0.6-0.5c0-0.3,0-0.6,0.4-0.6c0.4,0,0.4,0.3,0.3,0.6c0,0.1,0,0.2,0.1,0.3
			C37.8,25.3,37.7,25.4,37.6,25.4z"/>
		<path fill="#636363" d="M38.6,18c-0.3,0.2-0.1,0.7-0.5,1c-0.1-0.1-0.2-0.2-0.4-0.3c0-0.7-0.3-1.3-0.7-1.9c-0.1-0.1,0-0.2,0.1-0.3
			c0.2-0.2,0.2-0.6,0.5-0.6c0.3,0.1,0.5,0,0.7-0.1c0.5-0.3,0.6-1,0.9-1.4c0.1,0,0.2,0,0.3,0c0,0.1,0,0.4,0.2,0.2
			c0.7,0.7,0.6,0.9-0.2,1.5c-0.1,0.1-0.2,0.1-0.3,0.3c-0.5,0.3-0.6,0.9-0.6,1.5C38.6,17.9,38.6,17.9,38.6,18z"/>
		<path fill="#AFAFAF" d="M7.8,13.9c0,0.2,0,0.3,0,0.5C8,14.7,7.9,15.1,8,15.4c0.1,0.2-0.1,0.3-0.4,0.3c-0.3,0-0.4-0.2-0.6-0.4
			c0.1-0.6-0.5-1.1-0.5-1.7c0-0.3-0.1-0.6-0.4-0.8C5.8,12.6,6.1,12.2,6,12l0,0c-0.2-0.4-0.4-0.7-0.4-1.1c0-0.4,0.3-0.5,0.5-0.6
			c0.1,0.4,0.3,0.7,0.6,0.9c0,0.7,0.6,1.2,0.7,1.9c0.1,0.1,0.4,0,0.4,0.3C7.9,13.5,7.9,13.7,7.8,13.9z"/>
		<path fill="#747474" d="M10.6,6.8c-0.2,0-0.2,0.6-0.6,0.3c0,0-0.1,0-0.1,0c-0.1-0.5,0-0.9,0.2-1.3c0.2-0.3,0.4-0.3,0.6,0
			c0,0.1,0.1,0.2,0.2,0.3c0.1,0.1,0.2,0.3,0.2,0.5C11.1,6.9,11,7,10.6,6.8z"/>
		<path fill="#737373" d="M6.1,10.2c0,0.3-0.1,0.5-0.4,0.6c-0.1,0.1-0.2,0.1-0.2,0c-0.1-0.2-0.1-0.4-0.2-0.7
			c0.1-0.2,0.3-0.4,0.4-0.6C5.8,9.7,5.9,10,6.1,10.2z"/>
		<path fill="#808080" d="M10.5,6c0-0.2-0.2-0.3-0.4-0.2c0-0.2,0.3-0.5,0.1-0.7c0.7-0.1,0.4-0.5,0.2-0.8C10.7,4,10.8,4,11,3.9
			c0.8,0.3,1.1,1.2,0.6,1.8c-0.3-0.2-0.4,0.1-0.5,0.2C10.9,6.2,10.7,6.1,10.5,6z"/>
		<path fill="#707070" d="M1.2,23.8c0.5-0.5-0.1-0.8-0.2-1.2c0.1-0.3,0.4-0.3,0.5-0.5c0,0,0.1,0,0.1,0c0.2,0.8,0.7,1.5,1.1,2.1
			c0.3,0.5,0.7,1,0.9,1.6c0.1,0.3,0.3,0.1,0.4,0.3c0.1,0.1,0,0.3,0.1,0.4c0.1,0.2,0.4,0.3,0.1,0.6c-0.2,0.1-0.4,0-0.6-0.1
			c-0.1-0.1-0.2,0-0.3-0.1C3.1,26.7,3,26.5,3,26.2c0.2-0.2,0-0.3-0.2-0.4c-0.1-0.1-0.3-0.3-0.4-0.4C1.8,25,1.8,24.2,1.2,23.8z"/>
		<path fill="#868686" d="M5.9,31c0,0.4-0.1,0.7-0.6,0.4C5.2,31.3,5.1,31.2,5,31c-0.2-0.7-0.4-1.3-0.6-2c0-0.1,0-0.1,0-0.2
			c-0.1-0.2-0.2-0.3-0.1-0.5c0.2-0.2,0.4-0.1,0.6,0C5.4,29.1,5.6,30.1,5.9,31z"/>
		<path fill="#717171" d="M4.9,28.3c0,0.1,0,0.2-0.1,0.3c-0.5-0.1-0.3,0.3-0.4,0.5c-0.5-0.6-0.5-1.3-1-1.9c0.4-0.1,0.7,0,1,0.4
			c0.1,0.1,0.2,0.3,0.3,0.4C4.8,27.9,4.9,28.1,4.9,28.3z"/>
		<path fill="#828282" d="M4.7,27.8c-0.2,0-0.4,0.1-0.4-0.1c-0.1-0.5-0.5-0.5-0.8-0.6C3.3,27,3.3,27,3.2,27c0.3-0.2,0.5-0.4,0.8,0
			c0-0.3-0.1-0.5-0.1-0.8C4.2,26.7,4.4,27.2,4.7,27.8z"/>
		<path fill="#7A7A7A" d="M2.4,25.4c0.2,0,0.5-0.2,0.6,0.1C3,25.7,3.3,26,3,26.2C2.8,25.9,2.3,25.8,2.4,25.4z"/>
		<path fill="#A7A7A7" d="M37.3,11.6c0.1,0.5,0.2,0.9,0.5,1.3c-0.1,0.7,0.3,1.4,0.5,2c0.1,0.1,0.1,0.1,0.1,0.2
			c0,0.1-0.1,0.1-0.1,0.1c-0.3-0.1-0.7,0.6-1,0.5c-0.1-0.5,0-1.4-0.2-2c-0.1-0.4-0.3-0.9-0.5-1.3c-0.1-0.2-0.3-0.2-0.3-0.5
			c0-0.4,0.2-0.8-0.2-0.8c-0.1-0.1-0.2-0.4-0.3-0.5c0-0.4,0.2-0.5,0.2-0.9c0-0.2,0.2-0.2,0.4-0.2c0.2,0,0.4,0.1,0.5,0.4
			c0.1,0.4,0.1,0.8,0.1,1.1C37.1,11.4,37,11.6,37.3,11.6z"/>
		<path fill="#717171" d="M39.2,14.7c0,0.1,0.1,0.3,0.2,0.4c0.4,0.4,0.3,0.5-0.2,0.7c-0.3,0.1-0.5,0.1-0.6,0.5
			c0,0.2-0.6,0.1-0.8-0.1c-0.1-0.1-0.2-0.3-0.2-0.4c0.1-0.7,0.1-0.7,0.7-0.5c0,0,0-0.1,0-0.1c0.2-0.2,0.6-0.3,0.7-0.5
			C39.1,14.6,39.1,14.6,39.2,14.7z"/>
		<path fill="#848484" d="M16.3,30.4c0,0,0,0.1,0,0.1c0.1,0.1,0,0.3,0.2,0.4c0.4,0.1,0.6,0.4,0.8,0.7c-0.4,0.9-0.8,1.6-1.3,2.3
			c-0.2,0.3-0.4,0.6-0.6,0.9c-0.2,0.2-0.2,0.5,0.1,0.5c-0.1,0.4-0.3,0.7-0.7,0.6c-0.2-0.1-0.4-0.2-0.4-0.5c0.2-0.5,0.1-1,0.2-1.5
			c0.4-0.2,0.8-0.3,0.8-0.9c0-0.2-0.1-0.4-0.3-0.3c-0.4,0.1-0.5-0.1-0.5-0.4c0.2-1.2,0.7-2.4,1-3.6c0.2-0.2,0.5-0.3,0.7-0.1
			c0.3,0.1,0.1,0.4,0.1,0.6c0,0.1,0.1,0.3,0,0.4l0,0C16.1,29.7,16.1,30.1,16.3,30.4z"/>
		<path fill="#B4B4B4" d="M13.6,25.2c0.3,0.5,0.3,0.9,0.1,1.5c-0.2,0.7-0.1,1.4-0.1,2.1c0,0.7,0,1.3,0.1,1.9c0,0.2,0,0.4-0.1,0.5
			c-0.5,0.1-0.5-0.3-0.5-0.6c0-0.3,0.1-0.4-0.2-0.4c-0.1,0-0.2-1.1-0.2-1.2c0-1.5,0-1.3,0-2.8c0-0.1-0.1-0.6,0-0.6
			C13.2,25.5,13.3,25.2,13.6,25.2z"/>
		<path fill="#BBBBBB" d="M13.6,19.1c0.2,1.3,0.1,2.6,0.2,3.9c0.1,0.5,0,1-0.1,1.5c0,0-0.1,0.1-0.2,0.1c-0.2-0.3-0.6-0.2-0.9-0.3
			c-0.2-0.6-0.1-1.2,0.1-1.9c0.2-0.6-0.3-1.4-0.3-2c0-0.1,0-0.2,0.1-0.3c0.3-0.2,0.4-0.5,0.5-0.8c0-0.2,0-0.3,0.2-0.4
			C13.5,18.7,13.5,18.9,13.6,19.1z"/>
		<path fill="#B9B9B9" d="M12.9,7.4c-0.2,0.5,0,1,0.1,1.5c0.2,1.2,0.2,2.4,0.4,3.5c-0.5,0-0.9-0.4-0.7-0.8c0.1-0.4,0-0.6-0.3-0.7
			c-0.1-0.7-0.2-1.4-0.3-2.2c0-0.4,0.1-0.8-0.3-1.2c0.2-0.3,0.5-0.2,0.8-0.2C12.7,7.3,12.8,7.4,12.9,7.4z"/>
		<path fill="#B8B8B8" d="M19.6,9.7c-0.1,0.9-0.2,1.8-0.3,2.8c-0.3-0.1-0.7-0.2-0.9-0.4c0-0.9,0.4-1.7,0.3-2.6
			c-0.1-0.2,0-0.4,0.1-0.5c0.1-0.2,0.2-0.4,0.4-0.3c0.2,0.1,0.4,0.3,0.3,0.5C19.7,9.4,19.4,9.5,19.6,9.7z"/>
		<path fill="#9E9E9E" d="M12.9,30.1c0.1-0.1,0-0.4,0.3-0.4c0.2,0,0.2,0.3,0.2,0.4c0,0.4,0.1,0.7,0.3,1c0,0.8,0.4,1.5,0,2.3
			c-0.1,0.1-0.1,0.2-0.2,0.3c-0.2,0-0.3-0.1-0.3-0.2c0-0.2,0-0.4-0.2-0.4c-0.1,0,0-0.7,0-0.7c-0.2-0.8,0.1-0.8,0-1.7
			C12.9,30.4,12.7,30.2,12.9,30.1z"/>
		<path fill="#ADADAD" d="M13.4,33.7c0.1-0.1,0.2-0.2,0.2-0.2c0.1,0.2,0.2,0.4,0.1,0.7c-0.1,0.1,0,0.4,0,0.6c-0.1,0.1,0.1,0.3,0,0.4
			c0.2,0.3-0.1,0.8-0.2,1.2c0,0.1,0,0.2,0,0.2c-0.4-0.7-0.7-0.1-1.1,0c-0.5-0.1-0.6-0.6-0.8-1c0,0-0.1-0.1,0-0.2
			c0.5-0.2,1-0.5,1.3-1c0.2-0.2,0.2-0.5,0.2-0.8c0-0.2,0-0.9,0.3-0.9c0.2-0.1,0.1,0.3,0.2,0.3c0.3,0-0.3,0.3-0.2,0.4
			C13.1,33.6,13.1,33.8,13.4,33.7z"/>
		<path fill="#7A7A7A" d="M20,4.8c0,0.3-0.1,0.6-0.1,1c-0.3,0.3-0.1,0.7-0.2,1c-0.1,0.5-0.2,0.6-0.7,0.3c-0.1-0.2,0.1-0.4-0.1-0.6
			c-0.1-0.7-0.2-1.3,0.1-2c0.2-0.1,0.2-0.2,0.2-0.4c-0.1-0.2,0-0.4,0-0.6c0-0.2,0-0.5,0.3-0.5c0.3,0,0.2,0.3,0.3,0.4
			C20.1,3.9,19.7,4.4,20,4.8z"/>
		<path fill="#969696" d="M18.2,21.7c-0.2,1-0.3,2-0.5,3c-0.5,0.4-0.7-0.1-0.9-0.4c0.2-1,0.3-1.9,0.5-2.9
			C17.8,21.1,17.9,21.7,18.2,21.7z"/>
		<path fill="#B3B3B3" d="M19.2,14.4c-0.2,0.9-0.2,1.8-0.5,2.6c-0.3-0.2-0.2-0.6-0.3-0.9c0-0.1,0-0.1,0.1-0.1c0,0,0-0.1,0-0.1
			c0,0.1,0,0.1-0.1,0.1c-0.1,0.1-0.1,0.3-0.2,0.3c-0.1,0-0.2,0-0.2-0.1c0.2-0.8,0.1-1.6,0.4-2.4c0.1-0.3,0.2-0.6,0.2-1
			c0-0.2,0-0.4,0.2-0.4c0.3,0,0.3,0.2,0.3,0.4c0,0.1,0,0.2,0,0.4c0,0.1,0,0.1,0.1,0.2C19,13.7,19.4,14.1,19.2,14.4z"/>
		<path fill="#C2C2C2" d="M13.5,19c-0.1,0-0.3-0.2-0.3,0c0,0.5,0,1.1-0.1,1.6c-0.3,0.1-0.4-0.4-0.5-0.6c-0.2-0.5,0.2-1.1,0.1-1.6
			c0-0.5-0.2-1.1,0-1.6c0.2-0.1,0,0,0.2,0c0.1,0,0.2,0.2,0.4,0.1c0.1,0,0.1,0,0.1,0.1C13.7,17.7,13.9,18.4,13.5,19z"/>
		<path fill="#BFBFBF" d="M18.9,6.5C19,6.6,19,6.9,19,7.1c0.3,0.2,0.6,0.2,0.6-0.3c0-0.1-0.1-0.3,0.2-0.3c0,1.1-0.1,2.2-0.2,3.3
			c0,0-0.1-0.1-0.1-0.1c-0.1-0.2,0.2-0.5-0.2-0.6C19,9,18.9,9.2,18.8,9.5c-0.2-0.5,0.1-1,0.1-1.5C18.9,7.5,18.9,7,18.9,6.5z"/>
		<path fill="#B8B8B8" d="M13.5,17c0,0-0.1,0-0.1,0c0,0-0.1,0-0.1,0c-0.1,0-0.2-0.6-0.4-0.1c0,0,0,0,0,0.1c-0.2,0.1-0.1,0-0.2-0.1
			c0-0.6-0.3-1.1,0-1.5c0-0.2-0.1-0.3,0.1-0.4c0.2-0.4,0.2-0.9,0.1-1.4c-0.1-0.5-0.1-0.7,0.4-0.8c0.2,0.6,0,1.2,0.2,1.8
			C13.6,15.4,13.5,16.2,13.5,17z"/>
		<path fill="#909090" d="M16.8,24.3c0.3,0,0.5,0.5,0.8,0.1c0,0,0,0.2,0.1,0.3c0,0.2-0.1,0.5-0.1,0.7c-0.2,0.2-0.2,0.3,0,0.5
			c-0.1,0.3-0.1,0.7-0.3,1c0,0-0.1,0-0.1,0c-0.2,0.1-0.3,0.4-0.6,0.3c-0.3-0.1-0.1-0.4-0.2-0.6c0-0.3,0-0.6,0.1-0.8
			c0.3-0.3,0.5-0.5,0.3-0.9C16.8,24.6,16.8,24.5,16.8,24.3z"/>
		<path fill="#A9A9A9" d="M18.8,17.5c-0.1,0.9-0.2,1.8-0.3,2.6c0,0-0.1,0-0.1,0c-0.2-0.3-0.5,0.1-0.8-0.1c-0.1-0.7,0.1-1.4,0.1-2.2
			c0.2-0.1,0.5-0.1,0.7-0.3C18.6,17.4,18.7,17.4,18.8,17.5z"/>
		<path fill="#696969" d="M20,4.8c-0.4-0.4-0.2-1-0.6-1.4c-0.3,0.2-0.2,0.4-0.1,0.7c0.1,0.2,0.1,0.5-0.1,0.6
			c-0.2,0.2-0.2-0.1-0.2-0.2c0-0.7-0.1-1.4-0.2-2.1c0.4,0.4,0.7,0.7,1.3,0.4C19.6,3.4,20.3,4.1,20,4.8z"/>
		<path fill="#A9A9A9" d="M12.8,24.1c0,0,0.1-0.1,0.1-0.1c0.1-0.2,0.2-0.4,0.5-0.4c0.3,0.1,0,0.3,0.1,0.5c0,0.1,0.1,0.2,0.1,0.3
			c0,0.2-0.2,0.5,0,0.7c-0.2,0.3-0.2,0.7-0.7,0.5c-0.2-0.1-0.3-0.2-0.4-0.4c0.1-0.3,0-0.6,0-1C12.6,24.2,12.7,24.1,12.8,24.1z"/>
		<path fill="#7A7A7A" d="M14.7,35.2c0,0.2,0.1,0.4,0.2,0.5c0.1,0.1,0.2,0.2,0.1,0.4c-0.3,0.6-0.5,0.6-0.9,0.2
			c-0.1-0.1-0.1-0.3-0.2-0.4c-0.2-0.3-0.2-0.6,0-0.8c0.2-0.2,0-0.5,0.1-0.7c0,0,0.1-0.1,0.1-0.1c0.3,0,0.5,0.2,0.5,0.5
			C14.5,34.9,14.7,35.1,14.7,35.2z"/>
		<path fill="#7A7A7A" d="M14.7,32.2c0.1,0.1,0.2,0.1,0.3,0.1c0.3,0,0.7-0.1,0.7,0.2c0.1,0.4,0.1,0.8-0.1,1.2
			c-0.1,0.3-0.5,0.2-0.8,0.3c-0.3,0-0.4-0.2-0.4-0.4c0.2-0.4,0.1-0.8,0.2-1.2C14.6,32.3,14.7,32.3,14.7,32.2z"/>
		<path fill="#A7A7A7" d="M18.2,21.7c-0.1,0.1-0.2,0.5-0.4,0.4c-0.2,0-0.1-0.3-0.2-0.4c0-0.1-0.1-0.1-0.2-0.2c0-0.4,0.1-0.7,0.2-1.1
			c0.2-0.2,0.4-0.7,0.8-0.2c0,0,0,0,0,0c0,0.3-0.1,0.6-0.1,0.9c-0.1,0.1-0.2,0.2-0.1,0.4C18.2,21.5,18.2,21.6,18.2,21.7z"/>
		<path fill="#909090" d="M16.5,29.5c-0.1-0.2-0.4-0.3-0.3-0.7c0-0.3-0.3-0.1-0.5-0.2c0.1-0.2,0.1-0.4,0.2-0.6
			c0.3,0,0.3-0.2,0.4-0.3c0.2-0.4,0.5-0.7,1-0.7C17.1,27.8,16.8,28.6,16.5,29.5z"/>
		<path fill="#878787" d="M17.2,27c-0.4,0.3-0.8,0.6-0.7,1.2c0,0.1-0.1,0.2-0.2,0.2c-0.2,0-0.3-0.2-0.4-0.4c0.2-0.5,0.3-1,0.5-1.4
			c0.1,0.6,0.6,0.2,0.9,0.3C17.2,26.9,17.2,26.9,17.2,27z"/>
		<path fill="#707070" d="M14.5,33.4c0.1,0.2,0.2,0.3,0.4,0.5c0.4,0.5,0,0.9-0.1,1.3c-0.4-0.2-0.4-0.6-0.6-1
			c0.1-0.3,0.2-0.5,0.2-0.8C14.4,33.4,14.4,33.4,14.5,33.4z"/>
		<path fill="#929292" d="M18.7,17.7c-0.2,0.8-0.6,0.1-0.9,0.1c0.1-0.5,0.2-1,0.2-1.6c0.1,0,0.2,0,0.2,0c0.3-0.1,0.4,0.1,0.4,0.4
			C18.6,17,18.3,17.4,18.7,17.7z"/>
		<path fill="#676767" d="M12.6,7.3c-0.1,0.4-0.3,0.4-0.6,0.3c-0.2-0.1-0.3-0.3-0.3-0.7c0-0.2-0.3-0.4-0.2-0.6
			c0.3-0.3,0.5,0,0.6,0.3c0.1,0,0.2,0.1,0.4,0.1C12.6,6.9,12.5,7.1,12.6,7.3z"/>
		<path fill="#B1B1B1" d="M18.4,12.1c0.4-0.1,0.8-0.2,0.9,0.4c0.2,0.3,0,0.7-0.1,1c0,0.1-0.1,0.1-0.1,0l0,0
			c-0.1-0.1-0.1-0.1-0.1-0.2c0.1-0.5-0.2-0.7-0.6-0.8C18.4,12.3,18.4,12.2,18.4,12.1z"/>
		<path fill="#BDBDBD" d="M18.4,12.5c0.7,0,0.7,0.5,0.7,1c-0.3-0.1-0.2-0.4-0.4-0.7c-0.1,0.4-0.2,0.8-0.4,1.1
			C18.4,13.4,18.4,12.9,18.4,12.5z"/>
		<path fill="#9B9B9B" d="M18.4,20.1c-0.1,0.1-0.3,0-0.4,0.2c-0.1,0.3-0.3,0.1-0.4,0c0-0.1,0-0.2,0-0.4c0,0,0.1-0.1,0.1-0.1
			c0.2-0.1,0.1-0.5,0.4-0.4C18.4,19.6,18.4,19.9,18.4,20.1z"/>
		<path fill="#9C9C9C" d="M16.8,24.8c0.5,0.4,0.4,0.7-0.3,0.9C16.5,25.4,16.5,25.1,16.8,24.8z"/>
		<path fill="#848484" d="M14.5,33.4c0,0-0.1,0-0.1,0c0.1-0.4,0.2-0.7,0.2-1.1C15,32.8,14.8,33.1,14.5,33.4z"/>
		<path fill="#B4B4B4" d="M37.3,11.6c-0.1,0.2-0.3,0.3-0.3,0c0-0.4-0.3-0.7-0.1-1.2c0.1-0.2-0.1-0.5-0.3-0.5c-0.3,0-0.2,0.2-0.2,0.4
			c0,0.3-0.2,0.3-0.2,0.6c-0.3,0.1-0.4-0.3-0.4-0.5c-0.1-0.2-0.1-0.6-0.1-0.9c0-0.3,0.1,0.2-0.2-0.7c-0.1-0.2,0-0.8,0.3-0.9
			c0.2,0,0,0.3,0.3,0.5c-0.1,0.6,0,1.1,0.7,1.2c0.4,0.4,0.4,0.9,0.5,1.4C37.2,11.2,37.2,11.4,37.3,11.6z"/>
		<path fill="#6A6A6A" d="M35.9,8.4c-0.2,0-0.5,0-0.7,0c-0.2,0-0.2-0.1-0.1-0.2c-0.1-0.1-0.2-0.2,0-0.4c0.2-0.3,0.4,0,0.7,0
			c0.1,0.3-0.2,0.3-0.3,0.4c0.2,0.1,0.5,0.1,0.7,0.2C36,8.4,36,8.4,35.9,8.4z"/>
		<path fill="#BABABA" d="M3.4,20.3c0-0.1-0.1-0.1-0.1-0.2c0.4,0,0.7,0,0.7-0.5c0.6,0.8,1.3,1.6,1.7,2.5c0.3,0.6,0.9,1,1,1.7
			c0.2,0.4,0,0.6-0.4,0.7c-0.4-0.8-0.8-1.7-1.4-2.5C4.5,21.4,4,20.8,3.4,20.3z"/>
		<path fill="#BABABA" d="M7.2,15.2c0.2,0.1,0.3,0.4,0.5,0.2c0.1-0.2,0.1-0.5,0-0.8c0-0.1,0-0.2,0.1-0.3C8,14.6,8,14.9,8.1,15.2
			c0.2,0,0.3,0.2,0.4,0.3C8.7,16.3,9.1,17,9,17.8c-0.4,0.3-0.1,0.9-0.4,1.2c0,0-0.1,0.1-0.2,0.1c-0.2-0.7-0.6-1.3-0.6-2
			c0-0.2-0.2-0.4-0.3-0.6c-0.1-0.2-0.2-0.4-0.4-0.5C6.9,15.6,6.9,15.4,7.2,15.2z"/>
		<path fill="#BABABA" d="M9.8,24.2c-0.2-0.5-0.3-1-0.3-1.5c0-0.7-0.3-1.3-0.4-1.9c0-0.1,0.1-0.1,0.2-0.1c0.3,0.1,0.3,0.7,0.8,0.5
			c0.1,0,0.1,0,0.2,0.1c0.4,0.7,0.3,1.5,0.5,2.2c0.1,0.4,0.1,0.8,0.1,1.1c-0.1,0.2-0.3,0.4-0.5,0.4c-0.3,0-0.2-0.3-0.2-0.6
			C10.1,24.3,9.9,24.2,9.8,24.2z"/>
		<path fill="#B9B9B9" d="M9.3,20.8c-0.1,0-0.2,0-0.2,0c-0.4-0.5-0.3-1.2-0.6-1.8c0,0,0-0.1,0-0.1c0.2-0.2,0.5-0.3,0.8-0.4
			c0.1,0,0.1,0,0.2,0c0.4,0.7,0.6,1.5,0.7,2.3c0,0.2,0,0.4-0.2,0.5l0,0c-0.2,0.1-0.4,0-0.4-0.2C9.6,21,9.4,21,9.3,20.8z"/>
		<path fill="#AFAFAF" d="M6.3,24.6c0-0.3,0.2-0.5,0.4-0.7c0.3,0,0.4,0.4,0.6,0.5c0,0.2,0.1,0.3,0.1,0.5c-0.1,0.3,0,0.5,0,0.8
			c0,0.2,0.2,0.4,0,0.6c-0.1,0.1-0.2,0.2-0.3,0.2C6.9,25.8,6.8,25.1,6.3,24.6z"/>
		<path fill="#BEBEBE" d="M19.8,24.5c1.1-2.1,1.8-4.4,2.6-6.6c0.8-2.4,1.5-4.9,2.4-7.2c0.4-1,0.9-2.1,1.2-3.1c0.3,0.1,0.7,0.2,1,0.4
			c-0.2,0.8-0.3,1.7-0.9,2.4c-0.2,0.2-0.2,0.5-0.3,0.8c-0.2,0.5-0.3,1-0.7,1.4c-0.2,0.2-0.3,2.2-0.5,2.6c-0.3,0.6-0.6,1.8-0.9,2.4
			c-0.1,0.2-0.3,1-0.4,1.2c-0.1,0.3,0,0.5-0.2,0.7c-0.1,0.5-0.1,1.1-0.4,1.6c-0.2,0.3-0.3,0.5-0.6,0.6c-0.1,0.1,0,0.1,0,0.2
			c-0.1,0.8-0.3,1-0.8,1.8c-0.6-0.1-0.6,0.5-0.8,0.8c-0.1,0.2-0.1,0.4-0.3,0.4C19.9,24.9,19.9,24.6,19.8,24.5z"/>
		<path fill="#6E6E6E" d="M31.4,9.9c0-0.3,0.3-0.4,0.5-0.6c0.4-0.4,0.8-0.8,1.2-1.2c0.2,0.1,0.1,0.4,0.2,0.5c0,0.3,0.1,0.5,0.4,0.5
			c0.1-0.1,0.1-0.1,0.2,0c0.1,0.1-0.3,0.4-0.4,0.5c-1,0.9-1.7,2-2.7,2.8c-0.1,0,0.2-0.2,0.1-0.2c-0.2,0-0.5,0-0.5-0.3
			c0-0.3,0.2-0.4,0.4-0.4c0.1,0,0.2-0.1,0.2-0.1c0-0.4,0.2-0.6,0.5-0.9c0,0,0-0.2,0-0.3C31.3,10.1,31.3,10,31.4,9.9z"/>
		<path fill="#8A8A8A" d="M27,7.9c-0.1,0.2-0.1,0.6-0.4,0.5C26.2,8.3,26,7.9,26,7.5c0.2-0.3,0.1-0.7,0.4-0.9c0.2,0,0.2-0.4,0.5-0.4
			c0.3-0.2,0.3,0,0.4,0.2c0,0.2,0,0.4,0.1,0.6C27.2,7.3,27.1,7.6,27,7.9z"/>
		<path fill="#6D6D6D" d="M26.8,6.2c-0.1,0.1-0.1,0.3-0.2,0.4c-0.1,0.3-0.2,0.2-0.3,0c0.1-0.2,0.2-0.5,0.2-0.7
			C26.7,5.9,26.8,6.1,26.8,6.2z"/>
		<path fill="#696969" d="M27.2,3.7c-0.6,0-1.1-0.4-1-0.7c0.2,0,0.3-0.2,0.6-0.2c0,0.2-0.1,0.4-0.1,0.6C26.5,3.4,27.1,3.6,27.2,3.7z
			"/>
		<path fill="#B0B0B0" d="M19.8,24.5c0.2,0.1,0.4,0.2,0.5-0.1c0.2-0.5,0.7-0.9,0.6-1.6c0.3,0.3,0.3,0.6,0.4,0.8
			c0.3,0.1,0.1,0.2,0,0.5c-0.6,1.4-1.2,2.5-1.8,3.9c-0.3,0.7-0.6,1.1-0.9,1.8c-0.1,0.1-0.3,0.8-0.5,0.8c-0.3-0.3-0.4-0.7-0.6-1.1
			c0.3-0.6,0.6-1.2,0.9-1.8c0.5,0.2,0.3-0.2,0.4-0.4C18.9,26.2,19.4,25.4,19.8,24.5z"/>
		<path fill="#8F8F8F" d="M17.1,31.7c-0.5-0.2-0.7-0.6-0.8-1.1c0.4,0.3,0.4-0.1,0.6-0.2c0.3-0.1,0.7-0.5,1,0
			C17.8,31,17.6,31.4,17.1,31.7z"/>
		<path fill="#979797" d="M17.9,30.3c-0.3,0.1-0.7,0.5-1,0c0.1-0.4,0.4-0.6,0.5-0.9C17.9,29.5,18,29.8,17.9,30.3
			C17.9,30.4,17.9,30.4,17.9,30.3z"/>
		<path fill="#9E9E9E" d="M18.7,27.2c0.1,0,0.1,0,0.2,0c0.2,0,0.2-0.4,0.5-0.2c0.2,0.2-0.1,0.4-0.2,0.5c-0.1,0.1-0.2,0.3-0.2,0.5
			c0,0.2-0.2,0.4-0.3,0.4c-0.2,0-0.2-0.2-0.3-0.4c0-0.2,0-0.3,0-0.5C18.4,27.4,18.6,27.3,18.7,27.2z"/>
		<path fill="#9D9D9D" d="M18.7,17.7c-0.5,0.1-0.6,0-0.4-0.5c0.2-0.3,0.3-0.7-0.1-1c0.1-0.1,0.2-0.2,0.2-0.2l0,0
			c0.3,0.3,0.2,0.6,0.3,1c-0.1,0.2,0,0.3,0.1,0.5C18.8,17.6,18.7,17.7,18.7,17.7z"/>
		<path fill="#696969" d="M19.9,6.4c0,0.2-0.1,0.4-0.1,0.5c-0.2,0.3-0.4,0.5-0.7,0.1c0.5,0,0.5-0.3,0.5-0.7c0-0.2-0.2-0.6,0.3-0.6
			C19.9,6,19.9,6.2,19.9,6.4z"/>
		<path fill="#909090" d="M16.3,30.4c-0.2-0.1-0.4-0.1-0.8-0.2c0.5-0.1,0.5-0.8,1-0.7C16.4,29.8,16.4,30.1,16.3,30.4z"/>
		<path fill="#A4A4A4" d="M17.6,25.9c-0.1,0.1-0.3,0.2-0.5,0.3c0-0.4,0.1-0.7,0.5-0.8C17.6,25.6,17.6,25.7,17.6,25.9z"/>
		<path fill="#BDBDBD" d="M19.2,13.4c0,0,0.1,0,0.1,0c0,0.3,0,0.7-0.1,1C19.2,14.1,18.6,13.7,19.2,13.4z"/>
		<path fill="#959595" d="M18.2,21.5c-0.1,0-0.3,0.1-0.4,0c0-0.3,0.2-0.3,0.4-0.3C18.3,21.2,18.3,21.3,18.2,21.5z"/>
		<path fill="#8C8C8C" d="M10.5,6c0.2-0.1,0.3-0.2,0.5-0.3c0.2-0.2,0.4-0.2,0.6,0c0,0.1-0.1,0.2-0.1,0.2c-0.1,0.6-0.6,0.2-0.8,0.4
			C10.5,6.3,10.5,6.1,10.5,6z"/>
		<path fill="#808080" d="M10.6,6.3c0.3-0.1,0.6-0.2,0.8-0.4c0.4,0,0.7,0.1,0.6,0.6c-0.2-0.1-0.4-0.2-0.5-0.2
			c-0.1,0.2-0.3,0.3-0.5,0.1C10.9,6.4,10.8,6.4,10.6,6.3z"/>
		<path fill="#AEAEAE" d="M7.2,26.4c0-0.1,0.1-0.2,0.1-0.2c0.5-0.1,0.6,0.3,1,0.5c0.1,0.9,0.5,1.7,0.7,2.5c0.4,0.4,0.5,0.9,0.2,1.4
			c-0.3,0.2-0.4,0.4-0.5,0.7c-0.2-1.2-0.8-2.2-0.9-3.5C7.8,27.3,7.4,26.8,7.2,26.4z"/>
		<path fill="#6A6A6A" d="M34.7,8.5c-0.3,0.3-0.7,0.6-1,0.9c0,0-0.2-0.1-0.3-0.1c-0.1-0.3,0.6-1.2,0.8-1.2
			C34.5,8.1,34.6,8.4,34.7,8.5z"/>
		<path fill="#878787" d="M34.6,32C34.6,32,34.6,31.9,34.6,32c0.2-0.2,0.3-0.4,0.4-0.6c0-0.1,0.2-0.3,0.4-0.2
			c0.2,0.1,0.2,0.2,0.2,0.3c0,0.4-0.1,0.7-0.4,0.8c0,0,0,0,0,0c-0.1,0.1-0.2,0.4-0.5,0.4C34.6,32.5,34.7,32.2,34.6,32z"/>
		<path fill="#8A8A8A" d="M36.3,28.4c0.1-0.1,0.1-0.3,0.4-0.4c-0.2,0.5,0.1,1.1-0.2,1.6c-0.4,0.1-0.3,0.7-0.7,0.8
			c-0.1,0-0.1-0.1-0.2-0.2c0-0.4,0.2-1.7,0.4-1.9C36.1,28.3,36.2,28.3,36.3,28.4z"/>
		<path fill="#949494" d="M35.8,30.2c0,0.1,0,0.2,0,0.2c-0.2,0.7,0.1,1.5-0.7,1.9c0.3-0.5,0.3-0.5,0.2-0.9c-0.3,0.1-0.3,0.5-0.7,0.5
			c0-0.1,0-0.2,0-0.2c0.2-0.3,0.1-0.5,0.4-0.7c0.2-0.1,0.1-0.3,0.2-0.5C35.4,30.2,35.5,29.9,35.8,30.2z"/>
		<path fill="#B1B1B1" d="M26.2,38.6c0.3-0.2,0.5-0.4,1-0.3c-0.2,0.4-0.6,0.2-0.8,0.4C26.3,38.7,26.3,38.6,26.2,38.6z"/>
		<path fill="#A0A0A0" d="M22.7,39.8c0.2-0.2,0.3-0.2,0.5-0.1c0,0,0.1,0.1,0.1,0.1C23.1,40,22.9,39.9,22.7,39.8z"/>
		<path fill="#BBBBBB" d="M22.2,36c1.1-0.4,2.1-1.1,3.2-1.4c0.3-0.4,1-0.6,1.6-0.6c0.3,0.3,0.6,0.4,0.7,0.8c0,0.1-0.6,0.3-0.6,0.3
			c-0.3,0-0.5,0.2-0.8,0.3c-0.3,0.2-0.3,0.2-0.6,0.4c-0.4,0-0.3,0.1-0.8,0.3c-0.1,0-0.8,0.3-0.9,0.4c-0.6,0-0.8,0.4-1.4,0.6
			C22,36.7,22.1,36.3,22.2,36z"/>
		<path fill="#C2C2C2" d="M22.2,36c0.2,0.3,0.2,0.6,0.4,1c-0.1,0.1-0.2,0.2-0.4,0.2c0-0.1-0.1-0.1-0.1,0c-0.9,0.4-1.6,1.2-2.5,1.6
			c-0.2-0.2-0.1-0.4,0.2-0.6c-0.6,0.6-0.6,0.6-1-0.1C19.8,37.3,21,36.6,22.2,36z"/>
		<path fill="#ACACAC" d="M18.7,38c0.3,0.1,0.5,0.4,0.9,0.1c0.2-0.2,0.4-0.4,0.8-0.5c-0.2,0.5-0.8,0.6-0.8,1.1
			c-0.5,0.5-0.7,1.2-1,0.3C18.6,39,18.5,38.1,18.7,38z"/>
		<path fill="#BBBBBB" d="M22,37.2c-0.2,0-0.4-0.1-0.6-0.1c0.2-0.2,0.4-0.3,0.6-0.4c0.1,0.2,0,0.4,0,0.6
			C22.1,37.2,22.1,37.2,22,37.2z"/>
		<path fill="#AAAAAA" d="M10.3,34.3c0,0,0.1,0,0.1,0c0.1,0.4,0.3,0.9,0.1,1.3c0,0-0.1,0-0.1,0c-0.5,0-0.5-0.5-0.6-0.8
			C9.7,34.6,10,34.4,10.3,34.3z"/>
		<path fill="#898989" d="M10.3,34.3c-0.4,0.5-0.2,0.9,0.1,1.3c0,0.2-0.1,0.4-0.4,0.2c-0.1-0.1-0.2-0.2-0.2-0.3
			c-0.2-1.1-0.5-2.1-0.7-3.2c-0.1-0.3,0.2-0.6,0.4-0.9c0.1,0.4,0.3,0.7,0.4,1c0.1,0.2,0.3,0.4,0.1,0.6C9.9,33.5,10.1,33.9,10.3,34.3
			L10.3,34.3z"/>
		<path fill="#8C8C8C" d="M14.1,36.3c0.4,0.2,0.5-0.2,0.7-0.3c0.2,0.2,0.3,0.7,0.8,0.5c0.1,0,0.1,0.2,0,0.3c0,0,0,0.1,0,0.1
			c-0.2,0.1-0.3,0.4-0.5,0.6c-0.2,0.2-0.4,0.3-0.7,0.2c-0.2-0.1-0.3-0.3-0.3-0.5C14.2,36.9,14.1,36.6,14.1,36.3z"/>
		<path fill="#989898" d="M15.8,36.7c-0.5-0.2-0.3,0.5-0.7,0.5c-0.1-0.2,0.2-0.3,0.1-0.6c-0.5,0.1-0.5,0.1-0.4-0.4
			c0-0.2,0.1-0.3,0.1-0.5c0-0.1,0.1-0.2,0.1-0.2c0.2,0,0.6-0.2,0.6-0.4c0.2-0.5,0.5-1,0.8-1.3c0.8,0,0.7,0.2,0.8,0.7
			c0.2,0.4-0.3,0.4-0.4,0.6c-0.1,0.3,0.4,0.4-0.2,0.8C16.4,36.3,16,36.5,15.8,36.7z"/>
		<path fill="#C5C5C5" d="M16.5,36.2c0.2-0.2,0.4-0.3,0.4-0.5c0.4-0.3,0.6-0.6,0.7-0.1c0.1,0.2,0.4,0.1,0.5,0.3
			c-0.3,0.2-0.5,0.6-0.6,0.7c-0.3,0.2-0.7,0.3-0.8,0.8c-0.1,0.1,0.5-0.1,0,0.5c-0.3,0.2-0.6-0.8-0.5-0.9c0.2-0.3,0.8-0.4,0.2-0.5
			C16.4,36.4,16.5,36.3,16.5,36.2z"/>
		<path fill="#8F8F8F" d="M16.6,37.2c0,0.1,0,0.1,0,0.2c-0.2,0-0.4,0.1-0.5-0.1c0,0,0-0.2,0.1-0.2C16.4,37,16.5,37.1,16.6,37.2z"/>
		<path fill="#A6A6A6" d="M19.9,35.3c0.3-0.3,0.7-0.4,1.1-0.6c0.6,0.3,0.3,0.7,0.2,1.1c-0.8,0.3-1.2,1-1.9,1.4
			c0.1-0.2,0.1-0.4,0.3-0.6c0.2-0.1,0.3-0.3,0.1-0.5C19.5,35.8,20.1,35.6,19.9,35.3z"/>
		<path fill="#A0A0A0" d="M38.2,23c0,0.1,0,0.2,0,0.2c-0.4,0.1-0.6,0.3-0.6,0.8c-0.4-0.2-0.3-0.4-0.3-0.7c0.1-0.8,0.2-1.6,0.1-2.4
			c0.5-0.2,0.6,0,0.5,0.4c-0.1,0.4-0.1,0.9-0.2,1.3C37.8,23,37.9,23.1,38.2,23z"/>
		<path fill="#ACACAC" d="M36.5,25.8c0-0.3,0-0.6,0.1-0.8c0.1,0,0.2,0,0.4,0C37,25.3,36.9,25.6,36.5,25.8z"/>
		<path fill="#ACACAC" d="M36.4,25.8c0,0,0.1,0,0.1,0c0.5,0.3,0.4,0.6,0,1c0,0,0,0,0,0C36,26.5,36.4,26.1,36.4,25.8z"/>
		<path fill="#717171" d="M37.4,18.8c0-1.2,0-0.8-0.4-0.3c-0.2,0.2-0.7,0.6-0.9,0.8c-0.2,0.2-0.3,0.5-0.6,0.6
			c-0.3,0.2-0.4,0-0.5-0.3c0-0.2-0.2-0.4,0-0.6c0.1-0.4,0.6-0.6,0.7-0.9c0.4-0.3,0.6-0.4,0.8-0.9c0.1-0.3,0.3-0.6,0.7-0.6
			c0,0,0,0.1,0,0.1c0,0.3,0.1,0.6,0.5,0.5c0.1,0,0.2-0.1,0.2,0.1c0,0.5,0.4,1.1-0.2,1.6C37.7,18.8,37.4,18.8,37.4,18.8z"/>
		<path fill="#717171" d="M37.7,15.7c0.1,0.2,0.1,0.3,0,0.5c-0.2,0.1-0.3,0.3-0.5,0.5c0,0,0,0,0,0c-0.3-0.2,0.3-0.3-0.1-0.6
			c0.1-0.2,0-0.5,0.2-0.6C37.5,15.4,37.7,15.4,37.7,15.7z"/>
		<path fill="#B1B1B1" d="M12.7,14.6c0.1-0.4,0-0.7-0.1-1c-0.2-0.6-0.1-1.2-0.2-1.9c-0.2-0.2-0.3-0.4-0.1-0.7c0,0,0-0.1,0-0.1
			c0.1-0.1,0.1-0.1,0.2-0.2c0.1-0.1,0-0.4,0.3-0.3c0.2,0.1,0.4,0.3,0.3,0.5c-0.3,0.6,0,1.1,0.3,1.5c0,0.1-0.1,0.2-0.1,0.4
			c-0.3,0.6-0.1,1.3-0.1,1.9c0,0.4-0.1,0.5-0.4,0.3C12.8,14.9,12.7,14.7,12.7,14.6z"/>
		<path fill="#626262" d="M37.4,15.6c0-0.1,0-0.2,0-0.2c0.2-0.4,0.5-0.6,0.9-0.1c0,0.1,0.1,0.2-0.1,0.1c-0.4-0.2-0.4,0.1-0.4,0.3
			C37.6,15.6,37.5,15.6,37.4,15.6z"/>
		<path fill="#959595" d="M15.7,31.5c-0.1-0.4,0-0.6,0.2-0.8c0.1-0.1,0.2,0,0.2,0.1C16.1,31.1,15.9,31.2,15.7,31.5z"/>
		<path fill="#6D6D6D" d="M16.4,31.9c-0.1,0.1-0.2,0.2-0.4,0.2c-0.1,0-0.2-0.1-0.2-0.2c0.1-0.2,0.2-0.2,0.4-0.2
			C16.3,31.7,16.4,31.8,16.4,31.9z"/>
		<path fill="#8D8D8D" d="M13.4,33.7c-0.1,0.1-0.1,0.3-0.3,0.2c-0.1,0-0.1-0.2-0.1-0.3c0-0.2,0-0.3-0.1-0.5c0.1-0.2,0.2-0.4,0.4-0.7
			C13.3,32.9,13.2,33.3,13.4,33.7z"/>
		<path fill="#8B8B8B" d="M12.3,34.4c-0.1,0,0.6,0,0.6,0c0.1,0.1-0.2,0.4-0.4,0.5c-0.4,0.1-0.4,0.4-0.4,0.7c0,0.2-0.1,0.4-0.3,0.1
			c-0.1-0.1-0.2-0.2-0.3-0.3c0-0.2,0-0.5,0-0.7c0,0,0,0,0-0.1c0.1-0.1,0.3-0.2,0.5-0.3C12.2,34.3,12.1,34.4,12.3,34.4z"/>
		<path fill="#959595" d="M13.5,35.1c-0.1,0.1-0.2,0.2-0.2,0.2c-0.2,0-0.3,0-0.3-0.2c0-0.2,0-0.4,0.1-0.6c0.1-0.1,0.2,0,0.3,0.1
			C13.4,34.8,13.5,35,13.5,35.1z"/>
		<path fill="#999999" d="M12.5,36c0.1-0.2,0.3-0.2,0.5-0.3C12.8,36,12.8,36,12.5,36z"/>
		<path fill="#9C9C9C" d="M18.4,16.1c-0.1-0.3-0.3-0.5-0.1-0.9C18.6,15.4,18.6,15.7,18.4,16.1C18.4,16,18.4,16.1,18.4,16.1z"/>
		<path fill="#B8B8B8" d="M13.4,17c0,0.3-0.2,0.5-0.5,0.7c-0.1-0.2,0.1-0.5,0-0.7c0,0,0,0,0,0c0-0.2,0-0.3,0.2-0.3
			C13.4,16.7,13.3,16.9,13.4,17L13.4,17z"/>
		<path fill="#A3A3A3" d="M13.4,17c-0.2-0.1-0.3-0.2-0.5,0c0-0.1-0.1-0.1-0.1-0.2c0-0.3-0.1-0.7,0.2-0.7c0.3-0.1,0.2,0.4,0.3,0.6
			C13.4,16.8,13.4,16.9,13.4,17z"/>
		<path fill="#929292" d="M12.8,25.2c-0.2-0.3-0.1-0.6,0-0.8C13.1,24.6,13,24.9,12.8,25.2z"/>
		<path fill="#848484" d="M15.5,33.2c0,0.2-0.1,0.3-0.3,0.4c-0.1,0-0.3,0-0.3-0.2c0-0.2,0.2-0.4,0.4-0.4
			C15.4,33,15.4,33.1,15.5,33.2z"/>
		<path fill="#A3A3A3" d="M10.8,25.8c0.3,0.8,0.3,1.7,0.5,2.5c-0.2,0.1-0.4,0.1-0.6,0.2c-0.1,0-0.1,0-0.2,0
			c-0.3-0.7-0.2-1.4-0.3-2.1c-0.1-0.7-0.4-1.4-0.4-2.1c0.1-0.1,0.1-0.4,0.3-0.3c0.2,0,0.2,0.3,0.2,0.4c0,0.3-0.1,0.5,0.3,0.4
			C10.7,25,10.7,25.4,10.8,25.8c-0.1,0.1-0.1,0.1-0.2,0.1C10.7,25.9,10.7,25.8,10.8,25.8z"/>
		<path fill="#9D9D9D" d="M11.2,28.6c0.4,1,0.2,2,0.4,3c0,0.2,0.1,0.3,0.1,0.5c-0.1,0.1-0.2,0.1-0.3,0.1c-0.1,0-0.2-0.1-0.2-0.2
			c-0.1-0.5-0.1-1.1-0.4-1.6c-0.1-0.1-0.2-0.2-0.3-0.4c-0.1-0.6,0.1-1.1,0-1.7c0,0,0,0,0,0C10.8,28.3,11,28.5,11.2,28.6z"/>
		<path fill="#999999" d="M8.2,26.6c-0.4,0-0.8,0-1-0.5c-0.3-0.5-0.1-1-0.4-1.5c0.3-0.1,0.4,0.1,0.5,0.2c0.1,0.2,0.2,0.4,0.4,0.6
			C7.8,25.9,8.4,26.1,8.2,26.6L8.2,26.6z"/>
		<path fill="#AEAEAE" d="M8.2,26.6c-0.1-0.4-0.5-0.7-0.5-1.2C7.9,25.8,8.5,26,8.2,26.6z"/>
		<path fill="#A8A8A8" d="M8.8,17.8c0.1,0.3,0.2,0.6,0.4,0.8c0,0.2,0.1,0.4-0.1,0.5c-0.3,0.1-0.4-0.2-0.6-0.3c0-0.3,0.1-0.5,0-0.8
			C8.4,17.8,8.6,17.8,8.8,17.8z"/>
		<path fill="#ABABAB" d="M9.3,20.8c0.4,0,0.5,0.4,0.7,0.6C9.5,21.7,9.5,21.7,9.3,20.8z"/>
		<path fill="#B5B5B5" d="M23.1,22.9c0.3-1.1,0.9-2,1.3-3c0.7-1.4,1.6-2.2,2.4-3.6c0.5-0.6,0.8-1.8,1.2-2.4c0.4,0.1,0.9,0.1,1.1,0.6
			c-0.8,1.3-1.9,2.3-2.4,3.7c-0.2,0.5-0.6,0.9-0.9,1.4c-0.6,0.9-0.7,2-1.4,2.8c-0.4,0.4-0.7,1-0.7,1.6c-0.5,0-0.3-0.5-0.4-0.7
			C23.1,23.2,23.1,23,23.1,22.9z"/>
		<path fill="#808080" d="M31,12.1c-0.1,0.4-0.4,0.6-0.7,0.7c-0.3-0.1-0.6,0.2-0.8-0.1c-0.1-0.3,0-0.5,0.1-0.8
			c0.1,0,0.1-0.1,0.2-0.1c0.5-0.4,0.9-0.9,1.3-1.4c0.1-0.2,0.1-0.4,0.4-0.3c0.1,0.3,0.1,0.5,0.1,0.8c0,0.2-0.5,0-0.4,0.5
			c0.1,0.3-0.4,0.3-0.5,0.4C30.7,12.1,30.9,12,31,12.1z"/>
		<path fill="#B5B5B5" d="M29.6,12c0,0.2,0,0.5,0.1,0.7c0.2,0,0.3,0.1,0.3,0.3c0,0.1-0.1,0.3-0.1,0.4c-0.3-0.1-0.6,0.1-0.7,0.3
			c-0.3,0.5-0.7,0.4-1.1,0.2C28.6,13.3,29.1,12.6,29.6,12z"/>
		<path fill="#A4A4A4" d="M28.1,13.9c0.3,0,0.6-0.1,0.9-0.3c0.2-0.2,0.5-0.4,0.9-0.2c-0.4,0.3-0.6,0.7-0.8,1.1
			C28.7,14.4,28.3,14.2,28.1,13.9C28.1,13.9,28.1,13.9,28.1,13.9z"/>
		<path fill="#717171" d="M31.5,10.2c-0.3,0.2-0.3,0.5-0.5,0.7c-0.3,0.4-0.6,0.8-1.2,1c0.5-0.7,0.9-1.4,1.6-1.9
			C31.4,10,31.5,10.1,31.5,10.2z"/>
		<path fill="#A3A3A3" d="M21.9,21.3c0,0.2-0.1,0.3-0.1,0.5c-0.3,0-0.3-0.3-0.3-0.5c0-0.2,0.1-0.3,0.3-0.3
			C22,21,21.9,21.2,21.9,21.3z"/>
		<path fill="#BDBDBD" d="M25.1,29.7c-0.1,0-0.2,0.1-0.3,0.1c-0.2,0-0.3,0.1-0.4,0.2c-0.8,0.9-1.8,1.7-2.8,2.4
			c-0.4,0.3-0.6,0.8-1,1.2c-0.1,0.1-0.2,0.3-0.4,0.4c-0.8,0.3-1,1.1-1.8,1.4c-0.3,0.1-0.6,1-0.9,1.1c-0.1,0-0.9-0.5-0.9-0.5
			c0-0.4,0.6-0.6,0.5-0.8c-0.1-0.3,0.1-0.4,0.2-0.5c0.1-0.1,0.3,0.1,0.3,0c0.4-0.4,0.8-0.6,0.9-0.8c1.2-1.1,2.4-2.2,3.7-3.3
			c0.5-0.4,1-0.8,1.5-1.2c0.2,0,0.3-0.1,0.5-0.1C25,29,25,29,25.1,29.7z"/>
		<path fill="#B3B3B3" d="M16.2,34.2c0.2-0.2,0.4-0.4,0.6-0.6c0.8-1.4,1.7-2.7,2.5-4c0.6-0.1,0.6-0.1,0.5,0.5
			c0.1-0.1,0.1-0.3,0.1-0.4c0-0.2,0-0.3,0.2-0.4c0.1,0,0.2,0,0.3,0.1c0.2,0.2,0.1,0.3,0,0.5c-0.1,0.1,0,0.1,0,0.2
			c-0.4,0.9-1.1,1.7-1.6,2.6c-0.3,0.5-1.1,2-1.5,2.4C17,35.1,16.4,34.4,16.2,34.2z"/>
		<path fill="#B2B2B2" d="M27.2,26.4c0.9-0.9,1.9-1.7,2.8-2.6c0.5-0.5,0.4-0.7,1-1c0.1,0,0.2-0.3,0.3-0.3c0.4,0.2,0.4,0.8,0.7,1.1
			c0,0.1-0.4,0.3-0.4,0.4c-1.1,0.8-1.1,1.2-2.4,2.2c-0.2,0.3-0.6,0.6-0.9,0.8c-0.1,0-0.3,0.4-0.3,0.4c-0.3,0.2-0.6,0.1-0.8-0.1
			c-0.3-0.2,0-0.5,0.1-0.7C27.2,26.5,27.2,26.4,27.2,26.4z"/>
		<path fill="#ABABAB" d="M20.4,29.8c-0.2-0.1-0.1-0.3-0.2-0.5c-0.4,0.4-0.3,1-0.8,1.3c-0.3-0.4,0.6-0.9-0.2-1.2
			c0.7-1,1.1-2.1,1.8-3c0.2-0.1,0.5-0.3,0.6-0.6c0.1-0.2,0.2-0.4,0.5-0.3c0.2,0.1,0.4,0.3,0.3,0.6c-0.7,0.8-1.1,1.8-1.6,2.7
			C20.6,29.2,20.7,29.6,20.4,29.8z"/>
		<path fill="#B5B5B5" d="M22.4,26.1c-0.1-0.2-0.3-0.4-0.5-0.1c-0.2,0.4-0.5,0.4-0.9,0.5c0.6-1.1,1.1-2.1,1.7-3.2
			c0.3,0.1,0.5-0.5,0.8-0.1c-0.1,0.3-0.1,0.6,0,0.9C23.4,24.8,22.6,25.3,22.4,26.1z"/>
		<path fill="#808080" d="M35,19c0.4,0.2,0.3,0.6,0.5,0.9c-0.4,0.7-1.1,1-1.6,1.5c-0.5,0.1-1.1,0.1-1.4,0.6
			c-0.1,0.1-0.3,0.1-0.3-0.1c0-0.1,0-0.2,0.1-0.2c0.8-0.6,1.4-1.5,2.2-2.1C34.5,19.3,34.7,19.1,35,19z"/>
		<path fill="#BBBBBB" d="M27.2,26.4c0.2,0,0.3,0.1,0.5,0.1c0,0.3-0.3,0.3-0.3,0.6c0.1,0.1,0.3,0,0.4,0c0,0.1,0.1,0.2,0,0.2
			c-0.4,0.2-0.5,0.6-0.9,0.9c-0.5,0-0.7,0.4-1.1,0.6c0,0-0.1,0-0.1,0c-0.7,0.1-0.7,0-0.5-0.6C25.8,27.5,26.5,26.9,27.2,26.4z"/>
		<path fill="#AFAFAF" d="M25.3,28.2c0.3,0.1,0.1,0.7,0.6,0.6c-0.3,0.3-0.6,0.6-0.7,1c-0.2-0.2-0.4-0.3-0.7-0.2
			c-0.2,0.1-0.4,0-0.6-0.2C24.2,28.9,24.7,28.5,25.3,28.2z"/>
		<path fill="#B0B0B0" d="M31.1,22.6c0.1-0.2,0.2-0.3,0.4-0.5c0.2-0.2,0.4-0.4,0.6-0.6c0,0.1,0,0.2,0,0.2c0.4,0.2,2-1.2,2.2-0.8
			c0,0.1-1.6,1.7-1.7,1.8c-0.3,0.1-0.7,1-1,1C31.1,23.8,31.5,22.8,31.1,22.6L31.1,22.6z"/>
		<path fill="#6C6C6C" d="M30.1,13c-0.2-0.1-0.3-0.2-0.3-0.3c0-0.1,0-0.2,0.1-0.3c0.1,0.2,0.6,0,0.5,0.4C30.2,12.9,30.1,13,30.1,13z
			"/>
		<path fill="#858585" d="M33.3,33c-1.3,0.1-2.5,0.8-3.7,1.1c-0.6,0.1-1-0.1-1.2-0.7c0-0.1,0-0.1,0-0.2c0.7-0.4,1.4-0.5,2.2-0.8
			c0.2-0.1,0.8-0.3,1-0.4c0.5-0.3,1-0.4,1.6-0.1C33.8,32,33.6,32.3,33.3,33z"/>
		<path fill="#787878" d="M28.5,33.3c0.4,0.2,0.6,0.7,1.1,0.7c-0.1,0-0.2,0.1-0.2,0.1c-0.2-0.1-0.4,0.1-0.6,0.2
			c-0.2,0.3-0.5,0.2-1.1,0.3c-0.3-0.5-0.1-0.6,0.4-0.9c0.2-0.1,0.3-0.3,0.3-0.5C28.4,33.3,28.4,33.3,28.5,33.3z"/>
		<path fill="#A6A6A6" d="M21.3,34.5c0.5-0.3,1-0.7,1.6-1c0.3-0.1,0.6-0.1,0.9-0.1c0.3,0,0.5,0.1,0.5,0.4c-0.1,0.2-0.2,0.3-0.5,0.3
			c-0.5,0.1-0.8,0.4-1.1,0.7c-0.2,0.2-0.5,0.4-0.8,0.5C21.2,35.6,21.1,35.4,21.3,34.5z"/>
		<path fill="#ABABAB" d="M25.3,33.2c0,0,0,0.1,0,0.1c-0.3,0.2-0.6,0.5-1,0.5c-0.2-0.2-0.4-0.4-0.8-0.3c-0.1,0.1-0.4,0.1-0.3-0.2
			c0.5-0.4,1-0.7,1.4-1.1c0.5-0.2,0.6,0,0.6,0.5C25.3,32.9,25.3,33,25.3,33.2z"/>
		<path fill="#B6B6B6" d="M23.2,33.3c0.5,0.2,0.7-0.3,1.2-0.4c-0.2,0.3-0.2,0.6-0.1,0.9c0,0-0.1,0.1-0.1,0.1
			c-0.4-0.3-0.9-0.2-1.3-0.4C23,33.5,23.1,33.4,23.2,33.3z"/>
		<path fill="#B5B5B5" d="M21.3,34.5c0.2,0.3-0.2,0.9,0.5,1c-0.2,0.1-0.4,0.2-0.6,0.3c-0.1-0.4-0.2-0.7-0.2-1.1
			C21,34.6,21.2,34.5,21.3,34.5z"/>
		<path fill="#8C8C8C" d="M26.6,34.1c0.7-0.1,1.2-0.6,1.8-0.7c0.1,0.3,0.1,0.5-0.2,0.7c-0.3,0.1-0.3,0.3-0.3,0.6
			c-0.1,0-0.2,0.1-0.3,0.1c0,0.1,0,0.1-0.1,0c-0.2,0.1-0.4,0.2-0.6,0.4C26.6,34.8,26.7,34.4,26.6,34.1z"/>
		<path fill="#929292" d="M11.5,32.1c0.1,0,0.2,0,0.3,0c0.3,0.4,0.3,1,0.4,1.5c0.1,0.3,0.1,0.6,0.3,0.9c-0.2,0-0.4,0.2-0.5,0.2
			c-0.1,0.1-0.3,0-0.5,0.1c0,0-0.1,0-0.1,0c-0.1-0.5-0.3-0.9-0.3-1.5c0.3,0,0.2-0.3,0.2-0.5C11.4,32.6,11.1,32.3,11.5,32.1z"/>
		<path fill="#7D7D7D" d="M11.5,32.1c0.1,0.3,0.2,0.6,0.2,0.9c0,0.2,0.1,0.4-0.1,0.5c-0.2,0.1-0.4,0-0.5-0.1
			C11,32.9,11.2,32.4,11,32c-0.1-0.1-0.1-0.3,0.1-0.3c0.2-0.1,0.3,0,0.4,0.2C11.5,32,11.5,32,11.5,32.1z"/>
		<path fill="#929292" d="M11.5,31.9c-0.2-0.1-0.4-0.1-0.5,0.1c-0.2-0.5-0.2-1-0.1-1.6c0.3,0,0.5,0.2,0.5,0.5
			C11.4,31.2,11.4,31.6,11.5,31.9z"/>
		<path fill="#AAAAAA" d="M10.3,34.3c-0.3-0.4-0.5-0.7-0.2-1.2C10.1,33.5,10.2,33.9,10.3,34.3z"/>
		<path fill="#B2B2B2" d="M29.2,29.1c0,0,0.1,0,0.1,0c0.2,0.2,0.4,0.3,0.3,0.6c-0.3,0.2,1-0.6,1.2-0.3c0,0.3-1.5,1.2-1.7,1.3
			c-0.5,0.2-0.8,0.5-1.3,0.9c-0.2,0.1-2,1-2.6,1.6c-0.3-0.3-0.2-0.8-0.6-1c0.7-0.4,1.4-0.9,2.1-1.4c0.2-0.3,0.5-0.3,0.7-0.5
			C28.1,30,28.7,29.7,29.2,29.1z"/>
		<path fill="#AFAFAF" d="M24.4,30.1c-0.2-0.1-0.4,0.1-0.6-0.2c0.3-0.1,0.7-0.2,1,0C24.7,29.9,24.6,30,24.4,30.1z"/>
		<path fill="#6D6D6D" d="M33.9,26.6c0.5,0,0.8-0.4,1.3-0.4c0.9,0.3,0.9,0.4,0.7,1.2c-0.1,0.2,0,0.1-0.2,0.1c-0.3,0-0.5,0.1-0.7,0
			c-0.1,0-0.4,0-0.5-0.1c0,0.1-0.2,0.2-0.2,0.3c-0.5,0.3-0.4,0.3-0.8,0.6c-0.2,0-0.4,0-0.6,0c-0.4-0.1-0.5-0.1-0.2-0.4
			c0.1-0.1,0.2-0.2,0.3-0.2c0.3-0.1,0.5-0.3,0.3-0.6c-0.1-0.1,0-0.1,0-0.2C33.4,26.6,33.6,26.7,33.9,26.6z"/>
		<path fill="#949494" d="M32.9,22.3c-0.1,0.1-0.4,0.5-0.5,0.6c-0.3-0.2-0.2-0.7-0.3-1.1c0.5-0.4,0.9-0.7,1.4-1.1
			c0.1,0.2-0.1,0.6,0.3,0.6c-0.1,0.1-0.2,0.2-0.3,0.3C33.3,21.7,32.9,21.8,32.9,22.3C32.9,22.2,32.9,22.2,32.9,22.3z"/>
		<path fill="#818181" d="M32.9,22.2c-0.2,0-0.3,0.1-0.6-0.1c0.4-0.1,0.7-0.5,1.2-0.4C33.3,21.8,33.1,21.9,32.9,22.2z"/>
		<path fill="#8C8C8C" d="M11.2,28.6c-0.2,0.2-0.2,0.5-0.4,0.6c-0.1-0.3,0.2-0.7-0.3-0.9c0.2-0.3,0.4-0.3,0.7-0.1
			C11.2,28.4,11.2,28.5,11.2,28.6z"/>
		<path fill="#A9A9A9" d="M23.6,23.1c-0.2,0-0.3,0.2-0.4,0.3c-0.2,0.2-0.3,0.1-0.4-0.1c0.1-0.1,0.2-0.3,0.3-0.4
			C23.2,23.1,23.7,22.6,23.6,23.1z"/>
		<path fill="#6C6C6C" d="M11.5,34.8c0-0.1-0.1-0.4,0.1-0.4c0.2-0.1,0.2,0.2,0.4,0.3c0.2,0.3-0.1,0.3-0.2,0.4
			C11.5,35.1,11.6,34.8,11.5,34.8z"/>
		<path fill="#8B8B8B" d="M10.8,25.8c0,0.1-0.1,0.3-0.3,0.3c-0.2-0.1-0.2-0.2-0.2-0.5C10.5,25.6,10.6,25.7,10.8,25.8
			C10.8,25.8,10.8,25.8,10.8,25.8z"/>
		<path fill="#A1A1A1" d="M32.1,23.2c-0.1,0.1-0.2,0.2-0.4,0.4c-0.3-0.2-0.3-0.7-0.6-1C31.5,22.8,31.9,22.9,32.1,23.2z"/>
		<path fill="#949494" d="M34.6,19.8c0.1,0,0.1,0.1,0.1,0.2c0,0.1,0,0.2-0.2,0.2c-0.1,0-0.1-0.1-0.1-0.2
			C34.5,20,34.5,19.9,34.6,19.8z"/>
		<path fill="#818181" d="M30.8,29.5c-0.2,0.2-0.5,0.3-0.7,0.5c-0.5,0.3-0.6,0.3-0.7-0.2c0-0.2,0-0.4,0-0.6c0.1-0.1,0.3-0.1,0.4-0.2
			c0.4,0.1,0.3-0.3,0.5-0.5c0.1,0,0.2-0.1,0.4-0.1c0.7-0.4,1.4-0.6,2.1-1.1c0-0.1,0.1-0.1,0.1-0.2c0.2,0,0.3-0.1,0.5-0.1
			c0.1,0,0.1,0.1,0.2,0.1c0.2,0,0.5-0.2,0.5,0.2c0.1,0.3-0.2,0.4-0.4,0.6C33.4,28,33.2,28,33,28.1c-0.1,0.1-0.3,0.1-0.2,0.3
			c-0.2,0.2-0.4,0.2-0.5,0.2c-0.6-0.2-0.5-0.2-0.6,0.4c0,0-0.1,0.1-0.1,0.1c-0.2,0-0.3,0.1-0.5,0.2C31,29.3,30.9,29.3,30.8,29.5z"/>
		<path fill="#737373" d="M32.7,27.3c-0.5,0.7-1.2,1-2.1,1.1C31.2,27.8,32,27.6,32.7,27.3z"/>
		<path fill="#737373" d="M30.3,28.5c0.2,0.3,0,0.5,0,0.8c0,0-0.1,0.2-0.1,0.1c-0.2,0-0.3-0.3-0.3-0.4
			C29.9,28.8,30.1,28.6,30.3,28.5z"/>
		<path fill="#A2A2A2" d="M29.4,29.7c0.2,0.3,0.4,0.4,0.7,0.2c-0.1,0.4-0.7,0.2-0.7,0.6c0,0,0,0-0.1,0
			C28.7,30.1,28.7,30.1,29.4,29.7z"/>
		<path fill="#878787" d="M35.3,27.6c-0.3,0-0.7,0-1,0.1c0-0.3-0.1-0.7,0.2-0.9c0.2-0.1,0.4-0.2,0.5,0c0.2,0.2-0.1,0.3-0.2,0.4
			c-0.1,0.1-0.1,0.1-0.3,0.2C35,27.4,35.2,27.5,35.3,27.6z"/>
		<path fill="#717171" d="M30.8,29.5c-0.2-0.2,0.2-0.4,0-0.6c0.1,0,0.1-0.1,0.2-0.1c0.3,0.1,0.2,0.3,0.2,0.5
			C31.1,29.5,31,29.5,30.8,29.5z"/>
		<path fill="#707070" d="M32,29c-0.1,0-0.2,0-0.3,0c-0.3-0.2-0.3-0.5,0-0.7c0.3-0.2,0.6-0.3,0.8,0.2C32.3,28.7,32.1,28.7,32,29z"/>
	</g>
</g>
</svg>
