<?xml version="1.0" encoding="utf-8"?>

<svg version="1.1" id="" xmlns="http://www.w3.org/2000/svg" xmlns:xlink="http://www.w3.org/1999/xlink"
	 x="0px" y="0px" viewBox="0 0 141.1 75.5" enable-background="new 0 0 141.1 75.5" xml:space="preserve">
<g id="_x31_33220F_x5F_b">
	<g>
		<path fill="#9D9D9C" d="M70.3,15.9c-0.1-0.1-0.4-0.3-0.5-0.4c-0.1-0.1-0.5-0.5-1-1c0.6-0.3,1.2-0.6,1.3-0.6c0,0,0,0,0,0
			c0.2,0,0.5-0.2,1.4-0.8c0.2-0.2,0.4-0.3,0.5-0.4c0.2-0.1,2.6-1.4,2.8-1.5c0.1,0,0.2-0.2,0.5-0.3c0.3-0.2,0.9-0.7,1-0.7
			c0.2,0,1.2-1.2,1.2-1.2c0,0,0.1-0.1,0.2-0.2c0.4-0.5,0.6-0.7,0.7-0.8c0.1-0.1,0.5-0.8,1-1.3l0,0c0,0,1.2-1.1,1.3-1.2
			c0.1-0.1,0.6-0.3,0.8-0.3c0,0,0.1,0,0.3,0c0.1,0,0.2,0,0.3,0l0.3,0.8l-0.1,0.4c-0.1,0.1-0.4,0.4-0.6,0.6c-0.3,0.3-0.7,0.7-0.7,0.7
			c-0.1,0-0.1,0.1-0.1,0.2c0,0.1,0,0.1,0.1,0.2l0.6,0.5l-0.3,0.6c-0.3,0.3-0.7,0.7-0.7,0.8c0,0,0,0,0,0c0,0-0.2,0.1-1.6,0.9
			l-2.5,1.5c-0.5,0.3-1.7,1.2-2.1,1.4c-0.2,0.1-0.5,0.3-0.8,0.4c-0.2,0.1-0.4,0.2-0.5,0.2c-0.2,0.1-0.6,0.2-0.8,0.3
			c-0.2,0.1-0.4,0.3-0.7,0.7c-0.1,0.1-0.2,0.2-0.2,0.3C71.2,15.6,70.7,15.8,70.3,15.9z"/>
		<path fill="#9D9D9C" d="M81.4,5.3c0.1,0,0.2,0,0.3,0c0,0,0.1,0,0.1,0l0.2,0.5L82,6.1c-0.1,0.1-0.4,0.4-0.6,0.6
			c-0.2,0.3-0.7,0.7-0.7,0.7c-0.1,0.1-0.2,0.2-0.2,0.4c0,0.1,0.1,0.3,0.2,0.4l0.4,0.4L81,9c-0.2,0.3-0.6,0.6-0.7,0.7
			c-0.2,0.1-0.5,0.3-1.7,0.9l-2.5,1.5c-0.7,0.5-1.7,1.2-2,1.3c-0.2,0.1-0.5,0.3-0.8,0.4c-0.2,0.1-0.4,0.2-0.4,0.2
			c-0.2,0.1-0.6,0.2-0.8,0.3c-0.3,0.1-0.5,0.4-0.9,0.8c-0.1,0.1-0.1,0.2-0.2,0.2c-0.1,0.1-0.4,0.2-0.7,0.3c-0.1-0.1-0.3-0.3-0.4-0.3
			c-0.1-0.1-0.4-0.4-0.8-0.8c0.4-0.2,0.8-0.4,1-0.4c0.3,0,0.6-0.2,1.5-0.9c0.2-0.1,0.4-0.3,0.5-0.3c0.2-0.1,2.6-1.4,2.8-1.6
			c0.1,0,0.2-0.2,0.5-0.4c0.3-0.2,0.8-0.6,0.9-0.7l0,0c0.4-0.2,1.3-1.2,1.3-1.2c0,0,0.1-0.1,0.2-0.2c0.4-0.5,0.6-0.7,0.7-0.9
			c0.1-0.1,0.5-0.7,0.9-1.3c0.6-0.5,1.2-1.1,1.3-1.2C80.9,5.5,81.2,5.3,81.4,5.3 M71.1,15.3L71.1,15.3L71.1,15.3 M81.4,4.8
			c-0.2,0-0.8,0.2-0.9,0.3c-0.1,0.1-1.4,1.2-1.4,1.2s-0.9,1.2-1,1.4c-0.1,0.2-0.7,0.8-0.8,1c-0.1,0.2-1,1.1-1.1,1.1
			c-0.1,0-1.3,1-1.5,1.1c-0.2,0.1-2.5,1.4-2.7,1.5s-1.5,1.2-1.8,1.2c-0.2,0-1.7,0.8-1.7,0.8s1.2,1.2,1.3,1.3
			c0.1,0.1,0.6,0.5,0.6,0.5s1-0.3,1.2-0.4c0.2-0.1,0.6-0.9,0.8-0.9c0.2-0.1,0.7-0.2,0.9-0.3s0.8-0.4,1.2-0.6s2.1-1.4,2.1-1.4
			l2.5-1.5c0,0,1.5-0.8,1.6-0.9c0.1,0,0.9-0.9,0.9-0.9l0.4-0.8l-0.8-0.6c0,0,0.5-0.5,0.7-0.8c0.3-0.3,0.6-0.6,0.6-0.6l0.2-0.6
			l-0.5-1c0,0-0.2,0-0.5,0C81.6,4.9,81.5,4.8,81.4,4.8C81.5,4.8,81.4,4.8,81.4,4.8L81.4,4.8z"/>
	</g>
	<g>
		<path fill="#9D9D9C" d="M77.5,14.6l-0.3-0.2L77,14.1c0,0,0,0,0,0c0.2,0,0.4,0,0.5,0.1c0,0,0.1,0.2,0.1,0.2c0,0.1,0.1,0.2,0.1,0.3
			L77.5,14.6z"/>
		<path fill="#9D9D9C" d="M76.9,13.8c-0.1,0-0.3,0.3-0.3,0.3l0.3,0.5l0.5,0.3l0.5,0.2c0,0,0.1-0.4,0-0.5c-0.1-0.1-0.2-0.5-0.3-0.6
			S76.9,13.8,76.9,13.8C76.9,13.8,76.9,13.8,76.9,13.8L76.9,13.8z"/>
	</g>
	<g>
		<path fill="#9D9D9C" d="M79.7,13.1c-0.1-0.1-0.1-0.2-0.3-0.3l0-0.5c0,0,0-0.1-0.1-0.1c0,0-0.1-0.1-0.1-0.1
			c0.1-0.1,0.4-0.2,0.5-0.2l0.1,0c0,0.1,0,0.1,0,0.2c0,0.1,0,0.3,0.1,0.4c0,0.1,0.1,0.2,0.1,0.2c0,0.1-0.1,0.2-0.1,0.3
			C79.8,13,79.7,13.1,79.7,13.1z"/>
		<path fill="#9D9D9C" d="M79.7,11.6c-0.2,0-0.7,0.3-0.7,0.4c0,0.1,0.2,0.4,0.2,0.4l0.1,0.6c0,0,0.3,0.3,0.3,0.4
			c0,0.1,0.1,0.4,0.1,0.4c0,0,0,0,0,0c0.1-0.1,0.1-0.4,0.2-0.6c0.1-0.2,0.2-0.3,0.2-0.5S80,12.3,80,12.1c0-0.1,0-0.4,0-0.4
			L79.7,11.6L79.7,11.6z"/>
	</g>
	<g>
		<path fill="#9D9D9C" d="M79.2,6.2c0-0.3-0.3-0.4-0.6-0.5c-0.1,0-0.1-0.1-0.2-0.1c-0.1,0-0.1-0.3-0.1-0.4c0,0,0-0.2-0.2-0.4
			l0.3-0.1c0.1,0.1,0.2,0.4,0.4,0.5c0.1,0.1,0.2,0.3,0.3,0.4c0.1,0.2,0.2,0.5,0.3,0.6C79.3,6.1,79.3,6.1,79.2,6.2z"/>
		<path fill="#9D9D9C" d="M78.6,5.3c0,0,0.1,0.1,0.1,0.1c0,0,0.1,0.1,0.1,0.1c0,0,0,0,0,0c0,0-0.1,0-0.1,0
			C78.6,5.4,78.6,5.3,78.6,5.3 M78.5,4.4l-0.6,0.2h-0.2c0,0,0.4,0.4,0.4,0.6c0,0.2,0.1,0.6,0.3,0.7C78.5,5.9,79,6.1,79,6.1
			c0,0.1,0.1,0.3,0.2,0.3c0.2,0,0.4-0.2,0.4-0.4c0-0.2-0.3-0.7-0.3-0.7S79.2,5.1,79,5c-0.2-0.2-0.4-0.5-0.4-0.5L78.5,4.4L78.5,4.4z"
			/>
	</g>
	<g>
		<path fill="#9D9D9C" d="M77.2,8.4C77.2,8.4,77.1,8.4,77.2,8.4c-0.1,0-0.2-0.2-0.3-0.3c-0.1-0.2-0.2-0.5-0.2-0.6
			C76.6,7.2,76.3,7,76,7c0.1,0,0.3-0.1,0.4-0.2l0,0.1c0.1,0.1,0.2,0.2,0.5,0.3C77,7.2,77,7.3,77,7.5l0,0.2c0,0.3,0.3,0.4,0.6,0.6
			c0,0,0,0,0,0c0,0.1-0.1,0.1-0.1,0.1C77.4,8.4,77.3,8.4,77.2,8.4z"/>
		<path fill="#9D9D9C" d="M76.8,6.5L76.8,6.5L76.8,6.5 M76.4,6.2c0,0-0.1,0.1-0.1,0.3c0,0.2-0.5,0.3-0.5,0.3s-0.2,0.3,0,0.4
			s0.6,0.1,0.6,0.3c0,0.2,0.3,0.7,0.3,0.7s0.2,0.3,0.3,0.4c0.1,0,0.1,0,0.2,0c0.1,0,0.2,0,0.3,0c0.2,0,0.5-0.4,0.4-0.5
			c-0.1-0.1-0.6-0.3-0.6-0.5c0-0.2,0-0.5-0.2-0.7c-0.2-0.2-0.4-0.3-0.4-0.3L76.4,6.2L76.4,6.2z"/>
	</g>
	<g>
		<path fill="#9D9D9C" d="M75.2,10.1c-0.2-0.4-0.2-0.5-0.3-0.5c0-0.1-0.2-0.5-0.3-0.8l-0.2-0.3c0,0,0.1,0,0.1-0.1
			c0.1-0.1,0.1-0.1,0.2-0.2L75,8.8c0,0,0,0,0,0.1c0.1,0.2,0.3,0.5,0.5,0.6c0.1,0,0.1,0.2,0.1,0.2C75.4,10,75.3,10.1,75.2,10.1
			C75.2,10.1,75.2,10.1,75.2,10.1z"/>
		<path fill="#9D9D9C" d="M74.9,8.4L74.9,8.4L74.9,8.4 M75,9.3c0.1,0.1,0.2,0.3,0.3,0.4c0,0,0,0-0.1,0.1c-0.1-0.1-0.1-0.2-0.1-0.2
			C75.1,9.5,75.1,9.4,75,9.3 M74.7,8c-0.1,0-0.4,0.3-0.4,0.3L74,8.2l0.4,0.8c0,0,0.3,0.8,0.4,0.9s0.3,0.6,0.3,0.6s0.4-0.1,0.4-0.1
			c0-0.1,0.4-0.4,0.4-0.4s0.1-0.4-0.1-0.6c-0.2-0.2-0.4-0.6-0.5-0.7C75.2,8.6,74.7,8,74.7,8L74.7,8z"/>
	</g>
	<g>
		<path fill="#9D9D9C" d="M90.2,6.1c0-0.1,0-0.1,0-0.2c0-0.1,0-0.2,0-0.2c0,0,0,0,0,0c0,0,0.1-0.1,0.1-0.4c0,0,0.1,0,0.1,0
			c0.1,0,0.1,0,0.1,0c0,0.3,0,0.6,0,0.6C90.5,5.9,90.4,6,90.2,6.1L90.2,6.1z"/>
		<path fill="#9D9D9C" d="M90.8,4.6L90.4,5L90,4.8c0,0,0.1,0.6,0,0.7s0.1,0.6,0,0.7c-0.1,0.1,0,0.6,0,0.6l0.5-0.6
			c0,0,0.2-0.2,0.3-0.3c0.1-0.2,0-0.7,0-0.7V4.6L90.8,4.6z"/>
	</g>
	<g>
		<path fill="#9D9D9C" d="M92.3,8.2c0-0.1-0.1-0.2-0.1-0.2c0-0.2,0-0.3,0-0.4l0-0.2L92.5,7c0.1,0,0.1,0,0.2-0.1c0,0.2,0,0.4,0.1,0.5
			c-0.4,0.1-0.4,0.4-0.4,0.5L92.3,8.2C92.3,8.2,92.3,8.2,92.3,8.2z"/>
		<path fill="#9D9D9C" d="M92.9,6.6c-0.1,0-0.6,0.2-0.6,0.2l-0.4,0.6v0.3c0,0,0,0.1,0,0.3c0,0.2,0.2,0.5,0.2,0.5c0,0,0,0,0,0
			c0.1,0,0.3-0.1,0.4-0.3c0.1-0.2,0.1-0.5,0.2-0.5c0.1,0,0.4,0,0.3-0.3S92.9,6.6,92.9,6.6L92.9,6.6z"/>
	</g>
	<g>
		<path fill="#9D9D9C" d="M95,10.3C95,10.2,94.9,10.2,95,10.3c-0.1-0.2-0.1-0.4-0.2-0.5c0.1-0.1,0.1-0.2,0.2-0.4c0,0,0.1,0,0.1,0
			c0,0.2,0,0.6,0,0.7C95.1,10.1,95,10.2,95,10.3z"/>
		<path fill="#9D9D9C" d="M94.9,9.1c-0.1,0-0.2,0-0.2,0.1c0,0.1-0.3,0.6-0.3,0.6s0.2,0.2,0.2,0.4c0,0.2,0.2,0.5,0.2,0.5
			s0.5-0.4,0.5-0.6c-0.1-0.2,0-0.8,0-0.8C95.2,9.2,95,9.1,94.9,9.1L94.9,9.1z"/>
	</g>
	<g>
		<path fill="#9D9D9C" d="M90.7,12.4c-0.1-0.2-0.1-0.3-0.1-0.3c0,0,0,0,0,0c0,0,0-0.2,0.1-0.4c0.1-0.3,0.3-0.6,0.3-0.7l0.1-0.1
			c0,0.2,0.1,0.3,0.1,0.4c0,0-0.1,0.2-0.2,0.3C90.9,11.9,90.8,12.2,90.7,12.4C90.7,12.3,90.7,12.4,90.7,12.4z"/>
		<path fill="#9D9D9C" d="M91.2,10.4c0,0-0.4,0.3-0.5,0.3s-0.4,0.8-0.4,0.8s-0.1,0.5,0,0.6c0.1,0.1,0.2,0.7,0.2,0.7s0.3-0.4,0.4-0.5
			c0.1-0.1,0.3-0.8,0.3-0.8s0.2-0.3,0.2-0.4C91.4,11.1,91.2,10.4,91.2,10.4L91.2,10.4z"/>
	</g>
	<g>
		<path fill="#9D9D9C" d="M92.4,14.1c0.1-0.1,0.2-0.3,0.2-0.3c0,0,0.1-0.1,0.2-0.2c0,0,0.1-0.1,0.1-0.1c0,0,0.2-0.6,0.2-0.8
			c0-0.1,0-0.1,0-0.2c0.1-0.1,0.2-0.1,0.3-0.1c0,0.3,0,0.6,0,0.7c-0.1,0.2-0.2,0.4-0.3,0.5c-0.1,0.1-0.2,0.3-0.3,0.5l-0.3,0
			C92.7,14.1,92.5,14.1,92.4,14.1z"/>
		<path fill="#9D9D9C" d="M93.9,12.6L93.9,12.6L93.9,12.6 M93.8,12.1c-0.2,0-0.8,0.3-0.8,0.3s0,0.1,0,0.3s-0.2,0.7-0.2,0.7
			s-0.3,0.2-0.3,0.3c0,0.1-0.4,0.5-0.4,0.5s0.1,0.1,0.1,0.2c0,0,0.1,0,0.1,0c0.1,0,0.3,0,0.4,0c0,0,0,0,0,0c0.1,0,0.4,0,0.4,0
			s0.2-0.5,0.3-0.6c0.1-0.1,0.2-0.3,0.3-0.6C93.9,13,93.8,12.1,93.8,12.1L93.8,12.1z"/>
	</g>
	<g>
		<path fill="#9D9D9C" d="M95.1,15.6c0,0-0.1,0-0.1,0c0-0.1-0.1-0.3-0.1-0.4c0,0,0.1-0.3,0.2-0.5c0.1-0.1,0.1-0.1,0.1-0.2
			c0.1,0.2,0.2,0.4,0.3,0.6c0,0.1,0,0.1,0,0.1c0,0.1-0.1,0.2-0.1,0.3c0,0-0.2,0-0.2,0C95.2,15.6,95.1,15.6,95.1,15.6z"/>
		<path fill="#9D9D9C" d="M95.2,15.1c0,0,0,0.1,0.1,0.1c0,0,0,0.1,0,0.2c0,0,0,0,0,0c0,0,0,0,0,0c0-0.1,0-0.1-0.1-0.2
			C95.1,15.1,95.2,15.1,95.2,15.1 M95.4,14.1h-0.3c0,0,0,0.2-0.2,0.4s-0.3,0.6-0.3,0.6c0,0.1,0.2,0.6,0.2,0.6s0.2,0.1,0.3,0.1
			c0,0,0,0,0,0c0.1,0,0.6,0,0.6-0.3c0-0.3,0.2-0.4,0-0.6C95.5,14.7,95.4,14.1,95.4,14.1L95.4,14.1z"/>
	</g>
	<g>
		<path fill="#9D9D9C" d="M100,15.9c-0.5-0.3-0.9-0.6-1-0.6c0,0,0-0.1-0.5-0.4c-0.3-0.2-1.1-0.8-1.2-1c-0.1-0.3-0.6-0.5-1.2-0.8
			c-0.3-0.1-0.6-0.3-0.7-0.4c-0.1-0.2-0.6-0.5-1.6-1.1c0,0,0,0-0.1,0l1,0.3c0,0,0,0,0.1,0c0.1,0,0.2,0,0.2-0.1c0.1-0.1,0-0.2,0-0.3
			l-1.1-1c-0.5-0.4-0.9-0.9-1.2-1.2L95,11c0.1,0.1,1.3,1.4,1.6,1.6c0.3,0.2,1.5,1.3,1.9,1.6c0.3,0.3,1,0.6,1.2,0.7L100,15.9z
			 M93.3,11.3C93.3,11.3,93.3,11.3,93.3,11.3C93.3,11.3,93.3,11.3,93.3,11.3C93.3,11.3,93.3,11.3,93.3,11.3z M92.6,10.7
			c0,0,0.1,0.1,0.2,0.1C92.7,10.8,92.6,10.8,92.6,10.7z M91,9.7c-0.4-0.3-1.3-1.1-1.7-1.5C89.1,8,89,7.9,89,7.9c0,0-0.2-0.1-0.3-0.3
			c-0.8-0.7-1.3-1.1-1.4-1.2c0,0-0.1-0.1-0.2-0.2l0.4,0.1l0.9,0.9l1.4,1.1L91,9.5c0.6,0.5,0.9,0.7,1.2,0.9
			C91.8,10.2,91.4,9.9,91,9.7z M92.1,8.5c-0.4-0.3-1.1-0.8-2.2-1.6L88.7,6l2.2,1.4L92.1,8.5z M86.8,4.8h0.3L87.5,5l0.2,0.2L86.8,4.8
			z"/>
		<path fill="#9D9D9C" d="M95.4,11.8c0.4,0.4,0.9,1,1.1,1.1c0.1,0.1,0.3,0.2,0.5,0.4c-0.2-0.1-0.4-0.2-0.6-0.3
			c-0.2-0.1-0.5-0.3-0.6-0.3c-0.1-0.1-0.2-0.2-0.6-0.5c0.1,0,0.2-0.1,0.2-0.2C95.4,11.9,95.4,11.8,95.4,11.8 M99.1,15
			c0.2,0.1,0.3,0.2,0.5,0.2l0.1,0.2c-0.1-0.1-0.3-0.2-0.3-0.2C99.2,15.1,99.2,15,99.1,15 M87.1,4.6h-0.6l-0.2,0.3l1.3,0.5l2.1,1.7
			c0,0,2.7,2,2.7,2.1c0.1,0.2,1.4,1.4,1.4,1.4l1.1,1l-1.1-0.3c0,0-1.1-0.8-1.2-0.9c-0.1,0-1.5-1.1-1.5-1.1l-1.2-1.2L88.5,7l-1-0.9
			l-1.2-0.4c0,0,0.5,0.8,0.8,0.9c0.2,0.1,1.6,1.5,1.7,1.5s1.4,1.4,2,1.8s2.2,1.5,2.3,1.5s2.1,1.2,2.2,1.5c0.2,0.2,1.7,0.8,1.9,1.2
			c0.2,0.4,1.6,1.3,1.7,1.4c0,0.1,1.6,1,1.6,1l-0.6-1.7c0,0-0.9-0.3-1.3-0.7c-0.3-0.3-1.6-1.4-1.9-1.6c-0.3-0.2-1.6-1.6-1.6-1.6
			l-2.4-1.9l-1.7-1.7l-2.3-1.5l-1.1-0.9L87.1,4.6L87.1,4.6z"/>
	</g>
	<g>
		<path fill="#9D9D9C" d="M79.8,55.2c-0.1,0-0.2,0-0.4-0.1C79.3,55,79.1,55,78.9,55c0,0,0,0-0.1,0c0,0,0.1-0.1,0.1-0.1
			c0.1-0.2,0.2-0.3,0.3-0.5c0.1-0.1,0.1-0.4,0.2-0.6c0.1-0.3,0.2-0.6,0.3-0.8c0.3-0.5,0.5-1,0.7-1.4c0.1-0.3,0.2-0.7,0.2-1.1
			c0.1-0.4,0.1-0.7,0.2-0.9c0.1-0.4,0.4-1.1,0.4-1.1l0.1-1.6l0.1-0.6c0-0.1,0-0.3-0.1-0.7c0-0.2-0.1-0.4-0.1-0.6c0-0.1,0-0.1,0-0.2
			c0-0.1,0.1-0.3,0.1-0.6c0-0.2-0.1-0.5-0.1-0.7c0-0.2-0.1-0.3-0.1-0.5c0-0.3,0.2-0.9,0.2-0.9c0-0.1,0-0.1,0-0.2
			c0,0-0.1-0.2-0.1-0.5c0-0.3,0.2-0.9,0.2-1.2l0-0.8l0.2-0.6c0.1,0.3,0.1,0.6,0.1,0.6c0,0.1,0.1,0.2,0.2,0.2c0,0,0,0,0,0
			c0.1,0,0.2-0.1,0.2-0.2c0.1-0.2,0.3-1,0.3-1.3c0-0.2-0.2-1.7-0.2-1.7c-0.1-0.6-0.4-1.5-0.3-1.7c0-0.3-0.1-0.8-0.2-1.3
			c0-0.2-0.1-0.5-0.1-0.5c0-0.1,0-0.2,0.1-0.3c0.1-0.3,0.2-0.5,0.1-0.7c0-0.2-0.3-0.7-0.4-0.9c0-0.2,0-1.1,0-1.4c0-0.1,0-1.3,0-1.5
			c0-0.1,0-0.4,0-0.7c0-0.3,0-0.6,0-0.8c0-0.3,0-1.7,0-1.7c0.1-0.3,0.3-1.1,0.3-1.2c0-0.1,0-0.3,0-0.5c0-0.2-0.1-0.6-0.1-0.7
			c0,0,0.1-0.1,0.1-1.9c0,0-0.1-1.4-0.1-1.8c0-0.5,0-2.1,0-2.1c0,0,0.1-2,0.1-2c0-0.1,0.1-1.9,0.1-1.9l0.1-1.2c0-0.1,0-0.2-0.1-0.2
			l0,0c0,0-0.1-0.1,0-0.4c0.1-0.5,0.5-1.6,0.5-1.6l0.2-0.8l0-0.7l0.1-1.2l-0.3-2.5l0.3-0.8L83,2.7c0,0,0-0.1,0-0.1
			c-0.1-0.2-0.1-0.5-0.1-0.5c0-0.1,0-0.3,0-0.5c0-0.1-0.1-0.3,0-0.3c0.1,0,0.2-0.1,0.3-0.2c0.1-0.1,0.2-0.3,0.3-0.3c0,0,0.1,0,0.1,0
			c0.1,0,0.1,0,0.2,0c0.1,0,0.2,0,0.2,0c0,0,0,0,0.1,0c0.1,0,0.3,0,0.3,0l0.5,0.2c0.5,0.6,0.6,0.6,0.7,0.6c0.1,0,0.1,0,0.2,0
			c0.1,0,0.1,0.1,0.1,0.2l0,0.5c0,0-0.1,0.1-0.1,0.1c-0.2-0.2-0.5-0.4-0.7-0.5c0,0-0.1,0-0.1,0c-0.2,0-0.7,0.1-0.9,0.4
			c-0.2,0.1-0.3,0.1-0.4,0.3c0,0.1-0.1,0.1-0.1,0.2c-0.1,0.1-0.3,0.3-0.3,0.6l0,0.3c0,0.3,0,0.6,0,0.7c0,0.1,0,0.2,0,0.3
			c0,0.1,0,0.1,0,0.1c0,0,0,0.1-0.1,0.2C83.1,5.1,83,5.3,83,5.4c0,0,0,0.1,0,0.2c-0.1,0.4-0.1,0.8,0.1,1c0.1,0.2,0.3,0.7,0.3,0.9
			c0,0.3-0.1,0.8-0.2,1c-0.1,0.3-0.1,0.7-0.1,0.9c0,0.1,0,0.4,0,0.6L83,10.4c-0.1,0.3-0.1,0.5-0.1,0.8c0,0.1,0,0.2,0,0.4
			c0,0.4,0,0.6,0,0.8c0,0,0,0.3,0,0.4c0,0.3-0.1,0.5,0,0.6c0,0.1-0.1,0.6-0.2,1c0,0.2-0.1,2.5-0.1,3.1v2.8c0,0,0.2,2,0.2,2.5
			c0,0.3,0,0.7,0,1.1c0,0.3,0,0.5,0,0.7c0,0.2-0.1,1-0.2,1.5c-0.1,0.4-0.1,0.8-0.1,0.9c0,0.2-0.1,0.7-0.1,0.8
			c-0.1,0.2-0.2,1.4,0,1.6c0,0,0.1,0.1,0.1,0.1c0,0.1,0,0.2,0,0.2c0,0.1,0,0.2,0,0.2c0,0.1,0,1,0,1.7v0.8c0,0,0,0.1,0.4,1.6
			c0,0,0.1,2.1,0.1,2.3l0,0.4c0,0.2,0,0.5,0,0.6c0,0.1,0,0.5-0.1,0.7l0,0.1c0,0.3,0.1,0.8,0.1,0.9c0,0.1,0.1,0.3,0,0.4
			c-0.1,0.2-0.2,0.5-0.2,0.8c0,0.2-0.3,1.5-0.3,1.5c-0.5,0.9-0.4,1-0.3,1.2c0,0,0,0,0,0c0,0,0,0.2-0.1,0.7c0,0.3-0.2,1-0.2,1
			c0.1,0.4,0.1,0.9,0.1,1c0,0-0.2,1.2-0.1,1.6c0,0.1,0.1,0.4,0.1,0.6c0.1,0.3,0.2,0.8,0.1,1c0,0.2-0.1,0.4-0.1,0.6
			c0,0.3-0.1,0.5-0.1,0.8c0,0.1-0.1,0.1-0.1,0.2c-0.2,0.2-0.3,0.5-0.3,1.1c0,0.9-0.4,1.7-0.4,1.7l0,0c0,0-0.6,1-0.7,1.2
			C80.3,54.6,79.9,55.1,79.8,55.2L79.8,55.2z"/>
		<path fill="#9D9D9C" d="M83.5,0.9L83.5,0.9L83.5,0.9 M84.1,0.9c0.1,0,0.2,0,0.2,0l0.4,0.2c0.2,0.3,0.3,0.4,0.5,0.5c0,0,0,0,0,0
			c0,0-0.1,0-0.2,0c-0.2,0-0.8,0.1-1.1,0.4c-0.1,0-0.3,0.1-0.5,0.4c0,0-0.1,0.1-0.1,0.1c0,0,0,0,0,0c0,0,0-0.1,0-0.1
			c-0.1-0.1-0.1-0.3-0.1-0.4c0-0.2,0-0.3,0-0.5c0,0,0-0.1,0-0.2c0.1-0.1,0.1-0.1,0.2-0.2C83.3,1.1,83.4,1,83.4,1c0,0,0,0,0,0
			c0.1,0,0.2,0,0.2,0C83.8,1,83.9,1,84.1,0.9C84,0.9,84,0.9,84.1,0.9 M83.1,1.3L83.1,1.3L83.1,1.3 M85.6,1.8L85.6,1.8
			c0,0.1-0.1,0-0.1,0C85.5,1.8,85.5,1.8,85.6,1.8C85.6,1.8,85.6,1.8,85.6,1.8 M83.1,2L83.1,2L83.1,2 M83,3.9c0,0.2,0,0.3,0,0.4
			c0,0.2,0,0.3,0,0.3c0,0.1,0,0.1,0,0.1c0,0,0,0.1-0.1,0.2c0,0,0,0,0,0l-0.1-0.6L83,3.9 M82.8,9.4c0,0.1,0,0.1,0,0.2
			c0,0.1,0,0.3,0,0.6c0,0.1,0,0.2,0,0.2c-0.1,0.3-0.1,0.6-0.1,0.8c0,0.1,0,0.2,0,0.4c0,0.4,0,0.6,0,0.8c0,0.1,0,0.2,0,0.4
			c0,0.3-0.1,0.5,0,0.7c0,0.2-0.1,0.6-0.2,0.9c0,0,0,0.1,0,0.1c0,0.1-0.1,2.5-0.1,3.1v2.8c0,0,0,0,0,0.1c0.1,0.5,0.2,2,0.2,2.5
			c0,0.3,0,0.7,0,1.1c0,0.3,0,0.5,0,0.7c0,0.2-0.1,1-0.2,1.5c-0.1,0.6-0.1,0.8-0.1,0.9c0,0.1,0,0.6-0.1,0.6c0,0,0,0.1-0.1,0.1
			c0,0,0-0.1,0-0.1c0-0.3,0-0.7,0-0.8c0-0.3,0-1.3,0-1.6c0.2-0.7,0.3-1.2,0.3-1.3c0-0.1,0-0.3-0.1-0.5c0-0.2-0.1-0.5-0.1-0.6
			c0-0.2,0.1-0.6,0.1-2c0,0-0.1-1.3-0.1-1.8c0-0.5,0-2.1,0-2.1c0-0.6,0.1-2,0.1-2.1c0-0.1,0.1-1.9,0.1-1.9l0.1-1.2
			c0-0.2-0.1-0.3-0.2-0.4c0,0,0-0.1,0-0.2c0.1-0.5,0.5-1.5,0.5-1.6L82.8,9.4 M82.2,22.7L82.2,22.7L82.2,22.7 M82,29.2
			c0,0.1,0,0.1,0.1,0.2c0,0,0,0.1,0.1,0.1c0,0,0,0.1,0,0.1c0,0.1,0,0.1,0,0.2c0,0.2,0,1,0,1.7v0.2c-0.1-0.2-0.2-0.4-0.2-0.6
			c0-0.3,0-1.1,0-1.3C82,29.6,82,29.4,82,29.2 M82.2,32.5c0,0.2,0.1,0.6,0.3,1.3c0,0.3,0.1,2.1,0.1,2.4c0,0.1,0,0.3,0,0.4
			c0,0.2,0,0.5,0.1,0.6c0,0,0,0.1,0,0.2c-0.1-0.5-0.1-1-0.1-1c0,0,0-0.1,0-0.1c-0.2-0.6-0.3-1.4-0.3-1.6c0-0.3,0-0.7-0.2-1.3
			c0-0.2-0.1-0.4-0.1-0.4c0-0.1,0-0.1,0.1-0.2C82.2,32.7,82.2,32.6,82.2,32.5 M82.7,38.7c0,0.1,0.1,0.2,0.1,0.3c0,0.1,0,0.2,0,0.2
			c-0.1,0.2-0.2,0.5-0.2,0.9c0,0.1-0.2,0.9-0.3,1.4c-0.4,0.7-0.5,1-0.4,1.3c0,0.1,0,0.3,0,0.7c0,0.3-0.2,1-0.2,1c0,0.1,0,0.1,0,0.2
			c0.1,0.3,0.1,0.7,0.1,0.8c0,0-0.2,1.2-0.1,1.7c0,0.2,0.1,0.4,0.1,0.6c0.1,0.3,0.2,0.8,0.1,0.9c0,0.2-0.1,0.4-0.1,0.6
			c0,0.2-0.1,0.5-0.1,0.7c0,0,0,0-0.1,0.1c-0.2,0.2-0.4,0.5-0.4,1.3c0,0.8-0.4,1.6-0.4,1.6c0,0-0.6,1-0.7,1.2
			c-0.1,0.1-0.3,0.4-0.5,0.6c0,0-0.1,0-0.2-0.1c-0.1,0-0.2-0.1-0.2-0.1c0.1-0.1,0.1-0.2,0.2-0.4c0.1-0.2,0.1-0.4,0.2-0.6
			c0.1-0.3,0.2-0.6,0.2-0.7c0.3-0.6,0.5-1,0.7-1.5c0.1-0.3,0.2-0.7,0.2-1.2c0.1-0.3,0.1-0.7,0.2-0.9c0.1-0.4,0.4-1.1,0.4-1.1
			c0-0.1,0-0.1,0-0.2l0.1-1.5c0-0.1,0.1-0.4,0.1-0.6c0-0.2,0-0.3-0.1-0.8c0-0.2-0.1-0.4-0.1-0.5c0,0,0-0.1,0-0.1
			c0.1-0.1,0.1-0.3,0.1-0.7c0-0.3-0.1-0.5-0.1-0.7c0-0.1-0.1-0.3-0.1-0.4c0-0.2,0.1-0.7,0.2-0.9c0-0.1,0-0.3-0.1-0.4
			c0,0-0.1-0.2-0.1-0.4c0-0.2,0.1-0.8,0.2-1.1c0,0,0-0.1,0-0.1l0-0.4c0.1,0.1,0.2,0.1,0.3,0.1c0,0,0,0,0,0c0.2,0,0.4-0.1,0.5-0.4
			C82.6,39.3,82.7,39,82.7,38.7 M84.1,0.4c-0.1,0-0.2,0-0.2,0c-0.1,0-0.1,0-0.1,0c-0.1,0-0.2,0-0.3,0c0,0,0,0-0.1,0
			c-0.2,0-0.5,0.5-0.7,0.6c-0.2,0.1,0.1,0.7,0,0.9c-0.1,0.2,0.1,0.7,0.1,0.7l-0.1,0.8l-0.3,0.8l0.3,2.5L82.5,8v0.7l-0.2,0.8
			c0,0-0.4,1.1-0.5,1.6c-0.1,0.5,0.1,0.7,0.1,0.7l-0.1,1.2c0,0-0.1,1.8-0.1,1.9s-0.1,2-0.1,2s0,1.6,0,2.1s0.1,1.8,0.1,1.8
			s0,1.8-0.1,1.9c-0.1,0.1,0.1,1,0.1,1.2s-0.3,1.2-0.3,1.2s0,1.4,0,1.7c0,0.3-0.1,1.2-0.1,1.5s0,1.2,0,1.5c0,0.2,0,1.4,0,1.4
			s0.3,0.7,0.4,0.9c0,0.2-0.2,0.7-0.2,0.9c0,0.2,0.3,1.4,0.2,1.8s0.3,1.8,0.3,1.8s0.2,1.4,0.2,1.7c0,0.2-0.3,1.2-0.3,1.2
			s-0.1-0.6-0.2-0.8c-0.1-0.2-0.3-1.1-0.3-1.1l-0.4-1l-0.3-0.1l0.3,0.8l0.4,1.5l-0.2,0.7l0,0.8c0,0-0.2,0.8-0.2,1.2s0.2,0.7,0.2,0.7
			S81,42.7,81,43c0,0.3,0.2,0.7,0.2,1.1c0,0.4-0.2,0.5-0.2,0.8c0,0.2,0.2,1.1,0.2,1.2c0,0.2-0.1,0.6-0.1,0.6L81,48.3
			c0,0-0.3,0.7-0.4,1.1s-0.3,1.5-0.4,2c-0.2,0.5-0.5,1-0.6,1.4c-0.2,0.3-0.3,1.1-0.5,1.4s-0.3,0.5-0.5,0.8c-0.2,0.3,0.5,0.2,0.8,0.3
			c0.2,0.1,0.3,0.1,0.5,0.1c0.1,0,0.1,0,0.1,0c0.1-0.1,0.6-0.6,0.7-0.8c0.1-0.2,0.7-1.2,0.7-1.2s0.5-0.9,0.5-1.9
			c-0.1-1,0.3-0.8,0.4-1.3c0.1-0.4,0.2-1,0.2-1.3c0.1-0.4-0.2-1.4-0.2-1.7c0-0.4,0.1-1.4,0.1-1.6c0-0.2-0.1-1-0.1-1s0.1-0.7,0.2-1.1
			s0.1-0.9,0-1c-0.1-0.1,0.4-0.9,0.4-0.9s0.3-1.3,0.3-1.5c0-0.2,0.1-0.5,0.2-0.7c0.1-0.2,0-0.5,0-0.6c0-0.1-0.1-0.6-0.1-0.8
			c0-0.2,0.1-0.7,0.1-0.9c0-0.2-0.1-0.7-0.1-1c0-0.3-0.1-2.4-0.1-2.4s-0.3-1.4-0.3-1.5c0-0.1,0-0.8,0-0.8s0-1.7-0.1-1.7
			c0-0.1,0-0.5-0.1-0.5s-0.1-1.2,0-1.4s0.1-0.7,0.1-0.9s0.3-2,0.3-2.4s0.1-1.2,0.1-1.7c0-0.6-0.2-2.5-0.2-2.5s0-2.1,0-2.8
			s0.1-3.1,0.1-3.1s0.3-1.1,0.2-1.1c-0.1-0.1,0.1-0.9,0-1s0-0.8,0-1.1c0-0.3,0.1-0.7,0.1-1c0.1-0.3,0-0.6,0-0.7c0-0.1,0-0.6,0.1-0.8
			c0.1-0.2,0.1-0.7,0.2-1.1c0-0.3-0.1-0.8-0.3-1.1s0-0.9,0-1.1c0-0.2,0.2-0.5,0.2-0.6c0-0.2,0-0.3,0-0.4c0-0.2,0-0.8,0-1.1
			c0-0.3,0.2-0.4,0.3-0.6c0.1-0.2,0.3-0.1,0.4-0.3c0.1-0.2,0.5-0.3,0.7-0.3c0,0,0,0,0.1,0c0.1,0,0.5,0.3,0.6,0.5c0,0,0,0,0.1,0
			c0.1,0,0.4-0.3,0.4-0.3V1.6c0,0-0.1-0.2-0.2-0.3c0,0-0.1,0-0.1,0c-0.1,0-0.2,0-0.2,0c-0.1,0-0.6-0.6-0.6-0.6l-0.6-0.2
			C84.4,0.4,84.2,0.4,84.1,0.4L84.1,0.4z"/>
	</g>
	<g>
		<path fill="#878787" d="M61.6,62.8c-0.3,0-0.9-0.1-1.5-0.1c-0.6-0.1-1.1-0.1-1.4-0.1c-0.2,0-0.4,0-0.6,0c0.2-0.1,0.4-0.3,0.5-0.3
			c0.1-0.1,0.3-0.1,0.5-0.2c0.2,0,0.4-0.1,0.7-0.2c0.5-0.2,0.9-0.2,1.4-0.2c0.4,0,2.2-0.3,2.8-0.5c0.3-0.1,0.9-0.2,1.3-0.2
			c0.3,0,0.5-0.1,0.6-0.1c0.3-0.1,1.1-0.2,1.4-0.2c0.3,0.1,0.8,0.2,1.1,0.2c0.3,0,0.6,0,1-0.2c0.2-0.1,0.5-0.1,0.9-0.1
			c0.4,0,0.8-0.1,1.1-0.2c0.6-0.2,1.2-0.5,1.8-0.9c0.2-0.2,0.6-0.4,0.9-0.6c0.7-0.4,1-0.6,1.1-0.8c0.1-0.1,0.2-0.2,0.3-0.3
			c0.3-0.3,0.6-0.7,0.8-0.9c0.2-0.3,0.7-1,1-1.3c0.2-0.2,0.4-0.5,0.5-0.8c0.1-0.2,0.2-0.4,0.2-0.4c0,0,0,0,0,0c0,0,0.1,0,0.1,0
			c0,0,0.1,0,0.1,0c-0.1,0.3-0.1,0.5-0.2,0.6c0,0-0.1,0.1-0.2,0.9c0,0,0,0.1,0,0.1c0.1,0.1,0.2,0.4,0.2,0.6c0,0.1-0.4,0.8-0.7,1.4
			c-0.3,0.7-0.7,1.4-0.8,1.5c-0.1,0.1-1.1,1-1.6,1.3c-0.3,0.2-0.6,0.3-1,0.4c-0.2,0-0.3,0.1-0.5,0.1c-0.8,0.2-2,0.3-2.3,0.3
			c-0.3,0-0.5-0.1-0.8-0.2c-0.1,0-0.2-0.1-0.3-0.1c-0.1,0-0.3-0.1-0.4-0.1c-0.4,0-1,0.1-1.8,0.3c-0.8,0.2-1.4,0.7-1.5,0.8
			c-0.2,0.1-1.8,0.3-2.9,0.3c-1,0-1.3,0.1-1.6,0.1l-0.2,0C61.7,62.8,61.7,62.8,61.6,62.8z"/>
		<path fill="#9D9D9C" d="M77.8,55.3c0,0.1,0,0.2,0,0.4c0,0.1,0,0.2,0.1,0.3c0.1,0.1,0.2,0.3,0.2,0.4c-0.1,0.2-0.4,0.8-0.7,1.3
			c-0.3,0.6-0.7,1.4-0.8,1.5c-0.1,0.1-1.1,1-1.6,1.3c-0.3,0.2-0.5,0.3-1,0.4c-0.2,0-0.3,0.1-0.5,0.1c-0.7,0.2-1.9,0.3-2.3,0.3
			c-0.2,0-0.4-0.1-0.7-0.2c-0.1,0-0.2-0.1-0.3-0.1c-0.1-0.1-0.3-0.1-0.5-0.1c-0.2,0-0.4,0-0.6,0.1c0.1,0,0.2-0.1,0.3-0.1
			c0.2-0.1,0.5-0.1,0.8-0.1c0.4,0,0.8-0.1,1.2-0.2c0.6-0.2,1.2-0.5,1.9-0.9c0.2-0.2,0.6-0.4,0.9-0.6c0.8-0.5,1.1-0.7,1.2-0.8
			c0-0.1,0.2-0.2,0.3-0.3c0.4-0.4,0.7-0.7,0.8-1c0.2-0.3,0.7-0.9,1-1.2C77.6,55.5,77.7,55.4,77.8,55.3 M67.2,60.9
			C67.2,60.9,67.2,60.9,67.2,60.9c0.4,0.1,0.8,0.2,1.1,0.2c0.1,0,0.2,0,0.3,0c-0.2,0.1-0.5,0.1-0.7,0.2c-0.8,0.2-1.4,0.7-1.6,0.8
			c-0.4,0.1-1.8,0.3-2.8,0.3c-1,0-1.3,0.1-1.7,0.2c-0.1,0-0.1,0-0.2,0c0,0,0,0-0.1,0c-0.3,0-0.9-0.1-1.5-0.1
			c-0.5-0.1-0.9-0.1-1.2-0.1c0.1,0,0.1,0,0.2,0c0.2,0,0.4-0.1,0.7-0.2c0.5-0.2,0.9-0.2,1.3-0.2c0.5,0,2.2-0.3,2.9-0.5
			c0.3-0.1,0.8-0.2,1.2-0.2c0.3,0,0.5-0.1,0.7-0.1C66.1,61,66.9,60.9,67.2,60.9 M78.2,53.9c-0.1,0-0.2,0-0.2,0
			c-0.2,0.1-0.5,1-0.8,1.3c-0.3,0.3-0.9,1-1.1,1.3c-0.2,0.3-0.9,1-1.1,1.2s-1.4,0.9-2,1.3s-1.1,0.7-1.7,0.9s-1.6,0.2-2,0.3
			c-0.4,0.2-0.6,0.2-1,0.2c-0.3,0-0.8-0.2-1-0.2c0,0-0.1,0-0.1,0c-0.3,0-1.2,0.2-1.5,0.2c-0.3,0.1-1.4,0.1-1.9,0.3
			c-0.6,0.2-2.3,0.5-2.7,0.5c-0.4,0-0.9,0.1-1.4,0.2s-1,0.2-1.2,0.4c-0.2,0.2-1,0.7-1,0.7s0.7,0.2,1.3,0.2c0.5,0,2.2,0.3,2.8,0.3
			c0.1,0,0.1,0,0.2,0c0.4-0.1,0.6-0.2,1.7-0.2c1.2,0,2.9-0.3,3-0.3s0.6-0.6,1.5-0.8c0.7-0.2,1.3-0.3,1.8-0.3c0.1,0,0.3,0,0.4,0
			c0.4,0.1,0.7,0.3,1.1,0.3s1.6-0.1,2.4-0.3c0.8-0.2,1.2-0.3,1.6-0.6c0.5-0.3,1.5-1.2,1.7-1.4s0.8-1.6,0.8-1.6s0.8-1.3,0.7-1.5
			c0-0.2-0.3-0.6-0.3-0.6s0.1-0.8,0.1-0.8c0.1-0.1,0.2-0.9,0.2-0.9S78.4,53.9,78.2,53.9L78.2,53.9z"/>
	</g>
	<g>
		<path fill="#9D9D9C" d="M41.1,75.3c-0.1-0.1-0.4-0.2-0.5-0.4c-0.1-0.1-0.1-0.1-0.2-0.2c-0.1-0.1-0.3-0.2-0.3-0.3
			c0-0.1,0-0.2,0-0.3c0-0.1-0.1-0.2-0.1-0.4c0-0.1,0-0.2,0-0.3c0-0.4,0-0.6,0-0.8c-0.1-0.1-0.2-0.7-0.3-1c0,0,0-0.1-0.1-0.1
			c0,0-0.2-0.3-0.6-0.3c-0.3,0-0.9,0.3-1,0.4l0,0c0,0-0.8,0.2-1.1,0.3c0,0-0.1,0-0.1,0c-0.4,0-0.9-0.2-1-0.3c0,0-0.1-0.1-0.1-0.1
			c-0.1-0.1-0.2-0.1-0.2-0.4c0-0.1,0-0.2,0-0.3c0-0.3,0-0.6-0.3-0.8c-0.1-0.1-0.2-0.1-0.3-0.1c-0.1,0-0.2,0-0.4-0.2
			c-0.5-0.6-0.7-0.8-1-0.8c-0.1,0-0.5-0.3-0.6-0.4c0-0.1-0.2-0.4-0.3-0.8c-0.1-0.5-0.3-0.7-0.5-1l-0.1-0.1c-0.1-0.2-0.5-0.6-0.7-0.9
			c-0.2-0.2-0.4-0.4-0.4-0.5c0-0.1-0.3-0.8-0.5-1.3c0.2-1.4,0.2-1.9,0.3-2.1c0.1-0.2,0.8-1,1.5-1.6l1.8-1.3c1-0.4,2.3-0.8,2.4-0.8
			c0,0,0,0,0,0c0.1,0,0.8-0.1,1.4-0.1c0.5,0,0.9-0.1,1-0.1h2.7l1.6,0.2l1.6,0.6l1.1,0.7l1.2,1l0.7,1.2l0.2,0.9c0,0.1,0,0.1,0.1,0.1
			l0.3,0.2c0,0,0.1,0,0.1,0c0,0,2.9-0.2,2.9-0.2c1.2,0,3.2,0.1,3.3,0.1c0.1,0,1.9,0.1,2.6,0.2l4.3,0.4l4.5-0.4l2.1-0.6l2.2-0.3
			c0.3,0,2.9-0.3,3-0.3c0.1,0,0.3-0.1,0.5-0.1c0.5-0.1,1.2-0.3,1.5-0.4c0.4-0.1,1.3-0.1,1.3-0.1c0,0,0.1,0,0.1,0l1.6-0.9l1.3-1.3
			l0.8-1.3l0.2-0.4l0.2-0.1c0,0,0.1-0.1,0.1-0.1c0.4-0.8,0.6-1.3,0.6-1.3c0-0.2,0.5-1.4,0.6-1.6c0,0,0,0,0,0c0,0,0.2-0.1,0.6-1.2
			l0.4-1.5l0-0.7c0,0,0.1-0.4,0.2-0.6c0.1-0.3,0.3-2.4,0.3-2.5c0-0.1,0.3-1.7,0.3-1.9c0,0,0.1-0.1,0.2-1l0-0.9l0.1-0.6l0.3-2.4
			c0-0.5,0-1,0-1.1c0.1-0.2,0.3-1.8,0.3-2.1v-3.8c0-0.4,0.1-2,0.1-2v-5c0-0.5,0.1-1.8,0-2.1c0-0.1,0-0.3,0-0.5c0-0.3,0.1-0.5,0-0.6
			c0-0.1,0-0.7,0-1.1l0-0.8l-0.1-0.7c0.1-0.4,0.1-0.6,0.1-0.7c0,0,0,0,0,0c0,0.3,0.1,0.5,0.1,0.6c0,0.1,0,0.1,0,0.1l0,0.5
			c0,0.2,0,0.9,0,0.9l0.1,4.8c0,0-0.1,3.8-0.1,3.9s0.1,0.7,0.2,0.9l-0.1,0.4c-0.1,0.1-0.2,0.5-0.2,0.7c0,0.2,0.1,0.9,0.1,1.1
			c0,0.2-0.1,1-0.1,1.1c-0.1,0.1,0,0.5,0,0.8c0,0,0,0.1,0,0.1c0,0,0.2,0.3,0.2,0.4c0,0.1,0,0.8,0,0.9c0,0,0,0,0,0
			c0,0-0.1,0.1-0.3,1.8l0,2.5c0,0-0.1,1.9-0.2,2.2c0,0.1-0.1,0.4-0.1,0.7c-0.1,0.6-0.1,0.8-0.1,0.9c0,0.1-0.1,0.4-0.1,0.8
			c-0.1,0.6-0.2,1.3-0.2,1.6l0,0.5c-0.1,1.4-0.1,1.9-0.1,2c0,0.1-0.2,1-0.3,1.6c-0.1,0.4-0.1,0.7-0.1,0.7c0,0.1-0.5,1.2-0.6,1.4
			c-0.2,0.2-0.6,1.1-0.7,1.5l0,0.2c-0.2,0.8-0.4,1.3-0.5,1.4c-0.2,0.1-0.3,0.4-0.5,0.7c-0.2,0.3-0.3,0.5-0.5,0.7
			c-0.4,0.4-1.5,2-1.6,2c-0.1,0.1-0.4,0.4-0.7,0.6c-0.5,0.4-0.7,0.6-0.7,0.7c-0.2,0.1-1.6,0.7-1.9,0.7c-0.1,0-0.3,0-0.4,0
			c-0.4,0-1.1,0-1.4,0.1c-0.4,0.1-1.2,0.3-1.5,0.4l-0.3,0.1c-0.5,0.1-1.4,0.3-2.1,0.3c-0.9,0-2.3,0.2-3,0.4
			c-0.3,0.1-0.6,0.1-0.8,0.2c-0.3,0.1-0.6,0.1-0.9,0.2c-0.6,0.1-1.4,0.2-1.8,0.3c-0.5,0.1-2.4,0.2-2.5,0.2c0,0-1.5-0.3-1.8-0.3
			c-0.1,0-0.3,0-0.6-0.1c-0.4-0.1-1-0.1-1.4-0.1l-0.1,0c-0.2,0-0.5,0.1-0.8,0.1c-0.5,0.1-1,0.2-1.4,0.2c-0.1,0-0.2,0-0.3,0
			c-0.2,0-0.4-0.1-0.7-0.2c-0.5-0.1-1.1-0.3-1.7-0.3l-0.6,0c-0.4,0-0.9,0-1.3,0c-0.3,0-0.5,0-0.8,0c-0.4,0-0.9,0.1-1.4,0.1
			c-0.5,0-0.9,0.1-1.2,0.1c0-0.1,0-0.4,0-0.7c0-0.1,0-0.1,0-0.2c0,0-0.6-0.8-0.8-1.1c-0.2-0.2-0.5-0.5-0.9-0.9l-0.2-0.2
			c-0.3-0.2-1.5-0.8-1.8-1c-0.1-0.1-0.3-0.1-0.5-0.2c-0.2-0.1-0.6-0.2-0.7-0.3c-0.1-0.1-0.3-0.1-0.7-0.2c-0.1,0-0.3-0.1-0.4-0.1
			c-0.3-0.1-1.1-0.2-1.5-0.2c-0.3,0-0.9,0.1-1.3,0.1c-0.2,0-0.4,0.1-0.5,0.1l-0.2,0c-0.3,0-0.8,0.1-1.1,0.2c-0.1,0-0.2,0.1-0.3,0.1
			c-0.2,0.1-0.5,0.1-0.8,0.3c-0.2,0.1-0.3,0.1-0.5,0.2c-0.2,0.1-0.5,0.2-0.7,0.3l-0.1,0.1c-0.4,0.2-0.8,0.4-1,0.6
			c-0.2,0.2-0.4,0.6-0.5,0.9c-0.2,0.4-0.2,0.7-0.2,1l0,0.2c0,0.4,0,1.1,0,1.1c0.1,0.2,0.3,0.8,0.7,0.8c0.2,0,0.6,0.2,0.8,0.3
			c0.5,0.1,1,0.2,1.1,0.2c0,0,0.3,0.4,0.4,0.5c0.1,0.2,0.2,0.5,0.2,0.6c0,0.1,0,0.2,0,0.4c0,0.5,0,0.7,0,0.7
			c0.1,0.2,0.6,0.4,0.7,0.4l0.1,0c0.1,0,0.3,0,0.5,0c0.2,0,0.3,0,0.5,0c0.5-0.1,1.4-0.2,1.8-0.4c0.1,0,0.2-0.1,0.4-0.1
			c0.3-0.1,0.7-0.2,1-0.4l0.2-0.1c0.2-0.2,0.4-0.3,0.7-0.4c0.1,0,0.2-0.1,0.2-0.1c0.2-0.1,0.3-0.1,0.7-0.3c0.4-0.3,0.8-0.5,0.9-0.5
			c0.1,0,0.6-0.1,0.9-0.2l0.2,0c0.2,0,0.4-0.1,0.8-0.2c0.4-0.2,0.9-0.3,0.9-0.3l0,0c0,0,0,0,0.1,0c0.1,0,0.1,0.1,0.1,0.2
			c0,0.1,0,0.3,0.1,0.4c0.1,0.2,0.3,0.5,0.3,0.5c0,0,0,0,0,0c-0.7,0.5-0.9,0.6-0.9,0.6c-0.2,0-0.3,0.1-0.4,0.2
			c-0.1,0.1-0.3,0.2-0.6,0.3c-0.2,0.1-0.3,0.1-0.4,0.1c-0.2,0.1-0.4,0.1-0.7,0.3c-0.2,0.1-0.4,0.2-0.5,0.3c-0.1,0.1-0.2,0.1-0.3,0.2
			c-0.1,0.1-0.2,0.1-0.3,0.2c-0.2,0.1-0.4,0.2-0.6,0.3c-0.3,0.2-0.5,0.6-0.5,0.6c0,0.1,0,0.2,0.1,0.3c0.3,0.2,0.7,0.5,0.9,0.7
			c0,0,0,0.1-0.1,0.1c-0.1,0.1-0.1,0.2-0.2,0.3c-0.1,0.1-0.4,0.5-0.4,0.7c0,0.1,0.1,0.6,0.1,0.6c0,0.1,0,0.1,0.1,0.2
			c0,0,0.2,0.2,0.4,0.2c0.1,0,0.1,0,0.2,0c0.2-0.1,0.5-0.3,1-0.6l0.3-0.2c0.2-0.1,0.3-0.3,0.5-0.5c0.2-0.2,0.4-0.5,0.7-0.6
			c0.3-0.2,0.6-0.4,0.8-0.7c0.2-0.2,0.3-0.3,0.4-0.4c0.2-0.1,0.4-0.4,0.6-0.7c0.1-0.2,0.3-0.4,0.4-0.5c0.2-0.1,0.4-0.3,0.6-0.5
			c0.2-0.2,0.4-0.3,0.5-0.4c0.2-0.2,0.3-0.4,0.4-0.7c0.1-0.2,0.2-0.4,0.3-0.5c0.3-0.2,0.7-0.7,0.9-1c0.1,0,0.2,0.1,0.3,0.1
			c0,0,0.1,0.1,0.1,0.2c0.1,0.2,0.2,0.3,0.3,0.4c0,0,0.1,0.3,0.2,0.5l-0.5,0.9c0,0-0.3,0.5-0.4,0.8c-0.1,0.2-0.4,0.5-0.6,0.8
			c-0.2,0.2-0.3,0.4-0.4,0.5c-0.1,0.1-0.2,0.3-0.3,0.5c-0.2,0.3-0.3,0.6-0.7,0.9c-0.3,0.2-0.5,0.4-0.7,0.7c-0.3,0.3-0.5,0.5-0.8,0.7
			c-0.4,0.2-0.9,0.7-1.3,1.2c-0.2,0.2-0.5,0.5-0.5,0.6c-0.1,0-0.2,0.1-0.4,0.3c-0.3,0.2-0.8,0.5-0.9,0.5c0,0,0,0,0,0
			c-0.2,0-0.3,0.1-0.5,0.1c-0.1,0.1-0.3,0.1-0.5,0.1c-0.2,0-0.3,0-0.5,0.1c-0.1,0-0.3,0-0.5,0H41.1z M85.7,27.5 M85.5,19.6
			c0-0.6,0-0.7,0-0.8c0,0,0-0.3,0-0.5c0-0.3,0-0.4,0-0.5c0-0.1,0-0.4,0-0.7l0-0.7l-0.1-1.5l0.1-0.5l0.1-1.2c0-0.2,0-0.4,0-0.5
			c0-0.1,0-0.4,0-0.8l0-0.1c0-0.1,0.2-0.8,0.2-0.8l0-3L86,7.7c0,0,0-0.1,0-0.1v-1C86,6.3,86,6,86,6c0,0,0.1-0.4,0.1-0.9
			c0,0.1,0,0.2,0,0.3c0,0.6,0,1.6,0,1.7c-0.1,0.2,0,0.9,0,1.2L86,9.9c0,0.3,0,0.6,0,0.7c-0.1,0.1,0,0.4,0,0.7
			c-0.1,0.2-0.2,0.5-0.1,0.7c0,0.1,0,0.3,0,0.5c0,0.5,0,0.7,0,0.8c0,0.1-0.1,0.7-0.1,0.9c0,0.2,0,0.3,0,0.3c0,0,0,0.1,0.2,0.7
			c0,0.1,0,0.3,0,0.3c-0.1,0.2-0.1,0.4-0.1,0.8c0,0.2,0,0.3,0.1,0.4c0,0.1,0,0.2,0,0.3c0,0.2,0,0.4,0,0.6c0,0.2,0,0.4,0,0.5
			c0,0.1-0.1,0.2-0.1,0.3c-0.1,0.2-0.2,0.5-0.2,0.9C85.5,19.2,85.5,19.5,85.5,19.6z"/>
		<path fill="#9D9D9C" d="M85.5,36.8c0,0.1,0.1,0.1,0.1,0.1c0,0.2,0,0.6,0,0.8c0,0.1-0.1,0.2-0.1,0.4c0-0.1,0-0.1,0-0.2V36.8
			 M85.3,39.8l0,2.3c0,0.5-0.1,2-0.2,2.2c0,0.1-0.1,0.4-0.1,0.7c-0.1,0.6-0.1,0.9-0.1,0.9c0,0.1-0.1,0.5-0.1,0.8
			c-0.1,0.7-0.2,1.3-0.2,1.6l0,0.5c-0.1,1.4-0.1,1.8-0.1,2c0,0.2-0.2,1.1-0.3,1.5C84,52.7,84,52.9,84,53c-0.1,0.2-0.4,1.1-0.5,1.3
			c-0.2,0.2-0.6,1.2-0.7,1.6l0,0.2c-0.2,0.7-0.3,1.1-0.4,1.2c-0.2,0.2-0.4,0.4-0.6,0.8c-0.1,0.2-0.3,0.5-0.4,0.6
			c-0.5,0.4-1.6,2-1.6,2c0,0,0,0,0,0c-0.1,0.1-0.4,0.4-0.6,0.6c-0.4,0.4-0.6,0.6-0.7,0.7c-0.3,0.2-1.5,0.6-1.7,0.7
			c-0.1,0-0.3,0-0.5,0c-0.2,0-1,0-1.5,0.2c-0.4,0.1-1.2,0.3-1.5,0.4c-0.1,0-0.2,0-0.3,0.1c-0.5,0.1-1.4,0.3-2.1,0.3
			c-0.9,0-2.3,0.2-3,0.4c-0.3,0.1-0.6,0.1-0.8,0.2c-0.3,0.1-0.6,0.1-1,0.2c-0.5,0.1-1.3,0.2-1.8,0.3l-0.1,0c-0.3,0-1.7,0.1-2.3,0.2
			c-0.3-0.1-1.5-0.3-1.9-0.3c-0.1,0-0.3,0-0.5-0.1c-0.5-0.1-1-0.1-1.4-0.1c0,0-0.1,0-0.1,0c-0.2,0-0.5,0.1-0.9,0.1
			c-0.5,0.1-1,0.2-1.4,0.2c-0.1,0-0.2,0-0.2,0c-0.2,0-0.4-0.1-0.7-0.2c-0.5-0.1-1.1-0.3-1.8-0.3l-0.6,0c-0.4,0-0.9,0-1.3,0
			c-0.3,0-0.5,0-0.8,0c-0.4,0-0.9,0.1-1.4,0.1c-0.3,0-0.6,0.1-0.9,0.1c0-0.1,0-0.2,0-0.4c0-0.1,0-0.3-0.1-0.4c0,0-0.6-0.8-0.8-1.1
			c-0.2-0.2-0.6-0.6-1-0.9l-0.2-0.2c-0.3-0.3-1.7-0.9-1.9-1c-0.1-0.1-0.3-0.1-0.5-0.2c-0.2-0.1-0.6-0.2-0.6-0.3
			c-0.2-0.1-0.4-0.2-0.9-0.2c-0.1,0-0.3-0.1-0.4-0.1c-0.4-0.1-1.1-0.2-1.6-0.2c-0.3,0-0.9,0.1-1.3,0.1c-0.2,0-0.4,0.1-0.5,0.1
			l-0.2,0c-0.5,0-0.9,0.1-1.1,0.2c-0.1,0-0.2,0.1-0.3,0.1c-0.2,0.1-0.5,0.1-0.9,0.3c-0.2,0.1-0.3,0.1-0.5,0.2
			c-0.2,0.1-0.5,0.2-0.7,0.3l-0.1,0.1c-0.4,0.2-0.8,0.4-1.1,0.7c-0.2,0.3-0.4,0.6-0.6,0.9l0,0.1c-0.2,0.3-0.2,0.7-0.2,1l0,0.2
			c0,0.4,0,1.1,0,1.1c0,0,0,0.1,0,0.1c0.1,0.3,0.3,0.9,0.9,1c0.1,0,0.5,0.1,0.8,0.2c0,0,0.1,0,0.1,0c0.3,0.1,0.8,0.1,0.9,0.2
			c0.1,0.1,0.3,0.3,0.3,0.4c0.1,0.2,0.2,0.4,0.2,0.5c0,0.1,0,0.2,0,0.4c0,0.6,0,0.7,0,0.8c0.1,0.4,0.8,0.6,1,0.6l0.1,0
			c0.1,0,0.3,0,0.5,0c0.2,0,0.3,0,0.5,0c0.5-0.1,1.4-0.2,1.8-0.4c0.1,0,0.2-0.1,0.3-0.1c0.4-0.1,0.8-0.2,1-0.4l0.2-0.1
			c0.2-0.2,0.4-0.3,0.7-0.4c0.1,0,0.2,0,0.2-0.1c0.3-0.1,0.4-0.1,0.8-0.4c0.4-0.3,0.7-0.4,0.8-0.4c0.1,0,0.6-0.1,0.9-0.2l0.2,0
			c0.2,0,0.4-0.1,0.8-0.2c0.3-0.1,0.6-0.2,0.7-0.2c0,0.1,0.1,0.3,0.1,0.4c0.1,0.1,0.1,0.2,0.2,0.3c-0.5,0.3-0.6,0.4-0.7,0.4
			c-0.2,0.1-0.3,0.1-0.5,0.2c-0.1,0.1-0.3,0.2-0.5,0.2c-0.2,0.1-0.3,0.1-0.4,0.1c-0.3,0.1-0.5,0.1-0.8,0.3c-0.2,0.1-0.4,0.2-0.5,0.3
			c-0.1,0.1-0.2,0.1-0.3,0.2c-0.1,0.1-0.2,0.1-0.3,0.2c-0.2,0.1-0.5,0.2-0.7,0.4c-0.3,0.3-0.5,0.7-0.5,0.7c-0.1,0.2,0,0.5,0.1,0.6
			c0.2,0.2,0.5,0.4,0.7,0.6c0,0.1-0.1,0.1-0.1,0.2c-0.1,0.2-0.4,0.5-0.4,0.9c0,0.2,0.1,0.5,0.1,0.6c0,0.1,0.1,0.2,0.2,0.3
			c0,0,0.3,0.2,0.6,0.2c0.1,0,0.2,0,0.3-0.1c0.2-0.1,0.5-0.3,1-0.6c0.1-0.1,0.2-0.1,0.3-0.2c0.2-0.1,0.4-0.3,0.5-0.5
			c0.2-0.2,0.4-0.4,0.6-0.5c0.4-0.2,0.6-0.5,0.9-0.7c0.1-0.1,0.3-0.3,0.4-0.3c0.3-0.1,0.5-0.4,0.7-0.8c0.1-0.1,0.3-0.4,0.3-0.4
			c0.2-0.1,0.4-0.3,0.7-0.6c0.2-0.2,0.4-0.3,0.5-0.4c0.3-0.2,0.4-0.5,0.5-0.8c0-0.1,0.1-0.3,0.2-0.3c0.3-0.2,0.7-0.6,0.9-0.9
			c0,0,0,0,0,0c0,0,0.1,0.1,0.1,0.1c0.1,0.1,0.2,0.3,0.3,0.4c0,0.1,0.1,0.2,0.1,0.3l-0.5,0.8c0,0-0.2,0.5-0.4,0.7
			c-0.1,0.2-0.4,0.5-0.6,0.7c-0.2,0.2-0.3,0.4-0.4,0.5c-0.1,0.2-0.2,0.4-0.3,0.5c-0.2,0.3-0.3,0.6-0.6,0.8c-0.3,0.2-0.5,0.5-0.7,0.7
			c-0.2,0.3-0.5,0.5-0.7,0.7c-0.4,0.2-0.9,0.8-1.3,1.3c-0.2,0.2-0.4,0.5-0.5,0.5c-0.1,0.1-0.2,0.2-0.4,0.3c-0.2,0.1-0.7,0.4-0.8,0.5
			c-0.2,0-0.4,0.1-0.5,0.1c-0.1,0.1-0.3,0.1-0.4,0.1c-0.2,0-0.3,0-0.5,0.1c-0.1,0-0.3,0-0.5,0h-0.3c-0.1-0.1-0.3-0.2-0.4-0.3
			c-0.1-0.1-0.1-0.1-0.2-0.2c-0.1-0.1-0.2-0.2-0.2-0.2c0-0.1,0-0.2-0.1-0.3c0-0.1,0-0.2,0-0.3c0-0.1,0-0.2,0-0.3
			c0-0.4,0-0.7-0.1-0.9c0-0.1-0.2-0.6-0.2-0.9c0-0.1-0.1-0.2-0.1-0.2c-0.1-0.1-0.3-0.4-0.8-0.4c0,0-0.1,0-0.1,0
			c-0.3,0-0.8,0.3-1,0.4c-0.2,0-0.8,0.2-1.1,0.3c0,0,0,0-0.1,0c-0.3,0-0.7-0.1-0.8-0.2c-0.1-0.1-0.1-0.1-0.1-0.1
			c-0.1-0.1-0.1-0.1-0.1-0.2c0-0.1,0-0.2,0-0.3c0-0.3,0-0.8-0.5-1c-0.1-0.1-0.3-0.1-0.3-0.1c-0.1,0-0.1,0-0.2-0.1
			c-0.5-0.6-0.8-0.9-1.1-0.9c-0.1,0-0.3-0.2-0.4-0.3c-0.1-0.1-0.2-0.4-0.2-0.7c-0.1-0.5-0.3-0.8-0.5-1.1l-0.1-0.1
			c-0.1-0.2-0.5-0.6-0.7-0.9c-0.2-0.2-0.3-0.4-0.4-0.5c-0.1-0.1-0.3-0.7-0.5-1.3c0.2-1.2,0.2-1.7,0.2-1.9c0.2-0.2,0.8-0.9,1.4-1.5
			l1.8-1.3c1-0.4,2.1-0.7,2.3-0.8c0.1,0,0.5,0,1.4-0.1c0.5,0,0.9-0.1,0.9-0.1h2.7l1.6,0.2l1.5,0.6l1.1,0.6l1.2,1l0.6,1.1l0.2,0.9
			c0,0.1,0.1,0.2,0.2,0.3l0.3,0.2c0.1,0.1,0.2,0.1,0.3,0.1c0,0,0,0,0,0l2.8-0.2c1.2,0,3.1,0.1,3.3,0.1c0.1,0,1,0.1,2.6,0.2l4.3,0.5
			c0,0,0,0,0.1,0c0,0,0,0,0,0l4.5-0.4c0,0,0.1,0,0.1,0l2.1-0.6l2.2-0.3c0.7-0.1,2.9-0.3,3-0.3c0.1,0,0.3-0.1,0.6-0.1
			c0.5-0.1,1.2-0.3,1.5-0.4c0.4-0.1,1.3-0.1,1.3-0.1c0.1,0,0.2,0,0.2-0.1l1.6-0.9c0,0,0.1,0,0.1-0.1l1.3-1.2c0,0,0.1-0.1,0.1-0.1
			l0.8-1.3l0.2-0.3l0.1-0.1c0.1,0,0.2-0.1,0.2-0.2c0.6-1.2,0.6-1.3,0.6-1.4c0-0.2,0.4-1.2,0.5-1.5c0.1-0.1,0.3-0.4,0.7-1.3
			c0,0,0,0,0-0.1l0.4-1.4c0,0,0-0.1,0-0.1v-0.5c0-0.1,0.1-0.4,0.2-0.6c0-0.2,0.3-2.4,0.3-2.6c0-0.2,0.2-1.5,0.3-1.8
			c0-0.1,0.1-0.3,0.2-1c0,0,0-0.1,0-0.1v-0.8l0.1-0.6l0.3-2.4c0,0,0-0.1,0-0.1c0-0.4,0-0.9,0-1C85.2,40,85.3,39.9,85.3,39.8
			 M82.7,54.5L82.7,54.5L82.7,54.5 M46.3,65.8L46.3,65.8L46.3,65.8 M86.3,0l-0.2,2.8c0,0-0.3,3-0.3,3.1c0,0.1,0,0.7,0,0.7v1L85.5,8
			v3c0,0-0.2,0.8-0.2,0.9s0,0.7,0,0.8c0,0.2,0,0.5,0,0.5l-0.1,1.1L85.1,15l0.1,1.5v0.7c0,0,0,0.6,0,0.7c0,0.2-0.1,0.9,0,1
			s0,1.5,0,1.6c0,0.1-0.1,0.8-0.1,0.8l0.1,0.7v0.8c0,0-0.1,1.1,0,1.2c0.1,0.1-0.1,0.8,0,1.1c0.1,0.2,0,2,0,2v0.8c0,0,0,4.1,0,4.2
			c0,0.1-0.1,2-0.1,2v1.6c0,0,0,1.9,0,2.1c0,0.3-0.2,1.8-0.3,2s0,1.2,0,1.2l-0.3,2.4L84.3,44v0.9c0,0-0.2,0.8-0.2,0.9
			c-0.1,0.1-0.3,1.9-0.3,2c0,0.1-0.3,2.2-0.3,2.5S83.3,51,83.3,51v0.6L82.9,53c0,0-0.4,1.1-0.6,1.1c-0.1,0.1-0.7,1.6-0.7,1.7
			c0,0.1-0.6,1.3-0.6,1.3l-0.3,0.1l-0.2,0.5L79.8,59l-1.3,1.2L77,61.1c0,0-0.9,0.1-1.3,0.1c-0.4,0.1-1.9,0.5-2.1,0.5
			c-0.2,0-3,0.3-3,0.3l-2.3,0.3l-2.1,0.6l-4.5,0.4l-4.3-0.5c0,0-2.4-0.2-2.6-0.2c-0.1,0-3.4-0.1-3.4-0.1l-2.9,0.2l-0.3-0.2l-0.2-0.9
			l-0.7-1.2l-1.3-1.1L45,58.6L43.3,58l-1.7-0.2c0,0-2.6,0-2.7,0c-0.1,0-2.3,0.2-2.4,0.2S34,58.8,34,58.8l-1.9,1.3
			c0,0-1.6,1.6-1.6,1.7c0,0.1-0.3,2.1-0.3,2.1s0.5,1.4,0.6,1.5c0.1,0.1,0.9,1.1,1.1,1.4c0.2,0.3,0.4,0.5,0.5,1
			c0.1,0.4,0.2,0.8,0.3,0.9c0.1,0.1,0.6,0.5,0.8,0.5s0.5,0.4,0.8,0.7c0.3,0.4,0.5,0.3,0.7,0.4c0.3,0.1,0.2,0.3,0.2,0.8
			s0.3,0.6,0.4,0.7c0.1,0.1,0.7,0.3,1.2,0.3c0.1,0,0.1,0,0.2,0c0.4-0.1,1.2-0.3,1.2-0.3s0.7-0.3,0.9-0.3c0,0,0,0,0,0
			c0.2,0,0.4,0.2,0.4,0.2s0.2,0.8,0.3,1c0.1,0.2,0,0.7,0,1c0,0.3,0.1,0.5,0.1,0.7c0,0.2,0.3,0.5,0.5,0.7s0.6,0.5,0.6,0.5s0,0,0.5,0
			s0.6-0.1,1-0.1c0.4,0,0.7-0.2,0.9-0.2s1.2-0.7,1.5-0.8c0.3-0.2,1.2-1.4,1.8-1.8c0.6-0.3,1-1,1.5-1.4s0.7-1,1-1.4
			c0.3-0.4,0.9-1,1.1-1.3c0.2-0.3,0.4-0.8,0.4-0.8l0.6-1c0,0-0.2-0.6-0.3-0.7c-0.1-0.1-0.2-0.4-0.3-0.5c-0.1-0.2-0.6-0.3-0.6-0.3
			s-0.6,0.9-0.9,1.1c-0.4,0.2-0.4,0.9-0.7,1.1c-0.3,0.2-0.8,0.8-1.1,1c-0.3,0.2-0.7,1-1.1,1.2c-0.3,0.2-0.7,0.8-1.2,1.1
			c-0.5,0.3-0.8,0.8-1.2,1.1c-0.3,0.2-1,0.7-1.2,0.8c0,0-0.1,0-0.1,0c-0.2,0-0.3-0.1-0.3-0.1s-0.1-0.4-0.1-0.5
			c0-0.1,0.1-0.4,0.3-0.6s0.3-0.5,0.4-0.6c0.1,0-1-0.9-1-0.9s0.2-0.3,0.4-0.6c0.2-0.2,0.6-0.3,0.9-0.5s0.4-0.3,0.8-0.5
			s0.6-0.2,1.1-0.4c0.6-0.2,0.7-0.4,1-0.4c0.3-0.1,0.9-0.5,1.1-0.7c0.2-0.2-0.1-0.3-0.1-0.3s-0.2-0.2-0.3-0.4
			c-0.1-0.2-0.1-0.4-0.2-0.6c0-0.1-0.2-0.1-0.3-0.1c-0.1,0-0.2,0-0.2,0s-0.5,0.1-0.9,0.3c-0.5,0.2-0.6,0.2-0.9,0.2s-0.8,0.2-0.9,0.2
			c-0.1,0-0.5,0.2-1,0.5c-0.4,0.3-0.5,0.2-0.8,0.4c-0.4,0.1-0.7,0.4-1,0.6c-0.3,0.2-0.8,0.3-1.2,0.5s-1.3,0.3-1.7,0.4
			c-0.2,0-0.3,0-0.4,0c-0.3,0-0.5,0-0.6,0c-0.1,0-0.5-0.2-0.5-0.3c0-0.1,0-0.8,0-1s-0.2-0.5-0.3-0.7c-0.1-0.2-0.4-0.6-0.5-0.6
			s-1.1-0.2-1.1-0.2s-0.6-0.2-0.9-0.3c-0.3,0-0.5-0.6-0.5-0.6s-0.1-0.7,0-1.1c0-0.3,0-0.7,0.2-1s0.3-0.7,0.5-0.9
			c0.2-0.2,0.6-0.4,1-0.6s0.7-0.3,1.2-0.5s0.8-0.3,1.1-0.4c0.3-0.1,0.9-0.1,1.2-0.2c0.3,0,1.4-0.2,1.8-0.2c0.4,0,1.1,0.1,1.5,0.2
			s1,0.2,1.1,0.2c0.1,0.1,0.9,0.4,1.3,0.5c0.4,0.2,1.6,0.7,1.8,0.9s0.9,0.7,1.1,1c0.2,0.3,0.8,1.1,0.8,1.1s-0.2,1,0.1,1
			c0.3,0,1.8-0.2,2.6-0.2c0.2,0,0.5,0,0.8,0c0.6,0,1.2,0,1.8,0c0.9,0,1.7,0.3,2.4,0.4c0.1,0,0.2,0,0.3,0c0.7,0,1.8-0.2,2.3-0.3
			c0,0,0.1,0,0.1,0c0.6,0,1.6,0.2,1.9,0.2c0.4,0,1.9,0.3,1.9,0.3s2-0.1,2.4-0.2s1.3-0.2,1.9-0.3c0.6-0.2,1.1-0.2,1.8-0.3
			c0.7-0.2,2-0.3,2.9-0.4s2.1-0.3,2.4-0.3c0.3-0.1,1.2-0.3,1.6-0.4c0.3-0.1,0.9-0.1,1.3-0.1c0.2,0,0.3,0,0.4,0c0,0,0,0,0,0
			c0.4,0,2-0.7,2.1-0.8c0.1-0.2,1.3-1.1,1.4-1.3c0.1-0.2,1.1-1.6,1.5-2c0.4-0.3,0.7-1.1,1-1.4c0.3-0.2,0.5-1.3,0.6-1.7
			c0.1-0.4,0.5-1.3,0.7-1.5s0.6-1.4,0.6-1.5s0.4-2.2,0.4-2.3c0-0.1,0.1-2,0.1-2.4c0-0.5,0.4-2.3,0.4-2.4c0-0.2,0.2-1.4,0.2-1.6
			c0-0.3,0.2-2.2,0.2-2.2l0-2.5c0,0,0.2-1.6,0.3-1.7c0.1-0.1,0-1,0-1.1c0-0.1-0.2-0.5-0.2-0.5s-0.1-0.6,0-0.7s0.1-1,0.1-1.2
			c0-0.2-0.1-1-0.1-1.1c0-0.2,0.2-0.6,0.2-0.6l0.1-0.4c0,0-0.2-0.8-0.2-0.9s0.1-3.9,0.1-3.9l0-2.3l0-2.5c0,0,0-0.7,0-0.8
			c0-0.2,0-0.4,0-0.5c0-0.1-0.1-0.3-0.2-0.7c-0.1-0.4,0-0.8,0.1-1.4c0.1-0.6,0.2-0.8,0.3-1.2c0.1-0.3-0.1-0.8,0-1.1
			c0.1-0.3-0.1-0.4-0.1-0.8c0-0.3,0-0.6,0.1-0.7c0.1-0.2,0-0.5,0-0.5s-0.2-0.5-0.2-0.6s0.2-1.2,0.2-1.3c-0.1-0.1,0.1-1,0-1.2
			c-0.1-0.2,0.1-0.6,0.1-0.6s-0.1-0.5,0-0.6c0.1-0.1,0-0.8,0-0.8l0.1-1.7c0,0-0.1-0.8,0-1.1c0.1-0.2-0.1-3,0-3.2
			c0.1-0.2,0.1-3.3,0.1-3.3L86.3,0L86.3,0z"/>
	</g>
	<g>
		<path fill="#878787" d="M17.6,69c-0.1,0-0.2,0-0.2,0c-0.1,0-0.1,0-0.2,0h-0.7c0,0-0.6-0.2-0.9-0.2c-0.2,0-0.3,0-0.4,0
			c-0.1-0.1-0.3-0.1-0.4-0.1c-0.1,0-0.3,0-0.4,0c-0.1,0-0.2,0-0.2,0c0,0-0.2-0.1-0.3-0.2c0,0-0.1-0.1-0.2-0.1h-1
			c-0.1,0-1.7-0.1-2.2-0.2C10.2,68.2,9,68,8,67.9c-0.6-0.1-1.1-0.1-1.2-0.1c-0.1,0-1.3-0.1-1.8-0.1c-0.6,0-1,0-1.2,0.1
			c-0.1,0-0.2,0-0.6,0c-0.5,0-1,0-1,0l-1.2,0.3l-0.8,0.3H0.3v-0.3c0.4-0.2,1.1-0.6,1.2-0.6c0.2,0,0.3,0,0.5,0.1c0.1,0,0.3,0,0.3,0
			c0.1,0,0.3-0.1,0.5-0.1c0.2-0.1,0.4-0.2,0.7-0.2c0.1,0,0.3-0.1,0.4-0.1c0.1,0,0.2,0,0.3,0c0.1,0,0.3,0,0.5,0.1c0.1,0,0.2,0,0.3,0
			c0.2,0,0.4,0,0.6,0c0.2,0,0.5,0,0.7,0c0.2,0,0.4,0,0.6,0c0.4,0,1.1,0.2,1.8,0.3c0.5,0.1,1,0.2,1.4,0.2l2.5,0.3
			c0.5,0.1,1.7,0.2,2.1,0.2c0.4,0,1.2,0.1,1.8,0.1c0.6,0,0.8,0,1.3-0.1c0.3-0.1,0.5-0.1,0.7-0.1c0.1,0,0.1,0,0.2,0c0,0,0.1,0,0.1,0
			c0,0,0.5-0.2,1-0.3c0,0,0,0,0,0c0.3,0,0.4,0.1,0.6,0.1c0.1,0,0.2,0.1,0.3,0.1c0,0,0,0,0,0c0.1,0.1,0.2,0.2,0.3,0.5
			c0,0-0.3,0-0.3,0c0,0-0.1,0-0.1,0L20,68.9l-0.9,0c0,0-0.2,0-0.5,0C18,68.8,17.8,68.9,17.6,69L17.6,69z"/>
		<path fill="#9D9D9C" d="M3.8,67.5c0.1,0,0.1,0,0.2,0C3.9,67.5,3.8,67.5,3.8,67.5c0,0.1-0.2,0.1-0.5,0.1c0,0,0.1,0,0.1,0
			C3.6,67.5,3.7,67.5,3.8,67.5 M19.6,68.3c0.2,0,0.3,0,0.4,0.1c0.1,0,0.2,0.1,0.3,0.1c0,0-0.1,0-0.1,0L20,68.6l-0.8,0
			c0,0-0.2,0-0.5,0c-0.5,0-0.9,0.1-1.1,0.2c0,0-0.1,0-0.1,0c-0.1,0-0.1,0-0.2,0c0.1,0,0.3,0,0.4-0.1c0.3-0.1,0.5-0.1,0.6-0.1
			c0.1,0,0.1,0,0.1,0c0,0,0,0,0,0c0.1,0,0.1,0,0.2,0C18.7,68.5,19.2,68.3,19.6,68.3L19.6,68.3 M3.8,67c-0.1,0-0.3,0-0.4,0.1
			c-0.5,0.1-0.9,0.3-1.1,0.3c-0.1,0-0.5-0.1-0.8-0.1c-0.1,0-0.1,0-0.2,0C1.2,67.4,0,68,0,68v0.7h0.4l0.8-0.3L2.2,68c0,0,0.5,0,1.1,0
			c0.3,0,0.5,0,0.6,0C4.1,68,4.5,68,5,68c0.8,0,1.6,0,1.7,0.1c0.1,0,3.2,0.4,3.7,0.5c0.5,0.1,2.1,0.2,2.2,0.2s1,0,1,0S14,69,14.2,69
			c0.1,0,0.4,0,0.6,0c0.1,0,0.2,0,0.2,0c0,0,0.1,0,0.2,0c0.1,0,0.3,0,0.4,0c0,0,0,0,0,0c0.3,0,0.9,0.2,0.9,0.2s0.6,0,0.7,0
			c0.1,0,0.3,0.1,0.4,0.1c0.1,0,0.2,0,0.2-0.1c0.1-0.1,0.5-0.1,0.8-0.1c0.2,0,0.4,0,0.4,0l1,0l0.4-0.2l0.4,0.1c0,0,0.3-0.1,0.2-0.2
			C21,68.6,20.7,68,20.5,68c0,0,0,0,0,0c0,0,0,0,0,0c-0.2,0-0.4-0.2-0.8-0.2c0,0-0.1,0-0.1,0c-0.5,0-1.1,0.3-1.1,0.3s-0.1,0-0.2,0
			c-0.2,0-0.4,0-0.7,0.1c-0.5,0.1-0.7,0.1-1.3,0.1s-1.4,0-1.8-0.1c-0.4,0-1.6-0.2-2.1-0.2c-0.5-0.1-1.7-0.2-2.5-0.3
			c-0.8-0.1-2.4-0.5-3.2-0.5c-0.2,0-0.4,0-0.6,0c-0.5,0-0.9,0-1.3,0c-0.1,0-0.2,0-0.3,0C4.2,67,4,67,3.8,67L3.8,67z"/>
	</g>
	
		<path fill="#878787" stroke="#9D9D9C" stroke-width="0.5" stroke-linecap="round" stroke-linejoin="round" stroke-miterlimit="10" d="
		M63.2,67.8c0,0,0.9-0.1,1.2-0.2c0.3,0,1.3,0,1.3,0l1.3-0.2c0,0,1.1,0,1.2,0c0.1,0,1.2,0.1,1.3,0s1.1,0,1.1,0"/>
	<g>
		<path fill="#878787" d="M72.9,66.8c-0.2,0-0.4-0.1-0.5-0.1c0-0.1-0.1-0.1-0.2-0.1c0,0-0.1,0-0.1-0.1c0.4-0.1,1-0.2,1.3-0.3
			c0.2-0.1,1.6-0.2,1.9-0.2c0.3,0,3.3-0.3,3.7-0.4l3.3-0.4c2.7-0.1,2.8-0.2,2.8-0.2c0,0,0.1,0,0.2,0c0.2,0,0.3,0,0.5,0v0.1
			c-0.1,0.1-0.2,0.2-0.2,0.2c0,0,0,0,0,0c0,0-0.1,0-0.2,0.1c-0.1,0-0.2,0.1-0.2,0.1c-0.2,0-0.5,0-0.8-0.1c-0.1,0-0.2-0.1-0.4-0.1
			c-0.2,0-0.4,0.1-0.4,0.1c-0.1,0-0.3,0.1-0.4,0.1c0,0-0.1-0.1-0.3-0.1c-0.2,0-0.4,0.1-0.6,0.1c-0.1,0-0.3,0.1-0.4,0.1
			c-0.1,0-0.3-0.1-0.5-0.1c-0.2-0.1-0.4-0.1-0.5-0.1c-0.2,0-0.4,0.2-0.5,0.3c-0.3,0-0.8,0.2-1.5,0.3c-0.2,0-0.4,0-0.5,0
			c-0.1,0-0.2,0-0.3,0c-0.1,0-0.1,0-0.2,0c-0.1,0-0.1,0-0.2,0c-0.1,0-0.4,0.1-0.7,0.1c-0.3,0-0.6,0.1-0.8,0.1l-0.2,0
			c-0.4,0.1-0.9,0.2-1.5,0.3c-0.3,0-0.7,0.1-1,0.1C73.3,66.8,73,66.8,72.9,66.8z"/>
		<path fill="#9D9D9C" d="M75.5,66.2c-0.3,0.1-0.6,0.1-0.9,0.2c-0.3,0-0.7,0.1-1,0.2c-0.2,0-0.5,0.1-0.6,0.1c0,0,0,0,0,0
			c0.3-0.1,0.5-0.1,0.7-0.2c0.2-0.1,1.5-0.2,1.8-0.2C75.3,66.2,75.4,66.2,75.5,66.2 M85.4,64.8c-0.2,0-0.3,0-0.3,0
			c-0.1,0-2.8,0.2-2.8,0.2L79,65.3c0,0-3.4,0.4-3.7,0.4c-0.2,0-1.7,0.1-2,0.3s-1.4,0.3-1.4,0.3s0,0,0,0c0,0-0.1,0,0,0.2
			c0.1,0.3,0.2,0.2,0.3,0.4c0.1,0.1,0.4,0.2,0.7,0.2c0.2,0,1-0.2,1.7-0.2c0.6-0.1,1.4-0.3,1.7-0.4s1.1-0.1,1.4-0.2c0,0,0.1,0,0.1,0
			c0.1,0,0.2,0.1,0.5,0.1c0.1,0,0.3,0,0.6,0c1-0.1,1.7-0.3,1.7-0.3s0.1-0.3,0.3-0.3s0.7,0.2,1,0.2c0.2,0,0.8-0.2,1-0.2
			c0,0,0.1,0,0.1,0c0,0,0.1,0.1,0.2,0.1c0.2,0,0.5-0.1,0.5-0.1s0.1,0,0.3,0c0.1,0,0.2,0,0.3,0c0.3,0.1,0.7,0.1,0.9,0.1
			c0.2,0,0.4-0.2,0.6-0.2c0,0,0,0,0,0c0,0,0,0,0,0c0.1,0,0.4-0.4,0.4-0.4v-0.4C86.1,64.8,85.7,64.8,85.4,64.8L85.4,64.8z"/>
	</g>
	<g>
		<path fill="#9D9D9C" d="M89.3,65.5c-0.1,0-0.1,0-0.2-0.1c0,0-0.1-0.1-0.1-0.1c0,0-0.2-0.1-0.3-0.1c-0.1,0-0.2,0-0.3,0.1
			c-0.1,0-0.1,0.1-0.2,0.1c-0.1,0-0.3,0-0.4,0c-0.1,0-0.3,0-0.3,0c-0.1,0-0.3-0.1-0.5-0.2V65c0.1,0,0.3,0,0.5,0c0.2,0,0.2,0,0.2,0
			c0.1,0,0.3,0.1,0.5,0.1c0.3,0,0.5,0,0.5,0c0,0,0.6-0.2,0.9-0.3c0.2-0.1,0.6-0.1,0.9-0.1c0.1,0,0.5,0,0.6-0.1c0.5,0,1-0.1,1.2-0.2
			l0.2-0.1c0.1-0.1,0.2-0.2,0.5-0.2c0.1,0,0.2,0,0.3,0c-0.2,0.1-0.4,0.4-0.4,0.6c0,0-0.1,0.2-0.3,0.3c0,0-0.1,0-0.4,0
			c-0.1,0-0.3,0-0.4,0c-0.1,0-0.2,0-0.3,0c-0.4,0-0.4,0-0.7,0.2c0,0-0.1,0-0.1,0c-0.1,0-0.2,0-0.2,0c-0.1,0-0.3,0-0.4,0
			c0,0-0.1,0-0.1,0c-0.3,0-0.4,0.2-0.5,0.4C89.4,65.5,89.4,65.5,89.3,65.5L89.3,65.5z"/>
		<path fill="#9D9D9C" d="M92.7,64.5C92.6,64.5,92.6,64.5,92.7,64.5c0,0.1-0.1,0.1-0.2,0.1c0,0,0,0-0.2,0c0.1,0,0.1,0,0.2-0.1
			C92.6,64.5,92.6,64.5,92.7,64.5 M89.4,65.1c0,0-0.1,0.1-0.1,0.1c0,0,0-0.1-0.1-0.1C89.2,65.1,89.3,65.1,89.4,65.1 M93.4,63.7
			c-0.2,0-0.3,0-0.5,0.1c-0.4,0.1-0.5,0.2-0.7,0.4c-0.2,0.1-1.1,0.2-1.4,0.2c-0.3,0-1,0.1-1.3,0.2c-0.3,0.1-0.9,0.3-0.9,0.3
			s-0.2,0-0.5,0c-0.2,0-0.3,0-0.4-0.1c-0.1,0-0.2,0-0.3,0c-0.3,0-0.8,0.1-0.8,0.1v0.5c0,0,0.4,0.2,0.6,0.2c0.1,0,0.3,0.1,0.4,0.1
			s0.3,0,0.5-0.1c0.2-0.1,0.4-0.1,0.4-0.1c0,0,0.1,0,0.1,0c0.1,0.1,0.2,0.3,0.5,0.3c0,0,0.1,0,0.1,0c0.4-0.1,0.3-0.5,0.6-0.5
			c0,0,0,0,0.1,0c0.2,0,0.4,0.1,0.6,0.1c0.1,0,0.2,0,0.2-0.1c0.2-0.2,0.2-0.2,0.5-0.2c0.2,0,0.5,0,0.7,0c0.2,0,0.4,0,0.5-0.1
			c0.2-0.1,0.5-0.3,0.5-0.5c0-0.2,0.3-0.4,0.3-0.4s0.6-0.4,0.5-0.4C93.9,63.8,93.7,63.7,93.4,63.7L93.4,63.7z"/>
	</g>
	<g>
		<path fill="#9D9D9C" d="M139.3,69.3l-0.8-0.4c0,0-0.1,0-0.1,0h-22.7l-4.6-0.4l-3.7-0.5l-2.2-0.2c-0.7-0.1-1.5-0.3-1.6-0.4
			c-0.1-0.1-0.3-0.1-0.5-0.2c-0.2-0.1-0.5-0.1-0.7-0.3c-0.2-0.1-0.3-0.2-0.5-0.2c-0.2,0-0.3,0.1-0.4,0.1c-0.5-0.1-1.6-0.2-1.7-0.2
			c-0.1,0-1.3-0.1-1.4-0.2c0,0,0-0.2-0.1-0.4l1.2-0.1l2.7,0.5l1.9,0.5l4,0.6l4.1,0.5l4.8,0.3l2.3,0l6-0.2l7.6,0
			c0.1,0,3.4,0.1,3.9,0.1c0.5,0,1.9,0.2,1.9,0.2l1.3,0c0.1,0,0.3,0,0.5,0.1l-0.6,0c-0.1,0-0.2,0.1-0.2,0.2l-0.1,0.3H139.3z"/>
		<path fill="#9D9D9C" d="M99.4,66.3l0.8,0.2c-0.3,0-0.4,0-0.4,0c0,0,0,0,0,0c-0.1,0-0.5,0-0.8-0.1L99.4,66.3 M125.3,68.6l7.6,0
			c0,0,0.3,0,0.6,0h-4.8h-4.4h-0.6L125.3,68.6 M139.4,69L139.4,69L139.4,69h-0.1H139.4 M99.4,65.8l-3,0.1c0,0,0,0,0,0
			c0.3,0.1,1.5,0.2,1.5,0.2s0.1,0.5,0.2,0.6s1.4,0.2,1.5,0.2c0.1,0,1.8,0.2,1.8,0.2s0.1-0.1,0.3-0.1c0.1,0,0.2,0,0.3,0.1
			c0.4,0.3,1,0.4,1.2,0.5c0.2,0.1,1.8,0.4,1.8,0.4l2.2,0.2l3.7,0.5l4.7,0.4h2.7h5.9h4.4h5h2.7h2l0.8,0.4h0.5l0.2-0.4h0.7l0.5,0.1
			v-0.4c0,0-0.7-0.4-1.1-0.4c-0.4,0-1.2,0-1.2,0s-1.4-0.2-1.9-0.2s-3.9-0.1-3.9-0.1l-7.6,0l-6,0.2l-2.3,0l-4.8-0.3l-4.1-0.5l-4-0.6
			l-1.9-0.5L99.4,65.8L99.4,65.8z"/>
	</g>
</g>
</svg>
