<svg xmlns="http://www.w3.org/2000/svg" viewBox="0 0 754.62 279"><defs><style>.cls-1{fill:#656565;}.cls-2{fill:#9a9a9a;}.cls-3{fill:#aeaeae;}.cls-4{fill:gray;}.cls-5{fill:#8c8c8c;}.cls-6{fill:#858585;}.cls-7{fill:#c4c4c4;}.cls-8{fill:#939393;}.cls-9{fill:#a7a7a7;}.cls-10{fill:#b0b0b0;}.cls-11{fill:#d1d1d1;}.cls-12{fill:#bfbfbf;}.cls-13{fill:#757575;}.cls-14{fill:#7e7e7e;}.cls-15{fill:#8e8e8e;}.cls-16{fill:#c8c8c8;}.cls-17{fill:#cdcdcd;}.cls-18{fill:#bebebe;}.cls-19{fill:#c9c9c9;}.cls-20{fill:#a1a1a1;}.cls-21{fill:#a6a6a6;}.cls-22{fill:#9e9e9e;}.cls-23{fill:#979797;}.cls-24{fill:#cbcbcb;}.cls-25{fill:#999;}.cls-26{fill:#bdbdbd;}.cls-27{fill:#b4b4b4;}.cls-28{fill:#b6b6b6;}.cls-29{fill:#a8a8a8;}.cls-30{fill:#8b8b8b;}.cls-31{fill:#696969;}.cls-32{fill:#9b9b9b;}.cls-33{fill:#9c9c9c;}.cls-34{fill:#636363;}.cls-35{fill:#6c6c6c;}.cls-36{fill:#6e6e6e;}.cls-37{fill:#989898;}.cls-38{fill:#646464;}.cls-39{fill:#949494;}.cls-40{fill:#6f6f6f;}.cls-41{fill:#828282;}.cls-42{fill:#7d7d7d;}.cls-43{fill:#737373;}.cls-44{fill:#7c7c7c;}.cls-45{fill:#9d9d9d;}.cls-46{fill:#8a8a8a;}.cls-47{fill:#747474;}.cls-48{fill:#959595;}.cls-49{fill:#676767;}.cls-50{fill:#6b6b6b;}.cls-51{fill:#888;}.cls-52{fill:#929292;}.cls-53{fill:#b1b1b1;}.cls-54{fill:#b2b2b2;}.cls-55{fill:#838383;}.cls-56{fill:#6d6d6d;}.cls-57{fill:#7a7a7a;}.cls-58{fill:#6a6a6a;}.cls-59{fill:#717171;}.cls-60{fill:#616161;}.cls-61{fill:#707070;}.cls-62{fill:#686868;}.cls-63{fill:#777;}.cls-64{fill:#898989;}.cls-65{fill:#7b7b7b;}.cls-66{fill:#919191;}.cls-67{fill:#787878;}.cls-68{fill:#a9a9a9;}.cls-69{fill:#797979;}.cls-70,.cls-71{font-size:10px;fill:#181716;font-family:BaskervilleMTPro-Regular, Baskerville MT Pro;}.cls-71{letter-spacing:0em;}</style></defs><g id="Layer_2" data-name="Layer 2"><g id="_12130b_draft" data-name="12130b_draft"><g id="_12130_draft" data-name="12130_draft"><path class="cls-1" d="M75.29,9a2,2,0,0,1,.74-.9c.39-.67.14-.87,1-1.05.58,0,.52-.28.36-.49a1.76,1.76,0,0,1-.17-2.12,4.52,4.52,0,0,1,1-1.54,2.31,2.31,0,0,1,1.61-1.09c.2-.05.75-.17.92,0,.45.32-.14.76,0,1.15a.94.94,0,0,1-1,.31c-.72-.09-.65.13-.82.81a2.86,2.86,0,0,1-.19.61.63.63,0,0,0,0,.68,1.36,1.36,0,0,1,.23.34c.24.77.41,1.63,1.12.63.11-.15.22-.36.4-.3a5.77,5.77,0,0,0,1.34.26c.62.17,1.08.72.81-.41a1.2,1.2,0,0,1,.87-.67c.42,0,.76,0,.76.57,0,.31-.37.6-.6.86s-.32.47.4.72a9.15,9.15,0,0,0-.34,1.13.94.94,0,0,1-.39.22,1.45,1.45,0,0,0-1,.34c-.31.27-1.22-.08-1.6-.07-.74,0-.53.56-.4,1.27a1.61,1.61,0,0,1-.06,1.08,1.17,1.17,0,0,0,0,.74,5.44,5.44,0,0,1,.09,1.56c-.07.38.43.51.43.87a.81.81,0,0,1,0,.31c-.13.25,0,.55-.14.8-.2.46-.62.57-1.31.37,0-.56-.09-.7-.45-.75a.7.7,0,0,0-.18-.47,3.29,3.29,0,0,0-.38-2.15c-.47-.34-.3-.71-.12-1.1.08-.17.38-.27.21-.5a.77.77,0,0,0-.65-.23,1.41,1.41,0,0,1-.41,0c-.23-.16-.59-.5-.85-.53-.78-.08-.69-.77-1.23-.77C75.33,9.47,75.2,9.14,75.29,9Z"/><path class="cls-2" d="M111,29.79l.23-.14c.43.18.34.52.15.77-.33.44-.45,1-.9,1.36-.21.17-.06.34,0,.5a.33.33,0,0,1,0,.17c-.19.48-.36,1-.53,1.46a1.07,1.07,0,0,0,0,.86c0,.16.19.29.18.48a9.17,9.17,0,0,0-.18,2.81c0,.29-.17.46-.15.72a8,8,0,0,0,.11,1.29,8.24,8.24,0,0,1-.11,2,3,3,0,0,0-.08,1.29,9.26,9.26,0,0,1-.29,3.1,1.32,1.32,0,0,0-.69,1.56,6.29,6.29,0,0,1,.16,2.52,1.67,1.67,0,0,0,0,.83.85.85,0,0,1-.14.89.65.65,0,0,0-.07.73,1.57,1.57,0,0,1,0,1.29,7.06,7.06,0,0,0-.33,2.29c0,.48,0,1,0,1.44,0,.2,0,.46-.29.5a8.7,8.7,0,0,1,0-3.63,27,27,0,0,0,.07-3.81,37.57,37.57,0,0,0,0-4.11,26.5,26.5,0,0,1,.3-4.95,4.49,4.49,0,0,0,0-1.55,1.54,1.54,0,0,1,0-.3c.12-3.19.34-6.36,1.85-9.28C110.58,30.49,110.82,30.15,111,29.79Z"/><path class="cls-3" d="M181.6,66c1.82.21,3.67.11,5.48.34,1.62.2,3.25.17,4.87.36a10.1,10.1,0,0,1,1.65,0,.36.36,0,0,1-.3.32H193a21.11,21.11,0,0,1-4.13,0h-.06c-.93.38-1.81-.06-2.71-.17a.88.88,0,0,0-.64.06,1.4,1.4,0,0,1-1.33.06,3.12,3.12,0,0,0-1.07-.15,7.63,7.63,0,0,1,.85.09c.29.11.42.25.15.51a9.77,9.77,0,0,1-3.18-.26c-.38-.1-.86.11-1.29.07a14.06,14.06,0,0,1-3.11-.18c-.08,0-.19-.06-.23,0-.49.42-1.11.15-1.64.32a.79.79,0,0,1-.83-.17.45.45,0,0,0-.6,0,1.77,1.77,0,0,1-1.37.28,4.7,4.7,0,0,1-1.63-.13c-.07-.65,0-.74.59-.75.19,0,.38,0,.47,0a13.5,13.5,0,0,1-2.4-.16,1.68,1.68,0,0,0-.85.14c-.39.2-.74-.06-1-.34s-.07-.39.18-.5a4.18,4.18,0,0,1,1.69.15c.72.09,1.41-.11,2.12,0a7.41,7.41,0,0,1,2,.16.44.44,0,0,0,.3,0,7.86,7.86,0,0,1,2.82-.13c1.3,0,2.6,0,3.9,0A10.8,10.8,0,0,1,181.6,66Z"/><path class="cls-4" d="M87.4,64.35l.08.14a.44.44,0,0,1,.09.67c-.9,0-.6.75-.93,1.11-.35,0-.32-.27-.29-.53.12-1,0-1.18-.84-1.62-.17-.08.19-.73.31-.88s.43-.73.25-.84a3.32,3.32,0,0,0-.89.08,1.1,1.1,0,0,0-1,1c-.09.82,0,1.91-.06,2a11,11,0,0,1-.82-1.08.32.32,0,0,1,.06-.39c-.2-.13-.43.68-.5,0s-.05-1.31-.09-1.36c-.09-1.64-.1-1.92-.07-3.67.13-.37,0-.8.19-1.16.13-.18.23-.41.48-.4s.32.26.35.48a2.18,2.18,0,0,0,.46.94h0a2.25,2.25,0,0,1,0,1.53c-.21.65.16,1,.78.71a6.8,6.8,0,0,1,3.3-.61.33.33,0,0,1,.25.53c-.54.74-.84,1.62-1.32,2.4-.17.29-1.08.74.08.63C87.33,64,87.35,64.24,87.4,64.35Z"/><path class="cls-5" d="M108.16,58.49a17.69,17.69,0,0,1,.25-4.05,2.79,2.79,0,0,0,0-1.76.56.56,0,0,1,.23-.78c.08,0,.15-.12.1-.2-.39-.58,0-1.18,0-1.73a15.48,15.48,0,0,0-.2-2c-.11-.41-.31-.84.21-1.24.19-.14.06-.68.29-1,.31.18.16.56.35.79.33-.1.38.16.39.37a16.71,16.71,0,0,1,.15,2.55,8.36,8.36,0,0,0,0,1.66c.09.86-.18,1.73-.15,2.56,0,1.07-.19,2.11-.14,3.16-.35,1.11.16,2.19.1,3.29,0,.17,0,.38-.21.45a1.11,1.11,0,0,1-.13-.62.66.66,0,0,0-.6-.69c-.36-.06-.39.26-.48.49s-.08.08-.11,0A4.31,4.31,0,0,1,108.16,58.49Z"/><path class="cls-6" d="M212,66.88a3.37,3.37,0,0,0,1.18.12c.12,0,.24,0,.36,0,.41.07.94,0,1.12.42s-.29.69-.51,1-.45.2-.7.12a4.36,4.36,0,0,0-1.87-.2,10.32,10.32,0,0,1-1.83-.1,29.33,29.33,0,0,0-3.38.06c-.48,0-1-.13-1.46-.12l-.24,0c-.28,0-.64,0-.62-.42a.74.74,0,0,1,.75-.78,4.54,4.54,0,0,0,1.33-.07,3.94,3.94,0,0,1,1.53,0Z"/><path class="cls-7" d="M184.6,71.91c-.66-.3-1.3,0-1.93.12-1.92.19-3.85.26-5.78.29-1.23,0-2.47,0-3.7-.06-.68,0-1.35,0-2,0-.08-.55.37-.47.66-.51a9.12,9.12,0,0,0,1.37-.1,24.08,24.08,0,0,1-5.5,0c-.26,0-.78-.29-.29-.42s5.29-.06,7.64,0S179.66,71,182,71c1.36,0,2.63-.12,4-.07.31,0,1.65-.12,1.91.15,0,.55-1.32.75-1.72.63a.84.84,0,0,0-.9.26C185,72,184.8,72,184.6,71.91Z"/><path class="cls-8" d="M206.08,66.87a1.81,1.81,0,0,1-1.15.17c-.6-.16-.24.63-.64.7.06.29.31.17.48.22,0,.29-.22.28-.42.29a9.21,9.21,0,0,1-1.66,0c-.26-.21,0-.34.08-.47s.33-.1.43-.31c-.45,0-.46.45-.7.64a2.53,2.53,0,0,1-1.54,0c-.14-.3-.14-.3.09-.56-.66.61-.87-.22-1.23-.34.45.39.45.39.32.74a.28.28,0,0,1-.23,0,1.46,1.46,0,0,0-1.28.19l-.31,0a16,16,0,0,0-2.4-.2,1.59,1.59,0,0,1-1-.23c-.32-.23-.65,0-1,.13s-.33.19-.53.11-.25-.29-.45-.35-.45-.08-.47-.36.32-.28.46-.44h.24c.49.06,1-.18,1.45-.12,1.5.1,3-.15,4.48-.19a22.29,22.29,0,0,1,2.31.22C203,66.91,204.55,66.8,206.08,66.87Z"/><path class="cls-9" d="M215.19,12.27l0-.23a.6.6,0,0,1,1-.13,2.3,2.3,0,0,1,.51.72l.24.48c.16.37.11.61-.36.48s-.64.05-.67.48a5.91,5.91,0,0,0-.09,4.7,2.11,2.11,0,0,0,.72.92c.19.19.46.3.57.58s0,.59-.41.56a2.46,2.46,0,0,1-2-1.91,3.1,3.1,0,0,0-.27-.83,5,5,0,0,1-.18-3.28A11.59,11.59,0,0,1,215.19,12.27Z"/><path class="cls-10" d="M167.44,71.32a16,16,0,0,0,3.09.17c1.05,0,2.1-.12,3.16-.17.22,0,.56,0,.56.28s-.3.31-.57.36c-.83.18-1.72-.09-2.52.31-.76,0-1.54.32-2.28-.12-.19-.11-.38.08-.58.09a20.78,20.78,0,0,1-4.39,0,5.43,5.43,0,0,0-1.41.19.18.18,0,0,0-.05-.07.26.26,0,0,1,.19-.33,5.08,5.08,0,0,1,1.62-.24,14,14,0,0,0,3-.06c-.92,0-1,0-.77-.55a2.1,2.1,0,0,1,.79,0A.24.24,0,0,1,167.44,71.32Z"/><path class="cls-11" d="M217.25,13.83c.16.5.45.68,1,.78a6.18,6.18,0,0,1,2.39.68.28.28,0,0,1-.34.17c-.64-.27-1.38-.13-2-.51-.14-.08-.26-.21-.43-.1s-.21.3-.22.51a27.14,27.14,0,0,1,.23,2.85c-.11.85.06,1.78-.66,2.47-.13-.31-.11-.73-.57-.79-.31-.34-.3-.59.07-.93a2,2,0,0,0,.2-2.18,1.49,1.49,0,0,1-.25-.59,2.67,2.67,0,0,0-.48-1.61.4.4,0,0,1,0-.4C216.45,13.78,216.84,13.79,217.25,13.83Z"/><path class="cls-1" d="M226.6,4.58A8,8,0,0,1,225.91,3a1.08,1.08,0,0,1,.34-1.26c.71-.47.94-.38,1.27.37l.36.8c.26.61-.06,1-.37,1.47A.68.68,0,0,1,226.6,4.58Z"/><path class="cls-12" d="M216.75,19.82c.25-.13.4-.6.71-.39s0,.52-.1.79-.08.3-.11.46a.67.67,0,0,1-.82.2,2.59,2.59,0,0,1-1.85-1.63,7.42,7.42,0,0,1-.6-2.9,6.82,6.82,0,0,1,1.21-4.08c-.16.48-.29,1-.5,1.46a7.3,7.3,0,0,0-.47,2.28,1.89,1.89,0,0,0,.44,1.61,1.37,1.37,0,0,1,.41,1.43.69.69,0,0,0,.58,1,1.38,1.38,0,0,1,.62.45c.19.17.48.37.68.16s-.13-.38-.26-.55a2.2,2.2,0,0,1-.17-.25A.15.15,0,0,1,216.75,19.82Z"/><path class="cls-13" d="M191.46,4.24a.82.82,0,0,0,.46-.24,2,2,0,0,1,1.81.57.65.65,0,0,1-.48,1.09c-.46.06-.93,0-1.39.11a.34.34,0,0,1-.27-.08A1.24,1.24,0,0,1,191.46,4.24Z"/><path class="cls-13" d="M136,6.22a1,1,0,0,1,1.06-.9,1.52,1.52,0,0,1,1,1.12c0,.36-.73.76-1.56.7C136,7.11,136.2,6.48,136,6.22Z"/><path class="cls-14" d="M168.94,4.85a.58.58,0,0,1,.53.61c0,.28-.67.77-1.05.76s-.42-.39-.46-.66S168.48,4.83,168.94,4.85Z"/><path class="cls-15" d="M251.54,3.41a.57.57,0,0,1-.36.52,4.5,4.5,0,0,0-.55.22c-.2.11-.41.26-.56,0s-.22-.53.07-.74a1.64,1.64,0,0,1,1.07-.31A.33.33,0,0,1,251.54,3.41Z"/><path class="cls-16" d="M191.46,4.24c-.35.94,0,1.46,1,1.35l.77-.07a.54.54,0,0,0,.53-.4.59.59,0,0,0-.28-.67A2.26,2.26,0,0,0,191.92,4c.55-.57,1,0,1.45.17a.81.81,0,0,1,.56.84c0,.45-.3.66-.7.76a8.17,8.17,0,0,1-1.48.09c-.23,0-.36-.16-.4-.37C191.27,5.07,191,4.62,191.46,4.24Z"/><path class="cls-17" d="M226.6,4.58a1.26,1.26,0,0,0,1-2l-.13-.27c-.36-.86-.36-.86-1.26-.61.61-.59,1.08-.5,1.37.26a6.71,6.71,0,0,1,.34.82,1.59,1.59,0,0,1-.19,1.47C227.34,4.9,227.25,5,226.6,4.58Z"/><path class="cls-18" d="M217.25,13.83c-.14.46-.56.27-.85.36a.69.69,0,0,1-.72-.24c.17-.77.19-.78,1-.67.17,0,.31.06.34-.17A1.07,1.07,0,0,1,217.25,13.83Z"/><path class="cls-19" d="M216.76,12.63a3.34,3.34,0,0,1-.48-.44.67.67,0,0,0-1.07-.15c.19-.62.38-.68,1-.32A1,1,0,0,1,216.76,12.63Z"/><path class="cls-20" d="M194.69,66.75a2.56,2.56,0,0,1-1.45.12l.36-.12C194,66.78,194.33,66.55,194.69,66.75Z"/><path class="cls-21" d="M41.18,73c.23-.28.6-.17.87-.34s.31-.15.53-.17a15,15,0,0,0,2-.38,11.07,11.07,0,0,1,2.91-.33,3.16,3.16,0,0,0,1.15,0,14,14,0,0,1,1.48,0,1.93,1.93,0,0,0,1.25-.14,9.39,9.39,0,0,0,1.3-.13c1,.08,1.9-.12,2.85,0a10.43,10.43,0,0,1,1.37,0c.25.22.21.47-.07.55s-.72.3-1.08,0-.52-.05-.75-.1c.87,0,2.49,0,2.53.77a4.86,4.86,0,0,1-2,.28,4.77,4.77,0,0,0-1.11-.07,17.76,17.76,0,0,1-2.63,0c-.64,0-1.25.11-1.87.16-.18,0-.36,0-.51,0-.64.08-1.31,0-1.9.08a12.21,12.21,0,0,1-2.33.32c-.56,0-1,.27-1.61.28a1.77,1.77,0,0,0-.78.12c-1,.11-2,.19-3,.35a15,15,0,0,1-2.32.14c-.08-.34.23-.3.39-.41h.18c1-.19,2,0,2.91-.57,0,0,.12-.07.16,0,.71.28,1.34-.24,1.9-.2-.33,0-.77.16-1.22.18C41.56,73.27,41.26,73.37,41.18,73Z"/><path class="cls-22" d="M43.72,67.71c1.13-.07,2.26-.13,3.38-.21.72-.06,1.42.12,2.14.1,1.19.09,2.38,0,3.56.06.73,0,1.43-.07,2.14,0,.27,0,.65.15.64.51s-.32.45-.65.46a22.82,22.82,0,0,1-2.86.35c-1,0-1.69-.11-2.68-.16a9.93,9.93,0,0,1-2.24-.1c-1.18,0-1.87.2-2.78.19a11.29,11.29,0,0,0-1.3,0c-1.51-.15-2.32.17-3.83,0-.14,0-.22,0-.32.1a1.13,1.13,0,0,1-1.1-.25.38.38,0,0,1,.22-.64A10.21,10.21,0,0,1,40.8,68a1,1,0,0,0,.58-.13A6.15,6.15,0,0,1,43.72,67.71Z"/><path class="cls-23" d="M51.64,22.24l2.19-.93a.66.66,0,0,0,.5-.66A2.25,2.25,0,0,1,56.5,18.5h.78a.41.41,0,0,1,0,.67,6,6,0,0,1-.82.63,2,2,0,0,0-.85.85,1.61,1.61,0,0,1-1.31,1.45,2.37,2.37,0,0,1-1.22.86,4.55,4.55,0,0,0-2.75,2.42c-.12.19-.24.4-.51.29a.49.49,0,0,1-.28-.6c.05-.19,0-.39.09-.57h0A8,8,0,0,1,51.64,22.24Z"/><path class="cls-3" d="M43.72,67.71A18.76,18.76,0,0,0,41,68c-.56.15-1.27,0-1.92.08a5.44,5.44,0,0,0-.7.15c-.12,0-.31,0-.28.23a.43.43,0,0,0,.34.31c.13,0,.25.1.3-.13s.36-.22.52-.1a1.07,1.07,0,0,0,1.08.19A6.61,6.61,0,0,1,43,68.33a24.67,24.67,0,0,1-3.6.77c-1.23.12-2.54.08-3.77.23a11.13,11.13,0,0,1-3.05,0,3.66,3.66,0,0,1-.68-.29c-.36-.13-.33.06-.61-.18s-.43-.42,0-.78a11.93,11.93,0,0,1,2.53.12c1.59.09,3.16-.3,4.75-.3S43.5,67.6,43.72,67.71Z"/><path class="cls-24" d="M54,68.57a3.49,3.49,0,0,1,1.06-.2.27.27,0,0,0,.28-.18.31.31,0,0,0-.19-.34c-.31-.19-.22-.1,1-.26.13,0,.73,0,.87,0a8.69,8.69,0,0,0,1.78-.17c.65.07,3.34.18,2.7.22s-.77.45-1.36.69c.46,0-2.28.14-3.26.16S53.17,68.82,54,68.57Z"/><path class="cls-25" d="M43.61,30.64c.26-.5.24-1.08.46-1.6a2.35,2.35,0,0,1,2.18-1.67,2.56,2.56,0,0,0,.34-.1,1.31,1.31,0,0,1,.33-.12c.18-.07.41-.18.54,0a.55.55,0,0,1-.07.71,4.06,4.06,0,0,1-.55.46c-.12.07-.24.19-.36.2-1,.07-1.23.78-1.38,1.55-.24,1.18-1.16,1.74-2.05,2.34a1.46,1.46,0,0,1-.52.11l-.27.12c-.19.06-.39.16-.52-.08s0-.33.13-.47a2,2,0,0,1,1-.77A1,1,0,0,0,43.61,30.64Z"/><path class="cls-26" d="M31.36,68.07c-.17.49.08.71.5.82a.9.9,0,0,1,.58.27c.44.19-.58,0-.79,0a16.2,16.2,0,0,1-2.55-.07,1.06,1.06,0,0,0-.35,0A38.61,38.61,0,0,1,23.82,69a.69.69,0,0,1-.5-.17H23.2c-.1-.5,0-.58.66-.62-.2-.15-1.36.24-1.25-.28A3.71,3.71,0,0,1,24,67.71,28.94,28.94,0,0,1,31.36,68.07Z"/><path class="cls-27" d="M37.84,38a4.26,4.26,0,0,0-.75,1.2,4.79,4.79,0,0,1-1.62,1.78c-1,.64-1.62,1.62-2.55,2.31a.84.84,0,0,1-.6-.61,21.15,21.15,0,0,1,3.21-3,2.24,2.24,0,0,0,.73-1.12,3.39,3.39,0,0,1,2.3-2.13c.36-.18.42,0,.37.31s-.39.57-.63.8A3.92,3.92,0,0,0,37.84,38Z"/><path class="cls-28" d="M43.61,30.64c0,.46-.33.64-.68.79a1.22,1.22,0,0,0-.75.54c-.08.17-.29.33-.15.53s.33,0,.5.06A10.89,10.89,0,0,0,41,34.11a.89.89,0,0,0-.24.6A1.92,1.92,0,0,1,40,36c-.4.18-.55,0-.48-.38a3.49,3.49,0,0,1,.24-.95c.09-1.27,1-1.92,1.89-2.66C42.26,31.52,43.1,31.31,43.61,30.64Z"/><path class="cls-29" d="M32.32,42.63c.4,0,.88-.08.6.61l-2,3a.71.71,0,0,1-.14.1,2,2,0,0,0-.92.61c-.13.18-.42.56-.74.12a5,5,0,0,0,1-1.31A10.7,10.7,0,0,0,31.16,44,4.74,4.74,0,0,1,32.32,42.63Z"/><path class="cls-30" d="M3.86,64.73a1,1,0,0,1-.88.88c-.57.12-.9.82-1.1,1.43,0-.11-.13-.72-.28-.68a.81.81,0,0,0-.65.53,11.3,11.3,0,0,0-.29,1.38.67.67,0,0,1-.51.64,1.92,1.92,0,0,0,.11-.46C.2,67,1.16,66,1.91,65c.33-.47.9-.45,1.37-.63A.68.68,0,0,1,3.86,64.73Z"/><path class="cls-9" d="M46.84,28.36a1.41,1.41,0,0,1,.18-.23.64.64,0,0,0,.14-.81c-.11-.26-.38,0-.57-.05.59-.31,1.16-.68,1.76-1a2.2,2.2,0,0,0,1-1.29l.21-.49c.07.2.39.29.15.64-.12.18.17.41.46.21a.27.27,0,0,1,0,.35c-1.13.51-1.64,1.76-2.74,2.31C47.25,28.12,47.05,28.25,46.84,28.36Z"/><path class="cls-31" d="M12.54,60.76a.65.65,0,0,1,.79.18c.22.28.6.11.85.3.32.49-.09.84-.31,1.14a.74.74,0,0,1-1,.25c-.21-.14-.46-.08-.66-.24C11.64,61.9,11.77,61.2,12.54,60.76Z"/><path class="cls-32" d="M38,74.07l-.48.25a15.58,15.58,0,0,1-3.73.25v-.08c.2-.33.61-.44.81-.78a.3.3,0,0,1,.37-.11,2.42,2.42,0,0,0,1.67-.29c.33-.14.62-.13.81.23a.47.47,0,0,0,.37.25C38,73.8,38.06,73.88,38,74.07Z"/><path class="cls-26" d="M16.83,60a.4.4,0,0,1-.51-.28.46.46,0,0,1,.31-.52c.54-.25,1.15,0,1.72-.26.17-.08.28.26.08.36C17.92,59.55,17.51,60.06,16.83,60Z"/><path class="cls-24" d="M39.76,34.71l-.06.77c0,.25,0,.48.3.56-.15.35-.51.48-.79.69a1.31,1.31,0,0,0-.41.5l-1,.72c.1-.38.47-.53.7-.8s.34-.49,0-.76c0,0,0,0,0-.06A3.79,3.79,0,0,0,39.76,34.71Z"/><path class="cls-33" d="M33.75,74.57a21.31,21.31,0,0,1-3.09.22c-.07-.05-.14-.12-.12-.19.16-.51-.1-.67-.55-.7a.36.36,0,0,1-.07-.17.91.91,0,0,1,1.42-.2,1.6,1.6,0,0,0,1.82.64c.22-.06.65-.13.61.38Z"/><path class="cls-9" d="M51.64,22.24a4.55,4.55,0,0,0-1.13,1.44c-.18.34-.6.56-.91.83A3.9,3.9,0,0,1,51.64,22.24Z"/><path class="cls-26" d="M33.89,68.19c-.85.08-1.68-.15-2.53-.12A6,6,0,0,1,33.89,68.19Z"/><path class="cls-34" d="M104.36,63.77c.77-.05.81.23,1.06.48a3.24,3.24,0,0,1,1.16,1.49,1.48,1.48,0,0,0,.28.45c.41.52,1.39.46,1.57-.16a4.83,4.83,0,0,0,0-2.56,10.6,10.6,0,0,1-.33-3,5,5,0,0,0,.11-.88c.09-.28,0-.69.48-.67a1.24,1.24,0,0,1,1,.94c0,.2,0,.41,0,.61a12.18,12.18,0,0,0,.26,3,9,9,0,0,1-.28,3.43,1.82,1.82,0,0,1-1,1.15c-.62.18-1.21-.26-1.42.52,0,.05-.21.59-.27.84a6.3,6.3,0,0,1-.36,1.67c-.6.8-.22.8.52.7a1.73,1.73,0,0,1,.8.18,7.41,7.41,0,0,1,.84.44c.23.71.43.82,1.18.63.36-.09.84,0,1-.3s0-.71.06-1.06a.47.47,0,0,1,0-.17,3.79,3.79,0,0,0,.09-.89c0-.28-.11-.63.31-.73s.45.28.59.52a2.86,2.86,0,0,1,.41,1.57.76.76,0,0,1-.13.57c-.41.44-.16.88-.11,1.36.14,1.6.16,3.89-.49,4.51-.61.21-.54.36-1.18-.18a5.22,5.22,0,0,1-.45-.88c-.07-.25-.1-.74-.14-1s0-1.3,0-1.47-.37-.09-.38-.2c-.32.14-.37.89-.41,1.09s-.1.41-.16.62c-.27.86-.72,1.74-1,2.54-.16.44-.34.39-.78.42a3.5,3.5,0,0,1-.53-.31,10.05,10.05,0,0,1-.15-2.79,2.73,2.73,0,0,1,.42-1.38c.08-.13,1-1.05.8-1.05-1.15,0-1.11-.47-1.32-.29s.14.81.05,1.12a8.05,8.05,0,0,1-.77,1.91c-.09.15-.23.09-.35.3a7,7,0,0,0-.15,1.11,1.21,1.21,0,0,1-.17.63c-.14.11-.29.32-.43.44-.65.6-.71.52-1.35-.15a5.57,5.57,0,0,1,0-3.33c.13-.66.89-1.82,1.4-.37,0,.28.38.59.47-.3,0-.48.47-1.08.52-1.47-.28,0-1.17,1-2,1.14a5.91,5.91,0,0,1-1.73.15,3,3,0,0,1-1.5-1.07,3.11,3.11,0,0,1-1.31-2.29,10.09,10.09,0,0,1,.17-1.44,11.83,11.83,0,0,1,.6-2.19,4,4,0,0,1,.84-1.39,2.22,2.22,0,0,1,1.84-.94c.35,0,.5-.34.68-.65A2.48,2.48,0,0,1,104.36,63.77Zm.32,3.41c.6-.81,0-1-.29-1.11s-.72,0-.83.72c-.08.5-.84.72-1.28.6-.59-.16-.73.16-.94.49s-.18.78-.33,1.16a2.91,2.91,0,0,0,0,2.45c.06.58.54.81,1,1.05s1,.47,1.32.09c.06-.33-.68-1.23-.53-1.56l.11-.13a3.28,3.28,0,0,1,.49-.74c.23-.36.5-.35.72,0a6.53,6.53,0,0,0,.37.75c.27.41.71.4.86-.06a4.58,4.58,0,0,0,.3-2.1c-.07-.5-.57-.68-.9-1A.48.48,0,0,1,104.68,67.18Z"/><path class="cls-35" d="M111.27,71.55c.13-2.16.14-4.31.12-6.47.16-.16,0-.29,0-.44a.51.51,0,0,1,.35-.61.5.5,0,0,1,.67.21,1.83,1.83,0,0,1,.29,1,9.76,9.76,0,0,1,.11,3c0,.75,0,1.5,0,2.25a2.83,2.83,0,0,1,0,.77c-.05.2,0,.52-.39.48-.3-.55-.31-1.22-.83-1.8,0,.47-.17.83,0,1.21C111.58,71.41,111.44,71.5,111.27,71.55Z"/><path class="cls-35" d="M108.65,72.5c.26.08.53.15.79.24,1,.36,1.49.12,1.74-.92a1.48,1.48,0,0,1,.1-.27,4,4,0,0,1,0,1.34c-.15.45-.79.1-1.2.27s-.55.58-1,.33S108.8,72.83,108.65,72.5Z"/><path class="cls-8" d="M80.55,14.81l.14.1a2.22,2.22,0,0,1,0,1.66,6.07,6.07,0,0,0-.1,2.59,11.89,11.89,0,0,1,.07,2.6,17.34,17.34,0,0,0-.17,3.67c.06.42-.17.79-.12,1.23a21.54,21.54,0,0,1,0,4.61,19.21,19.21,0,0,0,.09,2.93,16.65,16.65,0,0,1-.25,2c0,.44.27.9,0,1.33,0,1.44,0,2.88,0,4.32,0,1,0,1.95,0,2.92,0,1.16-.12,2.31,0,3.47s-.27,2.13-.14,3.22c.18,1.52.12,3.06.17,4.59a18.33,18.33,0,0,0,0,2.87A5,5,0,0,1,80.1,61a.55.55,0,0,1-.1.22c-.66.2-.65.81-.79,1.32-.06.23,0,.48-.22.66a.45.45,0,0,1-.69,0c-.21-.21,0-.08.4-.23s.09-.73.11-1c.11-1,0-2,0-3.08a20,20,0,0,1,0-3.28,4.49,4.49,0,0,0-.13-1.78,10.46,10.46,0,0,1-.12-3.21c.14-1.73.17-3.46.17-5.2,0-2,0-3.9-.12-5.85A49.12,49.12,0,0,1,79,34.13a2.5,2.5,0,0,0,0-.77,9.37,9.37,0,0,1,.07-3.08c0-1,0-1.91,0-2.86a23.92,23.92,0,0,1,.07-4.71,18.2,18.2,0,0,0,.11-2.86c.73-.2.65-.8.63-1.35a.62.62,0,0,0-.6-.69c-.33,0-.66-.54-.07-.35.22-.28.11-.53.15-.86a2.37,2.37,0,0,1,0-.73C80.52,15.94,80.57,15.89,80.55,14.81Z"/><path class="cls-36" d="M80.32,2A5.45,5.45,0,0,1,82.46.27a2.45,2.45,0,0,1,2.72.32c.35.33.73.63,1,1a3.85,3.85,0,0,1,.58,4.14c-.15.45-.27.91-.43,1.36a3.28,3.28,0,0,1-.87,1.37c-.33.15-.5.3-.07.55a.37.37,0,0,1,.15.56.39.39,0,0,1-.57.12,4.41,4.41,0,0,1-1.34-1.24c-.58-.49.07-.66.24-1,.66,0,1.14-.07,1.33-1.11a1.49,1.49,0,0,1,.23-.92c.1-.1.1-.63.13-.76.21-.89.31-1.52-.61-1.33a4.81,4.81,0,0,1-.66-.13,1.24,1.24,0,0,1-.51-.48c-.38-.87-1.46-.54-2.25-.48-.22,0-.24.23-.35.36-.3,0-.31.5-.67.4C80.35,2.7,80.45,2.31,80.32,2Z"/><path class="cls-13" d="M83.68,8.43A5.26,5.26,0,0,1,85,9.29a.23.23,0,0,0,.36,0c.1-.11,0-.22-.08-.31-.33-.35-.27-.55.23-.58-.22.24-.18.43.11.56l1.8.8a4.34,4.34,0,0,1,1.08.64.71.71,0,0,1,.28.8c-.1.31-.38.31-.64.33s-.44.09-.59,0c-.63-.32-1,0-1.4.44a3.43,3.43,0,0,1-1.59,1c-.6.33-.22.68-.28,1.18,0,.26,0,.6,0,.63-.92.33-1.11.42-1.33-.85,0-.1,0-.2-.07-.28a.75.75,0,0,1,0-.47,3.56,3.56,0,0,1,.35-1.18c.14-.44,1-1.08,1-.16.26.11,1-.48,1.26-.71s-.37-.36-.49-.54A8.78,8.78,0,0,1,83.9,9c-.2-.14-.7.12-.59-.44Z"/><path class="cls-37" d="M118.85,32.17c1.44,1.92,1.57,4.21,1.8,6.47a2.42,2.42,0,0,0,0,.47,24.47,24.47,0,0,1,.55,5.26,6.92,6.92,0,0,1-.16,1.36c-.22,1.8-.51,3.59-.64,5.39,0,.65-.14,1.29-.17,1.94A7.31,7.31,0,0,0,120,56a6.46,6.46,0,0,1-.18,1.34c-.14.85.22,1.67,0,2.49-.22.14-.32,0-.42-.17s-.65-.27-.79.22c-.07.23,0-3.83,0-4.7,0-1.29.28-2.55.39-3.83s.34-2.69.51-4a22.42,22.42,0,0,0,.06-5.49,28.42,28.42,0,0,0-.65-3.87c-.53-1.06-.37-2.27-.72-3.37a.36.36,0,0,1,.54-.28c.44.19.26.62.35,1.08-.1-.91-.38-1.65-.46-2.43C118.6,32.62,118.43,32.31,118.85,32.17Z"/><path class="cls-38" d="M121.73,77c.13.8.19,1.59-.6,2.14a.88.88,0,0,0-.79.5c-.15.26-.34.5-.49.76-.39.66-.47.69-1.15.43a1.17,1.17,0,0,1-.55-1.21c.06-.7-.1-1.41-.1-2.13a9.32,9.32,0,0,1,.2-1.1c.06-.43,0-.59-.47-.69-1.13-.24-1.62-.76-1.71-1.69-.14-.19-.51-.2-.45-.55s.36-.33.58-.44.49-.11.59-.43.34-.2.55-.14a.53.53,0,0,1,.24.29,1.88,1.88,0,0,0,2.14,1.16c.43-.09.49-.24.25-.62a2.22,2.22,0,0,0-.36-.39,2.07,2.07,0,0,1-.48-1.73c0-.31.38-.29.62-.37a1.13,1.13,0,0,1,.33.13c.48.37.71,1.35,1.34,1.56,0,0,0,.49,0,.55.09.44.43-.18.79.15s-.31,1.57-.76,1.69c-.21.06-.43,0-.61.12s-.63.27-.81.38c-.46.17-.56.3-.51.78a14.69,14.69,0,0,1,0,2.2c0,.16,0,.07.14.17s.31-.22.33-.46.18-.42.25-.68a6.08,6.08,0,0,1,.36-1.27.48.48,0,0,1,.6-.27c.27.07.45.2.45.51S121.86,76.74,121.73,77Z"/><path class="cls-39" d="M115.37,61.24c.41-.63,0-1.34.22-2a34.6,34.6,0,0,0,.55-4.67,29.46,29.46,0,0,0,.07-3.26c0-.72.12-1.44.1-2.16,0-1.51-.06-3-.15-4.52a10.25,10.25,0,0,0-.31-1.52c-.36-.48-.14-1.06-.26-1.58.15-.29.38-.25.48,0,.23.57.61.6,1.1.43a.44.44,0,0,1,.23.5,1.41,1.41,0,0,0,0,.46c.34,1.12,0,2.29.21,3.39s0,2.12.08,3.17c.08.89-.08,1.78-.08,2.67s-.15,1.52-.19,2.29a7.55,7.55,0,0,1,0,1.84c-.26.87-.1,1.8-.43,2.66-.45.19-.48-.23-.7-.48.21.78-.16,1.48-.18,2.21,0,1-.23,1.92-.35,2.87-.07.56,0,1.12-.12,1.67,0,.24.06.73-.49.6C115.15,64.27,115.43,62.76,115.37,61.24Z"/><path class="cls-40" d="M120.65,74.93c.08-.19.21-.41.42-.38.58.09.59-.41.77-.72a.28.28,0,0,0-.12-.41c-.4-.17.33-.24.25-1,0-.07-.61-.07-.55,0,.39.46-1-1-1.49-1.28.68-.54,1.27.62,1.85.51.34-.45-.86-1-1.17-1.27s-1-.65-.7-1c.71-1.13,2.47-.46,2.92.39.2.39.38.78.57,1.17a6.07,6.07,0,0,1-.39,2.39c-.24.19-.25.48-.34.74a1.53,1.53,0,0,1-.55.88.76.76,0,0,0-.29.73,3.24,3.24,0,0,1-.1,1.28c-.18-.34-.21-.92-.76-.84s-.37.61-.44,1-.24.94.17,1.34a.22.22,0,0,1,0,.32.29.29,0,0,1-.33,0l-.73-.27a3.61,3.61,0,0,0,.74-2c0-.19.29-1.17.66-1.34S121.53,74.81,120.65,74.93Z"/><path class="cls-41" d="M115.12,65.8a10.38,10.38,0,0,0,.34-2.66c.22-1.18.2-2.39.49-3.58.11-.47-.09-1.06.07-1.59.06-.18.08-.35.27-.45a5.66,5.66,0,0,1,.52,1.32.39.39,0,0,1,.15.48c-.25.79-.17,1.64-.39,2.44a5.86,5.86,0,0,0,.05,1.72c0,1-.18,1.88-.18,2.82a3.79,3.79,0,0,1-.3,1.66.69.69,0,0,0,0,.58.68.68,0,0,1-.21.85.37.37,0,0,1-.55-.33,2.43,2.43,0,0,0-.34-.87A5.84,5.84,0,0,1,115.12,65.8Z"/><path class="cls-42" d="M118.59,59.81c0-.32,0-.63,0-.94s.17-.34.39-.16a2.49,2.49,0,0,1,.79,1.08,14.23,14.23,0,0,1,0,4.65,8.55,8.55,0,0,0,0,1.24.26.26,0,0,1-.15.07c-.4-.23-.64,1.92-.52,1.48.06-.22,0,1.14-.25.93-1.09-1.51-.32-2.84-.34-4.53C118.69,62.42,118.55,60.41,118.59,59.81Z"/><path class="cls-43" d="M115,68.19c.4-.12.55.1.6.45a1.52,1.52,0,0,0,.14.63c.4.15.27.48.22.74a2.09,2.09,0,0,0,.18,1.79c.11.22,0,1.18.14,1.15.51-.09,1.31-1.17,1.16-.23-.42.25-1,.4-1.41.68-.25.18,0,.4,0,.59-.93,0-.88,0-1.18-.94a6.88,6.88,0,0,1,0-3.22C114.93,69.28,114.65,68.71,115,68.19Z"/><path class="cls-44" d="M118.7,80.81c.46.06.65-.25.86-.59a1.93,1.93,0,0,1,1.57-1.1,1,1,0,0,0-.71,1,6.84,6.84,0,0,1-.55,1.75.44.44,0,0,1-.47.31c-.21,0-.27-.2-.35-.36C118.91,81.51,119.06,81.07,118.7,80.81Z"/><path class="cls-20" d="M63.16,14.31c-.27.29-.8.15-1,.6a1.63,1.63,0,0,1-.62.78A13.56,13.56,0,0,0,59.93,17c-.19.19-.46.43-.72.15s0-.55.16-.74a12.78,12.78,0,0,1,1.76-1.54c.83-.55,1.57-1.22,2.34-1.84.28-.23.64-.72,1-.25s-.16.72-.49.94A2.52,2.52,0,0,0,63.16,14.31Z"/><path class="cls-45" d="M66.71,11.9c-.23,0-.46,0-.55-.25s.12-.27.22-.38a14.57,14.57,0,0,1,2.55-1.64.39.39,0,0,1,.5,0c.14.14,0,.3-.06.44s-.14.42-.33.47a9.22,9.22,0,0,0-2,1.21A1.78,1.78,0,0,1,66.71,11.9Z"/><path class="cls-46" d="M118.85,32.17l.48,3.15c0,.21.2.47-.14.53s-.23-.26-.28-.43c-.11-.36.11-.89-.54-1a1,1,0,0,1-.91-.81A2.56,2.56,0,0,0,116.33,32a3.39,3.39,0,0,0-2.61-.71,2,2,0,0,0-1.45,1,9.35,9.35,0,0,0-1.2,2.25c-.12.43-.59.54-1,.65a.42.42,0,0,1-.24-.36c.15-.66.48-1.27.66-1.92.06-.2.15-.48-.18-.59a.64.64,0,0,1,.06-.74c.39-.42.29-1.11.81-1.47.09-.07.06-.3.08-.46s.25-.29.45-.2.15.27.16.43a1.17,1.17,0,0,1-.27.95,1.31,1.31,0,0,0-.37.93,4.89,4.89,0,0,1,2.15-2,3.12,3.12,0,0,1,3.79.48C117.84,30.84,118.59,31.28,118.85,32.17Z"/><path class="cls-47" d="M110.32,32.32l.22-.21c.07-.07.13-.17.24-.12s.1.16.09.25a11.86,11.86,0,0,1-.61,2.36.33.33,0,0,1-.42.23c-.3-.26-.23-.62-.24-1,.24-.48.51-.94.72-1.44Z"/><path class="cls-46" d="M110.32,32.43a2.78,2.78,0,0,1-.72,1.44A3.44,3.44,0,0,1,110.32,32.43Z"/><path class="cls-20" d="M84.52,40.24a18.41,18.41,0,0,0,.11,3.56,2.47,2.47,0,0,1,0,.72,17.53,17.53,0,0,0-.14,4.22c0,.53-.14,1-.11,1.59a2.61,2.61,0,0,0,.29,1.18A27.44,27.44,0,0,0,84.12,58c0,.37-.24.68-.2,1a2.37,2.37,0,0,1-.56-1.49c-.42.46-.15,1-.4,1.37a1.29,1.29,0,0,1-.25-1.17c.4-1,.07-1.9.09-2.85a3.83,3.83,0,0,1,.08-1.31c.46-1.31.05-2.64.14-4a5.82,5.82,0,0,1,.17-1.43c.13-.43-.17-.87,0-1.36.16-.66,0-1.37.19-2a1.69,1.69,0,0,0-.15-1,5.87,5.87,0,0,1-.06-1.87c0-1.07,0-2.14.07-3.19a25.14,25.14,0,0,0-.14-4.51,13.55,13.55,0,0,1,.13-1.89,9.37,9.37,0,0,0,0-2.59.39.39,0,0,1,0-.18.38.38,0,0,1,.35-.34c.18,0,.19-.14.18-.3,0-.58,0-.6.61-.56a7.14,7.14,0,0,1,.11,3.25,28.94,28.94,0,0,0,.06,4.06,14.26,14.26,0,0,1-.08,2.92A3.41,3.41,0,0,0,84.52,40.24Z"/><path class="cls-48" d="M84.4,28.36c-.12.17-.5.21-.22.58a.45.45,0,0,1-.11.74c-.43.3-.44-.16-.65-.24-.41-.22-.21-.66-.35-1C83,27,83,25.6,83,24.17a1.24,1.24,0,0,0-.2-.79.29.29,0,0,1,0-.18,1.71,1.71,0,0,0,0-1.45,5.36,5.36,0,0,1,.16-3.07A2.7,2.7,0,0,0,83,17a29.24,29.24,0,0,1-.12-3.24.83.83,0,0,1,.09.16c.17.66.54,1,1.27.83.53.58.21,1.26.21,1.9a21.66,21.66,0,0,1-.52,3,5.87,5.87,0,0,0,0,2.25,10.86,10.86,0,0,1,.14,1.71.5.5,0,0,1,0,.46,2.72,2.72,0,0,0,.06,1.62,1.76,1.76,0,0,1-.1,1,1.78,1.78,0,0,0,.35,1.69Z"/><path class="cls-49" d="M85,18h.49a2.86,2.86,0,0,1,1.37.68c.58.51.51,1-.23,1.18a2.06,2.06,0,0,0-1,.75.67.67,0,0,1-.84.24c-.36-.19-.27-.56-.18-.86s.32-.68-.18-.89a.32.32,0,0,0-.27-.18c-.21,0-.41,0-.4-.3s.13-.44.44-.37C84.54,18.55,84.73,18.16,85,18Z"/><path class="cls-20" d="M84.4,28.35a1.37,1.37,0,0,1-.54-1.67A1.25,1.25,0,0,0,84,25.61c-.24-.7.08-1.38.06-2.06a.92.92,0,0,1,.08.69,2,2,0,0,0,.06,1.06,1.69,1.69,0,0,1,.09.7A5.47,5.47,0,0,0,84.4,28.35Z"/><path class="cls-50" d="M146.42,72.29h-.1c-.09-.09-.22-.08-.33-.11-.3-.08-.37-.28-.18-.47s.34-.4.61-.64.81-.46.84-.86c.07-1.06-.29-2.49-1.23-3-.16-.08-.84-.22-.85-.45a1.62,1.62,0,0,1,.24-1.19c.18-.3.43-.63.88-.38l.39.56a1.08,1.08,0,0,0,.61.33c.3.09.59.22.55.63s.52.35.52.71a5.51,5.51,0,0,0,.54,1.21c.19,1-.36,2.06-.55,3a.73.73,0,0,0,.34,1c.26.09.87-.38,1,0a12.68,12.68,0,0,0-.4,1.85c0,.69-.43,1.14-.47,1.86,0,.24-.2.68-.5.77a.53.53,0,0,0-.31.34c-.16.42-.45.5-.84.29-.14-.46.1-1-.26-1.4a22.25,22.25,0,0,1,0-2.31h0a2.3,2.3,0,0,0,.05-1.42C146.93,72.31,146.61,72.4,146.42,72.29Z"/><path class="cls-42" d="M150.27,77.08a.51.51,0,0,1,.58.56.43.43,0,0,1-.49.46c-.32,0-.68-.11-.71-.49S150,77.17,150.27,77.08Z"/><path class="cls-44" d="M146.91,74.06a4.79,4.79,0,0,0,.19,1.64c.11.26-.18.43-.19.67a9.24,9.24,0,0,1-.11-2.29Z"/><path class="cls-51" d="M207.76,71.31a13.51,13.51,0,0,0,3,.13l.39.23a2.16,2.16,0,0,1-.36,0c-.75-.14-1.35,0-1.57.84a17.24,17.24,0,0,0-3.37,0l-.07,0c-.32-.1-.29-.36-.21-.59a.61.61,0,0,1,.63-.35C206.72,71.49,207.23,71.37,207.76,71.31Z"/><path class="cls-52" d="M154.71,65.57a5.26,5.26,0,0,0,1.47.2c2.37.06,4.73.12,7.09.28,1.26.09,2.53-.2,3.81-.13.29.2.43.52,1,.18s1.12,0,1.69.1a6.7,6.7,0,0,0,1.55.1c.64-.07.77.16.57.83a1.33,1.33,0,0,0-1.53.11c0,.06-.12.13-.19.13a5.76,5.76,0,0,1-2.19-.14,16.84,16.84,0,0,0-2.56-.06,3.19,3.19,0,0,0-.53.06c-1.19,0-2.38.07-3.57,0a.46.46,0,0,1-.3,0,10.89,10.89,0,0,0-3.64-.29c-.51,0-1-.06-1.53-.09a11.14,11.14,0,0,0-2,0,.56.56,0,0,1-.34,0,1.8,1.8,0,0,0-1.1-.09,10.6,10.6,0,0,1-3.18-.06c-.16-.31.05-.37.29-.42s.56,0,.82-.25c-.26-.31-.66-.24-1-.36s-.51-.07-.36-.44a11.86,11.86,0,0,1,1.18.14C151.66,65.76,153.19,65.43,154.71,65.57Z"/><path class="cls-20" d="M193,66.88c-.08.2-.39.44.14.5.2,0,.22.31.35.46s-.18.24-.33.23c-.84-.1-1.72.24-2.54-.18-.32-.17-.6.09-.92.09a26.17,26.17,0,0,1-3.06-.42c-.54,0-1,.13-1.58.07-.33,0-.7.08-.94-.27s-.56-.11-.84-.13-1.06,0-1.07-.4.64-.22,1-.28.66.21,1,.21.81.38,1-.26c0,0,.23,0,.34,0,.44,0,.86.19,1.3,0,.05,0,.15,0,.17,0,.49.6,1.11.19,1.67.22s1.27.09,1.91.1S192.23,66.88,193,66.88Z"/><path class="cls-36" d="M77.47,71.16c-.07-.93-.37-1.81-.38-2.74a3.94,3.94,0,0,1,.73-1.94c.07-.08.23-.09.33-.13a1.08,1.08,0,0,0,.4-.09c.15-.06.18-.11.3-.33s.33-.15.23-.39-.06-.67-.22-1a.59.59,0,0,1,.12-.71.62.62,0,0,1,.73-.11.59.59,0,0,1,.35.64c-.08.34-.08.83.12,1s-.07.51,0,.58a3,3,0,0,1,0,1.12A2.57,2.57,0,0,1,80,68c-.08.64,0,.92-.46,1.29s-.89.74-.58,1.16c0,0,.57.6.62.63.48.33.77.26,1.29-.08a.9.9,0,0,1,.47-.13c.62.21.89.19,1.29-.23.14-.16.62-.46.69-.67a4.53,4.53,0,0,0,.09-3.39A6.43,6.43,0,0,1,83,64c0-.12.07-.29.2-.25.4.14.25-.22.34-.36.69.62.66.05.64,1.12.11.55-.1.31,0,.61s.17.31.35.25.12-.25.06-.39-.26-.25,0-.62.36-.46.58-.48h0a1.25,1.25,0,0,1,1.14.26c.26.25.35.68.85.66.1,0,.12.22,0,.29-.46.28-.29.76-.4,1.2.08.09-.25.14-.32.16-1.77.55-2,2.1-2.2,3.58a2.53,2.53,0,0,1-1.53,2,5.84,5.84,0,0,1-3.09.74C78.52,72.67,78.05,71.86,77.47,71.16Z"/><path class="cls-50" d="M141.61,70.72a3.3,3.3,0,0,1-.1-3.32,17.9,17.9,0,0,1,1.3-1.71.86.86,0,0,1,.75-.27c.44.24.29.59.2.94s-.48,0-.57.5-.38.17-.5.86a1.45,1.45,0,0,0-.2.85c.08.45-.3.82.85.77a4.15,4.15,0,0,0,1.24,1.23c.28.16.75.26.67.68a1.21,1.21,0,0,1-1.85.59,9.63,9.63,0,0,1-1.12,0,.33.33,0,0,1-.27-.34A1,1,0,0,0,141.61,70.72Z"/><path class="cls-44" d="M141.61,70.72a2.76,2.76,0,0,0,1.72,1.08c.06,1,.91.72,1.37.37a2.19,2.19,0,0,0,.61-.56.88.88,0,0,1,.92-.52c.18,0,.42-.2.46,0l-.42.42c-.28.28-.35.53,0,.76a.68.68,0,0,0-.64.32,2.43,2.43,0,0,1-3.08.87,1.62,1.62,0,0,1-.7-1.64A1.8,1.8,0,0,0,141.61,70.72Z"/><path class="cls-14" d="M149.18,66.65h-.29c-1,0-1,0-.74,1-.25-.29-.63-.42-.64-1,0-.37-.64-.47-.82-.87.35.22.62,0,.92-.14s.81-.58,1.35-.31a2.52,2.52,0,0,0,1,.24,1.64,1.64,0,0,1,.76.31c.19.12.37.28.3.53s-.32.18-.51.19Z"/><path class="cls-14" d="M143.86,66.39c0-.32-.3-.64-.3-1a1.6,1.6,0,0,0,1.16-.38c.56-.5,1.05-.44,1.58.16-.32.19-.16.52-.57.67-.24.2-.33-.09-.64-.09s-.44.49-.49.52C144.4,67.21,143.9,66.84,143.86,66.39Z"/><path class="cls-53" d="M186.75,71.08a4.81,4.81,0,0,0,1.69.11c.65,0,1.31-.09,2,0,.42.17.38.45.2.77a26.7,26.7,0,0,0-2.68.12c-.62.09-1.19-.33-1.82-.19a5,5,0,0,1-.77.07c-.06-.21-.15-.44.08-.6s.33,0,.48.1.38.15.48-.11A.35.35,0,0,1,186.75,71.08Z"/><path class="cls-54" d="M177.63,71.36c.2,0,.44.06.67.11a.26.26,0,0,1,.24.29c0,.17-.13.23-.28.25l-1.3.16c-.32,0-.43-.15-.48-.4s.19-.32.4-.34Z"/><path class="cls-6" d="M200.92,68a1.78,1.78,0,0,1-.85-.09,1.47,1.47,0,0,0-1.3-.73c1-.47,1-.48,1.72.22.26.26.33,0,.45-.1.36-.33.7-.22.82.26.05.19,0,.27-.2.3Z"/><path class="cls-6" d="M202.6,68c-.29-.18-.27-.42-.09-.66a.82.82,0,0,1,.92-.24c.24.07.45.19.46.47s-.14.39-.41.39-.59,0-.89,0Z"/><path class="cls-20" d="M195.77,67.84a2.24,2.24,0,0,1-1.81-.12,1,1,0,0,1,1.3,0C195.38,67.81,195.6,67.8,195.77,67.84Z"/><path class="cls-55" d="M70.6,8.55A16.59,16.59,0,0,1,73,6.84a3.85,3.85,0,0,0,.92-1,3.09,3.09,0,0,1,.82-.66c.45-.28.6-.09.71.31a1.51,1.51,0,0,1-.93,1.81,24.73,24.73,0,0,0-2.77,1.62c-.67.37-1,.3-1.18-.36Z"/><path class="cls-33" d="M155.44,72.49c.26-.59.22-.7-.41-.75-.85-.06-1.7,0-2.56-.06a1.78,1.78,0,0,1-1-.14l6.43,0c.26,0,.51,0,.77,0a4.84,4.84,0,0,1,2-.11l.48.12c.72,0,1.43-.1,2.16-.08a5.31,5.31,0,0,0,1.08-.29h0c.68.11,1.36,0,2,.14.43.17.92.09,1.31.37.09.06.24.1.2.25s-.18.11-.3.12l-2.87.13a.69.69,0,0,1-.35,0,2.11,2.11,0,0,0-1.92.2,3.7,3.7,0,0,1-1.58-.16c-.44-.17-.9.22-1.34.09s-1.1.27-1.39.22a1.57,1.57,0,0,0-.67-.06C156.85,72.61,156.14,72.32,155.44,72.49Z"/><path class="cls-56" d="M158.08,73.11l.61-.48a.59.59,0,0,1,.31.7,24.25,24.25,0,0,1-.65,3.27,4.41,4.41,0,0,1-.28.58c-.56.21-.78-.07-.83-.59a7,7,0,0,1,.37-3C157.75,73.33,157.92,73.27,158.08,73.11Z"/><path class="cls-40" d="M156.73,76.94c-.66.33-1,.16-.91-.55a4.4,4.4,0,0,0-.56-2,1.32,1.32,0,0,1,0-1.1.61.61,0,0,1,.54-.41c.3,0,.39.22.47.46s.13.29.19.43A3,3,0,0,1,156.73,76.94Z"/><path class="cls-29" d="M190.6,71.91c-.22-.2-.14-.46-.11-.71s.34,0,.51-.06a3.4,3.4,0,0,0,1.45-.08c.52-.18,1.09.09,1.63.13h0a14.41,14.41,0,0,0,2.53.36l.47-.11a33.31,33.31,0,0,0,4.89.24c1.94,0,3.86-.26,5.79-.37a2.61,2.61,0,0,1-1.16.22c-.67,0-.87.32-.84.91-1.19,0-2.38-.08-3.57-.14a2.12,2.12,0,0,0-.83.08.73.73,0,0,1-.4.11c-1.17-.2-2.38.3-3.55-.13a.34.34,0,0,0-.17,0c-1.49.21-2.92-.24-4.39-.3C192.1,72,191.35,72,190.6,71.91Z"/><path class="cls-44" d="M146.42,72.29c.48-.26.64-.08.63.42s.27.94-.14,1.36c0-.25,0-.5.05-.75A1.07,1.07,0,0,0,146.42,72.29Z"/><path class="cls-51" d="M7.22,76c.61.39.31,1,.33,1.5s-.07.7-.58.64c.11-.28.21-.56.32-.83A1.31,1.31,0,0,0,7.22,76Z"/><path class="cls-57" d="M8.48,67.91a4.8,4.8,0,0,0,2.35.07,3,3,0,0,1,1.42,0,12.78,12.78,0,0,0,2.9,0c.55.43.54.8-.07,1.11a1.31,1.31,0,0,1-1,.21,5.51,5.51,0,0,1-1.9,0,2.52,2.52,0,0,0-2,.46.56.56,0,0,1-.51.12,9.9,9.9,0,0,0-2-.21c-.53,0-.62.19-.66.71-.17-.81,0-.93.74-.76.59.13.86-.09.84-.72A8.12,8.12,0,0,0,8.48,67.91Z"/><path class="cls-58" d="M8.28,77.11a.46.46,0,0,1-.41-.51,2.32,2.32,0,0,0-.47-1.3,7.34,7.34,0,0,0-.71-1,.35.35,0,0,1,0-.49c.16-.19.32-.06.46,0,.33.23.76.33.89.81,0,.19.3.23.49.3.58.2.65.38.37.91a3.12,3.12,0,0,0-.27.85C8.6,76.88,8.52,77.07,8.28,77.11Z"/><path class="cls-59" d="M6.89,78.26,7,78.14A1.7,1.7,0,0,0,7.22,76l-.32-.37C6.67,75,6.27,74.05,6,73.46c-.1-.23-.31-.24-.47,0a5.71,5.71,0,0,1-1.49,1.07,1.49,1.49,0,0,1-1.35,0,1.49,1.49,0,0,0-.25-.13,1.7,1.7,0,0,1-1.21-1h0a2.94,2.94,0,0,1-1.08-2,5.2,5.2,0,0,1,0-2.51,1.56,1.56,0,0,0,.33-.75c.13-.62.06-1.35.68-1.81.18-.13.31-.38.58-.26a.5.5,0,0,1,.28.64,5.83,5.83,0,0,0-.45,3,.84.84,0,0,0,.26.57c.28.59.3,1.23.76,1.72.24.63.59.79,1.1.33a4,4,0,0,1,.91-.69,1.88,1.88,0,0,0,.85-.91,4.22,4.22,0,0,0-.23-3c-.08-.2-.17-.72-.23-.93,0-.4-.39-.5-.79-.65-.22-.09-.3-.35-.12-.45.37-.21.56-.65,1-.73h0A1,1,0,0,1,6,65a4.76,4.76,0,0,0,1,.25A13.67,13.67,0,0,0,8.93,66c.35.06.47.49.81.61.27.51-.46,1-1.09,1-.72-.2-1.78-.56-1.68.27-.1,1.52.77,0,1.67.08.69.11.46.92.15,1.49-.14.26-.44.52-.72.43-1-.33-.82,0-.88.47a1.48,1.48,0,0,1-.06.63c-.54.91.25.71.65.67a5,5,0,0,1,2.39.2,8.25,8.25,0,0,0,1,.28c.64.18.82.39.77,1A3.42,3.42,0,0,0,12,74.47a6.2,6.2,0,0,1,1.25-1.82c.41-.31.67-.17.79.33s-.16.71-.23,1.06A18.52,18.52,0,0,1,13,77.15a.73.73,0,0,1-1.21.28.92.92,0,0,0-.46-.33c-.53-.41-.68-1.32-1.17-3.33,0,0-.09-.07-.1,0-.3,1.08-1,2.79-1.19,3.75a2.63,2.63,0,0,1-.67,1c-.3.36-.67.33-1,0Zm1-4.64c0,.25,0,.58.31.69.1,0,.69-.88.68-1s-.14-.21-.31-.2S7.87,73.16,7.89,73.62Z"/><path class="cls-55" d="M29.08,47.07c.57-.13.82-.7,1.31-1,.27-.16.29,0,.37.13s-.1.39-.24.52a4.06,4.06,0,0,1-.5.43l-.1.13a7.17,7.17,0,0,1-1,2c-.2.3-.19.75-.59.92h0c-.09.14-.17.29-.05.44a.39.39,0,0,0,.47.06,5.53,5.53,0,0,0,1.15-.49c1.86-.9,3.66-2,5.6-2.7.26-.09.52-.29.77,0s.11.55-.08.81a2.78,2.78,0,0,0-.22.42c-.32.68-.66.82-1.35.55a.59.59,0,0,0-.52,0c-.93.46-1.85.94-2.77,1.41-.8.17-1.35.8-2.06,1.12a9.41,9.41,0,0,0-3,1.84,2,2,0,0,1-.57.4c-.38.19-.54.07-.7-.49a13.45,13.45,0,0,1,.64-4.21,4.75,4.75,0,0,0,.09-3,4.82,4.82,0,0,1,0-2.07c.23-.17.55-.12.75-.4s.34,0,.45.17a10.28,10.28,0,0,1-.16,6.11A13.47,13.47,0,0,0,29.08,47.07Z"/><path class="cls-3" d="M26.92,44.08c-.41,0-.74.46-1.2.23l.48-.42C26.54,43.58,26.78,43.62,26.92,44.08Z"/><path class="cls-12" d="M30,47.18c.11-.43.67-.5.74-1h.12A1.14,1.14,0,0,1,30,47.18Z"/><path class="cls-47" d="M79.12,64.29a5.58,5.58,0,0,1,.16.68c.19.82,0,1.16-.88,1.3.3-.23.4-.27.45-.44s-.13-.66-.09-.75c.2-.46-.3-.94-.86-.27-.21.09-1-.48-1.18-.23,0,.2.63,1,.71,1.2.38,1,.26,1.12-.71,1-.3-.09-.59-.21-.91-.28a.63.63,0,0,1-.56-.82,1.05,1.05,0,0,0-.38-1.1,2.92,2.92,0,0,0-.44-.32c-.33-.23-.68-.45-.53-1s.76-1,1.2-.92a20.77,20.77,0,0,0,2.73,0c.23,0,.44,0,.58.23s0,.36.19.39.25-.16.27-.32c0-.39.26-.75.19-1.16s-.08-.55.2-.69.4.21.59.35l.08,0a2.1,2.1,0,0,1-.21,1.66c-.78-.13-.22.31.25.58C80.08,64.86,79,64.09,79.12,64.29Z"/><path class="cls-60" d="M78.63,15.51a1.28,1.28,0,0,1,.13,1,.74.74,0,0,0,.35.85c.06,0,.12.12.19.13.79.11,1.06.39,1,1.18,0,.35.18.69,0,1.05-.11.2-.13.46-.41.53s-.38-.22-.54-.37c-.35-.93-1.25-1.13-2-1.42-.51-.19-.74-.64-1.17-.87-.17-.1-.11-.29,0-.41.33-.31.68-.61,1-.92a1.89,1.89,0,0,0,.91-.52C78.26,15.57,78.41,15.45,78.63,15.51Z"/><path class="cls-33" d="M30.05,73.84c-.51.31-1.06-.09-1.58.1a45.23,45.23,0,0,1-5.68-.51c-1.06-.17-2.23-.51-3.31.12-.19.11-.42.16-.49.4-.72.57-.74.57-1.29.13-.32-.93-.3-.81.7-1.4a4.32,4.32,0,0,1,3.05-.55c1.07.19,2.23-.06,3.19.44s1.68.11,2.51.22a16.37,16.37,0,0,0,2.62,0,5.36,5.36,0,0,1,1.83,0c.13.41,0,.66-.37.59a4.45,4.45,0,0,0-1.1,0,1.25,1.25,0,0,1-.91-.19.66.66,0,0,0-.62-.08A2.89,2.89,0,0,1,27,73.2c-.14,0-.26.06-.42.06.52-.07,1,.07,1.5,0,.12,0,.27,0,.41,0a1.4,1.4,0,0,1,1.6.63Z"/><path class="cls-52" d="M30,73.83A5.17,5.17,0,0,1,29,73.32c-.4-.24-.89.11-1.35.1-.62,0-1.28.27-1.87-.14a15.53,15.53,0,0,1,3.53-.23,15.3,15.3,0,0,1,1.79,0,.5.5,0,0,0,.52-.32h.24c.19.26.44.13.66.1,1.06-.13,2.12-.12,3.17-.16.44,0,.86-.12,1.29-.12.27.16.56.27.83.44s.46.44.6.71,0,.4-.31.35H38c-.3-.18-.73-.09-.93-.47-.28.31-.85,0-1.05.46-.09.24-.18.22-.38.06s-.66-.34-1,.08a1.12,1.12,0,0,1-.86.35,1.32,1.32,0,0,0-1.1,0,1,1,0,0,1-1.25-.44C30.91,73.44,30.8,73.4,30,73.83Z"/><path class="cls-6" d="M17.7,74.08c.26-.11.73.11.68-.49,0-.17.25-.15.37,0A1.7,1.7,0,0,1,19,74a.48.48,0,0,1-.22.71,1.79,1.79,0,0,0-.83,1.62,2.33,2.33,0,0,1-.63,1.62h0c-.34.21-.51-.06-.66-.28s.2-.72,0-.91c-.74,0-.56-1,0-1,.36-.2-.14-.72.19-.94C17,74.41,17.48,74.4,17.7,74.08Z"/><path class="cls-61" d="M16.36,75.75a3.66,3.66,0,0,0,0,1.19.36.36,0,0,1-.25.52.56.56,0,0,1-.7-.29A3.83,3.83,0,0,1,15.53,73c.38-.27.87-.23.9.13A5.9,5.9,0,0,1,16.36,75.75Z"/><path class="cls-32" d="M38.08,74.07c-.23-.27,0-.71-.36-.95.16-.16.32-.08.48,0h0a4,4,0,0,0,1.89,0,2,2,0,0,1,1-.13h.09A5.43,5.43,0,0,0,43,72.77c.45-.2.72.18,1,.41-.05.2-.2.17-.31.18A3.41,3.41,0,0,0,42,73.7a.57.57,0,0,1-.85-.06c-.46.56-1.16.22-1.73.42A1.9,1.9,0,0,1,38.08,74.07Z"/><path class="cls-33" d="M37,72.64a12.44,12.44,0,0,1-3.8.26,2.32,2.32,0,0,0-.87.11c-.25.08-.44,0-.49-.26,1.53-.1,3-.29,4.57-.26a1.46,1.46,0,0,1,.59,0s0,.06,0,.08S37,72.64,37,72.64Z"/><path class="cls-21" d="M41.09,73a3,3,0,0,1-2.89.13c.77.11,1.47-.38,2.25-.24A2.32,2.32,0,0,1,41.09,73Z"/><path class="cls-21" d="M37,72.64v-.13a5.61,5.61,0,0,1,1.2.6h-.48Z"/><path class="cls-54" d="M14.08,69.28a3.87,3.87,0,0,0,.69-.17c.54-.24.55-.67.38-1.15a5,5,0,0,1,2.3.3.61.61,0,0,0,.4,0A21.13,21.13,0,0,1,21.49,68a5.64,5.64,0,0,0,1.83-.12c.3,0,.6,0,.89,0s.52-.1.52.23-.24.48-.57.47-.72-.16-1,.25a1,1,0,0,0-.29,0c-1.33.39-2.72.1-4.06.38a5.13,5.13,0,0,1-1.71.07,10.36,10.36,0,0,0-2.36.06C14.54,69.31,14.31,69.41,14.08,69.28Z"/><path class="cls-8" d="M56.92,71.67a15.88,15.88,0,0,1,2.28-.24.89.89,0,0,1,.12,1.09c-1.06.25-2.16.09-3.23.24-.24,0-.51,0-.46-.37s-.18-.32-.39-.35a7.22,7.22,0,0,1-1.1-.24A11.71,11.71,0,0,0,56.92,71.67Z"/><path class="cls-40" d="M67.47,71.65a1.42,1.42,0,0,0-.1-.7.29.29,0,0,1-.09-.24,1,1,0,0,1,1.26,0c.33.29.45.59.1,1a.45.45,0,0,0-.11.64c.16.24-.14.46-.09.7a.83.83,0,0,1-.72.89,1,1,0,0,0-.72.73,24.43,24.43,0,0,1-1.49,3.25c-.24.43-.5.88-1.09.89A1.3,1.3,0,0,1,63,77.68a17.12,17.12,0,0,1-1.33-3.12c-.11-.84.54-1,.84-1.49.13-.22.34,0,.5.07.41.21.44.67.58,1a5.11,5.11,0,0,1,.46,2c0,.24.19,1,.49,1,.08,0,.28-.57.29-.63.1-.54.59-.89.65-1.47a1.85,1.85,0,0,1,.68-1.24,1.63,1.63,0,0,0,.39-.4,3.1,3.1,0,0,1,.27-.34A3.12,3.12,0,0,0,67.47,71.65Z"/><path class="cls-44" d="M62.94,73.35c-.23-.18-.4-.06-.53.13,0-.38,0-.31-.06-.46S62,73,61.81,73a8.15,8.15,0,0,1-2.49-.44.88.88,0,0,1-.12-1.09,3.18,3.18,0,0,1,2.14.33,2.32,2.32,0,0,0,1,.27,9.55,9.55,0,0,1,2.13.2A1.46,1.46,0,0,0,66,71.87c.34-.35.77-.69,1.21,0A.93.93,0,0,1,66.74,73a1.08,1.08,0,0,1-.93.29,4.57,4.57,0,0,0-1.2.17,1.65,1.65,0,0,1-1.22-.35C63.21,73.05,63,72.9,62.94,73.35Z"/><path class="cls-62" d="M68.44,73c-.07,0-.22.16-.19.08.29-.59-.07-.85-.49-1.11-.05,0-.07-.13-.18-.37.58.48.83.24,1-.19a.4.4,0,0,0-.11-.44c-.11-.12-.26-.22-.41-.1-.31.23-.51,0-.73-.14-.3,0-.29-.35-.33-.62-.11-.73-.52-.81-1.23-.74s-1.18.44-1.78.15h0a.41.41,0,0,0-.59.2c-.21.4-.58.48-.86.15a1.87,1.87,0,0,1-.45-.62c-.28-1-1.09-.92-1.86-.91a3.87,3.87,0,0,1-.59,0c-.21,0-.6.06-.51-.28a.89.89,0,0,1,.65-.49c.86-.22,2,.14,2.53-.93a3.33,3.33,0,0,1,1.14-.73.82.82,0,0,1,1.07,1c0,.13-.07.27-.11.4s-.2.49.13.6.63.1.74-.27a2.22,2.22,0,0,1,.55-.76,2,2,0,0,1,1.89-.51c.48.09.55.57.81.87a2,2,0,0,1,.62,2c-.16.52-.45,1-.21,1.6a.84.84,0,0,1,0,.69,1,1,0,0,0-.24.81A.65.65,0,0,1,68.44,73Z"/><path class="cls-29" d="M33.42,42c.18,0,.28.08.25.25a.32.32,0,0,1-.33.27c-.15,0-.3,0-.28-.22S33.25,42,33.42,42Z"/><path class="cls-63" d="M19.72,55.49a1.81,1.81,0,0,1,.89-1.39.73.73,0,0,1,.84.08c.3.18.35.38.05.59s-.77.53-.8,1.09a.45.45,0,0,1-.58.39C19.7,56.16,19.69,55.84,19.72,55.49Z"/><path class="cls-6" d="M20.47,57.83c-.27,0-.36-.12-.36-.3,0-.6.54-.72.89-1s.59-.11.86.11c.1.1.17.2.05.3A5.15,5.15,0,0,1,20.47,57.83Z"/><path class="cls-40" d="M68.92,71.56c0-.15,0-.36,0-.46-.62-.73.08-1.23.28-1.83A10.87,10.87,0,0,0,69,71.55Z"/><path class="cls-64" d="M10.6,62.32a3,3,0,0,1,.41-.09.31.31,0,0,1,.37.21.33.33,0,0,1-.12.37c-.19.15-.44.31-.65.24-.65-.21-.07-.48,0-.73Z"/><path class="cls-65" d="M112.71,60a1.63,1.63,0,0,0-.16,1.07,25.15,25.15,0,0,1,0,3.13c0,.33.14.67,0,1-.1-.21-.41-.31-.26-.65.07-.15-.15-.26-.32-.26s-.37.06-.43.26,0,.37-.09.53a3.5,3.5,0,0,1,0-1.25,4.83,4.83,0,0,0-.22-2.52,3.25,3.25,0,0,1,0-1.83,13.28,13.28,0,0,0,.07-2.09l0,0a28.07,28.07,0,0,0-.08-3.89,5.72,5.72,0,0,1,.14-.72,8.82,8.82,0,0,0-.2-1.92.84.84,0,0,1,.16-.51.71.71,0,0,1,.65-.34c.29,0,.34.27.33.5s.14.28.09.44c.18-.14.35-.37.6-.24s0,.38,0,.58a3.76,3.76,0,0,1-.19,1.16c-.14.5.36.8.46,1.23s-.31.93-.22,1.43c.18.89-.17,1.78,0,2.66-.48.59.07,1.21-.05,1.8C112.85,59.71,112.93,59.91,112.71,60Z"/><path class="cls-51" d="M112.85,53.67c-.79-.86-.21-1.8-.19-2.76-.37.1-.54.45-.87.76,0-.39.23-.67.12-1,0-.14,0-.36-.22-.36a.41.41,0,0,0-.44.33.72.72,0,0,0,0,.46c.35.67,0,1.45.39,2.11,0,.07,0,.18-.05.28-.27,0-.08-.36-.31-.39,0,0-.08,0-.08.07,0,.44,0,.87,0,1.31s0,.69.33.88c-.31.55.37,1.21-.21,1.74a.71.71,0,0,0-.13.26,2.82,2.82,0,0,1-.17-1.85c.12-.9-.1-1.78,0-2.67,0-.09-.11-.2-.17-.3a1.3,1.3,0,0,1,.11-.7.5.5,0,0,0,0-.41,3.89,3.89,0,0,1,.27-2,6.18,6.18,0,0,0,.35-2.8,13.83,13.83,0,0,1,.18-1.83,1.44,1.44,0,0,0,0-1.08c.46-.09.46-.09.59.62a1.59,1.59,0,0,0,.2-1.29,1.63,1.63,0,0,1,.15-1.09,7.9,7.9,0,0,0,.32-1.08c.07-.21.11-.43.42-.4s.29.4.26.66c-.12,1-.15,2.1-.23,3.16a18.89,18.89,0,0,1-.28,1.94c-.12.8-.18,1.6-.24,2.41,0,.38-.21.71-.23,1.09a.77.77,0,0,0,.15.61,1.43,1.43,0,0,1,.25,1.82c-.1.17,0,.3,0,.45C113.15,53,113.22,53.39,112.85,53.67Z"/><path class="cls-66" d="M84.34,10.08c.38.3.24.19.66.72.07,0,.13.24,0,.49-.27.39-.47.36-.82.36a.52.52,0,0,0-.75.27,4.25,4.25,0,0,0-.64,1.32,6.48,6.48,0,0,1,.36-2.51C83.34,10.42,83.72,9.34,84.34,10.08Z"/><path class="cls-20" d="M83,23.32a5.73,5.73,0,0,1-.28-3.63c0-.19.13-.38,0-.58A12.08,12.08,0,0,0,83,17a2.11,2.11,0,0,1,.11,1.72c-.09.53-.22,1-.31,1.57a1.9,1.9,0,0,0,.14,1.11A2.74,2.74,0,0,1,83,23.32Z"/><path class="cls-36" d="M84.58,15a1.15,1.15,0,0,1-.19-.87,1.33,1.33,0,0,1,.5-.4,1,1,0,0,1,1.08-.1,13,13,0,0,0,2.93,1.1,1.1,1.1,0,0,1-1,1.13,3.31,3.31,0,0,0-2.45,1.5c-.26.21-.47.59-.91.31s-.22-1.07,0-1.44C86.16,15.49,84.87,15.69,84.58,15Z"/><path class="cls-35" d="M77.57,11l0-.22a2,2,0,0,1,1.4.13c.35.14.3.3.07.51s-.44.16-.5.4-.26.52.24.39c.25-.07.35.06.31.28-.15.88,1,2.67.09,2.63-.36,0-.42.2-.43.24s.19.22,0,.34a10.47,10.47,0,0,1-1,.67c-.2.1-.44.26-.58-.09.84-.82.84-.84-.26-1.16-.58-.17-1.24-.13-1.65-.7,0-.06-.11-.11-.17-.17-.67-.82-.62-1.21.3-1.92a22.3,22.3,0,0,1,2.27-.6c.19,0,.46,0,.52-.2s-.23-.28-.36-.42a.51.51,0,0,0-.16-.09Zm.7,2.84c.2,0,.44,0,.44-.23a.33.33,0,0,0-.44-.34,7.07,7.07,0,0,1-1.13.15A2.29,2.29,0,0,0,78.27,13.79Z"/><path class="cls-43" d="M118.72,72.5c-.68-.64-.56-1.53-.68-2.33a7.7,7.7,0,0,1,.3-3,.82.82,0,0,0,.34-.84c-.11-.76.11-1.53,0-2.3a.74.74,0,0,1,.22-.74c.15.15.14.46.52.39s.28.35.23.55a3.25,3.25,0,0,0,0,1.52c.06.51-.28,1-.16,1.52-.09,1.29-.66,2.6.15,3.85-.23.05.85.85.87,1,0,.59.58.54.17.9,0,.45-.58.28-1,0h0C119.35,72.86,118.94,72.88,118.72,72.5Z"/><path class="cls-6" d="M115.61,35.55c.25.53.79.92.83,1.56s.25,1.15.27,1.75a.77.77,0,0,0,.22.53h0a5.73,5.73,0,0,1-.09,2c-.11.25.1.43.21.62h0c-.31.38-.77.34-1.09-.12a4.37,4.37,0,0,1-.25-.48,3.69,3.69,0,0,1-.2-1.35,5.33,5.33,0,0,0-.72-2.38c-.08-.18-.17-.42-.41-.36s-.12.3-.11.47a1,1,0,0,1-.11.75c-.27,0-.26-.25-.29-.44a2,2,0,0,0,0-.43c-.14-.34-.2-.71.21-.85a1,1,0,0,1,1.1.26.36.36,0,0,1,.07.1c.1.19.13.58.43.43s.09-.49,0-.75a.9.9,0,0,0-.4-.5c-.19-.14-.4-.3-.32-.58S115.37,35.57,115.61,35.55Z"/><path class="cls-43" d="M119.26,62.6a.25.25,0,0,1,.26.26c0,.13,0,.26-.17.25a.34.34,0,0,1-.28-.33C119.05,62.66,119.14,62.61,119.26,62.6Z"/><path class="cls-67" d="M115.61,35.55c-.34.26-.44.49.07.68a.62.62,0,0,1,.38.55,9.1,9.1,0,0,1,.15,1.52c-.24-.06-.42-.38-.68-.07s-.28,0-.34-.17-.15-.46-.26-.66a.52.52,0,0,0-.68-.32c-.29.1-.28.35-.2.6a2.91,2.91,0,0,1,.11.88c-.57.55-1.1,1.12-.83,2a9.35,9.35,0,0,1-.41,1.78,2.26,2.26,0,0,0,.06,1.28.54.54,0,0,1-.13.58c-.17.18-.66.34-.15.69a.19.19,0,0,1-.06.14.2.2,0,0,1-.31,0,4.51,4.51,0,0,1-.29-.72c-.07-.21-.09-.43-.29-.57a4.39,4.39,0,0,1-.4-2.6c.11-.57.17-1.14.26-1.71a1.4,1.4,0,0,0-.21-.91,1.63,1.63,0,0,1-.1-.76l1-1.66A3.19,3.19,0,0,1,113.52,35,1.79,1.79,0,0,1,115.61,35.55Z"/><path class="cls-20" d="M83.2,28.36a1.77,1.77,0,0,1-.23-1,33.36,33.36,0,0,0,0-4c.39.23.31.67.25.95a2.32,2.32,0,0,0,0,1.17c.23.76-.19,1.55.15,2.31C83.42,27.9,83.26,28.15,83.2,28.36Z"/><path class="cls-36" d="M85,18a.83.83,0,0,0-.09.16c-.28.64-.28.64-.75.08Z"/><path class="cls-68" d="M150.4,71.32c-.28.08-.79-.26-.78.42,0,.09-.28.19-.43.28-.27-.37-.27-.37-.83-.35a22.69,22.69,0,0,0,.21-3l.15,0a2.93,2.93,0,0,1-.07,1.28c-.26.94.06,1.28,1,1.19A.84.84,0,0,1,150.4,71.32Z"/><path class="cls-53" d="M194.08,71.19,193,71.11c-.26,0-.6-.12-.54.37,0,.15-.11.24-.21.13-.31-.36-.78-.23-1.14-.41.34-.18.74,0,1.08-.13A3.08,3.08,0,0,1,194.08,71.19Z"/><path class="cls-7" d="M192.16,71.07a2.48,2.48,0,0,1-1.08.13h-.59a15.57,15.57,0,0,1-2.05,0A27.16,27.16,0,0,1,192.16,71.07Z"/><path class="cls-53" d="M196.61,71.55a4.78,4.78,0,0,1-2.53-.36A15.42,15.42,0,0,1,196.61,71.55Z"/><path class="cls-56" d="M217.46,68.92a4.26,4.26,0,0,1-.36,2.49,18.43,18.43,0,0,1-1.66,2.18c-.37.39-.39,1.11-.55,1.68-.08.31-.13.62-.2.93-.25.12-.49.25-.75.35a.44.44,0,0,0-.33.54.42.42,0,0,1-.44.55c-.33,0-.36-.25-.33-.5a.84.84,0,0,0-.27-.69,21,21,0,0,1-1.21-2.64.4.4,0,0,0-.08-.16c-.26-.37,0-1-.44-1.19a3.72,3.72,0,0,0-1.35.09,1,1,0,0,1-.29,0c-.19-.77.15-1.17.89-1.07a7.43,7.43,0,0,1,1,.23,23.08,23.08,0,0,1,4,.34c.24,0,.32-.08.42-.23a3.79,3.79,0,0,0,.58-3.13,1.07,1.07,0,0,0-.78-.76c-.37-.11-.39-.28-.12-.55a1.16,1.16,0,0,1,2.07.64C217.36,68.29,217.4,68.61,217.46,68.92ZM213,73.29c.11.38.2.77.31,1.15,0,.13.06.3.22.32s.21-.15.27-.27.25-.54.35-.82c.21-.64-.07-1-.84-1C212.71,72.49,212.93,72.93,213,73.29Z"/><path class="cls-3" d="M164.93,67.12a13,13,0,0,1-3.73,0Z"/><path class="cls-3" d="M168,67.13l-2.63,0A5.84,5.84,0,0,1,168,67.13Z"/><path class="cls-69" d="M150.4,71.32l1.08.22a11.54,11.54,0,0,0,2.12.07,13.16,13.16,0,0,1,1.66.06c.22,0,.52-.06.59.26s-.18.45-.41.56c-.58,0-.75.49-.79.91a7.45,7.45,0,0,1-1.58,3.24c-.2.32-.42.84-1,.9a1.28,1.28,0,0,0-.05-.53c-.75-1.16-.72-2.51-1-3.8A2,2,0,0,0,151,73c0-.41-.25-.58-.58-.71a.39.39,0,0,0-.53.23.65.65,0,0,1-.35.26,2,2,0,0,0-.86-.14c.25-.26.26-.39.49-.6C149.59,71.39,149.69,71.11,150.4,71.32Zm2.23,3.21a.38.38,0,0,0,.15.24c.08.06.16,0,.19-.09a9.05,9.05,0,0,0,.74-2.2.22.22,0,0,0-.16-.23c-.21-.06-1.06.58-1,.8C152.55,73.54,152.58,74,152.63,74.53Z"/><path class="cls-8" d="M79.85,61.23a1.75,1.75,0,0,1-.13,1.57Z"/><path class="cls-39" d="M117.05,42c-.47-.19-.75-.42-.26-.89a.41.41,0,0,0,.08-.4,2.57,2.57,0,0,1,.06-1.35A8.67,8.67,0,0,1,117.05,42Z"/><path class="cls-39" d="M116.93,39.39a3,3,0,0,1-.49-2.28A8.15,8.15,0,0,1,116.93,39.39Z"/><path class="cls-31" d="M114.66,36.48c-.2.13-.29.09-.38.05s-.5-.38-.75-.14,0,.52,0,.79.15.4.07.63a.82.82,0,0,1-1.45.38.32.32,0,0,1-.1-.33,4.07,4.07,0,0,1,1.46-2.29c.28-.19.46,0,.56.22S114.28,36.35,114.66,36.48Z"/><text class="cls-70" transform="translate(32.96 90.45)">4</text><text class="cls-71" transform="translate(37.64 87.12) scale(0.58)">th</text><text class="cls-70" transform="translate(38.79 90.45)">.</text><text class="cls-70" transform="translate(110.93 90.44)">2</text><text class="cls-70" transform="translate(115.51 87.11) scale(0.58)">d</text><text class="cls-70" transform="translate(116.57 90.44)">.</text><text class="cls-70" transform="translate(78.03 90.45)">3</text><text class="cls-70" transform="translate(82.61 87.11) scale(0.58)">d</text><text class="cls-70" transform="translate(83.67 90.45)">.</text><text class="cls-70" transform="translate(161.45 90.44)">1</text><text class="cls-70" transform="translate(165.3 87.11) scale(0.58)">st </text><text class="cls-70" transform="translate(170.4 90.44)">position</text><text class="cls-70" transform="translate(167.09 90.44)">.</text></g></g></g></svg>