<?xml version="1.0" encoding="utf-8"?>
<!-- Generator: Adobe Illustrator 24.2.0, SVG Export Plug-In . SVG Version: 6.00 Build 0)  -->
<svg version="1.1" id="Layer_1" xmlns="http://www.w3.org/2000/svg" xmlns:xlink="http://www.w3.org/1999/xlink" x="0px" y="0px"
	 viewBox="0 0 32.5 134.8" style="enable-background:new 0 0 32.5 134.8;" xml:space="preserve">
<style type="text/css">
	.st0{fill:#3A3A3A;}
	.st1{fill:#444444;}
	.st2{fill:#434343;}
	.st3{fill:#4E4E4E;}
	.st4{fill:#424242;}
	.st5{fill:#454545;}
	.st6{fill:#353535;}
	.st7{fill:#535353;}
	.st8{fill:#3F3F3F;}
	.st9{fill:#525252;}
	.st10{fill:#575757;}
	.st11{fill:#545454;}
	.st12{fill:#5D5D5D;}
	.st13{fill:#5C5C5C;}
	.st14{fill:#5E5E5E;}
	.st15{fill:#4F4F4F;}
	.st16{fill:#717171;}
	.st17{fill:#7B7B7B;}
	.st18{fill:#505050;}
	.st19{fill:#4C4C4C;}
	.st20{fill:#3D3D3D;}
	.st21{fill:#363636;}
	.st22{fill:#3C3C3C;}
	.st23{fill:#565656;}
	.st24{fill:#515151;}
	.st25{fill:#595959;}
	.st26{fill:#868686;}
	.st27{fill:#343434;}
	.st28{fill:#414141;}
	.st29{fill:#404040;}
	.st30{fill:#4B4B4B;}
	.st31{fill:#555555;}
	.st32{fill:#484848;}
	.st33{fill:#747474;}
	.st34{fill:#8B8B8B;}
	.st35{fill:#4D4D4D;}
	.st36{fill:#616161;}
	.st37{fill:#686868;}
	.st38{fill:#818181;}
	.st39{fill:#3E3E3E;}
	.st40{fill:#383838;}
	.st41{fill:#4A4A4A;}
	.st42{fill:#8D8D8D;}
	.st43{fill:#626262;}
	.st44{fill:#6F6F6F;}
	.st45{fill:#303030;}
	.st46{fill:#646464;}
	.st47{fill:#474747;}
	.st48{fill:#B5B5B5;}
	.st49{fill:#313131;}
	.st50{fill:#464646;}
	.st51{fill:#5A5A5A;}
	.st52{fill:#6B6B6B;}
	.st53{fill:#6D6D6D;}
	.st54{fill:#656565;}
	.st55{fill:#797979;}
	.st56{fill:#AAAAAA;}
	.st57{fill:#979797;}
	.st58{fill:#696969;}
	.st59{fill:#636363;}
	.st60{fill:#C8C8C8;}
	.st61{fill:#5B5B5B;}
	.st62{fill:#858585;}
	.st63{fill:#676767;}
	.st64{fill:#666666;}
</style>
<g id="Layer_2_1_">
	<g id="_12504_final">
		<path class="st0" d="M6.5,45.2c0.3-1.3,0.7-2.6,0.9-3.9s0.3-2.3,0.6-3.4c0.6-1.9,1.1-3.8,1.3-5.7c0-0.3,0.1-0.5,0.1-0.8
			s-0.3-0.5,0-0.7c0.5-1,0.7-2.1,0.8-3.2c0.4-0.3,0.6-0.3,0.7,0.1c0,0.3,0,0.6,0,0.9c0,0.6-0.1,1.2-0.5,1.7c-0.1,0.3,0,0.6-0.1,0.9
			c0,0.5-0.3,0.8-0.3,1.3c-0.2,1.4-0.5,2.8-0.9,4.2c-0.3,0.7-0.5,1.5-0.6,2.2c0,0.5-0.1,1-0.3,1.5c-0.1,0.4-0.1,0.9-0.3,1.3
			C8,42,7.9,42.4,7.9,42.8c-0.1,0.6-0.4,1.1-0.5,1.7c-0.1,0.6-0.2,1.1-0.3,1.7c-0.2,0.7-0.3,1.3-0.4,2s-0.1,1-0.4,1.7
			c0,0.2-0.1,1.1-0.1,1.4c-0.1,0.5-0.2,0.9-0.3,1.4c0,0.3-0.3,0.9-0.3,1.3c-0.1,0.3-0.2,0.5-0.2,0.8c-0.1,0.3-0.1,0.7-0.3,1
			C5,56,5.2,56.2,4.8,56.2c-0.1,0-0.4,0.1-0.4,0c0-0.4,0-0.9,0.2-1.3c0.4-1.7,0.7-3.5,0.9-5.2c0.2-1.2,0.6-2.2,0.9-3.3
			C6.3,45.9,6.4,45.6,6.5,45.2z"/>
		<path class="st1" d="M10.8,28.3c-0.1-0.3-0.4-0.5-0.7-0.6c0-0.9,0.1-1.7,0.3-2.5c-0.1-0.9,0-1.7,0.4-2.5c0.1-0.2-0.3,0.1-0.3-0.1
			c0-1.8-0.1-3.5-0.3-5.3c-0.1-0.4-0.2-0.3-0.3-0.6C10,16,9.7,15.3,9.4,14.7c-0.5-1-0.8-2-1.1-3c-0.1-0.3-0.3-0.7-0.5-0.9
			C7.5,10,7.3,9.1,7.4,8.2c0-1.2,0.2-2.3,0.3-3.6c0-0.8-0.2-1.6-0.7-2.2C6.8,2.3,6.8,1.6,7,1.5s0.3,0.7,0.5,0.8s0,0.2,0.1,0.3
			s0.1,0.5,0.3,0.3c0.3-0.2,0-0.3-0.1-0.5S7.7,1.7,8.1,1.6c0.5-0.1,0.4,0.4,0.4,0.8c0.1,0.8-0.1,1.2-0.1,2.1c0,1.2-0.3,2.5-0.3,3.7
			C8,9,8.2,9.8,8.5,10.5c0.5,1.2,1,2.5,1.6,3.7c0.3,0.6,0.5,1.3,0.7,1.9c0,0.3,0.2,0.6,0.4,0.8c0.1,0.7,0.2,1.4,0.1,2.1
			c0.1,0.8,0.1,1.6,0,2.5c-0.3,1,0.3-0.1,0.3,0.2c0,0.6,0,1.1-0.1,1.6c-0.2,0.4-0.3,0.9-0.3,1.4c0,1-0.1,2-0.2,3
			C10.9,27.6,11,28.2,10.8,28.3z"/>
		<path class="st2" d="M0.8,98c0,1.3,0.1,2.5,0.3,3.7c0.1,2,0.5,4,0.7,5.9c0.2,2.2,0.6,4.4,0.9,6.6c0,0.1,0,0.2,0,0.3
			s-0.2,0.2-0.3,0.1c-0.5-1.3-0.3-2.6-0.6-3.9c-0.5-2.5-0.6-5.1-1-7.7c-0.4-2.2-0.6-4.4-0.6-6.6c0-0.6-0.1-1.3-0.2-1.9
			c-0.2-1.4,0.1-2.9,0-4.3c-0.1-1,0-1.9,0.1-2.9c0.2-0.2,0.2-0.7,0.3-0.7c0.5,0.4,0.3,1.4,0.2,2.1c-0.1,0.4-0.1,0.8-0.1,1.3
			c-0.2,0.3,0,0.7,0,1c0,0.2,0,0.3,0,0.5c-0.1,0.5-0.1,1,0,1.5c0,0.5,0,1,0,1.5c0,0.5,0,0.8,0.1,1.4c0,0.2,0.1,0.5,0,0.7
			C0.9,97,0.6,97.5,0.8,98L0.8,98z"/>
		<path class="st3" d="M0.6,87.4c-0.1,0-0.4-0.1-0.5-0.1c0-1.4,0.1-2.9,0.2-4.4s-0.1-3,0-4.5c0.1-1.1,0.3-2.3,0.5-3.4
			c0.1-0.5,0.2-1,0.4-1.5c0.4,0.2,0.2,0.5,0.1,0.8s-0.2,0.3,0,0.5c0,0.6-0.1,1.2-0.2,1.8c-0.2,1.8-0.2,3.5-0.1,5.3
			C1,83.6,0.8,85,0.8,86.7C0.7,87,0.9,87.4,0.6,87.4z"/>
		<path class="st4" d="M0.9,75.2c-0.3,0,0-0.6,0-0.8c0.1-0.3,0.1-0.7,0.1-1c0.2-1.1,0-2.3,0.2-3.4c0.4-1.9,0.7-3.8,0.8-5.7
			c0-0.3,0.1-0.6,0.3-0.8c0.3,0,0.3,0.2,0.4,0.5c-0.1,1.8-0.3,3.7-0.7,5.5c-0.1,0.6-0.1,1.2,0,1.8c0,1-0.2,1.9-0.4,2.8
			C1.3,74.4,1.3,75.2,0.9,75.2z"/>
		<path class="st5" d="M2.5,114.6l0.3-0.1c0.2,0.4,0.4,0.8,0.4,1.3c0.1,0.2,0.1,0.4,0.1,0.6c0,0.4,0,0.7,0.1,1.1
			c0.4,2.3,0.9,4.6,1.6,6.8c0,0.1,0,0.3,0,0.4c0,0.1,0,0.2-0.1,0.2s-0.1-0.2-0.2-0.2c-0.7-1.9-1.2-3.9-1.5-5.9
			c-0.1-0.4-0.2-0.7-0.3-1.1c0-0.6-0.1-1.2-0.2-1.8L2.5,114.6z"/>
		<path class="st5" d="M2.3,64.5c0-0.2-0.2-0.2-0.4-0.4c0.5-2,1.3-4.3,1.9-6.3C4,57.2,4.1,56.6,4.3,56h0.4c0.2,0.2,0.2,0.5,0.1,0.8
			c-0.2,0.3-0.3,0.7-0.4,1c-0.5,0.6-0.3,1.3-0.5,1.9c-0.5,1.4-0.7,2.3-1.2,3.8C2.6,63.7,2.6,64.5,2.3,64.5z"/>
		<path class="st6" d="M7,97.9c0.3-0.2,0.1-0.8,0.1-1.4c0-0.4,0-0.9,0-1.3c-0.2-0.2-0.1-0.4,0-0.6s0.3-0.2,0.4,0
			c0,1.2,0.1,2.3,0,3.4c0,0.1,0,0.2,0,0.3c0,0.2,0,0.4-0.1,0.6c-0.2,0.5,0,0.7,0.1,1.1c0.2,1.1,0.4,2.2,0.5,3.3c0,0.2,0,0.5,0.1,0.7
			c0.1,0.5,0,0.5,0.1,0.8c0,0.3,0.1,0.6,0.4,0.9c0.1,0.3,0.2,0.5,0.4,0.8c0,0.2,0.1,0.4,0.3,0.5c0.1,0,0.1,0,0.1,0.1
			c0,0.4,0.1,0.9,0.3,1.3c0.5,1,0.6,2.2,1.1,3.2c0.1,0.2-0.1,0.5-0.3,0.7c-0.3-0.8-0.4-0.3-0.4-0.1c0.1,0.6,0.3,1.7,0.4,2.4
			c-0.2,0.3-0.4,0.3-0.6,0.1c-0.2-1.3-0.4-2.7-0.5-4c-0.2-1.5-0.5-3-1.1-4.4c-0.5-1.1-0.8-2.2-0.9-3.4c0-0.4,0.2-0.7,0.1-1.1
			c-0.2-0.3-0.3-0.7-0.3-1c-0.2-0.7-0.2-1.5-0.1-2.2C7,98.5,6.8,97.9,7,97.9z"/>
		<path class="st7" d="M6.8,134.3c0-0.2-0.3,0.1-0.3-0.1c-0.2-1.3-0.8-3.9-1-5.1c0-0.2-0.2-1.1-0.2-1.3c0.1,0.3,0.5,0.1,0.6,0.4
			c0.4,1.5,0.6,3.1,0.7,4.6C6.7,132.9,6.8,134.1,6.8,134.3z"/>
		<path class="st8" d="M10.5,112.1c0.2-0.1,0.3-0.3,0.3-0.5c0.2,0.6,0.4,1.1,0.6,1.7c0.5,0.1,0.4,0.4,0.5,0.7c0,0,0,0.1,0,0.1
			c-0.2,0.2-0.2,0.4-0.1,0.6c0,0.1-0.1,0.2-0.4,0.1c0-0.6-0.2-1.2-0.6-1.7C10.6,112.9,10.6,112.5,10.5,112.1z"/>
		<path class="st1" d="M6.4,102.9l0.1,0.2c0.1,0.7-0.1,1.5,0.3,2.2v0.1c-0.1,0-0.1,0-0.2,0c-0.2-0.2-0.2-0.4-0.3-0.6
			c-0.2-0.7,0-1.4-0.5-2c-0.1-0.2-0.1-0.4,0.1-0.5C6,102.5,6.1,102.8,6.4,102.9z"/>
		<path class="st9" d="M4.8,124.7c0.4,0.1,0.2-0.3,0.3-0.4l0.7,3.3c-0.2-0.2-0.4-0.3-0.5-0.5C5.1,126.4,4.9,125.6,4.8,124.7z"/>
		<path class="st10" d="M12.1,130.6c0,0.1,0.1,0.4,0.3,0.4c-0.3,0.7-0.9,2.6-1.2,2.1C11.5,132.4,11.9,131.4,12.1,130.6z"/>
		<path class="st11" d="M10.1,114.7c0.2,0,0.3,0.1,0.4-0.1c0.5,0.2,0.3,0.3,0.2,0.8l-0.2,0.5c-0.2-0.1,0-0.4-0.3-0.3
			C10.1,115.3,10.3,115,10.1,114.7z"/>
		<path class="st12" d="M11.8,113.7c-0.1-0.3-0.5-0.2-0.5-0.5c0.3-0.1,0.3-0.3,0.3-0.5s-0.2-0.5,0-0.5s0.4,0,0.4,0.7
			C12,113.1,11.9,113.4,11.8,113.7z"/>
		<path class="st13" d="M6,94.4c0.2,0,0.1,1.2,0.3,2.3c0.1,0.7-0.3,1.7,0.1,1.8c0.2,0,0.1,0.2-0.1,0.2c-0.5,0.1-0.1,1.1-0.3,1
			c-0.4,0.3-0.2-1.1-0.2-1.2s0.1-1.8,0.1-2.8C5.9,94.9,5.8,94.4,6,94.4z"/>
		<path class="st14" d="M10.5,131.4c0,0.2-0.3,0.6-0.8,0.8c-0.4,0.2-0.8,0.2-1.2,0.1c0-0.2,0.6-0.4,1-0.6S10.3,131.3,10.5,131.4z"/>
		<path class="st15" d="M11.2,131.6c-0.1,0.2-0.1,0.8-0.3,0.8s-0.8,0.2-1,0s0-0.2,0.2-0.3c0.2,0,0.3-0.1,0.5-0.1
			C10.8,132.1,11,131.5,11.2,131.6z"/>
		<path class="st16" d="M6.7,134.4c0.3,0.1,0.2,0.3,0,0.4S6.4,134.5,6.7,134.4z"/>
		<path class="st17" d="M5.8,99.5c0.1,0.2,0.3-0.1,0.3,0.1s0,1-0.1,1.3c0,0.1-0.1,1.3-0.1,1.4c0-0.1-0.2,0.4-0.2,0.3s0-1.5,0-1.7
			C5.7,100.5,5.7,100,5.8,99.5z"/>
		<path class="st18" d="M26.2,21.5c0.9,1,1.4,2.2,2.2,3.2c-0.1,0.2-0.2,0.1-0.4,0.2s-0.8-0.8-0.9-1c-0.6-1-1.3-1.9-2-2.7
			c-0.2-0.3-0.4-0.5-0.6-0.8c0.1-0.1,0.3-0.3,0.4-0.3C25.3,20.5,25.7,21,26.2,21.5z"/>
		<path class="st19" d="M24.9,20.1c-0.1,0-0.3,0.2-0.4,0.2c-0.4-0.5-1-0.9-1.6-1.1c0.1,0.2,0.2,0.3,0.7,1c0.2,0.3,0.5,0.6,0.4,0.6
			c-0.2,0.1-0.4,0.1-0.5-0.1c0,0,0,0,0,0c-0.4-0.5-0.9-0.9-1.3-1.4c-0.1-0.1-0.1-0.2-0.1-0.3c0.1-0.3,0.4-0.4,0.7-0.4
			c0.1,0,0.1,0.1,0.2,0.1C23.7,19.1,24.4,19.6,24.9,20.1z"/>
		<path class="st7" d="M10.5,1.1c0,0.2,0.2,0.5,0,0.7c-0.2,0-0.5,0.5-0.7,0C10,1.7,10.1,1.3,10,1c0,0,0,0,0,0
			C9.8,0.8,9.7,0.5,9.7,0.3c0-0.1,0-0.2,0.1-0.3c0,0,0,0,0,0c0.1,0,0.2,0.1,0.3,0.2C10.1,0.5,10.3,0.8,10.5,1.1z"/>
		<path class="st20" d="M31.9,48c-0.2,1-0.2,1.7-0.4,2.7c-0.1,0.3-0.1,0.7-0.2,1c-0.2,1.3-0.4,2.6-0.8,3.8l-0.1,0.3
			c-0.2,0.1-0.5,1.2-0.7,1.3s-0.1-1.5,0-1.8c0.2-0.7,0.4-1.5,0.6-2.3c0.2-0.6,0.3-1.3,0.3-1.9c0.1-0.5,0.2-1,0.3-1.4
			c0.3-2.2,0.6-4.3,0.8-6.5c0.2-1.5,0.2-3.1,0-4.6c0-0.7,0-1.3,0-2c0-0.2,0-0.6,0-0.8s0-0.3,0.1-0.4s0.4-0.3,0.5,0
			c0.1,0.4,0.1,0.8,0,1.2c0.1,0.4,0.1,0.8,0.1,1.2c0.1,1.6,0.1,3.2,0.1,4.8c0,1.4-0.2,2.8-0.4,4.3C32,47.2,32,47.6,31.9,48z"/>
		<path class="st1" d="M30.3,27.7c0.2,0.8,0.5,1.6,0.9,2.3c0.3,0.7,0.4,1.5,0.5,2.2c0.2,1.2,0.5,1.8,0.5,2.3c0.1,0.7,0.1,1.3,0.1,2
			c-0.3-0.3-0.5,0.5-0.6,0.1s0-0.4,0-1.1s-0.1-0.4-0.1-0.8c-0.4-1-0.6-2.1-0.7-3.2c-0.2-0.6-0.4-1.3-0.7-1.9c-0.5-1-0.6-2.2-1.2-3
			c-0.3-0.7-0.7-1.4-1.2-2c0.1-0.2,0.4-0.1,0.6-0.1l1.3,1.8C29.9,26.8,30.1,27.2,30.3,27.7z"/>
		<path class="st21" d="M5.9,91.4c-0.2,0.1-0.1-1.2-0.1-1.3c0-1,0.2-1.9,0.4-2.9c0.2-1.2,0.4-2.3,0.5-3.5C6.9,83.2,7,82.6,7,82.1
			c-0.1-0.4-0.1-0.8,0-1.2c0.1-0.3,0.3,0.2,0.5,0.1c0-0.1-0.2-0.6,0.1-0.7c0-0.2-0.2-0.3-0.2-0.6c0-0.1-0.4,0-0.3-0.3s0.3-0.1,0.6,0
			c0.2,0,0.1-0.3,0.1-0.6c0.5-0.7,0.6-2,1.1-3c0.2-0.3,0.2-0.8,0.6-1c0.2,0,0.3,0.1,0.3,0.3c0,0.1,0,0.1-0.1,0.2l-0.5,1.8
			c0,0,0.1,0,0,0l0,0l-0.1,0.4c0,0.3,0.1,0.5-0.2,0.8l0.1,0.1C8.9,79,9.2,79.5,8.9,80C8.4,80.9,8.5,82,8,83
			c-0.5,1.4-0.8,2.8-0.8,4.3c0.1,0.7,0,1.3-0.1,2c-0.2,0.5,0.2,1,0.1,1.5c0,0.2,0,0.4-0.1,0.6s-0.5-1.7-0.5,0c0,0.2,0,0.3-0.3,0
			s0.2-1.2,0.2-1.4s0.4-1,0.1-1.1C6,89,6.1,91.3,5.9,91.4z"/>
		<path class="st22" d="M18.8,69.3c-0.2,0.2,0.6,0.2,0.1,0.4c-0.5,0-1.1-0.1-1.5-0.4c-0.2,0-0.6-0.3-0.8-0.3c-0.4,0-0.7-0.3-1.1-0.4
			c-0.2-0.1-0.8-0.2-1-0.2c-1-0.1-1.9,0.2-2.5,1c-0.4,0.3-0.7,0.7-0.9,1.1c-0.2,0.6-0.5,1.3-0.7,1.9c0,0.5-0.2,0.6-0.3,1.3
			c-0.2,0.1-0.4,0-0.4-0.2c-0.1-0.4,0-0.9,0.2-1.3c0.3-0.8,0.6-1.3,0.9-2.2c0.1-0.4,0.4-1.6,0.5-1.5c0.4,0.1,0.1,0.5,0.2,0.5
			c0.5-0.4,1-0.7,1.6-0.9c0.4-0.1,0.8-0.2,1.2-0.3c1.6-0.2,2.6,0.5,4,1.2C18.5,68.9,18.9,69.1,18.8,69.3z"/>
		<path class="st23" d="M6.8,91.2c0.5-0.2,0.2-0.6,0.3-0.9s-0.2-0.6,0-0.9c0.2,1.4,0.2,2.8,0.2,4.2c0,0.4,0.1,0.7,0.3,1.1
			c-0.5,0-0.3,0.4-0.4,0.6c0,0,0-0.4-0.1-0.4c-0.1-0.3-0.4-0.3-0.3-0.8c0.1-0.5,0.1-1.1,0-1.6C6.7,92,6.7,91.6,6.8,91.2z"/>
		<path class="st24" d="M26.3,68.8c0.1-0.5,0-1.1,0.1-1.6c0.1,0,0.4,0,0.5,0c0,0.2-0.1,0.4-0.2,0.6s-0.1,0.4-0.1,0.6
			S26.6,68.8,26.3,68.8z"/>
		<path class="st25" d="M6,93.7c0.3,0.1,0.4-0.1,0.4,0.2s-0.1,0.2-0.2,0.2s0.1,0.5-0.3,0.5c-0.2,0-0.1-0.4-0.1-0.4
			c0-0.2-0.6,0.2-0.5-0.3c0-0.1,0.3,0,0.3-0.1C5.7,93.6,5.9,93.7,6,93.7z"/>
		<path class="st26" d="M6,93.7H5.7L5.6,93C6,92.8,5.8,93.2,6,93.3S6,93.6,6,93.7z"/>
		<path class="st27" d="M11.9,114.2c0.6,1.4,1,2.9,1.1,4.4c0.2,1.7,0.3,3.3,0.2,5c0,0.4,0,1-0.1,1.4c-0.2,1.4-0.3,2.8-0.2,4.2
			c0.1,0.6-0.1,1.2-0.4,1.7c-0.1,0.1-0.2,0.4-0.3,0.4s-0.3-0.4-0.2-0.5c0-0.3,0.5-0.6,0.4-1c-0.4,0.1-1.4,0.8-1.2,0.3
			c1-0.1,1.2-2.3,0.2-0.4c-0.4,0,0.2-1.1,0.3-1.1c0.5-1.1,0.6-2.3,0.3-3.5c-0.2-1.4-0.6-2.7-0.8-4.1c-0.2-1-0.4-2-0.5-3.1
			c-0.1-0.8-0.2-1-0.3-1.5c0-0.2,0-0.6,0-0.8s0-0.2,0.2,0c0.1,0.1,0.2,0.2,0.4,0.2c0.1,0.4,0.2,1.1,0.3,1.4c0.2,1.3,0.3,2.6,0.8,2.8
			c-0.5,0.3-0.2,1.1,0,1s0-1.2,0-2.1c0-1.3-0.2-2.6-0.5-3.8C11.5,114.6,11.4,114.3,11.9,114.2z M12.8,123.5
			c-0.1-0.9-0.2-1.9-0.1-2.8c0-0.1-0.1-0.6-0.2-0.5s-0.3,0.2-0.3,0.3c0.1,1,0.2,1.8,0.3,2.8C12.8,124.2,12.8,123.8,12.8,123.5z"/>
		<path class="st6" d="M20.3,17.6c-0.5-0.4-1-0.6-1.5-1c-0.2-0.1-0.3-0.3-0.5-0.5c-0.3-0.4,0.3-0.1,0.8,0c-0.2-0.8-0.8-1.5-1.6-1.8
			c-0.1-0.1-0.3,0.4-0.4,0.3c-1.3-1.1-2.4-2.4-3.7-3.6c-0.7-0.7-1.1-1.5-1.3-2.5c0-0.1,0-0.1,0-0.2c-0.6-0.3-0.5-1-0.9-1.4
			c-0.3-0.1-0.1-0.3-0.1-0.5c-0.3-1.3-0.7-2.6-1.2-3.8C9.8,2.3,9.7,2.1,9.8,1.9c0.2,0.1,0.5-0.2,0.7,0c0,0.6,0,1.2,0.5,1.7
			c0.3,0.3,0.5,0.8,0.5,1.2c0.2,0.2,0.2,0.4,0.2,0.6c0.5,0.9,1,1.8,1.4,2.8c1,2.1,2.9,3.4,4.6,4.8c0.3,0.3,0.6,0.5,0.9,0.7
			c0.5,0.2,0.9,0.6,1,1.2c0.1,0.5,0.7,0.1,1.1,0c0.1,0,0.3-0.3,0.4,0s-0.1,0.3-0.2,0.4c-0.3,0.3-0.3,0.5,0,0.8s0.8,1,1.2,1.4
			c0,0.1,0,0.2-0.1,0.2c-1-0.5-1.8-1.8-1.9-1.4c-0.3,0.5,1.2,1.1,1.5,1.5c-0.1,0.6-0.2,0.7-0.7,0.4C20.6,18,20.4,17.8,20.3,17.6z"/>
		<path class="st21" d="M17.3,47.7c-0.4,0.5-0.2,1.1-0.4,1.6c-0.1,0.3-0.2,0.6-0.1,0.9c0,0.7-0.7,1.4-0.9,1.3
			c-0.2-0.1,0-0.7,0.1-1.1c0.3-0.9,0.3-2.3,0.5-3.2c0.3-1.6,0.7-3.1,1.2-4.6c0.3-0.6,0-1.4,0.2-2.1c0-0.1,0-0.3,0.1-0.4
			s0.4,0,0.5,0.1c0.2,0.6,0.1,1.3-0.1,1.8c-0.1,0.5-0.2,0.9-0.3,1.4c-0.1,0.8-0.3,0.5-0.3,1.8C17.6,46,17.5,46.8,17.3,47.7z"/>
		<path class="st21" d="M16.7,36.3c0.2-0.7,0.2-1,0.4-1.6c0.3-0.1,0.8-0.5,0.9-0.1c-0.3,0.6-0.3,2.5-0.4,3.5
			c-0.3,1.1-0.3,2.2-0.6,3.4c0,1-0.2,1.9-0.5,2.9c-0.1,0.2,0,0.3-0.2,0.5c-0.1-0.4-0.2-0.8-0.1-1.1c0.1-0.5,0.2-1.1,0.2-1.6
			c0-0.3,0.2-1.1-0.3-0.9c-0.3,0.1-0.1-0.4-0.1-0.7c0.2-1,0.2-2,0.2-3c0.1-0.6,0.3-4.2,0.3-4.2c0.4,0.1-0.1,4.3,0,4.3
			S16.6,36.5,16.7,36.3z"/>
		<path class="st28" d="M18.4,52c0-0.5,0.4-1.3,0.5-2c0.1-0.9,0.4-1.7,0.5-2.6c0.1-0.5-0.3-0.9-0.2-1.3c0-0.1,0.1-0.1,0.1-0.1
			c0.1,0,0.1,0,0.2,0c0.3,0.2,0.6,0.4,0.5,0.8s0.2,0.7,0.2,1.1c-0.1,1.1-0.4,2.1-0.8,3.1c-0.2,0.5-0.3,0.9-0.5,1.4
			c0,0.2-0.3,0.8-0.5,0.8C18.1,52.9,18.3,52.4,18.4,52z"/>
		<path class="st1" d="M20.4,25.9c-0.2,0-0.4-0.5,0-0.6s0.3-0.5,0.1-0.7c-0.3-1.1-0.7-2.1-1.3-3.1c0.1-0.1,0-0.5,0.3-0.4l1.5,3.4
			c0.2,0.4,0.2,0.8,0.2,1.2c0.1,0.3,0.1,0.5,0.1,0.8c-0.2,0.3-0.7,0.3-1,0.4C20.3,26.8,20.4,26,20.4,25.9z"/>
		<path class="st29" d="M18.5,52c0.1,0.3,0.2,0.6,0.2,0.9c0.3,0.3-0.3,0.7,0,0.9c0,0.3-0.2,0.6-0.2,0.9c0,0.6-0.2,1.2-0.5,1.8
			C18,56.6,18,57,17.8,56.9c-0.1-0.2-0.1-0.5,0-0.7c0-0.2,0.2-0.5,0.1-0.6c-0.4-0.2-0.1-0.7-0.1-1c0.3-0.8,0.5-1.6,0.7-2.4
			C18.5,52.1,18.5,52.1,18.5,52z"/>
		<path class="st11" d="M19.5,20.9l-0.3,0.4c0-0.5-0.3-1-0.7-1.4c-0.5-0.4-0.5-1.1-0.6-1.6c0-0.2,0.1-0.2,0.2-0.1
			c0.2,0.1,0.3,0.3,0.3,0.5c0.1,0.5,0.3,0.9,0.7,1.2C19.2,20.1,19.4,20.5,19.5,20.9z"/>
		<path class="st30" d="M18.9,16c-0.2,0.1-0.4-0.4-0.5,0.1l-0.5-0.4l-0.7-1.1c0.1-0.1,0.1-0.5,0.2-0.6c0.3,0.5,0.6,0.9,0.9,1.3
			C18.5,15.5,18.5,15.6,18.9,16z"/>
		<path class="st31" d="M17.9,18.3l-0.2,0.1c-0.1-0.8-0.7-3.1,0.1-2.9c0.1,0.5-0.1,1.2,0,1.6C18,17.5,18,17.9,17.9,18.3z"/>
		<path class="st7" d="M17.6,35.2c-0.1-0.2-0.3-0.4-0.6-0.4l0.3-1.9c0.2,0,0.2,0.1,0.2,0.3s-0.1,0.4,0.1,0.6c0.1,0.2,0.1,0.4,0,0.6
			c0,0,0,0,0,0C17.2,34.7,17.9,35,17.6,35.2z"/>
		<path class="st32" d="M18.8,36.2v1.3c0.1,0.1,0,0.2-0.1,0.3c-0.3,0-0.1-0.3-0.3-0.4c-0.2-0.6-0.1-1.3,0.1-1.9
			C18.9,35.6,18.8,36,18.8,36.2z"/>
		<path class="st33" d="M17.9,34c-0.6,0.5-0.4-0.7-0.6-0.9c0-0.3,0.2-0.7,0.1-1c0-0.1,0.1-0.9,0.3-0.9s0,0.8,0.1,0.9
			c0.1,0.2,0.1,0.4,0,0.6C17.5,33.4,17.9,33.7,17.9,34z"/>
		<path class="st21" d="M15.8,46.9c-0.1,0-0.2,0-0.3-0.1c0.1-0.5,0.2-1,0.3-1.4c0.1-0.1,0.2-0.3,0.4,0
			C16.1,45.8,15.9,46.3,15.8,46.9z"/>
		<path class="st9" d="M18.3,37.3c0.1,0.1,0.3,0.1,0.4,0.2c0,0.7-0.1,1.3-0.3,1.9c-0.2,0-0.3-0.1-0.2-0.3
			C18.1,38.5,18.3,37.9,18.3,37.3z"/>
		<path class="st32" d="M19.5,31.4c-0.1,0.3,0.1,0.5,0,0.8c-0.1,0.3,0,0.4-0.3,0c0-0.3-0.2,0-0.2-0.1s-0.3,0.2-0.3-0.2
			c0,0,0-0.1,0-0.1c0,0,0.2,0,0.2-0.1s-0.2-0.1-0.2-0.1s0-0.1,0.1-0.2s0-0.2,0.1-0.3s0.3,0,0.4,0C19.3,31.2,19.4,31.2,19.5,31.4z"/>
		<path class="st7" d="M18.9,31.8v0.5c0.2,0.3,0.5,0.3,0.1,0.7c-0.1,0.2,0.1,1.2-0.4,1C18.8,33.5,18.4,32.1,18.9,31.8z"/>
		<path class="st34" d="M18.8,27.5c0-0.1,0-0.3,0.2-0.3s0.1,0.4,0.1,0.5s0.2,0.5,0.1,0.7s0.1,0.3,0.1,0.5S19.1,29,19,29
			C19,28.5,18.9,28,18.8,27.5z"/>
		<path class="st35" d="M18.8,36.1l-0.1-0.5c-0.1-0.3-0.1-0.6,0-0.8c0.1-0.1,0.2,0.1,0.2,0.1C19,35.3,19,35.7,18.8,36.1z"/>
		<path class="st23" d="M16.3,45.3c-0.1,0-0.3,0-0.4,0c0.1-0.3,0.2-0.6,0.1-0.8c0-0.2-0.1-0.4,0.1-0.6v1l0.3-0.5
			C16.4,44.7,16.4,45,16.3,45.3z"/>
		<path class="st36" d="M18.2,39.1c0,0.1,0.5,0.3,0.5,0.4c0.2,0.3,0.6,0.6,0.6,0.7s-1-0.6-1,0.2c-0.1-0.1-0.2-0.2-0.4-0.3
			C18,39.7,18.1,39.4,18.2,39.1z"/>
		<path class="st17" d="M19,30c0-0.1,0-0.7,0.1-0.7s0.1,0.6,0.1,0.7v0.8c-0.1,0.1-0.2,0-0.2-0.1L19,30z"/>
		<path class="st37" d="M19,34.9l-0.2-0.1c0-0.3,0-0.5,0-0.8c0.3-0.1,0.3,0.1,0.3,0.2L19,34.9z"/>
		<path class="st6" d="M19.1,30.6l0.2,0.1c0,0.2,0.2,0.6,0.1,0.8c-0.2,0-0.4-0.2-0.4-0.3L19.1,30.6z"/>
		<path class="st38" d="M9.3,3.8C9.1,3.6,9,3.3,9,3C9.4,3.3,9.4,3.3,9.3,3.8z"/>
		<path class="st21" d="M16.7,34.9c0.2,0.2,0.3,0.6,0.1,0.9C16.5,35.5,16.7,35.3,16.7,34.9z"/>
		<path class="st39" d="M19.5,16.8c0.3,0.2,1.4,0.9,1.6,1.1s0.3-0.1,0.4-0.2s0.3,0,0.3-0.1l0.2-0.1c0.1,0.1,0.2,0.2,0.3,0.3
			c0.2,0.5,0.6,0.9,1.1,1.1c-0.3,0.4-0.8-0.2-1.1,0c-0.5-0.1-1-0.3-1.3-0.7C20.6,18,19.5,17.2,19.5,16.8z"/>
		<path class="st36" d="M24,20.6c0.2,0.3,0.7,0.7,0.6,0.8s-0.7-0.4-0.9-0.6L24,20.6z"/>
		<path class="st40" d="M17.5,62.4v-0.1c0.1-0.2,0.3-0.7,0-0.9s-0.2,0.3-0.4,0.4s-0.2,0.3-0.4,0.3s-0.1-0.1-0.2-0.1
			c-0.5,0.1-0.8,0-1,0.4c-0.2,0.3-0.3,0.5-0.7,0.4c-0.2-0.2-0.5-0.3-0.7-0.1c-0.1,0.1-0.2,0.2-0.2,0.3c0,0.1-0.9,0.5-1.2,0.8
			c-0.7,0.8-1.3,1.7-1.8,2.6c-0.2,0.3-0.4,0.5-0.6,0.8c-0.2,0.3-0.3,0.7-0.5,0.8c-0.6,0.4-0.9,0.9-0.4,1c0.3,0.1-0.1,0.6-0.2,1.1
			c-0.7,0.5-0.2,0.6-0.5,1.6c-0.1,0.4-0.2,0.8-0.3,1.3c0,0.3-0.1,0.5-0.1,0.8c-0.2,0.4-0.3,0.9-0.3,1.3c-0.1,0.5-0.3,0.7,0.2,0.8
			c-0.1,0.8-0.3,0.6-0.3,1.4c0,0.5,0,1,0.2,1.5c0.2,0.4-0.2,0.1-0.6,0s-0.6,0-0.6-0.4C6.9,78,7,77.5,7.1,76.9
			c0.1-0.7,0.3-1.7,0.4-2.2c-0.7-0.1-0.3-0.4-0.1-1.1c0.2-0.5,0.3-1.1,0.4-1.6c0.6-1.4,0.3-2.1,0.6-3c0.2-1,0.6-1.9,1.1-2.7
			c0.2-0.4,0.5-0.8,0.7-1.1c0.2-0.3,0.6-0.3,0.7-0.8c0.1-0.2,0.3-0.4,0.3-0.6s0.4-0.8,0.5-0.7c0.3,0.1-0.3,0.8-0.1,0.8
			c0.4-0.1,0.9-0.8,1.3-1.1c0.4-0.4,0.9-0.8,1.4-1.1c0.3-0.1,0.4,0,0.6-0.1c0.3-0.4,0.8-0.7,1.4-0.8c0.8-0.1,1.6-0.1,1.7-0.6
			c0.1-0.2,0.4-0.1,0.8-0.1s0.5,0,0.4,0.2c0.7,0,1,0,1.5,0c0.4,0.1,0.7,0.2,1,0.4c0.3,0.3,0.1,0.3,0.6,0.4s0.6-0.2,1.3,0.1
			c0.4,0.1,0.7,0.4,1,0.7c0.2,0.3,0.5,0.5,0.9,0.7c0.3,0.1,0,0.3,0.2,0.6c0.2,0,0.4,0.2,0.4,0.4c0,0.1,0,0.2-0.1,0.2
			c-0.3,0.1-0.3,0.1-0.3,0.3c-0.3-0.3-0.6-0.6-0.8-0.9c-0.1-0.2-0.3-0.4-0.5-0.4s-0.4,0.1-0.4,0c0-0.4-0.2-0.5-0.4-0.5
			s-0.3,0.2,0.2,0.4c0.3,0.1-0.1,0.6-0.1,0.8c-0.3-0.1-0.4-0.4-0.5-0.6s-0.5-0.9-0.9-0.8s-0.5,0.7-0.5,1c0,1.3-0.8,2.1-1,3.4
			c0,0.2-0.3,0.4-0.4,0.4s-0.1-0.4-0.1-0.6c0.3-1.4,0.7-2.7,1.2-3.9c0.1-0.3,0.2-0.6-0.1-0.7s-0.5-0.2-0.6,0.3
			c-0.4,1.3-0.5,2.4-0.9,3.7c0,0.1-0.2,0.5-0.2,0.7s-0.2,0.3-0.3,0.3S19,66.4,19,66.3c0.1-0.6,0.2-1.2,0.4-1.8
			c0.2-0.8,0.3-1.3,0.6-2.1c0-0.1,0.4-0.6,0.2-0.8s-0.2-0.2-0.4-0.1S19.2,62,19,62.3c-0.8,0.1,0.4-0.8-0.2-0.9
			c-0.5,0-0.9,0.3-0.9,0.8c0,0,0,0,0,0.1c0,0.2-0.1,0.3-0.3,0.4C17.5,62.6,17.4,62.5,17.5,62.4z"/>
		<path class="st27" d="M22.4,68.2L22.4,68.2 M27.4,64.6c-0.1,0.5-0.2,0.9-0.3,1.4c-0.1,0.4-0.1,0.8-0.3,1.2c-0.1,0-0.1,0.2-0.2,0.2
			s-0.3,0-0.3-0.1c-0.1-0.7,0.5-1.9,0-1.5c-0.1,0.2-0.7,1-0.9,1.2c-0.3,0.3-0.6,0.6-0.9,0.8l-0.9,0.7c-0.2,0.2-0.5,0.3-0.7,0.4
			c-0.1,0-0.2,0.1-0.3,0.1c0,0.1-0.1,0.1-0.2,0.1l-0.6,0.2c-0.4,0.2-0.3,0.2-0.7,0.4c-0.1,0-0.4,0-0.5,0c-0.3,0.1-0.6,0.1-0.9,0.1
			c-0.2,0-0.5-0.1-0.8-0.1c-0.5-0.1-0.9,0-1.1-0.2s0.1-0.3,0.6-0.5c0.3,0.1,0.7,0.2,1,0.3c0.8,0,1.6-0.3,2.3-0.8l0.5-0.2
			c0,0,0.1-0.1,0.2-0.1S23,68,23,68s0.2,0,0.4-0.1c0.4-0.5,0.9-0.9,1.4-1.3s0.8-0.6,0.9-1.2c0.1-0.4,0.2-0.5-0.2-0.6
			c-0.2,0-0.4,0-0.6-0.1c-0.5-0.3-0.6-0.1-0.7,0.2c-0.2,0.9-0.6,1.8-1.1,2.7c-0.1,0.1,0.4,0.5-0.6,0.4c-0.6-0.3,0.1-1.5,0.2-1.8
			c0.3-1,0.5-1.9,0.8-3.2c0.1-0.3,0.1-0.6,0.5-0.4c0,0.6,0.9,1.4,1.3,1.7c0.1,0.1,0.3,0.1,0.4,0c0.1-0.2,0.1,0,0-0.3
			c-0.3-0.3,0.1-0.6,0.6-0.2c0.2,0,0,0.5,0.1,0.5s0.8-0.9,0.8-1.1c0.8-2.3,1.4-3.8,2.1-6c0.1-0.2,0.4-1.3,0.4-1.7
			c0.3,0,0.5,0.1,0.7,0.3c-0.2,1.1-0.5,2.1-0.9,3.2c-0.5,1.1-0.9,2.2-1.2,3.3c0,0.2-0.1,0.3-0.2,0.5c-0.1,0.3-0.1,0.3-0.3,0.7
			S27.6,64.2,27.4,64.6L27.4,64.6z"/>
		<path class="st41" d="M26.1,63.8c0.1-0.5,0.3-1,0.6-1.5c0.1-0.2,0.2-0.4,0.3-0.7s0-0.4,0.1-0.5c0.3-0.7,0.5-1.4,0.7-2.1
			c0.1,0,0.1-0.3,0.2-0.2s0.1,0.2,0,0.3c-0.3,1.5-0.8,3-1.5,4.4c0,0.1,0,0.2,0,0.3L26.1,63.8z"/>
		<path class="st1" d="M7.4,79c-0.5,0.2-0.2,2.5,0.2,2.1c0,0.2-0.1,0.4-0.3,0.4s0-0.4-0.2-0.6C7,81.2,7,81.6,7,82
			c-0.1-0.9-0.2-1.9-0.2-2.8c0.1-0.2,0-0.4,0.1-0.6c0-0.5,0.2-1.1,0.4-1.6c0.2,0.3,0.3,0.7,0.1,1.1c-0.1,0.2-0.2,0.5,0,0.7
			s0.4-0.2,0.6-0.3c0.2,0.1,0,0.3,0.1,0.4"/>
		<path class="st42" d="M5.7,92v-0.9c0.5,0.1,0.1,0.6,0.3,0.9V92C5.9,92.2,5.8,92.2,5.7,92z"/>
		<path class="st43" d="M17.9,56.9c0,0.4-0.2,0.8-0.3,1.1c0,0.1-0.3,0.7-0.5,0.6s0.1-0.8,0.1-0.9c0.2-0.5,0.4-1,0.5-1.5
			C17.7,56.5,17.8,56.7,17.9,56.9z"/>
		<path class="st44" d="M17.4,58c0.1,0.4-0.2,1.5-0.5,1.5C16.7,59.4,17,58.2,17.4,58z"/>
		<path class="st45" d="M8.3,74c0-0.2-0.1-0.3-0.1-0.5c0.2-0.1,0.3-0.5,0.4-0.7c0.1-0.3,0.1-0.6,0.2-0.9c0.2-0.5,0.3-1.1,0.4-1.7
			c0.3-0.1,0.3-0.6,0.4-0.9c0.2-0.5,0.2-0.6,0.5-0.6c0,0.5-0.1,1-0.2,1.5c-0.3,1-0.5,2-0.4,3c0,0.3-0.3,0.4-0.2,0.8
			c0.1,0.2,0.6,0,0.5,0.1s0,0.8,0,1.1c-0.5-0.1-0.3-0.6-0.4-0.7c-0.5-0.4-0.5-1-0.7-0.1C8.4,74.3,8.3,74.3,8.3,74z"/>
		<path class="st19" d="M9.5,74c0-0.3,0.1-0.6,0.3-0.8l0.2,0.2c-0.1,0.2,0,0.4-0.2,0.6l-0.1,0.4L9.5,74z"/>
		<path class="st46" d="M21.9,23.6c-0.2-0.2,0-0.4-0.1-0.6c-0.5-0.6-0.9-1.2-1.1-1.9c0-0.1,0-0.2,0-0.2c0-0.1-0.4-0.9,0-0.9
			s0.3,0.7,0.3,0.8c0.2,0.5,0.4,0.9,0.6,1.3c0.1,0.3,0.4,0.4,0.6,0.6s-0.1,0.3,0,0.4c0.2,0.2,0.1,0.4,0.1,0.6
			c-0.1,0.1-0.2,0.2-0.3,0.1C22,23.7,21.9,23.6,21.9,23.6z"/>
		<path class="st43" d="M22.2,23.6l0.2,0.9c-0.2,0.1,0,0.7-0.4,0.7c0-0.5-0.1-0.9-0.2-1.3v-0.2H22.2z"/>
		<path class="st6" d="M20.4,26.6c0,0,0-0.1,0-0.1c0-0.2,0-0.5,0.3-0.6s0.3,0.3,0.4,0.4s0.3,0.3,0.3,0.5c0.1,0.3,0.2,0.6,0.2,0.9
			c0.1,1.3-0.2,0.7-0.5,0.3c-0.2,0-0.1,0.6-0.1,0.8s-0.2,0.5,0,0.7c0.2,0.8,0.3,1.5,0.3,2.3c0,1.1-0.3,1-0.1,2.1
			c0,0.2-0.2,1.7-0.1,1.9s-0.1,0.7-0.1,1s0,0-0.3,0.1c-0.1,0.6-0.5,0.6-0.5,0.3c0-0.7,0-1.5,0.1-2.2c0.2-2.7-0.1-5.5-0.1-8.2
			C20.4,26.9,20.3,26.7,20.4,26.6z"/>
		<path class="st47" d="M18.9,41.8c0.1-1.4,0.3-2.8,0.3-4.2c0-0.2,0-0.4,0-0.6c0.1-0.6,0-1.2,0-1.8v-0.1c0-0.1-0.5,0.1-0.5-0.2
			s0.5-0.1,0.5-0.1c0-0.2,0-0.4,0.2-0.4s0.2,0.6,0.2,0.8c0,0.9,0,1.9-0.1,2.8c0.1,0.9,0.1,1.9,0,2.8c0,0.3-0.1,0.6-0.2,1
			s-0.1,0.7-0.3,0.7S18.9,42,18.9,41.8z"/>
		<path class="st29" d="M20.2,40.2c0-0.6,0-1.1,0-1.7c0-1,0.1-1.7,0.2-2.5c0-0.3,0-0.6,0.1-0.8c0,0.6,0,1.3,0,1.9
			c0,0.1,0.2,0.2,0.5,0.2c0.1,0.3,0.2,0.7,0.1,1c0,0.1,0,0.2,0,0.2s0.5,0,0.5,0.1s-0.5,0.1-0.5,0.1s0,0.2,0,0.2s0.4-0.1,0.4,0.1
			S21,39.2,21,39.2c0,0.2-0.1,0.4-0.2,0.6C20.7,40.2,20.6,40.3,20.2,40.2z"/>
		<path class="st48" d="M19.2,33c0.1-0.2,0.1-0.5,0-0.8c0.2,0,0.1-0.1,0.3-0.3c0.1,0.7,0.1,1.5,0,2.2C19.2,34.3,19.1,33.7,19.2,33z"
			/>
		<path class="st49" d="M22,39.8c-0.2,0.8-0.1,1.6-0.3,2.3c-0.1,0.8-0.3,1.5-0.7,2.2c-0.3,0.4-0.2,1.4-0.3,1.9s-0.3,1.4-0.4,1.9
			c-0.6-0.4-0.3-1.5-0.6-2c-0.1-0.3-0.2-0.4-0.2-0.7c0-0.4,0.1-0.9,0.2-1.3c0.3-1,0.4-2.1,0.5-3.1c0-0.4,0.1-0.7,0.2-1.1
			c0.1-0.4,0.5-0.6,0.9-0.5c0.3,0,0.1-0.1,0.3-0.2S22,39.4,22,39.8z"/>
		<path class="st30" d="M19.6,44.4c0,0.2,0,0.3,0.1,0.5c0.2,0.3,0.2,0.5-0.1,0.7s0,0.5-0.1,0.7c0,0-0.1,0.2-0.1,0.2
			c0-0.3,0-0.9,0-1.3L19.6,44.4z"/>
		<path class="st6" d="M21.7,52.5c-0.2,0.3,0,0.5-0.2,0.7c-0.3,0.1-0.5,0-0.5-0.2c0-0.6,0.1-1.2,0.2-1.9c0.1-1,0.3-2,0.7-2.9
			c0.1-0.3,0.4-0.6,0.3-0.8c0-0.5,0.1-0.9,0.2-1.4c0.4-1.4,0.2-1.9,0.6-3.4c0-0.4,0.1-1.2,0.2-1.6c0-0.9,0.2-1.5,0.8-1.2
			c0.1,0.6,0,1.1,0,1.7c0,0.8-0.2,1.5-0.3,2.2c-0.3,1.1-0.6,2.2-0.7,3.4c0,0.7-0.3,0.2-0.6,0.8c-0.1,0.2-0.2,0.5-0.3,0.7
			c0,0.1,0.5,0.2,0.5,0.4s-0.6,0-0.6,0.1c-0.1,0.3-0.2,0.5-0.2,0.7s0,0.4-0.1,0.7c0,0,0.4,0.2,0.4,0.2s-0.4,0.1-0.4,0.1
			c0,0.2-0.1,0.3-0.2,0.5c0,0.1,0,0.2-0.1,0.3c0,0,0.5-0.2,0.5,0.1s-0.5,0.1-0.5,0.2s0,0.4,0,0.4c0.2,0,0.3-0.8,0.4-0.5
			C22.1,52,22,52.3,21.7,52.5z"/>
		<path class="st6" d="M19.3,54.7c0.1-1.4,0.4-2.8,0.8-4.2c0.5-1.6,0.7-3.2,1.1-4.8c0.1-0.4,0.2-0.8,0.4-1.3
			c0.2-0.2,0.3-0.4,0.5-0.1s-0.3,0.7-0.3,1c-0.1,0.5-0.1,0.7-0.3,1.3c-0.3,1.2-0.4,2.4-0.9,3.6c0,0.3-0.2,0.6-0.2,0.9
			c-0.2,0.8-0.3,1.6-0.3,2.4c0,1-0.2,2-0.4,3c-0.1,0.3-0.2,0.6-0.1,0.9c0,0.2,0.1,0.4-0.1,0.4s-0.2-0.2-0.2-0.4
			C19.2,56.6,19.2,55.6,19.3,54.7z"/>
		<path class="st1" d="M25.6,48.6c-0.2,0.9-0.5,1.9-0.8,2.8c-0.3,0.1-0.2,0-0.2-0.2c0.1-0.6,0.3-1.2,0.5-1.8c0.8-3,1.4-6,1.9-9
			c0.1-0.1,0.2,0,0.2,0.1c-0.1,1.3-0.3,2.6-0.6,3.9c-0.2,1.2-0.5,2.4-0.8,3.6C25.7,48.2,25.7,48.4,25.6,48.6z"/>
		<path class="st8" d="M22.7,48.9c0-0.2-0.1-0.7-0.1-0.8s0.3,0,0.4-0.1c0.1-0.3,0.2-0.5,0.2-0.8c0.4-0.5,0.3-1.2,0.5-1.7
			c0.1-0.2,0-0.4,0.4-0.3c0.1,0.2,0.1,0.4,0,0.6c-0.2,1.5-0.6,3-1,4.5c-0.1,0.1-0.3,0.3-0.4,0.2c-0.1-0.2-0.1-0.4-0.1-0.5
			c0-0.1-0.8,0.4-0.7-0.3c0.1-0.5,0.7-0.1,0.7-0.2C22.5,49.2,22.6,49,22.7,48.9z"/>
		<path class="st50" d="M24,45.7c0-0.2,0,0-0.1-0.2c-0.3-0.3-0.1-1,0-1.3c0.3-1,0.4-2,0.5-3c0-0.3,0-1.1,0.2-1.3
			c0,0,0.1,0.1,0.2,0.1s0,0.4,0.1,0.5c-0.1,1.7-0.4,3.4-0.8,5C24.1,45.6,24.1,45.6,24,45.7z"/>
		<path class="st51" d="M27.8,43.5c-0.4,1.3-0.7,2.8-1.1,4.2c0,0.1-0.1,0.1-0.2,0.2c-0.1-0.1-0.3-0.1-0.3-0.2
			c0.2-1.1,0.5-2.2,0.9-3.3c0.1-0.4,0.2-0.8,0.3-1.1C27.8,43.3,27.8,43.4,27.8,43.5z"/>
		<path class="st19" d="M25,40.5l-0.2-0.1c-0.3-0.2,0-1.1,0-1.3c0.1-0.7,0.2-1.4,0.3-2.1c0-0.4-0.1-0.8,0.2-0.9s0.2,0.3,0.2,0.5
			C25.5,38,25.3,39.2,25,40.5z"/>
		<path class="st8" d="M21.1,52.8c0.1,0.1,0.4-0.2,0.5-0.1c0.2,0.6-0.4,1.5-0.5,2c0,0.2-0.2,0.2-0.4,0.1s-0.1-0.1,0-0.3
			C20.8,54,21,53.4,21.1,52.8z"/>
		<path class="st2" d="M23.1,50.2c-0.2,1-0.4,2-0.7,3c-0.3,0-0.3-0.3-0.3-0.4c0.1-0.7,0.2-1.4,0.5-2c0.1-0.2,0-0.5,0.1-0.8
			C22.8,49.9,23,50,23.1,50.2z"/>
		<path class="st14" d="M26.3,47.7c0,0.1,0.4-0.1,0.4,0c-0.2,1.1-0.7,2.4-0.9,3.4c-0.4,0-0.2-0.3-0.2-0.5c0.1-0.7,0.3-1.2,0.5-1.8
			C26.2,48.5,26.2,48,26.3,47.7z"/>
		<path class="st44" d="M24.6,47.5c0.1-1.3,0.4-2.6,0.8-3.9c0.4,1.2-0.5,2.8-0.5,3.9C24.7,47.6,24.7,47.6,24.6,47.5z"/>
		<path class="st52" d="M23.9,51c-0.2,0.9-0.5,1.7-0.8,2.5c-0.1,0.1-0.4,0.1-0.2-0.2c0.3-0.9,0.6-1.9,0.9-2.8
			C24,50.6,24,50.8,23.9,51z"/>
		<path class="st53" d="M26,32.2c0.1,0.8,0.1,1.7-0.1,2.5c-0.1,0.1-0.3,0-0.4-0.1c0-0.8,0.1-1.7,0.3-2.5
			C25.8,32.2,25.9,32.2,26,32.2z"/>
		<path class="st19" d="M22.2,52.9l0.1,0.4c0,0.7-0.2,1.4-0.5,2c-0.1,0.2-0.4,0.4-0.5,0.2c0.2-0.8,0.4-1.8,0.5-2.6
			c0,0,0.2-0.1,0.2-0.2S22.2,52.8,22.2,52.9z"/>
		<path class="st35" d="M26.9,50.8c-0.1,0.2-0.2,0.7-0.4,0.7c-0.2-0.3,0.2-0.8,0.1-1c0.2-0.5,0.1-1.1,0.5-1.6c0.3,0,0.2,0.2,0.1,0.4
			C27.2,49.9,27.1,50.4,26.9,50.8z"/>
		<path class="st54" d="M27.3,49.3l-0.1-0.4c0.1-0.7,0.4-2.5,0.6-2.4s-0.1,1.1-0.1,1.5L27.3,49.3z"/>
		<path class="st55" d="M27.2,40.5L27,40.4c0.1-0.8,0.3-1.9,0.4-2.7h0.2C27.5,38.6,27.4,39.5,27.2,40.5z"/>
		<path class="st54" d="M24.6,47.4h0.2c-0.1,0.7-0.2,1.3-0.4,1.9c-0.1,0.1-0.2,0.1-0.2,0C24.2,48.6,24.4,48,24.6,47.4z"/>
		<path class="st41" d="M25.5,34.5c0.1,0,0.3,0.2,0.4,0.3l-0.4,1.9c0-0.2-0.2,0-0.3-0.2C25.1,35.8,25.2,35.1,25.5,34.5z"/>
		<path class="st15" d="M26,31.9c0,0-0.1,0.3-0.1,0.3c-0.2-0.2-0.2-0.3-0.1-0.7c0.1-0.2,0.1-0.3,0.1-0.4s-0.2-1,0.1-1s0.3,0.8,0.3,1
			C26,31.5,26.4,31.6,26,31.9z"/>
		<path class="st30" d="M24.2,49.1h0.2c-0.2,0.5,0,1.2-0.4,1.7c-0.1-0.2-0.1-0.3-0.1-0.5C23.9,49.9,24,49.5,24.2,49.1z"/>
		<path class="st23" d="M25.6,42.3c0.1-0.4,0.1-1.6,0.5-1.8c0,0.8-0.1,1.5-0.4,2.3C25.4,42.7,25.6,42.5,25.6,42.3z"/>
		<path class="st56" d="M25.4,42.9c-0.1,0.3,0.1-0.1,0.3,0c-0.1,0.4,0.2,0.2-0.1,0.5C25.2,43.4,25.5,42.9,25.4,42.9z"/>
		<path class="st57" d="M27.7,43.9c0-0.2,0-0.4-0.1-0.5c0.1-0.4,0.2-0.8,0.4-1.3c0,0,0.1-0.3,0.2-0.3C28.3,41.9,27.7,43.3,27.7,43.9
			z"/>
		<path class="st58" d="M24.1,52.6c-0.3-0.3,0.1-0.5,0.3-0.8c0.3-0.6,0.4-1.2,0.5-1.2c0.3-0.8,0.1,0.6,0.1,0.6
			C24.7,51.5,24.3,52.8,24.1,52.6z"/>
		<path class="st13" d="M28.2,42H28c0-0.4,0.3-1.3,0.5-1.1C28.7,41,28.4,41.7,28.2,42z"/>
		<path class="st59" d="M26.8,36.8c-0.1,0.9-0.2,1.9-0.5,2.8c0,0.2,0,0.4,0,0.6c0,0.3-0.1,0.5-0.2,0.7C26,40.7,26,40.4,26,40.1
			C26,40.1,26.5,36.7,26.8,36.8z"/>
		<path class="st60" d="M20.5,51.3c0-0.3,0.1-0.6,0.2-0.9c0.2,0.2,0.5,0.3,0,0.6C20.7,51.1,20.6,51.2,20.5,51.3z"/>
		<path class="st55" d="M28,59.1c0-0.2-0.1-0.2-0.3-0.1c0.1-0.2,0.5-2.3,1-2.5C28.9,56.9,28.2,58.8,28,59.1z"/>
		<path class="st13" d="M13.6,66.7c-0.1,0.3-0.2,1.3-0.4,1.2s0-0.8,0-1c0.2-1.3,0.6-2.5,0.9-3.8c0.1-0.2,0-0.4,0.3-0.4s0,0.3,0,0.4
			c0,0.1,0,0.2,0,0.2c-0.2,0.6-0.4,1.2-0.5,1.8C13.8,65.7,13.7,66.2,13.6,66.7z"/>
		<path class="st47" d="M16.2,61.9c0.1,0,0.3,0,0.4,0.1c0,0.3-0.4,0.6-0.5,0.9c-0.4,1-0.7,2-0.8,3c-0.1,0.1-0.1,0.8-0.4,0.8
			s0-0.7,0-0.8C15.1,64.4,15.5,63.1,16.2,61.9z"/>
		<path class="st3" d="M17.4,62.4l0.1,0.2c0.1,0.5-0.1,0.8-0.2,1.3c-0.2,0.8-0.4,1.6-0.5,2.4c0,0.1-0.1,0.3-0.2,0.2
			s-0.1-0.2-0.1-0.3C16.8,64.9,17,63.7,17.4,62.4z"/>
		<path class="st47" d="M18.7,62.1c0.7-0.4-0.3,1.3-0.2,1.9c0.1,0.4-0.3,0.2-0.4,1.3c0,0.2-0.2,0.3-0.4,0.3c-0.1,0-0.1-0.1-0.1-0.2
			C17.9,64.2,18.3,63.1,18.7,62.1z"/>
		<path class="st5" d="M21.3,65.8c0.2,0.7-0.1,1.5-0.6,2c0.1-0.6,0.2-1.2,0.4-1.8C21.1,65.9,21.1,65.8,21.3,65.8z"/>
		<path class="st11" d="M22.5,63.6c0.1,0.2-0.4,0.2-0.3,0.6c0,0.1-0.5,0.5-0.6,0.4s0.1-0.7,0.1-0.8c0.1-0.3,0.2-0.6,0.3-0.9
			c0.1-0.1,0.5,0.1,0.5,0.2C22.3,63.6,22,63.5,22.5,63.6z"/>
		<path class="st18" d="M21.3,65.8L21,66l0.5-1.4c0.4,0.4,0.4,0.4,0.1,0.8C21.5,65.5,21.4,65.7,21.3,65.8z"/>
		<path class="st37" d="M8.7,74.3c-0.3,0.6-0.5,1.1-0.6,1.8c0,0.2-0.1-0.2-0.1,0c0.1-0.8-0.4-0.1-0.2-0.5c0.3-0.5,0.5-1,0.6-1.6
			C8.5,74.2,8.4,74.3,8.7,74.3z"/>
		<path class="st36" d="M9.8,68.8c0.1-0.4,0.4-1,0.6-1.4c0.1-0.2,0.1-0.2,0.3,0.1c0.1,0.1-0.1,0.2-0.4,0.9c-0.1,0.3-0.2,0.7-0.3,1
			C10,69.2,9.9,69,9.8,68.8z"/>
		<path class="st24" d="M12.4,65.8c-0.2,0.8-0.4,1.5-0.6,2.3c0,0.1-0.1,0.3-0.3,0.3s-0.1-0.2-0.1-0.3c0.2-0.8,0.5-1.6,0.7-2.3
			c0-0.1,0.4-1,0.6-1S12.4,65.7,12.4,65.8z"/>
		<path class="st61" d="M23.8,26.3c0.3,0,0.1,0.6,0.2,0.8c0.1,0.5,0.1,1,0.2,1.5v0.1c-0.1,0.2,0.3,0.9-0.2,0.8
			c-0.2-0.5-0.3-1.1-0.2-1.7c-0.1-0.4-0.3-0.9-0.1-1.3L23.8,26.3z"/>
		<path class="st62" d="M24.3,29.3v0.4c0,0.4,0,0.8-0.1,1.2c-0.2-0.5-0.3-1.1-0.1-1.6c0-0.3,0-0.5,0.1-0.8h0
			C24.3,28.8,24.3,29.1,24.3,29.3z"/>
		<path class="st30" d="M22.2,27.7c0-0.7,0-1.3-0.1-2v-0.7l0.2-0.5c0.1,0.2,0.1,0.5,0.2,0.7c-0.1,0.4-0.1,0.8,0,1.2
			c0.4,0.5,0.1,0.8,0.1,1.3c0,0.2,0,0.4,0.2,0.5c0.1,0.1,0.1,0.3,0.1,0.5c0,0.4,0.2,0.8-0.3,1C22.4,29,22.3,28.3,22.2,27.7z"/>
		<path class="st22" d="M21.9,44.7c-0.1-0.2-0.3-0.2-0.5-0.3c0.4-1.5,0.7-3,0.8-4.5c-0.1-0.8,0-1.7,0.2-2.5c0.2-0.5,0.2-1,0.1-1.5
			c0-0.1,0-0.7-0.1-0.8c-0.2-1.3-0.4-2.6-0.5-3.9c-0.1-0.5-0.2-1-0.3-1.5c0-0.4,0-1.1-0.3-1.1c-0.3-0.2,0.1-0.7,0.2-0.9l0.1,0
			c0.2,0.4,0.3,0.8,0.4,1.2c0.3,1.4,0.5,2.8,0.6,4.3c0,0.3,0.3,1,0.3,1.2c0.3,1.2,0.3,2.5,0,3.8c-0.2,1.4-0.1,2.2-0.3,3.6
			c-0.1,0.6-0.2,0.8-0.3,1.3C22.3,43.9,22.2,44.3,21.9,44.7z"/>
		<path class="st4" d="M19.2,42c0,0.1,0,0.4-0.1,0.5c-0.1,0.4-0.4,0.7-0.8,0.8c-0.2,0,0.4-0.8,0.4-0.9s0.1-0.4,0.1-0.6l0.1-0.1
			C19.1,41.9,19.1,41.8,19.2,42z"/>
		<path class="st63" d="M21.3,38.8c0.1-0.6,0.2-1.2,0.3-1.8c0-0.2,0-0.9,0.3-0.8s0.2,2.2,0.1,3C21.5,39.3,21.3,39.1,21.3,38.8z"/>
		<path class="st29" d="M21.5,38.7c0.1,0.2,0.3,0.4,0.5,0.5c0.1,0.2,0.1,0.4,0,0.6c-0.2-0.2-0.6-0.2-0.8-0.3c0-0.2,0.1-0.5,0.1-0.7
			S21.5,38.7,21.5,38.7z"/>
		<path class="st1" d="M23.5,41c-0.1-1.3-0.1-2.7,0.1-4c0.1-0.6,0.1-1.2,0.1-1.7c-0.1-0.2-0.1-0.5,0-0.7c0-0.1,0.2-0.1,0.3-0.1
			c0.2,0.1,0.1,0.3,0.1,0.5c0.1,0.8-0.3,1.5-0.2,2.3c0,0.1,0,0.3,0.1,0.4c0.3-0.2,0.2-0.5,0.2-0.7c0.3-1.4,0.4-2.9,0.5-4.3
			c0-0.3,0-0.6,0-0.8c-0.1-0.5-0.1-0.6,0.1-0.5c0.2,0.5,0.3,1,0.2,1.5c-0.3,1.4-0.2,2.9-0.5,4.3c-0.1,0.5-0.1,0.9-0.3,1.4
			c-0.1,0.5-0.1,1,0,1.4c0,0.1,0,0.1-0.1,0.1c0,0,0,0,0,0C23.4,40,23.6,40.6,23.5,41z"/>
		<path class="st16" d="M22.4,49.8c0.2,0-0.1,1.2-0.1,1.4s-0.1,0.5-0.3,0.5C21.8,51.5,22.1,49.8,22.4,49.8z"/>
		<path class="st29" d="M23.8,29.4c0-0.1,0.1-0.3,0.1-0.3s0.1-0.4,0.2-0.6c0,0.8,0.1,1.6,0.1,2.4c-0.1,0.3-0.1,0.6,0,0.9
			c0,0.1,0.4,1.3,0,1.2s-0.4-1.5-0.4-1.8c0-0.3,0.1-0.7,0.1-1C23.8,30,23.8,29.7,23.8,29.4z"/>
		<path class="st13" d="M24,34.5l0-1v-0.9h0.2c0.1,0.7,0.1,1.5-0.1,2.3L24,34.5z"/>
		<path class="st64" d="M22.8,29.4c0.5,0.1,0.3,1,0.4,1.3s0.1,0.5,0.1,0.8s0,0.5-0.3,0.4C22.9,31.1,22.4,29.4,22.8,29.4z"/>
		<path class="st13" d="M23.4,33.3c0.6,0,0.3,1.1,0.5,1.3l-0.1,0.6C23.8,34.7,23.1,33.5,23.4,33.3z"/>
		<path class="st44" d="M23.1,32.2c0-0.1,0-0.3,0.2-0.3c0.1,0.3,0.3,0.4,0.3,0.6s0.1,0.6-0.1,0.6C23.4,32.9,23.2,32.5,23.1,32.2z"/>
	</g>
</g>
</svg>
