<?xml version="1.0" encoding="utf-8"?>
<!-- Generator: Adobe Illustrator 24.2.0, SVG Export Plug-In . SVG Version: 6.00 Build 0)  -->
<svg version="1.1" id="Layer_1" xmlns="http://www.w3.org/2000/svg" xmlns:xlink="http://www.w3.org/1999/xlink" x="0px" y="0px"
	 viewBox="0 0 233.1 84.5" style="enable-background:new 0 0 233.1 84.5;" xml:space="preserve">
<style type="text/css">
	.st0{fill:url(#SVGID_1_);}
	.st1{fill:#6F6F6E;}
	.st2{fill:url(#SVGID_2_);}
	.st3{fill:url(#SVGID_3_);}
	.st4{fill:#B2B2B3;}
	.st5{fill:#C6C7C7;}
	.st6{fill:#9C9C9C;}
	.st7{fill:url(#SVGID_4_);}
	.st8{fill:url(#SVGID_5_);}
	.st9{fill:url(#SVGID_6_);}
	.st10{fill:url(#SVGID_7_);}
	.st11{fill:url(#SVGID_8_);}
	.st12{fill:url(#SVGID_9_);}
	.st13{fill:url(#SVGID_10_);}
	.st14{fill:url(#SVGID_11_);}
	.st15{fill:url(#SVGID_12_);}
	.st16{fill:url(#SVGID_13_);}
	.st17{fill:url(#SVGID_14_);}
	.st18{fill:url(#SVGID_15_);}
	.st19{fill:url(#SVGID_16_);}
	.st20{fill:url(#SVGID_17_);}
	.st21{fill:url(#SVGID_18_);}
</style>
<g id="Layer_2_1_">
	<g id="_12074B_draft">
		
			<linearGradient id="SVGID_1_" gradientUnits="userSpaceOnUse" x1="109.0625" y1="129.0225" x2="218.4936" y2="129.0225" gradientTransform="matrix(1 0 0 -1 -2.000000e-02 169.0153)">
			<stop  offset="0" style="stop-color:#3B3B3B"/>
			<stop  offset="0.46" style="stop-color:#3D3D3D"/>
			<stop  offset="0.62" style="stop-color:#444444"/>
			<stop  offset="0.74" style="stop-color:#4F4F4F"/>
			<stop  offset="0.83" style="stop-color:#606060"/>
			<stop  offset="0.91" style="stop-color:#767676"/>
			<stop  offset="0.98" style="stop-color:#919191"/>
			<stop  offset="1" style="stop-color:#999999"/>
		</linearGradient>
		<path class="st0" d="M109.9,38.9c0.8-0.1,1.7-0.2,2.5-0.2c0.6,0,1.3,0,1.9,0c0.6,0.1,1.2,0,1.7-0.2c0.6-0.2,1.3-0.2,1.9,0
			c0.9,0.2,1.8,0.2,2.7,0c0.7-0.1,1.3-0.1,2-0.1c0.3,0,0.7,0,1,0s0.8-0.1,1.1,0c0.6,0,1.1,0.2,1.7,0.2s1.3,0,1.9,0c0.9,0,2,0,2.9,0
			s1.5,0.4,2.3,0.4c2,0,4,0,5.9-0.3c2.5-0.2,5.1-0.2,7.6-0.3c1.7-0.1,3.4-0.3,5-0.3c0.1,0,0.2,0-0.1,0c0.1,0,0.2,0.1,0.3,0.1
			c0.2,0,0.4,0.1,0.6,0.1c0.6,0,1.1,0.1,1.7,0.2c1.1,0.1,2.1,0.1,3.2,0c0.9-0.1,1.9-0.1,2.8,0c1,0,2.1,0,3.1,0
			c1.5,0,2.9-0.1,4.4-0.2c2.1-0.1,4.2-0.1,6.3-0.2c1-0.1,2-0.1,3,0c1,0.2,2,0.1,3,0.2c2.1,0.2,4.2,0.3,6.3,0.2c0.9,0,1.8,0,2.7,0.3
			c1.2,0.3,2.5,0.5,3.7,0.6c2,0.1,4.1,0,6.1,0c0.8,0,1.6-0.1,2.3,0s1.7,0.3,2.6,0.3s2,0,3,0c1.1-0.1,2.3-0.1,3.4,0.1
			c1.9,0.5,3.7,1.3,5.6,1.9c0.3,0,0.6,0,0.9,0.1c0.3,0.1,0.5,0.2,0.3,0.4s-0.1,0.2-0.1,0.3l0.1-0.1c0.3-0.1-0.2,0-0.3,0h-0.6
			c-0.2,0-0.5,0-0.7-0.1c-0.7-0.1-1.5-0.2-2.2-0.3c-1.5-0.1-3-0.3-4.5-0.4c0.3,0-0.2-0.1-0.3-0.1c-0.2-0.1-0.5-0.1-0.7-0.2
			c-0.3-0.1-0.7-0.1-1-0.2c-0.8-0.1-1.6-0.1-2.4-0.2c-1.2-0.1-2.4-0.2-3.5-0.1c-1.5,0-3,0-4.4,0.1c-1.7,0-3.4,0-5.1,0.1
			c-0.8,0.1-1.7,0.1-2.5,0.2s-1.7,0.3-2.5,0.3s-1.8,0.1-2.8,0.2s-1.7,0.3-2.6,0.4c-1.8,0.2-3.5,0.1-5.3,0.1h-2.5c-0.6,0-1.1,0-1.7,0
			c-0.2,0-0.2,0.2-0.1,0.3c0.2,0.1,0.4,0.2,0.7,0.2c0.5,0,1,0,1.5,0h2.2c1.4,0,2.9,0,4.4,0c0.9,0,1.8-0.1,2.6-0.3
			c0.9-0.2,1.9-0.3,2.8-0.4c1.8-0.1,3.6-0.3,5.4-0.4c1.7-0.1,3.3-0.1,5-0.2s3.3-0.2,5-0.1c1.1,0,2.3-0.1,3.4,0
			c0.7,0.1,1.4,0.2,2.1,0.2c0.8,0.1,1.7,0.2,2.5,0.4c0.6,0.1,1.3,0.2,1.9,0.2c1,0.1,1.9,0.2,2.9,0.3c0.4,0,0.8,0,1.2,0.1
			c0.4,0.1,0.8,0.2,1.2,0.2c0.2,0,0.5,0,0.7,0c0.4,0,0.7,0,1.1,0c0.1,0,0.1-0.1,0.1-0.1c0,0,0,0,0,0c0-0.2-0.1,0,0.1-0.1
			s0.3-0.1,0.3-0.3c0-0.3-0.7-0.6-0.9-0.7c-0.9-0.4-1.8-0.8-2.7-1.1c-1.9-0.6-3.9-1.5-5.9-1.6c-1.4,0-2.7,0.1-4.1,0.1
			c-0.8,0-1.7,0-2.5-0.1c-1.6-0.2-3.2-0.2-4.8-0.2c-2.3,0.1-4.6,0-6.8-0.2c-1.1-0.3-2.1-0.5-3.2-0.6c-1,0-1.9,0-2.9,0
			c-0.4,0-0.7,0-1.1-0.1c-0.7,0-1.4,0.1-2.1,0c-1-0.1-2-0.2-3-0.2c-0.5,0-1-0.1-1.5-0.2s-1.1,0-1.7,0c-1.3,0-2.6,0.1-3.9,0.2
			c-3.5,0-6.9,0.3-10.4,0.3c-1.1,0-2.1,0-3.2,0c-0.2,0-0.5,0-0.7,0.1c-0.6,0-1.2,0-1.9,0c-1.1,0-2.1,0-3.2-0.1c-0.9,0-1.8,0-2.7,0.2
			c-2.9,0.3-5.7,0.3-8.6,0.3c-1.5,0-3,0.2-4.5,0.3c-1,0.1-2,0.1-3,0.1c-0.8-0.2-1.6-0.4-2.4-0.5c-0.9,0-2,0-3,0
			c-0.6,0-1.2,0.1-1.8,0c-0.6-0.1-1.3-0.2-1.9-0.2c-0.3,0-0.6,0.1-0.9,0.1s-1.1-0.2-1.3,0c0,0,0.6,0,0.1,0c-0.2,0-0.4,0-0.7,0
			c-0.4,0-0.8,0-1.1,0c-0.5,0.1-1.1,0.2-1.6,0.2c-0.3,0-0.6-0.1-0.9-0.2c-0.7-0.1-1.4-0.1-2.1,0.1c-0.3,0.1-0.5,0.2-0.8,0.2
			c-0.3,0-0.6-0.1-1-0.1c-0.6,0-1.2,0-1.8,0c-0.9,0-1.7,0-2.6,0.2C108.7,38.5,109.6,38.9,109.9,38.9L109.9,38.9z"/>
		<path class="st1" d="M232.6,39.8c-0.9-0.2-1.8-0.3-2.6-0.5c-0.4-0.1-0.8-0.1-1.2,0c-0.5,0-1-0.1-1.4-0.2c-0.9-0.2-1.8-0.3-2.6-0.3
			c-0.7,0-1.5,0-2.2,0c-1.1-0.1-2.2-0.1-3.3,0c-0.2,0-0.5,0-0.7,0c-1.1,0-2.1-0.1-3.1-0.1s-2.1-0.1-3.2-0.1c-1.9,0-3.8-0.1-5.6,0
			c-1.5,0.1-3,0.2-4.4,0.4c-0.3,0-0.7,0.1-1,0.1c-0.1,0-0.3,0.1-0.4,0.1c-0.1,0-0.1,0,0,0s-0.1-0.1-0.1-0.1c0.1-0.3,0.7-0.5,1-0.6
			l0.4-0.2c0.1,0,0.2-0.1,0.3-0.1c0.3-0.1-0.1,0,0,0c2.7,0.1,5.5,0.5,8.1,1.2c0.2,0,0.6,0.1,0.7,0s0-0.2-0.2-0.3
			c-1.2-0.3-2.4-0.6-3.6-0.8c-1.4-0.2-2.9-0.3-4.3-0.4c-0.6-0.1-1.1,0-1.7,0.1c-0.4,0.1-1.8,0.6-1.7,1.1s1.3,0.5,1.6,0.4
			c0.7-0.1,1.3-0.2,2-0.2c1.5-0.1,2.9-0.3,4.4-0.3h6c1.6,0,3.1,0.1,4.7,0.2c0.4,0,0.8,0,1.2,0h0.3c0.5,0,1,0,1.4,0
			c1.5-0.1,3-0.1,4.5,0.1c0.7,0.1,1.3,0.2,2,0.4c0.5,0.1,0.9,0.1,1.4,0c0.5,0,0.9,0.1,1.4,0.2c0.6,0.1,1.2,0.2,1.8,0.3
			C232.9,40.3,233.4,39.9,232.6,39.8L232.6,39.8z"/>
		
			<linearGradient id="SVGID_2_" gradientUnits="userSpaceOnUse" x1="72.1536" y1="122.5381" x2="181.0778" y2="122.5381" gradientTransform="matrix(1 0 0 -1 -2.000000e-02 169.0153)">
			<stop  offset="0" style="stop-color:#3B3B3B"/>
			<stop  offset="0.46" style="stop-color:#3D3D3D"/>
			<stop  offset="0.62" style="stop-color:#444444"/>
			<stop  offset="0.74" style="stop-color:#4F4F4F"/>
			<stop  offset="0.83" style="stop-color:#606060"/>
			<stop  offset="0.91" style="stop-color:#767676"/>
			<stop  offset="0.98" style="stop-color:#919191"/>
			<stop  offset="1" style="stop-color:#999999"/>
		</linearGradient>
		<path class="st2" d="M180.3,41.2c-0.8,0.2-1.6,0.3-2.4,0.4c-0.4,0.1-0.8,0.2-1.2,0.2c-1.4-0.1-2.7-0.2-4.1-0.2c-0.5,0-1,0-1.6-0.1
			c-0.7,0-1.4,0.1-2.2,0.1s-1.5-0.1-2.2-0.2c-0.7,0-1.4,0.1-2.1,0.2c-0.7,0.1-1.3,0.1-2,0.2c-0.8,0.1-1.6,0.1-2.5,0
			c-0.4,0-0.8,0.1-1.1,0.1s-0.6-0.2-0.9-0.2c-1.4-0.1-2.8-0.1-4.2,0.1c-0.9,0.1-1.6,0.2-2.4,0.2h-3.2c-1.7-0.1-3.4-0.1-5.1,0.1
			c-0.5,0.1-1,0.1-1.5,0.1c-0.1,0-0.1,0-0.2,0c0.3,0.1,0.1,0.1,0.1,0s-0.4-0.3-0.6-0.4c-0.4-0.1-0.8-0.2-1.2-0.2
			c-0.6,0-1.1-0.2-1.6-0.3c-1-0.1-2.1-0.1-3.1,0c-0.6,0.1-1.3,0.1-1.9,0c-1.8-0.1-3.5-0.1-5.3,0c-1.7,0-3.4,0-5.1,0.2
			c-1,0.1-1.9,0.3-2.8,0.5c-0.5,0-1,0-1.6,0c-0.4,0-0.8,0.1-1.2,0.1c-0.9,0.1-1.9,0.1-2.8-0.2c-0.5-0.1-1-0.3-1.6-0.5
			s-0.7-0.4-1-0.6c-0.8-0.4-1.7-0.3-2.4,0.3c-0.6,0.5-1,1.2-1.1,2c0,1,0,1.9-0.2,2.9c-0.4,1.2-1,2.3-1.9,3.2c-1,0.9-2.3,1.6-3.6,2
			c-0.6,0.3-1.3,0.4-1.9,0.6c-0.5,0.2-1,0.2-1.5,0.2c-1.3-0.2-2.5-0.3-3.8-0.5c-1.2-0.1-2.5-0.1-3.7,0.1c-1.3,0.2-2.5,0.3-3.8,0.3
			c-0.6-0.1-1.2-0.5-1.6-1c-0.4-0.4-0.7-0.9-1-1.3c-0.4-0.6-0.8-1.3-1-2c-0.1-0.9-0.2-1.7-0.5-2.5c-0.2-0.5-0.9-0.6-1.3-0.5
			c-0.6,0.1-1.2,0.2-1.7,0.3c-0.4,0.1-0.9,0.1-1.3,0.3c-0.8,0.2-1.7,0.3-2.6,0.3c-0.5,0-0.9,0-1.4,0c-0.2,0-0.4,0-0.6,0
			c-0.2,0-0.4,0.2-0.7,0.3c-0.5,0.1-0.8-0.2-1.3,0.1c-0.4,0.1-0.6,0.5-0.7,0.9c0,0.3,0.9,0.5,1,0.2c0-0.4,0.4-0.7,0.8-0.8
			c0.3,0,0.5,0,0.8,0c0.3-0.1,0.5-0.2,0.7-0.3c0.8-0.2,1.7,0,2.6-0.1c0.4-0.1,0.8,0,1.3-0.1s1-0.2,1.5-0.3s0.9-0.2,1.4-0.3
			c0.1,0,0.9-0.1,0.9-0.1s-0.4-0.1-0.2-0.1c0,0,0-0.1,0,0c0.1,0.8,0.3,1.6,0.4,2.4c0.2,0.7,0.6,1.4,1,2c0.4,0.9,1,1.7,1.8,2.4
			c1,0.6,2.1,0.9,3.3,0.7c1.3-0.1,2.7-0.2,4-0.3c0.6-0.1,1.2-0.1,1.8-0.1c0.7,0.1,1.4,0.3,2.1,0.3c1,0.2,1.9,0.3,2.9,0.3
			c0.6-0.1,1.3-0.3,1.8-0.5c0.6-0.2,1.3-0.4,1.9-0.7c1.2-0.4,2.4-1.1,3.3-2c0.8-0.9,1.3-1.9,1.7-3c0.2-1,0.2-2,0.2-3
			c0.1-0.8,0.5-1.5,1.1-2c0.2-0.1,0.5-0.3,0.7-0.4h0.1c-0.4-0.1-0.4-0.1-0.2,0c0.2,0,0.4,0.1,0.6,0.2c0.3,0.2,0.6,0.4,1,0.5
			c0.9,0.3,1.9,0.6,2.9,0.8c1,0.1,1.9,0.1,2.9,0c0.9-0.1,1.9,0.1,2.8-0.1c1.7-0.3,3.5-0.5,5.2-0.5c1.9,0,3.8-0.1,5.6-0.1
			c0.9,0,1.7,0.1,2.5,0.1c0.6,0,1.2-0.1,1.9-0.1c0.4,0,0.7,0,1.1,0c0.3,0,0.7,0,1,0c0.3,0,0.6,0.2,0.9,0.2s0.7,0,1,0.1
			s0.6,0.4,1,0.5c0.8,0.1,1.7,0.1,2.5-0.1c0.9-0.1,1.9-0.1,2.8,0c1.9,0,3.8,0,5.7,0s4.2-0.7,6.2-0.2c0.3,0.1,0.6,0.1,0.9,0.1
			c0.6,0,1.3,0,1.9,0c1.5,0,3-0.1,4.5-0.4c1.4-0.2,2.9,0.1,4.3,0c1.2-0.1,2.4,0,3.7,0c0.7,0,1.4,0,2.1,0.1c0.5,0.1,1.1,0.2,1.6,0.2
			c0.1,0,0.5-0.2,0.2-0.1c0.3-0.1,0.7-0.1,1-0.1c0.8-0.1,1.5-0.2,2.3-0.4c0.2-0.1,0-0.3-0.1-0.3C180.6,41.2,180.4,41.2,180.3,41.2
			L180.3,41.2z"/>
		
			<linearGradient id="SVGID_3_" gradientUnits="userSpaceOnUse" x1="202.2184" y1="125.3209" x2="222.4018" y2="125.3209" gradientTransform="matrix(1 0 0 -1 -2.000000e-02 169.0153)">
			<stop  offset="0" style="stop-color:#999999"/>
			<stop  offset="2.000000e-02" style="stop-color:#919191"/>
			<stop  offset="9.000000e-02" style="stop-color:#767676"/>
			<stop  offset="0.17" style="stop-color:#606060"/>
			<stop  offset="0.26" style="stop-color:#4F4F4F"/>
			<stop  offset="0.38" style="stop-color:#444444"/>
			<stop  offset="0.54" style="stop-color:#3D3D3D"/>
			<stop  offset="1" style="stop-color:#3B3B3B"/>
		</linearGradient>
		<path class="st3" d="M204.6,39.3C204.4,39.5,204.6,39.3,204.6,39.3s-0.1,0-0.2,0.1c-0.1,0.1-0.1,0.1-0.2,0.2
			c-0.3,0.4-0.6,0.8-0.8,1.2c-0.3,0.7-0.6,1.4-0.9,2.1c-0.1,0.2-0.2,0.5-0.2,0.7c-0.1,0.5-0.1,0.9-0.1,1.4c0.1,0.9,1,1.5,1.7,1.9
			c1.6,0.8,3.4,1.2,5.2,1.1c1,0,2,0,3.1,0s1.9-0.2,2.8-0.2c1.5-0.1,2.9-0.2,4.4-0.4c0.9-0.1,2.4,0.2,3-0.7c0.2-0.2-0.8-0.4-1-0.1
			s-0.8,0.3-1.2,0.3s-1,0.1-1.5,0.1c-1.2,0.2-2.4,0.3-3.6,0.3c-1.8,0.1-3.5,0.3-5.3,0.3c-1.7,0.1-3.3-0.2-4.9-0.8
			c-0.4-0.3-0.8-0.6-1.2-0.9c-0.3-0.2-0.5-0.5-0.6-0.9c0-0.3,0-0.7,0.1-1c0-0.3,0-0.7,0.1-1c0.3-0.7,0.5-1.4,0.9-2.1
			c0.2-0.4,0.5-0.7,0.7-1.1c0.1-0.2,0.3-0.3,0.1-0.2c0.1-0.1,0.2-0.1,0.3-0.1C205.7,39.4,204.7,39.2,204.6,39.3L204.6,39.3z"/>
		<path class="st4" d="M196.6,51.7c1.2,0.1,2.4,0.2,3.6,0.2c0.8,0,1.5,0,2.3-0.1c0.3,0,0.7,0,1-0.1c0.2-0.1,0.3-0.2,0.4-0.4
			s0.2-0.2,0.2-0.3c0.1-0.3,0-0.6-0.3-0.8c-0.4-0.2-0.7-0.3-1.1-0.4c-0.1,0-0.5-0.1-0.6,0.1s0.2,0.3,0.3,0.3l0.4,0.1
			c0.2,0.1,0.3,0.1,0.3,0.2c0.1,0.1,0.1,0.3,0,0.5c0,0.1-0.1,0.1-0.2,0.2s-0.1,0.2-0.2,0.2c-0.2,0-0.3,0.1-0.5,0c-0.2,0-0.4,0-0.7,0
			s-0.7,0.1-1.1,0c-1.3,0-2.6-0.1-3.9-0.2c-0.1,0-0.5,0-0.5,0.2S196.5,51.6,196.6,51.7L196.6,51.7z"/>
		<path class="st1" d="M219.5,48.7c-4-0.1-8,0-12,0s-7.7,0-11.6,0c-2.5,0-5,0-7.5-0.1c-0.8,0-1.6-0.1-2.4-0.2
			c-0.8-0.2-1.6-0.4-2.4-0.6c-2.1-0.4-4.2-0.6-6.3-0.6c-1.5-0.1-3-0.2-4.5-0.5c-0.8-0.1-1.5-0.3-2.3-0.5c-0.7-0.2-1.4-0.3-2.2-0.3
			c-1.2-0.1-2.5-0.4-3.7-0.8c-0.2-0.1-0.8-0.2-0.9-0.4s0-0.2,0.1-0.3c0-0.1,0.1-0.1,0.1-0.2c0.2-0.2,0.1-0.2-0.4,0.1
			c0,0.2,0,0.3,0.1,0.5c0,0.3,0,0.5-0.1,0.7c-0.2,0.2-0.4,0.4-0.6,0.5c-0.2,0.1,0.1,0.2,0.2,0.2c0.2,0,0.5,0,0.7-0.2
			c0.4-0.3,0.8-0.5,0.8-1.1c0.1-0.4,0.1-1.1-0.4-1.2s-1.9,0.7-1.3,1.3c0.6,0.3,1.2,0.6,1.8,0.7c0.5,0.2,1,0.3,1.5,0.3
			c1,0.2,2,0.2,3.1,0.4c0.5,0.1,0.9,0.2,1.4,0.3c1,0.2,1.9,0.3,2.9,0.5c1.7,0.3,3.3,0.3,5,0.4c1.2,0.1,2.4,0.2,3.6,0.3
			c1,0.1,1.9,0.5,2.9,0.7c2.1,0.3,4.3,0.5,6.4,0.4c4.4,0.1,8.7,0,13.1,0c4.8,0,9.7-0.1,14.5,0c0.2,0,0.6,0,0.7-0.2
			S219.7,48.7,219.5,48.7L219.5,48.7z"/>
		<path class="st5" d="M183.1,49.3c0.2-0.4,0.5-0.7,0.7-1.1c0.2-0.5,0.5-1,0.9-1.4c1-0.7,2.2-1.2,3.5-1.3c0.5-0.1,1.1-0.2,1.6-0.3
			c0.5,0.1,1.1,0.1,1.6,0c0,0.2-0.4-0.3-0.3-0.3c-0.1,0-0.1,0.1-0.2,0.1c-0.5,0.1-0.9,0.3-1.4,0.4c-1.3,0.3-2.5,0.5-3.8,0.7
			c-0.9,0.1-1.8,0.3-2.7,0.4c-2.2,0.2-4.4,0.3-6.6,0.2c-1.8,0-3.6-0.2-5.3-0.7c-0.4-0.1-1,0.1-0.3,0.3c1.8,0.5,3.6,0.8,5.5,0.8
			c2.5,0.1,5,0,7.5-0.3c1.2-0.2,2.4-0.4,3.6-0.5c1.4-0.2,2.8-0.5,4.1-0.8c0.3-0.1,1-0.2,0.5-0.6c-0.4-0.2-0.9-0.2-1.3-0.1
			c-0.6,0-1.2-0.1-1.8,0s-1.5,0.3-2.3,0.5c-0.7,0.1-1.4,0.4-2,0.7c-0.7,0.4-1.2,0.9-1.6,1.6c-0.2,0.5-0.6,1-0.8,1.5
			C182,49.3,183,49.6,183.1,49.3L183.1,49.3z"/>
		<path class="st1" d="M181.3,46.5c0.3,0.1,0.7,0.2,1.1,0.1l1-0.1h0.4h0.1c0.1,0,0,0,0,0s0.2,0,0.2,0h0.9c0.1,0,0.4-0.1,0.2-0.2
			c-0.2-0.2-0.4-0.2-0.6-0.2c-0.5,0-1.1,0-1.6,0l-1,0.1h-0.4h-0.1c-0.1,0,0.1,0,0,0h-0.1c0.1,0,0.3,0.1,0.4,0.1
			c-0.2-0.1-0.4-0.2-0.7-0.1C180.9,46.3,181.1,46.4,181.3,46.5L181.3,46.5z"/>
		<path class="st6" d="M161.7,45.7c0.8,0.3,1.7,0.5,2.6,0.8c0.6,0.2,1.2,0.3,1.9,0.4c0.8,0.1,1.6,0.2,2.4,0.3
			c0.8,0.1,1.6,0.3,2.4,0.4s1.4,0.1,2.1,0.2c1,0.1,1.9,0.5,2.8,0.6c1.3,0.2,2.5,0.3,3.8,0.5c4.1,0.9,8.3,1.8,12.4,2.8
			c2.5,0.6,5,1,7.5,1.8c0.3,0.1,1.1-0.2,0.5-0.3c-0.9-0.3-1.9-0.5-2.8-0.8c-1.1-0.3-2.3-0.4-3.5-0.7c-2.1-0.5-4.1-1.1-6.2-1.5
			s-4.3-0.9-6.4-1.4c-0.9-0.2-1.9-0.4-2.8-0.5c-1-0.1-2-0.2-3-0.5c-0.8-0.2-1.7-0.4-2.5-0.5c-0.8,0-1.5-0.1-2.3-0.2
			c-0.9-0.2-1.8-0.3-2.8-0.3c-0.8-0.1-1.7-0.2-2.5-0.5c-0.9-0.2-1.8-0.5-2.7-0.8C162.2,45.3,161.2,45.5,161.7,45.7L161.7,45.7z"/>
		<path class="st1" d="M143,42.5l-0.6,0.3c-0.1,0.1-0.3,0.1-0.3,0.2c0,0,0,0.1,0,0.1c0,0,0,0.1,0,0.1c0,0,0.1,0.1,0.1,0.1
			c0.1,0.1,0.2,0.1,0.3,0.1c0.1,0,0.2,0,0.4,0h0.1c0,0,0.1,0,0.1-0.1l0,0c0,0,0-0.1,0-0.1c0,0-0.1-0.1-0.1-0.1
			c-0.1-0.1-0.2-0.1-0.3-0.1c-0.1,0-0.2,0-0.4,0h-0.1c0,0-0.1,0-0.1,0.1v0.1c0,0,0,0.1,0,0.1c0,0,0.1,0.1,0.1,0.1
			c0.1,0.1,0.2,0.1,0.3,0.1c0.1,0,0.2,0,0.4,0h0.1c0,0,0.1,0,0.1-0.1v-0.1c0,0,0-0.1,0-0.1c0,0-0.1-0.1-0.1-0.1
			c-0.1-0.1-0.2-0.1-0.3-0.1c-0.1,0-0.2,0-0.4,0h-0.1c0,0-0.1,0-0.1,0.1l0,0c0,0,0,0.1,0,0.1c0,0,0.1,0.1,0.1,0.1
			c0.1,0.1,0.2,0.1,0.3,0.1c0.1,0,0.2,0,0.4,0h0.1c0,0,0.1,0,0.1-0.1c0,0,0-0.1,0-0.1l0,0c0,0,0.1-0.1,0.1-0.1h-0.1
			c0.1,0,0.2-0.1,0.3-0.1l0.5-0.2c0.1,0,0.1-0.1,0.1-0.1s-0.1-0.1-0.2-0.2c-0.1-0.1-0.2-0.1-0.4-0.1c-0.1,0-0.2,0-0.3,0L143,42.5z"
			/>
		
			<linearGradient id="SVGID_4_" gradientUnits="userSpaceOnUse" x1="141.8018" y1="119.6851" x2="183.5818" y2="119.6851" gradientTransform="matrix(1 0 0 -1 -2.000000e-02 169.0153)">
			<stop  offset="0" style="stop-color:#3B3B3B"/>
			<stop  offset="0.46" style="stop-color:#3D3D3D"/>
			<stop  offset="0.62" style="stop-color:#444444"/>
			<stop  offset="0.74" style="stop-color:#4F4F4F"/>
			<stop  offset="0.83" style="stop-color:#606060"/>
			<stop  offset="0.91" style="stop-color:#767676"/>
			<stop  offset="0.98" style="stop-color:#919191"/>
			<stop  offset="1" style="stop-color:#999999"/>
		</linearGradient>
		<path class="st7" d="M142.2,44.2c0.9,0.3,1.8,0.3,2.6,0.6c0.5,0.1,1.1,0.4,1.6,0.5c1.2,0.4,2.4,0.7,3.6,0.9c1.5,0.3,3,0.7,4.4,1.2
			c1.8,0.6,3.5,1.4,5.3,1.9c1.6,0.4,3.3,0.7,4.8,1.3c1.2,0.4,2.4,0.7,3.6,1c2.2,0.6,4.4,1.3,6.7,1.8c2.7,0.9,5.5,1.3,8.4,1.4
			c0.6,0-0.1-0.5-0.4-0.5c-2.4-0.1-4.9-0.5-7.2-1.2c-2.2-0.5-4.4-1.2-6.6-1.8c-2.7-0.7-5.4-1.5-8.1-2.2c-1.9-0.5-3.7-1.1-5.5-1.9
			c-1.4-0.5-2.9-1-4.4-1.3c-0.6-0.1-1.1-0.2-1.7-0.3c-0.8-0.2-1.5-0.4-2.3-0.7c-0.6-0.2-1.2-0.4-1.8-0.6c-0.9-0.3-1.9-0.3-2.9-0.6
			c-0.1,0-0.5-0.1-0.5,0.1S142.1,44.2,142.2,44.2L142.2,44.2z"/>
		<path class="st1" d="M152.1,48.3c-0.1,0.3-0.2,0.6-0.4,0.9c-0.1,0.2-0.1,0.3-0.1,0.5c0,0.2,0,0.3,0,0.5c0,0.2,0,0.4,0.1,0.7
			c0.1,0.2,0.2,0.4,0.4,0.6c0.2,0.3,0.3,0.6,0.5,0.8c0.1,0.2,0.3,0.3,0.5,0.5c0.3,0.3,0.6,0.6,0.9,0.9c0.2,0.1,0.4,0.2,0.7,0.2
			c0.1,0,0.4-0.1,0.2-0.2s-0.5-0.6-0.8-0.8c-0.2-0.1-0.4-0.3-0.5-0.4c-0.2-0.3-0.3-0.5-0.5-0.8c-0.1-0.2-0.3-0.4-0.4-0.5
			c-0.1-0.2-0.1-0.4-0.1-0.6c0-0.2,0-0.3,0-0.5c0-0.2,0.1-0.3,0.1-0.5c0.1-0.3,0.3-0.6,0.4-0.9C153,48.1,152,48,152.1,48.3
			L152.1,48.3z"/>
		
			<linearGradient id="SVGID_5_" gradientUnits="userSpaceOnUse" x1="126.5236" y1="117.819" x2="156.0136" y2="117.819" gradientTransform="matrix(1 0 0 -1 -2.000000e-02 169.0153)">
			<stop  offset="0" style="stop-color:#3B3B3B"/>
			<stop  offset="0.46" style="stop-color:#3D3D3D"/>
			<stop  offset="0.62" style="stop-color:#444444"/>
			<stop  offset="0.74" style="stop-color:#4F4F4F"/>
			<stop  offset="0.83" style="stop-color:#606060"/>
			<stop  offset="0.91" style="stop-color:#767676"/>
			<stop  offset="0.98" style="stop-color:#919191"/>
			<stop  offset="1" style="stop-color:#999999"/>
		</linearGradient>
		<path class="st8" d="M128.2,47.3c-0.3-0.2-1-1-0.5-1.3c0.5-0.3,1.3,0.3,1.7,0.6c0.8,0.6,1.6,1.2,2.5,1.8c0.9,0.6,1.9,1.1,2.9,1.6
			c1.2,0.5,2.4,1,3.6,1.5c2.3,0.9,4.7,1.5,7,2.3c1.6,0.5,3.2,1,4.8,1.4l5.2,1.5c0.1,0,0.5,0.1,0.6,0s-0.2-0.3-0.3-0.3
			c-3.3-1-6.7-1.8-10-2.9c-1.2-0.4-2.5-0.8-3.7-1.1c-1.4-0.4-2.7-1-4-1.5s-2.5-1-3.7-1.6c-0.9-0.5-1.8-1-2.6-1.6
			c-1.1-0.8-2.1-2-3.5-2.1c-0.4,0-1.2-0.1-1.5,0.3s0.4,1.3,0.8,1.6c0.2,0.1,0.5,0.2,0.7,0.1C128.3,47.6,128.4,47.5,128.2,47.3
			L128.2,47.3z"/>
		<path class="st6" d="M135,50.3c-0.1,0.5-0.1,0.9-0.2,1.4c-0.2,0.7-0.4,1.5-0.6,2.2c-0.2,0.7-0.5,1.4-0.9,2
			c-0.3,0.4-0.7,0.8-1.1,1.2c-0.2,0.2,0.7,0.5,0.9,0.2c0.4-0.4,0.7-0.8,1.1-1.2c0.4-0.6,0.7-1.3,0.9-2c0.2-0.4,0.3-0.8,0.5-1.3
			c0.1-0.3,0.1-0.7,0.2-1s0.1-0.9,0.2-1.4C136,50.1,135,50,135,50.3L135,50.3z"/>
		
			<linearGradient id="SVGID_6_" gradientUnits="userSpaceOnUse" x1="116.3439" y1="116.9144" x2="149.5239" y2="116.9144" gradientTransform="matrix(1 0 0 -1 -2.000000e-02 169.0153)">
			<stop  offset="0" style="stop-color:#3B3B3B"/>
			<stop  offset="0.46" style="stop-color:#3D3D3D"/>
			<stop  offset="0.62" style="stop-color:#444444"/>
			<stop  offset="0.74" style="stop-color:#4F4F4F"/>
			<stop  offset="0.83" style="stop-color:#606060"/>
			<stop  offset="0.91" style="stop-color:#767676"/>
			<stop  offset="0.98" style="stop-color:#919191"/>
			<stop  offset="1" style="stop-color:#999999"/>
		</linearGradient>
		<path class="st9" d="M118.7,45.1c-0.8,0.1-1.9,0.4-2.2,1.3c-0.3,0.7-0.3,1.4,0,2c0.2,0.4,0.4,0.8,0.6,1.2c0.2,0.3,0.5,0.5,0.8,0.7
			c0.7,0.5,1.5,1,2.3,1.3c2.1,0.8,4.3,1.2,6.5,1.8c4.7,1.3,9.4,2.5,14.1,3.7l8,2c0.4,0.1,0.9-0.2,0.3-0.4c-4.4-1.1-8.9-2.3-13.4-3.4
			c-0.1,0,0.2,0,0,0l-0.4-0.1l-1.5-0.4l-4.6-1.2c-2-0.5-4.1-1.1-6.1-1.7c-0.8-0.2-1.6-0.4-2.3-0.7c-0.9-0.4-1.7-0.8-2.4-1.5
			c-1.3-1.1-1.8-4.2,0.5-4.4C119.6,45.5,119.1,45,118.7,45.1L118.7,45.1z"/>
		<path class="st6" d="M125.7,53.2c0,0.3-0.2,0.5-0.5,0.6c-0.4,0.2-0.8,0.3-1.3,0.2c-0.8-0.1-1.5-0.8-2.3-0.9
			c-0.2,0-0.6-0.1-0.8,0.1s-0.1,0.4-0.2,0.6c-0.1,0.5-0.3,1-0.4,1.5c-0.1,0.6-0.4,1.1-0.9,1.5c-0.2,0.1,0.3,0.3,0.3,0.3
			c0.2,0.1,0.4,0.1,0.6,0c0.5-0.3,0.8-0.8,1-1.3c0.1-0.5,0.2-1.1,0.4-1.6c0.1-0.2,0.1-0.3,0.1-0.5c0,0,0-0.1,0-0.1s-0.3,0-0.3,0h0.1
			c0,0-0.2-0.1,0,0l0.3,0.1c0.9,0.5,1.8,0.8,2.8,0.8c0.5,0,1-0.2,1.4-0.4c0.3-0.2,0.5-0.4,0.5-0.7C126.9,53.1,125.9,52.9,125.7,53.2
			L125.7,53.2z"/>
		<path class="st1" d="M122.8,46.2c0.2,0,0.4-0.1,0.5-0.3c0-0.1,0-0.2,0-0.3c0-0.1,0-0.2,0-0.3c0-0.1,0-0.2-0.1-0.2
			c-0.1-0.1-0.3-0.2-0.4-0.2c-0.4-0.1-0.9-0.1-1.3,0h-0.1c0.1,0,0,0,0,0h-0.1c-0.1,0-0.2,0.1-0.3,0.2c-0.1,0.3-0.1,0.6,0,0.9
			c0.1,0.2,0.2,0.5,0.3,0.7c0.1,0.2,0.3,0.4,0.6,0.5c0.3,0.1,0.5,0.3,0.8,0.4c0.3,0.1,0.6,0.2,0.9,0.2c0.1,0,0.5,0.1,0.5-0.1
			s-0.4-0.3-0.5-0.3h-0.1l0,0h-0.1l-0.2,0c0,0-0.1,0,0,0h-0.1l-0.2-0.1l-0.3-0.1h-0.1c-0.1,0,0.1,0,0,0h-0.1l-0.2-0.1h-0.1l0,0l0,0
			l-0.1-0.1l0,0c0-0.1-0.1-0.2-0.1-0.2c-0.1-0.2-0.2-0.4-0.3-0.7c0-0.1,0-0.3,0-0.4c0,0,0-0.1,0-0.1l0,0l0,0l0,0h0.2h0.2l0,0
			c0,0,0.1,0,0,0h0.1c0.1,0-0.1,0,0,0h0.1c-0.1,0,0,0,0,0s-0.3-0.1-0.2-0.2s0,0.2,0,0.2c0,0.1,0,0.2,0,0.3c0,0.1,0,0.2,0,0.3l0,0
			l0,0c0,0,0.1,0,0,0h0.1c-0.1,0-0.4,0.1-0.2,0.2c0.2,0.1,0.4,0.2,0.7,0.2L122.8,46.2z"/>
		
			<linearGradient id="SVGID_7_" gradientUnits="userSpaceOnUse" x1="191.4936" y1="137.6818" x2="212.8236" y2="137.6818" gradientTransform="matrix(1 0 0 -1 -2.000000e-02 169.0153)">
			<stop  offset="0" style="stop-color:#3B3B3B"/>
			<stop  offset="0.46" style="stop-color:#3D3D3D"/>
			<stop  offset="0.62" style="stop-color:#444444"/>
			<stop  offset="0.74" style="stop-color:#4F4F4F"/>
			<stop  offset="0.83" style="stop-color:#606060"/>
			<stop  offset="0.91" style="stop-color:#767676"/>
			<stop  offset="0.98" style="stop-color:#919191"/>
			<stop  offset="1" style="stop-color:#999999"/>
		</linearGradient>
		<path class="st10" d="M192.3,34.9c0.6-0.3,1.2-0.6,1.8-1c0.8-0.5,1.7-1,2.6-1.5c2-0.9,4.1-1.4,6.2-2c2.3-0.7,4.7-1.3,7.1-1.7
			l2.7-0.5c0.2,0,0.2-0.2,0-0.3c-0.2-0.1-0.4-0.2-0.6-0.2c-2.1,0.4-4.2,0.8-6.3,1.3c-2.9,0.7-5.8,1.6-8.6,2.6
			c-0.6,0.2-1.2,0.4-1.8,0.7c-0.5,0.3-1,0.6-1.5,0.9l-1.2,0.7c-0.3,0.2-0.6,0.4-1,0.6C191.2,34.7,192.1,35,192.3,34.9L192.3,34.9z"
			/>
		
			<linearGradient id="SVGID_8_" gradientUnits="userSpaceOnUse" x1="165.7472" y1="134.6453" x2="196.3156" y2="134.6453" gradientTransform="matrix(1 0 0 -1 -2.000000e-02 169.0153)">
			<stop  offset="0" style="stop-color:#3B3B3B"/>
			<stop  offset="0.46" style="stop-color:#3D3D3D"/>
			<stop  offset="0.62" style="stop-color:#444444"/>
			<stop  offset="0.74" style="stop-color:#4F4F4F"/>
			<stop  offset="0.83" style="stop-color:#606060"/>
			<stop  offset="0.91" style="stop-color:#767676"/>
			<stop  offset="0.98" style="stop-color:#919191"/>
			<stop  offset="1" style="stop-color:#999999"/>
		</linearGradient>
		<path class="st11" d="M166.7,39.2c0.9-0.5,1.9-1,2.8-1.5c0.9-0.4,1.8-0.8,2.7-1.1c2.1-0.7,4.1-1.4,6.2-2s3.9-1.3,5.9-1.8l0.2,0
			l0.5-0.1l1.4-0.3l3.7-0.9l6.1-1.5c0.6-0.2-0.2-0.4-0.5-0.4c-3.9,1-7.8,1.9-11.6,2.9c-1.8,0.5-3.5,1.1-5.2,1.6
			c-2.1,0.6-4.2,1.3-6.2,2c-1.2,0.4-2.3,0.8-3.4,1.3c-1.1,0.5-2.2,1.1-3.3,1.7c-0.2,0.1,0.1,0.2,0.2,0.3
			C166.2,39.3,166.4,39.3,166.7,39.2L166.7,39.2z"/>
		<path class="st4" d="M202.7,26c0.6-0.3,1.2-0.5,1.8-0.6c0.2,0,0.4-0.1,0.6-0.1c0.2,0,0.3,0,0.5,0c0.1,0,0.1,0,0.2,0.1
			c0,0,0.3,0.1,0.2,0l-0.2-0.1c0.1,0.2,0.1,0.3,0.1,0.5c0,0.2,0,0.1-0.3,0.3c-0.4,0.2-0.8,0.5-1.2,0.7c-1,0.5-1.9,0.9-2.9,1.4
			c-1,0.6-2,1.3-3,2c-0.4,0.3-0.9,0.6-1.3,0.8c-0.3,0.2-0.6,0.4-0.8,0.8c-0.1,0.3,0.8,0.4,1,0.1c0.3-0.4,0.7-0.7,1.1-0.9
			c0.6-0.4,1.2-0.8,1.8-1.3c0.6-0.5,1.2-0.9,1.9-1.3c0.5-0.3,1.1-0.6,1.6-0.9c0.6-0.3,1.3-0.6,1.9-0.9c0.2-0.1,0.4-0.3,0.6-0.4
			s0.5-0.2,0.5-0.4c0-0.1-0.1-0.3-0.1-0.4c0-0.3-0.1-0.4-0.4-0.5c0,0-0.4-0.1-0.3,0L206,25c-0.3-0.1-0.7-0.1-1,0
			c-1.1,0-2.2,0.3-3.2,0.9c-0.2,0.1,0.1,0.2,0.2,0.3C202.2,26.2,202.5,26.2,202.7,26L202.7,26z"/>
		<path class="st1" d="M183.2,31.2c-0.2,0.1-0.3,0.1-0.5,0.2c-0.2,0.1-0.3,0.2-0.4,0.3c-0.3,0.2-0.6,0.5-0.9,0.8
			c-0.1,0.2-0.2,0.4-0.3,0.6s-0.3,0.3-0.4,0.5c-0.1,0.2-0.2,0.4-0.3,0.7c0,0.1-0.1,0.2-0.1,0.3c0,0.3,1,0.3,1,0
			c0-0.3,0.1-0.6,0.3-0.9c0.1-0.2,0.3-0.3,0.4-0.5s0.2-0.4,0.3-0.6c0.1-0.1,0.1-0.2,0.2-0.3l0.5-0.4c0.1-0.1,0.2-0.2,0.4-0.3
			c-0.1,0,0,0,0,0h0.1l0.3-0.1c0.2-0.1,0.1-0.2,0-0.3C183.6,31.2,183.4,31.2,183.2,31.2L183.2,31.2z"/>
		<path class="st1" d="M174.4,32c-0.2,0.1-0.4,0.3-0.6,0.6c-0.1,0.2-0.2,0.4-0.3,0.7c-0.1,0.2-0.2,0.4-0.3,0.6
			c-0.1,0.4-0.2,0.9-0.4,1.3c0,0.1-0.1,0.2-0.1,0.2c-0.1,0.1-0.1,0.2-0.1,0.3l-0.1,0.2c0,0-0.1,0.1,0,0.1c-0.2,0.1,0.1,0.2,0.2,0.3
			c0.2,0.1,0.5,0,0.7-0.1c0.2-0.1,0.2-0.4,0.3-0.6l0.1-0.3c0.2-0.4,0.3-0.8,0.4-1.3c0-0.1,0.1-0.3,0.2-0.4c0.1-0.1,0.1-0.2,0.2-0.3
			c0.1-0.2,0.2-0.4,0.3-0.6c0.1-0.2,0.3-0.5,0.5-0.6c0.2-0.1-0.1-0.3-0.2-0.3C174.9,31.9,174.6,31.9,174.4,32L174.4,32z"/>
		
			<linearGradient id="SVGID_9_" gradientUnits="userSpaceOnUse" x1="145.3336" y1="136.8303" x2="171.2236" y2="136.8303" gradientTransform="matrix(1 0 0 -1 -2.000000e-02 169.0153)">
			<stop  offset="0" style="stop-color:#3B3B3B"/>
			<stop  offset="0.46" style="stop-color:#3D3D3D"/>
			<stop  offset="0.62" style="stop-color:#444444"/>
			<stop  offset="0.74" style="stop-color:#4F4F4F"/>
			<stop  offset="0.83" style="stop-color:#606060"/>
			<stop  offset="0.91" style="stop-color:#767676"/>
			<stop  offset="0.98" style="stop-color:#919191"/>
			<stop  offset="1" style="stop-color:#999999"/>
		</linearGradient>
		<path class="st12" d="M154.8,28.6c0.9-0.6,1.9-1.1,2.9-1.3c0.4-0.1,0.9-0.3,1.4-0.5c0.2-0.1,0.4-0.2,0.6-0.3
			c0.1,0,0.3-0.1,0.4-0.2c-0.3-0.2-0.4-0.2-0.4,0c0,0.1-0.1,0.1-0.1,0.2c-0.3,0.4-0.6,0.7-0.9,1c0.1-0.1,0.3-0.1,0,0l-0.2,0.1
			c-0.2,0.1-0.3,0.1-0.5,0.2c-0.8,0.4-1.6,0.8-2.4,1.2c-1.1,0.6-2.2,1.4-3.3,2.1c-1.4,0.9-2.8,1.8-4.2,2.8c-0.5,0.4-1,0.8-1.5,1.2
			c-0.5,0.4-0.9,0.8-1.2,1.3c-0.2,0.5,0.3,0.8,0.7,0.8c0.1,0,0.2,0,0.4,0c0.2,0,0.1,0-0.3-0.1c0,0.1,0.1,0.3,0.1,0.5
			c0,0.2,0,0.4,0,0.6c0,0.3,0.6,0.2,0.7,0.2c0.8-0.2,1.5-0.4,2.2-0.6c1-0.4,1.9-0.8,2.7-1.4c2.1-1.3,4-2.7,6.2-3.9
			c2.7-1.5,5.3-3,8-4.4c0.2-0.1,0.4-0.2,0.7-0.3s-0.1,0,0.1-0.1l0.5-0.2c0.9-0.5,1.9-0.8,2.9-0.9l-0.5-0.1c0.1,0.1,0.2,0.2,0.3,0.3
			c0,0.1-0.1,0.1-0.4,0.2l-0.4,0.2c-0.7,0.3-1.3,0.7-1.9,1.1c-0.7,0.5-1.5,0.9-2.3,1.3c-0.8,0.4-1.6,0.8-2.3,1.2
			c-2.1,1.1-4.1,2.5-6.1,3.8l-2.1,1.4c-0.3,0.2,0.6,0.3,0.8,0.3l1.8-0.8l1.3-0.6l0.5-0.2c0.1,0,0.1-0.1,0.2-0.1c0,0-0.1,0,0.1,0.1
			c1.1,0.6,2.6-0.2,3.7-0.3c0.3,0,0.6-0.1,0.9-0.2c0.2-0.1,0.5-0.1,0.7,0c0.6,0.1,1.2,0.2,1.7,0.4c0.2,0.1,1.2,0,0.7-0.3
			c-0.6-0.2-1.2-0.4-1.8-0.5c-0.5-0.2-1.1-0.2-1.6-0.1c-0.8,0.2-1.6,0.4-2.4,0.6c-0.2,0-0.4,0.1-0.7,0.1h-0.3c0.2,0,0.2,0,0,0
			s-0.6-0.2-0.9-0.2c-0.9,0-1.7,0.3-2.4,0.7c-0.8,0.3-1.5,0.7-2.3,1l0.8,0.3c2.1-1.4,4.2-2.8,6.4-4.1c1.6-1,3.3-1.7,5-2.6
			c1-0.5,1.8-1.2,2.8-1.7c0.3-0.2,1.7-0.6,1.5-1c0-0.1-0.2-0.1-0.3-0.2s-0.1-0.2-0.2-0.2c-0.3-0.3-0.8-0.1-1.2,0
			c-0.7,0.1-1.5,0.3-2.1,0.6c-0.9,0.4-1.7,0.7-2.6,1.2c-2.4,1.3-4.7,2.6-7.1,3.9c-2,1.1-4,2.5-6,3.7c-0.9,0.7-1.9,1.2-2.9,1.6
			c-0.7,0.3-1.5,0.5-2.3,0.7l0.8,0.2c0-0.4,0-1-0.3-1.2c-0.2-0.1-0.4-0.2-0.6-0.2h-0.4c0.1,0.1,0.3-0.3,0.4-0.4
			c0.4-0.6,0.9-1,1.5-1.5c0.4-0.3,0.8-0.7,1.3-1c1.5-1.1,3.1-2.1,4.6-3.1c1.2-0.8,2.3-1.5,3.6-2.1l1.4-0.7l0.4-0.2
			c0.2-0.1-0.2,0,0,0s0.2,0,0.3-0.1c0.4-0.2,1.8-1.5,1-1.9c-0.6-0.2-1.2,0.1-1.7,0.4c-0.5,0.2-1,0.4-1.5,0.5
			c-1.2,0.3-2.3,0.8-3.3,1.5C153.6,28.6,154.5,28.8,154.8,28.6L154.8,28.6z"/>
		<path class="st1" d="M160.2,29.6c0.3-0.2,0.6-0.3,0.9-0.3c0.1,0,0.2-0.1,0.4-0.1h0.2h0.1c0.1,0,0.1,0-0.1,0l-0.4-0.1
			c0,0-0.1-0.1-0.2-0.1s0,0,0,0c0,0-0.1,0.1-0.1,0.1c-0.1,0.1-0.1,0.2-0.2,0.3c-0.1,0.2-0.2,0.4-0.2,0.7c0,0.3-0.1,0.5-0.1,0.8
			c0,0.3,0,0.5-0.1,0.8c0,0.2-0.1,0.4,0.1,0.5c0.3,0.2,0.7,0.3,1,0.1c0.2-0.1,0.4-0.3,0.6-0.5c0.2-0.1,0.5-0.1,0.8-0.1
			c0.2,0,0.4,0,0.5,0c0.1,0,0.2,0,0.2,0l0,0l-0.4-0.1c0,0,0.1,0,0.1,0c0.2,0,0.4,0,0.7,0c0.2,0,0.2-0.2,0.1-0.3
			c-0.2-0.1-0.4-0.2-0.7-0.2c-0.1,0-0.1,0-0.2,0c0.1,0,0.6,0.1,0.2,0c-0.1,0-0.2,0-0.3,0c-0.2,0-0.3,0-0.4,0.1c-0.2,0-0.4,0-0.6,0
			c-0.3,0-0.7,0-1,0.2c-0.1,0.1-0.3,0.2-0.4,0.3l-0.2,0.1c-0.2,0.1-0.1,0,0.1,0.1l0.4,0.2l0,0l0.1,0.1c0-0.1,0-0.2,0-0.3
			c0-0.2,0-0.3,0-0.5c0-0.3,0.1-0.6,0.1-0.9c0-0.3,0-0.6,0.2-0.8c0.1-0.2,0.4-0.4,0.3-0.6s-0.4-0.3-0.6-0.3c-0.2,0-0.3,0-0.5,0
			c-0.2,0-0.4,0.1-0.5,0.1S160,29,159.8,29c-0.2,0.1-0.4,0.1-0.6,0.3C159,29.5,159.9,29.9,160.2,29.6L160.2,29.6z"/>
		<path class="st1" d="M152.7,27.8c-0.2,0.2-0.4,0.4-0.5,0.6c-0.1,0.1-0.1,0.3-0.2,0.5c-0.1,0.2-0.2,0.5-0.1,0.8
			c0.1,0.1,0.1,0.2,0.2,0.3c0.2,0.1,0.4,0.2,0.6,0.2h0.5c0.1,0,0.5,0,0.4-0.2s-0.4-0.2-0.6-0.2h-0.6l0.5,0.2v0l0,0c0,0,0,0,0-0.1
			c-0.1-0.1-0.1-0.2-0.1-0.3c0-0.2,0.1-0.4,0.2-0.6c0-0.1,0-0.1,0.1-0.1l0,0l0,0l0.1-0.1c0.1-0.2,0.3-0.3,0.5-0.5c0.1,0,0-0.1,0-0.2
			c-0.1-0.1-0.2-0.1-0.3-0.1c-0.1,0-0.3,0-0.4,0C153,27.8,152.9,27.8,152.7,27.8L152.7,27.8z"/>
		<path class="st1" d="M148.6,30.7c-0.3,0.1-0.5,0.3-0.6,0.6c-0.1,0.1-0.1,0.1-0.2,0.2c-0.1,0.1-0.2,0.3-0.2,0.4
			c0,0.1,0,0.3-0.1,0.4s-0.1,0.3-0.1,0.4c0,0.1-0.1,0.2-0.1,0.3c0,0.1,0,0.2,0,0.2c0,0.3,1,0.5,1,0.3c0-0.1,0-0.2,0-0.2
			c0-0.1,0-0.2,0.1-0.2c0.1-0.3,0.2-0.5,0.2-0.8c0-0.1,0.1-0.3,0.1-0.4c0.1-0.1,0.1-0.2,0.2-0.2s0.2-0.4,0.4-0.5s0-0.3-0.1-0.3
			C149.1,30.7,148.9,30.7,148.6,30.7L148.6,30.7z"/>
		<path class="st1" d="M152.4,32.6c-0.5,0.1-1,0.1-1.5,0.2h-0.4c-0.3,0-0.6,0-0.9,0c-0.4,0.1-0.7,0.3-1,0.5
			c-0.1,0.2-0.2,0.3-0.3,0.5c-0.2,0.3,0.8,0.5,0.9,0.3c0.1-0.2,0.2-0.3,0.3-0.5c0.2-0.2,0.5-0.4,0.8-0.4c0.4,0,0.8,0,1.1,0
			c0.3,0,0.6,0,0.9-0.1h0.3h0.1h0.1l0,0c0.1,0,0.4-0.1,0.2-0.2C152.8,32.7,152.6,32.6,152.4,32.6L152.4,32.6z"/>
		
			<linearGradient id="SVGID_10_" gradientUnits="userSpaceOnUse" x1="117.8836" y1="137.6569" x2="142.9336" y2="137.6569" gradientTransform="matrix(1 0 0 -1 -2.000000e-02 169.0153)">
			<stop  offset="0" style="stop-color:#3B3B3B"/>
			<stop  offset="0.46" style="stop-color:#3D3D3D"/>
			<stop  offset="0.62" style="stop-color:#444444"/>
			<stop  offset="0.74" style="stop-color:#4F4F4F"/>
			<stop  offset="0.83" style="stop-color:#606060"/>
			<stop  offset="0.91" style="stop-color:#767676"/>
			<stop  offset="0.98" style="stop-color:#919191"/>
			<stop  offset="1" style="stop-color:#999999"/>
		</linearGradient>
		<path class="st13" d="M142,24.9c-1.4,1.1-3,1.9-4.7,2.5c-2,0.9-3.9,1.9-5.9,2.8c-1.3,0.6-2.5,1.2-3.8,1.8
			c-1.2,0.6-2.3,1.1-3.4,1.7c-1,0.4-2,0.9-2.9,1.5c-1,0.6-2,1.2-3,1.9c-0.4,0.3-0.4,0.5,0.2,0.7s1.2-0.2,1.8-0.2s-0.1-0.5-0.4-0.5
			c-0.2,0-0.4,0-0.6,0l-0.4,0.1h-0.3c-0.3,0-0.5-0.1,0,0.1l0.4,0.3c0,0,0.2-0.1,0.3-0.2l0.7-0.5l1.3-0.8c0.9-0.6,1.9-1.2,2.9-1.6
			c1.9-0.7,3.7-1.7,5.5-2.6c2.8-1.4,5.7-2.7,8.6-4c1.7-0.6,3.4-1.5,4.8-2.6C143.1,25.1,142.2,24.7,142,24.9L142,24.9z"/>
		
			<linearGradient id="SVGID_11_" gradientUnits="userSpaceOnUse" x1="135.7236" y1="138.1266" x2="147.4036" y2="138.1266" gradientTransform="matrix(1 0 0 -1 -2.000000e-02 169.0153)">
			<stop  offset="0" style="stop-color:#3B3B3B"/>
			<stop  offset="0.46" style="stop-color:#3D3D3D"/>
			<stop  offset="0.62" style="stop-color:#444444"/>
			<stop  offset="0.74" style="stop-color:#4F4F4F"/>
			<stop  offset="0.83" style="stop-color:#606060"/>
			<stop  offset="0.91" style="stop-color:#767676"/>
			<stop  offset="0.98" style="stop-color:#919191"/>
			<stop  offset="1" style="stop-color:#999999"/>
		</linearGradient>
		<path class="st14" d="M145.2,25.5c0.5-0.3,1-0.5,1.5-0.6H146c1,0.4,0,1.5-0.4,2c-0.4,0.3-0.8,0.6-1.3,0.9c-1.3,1-2.6,2.1-3.7,3.3
			c-0.5,0.5-1.1,0.9-1.6,1.4c-0.6,0.5-1.1,1.1-1.6,1.6c-0.4,0.4-0.7,0.8-1,1.2c-0.2,0.3-0.8,1.2-0.7,1.6s1.3,0.2,1.6,0.1
			c0.4-0.1,0.9-0.2,1.3-0.3c0.3-0.1,0.6-0.1,0.9-0.2h0.3c0,0,0.3,0,0.1,0c0.1,0,0.6,0,0.6-0.2s-0.3-0.2-0.4-0.2
			c-0.8,0.1-1.7,0.3-2.5,0.5c-0.2,0-0.9,0.3-1.1,0.2c0.2,0.1,0.2-0.2,0.2-0.3c0.1-0.2,0.2-0.4,0.3-0.6c0.7-1.2,1.7-2.3,2.8-3.2
			c0.6-0.5,1.2-1,1.8-1.5c0.6-0.7,1.3-1.3,2.1-1.9c0.7-0.7,1.5-1.3,2.3-1.8c0.4-0.2,0.8-0.6,1-1c0.4-0.6,0.6-1.6-0.4-1.8
			c-0.3,0-0.7,0.1-1,0.2c-0.5,0.1-0.9,0.3-1.3,0.6c-0.2,0.1,0.1,0.2,0.2,0.3C144.7,25.7,145,25.7,145.2,25.5L145.2,25.5z"/>
		<path class="st1" d="M140.8,28.2c-0.2,0.2-0.2,0.5-0.2,0.8c0,0.3,0.1,0.5,0.3,0.7c0.2,0.1,0.3,0.3,0.5,0.4
			c0.1,0.1,0.3,0.2,0.4,0.2c0.4,0,0.7,0,1.1-0.1c0.3-0.1,0.6-0.1,0.8-0.3c0.1,0,0.3-0.2,0.1-0.3c-0.2-0.1-0.5-0.1-0.7,0l-0.1,0
			l-0.1,0l0,0h-0.1l-0.2,0h-0.1c-0.1,0,0.1,0,0,0s-0.1,0,0,0h-0.2c0,0,0.1,0,0.1,0h0.1l0,0c0,0-0.1-0.1-0.1-0.1
			c-0.1-0.1-0.3-0.2-0.4-0.3c0,0-0.1-0.1-0.1-0.1l-0.1-0.1l0,0l0,0c0-0.1-0.1-0.2-0.1-0.3c0-0.1,0-0.1,0-0.2v0c0,0,0,0,0,0
			c0-0.2,0.1-0.3,0.2-0.5c0.1-0.2-0.3-0.2-0.4-0.2c-0.1,0-0.3,0-0.4,0.1C141,28.1,140.9,28.2,140.8,28.2L140.8,28.2z"/>
		<path class="st1" d="M136.9,30.8c-0.1,0.3-0.2,0.6-0.3,0.9c0,0.2-0.1,0.4-0.2,0.7c-0.1,0.2-0.2,0.4-0.3,0.7s-0.1,0.3-0.1,0.4
			c-0.1,0.2-0.2,0.3-0.4,0.4c-0.2,0.2-0.3,0.3-0.5,0.5l-0.6,0.7c-0.2,0.2,0.7,0.6,0.9,0.4s0.4-0.5,0.7-0.8s0.3-0.4,0.5-0.5
			c0.2-0.1,0.3-0.3,0.4-0.5c0-0.1,0.1-0.3,0.1-0.4c0.1-0.2,0.2-0.5,0.3-0.7c0.1-0.2,0.1-0.5,0.2-0.7c0.1-0.3,0.2-0.6,0.3-0.9
			C137.9,30.9,137,30.5,136.9,30.8L136.9,30.8z"/>
		<path class="st1" d="M136.7,33.9c0.2,0.4,0.5,0.7,0.9,0.9c0.3,0.1,0.6,0.1,0.9,0c0.2-0.1,0.5-0.1,0.8-0.1c0.6-0.1,1.2-0.2,1.8-0.3
			c0.2,0,0.5,0,0.7,0c0.2,0,0.3,0,0.5,0s0.4,0,0.1,0c0.1,0,0.5,0.1,0.5-0.1s-0.3-0.3-0.4-0.3c-0.2-0.1-0.5-0.1-0.7-0.1
			c-0.2,0-0.5,0-0.7,0c-0.6,0-1.2,0-1.8,0.2c-0.4,0.1-0.9,0.1-1.4,0.2c-0.1,0-0.2,0-0.3,0.1c-0.2,0.1,0.4,0,0.3,0.1s0,0,0,0l0,0
			c-0.1-0.1-0.2-0.2-0.3-0.4C137.6,33.8,136.7,33.6,136.7,33.9L136.7,33.9z"/>
		<path class="st1" d="M121.6,26.3c-0.5,0.1-1,0.5-1.3,0.9c-0.2,0.3-0.3,0.8-0.2,1.1c0.3,0.5,1,0.5,1.5,0.7c0.2,0.1,0.4,0.2,0.6,0.4
			s0.4,0.5,0.7,0.7s0.8,0.5,1.2,0.9c0.3,0.3,0.7,0.6,1.1,0.8c0.3,0.2,0.5,0.4,0.7,0.7c0.2,0.4,0.6,0.8,0.8,1.2
			c0.6,1,0.6,2.6,1.9,2.8c0.1,0,0.5,0.1,0.5-0.1s-0.4-0.3-0.4-0.3c0.2,0,0.1,0,0-0.1c-0.1-0.1-0.1-0.2-0.2-0.4
			c-0.2-0.4-0.3-0.8-0.4-1.2c-0.2-0.5-0.5-1-0.9-1.5c-0.2-0.3-0.4-0.6-0.6-0.9c-0.4-0.4-0.9-0.6-1.3-1c-0.2-0.1-0.3-0.3-0.4-0.4
			s-0.6-0.3-0.8-0.5s-0.4-0.5-0.7-0.7c-0.2-0.2-0.5-0.3-0.8-0.5c-0.2-0.2-0.5-0.3-0.8-0.4c-0.4-0.1-0.7-0.2-0.6-0.6
			c0.1-0.3,0.2-0.7,0.5-0.9c0.2-0.2,0.5-0.4,0.9-0.4c0.2-0.1,0-0.3-0.1-0.3C122.1,26.3,121.9,26.2,121.6,26.3L121.6,26.3z"/>
		<path class="st1" d="M131.7,32.2c-0.7,0-1.3,0.3-1.9,0.7c-0.3,0.2-0.6,0.1-0.9,0.2s0.2,0.1,0.1,0l-0.2-0.1l-0.2,0c0,0-0.2,0,0,0
			s0.1,0,0-0.1s-0.1-0.1-0.2-0.2c-0.1-0.1-0.2-0.2-0.3-0.3c-0.3-0.2-0.7-0.3-1-0.2c-0.2,0,0.6,0.2,0.4,0c-0.1,0-0.1-0.1-0.2-0.1
			c-0.2-0.1-0.4-0.1-0.7,0c-0.1,0-0.2,0.1-0.3,0.2c0,0.1,0,0.1,0,0.1s0.1,0.2,0,0l0.1-0.2c0.1-0.1,0,0-0.1,0l-0.2,0.1h-0.1
			c-0.2,0.1-0.2,0.2,0,0.3c0.2,0.1,0.5,0.1,0.7,0c0.2,0,0.4-0.1,0.6-0.2c0.1,0,0.1-0.1,0.1-0.2s-0.1,0-0.1-0.1s0.1,0,0.1,0h-0.4l0,0
			l-0.3-0.1h0.1c0.1,0,0.1,0.1,0.2,0.1c0.2,0,0.4,0,0.6,0c0.1,0,0.1,0,0.2,0c-0.6,0.2-0.5-0.2-0.4,0l0.3,0.4
			c0.1,0.2,0.4,0.3,0.6,0.3h0.1c-0.1,0,0,0,0,0c0.1,0.1,0.3,0.1,0.4,0.1c0.6,0,1.2-0.1,1.8-0.3c0.3-0.1,0.5-0.3,0.8-0.5
			c0.2-0.1,0.4-0.1,0.7-0.2c0.1,0,0.4,0,0.4-0.2s-0.5-0.2-0.6-0.2L131.7,32.2z"/>
		<path class="st1" d="M129.5,26.5c-0.2,0.3-0.5,0.5-0.7,0.8s-0.4,0.6-0.6,0.8c-0.2,0.2-0.5,0.4-0.8,0.5c-0.2,0.1-0.3,0.2-0.4,0.3
			c-0.2,0.1,0.1,0.2,0.2,0.3c0.2,0.1,0.5,0,0.7-0.1c0.2-0.1,0.3-0.2,0.4-0.3c0.3-0.2,0.6-0.4,0.8-0.6c0.2-0.3,0.4-0.5,0.6-0.8
			c0.2-0.3,0.5-0.5,0.7-0.8c0.1-0.2-0.3-0.2-0.4-0.2S129.6,26.3,129.5,26.5z"/>
		<path class="st1" d="M120.7,37.5c0.4,0.1,0.7,0.3,1.1,0.3c0.4,0.1,0.7,0.1,1.1,0c0.2,0,0.4-0.1,0.6-0.3l0.1-0.1c0,0-0.3,0-0.1,0
			c0.1,0,0.3,0,0.4,0l0,0h0.1c0.1,0,0.2,0.1,0.3,0.1c0.2,0.1,0.5,0.1,0.7,0c0.1,0,0.3-0.2,0.1-0.3c-0.3-0.2-0.7-0.2-1-0.2l0,0h-0.1
			c-0.1,0-0.3,0-0.4,0c-0.3,0-0.5,0.1-0.7,0.3c-0.1,0-0.1,0.1-0.2,0.2l0,0l0.2-0.1c-0.1,0,0.1,0,0,0h-0.4c-0.1,0,0,0,0,0h-0.1
			c-0.1,0-0.2-0.1-0.3-0.1c-0.2-0.1-0.4-0.2-0.7-0.2c-0.2-0.1-0.5,0-0.7,0.1C120.4,37.3,120.4,37.4,120.7,37.5L120.7,37.5z"/>
		<path class="st1" d="M110.2,41.1c0,0.3,0,0.7,0,1c-0.1,0.3-0.2,0.4-0.4,0.6s-0.2,0.3-0.3,0.5c-0.1,0.1-0.3,0.3-0.4,0.4
			c-0.8,0.7-1.5,1.6-2.2,2.3c-1.1,1.2-2.2,2.7-3.7,3.5c-0.8,0.4-1.6,0.5-2.5,0.5c-0.6,0-1.2,0.1-1.8,0.1c-1.3,0-2.6,0-3.8-0.1
			c-2.2-0.2-4.3-0.5-6.4-0.8c-0.6,0-1.1-0.2-1.6-0.4c-0.8-0.4-1.5-0.8-2.2-1.3c-0.4-0.3-0.6-0.9-0.8-1.3s-0.4-0.8-0.6-1.2
			s-1.1-0.2-1,0l0.5,1c0.2,0.5,0.4,0.9,0.7,1.3c0.5,0.4,1,0.8,1.6,1c0.7,0.5,1.4,0.8,2.2,1.1c1,0.2,2,0.3,3,0.3l3.3,0.4
			c0.8,0.1,1.6,0.2,2.4,0.2s1.5-0.1,2.3,0c0.4,0,0.9,0,1.3,0c0.8-0.1,1.6,0.1,2.4,0c2.2-0.3,3.6-1.8,4.9-3.3
			c0.8-0.9,1.7-1.8,2.6-2.8c0.2-0.2,0.5-0.4,0.7-0.7s0.2-0.4,0.3-0.5s0.4-0.2,0.5-0.5c0.1-0.4,0.1-0.8,0-1.2
			C111.1,40.8,110.1,40.8,110.2,41.1L110.2,41.1z"/>
		<path class="st1" d="M98.9,29.5c-0.1,0.1-0.2,0.2-0.3,0.2c-0.2,0.1-0.5,0.2-0.7,0.3c-0.3,0.1-0.7,0.2-1,0.2
			c-0.7,0-1.4-0.1-2.1-0.3c-1.2-0.1-2.4,0-3.5,0.5c-0.5,0.2-1,0.4-1.6,0.6c-0.6,0.2-1.1,0.6-1.5,1.1c-0.7,0.6-1.3,1.3-1.8,2
			c-0.4,0.6-0.8,1.2-1.2,1.8c-0.6,0.9-1.1,1.8-1.6,2.8c-0.1,0.3,0.7,0.5,0.8,0.4c0.4-0.2,0.8-0.4,1.2-0.5s0.7-0.1,1-0.2s-0.1,0,0,0
			c0.1,0,0.2,0.1,0.3,0.1c0.2,0,0.4-0.1,0.5-0.2c0.4-0.5,0.5-1.3,0.8-1.9c0.4-0.7,0.9-1.4,1.3-2.2c0.5-1,1.2-1.9,1.9-2.7
			c0.5-0.7,1.2-1.2,2-1.5c0.5-0.2,1-0.4,1.4-0.5c0.4-0.2,0.8-0.3,1.1-0.4c0.5,0,1,0,1.4,0.1c0.3,0,0.6,0.1,0.9,0.1l0.3,0.1
			c0.2,0.1,0,0,0.1,0.1c0.7,0.3,1.3,0.8,1.9,1.2c0.5,0.5,1.1,0.9,1.7,1.4c1.1,0.9,1.9,2.1,3.2,2.7c0.4,0.2,0.7,0.3,1.1,0.4
			c0.5,0.1-0.1-0.1-0.1-0.1s0.2,0.3,0.3,0.4c0.4,0.6,0.7,1.2,1.1,1.7s0.9,1.1,0.9,1.7s-0.8,0.6-1.2,0.6c-0.2,0-0.2,0.1-0.1,0.3
			c0.2,0.1,0.5,0.2,0.7,0.2c0.4,0,0.9-0.1,1.3-0.3c0.6-0.3,0.4-1,0.1-1.5c-0.6-1-1.2-2.1-2-3c-0.3-0.4-0.7-0.4-1.2-0.5
			c-0.8-0.4-1.6-0.9-2.2-1.6c-0.6-0.6-1.2-1.1-1.8-1.5c-0.6-0.5-1.1-1.1-1.7-1.5c-0.5-0.3-1.1-0.7-1.6-0.9c-0.5-0.2-1.1-0.3-1.7-0.4
			c-0.9-0.2-1.8-0.2-2.7,0.1c-1,0.3-2,0.7-2.9,1.3c-0.8,0.6-1.5,1.4-2,2.2c-0.4,0.5-0.7,1.1-1,1.6c-0.2,0.5-0.5,0.9-0.7,1.3
			c-0.3,0.4-0.6,0.9-0.9,1.3c-0.1,0.4-0.2,0.8-0.4,1.1v0.1c-0.2,0.1-0.2,0.2,0,0.2c0,0,0.2,0,0,0s-0.3,0-0.4,0
			c-0.9,0.1-1.8,0.4-2.5,0.8l0.8,0.4c0.3-0.8,0.8-1.7,1.3-2.4c0.4-0.5,0.8-1.1,1.1-1.7c0.2-0.3,0.4-0.6,0.6-0.9
			c0.4-0.4,0.8-0.8,1.2-1.1c0.4-0.6,1-1.1,1.7-1.4c0.5-0.2,1-0.4,1.5-0.5c0.7-0.3,1.4-0.5,2.2-0.6c0.5,0,1,0,1.4,0.1
			c0.7,0.2,1.5,0.3,2.2,0.2c0.4,0,0.8-0.1,1.2-0.2c0.2,0,0.4-0.1,0.6-0.2c0.1-0.1,0.2-0.2,0.4-0.3S99.2,29.4,98.9,29.5L98.9,29.5z"
			/>
		<path class="st1" d="M118.4,17.9c0.3-0.4,0.6-0.8,0.8-1.2c0.1-0.4,0.3-1-0.1-1.3c-0.7-0.4-1.5-0.2-1.9,0.4
			c-0.3,0.5-0.4,1.2-0.7,1.8s-0.5,1.1-0.8,1.6c-0.2,0.5-0.5,0.9-0.8,1.3c-0.3,0.4-0.7,0.7-1,1.1c-0.1,0.2-0.2,0.3-0.3,0.5
			c-0.1,0.2-0.2,0.6-0.3,0.8s-0.3,0.1-0.4,0.2s-0.2,0.5-0.3,0.8c-0.1,0.3-0.2,0.6-0.4,0.9c-0.2,0.4-0.4,0.9-0.5,1.3
			c-0.7,1.4-1.6,2.7-2.8,3.8c-0.8,0.9-1.5,1.7-2.2,2.6c-0.4,0.6-0.9,1.2-1.4,1.7c-0.2,0.2,0.7,0.5,0.9,0.3c1-1,1.8-2.3,2.8-3.4
			c1-1.3,2.2-2.5,3.2-3.8c0.3-0.5,0.6-1,0.8-1.6c0.1-0.3,0.3-0.7,0.4-1c0.2-0.4,0.3-0.7,0.4-1.1c0.1-0.4,0.4-0.4,0.7-0.7
			c0.1-0.2,0.2-0.4,0.3-0.7c0.1-0.3,0.3-0.6,0.6-0.8c0.3-0.3,0.6-0.5,0.8-0.8c0.3-0.4,0.5-0.8,0.7-1.2c0.6-1.1,1-2.3,1.5-3.4
			c0-0.1,0.1-0.2,0.1-0.3c0.1-0.1,0.3-0.2,0.3-0.2h0.1c-0.3-0.2-0.3-0.2-0.2-0.1h-0.1c0,0.1,0,0.3,0,0.5c-0.1,0.6-0.4,1.2-0.8,1.6
			C117.3,17.8,118.3,18.1,118.4,17.9L118.4,17.9z"/>
		<path class="st1" d="M119.9,12.9c-0.2-0.1-0.2-0.4-0.4-0.6c-0.3-0.2-0.5-0.3-0.8-0.3c-0.6,0-1.1,0.2-1.4,0.7
			c-0.2,0.5-0.3,0.9-0.4,1.4c-0.2,0.5-0.3,1.1-0.6,1.6c-0.2,0.5-0.6,1-0.9,1.4c-0.3,0.5-0.6,1-0.8,1.6c-0.2,0.5-0.3,1.1-0.3,1.7
			c0,0.6,0.2,1.1,0.3,1.7c0,0.3,1,0.3,1,0c0-0.5-0.3-0.9-0.3-1.4c0-0.5,0-1.1,0.2-1.6c0.2-0.5,0.4-0.9,0.6-1.4
			c0.3-0.5,0.7-0.9,1-1.4c0.4-0.8,0.8-1.7,1-2.7c0.1-0.4,0.2-0.7,0.3-1c0-0.1,0.3-0.1,0.3-0.2s0.1-0.1-0.1-0.1
			c0.1,0,0.2,0.1,0.2,0.1c0.1,0.1,0.2,0.4,0.3,0.5S120.2,13.1,119.9,12.9L119.9,12.9z"/>
		<path class="st1" d="M121.5,20c-0.3-0.4-0.7-0.7-1.2-0.8c-0.7-0.2-1.4-0.3-2.1-0.3c-0.3,0-0.6,0-0.8,0s-0.7,0-1,0.1
			c-0.2,0-0.4,0-0.6,0.1s-0.6,0.3-0.9,0.4c-0.1,0-0.3,0.1-0.2,0.3c0.2,0.1,0.4,0.2,0.7,0.1c0.3-0.1,0.6-0.2,0.8-0.3
			c0.1,0,0.1,0,0.2-0.1c0.1,0-0.1,0,0,0h0.1c0.5,0,1-0.1,1.4-0.1c0.3,0,0.6,0,0.9,0s0.5,0.1,0.7,0.1c0.4,0,0.7,0.3,0.9,0.6
			C120.6,20.3,121.6,20.2,121.5,20L121.5,20z"/>
		<path class="st1" d="M109.1,20.9c-0.3,0.1-1.6,0.4-1,0.9c0.6,0.3,1.3,0.4,1.9,0.5c0.7,0.1,1.3,0.5,2,0.6s1.3,0.1,1.9,0.2
			c1,0,2-0.1,3-0.3c0.9-0.1,1.9-0.3,2.8-0.5c0.8-0.3,1.6-0.6,2.4-0.9c0.6-0.1,1.3-0.1,1.9-0.1c0.2,0,0.2-0.2,0.1-0.3
			c-0.2-0.1-0.4-0.2-0.7-0.2c-0.6,0-1.2,0-1.7,0c-0.4,0.1-0.7,0.2-1.1,0.4c-0.3,0.1-0.7,0.2-1,0.3c-0.7,0.3-1.5,0.5-2.3,0.5
			c-0.3,0-0.7,0.1-1,0.2c-0.6,0.1-1.2,0.2-1.8,0.3c-0.5,0-1,0-1.5-0.1c-0.7,0-1.3-0.2-1.9-0.4c-0.4-0.2-0.8-0.3-1.3-0.3
			c-0.4,0-0.7-0.1-1.1-0.2l0.1,0.2c0.4-0.2,0.8-0.4,1.2-0.6C110.2,21.1,109.4,20.8,109.1,20.9L109.1,20.9z"/>
		
			<linearGradient id="SVGID_12_" gradientUnits="userSpaceOnUse" x1="112.2136" y1="144.7863" x2="125.1136" y2="144.7863" gradientTransform="matrix(1 0 0 -1 -2.000000e-02 169.0153)">
			<stop  offset="0" style="stop-color:#3B3B3B"/>
			<stop  offset="0.46" style="stop-color:#3D3D3D"/>
			<stop  offset="0.62" style="stop-color:#444444"/>
			<stop  offset="0.74" style="stop-color:#4F4F4F"/>
			<stop  offset="0.83" style="stop-color:#606060"/>
			<stop  offset="0.91" style="stop-color:#767676"/>
			<stop  offset="0.98" style="stop-color:#919191"/>
			<stop  offset="1" style="stop-color:#999999"/>
		</linearGradient>
		<path class="st15" d="M113.4,24.7c0.7-0.5,1.5-0.9,2.3-1.1c1.1-0.2,2.1-0.3,3.2-0.3c2-0.1,4,0,6,0l-0.7-0.3l0,0v-0.2
			c-0.3,0.2-0.7,0.4-1.1,0.6c-0.5,0.2-0.9,0.5-1.4,0.6l-0.5,0.1c-0.6,0.2-1.2,0.3-1.8,0.4c-0.4,0.1-1,0.2-1.3,0.3
			c-0.7,0.1-1.4,0.1-2.2,0c-0.5,0-1.2,0-1.6,0c-0.5-0.1-1-0.3-1.4-0.5c-0.4-0.2-1,0-0.4,0.3c0.7,0.4,1.5,0.6,2.4,0.7
			c1.2,0.1,2.5,0.1,3.7,0c0.2,0,0.4-0.1,0.6-0.1c0.7-0.2,1.4-0.3,2.1-0.4c0.5-0.1,0.9-0.3,1.3-0.4c0.5-0.2,1-0.5,1.5-0.7
			c0.3-0.1,0.6-0.3,0.9-0.5c0,0,0.1-0.1,0-0.1c0,0,0,0,0,0c-0.3-0.2-0.6-0.3-1-0.3h-1.8c-1.2,0-2.4,0-3.6,0c-1.2,0-2.3,0.1-3.5,0.3
			c-0.9,0.3-1.8,0.7-2.6,1.2C112.4,24.5,113.2,25,113.4,24.7L113.4,24.7z"/>
		
			<linearGradient id="SVGID_13_" gradientUnits="userSpaceOnUse" x1="101.8436" y1="138.9696" x2="121.7636" y2="138.9696" gradientTransform="matrix(1 0 0 -1 -2.000000e-02 169.0153)">
			<stop  offset="0" style="stop-color:#3B3B3B"/>
			<stop  offset="0.46" style="stop-color:#3D3D3D"/>
			<stop  offset="0.62" style="stop-color:#444444"/>
			<stop  offset="0.74" style="stop-color:#4F4F4F"/>
			<stop  offset="0.83" style="stop-color:#606060"/>
			<stop  offset="0.91" style="stop-color:#767676"/>
			<stop  offset="0.98" style="stop-color:#919191"/>
			<stop  offset="1" style="stop-color:#999999"/>
		</linearGradient>
		<path class="st16" d="M102.7,29.4c1.3-0.4,2.7-0.5,4-0.4h3.5l-0.6-0.2c0.4,0.3,0.8,0.5,1.3,0.6c0.4,0.1,0.9,0.1,1.3,0.2
			c0.8,0.1,1.5,0.2,2.3,0.1c0.9-0.2,1.7-0.3,2.6-0.3c1.1-0.1,2.7-0.3,3.7,0.5l0.7-0.1c-0.8-0.4-1.9,0.2-2.6,0.6
			c-0.3,0.2-0.6,0.2-0.9,0.3c-0.9,0.1-1.8,0.1-2.7,0.1c-0.4,0-0.9-0.1-1.3-0.3c-0.3-0.1-0.7-0.1-0.8-0.2c-0.2-0.1-0.5-0.2-0.7-0.2
			c-0.7,0-1.5,0.1-2.2,0.4c-0.7,0.1-1.4,0.3-2,0.6c-0.2,0.1,0.2,0.3,0.3,0.3c0.2,0.1,0.4,0.1,0.6,0c0.7-0.3,1.4-0.5,2.1-0.6
			c0.3-0.1,0.6-0.1,0.9-0.2s0.4-0.1,0.7,0c0.6,0.2,1.2,0.3,1.8,0.5c0.4,0.1,0.7,0.1,1.1,0.1c0.7,0,1.4-0.1,2.2-0.1
			c0.6,0,1.1-0.1,1.7-0.3c0.2-0.1,0.3-0.2,0.5-0.3s0.5-0.2,0.8-0.3l0.3-0.1c0.4-0.1,0.3,0-0.3-0.2c0.2,0.1,1.1,0.2,0.7-0.1
			c-1.2-0.7-2.7-1.1-4.1-0.9c-1.2,0-2.4,0.2-3.6,0.4l-0.5,0.1c0.3,0,0.1,0,0,0l-0.5-0.1c-0.6,0-1.2-0.1-1.8-0.2
			c-0.6-0.1-0.7-0.5-1.3-0.5c-0.8,0-1.5,0-2.3,0c-1.8,0-3.8-0.3-5.5,0.4C101.7,29.1,102.5,29.5,102.7,29.4L102.7,29.4z"/>
		<path class="st1" d="M118.5,32.6c-0.2-0.1-0.5-0.2-0.7-0.2c-0.1,0-0.2,0-0.4-0.1c0,0-0.2,0-0.1,0h-0.1h0.1h0.1h0.1c0.1,0,0,0,0,0
			c0,0,0,0-0.1,0l-0.2-0.1l0,0l0,0l-0.1-0.1c-0.1-0.1-0.2-0.2-0.3-0.3l-0.2-0.2c-0.2-0.2-0.4-0.3-0.6-0.3l0.4,0.1
			c0.1,0.1,0.2,0.1,0.1,0.1c0,0-0.1-0.1-0.1-0.1c-0.2-0.1-0.3-0.1-0.5-0.2c-0.1,0-0.4,0-0.4,0.1s0.4,0.3,0.6,0.3l0,0l-0.3-0.1
			c-0.2-0.1-0.2-0.2-0.2-0.1c0,0,0.1,0.1,0.1,0.1c0.1,0.1,0.3,0.1,0.4,0.2l-0.3-0.1l0,0l-0.2-0.1c0,0-0.1-0.1,0,0l0,0l0.1,0.1
			l0.2,0.3c0.2,0.2,0.4,0.4,0.7,0.6c0.1,0.1,0.3,0.2,0.5,0.2h0.2h0.2c0.1,0-0.1,0,0,0l0,0h0.1h0.1l0,0l0,0l0.2,0.1
			c0.1,0,0.2,0.1,0.4,0.1c0.1,0,0.2,0,0.3-0.1C119,32.7,118.6,32.6,118.5,32.6L118.5,32.6z"/>
		<path class="st1" d="M102.9,30.8c1.1,0.1,2.2,0,3.2-0.1c0.4-0.1,0.9-0.2,1.3-0.4c0.4-0.1,0.7-0.2,1-0.5c0.3-0.3-0.7-0.4-0.9-0.2
			l-0.1,0.1c-0.1,0.1-0.1,0,0.1,0l-0.1,0l-0.7,0.2l-0.6,0.2l-0.1,0c0,0-0.1,0.1,0,0h-0.1l0,0h-0.2c-0.9,0.1-1.8,0.1-2.7,0.1
			c-0.2,0-0.5,0-0.6,0.2S102.8,30.8,102.9,30.8L102.9,30.8z"/>
		
			<linearGradient id="SVGID_14_" gradientUnits="userSpaceOnUse" x1="107.7136" y1="150.7408" x2="116.5636" y2="150.7408" gradientTransform="matrix(1 0 0 -1 -2.000000e-02 169.0153)">
			<stop  offset="0" style="stop-color:#3B3B3B"/>
			<stop  offset="0.46" style="stop-color:#3D3D3D"/>
			<stop  offset="0.62" style="stop-color:#444444"/>
			<stop  offset="0.74" style="stop-color:#4F4F4F"/>
			<stop  offset="0.83" style="stop-color:#606060"/>
			<stop  offset="0.91" style="stop-color:#767676"/>
			<stop  offset="0.98" style="stop-color:#919191"/>
			<stop  offset="1" style="stop-color:#999999"/>
		</linearGradient>
		<path class="st17" d="M108.4,18.7c0.3-0.1,0.5-0.3,0.7-0.4s0.7,0,1,0c0.5,0,1,0,1.5,0c0.2,0,0.5,0,0.6-0.1S112.1,18,112,18
			s0,0,0,0s-0.3,0.3-0.3,0.3c0,0,0.1,0,0.1,0c0.4,0.1,0.8,0.1,1.2,0c0.1,0,0.3,0,0.4,0c0.3,0,0,0-0.1-0.1c0.2,0.1,0.4,0.2,0.6,0.1
			c0.4,0,0.8,0,1.3,0c0.4-0.1,0.8-0.2,1.1-0.3c0.2-0.1,0.2-0.2,0-0.3c-0.2-0.1-0.5-0.1-0.7,0l-0.4,0.1c-0.1,0-0.2,0.1-0.3,0.1l0,0
			c-0.2,0-0.4,0-0.6,0h-0.2c0.2,0,0,0-0.1,0c-0.5-0.1-1-0.1-1.4,0c-0.4,0-1.1-0.2-1.4,0.1c0,0-0.1,0.1-0.1,0.1
			c0,0.1,0.2,0.2,0.4,0.2l0.4-0.4c-0.6-0.1-1.3-0.1-1.9,0c-0.4,0-0.8-0.1-1.2,0c-0.2,0-0.4,0.1-0.6,0.2c-0.1,0.1-0.2,0.2-0.3,0.2
			s-0.3,0.1-0.2,0.3S108.2,18.8,108.4,18.7L108.4,18.7z"/>
		<path class="st1" d="M95.6,8.6c0,0.3,0,0.7,0,1c0.1,0.4,0.2,0.8,0.3,1.3c0,0.4-0.1,0.8-0.2,1.3c0,0.5,0,0.9,0,1.4
			c-0.3,0.7-0.3,1.5-0.2,2.3c0.3,0.6,0.8,1,0.7,1.7s-0.1,1.4-0.2,2.1c0,0.2,0,0.5,0,0.7c0,0.5-0.2,1-0.5,1.4
			c-0.2,0.4-0.1,0.7-0.1,1.1c0,0.6-0.5,1.1-0.7,1.6c-0.3,0.7-0.4,1.4-0.3,2.1c0,0.1,0.1,0.2,0.1,0.3c0.1,0.2,0.2,0.4,0.2,0.6
			c0,0.6,0.1,1.2,0,1.8s0,1.8,0.7,2.2c0.2,0.1,1.2,0,0.7-0.3c-0.3-0.1-0.4-0.8-0.5-1.1c-0.1-0.5,0.1-0.9,0.1-1.4s0-1,0-1.5
			s-0.3-0.5-0.3-0.7c-0.1-0.8,0-1.6,0.4-2.3c0.3-0.4,0.4-0.8,0.6-1.2c0.1-0.5-0.1-0.9,0.2-1.3c0.3-0.3,0.4-0.7,0.5-1.1
			c0-0.3,0-0.6,0-0.9c0-0.7,0.1-1.4,0.2-2c0.1-0.5-0.1-1-0.4-1.4c-0.2-0.3-0.4-0.6-0.4-0.9c0-0.4,0.1-0.9,0.2-1.3
			c0.1-0.4,0.1-0.9,0.1-1.4c0-0.5,0-0.9,0.1-1.4c0-0.4,0-0.9-0.2-1.3c-0.1-0.4-0.1-0.9-0.1-1.3c0-0.3-1-0.3-1,0L95.6,8.6z"/>
		<path class="st1" d="M95.9,13.9c0.7,0.5,1.2,1.2,1.4,2c0.1,0.5,0.1,1,0.2,1.6c0,0.1,0.1,0.2,0.2,0.4c0.1,0.3,0.1,0.7,0.1,1
			c0,0.4,0,0.8,0,1.2c0,0.4,0,0.8,0,1.2c-0.1,0.6-0.2,1.3-0.2,1.9c0.1,0.7,0.1,1.5-0.1,2.2c-0.2,0.4-0.4,0.8-0.5,1.3
			c-0.1,0.3-0.1,0.7,0,1.1c0.2,0.6,0.5,1.2,0.9,1.6c0.2,0.2,1.1,0,0.9-0.3c-0.3-0.3-0.6-0.8-0.8-1.2c-0.1-0.3-0.2-0.7-0.2-1
			c0.1-0.4,0.3-0.7,0.4-1.1c0.3-0.5,0.4-1.2,0.4-1.8c-0.1-0.5-0.1-1-0.1-1.5c0-0.5,0.2-1,0.2-1.6s0-1.2,0-1.8c0.1-0.5,0-1-0.1-1.4
			c-0.1-0.3-0.2-0.6-0.2-0.8c0-1.3-0.7-2.5-1.7-3.2C96.5,13.4,95.6,13.7,95.9,13.9L95.9,13.9z"/>
		<path class="st1" d="M94.1,13.9c-0.1,0-0.2,0-0.3,0.1h-0.1l0,0c0,0,0.1,0,0,0h0.1l0,0h-0.1c-0.1-0.1-0.3-0.1-0.4-0.1l-0.4-0.1l0,0
			H93c0-0.1,0-0.2,0-0.2c0-0.1,0-0.1,0-0.2c0-0.1,0.3-0.1,0.4-0.2l0.4-0.1H94c0,0,0.1,0,0.1,0s-0.1,0-0.1,0l0,0h0.4
			c0.3,0,0.5,0,0.8,0c0.2-0.1,0.5-0.2,0.7-0.2c0.2-0.1,0.5-0.1,0.7-0.2c0.2-0.1,0.2-0.2,0-0.3c-0.2-0.1-0.5-0.1-0.7,0l-0.3,0.1
			c-0.1,0-0.2,0.1-0.3,0.1l-0.4,0.1l-0.2,0.1c-0.1,0-0.1,0,0,0s-0.1,0,0,0h-0.2l-0.6,0h-0.4h-0.1h-0.3c-0.3,0-0.6,0.1-0.9,0.2
			c-0.2,0.1-0.4,0.2-0.4,0.4c0,0.2,0,0.4,0.2,0.6c0.2,0.1,0.5,0.2,0.7,0.2c0.3,0.1,0.7,0.2,1,0.2c0.2,0,0.4,0,0.6-0.1h0.1
			c0.1,0,0,0-0.1,0c0.1,0,0.4,0,0.4-0.2S94.2,13.9,94.1,13.9L94.1,13.9z"/>
		<path class="st1" d="M97.3,13.8c0-0.3,0.2-0.6,0.4-0.8c0.2-0.2,0.4-0.2,0.7-0.2s0.8,0,1.2,0s0.6,0,0.9,0s-0.2-0.1,0,0l0.2,0.1
			c0.2,0.1,0.5,0.1,0.7,0.1c0.2,0,0.7-0.1,0.8-0.4s-0.3-0.3-0.4-0.5c-0.2-0.2-0.4-0.4-0.7-0.3c-0.4,0.1-0.9,0.2-1.2,0.5
			c-0.2,0.1,0,0.3,0.1,0.3c0.2,0.1,0.5,0.1,0.7,0l0.2-0.1c0.2-0.1,0.3-0.2,0.5-0.3s-0.5,0.1-0.6-0.2c0,0,0,0.1,0,0.1
			c0.1,0.1,0.2,0.2,0.3,0.3c0,0,0.1,0,0.1,0.1s-0.1,0.1-0.1,0.1c0.2,0,0.2,0,0.1,0H101c-0.1,0-0.2-0.1-0.3-0.1c-0.2,0-0.4,0-0.6,0
			c-0.9-0.1-1.7-0.1-2.6,0c-0.3,0-0.6,0.1-0.9,0.4c-0.2,0.3-0.4,0.6-0.4,0.9C96.3,14,97.3,14.1,97.3,13.8L97.3,13.8z"/>
		
			<linearGradient id="SVGID_15_" gradientUnits="userSpaceOnUse" x1="86.4136" y1="150.0706" x2="96.8736" y2="150.0706" gradientTransform="matrix(1 0 0 -1 -2.000000e-02 169.0153)">
			<stop  offset="0" style="stop-color:#3B3B3B"/>
			<stop  offset="0.46" style="stop-color:#3D3D3D"/>
			<stop  offset="0.62" style="stop-color:#444444"/>
			<stop  offset="0.74" style="stop-color:#4F4F4F"/>
			<stop  offset="0.83" style="stop-color:#606060"/>
			<stop  offset="0.91" style="stop-color:#767676"/>
			<stop  offset="0.98" style="stop-color:#919191"/>
			<stop  offset="1" style="stop-color:#999999"/>
		</linearGradient>
		<path class="st18" d="M92.5,18.7c-0.5,0-1,0-1.4,0.2C90.7,19,90.2,19,89.8,19h-2.4c-0.1,0-0.3-0.1-0.1,0l0.2,0.1
			c0.1-0.1,0.3-0.2,0.4-0.3c0.4-0.3,0,0-0.1-0.1c0.1,0,0.2,0,0.3,0c0.5,0,1.1,0,1.6,0c0.4,0,0.7-0.2,1.1-0.2c0.4,0,0.8,0.1,1.2,0.2
			h0.3c0.1,0-0.1,0,0,0s0.3,0.2,0.5,0.2c0.4,0.2,0.8,0.3,1.1,0.4c0.5,0.2,1.1,0.3,1.6,0.4c0.5,0.1,0.9,0,1.3-0.3
			c0.2-0.1-0.1-0.2-0.2-0.3c-0.2-0.1-0.5,0-0.7,0.1c-0.2,0.1-0.4,0-0.7,0c-0.4-0.1-0.7-0.2-1.1-0.4c-0.4-0.1-0.8-0.3-1.2-0.5
			c-0.2,0-0.3-0.1-0.5-0.1c-0.3,0-0.5-0.1-0.8-0.2c-0.5-0.1-1,0-1.5,0.1c-0.3,0.1-0.5,0.1-0.8,0.1c-0.4,0-0.7,0-1.1,0
			c-0.5,0-1,0.1-1.4,0.4c-0.2,0.2-0.8,0.5-0.3,0.6c0.5,0.1,1,0.1,1.6,0h2.2c0.3,0,0.6,0,0.9-0.1c0.3-0.1,0.7-0.2,1-0.2
			c0.1,0,0.6,0,0.6-0.2S92.6,18.7,92.5,18.7L92.5,18.7z"/>
		<path class="st1" d="M98.7,19.1c0.5-0.1,1.1-0.1,1.6-0.1c0.8,0,1.7,0,2.5,0c0.4,0,0.8,0,1.2,0s0.7-0.1,1-0.1s0.8,0,1.2,0
			c0.3,0,0.5,0,0.8,0.1c0.1,0,0.2,0,0.2,0.1s0.1,0,0,0c-0.1,0.2-0.3,0.3-0.5,0.3c-0.2,0.1-0.4,0.2-0.7,0.3c-0.3,0.1-0.6,0.1-0.9,0
			c-0.2,0-0.6-0.1-0.8,0c0.1-0.1,0.4,0.1,0.2,0c-0.1,0-0.2-0.1-0.3-0.1c-0.3,0-0.7,0-1,0.1l-1,0.3l-0.3,0.1c0,0,0,0-0.1,0
			s-0.3,0-0.2,0s-0.1-0.1-0.1-0.1c-0.1-0.1-0.2-0.2-0.4-0.2c-0.3-0.1-0.6-0.1-0.9,0c-0.2,0.1-0.5,0.2-0.7,0.2c-0.1,0-0.3,0-0.4,0
			c-0.1,0-0.3,0-0.3,0c-0.2-0.1-0.5,0-0.7,0.1c-0.1,0.1-0.2,0.2,0,0.3c0.6,0.1,1.3,0.1,1.9-0.1c0.2,0,0.4-0.1,0.6-0.2
			c0.1,0,0.1,0,0.1,0h-0.2l0.1,0.1c0.2,0.2,0.4,0.3,0.6,0.3c0.6,0,1.2,0,1.8-0.2l0.7-0.2c0.4-0.1,0,0,0-0.1l0,0
			c0.2,0.2,0.5,0.1,0.7,0.1c0.3,0,0.5,0,0.8,0c0.4,0,0.9-0.1,1.3-0.2c0.4-0.1,1.7-0.4,1.6-1c0-0.3-0.4-0.3-0.6-0.3
			c-0.3-0.1-0.7-0.2-1-0.2c-0.4,0-0.8,0-1.2,0s-0.9,0.1-1.3,0.1s-1.1-0.1-1.6,0s-1.1,0-1.7,0c-0.8,0-1.6,0-2.4,0.1
			c-0.1,0-0.4,0.1-0.3,0.3s0.5,0.1,0.6,0.1L98.7,19.1z"/>
		
			<linearGradient id="SVGID_16_" gradientUnits="userSpaceOnUse" x1="83.672" y1="144.4742" x2="96.242" y2="144.4742" gradientTransform="matrix(1 0 0 -1 -2.000000e-02 169.0153)">
			<stop  offset="0" style="stop-color:#3B3B3B"/>
			<stop  offset="0.46" style="stop-color:#3D3D3D"/>
			<stop  offset="0.62" style="stop-color:#444444"/>
			<stop  offset="0.74" style="stop-color:#4F4F4F"/>
			<stop  offset="0.83" style="stop-color:#606060"/>
			<stop  offset="0.91" style="stop-color:#767676"/>
			<stop  offset="0.98" style="stop-color:#919191"/>
			<stop  offset="1" style="stop-color:#999999"/>
		</linearGradient>
		<path class="st19" d="M92.4,25.4c-0.6,0.1-1.3,0.1-1.9,0c-0.8,0-1.6,0-2.4-0.1s-1.7-0.2-2.6-0.3c-0.6-0.2-1.2-0.2-1.7-0.1l0.8,0.4
			c0.9-0.4,1.9-0.6,2.9-0.7c0.3-0.1,0.6-0.1,0.8-0.3c0.4-0.2,0.9-0.3,1.4-0.3c0.9-0.1,1.8-0.2,2.8-0.3c0.5-0.1,1.1-0.1,1.6,0.1
			c0.5,0.2,1,0.4,1.4,0.6s1-0.1,0.3-0.3s-1.1-0.5-1.6-0.7c-0.7-0.3-1.4-0.3-2.1-0.2c-1,0.1-1.9,0.2-2.9,0.3c-0.6,0-1.1,0.1-1.6,0.3
			c-0.3,0.1-0.6,0.2-0.9,0.3c-1.1,0.1-2.1,0.4-3.1,0.8c-0.2,0.1,0.2,0.3,0.2,0.3c0.2,0.1,0.4,0.1,0.6,0.1c-0.2,0.1-0.2,0,0,0
			l0.4,0.1l1.3,0.2c0.8,0.1,1.6,0.2,2.3,0.3s1.7,0,2.5,0c0.6,0.1,1.2,0.1,1.8,0C93.5,25.7,92.6,25.3,92.4,25.4L92.4,25.4z"/>
		<path class="st1" d="M96.6,24.6c0.5-0.2,1.1-0.4,1.6-0.5c0.4,0,1,0,1.4,0c1.2,0,2.4-0.1,3.6,0c0.6,0,1.3,0,1.9-0.2
			c1-0.2,2.1-0.2,3.1,0c0.3,0.1,0.5,0.1,0.8,0.1c0,0,0.3,0,0-0.1c-0.2-0.1-0.1-0.1-0.3,0s-0.4,0.3-0.6,0.4c-0.6,0.3-1.2,0.5-1.8,0.6
			c-0.6,0.1-1.1,0.2-1.7,0.3c-0.8,0.1-1.6,0-2.4-0.1c-0.2-0.1-0.5-0.1-0.7,0c-0.1,0.1-0.2,0.2,0,0.3c0.8,0.2,1.6,0.3,2.4,0.3
			c0.6,0,1.3,0,1.9-0.1c0.7-0.1,1.3-0.2,1.9-0.4c0.5-0.2,0.9-0.3,1.4-0.6c0.3-0.1,0.6-0.4,0.9-0.6c0,0,0-0.1,0-0.1
			c-0.2-0.3-0.8-0.2-1.2-0.2c-0.7-0.1-1.5-0.2-2.3-0.3c-0.8,0-1.6,0.3-2.4,0.4c-0.7,0-1.3,0-2,0c-1.1,0-2.1,0.1-3.2,0
			c-0.4,0-0.8,0-1.3,0c-0.5,0.1-1,0.3-1.6,0.5s0.2,0.4,0.5,0.4L96.6,24.6z"/>
		<path class="st1" d="M79.3,24c-0.3-0.2-0.5-0.5-0.8-0.6c-0.4-0.2-0.7-0.6-0.8-1c-0.2-0.4-0.3-0.9-0.4-1.4c0-0.5,0-1,0-1.4
			c0-0.3-0.1-0.5-0.3-0.7c-0.3-0.4-0.7-0.7-1.1-1.1c-0.6-0.6-1.1-1.3-1.3-2.1c-0.1-0.6-0.2-1.2-0.2-1.9c0-0.3,0-0.5,0-0.8
			c0-0.3,0-0.6,0-0.9l0,0c-0.2,0-0.3,0-0.2,0c0.2,0,0.1,0.1,0,0l0.2,0.2c0.3,0.2,0.5,0.4,0.8,0.6c0.4,0.4,0.7,1,0.8,1.5
			c0.1,0.3,0.2,0.6,0.4,0.8c0,0,0.1,0.1,0.2,0.1s0.1-0.2-0.1-0.1c0,0,0.1,0.7,0.1,0.7c0.1,0.3,0.2,0.6,0.5,0.8
			c0.4,0.3,0.8,0.8,0.9,1.4c0.3,1.3,0.5,2.7,0.6,4.1c0,1.2,0,2.4,0.2,3.6c0.1,0.6,0.3,1.3,0.4,1.9c0.1,0.7,0.4,1.3,1,1.7
			c0.2,0.1,0.4,0.2,0.6,0.3s0.5,0.5,0.8,0.8c0.2,0.1,0.4,0.3,0.5,0.5c0.1,0.2,0.2,0.5,0.2,0.7c0.2,0.4,0.5,0.6,0.8,1
			c0.2,0.3,0.3,0.6,0.3,1c0,0.5,0.2,1,0.4,1.5c0.2,0.4,0.4,0.7,0.7,1c0.3,0.2,0.6,0.4,0.9,0.4c0.1,0,0.2,0,0.3,0
			c-0.2-0.2-0.4-0.2-0.4,0c0,0.1-0.1,0.2-0.2,0.2c-0.1,0.1-0.2,0.3-0.3,0.4l0.9,0.2c-0.3-0.3-0.5-0.6-0.9-0.8
			c-0.2-0.1-0.4-0.2-0.7-0.3l-0.5-0.2c-0.5-0.3-0.7-1-0.9-1.5c-0.3-0.5-0.4-1.1-0.5-1.7c-0.2-0.6-0.1-1.3,0.1-1.9
			c0.4-0.6,1-0.9,1.7-1c0.4-0.1,0.9-0.1,1.3-0.1c0.3,0.1,0.6,0.2,0.9,0.3s0.6,0.1,0.9,0.2l0.3,0c0.2,0-0.1-0.1,0,0s0.5,0.3,0.7,0.1
			s0.1-0.2-0.1-0.3c-0.5-0.2-1-0.4-1.5-0.4c-0.7-0.2-1.5-0.4-2.3-0.5c-1.3,0.1-3.1,0.5-3.1,2.1c0,1.3,0.4,2.6,1.1,3.8
			c0.3,0.5,0.8,0.9,1.3,1.1c0.5,0.2,0.9,0.4,1.3,0.8c0.2,0.2,0.7,0.5,0.9,0.2s0.7-0.5,0.6-0.9c-0.1-0.3-0.4-0.5-0.8-0.5
			c0,0-0.6,0-0.6,0c0-0.1,0.3,0.4,0.2,0c0-0.1-0.1-0.2-0.1-0.3c-0.3-0.4-0.5-0.9-0.6-1.4c-0.1-0.4-0.2-0.8-0.3-1.2
			c-0.1-0.2-0.3-0.5-0.5-0.6c-0.2-0.2-0.4-0.4-0.5-0.6c-0.1-0.2-0.1-0.4-0.2-0.7c-0.2-0.4-0.5-0.5-0.8-0.8c-0.4-0.4-0.8-0.7-1.2-1
			c-0.4-0.2-0.7-0.6-0.7-1.1c-0.2-0.7-0.3-1.4-0.4-2.1c-0.2-1.3-0.2-2.5-0.2-3.8c0-0.6-0.2-1.2-0.2-1.8c0-0.5-0.1-0.9-0.2-1.4
			c-0.1-0.5-0.2-1.1-0.5-1.6c-0.2-0.4-0.6-0.6-0.8-0.9s-0.1-0.9-0.3-1.3c-0.1-0.1-0.1-0.1-0.2-0.2c-0.3-0.2,0.1,0.1,0.1,0.1
			l-0.2-0.3c-0.2-0.4-0.3-0.8-0.5-1.2c-0.1-0.2-0.2-0.5-0.3-0.7c-0.2-0.2-0.4-0.5-0.7-0.6c-0.5-0.5-1.1-0.8-1.7-0.9
			c-0.6-0.1-0.6,0.6-0.6,1s0,1.1,0.1,1.7c0,0.5,0.1,0.9,0.2,1.4c0.2,0.4,0.4,0.9,0.7,1.3c0.3,0.4,0.6,0.7,1,1c0.3,0.3,0.9,0.8,1,1.3
			c0,0.6,0,1.1,0.1,1.7c0.1,0.5,0.3,1,0.5,1.4c0.2,0.4,0.4,0.8,0.8,1c0.3,0.1,0.5,0.3,0.7,0.4c0.2,0.2,0.4,0.3,0.6,0.4
			C79.4,24.4,80,24.2,79.3,24L79.3,24z"/>
		<path class="st1" d="M82.9,37.7c0,0-0.3,0-0.2,0H82.9c0.1,0,0.2,0,0.3,0c0.2-0.1,0.4-0.1,0.5-0.3c0.1-0.1,0,0,0,0l0,0
			c0,0-0.1,0.1-0.2,0.1l0,0h0.2c0.2,0,0.4-0.1,0.5-0.2c0.3-0.2-0.5,0.2-0.7,0l0.1,0.1c0.1,0.1,0.2,0.2,0.3,0.4l0.1,0.1l0,0l0,0l0,0
			c0,0.1,0,0.1,0,0.2l0,0l0,0c-0.1,0.2,0.3,0.2,0.4,0.2c0.1,0,0.3,0,0.4,0c0.1,0,0.2-0.1,0.2-0.1c0-0.1,0-0.2,0-0.2
			c0-0.1,0-0.2-0.1-0.3c-0.2-0.2-0.3-0.4-0.5-0.6C84.4,37,84.2,36.9,84,37c-0.2,0-0.3,0-0.4,0.1c0,0-0.1,0-0.1,0l0,0l0,0
			c0,0-0.1,0,0,0l0,0h-0.2c-0.1,0-0.2,0.1-0.4,0.1c-0.1,0-0.1,0.1-0.2,0.1c0,0,0,0-0.1,0s-0.1,0,0,0l0,0h0.1c-0.1,0,0.1,0,0,0h-0.1
			c-0.1,0-0.2,0-0.3,0.1c-0.1,0-0.3,0.2-0.2,0.3C82.4,37.7,82.6,37.7,82.9,37.7L82.9,37.7z"/>
		<path class="st1" d="M77.1,19.6c0.2,0,0.4,0,0.7,0h1h0.2c-0.2,0-0.2,0-0.1,0c0.1,0,0.1,0,0.2,0c0.3,0,0.6,0.1,0.9,0.1
			c0.6,0,1.1,0.1,1.7,0.2c0.4,0.1,0.8,0.1,1.2,0.1c0.2,0,0.5,0,0.6-0.2s-0.3-0.2-0.4-0.2c-0.1,0-0.2,0-0.3,0c-0.1,0,0.1,0,0,0h-0.1
			l-0.8-0.1c-0.6-0.1-1.3-0.1-1.8-0.2c-0.3,0-0.7-0.1-1-0.2h-0.7c-0.5,0-1,0-1.5,0c-0.1,0-0.4,0.1-0.3,0.3S76.9,19.6,77.1,19.6
			L77.1,19.6z"/>
		<path class="st1" d="M67.1,20.6c0.5-0.2,1-0.3,1.5-0.4H70c0.6,0,1.3,0.1,1.9,0.1c1,0.1,2,0.3,3.1,0.5c0.1,0,0.6,0.1,0.6-0.1
			s-0.2-0.2-0.3-0.3c-1.2-0.2-2.4-0.4-3.6-0.5c-0.7-0.1-1.5-0.1-2.2-0.1c-0.6,0-1.1,0-1.7,0c-0.5,0.1-1,0.2-1.5,0.4
			c-0.2,0.1-0.2,0.2,0,0.3C66.6,20.6,66.9,20.6,67.1,20.6L67.1,20.6z"/>
		<path class="st1" d="M71.4,28.6c0.3-0.1,0.7-0.3,1-0.5c0.2-0.1,0.5-0.1,0.7-0.1c0.3-0.1,0.7-0.1,1-0.1c0.2,0,0.5,0,0.7,0
			s0.6,0,1,0h0.4h0.2c0.5,0,1-0.1,1.6-0.1c0.2,0,0.3,0,0.3-0.2s-0.5-0.3-0.6-0.3c-0.3,0-0.6,0-0.9,0c-0.2,0-0.5,0.1-0.7,0.1
			c-0.6,0-1.2,0.1-1.7,0c-0.2,0-0.4,0-0.7,0c-0.4,0-0.7,0.1-1.1,0.1c-0.3,0-0.5,0.1-0.8,0.1c-0.3,0.2-0.7,0.4-1.1,0.5
			c-0.2,0.1,0,0.3,0.1,0.3C71,28.6,71.2,28.7,71.4,28.6L71.4,28.6z"/>
		<path class="st1" d="M77.9,35.9c-0.1-0.1-0.2-0.2-0.4-0.3c-0.4-0.1-0.8-0.1-1.2-0.1c-0.7,0-1.5,0-2.1,0l0.2,0.1c0,0.1,0,0.1,0.1,0
			l0.2-0.1l0.2-0.1c0.2-0.1,0.4-0.2,0.7-0.2c0.4-0.1,0.8-0.2,1.2-0.3c0.8-0.2,1.6-0.3,2.5-0.3c0.5,0,1,0,1.6-0.1c0.2,0,0.4,0,0.6,0
			c0.2,0.1,0.4,0.2,0.6,0.2c0.8,0.1,1.6,0.1,2.5,0c0.1,0,0.6-0.1,0.6-0.2s-0.3-0.2-0.4-0.2h-1.2c-0.2,0-0.4,0-0.7-0.1
			c-0.2,0-0.5-0.1-0.7-0.2c-0.6-0.1-1.1-0.1-1.7,0c-0.4,0-0.9,0-1.3,0c-1,0.1-2,0.3-3,0.5c-0.8,0.2-2.1,0.5-2.6,1.2c0,0,0,0.1,0,0.1
			c0.2,0.1,0.4,0.1,0.6,0.1h2.2c0.2,0,0.5,0.1,0.6,0.2c0.2,0.1,0.4,0.1,0.6,0C77.6,36.2,78,36,77.9,35.9L77.9,35.9z"/>
		<path class="st1" d="M77.4,36c0-0.2,0.1-0.3,0.1-0.5v0.1c0-0.1,0.1-0.2,0.1-0.3l0.1-0.1c0,0,0.1-0.1,0,0s0,0,0,0l0,0l0.1-0.1
			l0.2-0.1l0.4-0.2l0,0l0,0l0,0l0,0c0,0,0.2-0.1,0.1-0.1s-0.1-0.1-0.2-0.1c-0.1,0-0.2,0-0.4,0c-0.1,0-0.2,0-0.3,0.1
			c-0.2,0.1-0.4,0.2-0.6,0.3c-0.2,0.1-0.3,0.3-0.4,0.5c-0.1,0.3-0.2,0.5-0.2,0.8c0,0.1,0.1,0.1,0.2,0.1c0.1,0,0.2,0,0.4,0
			c0.1,0,0.2,0,0.3-0.1C77.3,36.1,77.4,36,77.4,36L77.4,36z"/>
		<path class="st1" d="M32,35.3c-0.1,0.5-0.4,1.4,0.1,1.7c0.5,0.3,1.8,0.1,2.4,0c1.5-0.2,3.1-0.3,4.7-0.5c3.2-0.4,6.4-0.6,9.6-0.6
			h4.7c1.7,0,3.5,0.2,5.2,0.3c1,0.1,2,0.4,3,0.7c0.8,0.2,1.7,0.4,2.5,0.6c0.5,0.1,1,0.1,1.5,0c0.7,0,1.4,0,2.1,0
			c1.2,0,2.3,0.1,3.5,0.2c0.3,0,0.6,0,0.9,0c0.4,0,0.3-0.1,0.6,0.1c0.5,0.2,0.9,0.5,1.4,0.8c1.1,0.3,2.2,0.5,3.4,0.6
			c2.1,0.3,4.3,0.5,6.5,0.4l-0.6-0.2c0.3,0.4,0.7,0.6,1.1,0.5c0.1,0,0.2,0,0.3,0c0.2,0,0.1,0-0.3,0c0.1,0.1,0.1,0.1,0.1,0.2
			c0.1,0.2,0.1,0.4,0,0.5c-0.1,0.2-0.1,0.2-0.3,0.2c-0.7,0-0.2,0.4,0.2,0.4c0.7,0,1.4-0.1,1.1-0.9c-0.1-0.3-0.3-0.6-0.7-0.8
			c-0.3-0.1-0.6-0.1-0.9,0l0.5,0.1c-0.4-0.2-0.4-0.5-0.9-0.5c-0.3,0-0.6,0-0.9,0c-1,0-1.9,0-2.8-0.1c-0.7-0.1-1.3,0-2-0.2
			c-0.6-0.1-1.2-0.2-1.8-0.3c-0.9-0.1-1.8-0.4-2.6-0.9c-0.3-0.2-0.6-0.3-1-0.4c-0.5-0.1-1,0-1.6,0c-1.2-0.1-2.4-0.2-3.6-0.2
			c-1.2,0.1-2.3,0.1-3.5-0.1C63.7,37,63.4,37,63,36.9s-1-0.3-1.5-0.4c-1.9-0.5-3.9-0.7-5.9-0.8c-1.6-0.1-3.2-0.1-4.8-0.1
			c-2.9-0.1-5.8,0-8.8,0.3c-2,0.2-4,0.5-6,0.7c-0.8,0.1-1.6,0.1-2.4,0.2c-0.2,0-0.5,0-0.7,0.1c-0.4,0.1,0.1,0.1,0,0.1
			c0-0.1,0-0.2,0-0.3c0-0.4,0-0.7,0.1-1.1C33.1,35.2,32.2,35,32,35.3L32,35.3z"/>
		<path class="st1" d="M34.9,39.3h-0.4c0,0-0.2,0-0.1,0h-0.1h-0.2c-0.1,0,0.1,0,0,0H34c-0.3-0.1-0.7-0.1-1,0c0,0-0.2,0.1-0.2,0H33
			c-0.2-0.1-0.5-0.1-0.7-0.1c-0.1,0-0.3,0-0.4,0.1h-0.1c0,0-0.1,0-0.1,0c-0.1,0,0.1,0,0,0h0h0.1l0,0c-0.2-0.1-0.5-0.1-0.7-0.1
			c-0.2,0.1-0.2,0.2,0,0.3c0.4,0.1,0.8,0.2,1.2,0.1c0.1,0,0.3-0.1,0.3-0.1s-0.2,0-0.1,0s-0.1,0,0,0c0.3,0.1,0.5,0.1,0.8,0.1l0.4-0.1
			c0,0,0.1,0,0,0h0.1c-0.1,0,0,0,0,0l0,0c0,0,0.1,0,0.1,0c0,0-0.1,0,0,0c0.4,0.1,0.9,0.1,1.3,0c0.1,0,0.4,0,0.4-0.2
			s-0.5-0.2-0.6-0.2L34.9,39.3z"/>
		<path class="st1" d="M79.4,44.3c-0.2,0.1-0.4,0.1-0.5,0.3s0.6,0,0.4-0.2c-0.1,0-0.2,0-0.3,0c-0.3,0-0.5,0-0.8,0
			c-1-0.1-1.9-0.3-2.9-0.5c-0.4-0.1-0.8-0.2-1.2-0.2c-0.3,0,0,0-0.2,0c-0.4,0-0.8,0-1.2,0c-2.3,0-4.5-0.4-6.8-0.4c-1,0-1.9,0-2.8,0
			c-0.5,0-1,0-1.5,0c-0.3,0-0.6,0-0.8,0c-0.3,0-0.6-0.2-0.8-0.2c-0.7-0.1-1.4-0.1-2,0l-2.6,0.2c-1.5,0.1-3,0.2-4.5,0.2
			c-3.3-0.1-6.7,0-10.1-0.3c-1.6-0.1-3.1-0.1-4.7-0.2c-1.4-0.1-2.8-0.2-4.2-0.2c-0.2,0-0.6,0-0.7,0.2s0,0.2,0.2,0.3
			c1.2,0.1,2.4,0.2,3.6,0.2s2.7,0,4,0.1c1.7,0.1,3.3,0.3,5,0.3c1.8,0,3.7,0,5.5,0.1c3,0,6-0.1,9-0.4c0.6,0,1.1,0,1.6,0.2
			c0.5,0.1,1,0.1,1.5,0c1.1,0,2.2,0,3.4,0c0.8,0,1.7,0,2.6,0c1.2,0.1,2.4,0.3,3.6,0.3c1,0.1,2,0.1,3,0c0.2,0-0.3-0.1,0,0
			s0.7,0.1,1,0.2c1,0.2,2.1,0.4,3.2,0.5c0.4,0.1,0.9,0.1,1.3,0c0.1,0,0.3-0.1,0.4-0.2c0.2-0.2,0,0-0.1,0
			C80.4,44.3,79.9,44.1,79.4,44.3L79.4,44.3z"/>
		<path class="st1" d="M31.1,23.3c-0.6,0.2-0.8,1.5-0.8,2c0,0.5-0.1,1-0.2,1.4c-0.2,0.6-0.3,1.1-0.4,1.7c0,0.9,0,1.8,0.2,2.7
			c0.1,0.7,0.2,1.5,0.3,2.2c0.2,2.2,0.3,4.4,0.4,6.7c0,0.5,0.1,1,0.1,1.6s-0.1,1.1,0,1.6c0.1,1,0.5,2.1,0.3,3
			c-0.1,0.3-0.2,0.6-0.2,0.9c-0.4,1.5-1,2.8-1.4,4.3c-0.5,1.6-0.7,3.3-0.6,5c0,1,0.2,2,0.6,3c0.4,0.9,0.7,1.9,1,2.9
			c0.2,0.9,0.3,1.9,0.3,2.8c0.2,1,0.4,2,0.9,2.9c0.3,0.9,0.6,1.8,0.8,2.7c0.1,0.4,0.1,0.9,0.1,1.4c0,0.3,1,0.3,1,0
			c0-0.4,0-0.7,0-1.1c-0.2-0.7-0.4-1.5-0.7-2.2c-0.3-0.9-0.7-1.8-1-2.7c-0.2-0.9-0.3-1.8-0.3-2.7c-0.1-0.7-0.2-1.3-0.4-2
			c-0.3-1-0.8-1.9-1-2.8c-0.4-1.8-0.5-3.7-0.1-5.6c0.3-1.4,0.7-2.7,1.2-4c0.5-1.1,0.7-2.3,0.8-3.5c-0.2-1.1-0.3-2.1-0.3-3.2
			c0-0.3,0-0.6,0-0.9c-0.1-1.9-0.2-3.7-0.3-5.6c-0.1-1.1-0.2-2.2-0.3-3.4c-0.1-0.9-0.3-1.8-0.4-2.8c0-1,0.1-2,0.4-3
			c0.1-0.5,0.1-1.1,0.2-1.7c0-0.3,0.2-1.3,0.5-1.4c0.3-0.1,0.1-0.2,0-0.3C31.6,23.2,31.3,23.2,31.1,23.3L31.1,23.3z"/>
		<path class="st6" d="M1.7,62.7C2.5,63.3,3,64.1,3,65.1c0.1,0.8,0.3,1.7,0.3,2.5c0.1,1,0.1,2.1,0.1,3.1c-0.1,0.7-0.3,1.4-0.5,2
			c-0.4,1.2-0.8,2.4-1.2,3.6S1,78.7,0.6,79.8c-0.3,0.7-0.5,1.5-0.6,2.2c0,0.4,0,0.7,0,1s0.1,0.8,0,1.2c-0.1,0.2,0.9,0.3,1,0
			s0-0.7,0-1s0-0.7,0-1.1c0.1-0.7,0.2-1.4,0.5-2c0.4-1.3,0.7-2.6,1.2-3.8s0.8-2.3,1.2-3.5c0.3-0.7,0.5-1.4,0.6-2.1
			c0.1-1.1,0-2.2-0.1-3.2c-0.1-1-0.2-1.9-0.4-2.9c-0.1-0.9-0.7-1.8-1.5-2.2C2.2,62.3,1.2,62.5,1.7,62.7z"/>
		<path class="st6" d="M30.6,61c0,3.2,0.3,6.4,0.2,9.6c-0.1,3.6-0.5,7.2-1,10.7c-0.1,0.7-0.2,1.4-0.3,2.1c0,0.3,0.9,0.6,1,0.3
			c0.9-5.8,1.4-11.7,1.2-17.7c-0.1-1.6-0.2-3.3-0.1-4.9C31.5,61,30.6,60.7,30.6,61L30.6,61z"/>
		
			<linearGradient id="SVGID_17_" gradientUnits="userSpaceOnUse" x1="6.361005e-02" y1="130.8384" x2="23.9236" y2="130.8384" gradientTransform="matrix(1 0 0 -1 -2.000000e-02 169.0153)">
			<stop  offset="0" style="stop-color:#3B3B3B"/>
			<stop  offset="0.43" style="stop-color:#3D3D3D"/>
			<stop  offset="0.59" style="stop-color:#444444"/>
			<stop  offset="0.7" style="stop-color:#4F4F4F"/>
			<stop  offset="0.79" style="stop-color:#606060"/>
			<stop  offset="0.87" style="stop-color:#767676"/>
			<stop  offset="0.94" style="stop-color:#919191"/>
			<stop  offset="1" style="stop-color:#B0B0B0"/>
			<stop  offset="1" style="stop-color:#B3B3B3"/>
		</linearGradient>
		<path class="st20" d="M22.9,1.9c-0.7,1.5-1.3,3.1-1.9,4.7c-0.8,2.1-1.7,4.3-2.6,6.4c-0.5,1.2-1.1,2.3-1.8,3.5
			c-0.3,0.6-0.6,1.2-0.9,1.8c-0.1,0.4-0.2,0.8-0.4,1.1c-0.9,1.3-1.9,2.6-3,3.8c-0.1,0.2,0.4,0.3,0.4,0.3l1.8,0.1l-0.4-0.4
			c-0.6,0.6-1.1,1.2-1.4,2c-0.4,0.7-0.5,1.4-0.8,2.1c-0.4,0.9-0.7,1.7-1,2.7c-0.3,1-0.6,2.1-0.9,3.1c-0.5,1.8-1,3.7-1.6,5.5
			c-0.4,1.8-0.6,3.7-0.4,5.5c0,0.9,0,1.8-0.1,2.6c0,0.5-0.1,0.9-0.2,1.4c-0.4,1.2-0.8,2.4-1.3,3.5c-0.6,1.5-1.3,3-1.7,4.6
			c-0.2,0.6-0.4,1.3-0.7,1.9c-0.2,0.4-0.4,0.9-0.6,1.3c-0.1,0.6-0.3,1.3-0.6,1.9c-0.5,1.2-0.9,2.3-1.2,3.6c-0.1,0.4-0.2,0.8-0.4,1.3
			C1.5,66.6,1.2,67,1,67.4c-0.4,1.3-0.6,2.8-0.6,4.2c-0.1,0.9-0.2,1.8-0.3,2.8c0,0.3,1,0.4,1,0.1c0.1-0.8,0.2-1.6,0.3-2.3
			c0-1.3,0.1-2.5,0.3-3.8c0.2-0.8,0.8-1.5,1-2.3c0.3-1,0.5-2,0.8-2.9c0.1-0.5,0.3-1,0.4-1.4c0.3-0.6,0.5-1.3,0.6-1.9
			c0.3-1,0.9-1.8,1.2-2.7c0.4-1.4,0.9-2.7,1.4-4c0.4-1.1,0.8-2.1,1.2-3.2c0.3-0.7,0.6-1.5,0.7-2.2c0.1-0.6,0-1.2,0-1.8
			c-0.1-2,0-3.9,0.2-5.9c0.2-0.8,0.4-1.7,0.7-2.5c0.3-0.9,0.6-1.8,0.8-2.7s0.5-2.1,0.9-3.1c0.2-1,0.5-2,0.9-3
			c0.2-0.6,0.5-1.1,0.8-1.7c0.2-0.4,0.2-0.8,0.4-1.1c0.2-0.5,0.5-1,0.8-1.5c0.2-0.3,0.4-0.7,0.7-0.9c0.3-0.2-0.3-0.4-0.4-0.4
			L13,23.1l0.4,0.3c0.9-1,1.8-2.1,2.6-3.2c0.4-0.5,0.6-1,0.8-1.6c0.2-0.5,0.4-0.9,0.6-1.3c0.6-1.1,1.3-2.2,1.8-3.4
			c0.9-2.1,1.7-4.2,2.5-6.3c0.4-1,0.8-2.1,1.2-3.1c0.3-0.8,0.6-1.6,1-2.4C24.1,1.8,23.1,1.6,22.9,1.9L22.9,1.9z"/>
		
			<linearGradient id="SVGID_18_" gradientUnits="userSpaceOnUse" x1="28.7336" y1="157.188" x2="35.9336" y2="157.188" gradientTransform="matrix(1 0 0 -1 -2.000000e-02 169.0153)">
			<stop  offset="0" style="stop-color:#3B3B3B"/>
			<stop  offset="0.43" style="stop-color:#3D3D3D"/>
			<stop  offset="0.59" style="stop-color:#444444"/>
			<stop  offset="0.7" style="stop-color:#4F4F4F"/>
			<stop  offset="0.79" style="stop-color:#606060"/>
			<stop  offset="0.87" style="stop-color:#767676"/>
			<stop  offset="0.94" style="stop-color:#919191"/>
			<stop  offset="1" style="stop-color:#B0B0B0"/>
			<stop  offset="1" style="stop-color:#B3B3B3"/>
		</linearGradient>
		<path class="st21" d="M34.9,0.1c-0.2,0.6-0.2,1.1-0.4,1.7c-0.1,0.3-0.2,0.6-0.2,0.9c-0.1,0.5-0.1,1-0.3,1.5
			c-0.4,1.4-0.9,2.7-1.4,4c-0.8,1.9-1.5,3.8-2,5.8c-0.4,1.8-0.8,3.6-1.1,5.4c-0.3,1.3-0.5,2.6-0.8,3.8c0,0.3,0.9,0.5,1,0.2
			c0.6-2.9,1.1-5.8,1.8-8.7c0.4-1.9,1-3.7,1.7-5.5c0.5-1.3,1-2.6,1.5-3.9c0.3-0.7,0.5-1.5,0.6-2.2c0-0.3,0.1-0.6,0.2-0.9
			c0.2-0.4,0.3-0.8,0.4-1.2c0-0.3,0-0.5,0.1-0.8C36,0.1,35-0.2,34.9,0.1L34.9,0.1z"/>
	</g>
</g>
</svg>
