<svg xmlns="http://www.w3.org/2000/svg" viewBox="0 0 646.86 347.19"><defs><style>.cls-1{fill:#666;}.cls-2{fill:#5d5d5d;}.cls-3{fill:#787878;}.cls-4{fill:#888;}.cls-5{fill:#707070;}.cls-6{fill:#7a7a7a;}.cls-7{fill:#676767;}.cls-8{fill:#636363;}.cls-9{fill:#5a5a5a;}.cls-10{fill:#adadad;}.cls-11{fill:#818181;}.cls-12{fill:#727272;}.cls-13{fill:#777;}.cls-14{fill:#5b5b5b;}.cls-15{fill:#878787;}.cls-16{fill:#7b7b7b;}.cls-17{fill:#848484;}.cls-18{fill:#8d8d8d;}.cls-19{fill:#616161;}.cls-20{fill:#696969;}.cls-21{fill:#656565;}.cls-22{fill:#4e4e4e;}.cls-23{fill:#747474;}.cls-24{font-size:10px;fill:#181716;font-family:BaskervilleMTPro-Regular, Baskerville MT Pro;}.cls-25{letter-spacing:-0.01em;}.cls-26{letter-spacing:0.01em;}.cls-27{letter-spacing:0em;}.cls-28{letter-spacing:-0.01em;}</style></defs><g id="Layer_2" data-name="Layer 2"><g id="_12128_draft" data-name="12128_draft"><g id="_12128_draft-2" data-name="12128_draft"><path class="cls-1" d="M132.57,71.49l-.92-.63s-.08,0-.1-.07a4.78,4.78,0,0,0-2.16-1.47,6.38,6.38,0,0,1-1.35-.83,11.12,11.12,0,0,0-2.94-1.67,13.06,13.06,0,0,1-1.25-.77c-1.33-.61-2.52-1.5-3.88-2-.53-.22-.57-.82-1-1.06-.08-.05-.11-.21-.21-.21-1.23,0-2-1.18-3.26-1.26-.64,0-1.29-.48-2-.5a6.25,6.25,0,0,1-2.62-1.13c-.26-.22-.64-.17-1-.28a1.6,1.6,0,0,1-.6-.34,3.53,3.53,0,0,0-2.15-1,2.7,2.7,0,0,0-1.49-.78,5.13,5.13,0,0,1-1.63-.66,6.84,6.84,0,0,1-1.26-.89,1,1,0,0,0-.63-.27,7.37,7.37,0,0,0-1.9-.79,26.4,26.4,0,0,1-3.33-1.22c-.55-.18-1.06-.45-1.61-.63L95,52.85a12.25,12.25,0,0,0-2.57-1.16,9.76,9.76,0,0,1-2.58-1.17,1.3,1.3,0,0,0-.93-.5,5.75,5.75,0,0,1-1.47-.54c-.84-.27-1.47-1-2.36-1.14-.39-.08-.6-.49-.92-.73s-.91-.27-1.29-.52c-1.12-.76-2.46-1.1-3.54-1.91a22.1,22.1,0,0,0-2.67-1.55h0a2.61,2.61,0,0,1-1-1.47c-.29-.21-.49-.51-.76-.73a.36.36,0,0,1-.13-.41c0-.16.21-.27.31-.23.72.34,1.58,0,2.25.54A10.26,10.26,0,0,0,80.88,44a2.72,2.72,0,0,1,.53.38,14.2,14.2,0,0,0,2.46,1.4c.85.48,1.75.85,2.59,1.33A19.39,19.39,0,0,0,89,48.31a21.76,21.76,0,0,1,2.55,1.29,4.67,4.67,0,0,0,2,.9,3.51,3.51,0,0,1,1.33.58c.59.34,1.23.56,1.83.87a2.23,2.23,0,0,0,.71.31c.29,0,.64.32.91.44.53.23,1.22.57,1.75.8a4.25,4.25,0,0,1,.64.32,8.11,8.11,0,0,0,1.67.6,33.59,33.59,0,0,1,3.12,1.42c1.31.58,2.86,1.38,4.21,1.88a8.27,8.27,0,0,1,1.29.74,9.35,9.35,0,0,0,2.51,1c.55.19.56.5,1.23.52,1.19.33,1.19.33,2.24.68.7.21.7.21.83.34.34.31.4,0,.76.34,2,1.18,3.92,2.32,5.9,3.49a9.05,9.05,0,0,0,1.28.74A22.76,22.76,0,0,0,128.61,67a6.53,6.53,0,0,0,1.64,1.13c1.07.89,2.29,1.42,3.42,2.23,1.75,1.23,3.28,2.63,4.51,2.9,0-.24-.26-.67-.31-.89-.13-.53-.07-.63.49-.62a.7.7,0,0,1,.34.1,10.13,10.13,0,0,1,1.9,1.36,8.17,8.17,0,0,0,3,1.35,1.38,1.38,0,0,1,.81.55.32.32,0,0,1,0,.17c-.45.45-1,.26-1.5.17a2.81,2.81,0,0,1-1.25-.67,2.47,2.47,0,0,0-1.84-.57,30.14,30.14,0,0,0,3.9,1.78,4.64,4.64,0,0,1,1.23.82c.24.17.47.33.71,0a1.23,1.23,0,0,1,1,.2c.75.53,1.72.77,2.22,1.64a.38.38,0,0,0,.41.18,1.32,1.32,0,0,1,.84.27c1.85,1,3.67,2,5.54,2.95.78.4,1.59.75,2.37,1.16a2.08,2.08,0,0,1,.68.49,1.19,1.19,0,0,0,.7.44.79.79,0,0,1,.33.13,18.18,18.18,0,0,0,3.26,1.5,17.47,17.47,0,0,0,1.87.84,2.88,2.88,0,0,0,1.27.5,9.44,9.44,0,0,1,1.7.81c.67.25,1.28.61,1.94.87a11.6,11.6,0,0,1,4.05,2.06,6.37,6.37,0,0,0,1.53.73c.12.06.27.07.37.18A14.13,14.13,0,0,0,178,93.2c.34.23.8.17,1.11.46.53.49,1.28.68,1.75,1.27.08.1.2.1.32.12.29.06.47.22.43.54s-.42.26-.67.09c-.71-.49-1.46-.92-2.2-1.35a1.37,1.37,0,0,0-.54-.22c.41.09.61.44.81.79a.29.29,0,0,1-.16.44,18.68,18.68,0,0,1-3.56-1.82,3.22,3.22,0,0,0-.51-.38c-.49-.27-.81-.86-1.5-.77-.18,0-.35-.18-.5-.29A18.48,18.48,0,0,0,168,89.61c-.8-.3-1.46-.82-2.26-1.08a.69.69,0,0,1-.71-.18,2.31,2.31,0,0,0-1.06-.5,12.09,12.09,0,0,1-2.05-.89,8.68,8.68,0,0,0-1.26-.46,2.7,2.7,0,0,1-.77-.31,10.78,10.78,0,0,0-2.08-1.07,15.74,15.74,0,0,1-2.46-1.33c-.32-.17-.58-.46-.92-.64A5.65,5.65,0,0,1,152.56,82a1.33,1.33,0,0,0-1-.37c-.12,0-.27,0-.35,0-.94-1-2.38-1.06-3.51-1.75a9.35,9.35,0,0,1-1.7-1.18c-.5-.47-1.1-.73-1.61-1.15-.28-.22-.68-.09-.92-.37h0c-.56-.26-.94-.82-1.54-1-1.15-.36-2.13-1.13-3.35-1.29a.2.2,0,0,1-.11,0,2.48,2.48,0,0,0-1.82-.63,1.1,1.1,0,0,1-1-.56c-.11-.38-.51-.45-.75-.68C134.34,72.15,133.32,72.05,132.57,71.49Z"/><path class="cls-2" d="M178.76,95.26c-.2-.55-.5-1-1.15-1.05-.12,0-.26,0-.25-.2s.18-.19.32-.18a2.62,2.62,0,0,1,1.36.32c.78.51,1.6,1,2.4,1.43a.28.28,0,0,1,.41-.11,5.77,5.77,0,0,1,1.46.89,3.82,3.82,0,0,0,1.23.69c.87.41,1.67.94,2.53,1.36a24.07,24.07,0,0,1,3.51,1.87c.63.43,1.37.59,2,1a6,6,0,0,0,1.6.84,5,5,0,0,1,.77.49,3.7,3.7,0,0,0,1,.57,48.5,48.5,0,0,1,5.78,2.86c3.3,2,6.78,3.74,9.87,6.1a14.83,14.83,0,0,0,2.19,1.84c.44.23.86.5,1.32.7.3.13.66.32.45.69a.69.69,0,0,1-1,.28,7.36,7.36,0,0,0-1.35-.67,3,3,0,0,1-1.37-.71c-.06-.06-.19,0-.29-.07a4.1,4.1,0,0,0-2.42-1.81c-.61-.15-.87-.85-1.39-1.15A12.93,12.93,0,0,0,205.9,110a.6.6,0,0,1-.16-.08,7.69,7.69,0,0,0-1.77-1,20.7,20.7,0,0,0-3.2-1.92,13.79,13.79,0,0,1-1.28-.75,8,8,0,0,0-2.05-1,3.43,3.43,0,0,1-1.66-.92,1.4,1.4,0,0,0-.68-.36,13.71,13.71,0,0,1-3.77-2c-.47-.29-1.06-.22-1.5-.56a4.14,4.14,0,0,1-2.12-.9,15.88,15.88,0,0,0-2.14-1.08c-1.21-.78-2.63-1.14-3.83-2a10.59,10.59,0,0,0-1.87-1,4.55,4.55,0,0,1-1-.81A.29.29,0,0,1,178.76,95.26Z"/><path class="cls-3" d="M132.08,54l.85.44a19,19,0,0,0,1.8.76,6.86,6.86,0,0,1,1.81,1.15c.18.16.42.3.26.58s-.39.22-.64.13A.44.44,0,0,1,136,57a1.42,1.42,0,0,0-1.06-.44c-.85-.39-1.76-.64-2.59-1.08-1.33-.69-2.73-1.22-4.08-1.86a4.22,4.22,0,0,0-.85-.28,29.08,29.08,0,0,1-5.8-2.54,11.85,11.85,0,0,1-2.11-1.15c-.81-.61-1.85-.83-2.54-1.64a5.11,5.11,0,0,0-1.43-.81,27.25,27.25,0,0,0-3.32-1.69c-.35-.13-.73-.17-1.08-.31-.14,0-.29,0-.39-.11a5,5,0,0,0-1.9-1,2.77,2.77,0,0,1-.86-.5,5.39,5.39,0,0,0-2.09-1c-.57-.17-1.13-.37-1.7-.53a4.8,4.8,0,0,1-1.41-.83,6.61,6.61,0,0,0-2-1.06c-.23-.08-.45-.17-.53-.43,0-.61.39-.77,1.08-.4.39.48,1,.52,1.5.81.94.57,2.09.57,3,1.07.52.28,1.13.33,1.56.81.25.27.7.32,1,.47a26.17,26.17,0,0,0,3,1.33c.71.22,1.26.72,2,.9s1.25.89,2,1.19c.29.11.55.32.85.42a14.56,14.56,0,0,0,3.3,2,15.49,15.49,0,0,0,2.56,1.48l2,.63a1.92,1.92,0,0,1,1,.57,1.91,1.91,0,0,0,.83.41,31.21,31.21,0,0,1,3.59,1.49,13.93,13.93,0,0,0,2,.83A1.14,1.14,0,0,1,132.08,54Z"/><path class="cls-4" d="M136,56.73c.16,0,.36.22.48,0s-.08-.36-.21-.46a6.64,6.64,0,0,0-2.09-1.21,3.43,3.43,0,0,1-1.28-.64,17.31,17.31,0,0,1,4.69,2.34c1.25.8,2.4,1.73,3.6,2.6a23.42,23.42,0,0,0,5.22,3,9.56,9.56,0,0,1,2.4,1.57,10.44,10.44,0,0,0,2.48,1.55,6.66,6.66,0,0,1,1.78,1.09,8.49,8.49,0,0,0,3.09,1.76,17,17,0,0,1,1.7.72c0,.18.09.28.23.37a.28.28,0,0,1,.06.48,1.18,1.18,0,0,1-1-.1,2,2,0,0,0-.79-.23,6,6,0,0,1-2.08-.93c-.67-.37-1.3-.83-1.94-1.24a8.37,8.37,0,0,0-2.07-1.19,6.44,6.44,0,0,1-2.26-1.36c-.51-.4-1-.82-1.49-1.24s-.86-.27-1.27-.43a6.48,6.48,0,0,0-2.15-1.36,1.62,1.62,0,0,1-.45-.28,2.32,2.32,0,0,0-1.08-.58,3,3,0,0,1-1.48-1,11.24,11.24,0,0,0-1.55-1.3c-.12-.08-.26-.14-.38-.21a9.57,9.57,0,0,0-1.6-1C136.32,57.31,136,57.16,136,56.73Z"/><path class="cls-5" d="M77.26,41.71a5.57,5.57,0,0,0-1.77-.62c-.12,0-.24-.09-.34,0s0,.25.09.36c.16.28.49.42.56.75a11.65,11.65,0,0,1-2.26-1A25.85,25.85,0,0,0,69,39.43a2,2,0,0,1-1.35-.63c-.22-.18-.46-.14-.7-.2a2.47,2.47,0,0,1-1.72-1.05,1.06,1.06,0,0,1,1.35.11c.38.34.87.33,1.15.49-.32-.17-.91-.12-1.23-.57s-.6-1-.94-1.54c-.05-.07.07-.18.15-.24.51-.19.75.22,1,.5a3.66,3.66,0,0,0,2,1.37,2.65,2.65,0,0,1,1,.51,1.18,1.18,0,0,0,.79.26.68.68,0,0,1,.35.06A14.11,14.11,0,0,0,74.61,40a21.64,21.64,0,0,1,2.38,1C77.24,41.17,77.47,41.37,77.26,41.71Z"/><path class="cls-6" d="M158.12,69.81c-.7-.37-.7-.38-.23-.74.59.17,1.19.3,1.77.49s1,.89,1.35,1.44a7.2,7.2,0,0,0,2.09,2.74A5.3,5.3,0,0,0,164.38,75c1.2.58,1.8,1.83,3,2.43.25.13.5.38.3.75s-.46,0-.66-.12c-.66-.51-1.07-1.25-1.72-1.76a2.7,2.7,0,0,0-.38-.33c.2.21.66.32.31.79a1.24,1.24,0,0,1-1.17-.55A1.11,1.11,0,0,0,164,76c-.25-.33-.44-.71-.89-.81a.38.38,0,0,1-.25-.24,3.92,3.92,0,0,0-1.64-1.73,3.63,3.63,0,0,1-1-1.21,4.12,4.12,0,0,0-1.78-1.75C158.24,70.2,158,70.12,158.12,69.81Z"/><path class="cls-7" d="M71.5,36.54c-.24-.24-.48-.48-.73-.7s-.29-.24-.19-.44a.35.35,0,0,1,.52-.12c.52.26,1,.53,1.52.83a3.26,3.26,0,0,0,1,.47,4,4,0,0,0,1,.74c1.22.86,2.25,2,3.46,2.8l1.54,1.12c1.11.72,2.24,1.4,3.29,2.22a14.94,14.94,0,0,0,3.65,2c.61.25,1.18.59,1.79.83a19.88,19.88,0,0,0,3.39,1.45c.81.27,1.58.67,2.42.89a13.11,13.11,0,0,0,2.84.7.38.38,0,0,1,.24.08c.48.32,1,.49,1.53.77a3.14,3.14,0,0,0,.93.38,1.23,1.23,0,0,1,.61.46c.1.17.37.34.19.59a.53.53,0,0,1-.65.14c-.81-.32-1.69-.4-2.49-.73-.7-.11-1.35-.43-2-.53a29.13,29.13,0,0,0-3-.75c-.34,0-.5-.31-.78-.42-1.86-.7-3.65-1.57-5.44-2.41a18.32,18.32,0,0,1-3.62-2c-.26-.2-.38-.5-.67-.68a7.23,7.23,0,0,1-2-1.34c-.6-.74-1.61-.83-2.23-1.52a3.82,3.82,0,0,0-.93-1,14.6,14.6,0,0,1-2-1.8l-.08,0c-.17-.37-.59-.3-.85-.49C73,37.47,72.2,37.05,71.5,36.54Z"/><path class="cls-8" d="M15.21,8c.88.59,1.9.91,2.8,1.46a3.63,3.63,0,0,1,1.26,1,3.91,3.91,0,0,0,2.57,1.46,9.82,9.82,0,0,1,2.69,1,.93.93,0,0,1,.43.4,3.5,3.5,0,0,1-.14.46A.51.51,0,0,1,24,14a1.6,1.6,0,0,1-.6-.49c-.27-.46-.83-.52-1.16-.91a.47.47,0,0,0-.34-.09,3.67,3.67,0,0,1-2.49-.8.27.27,0,0,0-.16-.08c-.74-.1-1.13-.69-1.53-1.19a3.09,3.09,0,0,0-1.24-.93c.66.14,1.1.75,1.59,1.25.2.21.07.48-.25.57-.12,0-.32,0-.33-.08,0-.53-.61-.57-.78-1a.28.28,0,0,0-.23-.17,3.66,3.66,0,0,1-1.84-1A.75.75,0,0,0,14.16,9,1.43,1.43,0,0,1,13,8.4a6.43,6.43,0,0,0-2.18-1.58A17.46,17.46,0,0,0,7.93,5.33a8.27,8.27,0,0,0-2.8-.76,1.08,1.08,0,0,0-.18,0c-.68.15-.71.16-.76-.52,0-.46-.15-.76-.68-.77-.23,0-.4-.2-.58-.32a16.75,16.75,0,0,1-2.1-1.2,3.42,3.42,0,0,1-.49-.44C.11,1-.15.77.1.38A.86.86,0,0,1,1.28.12L2,.44C2.58.91,3.43,1,3.8,1.77h0a3.79,3.79,0,0,1,1.58.62A24.74,24.74,0,0,0,8.1,3.86C9.76,4.38,11.19,5.4,12.79,6A8.59,8.59,0,0,1,15.21,8Z"/><path class="cls-9" d="M17.83,11.25c.16-.49-.26-.68-.52-.91a4.76,4.76,0,0,0-1.06-.76.7.7,0,0,1-.5-.61c.28.14.57.4.71.34.55-.26.65.26.91.47a4.34,4.34,0,0,1,1,.93c.55.81,1.45.85,2.21,1.22s1.64-.06,2.23.64a.25.25,0,0,0,.27.09c.45-.16.55,0,.51.45s.31.49.58.62.37-.13.45-.33.22-.15.36-.13L26,14a19.85,19.85,0,0,0,2.25.89c.29.09.48.34.76.43h0a3.56,3.56,0,0,1,1.91,1.22l.23.11c.44.2,1,.25,1.24.7-.17.44-.49.61-.9.39a19,19,0,0,1-2-1.07c-.41-.28-.69-.8-1.2-.84-.12-.05,0-.1-.06,0s0,0,0,0c.35.13.56.49.84.65a7.45,7.45,0,0,0,1.64.9,3.88,3.88,0,0,1,.46.22c.33.17.3.38.06.61a10.44,10.44,0,0,1-1.68-.35c-.47-.14-.74-.63-1.15-.9a3.56,3.56,0,0,0-1-.59c-1-.27-1.77-.87-2.69-1.19A7.1,7.1,0,0,1,22.93,14a2.09,2.09,0,0,0-.39-.27c-.42-.41-1-.41-1.53-.63a5.58,5.58,0,0,0-1.4-.38.29.29,0,0,1-.24-.15c-.3-.66-1-.78-1.5-1.22Z"/><path class="cls-10" d="M32.25,17.36c-.28-.38-.77-.42-1.1-.71a1.34,1.34,0,0,1,.68.19,22.28,22.28,0,0,0,3.65,1.43,3.29,3.29,0,0,1,1.46,1,4.79,4.79,0,0,0,1.85,1.34,2,2,0,0,1,.29.22.55.55,0,0,0,0,.61.45.45,0,0,1-.16.63.37.37,0,0,1-.45,0,7.92,7.92,0,0,1-1.75-1.72.6.6,0,0,0-.37-.84,7.66,7.66,0,0,1-1.18-.76c-.2-.18-.41,0-.51.17-.08,0,.43.34.44.48.32.61-1.19-.86-1.44-1.09a6.8,6.8,0,0,1-1.14-.5C32.32,17.7,32.11,17.62,32.25,17.36Z"/><path class="cls-11" d="M38.85,21.91a1.05,1.05,0,0,0-.07-.58.34.34,0,0,1,.3-.48l.12.11c0,.54.43.92.5,1.43A.62.62,0,0,1,38.85,21.91Z"/><path class="cls-10" d="M29,15.32A20.65,20.65,0,0,1,26,14,9.53,9.53,0,0,1,29,15.32Z"/><path class="cls-10" d="M30.92,16.54A9.53,9.53,0,0,0,29,15.32,2.46,2.46,0,0,1,30.92,16.54Z"/><path class="cls-12" d="M95.6,37a32.71,32.71,0,0,0-3.33-1.84c-.69-.34-1.37-.71-2-1.07s-1.51-.85-2.18-1.4c.17-.47.47-.25.7-.1.46.29,1,.52,1.44.79a.38.38,0,0,0,.52-.06V33.3l.24.15a12.23,12.23,0,0,1,1.74.86,18.4,18.4,0,0,1,3,1.78c.58.49,1.34.76,2,1.21a3.59,3.59,0,0,1,.35.32.71.71,0,0,1,.19.23c.09.14.16.29,0,.43s-.31,0-.43-.05a19.78,19.78,0,0,1-2-1.11C95.76,37.07,95.67,37.09,95.6,37Z"/><path class="cls-13" d="M98.73,50.23a2.72,2.72,0,0,1,.89.33c1.84.91,3.55,2.07,5.45,2.82a39.71,39.71,0,0,1,4.45,2.16l.14.07c.65,0,1,.52,1.58.78,1.28.64,2.47,1.44,3.76,2.09.76.39,1.54.78,2.33,1.09a22.12,22.12,0,0,0,2.74,1.17,5.1,5.1,0,0,1,1.34.67c.6.38,1.23.74,1.82,1.14a6.46,6.46,0,0,0,1.4.67,20.06,20.06,0,0,1,2,1.34,6.12,6.12,0,0,0,1.07.5,8.36,8.36,0,0,1,1.36.85c.74.42,1.46.89,2.17,1.36a5.18,5.18,0,0,0,1.43.67,2.46,2.46,0,0,1,1,.69c.66.56,1.61.67,2.14,1.42.34.63.61.6-.13.84-.42-.26-.65-.58-1.08-.72a18,18,0,0,1-2.09-1.08,9.11,9.11,0,0,0-2.28-1.1.24.24,0,0,0-.22,0L128.61,67c.37-.36-.71-.71-1.12-.9-.59-.28-1.12-.57-1.71-.82-1.07-.67-2.29-1.7-3.58-2.4-.76-.41-1.26-.61-2-1.07-.48-.31-1-.35-1.45-.68-.81-.33-1.49-1-1.56-.37-1.24-.53-2.58-.76-3.85-1.2a1.79,1.79,0,0,1-.46-.27c.1-.22.37.1.59.16a5.11,5.11,0,0,0,1.65.34c-1.6-1-3.8-2.17-5.42-3.15a21.81,21.81,0,0,0-4.43-2.21c-1.66-.67-3.59-1.78-5-2.49a5.21,5.21,0,0,0-2.07-.69c-.31-.26-.86-.09-.79-.56l2.36.72c.17,0,.38.15.48-.05s-.12-.35-.27-.47C99.58,50.64,99.05,50.63,98.73,50.23Z"/><path class="cls-14" d="M145.65,77c0,.17.15.36,0,.5a.42.42,0,0,1-.5,0c-.25-.16-.47-.39-.73-.53a33.55,33.55,0,0,0-3.83-1.82,3.09,3.09,0,0,1-1.27-.89c-.07-.09-.12-.18,0-.27s.31-.39.55-.42.08.17.09.28a.17.17,0,0,0,.22.14,2.3,2.3,0,0,1,1.92.78c.66.55,1.46.43,2.19.61h.08c.31.25.67.43.78.86a2.23,2.23,0,0,0,.27.41C145.36,76.78,145.71,76.73,145.65,77Z"/><path class="cls-15" d="M137.85,73.27c.34,0,.4-.17.19-.4a4,4,0,0,0-.92-.92c-.69-.37-1.22-1-1.91-1.32.49,0,.61-.17.36-.59.28-.22.5.06.61.18.32.33.74.52,1.07.83s.71.45.95.81c.12.12.24.25.35.38-.17.05-.29-.1-.5-.13a1.33,1.33,0,0,0,.56,1.09c.1.07.25.12.2.26s-.23.11-.36.07S138.05,73.36,137.85,73.27Z"/><path class="cls-16" d="M144.21,75.2a35.77,35.77,0,0,1,3.72.84c.2.18.68.09.59.54s-.53.25-.79.22c-.6-.06-1.2-.19-1.81-.23a1.49,1.49,0,0,0-.94-.81,3.66,3.66,0,0,1-.77-.44h0Z"/><path class="cls-16" d="M145.65,77l-.37-.35a.1.1,0,0,1,.16,0c1.56.88,3.06,1.87,4.55,2.88a5.71,5.71,0,0,1-2.1-1.17A19.57,19.57,0,0,0,145.65,77Z"/><path class="cls-17" d="M97.89,37.64l.47.13,3,1.79c-.33,0-.83-.58-1,.24A22.17,22.17,0,0,1,97.18,38a1.43,1.43,0,0,0-.72-.26c-.28-.24-.57-.47-.86-.7a21,21,0,0,1,2,1c.14,0,.28.24.42.08S97.94,37.78,97.89,37.64Z"/><path class="cls-18" d="M145.44,76.63h-.16a.46.46,0,0,1-.34-.36c.25-.47.49-.44.95.12.55.18,1.14.12,1.7.32a.48.48,0,0,0,.64-.17c.15-.28-.2-.33-.3-.51l.6.12h0a11.91,11.91,0,0,1,4,2,1,1,0,0,1,.58.26,15.06,15.06,0,0,1,2,1.25,8.51,8.51,0,0,1,1.6,1.31.46.46,0,0,1,.11.54c-.11.19-.31.09-.47,0a38.76,38.76,0,0,0-6.68-4,9,9,0,0,0-3-.77Z"/><path class="cls-19" d="M35.81,21.32c-.63-.58-1.42-.94-2-1.55.09-.38.35-.09.49-.14a1.2,1.2,0,0,1-.69-.31c-.2-.2-.33-.41-.09-.65s.13-.5.32-.7c.34.06.75,0,.49.62-.16.39.28.54.58.68.06-.05.25.15.31.18.57.66,1.1.64,1.48.91l1.65,1.28a1.18,1.18,0,0,0,.52.27c.47-.16.61.25.85.48a4.4,4.4,0,0,0,1.27.78c1.58.82,3.17,1.62,4.69,2.53a17.16,17.16,0,0,0,3.76,1.56A13.36,13.36,0,0,1,53.09,29a6.52,6.52,0,0,0,2,1,28.12,28.12,0,0,1,6.41,3.34c1.19.73,2.41,1.41,3.57,2.19a2.55,2.55,0,0,1,.61.47,2,2,0,0,0,.59.59.67.67,0,0,1,.31.49.84.84,0,0,0,1,.86c.08,0,.16,0,.23,0a1.53,1.53,0,0,1,.81.58c0,.07,0,.18,0,.2a1.27,1.27,0,0,1-.82-.13c-.79-.4-1.66-.61-2.46-1-.46-.71-1.29-.92-1.9-1.42a10.57,10.57,0,0,0-2.78-1.61c-.28-.11-.39-.38-.59-.58a19.93,19.93,0,0,1-2.19-1.41,9,9,0,0,0-4-1.72,2.67,2.67,0,0,1-1.37-.69.73.73,0,0,0-.52-.24A3.41,3.41,0,0,1,49.75,29a6.74,6.74,0,0,0-3.14-1.08,7.13,7.13,0,0,1-1.74-.7A19.35,19.35,0,0,1,42.73,26a13.26,13.26,0,0,1-2.06-1c-.38-.21-.74-.45-1.12-.66s-.56-.32-.64-.67a.52.52,0,0,0-.26-.32C37.69,22.68,36.8,21.93,35.81,21.32Z"/><path class="cls-20" d="M157.91,80a3.91,3.91,0,0,0,2.27-.49c.9-.26,1.79-.57,2.69-.82a5.9,5.9,0,0,1,1.52-.12,3.65,3.65,0,0,1,1.39.15c.31.1.5-.12.57-.42a2.69,2.69,0,0,0-1.17-1.46c-.07,0-.14-.1-.1-.21-.07-.52-.71-.66-.84-1.27,1.47.52,2.07,2,3.25,2.7a1.12,1.12,0,0,0,1.33.51c.71-.18,1.1.18,1.22.9a6.17,6.17,0,0,1,.1,1.13c0,.5-.25.64-.69.31a4.06,4.06,0,0,0-1.76-.81,11.5,11.5,0,0,0-5.25.11,21.06,21.06,0,0,1-3.91,1,2.46,2.46,0,0,1-.47,0,.74.74,0,0,1-.68-.66C157.28,80.14,157.71,80.17,157.91,80Z"/><path class="cls-21" d="M90.7,33.36c0,.19.11.41-.09.54s-.35-.07-.52-.15a9.8,9.8,0,0,0-2-1h0c-1.34-.71-2.74-1.31-4.11-2a7.22,7.22,0,0,0-1.69-.52,1.36,1.36,0,0,1-1.14-.93c-.08-.27,0-.4.28-.31a25.6,25.6,0,0,1,3.28,1.17c.63.31,1.29.59,2,.86a19.12,19.12,0,0,1,3.1,1.78C90,33,90.36,33.19,90.7,33.36Z"/><path class="cls-12" d="M86.62,31c-.78-.37-1.63-.53-2.41-1a15.39,15.39,0,0,0-2.7-.94c-.26-.08-.32.05-.23.29a1.08,1.08,0,0,0,.8.67,26.91,26.91,0,0,1,4.34,1.69,11.16,11.16,0,0,1,1.63.95,3.29,3.29,0,0,1-1.12-.41,23,23,0,0,0-4.7-2,1.51,1.51,0,0,1-1.18-.9c-.14-.37,0-.57.38-.46a17.87,17.87,0,0,1,3.32,1.15A11.64,11.64,0,0,1,86.62,31Z"/><path class="cls-22" d="M33.82,18c.3.34.51.65,0,1-.18.11.08.26.19.33a3.39,3.39,0,0,1,1.24.95c-.57-.07-.89-.6-1.41-.46l-.33-.15c-.37-.46-.83-.26-1.26-.16-.23.06-.45.18-.68.23s-.56.1-.67-.2.14-.44.38-.56.57-.23.27-.6l-.33-.24a1,1,0,0,0-.51-.48c-1.16-.57-2.12-1.42-3.23-2.09a2.16,2.16,0,0,1,1.33.4c.32.3.61.47,1,0-.33.87.18,1,.75,1.19s1.08.59,1.72.27A5.45,5.45,0,0,0,33.82,18Z"/><path class="cls-8" d="M21.09,12.93c-.37-.07-.73-.15-1.1-.21a4,4,0,0,1-2.15-1.48c.58.29,1.27.37,1.63,1,.14.27.57.25.87.33A1.6,1.6,0,0,1,21.09,12.93Z"/><path class="cls-23" d="M31.5,18.33c.39.3.07.46-.13.63s-.35.25-.22.48.34.16.53.11.6-.2.91-.27a.71.71,0,0,1,.87.34,1.75,1.75,0,0,0-1.5,0,1.6,1.6,0,0,1-1.16.09c-.17-.08-.41-.13-.41-.37s.23-.28.41-.36S31.53,18.83,31.5,18.33Z"/><path class="cls-1" d="M145.89,76.4c-.33,0-.61-.27-.95-.12-.43-.18-.52-.62-.73-1a3.23,3.23,0,0,1,1.3.35C145.74,75.82,146.19,75.94,145.89,76.4Z"/><path class="cls-6" d="M166.52,78.21l-.58-.62c-.12-.39-.47-.57-.75-.82C166,76.9,166.18,77.64,166.52,78.21Z"/><text class="cls-24" transform="translate(173.02 81.66)">ap<tspan class="cls-25" x="9.9" y="0">e</tspan><tspan x="14.18" y="0">x</tspan></text><text class="cls-24" transform="translate(21.09 41.48)"><tspan class="cls-26">g</tspan><tspan class="cls-27" x="4.79" y="0">lass pl</tspan><tspan class="cls-28" x="28.65" y="0">a</tspan><tspan x="33.24" y="0">te</tspan></text></g></g></g></svg>