<?xml version="1.0" encoding="utf-8"?>

<svg version="1.1" id="" xmlns="http://www.w3.org/2000/svg" xmlns:xlink="http://www.w3.org/1999/xlink"
	 x="0px" y="0px" viewBox="0 0 22.9 112.2" enable-background="new 0 0 22.9 112.2" xml:space="preserve">
<g id="_x31_3036_x5F_final_1_">
	<path fill="#C0C0C0" d="M6.2,40.5C6.7,38.4,7,36.2,7.3,34c0.2-1.5,0.3-3,0.4-4.5c0-1.3,0.3-2.6,0.2-3.9c0-0.2,0.1-0.3,0.2-0.5
		c0.3,0.2,0.4,0.6,0.7,0.8c0.1,0.1,0,0.7,0,0.9c-0.1,0.9-0.2,1.7-0.2,2.5c0,2.1-0.2,3.6-0.5,5.7c-0.3,1.7-0.3,2.5-0.7,4.6
		c-0.1,0.3,0,0.5-0.3,0.9C7.1,41.1,7,41,6.9,41.7C7,42.2,7,42.4,6.7,42.8c-0.4,0.1-0.2,0.6-0.2,0.9c0,0.4,0.2,0.9-0.3,1.2
		c-0.1,0-0.2,0-0.3-0.1c-0.2-0.2-0.1-0.5-0.1-0.7c0-0.6,0.1-1.1,0-1.7C6.1,41.8,6.3,41.2,6.2,40.5z"/>
	<path fill="#B7B7B7" d="M3.5,63.8c0-0.4-0.1-0.8,0.1-1.2c0.2-0.3,0.2-0.6,0.2-1c0-0.7,0.3-1.3,0.3-2c0-0.1,0-0.3-0.1-0.4
		c0.2-0.4,0-0.8,0-1.2c0.3-0.5,0.1-1,0.2-1.5c0-0.3,0.3-0.5,0-0.8c0-1.4,0.2-2.7,0.5-4.1c0.1-0.1,0.2-0.1,0.2-0.2
		C4.7,50.8,5,50.1,5,49.4c0.1-0.7,0.1-1.5,0.2-2.2c0-0.2,0.1-0.4,0.3-0.5C5.9,46.6,5.8,47,6,47.2c0.1,0.3,0.1,0.3,0,0.5
		c-0.3,0.3-0.1,0.7-0.1,1.1c-0.1,0.7-0.1,1.3-0.2,2c0,0.3,0.1,0.8,0,1.1c-0.1,1-0.3,1.8-0.4,3c-0.1,0.7,0.1,0.6-0.1,1.5
		c0,0.5-0.1,1,0,1.4C5.2,58.1,5,58.1,5,58.3c0.1,1.5-0.2,1.5-0.1,2.9c0,0.2,0,0.8-0.1,1.2c-0.1,0.5-0.2,0.8-0.2,1.1
		c0.1,0.6,0,1.2-0.3,1.8c-0.6,0.1-0.6,0.1-0.7-0.5C3.5,64.5,3.9,64.1,3.5,63.8z"/>
	<path fill="#B9B9B9" d="M2.2,85.2c0.1-1.3,0.3-2.6,0.3-3.9c0-1,0.1-1.9,0.2-2.9C2.8,78.2,3,78,2.9,77.8c-0.2-0.7,0.1-1.4,0-2.1
		c-0.1-0.2-0.1-0.4,0-0.6c0.2-0.3,0.2-0.6,0.2-0.9c0-0.2,0-0.4,0.2-0.4c0.2,0,0.5,0,0.5,0.3c0,0.3,0,0.5-0.1,0.8c0,0.3,0.1,1,0,1.4
		c0.1,0.5-0.1,2.4-0.2,2.9c-0.1,2-0.2,2.3-0.4,4.3c-0.1,1,0.1,1.5-0.1,2.5c-0.1,0.5-0.2,0.6-0.2,1.1c0,0.1,0.1,0.8,0,0.9
		c-0.2,0.2-0.2,0.2-0.5,0c-0.3-0.2-0.3-0.5-0.2-0.8c0.1-0.2,0-0.3,0-0.5C2.2,86.2,2.4,85.7,2.2,85.2z"/>
	<path fill="#BDBDBD" d="M17.8,69.8c0.4,0.6,0.3,1.3,0.3,1.9c0,2.5,0.3,5,0.1,7.6c-0.2,0.2-0.2,0.4-0.2,0.6c0.1,1.1,0,2.1,0,3.2
		c0,0.2-0.1,0.5-0.3,0.5c-0.3,0-0.4-0.1-0.4-0.4c0-0.2-0.1-0.1-0.1-0.4c-0.1-0.1-0.1-0.5-0.1-0.7c0.2-0.4,0-0.5,0.1-1
		c0.1-0.7-0.3-1.3,0-2c0.2-0.6,0.1-1.3-0.1-2.1c-0.1-0.7,0-0.9,0.1-1.6c0.8-0.6,0-2.2-0.1-2.9c0,0,0-0.8,0-0.9
		c-0.1-0.8-0.1-0.9-0.1-1.5C17.2,69.5,17.4,69.8,17.8,69.8z"/>
	<path fill="#A3A3A3" d="M12.5,111.4c-1.8,0.4-3.6,0.6-5.4,0.4c-0.9-0.1-1.8-0.1-2.6-0.2c-0.1-0.3-0.2-0.5-0.5-0.4
		c-0.1,0-0.2,0-0.3-0.1c-0.2-0.1-0.4-0.2-0.3-0.4c0-0.2,0.2-0.3,0.4-0.3c0.9,0,1.7,0,2.6,0c0.3,0,0.7,0.1,1,0.2c0.5,0.1,0.4,0,0.9,0
		c0.9-0.1,1.5,0.1,2.3-0.1c0.4-0.1,1.4-0.3,1.8-0.5c0.3,0.1-0.3,0.3-0.3,0.6c0.2-0.2,0.5-0.2,0.7-0.2c0.2,0,0.4,0,0.4,0.2
		c0.1,0.2-0.1,0.3-0.2,0.4C12.7,111.2,12.6,111.3,12.5,111.4z"/>
	<path fill="#BBBBBB" d="M1,96.9c0.1-1.2,0.3-2.4,0.4-3.5c0-0.2,0-0.4,0.2-0.5c0-0.9,0.3-1.7,0.3-2.6c0-0.3,0.3-0.5,0.6-0.3
		c0.2,0.1,0.2,0.4,0.1,0.7c0,1.4-0.2,2.6-0.3,3.8c-0.1,1.2-0.1,1.5-0.2,2.7c0,0.2,0,1-0.2,1.4c-0.3,0-0.2-0.5-0.2-0.7
		C1.5,97.6,1.3,97.3,1,96.9z"/>
	<path fill="#AEAEAE" d="M8.6,20.5c0.2-2.6,0.8-5.2,1.6-7.7c0.2,0,0.3,0.2,0.5,0.3c0.2,0.5,0.1,1-0.4,1.3c0.1-0.1,0.3-0.2,0.3-0.4
		c0.2-0.3,0.1-0.1,0.2,0c0,0.9-0.3,1.3-0.4,2.1c-0.5,1-0.4,1.6-0.6,2.7c-0.1,0.2-0.2,1.1-0.3,1.3c0,0.2,0,0.8-0.2,1
		c-0.2,0-0.1-0.5-0.3-0.4C8.7,20.9,8.5,20.9,8.6,20.5z"/>
	<path fill="#C4C4C4" d="M13.4,4.1c0.2-0.8,0.8-1.5,1.2-2.2c0.3-0.5,0.7-0.9,1.1-1.4c0.6-0.7,0.6-0.7,1.2,0.1
		c-0.2,0.3-0.6,0.4-0.5,0.8c-0.5,0.8-1,1.5-1.5,2.3c-0.3,0.4-0.3,0.9-0.8,1.2C13.8,4.7,13.9,4.1,13.4,4.1z"/>
	<path fill="#C3C3C3" d="M14.8,29c-0.1,0.2-0.1,0.3-0.1,0.6c0.1,1.2,0.2,2.4-0.2,3.5c0,0.2,0.1,0.5-0.2,0.6
		c-0.2,0.1-0.3-0.1-0.4-0.3c-0.2-0.8-0.2-1.8-0.2-2.3c0.1-1.3,0.1-1.6,0.1-2.9c0-0.2-0.1-1.1,0.1-1.2c0.6-0.3,0.6,0,0.6,0.6
		C14.5,28.1,14.6,28.6,14.8,29z"/>
	<path fill="#B8B8B8" d="M8.6,20.5C8.9,20.5,8.9,20.5,9,20c0.2,0.1,0.2,0.3,0.4,0.4c0,0.4-0.2,1.5-0.2,1.7C9.1,23.6,9,22.8,9,24.3
		c0,0.1,0,0.9-0.1,1.1C8.8,25.5,9,26,8.8,26c-0.4-0.2-0.9-0.5-0.7-1C8,23.5,8.2,22,8.6,20.5z"/>
	<path fill="#B8B8B8" d="M10.7,14c-0.3,0.3-0.4,0.8-0.6,1.2c-0.4-0.4-0.4-0.9,0.1-1.2c0.2-0.1,0.2-0.2,0.1-0.3
		c-0.1-0.2-0.1-0.3,0-0.5c-0.2-0.3-0.1-0.6,0-0.9c0.1-0.4,0.3-0.8,0.2-1.2c0.1-0.6,0.3-1.2,0.6-1.8c0.2,0.3,0.4,0.7,0.8,0.3
		c0,0-0.2,0.7-0.2,0.9c-0.3,1.2-0.3,1.2-0.6,2.3C11.1,13,11,13.8,10.7,14z"/>
	<path fill="#B5B5B5" d="M1,96.9c0.6,0,0.9,0.5,1,1.3c0,0.3-0.1,0.7-0.1,0.9c-0.2,0.7,0,0.9-0.1,1.6c-0.3,0.3-0.1,0.9-0.6,1
		c-0.1,0-0.1,0-0.2-0.1c0,0-0.1-0.1-0.1-0.1c0,0,0,0,0,0.1c0,0.2,0,0.4-0.2,0.3C0.6,100.2,1,98.6,1,96.9z"/>
	<path fill="#B7B7B7" d="M12.5,111.4c-0.1-0.3,0.3-0.3,0.4-0.6c-0.6-0.2-1.1,0.3-1.7,0.2c0.1-0.3,0.6-0.3,0.5-0.7
		c0.4-0.1,0.6-0.3,0.8-0.3c1-0.3,1.2-0.5,2.3-0.7c0.2,0.2,0.3,0.3,0.5,0.4c0.2,0.2,0.3,0.4,0.2,0.6
		C14.5,110.7,13.5,111.1,12.5,111.4z"/>
	<path fill="#BABABA" d="M16.1,46.6c0.6,1.5,1,3,1.3,4.6c-0.2,0.4-0.1,0.9,0.1,1.3c0.1,0.3,0.4,0.5,0.1,0.8c-0.3,0.2-0.5,0-0.6-0.4
		c0,0-0.2-1.3-0.2-1.3c-0.4-1.4-0.6-1.5-0.8-3.1c0-0.5-0.1-1-0.5-1.5C15.2,46.7,15.6,46.6,16.1,46.6z"/>
	<path fill="#B0B0B0" d="M2.6,90.7c-0.2,0-0.2-0.6-0.4-0.5c-0.2,0.1,0,0.3-0.1,0.5c-0.3,0.7-0.2,1.5-0.6,2.2c-0.2-1,0.1-1.9,0.2-2.9
		C1.9,88.9,2,87.9,2,86.8c0.1-0.1,0.2-0.2,0.4-0.1c0.1,0.2,0.3,0.4,0.1,0.6c-0.1,0.2-0.2,0.3,0,0.5c0.2,0.2,0.3-0.1,0.4-0.2
		c0,0,0.1-0.1,0.1-0.1c0,0.5,0,0.9,0,1.1c-0.1,0.8-0.1,0.8-0.2,1.5C2.7,90.3,2.8,90.5,2.6,90.7z"/>
	<path fill="#A6A6A6" d="M1,101.5c0,0,0.1,0,0.1,0c0.6,0.2,0.4,0.8,0.4,1.2c-0.1,1-0.3,2.8-0.3,3.1c-0.1,0.6-0.1,1.1-0.1,1.7
		c0,0.3-0.1,0.6-0.3,0.9c-0.2,0.3-0.4,0.3-0.6,0c-0.2-0.5,0.2-1,0-1.6c-0.2-0.5,0.3-0.9,0.2-1.4c0.1-0.7,0.2-1.5,0.2-2.2
		C0.7,102.6,0.6,101.9,1,101.5z"/>
	<path fill="#BCBCBC" d="M20.2,99.5c0.6,1.4,0.7,2.9,1.2,4.3c-0.1,0.1-0.2,0.1-0.4,0.1c-0.2,0-0.2,0.2-0.5,0.1
		c-0.1-0.4-0.3-1-0.4-1.2c-0.2-0.9-0.3-1.2-0.5-2.1c0.1-0.3,0-0.6-0.1-1C19.5,99.2,20,99.6,20.2,99.5z"/>
	<path fill="#A9A9A9" d="M17.3,82.6c0.3-0.1,0.4,0.1,0.4,0.4c0,0.1,0,0.2,0.1,0.2c0.1,0,0.2-0.1,0.2-0.2c0-0.2,0.1-0.3,0.1-0.5
		c-0.3-1,0.1-2-0.1-3c0-0.2,0.1-0.2,0.3-0.3c0,1.1,0.1,2.3,0,3.4c0,1.5,0.2,3.1,0,4.6c0,0-0.1,0.1-0.1,0.1c-0.5,0-0.6-0.1-0.5-0.6
		c0.2-0.6,0.3-1.1,0.1-1.7c-0.1-0.2,0.1-0.5,0.1-0.8c0.1,0.4-0.2,0.7,0,1.1c0.1,0.1-0.3,0.3-0.5,0.3c-0.2-0.1-0.1-0.4-0.1-0.8
		c-0.1-0.6,0-1-0.1-1.6C17.2,83.1,17.3,83,17.3,82.6z"/>
	<path fill="#BABABA" d="M18.9,92.4c0.2,1,0.3,2,0.5,3c0,0.7,0.2,1.5,0,2.2c0,0.1-0.1,0.1-0.2,0.1c-0.1,0-0.2,0-0.3,0
		c-0.1-0.1-0.2-0.3-0.2-0.5c0.1-0.9,0.2-1.6-0.3-2.4c0-0.1-0.1-0.4-0.1-0.5c0-0.1-0.1-0.2-0.1-0.3c0.2-0.3-0.1-0.2-0.1-0.4
		c-0.1-0.2-0.1-0.4-0.1-0.6c0-0.4,0-0.5-0.1-0.8c0-0.1-0.1-0.4,0-0.4c0.2-0.1,0.2-0.2,0.5-0.2c0.3,0.1,0.2,0.4,0.3,0.6
		C18.7,92.3,18.8,92.3,18.9,92.4z"/>
	<path fill="#8F8F8F" d="M21.2,110.1c-0.4-0.1-0.9-0.1-1.2,0c-0.2-0.2-0.4-0.1-0.6-0.1c-0.6,0.1-1.3-0.1-1.9-0.1
		c-0.1-0.1-0.3-0.2-0.3-0.3c0-0.2,0.1-0.3,0.2-0.4c0.4-0.1,0.9,0,1.3,0c0.6,0,1.1-0.1,1.7-0.2c0.3-0.1,0.6-0.3,0.9-0.3
		c0.2,0,0.3,0,0.6-0.1c0.1,0,0.1,0,0.2,0.1c0.3,0.6,0.3,0.6-0.2,0.9C21.3,109.5,21.5,110,21.2,110.1z"/>
	<path fill="#B7B7B7" d="M3.2,71c0-0.4,0-0.7,0-1.1c0.1-0.6,0.1-1.3,0.1-1.9c0-0.2,0-0.3,0.1-0.5c0.1-0.5,0.1-1,0.1-1.5
		c0-0.7,0-0.7,0.7-0.8c0.1,0,0.2,0.1,0.2,0.2c-0.1,0.6,0,1.3-0.2,1.9c-0.2,0.6,0,1.2,0.1,1.8c0,1.2,0.1,0.8,0,1.5
		c0,0.7,0,0.5-0.1,0.9c0,0.9-0.6,1.1-0.4,0.2c-0.2,0-0.2-0.1-0.3-0.2C3.3,71.4,3.3,71.2,3.2,71z"/>
	<path fill="#BDBDBD" d="M17.8,62.2c0.1,1.2,0.1,2.3,0.1,3.5c-0.2,0.4-0.1,0.7-0.1,1.1c0,0.1,0.1,0.2,0.1,0.3c0,0.2,0.1,0.6-0.3,0.7
		c-0.4,0.1-0.4-0.3-0.5-0.6c0-0.5-0.2-1.7-0.3-2.2c0-0.9,0-0.4,0.1-1.3c0-0.1-0.1-0.7,0-0.7C17.3,62.9,17.6,62.6,17.8,62.2z"/>
	<path fill="#8F8F8F" d="M6.3,111c-0.9,0-1.8-0.3-2.8-0.3c0.2,0.4,0.4,0.3,0.6,0.3c0.2,0,0.3,0,0.5,0.1c0.1,0.1,0.3,0.2,0.3,0.3
		c0,0.2-0.3,0.1-0.3,0.2c-0.1,0-0.2,0-0.3-0.1c-0.4-0.1-0.8,0-1.2,0.1c-0.7,0.8-1,0.4-1.6,0.1c-0.1-0.1,0.1-0.2,0-0.3
		c-0.4-0.3-0.3-0.7,0.1-0.9c0.4-0.1,1-0.2,1.5-0.1c0.9-0.1,1.3,0,2.2,0c0.3,0,0.6,0,1.1,0.1C6.4,110.7,6.3,111,6.3,111z"/>
	<path fill="#BABABA" d="M18,54.3c0.1,0.9,0.2,1.8,0.1,2.8c0,0.4,0.1,0.8-0.2,1.1c-0.6,0-0.9-0.2-0.7-0.7c0.2-0.6-0.1-0.8,0-1.5
		c-0.1-0.6,0-0.9,0-1.4c0-0.4-0.3-0.8,0.2-0.9c0.4,0,0.6,0.2,0.6,0.6C18,54.3,18,54.3,18,54.3z"/>
	<path fill="#BCBCBC" d="M14.8,29c-0.3-0.4-0.5-0.7-0.4-1.2c0.1-0.3,0-0.6-0.5-0.6c-0.1-0.3,0-0.6,0-0.8c0-0.5,0-0.8,0-1.4
		c0.4-0.6,0.2-0.6,0-1.4c0-0.1,0-0.4,0-0.5c0-0.2,0.2-0.6,0.4-0.8c0.7-0.1,0.2,0.3,0.2,1c0,0.2,0,0.4,0.1,0.6c0.1,0.3,0.2,0.6,0,0.9
		c-0.1,0.1,0,0.3,0.1,0.4C14.7,26.5,14.6,27.8,14.8,29z"/>
	<path fill="#B1B1B1" d="M17.3,67.2c0.1,0.2,0.2,0.3,0.3,0.5c0.2-0.3,0.1-0.6,0.1-0.9c0-0.4-0.3-0.8,0.2-1.1
		c0.2,1.2,0.2,2.5-0.1,3.7c0,0.1,0,0.2,0,0.3c-0.1,0.4-0.5,0.2-0.7,0.4c-0.1-0.2,0-1.1,0-1.2c0-0.8-0.1-0.5-0.1-1.2
		c0-0.1,0.1-0.5,0.1-0.8C17.2,66.9,17.2,67.1,17.3,67.2z"/>
	<path fill="#B5B5B5" d="M15.1,41.7c0,0,0,0.1,0,0.1c0.1,0.4-0.1,0.9,0,1.3c0-0.4,0-0.4,0.3-0.5c0.3,1.2,0.4,2.5,0.7,3.7
		c0,0.1,0,0.3-0.2,0.3c-0.3,0-0.5-0.1-0.6-0.4c-0.1-0.3-0.2-0.6-0.3-1c-0.1-1-0.1-1.3-0.4-2.1c0-0.5-0.1-1,0.1-1.4
		C14.8,41.6,14.9,41.6,15.1,41.7z"/>
	<path fill="#B2B2B2" d="M14.8,37.2c0.2,1.1,0.3,2.2,0.1,3.4c0,0.4,0.3,0.7,0.1,1.1c-0.4-0.1-0.8-0.3-0.8-1.3
		c-0.2-1.1-0.2-1.3-0.2-2.1c0-0.1,0-1,0-1.1c0.3-0.1,0.4,0.3,0.4,0.6c-0.1,0.3,0.1,0.7,0,1c0-0.4,0-0.9-0.1-1.3
		c0-0.1-0.1-0.3-0.1-0.4c0-0.2,0-0.3,0.2-0.3c0.2,0,0.1,0.2,0.1,0.3C14.8,37.1,14.8,37.1,14.8,37.2z"/>
	<path fill="#989898" d="M21.8,108.6c0,0-0.1,0-0.1,0c-0.5,0-0.5-0.5-0.5-0.8c-0.2-1.2-0.3-2.4-0.5-3.6c0-0.1,0-0.2,0.1-0.3
		c0.3-0.1,0.4,0,0.5,0.3c0.2,0.6,0.2,1.2,0.5,1.8c-0.2,0.3,0.3,0.6,0,0.9c0.2,0.4,0.1,0.9,0.2,1.4C22,108.4,21.9,108.5,21.8,108.6z"
		/>
	<path fill="#C0C0C0" d="M5.9,47.3c-0.1-0.2-0.2-0.4-0.5-0.4c-0.2,0-0.2-0.1-0.2-0.2c0.1-0.9,0.2-1.7,0.4-2.5C5.8,44,6.1,44,6,44.4
		c0,0.1-0.1,0.2,0,0.3c0.1,0,0.2,0,0.2,0c0.2,0,0.2,0,0.3,0.2c0.1,0.3,0,0.7-0.2,0.8c-0.1,0.2-0.1,0.6,0,0.7
		C6.2,46.8,6.2,46.7,5.9,47.3z"/>
	<path fill="#707070" d="M21.8,108.6c0.1-0.5-0.1-2,0-2.5c0.2,0.7,0.2,2.2,0.6,2.8c0.1,0.1,0.2,0.3,0.3,0.3c0.3,0.1,0.2,0.4,0,0.4
		c-0.1,0-0.2,0.1-0.3,0.2c-0.6,0.2-0.6,0.7-0.5,1.1c0,0.5-0.1,0.6-0.6,0.5c-0.1-0.1-0.2-0.1-0.2-0.3c0.1-0.4,0.5-0.8-0.1-1.2
		c-0.1-0.4,0.1-0.6,0.5-0.7C21.8,109.1,21.8,108.9,21.8,108.6z"/>
	<path fill="#ABABAB" d="M3.2,71c0.1,0,0.2-0.4,0.3,0c0.1,0.2,0,0.4,0.2,0.6c0.3,0,0.1-0.3,0.3-0.4c0.1,0.3,0,0.3,0.1,0.6
		c0.1,0,0,0.4,0,0.5c0,0.4,0,0.5-0.1,1c-0.1,0.3-0.2-0.2-0.4-0.3c-0.2,0.5,0.3,0.6,0.3,1.2c0,0.7-0.1,0.7-0.1,1.4
		c-0.1,0.1-0.1,0.2-0.2,0.4c-0.3-0.6,0.4-1.3-0.3-1.9c0.1,0.6,0,0.9-0.3,1.2C2.8,73.7,3.2,72.4,3.2,71z"/>
	<path fill="#B2B2B2" d="M18.9,92.4c-0.1,0.1-0.4,0.3-0.3,0c0.1-0.9-0.3-0.4-0.6-0.3c0-0.2-0.1-0.6-0.1-0.8c0.1-0.3,0-0.1,0.1-0.4
		c0-0.4-0.2-0.7-0.3-1.1c0-0.6,0-0.9,0-1.4c0.3-0.2,0.3,0.3,0.4,0.5c0.2,0.4,0.4,0.8,0.6,1.1C18.8,90.8,18.8,91.6,18.9,92.4z"/>
	<path fill="#C5C5C5" d="M18,54.3c-0.1,0-0.1-0.3-0.2-0.1c-0.1,0.1-0.1,0.2-0.2,0c-0.1-0.1,0-0.4-0.3-0.4c-0.2,0.1-0.1,0.3-0.1,0.5
		c-0.1-0.3-0.2-0.5-0.2-0.8c0-0.3,0-0.2,0.1-0.6c0.1,0,0.3,0.1,0.4,0.1c-0.1-0.6-0.8-1.2,0-1.9C17.6,52.2,18.2,53.2,18,54.3z"/>
	<path fill="#979797" d="M0.3,108.2c0.2,0.2,0.3,0,0.4-0.2c0.1-0.2,0.1-0.4,0.2-0.7c0.1-0.1,0.4,0,0.2,0.2c-0.1,0.4-0.1,0.8-0.1,0.9
		c0.1,0.2,0.2,0,0.2,0.2c0.1,0.5-0.3,0.3-0.3,0.4c0,0.3,0,0.3,0,0.5c0,0.2,0.1,0.7,0.4,0.9c-0.1,0.2-0.1,0.2-0.4,0.2
		c-0.1,0-0.2,0-0.3,0.1c0,0.1-0.2,0-0.3,0c-0.2,0-0.4-1.5-0.3-2.2C0.2,108.5,0.1,108.3,0.3,108.2z"/>
	<path fill="#A6A6A6" d="M14.8,18.9c0,1,0.1,1.9-0.1,2.9c-0.2,0.2-0.5,0.2-0.5,0.6c-0.1,0.1,0,0.3-0.2,0.2c-0.3-0.1-0.2-0.8-0.1-1.1
		c0.2-1.3-0.1-2.2,0-3.5c0-0.3-0.1-0.9,0.2-1c0.2-0.1,0,0.4,0.2,0.5c0.3,0.3,0.3,0.8,0.2,1.1c-0.1,0.5,0,1-0.1,1.6
		c0-0.3,0.1-0.6,0-1C14.4,19,14.5,18.8,14.8,18.9z"/>
	<path fill="#B7B7B7" d="M14.8,18.9c-0.4,0.3-0.1,0.6-0.1,1c-0.1,0.3-0.1,0.6-0.2,0.9c-0.5-1-0.2-2.1-0.3-3.2c0-0.1-0.1-0.1-0.1-0.2
		c0-0.2,0.1-0.5,0.4-0.5c0.4,0.1,0,0.5,0.3,0.7C14.8,18,14.9,18.5,14.8,18.9z"/>
	<path fill="#B3B3B3" d="M14.3,37.9c0-0.2-0.1-0.4-0.2-0.5C13.8,37,14,36.7,14,36.4c0-0.2,0-0.9,0-1.1c0-0.5,0-0.7-0.1-1.2
		c0-0.3,0-0.3,0.1-0.7c0.3,0.3,0.5,0,0.6-0.2c0.3,0.6,0.2,1.2,0.2,1.9c0,0.4,0,0.8,0,1.1c-0.3,0.4-0.5,0.8-0.3,1.3
		C14.6,37.6,14.7,37.9,14.3,37.9z"/>
	<path fill="#AFAFAF" d="M5.2,46.6c0.1,0.1,0.2,0.2,0.2,0.2c-0.2,0.3-0.2,0.7-0.1,1c0.1,0.3,0.1,0.6-0.1,0.9
		c-0.1,0.2-0.1,0.4-0.1,0.5c0.2,0.7-0.3,1.4-0.1,2.2c0,0.2-0.2,0.2-0.3,0.2C4.8,50,4.9,48.3,5.2,46.6z"/>
	<path fill="#BDBDBD" d="M17.9,58.5c0.3,0.8,0,1.5,0,2.3c-0.6,0.3-0.8,0.2-0.8-0.4c0-0.3-0.1-0.4-0.1-0.8c0-0.1-0.1-0.5,0-0.6
		c0.1-0.2,0.1-0.1,0.1-0.4c0-0.2,0-0.5,0.3-0.6C17.8,58,17.8,58.4,17.9,58.5z"/>
	<path fill="#ABABAB" d="M14.6,17c-0.1,0.2-0.2,0.3-0.4,0.5c-0.1-0.3-0.3-0.1-0.3-0.5c0-0.4-0.1-1,0-1.2c0-0.6,0.2-0.8,0-1.3
		c0-0.1-0.1-0.2,0-0.3c0.1-0.2,0.1-0.2,0.2-0.3c0.3-0.2,0.5-0.2,0.5,0.2c0,0.5,0.2,0.9,0.2,1.4c0,0.3,0,0.6,0,0.8
		C14.4,16.5,14.8,16.8,14.6,17z"/>
	<path fill="#8A8A8A" d="M12.5,4.9c0.2,0.2,0.3,0,0.5-0.1c0.2-0.1,0.3-0.3,0.4-0.4c0.1-0.1,0.2-0.2,0.4-0.2C14,4.2,14,4.4,14,4.5
		c-0.1,0.3-0.1,0.7-0.3,1c-0.2,0.3-0.3,0.7-0.3,1.1c0,0.1-0.1,0.2-0.1,0.4c-0.4,0-0.5-0.3-0.5-0.6c0-0.5-0.1-0.8-0.4-1.2
		C12.3,5.1,12.4,5,12.5,4.9z"/>
	<path fill="#A5A5A5" d="M4.1,65.4c-0.5,0.1-0.6,0.4-0.6,0.9c0,0.5,0.2,1-0.1,1.4c0,0-0.1,0-0.1,0c0-1.3,0.1-2.6,0.3-3.8
		c0,0,0,0,0-0.1c0.2-0.1,0-0.7,0.4-0.5c0.4,0.2-0.1,0.3-0.1,0.5c0,0.4-0.1,0.8-0.1,1.2c0,0.3,0.2,0.2,0.4,0.3
		C4.2,65.3,4.2,65.3,4.1,65.4z"/>
	<path fill="#747474" d="M17.6,109.8c0.6-0.1,1.1,0.2,1.7,0c0.2-0.1,0.5,0,0.7,0.3c-0.5,0.1-1,0.2-1.6,0c-0.9-0.2-1.9,0.1-2.8,0.2
		c-0.2-0.1-0.6-0.1-0.4-0.5c0.4-0.1,0.9,0,1.3-0.1C16.8,109.7,17.2,109.7,17.6,109.8z"/>
	<path fill="#A7A7A7" d="M19,97.5c0.1,0,0.2,0,0.2,0c0.2,0.1,0.1,0.2,0.2,0.3c0.1,0.4,0.1,0.9,0.6,1c0.1,0,0.2,0.2,0.1,0.3
		c0,0.1,0.1,0.2,0.1,0.3c0,0,0,0.1,0,0.1c0.1,0.4-0.5-0.2-0.4,0.3c0.1,0.2,0.1,0.5,0,0.7c0,0-0.1,0.1-0.1,0.1
		c-0.1-0.1-0.2-0.6-0.2-0.7c-0.2-0.9-0.2-0.6-0.4-1.4c0-0.2-0.4-0.9-0.3-1C18.9,97.5,18.9,97.5,19,97.5z"/>
	<path fill="#B3B3B3" d="M17.9,58.5c-0.3-0.3-0.6-0.4-0.6,0.2c0,0.2,0,0.4-0.3,0.4c0-0.3,0-0.9,0-1.2c0.1-0.7,0-0.7,0.1-1.4
		c0-0.3,0-0.2,0.1-0.6c0.3,0.4,0.6,0.8,0.3,1.3c-0.3,0.4,0.2,0.6,0.5,0.8C17.9,58.3,17.9,58.4,17.9,58.5z"/>
	<path fill="#656565" d="M11.4,9.9c-0.4-0.1-0.1-0.5-0.2-0.7c0.1-0.9,0.6-1.7,0.8-2.5c0.2-0.1,0.3-0.1,0.4,0.1c0,0.3,0,0.5-0.2,0.7
		c-0.3,0.4-0.5,0.9-0.1,1.4c0.1,0.2-0.1,0.2-0.1,0.6C12,9.6,11.7,10,11.4,9.9z"/>
	<path fill="#818181" d="M1,110.9c0-0.2,0.4-0.3,0.5-0.4c0.8,0,0.4,0,1.2,0c-0.1,0.3-0.3,0.3-0.6,0.3c-0.4,0-0.5,0.1-0.7,0.5
		c0.3,0.1,0.3-0.2,0.5-0.3c0.2-0.1,0.3-0.1,0.4,0c0.1,0.2,0,0.3-0.1,0.4c-0.2,0.1-0.5,0.3-0.7,0.4C1,111.6,1.1,111.2,1,110.9z"/>
	<path fill="#BFBFBF" d="M14.3,37.9c0.2-0.3,0.1-0.5,0-0.8c-0.2-0.5,0-0.9,0.5-1c0,0.4,0,0.7,0,1.1c-0.1-0.1-0.1-0.2-0.2-0.4
		c0.2,1-0.1,1.9,0.2,2.8C14.4,39.5,14.4,39.5,14.3,37.9z"/>
	<path fill="#A9A9A9" d="M15,45.5c0-0.1,0.1-0.3,0.2-0.1c0.1,0.2,0,0.4,0.1,0.6c0.1,0.3,0.3,0.6,0.7,0.3c0,0.1,0.1,0.2,0.1,0.4
		c-0.3,0.1-0.5,0.2-0.3,0.6c0.2,0.3,0.4,0.7,0.2,1.2c-0.2-0.1-0.4-0.8-0.5-1c-0.1-0.3-0.1-0.4-0.3-1.2C15.2,46.1,15,45.7,15,45.5z"
		/>
	<path fill="#626262" d="M12.5,5.4C13,5.4,13.1,5.8,13,6.2c-0.1,0.3,0,0.6,0.2,0.9c0,0.2,0.1,0.3,0.1,0.5c0,0-0.1,0.1-0.1,0.1
		c-0.8-0.1-0.8-0.1-0.8-0.9c-0.2-0.3-0.2-0.6-0.3-1C12.2,5.6,12.2,5.3,12.5,5.4z"/>
	<path fill="#BDBDBD" d="M17.9,60.9c0,0.4,0.1,0.7-0.1,1.1c0.1,0.6-0.4,0.8-0.7,1.2c-0.1,0.2,0,0.3-0.1,0.2
		c-0.1-0.8-0.2-2.1,0.2-2.9c0.4,0,0.1,0.3,0,0.9C17.3,61,17.3,61,17.9,60.9z"/>
	<path fill="#959595" d="M14.3,10.9c0,0.7,0.4,1.4,0.2,2.1c-0.4-0.1-0.5-0.3-0.8-0.6c-0.1-0.4-0.2-0.7-0.1-1
		c0.1-0.3,0.1-0.3,0.2-0.5C14,10.7,14.2,10.7,14.3,10.9z"/>
	<path fill="#6B6B6B" d="M21,111.1c0.1,0,0.2,0.1,0.2,0.1c0.5,0.1,0.5,0.1,0.5-0.4c0-0.3,0.1-0.5,0.2-0.8c0-0.2,0.2-0.3,0.4-0.1
		c0,0.5,0,1,0.1,1.5c0,0.3,0,0.7-0.3,0.8c-0.3,0.1-0.8,0.1-0.8-0.3c0-0.3-0.4-0.5-0.7-0.5c-0.1-0.3,0.1-0.2,0.2-0.2
		C20.7,111.1,21,111.1,21,111.1z"/>
	<path fill="#707070" d="M12.5,5.4c-0.2,0.5-0.1,1.1,0.1,1.6c-0.1,0.1-0.2,0.1-0.4,0c-0.1-0.1-0.2-0.2-0.3-0.2
		c0.1-0.5-0.3-0.9-0.2-1.4c0-0.3,0.1-0.5,0.5-0.5c0.1,0,0.2,0.1,0.2,0.1C12.5,5,12.5,5.2,12.5,5.4z"/>
	<path fill="#888888" d="M22.3,109.9c-0.4,0.3-0.2,0.6-0.2,1c0,0.2,0,0.5-0.3,0.6c-0.2,0.1-0.4,0-0.5-0.2c0.1,0,0.2-0.1,0.2-0.1
		c-0.1-0.4,0.1-0.7,0.2-1.1c0.1-0.6,0.1-0.6,0.6-0.3C22.3,109.8,22.3,109.8,22.3,109.9z"/>
	<path fill="#5B5B5B" d="M13.4,6.7c-0.1-0.4,0-0.8,0.2-1.1c0-0.1,0.1-0.2,0.2-0.3c0.1-0.3,0.3-0.6,0-0.8c-0.2-0.1-0.3,0.3-0.5,0.4
		c-0.1,0.1-0.1,0-0.2-0.1c0.1-0.2,0.3-0.5,0.4-0.7c0.6-0.2,0.8,0,0.7,0.8C13.8,5.5,13.6,6.1,13.4,6.7z"/>
	<path fill="#808080" d="M0.3,108.2c-0.2,0.9,0.4,1.7,0.3,2.6c-0.4-0.4-0.6-0.7-0.6-1.2c-0.1-0.9,0.1-1.9,0.2-2.8
		C0.5,107.2,0.3,107.7,0.3,108.2z"/>
	<path fill="#A9A9A9" d="M13.9,22.4c0.1-0.1,0.1-0.2,0.2-0.3c0.2-0.2,0.4-0.1,0.6,0c0.1,0.7,0,1.5,0.2,2.2c0.1,0.3-0.3,0.6-0.1,1
		c-0.2-0.1-0.2-0.4-0.2-0.6c0-0.5-0.1-1-0.1-1.4c0-0.4-0.4-0.1-0.5-0.4C14.1,22.7,14.1,22.6,13.9,22.4z"/>
	<path fill="#848484" d="M14.3,10.9c-0.3,0-0.4,0.5-0.7,0.5c0-0.5-0.1-0.6-0.2-1c0-0.2-0.1-0.3,0-0.5c0.2-0.5,0.3-0.5,0.7-0.2
		C14.2,10.2,14.3,10.5,14.3,10.9z"/>
	<path fill="#BABABA" d="M20.1,99.2c-0.8-0.3-1-0.7-0.9-1.7c0,0,0,0,0,0c0.6-0.5,0.3,0.3,0.5,0.4C19.8,98.3,20.2,98.7,20.1,99.2z"/>
	<path fill="#969696" d="M14.7,15.4c-0.2-0.3-0.3-0.7-0.3-1.1c0-0.1,0.1-0.4-0.1-0.4c-0.2-0.1-0.3,0.2-0.4,0.3
		c-0.2-0.2-0.1-0.4-0.2-0.7c0-0.2,0-0.5,0-0.6c0.1-0.2,0.1-0.3,0.3-0.3c0.3,0,0.3,0.3,0.3,0.5c0,0.1,0.1,0.2,0.2,0.2
		C14.6,14.1,14.6,14.8,14.7,15.4z"/>
	<path fill="#C1C1C1" d="M15.3,42.6c-0.2,0.4,0,0.8,0,1.2c0,0.1,0,0.3-0.1,0.3c0,0-0.1,0-0.1-0.1c-0.2-0.3-0.2-1.8,0.1-2.2
		C15.3,42,15.3,42.3,15.3,42.6z"/>
	<path fill="#ADADAD" d="M18.6,90.1c-0.3-0.3-0.6-0.6-0.9-0.8c0.1-0.1,0.1-0.1,0.1-0.2c0.3-0.4,0.1-0.7,0-1c0-0.1,0-0.1,0-0.2
		c0.2-0.1,0.2-0.4,0.4-0.5c0,0,0.1,0,0.1,0c0.3,0.6,0.2,1.3,0.2,1.9C18.5,89.5,18.5,89.8,18.6,90.1z"/>
	<path fill="#A6A6A6" d="M17.9,60.9c-0.1,0.1,0,0.5-0.4,0.4c-0.3-0.1-0.2,0.3-0.4,0.5c0-0.4,0-0.8,0-1.2c0-0.5,0-0.4,0-1.1
		c0.3,0.2,0.3,0.5,0.3,0.8c0,0.5,0.2,0.6,0.6,0.5C17.9,60.8,17.9,60.9,17.9,60.9z"/>
	<path fill="#A4A4A4" d="M19.7,97.9c-0.2-0.1-0.1-0.5-0.5-0.4c0.1-0.7,0-1.5,0.1-2.2C19.7,96.2,19.6,97,19.7,97.9z"/>
	<path fill="#666666" d="M14.1,9.8c-0.5-0.1-0.4,0.7-0.6,1c-0.1-0.2-0.2-1.1-0.3-1.3C13.2,9,13,8.6,12.6,8.6
		c0.1-0.4,0.3-0.3,0.6-0.2c0.3,0.1,0.3,0.6,0.6,0.7c0.1,0.1,0,0.3,0.2,0.3C14,9.6,14.1,9.7,14.1,9.8z"/>
	<path fill="#ABABAB" d="M2.9,75.7c0.1,0,0.3-0.1,0.2,0.2C3,76.5,2.9,77.1,3,77.7C3.1,78,3,78.2,2.7,78.3c0.2-0.7-0.1-1.5,0.1-2.2
		C2.8,76,2.9,75.8,2.9,75.7z"/>
	<path fill="#A9A9A9" d="M14.5,13.4c-0.2,0.1-0.4,0.3-0.5,0.2c-0.2-0.1,0.1-0.3,0.1-0.4c0.1-0.4-0.1-0.2-0.3-0.2
		c-0.2-0.3-0.1-0.2,0-0.5c0.7-0.4,0.6,0.4,0.8,0.6C14.5,13.2,14.5,13.3,14.5,13.4z"/>
	<path fill="#B7B7B7" d="M5.9,44.7c-0.1-0.2-0.1-0.5-0.4-0.6c0.2-0.6,0.1-1.3,0.3-1.9c0.1,0,0.2,0,0.1,0.1C6,43.1,6.1,43.9,5.9,44.7
		z"/>
	<path fill="#9E9E9E" d="M3.3,67.6c0,0,0.1,0,0.1,0c0.3,0.7-0.2,1.5,0,2.2c0,0.1-0.1,0.1-0.2,0.1C3.2,69.2,3.1,68.4,3.3,67.6z"/>
	<path fill="#AEAEAE" d="M17,63.2c0-0.2,0.1-0.3,0.1-0.5c0-0.2-0.1-0.3,0.3-0.2c0.3,0.1,0.3-0.2,0.3-0.4c0-0.2,0-0.2,0.2-0.1
		c0,0.1,0,0.1,0,0.2c0,0.3,0.1,0.7-0.4,0.8c-0.2,0-0.1,0.3-0.3,0.5c-0.1-0.1-0.1-0.2-0.2-0.3C17,63.3,16.9,63.3,17,63.2
		C17,63.2,17,63.2,17,63.2z"/>
	<path fill="#B7B7B7" d="M16.4,1.4c-0.1,0.1-0.3,0.2-0.4,0c-0.1-0.2,0-0.3,0.1-0.4c0.2-0.2,0.4-0.5,0.8-0.5C17,1,16.6,1.2,16.4,1.4z
		"/>
	<path fill="#6E6E6E" d="M21.8,106c-0.4-0.4-0.3-0.9-0.5-1.4c-0.1-0.3-0.1-0.6-0.5-0.7c-0.1-0.3,0.1-0.2,0.2-0.3
		c0.1,0,0.2,0.1,0.4,0.1C21.5,104.6,21.8,105.3,21.8,106z"/>
	<path fill="#A7A7A7" d="M4,59.2c0.4,0.6,0.1,1.2,0,1.8c0,0.2-0.1,0.4-0.1,0.6c0,0.1-0.1,0.1-0.1,0C3.8,60.8,4,60,4,59.2z"/>
	<path fill="#A7A7A7" d="M4.3,55.8c0.2,0,0.3,0.1,0.3,0.3c-0.2,0.6-0.2,1.2-0.3,1.9C4.2,58,4.1,58,4,58C4.1,57.3,4.1,56.5,4.3,55.8z
		"/>
	<path fill="#B1B1B1" d="M5.9,42.3c0,0-0.1-0.1-0.1-0.1c0.3-0.5,0.2-1.1,0.3-1.7C6.6,41.1,6.5,41.5,5.9,42.3z"/>
	<path fill="#959595" d="M1,101.5c-0.2,0.5-0.1,1.1-0.4,1.6c0,0.1-0.1,0.1-0.1,0c0-0.4,0-0.8,0.1-1.2c0.2-0.3,0-0.7,0.2-1.1
		C1,101,0.9,101.3,1,101.5z"/>
	<path fill="#878787" d="M0.6,103C0.6,103,0.6,103,0.6,103c0,0.8,0.3,1.6-0.1,2.3c-0.2-0.4,0-0.9,0-1.3C0.4,103.7,0.5,103.4,0.6,103
		z"/>
	<path fill="#A9A9A9" d="M10.6,11c0.2,0.4,0,0.8-0.1,1.1c-0.1,0.4-0.2,0.7-0.2,1.1c-0.1-0.1-0.2-0.2-0.3-0.4
		C10.3,12.2,10.4,11.6,10.6,11z"/>
	<path fill="#BCBCBC" d="M14.7,22.2c-0.2,0-0.4,0-0.6,0c0.1-0.2,0.2-0.5,0.2-0.7c0-0.1,0-0.3,0.2-0.2c0.2,0,0.2,0.2,0.2,0.3
		c0,0.1-0.3,0.3,0.1,0.3C14.7,21.9,14.7,22.1,14.7,22.2z"/>
	<path fill="#545454" d="M14,9.5c-0.2,0-0.2-0.1-0.3-0.2c-0.3-0.4-0.5-0.9-0.6-1.4c0-0.1,0.1-0.2,0.1-0.2c0,0,0.1,0,0.1,0
		C13.8,8.1,13.9,8.8,14,9.5z"/>
	<path fill="#A6A6A6" d="M2.3,86.7c-0.1,0-0.2,0.1-0.4,0.1c0.1-0.6,0.2-1.1,0.2-1.7C2.6,85.6,2.2,86.2,2.3,86.7z"/>
	<path fill="#C1C1C1" d="M14.3,41c0,0,0.1,0.1,0.1,0.1c0.4-0.4,0.4,0,0.5,0.2c0,0.1,0.1,0.2,0.1,0.3c0,0,0,0.1,0,0.1
		c-0.1,0-0.2,0.1-0.4,0.1c-0.2-0.1-0.1-0.2-0.3-0.4C14.3,41.3,14.3,41.4,14.3,41z"/>
	<path fill="#989898" d="M14.6,17c0-0.2-0.3-0.5,0.1-0.7c0,0.4,0.2,0.9,0.1,1.3C14.5,17.5,14.7,17.2,14.6,17z"/>
	<path fill="#3F3F3F" d="M12.3,4.8c-0.2,0.1-0.4,0.3-0.5,0.5c0-0.1,0-0.1-0.1-0.2c0-0.2-0.2-0.5,0.1-0.6C12,4.4,12.1,4.7,12.3,4.8z"
		/>
	<path fill="#A0A0A0" d="M3.8,61.6c0,0,0.1,0,0.1,0c0,0.3,0,0.6,0,0.9c0,0.3-0.2,0.3-0.2,0C3.7,62.3,3.7,62,3.8,61.6z"/>
	<path fill="#A3A3A3" d="M3.1,111.7c0.4,0,0.7-0.8,1.2-0.1C3.8,111.6,3.5,111.7,3.1,111.7z"/>
	<path fill="#EEEEEE" d="M18.4,111.7c0,0.1,0,0.2-0.1,0.2c-0.2,0-0.3-0.2-0.3-0.4c0-0.1,0.1-0.2,0.2-0.2
		C18.4,111.4,18.4,111.5,18.4,111.7z"/>
	<path fill="#B7B7B7" d="M6.7,42.8c0,0.7,0,1.5-0.2,2.2c-0.1-0.1-0.2-0.2-0.2-0.2c0.2-0.5,0.1-1,0.1-1.5C6.2,42.9,6.3,42.7,6.7,42.8
		z"/>
	<path fill="#AFAFAF" d="M7.1,40.5c-0.1,0.4-0.2,0.8-0.2,1.2c0,0-0.1,0.1-0.1,0.1C6.6,41.4,6.7,40.7,7.1,40.5
		C7.1,40.5,7.1,40.5,7.1,40.5z"/>
	<path fill="#A6A6A6" d="M8.8,25.7c0,0.2,0,0.3,0,0.5c-0.2,0-0.3-0.1-0.4-0.2c0.1-0.2,0.2-0.4,0.3-0.8C8.8,25.4,8.8,25.5,8.8,25.7z"
		/>
	<path fill="#A3A3A3" d="M4.6,63c-0.1,1.3-0.4,2.6-0.4,4c0,0.6-0.1,1.3-0.1,1.9c-0.4-0.2-0.5-0.6-0.4-0.9c0.3-0.8,0.1-1.7,0.4-2.6
		c0,0,0-0.1,0-0.1c0.2-0.9,0.2-1.9,0.3-2.9C4.7,62.6,4.6,62.8,4.6,63z"/>
	<path fill="#AFAFAF" d="M5.9,47.7c0.2,0.4,0.1,0.9,0,1.3c-0.2,0.8-0.2,1.7-0.2,2.5c-0.2-0.1-0.3-0.2-0.3-0.4
		C5.5,50.1,5.5,49,5.8,48C5.8,47.9,5.9,47.8,5.9,47.7z"/>
	<path fill="#A2A2A2" d="M5.1,56.8c0,0.4,0,0.8,0,1.2c-0.4-0.5-0.3-1-0.2-1.6C5,56.6,5,56.7,5.1,56.8z"/>
	<path fill="#A9A9A9" d="M17.3,82.3c-0.2-0.9,0-1.8,0-2.7c-0.1-0.7,0-1.5,0-2.3c0.4,0.3,0.3,0.7,0.3,1.1c0,0.6-0.1,1.2,0,1.8
		C17.8,80.9,17.8,81.7,17.3,82.3z"/>
	<path fill="#ADADAD" d="M17.3,75.4c0.1-1-0.2-1.9-0.1-2.9c0.5,0.5,0.7,2.2,0.3,2.8C17.5,75.5,17.4,75.5,17.3,75.4z"/>
	<path fill="#B2B2B2" d="M9.1,111c0.2,0,0.4,0,0.4,0.2c0,0.3-0.4,0.2-0.6,0.2c-0.1,0-0.4,0.1-0.4-0.2C8.6,110.9,8.9,111,9.1,111z"/>
	<path fill="#999999" d="M6.3,110.6c0.4,0,0.9-0.1,1.3,0.1c0.1,0,0.3,0.1,0.6,0.2c-0.8,0.2-1.4,0-1.9-0.2
		C6.3,110.7,6.3,110.6,6.3,110.6z"/>
	<path fill="#BBBBBB" d="M10.4,15.8c0,0.1,0,0.2,0,0.2c-0.1,0-0.2,0.1-0.3,0.2c-0.1,0.2-0.2,0.3-0.4,0.3c-0.1,0-0.1-0.1-0.1-0.2
		c0.1-0.2,0.1-0.5,0.3-0.5C10,15.7,10.2,15.8,10.4,15.8z"/>
	<path fill="#959595" d="M1.7,100.8c-0.2,1.7-0.3,3.4-0.6,5c0,0-0.1,0-0.1,0c0-1,0.1-1.9,0.3-2.9c0.1-0.5,0.1-1-0.1-1.4
		C1.5,101.4,1.4,100.8,1.7,100.8z"/>
	<path fill="#979797" d="M14.8,109.3c0.2,0,0.4,0,0.6,0c0.4,0,0.7,0.1,1,0.4c0.1,0.1,0.1,0.2,0.1,0.4c-0.4-0.1-0.9,0.3-1.3-0.1
		C14.5,110,14.9,109.5,14.8,109.3z"/>
	<path fill="#838383" d="M1,105.8c0,0,0.1,0,0.1,0c0.2,0.5,0.1,1,0,1.6c-0.1,0-0.2,0-0.2,0C0.9,106.8,1,106.3,1,105.8z"/>
	<path fill="#6D6D6D" d="M20.7,104.5c0-0.2-0.1-0.3-0.1-0.5c0.1-0.2,0.1-0.5,0.5-0.2c-0.1,0.1-0.2,0.2-0.2,0.3c0,0.1,0,0.1,0,0.2
		C20.9,104.3,20.9,104.5,20.7,104.5z"/>
	<path fill="#B6B6B6" d="M18.2,87.3c0,0.2,0,0.5-0.2,0.6c-0.4-0.1-0.4-0.5-0.4-0.8c0-0.4,0.1-0.8,0-1.2c0-0.1,0.1-0.2,0.2-0.2
		c0-0.5-0.1-1.1-0.1-1.6c0-0.1-0.1-0.4,0.1-0.4c0.2,0,0.3,0.2,0.3,0.3c-0.1,0.9,0.2,1.8,0,2.7C17.9,87,17.7,87.2,18.2,87.3z"/>
	<path fill="#A3A3A3" d="M17.7,85.6c0,0.8-0.2,1.6,0.2,2.3c0,0,0,0,0,0c-0.1,0.2-0.1,0.3,0,0.5c0.2,0.3,0,0.5-0.1,0.7
		c0,0-0.1,0.1-0.1,0.1c0-0.2,0-0.4-0.1-0.6c-0.3-1.1-0.2-2.2-0.2-3.2C17.5,85.5,17.6,85.6,17.7,85.6z"/>
	<path fill="#A9A9A9" d="M18.8,97.6c-0.3-1-0.3-2.1-0.4-3.1c0.4,0.6,0.4,1.4,0.5,2.1c0,0.3,0,0.6,0.1,0.9
		C18.9,97.6,18.9,97.6,18.8,97.6z"/>
	<path fill="#A9A9A9" d="M18.3,94.3c0-0.2-0.1-0.4-0.1-0.6c0-0.1,0-0.3,0-0.5C18.5,93.6,18.8,93.9,18.3,94.3z"/>
	<path fill="#707070" d="M20.7,104.5c0-0.1,0.1-0.2,0.1-0.3c0.2,0.3,0.1,0.7,0.2,1c0.1,0.9,0.2,1.7,0.3,2.6c0,0.3,0.1,0.5,0.3,0.7
		c-0.1,0.2-0.2,0.4-0.4,0.4c-0.2,0,0-0.3-0.1-0.4C21,107.2,20.8,105.8,20.7,104.5z"/>
	<path fill="#818181" d="M16.5,110c-0.2-0.3-0.5-0.4-0.8-0.5c-0.2,0-0.2-0.1-0.2-0.3c0.1-0.1,0.2-0.1,0.4-0.1c0.2,0,0.4,0,0.6,0.1
		c0.3,0.2,0.7-0.1,0.9,0.3c0.1,0.1,0.2,0.2,0.2,0.2C17.2,109.8,16.8,109.9,16.5,110z"/>
	<path fill="#6A6A6A" d="M16.3,109.4c-0.2,0-0.4-0.1-0.5-0.3c0.9-0.5,1.8-0.1,2.8-0.1c-0.3,0.4-0.7,0-1.1,0.1
		C17.1,109.4,16.7,109.3,16.3,109.4z"/>
	<path fill="#979797" d="M16.3,109.4c0.4-0.3,0.8-0.4,1.2-0.2c0,0.1-0.1,0.2-0.1,0.3C17,109.5,16.6,109.6,16.3,109.4z"/>
	<path fill="#AAAAAA" d="M17.1,67.3c0-0.4,0-0.9,0-1.3c0.4,0.3,0.3,0.8,0.3,1.2C17.2,67.2,17.2,67.2,17.1,67.3z"/>
	<path fill="#AFAFAF" d="M14,25.4c-0.1-0.6,0-1.3,0-1.9c0.4,0.1,0.3,0.4,0.3,0.6c0,0.4,0,0.8,0.1,1.2C14.4,25.6,14.2,25.6,14,25.4z"
		/>
	<path fill="#B2B2B2" d="M14.6,43.1c-0.2-0.5-0.1-1.1-0.1-1.6c0.1,0.1,0.2,0.2,0.3,0.4C14.6,42.2,14.7,42.7,14.6,43.1z"/>
	<path fill="#BFBFBF" d="M14.1,37.5c-0.2-0.6-0.1-1.3-0.1-1.9c0.2,0.6,0.1,1.2,0.1,1.8C14.1,37.5,14.1,37.5,14.1,37.5z"/>
	<path fill="#AFAFAF" d="M6.3,45.6c0,0.2-0.1,0.3-0.1,0.5C6,45.8,6,45.4,6,45.1C6.3,45.2,6.3,45.4,6.3,45.6z"/>
	<path fill="#B9B9B9" d="M4,72.2c0.1,0.5-0.1,1-0.2,1.6c-0.3,0.1-0.4-0.1-0.5-0.3c-0.2-0.4,0-0.9,0-1.3c0-0.1,0.1-0.2,0.2-0.2
		c0.1,0,0.2,0.1,0.2,0.2c0,0.2,0,0.3,0.1,0.5C3.9,72.5,4,72.4,4,72.2z"/>
	<path fill="#9C9C9C" d="M17.9,91.8c-0.2-0.5,0-1.1-0.2-1.7c0.3-0.2,0.3,0.1,0.3,0.2C18,90.8,18.1,91.3,17.9,91.8z"/>
	<path fill="#969696" d="M14,17.4c0-0.2-0.1-0.5-0.1-0.7c0.5,0.1,0.3,0.5,0.4,0.8c0,0,0,0.1,0,0.1C14.1,17.5,14,17.4,14,17.4z"/>
	<path fill="#BFBFBF" d="M14.2,34.6c0-0.1,0-0.2,0-0.3c0-0.1,0-0.4,0.2-0.4c0.2,0,0.1,0.2,0.2,0.3c0,0.4,0.1,0.8,0.1,1.2
		c0,0.2,0,0.4-0.2,0.4c-0.2,0-0.2-0.2-0.2-0.3C14.3,35.2,14.2,34.9,14.2,34.6z"/>
	<path fill="#969696" d="M14,16.3c-0.2-0.6-0.1-1.3-0.1-1.9C14.3,15,14.1,15.7,14,16.3z"/>
	<path fill="#959595" d="M12.8,8.6c-0.6,0.1-0.6,0.6-0.7,1c0-0.1,0.1-0.3-0.1-0.4c0,0-0.1,0.2-0.3,0.4c-0.2-0.8,0.1-1.4,0.4-2
		c0.3,0,0.6-0.2,1,0.1c0.1,0.2,0.1,0.4,0.3,0.6c0.2,0.2,0.2,0.4-0.1,0.4C13,8.6,12.9,8.4,12.8,8.6z"/>
	<path fill="#8A8A8A" d="M12.9,7.6c-0.5-0.2-0.3,0.5-0.7,0.5C12,8,12.5,7.6,12.1,7.5c0.1-0.2,0.2-0.4,0.2-0.6c0.1,0,0.2,0,0.4,0
		c0.1,0.2-0.1,0.6,0.4,0.3c0,0,0.2,0.2,0.2,0.3c0,0.1,0,0.2,0,0.2C13,8.1,13,7.7,12.9,7.6z"/>
	<path fill="#B2B2B2" d="M17.8,89.1c0-0.2,0.1-0.5-0.1-0.7c-0.1-0.2,0-0.4,0.2-0.5c0.1,0.3,0.2,0.5,0.3,0.8
		C18.3,89.2,18.2,89.3,17.8,89.1z"/>
	<path fill="#797979" d="M12.9,7.6c0.1,0,0.2,0.1,0.4,0.1c0.3,0.4,0.4,0.9,0.5,1.4c-0.1,0-0.1,0.3-0.2,0.1c-0.1-0.2-0.2-0.4-0.4-0.7
		C13.3,8.2,12.7,8,12.9,7.6z"/>
</g>
</svg>
