<?xml version="1.0" encoding="utf-8"?>

<svg version="1.1" id="" xmlns="http://www.w3.org/2000/svg" xmlns:xlink="http://www.w3.org/1999/xlink"
	 x="0px" y="0px" viewBox="0 0 125.1 26.6" enable-background="new 0 0 125.1 26.6" xml:space="preserve">
<g>
	<g id="lines">
		
			<polyline fill="none" stroke="#878787" stroke-width="0.3" stroke-linecap="round" stroke-linejoin="round" stroke-miterlimit="10" points="
			0.2,4.9 0.9,4.5 1.8,4.4 2.8,4.4 4.4,4.5 6.4,4.7 8.3,4.8 10.6,4.7 13.3,4.5 15.3,4.2 17,4 		"/>
		
			<path fill="none" stroke="#878787" stroke-width="0.3" stroke-linecap="round" stroke-linejoin="round" stroke-miterlimit="10" d="
			M17.4,3.9l0.5-0.1l0.4-0.1h0.5l0.6-0.1l0.8-0.2l0.9-0.4l0.8-0.5l0.5-0.4c0,0,0.4-0.2,0.4-0.2s0.5,0,0.5,0l1,0.1l1.1,0
			c0,0,1.2,0.1,1.3,0.1c0.1,0,0.4,0,0.4,0s0.2,0,0.2,0.1c0,0.1,0.6,0.1,0.6,0.1l2.1,0l0.7,0h0.2"/>
		
			<polyline fill="none" stroke="#878787" stroke-width="0.3" stroke-linecap="round" stroke-linejoin="round" stroke-miterlimit="10" points="
			31.4,2 31.9,2 32.1,2.1 32.3,2.1 		"/>
		
			<line fill="none" stroke="#878787" stroke-width="0.3" stroke-linecap="round" stroke-linejoin="round" stroke-miterlimit="10" x1="32.5" y1="2.1" x2="32.7" y2="2.1"/>
		
			<line fill="none" stroke="#878787" stroke-width="0.3" stroke-linecap="round" stroke-linejoin="round" stroke-miterlimit="10" x1="33.1" y1="2.1" x2="34.5" y2="2.1"/>
		
			<polyline fill="none" stroke="#878787" stroke-width="0.3" stroke-linecap="round" stroke-linejoin="round" stroke-miterlimit="10" points="
			34.8,2 36.4,2 37,1.9 37.5,1.8 		"/>
		
			<path fill="none" stroke="#878787" stroke-width="0.3" stroke-linecap="round" stroke-linejoin="round" stroke-miterlimit="10" d="
			M38.2,1.9c0.1,0,1-0.1,1-0.1s0.4,0,0.5,0c0.1,0,0.5,0,0.6,0s0.5,0,0.5,0H41"/>
		
			<path fill="none" stroke="#878787" stroke-width="0.3" stroke-linecap="round" stroke-linejoin="round" stroke-miterlimit="10" d="
			M41.2,1.9l0.2-0.1l0.3,0.1l0.4,0l0.4-0.1l1,0.1l2.2,0.1L47.2,2l0.7,0.2l0.8,0.3l0.7,0.2l0.9,0.1h1.9H55l2.2-0.1
			c0,0,1.6-0.1,1.6-0.1s1.6-0.2,1.7-0.2c0.1,0,2.2-0.4,2.3-0.4S65,1.6,65,1.6h2L68.8,2l1.3,0.3l1.6,0.2L74,2.5l3.1-0.3l2.3-0.3
			l1.2-0.3c0,0,0.6-0.1,0.8-0.1c0.2-0.1,0.5-0.1,0.6-0.1s1-0.5,1.1-0.5c0.1,0,1-0.5,1-0.5s0.5-0.1,0.7-0.1c0.2,0,1.7,0.1,1.7,0.1
			l1.8,0.3l2.3,0.3l1.8,0.1"/>
		
			<path fill="none" stroke="#878787" stroke-width="0.3" stroke-linecap="round" stroke-linejoin="round" stroke-miterlimit="10" d="
			M92.9,1.1c0,0,1.3-0.1,1.3-0.1s2.4,0.1,2.4,0.1H99h2.8l3.5,0.1h1.7l1.5,0.2l1.1,0.4l1.5,0.2h1h2.2l2.3-0.1l2-0.1"/>
		
			<path fill="none" stroke="#878787" stroke-width="0.3" stroke-linecap="round" stroke-linejoin="round" stroke-miterlimit="10" d="
			M4.1,8.1c0,0,0.5,0.2,0.7,0.2s1.7-0.1,1.7-0.1h3.1H14h1.3L16,8.1c0,0,0.8,0.1,0.8,0.1c0.1,0,1.7,0,1.7,0l1-0.1l1.7-0.2l1.6-0.3
			L24.3,7c0,0,1.3-0.5,1.4-0.5c0.1,0,1.3,0,1.3,0h2.5h2h1.9h0.9l1,0.1c0,0,1.1,0.2,1.1,0.2s1,0.1,1,0.1"/>
		
			<polyline fill="none" stroke="#878787" stroke-width="0.3" stroke-linecap="round" stroke-linejoin="round" stroke-miterlimit="10" points="
			38,7 40,7 42.1,7.1 42.8,7.1 43.5,7.4 44.6,7.5 46.2,7.5 49.2,7.4 51.1,7.1 53.3,6.9 54.5,6.7 		"/>
		
			<path fill="none" stroke="#878787" stroke-width="0.3" stroke-linecap="round" stroke-linejoin="round" stroke-miterlimit="10" d="
			M54.8,6.5c0,0,0.5,0.1,0.5,0c0.1-0.1,0.8-0.2,0.8-0.2h0.2"/>
		
			<path fill="none" stroke="#878787" stroke-width="0.3" stroke-linecap="round" stroke-linejoin="round" stroke-miterlimit="10" d="
			M57.1,6.1c0.1,0,0.8-0.2,0.9-0.2C58,6,58.7,6.1,58.7,6S60,6.2,60,6.2s1.1,0.1,1.2,0.1c0.1,0.1,1.4,0.1,1.4,0.1L64,6.3"/>
		
			<path fill="none" stroke="#878787" stroke-width="0.3" stroke-linecap="round" stroke-linejoin="round" stroke-miterlimit="10" d="
			M69.2,5.9c0,0,1.8-0.3,1.9-0.3c0.1,0,1.5-0.2,1.7-0.2s2.3,0.2,2.3,0.2s2.3,0.4,2.4,0.4c0.1,0,1.4,0.2,1.4,0.2L80.8,6l1.9-0.3"/>
		
			<path fill="none" stroke="#878787" stroke-width="0.3" stroke-linecap="round" stroke-linejoin="round" stroke-miterlimit="10" d="
			M83,5.7c0,0,0.4-0.1,0.5-0.1c0.1,0,0.7-0.1,0.7-0.1h0.6l0.4-0.1l0.6-0.1h0.6l0.7-0.2c0,0,0.7-0.1,0.8-0.2c0.1,0,0.7,0,0.7,0
			s0.5,0.1,0.6,0.1s1-0.1,1-0.1h1h4.2c0,0,5.8,0,5.9,0s0.7,0.1,0.9,0.1c0.1,0.1,0.4,0.3,0.5,0.4s0.7,0.1,0.8,0.1
			c0.1,0,0.3-0.1,0.3-0.1"/>
		
			<path fill="none" stroke="#878787" stroke-width="0.3" stroke-linecap="round" stroke-linejoin="round" stroke-miterlimit="10" d="
			M104,5.4h0.5l0.9,0.1c0,0,0.5-0.1,0.6-0.1c0.1,0,0.4,0,0.6,0.1c0.2,0,1.1-0.1,1.1-0.1h1.5"/>
		
			<path fill="none" stroke="#878787" stroke-width="0.3" stroke-linecap="round" stroke-linejoin="round" stroke-miterlimit="10" d="
			M109.4,5.3c0,0,0.4,0.1,0.9,0c0.4-0.1,0.7-0.2,0.7-0.2l0.5,0.2l0.4,0.1h0.1"/>
		
			<path fill="none" stroke="#878787" stroke-width="0.3" stroke-linecap="round" stroke-linejoin="round" stroke-miterlimit="10" d="
			M6.6,12c0,0,0.6-0.4,0.9-0.4c0.3-0.1,1.8-0.2,1.8-0.2l3-0.2c0,0,2.7-0.2,2.8-0.2s3.2,0,3.2,0l2.3,0.1l3.9,0.2"/>
		
			<path fill="none" stroke="#878787" stroke-width="0.3" stroke-linecap="round" stroke-linejoin="round" stroke-miterlimit="10" d="
			M24.9,11.3l3.5,0.2l3.5-0.1l0.5-0.3H34l1.4-0.1l2-0.2l0.6-0.1l0.8-0.1h1.5l0.5-0.3h1.5l1.6,0.1l2.4,0.3l1.8,0.2l2.1,0.2l2.3,0
			c0,0,0.7-0.1,1.1-0.2c0.4,0,1-0.2,1-0.2l1.1-0.2l1.2-0.2c0,0,0.9-0.2,0.9-0.2c0.1,0,0.9-0.3,0.9-0.3l1-0.2c0,0,1-0.1,1-0.1
			s4,0.1,4,0.1l2.8,0.1"/>
		
			<path fill="none" stroke="#878787" stroke-width="0.3" stroke-linecap="round" stroke-linejoin="round" stroke-miterlimit="10" d="
			M67.7,9.8c0,0,0.1,0.1,0.2,0.1s0.4-0.1,0.4-0.1h0.3h0.8c0,0,2.1-0.3,2.2-0.3c0.1,0,2.8-0.2,2.8-0.2l2.4-0.1l3.7,0.2l3.2,0.2h1.7"
			/>
		
			<path fill="none" stroke="#878787" stroke-width="0.3" stroke-linecap="round" stroke-linejoin="round" stroke-miterlimit="10" d="
			M85.6,9.6h0.6c0,0,0.9-0.1,1-0.1s0.7-0.1,0.9-0.1c0.2,0,0.9-0.1,0.9-0.1h0.2"/>
		
			<path fill="none" stroke="#878787" stroke-width="0.3" stroke-linecap="round" stroke-linejoin="round" stroke-miterlimit="10" d="
			M89.5,9.3c0,0,0.5-0.3,0.7-0.2c0.2,0.1,0.8,0.1,0.9,0c0.1-0.1,1.5-0.1,1.7-0.1c0.2,0,2.2,0,2.2,0s0.7,0.1,1,0.2
			c0.4,0.1,2.5,0.2,2.5,0.2h2.3l1.5-0.2"/>
		
			<path fill="none" stroke="#878787" stroke-width="0.3" stroke-linecap="round" stroke-linejoin="round" stroke-miterlimit="10" d="
			M102.6,9.1c0.1,0,0.2-0.2,0.5-0.2c0.2,0,1.1-0.1,1.2-0.1c0.1,0,0.6-0.3,0.8-0.3c0.2,0,1.1,0.1,1.2,0.1c0.1,0,1,0.3,1.3,0.3
			c0.2,0,0.8-0.2,1.3,0c0.5,0.2,0.9,0.2,1.1,0.2c0.2,0,2.3,0,2.3,0h0.9l2.6-0.2l1.7-0.1h1.6"/>
		
			<polyline fill="none" stroke="#878787" stroke-width="0.3" stroke-linecap="round" stroke-linejoin="round" stroke-miterlimit="10" points="
			10.8,16.1 11.3,15.5 12.6,15.1 15.7,14.8 17.7,14.8 17.9,14.8 		"/>
		
			<polyline fill="none" stroke="#878787" stroke-width="0.3" stroke-linecap="round" stroke-linejoin="round" stroke-miterlimit="10" points="
			18.1,14.9 20,14.9 22.7,15.1 25.6,15.2 28.9,15.5 32.9,15.5 36.1,15.3 39.9,15.2 41.8,15.1 42.5,15.2 		"/>
		
			<line fill="none" stroke="#878787" stroke-width="0.3" stroke-linecap="round" stroke-linejoin="round" stroke-miterlimit="10" x1="43.1" y1="15.2" x2="43.3" y2="15.2"/>
		
			<path fill="none" stroke="#878787" stroke-width="0.3" stroke-linecap="round" stroke-linejoin="round" stroke-miterlimit="10" d="
			M43.7,15.3c0,0,2.3-0.2,2.5-0.2c0.2,0,3.5-0.2,3.5-0.2h2.2c0,0,0.6,0,0.9,0c0.3,0,2.2-0.2,2.7-0.2s1.8-0.2,1.8-0.2
			s2.8-0.4,2.9-0.4c0.1,0,1.8-0.2,1.8-0.2s2-0.2,2.2-0.2c0.1,0,1.6-0.1,1.6-0.2c0.1,0,1.7-0.2,1.8-0.2s1.9-0.1,2.1,0
			c0.2,0.1,2,0.3,2,0.3l3.3,0.2c0,0,1.1,0.1,1.3,0.1c0.2,0,0.6-0.1,0.6-0.1s0.5,0.2,0.6,0.2s1.8,0.1,1.8,0.1l3.3,0
			c0,0,0.9-0.1,1-0.1s0.6-0.1,0.6-0.1s0.3,0,0.4,0s0.9-0.2,1-0.2s0.6-0.2,0.6-0.2"/>
		
			<path fill="none" stroke="#878787" stroke-width="0.3" stroke-linecap="round" stroke-linejoin="round" stroke-miterlimit="10" d="
			M86.1,13.5l3.2-0.1l2.7-0.2l5,0.1l3.3,0.1l1.2,0.1h0.8c0,0,0.5,0.2,0.6,0.2s1.1,0.2,1.1,0.2l2.5,0.2h3.8l2.7-0.1l2,0l0.5,0.2h0.7"
			/>
		
			<polyline fill="none" stroke="#878787" stroke-width="0.3" stroke-linecap="round" stroke-linejoin="round" stroke-miterlimit="10" points="
			122,16.7 117.8,17 114.7,17.2 112.9,17.6 		"/>
		
			<path fill="none" stroke="#878787" stroke-width="0.3" stroke-linecap="round" stroke-linejoin="round" stroke-miterlimit="10" d="
			M112.5,17.6c0,0-0.5,0.1-1.1,0.1c-0.5,0-1.3,0.2-1.5,0.2c-0.1,0-1,0.1-1.4,0.1c-0.3,0-2.1,0-2.1,0s-0.6,0.1-0.8,0
			c-0.2-0.1-0.9-0.5-1.5-0.5s-3.1-0.1-3.1-0.1L95,17.4l-0.8,0.1c0,0-0.5-0.1-0.9-0.1s-1.2,0.1-1.5,0.1c-0.3,0.1-1.6-0.1-1.6-0.1
			s-2.2,0.2-2.6,0.1c-0.4-0.1-1.8-0.2-1.8-0.2s-1.9-0.3-2.1-0.3c-0.2,0-1.4,0-1.4,0l-5.5,0.1l-5,0.1c0,0-1,0.2-1.2,0.2
			c-0.2,0-1.6,0.1-1.9,0.1c-0.3,0-4,0.2-4,0.2l-4.7,0.1c0,0-2.6-0.1-3-0.1c-0.4,0-2.7-0.1-3.1-0.1c-0.3,0-2.1-0.1-2.4-0.1
			c-0.3,0-3,0.2-3,0.2"/>
		
			<path fill="none" stroke="#878787" stroke-width="0.3" stroke-linecap="round" stroke-linejoin="round" stroke-miterlimit="10" d="
			M47.9,18.1L43.8,18c0,0-1.5,0-1.7,0c-0.2,0-0.7-0.1-0.9,0c-0.2,0.1-0.4,0.1-0.8,0c-0.4-0.1-1.3,0-1.6,0s-2.2,0.3-2.2,0.3h-2.4
			l-1.3,0.2h-0.8h-0.6"/>
		
			<path fill="none" stroke="#878787" stroke-width="0.3" stroke-linecap="round" stroke-linejoin="round" stroke-miterlimit="10" d="
			M31,18.5c0,0-3.8,0-3.8,0c-0.1,0-2.9-0.1-3.3-0.1c-0.3,0-3.1,0-3.1,0s-3.7,0.3-4,0.3c-0.3,0-0.7-0.2-1-0.1
			c-0.3,0.1-0.7,0.2-1.1,0.1c-0.4,0-1.5,0-1.5,0s-1.3,0-1.3,0c-0.1,0-1.3,0-1.3,0s-0.8,0.1-0.9,0.1c-0.1,0-0.5,0.2-0.5,0.2"/>
		
			<path fill="none" stroke="#878787" stroke-width="0.3" stroke-linecap="round" stroke-linejoin="round" stroke-miterlimit="10" d="
			M13.8,22.4c0,0,1.2-0.5,1.2-0.5s1.8-0.5,1.8-0.5l2.8-0.2l3.2-0.1h5.9h3.4h3.4l2.1-0.1l1.1-0.1"/>
		
			<line fill="none" stroke="#878787" stroke-width="0.3" stroke-linecap="round" stroke-linejoin="round" stroke-miterlimit="10" x1="39.1" y1="21" x2="41" y2="21"/>
		
			<path fill="none" stroke="#878787" stroke-width="0.3" stroke-linecap="round" stroke-linejoin="round" stroke-miterlimit="10" d="
			M41.3,21h6.1h5.9h3l3.1,0.2l3.5,0.3l4.3,0.2h4l3.1,0.2c0,0,1.7,0.3,1.8,0.3s2.6,0.2,2.6,0.2h1.1l0.8,0.2h0.6l0.7-0.2l1.6-0.1
			l1.7-0.2l4.9-0.2c0,0,3.9-0.2,4.2-0.1c0.3,0.1,1.5-0.1,1.6-0.2c0.1,0,1.3-0.2,1.3-0.2l4-0.2l3.8-0.1l2.2-0.2c0,0,2.3-0.3,2.8-0.3
			s4.1,0,4.1,0s3.6,0.2,3.7,0.2s1.3,0.2,1.3,0.2"/>
		
			<polyline fill="none" stroke="#878787" stroke-width="0.3" stroke-linecap="round" stroke-linejoin="round" stroke-miterlimit="10" points="
			125.1,24.6 124.7,24.5 124.3,24.5 		"/>
		
			<path fill="none" stroke="#878787" stroke-width="0.3" stroke-linecap="round" stroke-linejoin="round" stroke-miterlimit="10" d="
			M123.8,24.5c0,0-0.3,0.1-0.4,0.1c-0.1,0-0.4,0-0.5,0c-0.1,0-0.3,0-0.4,0.1c-0.1,0-0.1,0-0.1,0s-0.7-0.2-1.1-0.2
			c-0.4,0-2.9,0.1-3,0c-0.2-0.1-4.6-0.1-4.6-0.1s-6.2,0.2-6.4,0.2s-3.5,0-4,0.1c-0.4,0.1-1.3,0.1-1.3,0.1c-0.1,0-0.9-0.1-1.1,0
			c-0.2,0.1-0.6,0-0.6,0l-0.7-0.1h-0.6l-0.4,0.1c0,0-2.3-0.1-2.5-0.1c-0.2,0-6.6,0.1-6.6,0.1s-4.8,0.1-5.1,0.1c-0.3,0-1.9,0-1.9,0
			h-0.7L81.4,25"/>
		
			<polyline fill="none" stroke="#878787" stroke-width="0.3" stroke-linecap="round" stroke-linejoin="round" stroke-miterlimit="10" points="
			81,24.9 72.9,24.6 70.5,24.4 		"/>
		
			<path fill="none" stroke="#878787" stroke-width="0.3" stroke-linecap="round" stroke-linejoin="round" stroke-miterlimit="10" d="
			M70.3,24.4c0,0-4.3,0.1-4.5,0.1s-4.2,0.1-4.2,0.1l-4.7-0.1"/>
		
			<path fill="none" stroke="#878787" stroke-width="0.3" stroke-linecap="round" stroke-linejoin="round" stroke-miterlimit="10" d="
			M56.6,24.5c0,0-4.1,0.1-4.3,0.1c-0.1,0-2.1,0.1-2.5,0.2c-0.3,0-1.2-0.1-1.5,0c-0.3,0.1-2.4,0.1-2.4,0.1s-3.4,0.2-3.7,0.2
			s-4.7,0-4.8,0c-0.1,0-2.1,0-2.1,0l-4.2,0.2l-5.6,0.2l-1.7,0.1c0,0-1.6,0-2,0c-0.4,0-1.8,0-2,0c-0.2,0.1-1.4,0.2-1.4,0.2l-0.7,0.3
			l-0.5,0.4v0.2"/>
	</g>
	<g id="puntets">
		
			<path fill="#3C3C3B" stroke="#3C3C3B" stroke-width="0.5" stroke-linecap="round" stroke-linejoin="round" stroke-miterlimit="10" d="
			M27.2,13.7l0.3-0.2h0.2l0.1,0.1l0.1,0.2c0,0-0.1,0.2-0.1,0.2c-0.1,0.1-0.2,0.2-0.2,0.3c-0.1,0.2,0,0.4,0,0.4l-0.4,0.2l-0.3-0.3
			v-0.4v-0.6L27.2,13.7z"/>
		
			<path fill="#3C3C3B" stroke="#3C3C3B" stroke-width="0.5" stroke-linecap="round" stroke-linejoin="round" stroke-miterlimit="10" d="
			M41.7,12.3c0,0-0.3,0.1-0.4,0.1c-0.1,0-0.3,0.1-0.3,0.1c-0.1,0-0.4,0.1-0.5,0.2s-0.3,0.2-0.3,0.3c0,0.1,0,0.2,0,0.3
			c0,0.1,0.2,0.2,0.3,0.2s0.2,0.1,0.3,0.1c0.1,0,0.5,0.1,0.6,0c0.1,0,0,0,0.3-0.1c0.3-0.1,0.8-0.2,0.8-0.2c0,0,0.6-0.2,0.6-0.2
			c0,0,0.5-0.4,0.5-0.4l0.1-0.3l-0.2-0.1c0,0-0.3,0.1-0.3,0.1c0,0-0.2,0.2-0.3,0.2S42.8,13,42.7,13c-0.1,0-0.2,0.1-0.3,0.2
			c-0.1,0-0.3,0.1-0.3,0.1s-0.2-0.1-0.2-0.2c0,0,0-0.1,0-0.2s0-0.1,0.1-0.1s0.1-0.1,0.1-0.1s0.1-0.1,0-0.1
			C42,12.5,41.7,12.3,41.7,12.3z"/>
		
			<path fill="#3C3C3B" stroke="#3C3C3B" stroke-width="0.5" stroke-linecap="round" stroke-linejoin="round" stroke-miterlimit="10" d="
			M62.4,12c0,0,0.4-0.1,0.4-0.1s0.3-0.2,0.3-0.2c0,0,0.2-0.1,0.3-0.1c0.1,0,0.3,0.1,0.3,0.1s-0.1,0.1-0.2,0.2S63.2,12,63,12.1
			c-0.2,0.1-0.4,0.1-0.5,0.2s-0.4,0.1-0.5,0.2c-0.1,0-0.7,0.3-0.7,0.3s-0.5,0-0.6,0s-0.4-0.2-0.4-0.2s0.2-0.2,0.2-0.2
			s0.1-0.1,0.2-0.2c0.1-0.1,0.2-0.2,0.4-0.2s0.2-0.1,0.3-0.1s0.1,0,0.2,0c0.1,0,0.4,0.1,0.4,0.1L62.4,12z"/>
		
			<path fill="#3C3C3B" stroke="#3C3C3B" stroke-width="0.5" stroke-linecap="round" stroke-linejoin="round" stroke-miterlimit="10" d="
			M80,10.9c-0.1,0-0.1,0.2-0.2,0.2c-0.1,0-0.2,0-0.3,0s-0.3,0-0.3,0c0,0,0.1,0.3,0.1,0.3c0,0,0.3,0.3,0.3,0.3c0,0,0.3,0.2,0.4,0.2
			c0.1,0,0.4,0.1,0.4,0.1c0,0,0.1,0.1,0.2,0.1c0,0.1,0,0.2,0.2,0.2c0.2,0,0.4,0,0.5-0.1c0,0,0.1-0.3,0-0.4c-0.1-0.1-0.2-0.2-0.4-0.2
			c-0.3-0.1-0.3-0.1-0.3-0.1s-0.1-0.2-0.2-0.3s-0.1-0.3-0.1-0.3L80,10.9z"/>
		
			<path fill="#3C3C3B" stroke="#3C3C3B" stroke-width="0.5" stroke-linecap="round" stroke-linejoin="round" stroke-miterlimit="10" d="
			M96,12l0.4-0.4l0.3-0.2l0.5-0.1l0.4,0.2l0.3,0.2l0.3,0.2l0.3,0.3l0.1,0.3l0,0.2h-0.4L98,12.5l0-0.1c0,0-0.2-0.2-0.2-0.2
			s-0.4-0.1-0.4-0.1L97,12.1c0,0-0.3-0.1-0.3-0.1c0,0-0.3,0-0.3,0C96.3,12,96,12,96,12z"/>
		
			<path fill="#3C3C3B" stroke="#3C3C3B" stroke-width="0.5" stroke-linecap="round" stroke-linejoin="round" stroke-miterlimit="10" d="
			M92.3,16.4c0,0,0.4,0.1,0.4,0.1c0,0,0.3,0,0.3,0c0,0,0.3-0.1,0.3-0.1s0.2-0.1,0.1-0.2c-0.1-0.1-0.2-0.2-0.3-0.2
			c-0.1,0-0.1-0.2-0.2-0.2c0,0-0.2-0.1-0.3-0.2c-0.1,0-0.3-0.2-0.3-0.2s-0.3,0-0.3,0c0,0-0.2,0.1-0.3,0.1s-0.2,0.1-0.3,0.1
			c-0.1,0-0.2,0.1-0.2,0.2c0,0.1,0.1,0.2,0.2,0.3c0.1,0.1,0.2,0.1,0.3,0.2C92,16.3,92.3,16.4,92.3,16.4z"/>
		
			<path fill="#3C3C3B" stroke="#3C3C3B" stroke-width="0.25" stroke-linecap="round" stroke-linejoin="round" stroke-miterlimit="10" d="
			M76.1,16c0,0,0.1-0.2,0.1-0.2s0.3,0,0.4,0c0,0,0.3,0.1,0.4,0.1c0.2,0,0.3,0.1,0.3,0.1c0,0.1,0.1,0.1,0.2,0.1c0.1,0,0.3,0,0.4,0
			s0.1-0.2,0.1-0.3c-0.1-0.1-0.4-0.3-0.4-0.3s-0.2-0.1-0.3-0.1s-0.2,0-0.4,0c-0.2,0-0.4,0-0.5,0c-0.2,0-0.4-0.1-0.5-0.1
			s-0.2,0-0.3,0c-0.1,0-0.6,0.1-0.6,0.1s-0.1,0.1-0.2,0.2c-0.1,0-0.3,0.1-0.2,0.2c0,0.1,0,0.2,0.2,0.2c0.1,0,0.2,0.1,0.3,0
			c0.1,0,0.2-0.1,0.2-0.1c0.1,0,0.2-0.1,0.3-0.1s0.2-0.1,0.2-0.1s0.2-0.1,0.2-0.1H76h0.1L76.1,16z"/>
		
			<path fill="#3C3C3B" stroke="#3C3C3B" stroke-width="0.25" stroke-linecap="round" stroke-linejoin="round" stroke-miterlimit="10" d="
			M61.8,15.9c0,0,0-0.1,0-0.1c0,0-0.1-0.1-0.1-0.1s-0.2,0.1-0.2,0.1s0,0-0.1,0.1c-0.1,0-0.2,0-0.2,0c0,0-0.1-0.1-0.1-0.1
			s-0.1,0.1-0.2,0.2S60.8,16,60.7,16s-0.2,0.1-0.2,0.1s0,0.2,0.1,0.2s0.3-0.1,0.3,0s0,0.1,0.1,0.1c0,0.1,0.1,0,0.2,0.1s0.2,0,0.3,0
			c0.1,0,0.2,0,0.3-0.1c0.1,0,0.2-0.1,0.2-0.1c0.1,0,0.1,0.1,0.2,0.1c0,0,0.2,0.1,0.2,0c0.1-0.1,0-0.1,0.1-0.2c0-0.1,0-0.1,0.1-0.2
			c0.1,0,0,0,0.1,0s0.2-0.1,0.1-0.2c-0.1-0.1-0.1-0.2-0.2-0.1c-0.1,0-0.3,0.1-0.3,0.1c0,0,0,0-0.1,0.1c-0.1,0-0.1,0-0.2,0
			C62,16,61.9,15.9,61.8,15.9L61.8,15.9z"/>
		
			<path fill="#3C3C3B" stroke="#3C3C3B" stroke-width="0.25" stroke-linecap="round" stroke-linejoin="round" stroke-miterlimit="10" d="
			M36.6,15.7c0,0-0.2,0.2-0.2,0.2c-0.1,0-0.2,0.1-0.2,0.1c-0.1,0-0.2,0.1-0.3,0.1c0,0.1-0.1,0.2-0.1,0.3c0,0.1,0,0.3-0.1,0.3
			s-0.1,0.1-0.1,0.1c0,0,0.1,0.1,0.1,0.2s0.1,0.1,0.2,0c0.1,0,0.1-0.1,0.2-0.1c0.1-0.1,0.1-0.1,0.2-0.2c0.1-0.1,0.1-0.2,0.2-0.2
			c0.1-0.1,0.2-0.1,0.2-0.2c0-0.1-0.1-0.2,0-0.3c0-0.1,0.1-0.1,0.1-0.2c0-0.1-0.1-0.1-0.1-0.1S36.6,15.7,36.6,15.7z"/>
		
			<path fill="#575756" stroke="#575756" stroke-width="0.25" stroke-linecap="round" stroke-linejoin="round" stroke-miterlimit="10" d="
			M34.1,17.7l0.1,0.5c0,0,0.1,0.2,0.2,0.2s0.3,0.1,0.4,0.2s0.1,0,0.3,0.1c0.2,0.1,0.5,0.1,0.6,0.1s0.4,0,0.4,0c0,0,0,0,0.1-0.1
			c0-0.1,0.1-0.4,0-0.4c-0.1,0-0.2,0-0.3,0c-0.1,0-0.3,0-0.4,0c-0.1,0-0.1,0-0.2,0s-0.1,0-0.3,0c-0.1,0,0,0-0.2,0
			c-0.1,0-0.3-0.1-0.3-0.2c0,0-0.1-0.3-0.1-0.3L34.1,17.7z"/>
		
			<path fill="#3C3C3B" stroke="#3C3C3B" stroke-width="0.25" stroke-linecap="round" stroke-linejoin="round" stroke-miterlimit="10" d="
			M36.1,18.2c0,0,0,0.3,0.1,0.3s0.6-0.1,0.6-0.1s0.4-0.1,0.5,0c0.2,0,0.6,0.2,0.6,0.2c0,0,0.4,0.1,0.5,0.2c0.1,0,0.3,0.1,0.3,0.1
			S38.9,19,39,19c0.1,0,0.4,0,0.4,0s0.2-0.2,0.2-0.3c0,0-0.1-0.3-0.1-0.3c0-0.1-0.1-0.3-0.1-0.3s-0.3-0.1-0.4-0.1
			c-0.1,0-0.4,0-0.5,0s-0.4,0-0.6,0c-0.2,0-0.5,0.1-0.6,0.1c-0.1,0-0.5,0.1-0.6,0.1c-0.1,0-0.3,0-0.4,0S36.1,18.2,36.1,18.2z"/>
		
			<path fill="#3C3C3B" stroke="#3C3C3B" stroke-width="0.25" stroke-linecap="round" stroke-linejoin="round" stroke-miterlimit="10" d="
			M23.6,20.4c0,0-0.2,0.2-0.3,0.2c0,0-0.2,0.1-0.2,0.1s-0.1,0-0.1,0s0,0.1,0,0.2s0,0.2,0,0.2c0,0.1,0,0.1,0.1,0.2
			c0,0,0.2,0.1,0.2,0.1c0,0,0.1,0,0.2,0s0.1,0,0.2,0c0.2,0,0.3,0.1,0.3,0.1c0,0,0.2-0.1,0.2,0c0,0,0,0.1,0.1,0.1
			c0.1,0,0.1-0.1,0.1-0.1c0,0,0.2,0,0.3,0s0.2,0.1,0.2,0.1c0,0,0.1,0.1,0.1,0.2s0.1,0.1,0.2,0.1s0.1,0,0.2,0s0.1,0,0.2,0
			c0.1,0,0.2,0,0.3-0.1c0.1,0,0.1,0,0.2-0.1c0.1,0,0.1-0.1,0.2-0.1c0,0,0.1-0.2,0-0.2s-0.1-0.2-0.2-0.2c-0.2,0-0.2,0-0.3,0
			s-0.2,0.1-0.2,0.1s-0.1,0-0.2,0c-0.1,0-0.1,0-0.2,0s-0.1,0-0.2,0c-0.1,0-0.1,0-0.2-0.1s0,0-0.1,0s-0.2,0-0.2-0.1
			c0,0-0.2-0.1-0.3-0.1c0,0-0.1-0.1-0.1-0.1s-0.1,0-0.2-0.1c-0.1-0.1,0,0-0.1-0.1s-0.2-0.2-0.2-0.2s-0.1-0.1-0.1-0.1
			S23.6,20.4,23.6,20.4L23.6,20.4z"/>
		
			<path fill="#3C3C3B" stroke="#3C3C3B" stroke-width="0.25" stroke-linecap="round" stroke-linejoin="round" stroke-miterlimit="10" d="
			M45.3,22.2c-0.1,0-0.2,0-0.2,0.1c0,0-0.1,0.1-0.1,0.1c0,0,0,0-0.1,0c-0.1,0-0.2,0-0.2,0c-0.1,0-0.1,0-0.1,0.1s-0.1,0.1,0,0.1
			c0,0,0.2,0.1,0.3,0.1s0.3,0,0.4,0s0.2,0,0.3,0c0.1,0,0.2,0.1,0.2,0.1s0,0.1,0.1,0.1c0,0.1,0,0.1,0.2,0.1c0.1,0,0.3,0,0.4,0
			c0.1,0,0.1,0,0.2,0c0.1,0,0.2,0.1,0.3,0c0.1,0,0.1,0,0.2-0.1c0.1,0,0.2-0.1,0.1-0.2s-0.1-0.1-0.3-0.1c-0.2,0-0.2,0-0.3,0
			s-0.1,0-0.2,0c-0.1,0-0.1,0-0.2,0c-0.1,0-0.1,0-0.1,0c0-0.1,0-0.1-0.1-0.1s-0.1-0.1-0.2-0.2c0,0,0,0-0.1-0.1
			c-0.1-0.1-0.1-0.1-0.1-0.1S45.3,22.2,45.3,22.2z"/>
		
			<path fill="#3C3C3B" stroke="#3C3C3B" stroke-width="0.25" stroke-linecap="round" stroke-linejoin="round" stroke-miterlimit="10" d="
			M55.2,22c0,0-0.2,0-0.2,0.1s-0.1,0-0.2,0.1c-0.1,0-0.1,0.1-0.2,0.1s-0.2,0.1-0.2,0.1c0,0-0.1,0.1-0.1,0.2s0.2,0.1,0.2,0.1
			c0,0.1,0.1,0,0.1,0.1c0,0.1,0.1,0.1,0.2,0.2c0.1,0,0.2,0.1,0.2,0.1c0,0,0.2,0,0.3,0.1c0.1,0.1,0,0,0.2,0.1s0.2,0.1,0.3,0
			s0.3-0.1,0.3-0.1s-0.1-0.2-0.2-0.2c-0.1,0-0.2,0-0.3,0c-0.1,0-0.2,0-0.2,0c0,0-0.1,0-0.1,0s0-0.2,0-0.2s0-0.2,0-0.2s0-0.2,0-0.2
			L55.2,22z"/>
		
			<path fill="#3C3C3B" stroke="#3C3C3B" stroke-width="0.25" stroke-linecap="round" stroke-linejoin="round" stroke-miterlimit="10" d="
			M61.4,22.4c0,0-0.2,0-0.3,0.1c-0.1,0.1-0.1,0.2-0.2,0.2c0,0-0.1,0.1-0.2,0.1s-0.2,0-0.2,0.1c0,0-0.1,0.1-0.1,0.1c0,0-0.1,0-0.2,0
			c0,0-0.1,0.1-0.2,0.1s-0.1,0-0.1,0c-0.1,0,0,0-0.1,0c0,0,0,0.2,0,0.2c0,0,0.2,0.1,0.3,0.1c0.1,0,0.1,0,0.2-0.1
			c0.1,0,0.5-0.1,0.5-0.1s0,0.1,0.1,0.2s0.2,0,0.3,0c0-0.1,0.1-0.1,0.1-0.2c0.1,0,0,0,0.1-0.2c0.1-0.1,0.1-0.2,0.1-0.2
			s0.1-0.1,0.1-0.2C61.5,22.6,61.4,22.4,61.4,22.4z"/>
		
			<path fill="#3C3C3B" stroke="#3C3C3B" stroke-width="0.25" stroke-linecap="round" stroke-linejoin="round" stroke-miterlimit="10" d="
			M57.6,23.4c0,0,0-0.1,0.2-0.2c0.1-0.1,0.1-0.1,0.3-0.1s0.4,0,0.6,0c0.1,0,0.4,0,0.5,0s0.8,0,0.8,0s0.1,0.2,0,0.2c-0.1,0,0,0-0.3,0
			c-0.3,0-0.3,0-0.5,0s-0.1,0-0.3,0c-0.2,0-0.2,0-0.4,0c-0.2,0-0.3,0-0.3,0c0,0-0.1,0-0.1,0C57.8,23.3,57.6,23.4,57.6,23.4z"/>
		
			<polyline fill="#575756" stroke="#575756" stroke-width="0.25" stroke-linecap="round" stroke-linejoin="round" stroke-miterlimit="10" points="
			65.6,23.4 65.8,23.3 66.1,23.3 66.4,23.3 66.6,23.3 		"/>
		
			<path fill="#3C3C3B" stroke="#3C3C3B" stroke-width="0.25" stroke-linecap="round" stroke-linejoin="round" stroke-miterlimit="10" d="
			M66.8,23.2c0,0-0.2,0.1-0.2,0.1s0.2,0.1,0.2,0.1s0.2-0.1,0.3-0.1s0.1,0.1,0.1,0.1s0.1,0.1,0.1,0.1c0,0,0.1,0.1,0.1,0.1
			s0.1,0.1,0.1,0.1c0,0,0,0.1,0,0.1c0,0,0.1,0.1,0.1,0c0-0.1,0.1-0.2,0.1-0.2c0,0,0.1-0.1,0.2-0.1c0,0,0.1-0.1,0-0.2
			c0,0-0.1-0.1-0.1-0.2c0-0.1-0.1-0.1-0.1-0.1s0-0.2,0-0.2s-0.2,0-0.3,0c-0.1,0-0.2,0.1-0.2,0.1c0,0,0,0.1-0.1,0.1s-0.2,0.1-0.2,0.1
			L66.8,23.2z"/>
		
			<path fill="#575756" stroke="#575756" stroke-width="0.25" stroke-linecap="round" stroke-linejoin="round" stroke-miterlimit="10" d="
			M29.3,23.3c-0.1,0-0.4,0.1-0.4,0.1c0,0,0.1,0.2,0.1,0.3s0.2,0.2,0.2,0.2s0.1,0,0.2-0.1c0.1-0.1,0.2-0.2,0.2-0.2c0,0,0-0.1,0.1-0.1
			c0.1,0-0.1-0.1-0.2-0.1C29.6,23.4,29.3,23.3,29.3,23.3z"/>
		
			<path fill="#3C3C3B" stroke="#3C3C3B" stroke-width="0.25" stroke-linecap="round" stroke-linejoin="round" stroke-miterlimit="10" d="
			M29.7,23.2C29.7,23.2,29.8,23.2,29.7,23.2c0.1-0.1,0.4-0.2,0.4-0.2s0.4-0.1,0.4-0.1h0.4c0,0,0.2,0,0.2,0c0,0,0.2,0,0.3,0
			c0.1,0,0.4,0.1,0.4,0.1s0.2,0,0.2,0c0,0,0.6,0,0.6,0s0.6,0,0.6,0s0.3,0.1,0.4,0.1s0.3,0,0.3,0c0,0,0.3,0,0.3,0s-0.1,0.1-0.1,0.1
			c0,0-0.1,0-0.2,0c-0.1,0-0.1,0-0.3,0c-0.2,0-0.2,0-0.4,0c-0.2,0-0.2,0-0.4,0c-0.2,0-0.3,0-0.4,0c-0.1,0-0.2,0.1-0.3,0.1
			s-0.3-0.1-0.4-0.1c-0.1,0-0.3-0.1-0.3-0.1s-0.1,0-0.2,0c-0.1,0-0.1,0-0.2,0s-0.4,0-0.4,0s-0.2,0-0.3,0.1c-0.1,0-0.1,0-0.2,0.1
			c-0.2,0-0.2,0-0.2,0s-0.2-0.1-0.2-0.1S29.7,23.2,29.7,23.2z"/>
		
			<path fill="#494444" stroke="#3C3C3B" stroke-width="0.3" stroke-linecap="round" stroke-linejoin="round" stroke-miterlimit="10" d="
			M88.2,19.5l-0.5,0.1v0.3h0.4l0.5-0.2c0,0,0.3-0.1,0.3,0s0.2,0.2,0.4,0.2c0.1,0,0.4,0.1,0.4,0.1h0.3l0.1-0.3c0,0-0.1-0.2-0.3-0.3
			c-0.2,0-0.2-0.1-0.4-0.2c-0.2-0.1-0.5,0.1-0.5,0.1L88.2,19.5z"/>
	</g>
</g>
<g>
</g>
<g>
</g>
<g>
</g>
<g>
</g>
<g>
</g>
<g>
</g>
</svg>
