<?xml version="1.0" encoding="utf-8"?>
<!-- Generator: Adobe Illustrator 24.2.0, SVG Export Plug-In . SVG Version: 6.00 Build 0)  -->
<svg version="1.1" id="Layer_1" xmlns="http://www.w3.org/2000/svg" xmlns:xlink="http://www.w3.org/1999/xlink" x="0px" y="0px"
	 viewBox="0 0 316.1 116.2" style="enable-background:new 0 0 316.1 116.2;" xml:space="preserve">
<style type="text/css">
	.st0{fill:#101010;}
	.st1{fill:#0E0E0E;}
	.st2{fill:#222222;}
	.st3{fill:#111111;}
	.st4{fill:#1C1C1C;}
	.st5{fill:#1B1B1B;}
	.st6{fill:#171717;}
	.st7{fill:#191919;}
	.st8{fill:#151515;}
	.st9{fill:#040404;}
	.st10{fill:#212121;}
	.st11{fill:#2C2C2C;}
	.st12{fill:#1F1F1F;}
	.st13{fill:#161616;}
	.st14{fill:#3D3D3D;}
	.st15{fill:#030303;}
	.st16{fill:#080808;}
	.st17{fill:#0B0B0B;}
	.st18{fill:#1A1A1A;}
	.st19{fill:#060606;}
	.st20{fill:#0A0A0A;}
	.st21{fill:#131313;}
	.st22{fill:#252525;}
	.st23{fill:#363636;}
	.st24{fill:#232323;}
	.st25{fill:#1D1D1D;}
	.st26{fill:#353535;}
	.st27{fill:#313131;}
	.st28{fill:#121212;}
	.st29{fill:#2A2A2A;}
	.st30{fill:#070707;}
	.st31{fill:#141414;}
	.st32{fill:#3E3E3E;}
	.st33{fill:#505050;}
	.st34{fill:#3F3F3F;}
	.st35{fill:#383838;}
	.st36{fill:#2B2B2B;}
	.st37{fill:#272727;}
	.st38{fill:#262626;}
	.st39{fill:#090909;}
	.st40{fill:#0D0D0D;}
	.st41{fill:#474747;}
	.st42{fill:#676767;}
	.st43{fill:#010101;}
	.st44{fill:#444444;}
	.st45{fill:#606060;}
	.st46{fill:#404040;}
	.st47{fill:#050505;}
	.st48{fill:#2F2F2F;}
	.st49{fill:#202020;}
	.st50{fill:#242424;}
	.st51{fill:#323232;}
	.st52{fill:#434343;}
	.st53{fill:#4F4F4F;}
	.st54{fill:#292929;}
	.st55{fill:#181818;}
	.st56{fill:#0F0F0F;}
	.st57{fill:#3C3C3C;}
	.st58{fill:#020202;}
	.st59{fill:#282828;}
	.st60{fill:#303030;}
	.st61{fill:#2D2D2D;}
	.st62{fill:#3B3B3B;}
</style>
<g id="Layer_2_1_">
	<g id="_11898_draft_galley_80_">
		<path class="st0" d="M126.2,56.1c-1.3-0.5-2.6-0.9-4-1.1c-1.8-0.3-3.5-1-5.4-0.9c-0.1,0.1-0.1,0-0.1,0c-2.3-0.3-4.3-1.4-6.5-1.9
			c-0.7-0.2-1.4-0.3-2.1-0.3c-1.8-0.2-3.6-0.7-5.2-1.4c-1.9-0.7-3.9-0.8-5.9-1.3c-2-0.4-3.9-0.9-5.8-1.6c-1.3-0.4-2.6-0.7-3.9-0.8
			c-0.8-0.2-1.5-0.4-2.2-0.7c0-0.4,0.2-0.3,0.4-0.2c0.8,0.3,1.6,0.2,2.4-0.1c2.3-0.7,4.6-1.1,7-1.4c1.6-0.2,3.1-0.6,4.7-0.6
			c0.2-0.1,0.3,0,0.2,0.2c-2.8,0.6-5.6,0.8-8.3,1.3c-1.4,0.2-2.8,0.5-4.1,0.9c0,0.3,0.6,0.3,0.7,0.3c4.4,0.9,8.7,2.5,13.2,3.1
			c1.5,0.3,3,0.8,4.4,1.4c0.5,0.2,1,0.3,1.5,0.4c2.1,0.1,4.2,0.6,6.2,1.4c2.2,1,4.6,1,6.8,1.4c0.6,0.1,1.1,0.2,1.7,0.3
			c0.8-0.1,1.6,0.1,2.2,0.7c0.6,0.2,1.1,0.4,1.7,0.6C126.1,55.7,126.4,55.8,126.2,56.1z"/>
		<path class="st1" d="M133,45.4c-2.9,0.6-5.9,0.9-8.8,0.9c-0.8,0-1.5,0.1-2.3,0.2c-3,0.5-6,0.6-8.9,0.8c-2.2,0.2-4.3,0.5-6.5,0.7
			c-1.2,0.1-2.4,0.5-3.6,0.7c1.1-0.7,2.4-1.1,3.6-1.1c3.7-0.4,7.4-0.7,11.1-1.1c3.5-0.5,7.1-0.7,10.7-0.8c0.3,0.1,0.6,0,0.9-0.2
			c-0.8-0.4-1.6,0.2-2.5-0.5h5.5C132.3,45.3,132.8,45.1,133,45.4z"/>
		<path class="st1" d="M92,66.3c-0.5-1-1.2-1.9-2.1-2.6c-3.3-2.9-6.8-5.6-9.5-9.1c-1.5-2-3.5-3.6-5.7-4.7C74,49.5,73.4,49,73,48.4
			c-1.1-1.5-2.7-2.4-3.9-3.8c0.3-0.2,0.5,0,0.7,0.2c1.3,1,2.4,2.2,3.5,3.4c0.5,0.7,1.1,1.2,1.8,1.5c2.2,1,4,2.5,5.4,4.5
			c1.9,2.4,4.1,4.5,6.5,6.4c1.5,1.3,2.8,2.7,4.4,3.9C91.8,64.9,92.1,65.6,92,66.3z"/>
		<path class="st2" d="M148.5,45.8c1.6-0.1,3.1-0.1,4.7,0.1c-0.2,0.4-0.5,0.2-0.7,0.3c-1.4-0.1-2.7-0.1-4.1,0.2c0,0.1-0.1,0.1-0.2,0
			c-3.6,0.1-7.1,0.6-10.7,0.9c-4.2,0.4-8.3,1.5-12.4,2c-1.4,0.2-2.9,0.2-4.3,0.4c-0.2,0.1-0.4,0.2-0.4-0.2c2.3-0.3,4.7-0.6,7-0.9
			c3.5-0.5,7-1.4,10.5-1.7c0.6,0,1.3-0.1,1.9-0.2c0.6-0.2,1.1-0.2,1.7-0.2c0.8,0,1.7,0,2.5-0.2c0.4-0.1,0.8-0.1,1.2-0.1
			C146.3,46.1,147.4,46,148.5,45.8z"/>
		<path class="st3" d="M119.7,56.9l-3-0.8c-0.1,0.4,0.2,0.7,0.5,0.8c2,0.9,3.9,2,5.5,3.4c0.2,0.2,0.4,0.3,0.6,0.4
			c2.6,0.5,4.1,3,6.6,3.8c0.3,0.1,0.6,0.3,0.7,0.6c0.9,1.6,2.5,2.2,4.1,2.8c0.5,0.1,1,0.3,1.4,0.6c0.4,0.2,0.6,0.6,0.5,1
			c-0.1,0.5,0.2,1,0.6,1.2c0.1,0.2,0,0.3-0.2,0.2c-0.6-0.2-1-0.8-0.9-1.5c0.1-0.7-0.5-0.9-1-1.1c-0.9-0.3-1.9-0.6-2.8-1.1
			c-0.4-0.2-0.9-0.4-1.1-0.7c-1.4-2.1-4.1-2.5-5.7-4.4c-0.1-0.1-0.1-0.1-0.2-0.2c-2.3-0.7-4-2.3-5.9-3.5c-0.7-0.5-1.5-0.9-2.4-1.2
			c-0.5-0.2-0.9-0.5-1.1-1c-0.1-0.7,0.4-0.6,0.8-0.6c1,0,1.8,0.6,2.7,0.8C119.6,56.6,119.8,56.7,119.7,56.9z"/>
		<path class="st4" d="M132.2,55c4.9-0.7,9.9-1.3,14.8-2.2c3.9-0.8,7.9-1.1,11.9-1c0.4,0,0.8,0.1,1.1,0.1c0,0,0.1,0.1,0.2,0.1
			c-0.3,0.3-0.7,0.2-1.1,0.2c-3.7-0.2-7.4,0-11.1,0.8c-4.6,0.7-9.2,1.6-13.8,2c-0.4,0.1-0.7,0.2-1.1,0.3h-1.3
			C131.8,55.1,132.1,55.1,132.2,55z"/>
		<path class="st5" d="M153.8,47.9c-3.5,0.1-7.3,1-10.8,1.6c-1.9,0.3-3.8,0.5-5.8,0.8c-2.1,0-4.2,0.6-6.4,0.7
			c-1.7,0.2-3.4,0.6-5.1,1.2c0.3-0.4,0.7-0.6,1.1-0.7c3.7-1.2,7.6-1.2,11.4-1.7c3.2-0.4,6.4-0.8,9.5-1.5l0,0l2.1-0.4
			c0.6-0.1,0.8-0.2,1.3-0.2s0.9,0,1.4,0C153,47.7,153.9,47.4,153.8,47.9z"/>
		<path class="st6" d="M59.2,63.3c2-0.5,3.7-1.6,5.6-2.3c0.3-0.1,0.7-0.2,1-0.3s0.7-0.2,1.1-0.1c0.9,0.1,1,0.1,0.8,1
			c-0.3,0.3,0.1-0.3-0.1-0.4c-0.2-0.2-0.4-0.4-0.6-0.4c-0.6-0.3-1.5,0.5-2,0.7c-4.1,1.8-8.2,3.4-12.4,4.8c-2.9,1-5.9,1.8-8.8,2.8
			c-0.1,0-0.2,0-0.3,0c-0.1,0-0.2-0.2-0.2-0.3c2.5-0.8,4.9-1.7,7.4-2.4C53.5,65.4,56.3,64.3,59.2,63.3z"/>
		<path class="st7" d="M76.6,34.9c3.3-0.4,7.3-0.5,10.5-1.5c2.9-0.9,5.9-1,8.9-1.4c1.5-0.2,3.1-0.3,4.7-0.3c0.1,0,0.1,0.1,0.1,0.1
			s0,0.1,0,0.1c-2.5,0.3-5,0.5-7.5,0.7c-2.5,0.2-5,0.7-7.4,1.6c-0.6,0.2-1.2,0.3-1.8,0.3c-2,0.2-5.2,0.5-7.1,0.7
			C76.6,35.3,76.7,35.4,76.6,34.9z"/>
		<path class="st8" d="M84.3,63.8c-1.5-1.7-3.3-3.1-4.9-4.6c-1.1-1-2.2-2.1-3.1-3.3c-0.4-0.5-0.8-0.9-1.3-1.2
			c-1.4-0.9-2.6-2-3.6-3.3c-0.9-1.1-1.9-2-3-2.8c-0.9-0.7-1.7-1.6-2.3-2.5c-0.5-0.8-1.4-1.2-2-1.9c1.1,0.5,2,1.2,2.7,2.2
			c0.6,0.8,1.3,1.6,2.1,2.2c0.7,0.6,1.4,1.2,2,1.9c1.6,1.7,3.2,3.2,5,4.7c1.8,1.5,3.2,3.6,5,5.1c1.3,1,2.4,2.2,3.5,3.4
			C84.6,63.8,84.5,63.9,84.3,63.8z"/>
		<path d="M83.8,49.6c0.5,0.4,1,0.7,1.6,0.9c0.7,0.3,1.4,0.7,1.5,1.7c0.1,0.5,0.5,0.8,1,1c1.1,0.4,2.1,1.2,2.9,2.1
			c0.4,0.4,0.9,0.8,1.4,1.2c0.9,0.7,1.9,1.2,2.4,2.3c0.1,0.1,0.1,0.2,0.3,0.3c2.1,1.1,2.6,3.4,4,5c0,0,0,0.1-0.1,0.3
			c-0.7-0.6-1.3-1.3-1.7-2.2c-0.7-0.9-1.4-1.8-2.3-2.7c-1.4-1.5-3.1-2.6-4.5-4c-0.9-1-2-1.7-3.2-2.3c-0.4-0.2-0.8-0.4-0.8-0.9
			c0-1-0.7-1.3-1.4-1.7c-0.5-0.3-1-0.3-1.4-0.8C83.5,49.7,83.6,49.6,83.8,49.6z"/>
		<path d="M25.4,57.3c1.1,0.3,2.1,0.9,2.9,1.7c0.4,0.5,1,0.8,1.7,0.8c0.7,0.1,1,0.7,1.4,1.1c0.6,0.4,1.3,0.7,2,0.9
			c1,0.3,1.9,0.9,2.7,1.6c0,0.5-0.3,0.4-0.6,0.2L35,63.4c-1.2-0.7-2.5-1.3-3.8-1.8c-0.4-0.2-0.7-0.4-1-0.8c-0.4-0.6-1.2-0.6-1.9-0.9
			c-1.1-0.6-1.9-1.6-3.2-2C25,57.4,25,57.4,25.4,57.3z"/>
		<path class="st9" d="M108.7,39c-0.8,0.3-1.6,0.5-2.5,0.6c-2.8,0.3-5.5,1.1-8.3,1.3c-1.3,0.2-2.6,0.5-3.9,0.9l-5,1
			c-0.2,0-0.5,0.3-0.6-0.2c1.8-0.8,3.8-0.7,5.6-1.3c3-1.1,6.2-1,9.3-1.7c1.7-0.4,3.4-0.6,5.2-0.9C108.7,38.7,108.7,38.8,108.7,39z"
			/>
		<path class="st10" d="M107.8,34.9l3.3-0.4c0.1,0.1,0.2,0.1,0.2,0.2l-4.5,1l1.2,0.2c-0.7,0.3-1.4,0.4-2.1,0.3
			c-3.1-0.1-6.1,0.3-9.1,1c-0.8,0.2-0.5,0.5-0.1,0.9c-1-0.5-2.1-0.2-3.1-0.5c1-0.1,1.9-0.6,2.9-0.8c2.8-0.6,5.7-0.9,8.6-1
			C106,35.6,106.9,35.3,107.8,34.9z"/>
		<path class="st7" d="M56.3,37.5c2.5-0.7,5.1-1,7.6-1c0.2,0,0.4,0,0.7,0c2.9-0.7,5.9-0.4,8.7-1.2c1.1-0.2,2.2-0.4,3.3-0.5
			c0.7,0.6,0,0.5-0.3,0.5c-2.6,0.1-5.1,0.8-7.7,1.1c-3.8,0.5-7.8,0.3-11.6,1.2C56.8,37.5,56.5,37.9,56.3,37.5z"/>
		<path class="st2" d="M133,73.6c-2.8-2.1-5.9-3.6-8.6-5.7c-2.1-1.8-4.1-3.7-6-5.7c-0.9-0.9-1.9-1.6-2.7-2.4c1.6,0.8,3,1.8,4.1,3.2
			c2.2,2.2,4.2,4.5,7,6.1c1.7,1,3.3,2,4.9,3.1c0.6,0.4,1.1,0.9,1.6,1.3C133.3,73.6,133.2,73.7,133,73.6
			C133.1,73.7,133.1,73.7,133,73.6z"/>
		<path class="st11" d="M105.6,45.9c2.3-0.5,4.7-0.8,7.1-1.3c3.5-0.8,6.8-1.9,10.3-2.7c1-0.3,2.1-0.4,3.2-0.4
			c-0.4,0.4-0.9,0.5-1.4,0.5c-2.7,0.4-5.3,1.1-7.8,1.9c-3.6,1.1-7.2,1.8-10.9,2.1C105.9,46,105.6,46.2,105.6,45.9z"/>
		<path class="st12" d="M89.5,48.7c0.6,0.5,3.3,3.2,4,3.7c2.4,2,4.9,3.9,7.1,6.2c2.5,2.5,4.9,5.1,7.5,7.5c0.1,0.1,0.2,0.2,0.1,0.5
			c-0.5-0.5-1.1-0.9-1.5-1.4c-1.9-1.9-3.9-3.9-5.8-5.8c-2.2-2.2-4.5-4.2-6.9-6.1c-1.7-1.4-3.3-2.9-4.7-4.5
			C89.3,48.5,89.3,48.6,89.5,48.7z"/>
		<path d="M82.7,68.3c-0.9-0.3-1.7-0.8-2.6-1c-0.7-0.2-1.3-0.7-1.6-1.3c-0.5-0.8-1.1-1.6-1.9-2.1c-0.4-0.3-0.9-0.3-1.4-0.1
			c-1.7,0.6-3.6,0.3-5.2-0.6c-0.2-0.2-0.5-0.3-0.7-0.5c0.3-0.5,0.7-0.4,1.1-0.1l0.2,0.3c1.5,1.2,3.2,0.8,4.9,0.5
			c1.2-0.1,2.4,0.5,3,1.5c0.4,1.2,1.4,2.1,2.7,2.4c0.7,0.2,1.4,0.5,2.1,0.9C83.2,68.4,83,68.3,82.7,68.3z"/>
		<path d="M111.2,34.7l-0.2-0.2c1.6-0.9,3.5-0.5,5.2-0.7c1.6-0.3,3.2-0.7,4.8-1.2c0.9-0.3,1.9,0,2.6,0.7c0.2,0.2,0.4,0.4,0.7,0.5
			c1.1,0.2,1.9,1,2.2,2.1c0,0.2-0.1,0.3-0.3,0.3c0,0-0.1,0-0.1,0c-0.6-1.3-1.8-1.8-2.9-2.5c-0.6-0.4-1.3-0.6-2-0.4
			c-2.8,0.8-5.8,1.3-8.7,1.6L111.2,34.7z"/>
		<path class="st3" d="M84.9,53.7c1.3,1,2.6,2.1,3.7,3.3c1.2,1.5,2.7,2.8,4.2,4c0.7,0.5,1.2,1.2,1.5,1.9c0.5,0.8,1.1,1.5,1.8,2.1
			c1.1,1.1,2.3,2.1,3.4,3.2c0.2,0.2,0.6,0.4,0.2,0.7s-0.3-0.3-0.5-0.4c-1.5-1.4-3-2.9-4.5-4.3c-0.2-0.2-0.4-0.4-0.6-0.6
			c-0.8-1.9-2.5-2.9-4-4.1c-0.1-0.1-0.2-0.1-0.2-0.2c-1.4-2-3.4-3.4-4.9-5.2C85,53.9,84.9,53.8,84.9,53.7L84.9,53.7z"/>
		<path d="M111.1,77.9c-1-0.3-1.7-1.2-1.7-2.3c-0.1-1-0.7-1.8-1.6-2.3c-0.9-0.6-1.6-1.5-1.8-2.6c-0.1-1.1-0.9-2.1-2-2.4
			c0.1-0.2,0.3-0.2,0.4-0.3c1.3,0.5,2.3,1.6,2.4,3c0.1,0.6,0.4,1.2,0.9,1.6c1.2,1,2.5,1.9,2.4,3.8c0,0.6,0.9,0.8,1.3,1.2
			C111.6,78.1,111.3,77.9,111.1,77.9z"/>
		<path class="st12" d="M104.7,53.5c1.1,1.2,2.3,2.2,3.6,3.2c0.7,0.5,1.3,1.1,1.7,1.8c0.7,1.3,1.7,2.5,2.9,3.3
			c1.3,1.1,2.6,2.3,3.9,3.4c0.3,0.3,0.5,0.6,0.6,1c-0.5-0.5-1.1-1-1.6-1.5c-1.7-1.7-4-2.8-5.4-4.8c-0.8-1.4-2-2.7-3.3-3.7
			c-1-0.7-2-1.5-2.8-2.5C104.3,53.5,104.5,53.3,104.7,53.5z"/>
		<path class="st13" d="M103.3,42.9c0.8-0.6,1.7-0.9,2.7-0.9c4.1-0.2,7.9-1.7,11.9-2.2c0.7-0.1,1.3-0.1,2.1-0.2
			c-0.3,0.4-0.8,0.6-1.2,0.5c-2.3,0.1-4.6,0.6-6.8,1.4c-1.2,0.3-2.4,0.5-3.6,0.5C106.7,42.2,105,42.9,103.3,42.9L103.3,42.9z"/>
		<path class="st14" d="M96.2,35.6c0,0.3-2.1,0.3-3.2,0.5c-3.1,0.3-6.1,0.8-9.2,1.3c-0.7,0.2-1.3,0.4-1.9,0.7
			c-1.3,0.5-3.5,0.7,0.3-0.5C87.8,36.2,96.2,35.4,96.2,35.6z"/>
		<path class="st15" d="M111.1,77.9l0.4-0.2c1.4,0.6,2.7,0.9,4-0.2c0.4-0.4,1-0.4,1.5-0.1c1,0.8,2.2,0.5,3.3,0.6
			c1.6,0.1,3.1-0.1,4.7-0.1c0.1,0.1,0.1,0.3,0,0.4c0,0,0,0,0,0c-2.1-0.1-4.1,0.2-6.2,0.2c-0.5,0-1-0.1-1.3-0.4
			c-0.5-0.4-1.1-0.4-1.6-0.1c-1.3,0.9-2.9,0.9-4.2,0.1C111.5,78,111.3,77.9,111.1,77.9z"/>
		<path d="M34.5,70.5c-2.2-0.8-4-2.4-6-3.6c-0.3-0.2-0.5-0.5-0.2-0.8s0.3,0.2,0.5,0.3c1.2,0.7,2.4,1.4,3.5,2.2
			c0.3,0.2,0.7,0.4,1,0.6c0.9,0.5,1.9,0.9,3,1.2c0.6,0.2,1.2,0.6,1.5,1.2C36.5,71.2,35.6,70.5,34.5,70.5z"/>
		<path class="st1" d="M83.8,40.6c-2.3,0.5-4.6,0.8-7,1c-2.1,0.2-4.1,0.8-6.3,0.5c-0.6,0-1.1,0.1-1.7,0.3l0,0
			c0.1-0.8,0.8-0.8,1.3-0.8c4.5,0.1,8.9-0.7,13.3-1.3C83.6,40.4,83.7,40.5,83.8,40.6z"/>
		<path class="st16" d="M33.2,56.4c2.1-0.6,4.2-1.1,6.4-1.4c2.1-0.4,4.2-0.8,6.4-1c0.3,0.1,0.8-0.3,1,0.2l-3.4,0.5
			c-2.8,0.3-5.5,0.9-8.3,1.4c-0.7,0-1.4,0.3-1.9,0.9c-0.3-0.1-0.5-0.3-0.6-0.6C33,56.4,33.1,56.4,33.2,56.4z"/>
		<path class="st17" d="M108.7,39l-0.3-0.2c2.1-0.8,4.3-1.3,6.6-1.5c1.9-0.2,3.9-0.5,5.7-1c0.3-0.2,0.8-0.1,1,0.2
			C117.4,37.6,113,37.9,108.7,39z"/>
		<path d="M82.7,68.3l0.5-0.3l2.6,0.4c0.5,0.1,1,0,1.4-0.2c0.3-0.1,0.5-0.1,0.8-0.2c1.7-0.9,3.4-0.2,5,0c0.5,0,1.2,0.1,1.2,0.8
			c-1-0.2-1.6-0.3-2.4-0.5c-1.3-0.3-2.6-0.3-3.8,0.2C86.2,69.1,84.5,68.6,82.7,68.3z"/>
		<path class="st6" d="M133.7,57.1c0.5,0.1,0.9,0.2,1.4,0.4c1.7,0.8,3.5,1.4,5.4,1.5c0.1,0.1,0.1,0.2,0,0.2c0,0,0,0,0,0
			c-1.8-0.1-3.7-0.5-5.3-1.2c-2.4-0.9-4.8-1.4-7.3-1.5l-0.5,0c0.7-0.4,0.7-0.4,2.6-0.2c0.4-0.1,0.9,0,1.3,0.2
			C132,56.8,132.8,57,133.7,57.1z"/>
		<path d="M116.8,55.8l-0.8,0.6c-0.7-0.2-0.7-0.9-1-0.8c-0.4,0-0.9,0-1.3,0c-1.1,0-2.3-0.8-3.3-0.8c-0.1,0.5,0.6,0.8,0.5,1.4
			c-0.6-1-1.6-1.7-2.7-1.9c0-0.3,0.2-0.3,0.4-0.2h0.3c0.2,0,0-0.5,0.4-0.3c1.3,0.6,2.7,1,4.1,1.3c0.4,0.1,0.9,0.1,1.3,0L116.8,55.8z
			"/>
		<path class="st18" d="M111.4,64.6c1.3,0.7,2.4,1.6,3.5,2.6c1.8,1.3,3.5,2.7,5,4.3c0.8,1.1,1.5,2.3,1.9,3.6
			c-0.6-0.1-0.6-0.5-0.7-0.8c-0.8-2.4-2.6-3.9-4.4-5.4c-1.6-1.3-3.3-2.6-4.9-4C111.6,64.9,111.5,64.7,111.4,64.6L111.4,64.6z"/>
		<path d="M62.7,54.6c2,0.1,1.7,0.4,1.9,2.3c0,1.1,0.6,2.1,1.5,2.7c0,0.3,0.4,0.4,0.6,0.6c0,0.7-0.5,0.4-0.8,0.4
			c-0.3-0.5-0.1-1.1-0.8-1.2c-0.8-0.2-1.4-1.5-1.3-2.4c0.2-2-0.2-1.9-1.4-2.1C62.4,54.7,62.5,54.6,62.7,54.6z"/>
		<path d="M92.2,50.3c-0.8-0.1-0.8,0.1-0.7,0.2c-0.3-0.2-0.6-0.3-1-0.3c-0.2-0.2-0.8-0.3-0.2-0.8c1.2,0.6,2.6,0.4,3.8,0.9
			c1.5,0.5,3,0.8,4.5,0.9c0.1,0.1,0.3,0.1,0.2,0.3c-0.5-0.1-1.1-0.2-1.6-0.2c-0.2,0.3,0.3,0.7,0.5,1c-0.1,0.1-0.2,0.1-0.3,0
			c-0.4-0.3-0.5-0.9-1-1C94.9,51.1,93.5,50.7,92.2,50.3z"/>
		<path class="st19" d="M97.2,38.9c-1.6,0.4-3.3,0.3-4.9,0.5L86.6,40c-0.2-0.2-0.4,0-0.6-0.2c2.2-0.5,4.5-0.8,6.8-0.9
			c1.4-0.2,2.9-0.3,4.4-0.3C97.2,38.7,97.3,38.7,97.2,38.9C97.2,38.8,97.2,38.9,97.2,38.9z"/>
		<path d="M133,73.6h0.3l2.8-1c0.2-0.1,0.4-0.3,0.6,0s-0.2,0.3-0.3,0.4c-0.8,0.3-1.5,0.4-2.4,0.8c0,0.2-0.1,0.2-0.3,0.4
			c-0.2,0.3-0.4,0.3-0.6,0.6c-0.7,0.7-1.6,1.2-2.5,1.5l0,0l-1.5-0.3c-0.1-0.1-0.1-0.2,0-0.3c0.3,0,0.6,0,0.9,0
			c0.7,0.2,1.4,0,1.9-0.6c0.3-0.3,0.6-0.5,0.9-0.7C133,74.2,133.2,74,133,73.6z"/>
		<path class="st3" d="M84.9,53.7c-1.6-1.1-3.2-2.3-4.7-3.7c-0.6-0.6-1.3-1-2.1-1.3c-0.3-0.2-0.5-0.4-0.8-0.7
			c0.1-0.1,0.2-0.2,0.3-0.2c0.4-0.1,0.6,0.1,1,0.4c1.5,1.4,3.1,2.7,4.8,4C84.1,52.4,84.7,53,84.9,53.7L84.9,53.7z"/>
		<path class="st20" d="M68.9,42.4L68.9,42.4c0.3,0.4,0.8,0.7,1.4,0.7c2.3,0.2,4.6,0.8,6.9,1.2c-0.2,0.5-0.6,0.2-1,0.2
			c-2.9-0.7-6-0.4-8.6-2.1C68,42.1,68,42.1,68.9,42.4z"/>
		<path class="st20" d="M49.4,60.9c1.9-0.3,5.4-1.8,6.8-1.6c0.3,0,1.4-0.5,1,0.2c-1.9,0.5-3.8,0.8-5,1.2L46.5,62
			c-0.2-0.1-0.5,0-0.7-0.3c0.8-0.2,0.5-0.2,0.8-0.2c0.7,0,1.3-0.2,1.9-0.4C48.9,61.1,48.9,61,49.4,60.9z"/>
		<path class="st2" d="M76.2,44.5l1-0.2c0.9,0,1.8,0.1,2.7,0.3c1.9,0.3,3.8,0.8,5.7,1.2L85.1,46c-2.3-0.4-4.7-0.8-7-1.3
			C77.5,44.7,76.8,44.6,76.2,44.5z"/>
		<path d="M46.7,61.7l0.6,0.2c-1.7,0.4-3.3,0.8-5,1.2c-0.7,0.1-1.4,0.3-1.9,0.7C40.2,64,40,64.2,39.8,64s0.1-0.5,0.3-0.6
			c0.5-0.4,1.1-0.6,1.8-0.7c1.6-0.4,3.1-0.7,4.7-1C46.6,61.6,46.6,61.6,46.7,61.7z"/>
		<path d="M56.3,37.5l0.8,0.2c-0.3,0.2-0.2,0.4,0.1,0.4c1.3-0.1,2.3,0.7,3.5,1c0,0.4-0.2,0.3-0.4,0.2L59.2,39
			c-0.5-0.3-1.2-0.5-1.8-0.5c-1.3,0-2.6-0.4-3.6-1.1c-0.2-0.3-0.6,0-0.8-0.4c0.3-0.1,0.6-0.2,0.8-0.1C54.6,37.2,55.3,38.1,56.3,37.5
			z"/>
		<path d="M136.9,44.8c0.4,0,0.6,0.1,0.4,0.6c-1.4,0.3-2.9,0.3-4.4,0c-0.3,0-0.6-0.1-0.8-0.4C133.7,44.9,135.3,44.8,136.9,44.8z"/>
		<path d="M126.2,36l0.3-0.3c0.1,0.1,0.3,0.2,0.3,0.3c0.1,1.7,1.6,2.9,1.5,4.6c-0.8-1-1.7-1.8-1.7-3.2
			C126.5,36.9,126.4,36.5,126.2,36z"/>
		<path class="st21" d="M105.6,45.9l0.4,0.2l-3.2,0.5c-1.6,0.2-3.2,0.6-4.7,1.2c-0.3,0.1-0.6,0.1-0.8-0.1
			C99.9,46.7,102.7,46.1,105.6,45.9z"/>
		<path class="st22" d="M117.9,45.6c2-0.4,4-0.6,6-0.5c0.7-0.2,1.5-0.1,2.2,0.3l-7.9,0.5C118,45.8,117.9,45.7,117.9,45.6z"/>
		<path class="st10" d="M88.4,42.7l0.6,0.2c-1.9,0.5-3.8,0.8-5.7,1c-0.6,0.1-2.7,0.5-2.8,0.3c0.8-0.3,1.6-0.5,2.5-0.7
			C84.6,43.2,87.2,43.1,88.4,42.7z"/>
		<path class="st18" d="M97.4,52.3h0.3c2.3,1.5,4.6,3,6.4,5.2c0.2,0.2,0.5,0.4,0.5,0.8l0,0c-0.7-0.2-1-0.8-1.4-1.3
			c-1.7-1.5-3.4-2.9-5.2-4.1C97.6,52.8,97.5,52.6,97.4,52.3z"/>
		<path class="st7" d="M90.3,49.4l0.1,0.5c-0.5,0-0.9-0.2-1.3-0.4c-1-0.4-2-0.7-3-0.9c-0.9-0.1-1.7-0.8-2.5-1c0.1-0.3,0.4,0,0.6-0.2
			c1.6,0.9,3.5,1,5.1,1.7C89.6,49.4,89.9,49.5,90.3,49.4z"/>
		<path class="st18" d="M111.4,64.6c-1.2-0.4-1.9-1.4-2.8-2.2c-1.3-1.1-2.5-2.3-3.7-3.5c-0.2-0.2-0.4-0.4-0.4-0.7l0,0
			c0.2,0,0.3,0.1,0.4,0.2c1.9,2.2,4.2,3.8,6.3,5.8C111.3,64.4,111.4,64.5,111.4,64.6L111.4,64.6z"/>
		<path d="M65.9,60.6c0.3,0,0.6-0.2,0.8-0.4l2,0.4c0.5,0,0.7,0.4,0.7,0.9s0.7,0.6,0.9,1.3c-0.4,0.1-0.6-0.2-1-0.2
			c-0.3-0.2-0.5-0.5-0.6-0.8c-0.3-1.2-0.7-0.6-1.2-0.1c0-0.2-0.3,0-0.2-0.1c0.6-0.8-0.2-0.8-0.7-0.8c-0.3,0.1-0.6,0-0.8-0.1
			C65.8,60.6,65.8,60.6,65.9,60.6z"/>
		<path d="M44.6,69.4l2.6-0.8c0.2-0.1,0.4-0.2,0.4,0.2c-1.2,0.4-2.3,0.8-3.5,1.2c-0.4,0.1-0.9,0.2-0.8,0.8c0,0.2-0.3,0.3-0.5,0.3
			s-0.5-0.1-0.7-0.3s0.1-0.4,0.2-0.6l0.5-0.3C43.2,69.2,44,69.6,44.6,69.4z"/>
		<path d="M104.5,68l-0.4,0.3c-0.4-0.2-0.7-0.6-1.2-0.6c-0.3,0-0.5-0.4-0.5-0.7c0-0.4-0.1-0.7-0.4-1c0-0.3,0.2-0.4,0.4-0.2
			c0.6,0.1,1.1,0.3,1.2,1.1C103.7,67.3,104.2,67.7,104.5,68z"/>
		<path d="M129.1,75.7V76c-0.3,0.2-0.6,0.1-0.8,0.1c-0.8,0.1-1.6,0.3-1.9,1.3c-0.2,0.7-0.8,0.7-1.4,0.8v-0.4c0.4-0.2,0.8-0.6,1-1
			c0.4-0.7,1.1-1.2,1.9-1.2c0.2,0,0.4,0,0.4-0.3c-0.1-0.1,0-0.2,0.1-0.3L129.1,75.7z"/>
		<path class="st2" d="M128.3,75.1l-0.1,0.3c-1.3-1.6-3-2.8-4.8-3.7c-0.7-0.4-1.4-0.9-1.9-1.5c0.1,0.1,0.1,0,0.2,0
			c1.9,1.1,4.5,2.4,6,4C128,74.5,128.2,74.8,128.3,75.1z"/>
		<path class="st23" d="M115.2,73.4c-0.8-0.6-1.6-1.3-2.2-2.1c-1.5-1.3-2.8-2.7-4-4.3c1.3,1.2,2.5,2.4,3.8,3.6
			C113.7,71.4,114.6,72.4,115.2,73.4L115.2,73.4z"/>
		<path d="M100.6,32v-0.2c-0.1-1.2-1.1-1.7-1.9-2.3c0-0.4,0.2-0.3,0.4-0.2c1.1,0.5,1.9,1.4,2.3,2.5c0.2,0.4,0.4,0.8,0.7,1.2
			c0.1,0.2,0.2,0.4-0.2,0.4L100.6,32z"/>
		<path d="M138.5,71c0.5,0.5,0.2,0.8,1.4,1.2c0.4,0.1,0.6,1.6,1.6,1.8c0.1,0.2-0.2,0.4-0.4,0.3c-0.8-0.2-2-1.6-2-1.7
			c-0.4-0.6-1.4-0.8-1.6-1s0.1-0.6,0.2-0.5c0.7,0.6,1,0.6,0.7,0.2C138.3,71.3,138.5,71.2,138.5,71z"/>
		<path class="st24" d="M120.4,49.4l0.4,0.2c-2.1,0.3-4.1,1.1-6.3,1.1C116.5,50.1,118.5,49.7,120.4,49.4z"/>
		<path class="st25" d="M79.8,38.5c0,0.1-0.6,0.4-1.3,0.6c-0.4,0.1-1.1,0.1-1.5,0.2s-0.4,0.4-0.7,0.5c-0.5,0.1-1,0.2-1.5,0.1
			c-0.1-0.1,0.2-0.4,1.3-0.4c0.2,0,0.4-0.5,0.8-0.5c0.4,0,0.9-0.1,1.3-0.3C78.6,38.3,79.3,38.3,79.8,38.5z"/>
		<path class="st26" d="M119.7,56.9l-0.2-0.3l1.5,0.4l3.5,1.1c0,0,0.1,0.1,0.2,0.3C122.9,58,121.3,57.5,119.7,56.9z"/>
		<path class="st27" d="M88,68.1c-0.2,0.1-0.5,0.2-0.8,0.2c0.4-0.3,0.1-0.6,0-0.8c-0.8-1.3-1.7-2.5-2.8-3.6l0.2-0.2
			C85.9,65,87,66.4,88,68.1z"/>
		<path d="M82.2,47.6c0,0,0.7,1.2,0.7,1.3s-0.7-0.4-0.8-0.4s-0.4-0.5-0.6-0.7c-0.1-0.2-0.3-0.4-0.5-0.5c-0.1,0-0.3-0.3-0.5-0.3
			s0,0.3-0.1,0.4c-0.1,0-0.2,0-0.3,0c-0.1,0-0.1-0.3-0.2-0.4s-0.8,0.1-0.9,0c-0.1-0.1-0.1-0.2-0.1-0.3c0.1-0.1,0.8,0.1,0.9-0.1
			c0.1-0.5,0.7-0.3,1,0c0.4,0.4,0.9,0.6,1.4,0.7C82.6,47.3,82.3,47.4,82.2,47.6z"/>
		<path class="st28" d="M47.6,68.8l-0.4-0.2c1.4-0.5,2.8-0.9,4.2-1.1c0.1,0.1,0.1,0.2,0,0.3C50.2,68.2,48.9,68.6,47.6,68.8z"/>
		<path class="st20" d="M59.6,43.1c-0.7-0.2-1.5-0.3-2.2-0.6c-0.3-0.1-0.8-0.2-0.5-0.7c1.2,0.9,2.8,0.6,4.2,1.1
			C60.6,43.3,60.1,42.8,59.6,43.1z"/>
		<path class="st21" d="M97.2,38.9v-0.2c1.5-0.2,3-0.3,4.4-0.2C100.2,38.8,98.7,38.9,97.2,38.9z"/>
		<path class="st29" d="M61.7,47.5c-0.8-0.4-1.2-1.2-1.7-1.8s-1-1.2-1.6-2c0.9,0.3,1.2,1,1.8,1.4C60.5,46.1,61.4,46.6,61.7,47.5z"/>
		<path class="st30" d="M95.8,69.1c1,0.2,2.1-0.4,3.1,0.3C97.8,69.4,96.8,69.8,95.8,69.1z"/>
		<path d="M104.7,53.5l-0.4,0.2c-0.9-0.5-1.7-0.9-2.6-1.2c0-0.5,0.3-0.2,0.6-0.2l2.7,0.8c0.2,0.1,0.2,0.2,0,0.3L104.7,53.5z"/>
		<path class="st8" d="M104.8,53.4v-0.3c1.3,0.2,2.5,0.5,3.7,0.9l-0.4,0.2C107,54,105.9,53.8,104.8,53.4z"/>
		<path d="M83.8,49.6l-0.3,0.3c-0.3-0.1-0.7-0.7-1.3-0.9c-0.6-0.3-1.3-0.6-2-0.7c0-0.1,0-0.2,0.1-0.3c0.9,0.1,1.8,0.4,2.6,0.8
			C83.1,48.9,83.6,49.1,83.8,49.6z"/>
		<path class="st13" d="M99.9,43.9l-0.2-0.2c1.2-0.4,2.4-0.6,3.7-0.7l0,0c-0.7,0.5-1.6,0.8-2.5,0.8C100.5,43.8,100.2,43.8,99.9,43.9
			z"/>
		<path class="st3" d="M102.2,52.3l-0.6,0.2l-2.9-0.9l-0.2-0.3C99.8,51.4,101,51.7,102.2,52.3z"/>
		<path class="st31" d="M102,33.3l0.2-0.4c0.2,0.7,0.9,1.2,1.7,1.2c0.2,0.2,0.5,0.1,0.6,0.4C103,34.6,102.2,34.2,102,33.3z"/>
		<path class="st32" d="M138.6,71.1c0.3,0.2,0.4,0.3-0.1,0.5c-0.3-0.4-0.5-0.3-0.8-0.5s-0.5,0-0.6-0.2l0.2-0.2
			C137.8,70.7,138.2,70.9,138.6,71.1z"/>
		<path class="st11" d="M133.5,74.2c0.1-0.2,0.3-0.1,0.5,0c0.5,0.4,1,0.9,1.4,1.5c0.1,0.2,0.3,0.4-0.1,0.5l-1.1-1.2
			C134.1,74.5,134,74.6,133.5,74.2z"/>
		<path d="M99.7,68.7c0.2,0.2-0.1-0.3,0.2-0.1c0.4,0.4,1.7,1.8,2.1,2.1c0.1,0.1,0.2,0.3,0,0.5s-0.3,0-0.4-0.1
			C101,70.2,100.4,69.4,99.7,68.7z"/>
		<path class="st28" d="M60.3,39.3l0.4-0.2l2.5,0.7V40C62.2,39.9,61.2,39.7,60.3,39.3z"/>
		<path class="st33" d="M65,50.8c-0.5,0.3-0.7-0.2-0.9-0.4c-0.4-0.4-0.8-0.9-1.2-1.3c0-0.1,0.1-0.2,0.2-0.2L65,50.8z"/>
		<path d="M86,39.8l0.6,0.2c-1,0.1-1.8,0.7-2.8,0.6l-0.3-0.3L86,39.8z"/>
		<path d="M66.3,61.1c0.4-0.1,0.9-0.6,0.9,0.1c-0.5,0.3-1,0.7-1.6,1c0-0.2-0.4-0.2-0.3-0.3C65.5,61.5,66,61.3,66.3,61.1z"/>
		<path class="st23" d="M115.3,73.4c0.7,0.6,1.3,1.4,1.7,2.3C116.4,74.9,115.6,74.4,115.3,73.4L115.3,73.4z"/>
		<path class="st0" d="M114.6,55c-0.4,0.1-0.9,0-1.3-0.3c-0.4-0.5-0.6-0.6-0.3-0.8s0.6,0.7,1,0.7C114.3,54.7,114.7,54.9,114.6,55z"
			/>
		<path d="M117.9,45.6l0.2,0.2l-2.4,0.5l-0.1-0.2C116.4,45.8,117.1,45.6,117.9,45.6z"/>
		<path d="M43.6,68.8c-0.3,0.5-1,0.8-1.6,0.6c0.4-0.3,0.6-0.7,1.2-0.8L43.6,68.8z"/>
		<path class="st16" d="M102.4,65.8L102,66c-0.6-0.3-1-0.8-1.2-1.4c0.1,0,0.3-0.2,0.3-0.2C101.7,64.7,101.9,65.5,102.4,65.8z"/>
		<path d="M35.4,63.6l0.6-0.2c0.4,0.5,0.5,1.1,0.3,1.6C35.7,64.6,35.8,64,35.4,63.6z"/>
		<path class="st34" d="M51.5,67.8v-0.3c0.5-0.3,1.1-0.3,1.7-0.3C52.7,67.6,52.1,67.8,51.5,67.8z"/>
		<path class="st8" d="M109.2,53.7l-0.4,0.3c0-0.6-1.2-1.5-1-1.6S109,53.1,109.2,53.7z"/>
		<path class="st29" d="M63,48.8L62.8,49c-0.4-0.5-1-0.9-1.2-1.5C62.3,47.7,62.6,48.4,63,48.8z"/>
		<path d="M82.2,47.6l0.2-0.4l1.7,0.4l-0.6,0.2C83.1,47.7,82.7,47.4,82.2,47.6z"/>
		<path d="M1.4,49.5c0.4,0,0.6,0.2,0.4,0.6s-0.1,0.7,0.3,1c1.2,1.1,2.7,1.7,4.3,1.9c0.4,0.1,0.9,0.3,1.2,0.6c0.8,0.9,1.8,1.5,3,1.6
			c0.8,0.1,1.6,0.5,2.2,1.2c0.8,0.8,1.8,1.3,2.9,1.7c0.4,0.1,0.8,0.4,1,0.8c0.2,0.5,0.6,0.5,1,0.5c1.1-0.1,2.2,0.6,2.6,1.7
			c0.4,0.9,1.4,1.5,2.1,2.2c1.1,1.3,2.5,2.4,4,3.3c1.4,0.6,2.5,1.8,3.9,2.3c0.2,0.1,0.4,0.2,0.5,0.4s-0.1,0.3-0.3,0.3
			c-0.2,0.1-0.4,0.1-0.5-0.1c-1-0.8-2.1-1.5-3.2-2.2c-1.4-0.9-3-1.6-4.1-3c-0.6-0.6-1.2-1.2-1.8-1.8c-0.6-0.5-1.1-1.1-1.5-1.8
			c-0.3-0.8-1.3-0.7-2-0.8c-0.4,0-0.9,0-1-0.4c-0.4-0.9-1.3-1.2-2.1-1.5c-0.8-0.3-1.4-0.8-2-1.4c-0.5-0.5-1.2-0.9-2-1
			C9,55.4,8,54.9,7.2,54.1c-0.4-0.4-0.9-0.7-1.5-0.8C3.9,53.1,2.5,52,1,51.1c-0.3-0.2-0.5-0.5-0.1-0.7S1.1,49.7,1.4,49.5z"/>
		<path d="M10.6,49c0-0.3-0.2-0.6,0.2-0.8c0.3-0.1,0.6-0.1,0.9,0.1l1.6,0.8c1.2,1.1,2.5,2,3.9,2.6c0.9,0.4,1.4,1.2,2.2,1.8
			c1.1,0.6,2.1,1.3,3.1,2.1c0.4,0.3,0.9,0.5,1.4,0.7c0.6,0.2,1.2,0.4,1.5,1.1l-0.2,0.6c-0.7-0.8-1.6-1.3-2.7-1.5
			c-1-0.7-2.4-1.1-3.2-2.1c-0.2-0.2-0.4-0.3-0.6-0.3c-0.3-0.1-0.5-0.2-0.8-0.4c-1.5-1.7-3.9-2.2-5.4-4C12.1,49.1,11.3,48.9,10.6,49z
			"/>
		<path d="M67.8,16.4c-0.7-1.1-1.8-1.4-3-1.8c-0.7-0.3-2-1.1-2.7-1.4c-2.3-0.5-1.9-0.8-3-2c-0.8-0.7-2.6-0.8-3.1-2.1
			c-0.2-0.3-0.5-0.5-0.9-0.5c-0.7-0.1-1.4-0.4-1.9-0.9c-0.6-0.5-1.4-0.9-2.2-1c-0.4-0.6-0.8-1.3-1.6-1.6c-1.1-0.3-2.1-0.7-2.9-1.4
			c-0.5-0.4-1.1-0.3-1.4-0.6s-0.3-0.5-0.6-0.7s-1.4-0.2-2-0.4C42.3,2,42.3,1.8,42,1.7c-0.7,0-1.4-0.1-2-0.3c0.1-0.3,0.4-0.1,0.6-0.2
			c1-0.1,2,0.1,2.8,0.6c0.3,0.3,0.9,0,1.3,0.1s0.5,0.4,1,0.7s1.1,0.4,1.4,0.7c0.6,0.5,1.4,0.9,2.2,1.1c0.3,0,0.6,0.1,0.8,0.3
			c0.8,1.3,2.4,1.6,3.5,2.6c0.5,0.4,1.1,0.7,1.7,0.8c0.8,0.1,1.4,0.6,1.8,1.3c0.3,0.4,0.7,0.7,1.3,0.8c0.8,0.2,1.5,0.8,2,1.5
			c0.5,0.8,1.4,0.6,2.1,0.9c1.3,0.8,2.6,1.5,4.1,2c0.4,0.1,2,0.9,1.7,1.7C68.1,16.6,68,16.5,67.8,16.4z"/>
		<path d="M12.3,15.4c3-1.3,6.2-2.4,9.3-3.6c1.6-0.5,3.2-1.2,4.7-1.9C28.7,8.6,31.4,8,34,7.2c1.3-0.4,2.4-0.9,3.7-1.4
			c0.3-0.1,0.7-0.3,1,0.1c0.1,0.1,0.2,0.3,0.1,0.4s-0.2,0.2-0.3,0.1c-0.8-0.3-1.4,0.3-2,0.6C35,7.5,33.6,8,32.2,8.3
			c-2,0.4-3.8,1.2-5.6,2.2c-1.4,0.6-2.8,1.2-4.2,1.6c-1.9,0.8-3.8,1.4-5.7,2.3c-1.2,0.6-2.6,0.6-3.9,1.2
			C12.6,15.7,12.3,15.9,12.3,15.4z"/>
		<path d="M33.7,0.9l0.9-0.1C34.8,0.9,35,0.8,35,1.1c-1.7,0.8-3.3,1.6-4.8,2.6c-1.8,1-4.3,1.2-6.5,2.1c-1.9,0.8-4,1.3-5.9,2.1
			c-2.4,1-4.9,1.7-7.4,2.5C8.9,11,7.5,11.6,6,12c-0.2-0.1-0.6-0.2-0.4-0.4c0.3,0,0.6,0,0.8-0.1c3.9-2.1,8.4-2.8,12.5-4.6
			c0.9-0.4,1.8-0.7,2.8-1c2.5-0.8,5-1.4,7.5-2.4c0.8-0.4,1.5-0.9,2.2-1.4C32.2,1.8,33,1.4,33.7,0.9z"/>
		<path d="M20.8,42.3c0,0.8,0,1.6,0.3,2.4c0.1,0.2-0.1,0.2-0.3,0.2c-0.3-0.4-0.5-0.9-1.1-1c-0.4-0.1-0.4-0.5-0.4-0.8
			c0-0.9,0.2-1.8,0.4-2.7c0.1-0.9,0.1-1.8-0.1-2.7c-0.3-1.2-0.5-2.5-0.5-3.8c0-1.1-0.1-2.2-0.4-3.3c0.2-0.4,0.4-0.8,0.9-0.7
			s0.1,0.7,0.1,1.1c0.5,2.1,0.1,4.7,1.5,5.8c0.4,0.3,0.1,0.2-0.2,0.4c0,0-0.6-0.5-0.6-0.4c-0.2,0.4-0.1,0.6,0.1,1.2
			c0.2,0.6,0.3,1.1,0.3,1.7c-0.1,0.4-0.2,0.9-0.2,1.3C20.6,41.3,20.8,41.9,20.8,42.3z"/>
		<path d="M10.4,41.4c-0.1,1.1,0,2.3,0.1,3.4c0.1,0.7,0,1.3-0.2,2c0,0.2-0.2,0.3-0.4,0.3s-0.2-0.2-0.2-0.4
			c-0.8-4.3-0.2-8.6-0.1-12.9c0-0.6,0.1-1.2,0.2-1.8c0.2-0.2,0-0.6,0.3-0.8c0.4,0.6,0,1.3,0.3,1.8c-0.1,1.7-0.2,3.8-0.2,5.5
			c0,0.5-0.7,1.5,0.5,0.3c0.1,0,0.2,0,0.3-0.1C11,38.9,10.4,40.5,10.4,41.4z"/>
		<path d="M18.7,24.1c0-0.7,0-1.5,0.1-2.2c0.1-1.3,0.3-1.9,1.5-2.3c1.6-0.5,3.7-1.1,5.3-1.8c3.6-1.5,7.1-3.4,10.8-4.7
			c0.7-0.3,1.4-0.4,2.1-0.6c0.5-0.1,0.8,0.2,1.1,0.4c0,0.2-0.4,0.1-0.5,0.1c-0.5-0.7-5.3,1.4-8.5,3.1c-1.8,0.9-4.1,1.9-6,2.6
			c-0.6,0.2-2.1,1-2.8,1.1c-1.5,0.4-1.6,1.2-1.9,1.9c-0.3,0.7-0.5,1.5-0.5,2.3C19,24.1,18.9,24.3,18.7,24.1z"/>
		<path d="M10.4,32.9c-0.3-0.4-0.1-0.9-0.3-1.3L9.8,32c-0.2-2.9-0.2-5.8,0-8.6c0.7,0,0.4,0.7,0.5,1.1s-0.1,2.2-0.1,2.9
			c0,0.3,0.2-0.1,0.2,0c0-1,0.1-2,0.3-2.9c0.1,0,0.1-0.1,0.2,0c0.2,1-0.2,2.2-0.2,3c0.1,1.4,0,3,1.1,3.3c0.2,0.1-0.1,0.3-0.1,0.3
			s-0.2,0.1-0.4,0c-0.5-0.1-0.8-1.4-0.9-1.5S10.4,32.1,10.4,32.9z"/>
		<path d="M39,13h0.5c1.3,0.5,2.7,0.7,4,1.4c1.2,0.7,2.5,1.2,3.9,1.6c1.8,0.7,3.7,1.4,4.8,3.2c0,0.1-0.1,0.2-0.2,0.2l-0.7-0.6
			c-1-1-2.2-1.8-3.5-2.2c-0.9-0.4-1.8-0.7-2.7-0.9c-0.4-0.1-0.9-0.4-1.5-0.7c-0.1-0.1-0.9-0.4-1-0.5c-0.6-0.3-1.2-0.5-1.9-0.7
			C40.1,13.7,39.1,13.5,39,13z"/>
		<path d="M46.1,9.7c1,1,2.4,1.2,3.6,1.9c0.7,0.3,1.3,0.7,1.8,1.2c0.2,0.2,0.4,0.4,0.7,0.5c1.6,0.4,3.1,1.4,4.1,2.7
			c0.2,0.2,0.5,0.4,0.8,0.4c0.5,0,0.9,0.2,1.3,0.5c-1.1-0.1-2.1,0.1-3-1.1c-0.8-0.8-1.7-1.4-2.8-1.8c-0.6-0.2-1.1-0.5-1.6-0.9
			c-0.5-0.5-1-0.9-1.7-1.1c-1-0.3-1.6-1.3-2.7-1.2c-0.4-0.3-0.9-0.6-1.4-0.7c-0.2-0.2,0.1-0.3,0.2-0.4L46.1,9.7z"/>
		<path d="M0.8,35.2l0.3-0.8c0.2,0.4,0.2,0.8,0.1,1.2c-0.1,2.2,0,4.4,0.4,6.6c0.1,1.1,0.1,2.2,0.1,3.3c-0.4,0.2-0.2,0.6-0.3,0.9
			s0.3,0.6-0.3,0.6c0.1-2.8-0.1-5.7-0.6-8.5c0.1-0.5-0.1-0.9,0-1.3c-0.2-0.2-0.1-0.4,0-0.6C0.6,36.2,0.7,35.7,0.8,35.2z"/>
		<path d="M12.3,15.4l0.6,0.2c-0.5,0.5-1.2,0.5-1.8,0.8s-0.8,0.2-0.4,1c0.2,0.4-0.1,2.3,0.1,2.2s0.6-1.9,1-1.7
			c0.2,0.1-0.3,1.7-0.8,2.4c-0.5,0-0.1,0.9-0.8,0.8c0-1.2-0.1-2.3-0.4-3.5c-0.1-0.4-0.2-1.3,0.7-1.4C11.2,16,11.8,15.8,12.3,15.4z"
			/>
		<path d="M28.9,51.3c0.3,0.2,0.5,0.7,1,0.2c0.1-0.1,0.4,0,0.4,0.2c0.2,0.7,0.8,1,1.2,1.5c0.7,1,1.2,2,1.7,3.1l-0.3,0.1
			c-0.8-1.9-2.7-3-4-4.5c-0.1-0.1-0.2-0.3-0.3-0.4S28.6,51.3,28.9,51.3z"/>
		<path d="M19.7,31c0-1-0.5-0.8-1-0.4c-0.1-0.6-0.3-1.8-0.4-2.4s-0.3-0.1-0.5,0.5c-0.4,0-0.3-0.2-0.2-0.4l0.6-1.5
			c0.4,0,0.4,0.4,0.7,0.6c0.3,0.8,0.4,1.7,0.4,2.6c0.2-0.8,0.4-1.6,0.6-2.3c0.1-0.2,0.2-0.4,0.4-0.3s0.1,0.4,0.1,0.7
			c-0.1,0.7-0.3,1.4-0.5,2C19.8,30.2,19.8,31.1,19.7,31z"/>
		<path d="M22.3,45.8c-0.1-0.6-0.9-0.9-0.9-1.5c0-0.3-0.2-0.6,0.2-0.7s0.5,0.2,0.6,0.4c0.8,1.5,1.8,2.8,3,3.9
			c0.1,0.2,0.2,0.4-0.2,0.4C24,47.5,23.1,46.7,22.3,45.8z"/>
		<path d="M10.3,21c0.4-0.1-0.2-1.2,0.8-0.8c-0.2,1,0.3,2.1,0.1,3.1c0,0.4-0.1,0.8-0.2,1.1h-0.2c0.1-0.7-0.6-1.9-0.4,0
			c-0.5-0.2-0.3-0.8-0.5-1.1l-0.1-0.8L10.3,21z"/>
		<path d="M45.3,9.7l-0.2,0.4c-0.2,0-0.4,0-0.5-0.1c-1.2-1.1-3-1.5-4.2-2.8c-0.2-0.2-0.6-0.3-0.3-0.7s0.6-0.1,0.8,0.1
			C42.2,7.9,43.9,8.6,45.3,9.7z"/>
		<path class="st9" d="M17.5,28.3l0.2,0.4c-0.4,1.9-1.1,3.7-1.3,5.6c0,0.4,0.1,1.2-0.4,1.1c-0.5-0.1-0.1-0.8-0.1-1.2
			C16.2,32.2,16.8,30.2,17.5,28.3z"/>
		<path d="M35,1.1l-0.4-0.4c0.5-0.2,1-0.3,1.5-0.5c0.1,0,0.2-0.3,0.5-0.3s0.3,0.2,0.4,0.3c0.5,0,1.1,0.3,1.7,0.4s1.3-0.1,1.8,0.5
			l-0.6,0.2c-1-0.4-2-0.6-3-0.7c-0.1,0,0,0.3-0.1,0.4c-0.1,0-0.2,0-0.4,0c-0.1,0-0.2-0.5-0.4-0.5S35.3,0.9,35,1.1z"/>
		<path d="M18.9,27.4c-0.3-0.1-0.6-0.3-0.8-0.6l0.6-2.7l0.3-0.9c0.3,0.2,0.2,0.5,0.3,0.7s-0.1,0.8-0.1,0.9
			C19.1,26.1,19,26,18.9,27.4z"/>
		<path d="M25,48.3l0.2-0.4c1.4,0.9,2.6,2.1,3.7,3.4l-0.3,0.3C27.6,50.3,26.1,49.5,25,48.3z"/>
		<path d="M5.7,11.6C5.7,11.8,5.9,11.8,6,12c-0.3,0-0.8,0.7-1.3,0.8c-0.3,0,0.1-0.5,0-0.6s-0.6,1.1-0.8,1.4c-0.4,0-0.3-0.2-0.2-0.4
			c0.1-0.4,0.4-0.8,0.4-1.3c0.1-0.8,1.2-0.6,1.7-0.7C6,11.1,5.5,11.6,5.7,11.6z"/>
		<path class="st35" d="M18.4,33.2c0,1.5-0.4,2.9-1.1,4.2c-0.1,0.1-0.2,0.2-0.3,0.1c-0.2-0.1-0.2-0.4-0.1-0.5c0.4-0.9,0.8-1.8,1-2.8
			C18,33.9,18,33.5,18.4,33.2z"/>
		<path d="M3.7,13.1l0.2,0.4c-0.1,0.4-0.3,0.8-0.7,1.1C3.2,14.1,3.3,13.6,3.7,13.1z"/>
		<path d="M179.2,79.2c1.4,0.3,2.7,1.1,3.6,2.2c1.1,1.4,4.2,2.4,5.9,1.5c0.4-0.3,0.8-0.5,1.2-0.8c1-0.6,1.1-0.8,2.3,0
			c0.7,0.8,1.8,1,2.8,1.8c1.3,0.4,2.8,1.5,3.9,0.7c0.8-0.6,1.7-1.1,2.7-1.3c0.2,0.1,1.6,0.1,1.9,1c-0.1,0.2-0.4,0.3-0.6,0.2
			c0,0-0.1,0-0.1-0.1c-0.6-0.7-1.6-0.7-2.3-0.1c0,0-0.1,0-0.1,0.1c-0.4,0.2-0.4,0.3-0.7,0.4c-2,0.7-4.2,0.3-5.8-1.1
			c-0.8-0.6-1.7-1-2.6-1.4c-0.1-0.1-0.4-0.2-0.6-0.1c-1.6,1.1-3.5,1.6-5.4,1.3c-1.5-0.5-2.2-1.3-2.9-1.6c-0.6-0.7-0.5-1.1-1.3-1.6
			c-0.5-0.3-0.9,0.3-1.5-0.6c-0.1-0.1-0.7-0.4-0.9-0.5S179,79.1,179.2,79.2z"/>
		<path class="st1" d="M140.4,59.2V59c0.4,0,0.8,0,1.2,0.2c1.5,0.5,3.1,0.9,4.6,1.1c-0.3,0.4-0.7,0.2-1,0c-0.5,0.1,0.3,0.4,0.4,0.5
			c1.3,1.1,2.7,1.8,3.9,2.8c-0.2,0.4-0.5,0.3-0.8,0.3c-1.1-0.3-2.2-0.9-3.4-1.1c-1.2-0.3-2.3-0.4-3.5-0.4c1,0.9,2.1,1.8,3.3,2.4
			c1.7,1.1,3.3,2.5,4.7,4c-0.1,0.1-0.2,0.1-0.3,0.1c0,0,0,0,0,0c-1.8-1.8-3.8-3.4-6-4.7c-0.9-0.6-1.6-1.4-2.6-2
			c-0.4-0.3-0.9-0.5-1.3-0.7c0.1-0.5,0.4-0.3,0.6-0.2c1.3,0.3,3,0.5,4.7,0.9s3,1,4.1,1.4c-1.5-0.9-3-2.5-4.7-3.2
			C143,59.9,141.7,59.5,140.4,59.2z"/>
		<path class="st21" d="M226,80.1c-0.7-0.2-1.5-0.3-2.3-0.1c-0.1,0-0.1,0.2-0.2,0.3s-0.4-0.4-0.4-0.4c-0.2-0.2,0.9-0.3,0.8-0.4
			s-0.5,0-0.8,0c-0.8-0.2-1.7-0.4-2.5-0.6c-1.6-0.6-3.3-1-4.9-1.5c-1.7-0.5-3.4-0.9-5.2-1.2c-1.6-0.3-3.2-0.8-4.8-1.3
			c-1.4-0.3-2.7-0.7-4.1-1c0.1-0.5,0.4-0.3,0.6-0.2c2,0.3,4,0.9,6,1.6c0.5,0.2,1.1,0.3,1.7,0.4c3.5,0.6,6.9,1.5,10.3,2.7
			c1.8,0.6,3.6,1,5.5,1.3c0.1,0.1-0.4,0.2,0,0.2C225.9,79.8,226.1,79.8,226,80.1z"/>
		<path class="st1" d="M245.2,85.5c3.9,1.4,8,2.4,12.1,3c1.4,0.2,2.8,0.7,4.1,1.3c2.3,0.9,4.8,1.3,7.1,2.2c1.6,0.6,3.4,1,5,1.7
			c0.6,0.3,1.3,0,2,0.3c-0.3,0.2-0.7,0.1-1,0.2c-1-0.1-1.9-0.4-2.8-0.8c-3-1.1-6.1-1.7-9.1-2.9c-3.8-1.6-7.9-1.9-11.9-2.8
			c-0.7-0.2-5.1-1.5-5.7-2C244.9,85.7,245.1,85.6,245.2,85.5z"/>
		<path class="st11" d="M252.5,89c2.3,1,5,1.5,7.4,2.3c5.4,1.8,10.7,4,15.8,6.5c1.4,0.7,2.8,1.3,4.3,1.9l-0.1,0.2l-4.8-2
			c-3.7-1.6-7.2-3.4-11-4.7l-1.7-0.6c-0.1,0-0.9-0.3-1-0.3c-2.5-0.7-3.2-1.1-5.7-1.8c-0.8-0.2-1.9-0.7-3.2-1.1
			C252.5,89.1,252.3,89.1,252.5,89z"/>
		<path class="st36" d="M272.1,92.3c4.9,2,10.1,2.5,15.1,4c2.5,0.6,4.9,1.6,7.1,2.9c0.7,0.3,1.3,0.9,1.6,1.6c0,0.2,0.1,0.3-0.1,0.4
			s-0.3,0-0.3-0.1c-0.8-1.9-2.7-2.4-4.4-3.1c-3.8-1.6-7.8-2.3-11.7-3.2c-2.2-0.5-4.4-1.1-6.6-1.8c-0.4-0.1-0.7-0.3-1-0.5
			C271.8,92.2,272,92.3,272.1,92.3z"/>
		<path class="st2" d="M140.1,61.3l-0.6,0.2c-3.5-0.8-7.4-1.3-10.6-3c0,0.1-0.1,0.1-0.1,0.1c0.9,0.6,2.2,1.4,3,2
			c1.6,1.2,3.1,2.3,4.7,3.5c0.2,0.1,0.3,0.3,0.4,0.5l0,0c-0.7-0.3-1.3-0.7-1.9-1.3c-1.6-1.3-3.4-2.5-5.2-3.6
			c-1.1-0.6-1.1-1.1-1.6-1.4c-0.4-0.2-0.9-0.3-1.4-0.3c0.1-0.3,1-0.3,1.6,0c3.1,1,6.2,1.9,9.3,2.7C138.5,60.8,139.3,61,140.1,61.3z"
			/>
		<path class="st37" d="M202.3,73.6l-0.6,0.2c-3.6-0.5-7.1-1.2-10.6-2c-1.9-0.4-5.2-1.2-5.6-1.6c-0.2-0.3-0.6,0.1-1.1-0.1
			c-1.5-0.3-2.2-1.4-2.1-1.5s0.9,0.3,1.4,0.9s1.1,0.1,1.6,0.3c0.1,0,0-0.3,0.2-0.3s0,0.3,0.1,0.3c0.3,0.2,0.6,0.3,1,0.4
			c1.3,0.4,2.6,0.7,3.9,0.9c0.6,0.1,2.2,0.4,3.6,0.8c1.4,0.4,2.8,0.6,4.2,0.8c0.1,0,0,0,0.2,0c0.8,0.2,1.5,0.3,2.3,0.3L202.3,73.6z"
			/>
		<path d="M141.1,74.5l0.4-0.3c0.4,0.3,0.8,0.5,1.2,0.7c0.5,0.2,0.5,1,0.8,1.4s0.7,0.2,0.9,0.6c0.7,1.1,1.1,1.6,3.1,1.5
			c0.5-0.1,1-0.2,1.4-0.5c0.4-0.3,0.7-0.7,1-0.9c0.6-0.2,1.1-0.3,1.7-0.2c1,0.1,2,0.3,2.9,0.7c0,0.4-0.4,0.3-0.6,0.3
			c-0.6-0.1-1.2-0.2-1.9-0.3c-1.6-0.4-2.4,0.9-3.6,1.4c-1.2,0.4-2.4,0.3-3.6-0.2c-0.3-0.2-0.5-0.5-0.7-0.8c-0.3-0.4-0.4-0.9-1-1.1
			c-0.2-0.1-0.4-0.3-0.6-0.5C142.5,75.1,142,75.1,141.1,74.5z"/>
		<path class="st30" d="M163,66.7c-1.1-0.2-2.3-0.6-3.4-0.9c-0.8-0.3-1.7-0.5-2.5-0.6c1.6,1,3,2.6,4.8,3.3c0.3,0.1,0.6,0.3,0.9,0.6
			c0.2,0.2-0.1,0.1-0.2,0.2c-0.1,0-0.1,0-0.2,0c-0.1,0.1-0.3,0-0.4-0.1c0,0,0,0,0,0c-1.4-0.7-2.6-1.5-3.7-2.6c-0.9-0.8-1.9-1.5-3-2
			c-1.2-0.5-0.1-0.3,0.4-0.2c2,0.8,2.2,0.2,4.2,0.9c0.3,0.1,2.6,0.8,2.9,0.9C162.8,66.4,163.3,66.4,163,66.7z"/>
		<path class="st38" d="M245.6,86.4c0.4,0.1,1.2,0.4,1.6,0.6c0.3,0.1,0.6,0.2,0.9,0.4c0.2,0,0.5,0.1,0.7,0.2c1,0.4,0.4,0.2,1.4,0.6
			c0,0.2,0.4,0.3,0.1,0.4c-0.4,0-0.7-0.1-1.1-0.3c-2.1-0.8-2.6-0.7-4.8-1.4c-0.6-0.3-1.2-0.5-1.8-0.6c-0.8-0.2-0.9,0-0.7-0.4
			c-0.2-0.1,5.9,1.9,5.9,1.7c-1.9-0.8-3.9-1.3-5.9-1.7c-0.2-0.1-0.2-0.1,0-0.3C244.1,86,243.5,85.8,245.6,86.4z"/>
		<path class="st39" d="M88.6,27.9c1,0,2.1-0.1,3.1-0.3c0.4-0.1,0.7-0.3,1.1-0.5c1.2-0.6,2.5-0.5,3.6,0.4c0.4,0.3,0.8,0.1,1.2,0
			s0.9-0.4,1.2-0.2c0,0.1,0,0.2,0,0.3c-0.3,0.2-1.4,0.1-1.8,0.4c0.3,0.2,1.1,0.6,1.5,0.8l0.5,0.3l0.2,0.2l-0.4,0.2
			c-0.7-0.4-1.4-0.8-2-1.1c-0.3-0.1-0.3-0.3-0.8-0.5c-0.4-0.5-0.3-0.5-1-0.5c-0.9-0.2-1.8,0.1-2.4,0.7c-0.5,0.1-1,0.2-1.5,0.1
			c-0.6,0-1.2,0-1.8,0c-0.2,0,0.1,0.3-0.1,0.4s-0.3,0-0.6,0s0-0.2-0.1-0.3s-2.8,0.3-3.3,0.3c-0.3,0-0.9,0.2-0.8-0.1
			c1-0.2,1.9-0.1,2.9-0.3c0.3,0,0.7,0,1-0.1C88.3,28,88.3,27.9,88.6,27.9z"/>
		<path class="st40" d="M245.2,85.5c-0.2,0.1,0,0.2-0.2,0.2c-1.4-0.3-5.8-1.9-7.1-2.2c-2-0.5-4.1-1-6.1-1.4
			c-1.3-0.2-2.5-0.7-3.5-1.4c-0.5-0.4-1.1-0.2-1.6-0.6c0-0.2,0.3-0.2,0.4-0.2c0.4,0,0.8,0.1,1.2,0.3c2.7,1.6,5.8,2,8.8,2.6
			C238.8,83.3,243.6,84.9,245.2,85.5z"/>
		<path class="st24" d="M163.8,74.8c-2.1-1.3-4-2.9-5.9-4.4c-2.1-1.6-4.2-3.3-6.3-5c-0.2-0.1-0.3-0.3-0.5-0.5c0.1-0.2-0.2-0.4,0-0.6
			c1,0.1,2,0.5,2.9,1c-0.7,0.2-1.7-0.6-2.5-0.6c0.7,0.6,1.8,1.4,2.5,2c3.2,2.5,6.2,5.1,9.5,7.5C163.6,74.4,163.8,74.5,163.8,74.8
			L163.8,74.8z"/>
		<path d="M252,79.8c1.2,0.6,2.2,1.5,3,2.6c1,1.2,2.3,2,3.8,2.4c0.7,0.2,1.5,0.4,2.2,0.6c0.5,0.1,1.1,0.2,1.5,0.8
			c0.1,0.2,0.4,0.2,0.6,0.2c0.5,0,1.1,0.1,1.6,0.3c-0.1,0.2-0.4,0-0.6,0.2c-0.4-0.1-0.9-0.2-1.3-0.3s-1.1,0-1.4-0.7
			c-0.1-0.2-0.6-0.3-0.9-0.3c-1.7-0.3-3.3-0.9-4.8-1.7c-0.3-0.2-0.6-0.5-0.8-0.8c-0.6-0.9-1.3-1.7-2.3-2.2c-0.3-0.2-0.6-0.5-0.8-0.8
			C251.8,79.9,251.8,79.8,252,79.8z"/>
		<path d="M157.8,48.3c-0.6-0.3-1.1-0.7-0.7-1.5c-0.9-0.6-0.9-2-2.1-2.3c-0.4,0-0.7-0.3-0.9-0.6c-0.6-0.9-1.4-0.8-2.3-0.6
			c-0.6,0.2-1.3,0.2-1.9,0.1c-0.1-0.1-0.4,0-0.4-0.2c1.2-0.5,2.6-0.6,3.9-0.4c0.1,0,0.1,0,0.2,0c0.9,1,2.5,1.2,3.2,2.5
			c0.2,0.3,0.4,0.6,0.6,0.8c0.2,0.2,0.5,0.5,0.3,0.8c-0.4,0.6,0.1,0.8,0.5,1C158.3,48.4,158.1,48.4,157.8,48.3z"/>
		<path d="M193.6,59.8c0.3,0.1,0.7,0.1,1,0.2s0.7,0.3,0.6,0.8s0,0.9,0.6,1c0.2,0.3,0.1,0.8,0.4,1c0.4,0.3,0.8,0.5,1.3,0.7
			c0,0.3-0.2,0.3-0.4,0.2c-0.5-0.2-1-0.5-1.3-0.9c-0.1-0.2-0.4,0-0.6-0.2s0-0.7-0.3-0.8c-0.7-0.2-0.4-0.8-0.5-1.4s-0.3-0.2-0.6-0.3
			c-1.8-0.7-3.7-1.1-5.7-0.9c-0.5,0.1-1-0.1-1.3-0.5c0-0.2,0-0.2,0.1-0.3c1.3,0.2,2.1,0.2,3.4,0.3c0.5,0,1,0.1,1.4,0.2
			c0.2,0.2,0.4,0.3,0.6,0.3C192.9,59.4,192.9,59.5,193.6,59.8z"/>
		<path d="M223.2,69c0.2,0.4,0.7,0.6,0.9,1s0.2,0,0.4,0.2s0.1,0.2,0,0.3S224,71,224,71.1s1.5-0.1,1.6,0c0.3,0.2,0,0.3,0.2,0.5
			c0.7,0.4,1.5,0.6,2.3,0.8c0.5,0,0.5,0.2,0.7,0.7c0.3,1.1,1.1,1.5,2,2.1c0.1,0.2,0,0.3-0.2,0.2c-1-0.4-2.2-0.7-2.4-2.1
			c0-0.4-0.4-0.4-0.6-0.4c-1.2-0.3-2.4-0.7-2.4-1.2c-0.2-0.2-0.5,0.1-0.8,0.1c-0.9-0.1-1.3-0.2-0.9-0.9c0.1-0.2,0-0.5-0.3-0.6
			c-0.3-0.2-0.5-0.4-0.6-0.7c-0.1-0.2-0.1-0.3,0-0.4S223.1,68.9,223.2,69z"/>
		<path d="M262.9,94.7c-1.1-0.1-2.1-0.3-3.1-0.7c-1-0.4-2.5-1-2.9,0.2c-0.1,0.1-0.3,0.2-0.5,0.2c-1.1-0.1-2.3-0.3-3.4-0.4
			c-0.1-0.3,0.1-0.1,0.3-0.4c0.5-0.2,1.1-0.2,1.6,0c0.6,0.2,1.1,0.5,1.6,0.1c0.3-1,0.8-1,1.8-0.7c0.6,0.2,2.2,0.8,2.9,1
			c0.4,0.2,0.8,0.1,1.2,0.3c0.2,0.1,0.4,0,0.8,0.1l0.6,0.2C263.5,94.9,263.2,94.6,262.9,94.7z"/>
		<path class="st41" d="M302.7,110.3c-0.1,0.2,0.4,0.2,0.2,0.4s-2.9-1.1-3.7-1.4c-3.8-1.5-7.7-2.9-11.5-4.4c-0.1,0-2-0.9-1.9-1
			s4.1,1.6,5.4,2c0.6,0.3,1.3,0.6,1.9,0.8C296.1,107.7,302.7,110.2,302.7,110.3z"/>
		<path class="st41" d="M208.9,66.3c1.7,0,3.4,0.1,5.1,0.3c0.9,0.1,2.4,0.3,3.5,0.5c0.1,0.1,0.1,0.2,0,0.3c0,0,0,0,0,0
			c-2.8-0.5-5.7-0.8-8.5-0.9c-0.2,0-1.6-0.2-1.8-0.2C207.3,66,208.6,66.3,208.9,66.3z"/>
		<path d="M154.1,77.7c0.1-0.1,0.2-0.3,0.4-0.3c1,0.3,1.4-0.3,2.9,0c0.4,0,0.6-0.3,0.9-0.6c0.4-0.5,1.1-0.6,1.6-0.2
			c1.4,1,2.9,1.7,4.6,2.2c0,0.2-0.1,0.3-0.3,0.3c-1.4-0.2-2.8-0.8-3.9-1.7c-0.5-0.4-1.1-0.7-1.7-0.1c-0.4,0.4-1,0.5-1.6,0.5
			C155.8,77.7,155.1,78,154.1,77.7z"/>
		<path class="st42" d="M200.3,69.8h0.6c2,0.2,4.1-0.2,6.1,0.1c1.1,0.1,2.2-0.2,3.3,0.1c0.1,0.2-0.1,0.2-0.2,0.3s-3.3-0.1-5-0.1
			c-1.5,0-2.5,0.1-3.8,0C200.7,70.1,200.4,70.4,200.3,69.8z"/>
		<path class="st26" d="M136.6,64.5c1.2,0.8,2.4,1.7,3.4,2.8c2.3,1.9,4.5,3.8,6.6,5.9c0.1,0.1,0.2,0.2,0.1,0.4
			c-0.4-0.2-0.8-0.5-1.1-0.8c-2.7-2.5-5.5-4.9-8.4-7.3c-0.3-0.2-0.6-0.4-0.8-0.7C136.2,64.6,136.6,64.5,136.6,64.5z"/>
		<path class="st24" d="M247,79.2c-2-0.2-4-0.4-6-0.4c-1.9-0.2-3.7-0.6-5.4-1.3c0.1-0.2,1.5,0.1,2,0.3c1.3,0.4,2.6,0.7,3.9,0.7
			c1.9,0,3.8,0.2,5.7,0.6C247.2,79.1,247,79.1,247,79.2z"/>
		<path class="st20" d="M145.6,60.5l0.6-0.2l2.2,0.5c0.3,0.1,0.9,0.3,0.8,0.5c-0.4-0.1-0.8-0.2-1.1-0.3c1.5,1.2,3.4,1.8,4.7,2.6
			c0.1,0.3,0.6,0.1,0.6,0.6c-0.8,0.1-1.2-0.6-1.8-0.8c-1.3-0.5-2.6-1.1-3.8-1.8C147.2,61.2,146.4,60.8,145.6,60.5z"/>
		<path d="M164,51.2c0.6,0.4,1.2,0.8,1.8,1c1.3,0.5,2.4,1.3,3.2,2.5c0,0.3-0.2,0.2-0.4,0.2c-0.3-0.1-0.6-0.4-0.7-0.7
			c-0.5-0.7-1.2-1.2-2-1.5c-1.6-0.5-2.9-1.6-3.6-3.2c-0.1-0.1-0.2-0.2-0.4-0.3c0-0.5,0.4-0.3,0.6-0.2C163,49.7,163.2,50.7,164,51.2z
			"/>
		<path d="M264.1,86.8l0.6-0.2c1.1,0.4,2,1.1,2.6,2c1.3,1.6,3,2.8,4.8,3.6l-0.4,0.2c-1.9-0.9-3.6-2.1-5-3.7
			C266,87.9,265.1,87.2,264.1,86.8z"/>
		<path d="M163.7,79.1c0.1-0.1,0.3-0.3,0.4-0.3c0.5,0.1,1,0.3,1.5,0.3c1.3,0,1.8-1,2.7-1.6c0.4-0.2,0.8-1,1.2-0.6s-0.4,0.9-0.7,1.1
			c-0.6,0.4-1.1,0.9-1.6,1.3C166.1,79.7,164.8,79.7,163.7,79.1z"/>
		<path class="st43" d="M165.9,70.9c-1-0.7-2.1-1.3-3.2-1.7c-0.1,0,0.1-0.1,0-0.3c1.2,0.2,3.5,1.6,5,2.4c0.3,0.2,0.4,0.6,0.5,0.8
			c0.4,0.7,1.3,0.7,2,1.1c0.4,0.2,0.7,0.4,1.1,0.6c0,0.1-0.1,0.3-0.3,0.3c-0.8-0.4-1.6-0.8-2.5-1.2c-0.4-0.1-0.7-0.4-0.9-0.7
			C167.3,71.4,166.7,71.3,165.9,70.9z"/>
		<path class="st11" d="M279.9,101.4c-0.5-0.3-2.4-1.1-3.6-1.7c-1.5-0.7-3-1.2-4.4-1.8c-0.6-0.3-1.1-0.6-1.6-0.9
			c1.4,0.4,2.8,0.9,4.1,1.5c1.6,0.6,3.2,1.4,4.8,2.1c0.3,0.1,0.5,0.2,0.9,0.4L279.9,101.4z"/>
		<path class="st44" d="M215.4,74.8c-0.1-0.8,6.3-0.7,6.2,0c0,0.1-1.5-0.2-3.1-0.2C217.4,74.5,216.4,74.6,215.4,74.8z"/>
		<path class="st45" d="M291.3,105.5c-0.1,0.2-1.3-0.5-1.8-0.8c-2.1-1.1-4.1-2.3-6.3-3.2c-0.1,0-0.2-0.2-0.2-0.3c0,0,0,0,0,0
			c0.9,0.3,1.8,0.7,2.6,1.2C287.6,103.2,289.5,104.3,291.3,105.5L291.3,105.5z"/>
		<path class="st35" d="M149.4,68.9l0.3-0.1c2.1,1.7,4,3.7,6.1,5.4C153.4,72.7,151.3,70.9,149.4,68.9z"/>
		<path class="st46" d="M210.1,70.3c0.1-0.1,0.1-0.2,0.2-0.3l5.6-0.2c0.4,0.1,0.9,0.1,1.3,0.1c0.2,0,0.4-0.1,0.4,0.2
			C215,70.1,212.6,70.3,210.1,70.3z"/>
		<path class="st47" d="M179.2,79.2l-0.3,0.3c-1.6-1.3-3.6-2-5.4-3.1c0-0.1,0.1-0.2,0.2-0.2C175.7,76.9,177.5,77.9,179.2,79.2z"/>
		<path d="M173.8,76.1l-0.2,0.2c-1.2-0.3-1.7-1.5-2.5-2.3l0.3-0.3C172.4,74.3,172.7,75.3,173.8,76.1z"/>
		<path class="st48" d="M201.1,66.3c0,0-0.1,0.1-0.2,0.1c-1.4-0.7-3-0.6-4.5-0.9c0,0,0-0.1-0.1-0.2c1.2-0.3,2.3,0.2,3.4,0.2l1.8,0.4
			C201.5,66.2,201.2,66.1,201.1,66.3z"/>
		<path class="st10" d="M162.5,49l-0.6,0.2c-1.4-0.1-2.8-0.1-4.1-0.9l0.4-0.2c0.9,0.5,2,0.7,3,0.7C161.7,48.7,162.1,48.8,162.5,49z"
			/>
		<path class="st49" d="M247,79.2l0.2-0.2l4.8,0.8V80C250.3,80,248.6,79.8,247,79.2z"/>
		<path d="M274.4,94.4c0.3-0.1,0.7-0.2,1-0.2c1,0.2,2.1,0.5,3,1c0.2,0.1,0.5,0.1,0.4,0.4s-0.4,0.2-0.6,0.1c-0.5-0.3-1-0.5-1.5-0.7
			C275.9,94.6,275.2,94.4,274.4,94.4z"/>
		<path class="st11" d="M201.1,66.3l0.4-0.4c0.9-0.1,1.9-0.1,2.8,0c0.1,0.2,0.6-0.1,0.6,0.3c-1,0.1-1.9,0-2.9,0.1
			C201.7,66.3,201.4,66.3,201.1,66.3z"/>
		<path class="st9" d="M204.9,66.3l-0.6-0.3c1.5,0.1,9.5,0,9.5,0.2s-5.3,0-5.6,0.1C207.2,66.2,206,66.4,204.9,66.3z"/>
		<path class="st16" d="M223.2,69c-0.2-0.1-0.4,0-0.4,0.2c0,0,0,0,0,0.1c-0.4-0.9-2.4-2-2.3-2.3C220.8,66.6,222.8,68,223.2,69z"/>
		<path d="M153.4,64.2c-0.2-0.2-0.5-0.3-0.6-0.6l2.9,0.6c-0.1,0.1-0.2,0.2-0.3,0.2c-0.1,0.1-0.4-0.3-0.5,0c0,0.1,0.5,0.3,1.3,0.5
			c0.5,0.1,0.9,0.4,1.3,0.7C156.1,65.3,154.7,64.8,153.4,64.2z"/>
		<path class="st50" d="M230.6,75.2l0.2-0.2l2.9,0.9c0.2,0,0.2,0.3,0,0.2C232.6,76,231.6,75.6,230.6,75.2z"/>
		<path class="st5" d="M200.2,69.8l0.9,0.4c-0.6,0-1.3-0.1-1.9-0.1s-0.8,0.2-0.4,0.9c-0.5,0-0.7-0.3-0.6-0.7s0.4-0.4,0.8-0.4
			S199.8,69.8,200.2,69.8z"/>
		<path d="M217.5,70.1c-0.5-0.4-1.1,0.1-1.6-0.3c1.2,0.1,3.6-0.5,3.6-0.2S218,69.9,217.5,70.1z"/>
		<path d="M151.1,64.4c0.1,0.2,0.2,0.4,0,0.6c-0.8-0.5-1.6-0.9-2.5-1.2l0.8-0.3L151.1,64.4z"/>
		<path d="M227,80l-0.4,0.2l-0.5-0.1c-0.6-0.3-1.3-0.1-2.1-0.3c0-0.5,1.7-0.5,2.2-0.3c0.3,0.2,0.4,0.3,0.5,0c0-0.1,0.2-0.1,0.3,0
			S226.9,80,227,80z"/>
		<path d="M249.8,88.4l0.4-0.2c0.8,0.3,2.6,0.6,2.6,0.7s-0.4,0.3-0.3,0.4s-0.1-0.1-0.2-0.1C251.4,89.1,250.6,88.8,249.8,88.4z"/>
		<path d="M262.9,94.7l0.8-0.2l1.1,0.4c0.1,0.2,0.4,0.4,0.1,0.6s-0.4-0.1-0.5-0.2C264,95,263.4,95,262.9,94.7z"/>
		<path class="st34" d="M302.3,110.5c0.1-0.1,0.3-0.1,0.4-0.3c0.8,0.4,3.2,0.9,2.5,1.2C304.2,111.2,303.2,110.9,302.3,110.5z"/>
		<path class="st48" d="M282.6,102.7c-1-0.4-2-0.9-3-1.5l0.2-0.2c1.1,0.4,2.1,0.9,3,1.5L282.6,102.7z"/>
		<path class="st51" d="M163.9,74.7c0.8,0.4,1.6,1,2.1,1.8C165.2,76.1,164.4,75.5,163.9,74.7L163.9,74.7z"/>
		<path class="st45" d="M293.1,106.5c0,0.1-1.2-0.6-1.8-0.8c-1.4-0.8-1.7-1-1.5-1l0.7,0.4C291.3,105.3,292.7,105.8,293.1,106.5z"/>
		<path d="M149.6,43.3l0.4,0.2c-0.4,0.2-0.9,0.4-1.3,0.4c-0.3,0-0.5,0-0.8,0c-0.5-0.1-0.1-0.3,0-0.4
			C148.5,43.5,149.1,43.5,149.6,43.3z"/>
		<path class="st34" d="M313.2,114.7c-0.1,0.1,0.1,0.4-0.8,0c-0.6-0.6-8.1-3.3-7.8-3.5C304.8,110.8,312.4,114.3,313.2,114.7z"/>
		<path class="st52" d="M312.7,114.8c-1.4-0.7-0.3-0.7,0.3-0.2c0.4,0.3,3.2,1.4,3,1.6S313.5,115.2,312.7,114.8z"/>
		<path d="M217.6,67.4v-0.3c0.7,0.3,2.4,0.1,2.4,0.3C220,67.8,218.4,67.5,217.6,67.4z"/>
		<path class="st48" d="M282.7,102.5c0,0,2,0.7,1.8,0.9s-1.9-0.7-1.9-0.8L282.7,102.5z"/>
		<path class="st41" d="M286.5,104.1c-1-0.2-1.9-0.5-2.8-1C284.7,103.2,285.6,103.6,286.5,104.1z"/>
		<path class="st11" d="M279,99.4c0.1-0.1,5.4,2.2,5.1,2.4C284,101.9,278.8,99.6,279,99.4z"/>
		<path class="st53" d="M197,63.8l0.4-0.2c0.5,0.1,1.8,0.6,2.3,0.6c0.1,0.1,0.1,0.2-0.1,0.2C198.7,64.3,197.8,64.1,197,63.8z"/>
		<path d="M30.2,30.6c0-0.4,0.8-0.2,1.1-0.1c0.7,0.3,1.2,0,1.8-0.4c0.1-0.1-0.2,0.7-0.1,0.8c0.9,0.4,1.9,0.7,2.9,0.9
			c0.3,0,0.6,0.4,0.9,0.4c1.1,0,2.2,0.1,3.3,0.4c0.2,0.2,0.3,0.3,0.2,0.5s-0.3,0.1-0.4,0.1c-2.6-0.8-5.4-1-8-2.2
			C31.3,30.7,30.2,31,30.2,30.6z"/>
		<path class="st16" d="M30.6,36.6c0.2-0.1,0.5-0.1,0.7,0c3.7,3.4,7.9,6.2,11.4,9.8c-1.3-1.1-2.6-2.2-3.9-3.3
			c-1.5-1.2-3-2.4-4.6-3.6c-0.6-0.4-1.1-0.9-1.6-1.5c-0.4-0.6-1-0.9-1.6-1.1C30.7,37,30.6,36.8,30.6,36.6z"/>
		<path class="st50" d="M42.5,33.5c1.2,0.7,2.5,0.4,3.7,0.6c1,0,2.1,0.3,3,0.7c0,0.1,0,0.3-0.1,0.4c-1.4-0.6-2.8-0.9-4.3-0.9
			c1.4,0.4,2.8,0.9,4.2,1.5c0.1,0.3,0.3,0.3,0.2,0.6c-0.3,0-0.6,0-0.8-0.1C48.2,36.2,49,36,48.8,36c-2.4-0.6-4.7-1.4-6.9-2.3
			C42,33.4,42.3,33.5,42.5,33.5z"/>
		<path class="st18" d="M52.7,45.4c-1.2-0.7-2.4-1.6-3.4-2.7c-1.5-1.3-2.8-2.8-4.3-4.1c-0.5-0.4-1-0.8-1.6-1.2
			c0.6-0.2,0.8,0.2,1.1,0.3c1.7,1.1,2.8,2.7,4.2,4c1,1,2.2,1.9,3.2,2.9C52.2,44.8,52.6,45,52.7,45.4L52.7,45.4z"/>
		<path class="st8" d="M45.8,49.1c-0.1-0.2-0.5-0.3-0.7-0.5c0.1,0,0.3,0.3,0.5,0.2c1.1-0.3,2.3-0.5,3.4-0.5c1.6-0.1,3.5-0.3,4.8-0.3
			c-0.1,0.2,0.1,0.2,0,0.3c-0.3,0.2-0.8,0.1-1,0.1c-2.2,0-5,0.4-6.3,0.5c-0.2,0-0.3,0-0.5,0.1C45.9,49,46,49.3,45.8,49.1z"/>
		<path d="M26.1,31.6c-0.2,2.1-0.4,4.2,0.5,6.2c0.1,0.2,0.5,0.8-0.4,0.5c-0.9-2.2-1.1-4.5-0.5-6.8c0-0.2,0.1-0.2,0.3-0.2L26.1,31.6z
			"/>
		<path class="st43" d="M43.2,41.4c-1.5-1.1-2.8-2.4-4-3.8c-0.6-1-1.5-1.9-2.5-2.5c0.8,0,1.6,0.4,2,1.1c1.4,1.9,3.1,3.6,4.9,5.1
			C43.4,41.4,43.3,41.4,43.2,41.4z"/>
		<path class="st24" d="M51.3,41.4c3.2,1.1,5.1,3.7,7.5,5.8C56.2,45.4,54.2,42.8,51.3,41.4z"/>
		<path d="M55.4,47.8c2-0.1,3.8,0.9,4.8,2.5c-0.7,0-1.4-0.4-1.8-1c-0.8-0.8-1.9-1.2-3.1-1.1c-0.3,0-0.8,0.6-1.1,0.4s0.3-0.5,0.4-0.6
			C54.9,47.9,55.2,47.8,55.4,47.8z"/>
		<path d="M47,54.3c-0.3,0-0.7-0.1-1-0.2c0.3-0.3,0.6-0.5,0.9-0.7c0.6-0.1,1.2-0.2,1.8-0.2c0.1,0,1.1-0.1,1.2-0.1s0,0.1,0,0.3
			c-0.5,0.2-2.4,0.2-2.9,0.5c1.1,0.1,3.5-0.3,4.8-0.2c0.3,0,0.1,0.2,0,0.3C50.3,54,48.6,54.2,47,54.3z"/>
		<path d="M62.7,54.6l-0.2,0.2c-1.2-0.6-2.1-1.7-2.5-3c-0.1-0.3-0.2-0.5,0.1-0.7s0.5,0.1,0.7,0.4s0.1,0.2,0.2,0.3
			C61.2,52.9,61.8,53.8,62.7,54.6z"/>
		<path class="st40" d="M45.7,49.2c0.2-0.1,0.1,0,0.3,0c0.1,0.3,0.2,0.4-0.2,0.4c-2,0.3-4.3,0.6-6.4,0.8c0.1-0.2,0.1-0.3,0.3-0.4
			c0.2-0.1,0.6-0.1,0.8-0.1c1.2-0.2,2.5-0.3,3.7-0.5C44.7,49.4,45,49.4,45.7,49.2z"/>
		<path d="M31.4,44.8h0.2c1,1,2,2,2.9,3.1c0.1,0.3,0.1,0.4-0.1,0.5c-0.7-0.8-0.8-0.6-1.2-1.1c-0.1-0.1-0.2-0.2-0.3-0.3
			c-0.4-0.8-1.2-1.2-1.7-1.9C31.1,44.8,31.1,44.7,31.4,44.8z"/>
		<path class="st54" d="M43.2,41.4l0.3-0.1c1.6,1.4,4.3,3.6,5.8,5.1c-0.1,0.1,0,0.3,0,0.3C47.4,44.9,45.4,43.1,43.2,41.4z"/>
		<path d="M62.4,57.1c0,0.2,0,0.3-0.1,0.3c-0.4,0.3-0.9,0.4-1.4,0.4c-0.2,0-0.5,0-0.7,0.1C60,58,59.8,58,59.8,57.8s0.2-0.6,0.3-0.5
			c0.5,0.2,1-0.2,1.4-0.5C61.8,56.5,62,57.1,62.4,57.1z"/>
		<path class="st13" d="M49.2,52.9c-0.1-0.1,0-0.1-0.2-0.2c1.2-1,2.3-0.8,3.7-1c0.1,0,0.3,0,0.4,0.2c-0.6,0.3-1.4,0.2-2,0.5
			c-0.5,0.1-1,0.2-1.4,0.5C49.6,53,49.4,52.9,49.2,52.9z"/>
		<path d="M49.2,36.4c-0.1-0.2-0.3-0.3-0.2-0.6c1,0.2,2,0.4,3,0.6l0.8,0.3C52.7,37.3,52.3,37,52,37C51.1,36.7,50.1,36.5,49.2,36.4z"
			/>
		<path class="st0" d="M46,49.2c2-0.2,4.1-0.3,6.1-0.2c0,0.1-0.1,0.1-0.1,0.2c-1.6-0.1-4.1,0.3-5.7,0.4C46.2,49.4,46,49.3,46,49.2z"
			/>
		<path class="st2" d="M39.8,33.1c0.3-0.1-0.4-0.6,0.7-0.6c0.3,0,0.7,0,1,0.2c0,0.2-1.1,0-1.3,0.1s-0.2,0.1,0,0.2
			c0.5,0.1,1,0.2,1.5,0.3c0.2,0-0.3,0.2,0,0.4C41,33.6,40.4,33.4,39.8,33.1z"/>
		<path class="st55" d="M34.6,48.7L34,48.1l0.4-0.2l2.6,2C36,49.8,35.4,49,34.6,48.7z"/>
		<path d="M53.1,52l-0.4-0.2c0.6-0.4,1.3-0.7,2-0.8c0.2,0,0.8-0.3,0.8,0.3L53.1,52z"/>
		<path class="st18" d="M56.1,48.6c-0.1,0.2-0.1,0.1-0.3,0.1c-0.6-0.8-1.3-1.5-2-2.1c-0.4-0.3-0.8-0.7-1.1-1.2l0,0
			C54,46.2,55.2,47.3,56.1,48.6z"/>
		<path d="M57.2,49.2c-0.1,0.3-0.4,0.4-0.7,0.4c-0.2,0-0.5-0.2-0.4-0.5s0.3-0.3,0.6-0.3C57,48.8,57.2,49,57.2,49.2
			C57.2,49.2,57.2,49.2,57.2,49.2z"/>
		<path class="st56" d="M55.5,51.2L55,50.9c0.6-0.2,1.2-0.3,1.9-0.3c0.1,0-0.1,0.4,0,0.4C56.3,51.1,56,51.1,55.5,51.2z"/>
		<path d="M41.7,33.7c0.1-0.3,0.2-0.6-0.5-0.8c-0.2,0,0.1-0.1,0.3-0.2c0.4,0.2,0.7,0.4,1,0.8l-0.6,0.2
			C41.9,33.7,41.8,33.7,41.7,33.7z"/>
		<path class="st16" d="M52,37c0.3,0,0.6-0.1,0.8-0.2c0.3-0.1,0.7,0,1,0.2l-0.4,0.1l0.4,0.3C53.2,37.4,52.6,37.2,52,37z"/>
		<path class="st54" d="M168.7,55.2c0-0.1,0.2,0,0.2,0c1.4,0,2.4,0.3,3.7,0.3c1.7,0,3.3-0.1,5-0.3c0.1,0,0.1-0.1,0.2-0.1
			c0.4,0.2,0.9,0,1.1,0.5c-2.8,0.5-5.6,0.8-8.4,1c-2.7,0.2-5.3,0.3-8,0.5c-0.8,0-1.6,0-2.4,0c-0.1-0.2-0.5,0-0.4-0.4
			c4.3,0,10.8-0.4,15-0.9c-5.3-0.4-18.2,0.1-18.2-0.3c3,0,6.3-0.3,9.1-0.2C167,55.3,167.5,55.3,168.7,55.2z"/>
		<path class="st30" d="M166.1,64.8c1.2,0.2,2.3,0.6,3.5,1c0.4,0,0.8,0.1,1.1,0.2c1.9,0.8,3.5,0.8,5.5,1.4c0.8,0.1,1.1,0.4,1.8,0.5
			c0.6,0.1,1.3,0.3,1.8,0.7c0.8,0.4,1.7,0.7,2.6,0.9l-0.1,0.3c-0.8-0.2-1.6-0.4-2.4-0.7c-2.2-0.7-4.4-1.3-6.7-1.7
			c-2.1-0.6-3.9-1.2-6.3-1.7c-3.7-0.9-7.3-2-11.1-2.3c-1.1-0.2-2.2-0.4-3.3-0.7c0,0,0-0.1,0-0.2v-0.1c3.6,0.4,7.2,1,10.8,2
			C164.3,64.5,165.2,64.7,166.1,64.8z"/>
		<path class="st57" d="M186.7,60.3c0.2,0.1,0.7-0.1,0.4,0.3c0,0-0.6,0-0.6,0s0.6,0.3,0.6,0.4c-0.1,0.2-0.1,0.3-0.3,0.2
			c-1-0.9-2.4-0.5-4-0.3c-2.9,0.3-6.3,0.6-9.2,0.9c-0.3,0-1.4,0.2-1.6,0c0,0-0.1-0.1-0.1-0.2c4.1-0.2,8.2-1,12.3-1.1
			c0.5,0,0.9,0,1.4-0.1c-0.1-0.1-1.6-0.5-1.6-0.9C184.8,59.5,185.8,60.5,186.7,60.3z"/>
		<path class="st31" d="M159.8,56.8l0.4,0.4c-3.8,0.1-7.5,0.5-11.3,0.7c-0.8,0-1.7,0-2.5-0.1c-1.1-0.2-2.2-0.1-3.3,0.3
			c-0.2,0.1-0.5,0.2-0.6,0s0.3-0.3,0.5-0.4c0.8-0.3,1.7-0.4,2.5-0.3c3.1,0.2,6.1,0.1,9.2-0.3C156.4,56.8,158.1,57.1,159.8,56.8z"/>
		<path class="st25" d="M170.7,59.1c-1.2,0-2.3,0.1-3.4,0.3c-1.5,0.1-2.1,0.2-3.5,0.4c-0.5,0.1-1,0.1-1.5,0
			c-0.3-0.2,0.4-0.3,0.6-0.3l10.3-1c0.1,0,0.3,0,0.4,0.2C172.5,59.1,171.8,58.8,170.7,59.1z"/>
		<path class="st23" d="M185.1,57.7c-3.1,0.5-8.7,0.8-11.9,1c0.4-0.4-0.3-0.3,0.2-0.3c2.3-0.1,8.2-0.7,10.5-0.9c0.4,0,0.8,0,1-0.4
			c0.1-0.1,0.2-0.1,0.3,0c0.2,0.2,0.1,0.4,0,0.6C185.2,57.6,185.1,57.7,185.1,57.7z"/>
		<path class="st58" d="M179,55.6c-0.4,0-0.8,0-1.2-0.1c-0.4-0.1,0-0.2,0-0.3c0.3-0.3,1.6-0.1,1.9-0.6l3.3,0.1
			c0.4-0.1,0.7-0.1,1.1,0c0.1,0.2,0,0.5-0.2,0.6c0,0-0.1,0-0.1,0C182.2,55.4,180.6,55.4,179,55.6z"/>
		<path class="st23" d="M162.6,59.9c-2.7-0.3-5.8,0.8-7.8,0.7c0.2-0.1-0.3-0.2,0.1-0.3c1.8-0.3,5.9-0.7,7.4-0.8
			C163.2,59.4,162,59.7,162.6,59.9z"/>
		<path d="M183.8,55.4c0-0.2,0.1-0.3,0.2-0.4c0.1-0.2,0.6,0.4,0.8,0.4c0.4-0.7,1.2,0.2,0.8,1.7c-0.3,0.3-0.3,0.3-0.6,0l-0.1-0.1
			C185.3,56,184.3,55.8,183.8,55.4z"/>
		<path d="M185.7,57.1c0.2,0,0.1,0.5,0.1,0.8c0.5,0.3,0.9,0.2,1.2,0.8l-0.2,0.2c-0.7-0.1-1.4-0.5-1.7-1.2
			C185.2,56.9,185.7,57.2,185.7,57.1z"/>
		<path class="st20" d="M152.7,62.2v0.2c-1-0.1-3.9-1.1-3.8-1.4C150.2,61.4,151.4,61.8,152.7,62.2z"/>
		<path class="st5" d="M51.8,34.4c1.9-0.3,3.8-0.5,5.8-0.7c2.9-0.3,5.7-0.7,8.5-1.4c2.3-0.5,4.7-0.9,7.1-1.1
			c2.5-0.2,4.7-0.8,7.1-1.2c1.1-0.3,2.2-0.4,3.3-0.6c0.3,0,0.6-0.1,0.9-0.2c0.3-0.2,0.8,0,1.1-0.1c0.6-0.1,1.2-0.1,1.8-0.2
			c0.2,0.1,0.2,0-0.2,0.3c-2.6,0.1-5.1,0.6-7.6,1.4c-2.5,0.5-5,0.9-7.5,1.2c-2.4,0.2-4.7,0.6-7.1,1.2c-2.7,0.6-5.4,1-8.2,1.1
			c-1.5,0.1-3,0.6-4.6,0.4C52.2,34.5,51.9,34.7,51.8,34.4z"/>
		<path d="M51.9,34.8c-0.5,0.2-1.1-0.1-1.5,0.6c-0.2,0.4-0.9-0.2-1.4-0.4l0.2-0.2l2.6-0.4l0.4,0.2L51.9,34.8z"/>
		<path class="st5" d="M88.3,29.4c-0.1,0-0.3,0.1-0.5,0s-0.2-0.3-0.1-0.3s0.6,0,0.8-0.2s0.5,0,0.7,0c0,0.1,0,0.2,0,0.4
			C88.6,29.3,88.6,29.2,88.3,29.4z"/>
		<path class="st5" d="M137.1,44.6c1.3-0.1,2.7-0.3,4-0.6l1.9-0.4c0.7-0.1,0.9-0.2,1.5-0.2c0.8,0,1.5-0.2,2.3-0.2l0.9,0.2
			c0.2,0.3,0.7,0,0.8,0.4c-0.6,0-1.2,0.1-1.8,0.3c-1.6,0.1-3.2,0.4-4.8,0.7c-0.7,0-1.5,0-2.2,0.1c-0.6,0-2,0.6-2.6,0.4
			c-0.2-0.2-0.3-0.4-0.4-0.6L137.1,44.6z M146.9,43.7c-1.9-0.1-3.8,0.2-5.7,0.8C143.1,44.3,145,44.1,146.9,43.7z"/>
		<path d="M1.2,47.1c0.3-0.6,0-1.3,0.3-1.9l0.3,0.4c-0.2,1-0.5,2.1,0.5,2.9c0.1,0.1,0.2,0.3,0.3,0.5c0.1,0.2,0.1,0.3-0.1,0.4
			c-0.1,0.1-0.3,0-0.4-0.1C1.6,48.6,0.9,48,1.2,47.1z"/>
		<path class="st19" d="M67.8,16.4h0.4c0.9,0.9,1.9,1.6,2.9,2.3c2.5,1.6,5.3,3.6,6.8,5.6c0.2,0.2,0.7,0.6,0.9,0.8s0.9,0.6,1.5,1.2
			c0,0.1-1.2,0.3-1.3,0.4h-0.4c-0.5-0.5-0.9-0.5-1.5-1.3c-2.2-2-4.6-3.8-7-5.5c-0.8-0.4-1.5-1-2.1-1.6c-0.3-0.4-0.6-1.8-1.2-1.6
			c-0.1,0,0-0.3,0-0.4S67.5,16.5,67.8,16.4z M79.3,26.1c0.2-0.2-0.2-0.2-0.4-0.4c-0.3-0.4-0.7-0.8-1.1-1.2c-1-1-3.7-3.1-5.5-4.7
			c-1.3-0.9-2.7-1.8-4.1-2.6c0.1,0.5,0.4,1,0.8,1.3c0.5,0.4,1,0.7,1.6,1.1c2.3,1.8,4.9,3.3,6.9,5.5c0.3,0.3,0.6,0.6,1,0.8
			C78.6,26.1,79.2,26.3,79.3,26.1z"/>
		<path d="M78.7,26.2c0-0.2,0.4-0.1,0.8,0c0.4,0.1,0.9,0.1,1.3,0c0.6,0,1.2-0.1,1.6-0.1c1,0-0.3,0.5,0.1,0.8s0.5,0.7,1.3,0.8
			c0.4,0,0.2,0.5,0.6,0.8c0.1,0.2,0.2,0.3,0.4,0.4l0.5,0.6c-0.3,0.2-0.5,0-0.8-0.2s-0.6-0.4-0.8-0.6s-0.1-0.2-0.2-0.5
			s-0.2-0.2-0.3-0.1s-0.6-0.2-0.6,0c0.1,0.4-0.2,0.7-0.8-0.2c-0.2-0.3-0.6-0.4-0.9-0.5c-0.4,0-0.8,0.1-1.2,0.1
			c-0.2,0-0.8-0.3-0.5-0.4c0.7,0,1.4-0.2-0.3-0.5l0,0C79,26.4,78.7,26.3,78.7,26.2z"/>
		<path d="M87,26.5c-0.2-0.1-4.1-0.1-4.2-0.1s-0.7-0.1-0.7-0.2s3-0.3,4.8,0.1c0.6,0.1,1.2,0.1,1.8,0.3c0.3,0.1,0.6,0.2,0.8,0.5
			c0.1,0.2,0.3,0.3,0.1,0.5s-0.3-0.1-0.5-0.2s-0.4-0.5-0.5-0.5c-0.9-0.1-1.7-0.1-2.6,0.2c-0.8,0.2-1.5,0.2-2.3,0.2
			C83.7,26.9,84.8,27,87,26.5z"/>
		<path class="st47" d="M42.1,20.9c2.2,0.5,4,2.1,6.4,2.1c0.6,0,1.1,0.2,1.4,0.7c0.1,0.2,0.3,0.3,0.5,0.3c1.6,0.1,2.8,1.1,4.3,1.4
			c0.3,0,0.6,0.2,0.9,0.4c1.8,1.7,4.1,2.3,6.3,3c1,0.2,2,0.7,2.8,1.4c-1-0.3-1.9-0.8-2.9-1c-1.8-0.5-3.5-1.1-5.1-2c0,0-0.1,0-0.1,0
			c-1.2-1.5-3-1.6-4.6-2.4c-0.4-0.1-0.7-0.2-1.1-0.3c-0.7,0-1.3-0.3-1.7-0.9c-0.3-0.5-0.9-0.4-1.4-0.4c-1.2,0-2.5-0.4-3.5-1.1
			c-0.9-0.6-2-0.4-3-1c-0.2-0.1-0.5-0.1-0.3-0.4C41.4,20.3,41.8,20.2,42.1,20.9z"/>
		<path class="st48" d="M77,25.2c0.5,0.5,1,0.9,1.5,1.3c-1.1,0-2.2-0.2-3.3-0.5c-0.8-0.2-2.7-0.2-2.9-0.4c0-0.3,0.9-0.5,1.8-0.2
			c1.2,0.4,2.5,0.5,3.8,0.5c-3.3-0.7-9.7-2-12.9-3.1c0.2-0.1,0-0.2,0.1-0.3c0.6,0,1.2,0.1,1.7,0.4c3.1,1,6.3,1.5,9.5,2.3
			C76.6,25.5,76.8,25.4,77,25.2z"/>
		<path class="st56" d="M37,30.7c0.1-0.6,5.2-0.5,10.5-1c5.9-0.5,7.9-1.5,12.4-1c0.1,0.1,0.2,0.2,0,0.3c-1.7,0-3.4,0.1-5.1,0.3
			c-4.4,0.6-8.7,1-13.1,1.1C39,30.4,37,30.8,37,30.7z"/>
		<path d="M62.8,26.1c-0.4-0.2-1.2-0.8-1.4-0.9c-2.2-1.3-3.8-2.8-6-4.1c0.7,0.3,1.5,0.6,2,0.8s0.8,1.5,2.8,0.6c0,0.2,0,0.4-0.1,0.5
			s-1-0.2-0.9,0.2s1.7,1.1,2,1.4c0.5,0.4,3.4,2.2,3.8,2.4c0.8,0.6,0.3,0.6-0.1,0.3C64.2,27,63.5,26.6,62.8,26.1z"/>
		<path class="st47" d="M33,27.8c-0.4,0-1.1,0.1-1.5,0.5c-0.2,0.2-1,0-0.4-0.4c1.2-1.1,8-2.6,8.8-2.1c-0.9,0.4-1.8,0.6-2.8,0.6
			c-1.8,0-1.5,0.5-2.4,0.6C34.2,27.1,33.5,27.4,33,27.8z"/>
		<path d="M39.2,18.5c-0.1,0.6-0.4,1.1-1.1,1c-1.1-0.1-1.9,0.5-2.8,0.9c-0.3,0.1-0.4,0.1-0.4-0.2c1-0.5,1.9-1.1,2.9-1.6
			c0.4-0.2,0.8-0.5,1.3-0.2C39.1,18.4,39.2,18.5,39.2,18.5C39.2,18.5,39.2,18.5,39.2,18.5z"/>
		<path class="st19" d="M61.5,25.3l0.4-0.2c1.7,0.9,3.4,2,5,3.2l-0.1,0.2L61.5,25.3z"/>
		<path d="M61.2,24.4c0.1-0.1-0.1-0.3,0-0.4c0.7-0.2,3,1.7,4.9,2.1c0.3,0,0.2-0.3,0.2-0.5s0.5-0.1,0.7,0s0.3,0.5,0.5,0.5
			s0.2,0.3,0.1,0.5c-1.2,0-0.8,0.2-1,0.3c-0.2,0.1-0.4,0.1-0.6,0c-0.2-0.1,0-0.5-0.1-0.5C65.3,26.4,61.7,24.6,61.2,24.4z"/>
		<path class="st36" d="M67.5,26.7c-0.1-0.1,0-0.4,0-0.5c1.7,0.1,3.5,0.2,5.2,0.5c0,0.1-0.1,0.1-0.1,0.2
			C71,26.9,69.1,26.6,67.5,26.7z"/>
		<path d="M51.9,19.5l0.2-0.2c0.2,0.2,0.4,0.4,0.6,0.1s0.6-0.3,0.8,0.1s-0.2,0.4-0.4,0.5C52.3,20.6,52,20.2,51.9,19.5z"/>
		<path class="st12" d="M33.6,30c-0.1,0-0.3-0.1-0.4-0.1c-0.5-0.1-0.9,0.2-1.2-0.1c-0.1,0-0.1,0,0,0c0.1,0,0.1-0.3,0.1-0.3
			c0.6-0.1,1.1,0.2,1.7,0.2c0.6,0.1,1.2,0.2,1.8,0.4C35.7,30.4,34.3,29.9,33.6,30z"/>
		<path class="st59" d="M49.4,20.6c0.2-0.1-0.2-0.3,0-0.3c0.8-0.1,1.7-0.1,2.5,0.1c0.2,0.1-0.1,0.2,0.1,0.3
			C51.2,20.5,50.3,20.5,49.4,20.6z"/>
		<path class="st32" d="M46.7,24.7c-1.2,0.4-2.4,0.6-3.7,0.6C44.2,24.8,45.4,24.6,46.7,24.7z"/>
		<path class="st26" d="M79.2,26.6c0.2,0.1,0.5,0.1,0.7,0.2c-0.4-0.1-0.8,0-0.8,0.2s0.6,0.4,0.5,0.4C79.4,27.5,77.6,27.1,79.2,26.6z
			"/>
		<path d="M31.4,44.8L31.2,45c-0.8-0.5-1.7-0.9-2.6-1.2c-0.1-0.1,0.1-0.3,0.2-0.3C29.7,43.8,30.6,44.2,31.4,44.8z"/>
		<path d="M2.1,22.7C2.2,24,2.2,25.3,2,26.6c-0.2,0.4-0.2,0.9-0.1,1.3c0.3,1.3,0.2,2.6-0.4,3.8c-0.4,0.9-0.5,1.8-0.4,2.8
			c-0.1,0.3,0.2,0.7-0.3,0.8c-0.1-0.3-0.1-0.6-0.1-0.9c-0.5-0.4-0.6-0.5-0.4-1.2c0.2-0.6,0.3-1.3,0.1-1.9c-0.5-3.5-0.4-7,0.3-10.4
			c0.3-2.1,0.7-4.3,1.2-6.4c0.2-0.7,0.5-2.2,1.3-2c0.2,0.1-0.6,1.1-0.9,2.6c0,0.1-0.5,1.9-0.5,2c-0.6,1.8-0.7,5.2-0.9,5.5
			c-0.1,1.1-0.2,2.1-0.3,3.2c0,0.9-0.2,4.5,0.1,4.8c0.3-1,0.5-2.1,0.5-3.1C1,26.4,1,24.8,0.9,24.6c0-0.7,0-1.3,0.1-2
			c0.3-1.2,0.5-2.4,0.7-3.6c0-0.5,0.1-1.1,0.3-1.6c0.2-0.3,0.5-0.2,0.5,0.1c0,0.5-0.6,2.9-0.8,4.1c-0.4,1.6-0.5,3.2-0.2,4.9
			c0.2-1,0.3-2,0.2-3C1.7,23.2,1.7,22.6,2.1,22.7z M0.7,33.4C1.1,32,1.4,30.5,1.5,29C1.1,30.4,0.8,31.9,0.7,33.4z"/>
		<path d="M238,91.1c-1.5,0.2-3.1-0.2-4.4-1c-0.5-0.3-1.2-0.2-1.7,0.2c-2,1.7-4.1,1.3-6.4,0.6c-0.5-0.5-0.5-0.8-1-1.1
			c-0.3-0.2-1.3-0.2-1.2-0.6c0.1-0.2,0.2-0.1,0.3-0.2c1,0.2,1.8,0.8,2.3,1.7c1.7,0.5,1.7,0.7,4.1,0.1c0.4-0.2,0.8-0.5,1.2-0.8
			c0.4-0.1,0.4-0.5,0.6-0.6s0.6,0.1,0.8,0s0.4-0.3,0.7-0.1c0.1,0.1,0.3,0.3,0.5,0.3s0.2,0.4,0.3,0.4c0.6,0.3,1.2,0.4,1.8,0.5
			c1.2-0.2,2.5-0.2,3.7,0.1c0.3,0.1,2.2,0.8,2,0.5c-0.6-0.8,1.4-0.9,2.8-0.6c0.2,0.1,1,0.1,0.9,0.4s-0.4,0.2-0.6,0.2
			c-0.4,0-0.8-0.1-1.2-0.2c-0.7-0.1-1.4-0.1-1.4,0.6c-0.7,0.3-1.5,0.2-2.1-0.2C239.5,90.9,238.7,90.8,238,91.1z"/>
		<path class="st7" d="M240.1,87.4c-1.2-0.2-2.3-0.7-3.3-1.2c-0.4-0.2-1-0.5-1.8-0.9c0.1-0.1-0.2-0.5-0.1-0.6
			c0.4,0.3,2.6,1.3,2.8,1.5c1.6,0.8,2.3,0.7,4.1,1.5c1.2,0.6,2.2,1.4,3.2,2.3c0.8,0.5,1.7,0.8,2.6,1c1,0.4,2.1,0.8,3.1,1.1
			c-0.7,0.9,1.2,0.9,2.5,1.4l-0.3,0.4c-1.7-0.5-3.6-1.1-3.1-1.8c0.1-0.1-2.8-0.6-3.4-1c-0.3-0.1-0.6-0.3-0.9-0.3
			C244,90.3,242.3,87.9,240.1,87.4z"/>
		<path class="st37" d="M199.2,75.1c2.7,0.3,5.3,0.8,7.8,1.8c0,0.2-0.2,0.1-0.4,0.2c-1.5-0.7-7.7-2-7.8-1.7s5.2,0.9,5.1,1.3
			s-0.9-0.1-1.1-0.1s-2.1-0.4-2.3-0.4s1.5,1,1.5,0.8c0.1,0.1,1,0.6,1,0.6c1,0.6,1.9,1.2,2.9,1.7c2,1.3,3.4,1.6,5.5,2.6
			c0.5,0.3,0.9,0.1,0.9,0.7c-0.1,0.1-0.1,0.1-0.2,0.2c-0.2,0-0.4,0-0.6-0.2c-0.7,0-1.3,0.1-2,0.2c-0.4,0-0.7,0-1.1-0.1
			c-0.1-0.2-0.2-0.2,0-0.4c1,0.1,1.9,0.1,2.9-0.1c-3.7-1.5-7.2-3.3-10.6-5.5c-0.5-0.3-1.1-0.6-1.7-0.9
			C198.7,75.7,198.7,75.3,199.2,75.1z"/>
		<path class="st55" d="M220.3,86.5c-0.8-0.4-1.6-0.8-2.4-1c-0.9-0.4-1.7-0.9-2.6-1.5c-1.2-0.4-2-0.7-3-1.1c-0.1,0-0.1-0.1-0.1-0.2
			l0,0c0.3-0.4,0.9,0.1,1.3,0.2c1.3,0.3,2.4,0.9,3.4,1.7c0.9,0.5,1.9,0.6,2.8,1.2c0.3,0.1,0.6,0.3,0.9,0.4
			C220.6,86.4,220.4,86.4,220.3,86.5z"/>
		<path d="M208.5,82.5c0.1,0.1,0.2,0.3,0,0.4c-0.7,0.2-1.5,0.4-2.2,0.5c-1.2,0.1-1.1,0.5-1.6,0.8c-0.3,0.1-1.5,0.5-1.6,0.2
			c0.2-0.1,0.4-0.3,0.6-0.4c0.8-0.2,0.7-0.4,0.9-0.7c0.9-0.5,1.9-0.8,2.9-0.8C207.6,82.5,208.3,82.2,208.5,82.5z"/>
		<path class="st59" d="M174,71.4c2.7,2.7,5.6,5,8.9,6.9c1.9,1.2,3.8,2.5,5.7,3.8c0.9,0.8,1.9,1.6,3,2.3c0.3,0.1,0.1,0.1-0.2,0.2
			c-0.5-0.4-3.6-2.7-4.1-3c-3.3-2.2-6.8-4.2-9.9-6.7c-1.6-1.3-3.4-2.6-4.5-4.5L174,71.4z"/>
		<path d="M206.8,77.1l0.4-0.2c2.8,0.6,5.6,1.1,8.3,1.8c2.1,0.6,4.4,0.9,6.5,1.4c0,0.2-0.3,0.2-0.4,0.2c-1.1-0.3-1.3-0.1-1.5,0.1
			c-2.4-0.8-4.9-1.4-7.5-1.8c-0.8-0.1-1.6-0.3-2.3-0.6C209.3,77.6,207.7,77.4,206.8,77.1z"/>
		<path class="st60" d="M173.1,70.1c-2.4-0.6-4.8-1.4-7.1-2.3c-0.1-0.4,0-0.1,0.2-0.2c0.8,0.1,1.6,0.4,2.3,0.8
			c1.9,0.8,5.2,1.3,5.4,1.5C173.9,70.2,173.6,70.2,173.1,70.1z"/>
		<path d="M200.5,76.5c-1.5-0.7-3.1-1.2-4.8-1.5c-0.6-0.2-0.3-0.3,0.1-0.5c0,0-0.1-0.1-0.1-0.1s-0.1-0.1-0.2-0.1
			c-0.2-0.7-0.4-0.2-0.7-0.2c-0.2-0.3,0.3-0.6,0.5-0.6c1.1,0.1,1.1,1.2,1.3,1.5c0.3,0.5,1.9,0,2.5,0.2c-0.1,0.5,0.2,0.6,0.5,0.7
			S200.5,75.9,200.5,76.5z"/>
		<path d="M242,85.5c0.1,0.2,0.3,0.4,0.2,0.6c-0.5-0.1-1-0.3-1.4-0.5c-2-0.7-2.6-0.7-4.9-1.5l-2.3-0.6c-0.9,0-1-0.1-0.5-0.4
			c2.4,0.5,5,1.2,7.4,2C240.9,85.2,241.5,85.3,242,85.5z"/>
		<path d="M233.2,83.1c-0.1,0.3-0.2,0.6,0.3,0.7c0.7,0.3,1.3,0.7,1.9,1.2l-0.2,0.2c-0.5-0.1-0.5-0.3-0.9-0.5
			c-0.8-0.4-1.7-0.7-2.6-0.8c-0.2-0.1,0-0.7-0.1-0.9c-0.1-0.4-1.2,0.1-1.2-0.3c0.1-0.2,0-0.4,0.2-0.6
			C231.3,82.6,232.2,83,233.2,83.1z"/>
		<path class="st50" d="M195.7,74.4c0.3,0.1,0.6-0.3,0.6-0.2s2.7,0.8,2.9,0.9c-0.6,0.1-1.2,0.1-1.8,0c-0.1-0.1-0.2-0.2-0.4-0.3
			c-0.1,0-0.4-0.1-0.4,0c-0.6,0.2-2.8-0.7-3.1-0.2c-0.1,0.1-0.8-0.7-1.8-0.6c-0.4,0-0.7-0.1-1-0.3c-0.3-0.2-1.5-0.3-1.6-0.4
			s0.1-0.1,0.3-0.3c0.4,0,0.9,0.1,1.3,0.2c0.4,0.1,0.8,0.2,1.2,0.3c0.3,0.1,0.2,0,0.7,0.1c0.2,0,0.4,0.2,0.6,0.2
			C194,74.1,194.7,74.4,195.7,74.4z"/>
		<path class="st43" d="M191.1,73.5c0.2,0.2,0.6-0.1,0.4,0.5c0.9,0.7,1.9,1.2,3,1.5c0.1,0,0,0.2-0.4,0.1c-0.7-0.2-1.4-0.5-2.1-0.9
			c-0.4-0.2-0.7-0.5-1-0.8c-1.2-0.5-2.6-0.8-3.9-0.9c-0.2,0.2,2.2,0.8,2.8,1c0.4,0.1,0.6,0.1,0.3,0.5c-1.1-0.3-2.2-0.7-3.3-1.1
			c-0.2-0.3-0.1-0.5,0.2-0.6C188.4,73,189.8,73.3,191.1,73.5z"/>
		<path class="st50" d="M219.8,80.4c0.7-0.4,1.2,0.1,2.1,0.3c1.2,0.4,2.4,0.8,3.6,1c0.1,0.1,0.4,0.2,0.4,0.2
			c-0.2,0.3-0.5,0.2-0.8,0.1c-1.1-0.2-2.2-0.5-3.2-0.9c-0.5-0.2-0.8-0.3-1.3-0.4C220.5,80.5,220.3,80.6,219.8,80.4z"/>
		<path class="st3" d="M184,72.5c-1.9-0.7-4-0.7-5.9-1.2c-0.1-0.5,0.1-0.8,0.6-0.6c1.9,0.4,3.7,1,5.6,1.4
			C184.2,72.2,184.2,72.4,184,72.5z"/>
		<path class="st18" d="M221.2,80.2c0,0,0.1-0.2,0.1-0.2c1.2,0.2,2.3,0.4,3.5,0.8c0.6,0.1,5,1.6,5.6,1.6c0,0.2,0,0.1,0,0.3
			c-0.9,0.1-4.3-1.1-4.9-1.3c-0.9-0.2-1.5-0.4-2.6-0.7c-0.4-0.1-0.7-0.2-1.1-0.3C221.6,80.3,221.5,80.4,221.2,80.2z"/>
		<path d="M184,72.5c0-0.2,0.1-0.4,0.3-0.4l2.9,0.8l-0.2,0.6L184,72.5z"/>
		<path class="st60" d="M178.6,70.8c-0.2,0.1-0.4,0.3-0.5,0.5l-2.9-0.6c-0.2-0.2-1.7-0.5-1.6-0.7c0-0.4,2.9,0.6,3.3,0.6
			s0.6,0.3,0.8,0.2C178.1,70.9,178.5,70.5,178.6,70.8z"/>
		<path d="M166.5,67.3c0,0-0.1,0.3-0.2,0.2c-0.4-0.1-0.9-0.3-0.1,0.1c0.1,0-0.3,0.2-0.2,0.2c-0.9-0.4-1.9-0.8-2.9-1.1
			c-0.1-0.2-0.6-0.3-0.1-0.6C164.1,66.5,165.2,67,166.5,67.3z"/>
		<path class="st17" d="M178.7,70.7c-0.2,0.1-0.5,0.1-0.7,0.1c-1.1-0.3-3.7-1.2-5.2-1.6c0-0.4,0.2-0.3,0.4-0.2
			C175.1,69.4,176.9,70,178.7,70.7z"/>
		<path class="st28" d="M183,66.1l5.6-0.1c0.1,0,0.1,0.1,0,0.2c0,0,0,0,0,0l-4.8,0.2C183.6,66.2,183.1,66.7,183,66.1z"/>
		<path class="st26" d="M173.3,69l-0.4,0.2c-0.6-0.1-1.5-0.3-2.1-0.4c-0.1-0.1-0.1-0.2-0.1-0.4C171.5,68.5,172.4,68.7,173.3,69z"/>
		<path class="st3" d="M183,66.1l0.8,0.4c-1,0.2-2.1,0.1-3.1-0.1L183,66.1z"/>
		<path class="st43" d="M188.6,66.3V66l2.3,0.1v0.2C190.1,66.4,189.3,66.4,188.6,66.3z"/>
		<path d="M35,20.2l0.4,0.2c-0.3,0.3-0.7,0.4-1.1,0.7c-1.8,0.7-3.2,1.9-5,2.6c-0.4,0.1-0.7,0.3-1,0.5c-0.6,0.5-0.7,0.4-1,0.6
			c-0.8,0.4-1.5,0.8-2.1,1.4c-0.1-0.6,0.4-0.9,0.8-1.2c2.4-1.5,5.1-2.6,7.5-4.1C34,20.7,34.5,20.5,35,20.2z"/>
		<path d="M28,29.5c-0.1,0.3-1.4-0.1-2-0.3c-0.4-0.1-1-0.6-1.4-0.2c-0.2,0.2-0.4,0.6-0.5,0.1c-0.1-0.3,0.1-0.5,0.3-0.6
			c0,0,0.1,0,0.1,0c0.4-0.1,0.9,0,1.3,0.2C26.6,28.9,27.3,29.2,28,29.5z"/>
		<path d="M27.6,25c0.3-0.2,0.6-0.5,0.9-0.7c0.6,0,1,0,1.1,0.9c-0.1,0,0,0.1-0.1,0c-0.7-1.3-1.3-0.2-2,1.2c0,0.1-0.2,0-0.2,0
			c-0.3-0.4,0-0.7,0.1-1S27.5,25.4,27.6,25z"/>
		<path d="M32.1,29.5c0,0.1,0,0.2,0,0.3c-0.4,0.2-0.8,0.2-1.3,0.1c-0.5-0.1-1-0.2-1.5-0.2c-0.3,0-0.6,0.1-0.7-0.3
			c-0.1-0.1-0.1-0.3,0-0.4c0.3-0.3,0.5,0,0.8,0.1C30.3,29.3,31.2,29.4,32.1,29.5z"/>
		<path d="M220.5,86.3c0.6,0.1,2.1,0.9,1.1,1.3c0.6,0.3,1.7,0.6,2.1,1.3l-0.3,0.3c-0.8-0.2-1.2-0.9-2-1.1c-0.3-0.1-0.5-0.8-0.5-1
			c-0.1-0.6-0.5-0.4-0.8-0.7L220.5,86.3z"/>
		<path class="st29" d="M229.3,88c1,0.3,1.5,1.4,2.5,1.7l-0.6,0.4C230.8,89.2,229.8,88.8,229.3,88L229.3,88z"/>
		<path class="st61" d="M186.6,76.9c2.2,1.3,4.2,2.8,6,4.6C190.6,79.9,188.6,78.5,186.6,76.9z"/>
		<path class="st62" d="M193.4,75.4c0.2,0.2,0.4,0.4,0.6,0.6c0,0.1,0.2,0.2,0.3,0.3c0.8,0.7,1.7,1.4,2.7,2c0.4,0.2,0.7,0.6,0.8,1
			c-1.6-1.1-3.2-2.3-4.7-3.6C193.2,75.5,193.3,75.5,193.4,75.4z"/>
		<path class="st61" d="M186,76.5l-3.4-2.6c1.4,0.5,2.6,1.3,3.6,2.4L186,76.5z"/>
		<path d="M193.5,75.4l-0.3,0.3c-0.9-0.6-2-1-3.1-1.2c0-0.2-0.1-0.3,0.1-0.3C190.7,74.5,193,75,193.5,75.4z"/>
		<path d="M201,81.8c0.5,0,1,0.3,1.2,0.8c0,0-0.1,0.2-0.1,0.2C201.5,82.6,201.3,82.1,201,81.8z"/>
		<path class="st36" d="M227.3,82.5c0.8-0.2,1.8,0.4,2.5,0.7c0.5,0.2,1,0.3,1.6,0.5l0.2,0.4C230.1,83.6,228.7,83.1,227.3,82.5z"/>
		<path class="st29" d="M229.3,88c-1.4-0.8-2.6-2-4-2.8s-2.6-1.8-4-2.7c-0.4-0.2-0.7-0.5-0.8-0.9c1.3,0.9,2.5,1.6,3.6,2.4
			c1.5,1,2.9,2.1,4.3,3.2C228.7,87.3,229,87.6,229.3,88L229.3,88z"/>
		<path class="st38" d="M223.7,87.1c-0.9-0.2-1.5-1-2.3-1.3c-1.6-0.8-2.8-2.1-4.6-2.5c-0.2,0-0.3-0.1-0.3-0.3
			c0.1-0.3,0.4-0.3,0.6-0.1c0.9,0.5,1.9,1,2.7,1.6C221.3,85.1,222.6,86,223.7,87.1L223.7,87.1z"/>
		<path class="st37" d="M203.8,76.8c0-0.6,0.4-0.2,0.5-0.2c1.1,0.3,2.1,0.6,3.1,0.9c0.2,0.2,1.4,0.4,1.4,0.8
			C207.4,78.3,205.3,77.1,203.8,76.8z"/>
		<path class="st38" d="M225.6,88.4c-0.8-0.2-1.4-0.7-1.9-1.3l0,0C224.5,87.3,225.1,87.8,225.6,88.4L225.6,88.4z"/>
		<path class="st29" d="M225.7,82c0.7-0.4,1.2,0,1.8,0.3l-0.3,0.1L225.7,82z"/>
		<path class="st26" d="M225.6,88.4c0.6,0.2,1.1,0.6,1.5,1.2C226.5,89.4,226,89,225.6,88.4L225.6,88.4z"/>
		<path class="st5" d="M82.8,29c-0.2,0-0.5,0-0.6-0.1s0.4-0.1,0.5-0.1s0.8,0,1-0.4c0,0.1,0.1,0.3,0.1,0.4
			C83.5,29.1,83.1,28.8,82.8,29z"/>
		<path class="st5" d="M94,28.4c-0.1,0-0.7,0.1-0.7-0.1s0.3-0.2,0.4-0.2c0.1,0,0.3-0.1,0.4-0.1c0.2-0.1,1.4-0.1,1.7-0.2
			c0,0.1,0.4,0,0.4,0.2C95.6,28.2,94.2,28.2,94,28.4z"/>
		<path class="st5" d="M92.5,29.2c-0.1-0.1-0.8,0.1-0.8,0s0.8-0.2,0.9-0.3s0.3,0.1,0.3-0.2c0.2-0.1,0.3-0.1,0.5-0.1
			c0,0.1,0.1,0.1,0.1,0.3C93.1,29.2,92.8,29.1,92.5,29.2z"/>
		<path d="M33.4,30.1c-0.4,0-0.3,0.3-0.3,0.3s-0.2,0.3,0,0.3s0.2-0.1,0.3,0l0.3,0.1c0.1,0.1,0.1,0.1,0.2,0.2s0.3,0,0.3,0
			s0,0.1,0.1,0.1s0.1,0.1,0.2,0.1s0.1,0,0.3,0.1c0.1,0,0.3,0.1,0.4,0.1c0.1,0,0,0,0.2,0.1c0.1,0,0.2,0.1,0.3,0.1
			c0.1,0,0.2,0.1,0.3,0.1s0.7,0.5,0.8,0.5s0.7,0.1,0.7,0c-0.4-0.3-0.8-0.6-1.2-0.9c-0.2-0.1,0,0-0.2-0.1l-0.2-0.1L35.5,31l-0.8-0.1
			l-0.8-0.5L33.4,30.1z"/>
		<path class="st19" d="M53.5,19.8c-0.3-0.2,0-0.2,0.1-0.3c1.8,1,2,1.4,3.7,2.3c0,0.1-0.2,0.3-0.2,0.4
			C55.7,21.5,54.5,20.7,53.5,19.8z"/>
		<path d="M60.3,22.5c-0.4,0.2-0.8,0.3-1.3,0.4c-0.1-0.2,0.1-0.2-0.5-0.5c-0.3-0.1,0.1,0.5-0.3,0.2s-0.7-0.5-0.4-0.5
			C59,21.9,59.7,22.7,60.3,22.5z"/>
		<path class="st60" d="M168.7,68.3c-2.2-0.9-4.9-1.2-7.1-2.1c-0.1-0.4-0.2-0.3,0.1-0.4c0.8,0.2,1.6,0.4,2.4,0.8
			c1.8,0.9,5.5,1.3,5.3,1.7C169.2,68.3,169,68.3,168.7,68.3z"/>
		<path d="M220.7,87.1c0.6-0.1,0.3-0.1,0.8,0.1c0.2,0,0.1-0.2,0.9,0.1c0,0.1,0.1,0.1,0,0.2c-0.6,0.2-1.2,0.2-1.8,0
			C220.6,87.4,220.7,87.2,220.7,87.1z"/>
		<path d="M63.4,57.3c-0.2,0.3-0.2,0.4-0.5,0.4c-0.2,0-0.4-0.2-0.4-0.4c0,0,0-0.1,0-0.1c0.1-0.3,0.4-0.3,0.6-0.3S63.4,57,63.4,57.3z
			"/>
		<path class="st0" d="M38.4,42.5c1.4,0.9,6.8,6,8.1,7c-0.1,0.1-0.3,0-0.4,0.1c-1.2-1.1-3.1-2.7-4.3-3.8
			C41.9,45.6,38.4,42.5,38.4,42.5z"/>
		<path class="st16" d="M100,68.5c0,0.1,0.1,0.3,0.1,0.4c-0.5,0.4-1,0.5-1.6,0.4c0,0-0.2-0.3-0.1-0.3C99,69,99.5,68.8,100,68.5z"/>
		<path class="st16" d="M92.2,66.2c-0.1,0.1-0.4-0.1-0.4,0c-0.1-0.6-0.3-0.6-0.6-1.4c0.1,0,0.1-0.3,0.2-0.3
			C91.7,65,92,65.6,92.2,66.2z"/>
		<path class="st16" d="M96.9,69.1c0,0.1,0,0.3-0.1,0.4c-0.5,0.1-1-0.1-1.4-0.4c0.1,0,0-0.3,0-0.3C95.9,69,96.4,69.1,96.9,69.1z"/>
		<path class="st23" d="M116.4,74.9c0.7,0.6,1.3,1.4,1.7,2.3C117.8,77.2,116.6,75.8,116.4,74.9L116.4,74.9z"/>
		<path class="st23" d="M116.6,65.4c0.9,0.5,1.6,1.2,2.2,2C118.5,67.6,117,66.4,116.6,65.4L116.6,65.4z"/>
		<path class="st5" d="M192.7,73.7c0.4,0,0.4-0.2,0.3-0.4c-0.4,0-0.9-0.1-1.3-0.2c-0.6-0.1-1.1-0.1-0.8-0.6c-0.6,0-0.6,0.1-0.5,0.5
			s0.5,0.5,0.8,0.5S192.3,73.7,192.7,73.7z"/>
		<path class="st15" d="M213.9,75.3l0.1-0.2c0.1-0.1,0.2-0.2,0.4-0.2c0.6-0.1,0.6-0.5,1.7-0.4c0.1,0.1,0,0.2-0.1,0.2
			c-0.5,0-0.9,0.2-1.3,0.5c-0.2,0-0.5,0-0.4,0.2s0,0.1-0.1,0.1S213.9,75.4,213.9,75.3z"/>
		<path class="st15" d="M66.6,28.4l0.1-0.3c0.3,0.1,0.6,0.3,0.9,0.5c0,0.1,0,0.2,0,0.3c-0.2,0-0.4,0-0.5-0.1
			C66.9,28.7,66.7,28.6,66.6,28.4z"/>
		<path d="M173.6,75.5c-0.1,0.1-0.3,0.1-0.5,0c-0.4-0.5-1-0.6-1.8-1.4c0.1-0.1-0.2-0.2,0-0.3C172.2,74.2,172.9,74.8,173.6,75.5z"/>
		<path class="st5" d="M65.9,25.6c0.1-0.1-0.4-0.3-0.2-0.5s0.5,0.3,0.6,0.3s0,0.2,0.3,0c0.1,0.1,0.2,0.1,0.3,0.2
			c-0.1,0.1-0.1,0.1-0.3,0.3C66.2,26,66.1,25.8,65.9,25.6z"/>
		<path class="st14" d="M91.1,36c-1,0.3-2.1,0.5-3.2,0.6c-3,0.4-6.1,1-9.2,1.5c-0.5,0.1-3.7,1.1-4.1,0.8s0.8-0.5,1.6-0.6
			C77.4,38.1,85.3,36.2,91.1,36z"/>
		<path class="st15" d="M84.4,40.5c-0.1,0.1-0.1,0.3-0.4,0.1c-0.2-0.2-0.4-0.2-0.6-0.2c-0.2,0-0.3,0-0.4-0.1c-0.1,0,0.1-0.1,0.1-0.1
			c0.1-0.1,0.3-0.1,0.5,0c0.3,0.2,0.6,0.3,0.9,0.2C84.6,40.4,84.4,40.4,84.4,40.5z"/>
		<path class="st15" d="M78.4,47.8c0,0.1,0,0.3-0.3,0.2s-0.3-0.2-0.5,0c-0.1,0.1-0.3,0.1-0.4,0c-0.1,0,0-0.1,0-0.2
			c0.1-0.1,0.2-0.2,0.3-0.2c0.3,0,0.5,0.2,0.8,0C78.5,47.7,78.4,47.7,78.4,47.8z"/>
		<path class="st28" d="M191.2,66.1c1.9,0,7.3,0.1,9.2,0.1c0.1,0.1,0.7,0.2,0.6,0.2c-1.5,0.2-8,0-9.6,0
			C191.2,66.4,191,66.1,191.2,66.1z"/>
	</g>
</g>
</svg>
