<svg xmlns="http://www.w3.org/2000/svg" viewBox="0 0 433.52 249.04"><defs><style>.cls-1{fill:#6f6f6e;}.cls-2{fill:#525252;}.cls-3,.cls-6{fill:#9c9c9c;}.cls-4,.cls-5{fill:none;}.cls-4,.cls-5,.cls-6{stroke:#9c9c9c;stroke-linecap:round;stroke-linejoin:round;}.cls-4{stroke-width:0.25px;}.cls-5{stroke-width:0.5px;}.cls-7{fill:#575756;}.cls-8{fill:#555454;}.cls-9{font-size:10px;fill:#181716;font-family:BaskervilleMTPro-Regular, Baskerville MT Pro;}</style></defs><g id="Layer_2" data-name="Layer 2"><g id="_12126F_draft" data-name="12126F_draft"><g id="_12126F_draft-2" data-name="12126F_draft"><path class="cls-1" d="M33.31,47.28l-.25.47.25.44v.25L36,47.86h9.59l3.13.14,1.59.19.91.06.41-.39-1.38-.3-2.56-.06a19.72,19.72,0,0,0-2.78-.22,34.83,34.83,0,0,1-3.6.13l-4.4-.16Z"/><path class="cls-2" d="M33.32,47.29l-.23.47v0l.26.43h0v.25l0,0c.87-.22,1.76-.4,2.64-.61h0c2.12,0,4.24,0,6.36,0l3.18,0c1.06.06,2.12.12,3.18.15h0c.83.09,1.66.2,2.49.23l0,0,.4-.4,0,.13-1.38-.28h0l-2.56,0h0c-.59-.07-1.18-.14-1.78-.19a5.16,5.16,0,0,0-.87,0,4.43,4.43,0,0,1-.9.1c-1.2,0-2.39.08-3.6,0l-3.58-.17Zm0,0,3.6-.09,3.59.08c1.19,0,2.39,0,3.58,0a3.71,3.71,0,0,0,.88-.1,6.85,6.85,0,0,1,.92,0c.6.06,1.2.13,1.79.21h0l2.56.08h0l1.37.31.14,0-.1.09-.41.39,0,0h0c-.41,0-.83,0-1.25-.11l-1.25-.16h0c-1.06-.06-2.12-.11-3.18-.14l-3.18,0c-2.12,0-4.24,0-6.36,0h0c-.89.18-1.78.37-2.67.54h0v-.28L33,47.76h0Z"/><path class="cls-3" d="M33.72,44.31l1.69-.61h0c1-.2,2-.41,3-.51s2-.24,3-.34,2-.15,3-.19,2,0,3,.06h0l2.34-.11h0l2.07,0s.07,0,.08.08V43A.1.1,0,0,1,52,43a16.6,16.6,0,0,1-2.3.9c-.78.27-1.58.47-2.36.71h0c-1.41.29-2.83.56-4.23.89l-4.23.9V45.9l2.16.34h0l2.17.18h0l2,0h0l1.66-.26,0,.37-2.25,0h0c-.89-.09-1.78-.18-2.66-.29h0L40.86,46s0,0,0,0,0,0,0,0l1,.21h0c.9,0,1.79.07,2.69.13h0l2.25-.13a.18.18,0,0,1,.19.17.17.17,0,0,1-.14.19h0l-1.65.32h0l-2,0h0l-2.17-.16h0l-2.17-.33a.26.26,0,0,1,0-.52L43,45.08c1.42-.28,2.85-.49,4.27-.72h0a23.18,23.18,0,0,0,4.66-1.47l0,.07v-.25l.08.07-2.07,0h0L47.54,43h0c-1,0-2,.06-3,.06l-3,.19-3,.26c-1,.05-2,.24-3,.35h0l-1.73.48,0,0A0,0,0,0,1,33.72,44.31Z"/><path class="cls-3" d="M34.44,40.56a37.92,37.92,0,0,1,4.76-.22l2.39.11c.79,0,1.59,0,2.38,0,1.58-.09,3.17-.16,4.76-.18.79,0,1.59,0,2.38,0l.61,0H52a.48.48,0,0,1,.15,0l.06,0s0,0,0,0h0l.13,0,.59.09a1,1,0,0,1,.32.08.29.29,0,0,1,.16.14.19.19,0,0,1,0,.23h0l-.23.15h0l-.4.09s0,0,0,0,0,0,0,0l.39-.16h0l.19-.19v0c.08-.06-.15-.09-.34-.1h-.76l-.11,0-.08,0v0s0,0,0,0h-.81c-.79,0-1.58,0-2.38.06-1.59,0-3.17,0-4.77-.1a28,28,0,0,0-4.76,0,39.91,39.91,0,0,1-4.76-.15s0,0,0,0Z"/><path class="cls-3" d="M40,36.21c-1.11.24-2.23.43-3.35.6h0L36,37l-.37.11a3.12,3.12,0,0,1-.37.06l-1.45.26.09,0-.68.47-.12-.36a63.3,63.3,0,0,0,9-.43c1.51-.11,3-.22,4.52-.28s3,0,4.52-.11h0l.66.14h0a.11.11,0,0,1,.08.07l.12.38h0a.08.08,0,0,1,0,.1l-.35.18h0l-.6,0s0,0,0,0l0,0,.59-.1h0l.34-.23,0,.1L51.69,37l.09.07L51.11,37h0c-1.5.2-3,.27-4.52.34s-3,.15-4.51.21-3,.05-4.52.11c-.76,0-1.51.08-2.26.13s-1.51.12-2.27.14a.2.2,0,0,1-.2-.18.19.19,0,0,1,.08-.16h0c.21-.17.44-.33.66-.49l.07,0h0c.48-.1,1-.2,1.46-.26.13,0,.25,0,.35-.05l.34-.09.71-.2h0c1.13-.11,2.26-.21,3.4-.27,0,0,0,0,0,0S40,36.21,40,36.21Z"/><path class="cls-4" d="M32.94,31l18.5-1h2.21l-3,.73s-1.73.14-7.21,1.1S36.27,33,36.27,33c-.4,0-5.35.08-2.37.42a53.11,53.11,0,0,0,6.69-.17l6.06-.17h3.23a4.29,4.29,0,0,1,1.81.21c1,.33,1.06.19,1.06.54s.56.23-.27.48-.85.36-1.08.36"/><path class="cls-3" d="M36.4,28.7l4.8-.15c1.6,0,3.2-.05,4.8-.19s3.21-.25,4.8-.31,3.18-.12,4.79-.14a0,0,0,0,1,0,0l0,0a40.68,40.68,0,0,1-4.79.59c-1.61.12-3.2.15-4.8.21s-3.2,0-4.81,0l-4.8-.05s0,0,0,0A0,0,0,0,1,36.4,28.7Z"/><path class="cls-3" d="M54.9,27.33c-.22.17-.44.34-.67.5h0l-.52.45-.25.23,0,.05s0-.06,0-.05v.26l-.12-.13h.35c.26.05.53.1.79.17h0l.33,0-.33,0h0l-.8,0h-.32a.11.11,0,0,1-.11-.11v-.2s0-.13,0-.13l.07-.09.27-.24a6,6,0,0,1,.58-.41h0Z"/><path class="cls-3" d="M54.34,23.82c.11.14.26.36.38.36l.63,0c.21,0,.39,0,.59.05l.58.06a.18.18,0,0,1,.13.09v0l.19.41a.17.17,0,0,1,0,.18,1,1,0,0,1-.73.43l-.72,0c-.49,0-1,0-1.45,0-1,0-1.94,0-2.9-.12-1.92-.14-3.85-.08-5.77-.07-3.85.11-7.7.11-11.55-.16,0,0,0,0,0,0l0,0c1.92-.15,3.85-.2,5.78-.23s3.85,0,5.77.07,3.85.26,5.78.21c1,0,1.92-.08,2.87-.08.48,0,1,0,1.44,0h.72c.17,0,.33-.13.48-.27l0,.18-.15-.42.13.1c-.4-.07-.81-.17-1.2-.22l-.56,0c-.29-.09-.31-.31-.43-.47s0,0,0,0,0,0,0,0Z"/><path class="cls-3" d="M33.29,22.79a45.43,45.43,0,0,1,5.33-.45A43.36,43.36,0,0,0,44,22.12a48,48,0,0,1,5.35-.34c1.78,0,3.56,0,5.35.13,0,0,0,0,0,0l0,0c-1.78.19-3.56.29-5.35.33s-3.56.11-5.34.11a45.28,45.28,0,0,0-5.33.35,45.62,45.62,0,0,1-5.36.09s0,0,0,0Z"/><path class="cls-3" d="M53.2,21.62l1.45-.41h0l1.58-.29h0l1.19-.14,1.19-.18a13.94,13.94,0,0,1,2.42,0s0,0,0,0,0,0,0,0a14.12,14.12,0,0,1-2.37.51c-.8.1-1.61.11-2.42.13h0l-1.6.16h0l-1.47.26s0,0,0,0A0,0,0,0,1,53.2,21.62Z"/><path class="cls-3" d="M34,20a39,39,0,0,1,4.82-.41c1.62,0,3.24.1,4.85-.05s3.21-.27,4.82-.36,3.23-.13,4.84,0h0a2,2,0,0,1,.69,0,.26.26,0,0,1,.19.11.25.25,0,0,0,.08.12l.06.07s0,.12,0,.12a.55.55,0,0,1-.15.08s0,0,0,0,0,0,0,0l.12-.08s0,0,0,0l-.06,0a.53.53,0,0,1-.13-.13.13.13,0,0,0-.09,0,2.15,2.15,0,0,0-.6.13h0c-1.6.1-3.21.24-4.82.29s-3.23.08-4.84,0-3.22.15-4.83.26a46,46,0,0,1-4.84,0s0,0,0,0A0,0,0,0,1,34,20Z"/><path class="cls-3" d="M55.07,19l1.07.11h0c1.18-.06,2.37-.09,3.56-.17a13.19,13.19,0,0,1,1.78,0,13.42,13.42,0,0,1,1.78.18s0,0,0,0a0,0,0,0,1,0,0,13.35,13.35,0,0,1-1.78.24,15.08,15.08,0,0,1-1.78,0c-1.19,0-2.37-.05-3.56-.12h0l-1-.22s0,0,0,0S55.06,19,55.07,19Z"/><path class="cls-3" d="M37,16.6c.76,0,1.54,0,2.29,0s1.51.06,2.27.09h0c1.71-.17,3.44-.13,5.15-.25s3.41-.38,5.12-.57,3.45-.36,5.15-.43,3.43,0,5.15,0c0,0,0,0,0,0a0,0,0,0,1,0,0c-1.71.2-3.42.25-5.14.4s-3.42.27-5.13.36-3.44.14-5.15.3-3.41.44-5.12.52h0A45.15,45.15,0,0,1,37,16.65s0,0,0,0A0,0,0,0,1,37,16.6Z"/><path class="cls-3" d="M29.75,14.85c1.14-.12,2.29-.2,3.44-.26s2.29-.05,3.44,0c2.29,0,4.59.12,6.88,0s4.58-.29,6.88-.36,4.59,0,6.88,0h0c1.31.24,2.61.5,3.91.78,0,0,0,0,0,0l0,0c-1.33-.13-2.65-.27-4-.44h0c-2.29.08-4.58.06-6.87.09s-4.59,0-6.89,0-4.58.18-6.88.23c-1.14,0-2.29,0-3.44,0s-2.29,0-3.44,0c0,0,0,0,0,0A0,0,0,0,1,29.75,14.85Z"/><path class="cls-3" d="M33.3,11.89c.72.07,1.43.17,2.14.28h0c1,0,2-.06,2.92-.05s2,.08,2.93.11,2,0,2.92,0,2-.09,2.93-.11h0c1.41-.16,2.82-.3,4.24-.41.7,0,1.42,0,2.13-.08s1.42,0,2.13,0h0l.58-.1s0,0,0,0,0,0,0,0l-.56.18h0c-1.41.19-2.82.31-4.24.45s-2.82.26-4.23.35h0c-1,0-2-.07-2.93-.11s-2,0-2.92,0-1.95.12-2.93.12-1.95,0-2.92-.05h0c-.7-.16-1.4-.34-2.09-.55,0,0,0,0,0,0Z"/><path class="cls-3" d="M64.31,12.36c-1.17,0-2.33-.1-3.49-.18s-2.33-.15-3.49-.27-2.31-.35-3.47-.47a29.14,29.14,0,0,0-3.49-.18c-2.33,0-4.66-.09-7-.2s-4.66-.27-7-.51l0,0,0,0c2.34-.07,4.67,0,7,.05s4.66.24,7,.44,4.64.39,7,.51a56.48,56.48,0,0,1,6.95.81s0,0,0,0Z"/><polyline class="cls-5" points="36.27 10.52 34.4 10.63 32.59 10.52 31.17 10.42 30.45 10.93 29.9 11.14 29.54 10.52 29.47 10.2 29.42 10"/><path class="cls-3" d="M60.65,12.15l2.21.39,1.08.42a2,2,0,0,0,.37-.46l.27-.56H62.19l-5.85-.51-.66,0-3.78-.24-13.63-.63-2.6-.17-3.17-.2-1.1-.28-.88-.06h-.64l-.27.06c-.19.13-.17.23-.17.23l0,.1"/><path class="cls-3" d="M60.65,12.12l2.23.3h0l1.09.38-.16,0a1.73,1.73,0,0,0,.33-.42l.25-.56.17.26-2.39,0h0c-1.24-.09-2.47-.21-3.7-.35s-2.46-.3-3.7-.38c-2.47-.23-5-.24-7.43-.31s-5-.14-7.43-.25-4.95-.34-7.42-.56h0l-1.1-.3h0l-.88-.1h0l-.64,0h0l-.27.06h0a.37.37,0,0,0-.13.12s0,.09,0,.17a0,0,0,0,1,0,0s0,0,0,0a.28.28,0,0,1,0-.22.5.5,0,0,1,.14-.15h0l.26-.07h0l.64,0h0l.89,0h0l1.11.24h0l7.43.35c2.47.11,5,.25,7.42.42s5,.36,7.42.47,5,.25,7.43.49h0l2.39,0h0a.18.18,0,0,1,.18.19.25.25,0,0,1,0,.08l-.28.54a1.67,1.67,0,0,1-.43.51.15.15,0,0,1-.16,0l-1.07-.44h0l-2.19-.49s0,0,0,0Z"/><polyline class="cls-6" points="29.52 10.4 29.94 11 30.52 10.17"/><path class="cls-3" d="M9.35,55.28l.4-.19h0l1.8.52h0l2.93.3h0l3.08,0c1,0,2.05-.08,3.09-.12l1.55,0c.56,0,1,0,1.55,0l3.08.09h0l6,.63c2,.19,4,.34,6,.5h0l5.67,0,2.83,0c.94,0,1.89-.1,2.83-.13,3.77.21,7.57-.2,11.33,0,3.78-.05,7.56-.21,11.34-.21l5.67-.06,5.67-.11a0,0,0,0,1,0,0s0,0,0,0l-5.66.33-5.67.2c-3.78.13-7.55.26-11.34.33-3.77-.23-7.57.16-11.33-.17l-2.83.06-2.84,0-5.67,0h0c-2-.14-4-.28-6-.39s-4-.29-6-.48h0l-3.09-.06c-.5,0-1.07-.07-1.54-.07l-1.54,0c-1,0-2.06.11-3.09.08l-3.09-.05h0l-2.91-.42h0l-1.78-.61h0l-.41.17h0S9.33,55.29,9.35,55.28Z"/><path class="cls-1" d="M67.88,8.62l-1,.25-1.1,1-1,1.75-1.25,2.69-.78,1.53v.5h-.16l-.15.38L62,18.06l-.19,1.16s-.37-.22-.37,0-.38,1.84-.38,1.84l-.31.38v.9L58,29.94l-1.75,4.5-.43.93V36l-.26.72-.43.75-1.81,3.78-.75,1.09-.44,1-.31.6v.37s-.32-.09-.35.22a8.61,8.61,0,0,0,0,.91l-.78,1.12s.13-.12,0,.19a.75.75,0,0,0,0,.56l-.44.88-.87,1.59v1l-.19.19-.16,1.72L49.31,54l.91,1.25,1.22,1,1.5.88h2.5l.15-.35,1.63-.56,1.56-.78.82-1,.62-1.28.22-.94-.13-.78L59.88,51l-.44-.25-1,.09-.47.47-.69.91.82.06.34-.44.31-.31.41-.06.28.56v.47l-.09.84-.53.82-.66.93-.72.66-.28.06-.75-.09-.25.28-1.28,0-1.25-.19v-.59l.34-.5.35-.19-.07-.25-.53.16-.47.41-.75.28-1-1.22-.43-1.5,0-2.22.34-1.88.37-.53.07-1.12.72-1.44L53,43.69l2.06-4,1.72-3.88,1.5-4.09,2.41-6.09,1.69-5.29,1.84-5,1.59-3.81.75-.84.38-.07.34-.18.28-.63,0-.37Z"/><path class="cls-2" d="M67.87,8.63l-1,.26h0l-1.09,1h0l-1,1.76h0l-1,2.13c-.32.72-.7,1.4-1,2.1v.54h-.23l.06,0-.15.37h0l-.37,1.34h0l-.18,1.16,0,.11-.09-.06a.62.62,0,0,0-.24-.08s0,0,0,0l0,.14-.12.57-.23,1.16v0h0l-.32.38,0,0v.92h0L58.5,28.94c-.37,1.09-.81,2.17-1.23,3.26s-.8,2.18-1.33,3.22v.63h0l-.25.72h0l-.44.75h0l-1.83,3.78h0l-.76,1.09h0c-.24.53-.47,1.06-.75,1.56v.44l-.1,0c-.08,0-.18,0-.21,0s0,.2,0,.31v.71l0,0-.78,1.12-.11-.09s0,0,.12,0,0,.11.05.13l0,.11a.89.89,0,0,0-.06.2.59.59,0,0,0,0,.37l0,0,0,0c-.4.84-.87,1.65-1.32,2.47v1l0,0-.19.19,0,0-.16,1.72h0L49.36,54v0l.91,1.26h0l1.21,1h0l1.5.87h2.48l0,0,.15-.35h0l1.62-.57h0l1.56-.79h0l.81-1h0l.63-1.28h0l.22-.93v0l-.13-.78,0,0-.44-.46h0l-.43-.25h0l-1,.09,0,0-.47.47h0l-.68.91-.06-.13.81.06-.07,0,.35-.44h0l.31-.32,0,0h0l.41-.06h.06l0,.05.29.56v.51h0l-.09.84v0h0c-.38.6-.77,1.18-1.18,1.76h0l-.71.65,0,0h0l-.28.06h0l-.75-.09.09,0-.25.28,0,0h-.05l-1.28,0h0L53.64,56l-.09,0v-.72l0,0,.34-.5v0h0l.34-.19,0,.13-.07-.25.14.08-.53.16,0,0-.47.4,0,0h0l-.75.28-.07,0-.06-.06-1-1.22v0L51,52.5h0v0l0-2.22h0l.34-1.88v0l.38-.53,0,.06.06-1.13v0l.72-1.44v0l.37-1.59h0v0l2-3.84,1.76-3.95,1.5-4.06,1.6-4,.81-2c.23-.68.44-1.37.67-2,.46-1.37.86-2.76,1.37-4.11l1.51-4.07,1.68-4h0l.76-.84h0l.37-.06h0l.34-.19h0l.29-.63h0l0-.37h0Zm0,0-.37.82h0l0,.37h0l-.28.63h0l-.34.18h0l-.37.06h0l-.75.85h0l-1.65,4-1.47,4.07c-.5,1.35-.89,2.75-1.33,4.12-.23.69-.43,1.38-.66,2.07l-.79,2-1.57,4-1.49,4.07-1.77,4-2,3.84v0l-.38,1.6h0L52,46.77v0l-.06,1.12v0l0,0-.37.53v0l-.34,1.87v0l0,2.22v0l.43,1.5,0,0,1,1.22-.13,0,.75-.28,0,0,.47-.41h0l.53-.16.11,0,0,.12.07.25,0,.08-.08,0-.34.19,0,0-.34.49,0-.06v.59l-.1-.11,1.25.19h0l1.28,0-.08,0,.25-.28,0,0h.05l.75.09h0l.28-.06-.05,0,.72-.66v0c.41-.57.81-1.15,1.19-1.74v0l.09-.84h0V52.1l-.28-.56.09,0-.4.06,0,0-.31.31h0l-.34.44,0,0h0l-.81-.06-.14,0,.08-.11.69-.9h0l.47-.47h0l1-.09h0l.44.25h0l.43.47h0v0l.12.78h0v0l-.22.93h0l-.63,1.27h0l-.81,1h0l-1.57.78h0l-1.63.56,0,0-.16.35v0H52.92l-1.5-.87h0l-1.22-1h0l-.91-1.25h0L49,52.67h0l.15-1.72v0h0l.19-.19,0,0v-1h0v0c.44-.82.9-1.63,1.3-2.47v.06a.8.8,0,0,1,0-.67.37.37,0,0,0,0-.09s0,0,0,0,0,0,0,0l-.11-.09.78-1.13v-.65a.7.7,0,0,1,0-.37.34.34,0,0,1,.4-.13l-.1.07V43.9c.27-.5.5-1,.74-1.56h0l.74-1.1h0l1.8-3.78h0l.44-.75v0l.25-.72v-.67c.52-1,.88-2.14,1.32-3.22s.86-2.15,1.24-3.25l2.36-6.55v-.9l0,0L61,21v0l.23-1.13.12-.57c0-.05,0-.08,0-.15s.11-.16.17-.14a.71.71,0,0,1,.31.1l-.11.06.19-1.16h0l.38-1.34h0l.16-.37,0,0h.2l-.07.06v-.5h0v0c.35-.69.73-1.38,1-2.09l1-2.11h0l1-1.74h0l1.1-1h0Z"/><path class="cls-1" d="M29.13,5.72l-.53.59s-.13.85-.16,1,.09,1,0,1.09a9.19,9.19,0,0,0,0,1.57l.2,1.12.13,1.28.15.94h.65l.6.19.19,1.28.25,1.53s.18,1.22.18,1.44.28,1.56.28,1.56V20l.22,2,.28,8a.42.42,0,0,1,.16.44,16.58,16.58,0,0,0,0,2.15v3.69L32.22,41l.66,2.69.5,3.25.18.28.16.75a17.58,17.58,0,0,0,0,1.78,17.59,17.59,0,0,1,0,1.78L33,53l-.31.63-.63.15-.5.47s-.45.22-.46.41a1.1,1.1,0,0,1-.54.62c-.15,0-1.15,0-1.15,0l-.22-.37L29,54.41l-.25-.54a4.68,4.68,0,0,1-.35-.62l-.15-.47.41-.06.28-.19-.16-.59-.53-.75-.56-.44L28.1,50l.28-.41s.43,0,.43.07a4.75,4.75,0,0,0,.22.62s.19.25.35.28l.43.1.66-.07a1.92,1.92,0,0,0,.06-.68,6.34,6.34,0,0,1-.18-.63l-.6-.28-1.22-.12-.84.18-.44.38-.22.44s-.25.59-.28.71a2.05,2.05,0,0,0,0,.44l-.65,0-.47.41.56.28s.25.09.28.19.34,1.15.34,1.15l.5,1.54.6.84.56.69,1.22.28H31s.91-.38,1-.41,1.19-.75,1.19-.75l.63-.5V54s.4-.69.43-.78.35-1.34.35-1.34L35,49.84l.41-2.12-.72-.28-.16,0-.12-1.19-.28-1.41-.6-2.09-.34-1.94L32.85,37l-.16-4.09,0-1.1L32.38,19.5a2.56,2.56,0,0,1-.19-.53c0-.13-.16-1.69-.16-1.69l-.15-1.94-.38-1.56L31,12.31l-.06-.78-.42-.47-.64-1.25-.1-2.25,0-1.84Z"/><path class="cls-2" d="M29.13,5.73l-.52.59h0l-.14.91c0,.29,0,.6,0,.9a.65.65,0,0,1,0,.24.49.49,0,0,0,0,.21c0,.15,0,.3,0,.45l.05.91h0c.09.56.21,1.11.26,1.67s.14,1.12.23,1.67l-.06,0h.67l.6.19h0v0c.14,1,.3,1.94.46,2.9l.2,1.47.26,1.43h0V20h0l.22,2h0l.3,8,0-.09a.53.53,0,0,1,.22.44.35.35,0,0,1,0,.13.56.56,0,0,0,0,.07v.19c0,.25,0,.52,0,.78,0,.53.06,1.06.05,1.59v3.17h0L32.31,41h0L33,43.64h0l.5,3.26,0,0,.19.28h0l.16.75h0l0,.89c0,.28,0,.62,0,.85a4.23,4.23,0,0,1,0,.93l0,.89h0L32.7,53.68v0h0l-.63.16h0l-.5.46h0c-.17.1-.41.21-.44.4a1.18,1.18,0,0,1-.41.54.42.42,0,0,1-.16.09H29.35v0L29.12,55h0L29,54.42h0l-.26-.53h0l-.31-.54a3.49,3.49,0,0,1-.2-.57l0,0h.06l.4-.07h0l.28-.19,0,0L28.74,52h0l-.53-.74h0l-.56-.44,0,0,0,0,.41-.72h0l.28-.41,0,0h.31a.53.53,0,0,1,.16,0c.09.11,0,.1.07.16a5.55,5.55,0,0,0,.2.52h0a.76.76,0,0,0,.31.26l.44.09h0l.65-.07-.05,0a2.38,2.38,0,0,0,.07-.63l-.2-.65,0,0-.6-.28h0L28.53,49h0l-.85.19h0l-.44.37,0,0a5.89,5.89,0,0,0-.35.77l-.15.38a2.71,2.71,0,0,0,0,.4v.09h-.08l-.66,0,0,0-.47.41,0-.13.57.28h0c.11.06.29.09.35.29l.11.38.23.76.49,1.5v0l.6.84h0l.57.68-.06,0,1.22.28H31l.59-.24a5.34,5.34,0,0,0,.56-.23c.35-.21.7-.45,1-.68h0l.63-.5-.05.09V54l0,0,.27-.48a1.36,1.36,0,0,0,.22-.51l.28-1.1h0c.23-1.4.48-2.8.75-4.19l.08.13-.72-.28h0l-.16,0-.08,0v-.08l-.13-1.19h0L34,44.84h0l-.59-2.09h0l-.35-1.94h0c-.14-1.77-.38-3.53-.41-5.31l-.09-2.67c0-.89,0-1.77,0-2.66L32.3,19.5v0a2.56,2.56,0,0,1-.19-.51l0-.53-.09-1-.16-2.09h0l-.37-1.57h0L31,12.33h0l-.06-.79v0l-.42-.47h0l-.63-1.25h0l-.07-2c0-.69,0-1.37,0-2h-.67Zm0,0h.71v0c0,.68,0,1.36,0,2.05l.09,2h0L30.55,11h0l.42.46h0v0l.07.78h0l.51,1.46h0l.38,1.56h0l.18,2.09.11,1.05.05.52a3.36,3.36,0,0,0,.17.47h0v0l.34,10.65c0,.89.07,1.77,0,2.66l.09,2.66c0,1.77.26,3.53.4,5.3h0l.34,1.94h0l.59,2.09h0l.28,1.41h0l.12,1.18-.09-.1.15,0h0l.72.28.09,0,0,.09c-.27,1.39-.53,2.78-.75,4.18h0l-.29,1.12a1.53,1.53,0,0,1-.22.53l-.29.51L34,54v.84l0,0-.63.5h0c-.36.23-.7.46-1.07.68a4.06,4.06,0,0,1-.6.25l-.58.23H29.66l-1.21-.28h0l0,0-.56-.69h0l-.59-.85h0l-.48-1.51-.23-.76L26.4,52c0-.08-.13-.13-.24-.18h0l-.56-.29-.11,0,.09-.08L26,51l0,0h0l.66,0-.08.09a2.25,2.25,0,0,1,0-.45l.16-.4a6.19,6.19,0,0,1,.36-.78v0h0l.44-.37h0l.85-.18h0l1.22.13h0l.59.28,0,0v0l.19.64a1.07,1.07,0,0,1,0,.36l-.06.34v0h0l-.66.07h0l-.44-.09a.8.8,0,0,1-.37-.3h0c-.07-.17-.14-.34-.2-.53,0,0,0-.15,0-.1l-.11,0h-.27l0,0-.28.4h0l-.41.71v-.06l.56.44h0l.53.75h0l.15.59v0l0,0-.28.19h0l-.4.06,0,0a3.38,3.38,0,0,0,.2.56l.3.52h0l.25.53h0l.16.54h0l.22.37,0,0h1a.32.32,0,0,0,.29-.07,1.19,1.19,0,0,0,.38-.49c0-.27.3-.36.48-.47h0l.5-.47h0l.63-.16,0,0,1.06-2.15v0l0-.89a7.84,7.84,0,0,0,0-.86,4.86,4.86,0,0,1,0-.92l0-.9v0l-.16-.75v0l-.19-.28h0l-.51-3.25h0L32.14,41h0l-.49-4.66h0V33.14c0-.53,0-1-.05-1.58,0-.27,0-.53,0-.8v-.21a.7.7,0,0,1,0-.12s0,0,0-.07a.33.33,0,0,0-.13-.24l0,0v0l-.26-8h0L31,20h0V19.3c-.18-1-.34-1.95-.44-2.91s-.31-1.94-.45-2.91l.05,0-.59-.19h-.69v-.05c-.09-.56-.18-1.11-.22-1.68s-.15-1.11-.24-1.67h0l0-.91c0-.16,0-.31,0-.46a.59.59,0,0,1,.05-.23.75.75,0,0,0,0-.22,6.89,6.89,0,0,1,0-.91l.15-.9h0Z"/><path class="cls-3" d="M3.51,56.07l3.21,1h0l2,.4h0l3.12,0h0L14.15,57h0c1.32,0,2.64-.05,4,0l3.94.24c2.62.23,5.25.2,7.88.25,5.26.09,10.52,0,15.79,0s10.52-.1,15.78-.11l7.89,0,7.89.08h0a19.66,19.66,0,0,0,4.2,0L85.75,57v0l-4.2.65a19,19,0,0,1-4.27.05h0l-7.89.08-7.89,0q-7.89,0-15.78-.12c-5.27,0-10.53-.11-15.79,0-2.63,0-5.27.16-7.89-.07l-3.94-.24c-1.31-.08-2.63,0-3.94-.06h0l-2.44.42h0l-3.12,0h0l-1.93-.48h0L3.49,56.11Z"/><path class="cls-3" d="M0,58.72c2.24-.17,4.47-.42,6.71-.53l6.74,0c4.49,0,9,.19,13.46.36l13.44.59c4.49.22,9,.29,13.45.45,2.24.12,4.49,0,6.73-.08l6.72-.2,13.46-.38,3.37-.09c1.12,0,2.24.05,3.36.08l6.73.24c2.24.11,4.48.12,6.73.14l6.73.09h0l.75-.05v.05l-.75.07h0l-6.73.09c-2.25,0-4.49,0-6.73,0l-6.73-.13c-1.12,0-2.24-.08-3.36-.06l-3.36.1c-4.48.16-9,.24-13.46.32l-6.73.11c-2.24,0-4.49.13-6.73,0-9-.41-17.94-.67-26.91-.93-2.24-.07-4.48-.1-6.72-.2s-4.48-.22-6.72-.2l-6.73,0c-2.24.08-4.48.22-6.72.33Z"/><path class="cls-3" d="M13.81,57.71c1.79-.05,3.58-.17,5.37-.11l5.35.21c1.79.09,3.57.21,5.35.34s3.57.08,5.36.08c3.57,0,7.14-.27,10.7-.44s7.15,0,10.73,0h0l4.36.8h0c1.18.11,2.35.26,3.53.39v.05C63.39,59,62.21,59,61,58.88h0l-4.39-.65h0c-3.57.08-7.14.06-10.71,0l-5.36.16c-1.79.08-3.58-.05-5.36,0s-3.58,0-5.36,0-3.57-.09-5.36-.17L19.17,58c-.89-.08-1.79-.08-2.68-.1l-2.68-.1Z"/><path class="cls-3" d="M21.44,59.71c1.88-.1,3.76-.16,5.64-.2s3.76-.06,5.64-.08,3.76,0,5.64.17L44,60h0c3.45,0,6.9-.23,10.35-.27s6.9-.12,10.35-.16,6.9,0,10.35.15l10.35.39v.07c-1.73.07-3.45.15-5.18.19l-5.18,0-10.34,0c-3.45,0-6.9-.06-10.35-.15s-6.9-.07-10.34.1h0l-5.63-.09c-.94,0-1.88-.06-2.82-.08s-1.87,0-2.81,0c-1.88,0-3.76,0-5.63-.08s-3.76-.1-5.64-.2Z"/><path class="cls-3" d="M3.81,61.22l5.35-.33c1.78-.14,3.56-.07,5.34-.08,3.57,0,7.14,0,10.7.07l10.7.2c1.78,0,3.57.08,5.35.08l5.35,0L57.3,61l10.7.33,10.69.42c3.56.12,7.12.09,10.69.15h0l5.7-.45v0l-5.68.65h0c-3.57,0-7.15.11-10.71.06L68,61.9l-10.69-.44L46.6,61.37c-7.13-.08-14.27-.07-21.4-.07-3.56,0-7.13-.1-10.69-.16s-7.13.08-10.69.13Z"/><path class="cls-7" d="M58,13.78l.72.28.66.38h1.09v-.66l.16-.66H61s.25.69.17.85-.4,3.62-.4,3.62l-.46,5.22s-.35,1.64-.43,1.85-1.14,3.92-1.26,4.19a14.55,14.55,0,0,1-.94,1.27s-.59.32-.59.47a5.56,5.56,0,0,1-.25,1.1c-.13.34-.29,2.15-.71,2.4s-.58,1.47-.58,1.47v.38s-.46.15-.53.34a3.26,3.26,0,0,1-.16.5.46.46,0,0,0,0,.59c.19.28.07.5.16.6a17.67,17.67,0,0,1-1.25,2.34c0,.08-.52-.06-.6-.12s-.18-.25-.4-.5a2.86,2.86,0,0,1-.37-.82,2.83,2.83,0,0,0,0-.53,3.94,3.94,0,0,0-.5-.87V37l.28-.43a.73.73,0,0,0,0-.34,4.64,4.64,0,0,0,.56-.69c0-.09-.09-.83-.09-.83a3.43,3.43,0,0,0,.22-.54,5.52,5.52,0,0,0,.06-.85l.78-1,.33-1.58.56-1.44-.23-.43.46-.76.69-.43.29-1.85L56,24.75l.55-.92.36-1.17.5-1,.06-1.87.28-1.59-.15-1.93V15Z"/><path class="cls-8" d="M58,13.75l.76.24h0l.67.35h0l1.09-.05-.15.16,0-.66h0v0l.13-.66,0-.15h.72l.05.14a6.36,6.36,0,0,1,.19.62,1.11,1.11,0,0,1,0,.19.31.31,0,0,1,0,.13c0,.1,0,.1,0,.09l0,.26-.11,1.21L61.08,18c-.13,1.62-.24,3.24-.41,4.86v0h0c-.16.65-.3,1.31-.47,1.95l-.62,1.87L59,28.57a2,2,0,0,1-.19.47c-.1.15-.2.28-.3.41l-.63.77v0h0a2.32,2.32,0,0,0-.31.19,1.61,1.61,0,0,0-.21.16,5,5,0,0,1-.16.75c0,.13-.07.25-.11.37a3,3,0,0,0-.09.35l-.14.75a7.22,7.22,0,0,1-.18.74,2.92,2.92,0,0,1-.14.38,1.88,1.88,0,0,1-.12.18l-.15.12a2.78,2.78,0,0,0-.45,1.34V36l-.09,0a1.23,1.23,0,0,0-.36.19c-.06.05-.07.05-.08.1l-.05.22A3.21,3.21,0,0,1,55,37a.27.27,0,0,0,.07.27,1,1,0,0,1,.16.52.15.15,0,0,0,0,.06s0,0,0,0a.32.32,0,0,1,0,.23,2.07,2.07,0,0,1-.09.24c-.14.29-.28.56-.42.83l-.43.8-.22.4,0,0v0s0,0-.06.08a.36.36,0,0,1-.23.1h-.09l-.27,0-.26-.09a.59.59,0,0,1-.27-.24,3.1,3.1,0,0,0-.27-.34,2.53,2.53,0,0,1-.45-.92v-.57l-.06-.12a7.07,7.07,0,0,0-.4-.61l-.06-.08v-.72l.06-.09.23-.36c.07-.11,0,0,0,0a.65.65,0,0,0,0-.14l0-.15L52,36l.28-.31.13-.16.07-.1a.22.22,0,0,0,0,.12v-.18l0-.2,0-.41v-.06l0-.15a4.12,4.12,0,0,0,.19-.56,4.72,4.72,0,0,0,0-.66v-.13l.09-.1.77-1-.08.16.32-1.58v0l0,0,.57-1.43v.33L54.1,29l-.11-.2.12-.19.46-.76,0-.07.07-.05.7-.44-.17.27.46-2.9v-.08l0-.05.56-.91,0,.08.38-1.18v0h0l.51-1,0,.13.11-1.87v0h0l.33-1.59v.05l-.09-1.93h0L57.54,15v0h0Zm0,.06-.31,1.26v0l.05,1.22h0L58,18.17v0l-.24,1.6v0l0,1.87v.05l0,.07-.48,1,0-.05-.33,1.18v0l0,.05-.53.92,0-.13c-.11,1-.26,1.94-.41,2.91l0,.17-.15.1-.7.44.13-.13-.46.76v-.38l.23.43.09.15-.07.17-.56,1.44,0-.06-.32,1.58,0,.09-.06.08-.79,1,.08-.24a6.93,6.93,0,0,1-.05.77,1.64,1.64,0,0,1-.13.41l-.16.38,0-.22.05.45,0,.23v.2a.43.43,0,0,1,0,.17,2.36,2.36,0,0,1-.32.43l-.31.33.1-.29a1.41,1.41,0,0,1,0,.29.71.71,0,0,1-.14.36l-.24.35.06-.18v.51l-.06-.19a6.66,6.66,0,0,1,.42.69,1.22,1.22,0,0,1,.1.23.94.94,0,0,1,0,.27v.32a2,2,0,0,0,.31.71l.28.39,0,.07a.67.67,0,0,0,.17.06l.18,0h0s0,0-.12.06l0,0,0,0,0,0,.24-.39.47-.77c.15-.26.31-.52.44-.78a1.22,1.22,0,0,0,.08-.17s0,.07.05.12a.29.29,0,0,1-.06-.11.43.43,0,0,1,0-.17.59.59,0,0,0-.08-.34.64.64,0,0,1-.1-.58,2.77,2.77,0,0,0,.19-.41l.07-.22A.41.41,0,0,1,55.1,36a1.7,1.7,0,0,1,.45-.22l-.1.14v-.38h0A3,3,0,0,1,56,34.06c.38-.25.43-.82.55-1.29l.12-.74a3.1,3.1,0,0,1,.09-.39,3.57,3.57,0,0,0,.1-.35,4.58,4.58,0,0,0,.13-.74c.11-.24.22-.25.33-.35l.33-.21,0,0c.2-.25.39-.52.58-.78l.26-.4a2.28,2.28,0,0,0,.14-.44l.51-1.9.52-1.89L60,22.75v0c.12-1.62.3-3.24.46-4.85.08-.81.16-1.62.26-2.43l.17-1.22a3.46,3.46,0,0,1,.07-.34s0-.1,0-.06h0s0-.08,0-.12a3.7,3.7,0,0,0-.14-.55l.19.13h-.41l.19-.15-.17.65v0l0,.66v.16h-.15l-1.09,0h0l0,0-.64-.4h0Z"/><path class="cls-7" d="M35,10.52l-.59.63-.25.79v1.72l-.46.62-.29.46.25.73a7.5,7.5,0,0,1,0,1.22c-.06.5-.39,2.06-.4,2.18s-.23.78-.35.77-.75-.21-.81,0,.34,9.92.34,9.92,0,.81,0,.91.35.9.35.9a2.28,2.28,0,0,0,.44.57c.18.09.81.23.84.36s1.28,2.2,1.28,2.2l1,1.47.76,1-.2.35.89.42h.62l.28-.77-.59-1.24-1-1.35-.63-2.07-.26-.93-.36-1a22.18,22.18,0,0,1-.5-2.65,16.2,16.2,0,0,0,.31-1.94l.34-2.31.21-2.53.39-1.71.81-2.07s.31-1.41.41-1.6.56-2.09.56-2.09l.31-1.14-.22-.64-.34.06-.5,1.37-.31,1.32-.1,1.12L36.75,17s-.59,1.26-.65,1.45a4.51,4.51,0,0,0-.47,1.23c0,.32-.19,2.61-.19,2.61l-.19,2.41-.25.71.06,2.22.35,2.35.25,1.15.28.32.12.89.21.48.42,1.44.69,1.09.15.44-.57,0v-.25l-.33-.28L36,34.37l-.75-1.65a11.12,11.12,0,0,1-.59-1.31,5.13,5.13,0,0,0-.22-.79L34,29.34l-.45-1.4-.24-3.82.4-3.28.53-.8L34,18.66l.46-2.29L35,14.44l.1-1.07.31-.41V11.39Z"/><path class="cls-8" d="M35,10.55l-.56.62h0l-.24.79h0l0,1.72,0,0c-.25.36-.51.72-.72,1.09v-.08l.26.72v0a6.47,6.47,0,0,1,0,1.08c0,.36-.12.7-.17,1.05l-.18,1,0,.26a1.54,1.54,0,0,1-.07.29,1.66,1.66,0,0,1-.27.53.2.2,0,0,1-.17.07h-.08l-.13,0-.25,0h-.19v.09l0,1L32.38,23l.19,4.24.1,2.12,0,1a8.74,8.74,0,0,0,.34,1v0c.16.24.29.51.49.54L34,32a.89.89,0,0,1,.26.13.32.32,0,0,1,.1.12c0,.1,0,0,0,.06l0,.08c.28.52.59,1,.9,1.55s.63,1,1,1.51.7,1,1.06,1.45a.19.19,0,0,1,0,.19l-.2.36L37,37.15l.89.43-.07,0h.62l-.15.11.28-.77V37L38,35.78l0,0-1-1.35,0-.05c-.29-1-.59-2-.86-3h0l-.35-1h0c-.17-.78-.34-1.56-.46-2.35a.94.94,0,0,1,0-.35,1,1,0,0,0,.08-.26l.1-.59.16-1.18c.11-.79.24-1.57.33-2.36l.18-2.38v0l.38-1.71h0l.81-2.08v0l.28-1.22c.12-.42.25-.83.34-1.22l.63-2.4v.09l-.22-.64.18.11-.34.06.12-.1-.48,1.37h0l-.3,1.31v0l-.08,1.13a.43.43,0,0,1,0,.05L37,17h0l-.81,1.81a2.44,2.44,0,0,0-.28.84l-.07,1-.28,4a.14.14,0,0,1,0,.07l-.24.72v-.09l.07,2.22v0l.26,1.75c.07.58.22,1.15.34,1.73l-.07-.12.28.31a.27.27,0,0,1,.07.14l.12.9,0-.07.21.48v0l.42,1.44,0-.07.68,1.09,0,.06.15.43a.26.26,0,0,1-.15.33l-.07,0L37,36a.26.26,0,0,1-.27-.24v-.27l.1.2-.34-.29,0,0-.62-.88,0,0-.71-1.57a6.8,6.8,0,0,1-.67-1.63c-.14-.53-.36-1.08-.54-1.63s-.35-1.1-.52-1.65a.07.07,0,0,1,0-.05l-.21-3.81v0l.43-3.28a.14.14,0,0,1,0-.06l.54-.8,0,.11-.23-1.39s0,0,0-.05l.48-2.28h0l.59-1.93v0L35,13.37l0,0,.32-.41,0,0,0-1.57h0Zm0-.05.4.87v0l0,1.57a.06.06,0,0,1,0,0l-.31.42,0,0-.08,1.06v0l-.54,1.95h0l-.44,2.28v-.05L34.37,20a.19.19,0,0,1,0,.1l-.52.81,0-.07-.37,3.29v0l.27,3.81v-.05c.18.55.35,1.1.54,1.64s.41,1.06.58,1.65a6.49,6.49,0,0,0,.66,1.53l.71,1.58,0,0,.62.87,0-.05.33.29a.26.26,0,0,1,.1.19v.25L37,35.53l.57,0-.23.35-.16-.44,0,.05-.69-1.09,0-.07L36,32.85v0l-.21-.47a.64.64,0,0,0,0-.07l-.12-.9.06.14-.28-.31a.27.27,0,0,1-.06-.12c-.12-.58-.27-1.16-.34-1.75l-.25-1.77v0l-.06-2.22a.29.29,0,0,1,0-.09l.25-.71v.06l.31-3.95.07-1a2.6,2.6,0,0,1,.34-1l.83-1.8h0l.54-1.39v.06l.1-1.13v0l.33-1.31v0L38,11.69a.17.17,0,0,1,.13-.1l.34-.06a.16.16,0,0,1,.19.11l.21.64a.14.14,0,0,1,0,.09l-.68,2.42c-.11.42-.22.8-.33,1.19l-.3,1.2v0l-.83,2.07v0L36.37,21h0l-.21,2.38c-.1.79-.23,1.57-.35,2.36l-.15,1.19-.09.59a1,1,0,0,1-.09.31,1.64,1.64,0,0,1,0,.24c.13.78.32,1.56.49,2.33h0l.37,1h0c.27,1,.6,2,.9,3l0,0,1,1.34v0l.61,1.24a.13.13,0,0,1,0,.12l-.27.78a.18.18,0,0,1-.16.1h-.62l-.08,0-.88-.41a.17.17,0,0,1-.09-.23h0l.19-.36,0,.2c-.37-.48-.76-.94-1.09-1.45s-.7-1-1-1.52-.62-1-.92-1.56L34,32.43s0-.12,0,0,0,0,0,0a.35.35,0,0,0-.14-.07l-.42-.14a1,1,0,0,1-.27-.12,1.88,1.88,0,0,1-.2-.2l-.27-.4v0a6.68,6.68,0,0,1-.35-1l0-1.11-.07-2.12L32,23,32,20.84V19.6a.3.3,0,0,1,.19-.19.93.93,0,0,1,.33,0l.27.05.13,0h0a6.33,6.33,0,0,0,.51-1.94c.06-.35.14-.7.18-1a7.22,7.22,0,0,0,0-1v0l-.24-.74a.14.14,0,0,1,0-.09c.24-.37.5-.72.77-1.07v.05l0-1.72v0l.26-.79h0Z"/><text class="cls-9" transform="translate(35.41 8.31)">b</text><text class="cls-9" transform="translate(57.64 8.31)">a</text></g></g></g></svg>