<?xml version="1.0" encoding="utf-8"?>

<svg version="1.1" id="" xmlns="http://www.w3.org/2000/svg" xmlns:xlink="http://www.w3.org/1999/xlink"
	 x="0px" y="0px" viewBox="0 0 80.2 18.7" enable-background="new 0 0 80.2 18.7" xml:space="preserve">
<g id="_x31_3252F_x5F_b">
	<path fill="#C4C4C4" d="M50.4,9.7c1.2-0.2,2.4-0.3,3.6-0.5C55.9,9,57.9,9,59.8,8.7c0.5-0.1,1.1-0.1,1.7-0.2
		c0.1,0.1,0.2,0.2,0.1,0.4c-1.1,0.2-2.2,0.3-3.3,0.5c-1.5,0.2-3,0.3-4.4,0.5c-1.1,0.1-2.3,0.2-3.4,0.4C50.4,10,50.4,9.9,50.4,9.7
		C50.4,9.8,50.4,9.8,50.4,9.7z"/>
	<path fill="#888888" d="M72.2,7.5c-0.2,0-0.2-0.1-0.3-0.2c-0.4-0.5-0.6-1.1-0.7-1.7c0-0.6,0-1.2-0.1-1.7c0-0.3-0.2-0.3-0.4-0.2
		c-0.2,0.1-0.3,0.3-0.5,0.4C70,4.5,69.5,5,69.4,5.7c0,0-0.1,0.1,0,0.2c0,0,0.3-0.1,0.4-0.2c0.1,0,0.1-0.1,0.2-0.2
		c0-0.1,0.1-0.3,0.2-0.2c0.3,0.1,0.2,0.3,0.2,0.4c0,0.1,0,0.2,0.1,0.4c0.1,0.2,0.2,0.6,0.2,0.6c0,0.1,0.1,0.2,0.1,0.3
		c0,0,0.1,0.2,0.2,0.3c0,0,0.1,0.2,0.2,0.2c0.1,0.1,0.1,0.2,0.2,0.2c0.1,0.1,0.2,0.2,0.3,0.3c0,0.1,0,0.1,0,0.2c0,0,0,0,0,0
		c0.1,0.1,0.3,0.1,0.3,0.3c0,0.2,0.1,0.3,0.2,0.4C72.5,8.4,72.6,7.9,72.2,7.5z"/>
	<path fill="#A6A6A6" d="M24.5,12.5c-0.5,0.2-1.1,0.1-1.6,0.1c-1.4,0.1-2.8,0.5-4.2,0.6c-0.9,0-1.8,0.1-2.7,0.1
		c-0.2-0.2,0-0.3,0.1-0.5c0.9-0.2,1.8-0.2,2.8-0.2c1.4,0,2.8-0.2,4.1-0.4c0.4-0.1,0.7,0,1.1-0.1c0.1,0.1,0.2,0.2,0.3,0.2
		C24.5,12.4,24.5,12.5,24.5,12.5z"/>
	<path fill="#646464" d="M47.5,11c0.2,0.2,0.5,0.1,0.7,0.1c0.3-0.1,0.6,0,0.8,0.2c0.4,0.2,0.8,0.2,1.2,0.1c0.1,0,0.2,0.1,0.4,0.1
		c0.3,0.2,0.6,0.2,1,0.2c0.1,0,0.4-0.1,0.4,0.2c0,0.2-0.2,0.3-0.4,0.3c-0.4,0-0.7,0.1-1.1-0.1c-0.2,0-0.5,0.1-0.7,0.1
		c-0.5-0.1-1.1-0.3-1.6-0.2c-0.2,0.1-0.3-0.4-0.5-0.2c0,0-0.1,0.1-0.1,0.1c-0.6-0.4-1.4-0.2-2-0.4c-0.6-0.2-0.1-0.4,0-0.6
		c0.1-0.1,0.1-0.1,0.2-0.1c0.2-0.1,0.4-0.1,0.7-0.1C46.8,10.7,47.2,10.5,47.5,11z"/>
	<path fill="#B2B2B2" d="M31.1,12.2c-2.2,0.2-4.4,0.1-6.6,0.3c0,0,0,0,0,0c-0.1-0.2,0.1-0.2,0.1-0.4c1.6-0.3,3.3-0.3,4.9-0.4
		c0.9,0,1.8-0.1,2.7-0.1c0,0.3-0.2,0.3-0.4,0.3C31.6,12,31.3,12.1,31.1,12.2z"/>
	<path fill="#A2A2A2" d="M58.7,12.9c0.3,0,0.5,0,0.8,0c0.2,0,0.5,0,0.7,0c0.2,0,0.5,0.1,0.7,0.1c0.2,0,0.5,0,0.7,0
		c0.2,0,0.5,0,0.7,0c0.2,0,0.5,0,0.7,0c0.2,0,0.4,0,0.7,0.1c0.2,0,0.5,0.1,0.7,0c0.1,0,0.1,0,0.2,0c0,0,0,0,0,0c0.1,0,0.1,0,0.2,0
		c0,0,0,0,0.1,0c0-0.2-0.1-0.3-0.3-0.3c-0.1,0-0.6,0-0.6,0c-0.4,0-0.3,0-0.7-0.1c-1.3-0.1-2.5-0.1-3.8-0.2c-0.1-0.1-0.3-0.1-0.5-0.1
		c-0.2,0-0.5-0.1-0.6,0.1c-0.1,0.2,0,0.3,0.1,0.4C58.5,12.8,58.6,12.8,58.7,12.9z"/>
	<path fill="#909090" d="M47.5,11c-0.4-0.2-0.8,0.1-1.2-0.1c-0.2-0.1-0.2-0.1-0.3,0.1c0,0.1-0.1,0.2-0.2,0.1c-0.1,0-0.2,0-0.2,0
		c-0.4,0.3-0.4,0-0.5-0.2c-0.2-0.5,0.3-0.7,0.4-1.1c0.5-0.4,1.2-0.7,1.8-1c0.2-0.1,0.4-0.1,0.6,0c0,0.3-0.3,0.1-0.4,0.3
		c-0.4,0.2-0.9,0.3-1.3,0.6c-0.1,0.1-0.4,0.3-0.3,0.4c0,0.1,0.4,0.1,0.5,0.1c0.7-0.1,1.5,0,2.2-0.2c0.2-0.1,0.4-0.1,0.3,0.2
		c-0.2,0.1-0.5,0.2-0.8,0.2C47.8,10.4,47.4,10.4,47.5,11z"/>
	<path fill="#727272" d="M62,3.3c-0.5,0.6-0.2,0.9,0.9,0.6c0.1,0,0.3-0.1,0.4,0.1c0.1,0.2-0.2,0.3-0.4,0.4c-0.2,0-0.4,0-0.6,0
		c-0.2,0.2,0.1,0.3,0,0.5c0,0.2-0.1,0.5-0.4,0.4c-0.2-0.1-0.3-0.3-0.4-0.5c-0.3-0.6-0.7-1-1.4-0.8c-0.2-0.1-0.2-0.3,0-0.4
		c0.2-0.1,0.4-0.1,0.6-0.3c0-0.1,0-0.3,0.2-0.4c0.2-0.1,0.3-0.1,0.5-0.2c0.1,0,0.1,0.2,0.2,0.2C62.2,3.2,62.4,3,62,3.3z"/>
	<path fill="#7A7A7A" d="M62.9,4.4C63,4.2,63.4,4,63,3.9c0.3-0.1,0.6-0.1,0.9-0.1c1-0.1,1-0.1,1-1.1c0.3-0.2,0.6-0.3,0.7,0.2
		c0,0.6-0.2,1.1-0.4,1.6c0,0.3-0.4,0.8-0.6,1c-0.1,0.2-0.5,0-0.6-0.1c-0.1,0-0.2-0.5-0.2-0.6c0,0-0.2-0.5-0.1-0.5c0,0,0.2,0,0.2,0
		c0,0.1,0,0.2,0,0.2c0.1,0,0.3,0.3,0.4,0.3c0.2-0.1,0.2-0.1,0.2-0.4c-0.1-0.3-0.3-0.2-0.3-0.2c-0.5,0-0.3,0.2-0.4,0.2
		c-0.2,0-0.3-0.2-0.4-0.1C63.2,4.4,63,4.4,62.9,4.4z"/>
	<path fill="#858585" d="M54,11.9c0.5-0.1,0.9,0.1,1.3,0.1c0.1,0.1,0.1,0.3,0.1,0.5c-0.2,0-0.3,0-0.3,0.1c0,0.1,0.2,0.2,0.3,0.2
		c0.2,0.1,0.3,0.1,0.5,0c0.1,0,0-0.2,0.1-0.2c0.2-0.1,0.4-0.1,0.7-0.1c0.2,0.1-0.2,0.2,0,0.4c0.5,0.2,1.1,0.2,0.2,0.6
		c-0.5,0.1-0.9-0.1-1.3-0.2c-0.8-0.2-1.7-0.3-2.5-0.6C53.3,12.5,53.6,12.1,54,11.9z"/>
	<path fill="#929292" d="M73.2,11.7c0.3-0.8,0.9-1.5,1.6-2c0.5-0.3,0.9-0.7,1.4-1c0.6,0.1,0.5,0,0.3,0.5C76,9.4,75.7,9.7,75.3,10
		c-0.5,0.4-1.9,1-1.1,1.5c0,0.2,0.1,0.4-0.1,0.5c-0.2,0.1-0.2,0.3-0.5,0.3C73.5,12.2,73.4,11.8,73.2,11.7z"/>
	<path fill="#A0A0A0" d="M61.1,13.8c-0.3,0-0.6-0.1-0.8-0.1c-0.3,0-0.6-0.1-0.8-0.1c-0.3,0-0.6-0.1-0.8-0.1c-0.1,0-0.5-0.1-0.6-0.1
		c-0.1,0-0.4,0.2-0.3,0.5c1,0.2,2,0.3,3,0.6c0.3,0.1,0.5,0.2,0.8,0c0.2-0.3,0.2-0.4,0.1-0.6C61.5,13.8,61.3,13.8,61.1,13.8z"/>
	<path fill="#A3A3A3" d="M13,13.4c-0.5,0.4-1.1,0.1-1.6,0.1c-0.5-0.1-1,0-1.5,0c-0.6,0.1-1.1,0.1-1.7,0C8,13.1,8.5,13.2,8.5,13
		c1.1-0.2,2.2-0.1,3.3-0.1c0.1,0.2,0.3,0.2,0.5,0.1C12.6,13,12.9,13.1,13,13.4z"/>
	<path fill="#929292" d="M77.2,8.7c0,0,0,0.1,0,0.2c0,0.2,0,0.3,0,0.5c0,0.2,0.1,0.2,0.2,0.1c0.3,1,0,1.8-0.4,2.7
		c-0.1,0.2-0.2,0.5-0.3,0.7c-0.3-0.1-0.3,0.1-0.5,0c0.1-0.2,0.2-0.6,0.2-0.8c0.2-0.6,0.3-1.1,0.2-1.7c0-0.2-0.3-0.7-0.1-0.8
		c0.2-0.2,0.2-0.4,0.1-0.7c-0.1-0.2,0-0.3,0.2-0.4C77,8.5,77.3,8.5,77.2,8.7z"/>
	<path fill="#696969" d="M65.5,2.8c-0.2-0.2-0.5,0.4-0.6-0.1c-0.1-0.6,0-1.3-0.4-1.9c-0.2-0.2,0.1-0.5,0.4-0.6
		c0.3-0.1,0.7-0.1,0.9,0.3c0.1,0.3,0.1,0.7,0.1,1c0,0.5,0,0.9-0.1,1.3C65.7,2.9,65.6,2.9,65.5,2.8z"/>
	<path fill="#949494" d="M72.1,15.2c-0.2-0.1-0.4-0.1-0.6-0.1c-0.2,0-0.3-0.1-0.5-0.2c-0.2-0.1-0.3-0.1-0.5-0.1c-0.4,0-0.8,0-1.1,0
		c-0.2,0-0.4,0-0.6,0c-0.2,0-0.4-0.1-0.5-0.1c-0.2,0-0.3,0-0.5,0c-0.1,0-0.1,0-0.2,0c-0.1,0.1-0.2,0.2-0.2,0.4
		c0.1,0.2,0.2,0.2,0.4,0.1c0.2-0.1,0.4,0,0.5,0c1.1,0.1,2.2,0.3,3.2,0.5c0.1-0.2,0.3-0.1,0.5-0.1c0.2-0.1,0.3-0.1,0.3-0.3
		C72.3,15.2,72.2,15.2,72.1,15.2z"/>
	<path fill="#6A6A6A" d="M39,10.7c1,0,2,0,3,0c0.2,0.1,0.1,0.3,0,0.4c-0.2,0.2-0.4,0-0.6,0.2l0,0c-0.9,0.1-1.9,0-2.8,0.1
		c-0.1,0-0.2,0-0.3-0.2c0-0.1,0.1-0.2,0.1-0.3C38.6,10.8,38.8,10.8,39,10.7z"/>
	<path fill="#909090" d="M39,10.7c-0.1,0-0.1,0.1-0.2,0.1c-0.1,0.1-0.3,0.1-0.3,0.3c0.1,0.2,0.3,0.1,0.4,0.1c0.8-0.1,1.6-0.1,2.4,0
		c-0.2,0.2-0.5,0.1-0.7,0.1c-1.1,0-2.1,0-3.2-0.1c-0.3,0-0.6,0.2-0.9,0.2c-0.2-0.1-0.4-0.1-0.6-0.1c-0.2,0-0.4,0-0.2-0.3
		C36.8,11,37.9,10.9,39,10.7z"/>
	<path fill="#878787" d="M0.5,12.8c1.3-0.3,2.6-0.5,3.9,0c0,0.3-0.2,0.4-0.4,0.3c-0.2-0.1-0.4,0-0.6,0.2c-0.3,0-0.6,0-0.9-0.2
		c-0.1-0.1-0.1-0.1-0.2,0c-0.5,0.3-1,0.2-1.6,0.1C0.7,13,0.5,13,0.5,12.8z"/>
	<path fill="#A9A9A9" d="M55.8,12.2c-0.1,0.1-0.3,0.3-0.3,0.5c0,0,0.3,0,0.4,0.2c0.2,0,0.4,0,0.7,0c0.2,0,0.8,0,0.9,0
		c0.1,0,0.3,0,0.4,0c0.1,0,0.2,0,0.3,0c0.1,0,0.2,0,0.3,0c0.1,0,0.5,0,0.6,0c0,0,0.2-0.1,0.2-0.1c-0.2-0.3-0.6-0.5-0.1-0.4
		c0.1,0,0.3,0,0.4,0C58.2,12.2,57,12.3,55.8,12.2z"/>
	<path fill="#C6C6C6" d="M53.7,6.4C53.2,6.9,52.6,7,52,7.3c-0.7,0.3-2.7,1-3.3,1.3c-0.2,0.1-0.1,0-0.3-0.1c1.3-0.6,3.6-1.6,5-2.1
		C53.5,6.3,53.7,6.1,53.7,6.4z"/>
	<path fill="#838383" d="M76.7,17.1c-0.1,0.6-0.1,0.7,0.4,0.4c0.1,0.4-0.3,0.5-0.5,0.6c-0.7,0.5-1,0.4-1.4-0.1c0-0.1,0-0.2,0.1-0.3
		c0.5,0.3,0.6-0.3,0.7-0.6c0-0.2,0-0.3,0-0.6c-0.1-0.3-0.1-0.7,0-1.1c0-0.1-0.1-0.2,0-0.3c0.3-0.1,0.3,0.1,0.5,0.2
		c0.1,0.1,0.3,0.1,0.3,0.3C76.8,16.2,76.6,16.7,76.7,17.1z"/>
	<path fill="#7C7C7C" d="M75.5,18c0.3,0.6,0.7,0.3,1.1,0.1c0.2-0.1,0.5-0.3,0.6-0.6c0.2-0.5,0.5-0.1,0.1,0.3
		c-0.7,0.7-1.5,0.9-2.3,0.7c-0.6-0.1-1-0.6-1.1-1.3c-0.1-0.4-0.3-0.8-0.2-1.2c0.1-0.1,0.2-0.1,0.3-0.1c0.4,0.5,0.3,1.1,0.7,1.6
		c0,0,0,0.1,0.1,0.2c0.1,0.2,0.2,0.4,0.5,0.2C75.3,17.9,75.4,17.9,75.5,18z"/>
	<path fill="#797979" d="M75.8,14.6c-0.1,0-0.1-0.1-0.2-0.1c-0.3,0-1.1,0.3-1.4,0.4c0.2,0,1.1,0.6-0.2,0.2c-0.1,0-0.2,0.2-0.4,0.2
		c-0.3,0.1-0.7,0-1-0.1c-0.1,0.1-0.2,0.2-0.1,0.4c0.3,0.2,0.7,0.3,1.1,0.2c0.2-0.1,0.3,0,0.5,0.1c0.1,0.1,0.2,0.2,0.3,0.2
		c0.1,0,0.2,0,0.2,0c0.1,0,0.1-0.3,0.1-0.4c0.4-0.4,0.8-0.6,1.3-0.6l0,0C76.2,14.9,76,14.8,75.8,14.6z"/>
	<path fill="#858585" d="M44.9,11.4c-0.6,0-1.1,0-1.7,0.1c-0.3,0-0.5,0-0.7-0.2c0.1-0.2,0.1-0.4,0-0.6c0.7-0.1,1.5-0.2,2.2-0.3
		C45.2,10.6,45.2,10.9,44.9,11.4z"/>
	<path fill="#D3D3D3" d="M53.7,6.4c-0.1,0-0.2-0.1-0.4-0.1c1.2-0.5,2.4-1,3.6-1.4c0.1,0.1,0.3,0,0.4,0.2c-1,0.4-2,0.8-3,1.2
		C54.2,6.4,54,6.4,53.7,6.4z"/>
	<path fill="#9E9E9E" d="M31.1,12.2c0-0.3,0.2-0.4,0.5-0.4c0.3,0,0.5,0,0.7-0.1c0.7-0.2,1.4-0.2,2.2-0.2c0.1,0.1,0.7,0.1,0.2,0.5
		c-0.1,0-0.2,0-0.2,0c-0.5,0-1-0.2-1.4,0.1C32.4,12.2,31.7,12.3,31.1,12.2z"/>
	<path fill="#646464" d="M50.5,12c0.4,0,0.9,0.1,1.3-0.3c-0.4-0.2-0.9,0-1.2-0.4c0.8,0.2,1.6,0.1,2.4,0.2c0.2,0,0.4,0.2,0.6,0.2
		c0,0.6-0.2,0.7-0.6,0.6c-0.3-0.1-0.6-0.1-0.8-0.1C51.6,12.3,51,12.2,50.5,12z"/>
	<path fill="#8E8E8E" d="M69.7,8.6c-0.8-0.1-1.4-0.4-1.9-0.9c0-0.3,0-0.4,0.4-0.4c0.2,0,0.4-0.1,0.6-0.1c0.3,0,0.4-0.2,0.7,0
		c-0.1,0.3-0.3,0.7,0.5,1C70.1,8.4,69.9,8.5,69.7,8.6z"/>
	<path fill="#9D9D9D" d="M66.7,14.7c-0.1,0-0.3,0-0.4-0.1c-0.2,0-0.4-0.1-0.6-0.2c-0.2-0.1-0.4-0.2-0.7-0.1c-0.1,0-0.3,0-0.4,0
		c-0.1,0-0.2,0-0.3,0c-0.2,0-0.3,0-0.5-0.1c0,0-0.1,0.1-0.1,0.1c-0.1,0.4,0.4,0.4,0.6,0.4c0,0,0.1,0,0.1,0.1
		c0.8,0.1,1.5,0.5,2.3,0.1C66.7,14.9,66.8,14.8,66.7,14.7C66.8,14.7,66.8,14.7,66.7,14.7C66.7,14.7,66.7,14.7,66.7,14.7z"/>
	<path fill="#C7C7C7" d="M57.3,5.1c-0.1,0-0.3-0.1-0.4-0.2c1.1-0.4,2.2-0.8,3.2-1.2c-0.1,0.1-0.1,0.2,0,0.4
		c-0.7,0.6-1.7,0.5-2.5,0.9C57.6,5,57.5,5.1,57.3,5.1z"/>
	<path fill="#818181" d="M69.7,8.6c-0.1-0.2,0.1-0.3,0.1-0.5c0.2,0,0.5,0.2,0.8,0.2c0.4,0.1,1,0.3,1.1-0.3c0.4-0.1,0.4,0.3,0.5,0.5
		c-0.1,0.3-0.4,0.2-0.6,0.4C70.9,9,70.3,9.1,69.7,8.6z"/>
	<path fill="#A6A6A6" d="M64.5,14.3C64.5,14.3,64.5,14.3,64.5,14.3C64.5,14.3,64.5,14.3,64.5,14.3c-0.2-0.1-0.3-0.1-0.5-0.1
		c-0.3,0-0.5,0-0.8-0.1c-0.1,0-0.2-0.1-0.4-0.1c-0.1,0-0.3,0-0.4,0c-0.5-0.1-1-0.2-1.5-0.1c0.2,0.2,0.6,0.2,0.5,0.6
		c1,0.1,1.9,0.2,2.9,0.4c-0.1-0.2-0.5-0.1-0.6-0.4C64.1,14.2,64.3,14.4,64.5,14.3z"/>
	<path fill="#878787" d="M69.5,7.1c-0.3,0.1-0.5,0.3-0.6,0.5c-0.2-0.3-0.3-0.5-0.3-0.9c0.2-0.4,0.4-0.9,0.9-1.1
		c0,0.1-0.2,0.6-0.2,0.7c0,0.1-0.5,0.8,0.8,0.3c0.3-0.1,0.4,0.1,0.6,0.4C70.2,7.2,70.1,7.1,69.5,7.1z"/>
	<path fill="#989898" d="M8.5,13c0.1,0,0.4,0,0.3,0.2c0,0.2-0.2,0.1-0.3,0.1c-0.1,0-0.2,0.1-0.3,0.1c-0.6,0.1-1.3,0.1-1.9,0
		C6,13.2,6.3,13.1,6.5,13C7.2,13,7.8,13,8.5,13z"/>
	<path fill="#767676" d="M76,15.3c-0.1-0.2-0.2-0.3-0.4-0.5c-0.1-0.4,0.2-0.6,0.5-0.6c0.1,0,0.6,0,0.6,0.1c-0.1,0.1-1,0.4-0.6,0.4
		c0.4,0,0.6,0,0.6,0.3c0,0.6-0.1,1.5-0.2,2.2c-0.1-0.6,0-1-0.1-1.4c-0.1-0.1-0.1-0.3-0.3-0.2C76.2,15.5,76.1,15.4,76,15.3z"/>
	<path fill="#8D8D8D" d="M67.5,7.5c-0.9,0.2-1.8,0.5-2.8,0.6c-0.1-0.2-0.4,0.1-0.3-0.2c1-0.3,2.1-0.5,3.1-0.8
		C67.6,7.2,67.6,7.4,67.5,7.5z"/>
	<path fill="#D0D0D0" d="M64.4,7.9c0.1,0.1,0.2,0.2,0.3,0.2c-1,0.2-1.9,0.6-2.9,0.6c-0.1-0.2-0.1-0.3,0.1-0.3
		C62.8,8.2,63.6,7.9,64.4,7.9z"/>
	<path fill="#9C9C9C" d="M3.5,13.2c0-0.4,0.1-0.6,0.5-0.4c0.2,0,0.3,0.1,0.5,0c0.3,0,0.6,0,0.8,0.1c0.1,0.2,0.3,0.4,0.3,0.6
		c-0.4,0.2-0.7,0.1-1.1,0C4.1,13.4,3.8,13.3,3.5,13.2z"/>
	<path fill="#939393" d="M13,13.4c-0.3,0-0.6-0.2-1-0.1c-0.2,0-0.3-0.1-0.3-0.4c0.8,0,1.6,0,2.4,0c0.2,0.2,0.1,0.3,0,0.5
		C13.8,13.5,13.4,13.2,13,13.4z"/>
	<path fill="#7A7A7A" d="M44.9,11.4c0-0.4,0-0.7-0.2-1.1c0.2-0.2,0.5-0.5,0.8-0.6c0.3,0.3-0.1,0.5-0.1,0.8c0,0.2-0.2,0.5,0.2,0.6
		c0,0.2-0.3,0.2-0.1,0.5C45.3,11.6,45.1,11.5,44.9,11.4z"/>
	<path fill="#929292" d="M70.5,12.4c0.7,0.2,1.4-0.1,2-0.4c0.1,0.3,0,0.6,0.2,0.8c0,0.1,0,0.2-0.1,0.2c-0.6-0.7-1.3,0-2-0.2
		c-0.2-0.2-0.6-0.2-0.4-0.4C70.3,12.4,70.4,12.3,70.5,12.4z"/>
	<path fill="#6B6B6B" d="M62.8,1.3c-0.4,0.2-0.3,0.5-0.7,0.6C62,2,61.8,2.3,61.5,2.3c-0.2-0.1-0.3-0.2-0.2-0.4
		c0.2-0.6,0.9-0.7,1.3-1.2c0.2,0,0.4,0,0.5,0.2C63,1.1,62.9,1.2,62.8,1.3z"/>
	<path fill="#656565" d="M72.6,12.8c-0.4-0.2-0.2-0.5,0-0.7c0.3,0,0.5-0.1,0.6-0.4c0.2-0.1,0.4-0.3,0.6,0c0.1,0.2,0.2,0.4-0.1,0.5
		c-0.1,0.1-0.2,0.1-0.3,0.2c-0.2,0.2-0.3,0.3-0.5,0.4C72.7,12.8,72.7,12.8,72.6,12.8z"/>
	<path fill="#A7A7A7" d="M14.2,13.4c0-0.2,0-0.3,0-0.5c0.4-0.2,0.9-0.2,1.3,0c0,0.2-0.1,0.3-0.1,0.5C15,13.6,14.6,13.4,14.2,13.4z"
		/>
	<path fill="#7C7C7C" d="M52.2,12.4c0.3-0.2,0.5-0.3,0.9-0.2c0.4,0.2,0.5-0.1,0.6-0.3c0.1,0,0.2,0,0.4,0c-0.1,0.6-0.4,0.8-1,0.8
		C52.7,12.7,52.4,12.6,52.2,12.4z"/>
	<path fill="#868686" d="M62,5.3c0.1-0.5-0.1-0.2,0.4-0.7c0,0.3,0.2,0.2,0.5,0.3c0.1,0,0.3,0,0.3,0.2c0,0.2-0.2,0.3-0.3,0.3
		C62.5,5.6,62.2,5.6,62,5.3z"/>
	<path fill="#707070" d="M67.5,7.5c-0.2-0.1-0.2-0.3,0-0.4C67.9,7,68.3,7,68.6,6.7c0.2,0.2,0.3,0.5,0.3,0.9c-0.4-0.2-0.7-0.3-1.1,0
		C67.7,7.6,67.6,7.6,67.5,7.5z"/>
	<path fill="#8A8A8A" d="M76.4,12.4c0.2,0.1,0.3,0.3,0.3,0.5c-0.1,0.2-0.2,0.5-0.4,0.6c-0.5,0.6-0.2,0.5,0.1,0.4
		c0,0.3-0.3,0.2-0.5,0.3c-0.2,0-0.3-0.2-0.4-0.3c0.4-0.5,0.5-0.8,0.7-1.2C76.3,12.6,76.3,12.3,76.4,12.4z"/>
	<path fill="#898989" d="M5.5,13.5c-0.2,0-0.4,0-0.5-0.2C5,13.1,5.2,13,5.3,12.9c0.4,0.2,0.8,0,1.2,0.1c0.2,0.3-0.2,0.3-0.2,0.5
		C6,13.5,5.8,13.5,5.5,13.5z"/>
	<path fill="#A1A1A1" d="M66.7,14.9c0-0.1,0-0.1,0-0.2c-0.4-0.1,0.2-0.1,0.4-0.1c0.5-0.1,0.6-0.1,1.2,0c0.2,0,0.4,0,0.5,0.1
		c-0.4,0.1-0.9-0.1-1.4,0.2c0.4,0,0.7-0.1,0.9,0.1C67.8,15.4,67.2,15.3,66.7,14.9z"/>
	<path fill="#A1A1A1" d="M34.7,11.9c0.1-0.2-0.1-0.4-0.2-0.5c0.4-0.1,0.9-0.2,1.3-0.2c0.2,0.4,0.6,0.1,0.8,0.4
		C35.9,11.4,35.3,11.8,34.7,11.9z"/>
	<path fill="#797979" d="M61.7,2.9c0.4,0.1,0.6,0,0.8-0.3c0.1-0.2,0.1-0.3,0.4-0.3C62.9,2.4,63,2.5,63,2.6c0,0.1,0.3-0.1,0.3,0.1
		c0,0.3-0.4,0.2-0.6,0.2c-0.1,0-0.1,0.3-0.2,0.3c-0.2,0.1-0.4,0.1-0.6,0.1C62.2,2.9,61.7,3.1,61.7,2.9z"/>
	<path fill="#7E7E7E" d="M77,8.8c-0.1-0.1-0.2-0.3-0.2,0c0,0.2-0.1,0.6-0.3,0.8c0-0.1-0.2-0.3-0.2-0.4c0.2-0.4,0.1-0.4-0.1-0.6
		c0-0.3,0.1-0.6,0.5-0.5C76.9,8.2,77.3,8.4,77,8.8z"/>
	<path fill="#9D9D9D" d="M58.1,13.4c-0.1,0.2-0.2,0.3-0.4,0.5c-0.3,0.1-0.6-0.2-1-0.2c-0.2-0.4,0.2-0.3,0.2-0.5
		c0.3,0.1,0.4,0.2,0.6,0.2C57.8,13.4,57.7,13.3,58.1,13.4z"/>
	<path fill="#7C7C7C" d="M72.2,7.5c-0.2,0.3-0.2,0-0.3-0.1c-0.5-0.5-0.6-1.2-0.7-1.8c0.1-0.1,0.2-0.1,0.2,0
		C71.5,6.3,71.8,6.9,72.2,7.5z"/>
	<path fill="#787878" d="M47.6,11.8c0.8-0.1,1.5-0.1,2.2,0.3C49,12.2,48.3,12.2,47.6,11.8z"/>
	<path fill="#747474" d="M71.4,5.6c-0.1,0-0.2,0-0.2,0c-0.3-0.5,0.1-1-0.1-1.5c-0.1-0.1,0-0.2,0.1-0.3C71.5,4.3,71.3,5,71.4,5.6z"/>
	<path fill="#CECECE" d="M77.1,13.7c0.4-0.1,0.8-0.2,1.2-0.4c0.1,0.2,0.4,0,0.5,0.2c-0.5,0.1-1,0.4-1.6,0.5
		C77.1,14,77,13.9,77.1,13.7z"/>
	<path fill="#AAAAAA" d="M47.5,9.1c0-0.1,0.1-0.1,0.1-0.2c-0.1-0.2-0.3-0.1-0.4-0.1c0.5-0.1,1-0.5,1.6-0.4C48.5,8.8,48,9,47.5,9.1z"
		/>
	<path fill="#767676" d="M66.3,3.9c0.1,0,0.2,0,0.3,0.1c0,0.1-0.1,0.2-0.2,0.2c-0.3,0.2-0.7,0.2-1.1,0.1c-0.2-0.2-0.1-0.4,0-0.5
		C65.7,3.6,66,4.1,66.3,3.9z"/>
	<path fill="#646464" d="M61.3,2c0.1,0.1,0.2,0.2,0.2,0.2c0.2,0.1,0.1,0.3,0,0.4c-0.2,0.1-0.3,0.3-0.5,0.4c-0.1,0.1-0.2,0.2-0.3,0.3
		C60.6,2.7,60.9,2.3,61.3,2z"/>
	<path fill="#6E6E6E" d="M42.4,10.7c0.1,0,0.2,0,0.3,0c0.2,0,0.4,0.1,0.4,0.4c0,0.3-0.3,0.2-0.4,0.2c-0.1,0-0.2,0-0.2,0c0,0,0,0,0,0
		c-0.1-0.3-0.4,0-0.6-0.3c0-0.1,0.1-0.3,0.1-0.4C42.1,10.6,42.3,10.7,42.4,10.7z"/>
	<path fill="#767676" d="M72.9,15.4c-0.2,0.1-0.3,0.2-0.5,0.3c-0.3,0-0.6,0-0.8-0.1c-0.1-0.2,0-0.3,0.2-0.3c0.2,0,0.4,0,0.5-0.1
		C72.7,15.3,72.6,15.3,72.9,15.4z"/>
	<path fill="#858585" d="M63.1,1c-0.1,0-0.3-0.2-0.5-0.2c0.5-0.2,1.7-1,1.7-0.7C64.3,0.5,63.5,0.8,63.1,1z"/>
	<path fill="#8D8D8D" d="M77.4,9.5c0,0.2,0,0.4-0.1,0.7c-0.5-0.3-0.2-0.8-0.3-1.3C77.3,9,77.4,9.2,77.4,9.5z"/>
	<path fill="#606060" d="M65.5,3.9c0,0.2-0.1,0.3-0.1,0.5c0,0-0.1,0.1-0.1,0.1c-0.3-0.6,0.3-1.1,0.3-1.7c0.1,0,0.2,0,0.2,0
		c0,0.1,0,0.2,0,0.2C65.6,3.3,65.8,3.7,65.5,3.9z"/>
	<path fill="#C4C4C4" d="M48.9,10.2c-0.1-0.1-0.2-0.2-0.3-0.2c0.6-0.3,1.2-0.2,1.8-0.3c0,0,0,0,0,0c0,0.2-0.1,0.2-0.2,0.2
		c-0.1,0-0.3,0-0.3,0.1C49.5,10.3,49.2,10.3,48.9,10.2z"/>
	<path fill="#909090" d="M15.4,13.4c-0.3-0.3,0-0.4,0.1-0.5c0.2,0.2,0.4,0,0.6,0c0.1,0.2,0,0.3-0.1,0.5
		C15.8,13.4,15.6,13.4,15.4,13.4z"/>
	<path fill="#717171" d="M77.1,13.7c0,0.1,0.1,0.2,0.1,0.3c-0.3,0.1-0.5,0.2-0.8,0.3c-0.1,0-0.2,0-0.3,0c-0.1-0.1-0.3,0-0.2-0.2
		c0.2,0,0.3,0,0.5-0.1C76.6,13.9,76.9,13.8,77.1,13.7z"/>
	<path fill="#858585" d="M41.9,11.1c0.3-0.1,0.6-0.1,1-0.2c-0.2,0.2-0.3,0.4-0.4,0.5c-0.4,0.1-0.7,0-1.1,0
		C41.5,11.2,41.7,11.2,41.9,11.1z"/>
	<path fill="#B7B7B7" d="M78.8,13.6c-0.2-0.1-0.5,0.1-0.5-0.2c0.4-0.1,0.7-0.4,1.1-0.2l0,0C79.3,13.3,79,13.5,78.8,13.6z"/>
	<path fill="#787878" d="M50.3,11.3c-0.3,0.1-0.5,0.2-0.8,0.2c-0.3,0-0.4-0.1-0.4-0.4C49.5,11.2,49.9,11.3,50.3,11.3z"/>
	<path fill="#5B5B5B" d="M73.5,16c-0.1-0.2-0.1-0.4,0.2-0.4c0.3,0,0.3,0.2,0.2,0.4c0,0.1,0,0.1-0.1,0.1c-0.1,0-0.2,0-0.2,0
		C73.6,16.1,73.6,16,73.5,16z"/>
	<path fill="#AAAAAA" d="M49.8,10.1c-0.1,0-0.2,0-0.4-0.1c0.3-0.3,0.7-0.1,1-0.3c0.2,0.1,0.1,0.2,0,0.4C50.2,10.1,50,10.1,49.8,10.1
		z"/>
	<path fill="#636363" d="M71.6,8.9c-0.1-0.1-0.2-0.3,0.1-0.3c0.2,0,0.4-0.1,0.5-0.1c0,0.2-0.1,0.3-0.1,0.5C71.9,9,71.8,9,71.6,8.9z"
		/>
	<path fill="#9F9F9F" d="M55.8,12.2c0,0.1,0,0.4-0.2,0.5c-0.3-0.1-0.2,0-0.5,0c-0.3,0,0.1-0.5,0.2-0.6
		C55.5,12.1,55.6,12.1,55.8,12.2z"/>
	<path fill="#696969" d="M0.2,12.7c0.3-0.1,0.5,0.1,0.7,0.4c-0.2,0.2-0.5,0.3-0.8,0.1C-0.1,13,0.1,12.9,0.2,12.7z"/>
	<path fill="#9C9C9C" d="M24.6,12.2c0.1,0.1,0.2,0.1,0.2,0.2c-0.1,0.1-0.3,0.1-0.4,0.2c-0.2,0-0.4-0.1-0.3-0.4
		C24.3,12.2,24.4,12.2,24.6,12.2z"/>
	<path fill="#A7A7A7" d="M62,8.3c0,0.1-0.1,0.2-0.1,0.3c-0.1,0-0.2,0.1-0.4,0.1c-0.1-0.1-0.2-0.2-0.1-0.4C61.6,8.4,61.8,8.3,62,8.3z
		"/>
	<path fill="#A7A7A7" d="M79,13.4c0,0-0.1-0.2,0-0.2c0.5,0,0.8-0.5,1.1-0.4c0,0,0.1,0.1,0.1,0.1c-0.1,0.3-0.4,0.2-0.6,0.3
		c0,0-0.4,0.2-0.4,0.2C79,13.5,79,13.4,79,13.4z"/>
	<path fill="#999999" d="M2.4,13c-0.1-0.5,0.3-0.3,0.5-0.4c0,0.3-0.2,0.2-0.3,0.4C2.6,13,2.5,13,2.4,13z"/>
	<path fill="#595959" d="M70.8,3.5c-0.1,0.2,0,0.7-0.5,0.4C70.4,3.6,70.5,3.4,70.8,3.5z"/>
	<path fill="#A1A1A1" d="M33,12.1c0.4-0.4,0.9-0.3,1.4-0.1C34,12.1,33.5,11.8,33,12.1z"/>
	<path fill="#757575" d="M45.8,11.1c0-0.1,0.1-0.2,0.1-0.3c0.1-0.1,0-0.4,0.2-0.4c0.2,0,0.1,0.3,0.2,0.4
		C46.1,10.8,46.2,11.5,45.8,11.1z"/>
	<path fill="#B1B1B1" d="M70.7,12.9c-1.9,0.3-4.2,0.2-6.1,0.2c-0.1-0.1-0.2-0.3-0.3-0.4c1.4-0.1,2.8,0.2,4.2,0c0.3,0,0.6,0,0.9-0.1
		c0.3,0,0.6,0,0.8,0C70.2,12.7,70.6,12.8,70.7,12.9z"/>
	<path fill="#898989" d="M61.1,3.1c0-0.2,0.1-0.4,0.4-0.5c0.1,0.1,0.3,0.2,0.1,0.4C61.3,2.9,61.4,3.6,61.1,3.1z"/>
	<path fill="#999999" d="M55.8,12.9c0.1,0.1,0.2,0.2,0.4,0.3c-0.5,0.1-0.9,0-1.3-0.4c-0.2-0.2-0.1-0.3,0.2-0.2
		C55.3,12.8,55.4,12.9,55.8,12.9z"/>
	<path fill="#CCCCCC" d="M74.2,11.6c0.2,0.2,0.8,0.2,0.8,0.3c0,0.4-0.7,0.2-1,0.2C74.1,12,74.1,11.8,74.2,11.6z"/>
	<path fill="#858585" d="M65.4,2.4C65.1,1.9,65.1,1.4,65,1c-0.1-0.2,0-0.5,0.3-0.5c0.3,0,0.2,0.2,0.2,0.4
		C65.7,1.3,65.7,1.8,65.4,2.4z"/>
	<path fill="#919191" d="M75,17.7c0.1,0.1,0.3,0.1,0.4,0.2c0,0-0.1,0.1-0.1,0.1c-0.4,0.4-0.5,0.4-1-0.1c0-0.1,0.1-0.2,0.2-0.3
		C74.7,17.5,74.9,17.7,75,17.7z"/>
	<path fill="#9B9B9B" d="M76.3,16.7c0-0.1,0-0.1,0-0.2c0-0.1,0-0.2,0.2-0.3c0.2,0.4,0.1,0.9,0,1.4C76.2,17.2,76.3,17,76.3,16.7z"/>
	<path fill="#9B9B9B" d="M76.3,15.6c0.1-0.1,0.1-0.3,0.2-0.3c0.2,0,0.1,0.3,0.2,0.4C76.5,15.8,76.4,15.8,76.3,15.6z"/>
	<path fill="#969696" d="M74.7,17.8c-0.1,0-0.2,0.1-0.3,0.1c-0.2-0.6-0.7-1.1-0.6-1.8c0,0,0.1-0.1,0.1-0.1c0.1,0,0.2,0.1,0.4,0.1
		c0.1,0,0.1-0.1,0.2-0.1c0,0,0,0.1,0,0.1c0,0.1,0.1,0.2,0.1,0.3c-0.2,0.2-0.2,0.3-0.1,0.6C74.8,17.3,74.9,17.5,74.7,17.8z"/>
	<path fill="#767676" d="M74.6,14.4c0.4,0,0.7-0.3,1-0.5c0.3,0.3-0.1,0.6-0.1,0.9c-0.3,0-0.6,0.2-0.9,0.3c-0.3-0.1-0.5,0-0.7-0.1
		c-0.2-0.1-0.5-0.2-0.5-0.6c0.1-0.2,0.3-0.2,0.5-0.1C74.2,14.4,74.4,14.4,74.6,14.4z"/>
	<path fill="#626262" d="M75.6,14.8c-0.2-0.3,0.1-0.6,0.1-0.9c0,0,0-0.1,0-0.1c0.1,0,0.2,0.1,0.2,0.2c0.1,0.1,0.2,0.2,0.2,0.2
		c-0.2,0.2-0.3,0.3-0.5,0.5C75.7,14.8,75.6,14.8,75.6,14.8z"/>
	<path fill="#5F5F5F" d="M74.6,16.1c-0.1,0.1-0.1,0.1-0.2,0.1c0,0,0,0,0-0.1c0-0.2-0.1-0.5,0.2-0.5C74.8,15.6,74.6,15.9,74.6,16.1z"
		/>
	<path fill="#6D6D6D" d="M43.6,11.3C43.6,11.2,43.6,11.2,43.6,11.3c0.3-0.1,0.5-0.4,0.8-0.2c0,0,0,0.1,0,0.1
		C44.1,11.4,43.9,11.3,43.6,11.3z"/>
	<path fill="#8E8E8E" d="M63.4,14.4c0,0.1-0.1,0.1-0.2,0.1c-0.1,0-0.3-0.1-0.3-0.2c0-0.2,0.2-0.1,0.3-0.1
		C63.3,14.2,63.4,14.3,63.4,14.4z"/>
	<path fill="#838383" d="M74.6,14.4c-0.4,0.2-0.8,0.1-1.1-0.1c-0.2-0.5-0.6-0.9-1-1.3c0-0.1,0-0.2,0-0.3c0,0,0.1-0.1,0.1-0.1
		c0.2,0,0.4,0.1,0.6,0.2c0.6,0.1,0.7,0.5,0.9,0.9C74.4,14,74.4,14.3,74.6,14.4z"/>
	<path fill="#8F8F8F" d="M73.5,12.9c-0.3,0.2-0.7,0-0.9-0.3c0.1-0.3,0.6-0.1,0.7-0.3C73.3,12.6,73.1,12.7,73.5,12.9z"/>
	<path fill="#7B7B7B" d="M74.7,17.8c-0.1-0.3-0.2-0.5-0.3-0.8c-0.1-0.3,0-0.5,0.3-0.5c0,0.5,0.2,0.9,0.4,1.3
		C75,17.8,74.9,17.8,74.7,17.8z"/>
</g>
</svg>
