<?xml version="1.0" encoding="utf-8"?>

<svg version="1.1" id="" xmlns="http://www.w3.org/2000/svg" xmlns:xlink="http://www.w3.org/1999/xlink"
	 x="0px" y="0px" viewBox="0 0 96.1 62.1" enable-background="new 0 0 96.1 62.1" xml:space="preserve">
<g id="_x31_3252F_x5F_a">
	<path fill="#949494" d="M57.6,57.3c0.5,0.1,0.9,0.2,1.4,0.1c0.5-0.1,1,0,1.5,0.1c1.3,0.3,2.7,0,4,0.4c0.5,0.2,1.1,0,1.6,0.3
		c0.2,0.6-0.2,0.5-0.5,0.4c-0.9,0.2-1.7-0.1-2.5,0c-1,0.1-2-0.2-3-0.4c-0.5-0.1-0.9,0-1.4,0c-1.4-0.2-2.8-0.7-4.3-0.7
		c-0.1-0.2-0.1-0.3,0-0.5c0.1,0,0.2-0.1,0.2-0.1c0.2-0.1,0.3,0.1,0.5,0.1c0.2,0,0.3,0.1,0.5,0C55.9,56.8,57.2,57.2,57.6,57.3z"/>
	<path fill="#979797" d="M29.9,30.5c0.5,0.4,0.6,0.8,0.3,1.4c-0.2,0.4,0,0.8,0,1.2c0.1,1.3,0.2,2.7,0.4,4c0.1,0.7,0.2,1.5,0.2,2.2
		c0,0.6,0,1.3-0.3,1.9c-0.1,0.2-0.2,0.3-0.4,0.4c-0.2,0-0.3,0-0.2-0.2c0.4-1.6,0.2-3.2,0-4.8c-0.1-1.2-0.2-2.5-0.4-3.7
		c0-0.4,0.1-0.8-0.3-1.1c-0.1,0-0.1-0.1-0.1-0.1C29,31,29.5,30.7,29.9,30.5z"/>
	<path fill="#9C9C9C" d="M65.6,58.6c0.3,0,0.5-0.1,0.5-0.4c1.6,0.2,3.1,0.2,4.7,0.5c2,0.3,4,0.3,5.9,1.2c0,0.4-0.3,0.4-0.6,0.4
		c-0.3,0-0.6,0-0.9,0c-0.9-0.5-1.9-0.5-2.9-0.7c-2-0.4-4.1-0.3-6.1-0.8C66,58.7,65.8,58.6,65.6,58.6z"/>
	<path fill="#9D9D9D" d="M54.3,56.9c0,0.2,0,0.3,0,0.5c-1.1,0.1-2.1,0.3-3.2,0.3c-1.4,0-2.7,0.2-4.1-0.3c-0.5-0.2-1.1-0.3-1.6-0.2
		c-0.2,0-0.3,0-0.5,0c-0.8-0.3-1.6-0.3-2.5-0.4c-0.1-0.2-0.2-0.3,0-0.5c0.4,0,0.8,0,1.1,0.1c1.1,0.3,2.3-0.1,3.4,0.3
		c1,0.4,2.1,0.4,3.2,0.5c1,0.1,1.9-0.1,2.8-0.3c0.2-0.1,0.5,0.3,0.7,0C53.9,56.7,54.1,56.8,54.3,56.9z"/>
	<path fill="#9B9B9B" d="M55.4,13.8c0.9-0.3,1.7,0.1,2.5,0.2c0.8,0.1,1.5,0.3,2.3,0.1c0.5-0.1,1.1,0.1,1.6,0.3
		c0.2,0.1,0.5,0.2,0.7,0.3c0.1,0,0.1,0.1,0.1,0.1c-0.1,0.8-0.8,0.9-0.5,0.4c0-0.1-1-0.6-1.5-0.8c-0.3-0.1-0.6,0.2-0.8,0.4
		c-0.1,0.1,0.1,0.3,0,0.4c-1,0.3-2,0-3,0.2c-0.4,0.2-0.7-0.1-1.1,0c-0.2,0-0.3,0-0.4-0.2c0.7-0.4,1.5-0.2,2.3-0.3
		c0.4-0.1,1.2,0,1.6-0.1c-0.2,0-0.3-0.1-0.5-0.1c-0.9-0.1-1.9-0.5-2.8-0.6c0,0,0,0-0.1,0C55.7,14,55.4,14,55.4,13.8z"/>
	<path fill="#999999" d="M88,59.2c1.2,0.2,2.3,0.3,3.5,0.5c1.3,0.3,2.6,0.5,3.8,1.1c0.2,0.1,0.6,0.3,0.8,0.4
		c-0.5,0.3-2.5-0.2-3.8-0.6c-1.2-0.3-2.3-0.7-3.5-0.8c-0.3-0.1-0.6-0.1-0.9-0.1c-0.2,0-0.5,0-0.5-0.2c0-0.3,0.3-0.1,0.5-0.2
		C87.9,59.2,88,59.2,88,59.2z"/>
	<path fill="#B6B6B6" d="M88,59.2c-0.1,0.1-0.3,0.1-0.5,0.2c0.4,0.2,0.9,0.1,1.2,0.4c-1.6-0.1-3.1,0.2-4.6,0.7
		c-0.6,0.2-1.2,0.1-1.8,0c-0.8-0.1-1.7,0-2.5-0.1c-0.1,0-0.2-0.1-0.3-0.1c0.1-0.2-0.1-0.3,0-0.5c0.4,0,0.7-0.1,1.1,0.1
		c0,0-0.1,0.1-0.1,0.1c0,0,0.1-0.1,0.1-0.1c1.9,0,3.7,0,5.5-0.6C86.7,59.1,87.4,59.2,88,59.2z"/>
	<path fill="#969696" d="M65.6,22.6c0.3,0.7,0.2,1.4,0.3,2c0.2,1.2,0.3,2.3,0.1,3.5c-0.1,0.6-0.1,1.2-0.4,1.8
		c-0.3,0-0.1-0.3-0.2-0.4c0-0.5,0.1-1,0.1-1.5c0.1-1.3-0.2-2.6-0.4-3.8c0,0,0-0.1,0-0.1c-0.3-0.7-0.3-0.7,0-1.5
		C65.2,22.6,65.4,22.6,65.6,22.6z"/>
	<path fill="#9F9F9F" d="M28.4,56.5c0,0,0.1,0,0.1,0c0.4,0,0.7,0.1,1.1-0.1c1.4,0,2.8,0,4.1,0.4c0.3,0.1,0.6,0,0.8,0.1
		c0.2,0.1,0.3,0.3,0.1,0.5c-0.6,0.2-1.2-0.2-1.9-0.2c-0.8-0.1-1.6-0.1-2.4,0c-1.1,0.2-2.2,0.1-3.3,0.1c-0.1,0,0.1-0.2,0-0.2
		c-0.1,0-0.2,0-0.3,0c-0.1,0-0.3,0-0.3-0.2c0-0.2,0.1-0.3,0.3-0.3c0.5-0.1,1-0.2,1.5-0.1C28.3,56.6,28.4,56.6,28.4,56.5z"/>
	<path fill="#8F8F8F" d="M65.2,39.2c0.5-1.1,0.9-2.2,1.5-3.2c0.2-0.2,0.3-0.5,0.3-0.8c0.1-0.9,0.6-1.6,0.9-2.4
		c0.1-0.1,0.1-0.3,0.2-0.4c0.1-0.2,0.3-0.2,0.5-0.1c0.2,0.1,0,0.3,0,0.4c-0.2,0.3-0.1,0.7-0.3,1c-0.3,0.1-0.4,0.4-0.4,0.7
		c-0.2,1.2-1,2.1-1.5,3.1c-0.3,0.7-0.6,1.5-1.2,2.1C65.1,39.6,65.2,39.4,65.2,39.2z"/>
	<path fill="#9D9D9D" d="M9.3,59.9c-1.2,0.8-2.5,1.5-4.1,1.1c-0.4-0.1-1.2,0.1-1.7,0.1C3.4,61,3,60.9,3.2,60.6
		c0.7-0.5,1.9-0.4,2.7-0.3c0.3,0.1,0.6,0.1,0.9,0.1c0.9-0.4,1.7-0.8,2.6-1.2c0.2-0.1,0.3,0,0.4,0.1C9.7,59.7,9.5,59.7,9.3,59.9z"/>
	<path fill="#A7A7A7" d="M49,17.3c0-0.5-0.3-1-0.8-1.3c-0.2-0.1-0.3-0.3-0.3-0.5c0-0.2,0.1-0.2,0.2-0.1c0.2,0.2,0.4,0.5,0.6,0.6
		c0.3,0.1,0.5,0.1,0.7-0.1c0.8-0.9,1.8-1.3,2.9-1.3c0.7,0,1.2-0.2,1.8-0.4c0.2-0.1,0.4-0.2,0.7-0.1c0.3,0,0.7-0.1,0.9,0.2
		c0,0,0,0,0,0c-1.3,0.5-2.7,0.7-4,0.9c-1.1,0.2-2.2,0.5-2.5,1.8C49.2,17,49.3,17.3,49,17.3z"/>
	<path fill="#8E8E8E" d="M33.2,22.6c-0.1,1.3-0.7,2.3-1.2,3.5c-0.3,0.8-0.7,1.5-1.1,2.3c-0.3-0.1-0.4,0.1-0.5-0.1
		c0.2-0.4,0.3-0.9,0.5-1.3c0.3-0.6,0.6-0.9,0.7-1.5c0.1-0.5,0.3-1.1,0.5-1.5c0.2-0.5,0.4-0.9,0.6-1.4c0.1-0.3,0-0.5,0.3-0.8
		C33.4,22,33.2,22.3,33.2,22.6z"/>
	<path fill="#6B6B6B" d="M33.2,18.9c0.9-0.9,1.1-2.3,2.4-2.9c0.2-0.1,0.2,0,0.3,0.2c0.2,0.5,0.5,0.5,0.9,0.2
		c0.3-0.3,0.6-0.6,0.9-0.8c0.6-0.4,1.2-0.5,1.8-0.7c0.1-0.1,0.2,0,0.3,0.2c0,0.1,0,0.2-0.1,0.3c-0.8,0.3-1.7,0.5-2.3,1.1
		c-0.6,0.7-1.4,1.4-2,2.1c-0.1,0.1-0.2,0.2-0.3,0.3c-0.3-0.2-0.4-0.4-0.2-0.7c0.1-0.1,0.3-0.2,0.3-0.4c-0.2,0.2-0.5,0.4-0.4,0.8
		c0.1,0.3-0.2,0.4-0.4,0.5c-0.2,0.1-0.3-0.1-0.4-0.1c-0.2,0-0.3,0.2-0.6,0.2C33.3,19,33.2,18.9,33.2,18.9z"/>
	<path fill="#A5A5A5" d="M46,14.2c-0.6-0.4-1.3-0.7-1.9-1.1c-0.3-0.2-0.7,0-1.1,0c-0.4,0-0.7-0.1-1.1-0.2c-0.2-0.1-0.3,0.1-0.5,0.2
		c-0.5,0.2-0.7,0-0.6-0.5c0.5-0.3,1-0.2,1.5-0.2c0.5,0,0.9,0,1.4,0c0.2,0,0.4,0,0.6,0.1c0.6,0.6,1.5,0.8,2.1,1.4
		C46.5,14,46.4,14.2,46,14.2z"/>
	<path fill="#888888" d="M35.1,34.3c0,0.1,0,0.2,0,0.4C35.1,34.8,35,35,34.8,35c-0.2,0-0.2-0.2-0.2-0.3c0-0.2-0.1-0.5-0.2-0.7
		c-0.2-1.2-0.1-2.4,0-3.6c0.1-0.4,0.1-0.9,0.1-1.4c0.1-0.2,0-0.5,0.1-0.6c0.1-0.2,0.1-0.5,0.5-0.4c0.1,1.2,0,2.4,0,3.6
		c-0.2,0.3-0.2,0.7-0.1,1C35.2,33.1,35.1,33.7,35.1,34.3z"/>
	<path fill="#9C9C9C" d="M50.4,33.5c-0.1,1,0.5,1.9,0.9,2.8c0.2,0.5,0.3,1,0,1.5c-0.2,0.5,0.1,1.1,0.1,1.6c0,0.9,0.1,1.9,0.2,2.8
		c-0.1,0.1-0.2,0.1-0.2,0c-0.2-1.4-0.4-2.7-0.6-4.1c0-0.2-0.1-0.5-0.2-0.7c-0.1-0.2-0.1-0.4,0.2-0.5c0.7-0.2,0.4-0.7,0.2-0.9
		c-0.7-0.6-0.5-1.6-0.9-2.3c0-0.1,0-0.2,0-0.3C50.1,33.5,50.1,33.2,50.4,33.5z"/>
	<path fill="#A4A4A4" d="M45.9,22.4c-0.2,2.8-0.4,5.5-0.6,8.3c-0.1,0.2,0,0.4-0.1,0.6c-0.3-0.2-0.1-0.5-0.2-0.6
		c0.1-0.9,0-1.8,0.1-2.8c0.1-1,0.4-2.1,0.2-3.1c0-0.1,0-0.3,0-0.3c0.3-0.5,0.3-1,0.2-1.6c0-0.3,0-0.7,0.2-1
		C45.9,22,45.7,22.3,45.9,22.4z"/>
	<path fill="#8E8E8E" d="M26.1,39.9c1.1,1.5,1.3,3.2,1.3,5c0,0.4-0.2,1-0.5,0.9c-0.4-0.1-0.3-0.6-0.3-1c0.2-1.4,0.1-2.8-0.7-4
		c-0.1-0.2-0.2-0.4-0.5-0.2C25.3,40.1,25.4,39.9,26.1,39.9z"/>
	<path fill="#808080" d="M71.9,10c1.1-0.3,2.1,0.1,2.7,1.1c0.2,0.4,0.4,0.8,0.9,0.9c0.3,0.1,0.4,0.5,0.4,0.9c0,0.2-0.1,0.3-0.3,0.1
		c-0.5-0.3-0.9-0.5-1.2-1.1c-0.3-0.9-1.6-1.5-2.6-1.4c-0.2,0-0.3,0.1-0.3,0.3c0,0.2,0,0.4,0,0.6c0,0.1,0.1,0.3-0.1,0.4
		c-0.2,0.1-0.3-0.1-0.3-0.2c0-0.1-0.1-0.2-0.2-0.2c-0.2-0.3,0-0.7-0.3-1c0.2-0.3,0.5-0.3,0.9-0.3C71.8,10.1,71.9,10.2,71.9,10z"/>
	<path fill="#828282" d="M27.6,28.4c-1.1,2-2.3,3.8-3.1,6c-0.4,0-0.5-0.2-0.5-0.6c0.3-0.9,1-1.6,1.4-2.5c0.6-1.2,1.2-2.3,1.9-3.4
		C27.7,27.8,27.6,28.1,27.6,28.4z"/>
	<path fill="#A2A2A2" d="M18.2,58.2c1.8-0.7,3.6-1.1,5.4-1.2c0.3,0,0.5-0.1,0.8-0.1c0.2,0.1,0.4,0.2,0.4,0.4
		c-0.5,0.3-1.1,0.2-1.6,0.2c-1.2,0.1-2.2,0.8-3.3,0.8c-0.4,0-0.7,0.2-1.1,0.3C18.5,58.6,18.2,58.6,18.2,58.2z"/>
	<path fill="#9A9A9A" d="M10.9,58.6c1.7-0.4,3.4-0.2,5-0.5c0.2,0.2,0.3,0.3,0,0.4c-0.2,0.1-0.4,0.1-0.5,0.3C15,59,14.6,59,14.2,59
		c-1,0-2,0.3-3,0c-0.1,0.1-0.2,0-0.3,0c-0.1-0.1-0.3-0.1-0.3-0.3C10.5,58.5,10.8,58.7,10.9,58.6z"/>
	<path fill="#939393" d="M44.5,41.4c-0.2-0.9-0.1-1.9-0.7-2.7c-0.1-0.1-0.1-0.2,0-0.3c0.1-0.1,0.2,0,0.3,0c0.4,0.2,0.5-0.1,0.4-0.3
		c-0.1-0.7,0.2-1.3,0.2-2c0.3,0,0.2,0.2,0.3,0.4c0.2,0.6-0.1,1.2-0.1,1.9c0,0.4,0,0.6,0.5,0.3c0.1,0.8-0.7,1.2-0.6,1.9
		c0.1,0.5,0,1.1,0,1.7C44.4,41.9,44.6,41.6,44.5,41.4z"/>
	<path fill="#8A8A8A" d="M67.3,10.8c0.1-0.1,0.2-0.2,0.2-0.2c0.3,0,0.4,0.1,0.3,0.4c-0.1,0.1,0,0.5-0.1,0.6
		c-0.1,0.1-0.3,0.2-0.3,0.1c-0.1-0.6-0.3-0.2-0.3-0.2c-0.1,0.3,0.3,0.3,0.4,0.4c0.7,0.6,1.2,1.5,1.8,2.2c0.1,0.2,0.2,0.4,0.1,0.5
		c-0.2,0.2-0.3-0.1-0.4-0.2c-0.6-1.1-1.6-1.7-2.7-2.4c-0.1,0-0.1-0.1-0.2-0.2c0-0.6,0.5-0.8,0.9-1C67.1,10.9,67.2,10.9,67.3,10.8z"
		/>
	<path fill="#7B7B7B" d="M23,46.1c-0.4-0.8,0.1-1.4,0.4-2c0.4-0.9,0.7-1.8,1.3-2.6c0.3,0.1,0.1,0.3,0.2,0.5
		c-0.3,0.6-0.3,1.2-0.6,1.8c-0.3,0.8-0.6,1.5-1,2.3c-0.1,0.1-0.1,0.3-0.3,0.2C22.9,46.3,22.9,46.2,23,46.1z"/>
	<path fill="#929292" d="M70.3,38.8c0,0-0.1,0.1-0.1,0.2c-0.4,0.2-0.5,0.5-0.6,0.9c-0.3,1.1-1.1,1.9-1.6,2.9
		c-0.2,0.4-0.4,0.8-0.7,1.3c-0.1,0.2-0.3,0.3-0.4,0.2c-0.2-0.1,0-0.3,0.1-0.4c0.6-1.1,1.3-2.2,1.8-3.3c0.3-0.6,0.3-1.3,0.9-1.7
		c0.2-0.1,0.3-0.2,0.5-0.2C70.2,38.6,70.3,38.7,70.3,38.8z"/>
	<path fill="#979797" d="M35.1,28c-0.2,0.4-0.4,0.7-0.6,1.1c0-0.9,0-1.8,0-2.6c0.1-0.4,0.1-0.8-0.2-1.2C34,24.6,34.2,24,34,23.4
		c0.1-0.1,0-0.4,0.3-0.4c0.3,0,0.2,0.3,0.3,0.4c0.1,0.1-0.1,0.4,0.2,0.5C35,25.2,35.2,26.6,35.1,28z"/>
	<path fill="#9E9E9E" d="M69.8,32.1c1.1,0.4,2,1.2,3,1.8c0.4,0.3,1,0.5,1.3,1c0,0.3-0.2,0.4-0.4,0.3c-0.8-0.5-1.6-1-2.3-1.6
		c-0.3-0.2-0.7-0.4-1-0.6c-0.1-0.1-0.2,0-0.3,0.1c-0.1,0-0.1,0-0.2,0C69.8,32.8,69.4,32.4,69.8,32.1z"/>
	<path fill="#616161" d="M29.1,31.6c0,0,0,0.1,0,0.1c-0.5,1-0.9,2.1-1.4,3.1c-0.1,0.2-0.2,0.3-0.3,0.5c-0.1,0.1-0.1,0.4-0.3,0.4
		c-0.2,0-0.1-0.2-0.1-0.4c0.2-0.6,0.5-1.2,0.5-1.9c0-0.2,0.2-0.3,0.3-0.5c0.4-0.7,0.7-1.4,0.9-2.2c0.1-0.3,0.1-0.6,0.3-0.8
		c0.1-0.1,0.2-0.3,0.4-0.2c0.2,0.1,0.2,0.2,0.1,0.4c-0.1,0.3-0.1,0.6-0.3,0.8C29.3,31.1,29.2,31.3,29.1,31.6z"/>
	<path fill="#9B9B9B" d="M40.9,12.5c0.2,0.6,0.7,0.2,1.1,0.4c-0.4,0.4-0.8,0.4-1.3,0.4c-0.8,0.1-1.7,0-2.4,0.6
		c-0.2,0-0.3,0.2-0.5-0.1c-0.1-0.2,0-0.3,0.2-0.4c0.1-0.1,0.1-0.1,0.2-0.2C38.9,12.2,39.9,12.3,40.9,12.5z"/>
	<path fill="#888888" d="M51.3,42.2c0.1,0,0.2,0,0.2,0c0.1,0.5,0.2,1,0.2,1.5c0,0.4,0.4,0.6,0.5,1c0.1,0.7-0.1,1.2-0.1,1.9
		c0.1,0.3,0.1,0.6,0,0.9c0,0.3-0.2,0.2-0.3,0c-0.3-1.6-0.5-3.3-0.8-4.9C51.1,42.5,51.2,42.4,51.3,42.2z"/>
	<path fill="#9E9E9E" d="M71.4,28.8c0.8,1.1,1.9,1.9,3.1,2.5c0.3,0.1,0.5,0.4,0.7,0.6c0.1,0.1,0.1,0.3,0,0.4
		c-0.2,0.4-0.2,0.3-0.3,0.1c-0.8-0.8-1.9-1.4-2.8-2c-0.4-0.3-0.7-0.7-1.1-1C70.9,29,70.9,28.8,71.4,28.8z"/>
	<path fill="#7F7F7F" d="M57,56.9c-0.6-0.2-1.2-0.3-1.6-0.8c-0.1-0.1,0-0.1-0.4-0.7c-0.1-0.1-0.5,0.1-0.5-0.1c0-1.1-0.9-2-1.2-2.9
		c0-0.1-0.1-0.4,0.1-0.3c0.4,0.3,0.8,0.7,1,1.1c0.4,1,0.8,1.7,1.9,2.5c0.2,0.1,0.5,0.3,0.7,0.3C57.2,56.3,57.1,56.8,57,56.9z"/>
	<path fill="#989898" d="M44.5,41.4c0.1,0.1,0.1,0.3,0.2,0.4c0,0,0.1,0,0.1,0c0-0.4,0-0.9,0-1.3c0.2,0.8,0.2,1.5,0.1,2.3
		c-0.2,1.7-0.1,3.3-0.2,5c0,0.2,0,0.4-0.1,0.6c-0.2-0.1-0.3-0.2-0.2-0.4c0.1-0.4-0.1-0.7-0.2-1.1c0.2-0.8,0.2-1.7,0.1-2.5
		c0-0.1-0.1-0.3,0-0.4C44.5,43.2,44.5,42.3,44.5,41.4z"/>
	<path fill="#787878" d="M29.1,31.6c0-0.6,0.4-1.1,0.4-1.7c-0.4,0.2-0.4,0.6-0.6,0.9c0.3-0.9,0.5-1.8,0.8-2.8c0.1-0.1,0.3-0.2,0.4,0
		c0,0.1-0.2,0.1-0.2,0.1c0.1,0.2-0.2,0.7,0,0.9c0.2-0.3,0.4-0.6,0.6-1.2c0.3,0,0.3,0.3,0.3,0.5c-0.4,0.7-0.7,1.4-1.1,2.1
		C29.7,30.9,29.3,31.2,29.1,31.6z"/>
	<path fill="#7E7E7E" d="M39.7,14.9c-0.8,0.3-1.6,0.5-2.3,1.1c-0.3,0.2-0.4,0.5-0.7,0.8c-0.2,0.2-0.5,0.6-0.8,0
		c-0.1-0.3-0.3-0.1-0.5-0.1c0-0.3,0.4-0.4,0.2-0.7c0.1-0.1,0.2-0.2,0.4-0.2c0.4,0.1,0.7,0,0.8-0.4c0.1-0.2,0.1-0.3,0.3-0.4
		c0.2,0,0,0.6,0.1,0.5c0.5-0.5,1.8-0.8,2.5-0.9c0.1,0,0.1,0.1,0.1,0.1C39.9,14.8,39.8,14.9,39.7,14.9z"/>
	<path fill="#939393" d="M65.4,19.1c-0.1,0.3-0.4,0.3-0.6,0.3c-0.5-0.5-0.8-1-0.9-1.7c0-0.4-0.4-0.7-0.5-1.1
		c0.1-0.2,0.5-0.1,0.6-0.3C64.7,17.2,64.9,18.2,65.4,19.1z"/>
	<path fill="#7E7E7E" d="M33.3,19c0.2-0.2,0.4-0.5,0.7-0.5c0.1,0.1-0.1,0.4,0.2,0.4c0.1-0.1,0.3-0.2,0.3-0.4
		c-0.1-0.5,0.2-0.9,0.5-1.2c0.2-0.3,0.4-0.3,0.6-0.1c0.3,0.2,0.2,0.4,0,0.6c-0.2,0.2-0.3,0.4-0.5,0.6c-0.2,0.1-0.3,0.3-0.1,0.6
		c-0.1,0.1-0.2,0.2-0.2,0.3c-0.3,0.1-0.4,0.3-0.5,0.6c-0.2,0.3-0.4,0.2-0.8,0.1c-0.2,0-0.4,0.2-0.5,0.3C33,19.5,33.2,19.3,33.3,19z"
		/>
	<path fill="#D8D8D8" d="M73.6,61.6c-0.6,0.3-1.1-0.2-1.6-0.4c-0.3-0.1-0.7-0.2-1.1-0.4c-0.1,0-0.2-0.1-0.3,0
		c-0.8,0.3-1.7,0.4-2.4,0.8c-0.2,0.1-0.5,0.2-0.7,0.1c0.7-1.1,3.5-1.4,5.3-0.7c0.1,0.3,0.4,0.3,0.6,0.5
		C73.6,61.4,73.6,61.5,73.6,61.6z"/>
	<path fill="#868686" d="M72.4,43.9c-0.1-0.1-0.1-0.1-0.2-0.2c0.2-0.5,0.2-1-0.3-1.4c-0.4-0.3-0.2-0.7-0.3-1.1
		c0.1-0.1,0.1-0.2,0.1-0.3c-0.2-0.7-0.1-0.8,0.6-0.8c0.3,0.2,0.7,0.3,1,0.7c0,0.4-0.1,0.5-0.5,0.4c-0.2-0.1-0.4-0.3-0.6-0.2
		c-0.2,0.2,0,0.4,0.1,0.5c0.5,0.6,0.3,1.4,0.7,2C72.9,44,72.6,43.9,72.4,43.9z"/>
	<path fill="#9F9F9F" d="M72.8,41.3c0.2-0.1,0.4-0.2,0.5-0.4c0.7,0.3,0.9,0.9,1.4,1.4c0.2,0.2,0.3,0.4,0.6,0.7
		c0.3,0.3,0.6,0.8,0.2,1.4C75,42.8,73.7,42.3,72.8,41.3z"/>
	<path fill="#A4A4A4" d="M50,28.4c0-0.3,0-0.7,0.1-1c0.4-1.5,0.4-3,0.5-4.5c0.4,0,0,0.4,0.2,0.4c0-0.2-0.1-0.3,0-0.5
		c0.1,0.2,0.1,0.4,0.1,0.6c-0.2,1.3-0.2,2.7-0.4,4c-0.2,1.2-0.1,2.5-0.1,3.7c-0.1,0.1-0.2,0.1-0.2,0c0,0,0-0.1,0-0.1
		C49.9,30.2,50.2,29.3,50,28.4z"/>
	<path fill="#A8A8A8" d="M3.5,60.6c0.1,0.2,0.2,0.3,0.2,0.5c-1,0.1-1.9,0.4-2.9,0.4c-0.6,0-1-0.4-0.8-0.9c0-0.1,0.1-0.4,0.2-0.4
		c0.1,0,0.2,0.2,0.2,0.4c0,0.5,0.1,0.6,0.7,0.4C1.9,60.8,2.7,60.7,3.5,60.6z"/>
	<path fill="#868686" d="M39.1,55.6c0,0.2-0.2,0.6,0.2,0.4c0.2,0.2-0.1,0.5,0,0.8c-0.5,0.2-1,0.3-1.6,0.4C37.5,57,37.2,57,37,56.6
		c0.2-0.4,0.5-0.8,1-1c0.2,0,0.3-0.1,0.5-0.2C38.7,55.3,38.9,55.2,39.1,55.6z"/>
	<path fill="#838383" d="M40.3,56.5c-0.1,0-0.1,0-0.2,0c-0.1,0-0.3-0.2-0.2-0.3c0.2-0.3,0.1-0.7,0.4-1c0.6-0.6,1.1-1.2,1.7-1.8
		c0.1-0.1,0.2-0.1,0.4,0c-0.2,0.7-0.7,1.2-1.1,1.8c-0.1,0.2-0.4,0.3,0,0.5c0.1,0.3,0,0.4-0.3,0.5C40.7,56.3,40.5,56.4,40.3,56.5z"/>
	<path fill="#969696" d="M39.7,14.9c0-0.1,0.1-0.2,0.1-0.2c0.1-0.6,0.6-0.5,0.9-0.4c0.5,0.1,1.1,0.2,1.6,0.2c0.1,0,0.2,0,0.3,0.1
		c0.2,0.1,0.4,0.1,0.3,0.4c0,0.2-0.2,0.3-0.4,0.3c-0.2,0-0.4,0-0.5,0.1c-0.8-0.3-1.6-0.1-2.4,0C39.7,15.1,39.7,15,39.7,14.9z"/>
	<path fill="#8E8E8E" d="M24.8,57.2c-0.1-0.1-0.8,0.3-0.4-0.4c0.7-0.3,3.5-0.5,4-0.3c-0.1,0.2-0.3,0.2-0.5,0.1c-0.4,0-0.8,0-1.3,0.2
		c0.5,0.2,0.9-0.1,1.4,0.2c-0.3,0.1-0.6,0-0.9,0.2c-0.6,0-1.1,0-1.7-0.1C25.2,57.2,25,57.1,24.8,57.2z"/>
	<path fill="#8F8F8F" d="M43.4,14.9c0.3,0.1,0.5,0.3,0.6,0.5c0.1,0.2,0.3,0.4,0.4,0.5c0.8,0.4,1.1,1,1.3,1.8c0.1,0.2,0.2,0.4,0,0.4
		c-0.2,0.1,0-0.3-0.2-0.3c-0.3-0.8-1.1-1.2-1.7-1.7c-0.3-0.3-0.5-0.5-0.8-0.8C43,15,43.3,15,43.4,14.9z"/>
	<path fill="#BABABA" d="M45,36.5c-0.1-0.1-0.2-0.3-0.3-0.4c-0.1-1.8,0.3-3.6,0.3-5.4c0.1,0.1,0.1,0.2,0.2,0.4
		c0.1-0.1,0.1-0.3,0.2-0.4c-0.1,1.8-0.2,3.6-0.3,5.4C45.1,36.2,45,36.3,45,36.5z"/>
	<path fill="#A0A0A0" d="M77.2,61.1c-0.1-0.1-0.2-0.2-0.4-0.3c-0.3-0.2-0.5-0.4,0-0.7c0.1-0.1,0-0.2,0.1-0.3c0.8,0.1,1.6-0.2,2.4,0
		c0.1,0.4-0.1,0.4-0.4,0.4c-0.2,0-0.6,0-0.5,0.3c0.1,0.3,0.5,0.3,0.7,0.4c0.2,0.1,0.3,0.2,0.2,0.4c-0.1,0.2-0.2,0.2-0.4,0.2
		c-0.3-0.1-0.6-0.1-0.8-0.3C77.8,61.1,77.5,61.1,77.2,61.1z"/>
	<path fill="#9B9B9B" d="M62.4,14.7c0.3-0.8,0.8-1.5,1.6-1.9c0.2-0.1,0.4-0.2,0.5,0.1c-0.6,0.4-1,1-1.4,1.6
		c-0.2,0.2-0.3,0.4-0.1,0.7c0.2,0.3,0.5,0.6,0.6,1c-0.6,0.2-1.1-0.2-1.1-0.8C62.5,15.2,62.7,15,62.4,14.7
		C62.5,14.8,62.5,14.8,62.4,14.7z"/>
	<path fill="#717171" d="M33.6,19.7c0.3,0.2,0.6,0.1,0.7-0.3c0.1-0.2,0.2-0.5,0.5-0.4c-0.4,0.7-0.9,1.3-0.9,2.1
		c0,0.3,0.1,0.5,0.2,0.8c0.1,0.3,0.1,0.5-0.3,0.4c0-0.1,0-0.3-0.2-0.3c-0.2,0-0.2,0.2-0.2,0.3c-0.1,0.1-0.1,0.2-0.2,0.3
		C33,22.3,33,22,33.1,21.7c0.1-0.4,0.1-0.4,0.1-0.8c0-0.1,0.1-0.3,0.2-0.4C33.6,20.2,33.6,20,33.6,19.7z"/>
	<path fill="#707070" d="M62.5,14.8c0.2-0.1,0.3,0.1,0.2,0.2c-0.2,0.6,0.2,0.9,0.7,1c0.1,0,0.1,0.1,0.2,0.1c0.1,0.1,0.2,0.1,0.3,0.2
		c0.1,0.2,0.1,0.4,0.2,0.5c-0.3,0.1-0.6-0.2-0.8-0.3c-0.5-0.5-1.2-0.6-1.8-0.9c-0.2-0.1-0.6-0.2-0.3-0.6c0.4,0.1,0.4,0.1,0.7,0.1
		C62.2,15.4,62.3,15,62.5,14.8z"/>
	<path fill="#666666" d="M24.9,42c-0.2-0.1-0.2-0.3-0.2-0.5c0.2-1,0.5-1.9,1.2-2.6c0.2,0.2,0.1,0.4,0.2,0.6c0,0.1,0.1,0.3,0.1,0.4
		c-0.2,0.2-0.6,0.3-0.6,0.7C25.3,41.1,25.1,41.5,24.9,42z"/>
	<path fill="#A2A2A2" d="M27.6,28.4c0-0.2-0.1-0.4-0.3-0.5c0.4-0.8,0.9-1.7,1.6-2.4c0.2-0.2,0.2-0.7,0.7-0.6l0,0
		C28.9,26,28.3,27.2,27.6,28.4z"/>
	<path fill="#6F6F6F" d="M69.9,33.1c0,0,0.1,0,0.1,0c0.2,1.3,0.4,2.5,0.8,3.8c0.2,0.6,0.2,1.2,0.3,1.9c-0.1,0.2,0.1,0.5-0.2,0.5l0,0
		c-0.2-0.8-0.3-1.6-0.6-2.4c0,0,0-0.1,0-0.1c0-0.4-0.2-0.8-0.2-1.2l0,0c-0.1-0.6-0.4-1.2-0.4-1.9C69.7,33.4,69.7,33.2,69.9,33.1z"/>
	<path fill="#919191" d="M68.4,27.1c-0.1,0.3-0.1,0.3-0.1,0.1c0-0.1-0.1,0-0.2-0.1c-0.1-0.1-0.3-0.6-0.6-0.6c-0.1-0.3,0-0.7-0.1-0.8
		c-0.1-0.1-0.1-0.1-0.1-0.6c0-0.1,0-0.5,0-0.6c0-0.1-0.2,0-0.2-0.1c0-0.3,0.1-0.7,0.2-0.9C67.9,24.6,68,25.9,68.4,27.1z"/>
	<path fill="#A3A3A3" d="M51.9,47.6c0.4-0.2,0.1-0.6,0.2-1c0.2,0.9,0.1,1.8,0.2,2.7c0.1,0.6,0.1,1.3,0.2,1.9c-0.1,0.1,0,0.3-0.2,0.2
		C52,50.2,51.8,48.9,51.9,47.6z"/>
	<path fill="#A7A7A7" d="M75.3,36.1c0.6,0.6,0.7,1.3,0.6,2.1c0,0.2-0.1,0.4-0.3,0.5c-0.1,0.1-0.3,0.3-0.5,0.1
		c-0.1-0.1,0.1-0.2,0.1-0.2c0.4-0.7-0.2-1.3-0.2-1.9C74.9,36.3,75,36.1,75.3,36.1z"/>
	<path fill="#6F6F6F" d="M34.6,57.4c0-0.2-0.1-0.3-0.1-0.5c0.8,0,1.6,0,2.4-0.2c0.3,0.1,0.3,0.3,0.1,0.6c-0.1,0.1-0.2,0.3-0.3,0.3
		C36,57.4,35.3,57.6,34.6,57.4z"/>
	<path fill="#6D6D6D" d="M37.1,15.2c-0.1,0.2-0.1,0.3-0.2,0.6c-0.1,0.3-0.4,0.4-0.6,0.4c-0.3,0-0.3-0.3-0.3-0.5
		c0.5-0.6,1-1.2,1.4-1.8c0.4,0,0.4,0.2,0.3,0.5c0,0,0,0.1,0,0.1C37.5,14.7,37.7,15.3,37.1,15.2z"/>
	<path fill="#AEAEAE" d="M55.9,15.4c0.3,0.1,0.6,0.1,0.9,0.2c-0.5,0.3-1.1,0.2-1.7,0.3c-0.5,0.1-0.8,0.2-1.1,0.7
		c-0.2,0.4-0.6,0.6-0.9,0.9c-0.1,0.1-0.2,0.2-0.3,0.1c-0.1-0.1-0.1-0.2,0-0.2c0.6-0.6,0.9-1.4,1.7-1.9C55,15.6,55.5,15.6,55.9,15.4z
		"/>
	<path fill="#8A8A8A" d="M77.2,61.1c0.2-0.3,0.4-0.2,0.6-0.1c0.3,0.2,0.6,0.3,0.9,0.3c0.1,0,0.3,0.1,0.3-0.1c0-0.1-0.1-0.2-0.2-0.2
		c-0.1-0.1-0.3-0.1-0.4-0.3c0.1-0.1,0.2-0.1,0.2,0c0.4,0.2,0.8,0.3,1.2,0.6c0,0.3,0.2,0.6-0.2,0.7C78.8,61.9,78,61.6,77.2,61.1z"/>
	<path fill="#BABABA" d="M67.8,10.9c0-0.2-0.1-0.3-0.3-0.4c0.8-0.5,1.1-1.3,1.4-2.2c0.3,0.1,0.1,0.3,0.2,0.5
		c-0.1,0.3-0.3,0.5-0.4,0.8c-0.3,0.5-0.7,0.8,0.3,0.7c0.2,0.2,0.6-0.1,0.7,0.2C69.1,10.8,68.4,10.7,67.8,10.9z"/>
	<path fill="#7E7E7E" d="M43.4,14.9c0,0.3-0.2,0.3-0.4,0.4c-0.3,0-0.6,0.1-0.9,0c0.2-0.2,0.7,0,0.7-0.4c-0.1-0.3-0.5-0.3-0.8-0.3
		c-0.7,0-1.4-0.4-2.1,0.1c0,0,0,0,0,0c-0.1-0.1-0.2-0.1-0.1-0.3c0.4-0.4,0.8-0.4,1.3-0.3c0.5,0.1,0.9,0.2,1.4,0.2
		C42.8,14.3,43.1,14.6,43.4,14.9z"/>
	<path fill="#929292" d="M71.1,11.3c0.2-0.2,0.4-0.2,0.4,0.1c0,0.1,0,0.1,0.1,0c0,0,0-0.1,0-0.1c0.3,0.5,0.5,1.1,0.8,1.6
		c0.3,0.5,0.3,0.5-0.1,0.6c-0.2-0.4-0.5-0.7-0.8-1C71.2,12.3,71,11.8,71.1,11.3z"/>
	<path fill="#595959" d="M70.9,39.2c0.1-0.2,0.1-0.3,0.2-0.5c0.1,0.1,0.2,0.2,0.2,0.4c0.1,0.6,0.4,1,1,1.1c-0.4,0.1-0.5,0.4-0.4,0.8
		c0.1,0.2,0.2,0.5-0.3,0.3C71.1,40.7,71.1,39.9,70.9,39.2z"/>
	<path fill="#878787" d="M76.9,59.9c0.2,0,0.3,0.1,0.5,0.1c0.2,0,0.3,0.1,0.3,0.3c0,0.2-0.2,0.2-0.3,0.2c-0.4,0-0.5,0.1-0.5,0.4
		c-0.2,0-0.3-0.1-0.5-0.2c-0.2-0.2-0.4,0-0.6,0c-0.2,0-0.4,0.1-0.6-0.1c0-0.1,0-0.1,0-0.2c0.1-0.3,0.4-0.2,0.6-0.2
		c0.3,0,0.6-0.1,0.8-0.2C76.7,59.9,76.8,59.9,76.9,59.9z"/>
	<path fill="#8A8A8A" d="M33.8,22.3c0.4-0.4,0-0.8,0.1-1.2c0.5,0.8,0.7,1.8,0.8,2.8c0,0.2,0,0.3-0.1,0.6c-0.3-0.3-0.2-0.6-0.2-0.8
		c0-0.3-0.1-0.5-0.5-0.2C33.8,23.1,34,22.7,33.8,22.3z"/>
	<path fill="#8E8E8E" d="M44.1,46.9c0.5,0.4,0.4,1,0.4,1.5c0,0.1,0,0.1,0,0.2c0.2,0.4,0.3,0.7,0,1.1c-0.1,0.1-0.2,0.2-0.2,0.4
		c-0.4,0.1-0.5,0-0.4-0.4C44.1,48.8,44.1,47.8,44.1,46.9z"/>
	<path fill="#989898" d="M18.2,58.2c0.4,0.2,0.8,0.3,1.3,0.1c0.1-0.1,0.3,0,0.4,0c-0.9,0.4-1.8,0.7-2.8,0.4
		c-0.2-0.2-0.8-0.1-0.7-0.4c0.1-0.2,0.6-0.1,0.9-0.1C17.7,58.2,17.9,58.2,18.2,58.2z"/>
	<path fill="#8E8E8E" d="M30,28.1c-0.1-0.1-0.2-0.2-0.3-0.1c0.2-0.6,0.4-1.2,0.3-1.8c0-0.4,0.3-0.5,0.5-0.7c0.2-0.1,0.4-0.7,0.5-0.4
		c-0.1,0.3-0.2,0.6-0.3,0.8c-0.3,0.5-0.3,0.9-0.5,1.4C30.3,27.4,30.1,27.8,30,28.1z"/>
	<path fill="#B7B7B7" d="M75.2,60.5c0.4,0.1,0.8-0.1,1.2,0.1c-0.5,0-0.9,0.1-1.3,0.4c-0.5,0.3-0.9,0.5-1.5,0.5c0,0-0.1,0-0.1,0
		c-0.1-0.3,0.1-0.3,0.2-0.4C74.3,61,74.6,60.4,75.2,60.5z"/>
	<path fill="#747474" d="M40.3,55.3c0.1,0.2-0.1,0.3-0.1,0.5c0.1,0.2,0.3-0.1,0.5,0c0,0.4-0.7,0.2-0.6,0.7c-0.2,0.2-0.5,0.2-0.7,0.2
		c-0.3,0-0.5-0.2-0.5-0.5c0-0.3,0.4-0.1,0.5-0.3C39.7,55.9,40,55.5,40.3,55.3z"/>
	<path fill="#B7B7B7" d="M46,14.2c0.1-0.2,0.2-0.3,0.4-0.5c0.6,0.5,1.6,0.7,1.8,1.7c-0.1,0-0.2,0.1-0.2,0.1
		C47.5,14.8,46.7,14.7,46,14.2z"/>
	<path fill="#686868" d="M33.3,19c0,0.3-0.3,0.6-0.2,1c-0.1,0.4-0.2,0.5-0.3,0.7c-0.2,0.3-0.4,0.5-0.5,1.1c-0.2,0-0.3-0.1-0.3-0.3
		c0.2-1,0.7-1.8,1.2-2.6C33.3,18.9,33.3,18.9,33.3,19z"/>
	<path fill="#7A7A7A" d="M69,29c0.2,0.8,0.6,1.6,0.6,2.5c-0.1,0.1-0.1,0.3-0.3,0.3c-0.5-0.6-0.3-1.3-0.6-1.9c-0.1-0.2,0-0.5-0.1-0.7
		c-0.1-0.1-0.2-0.3,0-0.4C68.8,28.7,68.8,29,69,29z"/>
	<path fill="#8A8A8A" d="M51.1,18.8c0.2-0.3,0.6-0.4,0.9-0.7c0.1-0.1,0.3-0.3,0.5-0.1c0.1,0.1,0.1,0.2,0,0.2
		c-0.6,0.6-1.1,1.3-1.4,2.2c0,0-0.1,0.1-0.2,0.1c-0.3-0.2-0.3-0.4-0.1-0.7C50.8,19.5,50.9,19.2,51.1,18.8z"/>
	<path fill="#9F9F9F" d="M70.6,28.6c-0.4-0.4-0.7-0.8-0.7-1.4c0-0.2,0-0.4,0.2-0.5c0.2-0.1,0.3,0.2,0.3,0.3c0.2,0.4,0.4,0.9,0.6,1.3
		C71,28.6,70.8,28.6,70.6,28.6z"/>
	<path fill="#8D8D8D" d="M32,21.5c0.1,0.1,0.2,0.2,0.3,0.3c-0.1,0.2-0.2,0.4-0.3,0.5c-0.2,0.4-0.2,0.5-0.4,1
		c-0.3,0.9-0.2,0.6-0.5,0.4c0.1-0.4,0.1-0.9,0.2-1.3C31.3,21.9,31.6,21.6,32,21.5z"/>
	<path fill="#929292" d="M23.6,37.8c-0.3,0.5-0.7,1-1.1,1.5C22.2,39.5,22,39.4,22,39c0.6-0.6,1-1.3,1.6-1.9
		C23.9,37.3,23.6,37.6,23.6,37.8z"/>
	<path fill="#B9B9B9" d="M64.6,20.1c0.8,0.1,0.9,0.8,1.2,1.4c0.1,0.3,0.1,0.6,0.1,0.9C65.2,21.7,65,20.9,64.6,20.1z"/>
	<path fill="#9D9D9D" d="M24.4,36.1c0.4-0.4,0.7-0.9,1.2-1.1c0.2-0.1,0.4-0.2,0.5,0c0.1,0.1,0.2,0.3,0.1,0.4c-0.1,0.3-0.3,0.1-0.5,0
		c-0.3,0-0.5,0.1-0.6,0.4c-0.2,0.2-0.3,0.4-0.5,0.7C24.5,36.5,24.4,36.3,24.4,36.1z"/>
	<path fill="#747474" d="M40.3,56.5c0.2-0.3,0.7-0.3,1-0.7c0.4,0.1,0.8,0.3,1.2,0.4c0,0.2,0,0.3,0,0.5C41.7,56.5,41,56.3,40.3,56.5z
		"/>
	<path fill="#A5A5A5" d="M65.4,29.5c0.1,0.1,0.2,0.2,0.2,0.4c-0.2,0.9-0.5,2.5-1,2.4C64.5,31.8,65.2,30.5,65.4,29.5z"/>
	<path fill="#9F9F9F" d="M75.3,36.1c-0.1,0.1-0.2,0.3-0.3,0.5c-0.4-0.5-0.9-1-1.5-1.4c0.2,0,0.3-0.1,0.4-0.3
		C74.5,35.2,75,35.5,75.3,36.1z"/>
	<path fill="#CBCBCB" d="M42.3,53.5c-0.1,0-0.2,0-0.4,0c0.2-0.3,0.3-0.7,0.5-1c0.4-0.2,0.4-0.5,0.3-0.8c0-0.2,0.1-0.4,0.1-0.6
		c0-0.1,0-0.4,0.2-0.3c0.2,0,0.2,0.2,0.2,0.3c-0.1,0.6,0,1.3-0.3,1.9C42.7,53.2,42.6,53.5,42.3,53.5z"/>
	<path fill="#9F9F9F" d="M64.5,13c-0.2-0.1-0.3-0.1-0.5-0.1c0.4-0.5,0.8-0.9,1.2-1.3c0.3,0,0.4,0.2,0.4,0.4
		C65.5,12.5,64.8,12.5,64.5,13z"/>
	<path fill="#ADADAD" d="M17.4,58.2c-0.2,0-0.5,0-0.8,0c0.3,0.1,0.5,0.2,0.5,0.5c-0.6,0-1.1,0-1.7,0.1c-0.2-0.1-0.3-0.3,0-0.4
		c0.2-0.1,0.5,0,0.5-0.3C16.4,58.1,16.9,58,17.4,58.2z"/>
	<path fill="#B7B7B7" d="M10.9,58.6C10.5,59,11,58.9,11.1,59c-0.7,0.1-1.2,0.6-1.8,0.8c0.1-0.2,0.3-0.4,0-0.6
		C9.8,59,10.2,58.5,10.9,58.6z"/>
	<path fill="#8D8D8D" d="M24.4,36.1c0.1,0.1,0.2,0.2,0.3,0.4c-0.3,0.5-0.7,0.9-1.1,1.3c-0.2-0.2-0.1-0.5,0-0.7
		C23.9,36.8,24.1,36.3,24.4,36.1z"/>
	<path fill="#808080" d="M51.1,18.8c0.1,0.3-0.1,0.5-0.2,0.8c-0.1,0.3-0.1,0.5,0,0.8c0,0.3,0.1,0.5,0.1,0.8
		c-0.1,0.1-0.2,0.1-0.3-0.1C50,20.2,50.5,19.5,51.1,18.8z"/>
	<path fill="#7A7A7A" d="M31,23.6c0.2,0,0.1-0.4,0.4-0.2c-0.3,0.5-0.1,0.8-0.3,1.5c0,0.1-0.1,0.3-0.2,0.6c-0.1,0-0.3,0.2-0.4,0
		c0-0.2-0.1-0.5,0.1-0.7c0.2-0.3-0.2-0.7,0.2-1C30.9,23.7,31,23.7,31,23.6z"/>
	<path fill="#616161" d="M71.9,10c0.2,0,0.3,0,0.5,0.1c-0.5,0.3-1.1,0.4-1.7,0.3l0,0c-0.1-0.1-0.4-0.1-0.2-0.4
		C71,9.6,71.5,9.9,71.9,10z"/>
	<path fill="#868686" d="M69,29c-0.1,0-0.3-0.2-0.3,0.1c0,0.2,0,0.5,0,0.7c-0.1-0.5-0.4-1-0.7-1.4c0.2-0.2,0.1-0.9,0.7-0.3
		C68.9,28.5,68.9,28.7,69,29z"/>
	<path fill="#959595" d="M50,28.4c0.1,0.1,0.2,0.2,0.2,0.3c0,0.8,0,1.5-0.1,2.3C49.7,30.2,49.9,29.3,50,28.4z"/>
	<path fill="#737373" d="M34.4,34c0.4,0,0.3,0.3,0.3,0.5c0,0.3,0.1,0.3,0.4,0.2c0,0.2,0.1,0.5,0.1,0.7c0,0.2-0.1,0.4-0.3,0.4
		c-0.2,0-0.2-0.2-0.3-0.3C34.6,35,34.5,34.5,34.4,34z"/>
	<path fill="#636363" d="M69.3,31.8c0.1-0.1-0.2-0.6,0.3-0.3c0.1,0.2,0.1,0.3,0.2,0.5c0,0.3,0.1,0.7,0.1,1c0,0.2-0.1,0.3-0.1,0.5
		c-0.5-0.2-0.2-0.7-0.3-1.1C69.3,32.3,69.3,32.1,69.3,31.8z"/>
	<path fill="#8D8D8D" d="M69.2,8.9C69,8.8,69,8.6,69,8.4c0.1-0.3,0.2-0.6,0.3-0.8c0.1-0.1,0.2-0.3,0.4-0.2c0.2,0.1,0.2,0.3,0.1,0.4
		C69.6,8.2,69.4,8.5,69.2,8.9z"/>
	<path fill="#4F4F4F" d="M26,39.5c-0.1-0.2-0.1-0.4-0.2-0.6c0-0.4,0.1-0.8,0.2-1.2c0.1-0.1,0.1-0.4,0.3-0.4c0.2,0,0.2,0.2,0.2,0.4
		C26.3,38.3,26.4,38.9,26,39.5z"/>
	<path fill="#B0B0B0" d="M45.5,17.8c0.1,0,0.1,0.2,0.2,0.1c0,0,0-0.1,0-0.2c0.4,0.5,0.3,1.2,0.5,1.8c0,0.2,0.2,0.5-0.1,0.6
		C45.9,19.3,45.6,18.6,45.5,17.8z"/>
	<path fill="#B8B8B8" d="M48,18.7c0-0.1-0.1-0.4,0.1-0.5c0.1,0,0.2,0.3,0.2,0.4c0.1,0.4,0.2,0.8,0.4,1.1c0.1,0.1,0.1,1,0,1
		c-0.2,0.1-0.2-0.8-0.3-0.8C48.1,19.6,48.1,19.2,48,18.7z"/>
	<path fill="#9F9F9F" d="M45.9,22.4c-0.2-0.1-0.2-0.3-0.3-0.5c0-0.4-0.2-0.7-0.3-1.1c-0.1-0.2-0.1-0.5,0.1-0.5
		c0.2,0,0.3,0.2,0.3,0.4C45.8,21.3,46,21.9,45.9,22.4z"/>
	<path fill="#808080" d="M21.1,41c-0.1,0.2-0.2,0.3-0.3,0.5c-0.1,0.2-0.2,0.3-0.3,0.5c-0.1,0-0.3,0.1-0.4,0.1
		c-0.3,0.1-0.3-0.1-0.2-0.3c0.2-0.4,0.5-0.6,0.8-0.9C20.8,40.8,21,40.8,21.1,41z"/>
	<path fill="#6A6A6A" d="M67.3,10.8c-0.2,0.2-0.6,0.6-0.8,0.7c-0.1,0.1-0.3,0.2-0.4,0.4c-0.1-0.1-0.1-0.1-0.2-0.2
		c-0.3-0.3,0.2-0.4,0.1-0.6C66.4,11,66.8,10.8,67.3,10.8z"/>
	<path fill="#747474" d="M35.1,34.3c-0.1,0-0.2,0.1-0.2-0.1c0.1-0.7,0-1.3,0-2c0-0.3,0-0.5,0.2-0.7c0,0.6,0.1,1.3,0.1,1.9
		C35.3,33.7,35.3,34.1,35.1,34.3z"/>
	<path fill="#696969" d="M26.6,37.7c-0.2-0.4-0.3-0.1-0.5,0c0.1-0.4,0.2-0.7,0.2-1.1c0.1-0.1,0.1-0.2,0.2-0.4
		c0.1-0.1,0.2-0.2,0.4-0.1c0.1,0.1,0.1,0.2,0,0.4C26.8,36.9,26.7,37.3,26.6,37.7z"/>
	<path fill="#7C7C7C" d="M52.3,51.5c0.1-0.1,0.2-0.2,0.2-0.2c0.2,0.5,0.4,1.9,0.1,1.9C52.1,53.2,52.3,51.9,52.3,51.5z"/>
	<path fill="#B3B3B3" d="M50.8,21.2c0-0.3,0-0.5,0-0.8c0,0,0.1,0,0.1,0c0,0.2-0.2,1.1,0.4,0.3c0.3-0.2,0.4,0,0.6,0.2
		c0.1,0.1,0,0.5-0.1,0.4c-0.4-0.5-0.7,0-0.9,0.3C50.7,21.5,50.7,21.4,50.8,21.2z"/>
	<path fill="#A6A6A6" d="M43.9,49.7c0.1,0.2,0.2,0.3,0.4,0.4c-0.2,0.3-0.2,0.7-0.4,1.1c-0.1,0.1-0.1,0.1-0.1,0.2
		c0,0.1,0,0.3-0.1,0.3c-0.1,0-0.1-0.2-0.2-0.2c-0.1-0.1-0.3-0.3-0.1-0.4C43.7,50.6,43.8,50.1,43.9,49.7z"/>
	<path fill="#8D8D8D" d="M69.5,32.5c0.1,0.4,0.1,0.8,0.3,1.1c0.1,0.6,0.2,1.3,0.2,1.9C69.6,34.6,69.3,33.6,69.5,32.5z"/>
	<path fill="#949494" d="M70.5,10c0.1,0.1,0.2,0.2,0.2,0.4c-0.3,0.1-0.6,0.2-0.9,0.2c-0.3,0-0.6,0.1-0.7-0.2
		C69.6,10.3,70,9.9,70.5,10z"/>
	<path fill="#B7B7B7" d="M50.1,31.2c0.1,0,0.2,0,0.2,0c0.2,0.8-0.1,1.5,0,2.3c-0.2-0.1-0.3,0-0.4,0.1C50.3,32.8,49.9,32,50.1,31.2z"
		/>
	<path fill="#AEAEAE" d="M65.2,39.2c0,0.1,0.1,0.2,0.1,0.4c-0.1,0.3-0.2,0.6-0.4,0.9c-0.1,0.1-0.2,0.2-0.4,0.2
		c-0.2-0.1-0.1-0.2,0-0.4C64.7,39.9,64.9,39.5,65.2,39.2z"/>
	<path fill="#767676" d="M39.1,55.6c-0.4,0-0.7,0.2-1.1,0.1c0.1-0.1,0.3-0.2,0.4-0.4c0.1-0.3,0.3-0.5,0.6-0.4
		C39.2,55,39.2,55.3,39.1,55.6z"/>
	<path fill="#BABABA" d="M30.9,23.8c0,0.3,0,0.7-0.2,1c0-0.3-0.1-0.5-0.4-0.3c-0.2,0.1-0.4,0.3-0.7,0.4c0,0,0,0,0,0
		C29.8,24.2,30.3,23.9,30.9,23.8z"/>
	<path fill="#939393" d="M21.1,41c-0.2,0-0.3-0.1-0.5-0.1c0.3-0.4,0.5-0.8,0.8-1.1c0.2,0,0.4,0,0.5,0.3C21.6,40.4,21.4,40.7,21.1,41
		z"/>
	<path fill="#747474" d="M24,33.7c0,0.3,0.6,0.2,0.5,0.6c-0.1,0.1-0.1,0.3-0.2,0.4c-0.1,0.2-0.3,0.1-0.5,0.1
		c-0.2-0.1-0.2-0.2-0.1-0.4C23.8,34.2,23.9,34,24,33.7z"/>
	<path fill="#868686" d="M37.7,14.4c0-0.2-0.1-0.4-0.3-0.5c0.1-0.4,0.4-0.7,0.8-0.8c0.2,0.1,0,0.2,0,0.3c-0.3,0.3,0,0.3,0.2,0.4
		C38.1,14,37.9,14.2,37.7,14.4z"/>
	<path fill="#646464" d="M39.7,14.4c0,0.1,0.1,0.2,0.1,0.3c-0.7,0.2-1.5,0.4-2.2,0.7c-0.1-0.3,0.2-0.5,0.4-0.7
		C38.6,14.6,39.1,14.6,39.7,14.4z"/>
	<path fill="#7F7F7F" d="M21.9,40.1c-0.2,0-0.4,0-0.5-0.3c0.1-0.3,0.5-0.5,0.6-0.8c0.1,0.2,0.3,0.3,0.5,0.3
		C22.3,39.5,22.1,39.8,21.9,40.1z"/>
	<path fill="#707070" d="M72.4,43.9c0.1-0.3,0.4-0.3,0.6-0.3c0.1,0.6,0.6,0,0.5,0.7c-0.1,0.2-0.6,0.2-0.6,0.4
		c-0.1,0.1-0.1,0.2-0.2,0.1C72.5,44.6,72.7,44.2,72.4,43.9z"/>
	<path fill="#A9A9A9" d="M44.5,49.7c0-0.4-0.1-0.7,0-1.1c0.2,0.2,0.5-0.3,0.6-0.1c0.2,0.3-0.1,0.6-0.3,0.8
		C44.7,49.5,44.6,49.6,44.5,49.7z"/>
	<path fill="#919191" d="M50.8,21.2c0,0.1,0.1,0.2,0.1,0.4c-0.1,0.4-0.1,0.9-0.1,1.3c0,0.2,0,0.3-0.1,0.5c-0.1-0.2-0.1-0.4-0.2-0.5
		c-0.1-0.6,0-1.2,0-1.8C50.7,21.2,50.8,21.2,50.8,21.2z"/>
	<path fill="#878787" d="M70.3,36.8c0.2,0.1,0.3,0.3,0.3,0.6c0,0.6,0.3,1.2,0.2,1.8C70.7,38.4,70.2,37.7,70.3,36.8z"/>
	<path fill="#8F8F8F" d="M49.4,20.1c-0.2,0-0.2-1-0.4-1.4c0-0.1,0-0.3,0.1-0.4c0.1-0.1,0.2,0,0.2,0.1C49.7,18.8,49.7,20.1,49.4,20.1
		z"/>
	<path fill="#A8A8A8" d="M72.3,13.6c0.3-0.1,0.1-0.4,0.1-0.6c0.3,0.3,0.7,0.5,1,0.8c0.1,0.1,0.2,0.2,0.1,0.3c-0.1,0.1-0.2,0-0.3,0
		C72.9,13.9,72.6,13.7,72.3,13.6z"/>
	<path fill="#7F7F7F" d="M27,36.5c-0.3-0.5-0.4,0.1-0.6,0.1c0.2-0.5,0.4-1,0.7-1.4c0.1,0.4,0.2,0.2,0.4,0
		C27.4,35.7,27.2,36.1,27,36.5z"/>
	<path fill="#ADADAD" d="M78.4,60.7C78.4,60.7,78.5,60.7,78.4,60.7c-0.1-0.2-0.3-0.3-0.2-0.5c0.1-0.2,0.3,0,0.4,0
		c0.3,0,0.5,0,0.6-0.4c0.1,0,0.2,0,0.2,0c0.2,0.2,0.5,0.3,0,0.5C79.2,60.5,78.5,60.1,78.4,60.7z"/>
	<path fill="#B9B9B9" d="M52.4,18.2c-0.1-0.3-0.3-0.1-0.5-0.1c0.2-0.4,0.6-0.7,1-0.9c0.1,0.2,0.2,0.2,0.3,0.1
		C53,17.8,52.7,18,52.4,18.2z"/>
	<path fill="#C7C7C7" d="M46.2,20.1c0.1-0.2,0.1-0.4,0.1-0.6c0.2,0.5,0.2,1.1,0.5,1.6c0.1,0.1,0.1,0.2-0.1,0.3
		c-0.1,0.1-0.2-0.1-0.2-0.2C46.3,20.8,46.3,20.4,46.2,20.1z"/>
	<path fill="#C3C3C3" d="M23,46.1c0.1,0.2,0.2,0.1,0.4,0c-0.2,0.3-0.4,0.7-0.6,1c-0.1,0.1-0.1,0.2-0.3,0.2c-0.1-0.1-0.1-0.2,0-0.3
		C22.7,46.7,22.7,46.3,23,46.1z"/>
	<path fill="#686868" d="M37.1,57.3c0-0.2-0.2-0.3-0.1-0.6c0,0,0.1-0.1,0.1-0.1c0.4-0.1,0.7,0,0.8,0.5
		C37.6,57.3,37.3,57.2,37.1,57.3z"/>
	<path fill="#9B9B9B" d="M61.5,15.3c0,0.2,0,0.3,0.1,0.5c-0.2,0-0.3,0-0.5-0.1c-0.3-0.1-0.6-0.1-0.8-0.3c-0.3-0.2-0.6-0.2-0.4-0.5
		C60.4,15.1,61,15.2,61.5,15.3z"/>
	<path fill="#ADADAD" d="M73.8,61.1c-0.1,0.1-0.2,0.3-0.2,0.4c-0.2,0-0.5-0.1-0.7-0.2c-0.3-0.2-0.1-0.3,0.1-0.4
		C73.2,61,73.5,61,73.8,61.1z"/>
	<path fill="#C6C6C6" d="M72.7,44.9c0.1,0,0.1-0.1,0.2-0.1c0.1,0.3,0.2,0.5,0.2,0.8c0,0.1,0,0.6-0.2,0.7c-0.2,0-0.2-0.4-0.2-0.6
		C72.7,45.4,72.7,45.1,72.7,44.9z"/>
	<path fill="#AFAFAF" d="M42.7,51.7c0.3-0.2,0.2,0.1,0.2,0.2c0,0.3,0,0.6-0.3,0.8c-0.1,0.1-0.2-0.1-0.2-0.2
		C42.4,52.2,42.6,52,42.7,51.7z"/>
	<path fill="#AEAEAE" d="M70.6,28.6c0.1-0.1,0.3-0.2,0.4-0.3c0.2,0.1,0.3,0.3,0.4,0.5c-0.1,0.2-0.3,0.3-0.4,0.5
		C70.7,29.1,70.6,28.9,70.6,28.6z"/>
	<path fill="#4F4F4F" d="M65.9,11.2c0.3,0.3-0.1,0.4-0.1,0.6c-0.1,0.1-0.1,0.1-0.2,0.2c-0.2,0-0.4-0.2-0.4-0.4
		C65.3,11.2,65.7,11.3,65.9,11.2z"/>
	<path fill="#707070" d="M72,42.4c0.3,0,0.7,0.7,0.5,1c-0.1,0.1-0.2,0.3-0.2,0.4C72.2,43.3,72.1,42.8,72,42.4z"/>
	<path fill="#989898" d="M55.9,15.4c-0.3,0.4-0.9,0.3-1.3,0.4c-0.2,0,0-0.2,0-0.3c0.3,0,0.5,0,0.8-0.1
		C55.5,15.4,55.7,15.4,55.9,15.4z"/>
	<path fill="#8E8E8E" d="M29.6,56.4c0.1,0.1,0.2,0.1,0.3,0.3c-0.6-0.1-1,0.2-1.4-0.2C28.9,56.4,29.2,56.4,29.6,56.4z"/>
	<path fill="#CBCBCB" d="M43.5,51.4c0.3,0.2,0.2-0.2,0.4-0.2c0,0.4-0.1,0.7-0.1,1.1c0,0.1,0,0.2-0.2,0.2c-0.1,0-0.1-0.1-0.1-0.2
		C43.5,51.9,43.5,51.6,43.5,51.4z"/>
	<path fill="#818181" d="M34.3,25.2c0.4,0.2,0.5,0.7,0.2,1.2C34.4,26,34.3,25.6,34.3,25.2z"/>
	<path fill="#848484" d="M49,17.3c0-0.2,0-0.3,0.1-0.5c0-0.1,0.1-0.2,0.2-0.1c0.1,0,0.1,0.2,0.1,0.2c0,0.2,0,0.3,0,0.5
		c0,0.1-0.2,0.5-0.3,0.4C49,17.8,49,17.4,49,17.3z"/>
	<path fill="#A0A0A0" d="M60.1,15c0.2,0.4,0.7,0.3,1,0.7c-0.4,0-0.8-0.1-1.2-0.4c0-0.1,0-0.3,0-0.4C59.9,14.9,60,14.9,60.1,15z"/>
	<path fill="#797979" d="M65.6,22.6c0,0.1,0,0.3,0,0.4c-0.3-0.2-0.3-0.2-0.6,0.2c0-0.3,0-0.5,0-0.7C65.2,22.4,65.4,22.4,65.6,22.6z"
		/>
	<path fill="#787878" d="M68,34.4c-0.3-0.5,0.1-0.8,0.3-1.3c0,0.3,0,0.4,0,0.6C68.2,34,68.1,34.2,68,34.4z"/>
	<path fill="#717171" d="M79.6,62.1c0-0.3,0.1-0.5,0.2-0.7c0.2,0.2,0.3,0.5,0.1,0.7C79.9,62.2,79.7,62.1,79.6,62.1z"/>
	<path fill="#929292" d="M55.9,14.1c-0.3-0.1-0.6-0.1-0.9-0.2c0.1-0.1,0.3-0.2,0.4-0.1C55.6,13.8,55.8,13.8,55.9,14.1z"/>
	<path fill="#797979" d="M70.1,35.5c0.1,0.4,0.4,0.8,0.2,1.2C70.1,36.3,69.9,36,70.1,35.5z"/>
	<path fill="#979797" d="M20.4,42c-0.4-0.5,0.1-0.4,0.3-0.5C20.7,41.8,20.7,42,20.4,42z"/>
	<path fill="#ADADAD" d="M80.6,60c0,0.2,0,0.4-0.2,0.3c-0.1,0-0.2,0-0.2-0.1C80.2,59.9,80.4,60,80.6,60C80.6,60,80.6,60,80.6,60z"/>
	<path fill="#4B4B4B" d="M34.3,18.8c0,0.1-0.1,0.3-0.3,0.2c-0.3-0.2-0.1-0.4,0-0.6C34.2,18.5,34.2,18.7,34.3,18.8z"/>
	<path fill="#8E8E8E" d="M30,28.1c0,0.3-0.2,0.6,0,0.9c0,0.1,0,0.4-0.2,0.4c-0.2,0-0.1-0.3-0.1-0.4C29.7,28.7,29.7,28.3,30,28.1z"/>
	<path fill="#505050" d="M33.3,20.7c0.1,0,0.2,0,0.2,0.1c0.3,0.1,0.3,0.3,0.2,0.5c0,0.1-0.1,0.2-0.1,0.2c-0.2,0-0.2-0.2-0.3-0.4
		C33.3,20.9,33.3,20.8,33.3,20.7L33.3,20.7z"/>
	<path fill="#A0A0A0" d="M65.4,19.1c0.3,0.2,0.5,0.6,0.7,1c0.5,1.1,1,2.3,1.3,3.4c-0.2,0.2-0.2,0.7-0.2,0.9c-0.4-0.7-0.2,0.6,0,1
		c0.2,0.5,0,0.6,0.3,1c0.1,0.2,0.3,1.7,0.7,1.5c0.2,0-0.1-0.9,0-0.9c0.2-0.6,0.6,0.8,0.7,1.2c-0.2,0.1-0.4,0.5-0.7,0.3
		c-0.9-0.8-1.2-1.9-1.3-3c-0.1-1.1-0.2-2.2-0.7-3.2c-0.3-0.8-0.7-1.4-1.1-2.1c0-0.1-0.2-0.1-0.3-0.1c-0.2-0.2,0.1-0.4,0.1-0.6
		C64.9,19.2,65.1,19.2,65.4,19.1z M66.2,21.9c0.1,0.2,0.2,0,0.2-0.1c0-0.1-0.1-0.3-0.2-0.5c0-0.1-0.1,0-0.2-0.1
		c-0.1-0.4-0.3-1-0.4-0.9c-0.1,0.1,0.2,0.6,0.4,0.9C66.1,21.5,66,21.7,66.2,21.9z M66.6,22.9h-0.1v0.2l0.1,0.1v0.1l0.1,0.1
		c0,0-0.1,0.1,0,0.1c0.1,0,0.1,0,0.1,0s0-0.1,0-0.1c0,0,0-0.1,0-0.1c0,0-0.1-0.1-0.1-0.1C66.7,23.1,66.7,23,66.6,22.9L66.6,22.9z"/>
	<path fill="#A5A5A5" d="M64.4,32.5c0.1,0.1,0.2-0.2,0.3,0c0,0.9-0.2,1-0.6,0.8C64,32.5,64.2,33.5,64.4,32.5z"/>
	<g>
		<path d="M78.1,7.6c0,0.4-0.3,0.8-0.8,0.8c-0.6,0-0.7-0.5-0.8-0.7c-0.5,0.3-1.1,0.7-1.6,0.7c-0.4,0-1-0.3-1-0.8
			c0-0.6,0.5-1,1.8-1.6l0.8-0.3V5.4c0-0.6-0.1-1.1-0.9-1.1c-0.3,0-0.8,0.1-0.8,0.4c0,0.2-0.1,0.5-0.4,0.5c-0.2,0-0.3-0.1-0.3-0.3
			c0-0.3,0.4-0.9,1.6-0.9c1.5,0,1.5,0.9,1.5,1.4v1.6c0,0.6,0,0.9,0.3,0.9c0.1,0,0.3-0.1,0.4-0.5H78.1z M76.5,5.9L76,6.1
			c-0.5,0.2-1.3,0.6-1.3,1.3c0,0.3,0.2,0.7,0.6,0.7c0.4,0,1-0.5,1.2-0.6V5.9z"/>
	</g>
</g>
</svg>
