<?xml version="1.0" encoding="utf-8"?>
<!-- Generator: Adobe Illustrator 24.2.0, SVG Export Plug-In . SVG Version: 6.00 Build 0)  -->
<svg version="1.1" id="Layer_1" xmlns="http://www.w3.org/2000/svg" xmlns:xlink="http://www.w3.org/1999/xlink" x="0px" y="0px"
	 viewBox="0 0 65.7 16.9" style="enable-background:new 0 0 65.7 16.9;" xml:space="preserve">
<style type="text/css">
	.st0{fill:#A6A7A7;}
	.st1{fill:#B2B3B4;}
	.st2{fill:#9F9F9F;}
	.st3{fill:#949494;}
	.st4{fill:#919191;}
	.st5{fill:#A8A9A9;}
	.st6{fill:#8E8E8E;}
	.st7{fill:#979797;}
	.st8{fill:#A2A2A2;}
	.st9{fill:#7E7E7E;}
	.st10{fill:#9E9E9E;}
	.st11{fill:#878787;}
</style>
<g id="Layer_2_1_">
	<g id="_12339_draft">
		<path class="st0" d="M48.4,8.2c0.1-0.6-0.2-1.3-0.7-1.7C46.9,5.7,46,5,45,4.4c0,0-0.1-0.1-0.1-0.2c0-0.4,0.2-0.3,0.4-0.3
			c0.2,0.1,0.4,0.2,0.7,0.3c0.8,0.5,1.6,1,2.3,1.6c1.1,1.2,1.8,2.8,2,4.4c-0.3,0.2-0.6,0.3-0.9,0.4c-0.2-0.2-0.3-0.4-0.3-0.7
			C48.8,9.4,48.6,8.8,48.4,8.2"/>
		<path class="st1" d="M45.9,4.4c-0.3,0.1-0.7,0.1-1,0c-0.5-0.2-1-0.5-1.4-0.8c-0.8-0.3-1.6-0.7-2.2-1.3c-0.8-0.1-1.7-0.6-2.6-0.2
			c-0.2,0.1-0.5,0-0.6-0.1C38,1.8,37.9,1.7,38,1.6c0-0.1,0.1-0.2,0.3-0.2c0.6-0.1,1.2-0.4,1.8,0c0.3,0.2,0.7,0.2,1.1,0.2
			c0.5,0,1,0.1,1.5,0.3c0.1,0,0.2,0.1,0.2,0.2c0.2,0.5,0.6,0.8,1.1,1c0.6,0.3,0.8,0.7,1.6,1C45.7,4.1,46,4.1,45.9,4.4"/>
		<path class="st2" d="M49.8,12.4c-0.3-0.3-0.4-0.6-0.4-1c0-0.2-0.1-0.4-0.2-0.6c0.1-0.2-0.2-0.6,0.1-0.7s0.7-0.2,0.8,0.3l0.3,0.8
			c0.1,0.7,0.4,1.3,0.8,1.8c0.3,0.2,0.3,0.7,0.6,1.1l0.6,0.6c-0.1,0.4-0.3,0.3-0.5,0.1c-0.8-0.5-1.5-1.2-2-2.1
			C50,12.5,50,12.4,49.8,12.4"/>
		<path class="st3" d="M49.8,12.4c0-0.1,0-0.2,0-0.3c0.7,1.1,1.6,2,2.8,2.6c0.3,0.1,0.6,0.2,0.9,0.5c0.2,0.2,0.6,0.4,0.9,0.4
			c1.8,0.4,3.7,0.5,5.6,0.2c0,0.1,0.1,0.1,0.1,0.2c0,0.1-0.1,0.2-0.2,0.2c-0.1,0.1-0.3,0.2-0.5,0.2c-0.6-0.1-1.3,0.3-1.9,0.1
			c-0.7,0.1-1.4-0.4-2.2-0.2c0.7-0.2,1.4,0.1,2.1,0c0.7,0.1,1.4,0,2,0c0.3,0,0.5,0.1,0.5,0.4l-0.1,0.1c-0.8,0-1.5,0-2.3,0.1
			c-1.1,0-2.2-0.1-3.2-0.5c-1-0.4-1.9-0.9-2.7-1.5C50.7,14.2,50.1,13.3,49.8,12.4"/>
		<path class="st4" d="M63.8,15c-0.7,0.1-1,0.8-1.7,0.9c-0.3-0.3-0.6,0-0.9-0.1c-0.1-0.1-0.4-0.1-0.5-0.2c0.8-0.4,2-0.9,2.8-1.3
			c0.1,0,0.2,0,0.2,0c0.2,0,0.4-0.1,0.5,0.1s-0.1,0.4-0.2,0.5C63.9,15,63.8,15,63.8,15"/>
		<path class="st5" d="M63.8,15c0.4-0.6,0.4-0.6-0.3-0.8c0.5-0.3,1-0.6,1.6-0.8c0.2,0,0.4-0.1,0.6,0.1s0,0.4-0.2,0.5
			c-0.4,0.1-0.8,0.4-1.1,0.6C64.1,14.8,64,14.9,63.8,15"/>
		<path class="st6" d="M61.2,15.5h0.4c-0.3,0.6-1.1,0.8-1.7,0.4c0,0,0-0.1,0-0.2C60.3,15.6,60.9,15.5,61.2,15.5"/>
		<path class="st7" d="M21.1,2.9c-0.9,1.2-1.9,2.4-3,3.5c-0.1,0.2-0.2,0.3-0.3,0.5l0,0c-0.2,0.4-0.5,0.7-0.8,0.9
			c-0.3,0.2-0.3,0.6-0.5,0.9c-0.6,0.7-1.2,1.4-1.9,2c-0.4,0.4-0.9,0.7-1.4,1c-0.4,0.3-0.9,0.2-1.2,0.6c-0.2,0-0.3,0-0.4,0.1
			s-0.5,0.4-0.8,0.1s0.2-0.5,0.3-0.7c0.8-0.4,1.6-0.9,2.3-1.5c0.7-0.6,1.3-1.3,1.9-2.1c0.9-1.3,2-2.4,3-3.6C19,3.7,20,3,20.7,2
			c0.3-0.4,0.8-0.3,1-0.7h0.1c0.6,0.1,0.6,0.3,0.1,1l0,0C21.6,2.4,21.3,2.4,21.1,2.9L21.1,2.9"/>
		<path class="st8" d="M11.1,11.9c0,0.2-0.3,0.4,0,0.5s0.3,0,0.5-0.1s0.4,0,0.5-0.1c0.3-0.1-0.1,0.2-0.2,0.2c-0.7,0.3-1.2,0.9-2,0.9
			c-0.4,0.1-0.7,0.2-1.1,0.3c-1.3,0.5-2.7,0.6-4,0.3c-0.6-0.1-1.1-0.2-1.6-0.3H3l-2.4-0.5c-0.2,0-0.4-0.1-0.5-0.3
			c-0.1-0.1-0.1-0.3,0-0.4c0.1-0.1,0.2-0.1,0.3-0.1c0.9,0.2,1.9,0.4,2.8,0.4c0.8,0.1,1.6,0.4,2.4,0.5c0.8,0.1,1.6,0,2.3-0.2
			c0.7-0.1,1.4-0.3,2-0.6C10.3,12.4,10.6,12,11.1,11.9"/>
		<path class="st9" d="M60,15.8c0.5,0,1-0.1,1.4-0.4l0.3-0.1c0.2-0.1,0.5-0.2,0.7,0s-0.1,0.2-0.1,0.4c0,0,0.1,0,0.1,0.1
			c-0.3,0.1-0.8,0.3-1,0.4c-0.4,0-0.7,0.1-0.9,0.4c-0.1,0.1-0.3,0.4-0.5,0.1c-0.1-0.2-0.2-0.5-0.1-0.8L60,15.8"/>
		<path class="st3" d="M60,16.8c0.4-0.3,0.7-0.8,1.3-0.6c-0.3,0.1-0.6,0.3-0.8,0.5c-0.2,0.1-0.4,0.3-0.6,0.1l0,0
			C59.9,16.7,59.9,16.7,60,16.8"/>
		<path class="st10" d="M22,2.3c0-0.3,0.1-0.7-0.1-1c1.3-0.8,2.8-1.2,4.4-1.3c0.3,0,0.5,0,0.7,0.1c0.2,0.1,0.3,0.3,0.2,0.4
			c0,0.2-0.2,0.3-0.4,0.3c0,0,0,0,0,0c-1.1-0.1-2.2,0.1-3.2,0.7C23.1,1.9,22.5,2.1,22,2.3"/>
		<path class="st10" d="M21.2,2.8C21.2,2.8,21.2,2.8,21.2,2.8c0-0.9,0-0.9,0.8-0.5C21.7,2.5,21.4,2.7,21.2,2.8"/>
		<path class="st6" d="M60,16.8L60,16.8c-0.4-0.3-0.8-0.4-1.1-0.2c-0.4,0.2-0.8,0.1-1.1-0.1c-0.1-0.1-0.3-0.1-0.4,0
			c-0.1,0-0.1-0.1,0-0.2c0,0,0,0,0,0c0.8-0.3,1.7-0.1,2.5-0.3C59.9,16.3,59.9,16.5,60,16.8"/>
		<path class="st11" d="M57.1,16.2v0.2c-0.9,0-1.8,0-2.7-0.3C55.3,16,56.3,16,57.1,16.2"/>
	</g>
</g>
</svg>
