<svg xmlns="http://www.w3.org/2000/svg" xmlns:xlink="http://www.w3.org/1999/xlink" viewBox="0 0 75.09 152.64"><defs><style>.cls-1{fill:url(#linear-gradient);}.cls-2{fill:url(#linear-gradient-2);}.cls-3{fill:url(#linear-gradient-3);}.cls-4{fill:url(#linear-gradient-4);}</style><linearGradient id="linear-gradient" y1="31.09" x2="3.5" y2="31.09" gradientUnits="userSpaceOnUse"><stop offset="0"/><stop offset="0.28" stop-color="#020202"/><stop offset="0.44" stop-color="#0b0b0b"/><stop offset="0.56" stop-color="#181818"/><stop offset="0.67" stop-color="#2c2c2c"/><stop offset="0.77" stop-color="#464646"/><stop offset="0.87" stop-color="#656565"/><stop offset="0.95" stop-color="#8a8a8a"/><stop offset="1" stop-color="#a3a3a3"/></linearGradient><linearGradient id="linear-gradient-2" x1="7.15" y1="25.44" x2="25.03" y2="25.44" gradientUnits="userSpaceOnUse"><stop offset="0"/><stop offset="0.27" stop-color="#030303"/><stop offset="0.43" stop-color="#0b0b0b"/><stop offset="0.57" stop-color="#1a1a1a"/><stop offset="0.69" stop-color="#2e2e2e"/><stop offset="0.81" stop-color="#494949"/><stop offset="0.91" stop-color="#696969"/><stop offset="1" stop-color="#8c8c8c"/></linearGradient><linearGradient id="linear-gradient-3" x1="0.35" y1="26.42" x2="6.07" y2="26.42" gradientUnits="userSpaceOnUse"><stop offset="0" stop-color="#1c1c1c"/><stop offset="0.3" stop-color="#1e1e1e"/><stop offset="0.46" stop-color="#272727"/><stop offset="0.6" stop-color="#343434"/><stop offset="0.71" stop-color="#484848"/><stop offset="0.82" stop-color="#626262"/><stop offset="0.91" stop-color="gray"/><stop offset="1" stop-color="#a3a3a3"/></linearGradient><linearGradient id="linear-gradient-4" x1="7.31" y1="25.6" x2="9.48" y2="25.6" gradientUnits="userSpaceOnUse"><stop offset="0" stop-color="#a3a3a3"/><stop offset="0.07" stop-color="#8a8a8a"/><stop offset="0.18" stop-color="#686868"/><stop offset="0.31" stop-color="#4c4c4c"/><stop offset="0.44" stop-color="#373737"/><stop offset="0.58" stop-color="#282828"/><stop offset="0.75" stop-color="#1f1f1f"/><stop offset="1" stop-color="#1c1c1c"/></linearGradient></defs><g id="Layer_2" data-name="Layer 2"><g id="_12008d_draft_no_text_in_letter" data-name="12008d_draft_no_text_in_letter"><g id="Gd"><path class="cls-1" d="M2.31,13.38a9.37,9.37,0,0,0-.37,1.18c0,.19.12.75.18,1.19a8,8,0,0,0,.19,1.44c.19.69-.19.75,0,1.5s-.33-.81.06,1.81a25.2,25.2,0,0,1-.22,6.69c-.15,1.12,0,1.75-.21,3.19a3.67,3.67,0,0,0,0,2,8,8,0,0,1-.13,2.43,16,16,0,0,0-.56,2,19.13,19.13,0,0,1,0,3.83,24.87,24.87,0,0,0-.63,3.19A7.21,7.21,0,0,1,.31,46,5.76,5.76,0,0,0,0,47.81a6.4,6.4,0,0,0,.31,1H.94l.68-1.18A20.58,20.58,0,0,1,1.75,45a4.89,4.89,0,0,0,.37-1.56c0-.63.54-1.5.4-1.75s.32-.31,0-.88-.35-.5-.35-.93.47-2.44.45-2.69a16.43,16.43,0,0,1,0-3.06,28.28,28.28,0,0,0,.3-3.32V27.75l.43-.44s-.25-.75,0-1.06-.18-1.5,0-1.69,0-1.31.08-1.62,0-4.06,0-4.06a14.87,14.87,0,0,1-.33-1.94V15.63a14,14,0,0,0-.43-1.75Z"/><path class="cls-2" d="M24.12,0l-.87.69s.19,1.12,0,1.31.25.44,0,.94a10.8,10.8,0,0,0-.44,1.51,6,6,0,0,1-.44.93c-.18.25-.37.37-.37.81a6.24,6.24,0,0,0,0,1.06,1.66,1.66,0,0,1,0,.88,7.66,7.66,0,0,1-.41,1.18,8.17,8.17,0,0,1-.31,1.07c-.19.37-.5.37-.63.87s-.81,1.81-.81,2.13a10.6,10.6,0,0,1-.87,1.87,9.91,9.91,0,0,0-.82,1.63,1.6,1.6,0,0,1-.31.75,3.83,3.83,0,0,0-.31,1,2.66,2.66,0,0,0-.31.37c-.19.25-.57.94-.57.94l-.31.81a.43.43,0,0,0-.37.31,4.55,4.55,0,0,1-.44,1.63c-.44.69-.25,1.06-.63,1.56a9.31,9.31,0,0,0-.68,1.69,8.5,8.5,0,0,0-1.25,1.81c-.25.69-.69,1.31-.82,1.69a12,12,0,0,0-.43,1.19,9,9,0,0,1-1.07,1.81A8.12,8.12,0,0,0,9.94,34a16.39,16.39,0,0,1-1.13,1.81l-.56,1-.94.33-.16,1.73v2.66a13.7,13.7,0,0,1,.07,1.92c-.1.56,0,1.31,0,1.69a15.68,15.68,0,0,0,0,1.94c0,.37,0,1.68,0,1.68s0,.94,0,1.19a7.51,7.51,0,0,1,0,.88h.79l.56-.63a2.69,2.69,0,0,0,.25-.69V48.13c0-.38-.44-.94-.5-1.38s-.13-2.06-.13-2.56A10.82,10.82,0,0,0,8,41.81c-.19-.81-.06-1.06-.06-1.06l.5-.69.43-.18.57-1.38.37-.75.81-.44a2.45,2.45,0,0,0,.07-.75,2.31,2.31,0,0,1,.18-1.18l1.25-2.44.94-1.85A5.2,5.2,0,0,1,13.25,30c.12-.31.87-1.69,1-1.87a16.8,16.8,0,0,1,.81-1.5c.25-.32.34-1.07.58-1.19s.36-.69.48-1.13,0-.56.38-1,.44-.06.69-1,.06-.93.31-1.37.69-.31,1-.75-.06-1.13.19-1.31.31-1.07.5-1.25a5.89,5.89,0,0,0,.68-1.13c.19-.37.63-.44.69-.94s-.12-.62.19-.81a1.33,1.33,0,0,0,.62-.81c.07-.31.07,0,.07-.56a1.67,1.67,0,0,1,.43-1.13,2.62,2.62,0,0,0,.38-1.31,2.38,2.38,0,0,1,.19-.81s.43,0,.5-.32-.07-.75.06-1.06.25-.31.37-.69a2.82,2.82,0,0,0,.25-.93c0-.32,0-.19.13-.69a10.4,10.4,0,0,1,.37-1.25l.63-1.5s-.25-.63,0-.81a.59.59,0,0,0,0-.82c-.19-.18.33-.31.16-.62s.3-.5,0-.88A1.9,1.9,0,0,0,24.12,0Z"/><path class="cls-3" d="M5.81,17.81l-.33.5-.29,1.25a2.94,2.94,0,0,0-.17.67,2.73,2.73,0,0,1-.21,1c-.12.25-.54.83-.62,1s-.17.62-.25.79-.38.41-.44.67S2.08,28.4,2.08,28.4l-.33.87a.86.86,0,0,0-.23.33c0,.17-.33,1.21-.33,1.21l-.25.71-.17.83L.6,33.52.35,35H.69L1,34.69a7.68,7.68,0,0,1,.13-1.21c.08-.25.33-1.88.33-1.88l1.6-3.75.69-3,.67-1.63.54-1,.08-.46.42-.58.08-1.13s.46-1.54.5-1.66S5.81,17.81,5.81,17.81Z"/><path class="cls-4" d="M9.48,14l-.33,1.17L8.9,17a3.76,3.76,0,0,0,0,.79c0,.34-.08,1.25,0,1.46S8.56,21,8.65,21.19a1.84,1.84,0,0,1,0,1c-.11.33-.07,1.54-.19,1.79a8.85,8.85,0,0,0-.25,1.83,11.08,11.08,0,0,1,0,1.63,6.18,6.18,0,0,0,0,1.29A5.5,5.5,0,0,1,8,29.94a6.61,6.61,0,0,0-.21,1.33c0,.29-.25,1.83-.25,2a11.59,11.59,0,0,1,0,2.13,14.27,14.27,0,0,0-.21,1.75L8,36.94l.38-3.25a4.21,4.21,0,0,1,0-1.5c0-.21.2-1.34.2-1.46V29.27l.05-1.58S8.6,25.77,8.6,25.6s.3-1.45.3-1.66a13.85,13.85,0,0,0,.25-1.5c0-.54,0-1.71,0-1.88s.08-1.71.08-2,.25-2.46.21-2.62S9.48,14,9.48,14Z"/></g></g></g></svg>