<svg xmlns="http://www.w3.org/2000/svg" xmlns:xlink="http://www.w3.org/1999/xlink" viewBox="0 0 150 101.52"><defs><style>.cls-1{font-size:10px;fill:#181716;font-family:BaskervilleMTPro-Regular, Baskerville MT Pro;}.cls-2{letter-spacing:-0.01em;}.cls-3{fill:url(#linear-gradient);}.cls-4{fill:#575756;}</style><linearGradient id="linear-gradient" x1="25.67" y1="6.84" x2="0.42" y2="6.84" gradientUnits="userSpaceOnUse"><stop offset="0" stop-color="#fff"/><stop offset="0" stop-color="#f4f4f4"/><stop offset="0" stop-color="#dedfdf"/><stop offset="0" stop-color="#cdcece"/><stop offset="0" stop-color="#c2c3c3"/><stop offset="0" stop-color="#bbbcbc"/><stop offset="0" stop-color="#b9baba"/><stop offset="0.02" stop-color="#afb0b0"/><stop offset="0.12" stop-color="#8a8b8b"/><stop offset="0.22" stop-color="#6c6c6c"/><stop offset="0.33" stop-color="#545454"/><stop offset="0.44" stop-color="#434343"/><stop offset="0.56" stop-color="#393939"/><stop offset="0.71" stop-color="#363636"/></linearGradient></defs><g id="Layer_2" data-name="Layer 2"><g id="_12008b_draft_german" data-name="12008b_draft_german"><g id="Gb"><text class="cls-1" transform="translate(18.57 10.99)">Bl<tspan class="cls-2" x="8.55" y="0">a</tspan><tspan x="13.14" y="0">tt</tspan></text><g id="solid_path"><path class="cls-3" d="M.42,13.06v.35l.78.28,1.47-.63L4.8,11.44a7.58,7.58,0,0,1,1.62-1.22c1.44-.94.94-.81,1.72-1.09s1-.35,1.22-.63.28-.28.47-.31.34-.25.44-.41.5.19.81-.15.16-.69.62-.72.41.28.6,0a1,1,0,0,1,.37-.38c.1-.06-.18-.22.82-.53s1-.75,1.78-1,.4,0,.75-.22.5-.43.62-.47.85-.4.85-.4l.62-.41.66-.15A1,1,0,0,1,19.39,3c.41-.06,0,.1.41-.06s.75-.34,1-.41,1.06-.31,1.06-.31a3.05,3.05,0,0,1,.75-.47c.31-.09,1-.4,1.19-.47L25,.88h.72L25.42.31,25,0l-.66.34L23,.88a7.24,7.24,0,0,0-1.13.37c-.16.13,0,.09-.66.31l-1.12.38-1.19.34a7.16,7.16,0,0,0-1.44.41c-.06.12-.12.09-.78.37a6.62,6.62,0,0,0-1.09.69c-.31.16-1.22.84-1.22.84a12.19,12.19,0,0,0-1.56.91,18.52,18.52,0,0,1-1.6,1.09s-1.43.72-1.59.82S8,8.53,7.86,8.59,6,9.75,5.83,9.88s-1.94,1.5-1.94,1.5L2,12.63Z"/><path class="cls-4" d="M1.8,3.53,1.14,4A5.92,5.92,0,0,0,1,4.91,15.05,15.05,0,0,1,1,7.25c-.07,2.5,0,1-.07,2.5S.67,13,.67,13v.81s.19-.61,0,.37.19-.4,0,1.45a11,11,0,0,1-.31,2.5c-.19.56-.28-.6-.19.56s-.2,1.4,0,2.65S.42,22.09.3,23a10.61,10.61,0,0,1-.21,1.44c-.2.81,0,1,0,1H.33l.57-.22.74-.69L2,23.72a1.13,1.13,0,0,1-.19-.34c0-.1-.16-.41,0-.57s.06-.06.19-.4a1.12,1.12,0,0,0,0-.88,4.49,4.49,0,0,1-.38-1.25c0-.34-.06-2.15-.06-2.15s.62-1,.53-1.13.11-1.44,0-1.87a18.51,18.51,0,0,1,0-2.44S2,9.31,2.15,9.06s.21-3.15.24-3.37,0-1.94,0-1.94Z"/></g></g></g></g></svg>