<svg xmlns="http://www.w3.org/2000/svg" viewBox="0 0 483.5 353.225"><defs><style>.cls-1,.cls-2,.cls-3,.cls-4,.cls-5,.cls-7{fill:none;stroke-miterlimit:10;}.cls-1,.cls-2,.cls-4,.cls-8{stroke:#6d6e71;}.cls-1,.cls-3{stroke-width:0.5px;}.cls-2,.cls-5,.cls-7{stroke-width:0.25px;}.cls-3,.cls-5{stroke:#939598;}.cls-4{stroke-width:0.33px;}.cls-6{fill:#58595b;}.cls-7{stroke:#808285;}.cls-8{fill:#6d6e71;stroke-linecap:round;stroke-linejoin:round;stroke-width:0.1px;}.cls-9{font-size:10px;fill:#231f20;font-family:BaskervilleMTPro-Regular, Baskerville MT Pro;}.cls-10{letter-spacing:-0.01em;}.cls-11{letter-spacing:0.01em;}</style></defs><g id="Layer_2" data-name="Layer 2"><g id="_12490d_final" data-name="12490d_final"><path class="cls-1" d="M5.83,22.34l1.44-1.08a4.8,4.8,0,0,1,1-.62c.41-.14,1.24-.51,1.64-.64s1.82-.75,2.18-.92,3.75-1.25,3.83-1.31a27.7,27.7,0,0,1,3-1,8.82,8.82,0,0,1,1.08,0l2-.62,2.39-.51a4.05,4.05,0,0,1,1-.13c.51,0,.52.13.93,0s.25-.23.93-.26a14.62,14.62,0,0,0,2.11-.09,21.41,21.41,0,0,1,2.4-.24c1.08,0,2.54-.28,3.18-.35s2.75-.29,3.21-.3,2.29-.06,2.73-.1S42,14,42.68,14s1,.53,1.91.47.69-.07,1.32-.08.5-.15,1,0a5.66,5.66,0,0,0,1.31.36c.38,0,1,0,1.5,0a12.92,12.92,0,0,1,1.43.21h1c.57,0,3.28.32,3.57.32s.13,0,.53-.15a1.86,1.86,0,0,1,1.39.2c.39.22.34.33.64.28a1.77,1.77,0,0,1,.7-.09c.65,0,.51,0,.92.12s.19.11.85.17a1.83,1.83,0,0,1,1,.25c.43.21,3.78.25,4.2.44s.13.25.69.33,2.61.08,2.61.08a3.92,3.92,0,0,1,.58.17,2.29,2.29,0,0,0,1,.19,2.14,2.14,0,0,1,1.11.21c.5.22.59.28,1.05.47a1.57,1.57,0,0,0,.84.23c.46,0,.39-.26.81,0s.26.35.74.35.47-.11.94.09a9.54,9.54,0,0,0,1,.38c.52.18.83.3,1.24.4s.49,0,.86.09a2,2,0,0,1,.68.36c.15.1.08.06.8.14a21.39,21.39,0,0,1,3.38,1.53s3.33.92,3.49,1,3.91,1.07,4.73,1.35a32,32,0,0,1,3.19,1.35l3,1.49a3.93,3.93,0,0,0,1.33.45c.3,0,1-.24,1.24-.24a4.21,4.21,0,0,1,1.46.31,3.74,3.74,0,0,0,1.31.21s1.83-.31,2.22-.35a10.81,10.81,0,0,1,1.56-.42c.55,0,1.14-.48,1.53-.58a14.27,14.27,0,0,0,1.41-.48c.23-.11,1.08-.45,1.32-1a15,15,0,0,1,1-2c.13-.1,2.92-3.79,2.92-3.79l3.81-5.3s2.62-3.91,2.91-4.28a9,9,0,0,1,1.61-1.42c.37-.21,1-.74,1-.77s.69-.16.8-.36a1.65,1.65,0,0,1,.58-.69c.3-.18.36-.54.7-.56s.84,0,1-.26a15.17,15.17,0,0,1,2.08-1.4c.1-.06,1.33-1.11,1.67-1s.28.1.59-.1a6.08,6.08,0,0,1,.8-.55c.28-.12.35-.31.65-.35a5.36,5.36,0,0,0,.86-.11c.16-.06.58-.19.7-.25a1,1,0,0,1,.48-.2c.21,0,.28.13.62-.07a2.27,2.27,0,0,1,1.21-.49c.55,0,2.1-.25,2.14-.25s1.89,0,2.49-.07a32.78,32.78,0,0,1,3.59.27c.33,0,2.57.52,2.61.56s2.35.77,2.74,1,.47.22.85.41a5.14,5.14,0,0,1,.83.36,6.54,6.54,0,0,0,1.24.65c.67.26,1,.57,1.26.65a14.62,14.62,0,0,1,1.8.59c.18.12,3.06,1.86,3.18,1.89a8.15,8.15,0,0,1,1,.63,5.22,5.22,0,0,1,1.22.92c.27.36.15.62.46.77s.84.33,1.37.62a11.15,11.15,0,0,1,1.3.9c.22.15,1.47.71,1.79.95s2.48,2.5,2.63,2.58,1.17,1.41,1.37,1.59,1.12,1.73,1.24,1.89,1.65,3.57,1.83,3.8a6.8,6.8,0,0,1,.58,1.39c.07.28.27,1.57.27,1.61a8,8,0,0,1,.08,1.51,1.49,1.49,0,0,0-.21.53.88.88,0,0,0-.07.53c0,.4,0,.39.05.81s0,.61,0,1a10.61,10.61,0,0,1-.27,1.08,20.13,20.13,0,0,1-.55,2.14,3.34,3.34,0,0,0-.08,1,10.4,10.4,0,0,1-.19,1.59c-.1.4-.67,1.56-.81,2a16.2,16.2,0,0,1-.91,1.65c0,.09-1.08,1.37-1.08,1.37s-1.34,2-1.46,2.1-1.72,2.1-1.91,2.34-1.69,1.64-1.82,1.78S165,47.18,165,47.23s-1,.75-1.33.92-1.11.61-1.32.69-1,.43-1.37.58-.86.29-1.07.36a2.46,2.46,0,0,1-.79.22,7.14,7.14,0,0,0-.79.16,1.29,1.29,0,0,0-.57.11c-.21.11-.94.57-1.09.64s-.41.15-.57.22-1.43,1.16-1.43,1.16l-.8.93s-1.21,1.51-1.32,1.68-1,1.51-1.24,1.82-.69,1.16-1.11,1.73a12.53,12.53,0,0,0-1,2.12,11.4,11.4,0,0,0-.38,1.63,8.63,8.63,0,0,0,.1,1,4.39,4.39,0,0,0,.7,1.11.63.63,0,0,1,.35.33c.06.16.35,1.22.43,1.33a4.75,4.75,0,0,1,.55.85,4,4,0,0,0,.75.86c.09,0,.27.07.33.25s.09.43.16.6a4.8,4.8,0,0,0,.43.82,1.46,1.46,0,0,1,.54.66c.11.35.2.67.29.87a5.23,5.23,0,0,0,.63.82c.12.15.52.54.52.54"/><path class="cls-1" d="M156.48,74.55a.32.32,0,0,0,.06.29,2.31,2.31,0,0,0,.25.36,1.05,1.05,0,0,0,.33.22c.18.1,0,0,.39.14s.6.12.71.25.14,0,.27.47a5.19,5.19,0,0,0,.17.76,2.62,2.62,0,0,0,.41.89c.11.11.25.07.47.19s.49.14.6.32.93,1.85,1,2a6.34,6.34,0,0,1,.54,1c0,.14,0,.19.16.41a6.88,6.88,0,0,1,.44.66,2.68,2.68,0,0,1,.33.66c.13.37.29.56.44.92s.16.57.32.89a6.83,6.83,0,0,0,.52.93,4.21,4.21,0,0,1,.47.78,3.69,3.69,0,0,1,.21,1.08c0,.17-.22.92,0,1.06a5.59,5.59,0,0,1,.63.55c.1.11.58.26.59.46s.05.5.05.65a4.91,4.91,0,0,0,0,.59,1.91,1.91,0,0,0,.11.75,1.51,1.51,0,0,0,.23.39,2,2,0,0,1,.25.32,4.9,4.9,0,0,1,.35.87c.05.24.15.21.15.53s-.12.38,0,.67a4.59,4.59,0,0,0,.26.57c.11.19.25.22.36.48a2.23,2.23,0,0,1,.14.75.69.69,0,0,0,.13.55c.17.21.28.13.52.5s.32.39.34.64-.05.46.06.67.11.38.28.55.1-.11.42.45.48.92.55,1a4.9,4.9,0,0,1,.36.86.62.62,0,0,1,0,.31c0,.24-.1.18,0,.43a2.11,2.11,0,0,0,.3.55c.18.23.29.19.43.44s.25.17.25.54-.08.36,0,.64.17-.12.25.54.1.78.1.85a.9.9,0,0,0,.17.47c.12.14.28.47.45.64s.17.3.43.45.39,0,.42.26,0,.4,0,.8,0,.47,0,.77-.13.34,0,.64,0,.37.23.64a3.82,3.82,0,0,1,.44.85c.14.3.35.19.39.73s0,1.72,0,1.92-.12.37,0,.55.2.13.2.44v.66c0,.4-.1.7,0,.87s.11.38.2.5a3.38,3.38,0,0,1,.37.77c0,.12.08,1.23.07,1.34a6,6,0,0,0-.08.94v1.27a7.8,7.8,0,0,1,0,1.15c-.06.65-.16,1.13-.2,1.38s-.14.62-.16.69"/><path class="cls-1" d="M169.79,125.49a3.68,3.68,0,0,1-.23-.58,2.89,2.89,0,0,1,0-.72c0-.27.22-.39,0-.73a2.3,2.3,0,0,1-.25-.9c0-.11,0-1.09,0-1.14s0-.45,0-.56,0-.16-.1-.43a1.22,1.22,0,0,1-.11-.62,4.7,4.7,0,0,0,0-.84,3.59,3.59,0,0,1-.1-.82,3,3,0,0,0-.23-.93l-.72-2.12s-.93-1.79-1-2.11-.74-1.79-.82-2.07-.48-1-.58-1.42-.28-1-.44-1.55-.56-1.17-.67-1.51-.34-1.07-.34-1.17a10.64,10.64,0,0,1-.61-1,12.75,12.75,0,0,0-.44-1.63,5.78,5.78,0,0,1-.71-.86c0-.1-.29-1-.29-1.17a2.08,2.08,0,0,0-.57-1.15,2.91,2.91,0,0,1-.77-1.28,8,8,0,0,0-.31-1.18s-.69-1.47-.74-1.6-.42-.8-.54-1.11a5.67,5.67,0,0,1-.34-1.12c0-.19-.43-1.15-.43-1.23s-.61-1.3-.65-1.54A12.65,12.65,0,0,0,157,88.9c0-.09-1.86-3.15-1.86-3.15l-1.49-2.64A11.82,11.82,0,0,0,152,80.59a14.06,14.06,0,0,1-1.74-2.13,9.14,9.14,0,0,0-1-1.06c-.12-.08-2.73-1.74-3.1-2.11s-1.23-1.58-1.49-1.81-2-1.93-2-1.93a9,9,0,0,1-2-1.34c-.32-.48-.66-.76-.69-.89s-.53-1.11-.61-1.3-2-1.74-2-1.74a17.34,17.34,0,0,0-1.45-1.49,7.91,7.91,0,0,1-.69-.54,2.89,2.89,0,0,1-.72-.74c-.12-.21-3.09-2.88-3.09-2.88s-.54-.78-.64-1a14.09,14.09,0,0,0-1.38-1.17c-.1-.07-.77-.46-.89-.55s-.51-.12-.59-.31A3,3,0,0,0,127,57a7.46,7.46,0,0,1-1.11-1c-.06-.09-1.69-1.86-1.69-1.86a2.82,2.82,0,0,1-.73-.31,11.18,11.18,0,0,0-1-.6c-.31-.2-.57-.5-.74-.58s-1-.42-1.12-.52a10.63,10.63,0,0,1-1.1-.9c-.07-.11-1.87-1-2.09-1.16s-2.55-1.5-2.59-1.52-1-.52-1-.56-1.4-.48-1.44-.49l-1-.46-.89-.16a10.39,10.39,0,0,1-.81-.7c-.26-.26-.52-.62-.74-.88s-.12-.48-.54-.68a12,12,0,0,1-1.1-.6c-.22-.13-.72-.16-1-.34a20.87,20.87,0,0,0-2-1.33,3.46,3.46,0,0,1-1.15-1,2.91,2.91,0,0,0-.74-.5,5.3,5.3,0,0,0-1-.4,2.18,2.18,0,0,0-.46-.07s-.36.1-.41,0a1.11,1.11,0,0,0-.43-.27,2.46,2.46,0,0,1-.47,0c-.06,0-2.65-1-2.76-1.09s0-.17-.52-.33-1.26-.22-1.42-.29-.54-.33-.77-.45-1-.5-1.12-.55a10,10,0,0,1-1.15-.5c0-.1-.2-.3-.29-.43A3.92,3.92,0,0,0,90.43,36a5.44,5.44,0,0,1-.87-.23,7.42,7.42,0,0,0-1-.18,5.23,5.23,0,0,1-.78-.24l-1.15-.4c-.24-.1-.69-.26-1.08-.4a7.1,7.1,0,0,1-1.16-.59,1.39,1.39,0,0,0-.65-.1,1.2,1.2,0,0,1-.7-.18,15.24,15.24,0,0,1-1.72-.95,5,5,0,0,0-1.51-.82,8.74,8.74,0,0,0-1.2-.37l-1.05-.25A9.33,9.33,0,0,0,76.54,31c-.26,0-.33.08-.71,0a9.14,9.14,0,0,1-1.6-.39c-.91-.31-1.55-.63-2.1-.78a10.19,10.19,0,0,0-1.56-.31c-.78-.12-1.19-.21-1.91-.33s-1.59-.39-1.94-.39a6,6,0,0,1-1.2-.23,14.74,14.74,0,0,0-1.62-.3c-.55-.05-2.6-.31-2.76-.31a2.62,2.62,0,0,1-1.1-.07c-.51-.16-.59-.33-1.09-.39a10.42,10.42,0,0,1-1-.12,5.67,5.67,0,0,1-1.17-.3,3,3,0,0,0-1.2-.4c-.76-.08-1.27-.21-1.93-.22s-1,0-1.47,0-.73,0-1.16,0-.42-.06-1-.12-.5,0-1.12-.09a12.62,12.62,0,0,1-1.51-.34,6.68,6.68,0,0,0-1.56-.15H44.44a3.51,3.51,0,0,1-1.16-.06c-.48-.15-1.88-.16-2.62-.32a7.49,7.49,0,0,0-1.81-.17,2.16,2.16,0,0,1-1-.19,1.63,1.63,0,0,0-1-.26H33.15a10.32,10.32,0,0,0-1.94.13A4.94,4.94,0,0,1,30,25H29.1c-.35,0-1.64.15-2.06.16a10.17,10.17,0,0,0-1.36.16,11.5,11.5,0,0,1-1.61.27c-.36,0-1.37.29-1.73.31a11.72,11.72,0,0,0-1.52.27c-.31.08-.86.14-1.22.27a4.14,4.14,0,0,1-1.29.35,15.52,15.52,0,0,0-2.56.61c-.3.12-1.73.49-1.83.52s-1.16.49-1.68.68a9,9,0,0,0-1.61,1.05"/><path class="cls-1" d="M135.77,10a9.26,9.26,0,0,1,0-1.31,4.35,4.35,0,0,1,.57-1.41,9.63,9.63,0,0,1,1-1,5.3,5.3,0,0,0,.69-.57c.26-.2.75-.61,1-.79a3.47,3.47,0,0,1,1.21-.55,10.5,10.5,0,0,1,1.38,0,2.63,2.63,0,0,1,1.11.31,5.68,5.68,0,0,1,.54.51A10.57,10.57,0,0,0,144,6c.27.25.3.14.55.68s.19.61.35.95a5.57,5.57,0,0,1,.37.82,6,6,0,0,0,.27.67"/><path class="cls-2" d="M143.15,9.12c.24-.22.54-.14.24-.52s-.35-.54-.55-.62-.1-.22-.64-.08a2.24,2.24,0,0,0-1.25.58c-.35.37-.46.19-.92,1a4.59,4.59,0,0,0-.7,1.35,5.57,5.57,0,0,0,0,2.17c0,.11.51,1.74.51,1.74"/><path class="cls-1" d="M132.2,26.41c-.19-.12-.27-.24-.63-.5a4.14,4.14,0,0,1-.92-.95c-.25-.33-.62-.77-.71-.95a4.88,4.88,0,0,1-.43-1.46,6.56,6.56,0,0,1,0-1.47,11.38,11.38,0,0,1,.75-1.36,4,4,0,0,1,.9-.71,9.25,9.25,0,0,1,1.39-.5c.43-.11,1.32-.22,1.9-.31a9.19,9.19,0,0,1,2.4.12c.22.1.52.21.61.37a3.86,3.86,0,0,1,.38.73,1.73,1.73,0,0,1,.12.6.58.58,0,0,1-.18.52c-.16.13.62-.54.7-.68s.47-1,.55-1.25.61-1.63.62-1.73.18-.81.21-.93a12.66,12.66,0,0,0,.25-1.35,2.24,2.24,0,0,0-.11-.87,1.83,1.83,0,0,0-.43-.56,1.89,1.89,0,0,0-.7-.34c-.23-.08-.55,0-.57.09s-.09.18-.11.27,0,.27,0,.27"/><path class="cls-3" d="M126.14,22.89c.06-.08.07-.16-.1-.4a3.62,3.62,0,0,0-.44-.62.92.92,0,0,1-.34-.46c0-.15-.15-.23-.25-.42a.68.68,0,0,1-.11-.43,5.55,5.55,0,0,1,.06-1c.08-.23.16-1.37.22-1.56s.08-.54.26-.73.32-.25.44-.48a1.85,1.85,0,0,0,.3-.74c0-.33-.16-.55.07-.86s1-1.36,1.17-1.5a10.27,10.27,0,0,1,1.36-.94c.33-.14.59-.07.94-.2s.9-.46,1.2-.59a1.29,1.29,0,0,1,1-.19c.38.13.65.21,1.08.37a4.13,4.13,0,0,0,.78.22,1.07,1.07,0,0,1,.6.25c.22.16.15.29.46.7s.19.49.54.79a1.66,1.66,0,0,0,.69.44c.4.18.37.15.75.34a3.11,3.11,0,0,1,.69.46.75.75,0,0,1,.29.65c0,.3,0,.69,0,.8a1.27,1.27,0,0,1,0,.29"/><path class="cls-1" d="M139.59,16.31v-1a3.48,3.48,0,0,0-.38-1.75c-.34-.44-1-1.5-1.14-1.78s-1.76-1.81-1.84-2-1.57-1.6-1.68-1.68a4.46,4.46,0,0,0-1.14-.52A4.94,4.94,0,0,0,132,7.47a9.64,9.64,0,0,0-2.52.37,8.31,8.31,0,0,0-2,1.56A12.1,12.1,0,0,1,126,11.1a23.47,23.47,0,0,0-1.69,2,10.72,10.72,0,0,0-.79,1.22c-.16.31-.24.42-.4.79s-.35.71-.41.84a27.64,27.64,0,0,0-.08,3c0,.09.59.24.47.64a2.32,2.32,0,0,0-.14.82c0,.34-.09.5,0,.77a4.22,4.22,0,0,1,.21.81c0,.22-.1.38.09.71s.75.73.87,1.07a6.76,6.76,0,0,0,.38.94,6.22,6.22,0,0,0,.54.64,7.6,7.6,0,0,0,.89.92,12,12,0,0,0,1.38.82,4.3,4.3,0,0,1,1.31.67c.19.24.41.25.81.57s.27.38.62.55.54.07.78.4a6.33,6.33,0,0,0,1,.84,9.21,9.21,0,0,1,.79.9,9.07,9.07,0,0,1,.55,1.19c0,.11.37.65.45.89a7.9,7.9,0,0,1,.25,1.25c0,.28,0,1.43.06,1.62a3.67,3.67,0,0,1,0,1.28,2.53,2.53,0,0,1-.32.66,2.05,2.05,0,0,1-.57.42c-.1,0-.35.19-.35.19"/><path class="cls-4" d="M131,30.86a2.64,2.64,0,0,0-.55.27,1.15,1.15,0,0,0-.38.38c-.15.19-.21.31-.34.49s-.26.41-.38.58a4.36,4.36,0,0,0-.21.39c0,.07-.24.49-.27.58a1.34,1.34,0,0,0-.07.18l-.1.28a.46.46,0,0,1-.05.14.8.8,0,0,0-.1.38c0,.24-.13.26,0,.54a2.11,2.11,0,0,0,.28.6c.14.18.27.27.38.4a5,5,0,0,0,.3.46c.16.17.3.35.3.35s.08-.38.08-.46a3.38,3.38,0,0,0-.38-.71,3.27,3.27,0,0,1-.28-.59c-.11-.27-.16-.4-.26-.63s-.09-.4-.15-.51"/><path class="cls-4" d="M126.5,29.4a.57.57,0,0,0-.33.24c-.1.12-.24.22-.38.39a3,3,0,0,0-.37.42c-.12.2-.16.17-.24.41a2.09,2.09,0,0,1-.15.52c-.08.11-.1,0-.21.32a2,2,0,0,0-.21.73v1c0,.37,0,1.22,0,1.38a4,4,0,0,0,.1.75c.08.09.25.15.35.33a6.14,6.14,0,0,0,.33.54c.17.25.16.39.41.49s.48.25.7.32a3.12,3.12,0,0,0,.71.19,4.43,4.43,0,0,1,.73,0,1.2,1.2,0,0,1,.5.09c.17.08,0,.05.25.21a1,1,0,0,0,.61.25c.23,0,.5-.16.67,0a1.68,1.68,0,0,1,.35.38,8,8,0,0,1,.49.79c.05.16.22.57.3.81a1.91,1.91,0,0,0,.29.59,2.74,2.74,0,0,0,.42.46"/><path class="cls-4" d="M131.82,35.72a.64.64,0,0,0-.46.41,4.75,4.75,0,0,0-.25.48c-.13.33-.14.09-.16.51s-.09.41,0,.74a1.45,1.45,0,0,0,.27.6c.16.23.11.15.14.35s0,.13-.15.38-.1.1-.1.41v.32"/><path class="cls-5" d="M135.64,25.79l.7.35a2.61,2.61,0,0,1,.38.44c0,.09.32.79.32.79a3.78,3.78,0,0,1-.19.7,3.23,3.23,0,0,1-.51.82c-.25.22-.67.35-.7.51s-.5.29-.63.32a6.32,6.32,0,0,1-.76,0s.57.12.54.25,0,.44,0,.6a2.2,2.2,0,0,1-.23.7c-.19.44,0,.57-.31.95s-.24,1-.35,1.24a10.24,10.24,0,0,0,.28,1.72,1.1,1.1,0,0,0,.19.54"/><path class="cls-1" d="M156.34,17.07a2.86,2.86,0,0,0,.47-1.07,7.26,7.26,0,0,0-.24-1.94,7.87,7.87,0,0,0-1.18-2c-.35-.26-1.34-.92-1.59-1.05s-.28-.06-.85-.32a8.39,8.39,0,0,0-2.76-.44,10.67,10.67,0,0,0-1.81,0l-.6.09c-1.13.66-1.29.94-1.42.92a10.88,10.88,0,0,0-1.84,1.32c-.54.48-1.14,1.24-1.49,1.59a10.76,10.76,0,0,0-1.36,1.52c-.32.51-.8,1.17-1,1.52s-.53.86-.69,1.08a3.26,3.26,0,0,0-.37,1.3c0,.38-.33,1.36-.38,1.8s.27,1,0,1.49.11,3,0,3.65.45,3.45.38,3.83a30.83,30.83,0,0,0,.52,3.23c0,.16-.37.38-.69.57a4.06,4.06,0,0,1-1.3.86c-1,.41-1.65.57-2,1s-.91.83-1.37,1.3-1.07,1.68-1.52,1.94a3.6,3.6,0,0,0-1.45,1.45c-.45.83-.77,1.3-1.34,2.28s-.79,1.21-1.17,1.81A19.3,19.3,0,0,1,127.85,47c-.79,1-1.36,1.84-1.83,2.31s-1.21,1-1.27,1.11l-.51.92a10.08,10.08,0,0,1-.89,1.08c-.38.47-.41.69-.88,1.3s-.48.63-.83,1l-.35.41"/><path class="cls-4" d="M123,55.47c.29-.06,1.39-1.71,1.63-2s3-4.25,3.19-4.41a23.82,23.82,0,0,1,1.91-2.5A5.92,5.92,0,0,0,131,45c.17-.28,1-1.42,1.15-1.71s1.05-1.46,1.17-1.68"/><path class="cls-2" d="M134.41,40.64v-.25h.23Z"/><path class="cls-1" d="M134.89,41a6.33,6.33,0,0,1,.57-.71,5.6,5.6,0,0,0,.47-.63,1.19,1.19,0,0,1,.58-.48c.19-.06.33-.19.53-.25a3.2,3.2,0,0,1,.83,0,4.28,4.28,0,0,1,.63.15,5.3,5.3,0,0,1,.86.42c.19.12.54.24.6.45s.25.24.41.24a.61.61,0,0,1,.48.23c.19.19-.23,0,.19.19s.54.49.76.39.41-.12.47,0,.1.05.22.24.32.16.61.25.22-.28.54.16.28.45.66.48.41-.13.6,0,.48,0,.54.16,0,.41.22.47a1.26,1.26,0,0,0,.67,0c.25-.06.28-.32.57.05s.28.36.35.58.38.45.41.54.22.45.32.45h.25"/><path class="cls-1" d="M149,44a3.5,3.5,0,0,1,.79-.13c.35,0,.64.51,1,.45s1.2.06,1.49,0,.82.06,1.2,0,.7.06,1.08,0a5.52,5.52,0,0,0,1.74-.45c.57-.31,1.77-1.14,2-1.3a5.56,5.56,0,0,1,.88-.44,2.14,2.14,0,0,0,.67-.55,3.4,3.4,0,0,1,1-.64,1.67,1.67,0,0,0,.86-.46,2.07,2.07,0,0,0,.41-.76c.1-.31.19-.81.48-.88s.5-.29.72-.83a8.36,8.36,0,0,1,.58-1.16c.25-.46.6-.81.6-1.16a3,3,0,0,0-.41-1.36c-.29-.47-.19-.63-.54-.91a5.47,5.47,0,0,1-.89-1.11,4.15,4.15,0,0,0-.89-.76c-.12-.1-1.84-1-1.84-1a5.63,5.63,0,0,1-1-.16,11,11,0,0,0-2.12-.16,8.89,8.89,0,0,0-2.1.65c-.28.15-.22.15-.69.4a10.73,10.73,0,0,0-1.21.95c-.44.32-.44,0-.85.7s-.38.37-.7,1-.16.49-.73.91a5.86,5.86,0,0,1-1.11.73c-.32.12-.79.19-1.14.34a2,2,0,0,1-1.24.38c-.88,0-.76,0-1.48,0s-1.3,0-1.43,0a1.85,1.85,0,0,1-.48,0"/><path class="cls-1" d="M148.1,28.76v.91a4.71,4.71,0,0,1,0,1.19c-.09.62,0,.68-.34,1.16s-.2.32-.77.67-.34.28-.79.41-.66.19-.73,0a2.88,2.88,0,0,1-.09-.41"/><path class="cls-3" d="M148.55,32.3c-.22,0-.48.29-.76.39a1.82,1.82,0,0,0-.64.31c-.22.16-.11.1-.39.41a2.45,2.45,0,0,1-.49.46"/><path class="cls-1" d="M155.71,23.3a2.66,2.66,0,0,1,.25-1.8c.19-.16.51-.16.57-.45s.13-1,.51-1.29,1.49-1.91,1.93-2.06,1.62-.83,2.25-1a5.63,5.63,0,0,1,1.68-.28,12.3,12.3,0,0,1,2.66.76,14,14,0,0,1,1.53,1.11c.15.22.82.85,1,1.14s.48,1.11.73,1.42a4.1,4.1,0,0,1,.73,1.43,18.09,18.09,0,0,1,.47,2,13.61,13.61,0,0,1-.24,2.28c-.14.28-1,2.19-1.15,2.41a18.5,18.5,0,0,0-1,1.65,1.42,1.42,0,0,1-1,.88,3.56,3.56,0,0,1-1.23.22h-1.9"/><path class="cls-3" d="M167.21,35.38c-.73-.22-1-.25-1.36-.38s-.41,0-.92-.28-.51-.39-.44-.55-.19-.23.54-.3a2.07,2.07,0,0,1,1.45.27c.7.29,1.21.2,1.53.58s.31.22,1,.66a6.7,6.7,0,0,0,1.8.57,2,2,0,0,0,.89.44,8.68,8.68,0,0,1,1.11.49,4.29,4.29,0,0,1,.79.34"/><path class="cls-3" d="M166.8,29.4c.1.12.57.24.82.53s-.15.66,0,.7l.57.12s-.34-.56-.27-.67.52-.09.71.13,0,.26.48.23.27-.1.64.15.91.06,1.29.27.73.65,1,.65.61-.22,1,0,.66.1.85.22a2.62,2.62,0,0,0,.73.19c.1,0,.34-.08.34-.08"/><path class="cls-1" d="M162,31.16a2.73,2.73,0,0,1,.66-.17c.35,0,.67.1,1,0l.91-.32a2.52,2.52,0,0,0,.95-.65,8.81,8.81,0,0,0,.92-1.14,5.5,5.5,0,0,0,.7-.89c.13-.31.1-.41.32-.88s.38-.51.41-1.05a7.47,7.47,0,0,0-.13-1.34c0-.34-.31-1.58-.31-1.72a1.57,1.57,0,0,0-.29-1.06,2.1,2.1,0,0,0-.73-.66c-.19-.16.26-.1-.6-.32a3.85,3.85,0,0,0-1.17-.22h-.6"/><path class="cls-1" d="M163.7,21.78a2.37,2.37,0,0,1-.32,1.59,6.37,6.37,0,0,0-.73,1.49,10.09,10.09,0,0,1-1.11,1.39c-.19.26-.95.95-1.24,1.27a3.12,3.12,0,0,1-1,.79c-.44.22-.3.38-.89.45s-.63.06-.76.15a4.35,4.35,0,0,1-.36.25"/><path class="cls-1" d="M142,27s-.6-1-.79-1.25-.45-1.41-.58-1.71a8.61,8.61,0,0,1-.38-1.66,2.71,2.71,0,0,0,0-1.14c-.15-.45.61-1.52.61-1.52L142,18.39a4.8,4.8,0,0,1,.31-1.06c.13-.11,1.15-1.76,1.3-2S145.89,13,145.89,13a16.27,16.27,0,0,1,1.52-1,25.35,25.35,0,0,0,2.56-.75,13.3,13.3,0,0,1,2.13-.2A40.33,40.33,0,0,1,156,12.28c.38.25,1.24,1,1.32,1.36s.43.53.55,1.07a12,12,0,0,1,.57,1.72c0,.57.13.66.13,1.3a3.22,3.22,0,0,1-.13,1.52c-.25.57,0,.95-.25,1.3a4.91,4.91,0,0,0-.54.66,13.76,13.76,0,0,1-1.17,1.68c-.32.29-.35.7-.81.8a6.49,6.49,0,0,1-.93.22,9.55,9.55,0,0,1-1,0,6.25,6.25,0,0,0-1,.2"/><path class="cls-3" d="M142.78,27.8a3.41,3.41,0,0,0,.74-1c.12-.41.81-1,1.19-1.32a2.49,2.49,0,0,1,1.75-.75c.82,0,1.3,0,2.25,0s1.2,0,2.25,0a2.88,2.88,0,0,1,2.12.61,6.16,6.16,0,0,1,.57.92,14.16,14.16,0,0,1,.4,1.36,6.52,6.52,0,0,1,.11,1.79c0,.08.16.81,0,.81a.64.64,0,0,0-.44.29c-.06.13-.19.49-.19.49a2.4,2.4,0,0,1,0,.54c-.05,0-.07.2-.07.2"/><path class="cls-1" d="M159.89,26.41l-.88.22-.61.19a7.22,7.22,0,0,0-1.12.35,3.06,3.06,0,0,1-.65.29c-.45.19-.29.15-.79.38s-.45.05-.64.15a4.85,4.85,0,0,1-.66.23"/><path class="cls-5" d="M142.37,33.09c-.22.07-.73.67-.81.75a3.54,3.54,0,0,1-.49.68c-.29.26-.39.25-.85.66s-1,1-1,1"/><path class="cls-1" d="M144.36,22.1a3.7,3.7,0,0,1,0-1.36c.16-.6.48-1.65.54-1.84a19.08,19.08,0,0,1,1-1.77,9.74,9.74,0,0,1,1.29-1.27,7,7,0,0,1,1.59-.83,4.69,4.69,0,0,1,1.71-.32,10.53,10.53,0,0,1,1.81.13c.35.16.88.13,1.17.54a5.37,5.37,0,0,1,.59,1.24,14.55,14.55,0,0,1,.19,1.55,1.76,1.76,0,0,1,0,1.43c-.31.95-.21,1.23-.69,1.74s-1.07,1.26-1.39,1.55-.48.67-1.17.8a7.28,7.28,0,0,1-1.6.12,17.69,17.69,0,0,0-1.79,0c-.89.07-1.11-.09-1.33,0l-.64.27"/><path class="cls-6" d="M137.35,27c.55-.77,1-1.65,1.59-2.41a20.79,20.79,0,0,0,2.06-2,4.9,4.9,0,0,1,1.19-.9,1.52,1.52,0,0,0,.57-.35,2.08,2.08,0,0,1,.66-.42c.49-.14.91-.29,1.38-.45a4.28,4.28,0,0,1,.77-.2h.72c.48,0,1,0,1.43,0,.24,0,.48,0,.74,0a.72.72,0,0,1,.45.11l.3.15a1.62,1.62,0,0,1,.67.48,3.31,3.31,0,0,0,.5.43,1.66,1.66,0,0,1,.52.59c.1.18.27.35.42.56a1,1,0,0,1,.25.73,2.73,2.73,0,0,0,.08.34.57.57,0,0,1-.05.44c-.09.13-.16.19-.22.29a.67.67,0,0,1-.12.17.37.37,0,0,1-.22.09c-.27,0-.49,0-.74,0l-2.9,0-.06,0a1.85,1.85,0,0,0-.93-.09,6.07,6.07,0,0,0-1,.27,17.7,17.7,0,0,0-1.9.86,1.67,1.67,0,0,0-.79.55,2,2,0,0,1-.88.65c-.24,0,0,.43-.16.84a1.56,1.56,0,0,0-.13.46,2.7,2.7,0,0,0,.05.48c.34,1.32.69,2.7,1.07,4a2.53,2.53,0,0,0,.4.86,5.23,5.23,0,0,1,.57.94,1.05,1.05,0,0,1,.11.66l-.09.5a4.84,4.84,0,0,1-.28,1.07c-.09.2-.17.32-.24.48a1.22,1.22,0,0,1-.42.49,4.63,4.63,0,0,1-1,.42,2.48,2.48,0,0,1-1.11.11,6.33,6.33,0,0,1-1.1-.09,5,5,0,0,1-.51-.19l-.17,0h0l-.05,0a.33.33,0,0,1-.23,0c-.27-.14-.23-.19-.31-.27l-.16-.22-.29-.42a4,4,0,0,0-.32-.38,1.33,1.33,0,0,1-.35-.48c-.14-.36-.24-.66-.36-1a3.83,3.83,0,0,1-.21-1.08,4.36,4.36,0,0,0-.09-1,7.34,7.34,0,0,1-.18-2.09c0-.35.05-.7,0-1a5.21,5.21,0,0,1,0-1,1.79,1.79,0,0,1,.43-1A6.5,6.5,0,0,1,137.35,27Zm0,0a3.15,3.15,0,0,0-1.08,1.71,4.56,4.56,0,0,0,.08,1c0,.35,0,.7,0,1.05a7.31,7.31,0,0,0,.28,2,4.78,4.78,0,0,1,.17,1.06,3.38,3.38,0,0,0,.24,1l.38,1a.77.77,0,0,0,.27.34c.13.13.25.27.37.41l.32.42.15.2c0,.05.16.16.06.09s-.12,0-.11,0l.07,0a.66.66,0,0,1,.23,0,1.33,1.33,0,0,1,.33.08c.16.06.32.13.47.17a5.78,5.78,0,0,0,1,.07,2,2,0,0,0,.94-.1,5.13,5.13,0,0,0,.9-.35.68.68,0,0,0,.24-.3c.07-.15.17-.33.22-.45a4.4,4.4,0,0,0,.26-.95l.1-.52c0-.09,0-.19-.07-.35a5.25,5.25,0,0,0-.5-.85,1.88,1.88,0,0,1-.29-.5,5.08,5.08,0,0,1-.17-.51c-.39-1.37-.68-2.7-1-4.09a2.5,2.5,0,0,1,0-.56,1.86,1.86,0,0,1,.16-.53,1.16,1.16,0,0,0,0-.47,1.1,1.1,0,0,1,.06-.33.5.5,0,0,1,.28-.23,1.69,1.69,0,0,0,.79-.56,2,2,0,0,1,.92-.6,17.39,17.39,0,0,1,1.91-.81,2.58,2.58,0,0,1,2.13-.07l-.07,0c1,0,1.93,0,2.89,0,.24,0,.5,0,.71,0s.11,0,.18-.17.17-.23.21-.3,0-.34-.09-.62,0-.24-.05-.33a1,1,0,0,0-.17-.27,6,6,0,0,1-.47-.57,1.34,1.34,0,0,0-.45-.47,3.17,3.17,0,0,1-.6-.5,1.38,1.38,0,0,0-.53-.32,3.62,3.62,0,0,1-.35-.17c-.05-.05-.1,0-.23,0s-.46,0-.71,0c-.51,0-1,0-1.46,0h-.72c-.15,0-.42.1-.64.16-.45.14-.93.31-1.38.41a2.05,2.05,0,0,0-.56.35,2.08,2.08,0,0,1-.67.36,4.58,4.58,0,0,0-1.15.78A21.79,21.79,0,0,1,139,24.68C138.4,25.41,138,26.28,137.38,27.06Z"/><path class="cls-5" d="M138.84,23a3.88,3.88,0,0,0-.69.54,3.06,3.06,0,0,0-.19.54c-.1.28,0,.32-.2.64s-.12.08-.28.59a2.7,2.7,0,0,0-.22.79c0,.23-.1.27,0,.61l.1.33"/><path class="cls-5" d="M143,25.79c.12.06.53.2.57.47s.5.79.69.64.45-.23.54-.54a2.4,2.4,0,0,1,.75-.89c.23-.19.08-.09.52-.19s1,0,1.17-.26.34,0,.35-.54-.1-1-.86-1-1.24.18-1.18.38,0,.62-.2.72S143,25.79,143,25.79Z"/><path class="cls-5" d="M141.07,34.52c-.2-.18-.25-.11-.42-.18s-.18-.26-.54-.31-.47.23-.52.49-.17.49,0,.81,0,.87.2.72.48-.06.64-.33.31-.27.5-.54A1.07,1.07,0,0,0,141.07,34.52Z"/><path class="cls-3" d="M164,36.23a1.26,1.26,0,0,0-.12-.7c-.16-.39-.45-.56-.45-.87s.29-.68,0-.64a.48.48,0,0,1-.57-.31c-.06-.22-.19-.3-.31-.62s-.05-.43-.5-.58-.14-.49-.58-.58l-.45-.09c-.28-.06,0-.43-.63-.53s-.35-.23-.66-.32a4.37,4.37,0,0,0-.83-.13l-.31.13a2.06,2.06,0,0,1-.58-.13,2,2,0,0,0-.77-.11c-.34,0-.24.11-.84.11s-.28-.22-.74,0-1,.36-1.09.45,0,.26-.49.42a1.89,1.89,0,0,0-1.07.74c-.48.51-.73.9-.86,1s-.43.19-.57.38-.06.35-.38.63-.32.4-.6.55-.51.48-.46,0a2.19,2.19,0,0,1,.4-1,14.77,14.77,0,0,0,.91-1.33,5.48,5.48,0,0,1,1.37-1.14c.25-.12.54-.8.54-.8l.25-.68.09-.91s.32-.55.19-.55H153a3.22,3.22,0,0,0-.54,0,3.6,3.6,0,0,0-.95.15c-.09.07,0,.1-.47.2s-.57.26-.7.18a.28.28,0,0,0-.28,0l-.19-.29a5.36,5.36,0,0,1,.86-.28c.38-.13.76-.26,1.29-.48s.77,0,1.24,0a24.54,24.54,0,0,1,2.54.48l1,.34a2.53,2.53,0,0,1,.93.64c.06.16.76,1.65.63,1.87s.1.6,0,.92-.28.85-.41,1.36,0,.47,0,1-.1.54-.29,1,0,.29,0,.74a1.78,1.78,0,0,1-.19.83,3.74,3.74,0,0,1-.67,1.24c-.39.51-.63.33-1.1.65s-.57.41-1,.74-.89.18-1.18.28-.54.09-.92.19a1.77,1.77,0,0,0-.88.58c-.32.29-.57.14-1,.3a1.88,1.88,0,0,1-.82.16,5.44,5.44,0,0,1-.7,0,4.48,4.48,0,0,1-.76-.28c-.41-.16-.44-.35-.73-.51s-.54,0-.73,0-.35-.41-.66-.72-.45-.1-.79-.17a1.52,1.52,0,0,1-.77-.31,1.63,1.63,0,0,1-.53-.57.6.6,0,0,0-.61-.34,3.11,3.11,0,0,1-.92-.2,5.25,5.25,0,0,1-.69-.51s.72-.34,1.19-.53.38-.19.72-.6,0-.44,0-1,.08-.87,0-1.06a8,8,0,0,1,0-1.57c0-.53-.38-.14-.38-.14a1.62,1.62,0,0,1-.32-.76c-.12-.54-.14-.29-.42-.76s.31-.83.4-1.22-.41-.52-.22-.81a2,2,0,0,0,.22-1.18c0-.58-.22-.31-.47-.59s-.48-.16-.86-.16a1.82,1.82,0,0,0-.88.19,2.18,2.18,0,0,0-.45.79,2.68,2.68,0,0,0,.13,1.14c.13.44.25.73.47,1.57s.58,1.09.87,1.14,0,.52,0,.79.21.4.56.56,0,.28,0,1-.22.35-.35.52-.35.49-.64.87-.44.29-.77.35-.68.16-.68,0-.92-.79-.9-.87a10.65,10.65,0,0,0-.56-1.25c-.06-.16-.22-.67-.31-1.06a14,14,0,0,0-.58-1.49,3.27,3.27,0,0,1-.22-1.35,2.53,2.53,0,0,0-.06-.79,2.94,2.94,0,0,0-.27-.7c-.14-.22.24-.54.4-.67a7.2,7.2,0,0,1,.79-.59,4.25,4.25,0,0,0,.81-.59,1.28,1.28,0,0,0,.38-.63,3.8,3.8,0,0,1,.33-.94,6.4,6.4,0,0,0,.6-1,2.29,2.29,0,0,1,.45-.85c.19-.22,1.14-.73,1.26-.89a3.24,3.24,0,0,1,1.08-.66c.38-.13.56-.28,1-.41a9,9,0,0,1,1.08-.32c.47-.1,1.2.12,1.54,0s.72-.18.87,0,.12.23.36.52a1.07,1.07,0,0,0,.93.33c.35,0,.09-.16.51,0s.63.25.76.44a2.84,2.84,0,0,0,.38.45s.5,0,0,.25-.72.2-1,.38-.66-.35-.75.17-.32.6-.1.92a1.21,1.21,0,0,0,1.26.3c.45-.15.84-.3.84-.3l.31-.41"/><path class="cls-5" d="M164.13,33.65c-.35-.32-.79-.48-.85-.76s.09-.25,0-.59-.13-.26-.23-.57.19-.86,0-1-.09,0-.72-.08a3.25,3.25,0,0,0-1.18,0c-.38.06-.38.12-.66-.05a3.94,3.94,0,0,0-.76-.41,2.34,2.34,0,0,0-.89-.27c-.7-.13-.85.18-1-.11a28.93,28.93,0,0,0-3.32-2,4.36,4.36,0,0,0-.3-1.2c-.19-.25-1.16-1.25-1.16-1.25l-.44-.31"/><path class="cls-7" d="M32.2,75.93c0-.29-.17-.55,0-1.1a7,7,0,0,0,.42-1.43c0-.38.34-2.83.34-3s-.26-1.52,0-1.9a5.28,5.28,0,0,0,.29-2c0-.38-.38-1.64-.38-1.94a19.62,19.62,0,0,1-.51-3.51A15.12,15.12,0,0,0,32.13,58a8,8,0,0,1,0-2,19.11,19.11,0,0,0-.57-4.06,31.09,31.09,0,0,1-.42-4,35.25,35.25,0,0,1,.29-4.61,20.26,20.26,0,0,0,.6-4.06c0-1.18-1-5.62-.89-6.38s-.34-1.94-.34-3.08a13.7,13.7,0,0,1,0-2.66,20.41,20.41,0,0,1,.87-2.31"/><path class="cls-7" d="M44.32,27.51s.17.51.3.84a2.22,2.22,0,0,1,.29.93,7.42,7.42,0,0,1-.29,2.2c-.17,1,.12.93-.3,2s-.55,1.69-.8,2.49-.34,1.9-.47,2.37.09,3.89,0,4.22-.33,5.29-.29,5.58S43,51,43,51.64a21.66,21.66,0,0,1-.26,3.46c-.16.38-.84,3.85-.92,4.18a40.19,40.19,0,0,0-.51,4.06c0,.42.47,2.4.47,2.72v3c0,.72.29,2.53.21,3.17a24,24,0,0,0,.08,2.71,5,5,0,0,0,0,.55"/><path class="cls-7" d="M53.74,31.35c-.21.43-.16.93-.38,1.57a5.85,5.85,0,0,0-.25,2.15,26.49,26.49,0,0,1-.3,2.79,20.65,20.65,0,0,1-.63,3.8c-.29.89-1.1,5.79-1.22,6.22s-.38.08-.55,1.47a11.84,11.84,0,0,1-.34,2.88c-.34.84-.47,3.93-1.18,6a19.41,19.41,0,0,0-.81,4.82,18.92,18.92,0,0,0,.59,3.55c.17.76.55,2.74.55,3s-.12,2.19-.17,2.53-.71,2.89-.71,2.89"/><path class="cls-5" d="M61.81,28.86s-.29.59-.42,1a4.48,4.48,0,0,0-.29,1.31,14.18,14.18,0,0,1-.17,1.74,14.74,14.74,0,0,0-.3,2.57A13.1,13.1,0,0,1,60,39c-.34,1-.51,2.24-.6,2.5s-.38,1.22-.59,1.86a6.48,6.48,0,0,0-.34,1.26"/><path class="cls-7" d="M58.27,45.85c-.34.42-.55.59-.47,1s.49.46.22,1-.51.72-.51,1.31.21.69,0,1.21A5.21,5.21,0,0,0,57,51.93a21.18,21.18,0,0,0-.17,2.71c0,1.6.08,1.86,0,2.66a18.08,18.08,0,0,1-.59,2.32,10.46,10.46,0,0,1-.38,1.48c-.3.85-.59,2.79-.85,3.51s-.42,2.07-.76,2.83-.21,2.45-.51,3.21.3,4.18,0,5.28a37.74,37.74,0,0,0-1,4.57c0,.67-.84,4-.84,4.9V87"/><path class="cls-7" d="M74.11,31.73s-.84.05-.84.57v1.54c0,.26-.6,2.27-.6,3a5.24,5.24,0,0,1-.5,2.63,22.91,22.91,0,0,0-1.27,3.55,18.18,18.18,0,0,0-.76,3.13c-.09,1,.08,1.34,0,2.36a10.4,10.4,0,0,0,0,2.94,9,9,0,0,1,.28,2.22c0,.67.26,2.28-.38,3.12S69.55,57.93,69,59a26,26,0,0,0-1.27,3c-.17.43-.42,1.19-.42,1.19"/><path class="cls-7" d="M76.22,31.31c-.25.17-.5.47-.67,1.38a17.21,17.21,0,0,1-.93,2.84,15.46,15.46,0,0,0-.93,3,16.32,16.32,0,0,1-.76,2.11,14.48,14.48,0,0,1-.76,2.16,8.05,8.05,0,0,0-.76,2.46c0,.59-1.37,4.15-1.38,4.73a12.18,12.18,0,0,1-.65,2.79,29.83,29.83,0,0,0-.76,3.63c-.09.51-.76,2.87-.85,3.38s.17,3.55,0,4.14.09,3.38-.5,4.23a10.43,10.43,0,0,0-1.19,2.7,28.67,28.67,0,0,0-.67,3.69c0,.28-.68,2.73-.68,3.33s-.42,5.4-.42,5.4"/><path class="cls-5" d="M77.41,48.55a7,7,0,0,1,1.1-1.77,6.26,6.26,0,0,0,.67-2.12,7.08,7.08,0,0,1,.68-1.43,8.16,8.16,0,0,1,.67-1.78A3.21,3.21,0,0,0,81,39.92a12.61,12.61,0,0,1,.67-1.39c.17-.48.76-1.22.93-1.77a7.85,7.85,0,0,1,1.22-1.71V33.84"/><path class="cls-7" d="M79.86,37.82a10.21,10.21,0,0,0-.76,2.57,20.08,20.08,0,0,1-1.1,4,7.31,7.31,0,0,0-.59,1.84c-.17.76-.6,1.52-.6,1.94a12.29,12.29,0,0,1,0,1.86c-.08.93-1.18,2.45-1.52,3.72s-.59,5.15-1.18,5.83-3,6.76-3.42,7.52-1.31,3.2-2.33,5.15-2,4.9-2.36,5.33-2.2,5.32-2.37,5.74a16,16,0,0,0-1,3c0,.59-.81,3.8-.81,3.8"/><path class="cls-7" d="M72.17,55.15a18.35,18.35,0,0,1,0,3.71c-.26.68.25,1.18,0,2.2S72.38,63.13,72,64s-.53,1.23-.53,1.23"/><path class="cls-7" d="M75.14,54.48c-.07.45-1,2.82-1,2.82L73.35,61"/><path class="cls-7" d="M87,36.23l-.76,1.06a5.61,5.61,0,0,0-.77,1.58,7.4,7.4,0,0,1-.5,1.77c-.26.47-.34,0-.51,1s-.51,1.1-.64,1.69-.46.34-.71,1.35a12.35,12.35,0,0,1-.51,2.2c-.42,1.1-.51.58-.76,1.69s-1,1.44-1.2,2.28-.32,2.71-.74,3.21a15,15,0,0,0-1.1,3.68c-.25,1.06-1.27,4.69-1.35,5.11s-2.09,6.17-2.27,7-1.54,4.08-1.79,4.7-.87,3.75-1.07,4.09-2,9.8-2,9.8"/><path class="cls-7" d="M88.6,35.57s-.71.88-1,1.31-1.27,2-1.27,2-.93,2.3-1.09,2.74a15.32,15.32,0,0,1-1.19,2.74,5,5,0,0,0-.84,1.92,6.69,6.69,0,0,0-.51,2.62,9.61,9.61,0,0,1-1.18,3.46,4.21,4.21,0,0,1-1,2.13,17.82,17.82,0,0,0-2,4.21c-.31.77-2,6.52-2,6.52"/><path class="cls-7" d="M91,36.23s-.54,1.91-.75,2.3a11.87,11.87,0,0,0-1,2c-.43,1.11-1.69,3.31-2.28,4.83s-2.88,5.92-3.18,7.18-2.15,4.74-2.23,5.2-1.69,5.87-1.69,5.87l-.34.39-.91,2.44a25.44,25.44,0,0,1-.7,2.92c-.25.59-1.6,2.19-1.69,2.87a4.38,4.38,0,0,1-.67,2,8.55,8.55,0,0,0-.76,1.31"/><path class="cls-7" d="M95.74,39.42a5.57,5.57,0,0,0-1.94,2c-.51.93-2.87,5.57-3.59,7.1s-2.83,5.27-2.92,5.93-1.26,4-1.43,4.72-1.1,5.09-1.52,6-1.15,3.62-1.47,4.38A35.16,35.16,0,0,0,81,73.4c-.43,1.35-1.69,4-1.78,5A8.52,8.52,0,0,1,78.61,81a9.63,9.63,0,0,0-.44,1.86"/><path class="cls-7" d="M97.27,39.42c-.34.43-2.54,4.86-2.71,4.93a25.78,25.78,0,0,0-1.69,3.15c-.34.71-1.36,2.32-1.91,3.5s-1.81,2.32-2.36,3.48-2.27,3.19-2.43,3.7a29.38,29.38,0,0,1-2.39,4.65,26.83,26.83,0,0,0-3.18,5c-.4,1.18-2,4.73-2,4.73"/><path class="cls-5" d="M73.35,96.8a6.69,6.69,0,0,0-.42,2.37c0,.59.42,1.27,0,2s-1.19,2.11-1.44,2.7a14.82,14.82,0,0,1-1.86,2.45c-.51.6-1.77,2.62-1.77,2.62"/><path class="cls-7" d="M65.15,95.28c0-.25-.5-3.12-.5-3.12s.08-3.13-.34-3.72,0-4,0-4.56v-1"/><path class="cls-7" d="M101.58,43.23s-1,1.43-1.53,2.28S98,50,97.77,50.35s-.93,1.58-1.35,2.17-1.35,2.94-1.61,3.33-.92,1.74-1.35,2.42-.76.44-1.18,1.91-1,2.15-1.32,3.08a10.39,10.39,0,0,0-.75,2.8,13.3,13.3,0,0,1-1.61,4.29c-.46.6-2.07,2.71-2.15,3.47s-1.86,6.08-2.11,6.84-1,6.17-1.72,7.53S79.86,95,79.86,95"/><path class="cls-7" d="M103.77,44.35s-.93,1.5-1.26,1.92,0,.93-.93,1.52a5.85,5.85,0,0,0-1.78,1.94,16.49,16.49,0,0,1-1.52,3.13,31,31,0,0,0-2.54,4.44c0,.21-3.54,6-3.54,6s-.17-.17-.34.72a6.41,6.41,0,0,1-1.14,2.08"/><path class="cls-5" d="M109.86,45.85A6.08,6.08,0,0,0,108.51,47c-.34.51-.34,1.43-.6,1.52a6.74,6.74,0,0,0-1.53,1.84c-.24.53-1.85,3.49-1.85,3.49l-1.1,1.59-.84,1.83"/><path class="cls-5" d="M101.91,57.72l-.33,1a7.87,7.87,0,0,0-.93,1.49c-.09.37-.68,1-.85,1.47a5,5,0,0,1-.51,1.27c-.33.5-.5-.34-.67.34s-.42.34-.51.72a1.8,1.8,0,0,0,0,.71"/><path class="cls-7" d="M98.07,65.54s-1.4,1.1-1.4,1.43a5.16,5.16,0,0,1-.59,1.44c-.17.34-1.27,1.78-1.6,2.28s-1.69,2.62-1.69,2.62l-1.36,2.16-1.22,2.66L88.6,80.66s-.52,1.36-.66,1.61a2.37,2.37,0,0,0,0,1"/><path class="cls-7" d="M111.8,45.17l-.59,1.1a7.72,7.72,0,0,0-.85,1.23,22.78,22.78,0,0,1-1.52,1.81,12.72,12.72,0,0,0-1.43,2.26,19.09,19.09,0,0,1-2.29,3.58,21.34,21.34,0,0,0-2.53,3.8c-.34.93-2.24,3.12-2.6,3.8s-2.3,3.89-2.3,4.56-1.52,2.88-2,3.64S94,73.14,93.8,73.48,91.86,77,91.86,77a13,13,0,0,0-1.65,2.45,52.89,52.89,0,0,1-2.33,4.81"/><path class="cls-7" d="M92.51,84.86s-.22.47-.28.63-.35.6-.35.6-.29.84-.45.91a3.58,3.58,0,0,0-.71,1.06c0,.09-.24.47-.36.63a4.6,4.6,0,0,0-.41.79c-.07.16-.19.31-.35.65a6.72,6.72,0,0,0-.48,1c-.09.35-.16.19-.35.7s-.22.5-.41.92-.66,1.74-.79,2A7.5,7.5,0,0,0,87,96.33a2.66,2.66,0,0,1-.22,1,4,4,0,0,0-.28.82,1.9,1.9,0,0,1-.38.73,1.34,1.34,0,0,0-.22.7c0,.16-.13.44-.16.7s-.29.47-.35.73a3.23,3.23,0,0,1-.25.76c-.13.22-.32.28-.35.57a3.68,3.68,0,0,1-.26.79"/><path class="cls-7" d="M115.71,49.33h-.32l-.21.24a15.7,15.7,0,0,0-.84,1.43c-.09.26-.68.59-.93,1.1a16.57,16.57,0,0,1-1,1.78c-.25.33-.76.86-1,1.27s-2.11,3-2.11,3-1.27,1.63-1.61,2.08-.42.33-.76,1-.68,1.54-.68,1.54a3,3,0,0,0-.76.51,7.17,7.17,0,0,1-.59.72,6.62,6.62,0,0,1-.34,1.23c-.17.33,0,.36-.42.85s-1.69,1.25-1.52,1.59-.34.42-.68,1.44a10.35,10.35,0,0,1-1.26,2.28s-.43,1.77-.81,2-1.38,2.87-1.77,3.12-2.75,3.81-2.75,3.81L93,84.55"/><path class="cls-5" d="M117.33,50.25c-.23,0-.42-.09-.54,0s-.32-.07-.38.14.22.27,0,.4-.29.06-.38.25-.35.19-.32.35,0,.22-.16.38.1-.28-.16.16-.06.13-.25.45-.38.57-.38.57,0-.29-.22,0a2.85,2.85,0,0,0-.26.53c-.12.26-.09.32-.35.48s-.19.25-.34.52-.16.54-.38.67-.13.24-.32.52-.41.67-.41.67"/><path class="cls-7" d="M112.1,56.11a5.21,5.21,0,0,1-.3.8c-.08.12-.5.64-.59.81a6.67,6.67,0,0,0-.44.71,2.43,2.43,0,0,1-.38.73c-.19.19-.77.5-.86.69s-.44.64-.51.83a5.86,5.86,0,0,1-.6.85s-.51,1-.6,1.21-.38.11-.57.52-.85.71-.87,1-.59,1.13-.59,1.28a3,3,0,0,1-.32,1,8.14,8.14,0,0,1-.73,1c-.22.28-.53.57-.76.92s-.12.72-.47,1-.54.38-.64.67-.09.47-.28.66a1.77,1.77,0,0,0-.44.54c-.13.25-.45.44-.57.79a3,3,0,0,1-.35.89c-.26.38-.48.7-.67,1l-.57,1a7.62,7.62,0,0,1-.44.76c-.38.6-.64,1-.7,1.08l-.78,1.17"/><path class="cls-7" d="M89.85,99.12,92.77,94l3-4.9,4.1-5.79s2.94-3.9,3-4,1.21-1.52,1.33-1.74a2.88,2.88,0,0,1,.73-.92c.29-.16.19-.19.21-.32a1.17,1.17,0,0,1,.23-.44.67.67,0,0,1,.2-.19,1.26,1.26,0,0,1,.38-.17c.12,0,.09-.25.19-.37s.06-.32.14-.55.3-.28.39-.47a5.84,5.84,0,0,1,.67-.73l.25-.34a2.15,2.15,0,0,1,.16-.19,2.34,2.34,0,0,1,.19-.42c.1-.12.26-.12.35-.19s.13-.25.19-.44,2.69-3.45,2.69-3.45l3.11-3.87L117,60.71c.29-.38,1-1.27,1.3-1.68s1.11-1,1.3-1.31a5,5,0,0,1,1.14-1.13"/><path class="cls-5" d="M89.22,100l-.35.83"/><path class="cls-7" d="M122.62,56.11a6.19,6.19,0,0,0-1,.93,3.54,3.54,0,0,1-.36,1c-.19.21-.7.71-.87.88a2.22,2.22,0,0,0-.46.76,2.26,2.26,0,0,1-.26.52,3,3,0,0,1-.59.78,8,8,0,0,0-.59.69c-.17.25-.38.4-.59.68s-.32.42-.6.76a6.33,6.33,0,0,0-.71.89c-.38.54-.3.67-.68,1s-.42,0-.67.55-.13.46-.55.88-.64.36-.89.69a7.58,7.58,0,0,1-.59.71c-.34.38-.26.46-.76.76a3.37,3.37,0,0,0-1.19,1.31,9.51,9.51,0,0,1-.67,1.06,8.07,8.07,0,0,0-.34.84,3.85,3.85,0,0,1-.42.93,12.63,12.63,0,0,0-1.31,1.83,13,13,0,0,1-1.14,2c-.3.38-2,2.2-2.1,2.54s-1.71,2.49-1.75,2.62-2.7,4-3,4.48-2.32,3.08-2.66,3.59a17.74,17.74,0,0,1-2.16,2.41c-.63.55-2.28,2.45-2.28,2.45A6,6,0,0,0,92.2,96c-.6.89-.26.26-.6.89a6.56,6.56,0,0,1-.64,1"/><path class="cls-5" d="M89.62,100.8a5.33,5.33,0,0,1,0-.83"/><path class="cls-7" d="M98.07,90.55s.63-.29.72-.59a5.81,5.81,0,0,1,.5-1.14c.13-.17.6-1,.7-1.18a11,11,0,0,1,.74-1.1c.34-.43.85-.93,1-1.1s.55-.76.85-1.06a8.68,8.68,0,0,0,1.18-1.9c0-.17,1-2.15,1-2.15s1.92-3,2-3.08a3.67,3.67,0,0,0,0-.94"/><path class="cls-5" d="M121.29,61l-.51.48a2.59,2.59,0,0,0-.49.63c-.12.3-.93,1.27-1,1.48a3.28,3.28,0,0,1-.47.76c-.29.42-.25.58-.54.9a2.45,2.45,0,0,0-.47.58c-.21.34-.23.13-.47.63s-.25.11-.67.69a11.76,11.76,0,0,1-1,1.34,5.1,5.1,0,0,0-1.12,1.4c-.13.42-.21.42-.59.8s-.55.8-.85,1.14-.8,1.27-1.05,1.52-1.1,1.24-1.1,1.24"/><path class="cls-7" d="M110.49,75.1c0,.37-.55.92-.63,1.21s.25-.12-.09.3-.72.46-.88.8.25.09-.17.34l-.43.25v.11"/><path class="cls-7" d="M127.05,58.19c0,.46,0,.59-.54,1.09a18,18,0,0,1-1.31,1.31,7.26,7.26,0,0,0-1.27,1.27c-.59.68-1.69,1.44-2,2.12a28.56,28.56,0,0,1-2.62,3.54c-.34.3-.42.93-.68,1a1.39,1.39,0,0,0-.8.59c-.25.33-4,6-4,6s-2,3.62-2.62,4.47a5.1,5.1,0,0,0-.89,1.56,6.78,6.78,0,0,1-.89,1.27c-.59.8-.59.71-.8,1a5.49,5.49,0,0,1-.85,1.43,20.61,20.61,0,0,0-1.36,1.8c-.16.17-1.07,1.4-1.07,1.4l-.4.72"/><path class="cls-7" d="M104.34,89.33a2.81,2.81,0,0,0-.44.59c-.09.21,0,.55-.17.63s-.25.09-.42.38a3.61,3.61,0,0,1-.3.51,1.3,1.3,0,0,1-.38.46c-.29.26-.21,0-.38.43s.34-.17-.17.46-.21.76-.5.93-.72.89-1.06,1.23a11,11,0,0,0-1.14,1.52c-.21.33-2.11,2.83-2.11,2.83a34.13,34.13,0,0,0-1.91,3.12c0,.26-.76.93-.93,1.44a7.43,7.43,0,0,1-.76,1.48c-.29.51-.67,1-.88,1.44s-1.23,1.43-1.57,2-2.61,2.75-2.72,3-1.8,2.37-2,2.75-1,1.48-1.14,1.69a10.76,10.76,0,0,0-.59,1.23c0,.25-.31,1.1-.31,1.1"/><path class="cls-7" d="M101,92.75a8.85,8.85,0,0,1,1.19-1.61c.34-.21.8-.34.8-.59s.89-.8.8-1a2,2,0,0,1,.57-1.35,18.59,18.59,0,0,0,1.88-2.2c.13-.25,1.31-1.61,1.36-1.82s1.43-2.28,1.47-2.41,2.29-3.25,2.29-3.25,5.19-6.55,5.32-6.76.85-1,1-1.1.72-.84.72-.84,0-.43.17-.43.72-.54.72-.54l1.54-2.16,1.63-2,4.64-5.83"/><path class="cls-7" d="M128.49,59.62s-.59.17-.89.3-.42-.06-.67.26-.55.78-.55.78a7.48,7.48,0,0,0-.47.61c-.17.25-.08.52-.38.76s-.08-.09-.29.25-.09.08-.21.34-.38.42-.47.59-.29,0-.51.47-.21.59-.33.71-.26,0-.43.3a2.07,2.07,0,0,0-.32.55s-.1.33-.35.52-.26.07-.42.36-.17.32-.3.52-.42.79-.47.81.06-.1-.14.2a2.32,2.32,0,0,0-.32.5c-.08.21.21.13-.19.38a.94.94,0,0,0-.49.59A2,2,0,0,1,120,70c-.17.26-.17.17-.3.47a.77.77,0,0,1-.5.51c-.26.08,0-.34-.26.08a3.79,3.79,0,0,1-.51.68c-.5.46-.46.67-.63.84s-.36,0-.47.3.09.34-.21.63-.29,0-.59.47,0,.42-.55.88-.81,1.19-1.08,1.48-.35,1.1-.88,1.54a5.16,5.16,0,0,0-1.08,1.42,13.5,13.5,0,0,1-.84,1.1"/><path class="cls-7" d="M133.52,63.26s-.76.67-.85.72a3.41,3.41,0,0,0-.38.54l-.76.69-.21.33c-.17.25-.17.45-.29.52s-.3,0-.51.36-.55,1-.55,1-.55.46-.55.63-.51.55-.59.85a1.31,1.31,0,0,1-.34.71c-.25.26-.29.17-.59.64s-.42.76-.59,1a3.33,3.33,0,0,1-.72.59,1.7,1.7,0,0,0-.55.76,2.9,2.9,0,0,1-.59.93c-.17.13-.51.63-.8.93a3.28,3.28,0,0,0-.85,1.06c-.08.33-.42,1.09-.63,1.14a.59.59,0,0,0-.55.4,5.59,5.59,0,0,1-.55.84s-.17-.19-.47.26-.38.61-.5.78-.81.55-.81.72-.12.25-.25.46a3.32,3.32,0,0,1-.46.51l-.47.42s-.55.42-.55.72-.63.89-.84,1.14-.19.38-.39.57-.71.61-.92.78-.68.4-.7.65a1.47,1.47,0,0,1-.36.66c-.13.17-.18.51-.45.64a1,1,0,0,0-.65.63,2.89,2.89,0,0,1-.59,1c-.25.26-.8,1.1-1,1.31s-3.43,3.68-3.43,3.68-2.07,2.66-2.19,3,0,.76-.24.88-.23-.08-.57.38a9.75,9.75,0,0,0-.5.93c-.17.26-.72.76-.81.93s-.46.24-.57.78a3.62,3.62,0,0,1-.57,1.19c-.25.48-.63.74-.8,1.16a4.09,4.09,0,0,1-.52.93c-.11.13-.41.59-.54.8a9.54,9.54,0,0,0-.63,1.1c-.13.34-.13.76-.3.89s-.21.34-.33.46a1.24,1.24,0,0,0-.22.38"/><path class="cls-7" d="M133.27,67.44s-1.06,1.31-1.31,1.65-.81,1.1-1.15,1.6-1.43,1.35-1.69,1.69-1.31,1.31-1.47,1.57a25.77,25.77,0,0,0-2.12,2.66c-.08.38-.76.72-.76.72a2.32,2.32,0,0,1-.55.78c-.25.15-4.43,5.32-4.43,5.32s-1.65,2.47-1.82,2.68-1.14,1.23-1.27,1.4-.52.29-.55.51a1.54,1.54,0,0,1-.44.76,6.61,6.61,0,0,0-1,1.35,7.53,7.53,0,0,1-.89,1l-.76,1s-.47.64-.59.85a8.58,8.58,0,0,0-.68,1,7.79,7.79,0,0,1-1.1,1.31,10.56,10.56,0,0,0-1.31,1.52,1.56,1.56,0,0,1-.34.72c-.16.21-.63.26-.76.59a3.12,3.12,0,0,1-.29.64,2.22,2.22,0,0,1-.38.37,1.28,1.28,0,0,0-.55.49c-.13.28-.42.55-.51.78a10.49,10.49,0,0,1-.72,1.19c-.17.25-.33.55-.53.8a3.41,3.41,0,0,1-.57.7,9.19,9.19,0,0,0-1,.87c-.08.12-.72,1.18-.72,1.18"/><path class="cls-7" d="M138.84,68a4.57,4.57,0,0,0-.59.72c-.17.29-.8.46-1.1,1s-.42.59-.67,1a4.09,4.09,0,0,1-1.1,1,8,8,0,0,0-1.31,1.4c-.17.29-.76.76-1,1.1s-1.26,1.22-1.39,1.64a18.08,18.08,0,0,1-1.86,2.31c-.25.31-2,2.3-2.2,2.51s-1.39,1.52-1.64,1.82-.47,1-.6,1a4.52,4.52,0,0,0-1,.78c-.17.21-3,4.1-3.25,4.23a11.43,11.43,0,0,0-1.36,1.69,9.37,9.37,0,0,1-.54.8l-.51.8c-.09.13-.21.64-.53.81s-.8.63-.83.84a6.19,6.19,0,0,1-.63,1,9.28,9.28,0,0,1-.55.88,13.84,13.84,0,0,0-1.25,1.06,6.33,6.33,0,0,1-.65,1.06L113,99.12a17,17,0,0,1-1.35,1.27,3.17,3.17,0,0,0-.84,1c-.21.34-.76.84-1,1.14s-.5.21-.63.57a5,5,0,0,1-.8,1.2c-.17.17-.26.09-.47.38s-.67.76-.8,1-.66.25-.73.84-.2.93-.33.93a2.53,2.53,0,0,0-1.14,1.19,2.09,2.09,0,0,1-.57.93c-.27.33-.53.71-.74.93a11.09,11.09,0,0,0-1,1c-.12.21-.72,1-.89,1.22s-.67.72-.76.93a1.94,1.94,0,0,1-.33.59,3.75,3.75,0,0,0-.6.55c-.12.21-.42.64-.5.81l-.43.8a1.36,1.36,0,0,1-.25.46,2.24,2.24,0,0,0-.29.51"/><path class="cls-7" d="M114.59,104.41l1.12-1.52,2.13-2.5,1.65-2a21.32,21.32,0,0,1,1.65-1.61,11.87,11.87,0,0,0,1.48-1.69c.21-.29,1.73-1.69,1.73-1.69l1.06-1.18,1.64-1.69s3.76-3.89,3.93-4,2.17-2.16,2.29-2.29,1.6-1.35,1.69-1.52a11.45,11.45,0,0,1,1.22-1.35c.21-.17,1.31-1.06,1.44-1.18s1-1.27,1-1.27h.47s.59-.68.71-.78a9.46,9.46,0,0,0,1.4-1.1,3.92,3.92,0,0,1,.89-1.21,7.35,7.35,0,0,0,1-.7l1.44-1.37"/><path class="cls-7" d="M146.91,77l-.67-.23a1.47,1.47,0,0,0-.47.11c-.17.1-.12-.32-.55.12s-.33.44-.67.61a8,8,0,0,0-1.19,1.1,1.5,1.5,0,0,1-.5.51,9.07,9.07,0,0,0-.85.67,3.33,3.33,0,0,0-.63.68,2.33,2.33,0,0,1-.68.72,5.66,5.66,0,0,0-1,.84c-.26.3-.55.43-.81.72s-.42.21-.84.57a7,7,0,0,0-.93,1.12,8.73,8.73,0,0,0-.72.68c-.17.21-.51.12-.76.46s-.3.17-.59.59a3.44,3.44,0,0,1-.76.89,5.45,5.45,0,0,0-1,1.1c-.05.13-.72.59-.85.8a.59.59,0,0,1-.3.26s-.54.29-.59.42a4.72,4.72,0,0,1-.59.8,5.67,5.67,0,0,1-.55.55c-.17.13-.8.51-.82.68a5.68,5.68,0,0,1-.83,1l-.8.67-.38.55a3.15,3.15,0,0,0-.34.43c-.12.21.21.25-.17.42s-.63.17-.8.42a7.31,7.31,0,0,1-.84.76c-.3.3-.64.55-.72.8a3.08,3.08,0,0,1-.51.72c-.13.17-1.35,1.38-1.56,1.6s-.42.29-.59.49a1.83,1.83,0,0,0-.34.58c0,.12-.41,0-.4.2s-.19.41-.19.41a.84.84,0,0,1-.32.27c-.23.13-.27.38-.49.51a5,5,0,0,0-.84.72c-.13.17-.42.29-.51.59s-.71.68-.78.89-.57.8-.65,1a6.79,6.79,0,0,1-.53.67,1.28,1.28,0,0,0-.4.43c-.09.21-.47.38-.6.5a3.05,3.05,0,0,0-.27.51c-.11.17-.44.34-.61.51a5.87,5.87,0,0,0-.81.93,4.25,4.25,0,0,1-.76,1c-.12.08-.76.76-.76.76s-.59.63-.67.76-1,.68-1.1.93a8.05,8.05,0,0,1-1,1.14l-1.69,2.07-.84,1"/><path class="cls-7" d="M152.83,80.37a2.79,2.79,0,0,0-1.44.72c-.42.42-.93.67-1.27,1s-.63.59-.92.8-2.88,2.28-3,2.45-1.73,1.65-2,2a4.68,4.68,0,0,1-1.14,1c-.47.21-1.06,1.27-1.31,1.44a10.68,10.68,0,0,0-1.56,1.35c-.3.38-1.06.76-1.15,1s-.16.63-.21.63a.3.3,0,0,0-.38.09c-.21.21-1.35,1-1.52,1.22s-.72.55-.89.76-.63.38-.71.64-.3.42-.34.55,0,.42-.34.44-.59.53-.72.74-1.52,1.35-1.77,1.61-2.37,3-2.6,3a19.78,19.78,0,0,0-2.39,2.24c-.46.5-1.48,1.31-1.94,1.85s-.59.93-1.1,1.27-.76,1.23-1.52,1.69-1.65,1.44-2.33,1.82a17.54,17.54,0,0,0-2.83,2.32l-3.25,3s-1.35,1.18-1.56,1.39a8.22,8.22,0,0,0-1,.89,4.72,4.72,0,0,1-.59.67,9.83,9.83,0,0,0-1,.85c-.21.29-1.27,1.27-1.48,1.6s-1.78,1.86-1.8,2a15.5,15.5,0,0,1-.86,1.33"/><path class="cls-7" d="M160.18,99.42a1.19,1.19,0,0,0-.59.19,7.31,7.31,0,0,0-1.23,1c-.29.29-.67.71-1,1.09s-1,.45-1.18.86a4,4,0,0,1-.59.92,4.83,4.83,0,0,1-.6.51c-.33.29-.33.16-.5.46s-.26.3-.55.47a1.2,1.2,0,0,0-.59.5,6,6,0,0,1-.51.68c-.25.25-.47.42-.76.72a3.53,3.53,0,0,1-.76.59,3.8,3.8,0,0,0-1,.8c-.17.25-.38.42-.47.59s.25-.17-.08.17a6.79,6.79,0,0,1-1.06.93c-.34.21-3.42,2.71-3.42,2.71l-4.95,4.6-1.26,1.4s0,0-.26.21-.59.21-.76.46-1,1.18-1,1.35-.89.85-1,1.06-1.26,1.35-1.26,1.35a5.24,5.24,0,0,0-.47.55c-.21.3-.87.55-1,.76s-.85.68-.89.8-.38,0-.55.38a8.63,8.63,0,0,1-.55.85c-.08.13-.59.25-.72.38a8.44,8.44,0,0,0-.63.76,2.61,2.61,0,0,1-.55.38,8.39,8.39,0,0,1-1.1.8c-.34.17-.38.64-.63.76s-.47.26-.47.26.34.12,0,.21-.17-.3-.55,0a1.75,1.75,0,0,0-.55.63c-.12.21.38-.08-.12.21s-.76.43-.89.68a4.48,4.48,0,0,1-.89.85c-.21.16-.67.59-.89.76s-.25.33-.5.55-.81.59-1,.71-1.14,1-1.14,1-1.22,1-1.35,1.18a14,14,0,0,1-2,1.94c-.26.05-.3.38-.6.64s-.38.51-.59.59a2.45,2.45,0,0,0-.67.51,10.69,10.69,0,0,0-.93,1.05"/><path class="cls-6" d="M138.63,23.32Z"/><path class="cls-6" d="M138.63,23.32h0Zm0,0Z"/><path class="cls-6" d="M140.76,38.43a2.24,2.24,0,0,1-.81-.13,1.34,1.34,0,0,0-.71-.2,1.37,1.37,0,0,1-.9-.35c-.3-.2-.25-.34-.21-.47a.4.4,0,0,0,0-.15.41.41,0,0,0-.16-.26.76.76,0,0,1-.2-.27.6.6,0,0,0-.18-.27.31.31,0,0,1-.12-.15c-.08-.17-.3-.2-.52-.2h-.16c-.11,0-.1-.07-.09-.13s0-.14,0-.25a.34.34,0,0,0,0-.26l-.12,0a3.51,3.51,0,0,1,.08-.45,3.67,3.67,0,0,0-.22-.61,2.36,2.36,0,0,1-.19-.67,6.78,6.78,0,0,1,0-.76,7.09,7.09,0,0,1-.15-.91.91.91,0,0,1,.16-.58c.16-.18,0-.35,0-.48a.56.56,0,0,1-.09-.17,2,2,0,0,1,0-.8c0-.19.08-.45.13-.7l0-.24a2.26,2.26,0,0,0,0-.33,1.86,1.86,0,0,1,.07-.52,1.3,1.3,0,0,1,.22-.5l.2-.33a2.68,2.68,0,0,1,.32-.44,1.25,1.25,0,0,0,.24-.41l.07-.15a.73.73,0,0,1,.18-.25.49.49,0,0,0,.15-.23.8.8,0,0,1,.16-.3c0-.07.12-.15.19-.26s.18-.2.26-.21a.48.48,0,0,0,.2-.05c.18-.09.2-.14.2-.22a1.25,1.25,0,0,0,0-.51,1.46,1.46,0,0,0,0-.2,1.36,1.36,0,0,1-.09-.53c0-.16,0-.21,0-.22h0a.44.44,0,0,0,.2-.07l.14-.06.12,0,.29.2a.72.72,0,0,0,.32.2s.13,0,.13-.05c.16-.16.14-.23.1-.29a.27.27,0,0,1,0-.23l.05-.09a.86.86,0,0,1,.47-.11l.26.06a1,1,0,0,0,.28-.06.47.47,0,0,0,.12-.07l.24-.16.2-.13a1.51,1.51,0,0,0,.23-.21L142,22a.71.71,0,0,1,.22-.15.48.48,0,0,0,.22-.15c.07-.09.11-.1.15-.1l.19,0H143a2.28,2.28,0,0,0,.48-.42.44.44,0,0,1,.26-.15.57.57,0,0,0,.23-.08,1,1,0,0,1,.46-.1.82.82,0,0,0,.25,0,6.75,6.75,0,0,1,.78-.21,1.4,1.4,0,0,1,.66,0h.79c.17,0,.2,0,.26-.05l.17-.09a1.23,1.23,0,0,1,.56-.1,1.76,1.76,0,0,1,.38.06,2.43,2.43,0,0,0,.31.05,1.28,1.28,0,0,1,.49.29h.69a.36.36,0,0,1,.2.06.3.3,0,0,1,0,.18.39.39,0,0,0,0,.14c0,.05,0,.09,0,.12a.4.4,0,0,0,0,.27c.07.13.21.16.39.2l.3.07a.57.57,0,0,1,.28.15,1,1,0,0,1,.4.45.71.71,0,0,0,.07.15,1.18,1.18,0,0,1,.1.32l0,.12a2.38,2.38,0,0,0,.09.38l0,.11a.74.74,0,0,1,.07.31c0,.15-.19.23-.19.23l0,.74c0,.11,0,.17-.53.19l-.31,0-.18,0-.33,0-.25,0a1.91,1.91,0,0,1-.42,0h-.35s0,0-.17,0-.27,0-.31.12a.38.38,0,0,1-.09.08l-.15,0a1.33,1.33,0,0,1-.37-.07l-.17,0a.91.91,0,0,0-.23,0l-.18,0h-.15a.77.77,0,0,0-.28.06l-.14.05a.72.72,0,0,0-.22.08.67.67,0,0,1-.16.06,1.39,1.39,0,0,0-.28.06,2,2,0,0,1-.39.1l-.17,0-.1,0-.21,0h-.13a.29.29,0,0,0-.13.05c-.08.05-.35.21-.35.33a.37.37,0,0,1-.12.19.91.91,0,0,0-.15.21,1.54,1.54,0,0,0,0,.17,2,2,0,0,1-.09.24.45.45,0,0,1-.25.3l-.17.09h0a.47.47,0,0,0-.28.22.54.54,0,0,1-.06.11,1.2,1.2,0,0,0-.11.2c0,.07-.07.1-.14.13l-.14.1a.87.87,0,0,0-.14.12,1.52,1.52,0,0,1-.22.18s-.06.09-.07.1.1.27.22.43l.11.17c.1.15,0,.27,0,.38l-.09.14a.75.75,0,0,0-.12.39A.64.64,0,0,0,143,30c.07.08.14.16.14.22s-.12.29-.29.5a.47.47,0,0,0-.1.44.45.45,0,0,0,.23.31.71.71,0,0,1-.14.37,1,1,0,0,0,.26.51c.12.09.15.24.18.46s0,.17.11.17a.39.39,0,0,0,.11-.06l.3,0,.09.07a.22.22,0,0,0,.09.14s0,.16-.07.24a1,1,0,0,0-.11.35,4.14,4.14,0,0,0,.11,1,1.08,1.08,0,0,1,0,.52,1.39,1.39,0,0,0,0,.32,1.39,1.39,0,0,1-.14.66l-.08.18c-.09.24-.05.33,0,.41a.11.11,0,0,1,0,.14,1,1,0,0,1-.39.39l-.11.08a3.18,3.18,0,0,0-.34.29l-.24.21a.9.9,0,0,1-.61.17h-.19l-.36,0h-.22A.78.78,0,0,0,140.76,38.43Zm1.05-2.07a.34.34,0,0,0-.24.13.63.63,0,0,0-.15.2c0,.06-.06.08-.19.13a1.77,1.77,0,0,0-.39.15,3.32,3.32,0,0,1-.7.2s-.11,0-.11.07,0,.13.38.24l.23.08a1.62,1.62,0,0,0,.32.09,1.06,1.06,0,0,0,.24,0,.78.78,0,0,0,.22,0h.05a.45.45,0,0,0,.3-.12,1.59,1.59,0,0,0,.31-.24.36.36,0,0,1,.18-.12,1.19,1.19,0,0,0,.43-.39c.18-.24.25-.39.21-.49s-.07-.24-.15-.24-.09,0-.14.12a.18.18,0,0,0,0,.21h-.08c-.2,0-.25-.07-.27-.09h-.08a.24.24,0,0,0-.12,0,.3.3,0,0,1-.13,0Zm.29-2.66a.18.18,0,0,0-.18.14.64.64,0,0,1-.18.32.89.89,0,0,0-.17.24.59.59,0,0,1-.13.14.49.49,0,0,0-.16.2.28.28,0,0,1-.14.15l-.09,0a.58.58,0,0,0-.3.3.57.57,0,0,0-.07.16c0,.06,0,.08-.17.18a1.68,1.68,0,0,0-.28.23l-.11.1-.09,0s-.06.09-.07.11.07.2.16.25.31.22.41.22a1.19,1.19,0,0,0,.25,0,.27.27,0,0,0,.17-.06l.1-.08a.82.82,0,0,1,.15-.11l.12-.06a1,1,0,0,0,.23-.13l.12-.07a.52.52,0,0,0,.23-.21.35.35,0,0,0,0-.13.46.46,0,0,1,.12-.23.75.75,0,0,0,.17-.23.47.47,0,0,1,.06-.09c.17-.05.26-.09.26-.29V34l-.16-.18A.52.52,0,0,0,142.1,33.7Zm-1.93-.18a.71.71,0,0,1-.37.14c-.15,0-.21.06-.28.33a2.88,2.88,0,0,0-.06.41c0,.16,0,.24-.14.33l-.18.12a1.11,1.11,0,0,0-.25.21c-.1.11-.16.17-.14.25s.08.15.27.27l.18.11a.87.87,0,0,0,.36.18.39.39,0,0,0,.11-.06c.14-.14.25-.24.1-.41a.71.71,0,0,0-.15-.15c-.1-.09-.11-.1-.06-.18a.46.46,0,0,0,.07-.18.31.31,0,0,1,.11-.17.75.75,0,0,0,.15-.18.51.51,0,0,1,.18-.2.27.27,0,0,1,.17-.06.69.69,0,0,1,.31.12.49.49,0,0,0,0,.17h.05s.07,0,.17-.07c.34-.2.4-.26.43-.36s-.06-.11-.09-.12,0,0,.08-.1a.59.59,0,0,1,.22-.12c.08,0,.12-.05.23-.23l.16-.28c0-.08.05-.11.1-.14l.14-.08c.12,0,.24-.11.24-.21a.16.16,0,0,0-.06-.14,1.36,1.36,0,0,1-.11-.14.7.7,0,0,0-.18-.17.51.51,0,0,1-.2-.28c0-.08,0-.15-.06-.21a.74.74,0,0,0-.18-.39,1,1,0,0,1-.23-.41.46.46,0,0,0-.06-.16.59.59,0,0,1-.08-.22,1.62,1.62,0,0,1,0-.18c0-.21,0-.31,0-.35a1.19,1.19,0,0,1-.51-.16h.09a.11.11,0,0,0,.1,0,.19.19,0,0,0,0-.17c0-.12,0-.15,0-.19a.22.22,0,0,0,0-.18c-.07-.17-.08-.19,0-.28a.47.47,0,0,0,0-.43l0,0s0-.05,0-.18a.29.29,0,0,1,0-.18.32.32,0,0,0,0-.19.62.62,0,0,0-.08-.12c0-.07,0-.1.06-.15a1.4,1.4,0,0,0,.44-.45l.06-.09a.62.62,0,0,0,.14-.38.45.45,0,0,0,.11-.13s0-.05-.14-.11a1.09,1.09,0,0,0-.25-.06c-.1,0-.1,0-.1-.08a.62.62,0,0,0,0-.18s0-.07,0-.18a.53.53,0,0,0-.18-.38.68.68,0,0,0,0-.3.41.41,0,0,1,0-.17c0-.07.06-.13,0-.19l-.1-.06c-.11,0-.14-.34-.13-.55h0a.74.74,0,0,0-.47.34l0,.1a.59.59,0,0,1-.23.37c-.18.19-.26.31-.25.42a.27.27,0,0,0,.12.21l.09.07c.06,0,.12.08.12.12s0,.05-.1.12a.47.47,0,0,0-.21.39.25.25,0,0,1,0,.12.25.25,0,0,0,0,.17c0,.08,0,.09-.12.1l-.23,0-.37,0a1.1,1.1,0,0,1-.27,0,.79.79,0,0,0-.2,0,.19.19,0,0,0-.19.13.55.55,0,0,0,0,.52c0,.08-.07.12-.13.15L138,28a.17.17,0,0,1-.1,0h0c-.2,0-.33,0-.4.27a1.29,1.29,0,0,0,0,.81c0,.1.07.12.1.12l.12,0a1.05,1.05,0,0,1,0,.21.59.59,0,0,1-.24.48.6.6,0,0,0-.23.33l0,.2c-.05.18-.05.23.07.37s.2.24.2.41a1.31,1.31,0,0,0,.26.58h0s0,.05,0,.24a1.4,1.4,0,0,0,.17.77A1.59,1.59,0,0,1,138,33a.27.27,0,0,1,0,.12.27.27,0,0,0,.1.38,2,2,0,0,0,.28.15.57.57,0,0,1,.18.09c0,.09-.08.16,0,.22a.22.22,0,0,0,.11,0l.18,0c.1,0,.12,0,.12,0h0l.15-.06a1.94,1.94,0,0,0,.38-.2.85.85,0,0,1,.24-.12l.24-.06.27-.07Zm3.12-7.35-.36.24a1.24,1.24,0,0,1-.17.17c-.16.09-.25.14-.29.3,0,0-.1.33-.11.39s-.11.3,0,.41h.12a.56.56,0,0,0,.42-.16.43.43,0,0,0,.19-.26,1.31,1.31,0,0,0,0-.15.54.54,0,0,1,.12-.27.43.43,0,0,0,.1-.26l.1-.17a.43.43,0,0,0,0-.24.05.05,0,0,0,0,0h0S143.29,26.16,143.29,26.17Zm-2.12-1.39s0,0,0,0,0,.16.1.38.06.17.15.22a2.19,2.19,0,0,1,.2.16l.12.11c-.08,0-.08.07-.05.15a.5.5,0,0,1,0,.14s0,.06,0,.15a1.44,1.44,0,0,1,0,.32l.57-.28a2.22,2.22,0,0,0,.31-.26l.24-.21a.68.68,0,0,1,.35-.19l.24-.08a1.12,1.12,0,0,0,.33-.15.61.61,0,0,1,.15-.1.63.63,0,0,1,.23-.09.51.51,0,0,0,.21-.08.59.59,0,0,1,.17-.08.37.37,0,0,0,.14-.09s0,0,.11,0a1.25,1.25,0,0,1,.23,0,1.83,1.83,0,0,0,.48-.2.79.79,0,0,0,.38-.43A.29.29,0,0,1,146,24l.13-.07.08-.07a.36.36,0,0,1,.27-.12.42.42,0,0,1,.3.07.73.73,0,0,0,.38.13l.23,0h.19a.8.8,0,0,0,.3-.06l.59-.16a1.68,1.68,0,0,1,.32-.05.74.74,0,0,1,.18,0,.29.29,0,0,0,.14,0h.11l.24-.06.2-.05a2.06,2.06,0,0,0,.25-.07l.26-.07h.3c.2,0,.41-.07.41-.24a.39.39,0,0,0-.1-.26l-.1-.17c-.06-.12-.08-.15-.13-.15l-.11,0a.64.64,0,0,1-.2-.05L150,22.6a.5.5,0,0,1-.14-.39l-.21-.27h0a1.13,1.13,0,0,0-.33.1l-.13.06c-.06,0-.07,0-.27.05h-.19a1.51,1.51,0,0,1-.35-.17,1.39,1.39,0,0,0-.21-.11l-.21-.11c-.09-.05-.07-.17,0-.33a.59.59,0,0,0,0-.21.14.14,0,0,0-.15-.11.69.69,0,0,0-.25.07h-.34a5.41,5.41,0,0,0-.68.11l-.31.05-.43,0h-.17a.51.51,0,0,0-.25,0,.91.91,0,0,1-.31.07l-.18,0c-.3,0-.32,0-.39.14a.92.92,0,0,1-.12.16,1.25,1.25,0,0,0-.19.25l.05-.16-.38,0c-.23,0-.28,0-.32.07l-.09,0a2.06,2.06,0,0,0-.64.26.17.17,0,0,0-.08.13s0,.08.09.13a2.39,2.39,0,0,1,.21.22c.08.11.09.14.09.15l-.11,0-.22,0c-.17,0-.17,0-.19-.06a.19.19,0,0,0-.08-.14.31.31,0,0,0-.19-.06.82.82,0,0,0-.25.05,1.21,1.21,0,0,1-.2.33c-.1.08-.2.13-.69.19-.27,0-.27,0-.28.07a.87.87,0,0,0-.17.3c0,.13.1.25.16.31s0,.05,0,.11a.49.49,0,0,0,0,.32,1.13,1.13,0,0,0,.19.38l.06.1c.08.12.08.15.08.16l0,0Zm6.06-.42s0,0,.06.14a.62.62,0,0,0,.45.22h.31a1.08,1.08,0,0,0,.51-.13c.2-.1.34-.19.34-.19a.18.18,0,0,0,0-.2.34.34,0,0,0-.29-.11h-1l-.12.25a.16.16,0,0,0-.11,0s-.1.06-.1.09l-.05,0Zm3.23-.69c-.05,0-.08,0-.1.13a.41.41,0,0,0,.16.38l.21-.22v-.15l-.17-.09Z"/><path class="cls-6" d="M147.85,20.42a1.77,1.77,0,0,1,.37.06,2.3,2.3,0,0,0,.32.05,1.21,1.21,0,0,1,.46.28l.07,0h.65c.13,0,.15,0,.15,0s0,.09,0,.13a.9.9,0,0,0,0,.16c0,.05,0,.08,0,.11a.44.44,0,0,0,.05.3c.07.15.23.19.42.23a1.41,1.41,0,0,1,.3.07.87.87,0,0,1,.26.13.16.16,0,0,0,.09.06,1.14,1.14,0,0,1,.3.38.77.77,0,0,0,.06.15.82.82,0,0,1,.1.3l0,.13a2.38,2.38,0,0,0,.09.38.84.84,0,0,1,0,.12.69.69,0,0,1,.07.29c0,.12-.16.18-.16.19a.09.09,0,0,0-.06.09v.69c0,.08,0,.12-.49.14l-.3,0-.17,0-.34,0-.25,0h-.74s-.08,0-.2,0-.3,0-.36.14,0,0-.06.06l-.13,0A1.34,1.34,0,0,1,148,25l-.17,0a1,1,0,0,0-.24,0l-.19,0h-.14a.88.88,0,0,0-.3.07l-.13,0a.92.92,0,0,0-.23.09l-.14.05a1.59,1.59,0,0,0-.29.06,2,2,0,0,1-.39.1l-.16,0-.09,0-.22,0h-.13s-.14,0-.17.07-.36.24-.36.36-.07.11-.11.16a.78.78,0,0,0-.15.22.76.76,0,0,0-.06.18l-.08.24a.43.43,0,0,1-.24.27l-.06,0-.05,0h-.11a.88.88,0,0,0-.25.26l-.07.11a.92.92,0,0,0-.1.2c0,.05-.05.07-.12.11a.65.65,0,0,0-.15.1.64.64,0,0,0-.15.13,2.49,2.49,0,0,1-.21.17.2.2,0,0,0-.08.13c0,.14.09.3.21.47l.12.16c.07.12,0,.21,0,.33l-.05.07a.16.16,0,0,1,0,.07.83.83,0,0,0-.13.42.67.67,0,0,0,.2.39c.06.07.13.15.13.19s-.12.26-.28.47l0,0a.48.48,0,0,0-.08.45.53.53,0,0,0,.24.33,1.22,1.22,0,0,1-.14.3.1.1,0,0,0,0,.09,1.21,1.21,0,0,0,.28.49c.11.08.13.21.16.43s.11.21.16.21a.19.19,0,0,0,.12,0l.31-.06,0,0a.29.29,0,0,0,.09.15s0,.13-.07.2a1,1,0,0,0-.11.37,4.21,4.21,0,0,0,.11,1,1,1,0,0,1,0,.51,1.31,1.31,0,0,0,0,.33,1.22,1.22,0,0,1-.14.63,1.71,1.71,0,0,0-.07.18c-.11.26-.06.37,0,.46s0,0,0,.08a.89.89,0,0,1-.37.38l-.12.08a3.54,3.54,0,0,0-.35.29,2.51,2.51,0,0,1-.23.21A.86.86,0,0,1,142,38h-.18l-.36,0h-.23a.75.75,0,0,0-.44.3,2.27,2.27,0,0,1-.77-.12,1.31,1.31,0,0,0-.73-.21,1.34,1.34,0,0,1-.87-.34c-.27-.18-.23-.29-.19-.42a.76.76,0,0,0,0-.16.46.46,0,0,0-.18-.3.64.64,0,0,1-.18-.25.63.63,0,0,0-.2-.29.35.35,0,0,1-.11-.13c-.09-.23-.41-.23-.56-.23h-.21s0,0,0-.07,0-.15,0-.26,0-.25-.06-.3a.19.19,0,0,0-.1,0,2.9,2.9,0,0,1,.07-.38,0,0,0,0,0,0,0,3.47,3.47,0,0,0-.23-.59,2.51,2.51,0,0,1-.18-.66,4.75,4.75,0,0,1,0-.75v0a7,7,0,0,1-.15-.87v-.09a.8.8,0,0,1,.15-.47.42.42,0,0,0,0-.54.56.56,0,0,1-.08-.15,2,2,0,0,1,0-.78c0-.2.09-.47.13-.74l0-.2a2.55,2.55,0,0,0,0-.34,1.7,1.7,0,0,1,.07-.5,1.19,1.19,0,0,1,.21-.49l.11-.18.09-.15a3.43,3.43,0,0,1,.32-.44,1.46,1.46,0,0,0,.25-.42,1.56,1.56,0,0,1,.06-.15.66.66,0,0,1,.18-.24.46.46,0,0,0,.16-.26.57.57,0,0,1,.15-.27,2.89,2.89,0,0,0,.19-.27c.12-.17.15-.17.22-.18a.48.48,0,0,0,.22-.06c.17-.08.23-.14.23-.26a.09.09,0,0,1,0,0,1.36,1.36,0,0,0,0-.48,1.8,1.8,0,0,0-.05-.19,1.35,1.35,0,0,1-.09-.52.81.81,0,0,0,0-.15l.16-.09.14-.07.06,0,0,0,.27.19.07.06a.64.64,0,0,0,.27.15h.08a.1.1,0,0,0,.11-.11l0,0c.16-.13.09-.24.06-.28s0,0,0-.05a.43.43,0,0,1,.05-.13.31.31,0,0,0,0-.09,1,1,0,0,1,.42-.09l.28.06a1,1,0,0,0,.3-.06c.09,0,.12,0,.14-.08h0l.21-.15.2-.13a.8.8,0,0,0,.23-.22l.17-.18a.72.72,0,0,1,.22-.14.64.64,0,0,0,.23-.17c.06-.08.09-.08.11-.08h.08l.1,0h.1a.12.12,0,0,0,.1-.05s0,0,0,0a1.57,1.57,0,0,0,.46-.39.39.39,0,0,1,.23-.13A.58.58,0,0,0,144,21a1,1,0,0,1,.43-.09.83.83,0,0,0,.26,0c.14-.05.35-.11.79-.22a1.45,1.45,0,0,1,.35,0l.28,0,.17,0h.63a.39.39,0,0,0,.29-.07l.16-.08a1.13,1.13,0,0,1,.54-.1m-.29.71h-.34a5.41,5.41,0,0,0-.68.11l-.11,0-.2,0h-.15l-.28,0h-.17a.76.76,0,0,0-.27,0,.69.69,0,0,1-.3.07l-.16,0h-.11c-.21,0-.25,0-.33.16l-.12.15-.06.07a.11.11,0,0,0-.09-.05h-.33c-.23,0-.3,0-.36.09l-.06,0a2.09,2.09,0,0,0-.66.27.25.25,0,0,0-.1.17c0,.07,0,.11.11.17a.81.81,0,0,1,.19.21l0,.05h0l-.22,0c-.11,0-.14,0-.14,0a.26.26,0,0,0-.1-.17.32.32,0,0,0-.22-.07.94.94,0,0,0-.27.05.15.15,0,0,0-.05.06.69.69,0,0,1-.16.28c-.09.07-.19.13-.67.18-.29,0-.3,0-.32.11a.2.2,0,0,0,0,.07h0a.31.31,0,0,0-.18.24.43.43,0,0,0,.18.34l0,.07a.58.58,0,0,0,0,.35l0,.05a1.42,1.42,0,0,0,.18.34l.06.09a.33.33,0,0,0,0,.06h0a.11.11,0,0,0,0,.11l.11.37c0,.16.06.19.16.26a1,1,0,0,1,.2.15l0,0a.31.31,0,0,0,0,.19.45.45,0,0,1,0,.11s0,.09,0,.18a1.27,1.27,0,0,1,0,.3.1.1,0,0,0,0,.1h.11l.5-.33a2.33,2.33,0,0,0,.31-.26l.24-.21a.73.73,0,0,1,.33-.18l.25-.08c.25-.09.29-.12.34-.17l.14-.09a.74.74,0,0,1,.22-.08.62.62,0,0,0,.23-.08l.16-.09a.43.43,0,0,0,.16-.09h.07a1.23,1.23,0,0,1,.22,0H145a2.66,2.66,0,0,0,.45-.2.84.84,0,0,0,.4-.46.26.26,0,0,1,.14-.15.7.7,0,0,0,.14-.08l.08-.07a.34.34,0,0,1,.24-.11c.18,0,.21,0,.28.07a.74.74,0,0,0,.4.13h.48a1.18,1.18,0,0,0,.26-.06l.59-.16a1.33,1.33,0,0,1,.3-.05.57.57,0,0,1,.16,0,.35.35,0,0,0,.16,0h.12l.25-.06.19,0a1.64,1.64,0,0,0,.25-.07l.26-.07h.29c.28,0,.46-.12.46-.3a.53.53,0,0,0-.1-.29l-.11-.17c-.06-.12-.09-.17-.17-.17l-.05,0h-.06l-.18,0-.08,0a.22.22,0,0,0-.09-.1.29.29,0,0,1-.12-.28.11.11,0,0,0,0-.07l-.19-.24a.11.11,0,0,0-.08,0h0l-.3.12a.31.31,0,0,0-.14.06.81.81,0,0,1-.25,0h-.2a2.31,2.31,0,0,1-.31-.16,1.55,1.55,0,0,0-.22-.12l-.2-.1c-.06,0,0-.14,0-.28a.66.66,0,0,0,0-.23.18.18,0,0,0-.2-.15.75.75,0,0,0-.25.07m3,3.11h0a.1.1,0,0,0,.07,0l.13-.21a.14.14,0,0,0,0-.06v-.12a.1.1,0,0,0,0-.09h-.09l-.06,0a.22.22,0,0,0-.14-.06s-.13,0-.15.18a.47.47,0,0,0,.19.43h.05m-3.09,0h-.08a.18.18,0,0,0-.1,0h0a.11.11,0,0,0-.09.06c0,.05,0,.08.07.19a.68.68,0,0,0,.49.24h.31a1.06,1.06,0,0,0,.53-.14l.06,0,.29-.16,0,0a.24.24,0,0,0,0-.23.39.39,0,0,0-.34-.13h-1a.11.11,0,0,0-.1.07l0,.15m-7.84,2.88h-.09l-.22,0h-.37a1.09,1.09,0,0,1-.26,0,.78.78,0,0,0-.21,0,.23.23,0,0,0-.23.16.57.57,0,0,0,0,.57.41.41,0,0,1-.12.08L138,28a.08.08,0,0,1-.06,0h-.1c-.13,0-.29,0-.37.32a1.42,1.42,0,0,0,0,.85c0,.12.12.14.15.14l.07,0v.12a.54.54,0,0,1-.22.45.61.61,0,0,0-.24.36l-.05.2c-.06.19-.07.25.07.41l.06.07a.4.4,0,0,1,.13.31,1.29,1.29,0,0,0,.27.61l0,0a1.77,1.77,0,0,1,0,.19,1.51,1.51,0,0,0,.18.8,1.07,1.07,0,0,1,.1.24.47.47,0,0,1,0,.09.32.32,0,0,0,.12.44,1.34,1.34,0,0,0,.29.15l.14.07a.24.24,0,0,0,0,.23.16.16,0,0,0,.15.07.63.63,0,0,0,.2,0l.09,0h0l.17-.06a2.84,2.84,0,0,0,.39-.21l.07,0a.67.67,0,0,0-.1.25,3.09,3.09,0,0,0-.06.41c0,.16,0,.22-.12.3l-.18.12a1,1,0,0,0-.26.22l0,0c-.08.09-.15.16-.13.27s.09.18.29.3l.18.11a.82.82,0,0,0,.39.19.16.16,0,0,0,.15-.09s0,0,.06-.06a.26.26,0,0,0,0-.41l-.15-.15-.08-.07,0,0a.68.68,0,0,0,.08-.2.21.21,0,0,1,.09-.14.61.61,0,0,0,.16-.19.46.46,0,0,1,.17-.19.19.19,0,0,1,.14-.05.65.65,0,0,1,.29.11h0v0a.17.17,0,0,0,0,.12.11.11,0,0,0,.09.06s.05,0,.2-.1c.34-.2.42-.26.46-.38a.13.13,0,0,0-.08-.17l0,0a.43.43,0,0,1,.2-.11c.1,0,.15-.07.26-.25a2.5,2.5,0,0,0,.16-.29.31.31,0,0,1,.09-.12.4.4,0,0,1,.13-.07c.13-.06.27-.13.27-.26a.2.2,0,0,0-.07-.18.39.39,0,0,1-.11-.13,1,1,0,0,0-.19-.18.47.47,0,0,1-.18-.26c0-.07,0-.14-.06-.2a.77.77,0,0,0-.19-.42.84.84,0,0,1-.22-.37.4.4,0,0,0-.07-.19.56.56,0,0,1-.07-.19,1.28,1.28,0,0,1,0-.17c0-.24,0-.34,0-.4a.15.15,0,0,0-.09,0H141a.74.74,0,0,1-.22,0l0,0a.31.31,0,0,0,0-.22c0-.1,0-.12,0-.15a.24.24,0,0,0,0-.22l0-.06c0-.1,0-.1,0-.17a.49.49,0,0,0,0-.42.75.75,0,0,0,0-.2.29.29,0,0,1,0-.17.26.26,0,0,0,0-.21.37.37,0,0,0-.08-.14s0,0,0,0h0l.06,0a1.48,1.48,0,0,0,.47-.48.35.35,0,0,1,.05-.08.72.72,0,0,0,.15-.41s0,0,0,0a.12.12,0,0,0,.08-.1c0-.08,0-.1-.17-.15a.92.92,0,0,0-.26-.07h-.06v0a.66.66,0,0,0,0-.19s0-.07,0-.17a.57.57,0,0,0-.2-.41l0,0h0a.39.39,0,0,0,0-.26s0-.09,0-.13a.27.27,0,0,0,0-.23.2.2,0,0,0-.15-.09s-.1-.23-.08-.5a.11.11,0,0,0-.05-.09h-.11c-.06,0-.36.25-.42.41a.49.49,0,0,0,0,.11c0,.08,0,.16-.22.35s-.27.33-.26.46a.32.32,0,0,0,.13.24l.1.07.1.07a.27.27,0,0,1-.08.09.5.5,0,0,0-.23.42.2.2,0,0,1,0,.11.35.35,0,0,0,0,.2,0,0,0,0,1,0,0m2.78.63a.8.8,0,0,0,.51-.2.17.17,0,0,1,.06-.06.38.38,0,0,0,.14-.23q0-.09,0-.15a.43.43,0,0,1,.11-.25.39.39,0,0,0,.1-.29v-.05a.17.17,0,0,0,.09-.11.38.38,0,0,0,0-.27s0,0-.06-.05h0s0,0-.05,0l-.36.24,0,0a.76.76,0,0,1-.14.14l-.08.05a.4.4,0,0,0-.23.28l0,.19c0,.08,0,.14-.06.19s-.1.35,0,.46a.15.15,0,0,0,.11.06m-2.35,8.13h0c-.09,0-.1.09-.12.15a.29.29,0,0,0,.18.3l.08,0a.76.76,0,0,0,.36.18l.06,0a1,1,0,0,0,.19,0,.31.31,0,0,0,.2-.07l.1-.08a.42.42,0,0,1,.15-.1l.11-.06a1.38,1.38,0,0,0,.24-.14l.12-.07a.61.61,0,0,0,.25-.23.44.44,0,0,0,0-.14.27.27,0,0,1,.11-.2.71.71,0,0,0,.17-.25l.05-.08h.05c.12,0,.23-.08.23-.31V34a.08.08,0,0,0,0-.07l-.14-.14h0a.54.54,0,0,0-.32-.14.23.23,0,0,0-.23.18.6.6,0,0,1-.16.3l-.07.08a1,1,0,0,0-.12.16s0,.05-.12.13a.68.68,0,0,0-.17.22.26.26,0,0,1-.11.13l-.1,0a.62.62,0,0,0-.32.32.87.87,0,0,0-.07.17s0,.06-.15.15a1.48,1.48,0,0,0-.29.23l-.1.1,0,0m2.48.42h0c-.19,0-.23-.06-.25-.08a.19.19,0,0,0-.09,0c-.05,0-.08,0-.17.08a.21.21,0,0,1-.11,0h-.1a.36.36,0,0,0-.27.14,1.37,1.37,0,0,0-.17.21c0,.06,0,.07-.15.11a3.6,3.6,0,0,0-.4.15l-.07,0a4.15,4.15,0,0,1-.6.16c-.11,0-.16.05-.17.11s.1.2.41.3l.24.08a1.27,1.27,0,0,0,.33.09,1.06,1.06,0,0,0,.24,0,.86.86,0,0,0,.23,0l0-.1.05.1h.06s.11,0,.28-.13a2.13,2.13,0,0,0,.31-.25.59.59,0,0,1,.17-.12,1.27,1.27,0,0,0,.45-.4c.2-.26.26-.42.22-.53s0,0,0-.05-.06-.23-.18-.23h0c-.08,0-.14.08-.18.15a.23.23,0,0,0,0,.17m-2.9-9.19h0m-1.76,4.65h0m10-11.46a1.15,1.15,0,0,0-.57.11c-.28.11-.14.14-.42.14h-.63c-.11,0-.24-.05-.45-.05a1.42,1.42,0,0,0-.38.05,5.89,5.89,0,0,0-.79.22c-.14.05-.49,0-.71.13s-.28,0-.5.24a1.46,1.46,0,0,1-.44.37c-.11,0,0,.06-.06.06h-.08l-.2,0c-.06,0-.11,0-.19.12s-.25.11-.44.3a2.65,2.65,0,0,1-.38.38c-.14.09-.28.2-.42.28s0,0-.13.08a.91.91,0,0,1-.27.06l-.26-.06c-.16,0-.49.06-.52.14s-.11.16-.11.27.14.14,0,.25-.05.12-.08.12h-.06c-.14,0-.22-.14-.3-.19l-.28-.19a.09.09,0,0,0-.08,0l-.11,0c-.14.08-.3.13-.36.22h0s0,0,0,.17a2.42,2.42,0,0,0,.14.74,1.15,1.15,0,0,1,0,.44c0,.11,0,.13-.19.24s-.25-.05-.47.28-.33.41-.36.58-.22.22-.33.46a1.63,1.63,0,0,1-.3.56,3.46,3.46,0,0,0-.41.6,1.65,1.65,0,0,0-.34.69,5.67,5.67,0,0,0-.11.85c0,.33-.11.69-.16.94a1.88,1.88,0,0,0,0,.82c.05.2.33.39.14.61a.87.87,0,0,0-.18.6,7.49,7.49,0,0,0,.15.91,5.12,5.12,0,0,0,0,.77,2.39,2.39,0,0,0,.19.69,4.72,4.72,0,0,1,.22.58,3.08,3.08,0,0,0-.08.47s0,0,0,0h.07s.08,0,.07.24c0,.42-.11.44.11.44H137c.19,0,.41,0,.47.17s.22.16.3.41.36.36.36.52-.23.36.2.66a1.41,1.41,0,0,0,.93.36,1.41,1.41,0,0,1,.69.19,2.52,2.52,0,0,0,.86.14.73.73,0,0,1,.4-.3c.22,0,.17,0,.58,0s.58,0,.83-.19.27-.28.58-.5.41-.27.52-.49-.17-.14,0-.55a1.77,1.77,0,0,0,.22-.85c0-.39.11-.39,0-.86a4.11,4.11,0,0,1-.11-1c0-.22.26-.55.16-.63s-.06-.22-.18-.22h0l-.33.06a.1.1,0,0,1-.07,0s0,0-.06-.13a.67.67,0,0,0-.2-.49,1.3,1.3,0,0,1-.24-.44s.24-.39.11-.44a.45.45,0,0,1-.14-.64c.19-.24.33-.41.33-.57s-.33-.36-.33-.58a.86.86,0,0,1,.16-.44c.06-.11.22-.28.09-.5s-.45-.52-.28-.63a3.81,3.81,0,0,0,.36-.3c.14-.11.25-.11.3-.25a2.67,2.67,0,0,1,.17-.3.71.71,0,0,1,.22-.22s0,0,0,0L144,27c.18-.11.26-.14.34-.36s.08-.28.14-.41.27-.31.27-.42.36-.3.36-.3,0,0,.07,0h.12c.19,0,.23.06.32.06l.18,0c.28,0,.58-.16.66-.16s.25-.11.39-.14a1.53,1.53,0,0,1,.41-.11c.11,0,.21,0,.33,0l.22,0a2.82,2.82,0,0,0,.55.11.38.38,0,0,0,.16,0c.2-.08,0-.19.39-.19a4.27,4.27,0,0,0,.52,0,1.65,1.65,0,0,0,.42,0l.24,0c.35,0,.36,0,.52,0l.31,0c.52,0,.58-.08.58-.24v-.69s.22-.09.22-.28a1.29,1.29,0,0,0-.11-.44,2,2,0,0,1-.11-.49,1.57,1.57,0,0,0-.17-.47A.91.91,0,0,0,151,22c-.08,0,0-.08-.35-.19s-.58-.09-.66-.25,0-.21,0-.37.22-.4-.19-.43h-.66s-.36-.3-.53-.3-.47-.11-.69-.11Zm-1.62,1.07.22,0a6.48,6.48,0,0,1,.77-.13h.36a.61.61,0,0,1,.23-.07.09.09,0,0,1,.1.07c0,.13-.17.46,0,.57s.3.14.41.22a1.43,1.43,0,0,0,.33.17s0,0,0,0h.2a.87.87,0,0,0,.41-.11l.3-.11.2.23a.41.41,0,0,0,.16.37c.19.14-.22,0,.19.14a.68.68,0,0,0,.22.05.24.24,0,0,0,.11,0s0,0,.09.12c.13.25.19.27.19.41s-.19.2-.36.2a1.08,1.08,0,0,1-.16,0l-.14,0a4,4,0,0,0-.52.13c-.25.06-.17.06-.44.11h-.1c-.11,0-.15-.06-.32-.06a2,2,0,0,0-.33.05c-.55.14-.74.22-.82.22h-.48a.66.66,0,0,1-.35-.12.51.51,0,0,0-.33-.08c-.19,0-.25.09-.38.2s-.22.08-.31.27a.72.72,0,0,1-.36.41,2.64,2.64,0,0,1-.44.19,1.27,1.27,0,0,0-.24,0,.26.26,0,0,0-.14,0c-.08.09-.11.06-.3.17s-.2,0-.44.16-.09.11-.47.25-.36.08-.61.28-.3.3-.55.46l-.49.34a1.56,1.56,0,0,0,0-.34c0-.19.08,0,0-.3s.19,0-.09-.27-.27-.14-.33-.36a3.9,3.9,0,0,0-.11-.39l.06,0s.06,0-.06-.21a1.47,1.47,0,0,1-.24-.47c-.09-.22.08-.35,0-.44s-.3-.27,0-.44-.22-.11.27-.16.61-.11.72-.2a.83.83,0,0,0,.19-.33.76.76,0,0,1,.23,0,.32.32,0,0,1,.16,0c.13.11,0,.22.3.22l.31,0c.09,0,.09,0,0-.21s-.39-.27-.22-.41a2.51,2.51,0,0,1,.68-.28c.09,0,0-.08.33-.08h.33l0,.24s0-.1.19-.29.11-.25.39-.28h0l.22,0c.41,0,.28-.11.56-.11h.16l.44,0Zm4.32,2.75a.37.37,0,0,1-.14-.33c0-.07,0-.09.05-.09s.13.1.2.1h0v.12l-.14.21Zm-3,.25.09-.25h1c.36,0,.25.21.25.21a1.45,1.45,0,0,1-.27.16,1.16,1.16,0,0,1-.55.16h-.31a.54.54,0,0,1-.41-.2l-.06-.09s0,0,0,0,0,0,0,0,0,0,0,0a.39.39,0,0,1,.14,0Zm-6.9.28s0,.57.17.6-.06.25,0,.39,0,.22,0,.27.21.17.21.39,0,.16,0,.36.14.08.38.19,0,0,0,.19a.84.84,0,0,1-.19.44,1.36,1.36,0,0,1-.43.44c-.21.14-.06.17,0,.33s0,.11,0,.36,0,.18,0,.18,0,0,0,0,.1.25,0,.39-.06.16,0,.33-.06.11,0,.36-.17.11-.2.19.32.19.45.19h.05c.07,0,0,.38,0,.51s.14.3.14.38a.84.84,0,0,0,.25.44c.14.14.14.31.22.58s.25.28.38.47.17.14.17.25-.25.16-.36.25-.08.13-.27.44-.14.11-.44.33,0,.16,0,.24-.09.14-.42.33l-.15.09s.11-.11,0-.17a.76.76,0,0,0-.38-.15.32.32,0,0,0-.2.07c-.22.16-.17.25-.33.38s-.09.2-.2.36.06.19.23.39-.06.25-.12.36a.06.06,0,0,1-.06,0,2.09,2.09,0,0,1-.51-.28c-.36-.22-.28-.28-.13-.44a1.94,1.94,0,0,1,.43-.33c.22-.17.11-.31.22-.77s.19-.14.63-.44c.15-.1.16-.14.09-.14s-.51.14-.58.14-.36.22-.64.33l-.13,0h0l-.13,0-.17,0c-.1,0-.08-.07,0-.17s-.22-.16-.47-.33,0-.33-.06-.47a.83.83,0,0,0-.11-.27,1.44,1.44,0,0,1-.16-.75c0-.24,0-.29,0-.29s0,0,0,0a1.27,1.27,0,0,1-.25-.55c0-.22-.08-.28-.22-.44s-.08-.17,0-.52.44-.31.47-.83c0-.21,0-.26-.05-.26s-.08.05-.12.05,0,0-.05-.07a1.3,1.3,0,0,1,0-.79c.06-.22.17-.25.27-.25h.1a.22.22,0,0,0,.13,0c.13-.11.35-.16.27-.3a.51.51,0,0,1,0-.48.13.13,0,0,1,.14-.1c.12,0,.29.08.47.08l.37,0,.23,0c.31,0,.11-.16.18-.3s0-.3.21-.49,0-.25-.11-.39-.14-.28.14-.55a.8.8,0,0,0,.27-.5,1.57,1.57,0,0,1,.39-.35Zm1.78,3c-.11,0,0-.31,0-.39s.06-.19.11-.38.17-.2.28-.28a.87.87,0,0,0,.17-.16l.35-.25s.11.19,0,.25,0,.19-.13.35-.11.25-.17.44-.08.14-.18.25a.69.69,0,0,1-.43.17ZM140.05,36a.17.17,0,0,0,.1,0,4,4,0,0,1,.38-.33c.25-.16.14-.14.26-.36s.18-.22.38-.33.11-.19.3-.36.08-.11.25-.3a.78.78,0,0,0,.24-.41.14.14,0,0,1,.14-.11.48.48,0,0,1,.25.11l.14.14v.88c0,.27-.17.16-.25.26s-.06.15-.22.32-.11.24-.17.36-.16.16-.33.27a2.37,2.37,0,0,1-.34.19c-.16.08-.12.08-.26.19a.22.22,0,0,1-.14.05c-.1,0-.19-.05-.25-.05a.68.68,0,0,1-.3-.16c-.11-.08-.25-.11-.22-.25s0-.07,0-.07Zm2.65.44c.08,0-.15-.07,0-.24s.08-.1.1-.1.08.13.11.21-.12.33-.21.44a1.23,1.23,0,0,1-.41.37c-.17.07-.19.18-.5.37-.15.1-.2.12-.22.12h-.11a.68.68,0,0,1-.21,0,1,1,0,0,1-.23,0,4.06,4.06,0,0,1-.55-.16c-.41-.14-.38-.22-.27-.22a4.16,4.16,0,0,0,.64-.17,2.68,2.68,0,0,1,.46-.19c.24-.07.14-.11.36-.34a.28.28,0,0,1,.2-.11h.1a.23.23,0,0,0,.16-.06c.07,0,.1-.06.12-.06s0,.08.32.12l.19,0Zm1.52-14.37h0Z"/><path class="cls-8" d="M151.41,24.64a4.14,4.14,0,0,0-.07.45,3.49,3.49,0,0,1,.42.13s.15-.1.25,0a2.31,2.31,0,0,1,.23.29s.21.1.23.17.14.12.2.18a1.4,1.4,0,0,1,.23.21c.17.16.17,0,.25.29a1.45,1.45,0,0,0,.23.56c.12.16.1.3.18.39s.21.12.21.31a1.45,1.45,0,0,0,.12.45s.1.1-.12.1a2.29,2.29,0,0,1-.46,0c-.33,0-.22-.16-.57-.08s-.52,0-.62.09-.35.1-.49.18a1.88,1.88,0,0,1-.46.19c-.23.06-.3-.17-.55,0a4.66,4.66,0,0,1-.51.29c-.14.08-.29.06-.35.2s-.18.29,0,.29.28.12.44,0a1.92,1.92,0,0,1,.53-.29,1.1,1.1,0,0,0,.48,0c.2-.08.11-.15.42-.16s.18.05.44,0l.79-.15a1.07,1.07,0,0,1,.29,0,2.85,2.85,0,0,1,.35.17c.06,0,.21,0,.21,0l0,.37s-.15.11-.09.18a.18.18,0,0,1,.07.17c0,.06-.09,0,0,.14a.55.55,0,0,0,.2.19s.35.22.37,0a2.24,2.24,0,0,1,.23-.62s-.14-.21,0-.27.29-.19.37-.16.31-.17.33.1,0,.39.15.43.22.17.35.19a1,1,0,0,1,.39.1c.14.08.37.17.37.23s-.14.14-.25.2-.06.25-.08.31.31.25.33.29.06,0,0,.19.19.27.31.14.33-.39.43-.27,0,.35.25.32.35-.31.39,0a2.36,2.36,0,0,1,0,.6,1.09,1.09,0,0,0,.11.4c0,.08.08.26.1.35a.43.43,0,0,1,0,.33c-.06.2,0,.29-.16.39s-.17.08-.21.29-.1.1,0,.33.12.35,0,.47-.21.13-.21.31.15.25.09.48-.13.33-.19.49.14.4.14.46.09.26.17.28.39-.11.4-.28.08-.25,0-.46S158,35.15,158,35a.59.59,0,0,0,.09-.46c0-.26,0-.65.12-.66s-.15-.08,0-.43.2-.31.31-.58.24-.56.12-.72,0-.27-.14-.39-.11-.17,0-.42,0-.33.19-.33a1.55,1.55,0,0,0,.51-.08c.25-.06.33-.1.37.13s.12.18.39.35.41,0,.56.33.08.33.33.35.68-.13.68.1-.21.31,0,.35.31,0,.37.13.13,0,.27.2,0,.21.21.46a2,2,0,0,1,.29.55c0,.13-.05.25.16.25s.29-.06.33,0,.25.1.23.25a7.24,7.24,0,0,0,.1.88s0,.59.19.69.24.17.24.28a1,1,0,0,1-.14.34s-.25.12-.29.26-.25.23-.25.4.15.31.42.22.2-.12.41-.16.12-.06.23-.3.06-.28.16-.44a1.74,1.74,0,0,0,.19-.32c0-.12,0-.28,0-.41s-.06-.18-.09-.24a1.05,1.05,0,0,0-.16-.32c-.08-.1-.12-.3,0-.34s0-.19.26-.09.17.17.32.21.16.1.35,0,.41-.12.29-.23a2.06,2.06,0,0,1-.27-.27,3.18,3.18,0,0,0-.27-.22c-.21-.17-.37-.47-.66-.48s-.37.22-.66,0-.25-.47-.41-.64-.54-.45-.54-.45l.12-.25-.12-.37a.75.75,0,0,1,0-.5c.08-.24.41-.59.16-.62s-.2,0-.7,0-.45.25-.66.25,0-.1-.54-.25a4.19,4.19,0,0,1-.7-.28s-.53-.54-.86-.4a.87.87,0,0,1-.66,0h-.46l-.41-.22-.3-.62-.36-.25a3.52,3.52,0,0,0-.33-.16c-.14,0-.28.06-.41,0s-.09,0-.2-.12-.06-.17-.21-.24a1.1,1.1,0,0,0-.29-.1c-.16,0-.28,0-.34-.1s-.08-.08-.08-.16,0,0,0-.08.11-.13,0-.22a.32.32,0,0,0-.31-.15,1.81,1.81,0,0,0-.46.06c-.08,0-.19.12-.25,0a1.75,1.75,0,0,1-.09-.4c0-.05.1-.44,0-.58a1.11,1.11,0,0,0-.29-.33,1.64,1.64,0,0,1-.3-.44,6.27,6.27,0,0,0-.45-.64,1.48,1.48,0,0,0-.39-.26,3.12,3.12,0,0,0-.35-.2c-.13-.07-.12-.15-.25-.2a2.15,2.15,0,0,1-.27-.12,1.07,1.07,0,0,0-.23-.07C151.81,24.75,151.41,24.64,151.41,24.64Z"/><path class="cls-6" d="M153.54,10.83c.42.18.81.41,1.21.63s.79.44,1.18.67l0,0h0a7.68,7.68,0,0,1,.41.81,3,3,0,0,1,.27.93c.06.52.24,1.11.36,1.67v0a.28.28,0,0,1,0,.09,8.22,8.22,0,0,1-.58,1.24s0,0,0,0,0,0,0,0a8.62,8.62,0,0,1,.2-1.35v.13a5.55,5.55,0,0,1-.29-.87,3.42,3.42,0,0,1-.14-.93,4,4,0,0,0-.48-1.6l.06.05-1.11-.77c-.38-.25-.74-.52-1.13-.74h0s0,0,0,0Z"/><path class="cls-6" d="M158.26,20.12a19.86,19.86,0,0,0,.08-2.18c0-.72,0-1.47-.13-2.16a3.53,3.53,0,0,0-.48-.88l-.29-.46-.31-.4a19.13,19.13,0,0,1-1.31-1.76.06.06,0,0,1,0,0h0a13.53,13.53,0,0,1,1.64,1.48,3.71,3.71,0,0,1,.38.45l.28.48a3.7,3.7,0,0,1,.45,1.08c0,.76,0,1.48,0,2.21a19.86,19.86,0,0,1-.28,2.19s0,0,0,0S158.26,20.14,158.26,20.12Z"/><path class="cls-6" d="M156.93,19.72a7.1,7.1,0,0,1,.61-.9,8,8,0,0,1,.72-.81l.38-.38a2.56,2.56,0,0,1,.44-.41,6.89,6.89,0,0,1,1-.49h0a9.24,9.24,0,0,1,1.91-.23,0,0,0,0,1,0,0s0,0,0,0a8.53,8.53,0,0,1-1.8.68h0c-.33.13-.68.24-1,.38-.08,0-.26.2-.38.29l-.42.35c-.27.24-.55.45-.8.71a7.42,7.42,0,0,0-.7.8h0s0,0,0,0S156.93,19.74,156.93,19.72Z"/><text class="cls-9" transform="translate(178.91 38.53)"><tspan class="cls-10">e</tspan><tspan x="4.28" y="0">xit</tspan></text><text class="cls-9" transform="translate(172.31 9.97)">a</text><text class="cls-9" transform="translate(39.94 11.77)">skin</text><text class="cls-9" transform="translate(0 111.26)">medulla<tspan class="cls-11" x="32.31" y="0">r</tspan><tspan x="36.06" y="0">y r</tspan><tspan class="cls-10" x="46.79" y="0">a</tspan><tspan x="51.38" y="0">ys</tspan></text></g></g></svg>