<?xml version="1.0" encoding="utf-8"?>

<svg version="1.1" id="" xmlns="http://www.w3.org/2000/svg" xmlns:xlink="http://www.w3.org/1999/xlink"
	 x="0px" y="0px" viewBox="0 0 53 23.7" style="enable-background:new 0 0 53 23.7;" xml:space="preserve">
<style type="text/css">
	.st0{fill:#6E6E6E;}
	.st1{fill:#666666;}
	.st2{fill:#5C5C5C;}
	.st3{fill:#464646;}
	.st4{fill:#505050;}
	.st5{fill:#5B5B5B;}
	.st6{fill:#636363;}
	.st7{fill:#4E4E4E;}
	.st8{fill:#535353;}
	.st9{fill:#494949;}
	.st10{fill:#4B4B4B;}
	.st11{fill:#767676;}
	.st12{fill:#4C4C4C;}
	.st13{fill:#727272;}
	.st14{fill:#5A5A5A;}
	.st15{fill:#545454;}
	.st16{fill:#696969;}
	.st17{fill:#5F5F5F;}
	.st18{fill:#5E5E5E;}
	.st19{fill:#606060;}
	.st20{fill:#6C6C6C;}
	.st21{fill:#515151;}
	.st22{fill:#6A6A6A;}
	.st23{fill:#656565;}
	.st24{fill:#616161;}
	.st25{fill:#737373;}
	.st26{fill:#7B7B7B;}
	.st27{fill:#6F6F6F;}
	.st28{fill:#626262;}
	.st29{fill:#757575;}
	.st30{fill:#686868;}
	.st31{fill:#5D5D5D;}
	.st32{fill:#717171;}
	.st33{fill:#646464;}
	.st34{fill:#BFBFBF;}
	.st35{fill:#4D4D4D;}
	.st36{fill:#C3C3C3;}
	.st37{fill:#7C7C7C;}
	.st38{fill:#797979;}
	.st39{fill:#7D7D7D;}
	.st40{fill:#848484;}
	.st41{fill:#868686;}
	.st42{fill:#858585;}
	.st43{fill:#555555;}
	.st44{fill:#4A4A4A;}
	.st45{fill:#676767;}
	.st46{fill:#6B6B6B;}
	.st47{fill:#707070;}
	.st48{fill:#595959;}
	.st49{fill:#4F4F4F;}
</style>
<g id="_x31_3565_x5F_a">
	<path class="st0" d="M32.8,5.8C32.9,5.9,33,6,33.2,6.1c0,0.3,0.1,0.6,0.3,0.8c0.5,0.4,0.8,0.9,0.7,1.6c-0.4,0.7-0.4,0.7-1.2,0.6
		c-0.2-0.2-0.4-0.3-0.7-0.2c-0.2,0.1-0.4-0.2-0.6-0.3c-0.1-0.1-0.2-0.2-0.3-0.3V8.2c0-0.1,0.1-0.1,0.1-0.2c0,0.1-0.1,0.1-0.2,0.2
		C31,8.3,30.8,8,30.6,7.9c-0.1-0.1-0.2-0.1-0.3-0.2c-0.1-0.1-0.2-0.2-0.3-0.3c-0.7-0.5-0.6-0.5-0.4-1.3c0.1-0.7,0.5-1.2,1.1-1.5
		c0.6,0,1,0.2,1.3,0.6C32.2,5.5,32.5,5.6,32.8,5.8z"/>
	<path class="st1" d="M33,8.8c0.5,0.3,0.7,0,1-0.4c0.2-0.2,0.1-0.6,0.5-0.6c0.6,0.6,0.9,1.3,1,2.1c0.1,0.3,0.1,0.6,0.3,0.8
		c0,0.2,0.1,0.5,0.1,0.7c0.1,0.2,0,0.3-0.2,0.4c-0.5,0.1-1-0.3-1.1-0.8c-0.1-0.7-0.3-0.8-0.9-0.6C33.2,10.2,32.8,9.2,33,8.8z"/>
	<path class="st2" d="M27.3,4.2c0.5-0.2,1.1-0.3,1.6-0.5s0.8-0.1,1,0.4c0.1,0.1,0.4,0.1,0.4,0.4c-0.1,0.2-0.3,0.4-0.5,0.4
		c-0.3,0.1-0.5,0-0.7,0.3c0,0.1-0.2,0.1-0.3,0.1c-0.6-0.4-1.2,0-1.8,0c-0.1,0-0.2-0.1-0.3-0.1c-0.2-0.1-0.6-0.1-0.6-0.5
		c0-0.3,0.1-0.6,0.5-0.5C26.8,4.2,27,4.1,27.3,4.2z"/>
	<path class="st3" d="M24.8,0.4c0.5-0.1,1-0.5,1.5-0.4c0,0.2,0.2,0.4,0.1,0.6c-0.1,0.1-0.1,0.3-0.2,0.4c-0.4,0-0.4,0.6-0.8,0.6
		c-0.1,0-0.1,0-0.2,0c-0.2-0.1-0.3-0.1-0.3,0.1c-0.2,0.2-0.1,0.5-0.1,0.7c0,0.4-0.1,0.6-0.6,0.5c-0.3-0.5-0.4-1-0.6-1.5
		c-0.2-0.3,0.3-0.9,0.7-1C24.5,0.4,24.6,0.5,24.8,0.4z"/>
	<path class="st4" d="M25.4,1.5c0.3-0.2,0.3-0.9,0.9-0.6c0.4,0.5,0.1,0.7-0.3,0.9c-0.1,0.2,0,0.4-0.2,0.6c-0.2,0.3-0.1,0.6-0.5,0.9
		c-0.3,0.2-0.6,0.3-0.9,0.1l0,0c-0.2-0.1-0.2-0.3-0.1-0.4c0.5,0,0.7-0.2,0.6-0.7C24.6,1.8,24.9,1.5,25.4,1.5z"/>
	<path class="st2" d="M30.1,4.5c-0.1-0.1-0.2-0.2-0.2-0.4c0.5,0,1,0.3,1.5,0.1c0.1,0,0.2,0,0.2,0.1c0,0.7,0.8,0.9,1.1,1.5
		C32.6,6,32.6,6.2,32.3,6c-0.3-0.2-0.6-0.3-0.6-0.7c0-0.1-0.2-0.2-0.2-0.2c-0.4,0.1-0.6-0.2-0.8-0.3c-0.1,0.1-0.2,0.1-0.4,0.1
		C30.2,4.8,30.1,4.7,30.1,4.5z"/>
	<path class="st5" d="M34.5,7.8c0.3,0.5,0,0.7-0.5,0.6c-0.2-0.2-0.1-0.5-0.3-0.8c-0.1-0.1-0.1-0.3-0.3-0.3c-0.9,0-0.5-0.6-0.5-1
		C32.9,6.2,33,6.1,33,6C33.7,6.6,34.1,7.2,34.5,7.8z"/>
	<path class="st6" d="M27.3,4.2C27,4.3,26.4,4,26.4,4.7c0.2,0,0.2-0.4,0.5-0.2c0.2,0.1,0.1,0.3,0,0.4c0,0.2-0.2,0.3-0.4,0.3
		c-0.2,0.1-0.5,0.1-0.8,0.1c-0.4,0.1-0.8-0.1-1.1-0.2c-0.1,0-0.1-0.1-0.1-0.1c-0.2-0.7-0.1-0.9,0.7-0.9c0.1,0,0.2,0,0.3,0
		c0.1,0,0.1-0.1,0.2-0.1C26.2,4.2,26.7,4,27.3,4.2z"/>
	<path class="st5" d="M25.6,4.1c0.1,0.1,0.3,0.2,0.1,0.4c-0.2,0.1-0.5,0.2-0.7,0c-0.2-0.1-0.4-0.1-0.4,0.1c-0.1,0.2,0.2,0.2,0.3,0.4
		c-0.1,0-0.2,0-0.4,0c-0.5,0.3-0.6-0.2-0.7-0.5c0-0.1,0-0.2,0.1-0.3c0.3,0,0.6-0.1,0.9-0.2C25.1,4,25.3,3.9,25.6,4.1z"/>
	<path class="st7" d="M19.5,21c-1,0-2,0-2.9,0c0,0-0.1-0.1-0.2-0.1c-0.6,0.1-1.3,0.1-2,0.1c-0.4,0-0.7-0.2-1-0.5c0-0.1,0-0.2,0-0.3
		c0.1-0.2,0.5-0.3,0.5-0.6c0.2-0.2,0.3-0.1,0.5,0c0.5,0.4,1,0.4,1.5-0.1c0.1,0,0.2,0,0.3,0c0.8,0.4,1.6,0.3,2.4,0.3
		c0.4,0.2,0.8,0,1.2,0.1c0.5,0.1,1.1,0.1,1.7,0.1c0.3,0.1,0.5,0.3,0.4,0.6c-0.1,0.3-0.4,0.4-0.7,0.3c-0.1,0-0.1,0-0.2,0
		C20.6,20.7,20,21,19.5,21z"/>
	<path class="st8" d="M19.5,21c0.5-0.7,0.5-1.1,1.3-0.6c0.2,0.1,0.4,0.4,0.6,0.3c0.3-0.2,0.3-0.1,0.2-0.3c0,0,0-0.1,0.1-0.1
		c0.3-0.2,0.7-0.1,1.1-0.1c0.9,0,1.9,0,2.8,0c0.3,0.1,0.4,0.5,0.8,0.6c0.1,0,0.1,0.3,0,0.4c-1.4,0-2.8,0-4.2,0.1
		C21.2,21.1,20.4,21.2,19.5,21z"/>
	<path class="st9" d="M44.5,21.3c-0.2,0-0.5,0.1-0.7,0.1c-0.1,0.1-0.2-0.1-0.4,0c-0.4,0.1-0.7-0.1-1.1,0.1c-0.1,0-0.2-0.1-0.2-0.1
		c-0.2-0.1-0.4-0.1-0.4-0.4s0.3-0.2,0.5-0.3c0.6-0.2,1.2-0.1,1.9-0.1c0.8-0.2,1.5-0.1,2.3-0.1c0.2,0,0.4,0.1,0.6,0
		c0.9,0,1.8,0,2.8,0c0.7,0.1,1.3,0,2,0.1c0.3,0.2,0.7-0.1,1,0c0.1,0,0.3,0,0.3,0.2S53,21,52.8,21.1c-0.6,0.2-1.2,0.2-1.7,0.1
		c-0.7-0.1-1.4-0.1-2.1,0c-0.6,0.1-1.2,0-1.8,0c-0.3,0-0.5,0-0.7,0.1h-0.1h-0.1C45.7,21.2,45.1,21.4,44.5,21.3z"/>
	<path class="st10" d="M26.3,21c-0.2-0.3-0.8-0.1-0.9-0.6c0-0.2,0.3-0.1,0.3-0.2c0.5-0.3,1-0.3,1.5-0.4c0.3,0,0.7,0,1.1,0
		c0.8,0.4,1.6,0.2,2.4,0.3c0.1,0,0.2,0.1,0.3,0.2c0.2,0.7,0.1,0.7-0.6,0.8c-0.1,0-0.1,0-0.2-0.1s-0.1-0.3-0.2-0.2
		c-0.5,0.2-1,0-1.4,0.2c-0.1,0-0.2,0.1-0.2,0.1l0,0C27.7,20.9,27,21.1,26.3,21z"/>
	<path class="st11" d="M40.2,23c-0.4,0-0.8,0-1.1-0.3c-0.2-0.2-0.3-0.3-0.2-0.5c0.1-0.5-0.1-0.7-0.6-0.7c-0.3,0-0.5,0-0.8,0
		c-0.1-0.3,0.1-0.3,0.4-0.4c0.2,0,0.5,0,0.7,0c0.6,0.1,1.3,0,1.9,0.2c0,0.1,0,0.1,0,0.2c-0.1,0.1-0.4,0.2-0.3,0.5
		c0.2,0.4,0.7,0.2,0.9,0.5c0.1,0.3,0.1,0.5-0.1,0.7C40.6,23.3,40.4,23.2,40.2,23z"/>
	<path class="st12" d="M38.7,21.4c-0.4,0.1-0.8-0.1-1.2,0.1h-0.1c-0.1,0-0.2,0.1-0.2,0c-0.5-0.4-1.2-0.4-1.7-0.7
		c0-0.1-0.1-0.1-0.1-0.2s0-0.1,0.1-0.2c0.1,0,0.2,0,0.4,0c0.8,0.2,1.5,0,2.3,0.1c0.3,0,0.7,0,1,0c0.5,0,0.9,0,1.4,0
		c0.1-0.1,0.2-0.1,0.3,0c0.1,0,0.3,0,0.4,0.1c0.1,0.2,0,0.3-0.2,0.4c-0.5,0.2-1,0.1-1.5,0C39.1,21.2,38.9,21.2,38.7,21.4z"/>
	<path class="st13" d="M37,22.6c-0.5-0.2-1,0.1-1.4-0.2c-0.4-0.4-0.4-0.5,0.2-1.2c0.7-0.1,1.2,0.2,1.4,0.7
		C37,22.1,37.8,22.5,37,22.6z"/>
	<path class="st14" d="M30.4,21.1c0.4-0.1,0.4-0.4,0.5-0.7c0.1-0.6,0.5-0.5,0.9-0.3c0.5,0.2,1.1,0,1.6,0.3c0.2,0.5-0.3,0.5-0.5,0.8
		c-0.5,0.2-1-0.3-1.6,0C31,21.2,30.7,21.2,30.4,21.1z"/>
	<path class="st15" d="M40.7,21c0.1-0.1,0.2-0.1,0.2-0.3c-0.1-0.1-0.3-0.1-0.4-0.1c1.2-0.2,2.4-0.2,3.7,0c-0.3,0-0.7,0.1-1,0
		c-0.5-0.1-0.6,0.5-1.1,0.4c0,0.1,0.1,0.2,0.1,0.3h-0.1c-0.4,0.1-0.8,0-1.2,0C40.6,21.4,40.6,21.2,40.7,21z"/>
	<path class="st16" d="M33.8,22.1c0-0.1,0-0.3-0.1-0.4c-0.1-0.2-0.2-0.2-0.4-0.3c-0.1-0.2-0.2-0.3,0-0.5c0.1-0.1,0.3-0.1,0.4-0.1
		c0.3,0.1,0.5,0.1,0.8,0.2c0.2,0.1,0.5,0,0.7,0.1c0.1,0,0.1,0.1,0.1,0.1c-0.2,0.4,0.1,0.8,0,1.3c0.2,0-0.3,0.1-0.4,0.1
		C34.6,22.5,34.1,22.6,33.8,22.1z"/>
	<path class="st4" d="M34.5,21.3c-0.2,0-0.5,0.1-0.7-0.1s-0.3,0.1-0.3,0.2h-0.1c-0.1-0.1-0.3-0.1-0.4-0.2c-0.1-0.3,0.2-0.4,0.4-0.6
		c0.1-0.4,0.5-0.4,0.7-0.2c0.4,0.3,1,0.3,1.4,0.3v0.1c0.2,0.3,0,0.4-0.2,0.3C34.9,21.1,34.7,21.1,34.5,21.3z"/>
	<path class="st17" d="M34.5,21.3c0.1-0.5,0.7-0.2,1-0.5c0.7,0.1,1.5,0.1,1.9,0.7c0,0.2-0.1,0.3-0.2,0.4c-0.4-0.2-0.9-0.5-1.3-0.6
		c-0.2,0.1-0.3,0.2-0.5,0C35,21.3,34.7,21.3,34.5,21.3z"/>
	<path class="st2" d="M28.6,21c0.4-0.3,0.9-0.3,1.4-0.5c0.2-0.1,0.4-0.1,0.5,0.1s-0.1,0.2-0.2,0.4C29.7,21,29.1,21,28.6,21z"/>
	<path class="st16" d="M32.9,21.1c0.1,0.1,0.2,0.2,0.4,0.2c-0.6-0.1-1.3-0.1-1.9-0.2c0.1-0.1-0.1-0.3,0.1-0.4s0.2,0.1,0.3,0.2
		C32.1,21.2,32.5,21.1,32.9,21.1z"/>
	<path class="st11" d="M41.1,21c0.4,0,0.5,0.4,0.9,0.4c-0.3-0.3-1.1,0.2-1.7,0.3c-0.1-0.1-0.1-0.1,0-0.2l0,0
		C40.5,21.3,40.9,20.8,41.1,21z"/>
	<path class="st18" d="M14.4,19.9c-0.1,0-0.2-0.1-0.4,0c-0.3,0.2-0.6,0.2-0.9,0.4c-0.1,0.5-0.5,0.6-1,0.5c-0.4-0.1-0.8,0-1.1-0.2
		c-0.1-0.3-0.4-0.2-0.6-0.2c-0.2-0.1-0.4,0-0.6,0c-0.4,0-0.8-0.2-1.2-0.1c-0.3,0-0.6-0.1-0.9-0.1c-0.1,0-0.2-0.2-0.4-0.2
		c-0.2,0-0.5-0.1-0.7,0.1c-0.2,0.1-0.3,0.1-0.5,0c-0.4,0-0.8-0.1-1.1-0.4c-0.2-0.1-0.4-0.3-0.4-0.5c0.2-0.4,0.6-0.6,1-0.5
		c0.3,0.3,0.6,0.1,0.9-0.1C7,18.4,7.2,18.9,7.6,19c0.3,0.1,0.7,0.1,1.1,0.1c0.8,0,1.7-0.1,2.5,0.1c0.2,0,0.3,0.1,0.5,0.2
		s0.5,0.1,0.7,0c0.4,0,0.7,0.1,1.1,0.1c0.4,0.1,0.8-0.3,1.1,0.2C14.5,19.8,14.5,19.9,14.4,19.9z"/>
	<path class="st0" d="M33.7,10.1c0.3,0,0.5-0.1,0.8-0.1c0.6-0.1,0.7,0,0.5,0.5c-0.2,0.7,0.1,1.1,0.9,0.9c0.2,0.6,0.3,1.2,0.1,1.8
		c-0.2,0-0.3-0.2-0.5-0.3c-0.3-0.2-0.6-0.1-0.7,0.3c0,0.2-0.1,0.3-0.4,0.3c-0.2-0.1-0.3-0.2-0.4-0.4c0.1-0.1,0-0.3,0-0.4v-0.1
		c0.1-0.8,0.1-0.8-0.6-0.5c-0.1,0-0.3,0.1-0.4,0.1c-0.6-0.6-0.5-1,0.4-1.2c0.3-0.1,0.5-0.1,0.3-0.5C33.6,10.3,33.7,10.2,33.7,10.1z"
		/>
	<path class="st16" d="M35.4,20.6c0.2,0.9-1.4-0.3-2.2-0.1c-0.5-0.2-1.1,0-1.6-0.2v-0.1c0.1-0.1,0.3-0.2,0.1-0.5
		c-0.2-0.2-0.1-0.4,0.2-0.5c0.4-0.2,0.7,0.2,1,0.3c0.6,0.4,0.4-0.3,0.6-0.4c0-0.4-0.2-0.9,0.3-1.2c0.3-0.1,0.4,0.2,0.6,0.3
		c0.1,0.2-0.1,0.5,0.1,0.6c0,0.4-0.1,0.8-0.1,1.1c-0.1,0.6,0.1,0.7,0.6,0.7C35.1,20.6,35.2,20.6,35.4,20.6
		C35.4,20.6,35.4,20.6,35.4,20.6z"/>
	<path class="st1" d="M35.7,12.7c0.5-0.1,0.2,0.3,0.4,0.5l0,0c-0.3,0.3-0.4,0.6-0.5,1c0,0.1-0.1,0.2-0.1,0.4
		c-0.1,0.2-0.2,0.4-0.2,0.7c0,0.2-0.1,0.3-0.3,0.3c-0.1,0-0.1,0-0.2-0.1c-0.1-0.1-0.2-0.1-0.3-0.2c-0.8-0.3-0.8-0.6-0.2-1.2
		c0.2,0,0.4,0.1,0.4-0.3C34.8,12.9,34.9,12.9,35.7,12.7z"/>
	<path class="st19" d="M34.4,18.1c-0.2,0-0.3-0.1-0.5-0.2c-0.3,0-0.4-0.2-0.3-0.5c0-0.1,0-0.3,0-0.4c0-0.3,0-0.6,0.1-0.9
		c0.1-0.6,0.6-0.9,1.2-0.8l0,0c0.2,0.2,0,0.5,0,0.7c-0.3,0.2-0.2,0.5-0.3,0.7c-0.2,0.2-0.3,0.5-0.2,0.8S34.6,17.9,34.4,18.1z"/>
	<path class="st17" d="M39.1,20.6c-1.1,0-2.2,0.1-3.3-0.1C36.9,20.5,38,20.4,39.1,20.6z"/>
	<path class="st20" d="M34.9,16.1c0-0.2,0-0.5,0-0.7c0.3-0.2,0.1-0.7,0.5-0.8C35.4,15.1,35.2,15.6,34.9,16.1z"/>
	<path class="st13" d="M34.9,15.9c0.1-0.4-0.8-0.6-0.8,0.7c-0.3,0.6-0.1,1.9,0.4,2.4C34.4,18.9,35.1,17,34.9,15.9z"/>
	<path class="st20" d="M35.6,14.2c-0.1-0.4,0.1-0.8,0.5-1C35.9,13.5,35.7,13.9,35.6,14.2z"/>
	<path class="st8" d="M18,6.3h0.1c0.2-0.1,0.4-0.2,0.5,0.1c0,0.7-0.4,1.1-1,1.3c-0.2,0.1-0.3,0.2-0.5,0.3c-0.4,0.3-0.9,0.7-1,0.2
		C16.6,7.6,17.2,6.4,18,6.3z"/>
	<path class="st21" d="M20.3,5c0.5-0.4,1.2-0.5,1.8-0.6c0.3-0.1,0.6,0,0.9-0.1c0.2,0,0.4,0.1,0.4,0.3c0,0.2-0.1,0.4-0.3,0.5
		c-0.2,0.1-0.4,0.1-0.6,0.1c-0.6,0-1.2,0.1-1.8,0.2C20.5,5.3,20.3,5.2,20.3,5z"/>
	<path class="st22" d="M18.5,6.5c-0.1-0.2-0.6,0.1-0.8,0c0.5-0.4,1.4-1.1,2-1.4c0.2,0.1,0.4,0,0.5,0.2C19.8,6.1,19.3,6.5,18.5,6.5z"
		/>
	<path class="st23" d="M22.4,4.8c0.2-0.2,0.5-0.1,0.9-0.3c-0.4-0.3-1.5,0-1.9,0c0.6-0.2,1.9-0.4,2.5-0.3c0,0.1,0,0.2,0,0.2
		c-0.1,0.2-0.1,0.5-0.4,0.6C23.1,5.1,22.7,5.3,22.4,4.8z"/>
	<path class="st24" d="M20.1,5.4c-0.2,0-0.3-0.1-0.4-0.3c0.2,0,0.4-0.1,0.6-0.1c0.1,0,0.3,0.1,0.4,0.1C20.7,5.5,20.5,5.6,20.1,5.4z"
		/>
	<path class="st25" d="M33.7,10.1c0.1,0.1,0.1,0.2,0.2,0.3c0.3,0.4,0.2,0.6-0.3,0.6c-0.7,0.1-0.7,0.2-0.5,0.8v0.1
		c-0.1,0.5-0.5,0.9-0.4,1.5c0,0.2-0.1,0.6-0.5,0.6c-0.1,0-0.2-0.1-0.3,0c-0.1,0.1-0.1,0.2,0,0.4c0.2,0.2,0.2,0.4,0.2,0.6
		c0.1,0.6,0,0.8-0.7,0.9c-0.3,0-0.4-0.2-0.5-0.5c0-0.3-0.1-0.5-0.3-0.7c-0.2-0.2-0.1-0.7-0.6-0.5c-0.3-0.2-0.7,0-1-0.3
		c0-0.1,0-0.2,0-0.3c0.1-0.2,0.3-0.4,0.5-0.5c0.5,0,0.4-0.4,0.4-0.6c-0.1-0.5,0.4-0.5,0.6-0.7c0.1-0.2,0.3,0,0.4,0.3
		c0,0,0.1-0.1,0-0.1l0,0c-0.2-0.3-0.2-0.3-0.5-0.1c-0.2,0.2-0.4,0.4-0.7,0.2c-0.2-0.2-0.5,0-0.7-0.2c-0.1-0.1-0.1-0.3-0.2-0.5
		s-0.2-0.3-0.3-0.4c-0.4-0.1-0.5-0.3-0.5-0.7c0-0.3-0.4-0.5-0.6-0.7c-0.1-0.3-0.3-0.6-0.6-0.8c-0.9-0.9-0.8-0.7-0.5-1.7
		c0.5-0.1,0.8,0.3,1.2,0.5c0.1,0.1,0.3,0.2,0.4,0.2c0.2,0.1,0.5,0.3,0.6,0.5s0.1,0.3,0,0.5l0,0c0-0.1,0,0,0,0
		c0.2-0.1,0.4-0.1,0.6-0.2c0.6-0.1,0.8,0.5,1.2,0.8c0.3,0.2-0.1,0.5-0.2,0.7c0.4-0.2,0.1-0.8,0.5-1c0.1,0,0.2,0,0.2,0
		c0.2,0.1,0.3,0,0.3-0.1c0-0.3,0.1-0.4,0.3-0.4c0.2,0,0.3,0,0.4-0.1c0.1,0.1,0.3,0.2,0.4,0.1c0.5-0.4,0.6-0.1,0.8,0.3
		C33.3,9.2,33.7,9.6,33.7,10.1z"/>
	<path class="st26" d="M26.4,5.1C26.5,5,26.6,4.9,26.8,5C26.9,5,27,5,27,5.1c0.2,0.1,0.3,0.3,0.5,0.2c0.4-0.2,0.7,0,1,0.3
		c0.2,0.3,0.6,0.1,0.6-0.2c0-0.6,0.2-0.7,0.7-0.6c0.2,0,0.4-0.1,0.6,0c0.1,0,0.2,0,0.3,0c-0.5,0.3-0.8,0.8-1,1.5
		c-0.1,0.4-0.1,0.7,0.4,0.8c0.2,0,0.5,0.1,0.4,0.5c0,0.3,0,0.7-0.4,0.8s-0.7,0-1-0.4c-0.3-0.5-0.9-0.6-1.4-0.9
		C27.5,6.9,27.1,7,27,6.7c-0.2,0.2-0.5,0.1-0.7,0c-0.2-0.2-0.4-0.2-0.5-0.3C25.6,5.5,25.7,5.5,26.4,5.1z"/>
	<path class="st27" d="M26.7,6.3c0.2,0.1,0.4,0.1,0.6-0.1C27.4,6,27.5,5.9,27.8,6c0.1,0.2-0.1,0.2-0.1,0.3c-0.2,0.3-0.1,0.4,0.2,0.3
		c0.3-0.1,0.5,0.1,0.7,0.3c0.1,0.2,0.4,0.3,0.7,0.4c0.2,0.1,0.4,0.1,0.5,0.2c0.5,0.6,0.7,0.6,1-0.1c0,0.1,0.1,0.2,0.1,0.2
		c0.2,0.5,0.4,1,0.1,1.6c-0.1,0-0.2,0-0.2,0c-0.5,0.2-0.7-0.2-0.9-0.4c-0.2-0.2-0.4-0.3-0.6-0.4c-0.2-0.2-0.6,0.1-0.8-0.2
		C28.4,8.1,28.1,8.1,28,8c-0.2-0.6-0.7-0.9-1.3-1C26.2,7,26,6.8,26,6.5C26.1,6.2,26.3,6.1,26.7,6.3z"/>
	<path class="st26" d="M30.9,9.3c-0.2-0.5-0.4-1-0.1-1.6c0.3-0.1,0.4,0.2,0.6,0.2c0.1,0,0.2,0.1,0.2,0.2c0.1,0.1,0.2,0.2,0.2,0.2
		v0.1c-0.4,0.4-0.5,0.7,0.1,0.9c0.1,0,0,0.1,0,0.2c-0.1,0.1-0.3,0.2-0.4,0.1C31.2,9.7,31,9.5,30.9,9.3z"/>
	<path class="st25" d="M31.6,8.2C31.5,8.1,31.4,8,31.4,8l0.1-0.1c0.1-0.2,0-0.6,0.4-0.5c0.3,0.1,0.3,0.5,0.4,0.7
		c0,0.2-0.1,0.2-0.3,0.1C31.9,8.1,31.8,7.9,31.6,8.2z"/>
	<path class="st20" d="M30.4,4.7c-0.2,0.3-0.6,0.2-0.9,0.1C29.7,5.3,29.4,6,29,6.2c-0.2,0.1-0.4,0.1-0.5-0.1c-0.2-0.3-0.5-0.6-1-0.5
		c-0.3,0-0.4-0.2-0.5-0.4c0.2,0,0.4,0,0.5-0.2c0.3-0.3,0.6-0.3,0.9-0.1c0.2,0.1,0.4,0.3,0.5-0.2c0-0.3,0.3-0.2,0.4-0.1
		c0.3,0.2,0.6,0,0.8-0.1C30.2,4.5,30.3,4.6,30.4,4.7z"/>
	<path class="st28" d="M24.3,3c0-0.1,0.1-0.2,0.1-0.2c0.2-0.1,0.3-0.3,0.2-0.4c-0.4-0.4-0.1-0.6,0.2-0.8c0.2-0.1,0.3-0.3,0.6-0.1
		l0,0c0,0.1,0.1,0.2,0,0.3c-0.5,0-0.5,0.2-0.4,0.5C25,2.8,24.8,3.1,24.3,3z"/>
	<path class="st4" d="M25.4,1.5c-0.2,0-0.4,0.1-0.6,0.1c0.1-0.2-0.1-0.4-0.2-0.6C25.2,0.9,25.2,0.9,25.4,1.5z"/>
	<path class="st29" d="M24.5,5.1c0.4,0,0.8,0,1.2,0.1c0.3,0.5,0.1,0.9-0.4,1c-0.4,0-0.7,0.3-1,0.4c-0.1,0-0.2,0-0.3,0
		c-0.1-0.1-0.3,0-0.5-0.1c-0.2-0.5,0-0.9,0.5-1.2C24.2,5.2,24.3,5.1,24.5,5.1z"/>
	<path class="st27" d="M24.5,5.1c0.2,0.2,0.1,0.4-0.2,0.4c-0.4,0.1-0.7,0.4-0.8,0.8c-0.1,0.1-0.2,0.1-0.3,0c-0.2-0.5,0.1-1,0.3-1.4
		c0.1-0.1,0.3-0.2,0.4-0.4C24.1,4.7,24.3,4.8,24.5,5.1C24.5,5,24.5,5,24.5,5.1z"/>
	<path class="st27" d="M24.3,6.3c0.3-0.3,0.5-0.6,1.1-0.4c0.5,0.1,0.4-0.3,0.4-0.7c0.2,0,0.5-0.1,0.7-0.1c0,0.2,0,0.4,0.1,0.6
		c-0.3,0.1-0.2-0.3-0.4-0.2c-0.2,0.2,0,0.5,0,0.7c-0.5,0.4-1.1,0.2-1.6,0.4C24.3,6.7,24.2,6.5,24.3,6.3z"/>
	<path class="st29" d="M25,4.5c0.2,0,0.5,0,0.7,0c-0.2,0.3-0.5,0.3-0.8,0.2C24.7,4.6,24.9,4.5,25,4.5z"/>
	<path class="st1" d="M0,20.2c0.6-0.2,1.2-0.5,1.9-0.4c0.1,0,0.1,0,0.2,0c0.3-0.1,0.5-0.1,0.7,0.1c0.1,0.2,0.1,0.5,0,0.7
		c-0.1,0.3-0.4,0.2-0.6,0.1c-0.6,0-1.3,0-1.9-0.2C0.1,20.5-0.1,20.4,0,20.2z"/>
	<path class="st30" d="M4,20.1c0.3,0.2,0.7,0.1,1.1,0.1c0.3-0.1,0.5-0.3,0.7,0.1C5.9,20.9,5.4,21,5,21.1c-0.2,0-0.8,0.1-0.8,0
		C3.8,21,3.3,21,2.9,20.9c-0.3-0.3-0.2-0.6,0.2-0.7C3.4,20.1,3.6,19.8,4,20.1z"/>
	<path class="st11" d="M4,20.1c-0.3,0.2-0.5,0.6-1,0.5c-0.1,0-0.1,0.2-0.1,0.3c-0.3,0-0.8-0.1-1.1-0.2c0.2,0,0.7,0.1,0.7-0.3
		c0-0.5-0.3-0.6-0.6-0.6C2.7,19.7,3.4,19.5,4,20.1z"/>
	<path class="st14" d="M11.2,20.5c0.5,0.1,1.1-0.1,1.6,0.2c0-0.2,0.1-0.4,0.1-0.5c0.3-0.3,0.5,0,0.7,0.1c0,0.1,0,0.2,0,0.2
		c0,0.6,0,0.6-0.6,0.5c-1.1,0.1-2.2,0.2-3.3,0.2c-0.2,0-0.3-0.1-0.5-0.1c-0.3,0.1-0.6,0.2-0.7-0.1c-0.1-0.2,0.2-0.5,0.4-0.7
		c0.2-0.1,0.4,0,0.6,0c0.4,0.1,0.9,0,1.4,0C10.9,20.4,11.1,20.4,11.2,20.5z"/>
	<path class="st18" d="M13,21c0.1,0,0.3,0,0.3-0.1c-0.1-0.4,0.2-0.3,0.4-0.4c0.2,0,0.5-0.1,0.6,0c0.7,0.6,1.5,0.1,2.3,0.3
		c0.1,0,0.1,0.1,0.2,0.1c-1,0.1-2,0.2-3,0.2C13.4,21.1,13.2,21.1,13,21z"/>
	<path class="st20" d="M14.4,19.8c0.5,0,1-0.1,1.6,0.1c0,0.1,0,0.3-0.1,0.3c-0.5-0.1-1,0.2-1.4-0.3C14.4,19.9,14.4,19.8,14.4,19.8z"
		/>
	<path class="st22" d="M13.6,20.3c-0.2,0-0.5-0.1-0.7-0.1c-0.1-0.3,0.1-0.4,0.3-0.3c0.3,0.1,0.6,0.1,0.9,0.1
		C14.1,20.3,13.8,20.2,13.6,20.3z"/>
	<path class="st20" d="M16.2,19.9c0.4,0,0.8,0,1.2,0c0.4,0.2,0.8,0,1.2,0.2C17.8,20.2,17,20.3,16.2,19.9z"/>
	<path class="st8" d="M19.8,20.2c0.6,0,1.2,0,1.8,0c0.1,0,0.1,0,0.1,0.1l0,0C21,20.2,20.4,20.4,19.8,20.2z"/>
	<path class="st31" d="M5,21.1c0-0.1-0.2-0.2,0-0.2c0.4,0,0.5-0.3,0.8-0.5c0.2-0.3,0.5-0.2,0.7-0.2c0.3,0,0.6,0.5,0.9,0.1
		c0.1,0,0.1-0.1,0.2-0.1s0.2,0,0.3,0c0.2,0.1,0.5,0.1,0.7,0.2c0.2,0.4-0.1,0.5-0.3,0.7c-0.3,0.2-0.7,0.1-1.1,0.1H7.1
		C7.1,21.2,5.6,21.3,5,21.1z"/>
	<path class="st23" d="M8.2,21.1c0.1-0.2,0.2-0.4,0.2-0.6c0.1-0.1,0.2-0.1,0.3-0.1c0,0,0,0,0.1,0.1c0.1,0.2,0,0.4-0.2,0.6
		c0.2,0,0.4,0,0.6,0C8.9,21.3,8.5,21.2,8.2,21.1z"/>
	<path class="st21" d="M46.3,21.2c0.3-0.1,0.4-0.1,1.1,0c0.8,0,1.8,0,2.6-0.1c0.4,0,0.8,0,1.1,0.1c-0.8,0-1.8,0.1-2.6,0.1
		c-0.1,0-0.2,0-0.2,0C47.7,21.2,47,21.2,46.3,21.2z"/>
	<path class="st21" d="M51.7,20.6c-0.2,0-0.3,0.1-0.4,0.2c-0.2,0.1-0.4,0.3-0.5-0.1c0-0.1-0.2-0.1-0.3-0.1c-0.3,0-0.5,0-0.7-0.1
		C50.4,20.6,51,20.4,51.7,20.6z"/>
	<path class="st15" d="M44.9,21.2c0.6,0,1.2-0.1,1.7,0.1C46,21.3,45.5,21.3,44.9,21.2z"/>
	<path class="st25" d="M35.3,21.3c0.2,0,0.3,0,0.5,0c-0.1,0.4-0.5,0.7-0.2,1.1c-0.3,0.4-0.8,0.4-1.2,0.3c0.1-0.4,0.4-0.1,0.6-0.1
		c0.3-0.2,0.2-0.4,0.1-0.7C34.9,21.6,35,21.4,35.3,21.3z"/>
	<path class="st18" d="M34.9,22.6c-0.2,0-0.4,0-0.6,0.1c-0.3,0.2-0.5-0.1-0.7-0.3c-0.2-0.2,0-0.3,0.2-0.3c0.1-0.1,0.2-0.4,0.4-0.1
		C34.4,22.3,34.7,22.4,34.9,22.6z"/>
	<path class="st32" d="M32.9,19.6c-0.3-0.1-0.6-0.2-0.8-0.2c-0.4,0-0.3,0.2-0.2,0.4c0.3,0.3,0.1,0.4-0.2,0.6l0,0
		c-0.3-0.2-0.6-0.1-0.8,0.1l-0.1-0.1v-0.1c-0.1-0.6-0.3-1.2-0.3-1.9c0.1-0.4,0.4-0.6,0.3-1.1c0-0.2,0.1-0.4,0.4-0.4s0.5,0.1,0.6,0.5
		c0.1,0.5,0.2,0.9,0.8,0.9c0,0,0,0,0.1,0C32.7,18.3,33,19.4,32.9,19.6z"/>
	<path class="st32" d="M28.2,20.2h0.1c0.1-0.1,0.2-0.1,0.3-0.1c0.6,0,1.1-0.1,1.7,0c0.2,0,0.4,0,0.4,0.3c0,0,0,0,0,0.1
		C29.9,20.2,29.1,20.4,28.2,20.2z"/>
	<path class="st14" d="M40.8,21.4c-0.1,0.1-0.3,0.2-0.5,0.1c-0.6-0.2-1.1,0.1-1.7-0.1c0-0.3,0.1-0.5,0.5-0.4
		c0.8-0.1,1.1,0.1,1.6,0.1C40.7,21.1,40.8,21.2,40.8,21.4z"/>
	<path class="st31" d="M13.7,13.1c0-0.1,0-0.2,0-0.2c0.3-0.3,0.1-0.7,0.3-1s0.1-0.7,0.4-1c0.7,0.1,0.8,0.6,0.9,1.1
		c0.1,0.5-0.2,0.8-0.5,1.2c-0.2,0.1-0.5,0-0.7,0.1C13.9,13.5,13.7,13.3,13.7,13.1z"/>
	<path class="st15" d="M15.2,12c-0.2-0.1-0.7,0-0.3-0.5c0.1-0.1-0.4-0.3-0.5-0.6l0.1-0.1c0.2,0,0.4-0.2,0.4-0.4
		c0.1-0.3,0.3-0.4,0.6-0.4c0.2-0.1,0.3,0,0.4,0.2c0,0.4,0.2,0.8,0,1.2c-0.2,0.2-0.3,0.5-0.5,0.6C15.3,12,15.3,12,15.2,12z"/>
	<path class="st15" d="M15.2,9.7c0.2-0.3,0.7-1.1,0.9-1.5c0.3,0,0.3,0.1,0.4,0.7c0.1,0.5-0.3,1.1-0.8,1.1
		C15.4,10.1,15.1,10.2,15.2,9.7z"/>
	<path class="st5" d="M15.5,10c0.5,0,0.6-0.5,0.6-0.8c0.1-0.4-0.6,0.2-0.8,0.1c0.4-0.1,0.7-1,0.9-1.2h0.1c0.1,0.2,0.4,0.3,0.5,0.5
		c0,0,0.1,0.1,0.1,0.2c0,0.1,0,0.1,0,0.2c-0.2,0.4-0.5,0.7-0.8,1.1c-0.1,0.1-0.2,0.2-0.4,0.2c-0.1,0-0.2,0-0.3,0
		C15.4,10.1,15.4,10.1,15.5,10z"/>
	<path class="st24" d="M15.5,10c0,0.1,0,0.2,0,0.2c-0.2,0.1-0.4,0.3-0.5,0.5c-0.1,0.3-0.3,0.2-0.5,0.1c0.2-0.4,0.9-1.6,1.2-1.9
		C15.8,9.1,15.4,9.9,15.5,10z"/>
	<path class="st33" d="M16.3,8c0.1-0.1,0.2-0.3,0.3-0.4c0.1,0.3,0.2,0.4,0.5,0.2c0.1-0.1,0.3-0.2,0.4-0.3c0.2,0.2,0.2,0.5,0,0.7
		c-0.1,0.1-0.2,0.3-0.4,0.5C17,8.9,16.9,9,16.7,8.9l0,0c0-0.3-0.3-0.3-0.4-0.5c0,0,0,0,0-0.1C16.2,8.1,16.2,8,16.3,8z"/>
	<path class="st34" d="M11.2,20.5c-0.6,0-1.2,0-1.8,0c0-0.4,0.3-0.1,0.5-0.2c0.4-0.1,0.9-0.1,1.3-0.1c0.1,0,0.2,0,0.2,0.1
		S11.3,20.5,11.2,20.5z"/>
	<path class="st35" d="M5.7,18.9c0.1,0,0.2-0.1,0.2-0.1c0.2,0,0.3,0.1,0.5,0.1C6.5,19,6.6,19,6.7,19.2c-0.2,0-0.5-0.1-0.7,0
		C5.7,19.3,5.6,19.1,5.7,18.9z"/>
	<path class="st0" d="M7.4,20.4C7,20.2,6.7,20,6.3,19.9c0.4-0.1,0.9-0.2,1.3-0.4c0,0.3,0.1,0.6-0.1,0.8l0,0
		C7.4,20.5,7.4,20.5,7.4,20.4z"/>
	<path class="st36" d="M9.9,20.3c-0.2,0.1-0.3,0.1-0.5,0.2c-0.2,0-0.4,0-0.6,0l0,0c-0.1-0.1-0.5,0-0.2-0.3C9,20,9.5,20.2,9.9,20.3z"
		/>
	<path class="st0" d="M8.6,20.2c0.1,0.1,0.1,0.2,0.2,0.3c-0.1,0-0.2,0-0.4,0s-0.5,0-0.7-0.1s-0.3-0.2,0-0.4C8,20,8.3,20.2,8.6,20.2z
		"/>
	<path class="st16" d="M11.7,19.6c0.2,0,0.4,0,0.6,0c0.1,0.2,0.3,0.4,0,0.5C11.8,20.2,11.8,19.9,11.7,19.6z"/>
	<path class="st23" d="M7.7,20.1c0,0.1,0,0.2,0,0.4c-0.1,0-0.2,0-0.2,0c-0.1-0.1-0.2-0.3-0.4-0.4c0.2-0.1,0.4-0.2,0.5-0.4
		C7.8,19.7,7.7,19.9,7.7,20.1z"/>
	<path class="st14" d="M13.1,14.9c0-0.5,0.4-0.8,0.4-1.3c0.2-0.2,0.5-0.2,0.7-0.5s0.3,0.1,0.5,0.2c0,0.1,0,0.1,0,0.2
		c0,0.4-0.1,0.8-0.6,1.1c0.2,0,0.4-0.1,0.5,0c0.2,0.1,0.5,0.3,0.8,0.2c0.3,0,0.6-0.2,0.7,0.3c0.1,0.4,0.5,0.8,0,1.2
		c-0.3,0.1-0.5,0.2-0.7,0.4c-0.4,0.3-0.5-0.2-0.8-0.3c-0.5-0.2-0.8,0-1,0.5L13.5,17c-0.1,0.1-0.3,0.3-0.4,0.4
		c-0.2,0.1-0.3,0.2-0.5,0c-0.2-0.2-0.1-0.4,0-0.6c0-0.5,0.1-1.1,0.6-1.4C13.2,15.2,13.1,15,13.1,14.9z"/>
	<path class="st35" d="M13.1,14.9c0.2,0.2,0.5,0.1,0.7,0.2c0,0.1-0.1,0.2-0.2,0.2c-0.7,0.2-0.9,0.6-0.9,1.3c0,0.1-0.2,0.3,0,0.4
		s0.2-0.1,0.3-0.3c0-0.1,0.1-0.2,0.2-0.1c0.2,0.2,0,0.4-0.1,0.5c-0.1,0.2-0.1,0.5,0.1,0.6c-0.2,0.4-0.3,0.8-0.9,0.7
		c-0.7-0.6-0.2-1.3-0.1-1.9C12.4,16.1,12.6,15.4,13.1,14.9z"/>
	<path class="st28" d="M13.1,17.3c0-0.2,0.1-0.4,0.1-0.6h0.1c0.1,0.4,0,0.7-0.1,1.1c0,0.6,0.1,0.9,0.8,0.8c-0.3,0.4-0.7,0.3-1,0.5
		c-0.3-0.1-0.6-0.1-0.7-0.4c0.1-0.5,0.3-0.5,0.5-0.7C12.5,17.7,13,17.5,13.1,17.3z"/>
	<path class="st20" d="M14.6,13.5c-0.1-0.2-0.3-0.3-0.4-0.1c-0.2,0.2-0.4,0.2-0.6,0.2c0.1-0.2,0.1-0.3,0.2-0.5c0.1,0,0.3,0,0.3,0
		c0.3-0.6,0.5-0.1,0.7,0C14.8,13.3,14.8,13.4,14.6,13.5z"/>
	<path class="st20" d="M31.5,15.7c0.5-0.3,0.5-0.7,0.2-1c-0.2-0.2-0.3-1.1,0-1.2c0.4-0.2,0.4,0.3,0.6,0.4c0.1,0.1,0.3,0.3,0.4,0.4
		c0,0.1,0,0.2,0.1,0.2c0.4,0.3,0.4,0.6,0.2,1c-0.1,0.1,0,0.2-0.1,0.3c0.1-0.3,0-0.6,0.4-0.8c0.1,0,0,0,0,0c-0.2-0.1-0.3-0.3-0.5-0.4
		c-0.3-0.4-0.2-0.8,0.2-1.1c0.1-0.1,0.2-0.2,0.3-0.3s0.1-0.1,0.2-0.2c0.3,0,0.6-0.3,0.9,0c0.1,0.1,0.2,0.2,0.2,0.4
		c0.2,0.3,0.4,0.7-0.1,1c-0.3,0.3-0.5,0.5,0.1,0.7c0.2,0,0.3,0.2,0.4,0.4c-0.2,0.1-0.4,0.2-0.6,0.3c-0.3,0.1-0.4,0.4-0.3,0.7
		c0.1,0.3,0,0.5-0.2,0.7c-0.1,0.4-0.4,0.4-0.7,0.2c0.2,0.1,0.3,0.3,0.1,0.5s-0.4,0.2-0.6,0c-0.3-0.2-0.6-0.3-0.9-0.4
		c-0.3-0.2-0.5-0.4-0.2-0.8s-0.3-0.3-0.3-0.6C31.3,15.9,31.4,15.8,31.5,15.7z"/>
	<path class="st25" d="M33.5,13.2l-0.1,0.1c-0.2,0.2-0.5,0.2-0.6-0.1c0-0.2-0.5-0.6,0.1-0.8c0.3-0.1,0-0.4,0.2-0.6l0,0
		c0.2,0,0.4-0.2,0.5-0.3c0.1-0.2,0.3-0.2,0.5-0.1c0.2,0.1,0.2,0.3,0.2,0.5c-0.1,0.2-0.1,0.5-0.2,0.7C34,12.8,33.8,13.1,33.5,13.2z"
		/>
	<path class="st25" d="M34.5,14.3c0.1-0.3-0.2-0.7,0.1-1c0.2-0.3,0.2-0.6,0.1-0.9c0.4,0,0.7,0.3,1,0.3c-0.3,0.4-0.8,0.6-0.6,1.3
		C35.1,14.3,34.8,14.4,34.5,14.3z"/>
	<path class="st37" d="M33.5,13.2c0.1-0.2,0.3-0.3,0.2-0.6c-0.1-0.1-0.2-0.3,0-0.4c0.1-0.1,0.3-0.2,0.4-0.1c0.2,0.1,0.1,0.3,0.1,0.5
		c0,0.1,0.1,0.2,0.1,0.4C34.1,13.1,33.8,13.1,33.5,13.2z"/>
	<path class="st38" d="M31.5,16c0.5,0,0.8,0.1,0.4,0.7c-0.2,0.2,0.1,0.3,0.2,0.5c0,0.2,0.2,0.3,0.4,0.4c0.7,0.2,1,0.8,1.5,1.3
		c0,0.1,0,0.2,0,0.2c0,0.2,0,0.3,0,0.5c0,0.3-0.1,0.6-0.5,0.4c-0.1,0-0.2,0-0.2,0c-0.1,0-0.2,0.4-0.4,0.1s-0.4-0.3-0.3-0.4
		c-0.1-0.2,0.3-0.6,0.2-0.8s0-0.5-0.4-0.2c-0.3,0.2-0.5-0.3-0.7-0.6c-0.1-0.1,0-0.3,0-0.5s0-0.4-0.2-0.4c-0.3,0-0.2,0.2-0.2,0.3
		c0,0.3-0.3,0.5-0.3,0.8c-0.5,0-0.6-0.3-0.8-0.6c0-0.6,0.2-1.1,1-1.3C31.2,16.5,31.1,16,31.5,16z"/>
	<path class="st13" d="M33.9,19.1c-0.1-0.2-0.1-0.3-0.3-0.2c-0.5,0.1-0.7-0.1-0.6-0.5c0.1-0.3,0.1-0.5-0.3-0.5
		c-0.6,0.1-0.7-0.3-0.6-0.7c0.4,0.1,0.7,0.2,1,0.5c0.1-0.4-0.3-0.5-0.3-0.8c0.3,0.1,0.7,0.2,1,0.1c0,0.3,0.1,0.6,0.1,0.8
		C34,18.3,33.9,18.7,33.9,19.1z"/>
	<path class="st38" d="M31.7,20.3c0.1-0.3-0.3-0.6-0.1-1c0.2-0.3,0.3-0.3,0.4,0C32.2,19.7,32.5,20.2,31.7,20.3z"/>
	<path class="st37" d="M26.5,13.7c-0.2-0.1-0.3-0.3-0.5-0.5c-0.3-0.2-0.2-0.5-0.3-0.7c0.1-0.2,0.2-0.2,0.5-0.1
		c0.1,0.1,0.3,0.1,0.4,0c0.3-0.4,0.8-0.2,1.1-0.2h-0.1c-0.3,0.1-0.5-0.1-0.6-0.4c-0.1-0.4,0.3-0.4,0.5-0.5c0.6-0.3,1-0.2,1.4,0.2
		c0.2,0.2-0.3,0.5,0.2,0.7c0.3,0,0.5-0.3,0.8-0.1c0.5,0.1,0.7-0.2,0.7-0.6c0-0.2,0-0.3,0.2-0.3s0.2,0.1,0.2,0.2
		c0.1,0.3,0.2,0.5,0.3,0.8c0.1,0.3,0.1,0.5-0.2,0.7c-0.1,0.1-0.3,0.1-0.4,0c-0.3-0.2-0.1-0.4,0-0.7c-0.4,0.1-0.6,0.2-0.5,0.6
		c0.2,0.5,0,0.8-0.5,0.8c-0.1-0.1-0.2-0.1-0.3-0.1c-0.4,0.2-0.7,0.4-1.2,0.2c-0.2-0.1-0.4,0.1-0.5,0.2
		C27.3,13.8,26.9,13.7,26.5,13.7z"/>
	<path class="st27" d="M31.5,16c0,0.2,0.1,0.4,0,0.6c0,0.1,0,0.3-0.3,0.2c-0.6-0.2-0.9,0-0.8,0.7c0,0.1-0.1,0.1-0.2,0.1
		c-0.6-0.1-1.1-0.5-1.5-0.9c-0.2-0.2-0.4-0.3-0.4-0.7c0-0.1-0.1,0-0.2,0c-0.4-0.2-0.7-0.5-0.9-1c0.6-0.7,0.9-0.7,1.6-0.1
		C28.9,15,29,15,29.1,15c0.3-0.1,0.5-0.2,0.8-0.2c0.3-0.2,0.5-0.3,0.8-0.2c0.5,0.2,0.3,0.9,0.6,1.2C31.5,15.8,31.5,15.9,31.5,16z"/>
	<path class="st27" d="M24.3,6.3c0.6-0.2,1.2-0.2,1.8-0.1c0.2,0,0.4-0.2,0.6,0.1c-0.2,0.1-0.4,0.1-0.4,0.3c0,0.2,0.2,0.3,0.4,0.3
		c0.6,0.2,1.1,0.5,1.5,0.9C28.1,8,27.9,8,27.8,8.1c-0.4,0-0.5-0.4-0.9-0.6c-0.2-0.1-0.3-0.3-0.6-0.3c-0.1,0.1-0.1,0.2-0.3,0.2
		c-0.1,0-0.1-0.2-0.2-0.3C25.7,7,25.6,7,25.5,7c-0.2,0-0.4,0.2-0.6,0.2c-0.2-0.1-0.4,0.1-0.6,0.1c-0.1,0-0.3,0-0.4-0.1
		c-0.3-0.3-0.4-0.7,0.1-0.9C24.1,6.3,24.2,6.3,24.3,6.3z"/>
	<path class="st26" d="M29.3,15.1c-0.3,0.1-0.6,0.4-0.8-0.1c-0.2-0.4-0.7-0.1-1.1,0h-0.1c0-0.3-0.2-0.4-0.4-0.5
		c0.2-0.6,0.7-0.8,1.2-1c0.4,0.1,0.7-0.3,1.1-0.3c0.1,0.2,0,0.3-0.1,0.5c0,0.1,0,0.2,0,0.2V14C29.7,14.4,29.6,14.7,29.3,15.1z"/>
	<path class="st37" d="M33.1,11.9c0.1,0.2,0.2,0.4,0,0.5c-0.6,0.5-0.1,0.7,0.2,0.9c-0.1,0.4-0.7,0.6-0.6,1.2
		c-0.1,0.1-0.2-0.1-0.2-0.1c-0.3,0-0.5-0.1-0.4-0.5c0.2-0.5,0.6-0.9,0-1.4c-0.2-0.1-0.1-0.3,0.1-0.3c0.1,0,0.3,0,0.4,0
		C32.5,11.8,32.8,11.8,33.1,11.9z"/>
	<path class="st39" d="M29.1,8.3c0.4,0,0.7,0.3,0.9,0.5c0.2,0.2,0.4,0.3,0.6,0.4c0,0.5-0.3,0.9-0.3,1.4c0,0.1,0,0.2-0.2,0.3
		c-0.1,0-0.2-0.1-0.2-0.2c-0.2-0.3-0.3-0.7-0.1-0.9c0.3-0.4,0-0.5-0.2-0.7c-0.2-0.1-0.3-0.2-0.5-0.3c-0.2,0-0.2-0.1-0.2-0.2
		C28.8,8.4,28.9,8.3,29.1,8.3z"/>
	<path class="st39" d="M27.5,9.5c0.5,0.2,1.1,0.3,0.9,1.1c0,0.2,0.2,0.2,0.4,0.3c0.2,0.1,0.5,0.2,0.2,0.5c0,0-0.1,0.1-0.2,0.1
		c-0.4-0.4-0.8-0.3-1.3-0.2c-0.2,0-0.4,0.1-0.4,0c-0.1-0.3-0.2-0.5-0.5-0.7s0.1-0.4,0.3-0.6C27.1,9.7,27.3,9.7,27.5,9.5L27.5,9.5z"
		/>
	<path class="st40" d="M29.3,15.1c-0.1-0.3,0-0.6-0.4-0.8c-0.3-0.2,0.1-0.3,0.3-0.4c0.3-0.2,0.6-0.2,0.8,0.1
		c0.4,0.1,0.5,0.3,0.2,0.6c-0.1,0.1-0.1,0.3-0.1,0.4C29.9,15.1,29.6,15.1,29.3,15.1z"/>
	<path class="st27" d="M26.1,7.3c0.1,0,0.2-0.1,0.2-0.1c0,0.6,0.5,0.9,0.6,1.4c0,0.1,0,0.2-0.1,0.3c-0.4,0.4-0.7,0-0.9-0.2
		c-0.4-0.5-0.4-1.1-0.1-1.4C25.9,7.3,26,7.3,26.1,7.3z"/>
	<path class="st23" d="M29.1,8.3c-0.1,0.2-0.1,0.3,0,0.5C29,9.2,29,9.2,28.5,8.9c-0.1,0.1-0.2,0.1-0.2,0c0-0.2,0-0.4,0-0.6
		C28.5,8.2,28.8,7.9,29.1,8.3z"/>
	<path class="st37" d="M30.1,15c-0.3-0.3,0.2-0.7-0.1-1c0.1-0.1,0-0.3,0.2-0.3s0.3,0.1,0.3,0.3c0.1,0.2,0.2,0.4,0.3,0.6
		C30.6,14.6,30.3,14.8,30.1,15z"/>
	<path class="st41" d="M29.8,11.9c0,0.2-0.3,0.2-0.3,0.5c0,0.4-0.3-0.1-0.5,0c-0.3-0.3-0.2-0.5,0.2-0.6
		C29.4,11.5,29.7,11.2,29.8,11.9z"/>
	<path class="st6" d="M29.2,11.8C29.1,12,29,12.2,29,12.4c-0.4,0.2-0.6,0.1-0.4-0.4c0.1-0.1,0.1-0.3,0.2-0.4
		c0.1-0.1,0.1-0.2,0.2-0.2h0.1C29.1,11.5,29.1,11.6,29.2,11.8z"/>
	<path class="st39" d="M26.8,8.8l0.1-0.1c0.5,0.1,0.6,0.4,0.6,0.8l0,0c-0.2,0.3-0.4,0.2-0.7,0.1C26.4,9.3,26.8,9,26.8,8.8z"/>
	<path class="st0" d="M32.1,10.5c0.5,0,0.9,0,1.2,0c0.1,0,0.1,0.1,0.2,0.1l-0.1,0.1C33,10.7,32.6,11,32.1,10.5z"/>
	<path class="st42" d="M28.2,8.9c0.1,0,0.2,0,0.2,0c0,0.1,0,0.2,0,0.3s0.2,0.3,0,0.4c-0.2,0.1-0.3-0.1-0.3-0.3
		C28.2,9.2,28.2,9,28.2,8.9z"/>
	<path class="st40" d="M29.2,13.7c0-0.2,0-0.3,0-0.5c-0.1-0.3,0.1-0.4,0.4-0.4c0,0.2,0.1,0.3,0.1,0.5C29.5,13.5,29.4,13.6,29.2,13.7
		z"/>
	<path class="st43" d="M24,6.3c-0.1,0.2-0.1,0.5,0,0.7c-0.2,0.4-0.6,0.1-0.8,0.2c-0.5-0.1-0.9,0.1-1.3,0.5c-0.1,0-0.1,0-0.2,0
		s-0.1,0-0.2,0c-0.3-0.1-0.6-0.5-0.9-0.1c-0.4-0.1-0.5-0.6-0.2-1c0-0.1,0.1-0.1,0.2-0.2s0.2-0.1,0.3-0.2c0.2-0.4,0.9-0.5,1.3-0.2
		c0.1,0.1,0.2,0.3,0.4,0.3c0.3,0,0.5-0.1,0.7-0.3c0.1,0,0.2,0.1,0.3,0.1C23.7,6.3,23.9,6.3,24,6.3z"/>
	<path class="st5" d="M17.2,14.1c-0.5,1.1-0.5,2.4-0.8,3.6c-0.1,0.3-0.1,0.7,0.4,0.8c0.2,0.1,0.1,0.3,0,0.4c-0.1,0-0.2,0-0.3,0
		c-0.8,0-0.7,0-0.8-0.7c-0.1-0.5,0-0.8,0.2-1.2c0-0.2-0.1-0.4,0-0.6c0.4-0.3,0.6-0.6,0.4-1.1c-0.2-0.6,0-1.1,0.3-1.5
		c0,0.1-0.1,0.4-0.4,0.3c-0.3-0.1-0.7-0.3-0.5-0.8c0.1-0.2,0-0.4,0.1-0.6c0.2-0.2,0.3-0.4,0.5-0.7c0.3-0.1,0.6-0.2,0.6-0.6
		c0.1-0.4,0.4-0.6,0.6-0.9c-0.2,0-0.5,0.1-0.6-0.2c-0.2-0.5,0.1-0.7,0.4-0.9c0.3-0.1,0.6-0.3,0.9-0.3c0.1,0,0.1,0,0.2,0
		c0.3,0.3,0.3,0.7,0.3,1c0,0.2,0,0.3,0.1,0.4c0.1,0.2,0.1,0.4,0,0.6c-0.7,0.4-1.2,0.9-1.4,1.7C17.3,13.3,17.4,13.7,17.2,14.1z"/>
	<path class="st24" d="M21.8,7.7L21.8,7.7c-0.5,0.1-0.9,0.5-1.3,0.7c-0.5,0.1-0.8,0.4-1,0.8c-0.1,0.4-0.3,0.6-0.6,0.9
		c-0.3-0.1-0.4-0.4-0.4-0.7c0-0.4,0.2-0.7,0.4-1.1c0.1-0.1,0.3-0.2,0.4-0.2c0.1-0.1,0.2-0.3,0.4-0.4c0.4-0.1,0.5-0.4,0.5-0.7
		c0-0.3,0-0.5,0.4-0.6c-0.1,0.3-0.4,0.7,0,1c0.4-0.1,0.6,0.1,0.9,0.2C21.7,7.7,21.7,7.7,21.8,7.7z"/>
	<path class="st21" d="M22,14.8c0.2-0.1,0.3-0.2,0.5-0.2c0.3-0.1,0.7-0.2,0.9,0c0.3,0.3-0.2,0.5-0.1,0.8c-0.1,0.3-0.4,0.4-0.7,0.5
		l0,0c-0.2,0.2-0.5,0.2-0.7,0s-0.1-0.4,0-0.6C22,15.1,21.8,14.9,22,14.8z"/>
	<path class="st0" d="M28.1,13.8c-0.1,0.1-0.2,0.1-0.3,0.2c-0.4,0.5-0.4,0.5-0.9,0.5c-0.3-0.2-0.4-0.5-0.4-0.8
		c0.2-0.4,0.6-0.4,1-0.2C28,13.3,28.1,13.3,28.1,13.8z"/>
	<path class="st44" d="M18.6,9.4c0.1,0.2,0.2,0.5,0.3,0.7c0,0.2,0,0.4,0,0.6c-0.4,0.3-0.3-0.3-0.5-0.3c0.2-0.3-0.1-0.6,0-1
		C18.5,9.3,18.6,9.3,18.6,9.4z"/>
	<path class="st27" d="M19.4,9.5c0-0.1,0.1-0.4,0.1-0.5c0.1-0.4,0.2-1,0.9-0.6C20.2,8.8,19.7,9.2,19.4,9.5z"/>
	<path class="st33" d="M16.1,17.1c-0.4,0.5,0.1,1.1-0.1,1.6c-0.1,0.1,0.1,0.1,0.2,0.2c0.2,0,0.4,0,0.6,0c-0.2,0.2-0.5,0.1-0.8,0.2
		c-0.4,0.2-0.8,0.4-1.2,0c0-0.1,0-0.1,0-0.2c0.1-0.2,0-0.4,0-0.5c0-0.3-0.2-0.2-0.3-0.3c0.1-0.7,0.6-1.3,0.2-2c0.3,0,0.3,0,0.6,0.5
		C15.8,16.4,15.9,16.7,16.1,17.1z"/>
	<path class="st23" d="M7.4,20.4L7.4,20.4c0.1,0.1,0.3,0.3,0.1,0.4s-0.4,0-0.6,0s-0.3-0.2-0.4-0.4C6.8,20.4,7.1,20.4,7.4,20.4z"/>
	<path class="st44" d="M16.2,8.2c0.4,0,0.6,0.1,0.4,0.5C16.5,8.6,16.2,8.6,16.2,8.2z"/>
	<path class="st45" d="M15.3,15.1c0.3-0.6,0.5-1.2,0.6-1.8c0,0.2,0.1,0.4,0.3,0.5c0.2-0.2,0-0.5,0.1-0.7c0.1-0.1,0.2-0.3,0.4-0.2
		c0.2,0.1,0.2,0.2,0.1,0.4c-0.3,0.8-0.3,1.5-0.3,2.4c0,0.3-0.4,0.6-0.6,0.8c-0.2-0.1-0.2-0.2-0.1-0.4c0.3-0.1,0.3-0.4,0.2-0.7
		C15.9,15.1,15.6,15.1,15.3,15.1z"/>
	<path class="st46" d="M14.6,13.5c0,0.3-0.1,0.6-0.3,0.8c-0.3,0.4-0.1,0.5,0.2,0.6c-0.3,0-0.6,0-0.8,0s-0.3-0.1-0.2-0.3
		c0-0.2,0.1-0.4,0.2-0.4C14.4,14.4,14.3,13.8,14.6,13.5z"/>
	<path class="st47" d="M15.9,16.1c0,0.1,0.1,0.2,0.1,0.4c0,0.2,0.1,0.4,0.1,0.6c-0.1-0.1-0.3-0.2-0.3-0.2c-0.5,0.3-0.4-0.2-0.5-0.4
		C15.4,16.3,15.6,16,15.9,16.1z"/>
	<path class="st30" d="M15.3,15.7c-0.4,0-0.6-0.3-0.9-0.5C14.8,15.2,15.1,15.3,15.3,15.7z"/>
	<path class="st48" d="M14.5,18c0.2-0.1,0.3-0.3,0.4-0.5c0.1,0.3,0.1,0.7,0.3,1c0.2,0.4-0.2,0.3-0.4,0.4
		C14.5,18.6,14.3,18.4,14.5,18z"/>
	<path class="st14" d="M13.1,17.3c0,0.2,0.1,0.4,0.1,0.6c-0.2,0-0.4,0-0.7-0.1C12.8,17.6,12.9,17.5,13.1,17.3z"/>
	<path class="st26" d="M32.5,14.4c0.1,0,0.2,0.1,0.2,0.1c0.3,0.1,0.6,0.3,0.8-0.1c0-0.1,0.2-0.2,0.2-0.1c0.1,0.2,0.1,0.4,0.1,0.7
		c0,0.1-0.2,0-0.2,0.2c0.1,0.2,0.3,0.3,0,0.4c-0.2,0.1-0.3-0.3-0.5-0.3c-0.1,0.4-0.4,0.8-0.3,1.3c-0.5-0.4-0.3-0.8-0.2-1.1
		C32.8,15.1,32.8,14.8,32.5,14.4z"/>
	<path class="st25" d="M25.2,9.1c0-0.5,0-1-0.2-1.4c0.3-0.3-0.2-0.5-0.1-0.7c0.2-0.3,0.4-0.2,0.6-0.1C25.7,7.1,26,6.7,26.1,7
		c0,0.1,0,0.2,0,0.4c-0.4,0.3-0.3,0.7,0,1c0.2,0.3,0.3,0.6,0.8,0.4c0.1,0.4,0.3,0.7,0.7,0.7c0,0.4-0.4,0.5-0.7,0.7
		c0.3,0.1,0.9,0.1,0.6,0.7c0.5,0,1.1-0.2,1.5,0.4c-0.1,0.1-0.2,0.2-0.2,0.2c-0.3-0.3-1.1-0.4-1.3,0c-0.2,0.4,0.2,0.4,0.4,0.5l0,0
		c-0.3,0.4-0.8,0.1-1.1,0.5c-0.1,0-0.1-0.1-0.2-0.2c0-0.5-0.3-1-0.2-1.6c0-0.3,0-0.7-0.5-0.6c-0.2,0-0.2-0.2-0.3-0.4
		C25.5,9.5,25.3,9.4,25.2,9.1z"/>
	<path class="st27" d="M25.2,9.1c0.2-0.1,0.3-0.2,0.5-0.2c0.2-0.1,0.6-0.1,0.3,0.3c-0.2,0.3,0,0.5,0.2,0.6c0.3,0.2,0.4,0.5,0.5,0.8
		c-0.5,0.6-0.1,1.1,0.1,1.6c0,0.1,0,0.2,0,0.2c-0.3,0.2-0.6,0.1-1,0c-0.3-0.3-0.3-0.6-0.3-1c0-0.7-0.1-1.5-0.4-2.2
		C25.1,9.3,25.1,9.2,25.2,9.1z"/>
	<path class="st25" d="M28.1,13.8c-0.2-0.2-0.3-0.3-0.6-0.4c0.1-0.2,1-0.6,1.1-0.5c0.2,0.3,0.3,0.2,0.4,0s0.3-0.2,0.5-0.1
		c-0.1,0.1-0.2,0.2-0.4,0.4C29,13.7,28.6,13.8,28.1,13.8z"/>
	<path class="st25" d="M27.9,12c0-0.2-0.2-0.4,0.1-0.5c0.1,0,0.3,0,0.3,0.1C28.4,12,28.1,12,27.9,12L27.9,12z"/>
	<path class="st0" d="M26.8,13.1c0,0.1-0.1,0.2-0.2,0.2s-0.2-0.1-0.2-0.2c0-0.1,0.1-0.2,0.3-0.2C26.7,12.9,26.8,12.9,26.8,13.1z"/>
	<path class="st37" d="M30.3,15.9c-0.4-0.2-0.6,0.1-0.7,0.5c-0.1-0.5-0.2-0.8,0.1-1c0.2-0.1,0.6-0.1,0.8,0.1
		C30.7,15.6,30.4,15.7,30.3,15.9L30.3,15.9z"/>
	<path class="st37" d="M30.3,15.9c0.2,0,0.4,0,0.5,0.2s0.1,0.3,0,0.5c-0.1,0.1-0.2,0.3-0.4,0.2c-0.2-0.1-0.1-0.3-0.1-0.4
		C30.2,16.1,30.3,16,30.3,15.9L30.3,15.9z"/>
	<path class="st39" d="M28.9,16.6c-0.1,0-0.1,0-0.2-0.1c-0.2-0.2-0.4-0.4-0.5-0.7c0.2-0.1,0.3-0.2,0.5-0.2c0.1,0,0.4-0.1,0.4,0.1
		c0.1,0.2-0.1,0.2-0.3,0.3C28.5,16.3,28.9,16.4,28.9,16.6z"/>
	<path class="st27" d="M24.9,7c0.9,0.5,0.9,0.5,0.5,1c-0.2-0.1-0.1-0.5-0.4-0.3h-0.1c-0.1-0.3-0.2-0.5-0.5-0.7
		C24.5,6.6,24.7,6.9,24.9,7z"/>
	<path class="st27" d="M26.1,7c-0.2,0-0.4,0.1-0.6-0.1c0.2,0,0.2-0.3,0.3-0.4C26,6.6,26,6.8,26.1,7z"/>
	<path class="st12" d="M21.6,7.7c-0.3,0.1-0.7,0.1-0.9-0.2C21,7.1,21.2,7.1,21.6,7.7z"/>
	<path class="st24" d="M22.8,6.9c-0.3,0.1-0.5,0.3-0.6,0.6c-0.1,0.2-0.3,0.3-0.6,0.3C21.8,7.2,22.1,6.8,22.8,6.9z"/>
	<path class="st0" d="M16.4,12.2c0.1-0.2,0.3-0.3,0.4-0.5c0.6-0.6,0.5-1-0.4-1.3c0.1-0.2,0.3-0.2,0.5,0c0.2,0,0.3-0.2,0.4-0.4
		s0.3-0.2,0.5-0.1c0.2,0.1,0.1,0.3,0,0.4c-0.3,0.3-0.4,0.8-0.6,1.2C17,11.8,16.9,12.2,16.4,12.2z"/>
	<path class="st49" d="M17.3,10.5c-0.2,0-0.6-0.1-0.8-0.1l-0.2-0.1c0.1-0.4,0.4-0.6,0.6-0.9c0.4-0.1,0.8-0.4,1.3-0.3
		c0.1,0.1,0.2,0.1,0.1,0.2c-0.3,0.1-0.6,0.2-0.9,0.3C17.1,9.8,17.3,10.2,17.3,10.5z"/>
	<path class="st27" d="M18.3,9.4c0-0.1-0.1-0.2-0.1-0.2c0.6,0.2,0.8-0.3,1.1-0.6c0,0.4-0.3,0.7-0.6,0.9c-0.1,0-0.1,0-0.2,0
		C18.4,9.4,18.3,9.4,18.3,9.4z"/>
	<path class="st26" d="M26.8,12.3c-0.7-0.4-0.8-1.1-0.6-1.8c0.2,0.1,0.3,0.2,0.5,0.2C26.7,11.2,26.8,11.7,26.8,12.3z"/>
</g>
</svg>
