<?xml version="1.0" encoding="utf-8"?>

<svg version="1.1" id="" xmlns="http://www.w3.org/2000/svg" xmlns:xlink="http://www.w3.org/1999/xlink"
	 x="0px" y="0px" viewBox="0 0 143.5 90.4" enable-background="new 0 0 143.5 90.4" xml:space="preserve">
<g id="_x31_3318_x5F_a">
	<path fill="#030303" d="M99.8,61.8c0.4,1-0.1,2.9-0.8,3.7c-0.4,0.4-0.7,0.8-1.2,1.1c-0.6,0.4-1.2,0.8-1.9,0.8c-0.5,0-0.9,0-1.3,0.4
		c-0.4,0.4-2,0-2.3-0.5c-0.5-0.7-1-1.5-1.4-2.2c-0.7-1.1-0.3-2.8,0.6-3.7c0.2-0.2,0.5-0.5,0.7-0.7c0.2-0.1,0.4-0.1,0.5,0.1
		c0.1,0.2,0.1,0.4-0.1,0.5c-0.3,0.2-0.4,0.6-0.5,0.9c-1,0.9-1.2,1.1-0.4,2.9c0,0.1,0,0.3,0.2,0.3c0.5,0,0.5,0.4,0.6,0.7
		c0.3,0.8,0.9,1.1,1.6,0.8c0.1,0,0.2,0,0.3,0c0.2,0,0.3,0,0.5,0c0.3,0,0.5-0.1,0.8-0.1c0.5,0.1,0.9-0.2,1.3-0.5c0.7,0,1-0.6,1.4-1
		c0.4-0.3,0.8-0.5,0.8-1.1c0.2-0.5,0.2-1,0.2-1.5c0.1-0.4,0-0.7,0.3-1C99.6,61.7,99.7,61.7,99.8,61.8z"/>
	<path fill="#848484" d="M59.9,54.7c0-0.1,0.1-0.2,0.1-0.3c0.1-0.1,0.2-0.3,0.2-0.5c0-0.4,0.2-0.5,0.6-0.2c0.1,1.1-0.1,2.1-0.2,3.1
		c-0.1,0.1-0.3,0.1-0.4,0c-0.2-0.3,0.1-0.6-0.1-0.8c0,0.2-0.1,0.4,0,0.7c0.3,0.3,0.4,0.6,0.3,0.9c0,0.3,0,0.6,0,0.9
		c-0.1,0.3,0.1,0.6-0.3,0.8c-0.1,0-0.1,0-0.2,0c-0.2-0.1-0.1-0.4-0.1-0.5c0-0.2,0-0.3,0-0.5c0.3-0.4-0.2-0.7-0.2-1
		c0-0.5-0.1-1,0.1-1.5C59.9,55.5,59.9,55.1,59.9,54.7z"/>
	<path fill="#9C9C9C" d="M66.2,50.7c0.1-0.5,0-1.1,0.2-1.6c0.2-0.8,0.1-1.6,0-2.4c0-0.1-0.1-0.2-0.1-0.3c0-0.4,0-0.9,0.5-0.9
		c0.5,0,0.3,0.5,0.3,0.8c0,0.5,0,0.9,0.1,1.4c-0.2,0.6-0.3,1.2-0.2,1.8c0,0.2,0,0.4,0,0.6C66.9,50.8,66.8,50.9,66.2,50.7z"/>
	<path fill="#828282" d="M64.5,75.9c0-0.2,0-0.4,0-0.6c0.2-0.5,0.2-1,0.2-1.6c0-0.6-0.1-1.1-0.1-1.7c0,0,0.1-0.1,0.1-0.1
		c0.2-0.1,0-0.6,0.4-0.4c0.2,0.1,0.2,0.4,0,0.7c0,0,0,0.1,0,0.1c0.1,1.2,0.2,2.4-0.2,3.6c0,0.1,0,0.3,0,0.4c0.3,0.3,0,0.7,0.2,1
		c0,0.1-0.1,0.2-0.1,0.3c-0.3,0.2-0.2,0.4-0.1,0.6c0.1,0.7,0.3,1.4,0.2,2.1c-0.1,0.2,0,0.5-0.3,0.4c-0.2,0-0.2-0.3-0.2-0.5
		c0-0.3,0-0.7,0-1c-0.1-0.2-0.2-0.4-0.2-0.6C64.6,77.7,64.5,76.8,64.5,75.9z"/>
	<path fill="#0E0E0E" d="M99.8,61.8c0,0-0.1,0-0.1,0c-0.1,0-0.2,0-0.3,0c-0.4-0.1-0.5-0.3-0.6-0.8c0-0.7-0.3-1.3-1-1.6
		c-0.4,0.1-0.5-0.5-0.9-0.3c-0.2,0-0.4,0-0.6,0c-0.4,0-0.8,0.2-1.2,0.3c-0.3,0-0.5,0.1-0.6,0.3c-0.1,0.2-0.2,0.4-0.3,0.7
		c-0.1,0-0.1,0.1-0.2,0.1c-0.2-0.1-0.2-0.4-0.3-0.5c-0.3-0.4,0.3-0.6,0.3-0.9c1-0.5,2-0.5,3-0.5c0.8,0,1.4,0.6,2,1.2
		C99.8,60.4,99.5,61.2,99.8,61.8z"/>
	<path fill="#717171" d="M142.7,63.4c-1.5,0-2.9,0.1-4.4,0.3c-0.6,0.1-1.2-0.1-1.8-0.2c0-0.2,0.1-0.3,0.3-0.4c0.1,0,0.2,0,0.2,0
		c0.4,0.1,0.9,0.2,1.3,0.1c1.1-0.1,2.2-0.2,3.2-0.3c0.3,0,0.7-0.1,1,0.1C142.6,63.1,142.9,63.2,142.7,63.4z"/>
	<path fill="#949494" d="M64.9,69.3c0-0.1-0.1-0.2-0.1-0.3c0.1-1,0.2-2,0.3-3c0-0.3,0.2-0.4,0.4-0.6c0.4,0.4,0.2,0.9,0.1,1.3
		c0.1,0.1,0.2,0.2,0.1,0.4c-0.1,0.6-0.3,1.1-0.1,1.7c0,0.3,0,0.6-0.2,0.9c-0.2,0.2,0,0.5,0,0.8c-0.1,0.1,0,0.3-0.1,0.5
		c0,0.3-0.2,0.4-0.5,0.3c0-0.1,0.1-0.2,0.1-0.4c0-0.4,0-0.8,0.1-1.1C65,69.5,65.1,69.4,64.9,69.3z"/>
	<path fill="#9B9B9B" d="M60.9,53.7c-0.3-0.1-0.3,0.2-0.3,0.4c0,0.5-0.1,0.6-0.5,0.4c0-0.3,0-0.6,0-0.8c0.1-0.7,0.2-1.3,0.2-2
		c0-0.2,0-0.5,0.4-0.5c0.3,0,0.4,0.2,0.4,0.5C61,52.3,60.9,53,60.9,53.7z"/>
	<path fill="#393939" d="M65.1,80.2c0-0.7,0-1.4-0.3-2.1c-0.1-0.2-0.1-0.5,0.3-0.5c-0.1,0.9,0.4,1.7,0.2,2.6c-0.1,0.6,0,1.2,0,1.8
		c-0.2,0.4,0.1,1-0.5,1.3c-0.1,0.1-0.2,0.2-0.4,0.1c-0.2-0.1-0.2-0.3-0.1-0.4c0.2-0.3,0.1-0.7,0-1c-0.1-0.5,0-1,0.2-1.4
		c0.4,0.1,0.3,0.4,0.3,0.6c0,0.1,0.1,0,0,0C65,80.9,65.1,80.5,65.1,80.2z"/>
	<path fill="#2C2C2C" d="M119.8,81.2c0.1-1,0-2.1,0.2-3.1c0.3,0.1,0.1,0.5,0.2,0.7c0.1,0.4-0.2,0.7-0.1,1c0.1-1.1,0.2-2.2,0.2-3.3
		c0.1-0.1,0.1-0.3,0.2-0.4c0.1-0.1,0.2-0.1,0.3-0.1c0.1,0.1,0.2,0.2,0.1,0.3c-0.2,1.2-0.2,2.5-0.2,3.7c-0.1,0.9-0.1,1.7-0.3,2.6
		c-0.3,0.1-0.4,0-0.4-0.3C119.9,81.9,119.8,81.5,119.8,81.2z"/>
	<path fill="#606060" d="M120.9,61.5c0.2,0.6-0.3,1-0.5,1.4c-0.1,0.2-0.4,0.4-0.7,0.7c0.4-1.9-0.1-3.7,0.4-5.5c0.1,0,0.1,0,0.2,0
		c0.1,0.1,0.2,0.3,0.2,0.4c-0.1,0.9-0.3,1.8-0.1,2.7C120.6,61.6,120.8,61.4,120.9,61.5z"/>
	<path fill="#8F8F8F" d="M66.3,61c0,0.1,0,0.2,0,0.4c-0.2,0.3-0.2,0.7-0.7,0.6c0.1-1,0.1-1.9,0.2-2.9c0.2,0.3,0,0.6,0.1,0.9
		c0-0.8,0.1-1.7,0.1-2.5c0.1-0.2,0-0.3,0.1-0.5c0.1-0.3,0.2-0.3,0.4-0.1c0.1,0.5,0.1,1.1,0,1.6C66.3,59.2,66.6,60.2,66.3,61z"/>
	<path fill="#7F7F7F" d="M60.4,67.6c0,0.1,0,0.3,0,0.4c-0.3,0.5,0.1,1.1,0,1.6c-0.1,0.8,0.2,1.5,0.1,2.3c0,0.4-0.1,0.7-0.3,1
		c-0.1,0.1-0.3,0.1-0.4,0c0-0.1,0-0.1,0-0.2c-0.1-1.3,0-2.7-0.2-4c-0.1-0.3,0-0.5,0-0.8C59.8,67.5,60.1,67.6,60.4,67.6z"/>
	<path fill="#909090" d="M131.1,63.8c-0.4,0.2-0.8,0.3-1.2,0.2c-0.9-0.1-1.7-0.1-2.6-0.1c-0.1-0.2,0.1-0.2,0.1-0.4
		c0.5-0.2,0.9-0.2,1.4-0.2c0.7,0.1,1.5,0,2.2,0C131.2,63.6,131.2,63.7,131.1,63.8z"/>
	<path fill="#707070" d="M59.9,72.9c0.1,0,0.2-0.1,0.3-0.1c0.3,0.2,0.2,0.4,0.2,0.6c-0.2,0.9-0.2,1.7,0,2.6c0,0.1,0,0.2,0,0.2
		c0.1,0.2,0.1,0.3-0.1,0.4c-0.2,0.1-0.3,0-0.5-0.2c-0.3-0.1-0.2-0.4-0.2-0.6c0-0.4,0-0.7,0-1.1C59.7,74.1,59.8,73.5,59.9,72.9z"/>
	<path fill="#060606" d="M90.6,39.9c0,1.1,0.2,2.3-0.2,3.4c-0.1,0.2-0.1,0.4,0,0.6c-0.2,0.5-0.2,0.7-0.5,0.8c-0.2,0-0.4,0.4-0.6,0
		c0-0.1,0-0.2,0-0.3c0-0.1,0.1-0.1,0.2-0.2c0.6,0,0.4-0.5,0.5-0.8c0.3-1.1,0.2-2.1,0.3-3.2C90.2,40,90.3,39.9,90.6,39.9z"/>
	<path fill="#404040" d="M60.4,67.6c-0.2,0.3-0.8,0.4-0.6,1c0,0.2,0.2,0.3-0.1,0.4c-0.3-0.5,0-1,0-1.5c0-1-0.2-2,0-3
		c0-0.1,0.1-0.2,0.1-0.3c0.1,0,0.2,0,0.3,0.1c0.1,0.1,0.1,0.3,0.1,0.4c0,0.2,0.2,0.4,0.3,0.6c0,0.1,0,0.2,0,0.3c0,0.1,0,0.2-0.1,0.3
		c-0.4,0.3-0.2,0.7-0.1,1.1c0,0,0.1,0.1,0.1,0.1C60.4,67.2,60.4,67.4,60.4,67.6z"/>
	<path fill="#222222" d="M60.8,62c0.4-0.2,0.9-0.4,1.2,0c0.4,0.4,0.7,0.9,0.4,1.6c-0.2,0.3-0.2,0.7-0.5,0.9
		c-0.4,0.1-0.2-0.4-0.3-0.7c0.1-0.5-0.6-1.3-0.9-1.1c-0.1-0.3,0.1-0.4,0.3-0.4c0.6,0.1,0.9,0.4,0.9,1c0-0.6-0.3-1-0.9-1
		c-0.1,0-0.3,0-0.4-0.1C60.7,62.1,60.7,62.1,60.8,62z"/>
	<path fill="#7E7E7E" d="M121.6,53.5c0,0.4,0.1,0.7,0.3,0.9c-0.4,0.4-0.6,0.1-0.7-0.2c-0.1-0.3-0.2-0.6-0.3-0.8
		c0.1-1.1,0.2-2.1,0.4-3.1c0.1-0.1-0.1-0.5,0.3-0.5c0.4,0.1,0.2,0.4,0.3,0.7c-0.3,0.8-0.1,1.7-0.3,2.5
		C121.5,53.1,121.5,53.3,121.6,53.5z"/>
	<path fill="#404040" d="M136.8,63.1c0,0.2-0.1,0.3-0.3,0.4c-0.7-0.2-1,0-1.1,0.7c-0.1,0.4-0.1,0.8-0.3,1.1
		c-0.3,0.1-0.4-0.1-0.3-0.3c0.1-0.3,0.1-0.6,0.2-0.9c0.1-0.4-0.1-0.5-0.4-0.5c-0.2,0-0.4,0-0.4-0.3c0.5-0.5,1.1-0.1,1.6-0.2
		C136,63,136.5,62.9,136.8,63.1z"/>
	<path fill="#393939" d="M60.3,76c-0.1-0.8-0.2-1.6,0-2.4c0.1-0.2,0-0.5-0.1-0.8c0.3-0.7,0.2-1.4,0.1-2.1c0-0.4-0.1-0.8,0-1.2
		c0.4,0.1,0,0.4,0.2,0.6c0.2,1.5,0.1,3.1-0.2,4.6c-0.1,0.2-0.1,0.5,0.1,0.7C60.4,75.6,60.6,75.8,60.3,76z"/>
	<path fill="#767676" d="M134.5,63.4c0.6,0,0.7,0.3,0.6,0.8c-0.1,0.3-0.4,0.7,0,1.1c-0.6,0.4-1.4,0.4-2.1,0.3
		c-0.1-0.3,0.3-0.1,0.4-0.2c0.2-0.1,0.8,0,1-0.3c0.3-0.4,0.4-0.7,0.1-1.2C134.6,63.6,134.4,63.5,134.5,63.4z"/>
	<path fill="#939393" d="M120.3,58.1c0,0-0.1,0-0.1,0c0.2-0.8,0.3-1.5,0.5-2.3c0.4,0.2,0.2,0.6,0.5,0.9c-0.2,0.9,0,1.8-0.2,2.7
		c-0.2-0.1-0.2-0.3-0.2-0.5C120.7,58.6,120.4,58.4,120.3,58.1z"/>
	<path fill="#252525" d="M120.1,77c0-1.2-0.2-2.4-0.3-3.6c-0.1-0.5-0.1-1,0.1-1.5c0.1-0.1,0.2,0,0.3,0.1c0.1,1.1,0.1,2.1,0.2,3.2
		c0,0.1,0.1,0.2,0.1,0.3c0,0.3,0.1,0.7,0,1c-0.1,0.2,0,0.4-0.2,0.5C120.2,77,120.1,77,120.1,77z"/>
	<path fill="#606060" d="M66.3,61c-0.2-0.6,0-1.2,0-1.8c0-0.8,0.1-1.6,0.1-2.4c-0.2-0.4-0.3-0.7,0-1.1c0.1-0.1,0.2-0.1,0.3,0
		c-0.4,0.6,0.1,1.2,0,1.8C66.5,58.7,66.8,59.9,66.3,61z"/>
	<path fill="#555555" d="M133.5,65.4c-0.2,0.1-0.3,0.1-0.5,0.2c-0.4,0.2-0.7,0.1-1-0.2c-0.3-0.4-0.4-0.7,0-1.1
		c0.1-0.2-0.1-0.5,0.2-0.5c0.3,0,0.2,0.4,0.2,0.6c0,0.1,0,0.2,0,0.2c0-0.2,0.1-0.5,0.1-0.7c0-0.1,0-0.2,0-0.4
		c0.1-0.2,0.3-0.1,0.5-0.2c0,0,0.1,0,0.1,0c0.2,0.1,0.1,0.3,0.1,0.5C132.9,64.4,132.5,64.8,133.5,65.4z"/>
	<path fill="#868686" d="M132.6,63.6c0.1,0.1,0.3,0.2,0.2,0.3c-0.2,0.5-0.2,0.9,0,1.4c0,0.1,0,0.2-0.1,0.2c-0.2,0-0.3-0.1-0.5-0.2
		c-0.3-0.4,0-0.8-0.1-1.2c-0.2,0-0.1,0.2-0.2,0.2c0-0.2,0-0.3,0-0.5C132,63.4,132.1,63.4,132.6,63.6z"/>
	<path fill="#2C2C2C" d="M99.8,42.9C99.8,42.9,99.8,42.9,99.8,42.9c0-0.3,0.2-0.3,0.3-0.2c0.4,0.3,0.5,0,0.5-0.2
		c0-0.4,0.3-0.8,0.3-1.3c0.1-0.3-0.2-0.7,0.3-0.9c0.2,0.1,0.2,0.2,0.1,0.3c0.3,1-0.4,1.8-0.3,2.7c0,0.1-0.1,0.3-0.2,0.3
		c-0.6,0.4-0.9,0.2-1-0.5C99.8,43.2,99.8,43.1,99.8,42.9z"/>
	<path fill="#9A9A9A" d="M92.4,60.9c-0.1-0.1-0.2-0.2-0.4-0.3c0.4-0.5,0.9-1,1.5-1.3c0.5,0.4,0.1,0.8,0.1,1.2c0,0.3-0.3,0.4-0.5,0.4
		C92.8,61,92.6,61.2,92.4,60.9z"/>
	<path fill="#666666" d="M121.7,50.5c0-0.1,0-0.2,0-0.3c0-0.1,0-0.2-0.1-0.2c-0.2,0-0.1,0.2-0.2,0.2c0,0.1-0.1,0.1-0.1,0
		c-0.1-0.4,0-0.7-0.2-1.1c-0.2-0.2-0.2-0.4-0.1-0.6c0.4-0.3,0.6,0.1,0.9,0.2c0.1,0.2-0.1,0.4,0.1,0.6c0,0.5,0.1,1.1-0.1,1.6
		C121.7,50.8,121.7,50.7,121.7,50.5z"/>
	<path fill="#747474" d="M66.2,50.7c0.2-0.3,0.7-0.2,0.8-0.6c-0.1,0.8-0.1,1.6-0.4,2.3c0,0-0.1,0.1-0.1,0.1
		c-0.2-0.1-0.3-0.3-0.4-0.5C66.2,51.5,66.2,51.1,66.2,50.7z"/>
	<path fill="#3B3B3B" d="M121.2,50.2c0,0,0.1,0,0.1,0c-0.1,1-0.3,2.1-0.4,3.1c0.2,0.6,0.3,1.2,0.3,1.8c0,0.2-0.1,0.5-0.3,0.6
		c-0.2,0.1-0.3,0-0.3-0.2c0.1-0.8-0.1-1.5,0.1-2.3C120.9,52.3,121,51.2,121.2,50.2z"/>
	<path fill="#8F8F8F" d="M120.9,61.5c-0.3,0.2-0.4,0.5-0.6,0.8c-0.1-1.2-0.2-2.4,0-3.6c0.2-0.1,0.3,0,0.4,0.1c0.1,0.6,0.1,1.1,0,1.7
		c0,0.3,0,0.6,0.2,0.9C120.9,61.4,120.9,61.5,120.9,61.5z"/>
	<path fill="#222222" d="M119.8,70.7c-0.1-0.7,0.1-1.3,0.1-2c0-0.3,0.3-0.5,0.5-0.5c0.3,0,0.3,0.3,0.3,0.5c0,0.7,0.1,1.4-0.1,2.1
		c-0.1,0.1-0.2,0-0.2,0c-0.1-0.4,0-0.8-0.1-1.1c0,0.2,0,0.5,0,0.7C120.1,70.6,120,70.8,119.8,70.7z"/>
	<path fill="#989898" d="M121,55.1c-0.1-0.6-0.2-1.2,0-1.8c0.2,0.1,0.3,0.4,0.4,0.6c0.1,0.3,0.2,0.5,0.5,0.5c0.1,0,0.1-0.1,0.2-0.1
		c0.1,0,0.1,0,0.1,0.1c0,0.1,0,0.2,0,0.3c-0.2,0.2-0.4,0.3-0.6,0.5l0,0C121.4,55.3,121.2,55.4,121,55.1z"/>
	<path fill="#212121" d="M101.3,32.3c0,0.2,0,0.5,0,0.7c-0.2,0.3,0,0.6,0,1c-0.1,0.1,0,0.4-0.3,0.4c-0.3-0.3-0.4-0.7-0.3-1.1
		c0.1-0.7,0.1-1.4,0-2.1c0.1-0.3-0.2-0.4-0.1-0.7c0.1-0.2,0.2-0.3,0.2-0.5c0.1-0.2,0.1-0.3,0.4-0.2c0,0.5,0,1,0.1,1.6
		C101.3,31.7,101.3,31.8,101.3,32.3z"/>
	<path fill="#2E2E2E" d="M59.9,64.3c0-0.1-0.1-0.1-0.1-0.2c-0.2-1.5,0.1-3,0-4.5c0-0.3,0.1-0.5,0.2-0.7c0.1,0.1,0.1,0.3,0.1,0.5
		c0.2,0.9,0,1.7,0.1,2.6c0,0.6,0,1.2,0.1,1.8C60.3,64.1,60.2,64.2,59.9,64.3z"/>
	<path fill="#2C2C2C" d="M119.8,70.7c0.1-0.1,0.1-0.2,0.2-0.4c0.4,0.2,0,0.5,0.1,0.7c0-0.1-0.1-0.3,0.2-0.4c0,0.1,0.1,0.1,0.1,0.2
		c0,0.7,0,1.4,0,2c0,0.3-0.1,0.5,0.1,0.7c0.1,0,0.1,0.1,0,0.1l0,0c-0.5,0.2-0.5-0.3-0.5-0.6c0-0.4,0.1-0.7-0.1-1.1
		c-0.1-0.1-0.1-0.1-0.2-0.2C119.8,71.5,119.7,71.1,119.8,70.7z"/>
	<path fill="#2F2F2F" d="M67.4,53.2c0,0.1-0.1,0.1-0.1,0.2c-0.3-0.1-0.2-0.3-0.1-0.5c0.3-0.3,0.7-0.6,1.2-0.5
		c0.4,0.1,0.7,0.4,0.8,0.9c0,0.6-0.2,1-0.8,1.2c-0.1,0-0.1,0.1-0.1,0.1c-0.3,0-0.2-0.2-0.1-0.3c0,0,0.1,0,0.1,0
		c0.2-0.1,0.2-0.3,0.3-0.4c0.3-0.3,0.2-0.6,0-0.9c-0.2-0.2-0.4-0.3-0.7-0.1C67.7,53.1,67.5,53.1,67.4,53.2z"/>
	<path fill="#2D2D2D" d="M101.1,34.4c0.1-0.1,0.1-0.2,0.2-0.4c0.1,0.9,0.1,1.9-0.1,2.8c-0.1,0.6,0.2,1.1,0.1,1.6
		c-0.3,0.1-0.4-0.2-0.4-0.4c-0.3-1,0.1-2,0-3C100.9,34.9,100.8,34.6,101.1,34.4z"/>
	<path fill="#313131" d="M119.8,81.2c0.5,0.1,0.5,0.4,0.5,0.8c0,0.2-0.2,0.4,0.1,0.6c-0.1,0-0.1,0.1-0.2,0.1c-0.2,0-0.1,0.4-0.3,0.3
		c-0.2-0.1-0.2-0.4-0.2-0.6C119.5,82,119.5,81.5,119.8,81.2z"/>
	<path fill="#4B4B4B" d="M120.8,61.4c-0.5,0-0.4-0.4-0.4-0.7c0-0.6,0.3-1.2,0.1-1.8c0.1-0.2,0.2-0.3,0.3-0.1c0,0.2,0,0.4,0,0.6
		C120.9,60.1,120.9,60.7,120.8,61.4z"/>
	<path fill="#3F3F3F" d="M122,54.3c0.3-0.5,0.7-0.4,1.1,0c0.8,0.8,0.7,1.5-0.4,2.5c-0.3,0-0.2-0.2-0.1-0.3c0.1-0.1,0.1-0.2,0.2-0.4
		C123.2,55,123.2,55,122,54.3L122,54.3z"/>
	<path fill="#282828" d="M60.4,67.1c0,0-0.1,0-0.1,0c-0.4-0.3-0.2-0.7-0.1-1.1c0.1-0.2,0.4-0.3,0.3-0.6c-0.1-0.3,0-0.6-0.2-0.9
		c-0.1-0.1,0.1-0.4,0.3-0.4c0.2,0.4,0.3,0.5,0.4,0.8c0.1,0.2,0.2,0.3,0.4,0.4c0.1,0.1,0.3,0,0.1,0.2c-0.1,0.1-0.2,0.2-0.3,0.3
		C60.5,65.9,60.4,66.4,60.4,67.1z"/>
	<path fill="#585858" d="M59.7,68.9c0-0.1,0.1-0.2,0.1-0.4c0.2,0.2,0.1,0.4,0.1,0.6c0,1,0,2,0.1,2.9c0,0.2,0,0.4-0.1,0.6
		C59.6,71.4,59.7,70.2,59.7,68.9z"/>
	<path fill="#6E6E6E" d="M65.1,80.2c0,0.5,0,0.9,0,1.4c0,0.2,0,0.4-0.2,0.4c-0.3,0-0.2-0.2-0.2-0.4c-0.1-0.3,0.2-0.7,0-1
		c0.1-0.4-0.1-0.9,0.1-1.3c0.2,0.4,0,0.8,0.2,1.2C65,80.4,65.1,80.3,65.1,80.2z"/>
	<path fill="#474747" d="M60.8,62c0,0,0,0.1,0,0.1c-0.5,0.3-0.7,0.2-0.7-0.5c0.1-0.8,0-1.5,0.1-2.3c0.2-0.2,0.2-0.5,0.2-0.7
		c0.1-0.1,0.1-0.1,0.2,0c0,1-0.1,2-0.1,3C60.5,61.8,60.6,62,60.8,62z"/>
	<path fill="#676767" d="M65,76.4c-0.1-0.2-0.1-0.5,0-0.8c0.2-1.1,0.1-2.2,0.1-3.3c0.1-0.1,0.2,0,0.2,0.1c0.1,1.1,0.2,2.2-0.1,3.2
		C65.1,75.8,65,76,65,76.2C65.1,76.3,65.1,76.3,65,76.4z"/>
	<path fill="#7B7B7B" d="M120.6,73.7c0,0,0-0.1,0-0.1c0.1,0,0.2-0.1,0.2-0.1c0.1,0.1,0.2,0,0.3-0.1c0.5-0.4,0.9,0,1.2,0.3
		c0.3,0.3,0.5,0.7,0.2,1.1c-0.1,0-0.2-0.1-0.3-0.2C122,73.8,121.4,73.6,120.6,73.7z"/>
	<path fill="#4F4F4F" d="M121.8,48.8c-0.3,0.1-0.6,0-0.7-0.3c0-0.3,0.3-0.5,0.2-0.9c0,0,0.1-0.1,0.1-0.1c0.2-0.1,0.2-0.4,0.5-0.3
		c0.2,0.1,0.1,0.4,0.1,0.5c0,0.1,0,0.2,0,0.2C121.8,48.2,121.9,48.5,121.8,48.8z"/>
	<path fill="#919191" d="M122.1,54.3c1.2,0.1,1.5,0.7,0.8,1.8c-0.2,0-0.2-0.1-0.3-0.3c0,0,0-0.1,0-0.1c0.2-0.4-0.1-0.7-0.3-0.9
		c-0.1-0.1-0.3-0.1-0.3-0.3C122.1,54.4,122.1,54.4,122.1,54.3z"/>
	<path fill="#515151" d="M60.3,76c0.1-0.2,0.1-0.4,0.1-0.6c0.1,0.4,0.2,0.7,0.2,1.1c0,0.3,0,0.7-0.5,0.8c-0.2,0-0.4,0.2-0.5,0
		c-0.2-0.2,0-0.4,0.2-0.6c0.1-0.1,0.1-0.2,0.2-0.2C60.5,76.6,60.4,76.3,60.3,76z"/>
	<path fill="#1D1D1D" d="M93.5,60.4c0-0.4,0-0.7,0-1.1c0.2-0.1,0.4-0.2,0.6-0.2c0.1,0.1,0.3,0.1,0.4,0.2C94.4,59.6,94,59.6,94,60
		c0.1,0.2,0.2,0.5-0.1,0.7C93.7,60.8,93.5,60.6,93.5,60.4z"/>
	<path fill="#5E5E5E" d="M122.7,55.8c0.1,0.1,0.2,0.2,0.3,0.3c-0.1,0.2-0.3,0.3-0.2,0.6c-0.1,0.1-0.1,0.2-0.2,0.2
		c-0.2,0.1-0.3,0.3-0.5,0.2c-0.1,0-0.2-0.2-0.2-0.3c0-0.2,0.1-0.5,0.4-0.6C122.5,56.3,122.6,56,122.7,55.8z"/>
	<path fill="#747474" d="M66.2,55c0-0.1,0-0.2,0-0.2c0.1-0.7,0.1-1.5-0.1-2.2c0,0,0-0.1,0-0.1c0.1-0.1,0.3-0.2,0.4-0.1
		c0.2,0.1,0.1,0.4,0.3,0.6c-0.1,0.4-0.2,0.8,0,1.2c-0.1,0.3-0.1,0.7,0,1l0,0c0.1,0.2,0,0.3-0.2,0.4c-0.2,0-0.3-0.1-0.3-0.2
		C66.3,55.2,66.3,55.1,66.2,55z"/>
	<path fill="#0D0D0D" d="M122.5,74.8c0-0.3,0-0.5-0.1-0.8c-0.2-0.5-0.7-0.7-1.1-0.6c-0.1,0-0.3,0.2-0.4,0c0.3-0.3,0.7-0.6,1.2-0.3
		c0.7,0.5,0.9,0.9,0.6,1.7C122.6,74.9,122.6,74.8,122.5,74.8z"/>
	<path fill="#777777" d="M65.2,72.4c-0.1,0-0.2-0.1-0.2-0.1c0-0.2,0.1-0.4,0.1-0.7c-0.2,0.1-0.3,0.4-0.5,0.4c0-0.3,0.1-0.6,0.1-0.8
		c0.4-0.1,0.4-0.4,0.6-0.7C65.4,71.1,65.5,71.8,65.2,72.4z"/>
	<path fill="#666666" d="M122.1,54.5c0.3,0.1,0.5,0.3,0.7,0.5c0.2,0.3,0.1,0.5-0.1,0.7c-0.1-0.6-0.5-0.9-1.1-0.6
		C121.6,54.8,121.8,54.6,122.1,54.5z"/>
	<path fill="#313131" d="M121.7,50.5c0,0.1,0.1,0.3,0.1,0.4c-0.1,0.8-0.2,1.7-0.3,2.5c-0.2-0.1-0.2-0.3-0.2-0.5
		C121.6,52.2,121.4,51.3,121.7,50.5z"/>
	<path fill="#7B7B7B" d="M67.1,49.5c-0.5-0.6,0.1-1.3,0-1.9c0-0.2,0.2,0.1,0.3,0.1C67.3,48.3,67.3,48.9,67.1,49.5z"/>
	<path fill="#4F4F4F" d="M101.1,38.1c0.1,0.1,0.1,0.3,0.2,0.4c0.1,0.7,0.3,1.5,0,2.2c0-0.1-0.1-0.2-0.1-0.3
		C100.8,39.8,100.7,38.6,101.1,38.1z"/>
	<path fill="#484848" d="M66.1,57.4c0,1.1-0.1,2.2-0.1,3.2c0,0-0.1,0-0.1,0c0-0.5,0-1,0-1.6c0.2-0.7-0.1-1.5,0.1-2.3
		C66.3,57,66.1,57.2,66.1,57.4z"/>
	<path fill="#3A3A3A" d="M125,64.3c-0.2,0.2-0.5,0.2-0.8,0.1c-0.1,0-0.4,0-0.4-0.2c0-0.2,0.1-0.3,0.3-0.3c0.3-0.1,0.6-0.1,0.9,0
		C125.1,64,125.1,64.2,125,64.3z"/>
	<path fill="#646464" d="M68.2,54.4c0,0.1,0.1,0.2,0.1,0.3c-0.1,0.3-0.3,0.3-0.5,0.4c-0.1,0.1-0.3,0.2-0.4,0c-0.1-0.1,0-0.3,0-0.5
		c0-0.2,0.2-0.2,0.3-0.2C67.8,54.5,68,54.5,68.2,54.4z"/>
	<path fill="#323232" d="M60.6,58.6c-0.1,0-0.1,0-0.2,0c0-0.7,0.1-1.3-0.4-1.9c0.1-0.1,0.2-0.1,0.2,0c0.1,0,0.2,0.1,0.4,0.1
		C60.9,57.4,60.7,58,60.6,58.6z"/>
	<path fill="#0D0D0D" d="M122.2,75.3c0.2,0,0.4-0.1,0.5-0.2c-0.1,0.5-0.8,1.1-1.3,1.1c-0.3,0.1-0.4-0.1-0.3-0.4
		c0.1-0.1,0.3-0.1,0.3-0.3c0.1-0.1,0.1-0.1,0.2-0.2C121.8,75.2,121.9,75.1,122.2,75.3z"/>
	<path fill="#3D3D3D" d="M132.6,63.6c-0.2,0-0.5,0-0.6,0.3c-0.3,0-0.6,0-0.8,0c-0.1-0.1-0.1-0.2,0-0.4c0.6-0.1,1.2-0.2,1.8-0.1
		C132.8,63.4,132.7,63.5,132.6,63.6z"/>
	<path fill="#565656" d="M121.4,75.9c-0.1,0.1-0.2,0.2,0,0.2c-0.2,0.1-0.3,0-0.5,0.1c-0.4-0.1-0.2,0.3-0.3,0.4c-0.1,0-0.1,0-0.2,0
		c0-0.3-0.1-0.7-0.1-1c0.2-0.7,0.5,0,0.8,0C121.2,75.7,121.4,75.7,121.4,75.9z"/>
	<path fill="#747474" d="M66.1,57.4c0-0.2,0-0.4-0.1-0.6c0.1-0.5,0.2-1,0.3-1.6c0.2,0.1,0.3,0.3,0.2,0.5c0,0.4,0,0.7,0,1.1
		C66,56.9,66.3,57.3,66.1,57.4z"/>
	<path fill="#7E7E7E" d="M121,55.1c0.2,0,0.4,0,0.6,0c-0.1,0.3-0.1,0.6-0.3,0.9c-0.1,0.1-0.1,0.5-0.4,0.3c-0.2-0.1-0.3-0.4,0-0.6
		C120.9,55.5,121,55.3,121,55.1z"/>
	<path fill="#929292" d="M126.8,64.2c-0.4,0.1-0.8,0.1-1.2,0.2c-0.1-0.2,0-0.3,0.1-0.5c0.3-0.1,0.6-0.1,1-0.1
		C126.8,63.8,126.9,64,126.8,64.2z"/>
	<path fill="#121212" d="M66.1,73c1-0.1,1.5,0.6,1.2,1.4c-0.2,0.1-0.2,0-0.3-0.1c0-0.5-0.4-0.7-0.7-0.9C66.2,73.3,66,73.2,66.1,73z"
		/>
	<path fill="#858585" d="M66.5,46.7c0.1,0.1,0.2,0.1,0.2,0.2c-0.1,0.7,0.4,1.5-0.2,2.3C66.4,48.3,66.5,47.5,66.5,46.7z"/>
	<path fill="#A5A5A5" d="M64.9,69.3c0.1,0,0.3-0.1,0.3,0.1c-0.1,0.5,0.1,1-0.3,1.4C64.6,70.3,64.8,69.8,64.9,69.3z"/>
	<path fill="#646464" d="M142.7,63.4c-0.3-0.3-0.3-0.3-0.1-0.4c0.1,0,0.3,0,0.4,0.1c0.2,0.1,0.6-0.1,0.5,0.3
		C143.4,63.6,143.1,63.6,142.7,63.4C142.8,63.5,142.7,63.4,142.7,63.4z"/>
	<path fill="#2D2D2D" d="M64.5,75.9c0.2,0.9,0.2,1.8,0,2.8C64.5,77.7,64.4,76.8,64.5,75.9z"/>
	<path fill="#323232" d="M121.3,47.6c0.2,0.4,0.1,0.7-0.2,0.9c-0.1,0.2-0.1,0.4-0.1,0.6c-0.5-0.1-0.3-0.4-0.2-0.7
		C121,48.2,121.2,47.9,121.3,47.6z"/>
	<path fill="#3B3B3B" d="M66.1,73c0.1,0.1,0.2,0.2,0.4,0.3c-0.1,0.2,0,0.4,0.2,0.4c0.4,0.2,0.3,0.4,0.2,0.7c0,0.1-0.1,0.1-0.1,0.1
		c-0.1,0-0.1,0-0.2,0c0-0.2-0.2-0.4-0.4-0.5C65.6,73.7,65.6,73.4,66.1,73z"/>
	<path fill="#4C4C4C" d="M60.5,70.1c-0.1-0.2-0.1-0.4-0.2-0.6c0-0.5-0.4-1.1,0.1-1.6C60.5,68.7,60.6,69.4,60.5,70.1z"/>
	<path fill="#575757" d="M65.6,66.7c-0.1,0-0.3,0.1-0.5,0.1c0.2-0.3,0.5-0.4,0.5-0.7c0-0.3-0.1-0.5-0.1-0.8c0-0.1,0-0.2,0.1-0.3
		c0.1-0.1,0.1,0,0.1,0.1C65.8,65.7,66,66.3,65.6,66.7z"/>
	<path fill="#5D5D5D" d="M120.9,55.8c0,0.1-0.1,0.3,0,0.4c0.1,0.1,0.2-0.2,0.4-0.1c0.1,0.3,0,0.5-0.1,0.7c-0.3,0.1-0.4,0-0.4-0.2
		c0-0.2-0.1-0.4-0.1-0.6c0-0.1,0-0.2,0-0.2C120.7,55.7,120.8,55.7,120.9,55.8z"/>
	<path fill="#515151" d="M67.4,53.2c0.1-0.1,0.2-0.2,0.2-0.2c0.6-0.1,1,0.1,1,0.7c0,0.2-0.1,0.3,0,0.5c-0.1,0.1-0.2,0.2-0.4,0.2
		C68.3,53.6,68.2,53.4,67.4,53.2z"/>
	<path fill="#676767" d="M61.5,65.4c0-0.1-0.1-0.2-0.2-0.2c0.2-0.3,0.1-0.1,0.2-0.5c0.1-0.2,0.2-0.5,0.2-0.8c0.1,0.2,0,0.6,0.3,0.7
		C61.9,64.9,61.8,65.2,61.5,65.4z"/>
	<path fill="#4D4D4D" d="M66.1,52.6c0.3,0.7,0.4,1.4,0.1,2.2C66.1,54.1,66.1,53.3,66.1,52.6z"/>
	<path fill="#616161" d="M66.7,53.1c-0.1-0.2-0.1-0.4-0.1-0.6c0,0,0-0.1,0-0.1c0,0,0,0,0,0c0,0,0.1,0,0.1,0c0.1,0.2,0.1,0.6,0.5,0.6
		c0,0.2,0.1,0.3,0.1,0.5c-0.2,0.2-0.4,0.4-0.3,0.7c-0.2,0-0.3-0.2-0.3-0.3C66.5,53.6,66.8,53.4,66.7,53.1z"/>
	<path fill="#828282" d="M66.5,75.5c-0.2,0.2-0.3,0.5-0.6,0.3c-0.3-0.2-0.2-0.4-0.1-0.7C66.1,75.3,66.5,75.1,66.5,75.5z"/>
	<path fill="#525252" d="M64.8,73.7c0.1,0.5,0.2,1.1-0.2,1.6C64.5,74.7,64.5,74.2,64.8,73.7z"/>
	<path fill="#050505" d="M89.5,44.4c-0.1,0-0.2,0-0.3,0c0,0-0.1,0-0.1,0c0-0.3,0-0.6,0-1c0-0.1,0.1-0.2,0.2-0.2
		C89.9,43.9,89.9,44,89.5,44.4z"/>
	<path fill="#070707" d="M125.7,63.8c0,0.2-0.1,0.3-0.1,0.5c-0.2,0.1-0.4,0.1-0.6,0c0-0.2,0-0.3,0-0.5
		C125.2,63.8,125.5,63.8,125.7,63.8z"/>
	<path fill="#767676" d="M126.8,64.2c0-0.2-0.1-0.3-0.1-0.5c0.3,0,0.6,0,0.9-0.1c0.2,0.2-0.1,0.2-0.1,0.4
		C127.2,64,127,64.1,126.8,64.2z"/>
	<path fill="#3B3B3B" d="M67.1,74.2c0.1,0.1,0.1,0.2,0.2,0.3c-0.1,0.2-0.2,0.4-0.4,0.6c-0.2,0-0.2,0.3-0.4,0.2
		c-0.2-0.1-0.1-0.3,0-0.4c0.1-0.1,0-0.3,0.1-0.4l0,0C66.8,74.3,66.9,74.1,67.1,74.2z"/>
	<path fill="#606060" d="M66.7,74.4c0,0.1,0,0.3,0,0.4c-0.2,0.4,0.1,0.2,0.3,0.2c-0.1,0.2-0.2,0.4-0.5,0.5c-0.2-0.1-0.4-0.2-0.6-0.4
		c0.5,0,0.8-0.2,0.7-0.7C66.6,74.4,66.7,74.4,66.7,74.4z"/>
	<path fill="#8D8D8D" d="M66.6,52.4c0,0,0,0.1,0,0.1c-0.2,0-0.3,0-0.5,0c0-0.2,0-0.4,0-0.6C66.6,51.7,66.6,52.1,66.6,52.4z"/>
	<path fill="#414141" d="M66.5,55.7c-0.1-0.2-0.2-0.3-0.2-0.5c0-0.1,0-0.2,0-0.2c0.2-0.1,0.3,0.6,0.6,0.1c0.2,0.3,0.1,0.4-0.1,0.6
		C66.6,55.8,66.5,55.7,66.5,55.7z"/>
	<path fill="#5B5B5B" d="M65.6,62c0.2-0.2,0.4-0.3,0.5-0.6c0-0.2,0.1,0,0.2,0C66.3,62.1,66.2,62.2,65.6,62z"/>
	<path fill="#303030" d="M133.1,63.8c0-0.2-0.1-0.3-0.1-0.5c0.2-0.1,0.4,0,0.6,0c0.1,0.1,0.1-0.1,0.2,0.2
		C133.7,63.6,133.6,63.7,133.1,63.8z"/>
	<path fill="#676767" d="M65.6,68.8c-0.1,0-0.2,0.3-0.2,0c0.1-0.6,0-1.2,0.3-1.7C65.7,67.6,65.6,68.2,65.6,68.8z"/>
	<path fill="#272727" d="M121.8,48.8c-0.1-0.3-0.1-0.6,0.2-0.7c-0.2,0.4,0,0.9-0.1,1.3c-0.1,0.1-0.2,0.1-0.2-0.1
		C121.8,49.1,121.8,48.9,121.8,48.8z"/>
	<path fill="#3F3F3F" d="M59.8,57.6c0.1-0.1,0.1-0.2,0.2-0.4c0,0.5,0.3,0.8-0.1,1.2c0-0.2-0.1-0.4-0.1-0.6
		C59.7,57.7,59.7,57.6,59.8,57.6z"/>
	<path fill="#404040" d="M138.4,63.2c-0.5,0.2-0.9,0-1.3-0.1C137.5,63,137.9,63.1,138.4,63.2z"/>
	<path fill="#616161" d="M133.8,63.6c0-0.1-0.1-0.1-0.1-0.2c0.2,0,0.3-0.1,0.5-0.1c0.1,0.1,0.2,0.2,0.4,0.1c0,0.2,0.1,0.3,0.1,0.5
		C134.2,63.5,134.1,63.6,133.8,63.6z"/>
	<path fill="#424242" d="M59.7,74.8c0.2,0.4,0.2,0.7,0,1.1C59.5,75.5,59.5,75.2,59.7,74.8z"/>
	<path fill="#393939" d="M65,76.4c0-0.1,0-0.1,0-0.2c0.5,0.3,0.2,0.7,0.2,1.1C64.9,77.1,65.2,76.7,65,76.4z"/>
	<path fill="#050505" d="M120.1,77L120.1,77c0.4,0.6,0.3,1.2,0.1,1.8c0-0.2-0.1-0.5-0.1-0.7C120,77.7,120,77.3,120.1,77z"/>
	<path fill="#414141" d="M66.7,53.8c0.1,0.1,0.2,0.2,0.2,0.4c-0.1,0.3-0.1,0.6-0.1,1c-0.2-0.3-0.2-0.6-0.1-1
		C66.6,54,66.6,53.9,66.7,53.8z"/>
	<path fill="#0D0D0D" d="M65.3,82c-0.1-0.6-0.2-1.2,0-1.8C65.4,80.8,65.4,81.4,65.3,82z"/>
	<path fill="#888888" d="M101.1,38.1c-0.2,0.8,0.1,1.5,0.1,2.3c-0.1,0.3,0.1,0.6,0,1c-0.1,0.1-0.1,0.1-0.2,0.2c0,0.1,0,0.3-0.2,0.3
		c-0.2,0-0.2-0.2-0.2-0.3c-0.2-0.3-0.1-0.6,0-0.9c-0.1-0.9,0-1.8,0-2.6c0-0.1,0-0.3-0.1-0.4c0-0.1,0-0.2,0-0.3
		c0-0.4,0.1-0.7,0.1-1.1c0-0.7,0.1-1.5-0.4-2c-0.1-0.3-0.7-0.5-0.6-0.9c0.1-0.2,0.3-0.3,0.5-0.4c0.3-0.1,0.3-0.3,0.4-0.5
		c0.1-0.4,0-0.7,0-1.1c0-0.3,0.1-0.5,0.4-0.4c0,1.1-0.1,2.2,0.1,3.3c0,0.9,0,1.7-0.1,2.6C100.9,37.4,101,37.7,101.1,38.1z"/>
	<path fill="#9A9A9A" d="M95.9,19.9c0-0.2-0.1-0.3-0.1-0.5c0.2-2-0.1-3.9,0-5.9c0.3,0,0.5,0.3,0.7,0.1c0.1,0.8-0.1,1.5,0,2.3
		c0.1,1-0.2,1.9-0.1,2.9c0,0.2,0,0.5,0.2,0.6c0,0.4,0,0.7,0,1.1c-0.4,0.1-0.1,0.3-0.1,0.5c0,0.1,0,0.2,0,0.2c0,0,0,0-0.1,0
		c-0.1,0.1-0.2,0.2-0.3,0.1c-0.3-0.3-0.1-0.6-0.2-1C96,20.2,96.1,20,95.9,19.9z"/>
	<path fill="#878787" d="M95.8,32.4c0.2-0.6,0.1-1.3,0.4-1.9c0-0.8,0.2-1.6,0.1-2.5c0-0.5-0.1-1,0.1-1.4c0.1,0,0.1,0,0.2,0
		c0.2,0.3,0.1,0.7,0.1,1c0,0.5,0.1,1.1,0,1.6c0,0.2,0,0.4,0,0.6c-0.2,0.6-0.2,1.2-0.2,1.8c0,0.4-0.1,0.9-0.4,1.3
		C95.8,32.9,95.8,32.7,95.8,32.4z"/>
	<path fill="#7C7C7C" d="M100.5,28c0-0.6,0-1.1,0-1.7c0.1-0.1,0.1-0.1,0.2-0.1c0.3,0.1,0.2,0.3,0.2,0.5c0,0.2-0.3,0.6,0.2,0.7
		c0.2,0.1,0.1,0.3,0.2,0.4c0,0.1,0,0.2,0,0.4c0,0.6,0,0.6,0,0.8c0,0.2-0.1,0.4-0.1,0.6c-0.2,0.3,0,0.7-0.5,0.9
		c-0.1,0.2,0.2,0.6-0.3,0.6c-0.2-0.8,0.1-1.5,0-2.3C100.4,28.6,100.5,28.3,100.5,28z"/>
	<path fill="#191919" d="M90.6,39.9c-0.1,0.1-0.2,0.2-0.2,0.4c-0.2,0.3-0.1,0.6-0.1,0.8c-0.1,0.3-0.1,0.6-0.6,0.4
		c0-0.1-0.1-0.1-0.1-0.2c0.2-0.8,0-1.6,0.1-2.4c0.1-0.9,0.1-1.8,0-2.8c0-0.4,0-0.8,0.1-1.1c0-0.2,0.1-0.4,0.4-0.4
		c0.3,0.2,0.2,0.5,0.3,0.7c0,0.3-0.1,0.6,0,0.9c0,0.1,0,0.2,0,0.3c0.2,0.8-0.2,1.7,0.1,2.5c0.1,0.2,0,0.4,0,0.6
		C90.6,39.8,90.6,39.9,90.6,39.9z"/>
	<path fill="#6E6E6E" d="M96.5,26.6c0,0-0.1,0-0.1,0c0,0.1-0.1,0.1-0.2,0c0-0.9-0.3-1.8,0-2.7c0.2-0.9,0.1-1.7-0.3-2.5l0,0
		c-0.1-0.1-0.1-0.3,0.1-0.3c0.1,0,0.2,0,0.4,0c0.2,1,0.6,2,0.4,3c-0.1,0.1-0.1,0.2-0.2,0.4c-0.2,0.5-0.2,1,0,1.6
		C96.6,26.3,96.7,26.5,96.5,26.6z"/>
	<path fill="#808080" d="M100.7,41.6c0.3,0.4,0.3-0.2,0.5-0.2c-0.2,0.5-0.2,1-0.3,1.5c-0.1,0.3-0.1,0.7-0.4,0.7
		c-0.4,0-0.4-0.4-0.5-0.6c0,0-0.1-0.1-0.1-0.1C99.7,42.2,100.2,41.9,100.7,41.6z"/>
	<path fill="#101010" d="M90.6,39.7c0-0.2-0.1-0.3-0.1-0.5c-0.1-0.9-0.1-1.8,0-2.7c0.2-0.1,0.4-0.2,0.5-0.2c0.3-0.1,0.7-0.1,0.7-0.6
		c0-0.1,0.1-0.1,0.2-0.2c0.2-0.1,0.3-0.2,0.4-0.1c0.1,0,0.1,0.1,0.1,0.1c-0.2,0.4-0.3,0.8-0.7,1.1c-0.2,0.2-0.3,0.5-0.7,0.2
		c-0.2-0.2-0.2,0-0.3,0.2c-0.2,0.8,0.1,1.5-0.1,2.3C90.7,39.4,90.7,39.6,90.6,39.7z"/>
	<path fill="#1A1A1A" d="M98.2,21.5c-0.1-0.5-0.3-1-0.8-1.1c-0.2-0.1-0.3-0.2-0.1-0.4c0.2-0.3,0.4-0.5,0.8-0.4
		c0.5,0.1,0.7,0.6,0.8,0.9c0.1,0.4,0.2,0.8-0.1,1.2c-0.1,0.1-0.2,0.1-0.3,0c-0.2-0.2,0-0.5,0-0.7c0-0.3-0.2-0.5-0.2-0.6
		c0.1,0.1,0.3,0.3,0.2,0.6C98.4,21.2,98.5,21.5,98.2,21.5z"/>
	<path fill="#8F8F8F" d="M90.7,26c0.1-0.1,0.1-0.3,0.3-0.2c0.2,0.1,0.3,0.2,0.3,0.5c0,0.5,0,1,0,1.4c0,0.2-0.1,0.3-0.1,0.5
		c-0.1,0-0.2-0.1-0.3-0.1c-0.4,0-0.7,0-0.6-0.5c0-0.4,0-0.8,0-1.1C90.3,26.2,90.4,26.1,90.7,26z"/>
	<path fill="#2C2C2C" d="M100.2,33.2c-0.2,0-0.3,0.1-0.4,0.2c-0.1,0.4-0.4,0.6-0.7,0.9l0,0c-0.2,0.1-0.2,0.4-0.3,0.6
		c0.1,0.5,0.3,0.9,0.8,1.1c0.1,0,0.2,0.1,0.2,0.2c0,0.1,0,0.1,0,0.2c-0.5,0.2-0.8,0-1-0.4c0,0,0,0,0-0.1c-0.6-1.1-0.6-1.1,0.2-2
		c0.3-0.3,0.6-0.6,0.9-0.8C100.1,33,100.2,32.9,100.2,33.2z"/>
	<path fill="#272727" d="M98.5,21.7c0.1,0,0.1,0,0.2,0c0,0.7-0.6,1-1,1.4c-0.1,0.1-0.3,0-0.4-0.1c-0.4-0.3-0.6-0.8-0.5-1.3
		c0.2-0.1,0.5-0.5,0.5,0.1c0.1,0.5,0.1,0.5,0.5,0.3C98.1,22,98.2,21.7,98.5,21.7z"/>
	<path fill="#767676" d="M90.8,31.3c0.2,0.7,0.2,1.4,0.1,2.1c0,0-0.1,0.1-0.1,0.1c-0.2-0.1-0.5,0.2-0.7-0.1c-0.2-0.6-0.2-1.2,0-1.8
		c0.2-0.1,0.4-0.2,0.4-0.5c0-0.1,0.1-0.2,0.3-0.2C90.9,31,90.9,31.2,90.8,31.3z"/>
	<path fill="#7B7B7B" d="M96.2,12c-0.4-0.2-0.8-0.4-0.5-1c0.2-0.1,0.1-0.2,0.1-0.4c0.1-0.2,0.3-0.3,0.5-0.2c0.4,0.5,0.5,1,0.5,1.7
		c0,0.2,0,0.4-0.3,0.4c-0.3,0-0.3-0.2-0.3-0.4C96.2,12.2,96.2,12.1,96.2,12z"/>
	<path fill="#161616" d="M92.4,35.5c0,0-0.1,0-0.1,0c0,0-0.1-0.1-0.1-0.1c0.1-0.3,0.1-0.7,0.1-1c0-0.3-0.2-0.4-0.5-0.4
		c-0.2,0.1-0.4,0.1-0.5,0c-0.2-0.1-0.3-0.2-0.2-0.4c0.3-0.1,0.6-0.2,0.9-0.2c0.5-0.1,0.8,0.2,0.8,0.6C92.9,34.4,92.9,35,92.4,35.5z"
		/>
	<path fill="#7B7B7B" d="M96,21.5c0.5,0.3,0.4,0.9,0.6,1.3c0.1,0.3,0,0.7,0,1c0,0.3-0.1,0.4-0.4,0.2c-0.3-0.6,0.1-1.2-0.3-1.8
		C96,22,96,21.7,96,21.5z"/>
	<path fill="#676767" d="M98.7,34.7c0.1-0.2,0.3-0.4,0.5-0.5c0.2,0.5,0.5,1,1.1,1.2c0.3,0.5,0,0.7-0.3,0.9c0,0,0-0.1,0-0.1
		C99.3,35.8,98.9,35.3,98.7,34.7z"/>
	<path fill="#666666" d="M101.3,27.9c-0.1-0.1-0.2-0.2-0.2-0.4c-0.4-0.2-0.1-0.5-0.2-0.8c0-0.2,0.1-0.4-0.2-0.4c-0.1,0-0.1,0-0.2,0
		c-0.1-0.4,0.1-0.7,0.5-0.7c0.3,0,0.3,0.3,0.4,0.6c0.1,0.3,0.1,0.7,0.1,1C101.3,27.4,101.4,27.6,101.3,27.9z"/>
	<path fill="#7C7C7C" d="M96.6,19.4c-0.5-0.1-0.4-0.6-0.4-0.9c0.1-0.7,0.1-1.5,0.1-2.2c0-0.1,0.1-0.2,0.1-0.3
		c0.2,0.3,0.2,0.6,0.1,0.9C96.5,17.7,96.5,18.6,96.6,19.4z"/>
	<path fill="#4A4A4A" d="M96.2,12c0.1,0.1,0.1,0.4,0.3,0.4c0.2-0.1,0.2-0.3,0.2-0.5c0-0.5-0.4-0.9-0.3-1.4c0.8,0.2,0.5,0.9,0.6,1.4
		c0,0.3,0.1,0.8-0.5,0.9c-0.1,0-0.2,0-0.2,0c-0.1,0-0.1-0.1-0.2-0.1c0,0-0.1-0.1-0.1-0.1C96.1,12.4,96,12.2,96.2,12z"/>
	<path fill="#494949" d="M100.5,35.5c0-0.4,0.1-0.8-0.1-1.2c-0.1-0.1-0.1-0.1,0-0.2c0.1,0.1,0.3,0.1,0.3,0.3c0.1,1,0.4,2,0,3
		c-0.2-0.4,0.1-0.9,0-1.3C100.5,35.9,100.6,35.7,100.5,35.5z"/>
	<path fill="#494949" d="M100.2,33.2c-0.1,0-0.2-0.1-0.3-0.1c0.4-0.1,0.5-0.3,0.5-0.7c0-0.4,0-0.8,0-1.2c0-0.2,0-0.4,0.1-0.6
		c0-0.2,0.1-0.1,0.2,0c0.2,0.1,0.3,0.3,0.3,0.5c-0.4,0.2-0.3,0.5-0.3,0.8C100.7,32.4,100.7,32.9,100.2,33.2z"/>
	<path fill="#1E1E1E" d="M96.4,12.7c0,0,0.1,0.1,0.1,0.1c0,0.3,0,0.5,0,0.8c0,0.1,0,0.2,0,0.4c0,0.2,0,0.3-0.3,0.3
		c-0.2,0-0.3-0.1-0.4-0.3c0-0.2-0.1-0.3-0.1-0.5c0-0.3,0-0.7,0.2-1c0,0,0.1,0,0.1,0c0.2,0.2,0,0.3,0,0.5c0,0.1,0.1,0,0,0
		c0,0,0,0,0-0.1C96.2,12.9,96.2,12.7,96.4,12.7z"/>
	<path fill="#494949" d="M96.5,26.6c0-0.2,0.1-0.3,0.1-0.5c-0.1-0.1,0-0.1,0.1-0.1c0,0,0,0,0.1,0c0.2,1,0.1,2.1,0,3.1
		c-0.2-0.5-0.1-1-0.1-1.5C96.6,27.4,96.7,27,96.5,26.6z"/>
	<path fill="#2F2F2F" d="M96.1,32.8c0.2-0.4,0.3-0.8,0.4-1.2c0-0.1,0.1-0.1,0.1,0c0.1,0.6-0.2,1.1-0.3,1.7c-0.1,0.5-0.6,0.5-0.9,0.1
		c0-0.1,0.1-0.2,0.2-0.3c0.1-0.1,0.3-0.1,0.4-0.2C96,32.9,96.1,32.9,96.1,32.8z"/>
	<path fill="#353535" d="M100.6,37.7c0.2,0,0.2,0.1,0.2,0.2c-0.1,0.9-0.1,1.9-0.1,2.8C100.4,39.7,100.6,38.7,100.6,37.7z"/>
	<path fill="#777777" d="M90.8,31.3c0-0.1-0.1-0.2-0.1-0.3c-0.3-0.3-0.1-0.7-0.1-1c0-0.5,0.2-1,0.2-1.5c0-0.2,0-0.5,0.4-0.6
		c0,0.1,0.1,0.2,0.1,0.3C91.1,29.3,91,30.3,90.8,31.3z"/>
	<path fill="#656565" d="M96.4,28c0,0.8-0.1,1.7-0.2,2.5c-0.2-0.9,0.2-1.8,0-2.6C96.3,27.8,96.3,27.9,96.4,28z"/>
	<path fill="#676767" d="M96.1,32.8c0,0.1,0,0.2,0,0.3c-0.1,0.2-0.3,0.2-0.5,0.2c-0.1,0-0.1,0.1-0.2,0.1c-0.2-0.4-0.1-0.8,0.3-1
		C95.9,32.6,96,32.7,96.1,32.8z"/>
	<path fill="#676767" d="M91.1,33.5c0.1,0.1,0.2,0.2,0.2,0.2c0.2,0.1,0.1,0.2,0,0.3c-0.3,0.2-0.6,0.4-1,0.2
		c-0.2-0.5-0.1-0.6,0.5-0.8c0,0,0.1,0,0.1,0C91,33.5,91,33.5,91.1,33.5z"/>
	<path fill="#434343" d="M96.6,31.6c0,0-0.1,0-0.1,0c0-0.6-0.2-1.2,0.2-1.8C96.7,30.4,96.6,31,96.6,31.6z"/>
	<path fill="#7B7B7B" d="M96.4,28c-0.1,0-0.2-0.1-0.2-0.1c0-0.4-0.1-0.8,0.1-1.2c0.1,0,0.1,0,0.2,0C96.4,27.1,96.4,27.6,96.4,28z"/>
	<path fill="#7B7B7B" d="M96.6,20.9c0,0-0.1,0.1-0.1,0.1c-0.2-0.4-0.3-0.7-0.2-1.2c0.3,0.2,0.1,0.5,0.3,0.7
		C96.6,20.6,96.6,20.8,96.6,20.9z"/>
	<path fill="#393939" d="M96.6,24.5c0.1-0.1,0.2-0.2,0.3-0.3c0,0.6,0.1,1.2-0.1,1.8c0,0,0,0,0,0C96.4,25.6,96.5,25,96.6,24.5z"/>
	<path fill="#252525" d="M95.9,10.7c0.3,0.3,0.1,0.6,0.1,1c-0.3-0.3-0.2-0.5-0.3-0.7C95.8,11,95.8,10.8,95.9,10.7z"/>
	<path fill="#060606" d="M89,41.9c0.2-0.2,0.5-0.4,0.7-0.5c0,0.1,0,0.1,0,0.2c0.1,0.1,0.2,0.3,0.1,0.5c-0.3,0.4-0.3,0.8-0.4,1.2
		c0,0.1-0.1,0.1-0.1,0.1c0,0-0.1,0.1-0.1,0.1C88.9,42.9,89,42.4,89,41.9z"/>
	<path fill="#464646" d="M97,66.6c-0.4,0.4-0.9,0.6-1.5,0.5c-0.1-0.2-0.1-0.3,0-0.5c0.2-0.5,1-0.2,1.3-0.6c0.6-0.3,1.2-0.7,1.3-1.6
		c0-0.1-0.3-0.3-0.2-0.4c0.2-0.2,0.4-0.2,0.6-0.2c0.3,0,0.3-0.4,0.6-0.3c0.2,0.1,0.2,0.3,0.1,0.5c-0.1,0.2-0.1,0.3,0.1,0.4
		c0,0.6-0.5,0.7-0.8,1.1c-0.1,0-0.1-0.2-0.2-0.1C97.9,65.9,97.4,66.2,97,66.6z"/>
	<path fill="#6C6C6C" d="M94.7,67.2c-0.2,0-0.3,0-0.5-0.1C94.1,67,94,67,93.9,67c-0.7,0-1-0.1-1.2-0.8c0-0.1,0-0.1,0-0.2
		c-0.3-0.7-0.4-0.7,0.2-1.2c0.2-0.2,0.3-0.3,0.6-0.3c0.4,0,0.5,0.1,0.4,0.5c-0.1,0.3-0.1,0.5-0.1,0.8c0,0.4,0.3,0.6,0.6,0.6
		c0.2,0,0.4,0.1,0.5,0.2C95.2,66.9,95,67.1,94.7,67.2z"/>
	<path fill="#2E2E2E" d="M93,65c-0.1,0.1,0.2,0.5-0.2,0.3c-0.2,0-0.1,0.1-0.1,0.2c0.1,0.2,0.1,0.4,0.2,0.5c0.1,0.4-0.1,0.5-0.4,0.4
		c-0.2-0.1-0.3-0.2-0.5-0.4c0-0.2,0-0.4-0.3-0.4c-0.4,0-0.4-0.3-0.5-0.6c0,0,0-0.1,0-0.1c0.2-0.2,0-0.4,0.1-0.6c0-0.1,0-0.1,0.1-0.2
		c0.1-0.2,0.4-0.1,0.5-0.2c0.1,0,0.2-0.1,0.3-0.1c0.1,0,0.1,0.1,0.1,0.2c0,0,0,0.1,0,0.1c0,0,0-0.1,0.1-0.1c0.2,0.9,0.2,0.5,0.4,0.5
		C93,64.9,93.1,64.9,93,65z"/>
	<path fill="#4D4D4D" d="M92,66.1c0.1-0.2,0.3-0.3,0.5,0c0.1,0.1,0.2,0.3,0.4,0c0.2,0.4,0.5,0.6,0.9,0.7c0.2,0,0.3,0.1,0.4,0.3
		c-0.2,0.1-0.2,0.1,0.1,0.4C93.1,67.6,92.1,67,92,66.1z"/>
	<path fill="#3D3D3D" d="M91.6,64.4c0,0,0,0.1,0,0.1c-0.2,0.1,0,0.4-0.2,0.6c0,0,0,0,0,0c-0.5-0.7-0.6-1.5-0.5-2.3
		c0-0.1,0-0.3,0.1-0.3c0.2-0.1,0.6,0.1,0.4-0.4C91.3,62,91.6,62,91.8,62c0.2,0.1,0.1,0.4,0.2,0.6c-0.1,0.2,0,0.4-0.1,0.5
		c-0.3,0.2-0.4,0.4-0.3,0.7C91.6,64,91.7,64.2,91.6,64.4z"/>
	<path fill="#4E4E4E" d="M91.8,62.5c-0.1-0.2-0.1-0.3,0-0.5c-0.1-0.5,0.4-0.7,0.6-1.1c0.2-0.1,0.4-0.1,0.6-0.2c0,0,0.1,0.1,0.1,0.1
		c0.6,0,0.9,0.3,1,0.9c0,0.4,0,0.4-0.4,0.2c-0.3-1-0.6-0.6-1-0.4c-0.2,0.2-0.3,0.6-0.1,0.7c0.1,0.2,0.2,0.4,0,0.5
		c-0.1,0.1-0.2,0-0.4,0C92,62.9,91.9,62.7,91.8,62.5z"/>
	<path fill="#696969" d="M99.3,64.4c-0.6-0.1-0.1-0.6-0.2-0.8c-0.2-0.5-0.4-0.9-0.1-1.4c0.6-0.1,0.7,0,0.7,0.7
		C99.5,63.4,99.5,63.9,99.3,64.4z"/>
	<path fill="#6F6F6F" d="M97,66.6c0-0.2,0-0.3,0.2-0.4c0.6-0.4,1-1,1.4-1.5c-0.1,0.3-0.1,0.6-0.2,0.9C97.9,65.9,97.6,66.4,97,66.6z"
		/>
	<path fill="#7D7D7D" d="M94.7,67.2c0.1-0.2,0.2-0.4,0.2-0.6c0.3-0.4,0.4-0.4,0.7,0c0,0.2-0.1,0.3-0.1,0.5
		C95.2,67.1,95,67.2,94.7,67.2z"/>
	<path fill="#464646" d="M99.5,62.9c0-0.4-0.1-0.6-0.5-0.6c-0.1-0.1-0.2-0.1-0.2-0.3c0.2-0.1,0.3-0.6,0.6-0.3c0.1,0,0.1,0.1,0.2,0.1
		C99.6,62.1,99.7,62.5,99.5,62.9z"/>
	<path fill="#888888" d="M60.2,59.4c0.1,0.1,0.2,0.2,0.2,0.3c-0.2,0.6,0,1.3-0.2,1.9c-0.2,0.1,0.1,0.4-0.2,0.3
		C60,61,59.8,60.2,60.2,59.4C60.1,59.4,60.1,59.4,60.2,59.4z"/>
	<path fill="#A5A5A5" d="M60.3,56.7c-0.1,0-0.1,0-0.2,0c0-0.4-0.1-0.8,0.2-1.1C60.3,56,60.5,56.4,60.3,56.7z"/>
	<path fill="#7F7F7F" d="M99.5,61.7c-0.2,0.1-0.3,0.3-0.6,0.3c-0.4-0.2-0.3-0.6-0.5-0.9c-0.1-0.2-0.1-0.5-0.3-0.7
		c-0.2-0.4-0.7-0.4-0.9-0.8c0-0.6,0.4-0.4,0.7-0.4c0.6,0.4,1.2,0.8,1.2,1.5C99.2,61.1,99.3,61.4,99.5,61.7z"/>
	<path fill="#282828" d="M97.9,59.2c-0.2,0-0.6-0.1-0.5,0.4c0.1,0.3-0.1,0.3-0.3,0.3c-0.2,0-0.3-0.1-0.4,0c-0.1-0.1-0.3-0.8-0.6-0.1
		c-0.1,0-0.2,0.2-0.3,0.2c-0.1,0-0.2,0.1-0.3,0.1c-0.1,0-0.1-0.2-0.2-0.3c-0.1-0.1-0.1-0.1-0.1-0.2c0-0.3-0.1-0.6,0.4-0.3
		c0.2,0.1,0.4-0.3,0.7-0.2c0.2,0.2,0.4,0.3,0.6-0.1C97.3,58.9,97.6,59.1,97.9,59.2z"/>
	<path fill="#404040" d="M93,60.9c0,0,0-0.1,0-0.1c0.2,0,0.4-0.2,0.5-0.4c0.5,0.2,0.4-0.2,0.5-0.5c0.2,0.1,0.2,0.3,0.2,0.5
		c0.2,0.2,0.1,0.4,0,0.6C93.8,61.2,93.4,61.1,93,60.9z"/>
	<path fill="#242424" d="M94.1,61c0-0.2,0.1-0.4,0.1-0.6c0,0,0.1,0,0.1,0c0.2,0.4,0.6,0.4,0.9,0.4c0.3,0,0.3,0.1,0.2,0.3
		c-0.2,0.3-0.5,0.1-0.7,0.2c-0.3,0-0.4,0.3-0.7,0.3C93.9,61.5,93.9,61.3,94.1,61z"/>
	<path fill="#6B6B6B" d="M96.8,58.9c0.1,0.1,0.3,0.3,0,0.4c-0.2,0.1-0.6,0.2-0.6-0.3C96.5,59,96.7,58.9,96.8,58.9z"/>
	<path fill="#696969" d="M120.1,78.8c0-0.6,0.1-1.2,0-1.8c0.1-0.1,0.2-0.3,0.3-0.4c0.1,0,0.1,0,0.2,0c0.1,0.8-0.1,1.6-0.2,2.4
		c0,0.4,0,0.9-0.1,1.3c0,0.1,0.1,0.3-0.1,0.3c-0.2,0-0.2-0.2-0.2-0.4C120,79.8,120.1,79.3,120.1,78.8z"/>
	<path fill="#717171" d="M120.9,58.8c-0.1,0-0.2,0.1-0.3,0.1c-0.1-0.1-0.2-0.2-0.2-0.2c0-0.2,0-0.3,0-0.5c0.3,0.2,0.3-0.2,0.5-0.3
		C121,58.2,120.8,58.5,120.9,58.8z"/>
	<path fill="#545454" d="M89.3,43.2c-0.2-0.7,0.3-1.1,0.5-1.7c0.3-0.1,0.3-0.3,0.4-0.6c0-0.2-0.1-0.5,0.3-0.6
		c-0.1,1.1,0.1,2.2-0.3,3.3c-0.2,0.3-0.4,0.3-0.5,0c-0.1-0.2-0.1-0.4,0-0.6C89.5,43,89.6,43.2,89.3,43.2z"/>
	<path fill="#2D2D2D" d="M89.3,43.2c0.3-0.3,0.2-0.9,0.7-1.1c0.1,0.3-0.1,0.5-0.2,0.7c-0.2,0.3-0.1,0.7,0.3,0.8c0,0.4,0,0.9-0.6,0.9
		c0.1-0.4,0-0.7-0.2-1.1C89.3,43.3,89.3,43.2,89.3,43.2z"/>
	<path fill="#757575" d="M60,61.9c0.1-0.1,0.1-0.2,0.2-0.3c0,0.4,0.2,0.6,0.6,0.6c0.3,0,0.7-0.1,1,0.2c0.5,0.4,0.6,0.9,0.1,1.7
		c0-0.6-0.1-1.2-0.7-1.5c-0.3-0.2-0.5,0-0.7,0.2c-0.3,0.3-0.2,0.5-0.1,0.8c0,0.2,0.1,0.4,0.2,0.6c-0.1,0.4,0.1,0.8,0.1,1.1
		c0.1,0.1,0.2,0.1,0.1,0.3c-0.1,0.1-0.3,0.3-0.4,0c0-0.1,0-0.2,0-0.2c-0.2-0.1-0.1-0.5-0.3-0.5c0-0.2,0-0.3,0-0.5
		C60.1,63.5,59.8,62.7,60,61.9z"/>
	<path fill="#7E7E7E" d="M60.3,65.9c0,0.4-0.3,0.8,0,1.2c-0.1,0.1-0.2,0.4-0.3,0.1C59.9,66.7,59.7,66.2,60.3,65.9
		C60.2,65.8,60.3,65.8,60.3,65.9z"/>
	<path fill="#646464" d="M59.9,64.8c0.1-0.1,0.1-0.3,0.3-0.2c0.1,0.1,0.1,0.2,0.1,0.3c0,0.1,0,0.3,0,0.4C59.7,65.5,60,65,59.9,64.8z
		"/>
	<path fill="#646464" d="M60.3,65.9C60.2,65.8,60.2,65.8,60.3,65.9c-0.1-0.2,0-0.3,0-0.4c0.2,0.1,0.4,0.1,0.3-0.2
		c0.1,0,0.3,0,0.3,0.1c0.1,0.1-0.1,0.2-0.2,0.3C60.6,65.7,60.5,65.8,60.3,65.9z"/>
	<path fill="#4B4B4B" d="M61,62.7c-0.4,0.1-0.4,0.5-0.6,0.8c-0.1-0.3-0.3-0.7-0.1-1c0.2-0.3,0.6-0.2,0.9,0
		C61.1,62.5,61,62.5,61,62.7z"/>
	<path fill="#323232" d="M122.7,74.9c0-0.1-0.1-0.2-0.1-0.3c-0.1-0.1-0.1-0.2-0.2-0.3c-0.5-0.9-0.6-1-1.6-0.7c-0.1,0-0.1,0-0.2,0.1
		c-0.5,0.4-0.5,1.2,0.2,1.7c0.3,0,0.5,0.3,0.8,0.2c0.1,0,0.2-0.1,0.2-0.2c0,0,0,0,0,0c0,0-0.1,0-0.1,0c-0.1-0.2-0.4-0.3-0.6-0.3
		c-0.3,0-0.3-0.3-0.3-0.5c-0.1-0.3,0.2-0.5,0.4-0.6c0.2-0.1,0.4-0.1,0.5,0.1c0.3,0.4,0.7,0.7,0.6,1.2c0,0,0,0.1-0.1,0.1
		c0,0,0.1,0.1,0.1,0.1C122.5,75.4,122.6,75.2,122.7,74.9C122.7,75,122.7,75,122.7,74.9z"/>
	<path fill="#797979" d="M120.7,75.9c-0.1-0.2-0.1-0.6-0.5-0.3c-0.1-1.2-0.4-2.3-0.2-3.5c0.4,0.1,0.2,0.5,0.2,0.7
		c0,0.4-0.1,0.8,0.4,1c-0.3,0.5-0.3,1.1,0.1,1.6C121,75.5,121,75.7,120.7,75.9z"/>
	<path fill="#7A7A7A" d="M120.7,75.9c0-0.2,0-0.4,0-0.6c0.3,0,0.5,0.1,0.7,0.3c0.3,0.2,0.2,0.3-0.1,0.4
		C121.2,75.9,121,75.9,120.7,75.9z"/>
	<path fill="#797979" d="M120.4,70.7c0,0.3-0.1,0.7-0.1,1c-0.3-0.4-0.2-0.9-0.2-1.4c0-0.4,0-0.8,0-1.1c0-0.2-0.1-0.4,0.2-0.4
		c0.2,0,0.1,0.3,0.1,0.4C120.4,69.7,120.4,70.2,120.4,70.7z"/>
	<path fill="#7A7A7A" d="M68.6,54.2c-0.2-0.5-0.3-1.1-1-1.2c0.2-0.4,0.5-0.3,0.8-0.1c0.4,0.2,0.5,0.5,0.4,0.9
		C68.8,53.9,68.7,54,68.6,54.2z"/>
	<path fill="#8C8C8C" d="M66.7,53.8c0,0.1,0,0.2,0,0.3c-0.4-0.4-0.2-0.7,0-1.1C67.4,53.3,66.6,53.6,66.7,53.8z"/>
	<path fill="#797979" d="M67.1,74.2c-0.1,0.1-0.2,0.2-0.4,0.2c0-0.3-0.1-0.5-0.4-0.7c-0.3-0.2-0.3-0.4,0.1-0.5
		C66.8,73.5,67.3,73.6,67.1,74.2z"/>
	<path fill="#7B7B7B" d="M96.1,21.2c0,0.1-0.1,0.2-0.1,0.3c-0.3-0.5-0.1-1.1-0.1-1.6c0.3,0,0.2,0.3,0.2,0.4
		C96.1,20.6,96.1,20.9,96.1,21.2z"/>
	<path fill="#676767" d="M100.4,34.1c0,0.1,0,0.1,0,0.2c-0.4-0.4-0.8,0-1.2,0c0-0.5,0.4-0.6,0.7-0.9
		C99.9,33.8,100.2,33.9,100.4,34.1z"/>
	<path fill="#999999" d="M100.7,26.3c0-0.1,0-0.3,0.2-0.3c0.2,0,0.1,0.2,0.1,0.3c0,0.4,0,0.8,0.1,1.2c0,0.2,0,0.4-0.3,0.6
		C100.6,27.5,100.8,26.9,100.7,26.3z"/>
	<path fill="#9B9B9B" d="M100.7,29.5c0-0.4-0.1-0.7,0.1-1C101,28.9,101,28.9,100.7,29.5z"/>
	<path fill="#787878" d="M90.6,36.6c-0.2,0.9,0.1,1.8-0.1,2.6c-0.4-0.2-0.2-0.5-0.2-0.8c0-0.6,0-1.2,0-1.8c0-0.1,0.1-0.2,0.2-0.2
		C90.6,36.4,90.6,36.5,90.6,36.6z"/>
	<path fill="#161616" d="M90.1,34.7c0.2-0.4-0.1-0.9,0.1-1.3c0.2,0.1,0.4-0.9,0.6,0c0.1,0.2,0,0.3-0.2,0.3c-0.2,0-0.3,0.1-0.3,0.3
		c0,0.1,0.2,0.2,0.2,0.3c-0.2,0.4,0,0.8-0.4,1.1C90.2,35.2,90.1,35,90.1,34.7z"/>
	<path fill="#585858" d="M90.6,36.6c-0.1-0.1-0.2-0.1-0.3,0c0-0.1,0-0.2,0-0.2c0-0.1,0.1-0.2,0.1-0.3c0.1-0.2,0.3-0.2,0.4-0.4
		c0.4,0,0.4,0,0.7-0.1c0.2,0,0.5-0.1,0.5,0c0,0.1,0,0.2,0,0.2c-0.3,0.2-0.5,0.5-0.8,0.7C90.9,36.5,90.7,36.5,90.6,36.6z"/>
	<path fill="#727272" d="M90.5,36.2c-0.1,0-0.2,0.1-0.3,0.1c-0.1-0.3-0.1-0.6,0-0.9c0-0.4,0-0.8,0.3-1.2c0.3,0,0.3,0.3,0.3,0.5
		C90.6,35.2,90.7,35.7,90.5,36.2z"/>
	<path fill="#7B7B7B" d="M96.6,24.5c0.2,0.5,0.1,1,0.1,1.6c0,0-0.1,0.1-0.1,0.1C96.3,25.7,96.3,24.8,96.6,24.5z"/>
	<path fill="#767676" d="M98.5,21.7c-0.2,0.3-0.4,0.5-0.6,0.8c-0.2,0.3-0.4,0.3-0.6,0.1c-0.2-0.2-0.5-0.5,0-0.8
		c0.4,0.2,0.7,0.1,0.8-0.4c0.2-0.1,0.2-0.3,0.3-0.5c0.1-0.1,0.1-0.1,0.2,0C98.5,21.2,98.6,21.5,98.5,21.7z"/>
	<path fill="#777777" d="M91.1,36.4c-0.1-0.6,0.4-0.7,0.8-0.7C91.8,36.1,91.7,36.6,91.1,36.4z"/>
	<path fill="#3B3B3B" d="M92.3,35.3c0,0,0,0.1,0,0.1c-0.1,0-0.2,0-0.3,0c0,0,0,0-0.1,0c0.2-0.4,0.1-0.7,0-1.1c0-0.1-0.1-0.2,0-0.3
		c0.4,0,0.3,0.3,0.4,0.5C92.3,34.9,92.3,35.1,92.3,35.3z"/>
	<path fill="#7B7B7B" d="M98.6,21c-0.1,0-0.1,0-0.2,0c-0.2-0.3-0.4-0.6-0.7-0.7c-0.1-0.1-0.2-0.1-0.1-0.3c0.1-0.1,0.2-0.2,0.4-0.1
		C98.4,20.1,98.7,20.5,98.6,21z"/>
	<path fill="#9F9F9F" d="M90.2,31.7c-0.1-1.4,0.2-2.7,0.3-4c0,0,0,0,0,0.1c0,0,0,0.1,0.1,0.1c0.1-0.1,0-0.3,0.2-0.4
		c0.2,0.1,0.2,0.4,0.2,0.5c-0.1,1-0.2,2-0.4,3C90.6,31.3,90.9,31.8,90.2,31.7z"/>
	<path fill="#909090" d="M98.7,34.7c0.2,0,0.4,0.2,0.5,0.3c0.2,0.3,0.3,0.6,0.7,0.7c0.2,0.1,0.1,0.3,0.1,0.4
		C99.2,36.1,98.5,35.4,98.7,34.7z"/>
	<path fill="#3E3E3E" d="M91.9,34.2c0,0.1,0,0.2,0,0.2c-0.5-0.5-0.8,0.2-0.8,0.1c-0.2,0-0.3,0.4-0.5,0.2c0-0.2-0.1-0.3-0.1-0.5
		c0-0.1-0.1-0.2-0.1-0.3c0.4,0.1,0.7,0,0.9-0.2c0.2-0.1,0.3-0.1,0.5-0.1C92,33.8,92,34,91.9,34.2z"/>
	<path fill="#656565" d="M91.9,34.2c-0.1-0.1-0.1-0.3-0.1-0.5c0.7,0.1,0.9,0.9,0.5,1.7C92.1,35,92.3,34.5,91.9,34.2z"/>
	<path fill="#6A6A6A" d="M96.4,12.7c-0.1,0.4,0.1,0.8-0.3,1.2c-0.2-0.5-0.1-0.9,0-1.4C96.2,12.6,96.3,12.6,96.4,12.7z"/>
	<path fill="#888888" d="M95.6,33.3c-0.2-0.7,0.3-0.3,0.5-0.2C96.1,33.5,95.9,33.4,95.6,33.3z"/>
	<path fill="#969696" d="M98.1,64.4c-0.2,0-0.4,0-0.6,0.1c-0.3,0.2-0.5,0.4-0.8,0.2c-0.2-0.1-0.4,0.2-0.5,0.4
		c-0.2,0.3-0.3,0.4-0.6,0.1c-0.2-0.2-0.5-0.1-0.7-0.1c-0.1-0.2,0-0.3,0-0.6c0.6-0.2,0.8-0.3,1.4-0.3c0.3,0.2,1-0.1,0.6-0.5
		c0.1-0.1,0.2-0.2,0.4-0.1c0,0.6,0.5,0.4,0.8,0.4C98,64.2,98,64.3,98.1,64.4z"/>
	<path fill="#121212" d="M94.1,65.2c-0.3,0.9,0,1.2,0.8,1.1c0.6-0.1,1.2-0.2,1.8-0.2c-0.3,0.4-0.8,0.2-1.1,0.6c-0.2,0-0.5-0.2-0.7,0
		c-0.2,0-0.3-0.1-0.5-0.1c-0.8-0.1-0.8-0.1-0.8-0.6c0-0.2,0-0.5,0.1-0.7c0-0.2,0.2-0.4-0.1-0.4c-0.2-0.1-0.4,0-0.4,0.2
		c0,0-0.1,0.1-0.2,0.1c0-0.1,0-0.2,0-0.3c0.1-0.3,0.1-0.3,0.4-0.4c0.3-0.1,0.7,0.2,0.6-0.7c0.1-0.1,0.1-0.4,0.3-0.4
		c0.3,0.1-0.4,1,0.3,1.3C95.5,64.7,94.5,65,94.1,65.2z"/>
	<path fill="#1C1C1C" d="M98.5,64c0.3-1,0.2-1.9-0.1-2.9c0-0.1,0-0.2,0.1-0.1c0.3,0.3,0.3,0.6,0.4,1c0,0.1,0.1,0.2,0.1,0.2
		c-0.1,0.4,0.1,0.9,0,1.3C98.8,63.7,98.9,64.1,98.5,64z"/>
	<path fill="#464646" d="M93.7,65.9c0,0.5,0.4,0.5,0.8,0.6c-0.3,0.2-0.6,0-0.8-0.2C93.5,66.2,93.6,66,93.7,65.9z"/>
	<path fill="#191919" d="M91.6,64.4c-0.4-0.7-0.4-1.1,0.1-1.4c0.4,0.4,0.5,0.8,0.4,1.3C92.1,65.2,91.7,64.2,91.6,64.4z"/>
	<path fill="#656565" d="M92,64.3c-0.1-0.4-0.3-0.9-0.4-1.3c0-0.2,0.1-0.3,0.1-0.5c0.2,0.1,0.3,0.2,0.5,0.2c0.1,0.1,0.2,0.2,0.2,0.3
		c-0.2,0.3,0,0.7-0.2,1.1C92.2,64.2,92.1,64.3,92,64.3z"/>
	<path fill="#0C0C0C" d="M92.3,64.2c-0.1-0.4-0.2-0.7,0-1.1c0.3-0.2,0.6-0.4,0.9-0.2c0.1,0.2,0,0.2-0.1,0.3c-0.9,0-0.6,0.6-0.6,1.1
		c0,0.1,0,0.3-0.1,0.4C92.4,64.5,92.3,64.3,92.3,64.2z"/>
	<path fill="#5F5F5F" d="M91.3,65.1c0-0.2-0.2-0.5,0.2-0.6C91.6,64.8,91.9,65.1,91.3,65.1z"/>
	<path fill="#151515" d="M92.8,61.7c-0.1,0.2-0.3,0.4-0.1,0.7c0.3,0.3,0.6,0.3,0.9,0.1c0.1-0.1,0.2-0.1,0.4-0.1
		c0.5,0.3,0,0.5-0.2,0.7c-0.1,0.1-0.2,0.1-0.3,0.2c-0.1,0-0.2,0-0.4,0c0-0.1,0.1-0.2,0.1-0.2c-0.2-0.1-0.5,0-0.6-0.3
		c-0.6-0.3-0.4-0.7-0.2-1.2c0-0.1,0.1-0.2,0.2-0.1C92.7,61.4,92.7,61.6,92.8,61.7z"/>
	<path fill="#7F7F7F" d="M93.9,62.5c-0.1,0-0.2,0-0.4,0c0.2-0.1,0-0.3,0.1-0.5c0.2-0.3,0.1-0.7-0.3-0.9c-0.2,0-0.4,0.1-0.5-0.2
		c0.4,0,0.7,0.1,1.1,0.1c0,0.2,0,0.4,0.2,0.5c0,0,0,0,0,0.1c-0.1,0.4-0.1,0.5-0.2,0.7C94.1,62.4,94.1,62.4,93.9,62.5z"/>
	<path fill="#797979" d="M92.7,62.7c0.2,0.1,0.4,0.2,0.6,0.3c-0.3,0-0.6,0.1-1,0.1c0-0.1,0-0.2,0-0.3C92.4,62.7,92.5,62.7,92.7,62.7
		z"/>
	<path fill="#646464" d="M97.8,60.4c-0.2,0-0.4,0-0.5,0.3c-0.1,0.3,0.1,0.4,0.3,0.5c0.3,0.1,0.2,0.3,0,0.4c-0.2,0.1-0.4,0.3-0.5,0.4
		c0,0-0.1,0-0.2,0c-0.3-0.1-0.1-0.5-0.3-0.6c-0.1-0.1-0.3-0.2-0.4-0.3c0.1-0.2,0.9-0.4,0.4-1.4c0.3,0,0.5-0.1,0.8-0.1
		c0.4,0.1,0.7,0.3,0.9,0.7C98.2,60.5,98,60.3,97.8,60.4z"/>
	<path fill="#323232" d="M97.8,60.4c0-0.1-0.1-0.2,0-0.3c0.2-0.1,0.3,0.1,0.5,0.2c0.1,0.2,0.2,0.5,0.3,0.7c0,0-0.1,0.1-0.1,0.1
		C98.2,60.9,98,60.7,97.8,60.4z"/>
	<path fill="#454545" d="M96.1,59.7c0,0.4-0.2,0.9,0.2,1.3c0.2,0,0.3,0.1,0.4,0.3c-0.5,0.4-0.9,0.2-1.3-0.1c0-0.1-0.1-0.2-0.1-0.4
		c0-0.4,0-0.7,0-1.1c0.1,0,0.1,0.1,0.2,0.1c0.1,0,0.1,0.1,0.1,0.1c0,0,0-0.1,0-0.1c0-0.2,0.1-0.3,0.2-0.3
		C96,59.6,96.1,59.7,96.1,59.7z"/>
	<path fill="#7C7C7C" d="M95.9,59.6c-0.2,0.3,0,0.7,0,1c0,0.1,0,0.2-0.1,0.2c-0.1,0-0.2-0.1-0.2-0.2c0-0.3,0-0.5,0-0.8
		C95.6,59.6,95.6,59.4,95.9,59.6z"/>
	<path fill="#8A8A8A" d="M95.4,61.2c0.4,0,0.9,0.2,1.3,0.1c0.9,0,0.2,0.5,0.2,0.7c0,0,0,0-0.1,0.1c-0.1,0-0.2,0-0.2,0
		c-0.4-0.4-0.7-0.3-1,0c-0.1,0-0.2,0-0.3-0.1c-0.2-0.3-0.4-0.5-0.8-0.5c-0.1,0-0.2-0.1-0.2-0.2c0-0.1,0.1-0.2,0.3-0.2
		C94.9,61.1,95.2,61.1,95.4,61.2z"/>
	<path fill="#5A5A5A" d="M94.7,61c-0.1,0.1-0.1,0.2,0,0.2c0.5,0,0.8,0.2,0.9,0.7c0.1,0,0.1,0,0.2,0c0.1,0.2,0,0.5-0.1,0.6
		c-0.2,0.2-0.3-0.1-0.4-0.3c-0.2-0.3,0.3-0.8-1-0.7c0,0,0,0,0-0.1C94.4,61.3,94.2,60.9,94.7,61z"/>
	<path fill="#1F1F1F" d="M91.1,34.5c0,0.4-0.5,0.6-0.4,1.1c0,0.2,0.2,0.5-0.2,0.6c0-0.5-0.1-1,0.1-1.4
		C90.8,34.7,90.9,34.5,91.1,34.5z"/>
	<path fill="#767676" d="M97.1,63.7c-0.1,0.1-0.2,0.2-0.3,0.2c-0.1-0.2-0.3-0.3-0.5-0.6c0-0.2-0.3-0.3-0.2-0.5c0.1,0,0.2,0,0.3,0
		c0.1,0,0-0.2,0.1-0.2c0.3,0.2,0.8,0.3,1.1,0.5C97.6,63.5,97.3,63.5,97.1,63.7z"/>
	<path fill="#4C4C4C" d="M97.7,63.2c-0.4-0.2-0.8,0-1.2-0.3c0.2-0.2,0-0.7,0.5-0.9c0,0,0,0,0,0c0,0,0.1,0,0.1,0
		c-0.1,0.5-0.1,1,0.6,1C97.9,63,97.8,63.1,97.7,63.2z"/>
	<path fill="#474747" d="M94.1,65.2c0.1-0.3,0.3-0.5,0.6-0.6c0,0,0.1,0,0.1,0c0,0.2,0.1,0.4,0,0.6C94.6,65.1,94.3,65.1,94.1,65.2z"
		/>
	<path fill="#0C0C0C" d="M94.4,63.3c-0.1,0-0.1,0-0.2,0c-0.1,0.1-0.2,0.2-0.3,0.3c-0.1-0.1-0.2-0.4-0.4-0.4c0-0.1,0.1-0.1,0.1-0.2
		c0.2-0.2,0.4-0.1,0.7-0.1c0.1,0,0.2,0.1,0.3,0.2C94.5,63.2,94.5,63.3,94.4,63.3z"/>
	<path fill="#363636" d="M94.2,63.1c-0.2,0.1-0.4,0-0.6-0.1c0-0.3,0.4-0.3,0.3-0.5c0-0.1,0.1-0.2,0.3-0.2c0.2,0.2,0.2,0.2,0.4,0.3
		c0,0.1,0,0.2-0.1,0.3C94.4,63,94.3,63.1,94.2,63.1z"/>
	<path fill="#767676" d="M97,62c-0.2,0.3,0,0.7-0.5,0.9c0,0,0,0,0,0c0-0.7,0.1-1.2-0.6-0.8c-0.1-0.1-0.1,0-0.1-0.1c0,0-0.1,0-0.1,0
		c0.2-0.5,0.5-0.4,0.8-0.3C96.7,61.7,96.8,61.9,97,62z"/>
	<path fill="#0D0D0D" d="M95.8,61.9c0,0,0.1,0.1,0.1,0.1c0,0.3,0,0.6,0.1,0.8c-0.2,0.2,0,0.7-0.5,0.7c-0.4,0-0.7,0.1-1.1-0.1
		c0,0,0-0.1,0-0.1c0.1-0.2-0.1-0.3-0.1-0.5c0.1,0,0.2-0.1,0.3-0.1c0.3,0,0.6,0.1,0.7-0.3C95.8,62.6,95.7,62.2,95.8,61.9z"/>
	<path fill="#313131" d="M96,62.8c0.1,0,0.1,0,0.2,0c0,0.2,0.2,0.3,0.1,0.5c-0.2,0-0.4-0.2-0.5,0.1c-0.1,0.3-0.2,0.1-0.4,0
		C95.8,63.4,95.7,62.9,96,62.8z"/>
	<path fill="#7D7D7D" d="M94.3,62.7c0.2,0.1,0.4,0.2,0.7,0.1c0.2-0.1,0.3,0,0.3,0.1c0,0.2-0.1,0.2-0.3,0.3c-0.2,0-0.4,0-0.6,0
		c-0.1,0-0.2-0.1-0.2-0.1C94.2,62.9,94.1,62.8,94.3,62.7z"/>
	<g>
		<path d="M91.4,2.2V7c0,0.7,0.1,1.1,1.2,1.1v0.2h-2.5V8.1C91.2,8,91.1,7.6,91.1,7V3.3c0-1.3-0.1-1.4-1-1.4V1.7h1.9L96,6.9v-4
			c0-0.6-0.1-1-1.1-1V1.7h2.4v0.2c-1,0.1-1,0.4-1,1.1v5.5h-0.2L91.4,2.2z"/>
		<path d="M98.2,7.4c0.3,0,0.5,0.2,0.5,0.5c0,0.3-0.2,0.5-0.5,0.5c-0.3,0-0.5-0.2-0.5-0.5C97.7,7.7,97.9,7.4,98.2,7.4z"/>
	</g>
	<g>
		<path d="M6.7,67.2l-2-5.4l-1.8,5.4H2.7l-1.7-5.6c-0.3-0.8-0.5-0.9-0.9-0.9v-0.2h2.5v0.2c-0.6,0-0.7,0.3-0.7,0.4
			c0,0.1,0,0.2,0.1,0.6l1.3,4.1l1.7-5.3h0.3l1.9,5.3l1.1-3.7c0.3-1.1,0.1-1.4-0.5-1.4v-0.2h1.8v0.2c-0.6,0-0.8,0.7-1,1.3l-1.5,5.3
			H6.7z"/>
	</g>
	<g>
		<path d="M79.6,85.7h0.2c0.1,0.5,0.4,2.1,1.9,2.1c0.9,0,1.4-0.6,1.4-1.3c0-0.9-0.9-1.3-1.6-1.6c-1-0.4-1.9-0.9-1.9-2.1
			c0-0.9,0.6-1.6,1.7-1.6c0.8,0,1.2,0.4,1.5,0.7c0.2-0.3,0.2-0.5,0.2-0.6h0.2V83H83c-0.3-1.2-1-1.6-1.7-1.6c-0.7,0-1.1,0.5-1.1,1
			c0,0.8,0.8,1.2,1.5,1.5c1.2,0.5,2,1,2,2.2c0,1-0.6,1.9-2,1.9c-0.9,0-1.4-0.5-1.7-0.8c-0.1,0.1-0.2,0.2-0.2,0.6h-0.2V85.7z"/>
		<path d="M85.4,85.2c0,0.1,0,0.3,0,0.5c0,0.5,0,2.1,1.3,2.1c0.2,0,0.9,0,1.2-0.8h0.2c0,0.1-0.4,1.1-1.6,1.1c-0.8,0-1.9-0.7-1.9-2.1
			c0-1.2,0.8-2.2,1.9-2.2c1,0,1.6,0.8,1.6,1.5H85.4z M87.2,85c0-0.1,0-0.1,0-0.2c0-0.7-0.5-0.9-0.8-0.9c-0.9,0-1,0.8-1,1.1H87.2z"/>
		<path d="M89.9,83.7c0,0.2,0.1,0.4,0.1,0.7c0.3-0.3,0.8-0.7,1.4-0.7c1,0,1.8,0.8,1.8,2.1c0,1.2-0.7,2.2-1.9,2.2
			c-0.6,0-1-0.3-1.3-0.6V89c0,1.1,0,1.1,0.6,1.1v0.2h-2v-0.2h0.1c0.5,0,0.6-0.1,0.6-0.9v-4.2c0-0.6-0.1-0.8-0.6-0.8h-0.1V84
			c0.5,0,1-0.2,1.2-0.2H89.9z M89.9,87.1c0.2,0.2,0.5,0.6,1.1,0.6c0.3,0,1.3-0.2,1.3-2c0-1.6-1-1.8-1.3-1.8c-0.6,0-1,0.5-1.2,0.7
			V87.1z"/>
		<path d="M95,84.1v2.4c0,0.5,0,1.2,0.6,1.2c0.3,0,0.5-0.3,0.6-0.4l0.1,0.1C96,88,95.4,88,95.3,88c-0.4,0-0.7-0.2-0.8-0.5
			c-0.1-0.2-0.1-0.5-0.1-1.2v-2.3h-0.6v-0.2c0.4,0,0.9-0.3,1.1-1.2H95v1.2h1.2v0.2H95z"/>
		<path d="M97.1,88v-5.3c0-0.9,0-1.1-0.6-1.1v-0.2c0.4,0,0.8-0.1,1.2-0.2h0.1v3.2c0.5-0.5,1-0.6,1.4-0.6c0.9,0,1.9,0.6,1.9,2.1
			c0,1.2-0.7,2.2-2,2.2c-0.4,0-0.9-0.1-1.3-0.7c-0.2,0.2-0.4,0.5-0.5,0.7H97.1z M97.7,86.5c0,0.5,0.4,1.3,1.1,1.3
			c0.9,0,1.3-0.8,1.3-2c0-1.1-0.4-1.8-1.2-1.8c-0.5,0-0.9,0.3-1.2,0.6V86.5z"/>
		<path d="M102.9,86.5c0,1,0,1.1,0.6,1.1h0.1v0.2h-2v-0.2c0.7,0,0.7,0,0.7-1.1v-1.1c0-1.1,0-1.1-0.7-1.1V84c0.4-0.1,0.9-0.2,1.1-0.3
			l0.1,0c0,0.2,0.1,0.5,0.1,1c0.3-0.7,0.9-1,1.2-1c0.4,0,0.7,0.4,0.7,0.6c0,0.2-0.1,0.3-0.3,0.3c-0.2,0-0.3-0.2-0.3-0.3
			c0-0.1-0.1-0.3-0.3-0.3c-0.3,0-0.9,0.5-0.9,1.5V86.5z"/>
		<path d="M105,87c0.3,0,0.5,0.2,0.5,0.5c0,0.3-0.2,0.5-0.5,0.5c-0.3,0-0.5-0.2-0.5-0.5C104.5,87.2,104.7,87,105,87z"/>
		<path d="M111.1,83.8c1,0,1.8,0.9,1.8,2.1c0,1-0.7,2.1-1.9,2.1c-1.3,0-2.1-1.2-2.1-3.1c0-1.7,0.7-3.6,2.4-3.6
			c0.7,0,1.3,0.4,1.3,0.8c0,0.2-0.2,0.3-0.3,0.3c-0.3,0-0.3-0.2-0.5-0.4c-0.2-0.3-0.4-0.3-0.7-0.3c-0.8,0-1.1,0.6-1.2,1
			c-0.2,0.7-0.2,1.5-0.2,2C110,84.3,110.4,83.8,111.1,83.8z M111,87.8c1.2,0,1.2-1.5,1.2-2c0-0.5,0-0.9-0.3-1.3
			c-0.2-0.3-0.5-0.4-0.9-0.4c-0.3,0-0.6,0.1-0.8,0.4c-0.3,0.3-0.4,0.7-0.4,1.4C109.8,86.9,110.2,87.8,111,87.8z"/>
	</g>
</g>
</svg>
