<svg xmlns="http://www.w3.org/2000/svg" viewBox="0 0 231.375 324.69"><defs><style>.cls-1{fill:#a7a9ac;}.cls-10,.cls-11,.cls-2,.cls-3{fill:none;}.cls-2,.cls-3{stroke:#808285;}.cls-11,.cls-2,.cls-3{stroke-linecap:round;}.cls-11,.cls-2{stroke-miterlimit:10;}.cls-3{stroke-linejoin:round;}.cls-4{font-size:10px;font-family:BaskervilleMTPro-Regular, Baskerville MT Pro;}.cls-12,.cls-4{fill:#231f20;}.cls-5{letter-spacing:0.14em;}.cls-6{letter-spacing:-0.02em;}.cls-7{letter-spacing:-0.03em;}.cls-8{letter-spacing:-0.01em;}.cls-9{letter-spacing:-0.01em;}.cls-11{stroke:#231f20;stroke-width:0.75px;}</style></defs><g id="Layer_2" data-name="Layer 2"><g id="_12489_final" data-name="12489_final"><g id="cds_pencil_draft"><polygon class="cls-1" points="36.8 84.83 37.2 84.62 37.14 84.33 36.8 84.83"/><path class="cls-1" d="M39,84.17l.51-.61c-.83-.25-.25-.48-1.49-.09-.23.36-.78,1.15-.5,1.3.21-.22.37-.72.77-.94,0,.28-.39.58-.39.93.71-.29.24-.43.91-.88Z"/><path class="cls-1" d="M39.2,83a.76.76,0,0,0,.15.35C39.32,83.21,39.48,82.84,39.2,83Z"/><path class="cls-1" d="M39.49,82.63c.37-.32.19.2.25.2l0-.73Z"/><path class="cls-1" d="M40.9,81.2,41,81C40.91,81,40.92,81.1,40.9,81.2Z"/><path class="cls-1" d="M41.53,80.44c-.26,0-.35.28-.51.57h0c.29-.11.37.32,0,.58s-.48.14-.6.58L41,82A3,3,0,0,0,41.53,80.44Z"/><path class="cls-1" d="M40.9,81.2l-.16.21A.24.24,0,0,0,40.9,81.2Z"/><polygon class="cls-1" points="40.18 81.91 40.06 82.14 40.21 82.2 40.18 81.91"/><path class="cls-1" d="M42.61,79.19c.27.4-.82.85-.64,1.19.42-.5,1-.67,1.12-.39l.37-.65C43.48,79,43,79.05,42.61,79.19Z"/><path class="cls-1" d="M44.43,78.83a.46.46,0,0,1,0-.19C44.44,78.72,44.41,78.79,44.43,78.83Z"/><path class="cls-1" d="M45.58,75.1c-.09.58-.18,1.16-.31,1.74-.06-.21-.21-.22-.09-.59-.39.65-.17.88-.54,1.42-.45-.06.52-1,0-.87a3.09,3.09,0,0,0-.44,1.49l-.67.37.53.11c.29-.15,0-.68.43-.65.23,0,.07.33,0,.52.23-.43,1.11-1,1.46-1.86S45.53,75.77,45.58,75.1Z"/><polygon class="cls-1" points="46.08 75.25 46.3 75.22 46.04 75.19 46.08 75.25"/><path class="cls-1" d="M46.25,73.31l-.07.93a.59.59,0,0,1-.29.1c.11,0,.19.3.28.31.56-.21.3-1.05.42-1.51.66-1.07.19.14.74-.15-.14.32-.24.29-.45.73.74-.52.7-1.57.78-2.06-.1.11-.23.09-.3.35l.06-.51C46.91,71.84,46.65,72.22,46.25,73.31Z"/><path class="cls-1" d="M45.63,74.75c.1-.31.18-.4.25-.41C45.74,74.38,45.62,74.44,45.63,74.75Z"/><path class="cls-1" d="M47.75,71.41a.42.42,0,0,0-.09.25A.5.5,0,0,0,47.75,71.41Z"/><path class="cls-1" d="M47.09,71.67l.28-.55-.28.15C47.07,71.35,47,71.64,47.09,71.67Z"/><path class="cls-1" d="M50.75,48.53c-.17.07-.23.31-.14.78-.24,0-.26-.65-.42-.93-.08.64-.28,0-.48.21,0,.69.38,1,.39,1.72a.2.2,0,0,0-.24.1,8.5,8.5,0,0,1,.29,3.28,7,7,0,0,0,.2,2.38c0,.76.13,1.53.13,2.33a8.76,8.76,0,0,1-.33,2.38c-.22.79-.53,1.52-.76,2.29s-.44,1.54-.66,2.33l.34.55c-.25.11-.16.77-.43.62a1.64,1.64,0,0,0,.12-.56c-.53.61-.35,1.84-.72,2.63.1-.07.52-.11.51.16-.46-.21-.28,1-.93,1-.44.75.41.19,0,1,.24.21.47-.76.73-.84.13.36-.4.75-.1.83A8.08,8.08,0,0,0,49,68c.12-1.14.14-2.35.3-3.4l.22.28A6.44,6.44,0,0,1,49.84,63a4.64,4.64,0,0,1,.93-1.59c-.16.07,0-.33.11-.77s.13-.91-.18-.86a1.8,1.8,0,0,0,.25-.79l-.18-.13c0-.59.32-.51.26-1.19-.23.46-.33,0-.56-.2.22-.78.37-1.66.59-2.28a.63.63,0,0,0-.27.33c.07-.43-.18-.35-.27-.46,0-.42.32-.38.49-.36.1-.79-.54-1.15-.33-1.74l-.27.21a21.7,21.7,0,0,0,0-2.44c.33-.47.37.73.54,1.11.07-.19.07-.59.18-.73-.21-.39-.52-1-.74-1.49C50.9,50,50.76,48.84,50.75,48.53Z"/><path class="cls-1" d="M51.17,51.06a2.11,2.11,0,0,0,.16.26.69.69,0,0,1,0-.31A.1.1,0,0,0,51.17,51.06Z"/><path class="cls-1" d="M50.75,48.53l0,0C50.76,48.42,50.75,48.45,50.75,48.53Z"/><path class="cls-1" d="M50.12,53.81l0-.12v-.15Z"/><path class="cls-1" d="M51.33,54.48a4.94,4.94,0,0,0-.27.66C51.18,55.05,51.27,55,51.33,54.48Z"/><path class="cls-1" d="M51.09,60.17c0,.19.12.1.17.25C51.35,60,51.29,59.89,51.09,60.17Z"/><polygon class="cls-1" points="51.16 50.04 51.01 49.35 50.91 49.1 51.16 50.04"/><path class="cls-1" d="M47,36.6a6.25,6.25,0,0,0,.44,2.21c.54,1.27.71,0,1.12,1.2l-.69,0a15.71,15.71,0,0,0,1.51,4c-.06.11-.12.36-.27,0,.17.85,1,.29,1,1.49-.55-1-.33.4-.77.16l-.07-.16c.14.72.47,1.66.49,2.14.17,0,.38-.45.48.2,0-.27.2-.18.37-.18-.26-.65-.19-1-.46-1.41.17-.4.1.25.27-.16l-.27-.51c0-.41.27.38.23-.25a1.68,1.68,0,0,1-.39-1l.09.13c-.14-.36-.14-.9-.46-.66l.27-.51-.23.13c-.11-1,.36-1.57-.3-2.77,0,.33-.2.08-.29-.06,0,.57.37.59.54,1.1-.22.13-.74-.64-.71,0,.1-.75-.4-1.24.11-1.7-.2-.81-.58-1-.67-1.87h.09c-.43,0,0-.71-.58-1.19l0,.45c-.17,0-.23-.18-.34-.46.07,0,.07,0,.12-.1-.31,0-.6-.91-.71-1A5,5,0,0,0,47.52,37C47.29,36.86,47.07,37,47,36.6Z"/><path class="cls-1" d="M50.23,44.69,50,44.44A.49.49,0,0,0,50.23,44.69Z"/><path class="cls-1" d="M46.72,32.82c-.07-.57.29.08.28-.47-.35-.48-.24.73-.68.29.09-.37-.37-.79-.44-1,.24.18.58-.07.62-.19-.16-.16-.11-.66-.21-1,0,.89-.36-.65-.38.17-.24,0-.64-.7-.57-1.06.16,0,.21.23.28.44.36.07,0-.57.24-.78-.67-.64-1.46-3.13-1.9-2.2,0,.31.19.48.32.75-.13-.84.35-.12.5-.09,0,.38.41.9.12.85l-.43-.47c.22.9.54,1.94.88,3l.53,1.6a7,7,0,0,1,.19.76c0,.26.1.55.16.81-.06-.3-.09-.63-.13-.92.21.07.27.51.43.82q.18-.26.39-.51c0,.26.12.48-.05.5.25.26.34.1.47-.11.2.61.06.77.48,1.19.12-1.17-.55-.79-.4-2.12A5.11,5.11,0,0,0,46.72,32.82Z"/><polygon class="cls-1" points="47.44 35.18 47.15 34.98 47.36 35.35 47.44 35.18"/><path class="cls-1" d="M46.33,35c.1,0,.19.12.28.08C46.56,34.56,46.43,34.64,46.33,35Z"/><path class="cls-1" d="M45.66,28.57l-.29-.63.06.45C45.52,28.35,45.62,28.5,45.66,28.57Z"/><path class="cls-1" d="M43,24.41a6.62,6.62,0,0,1,.8,2.28c.46.4.47-.41.8-.29-.1-.52-.57-.3-.84-.79.18-.27-.32-.74-.43-1.26A.24.24,0,0,1,43,24.41Z"/><path class="cls-1" d="M42.85,21c-.15-.41-.5-.75-.51-1.12.18,0,.33.21.38.47.29-.29-.22-.43-.17-1,0,.05,0,.24-.14.14-.39-1.13-.48-.48-1-2-.22-.17-.42-.37-.55-.16,0-.07-.07-.11-.06-.14a9.87,9.87,0,0,0-.7-1.25c-.07.14,0,.61-.22.85-.85-1.27-1.19-.89-1.73-1.72a1,1,0,0,1,.41.25c.18-.42-.67-.42-1-.79l.26-.27a4.5,4.5,0,0,1-1.66-1l.22-.09a26.71,26.71,0,0,0-3.64-1.29,3.36,3.36,0,0,0-.63-.34c-.48.06-.54.14-.49.16s.29,0,.53.09c.49.12.87.36.29.49,0-.34-.23-.35-.53-.23a1.32,1.32,0,0,1-1,.19c-.35-.27.78-.16.36-.46-.14.37-.36.08-.86.22.06-.37-1,.09-.74-.32a14.21,14.21,0,0,0-1.39,1,1.44,1.44,0,0,0-1,.2c.79-.25-.05.54.87.41a8.86,8.86,0,0,1,2.35-.69c.21,0,.43,0,.7,0s.5,0,.71,0A2.79,2.79,0,0,1,33,12.8c.33-.38,1,.39,1.38.16,0,.15,0,.32,0,.47,1,.36-.12-.34.18-.38.47.14.67.58.55.7.66.39.14-.07.6-.09.07.23.12.46.17.69a30.11,30.11,0,0,1,4.67,3.12,3,3,0,0,1,.65,1.14,12.09,12.09,0,0,1,.44,1.28l.21-.31c.3,1.22,1.41,1.72,1.15,3l.38.27c-.21-.15-.37.36-.68.12.21.28.22.66.42,1l-.06-.64a.82.82,0,0,1,.23,1.06c.6.78.33-.7.51-1-1-1.05.1-1.44-.57-2.56C42.82,20.12,43,21,42.85,21Z"/><path class="cls-1" d="M42.59,22.81a.78.78,0,0,0,.15.16A1.14,1.14,0,0,0,42.59,22.81Z"/><path class="cls-1" d="M27.2,12.82l-.34.14C26.77,13.08,26.94,13,27.2,12.82Z"/><polygon class="cls-1" points="43.32 24.35 43.33 24.35 43.32 24.34 43.32 24.35"/><polygon class="cls-1" points="44.25 24.7 44.15 24.36 44.03 24.47 44.25 24.7"/><path class="cls-1" d="M24,14.82l.11.12A.14.14,0,0,0,24,14.82Z"/><path class="cls-1" d="M17.49,22.62l.1-.19A.44.44,0,0,0,17.49,22.62Z"/><path class="cls-1" d="M10.83,45.72a5.46,5.46,0,0,0,.05,2.07l-.16-.07c0,.36.16,1.5.53.82l-.12-.19c-.13-.84.36-.54.56-1.13s-.42-1.33-.08-1.95c.07-.29.22-.2.31-.08.23-.64-.13-1-.06-1.52,1.27.17.26-2.14,1.28-2.93a12.72,12.72,0,0,0,.32-2.34c.21.5.21-.76.51-.5-.66-.39.83-2.27,0-2.6.48-1,0-.06.43-1.29.1,0,.05.24.05.33.29-.47-.22-.85.27-1.19.27-1-.21-.22-.33-.87.32-1,.39-.72.87-1.22-.4-.19-.07-.77-.17-1.33-.05.12-.3.82-.35.31a4.06,4.06,0,0,0,.18-1.18,3,3,0,0,1,.2-1.09c.68-.34-.48,1.08.3.3-.06.38-.15.7-.2,1a1.33,1.33,0,0,0,.12.78c.07-.24.12-.49.2-.71l.31-.77c.19-.53.38-1.08.52-1.61.31-.52.07.37.31,0,.66-.88.27-1.71.84-2.39l.14.27c-.06-.62.9-1.69,1.18-2.66-.17.06-.28.1-.3-.06.56.3.31-1.41,1.21-2.06-.37-.19.17-1.1.57-1.54a.31.31,0,0,1,.39.15c-.86.53-.43,1-.73,1.66.19-.58,1.18-1.22,1.36-1.81l.06.38c.68-.6.08-1.06,1-1.51l.09.23c1.35-1.34,3.25-2.6,4-4,0-.27-.91,0-1-.13a20.62,20.62,0,0,0-1.12,2l-.24-.27c.05.29-.46,1,0,.79-.28.53-.52.07-.86.67-.22-.31,0-.61-.17-.84l-.29.53c0-.23-.33.14-.31-.08-.45,1-1.18.89-1.83,1.8l.49-.38c.14.16-.13.38-.27.61-.42,0-.52.15-1,.46a4.71,4.71,0,0,0-.22.7,4.58,4.58,0,0,1-.34.81c-.29-.31-.71.87-1.05.83.29.3-.44,1.2-.28,1.38-.08.35-.32.76-.51.66a2.24,2.24,0,0,1,0-.26l-.16.31c0-.05-.06-.06,0-.1-.15.28.11.4-.24.68-.09-.05,0-.24,0-.42-.42.72-.09,1.56-.71,2,.11.2-.29,1.07.18,1.06-.24.17-.5-.06-.75.6.15.51-.45.64-.46,1.22,0-.8-.1-.05-.15-.76a1.7,1.7,0,0,0-.28.84,7.74,7.74,0,0,1-.3,1.2c-.11.06-.21,0-.31.1,0,.36.25.76-.1,1l.25,0a9.29,9.29,0,0,1-.71,1.84l.33.79a3.3,3.3,0,0,0-.22,3c-.1.33-.3.82-.4.79s-.06-.23-.09-.4c-.12.49-.52,1-.2,1.4,0,.54-.35.32-.5.68.31,1.16-1.15,2.9-.41,3.43a19.16,19.16,0,0,0,.65-2c0,.24.25.11.2.41-.17.82-.59,1.15-.66,2l-.5-.24C11,43.27,11.88,44.84,10.83,45.72Z"/><path class="cls-1" d="M13.48,35.5l-.39.53h.24A.84.84,0,0,1,13.48,35.5Z"/><path class="cls-1" d="M13.33,36a2.1,2.1,0,0,0,0,.36.79.79,0,0,0,0-.37Z"/><path class="cls-1" d="M10.44,48.11a1.69,1.69,0,0,0-.08.66A1,1,0,0,0,10.44,48.11Z"/><polygon class="cls-1" points="10.52 48.83 10.64 48.54 10.58 48.49 10.52 48.83"/><path class="cls-1" d="M14.5,65.74l.64.79c-.1.21.48,1.16.09.93.57.4.65,1.7,1,1.06C15.06,66,14,62.23,12.6,59.3l.36.43a3.39,3.39,0,0,1-.51-1.82,2.87,2.87,0,0,0-.09-.68,2.18,2.18,0,0,0-.47-.94l.48.13c0-.88-.94-1.4-.63-2.28l-.17.11c0-.2,0-.3,0-.51l-.07.1a2.15,2.15,0,0,1-.27-1.42c.14-.05.1.25.17.41.1-.27-.26-.65-.29-1.07s.2,0,.27,0c-.3-1.24.23-1.78-.4-2.72-.12-.1-.27.31-.28-.16a3.54,3.54,0,0,0,.19,2.32V51c.7.57-.14.47.25,1.42-.29-.22-.34-.65-.49-.81-.41,1.22.58,1.58.08,2.44l0-.08a1.88,1.88,0,0,0,.27.7,1.62,1.62,0,0,0,.08-.54c.12.24.43.31.57.37-.22.36.22.35.18.85-.23.23-.33-.33-.51-.47l.31.51c.12.51-.19.57-.29.85.27.39.11-.29.45,0a4.12,4.12,0,0,0,0,1.84,7.94,7.94,0,0,0,.8,2.1c-.15-.36-.32-.05-.41-.52,0,.19.3.73.5.67a6,6,0,0,1,.66,2.41l.13-.26c.53.46.27,1.55.84,2.49v0c.16.31.74.42.87,1C14.82,66,14.72,65.62,14.5,65.74Z"/><path class="cls-1" d="M16.3,69.15l-.39-.23c.07.39.59.72.74.58-.15-.23-.15-.6-.33-.59C16.3,69,16.2,69,16.3,69.15Z"/><path class="cls-1" d="M19.89,75.24c.14.08.21,0,.31,0a17.35,17.35,0,0,1-2.13-3.42c-.2-.48-.61-.33-1-.83l.11-.39a.82.82,0,0,1-.22-.26,2.57,2.57,0,0,1-.13-.27h0a0,0,0,0,0,0,0l-.07,0-.15,0-.15,0-.07,0h-.06l.5-.14h0v0l0,0a.31.31,0,0,0-.09-.12c-.06-.06-.12,0-.2.12,0,0,.08.15.15.15s.07,0,.09.06a.38.38,0,0,1,.08.17l-.17,0c.11.18.24.36.37.55l-.29-.08c.22,1,.86.24,1.3,1.31l-.36.22A5,5,0,0,1,18.52,74s.18-.11,0-.17,0-.36.15-.35c.91.81-.31,0,0,.76.79.69,2,2.14,2.07,2.79-.05-.53.56-.1.85.38,0,.29-.3,0-.46,0a1.69,1.69,0,0,0,.34.65c0-.41.39-.4.84,0C21.81,76.84,20.59,76.39,19.89,75.24Z"/><path class="cls-1" d="M20.4,75.38c-.08-.11-.15-.14-.2-.14l.3.44Z"/><polygon class="cls-1" points="30.66 186 30.71 185.69 30.45 185.62 30.66 186"/><path class="cls-1" d="M31.41,184.46l-.16-.52c-.71.38-.54-.05-1,.82.14.28.47.89.75.78-.05-.2-.37-.48-.31-.8.22.11.24.45.53.57.17-.52-.22-.29-.18-.85Z"/><path class="cls-1" d="M30.61,183.91A1,1,0,0,0,31,184C30.84,183.93,30.66,183.69,30.61,183.91Z"/><path class="cls-1" d="M30.5,183.59c0-.33.27,0,.3-.05l-.51-.34Z"/><path class="cls-1" d="M30.37,182.21l-.06-.15C30.24,182.12,30.31,182.16,30.37,182.21Z"/><path class="cls-1" d="M30.24,181.54c-.15.15,0,.31.07.52l0,0c.11-.2.47-.05.42.26.11.32-.23.32,0,.58l.23-.41C30.92,182,30.4,181.72,30.24,181.54Z"/><path class="cls-1" d="M30.37,182.21a.53.53,0,0,1,0,.18A.12.12,0,0,0,30.37,182.21Z"/><polygon class="cls-1" points="30.41 182.91 30.5 183.07 30.64 183.02 30.41 182.91"/><path class="cls-1" d="M30.08,180.4c.47,0,.05.82.41.87-.07-.44.23-.83.5-.75l-.2-.49C30.59,179.88,30.27,180.13,30.08,180.4Z"/><path class="cls-1" d="M31.14,179.33a.24.24,0,0,1-.09-.11C31.07,179.28,31.1,179.32,31.14,179.33Z"/><path class="cls-1" d="M30.07,176.9l.59,1.11c-.16-.09-.3,0-.38-.29,0,.51.3.55.3,1-.42.17-.12-.74-.47-.46a1.14,1.14,0,0,0,.5.94l-.24.5.46-.2c.11-.21-.42-.36-.1-.5s.25.11.32.24c-.13-.3.27-.87.14-1.48S30.34,177.31,30.07,176.9Z"/><polygon class="cls-1" points="30.58 176.81 30.76 176.72 30.51 176.79 30.58 176.81"/><path class="cls-1" d="M29.82,175.6l.37.58a.58.58,0,0,1-.21.16c.1,0,.31.11.39.08.4-.31-.22-.72-.33-1,.1-.87.24,0,.6-.35,0,.24-.08.26-.08.59.43-.56-.09-1.18-.25-1.5,0,.1-.16.14-.1.32L30,174.1C29.73,174.49,29.68,174.81,29.82,175.6Z"/><path class="cls-1" d="M30,176.68c-.06-.22,0-.31,0-.33C29.86,176.41,29.79,176.5,30,176.68Z"/><path class="cls-1" d="M30.28,173.94s0,.1,0,.18A.18.18,0,0,0,30.28,173.94Z"/><path class="cls-1" d="M29.81,174.32v-.42l-.18.18C29.66,174.14,29.71,174.34,29.81,174.32Z"/><path class="cls-1" d="M29,158.09c-.17,0-.24.21-.17.53-.24,0-.24-.43-.39-.62-.1.45-.27,0-.48.16,0,.48.35.66.35,1.18a.26.26,0,0,0-.25.08,5.18,5.18,0,0,1,.37,2.25,5.15,5.15,0,0,0,.28,1.65c.07,2.12.5,4.29.49,6.58l.48.28c-.21.13.05.54-.25.5.05-.13,0-.24,0-.39-.35.52.15,1.28.06,1.88.08-.07.46-.2.54,0-.5,0,.07.68-.49.9-.08.6.44,0,.43.6.3,0,.08-.59.29-.72.26.17-.05.56.26.5.05-1-.72-2.74-1-4.21l.29.13a3.56,3.56,0,0,1,0-2.63c-.25.17,0-1.13-.55-1,.12-.21.09-.26.12-.54l-.2-.05c0-.4.27-.36.21-.81-.23.32-.34,0-.56-.1.24-.55.44-1.17.63-1.65a.58.58,0,0,0-.27.26c.07-.32-.18-.24-.27-.31,0-.3.3-.3.46-.31.06-.56-.6-.73-.42-1.16l-.26.17c-.11-.56.14-1.07,0-1.68.34-.34.36.48.54.72.06-.14.06-.41.17-.51-.21-.25-.5-.66-.71-1C29.06,159.08,29,158.3,29,158.09Z"/><path class="cls-1" d="M29.32,159.78l.16.16a.37.37,0,0,1-.05-.2A.12.12,0,0,0,29.32,159.78Z"/><path class="cls-1" d="M29,158.09l0,0C29,158,29,158,29,158.09Z"/><path class="cls-1" d="M28.38,161.76s0-.06,0-.09v.09Z"/><path class="cls-1" d="M29.62,162.09a3.53,3.53,0,0,0-.24.51C29.49,162.53,29.58,162.48,29.62,162.09Z"/><path class="cls-1" d="M29.67,165.93c0,.11.13,0,.22.11C29.88,165.8,29.79,165.73,29.67,165.93Z"/><polygon class="cls-1" points="29.33 159.09 29.19 158.63 29.1 158.47 29.33 159.09"/><path class="cls-1" d="M27.61,149.62c-.34.4-.17,1-.25,1.55.15,1,.69.13.72,1l-.65-.16c0,.9-.08,2.19.53,2.93-.07.07-.17.23-.27,0,0,.6.95.26.78,1.06-.45-.71-.38.27-.79.1l-.05-.12c.07.51.34,1.16.34,1.5.17,0,.4-.32.46.12,0-.18.22-.12.39-.12-.23-.44-.14-.7-.38-1,.2-.27.09.16.28-.11l-.23-.35c0-.27.24.26.26-.16-.13,0-.29-.37-.28-.7l.08.09c-.1-.25,0-.61-.37-.47l.35-.32-.24.07c.07-.7.65-1,.33-1.85-.07.21-.2,0-.25-.1-.17.37.19.46.23.81-.25.06-.56-.54-.7-.11.29-.48,0-.89.58-1.09,0-.57-.26-.79-.1-1.36l.09,0c-.4-.12.2-.46-.2-.9l-.1.3c-.17,0-.17-.17-.19-.38.07,0,.07,0,.15,0-.29-.08-.3-.73-.38-.82-.07.27.15.62.21.95C27.8,149.86,27.54,149.89,27.61,149.62Z"/><path class="cls-1" d="M28.7,155.49l-.15-.17A.28.28,0,0,0,28.7,155.49Z"/><path class="cls-1" d="M28.34,147.08c.11-.36.24.12.41-.2-.16-.39-.46.37-.73,0,.2-.2-.07-.6-.06-.75a.65.65,0,0,0,.65.07c-.09-.15.13-.45.16-.7-.3.58-.11-.52-.42,0-.22-.06-.35-.62-.16-.84.17,0,.12.21.12.36.31.15.19-.37.49-.44-.4-.6-.34-2.4-1.06-1.89-.14.18,0,.35.05.56.16-.58.38,0,.51.06-.12.24.08.68-.17.57l-.25-.4c-.15,1.27-.29,2.95-.34,4.45l.08-.64c.18.1.16.4.23.64l.5-.27c-.05.18,0,.36-.17.33.18.24.31.15.48,0,0,.47-.14.53.14.91.44-.73-.27-.67.15-1.52Z"/><polygon class="cls-1" points="28.44 148.8 28.22 148.59 28.32 148.89 28.44 148.8"/><path class="cls-1" d="M27.44,148.42c.1,0,.14.12.24.12C27.78,148.18,27.63,148.21,27.44,148.42Z"/><path class="cls-1" d="M28.84,144.07l-.06-.48-.1.31C28.78,143.9,28.82,144,28.84,144.07Z"/><path class="cls-1" d="M27.65,140.74c.06.65.28.93,0,1.66.3.37.58-.16.85,0,.08-.37-.44-.32-.55-.7.27-.14-.06-.56,0-.92A.32.32,0,0,1,27.65,140.74Z"/><path class="cls-1" d="M28.6,138.45c0-.3-.23-.6-.11-.84.17,0,.24.2.2.39.37-.13-.07-.33.17-.67,0,0-.1.15-.18.07.06-.81-.33-.45-.14-1.5-.1-.15-.1-.29-.35-.27.31-.59.3-.3.59-1a3.07,3.07,0,0,1-.8.24c.45-1,0-1,.35-1.66a.57.57,0,0,1,0,.34c.44-.05,0-.54.1-.89l.36.09c0-.32-.16-.92.19-1.27l.16.12a16.48,16.48,0,0,1,.27-2.54l.31-.34c-.07-1-.33,1-.73.12.7,0-.11-.55.26-1,.32-.22,0,.59.4.35-.33-.19,0-.31-.1-.63.32.12.15-.63.49-.39-.15-.39-.3-.77-.47-1.14a.74.74,0,0,0,.18-.7c-.06.57-.48-.2-.69.42a9.18,9.18,0,0,1-.51,3.59c.42.22-.18.73.15,1-.15,0-.29.05-.44.05-.07.76.28-.12.4.1s-.34.53-.49.47c-.14.52.11.08.29.4l-.56.26a19.39,19.39,0,0,0-.05,2.88,17.88,17.88,0,0,1,0,3l.31-.15c-.14.87.75,1.42.1,2.22l.28.25c-.16-.14-.47.16-.69-.06.12.24,0,.49.11.73l.14-.44a.46.46,0,0,1-.12.75c.33.64.54-.4.8-.55-.61-.9.54-.94.27-1.81C28.85,137.87,28.77,138.47,28.6,138.45Z"/><path class="cls-1" d="M27.77,139.6a.48.48,0,0,0,.09.13A.77.77,0,0,0,27.77,139.6Z"/><path class="cls-1" d="M29.78,125.29a1.7,1.7,0,0,0,0-.25C29.72,124.94,29.76,125.09,29.78,125.29Z"/><polygon class="cls-1" points="27.98 140.77 27.99 140.77 27.98 140.76 27.98 140.77"/><polygon class="cls-1" points="28.76 141.19 28.77 140.95 28.63 140.99 28.76 141.19"/><path class="cls-1" d="M30.33,122.73h-.17A.17.17,0,0,0,30.33,122.73Z"/><path class="cls-1" d="M30.62,115.79V116A.29.29,0,0,0,30.62,115.79Z"/><path class="cls-1" d="M29.53,99.25a3,3,0,0,0-.37-1.43l.17,0c-.07-.25-.33-1-.63-.53l.14.12c.23.57-.28.41-.41.82,0,.52.63.89.43,1.35,0,.22-.16.17-.28.09-.09.5.38.73.44,1.05-.62.07-.53.47-.35.91s.45.92.11,1.34a6.05,6.05,0,0,0,.53,1.57c-.37-.24.08.54-.29.48.37,0,.38.42.34.8s-.06.77.4.82c-.26.77.06,0-.16.93-.1,0-.1-.16-.12-.22-.19.36.39.56,0,.84-.08.72.25.13.49.56-.12.74-.24.53-.63.94.44.07.23.52.46.88,0-.09.1-.59.27-.26-.06.86.29.69.43,1.49-.47.42,0-.81-.4-.09-.24-.5-.22-.89-.57-1.17a6.87,6.87,0,0,0,.31,2.29c-.05.42-.24-.21-.27.12-.18.76.54,1.13.34,1.74l-.25-.12c.35.36,0,1.31.11,2,.13-.08.21-.14.29,0-.61,0,.27,1-.23,1.64.39,0,.57.64.6,1.05-.11.14-.28.1-.38.1.26-.67-.41-.68-.55-1.24.16.47-.08,1.21.21,1.61l-.31-.16c-.06.64.7.56.41,1.22l-.23-.06c.07,1.33-.36,2.84.05,3.93.18.1.66-.4.81-.42a10,10,0,0,0-.6-1.53h.36c-.24-.11-.38-.7-.58-.37-.18-.4.32-.3.11-.75.38,0,.42.3.73.3l-.19-.39c.15.12.12-.24.27-.12-.46-.73.15-1,0-1.75l-.07.41c-.21,0-.19-.24-.24-.42.29-.2.25-.31.4-.68-.15-.33-.51-.54-.47-1,.38.14.28-.74.61-.8-.38-.13-.09-.91-.32-1-.08-.25,0-.59.18-.58,0,0,.05.11.07.18v-.24c.05,0,.08,0,.09,0,0-.22-.28-.22-.09-.5.1,0,.11.15.15.27.06-.59-.62-1-.28-1.49-.19-.09-.23-.75-.65-.58.14-.19.48-.14.4-.61-.36-.27.11-.54-.13-.9.39.47.11,0,.47.41.14-.33-.35-.8-.29-1.36.08-.06.19-.06.27-.12-.13-.21-.42-.45-.12-.65l-.25,0c.12-.39.05-.92.33-1.33l-.46-.5c.51-.64.07-1.55-.38-2,0-.23.07-.6.17-.61a2.38,2.38,0,0,1,.2.25c0-.36.17-.87-.26-1-.19-.33.22-.32.23-.59-.69-.62,0-2.15-.81-2.26a7.77,7.77,0,0,0,.07,1.44c-.12-.13-.27,0-.32-.19-.13-.57.14-.9-.06-1.46h.54a1.73,1.73,0,0,0-.12-1.36A1,1,0,0,1,29.53,99.25Z"/><path class="cls-1" d="M30.15,106.47c.1-.14.18-.29.27-.44l-.24.06A.4.4,0,0,1,30.15,106.47Z"/><path class="cls-1" d="M30.18,106.09a.72.72,0,0,0-.12-.25.44.44,0,0,0,.07.26Z"/><path class="cls-1" d="M29.55,97.57a.86.86,0,0,0,0-.46A.5.5,0,0,0,29.55,97.57Z"/><polygon class="cls-1" points="29.39 97.08 29.3 97.29 29.36 97.32 29.39 97.08"/><path class="cls-1" d="M27.27,85.3c-.19-.16-.38-.31-.57-.44.11-.18-.42-.65-.07-.61-.5-.1-.72-.87-.95-.29a3.2,3.2,0,0,1,.8,1l.74,1.54A17.58,17.58,0,0,1,28,89.67l-.24-.35c.49,1.13-.43,1.69.56,2.57l-.47-.08c-.07.57.78,1,.38,1.58l.17-.08c0,.15-.05.22,0,.36l.08-.06a1.1,1.1,0,0,1,.15,1c-.15,0-.08-.17-.13-.28-.13.18.2.45.22.75s-.2,0-.27,0c.27.87-.2,1.29.49,1.9.12.07.23-.23.29.1a2.17,2.17,0,0,0-.29-1.61v.15c-.69-.38.14-.34-.21-1,.28.16.31.46.46.57.44-.85-.49-1.1.09-1.7l0,.05c.05-.12-.1-.32-.19-.49-.07.07-.09.25-.14.38-.08-.17-.39-.23-.52-.27.27-.25-.18-.25-.07-.6.25-.15.28.24.44.34l-.24-.37c-.06-.35.26-.39.38-.58-.24-.28-.13.2-.44,0a5.15,5.15,0,0,0-.19-2.83c.05.26.29.08.26.41.06-.12-.1-.54-.31-.53a3.35,3.35,0,0,1-.07-1.69l-.17.18c-.41-.3,0-1-.55-1.63v0c-.14-.19-.7-.19-.79-.64C27,85.19,27.06,85.44,27.27,85.3Z"/><path class="cls-1" d="M25.56,83.6l.35-.06c-.13-.23-.6-.13-.68,0,.16,0,.21.27.35.17S25.66,83.64,25.56,83.6Z"/><path class="cls-1" d="M21.59,80.38c-.12,0-.18.07-.27.09a27,27,0,0,1,2.12,2.16c.28.33.74.08,1.1.16v.35c.3,0,.62.59.73.07,0,0-.28.07-.39-.1L25,83l-.4-.19.23-.1c-.2-.29-.37-.2-.57-.12a.73.73,0,0,1-.83-.27L23.7,82c-.43-.39-.72-.49-.9-1,0,0-.15.14,0,.15a.25.25,0,0,1-.12.33c-.83-.37.27-.09,0-.62-.71-.3-1.78-1.16-1.78-1.68,0,.42-.5.22-.74-.1,0-.24.27-.06.41-.1-.09-.17-.1-.35-.27-.45,0,.33-.36.42-.75.16C19.93,79.59,21,79.65,21.59,80.38Z"/><path class="cls-1" d="M21.14,80.41a.21.21,0,0,0,.18.06l-.26-.28Z"/><path class="cls-1" d="M34.31,186.61s.09-.14.13-.22l-.25-.11C34.24,186.39,34.28,186.55,34.31,186.61Z"/><path class="cls-1" d="M35.31,185.35l-.1-.49c-.75.28-.53-.09-1.06.65.11.26.34.85.63.8,0-.2-.29-.49-.2-.77.22.13.18.43.45.59.25-.47-.17-.3-.06-.81Z"/><path class="cls-1" d="M34.58,184.77a1,1,0,0,0,.35.09C34.81,184.81,34.65,184.58,34.58,184.77Z"/><path class="cls-1" d="M34.5,184.48c0-.3.27,0,.31,0l-.48-.34Z"/><path class="cls-1" d="M34.51,183.22l0-.15C34.38,183.13,34.45,183.16,34.51,183.22Z"/><path class="cls-1" d="M34.43,182.6c-.16.13,0,.28,0,.47l0,0c.13-.17.48,0,.4.27.08.29-.26.27,0,.52l.27-.35C35.07,183,34.57,182.77,34.43,182.6Z"/><path class="cls-1" d="M34.51,183.22a.78.78,0,0,1,0,.16C34.59,183.31,34.55,183.26,34.51,183.22Z"/><polygon class="cls-1" points="34.48 183.85 34.55 184.01 34.7 183.97 34.48 183.85"/><path class="cls-1" d="M34.36,181.56c.47.05,0,.74.35.81,0-.41.29-.76.55-.68l-.17-.43C34.92,181.14,34.57,181.3,34.36,181.56Z"/><path class="cls-1" d="M35.54,180.72a.19.19,0,0,1-.08-.1S35.5,180.71,35.54,180.72Z"/><path class="cls-1" d="M34.9,178.41l.38,1.09c-.14-.11-.29-.08-.32-.32-.1.46.19.54.12.91-.44.09,0-.67-.38-.48a1,1,0,0,0,.34.92l-.32.4.48-.12c.14-.16-.35-.36,0-.45s.24.13.28.25c-.08-.27.41-.71.39-1.27S35.1,178.82,34.9,178.41Z"/><polygon class="cls-1" points="35.42 178.42 35.62 178.36 35.36 178.39 35.42 178.42"/><path class="cls-1" d="M34.91,177.21l.25.58a.67.67,0,0,1-.24.11c.11,0,.28.15.37.14.45-.22-.07-.69-.12-1,.26-.76.22.06.65-.21,0,.22-.13.22-.19.52.52-.43.14-1.07,0-1.39,0,.09-.19.1-.16.27l-.12-.33C35,176.21,34.92,176.48,34.91,177.21Z"/><path class="cls-1" d="M34.83,178.2c0-.21,0-.28.08-.3C34.79,178,34.7,178,34.83,178.2Z"/><path class="cls-1" d="M35.68,175.81s0,.08,0,.16A.17.17,0,0,0,35.68,175.81Z"/><path class="cls-1" d="M35.15,176.07l.08-.38-.22.13C35,175.88,35,176.07,35.15,176.07Z"/><path class="cls-1" d="M36.85,161.38c-.18,0-.27.16-.26.46-.23-.05-.16-.43-.28-.62-.17.38-.27,0-.5.06-.05.43.24.65.14,1.12a.26.26,0,0,0-.25,0,4.19,4.19,0,0,1,0,2.08,4.09,4.09,0,0,0,0,1.52c-.26,1.92-.16,3.9-.45,6l.42.32c-.23.09,0,.5-.32.42.06-.11,0-.22,0-.36-.43.41-.07,1.17-.26,1.69.09-.05.49-.1.54.06-.49-.09,0,.63-.63.73-.2.52.43.06.3.6.29.09.19-.51.42-.59.23.19-.14.49.17.49.22-.87-.23-2.57-.31-3.94l.27.16a5.08,5.08,0,0,1-.07-.62,3.6,3.6,0,0,1,0-.65,2,2,0,0,1,.43-1.09c-.27.12.21-1-.4-.94.15-.17.13-.22.2-.47l-.18-.08c0-.35.32-.27.33-.68-.28.25-.34-.05-.54-.19.32-.44.61-1,.88-1.37a.63.63,0,0,0-.31.2c.12-.28-.13-.25-.22-.33,0-.27.34-.22.51-.2.14-.49-.48-.76-.24-1.11l-.28.11c0-.52.3-.93.25-1.51.38-.24.28.49.42.74.08-.11.12-.35.25-.42a9.35,9.35,0,0,1-.55-1C36.78,162.3,36.81,161.57,36.85,161.38Z"/><path class="cls-1" d="M36.93,163a1.47,1.47,0,0,0,.13.17.3.3,0,0,1,0-.19A.14.14,0,0,0,36.93,163Z"/><path class="cls-1" d="M36.85,161.38h0C36.87,161.31,36.86,161.33,36.85,161.38Z"/><path class="cls-1" d="M35.69,164.58l0-.07v-.09Z"/><path class="cls-1" d="M36.86,165.09a3.11,3.11,0,0,0-.31.41C36.67,165.46,36.77,165.43,36.86,165.09Z"/><path class="cls-1" d="M36.32,168.53c0,.11.12.05.2.13C36.55,168.44,36.47,168.36,36.32,168.53Z"/><polygon class="cls-1" points="37.04 162.36 36.99 161.92 36.92 161.76 37.04 162.36"/><path class="cls-1" d="M35.93,153.53c-.3.39-.09.94-.14,1.41.17.86.7.1.74.92l-.65-.14c0,.81-.15,2,.39,2.68-.09.06-.19.2-.28,0,0,.55.92.33.66,1.05-.37-.7-.4.2-.79,0l0-.11c0,.47.19,1.09.15,1.39.16,0,.44-.22.43.19.05-.17.23-.09.4-.06-.16-.44,0-.66-.24-.93.24-.22.06.16.29-.06l-.18-.35c.07-.25.21.27.28-.12-.13-.05-.25-.38-.21-.68l.08.09c-.08-.23,0-.56-.32-.47l.37-.25-.25,0c.13-.63.73-.85.45-1.7-.08.2-.21,0-.26-.1-.17.35.18.43.2.77-.25,0-.53-.53-.69-.14.32-.42,0-.82.61-1,0-.54-.27-.74-.14-1.27h.1c-.42-.09.17-.45-.26-.83l-.09.29c-.16,0-.17-.15-.21-.33.07,0,.07,0,.14,0-.29-.05-.37-.64-.46-.71,0,.25.22.55.31.84C36.14,153.73,35.89,153.78,35.93,153.53Z"/><path class="cls-1" d="M37,159l-.13-.18A.26.26,0,0,0,37,159Z"/><path class="cls-1" d="M36.33,151.14c.05-.34.26.07.37-.25-.22-.33-.4.42-.72.1.16-.21-.17-.52-.18-.66a.67.67,0,0,0,.64,0c-.11-.12.06-.42.06-.64-.21.55-.18-.45-.41.06a.53.53,0,0,1-.28-.73c.17,0,.14.17.16.3.33.09.15-.35.43-.45-.48-.48-.59-2.12-1.26-1.59-.12.18.07.32.11.5.1-.54.38,0,.51,0-.1.24.16.61-.1.54l-.3-.34a29.33,29.33,0,0,0,.3,4.06l0-.58c.2.06.23.33.33.54l.45-.31c0,.17.06.32-.11.32.21.19.32.09.48,0,.1.43-.08.51.25.83.34-.74-.35-.59-.06-1.44Z"/><polygon class="cls-1" points="36.67 152.69 36.43 152.53 36.56 152.79 36.67 152.69"/><path class="cls-1" d="M35.63,152.47c.1,0,.15.09.25.08C35.93,152.21,35.79,152.26,35.63,152.47Z"/><path class="cls-1" d="M36.39,148.39l-.12-.43-.07.29C36.3,148.24,36.36,148.34,36.39,148.39Z"/><path class="cls-1" d="M34.89,145.5c.11.58.36.81.18,1.5.34.3.56-.2.85-.09,0-.34-.48-.25-.61-.58.25-.16-.11-.5-.09-.84A.32.32,0,0,1,34.89,145.5Z"/><path class="cls-1" d="M35.66,143.39c0-.26-.2-.55-.07-.76a.27.27,0,0,1,.18.36c.38-.09-.06-.3.2-.58,0,0-.11.13-.19,0,.12-.72-.3-.42,0-1.36-.1-.14-.09-.27-.34-.26.34-.53.33-.25.64-.89a3,3,0,0,1-.81.19c.5-.89,0-.94.37-1.51a.47.47,0,0,1,0,.31c.44-.05,0-.5.06-.82l.37.06c0-.3-.24-.84.06-1.2l.18.1a12.53,12.53,0,0,1-.1-2.33l.26-.33c-.21-.93-.21.88-.71.17.7,0-.19-.48.14-1,.3-.22.09.53.43.29-.34-.14-.08-.28-.15-.56.32.09.1-.57.46-.36l-.52-1a.6.6,0,0,0,.18-.62c-.06.51-.47-.2-.69.36a12.21,12.21,0,0,1-.23,3.34c.45.15-.06.68.3.88-.15,0-.28.08-.43.09,0,.7.26-.14.42,0a.44.44,0,0,1-.43.49c-.06.49.13.06.35.33l-.52.28a25.12,25.12,0,0,1-.1,5.32l.32-.12a1.65,1.65,0,0,0,.18,1,1.28,1.28,0,0,1,.09.44,1.26,1.26,0,0,1-.17.52l.31.2c-.17-.11-.45.2-.69,0,.14.19,0,.43.17.64l.1-.41a.39.39,0,0,1-.05.68c.38.55.5-.4.74-.58-.34-.39-.22-.58-.1-.89s.17-.21.22-.26a.42.42,0,0,0,0-.4C35.93,142.9,35.82,143.41,35.66,143.39Z"/><path class="cls-1" d="M34.91,144.48a.47.47,0,0,0,.1.1A.47.47,0,0,0,34.91,144.48Z"/><path class="cls-1" d="M36.3,131.34a.88.88,0,0,0,0-.24C36.24,131,36.28,131.15,36.3,131.34Z"/><polygon class="cls-1" points="35.22 145.49 35.23 145.49 35.22 145.49 35.22 145.49"/><polygon class="cls-1" points="36.03 145.81 36.02 145.58 35.88 145.64 36.03 145.81"/><path class="cls-1" d="M37,129.14l-.16,0A.2.2,0,0,0,37,129.14Z"/><path class="cls-1" d="M38.28,122.9l0,.14A.22.22,0,0,0,38.28,122.9Z"/><path class="cls-1" d="M38.09,107.69a3.17,3.17,0,0,0-.53-1.23l.17,0c-.09-.22-.39-.92-.67-.44l.15.1c.27.51-.25.39-.34.81.11.48.74.73.62,1.18,0,.19-.14.16-.27.11,0,.44.46.59.54.89-1.24.18.41,1.32-.35,2a6,6,0,0,0,.31,1.46c-.32-.26,0,.49-.36.39.74.12-.25,1.51.67,1.56-.23.72.06,0-.12.85-.1,0-.11-.13-.13-.18-.18.33.41.48,0,.76-.05.65.25.1.51.48-.1.69-.24.5-.63.85.44.08.21.47.41.82,0-.08.14-.54.29-.22-.13.78.24.65.29,1.41-.52.33.05-.74-.39-.13-.18-.49-.13-.84-.46-1.11a7.41,7.41,0,0,0,.06,2.09c-.11.37-.2-.22-.28.07-.29.65.37,1.09.09,1.61l-.23-.14c.29.37-.22,1.18-.13,1.82.14-.06.23-.1.3,0-.62-.09.2.92-.33,1.47.4,0,.53.65.5,1a.43.43,0,0,1-.39,0c.34-.58-.33-.67-.43-1.19.14.44-.18,1.08,0,1.48l-.28-.19c-.15.55.61.62.2,1.15l-.21-.1a6.21,6.21,0,0,1-.24.89c-.11.28-.23.57-.33.91a3,3,0,0,0,0,1.73c.17.1.67-.32.82-.32-.08-.58-.36-1-.43-1.41l.35.08c-.22-.12-.23-.68-.48-.46-.09-.4.38-.16.28-.62.36.12.34.37.63.47,0-.15-.06-.28-.08-.42.11.15.17-.19.29,0-.3-.77.37-.9.29-1.63l-.14.37c-.2,0-.14-.26-.17-.43.32-.14.3-.25.49-.59-.12-.32-.46-.55-.4-1,.38.15.32-.64.66-.67-.38-.14,0-.81-.25-.9-.05-.23,0-.52.24-.49a.91.91,0,0,1,.05.17l0-.21s.07,0,.08,0c0-.2-.25-.24,0-.46.11,0,.09.15.11.26.14-.51-.48-1-.07-1.37-.17-.1-.12-.7-.55-.62.16-.14.49,0,.47-.49-.32-.29.18-.48,0-.83.33.48.1,0,.42.43.17-.28-.26-.78-.15-1.29.09-.05.19,0,.28-.09-.11-.2-.38-.44-.08-.62h-.25c.15-.35.09-.87.35-1.26L38.4,116c.49-.62,0-1.4-.45-1.85,0-.22.08-.55.19-.55s.11.13.18.23c0-.32.26-.73-.15-.89-.14-.32.26-.25.31-.5-.58-.64.32-2-.54-2.14a7.76,7.76,0,0,0-.07,1.31c-.11-.13-.28,0-.3-.21-.07-.51.23-.8.06-1.31l.55,0C38.68,109.17,37.35,108.43,38.09,107.69Z"/><path class="cls-1" d="M38.42,114.35l.25-.39-.23.05A.37.37,0,0,1,38.42,114.35Z"/><path class="cls-1" d="M38.44,114a.88.88,0,0,0-.12-.21.33.33,0,0,0,.06.22Z"/><path class="cls-1" d="M37.93,106.2a.74.74,0,0,0,0-.41A.4.4,0,0,0,37.93,106.2Z"/><polygon class="cls-1" points="37.74 105.77 37.67 105.96 37.73 105.98 37.74 105.77"/><path class="cls-1" d="M37.1,94.76c-.12-.19-.25-.38-.38-.55.16-.12-.14-.73.18-.57-.44-.27-.25-1.06-.73-.66a7.31,7.31,0,0,1,.36,2.76,14.57,14.57,0,0,0,.3,3.25l-.22-.33c.44,1.07-.5,1.46.39,2.32l-.46-.11c-.12.49.66.93.19,1.47l.19-.06c0,.14-.08.2-.08.34l.08-.06a1,1,0,0,1,.07.93c-.15,0-.07-.16-.11-.27-.14.17.18.44.19.71s-.21,0-.28,0c.24.81-.22,1.21.49,1.76.13,0,.22-.22.29.07.19-.55-.1-1-.3-1.46v.14c-.68-.37.14-.31-.18-.93.28.16.29.43.44.53.47-.74-.43-1,.21-1.53l0,.06c.06-.11-.08-.3-.14-.46-.08,0-.12.21-.18.32-.07-.16-.36-.24-.48-.3.29-.19-.15-.25,0-.55.27-.11.24.25.39.36l-.19-.36c0-.33.3-.32.45-.48-.21-.28-.15.16-.44-.07.34-.34.24-1.85,0-2.56,0,.24.29.08.25.38.06-.1-.08-.49-.29-.49a2.26,2.26,0,0,1,.13-1.58l-.2.13c-.36-.39.26-1,.05-1.66v0c0-.22-.56-.38-.48-.75C36.86,94.58,36.85,94.79,37.1,94.76Z"/><path class="cls-1" d="M36.24,92.6l.33.12c0-.24-.44-.41-.61-.3.11.12,0,.35.21.33S36.3,92.69,36.24,92.6Z"/><path class="cls-1" d="M35,88.16c-.08-.07-.18,0-.27,0,.32,1,.75,2,.55,2.37s.38.41.6.81l-.22.28c.25.19.16.91.54.54,0,0-.27-.11-.25-.32l.16,0-.19-.43.24.08c0-.34-.12-.41-.32-.53a.92.92,0,0,1-.26-.26c-.07-.06-.1-.15-.08-.32l.41-.07c-.06-.45-.27-.64-.14-1.12,0,0-.2.05-.1.11a.27.27,0,0,1-.27.21c-.51-.61.28,0,.3-.5a4.13,4.13,0,0,1-.65-1.09,1.34,1.34,0,0,1,0-1.16c-.24.35-.53-.16-.48-.57.16-.17.24.14.37.21,0-.18.16-.31.12-.5-.25.2-.56.07-.64-.44a1.88,1.88,0,0,0,.07,1.4C34.66,87.23,34.93,87.76,35,88.16Z"/><path class="cls-1" d="M34.61,88c0,.1.09.13.14.14s-.07-.25-.1-.38Z"/></g><g id="missing_details" data-name="missing details"><line class="cls-2" x1="31.06" y1="98.42" x2="34.77" y2="99.26"/><path class="cls-2" d="M32.92,97.91s2.7.17,1,2.53l-1.69,2.37"/><path class="cls-2" d="M30.21,116.16s.17.68,2.71.68h2.53"/><path class="cls-2" d="M33.76,114.81a4.91,4.91,0,0,1,0,3l-.51,1.86"/><path class="cls-2" d="M27.84,139.82l.93.43s1.19.5,1.44.67a4.06,4.06,0,0,0,.85.34h.5"/><path class="cls-2" d="M31.06,138.22v2.32c0,.13.17,0,0,.72a3,3,0,0,1-.85,1.27"/><path class="cls-2" d="M31.56,161a4.29,4.29,0,0,1,0,1.09c-.08.26-.26.93,0,1.19s1.23,1.1,1.23,1.1"/><path class="cls-2" d="M33.36,161a8.13,8.13,0,0,1-1.23.84c-.57.25,0,.51-.7.85s-.12.08-.71.33l-.59.26"/><path class="cls-2" d="M30.67,174.22a3.25,3.25,0,0,1,1.07.59c.33.34,1.09.93,1.09.93v.59"/><path class="cls-2" d="M33.62,174.22c-.37.25-.28.41-.79.76s-1.08.68-1.08.68"/><polyline class="cls-3" points="26.21 37.23 29.09 41.45 35.34 45.68"/><path class="cls-3" d="M26.21,45.68a30.09,30.09,0,0,1,4.57-2.37,36.59,36.59,0,0,0,4.56-1.86"/></g><path class="cls-3" d="M29.48,87.33s-6.59-4.06-7.1-4.56a55.27,55.27,0,0,0-5.32-4.19c-.64-.25-6.59-8.87-6.72-9.25s-2.53-7-2.53-7.6S5.9,57.8,5.52,56.27s-.76-7.09-.76-7.09-1.64-4.57-2.53-6.47-1.14-15.21-1.14-16-1.9-5.45,1.14-10.9S5.52,10,7.68,8.49s4.18-3.17,6.08-3.81,8.5-3.42,8.5-3.42L31.13.5h4.94c3.3,0,5.71,2.54,7.35,3a19.08,19.08,0,0,1,4.31,1.52c1.27.76,4.06,5.83,6.09,7.86s5.58,8.5,6.08,10.14,2,4.31,1.65,8.24-.13,4.69-.89,8.62S58.26,50.44,58,52.22a69.44,69.44,0,0,1-3.93,11.66c-1.39,2.92-4.56,7.73-6,10.27S37.59,87.33,37.59,87.33s1.65,7.1,1.65,9.63a34.74,34.74,0,0,0,.38,7.1c.51,2.79.38,4.06.38,7.61s.64,4.56,0,7.6-1.9,3.81-2.15,6.22-.51.88-.51,7.6v13.56c0,6.47.13,5.33.13,13.7s1.77,9.88.12,14.83-.25,9.5-1.64,12-1.78,3.93-2.67,5.83-3.29,0-3.8-1.27c-.23-.58-.57-1.17-.89-1.91a10.07,10.07,0,0,1-.76-3.54,105.11,105.11,0,0,1-.12-11.91c.25-7,.5-14.71.5-15.34s-1.52-9.64-1.52-13.82-1.14-10,0-16.22a106.66,106.66,0,0,0,2.16-20.54c.12-9.25-1-20.66-1-20.66"/><path class="cls-3" d="M29.17,187.81c.64-1,.11-2,1.07-2s1.6-.64,2,0a5.74,5.74,0,0,0,1.64,1.88l.47.18"/><text class="cls-4" transform="translate(80.97 44.56)">one o<tspan class="cls-5" x="22.19" y="0">f</tspan><tspan x="26.34" y="0" xml:space="preserve"> the 2</tspan><tspan x="0" y="12" xml:space="preserve"> cotyledon</tspan><tspan class="cls-6" x="41.57" y="12">s</tspan><tspan x="44.71" y="12">.</tspan></text><text class="cls-4" transform="translate(51.29 110.81)">semi cylindrical petiol<tspan class="cls-7" x="87.42" y="0">e</tspan><tspan x="91.51" y="0">. </tspan></text><text class="cls-4" transform="translate(50.29 163.32)">semi cylindrical petiol<tspan class="cls-7" x="87.42" y="0">e</tspan><tspan x="91.51" y="0">. </tspan></text><text class="cls-4" transform="translate(38.14 200.05)">radi<tspan class="cls-8" x="16.05" y="0">c</tspan><tspan x="20.21" y="0">l</tspan><tspan class="cls-7" x="22.61" y="0">e</tspan><tspan x="26.7" y="0">, with plu</tspan><tspan class="cls-6" x="64.52" y="0">m</tspan><tspan x="72.35" y="0">ule</tspan></text><text class="cls-4" transform="translate(61.61 213.91)">mic<tspan class="cls-6" x="14.79" y="0">r</tspan><tspan x="18.25" y="0">oscopically mi</tspan><tspan class="cls-9" x="74.92" y="0">n</tspan><tspan x="80.13" y="0">ute</tspan></text><line class="cls-10" x1="36.27" y1="42.87" x2="77.59" y2="43.57"/><line class="cls-11" x1="38.13" y1="42.9" x2="75.56" y2="42.9"/><path class="cls-12" d="M46.3,101.72V97.85a5,5,0,0,0-.47-2.15,4.26,4.26,0,0,0-1.2-1.5s0,0,0-.19,0-.22.2-.22h.13a4.75,4.75,0,0,1,2.34,4.06v3.87c0,.23,0,.24-.23.24h-.51C46.31,102,46.3,102,46.3,101.72Z"/><path class="cls-12" d="M46.3,114.51v-3a3.7,3.7,0,0,1,2.2-3.23,3.7,3.7,0,0,1-2.2-3.22v-3c0-.18,0-.19.22-.19H47c.22,0,.23,0,.23.19v3a3.75,3.75,0,0,0,.47,1.8,3.49,3.49,0,0,0,1.14,1.21c.09.07.1.07.1.2s0,.13-.1.2a3.56,3.56,0,0,0-1.61,3v3c0,.18,0,.19-.23.19h-.51C46.31,114.7,46.3,114.69,46.3,114.51Z"/><path class="cls-12" d="M44.59,122.67c0-.17,0-.18.11-.27a4.61,4.61,0,0,0,1.6-3.59V115c0-.23,0-.24.22-.24H47c.22,0,.23,0,.23.24v3.86a4.76,4.76,0,0,1-2.34,4.07h-.13C44.59,122.88,44.59,122.87,44.59,122.67Z"/><path class="cls-12" d="M44.12,142.59v-3.86a5.05,5.05,0,0,0-.47-2.16,4.26,4.26,0,0,0-1.2-1.5s0,0,0-.19,0-.22.2-.22h.13a4.75,4.75,0,0,1,2.34,4.07v3.86c0,.23,0,.24-.23.24h-.51C44.13,142.83,44.12,142.82,44.12,142.59Z"/><path class="cls-12" d="M44.12,145.48v-2.4c0-.23,0-.24.22-.24h.51c.22,0,.23,0,.23.24v2.4c0,.23,0,.24-.23.24h-.51C44.13,145.72,44.12,145.71,44.12,145.48Z"/><path class="cls-12" d="M44.12,148.36V146c0-.23,0-.24.22-.24h.51c.22,0,.23,0,.23.24v2.4c0,.23,0,.24-.23.24h-.51C44.13,148.6,44.12,148.59,44.12,148.36Z"/><path class="cls-12" d="M44.12,151.24v-2.4c0-.23,0-.24.22-.24h.51c.22,0,.23,0,.23.24v2.4c0,.23,0,.24-.23.24h-.51C44.13,151.48,44.12,151.47,44.12,151.24Z"/><path class="cls-12" d="M44.12,154.12v-2.4c0-.23,0-.24.22-.24h.51c.22,0,.23,0,.23.24v2.4c0,.23,0,.24-.23.24h-.51C44.13,154.36,44.12,154.35,44.12,154.12Z"/><path class="cls-12" d="M44.12,166.9v-3a3.7,3.7,0,0,1,2.2-3.23,3.69,3.69,0,0,1-2.2-3.22v-2.95c0-.18,0-.19.22-.19h.51c.22,0,.23,0,.23.19v3a3.76,3.76,0,0,0,.47,1.81,3.59,3.59,0,0,0,1.14,1.21c.09.06.1.06.1.19s0,.13-.1.2a3.56,3.56,0,0,0-1.61,3v3c0,.18,0,.19-.23.19h-.51C44.13,167.09,44.12,167.08,44.12,166.9Z"/><path class="cls-12" d="M44.12,169.74v-2.4c0-.23,0-.24.22-.24h.51c.22,0,.23,0,.23.24v2.4c0,.23,0,.24-.23.24h-.51C44.13,170,44.12,170,44.12,169.74Z"/><path class="cls-12" d="M44.12,172.62v-2.4c0-.23,0-.24.22-.24h.51c.22,0,.23,0,.23.24v2.4c0,.23,0,.24-.23.24h-.51C44.13,172.86,44.12,172.85,44.12,172.62Z"/><path class="cls-12" d="M44.12,175.5v-2.4c0-.23,0-.24.22-.24h.51c.22,0,.23,0,.23.24v2.4c0,.23,0,.24-.23.24h-.51C44.13,175.74,44.12,175.73,44.12,175.5Z"/><path class="cls-12" d="M44.12,178.38V176c0-.23,0-.24.22-.24h.51c.22,0,.23,0,.23.24v2.4c0,.23,0,.24-.23.24h-.51C44.13,178.62,44.12,178.61,44.12,178.38Z"/><path class="cls-12" d="M42.41,186.58c0-.17,0-.18.11-.27a4.59,4.59,0,0,0,1.6-3.58v-3.87c0-.23,0-.24.22-.24h.51c.22,0,.23,0,.23.24v3.87a4.75,4.75,0,0,1-2.34,4.06h-.13C42.41,186.79,42.41,186.78,42.41,186.58Z"/></g></g></svg>