<svg xmlns="http://www.w3.org/2000/svg" xmlns:xlink="http://www.w3.org/1999/xlink" viewBox="0 0 455.725 157.5"><defs><style>.cls-1,.cls-10,.cls-11,.cls-12,.cls-13,.cls-14,.cls-15,.cls-16,.cls-17,.cls-18,.cls-19,.cls-2,.cls-20,.cls-22,.cls-23,.cls-29,.cls-3,.cls-4,.cls-5,.cls-6,.cls-7,.cls-8,.cls-9{fill:none;}.cls-1,.cls-10,.cls-11,.cls-12,.cls-13,.cls-14,.cls-15,.cls-16,.cls-17,.cls-18,.cls-19,.cls-2,.cls-20,.cls-21,.cls-22,.cls-23,.cls-3,.cls-4,.cls-5,.cls-6,.cls-7,.cls-8,.cls-9{stroke-linecap:round;stroke-linejoin:round;}.cls-1,.cls-13,.cls-2,.cls-21,.cls-22,.cls-3,.cls-4,.cls-5,.cls-6,.cls-7{stroke-width:0.25px;}.cls-1{stroke:url(#linear-gradient);}.cls-2{stroke:url(#linear-gradient-2);}.cls-3{stroke:url(#linear-gradient-3);}.cls-4{stroke:url(#linear-gradient-4);}.cls-5{stroke:url(#linear-gradient-5);}.cls-6{stroke:url(#linear-gradient-6);}.cls-7{stroke:url(#linear-gradient-7);}.cls-11,.cls-12,.cls-16,.cls-17,.cls-20,.cls-21,.cls-22,.cls-8{stroke:#808285;}.cls-8,.cls-9{stroke-width:0.45px;}.cls-9{stroke:url(#linear-gradient-8);}.cls-10,.cls-18{stroke:#a7a9ac;}.cls-10,.cls-11,.cls-14,.cls-29{stroke-width:0.5px;}.cls-12{stroke-width:0.3px;}.cls-13,.cls-14,.cls-15{stroke:#939598;}.cls-15,.cls-16{stroke-width:0.75px;}.cls-17,.cls-18,.cls-19,.cls-23{stroke-width:0.65px;}.cls-19{stroke:url(#linear-gradient-9);}.cls-20{stroke-width:0.4px;}.cls-21{fill:#808285;}.cls-23{stroke:url(#linear-gradient-10);}.cls-24{font-size:10px;font-family:BaskervilleMTPro-Regular, Baskerville MT Pro;}.cls-24,.cls-30{fill:#231f20;}.cls-25{letter-spacing:-0.05em;}.cls-26{letter-spacing:-0.02em;}.cls-27{letter-spacing:-0.01em;}.cls-28{letter-spacing:-0.03em;}.cls-29{stroke:#231f20;stroke-miterlimit:10;}</style><linearGradient id="linear-gradient" y1="2.47" x2="146.25" y2="2.47" gradientUnits="userSpaceOnUse"><stop offset="0" stop-color="#a7a9ac"/><stop offset="0.23" stop-color="#acaeb1"/><stop offset="0.51" stop-color="#bcbec0"/><stop offset="0.51" stop-color="#bcbec0"/><stop offset="0.56" stop-color="#b9bbbd"/><stop offset="0.59" stop-color="#b0b2b4"/><stop offset="0.62" stop-color="#a0a2a5"/><stop offset="0.63" stop-color="#939598"/><stop offset="1" stop-color="#a7a9ac"/></linearGradient><linearGradient id="linear-gradient-2" x1="119.75" y1="11.67" x2="140.11" y2="11.67" gradientUnits="userSpaceOnUse"><stop offset="0" stop-color="#939598"/><stop offset="0.25" stop-color="#989a9d"/><stop offset="0.56" stop-color="#a7a9ac"/><stop offset="0.58" stop-color="#a4a6a9"/><stop offset="0.61" stop-color="#9b9da0"/><stop offset="0.62" stop-color="#8b8d90"/><stop offset="0.63" stop-color="#808285"/><stop offset="0.81" stop-color="#a7a9ac"/><stop offset="1" stop-color="#939598"/></linearGradient><linearGradient id="linear-gradient-3" x1="110.43" y1="8.44" x2="119.64" y2="8.44" xlink:href="#linear-gradient-2"/><linearGradient id="linear-gradient-4" x1="63.49" y1="13.83" x2="110.17" y2="13.83" xlink:href="#linear-gradient-2"/><linearGradient id="linear-gradient-5" x1="44.3" y1="12.47" x2="64.16" y2="12.47" xlink:href="#linear-gradient-2"/><linearGradient id="linear-gradient-6" x1="32.77" y1="13.29" x2="44.45" y2="13.29" xlink:href="#linear-gradient-2"/><linearGradient id="linear-gradient-7" x1="0.51" y1="8.88" x2="32.62" y2="8.88" gradientUnits="userSpaceOnUse"><stop offset="0" stop-color="#939598"/><stop offset="0.05" stop-color="#97999c"/><stop offset="0.31" stop-color="#a3a5a8"/><stop offset="0.56" stop-color="#a7a9ac"/><stop offset="0.58" stop-color="#a4a6a9"/><stop offset="0.61" stop-color="#9b9da0"/><stop offset="0.62" stop-color="#8b8d90"/><stop offset="0.63" stop-color="#808285"/><stop offset="0.81" stop-color="#a7a9ac"/><stop offset="1" stop-color="#939598"/></linearGradient><linearGradient id="linear-gradient-8" x1="86.02" y1="17.02" x2="100.51" y2="17.02" gradientUnits="userSpaceOnUse"><stop offset="0" stop-color="#808285"/><stop offset="0.04" stop-color="#838588"/><stop offset="0.27" stop-color="#8f9194"/><stop offset="0.49" stop-color="#939598"/><stop offset="0.74" stop-color="#909295"/><stop offset="0.92" stop-color="#87898c"/><stop offset="1" stop-color="#808285"/></linearGradient><linearGradient id="linear-gradient-9" x1="21.94" y1="16.37" x2="26.23" y2="16.37" gradientUnits="userSpaceOnUse"><stop offset="0" stop-color="#a7a9ac"/><stop offset="1" stop-color="#58595b"/></linearGradient><linearGradient id="linear-gradient-10" x1="15.61" y1="16.95" x2="21.81" y2="16.95" xlink:href="#linear-gradient-9"/></defs><g id="Layer_2" data-name="Layer 2"><g id="_12426_final" data-name="12426_final"><path class="cls-1" d="M.13.33S.65.18.82.15s.1,0,.46,0a4.24,4.24,0,0,1,.79,0c.29,0-.15,0,.64.19A18.23,18.23,0,0,0,6.07.42l3,.13c.52,0,2.2.16,2.74.22s.87.2,1.9.27,1.76.17,2.63.19a16.05,16.05,0,0,0,2.22,0A25.51,25.51,0,0,1,21.31.8,17.83,17.83,0,0,1,23.65.7a9.66,9.66,0,0,1,2.83.18c.9.25,1.1.27,2.39.57s1.12.29,2,.49a11.13,11.13,0,0,0,2.32.45c.77,0,2.25,0,2.82,0s3.17-.5,3.17-.5S41,1.41,41.5,1.26a12.11,12.11,0,0,1,2-.57,14,14,0,0,1,1.54-.3h1.42A6.45,6.45,0,0,1,48,.66c.46.11,1.22.3,1.68.43s1.11.3,1.65.41a19.66,19.66,0,0,0,2.5.19c.51,0,3.49-.35,3.77-.35S59.89,1,60.83,1,62.89.83,63.44.83h2.24a12.54,12.54,0,0,1,2.52.43c.77.17,1.67.27,2.26.48a13.65,13.65,0,0,0,2.3.44,23.77,23.77,0,0,0,3,.14c1.29,0,5.39-.32,6-.3s4.19-.21,5.13-.19,3,.11,3.55.14,4.1.42,4.69.42,4.17.3,4.67.31l8.32.27s8.13.51,9.18.51,1.45.17,2.07.19,2.19.25,3.09.3,3.44.08,3.77.09,2.36.19,3.19.19a15.65,15.65,0,0,1,3.15.27,12.3,12.3,0,0,0,2.9.29c.94,0,2.46-.08,3.07-.16s2.67-.49,2.86-.47a8.35,8.35,0,0,1,1.33-.07c1.25,0,3.45.18,3.45.18"/><path class="cls-2" d="M140,12.09a2.35,2.35,0,0,0-.76.21c-.33.13-.48.13-.9.28s-.49.21-1,.36-.44.19-1.08.4l-1.18.38a2.89,2.89,0,0,1-1.16.23h-1.71a14.19,14.19,0,0,1-1.95-.08,2.76,2.76,0,0,1-.93-.4c-.4-.24-.74-.22-1-.57a3,3,0,0,0-1.16-.81c-.28-.08-.57-.25-1-.4s-1.54-.44-1.77-.53-1.65-.33-2.07-.52-1-.45-1.19-.58l-1.18-.67"/><path class="cls-3" d="M119.51,9.14a4.22,4.22,0,0,1-1.1-.45,8.29,8.29,0,0,0-1.54-.57,6.91,6.91,0,0,0-1.46-.34,14,14,0,0,0-2.07,0,8.91,8.91,0,0,0-.93.3,2.4,2.4,0,0,1-.84.21c-.42,0-1,0-1,0"/><path class="cls-4" d="M110.05,8.63a1.26,1.26,0,0,0-.64,0c-.21.06-.38.06-.55.34a4.68,4.68,0,0,0-.33.61,2.06,2.06,0,0,1-.32.63c-.3.45-.21.43-.63.74a2.27,2.27,0,0,1-.91.51,3.26,3.26,0,0,1-1.25.21,3.74,3.74,0,0,1-1.12-.15c-.38-.15-.76-.23-.87-.4a2.16,2.16,0,0,0-.46-.44.94.94,0,0,0-.72-.28,2.13,2.13,0,0,0-.93.34,3.12,3.12,0,0,0-.72.57,8.31,8.31,0,0,1-.57.8,4.16,4.16,0,0,0-1-1c-.65-.51-.86-1-1.52-1.29s-1.61-.87-2.07-1a18.34,18.34,0,0,0-2.62-.68c-.49,0-2.18.06-2.75,0a4.47,4.47,0,0,0-2,.34c-.51.25-1.19.51-1.25.59s-.66.19-.82.36-1,.82-1.1,1-.72.8-.87,1a11.43,11.43,0,0,1-1.37,1.19,4,4,0,0,0-1,.74,10.21,10.21,0,0,1-.74,1,8.25,8.25,0,0,0-.72,1,1.49,1.49,0,0,1-.55.69c-.47.41-.32.49-.8.49s-.81,0-1.12,0-.66,0-1,0a1.89,1.89,0,0,0-1,.36,3.33,3.33,0,0,0-.62.67,2.43,2.43,0,0,0-.36.72,1.91,1.91,0,0,1-.29.81c-.21.29-.11.48-.53.48a3.68,3.68,0,0,1-1.29-.42,7,7,0,0,0-.63-.38,6,6,0,0,0-.76-.19,4.57,4.57,0,0,1-1.14-.47,2.45,2.45,0,0,0-.78-.38c-.3-.08-.43-.12-.83-.25a2.94,2.94,0,0,0-.95-.27,2.41,2.41,0,0,1-.89-.11,2.16,2.16,0,0,0-.84-.21c-.28,0-1-.23-1.18-.23s-1,.06-1,.06"/><path class="cls-5" d="M44.43,11a2.45,2.45,0,0,1,.48-1c.24-.19.45-.66.66-.78A9.2,9.2,0,0,1,47,8.59c.32-.09.34-.19.53-.28s.21-.24.66-.22a2.6,2.6,0,0,0,1.07-.24c.32-.13,1-.51,1.25-.57a8.54,8.54,0,0,0,.87-.22,4.52,4.52,0,0,1,1.5-.23,7.88,7.88,0,0,1,1.9,0A4.86,4.86,0,0,0,56,7.17a1.67,1.67,0,0,1,.78.25,2.49,2.49,0,0,0,.63.36,2.49,2.49,0,0,1,.72.47c.23.17.38.12.51.46a2,2,0,0,1,.17.85.61.61,0,0,0,.35.65,4.76,4.76,0,0,1,.85.47,9.09,9.09,0,0,1,.93.63c.19.21,1.1,1.1,1.22,1.21a11.66,11.66,0,0,1,.72,1.31,4,4,0,0,1,.43,1.2,7,7,0,0,1,.29,1.31,1.32,1.32,0,0,0,0,1.16,5.61,5.61,0,0,0,.41.68"/><path class="cls-6" d="M44.32,12a1.57,1.57,0,0,0-.12.69,6.37,6.37,0,0,1-.34,1,2.48,2.48,0,0,1-.85.82c-.27.13-1.35.49-1.5.53a3.12,3.12,0,0,1-1,.31,2.47,2.47,0,0,1-1.12-.48c-.19-.13-.11-.17-.42-.17s-.74-.7-.85-.72-.23-.25-.42-.4-.61-.63-.78-.72-.38.13-.49-.19-.1-.42-.34-.51a1.44,1.44,0,0,1-.63-.36c-.19-.19-.21-.25-.51-.29s-.8-.19-1-.19h-1.1"/><path class="cls-7" d="M.63,10c.21.28.07.25.38.45s.17.25.62.25A3.83,3.83,0,0,0,3,10.49c.34-.15,1-.83,1.41-1.06a11.43,11.43,0,0,1,2-.91,15.46,15.46,0,0,1,1.75-.38A9.09,9.09,0,0,1,10.52,8a22.31,22.31,0,0,1,2.3.41A9.66,9.66,0,0,1,14.2,9c.52.25,1,.61,1.43.78a1.77,1.77,0,0,0,1.06.21,4.06,4.06,0,0,0,2-.72,21.66,21.66,0,0,1,1.86-1.14,7.37,7.37,0,0,1,2.07-.85c.4,0,1.24-.14,2.07-.17a10.43,10.43,0,0,1,2.89.22A15.49,15.49,0,0,1,30.17,8a5.63,5.63,0,0,1,1.33.86,14,14,0,0,1,1,1.14"/><path class="cls-8" d="M86.11,16.06c.3.11.3.24.53.19s.29-.23.78-.52.47-.47.87-.57.5-.32,1.07-.34.55-.15.93-.26a5,5,0,0,1,1.19-.25,1.65,1.65,0,0,0,.88-.1c.41-.15.15-.3.66-.26s.65-.17,1-.27a2.55,2.55,0,0,1,1-.21c.48,0,.44-.11.61,0a.44.44,0,0,1,.23.36c0,.1.08.23-.13.38s-.33.25-.46.25h-.13"/><path class="cls-9" d="M95.41,13.72a5.93,5.93,0,0,1,1.31.23,10.76,10.76,0,0,1,1.26.68,10.42,10.42,0,0,1,1,.7c.29.21.48.4.65.54a2.52,2.52,0,0,1,.49.87,3.21,3.21,0,0,1,.17.85,2.05,2.05,0,0,1-.21,1,2.26,2.26,0,0,1-.74.74A12.87,12.87,0,0,1,98,20a4.25,4.25,0,0,1-1.29.26c-.61,0-1.43.08-2,.08s-1.21-.17-2.43-.27a12.68,12.68,0,0,1-2.31-.47,13.73,13.73,0,0,0-1.69-.19c-.33,0-.65-.38-1.11-.76s-.83-.51-.85-.7a1.27,1.27,0,0,1,0-.55c.06-.16.32-.25.32-.25"/><path class="cls-10" d="M89.81,17.4a3.94,3.94,0,0,0,.61-.38,3,3,0,0,1,1-.55,3.3,3.3,0,0,1,.81-.21.85.85,0,0,1,.76.33c.21.24.23.3.12.7a2,2,0,0,1-.82,1,1,1,0,0,1-.59.09.7.7,0,0,1-.38-.28c-.07-.08-.32-.42-.32-.42"/><path class="cls-10" d="M93.36,15.75H93a.4.4,0,0,0-.34.15c-.09.1-.42.22-.4.36"/><path class="cls-11" d="M95.11,16.25s.42.05.49.22a1.09,1.09,0,0,1,.12.55c0,.33-.17.35,0,.57a2.11,2.11,0,0,1,.28.5h.12"/><path class="cls-10" d="M96.12,16.26a4.85,4.85,0,0,1,.81.29c.4.13.95.38,1,.62a1.15,1.15,0,0,1-.42.73,6.68,6.68,0,0,1-.78.64c-.24.1-.52.25-.83.36a5.29,5.29,0,0,0-1,.38,4.57,4.57,0,0,1-.64.29,5.25,5.25,0,0,0-.76.61"/><path class="cls-12" d="M72.34,20l.44-.19c.13-.07.16-.22.46-.28s1,.07,1.15,0,.61.23.61.23l.15.24"/><path class="cls-13" d="M74.7,19a2.92,2.92,0,0,1,.76,0c.43.07.36,0,.62.19s.33.15.35.36a2.19,2.19,0,0,1,0,.47"/><path class="cls-13" d="M75.48,20.69c.11,0,0-.15.38-.29a4.78,4.78,0,0,1,1-.36,5.46,5.46,0,0,1,.93,0"/><path class="cls-13" d="M78.23,19.8c.11,0,0,.07.34.09s.38,0,.65,0,.26-.24.62,0,.29.12.55.41.27.25.35.47.15.4.15.4"/><path class="cls-12" d="M73,20.78a1.89,1.89,0,0,1,.79.1c.22.13.18.26.39.3s.15.08.32.15a.28.28,0,0,0,.25,0"/><path class="cls-13" d="M77.11,21.45c.11,0,.51,0,.8.11a3.07,3.07,0,0,1,.51.1c.25.09,0,.13.49.17s.59,0,.69.11.11.08.28.19.19.08.19.25a.79.79,0,0,1-.13.49,1,1,0,0,1-.38.46,1.35,1.35,0,0,1-.86.34c-.38,0-.47-.11-.62,0a1,1,0,0,1-.53.13"/><path class="cls-12" d="M76.82,23.18a.56.56,0,0,0-.38-.46,2,2,0,0,0-.66-.1,1.35,1.35,0,0,0-.46.14,1.21,1.21,0,0,1-.62.14,1.55,1.55,0,0,0-.48,0c-.15,0,0,0-.15,0"/><path class="cls-13" d="M72,22.62c0-.05-.09-.2.38-.2a2.14,2.14,0,0,1,.93.1,5.9,5.9,0,0,0,.56.2,1.41,1.41,0,0,1,.53.46"/><path class="cls-12" d="M72.82,24.11s.28-.06.34,0,.21.1.4,0a3.41,3.41,0,0,0,.51-.29c.21-.17.57-.26.63-.17"/><polyline class="cls-12" points="79.59 24.05 79.41 23.88 78.97 23.8"/><path class="cls-14" d="M81.13,24.05a.54.54,0,0,0-.39-.13,2.14,2.14,0,0,1-.38.06"/><path class="cls-13" d="M74.91,25c.13,0,.38.07.53,0s.23-.23.51-.29.15.06.68,0,1.18-.15,1.33-.15h.42"/><path class="cls-13" d="M81.46,24.3c-.33.15-.5.36-.72.41a3.74,3.74,0,0,0-.67.13c-.25.08-.3.22-.51.23a5.68,5.68,0,0,0-1.18.27c-.13.08-.51,0-.51,0"/><path class="cls-13" d="M61.52,23.35c.11,0,3,0,3,0"/><path class="cls-14" d="M44,17.52c0-.31-.14-.46.19-.74s.36-.51.43-.52"/><polyline class="cls-15" points="44.98 16.11 44.98 15.83 44.87 15.75"/><path class="cls-14" d="M45.76,15.44c0-.06.36-.34.46-.54s.45-.85.79-1,1.32-.49,1.81-.61a17.26,17.26,0,0,1,2.32,0A9.3,9.3,0,0,0,53.41,13a.84.84,0,0,1,.45,0"/><path class="cls-14" d="M54.69,13.08c-.12,0-.89-.21-.83-.33s.5-.32.5-.32a6.35,6.35,0,0,1,.87-.12c.29,0,.55.32.59.32s.1.06.1.06a1.57,1.57,0,0,0,.2.51,1.27,1.27,0,0,1,.21.34"/><path class="cls-14" d="M44.76,19.36a7.68,7.68,0,0,1,.4-1c.08-.26.47-1.45.6-1.73s.57-1.33.7-1.57a5.81,5.81,0,0,1,.8-1.09,2.43,2.43,0,0,1,.67-.38c.21-.05,1.06-.14,1.06-.14"/><path class="cls-14" d="M50.91,12.27h.51a1,1,0,0,0,.39-.13c.19-.09.3-.11.37,0a.33.33,0,0,0,.19.13"/><path class="cls-14" d="M56.33,14a1.62,1.62,0,0,1,.27.35,1.07,1.07,0,0,1,.18.54c0,.22,0,.29,0,.53a1.37,1.37,0,0,1-.13.67l-.08.12"/><path class="cls-14" d="M57,15.44a1.21,1.21,0,0,1,.18.5,1.86,1.86,0,0,0,0,.58,1.35,1.35,0,0,0,.17.49c.08.15.08.14,0,.36a2.76,2.76,0,0,1-.5.84c-.3.38-.5.67-.65.86a2,2,0,0,1-.75.7c-.36.17-.83.4-.89.41"/><path class="cls-14" d="M47.25,20.88s0-.09.6-.1,1.58,0,1.85-.09,1.86-.08,2.27-.08h.82"/><path class="cls-16" d="M45.76,19.79c-.49,0-.29-.12-.59.09a.61.61,0,0,0-.3.47"/><path class="cls-16" d="M46.68,20c-.1-.19-.26-.16-.26-.36s-.07-.49.13-.67a9.23,9.23,0,0,1,.7-.7,2.7,2.7,0,0,0,.62-.66c0-.08.12-.21.12-.21"/><path class="cls-16" d="M47.88,17.88a1.65,1.65,0,0,1,.49.08c.07.06-.11.24.13.22a.58.58,0,0,1,.49.07,1.57,1.57,0,0,1,.49.47,3.15,3.15,0,0,1,.22.49,2.14,2.14,0,0,1,.24.59c.1.35.22.68.22.68"/><path class="cls-16" d="M50.69,17c-.29,0-.51-.08-.67-.09s-.08.1-.32-.07-.58-.35-.22-.56.72-.53,1.05-.68.58-.42.84-.5.39-.29.6-.4a3.07,3.07,0,0,1,.49-.19"/><path class="cls-16" d="M51.08,17.31c.05-.41-.11-.43.18-.66a1.77,1.77,0,0,0,.54-.81,8.79,8.79,0,0,0,0-1"/><path class="cls-16" d="M52.14,18.45s.34-.27.46,0a1.14,1.14,0,0,0,.46.54c.21.13.4.29.57.37a.88.88,0,0,0,.6,0,.46.46,0,0,0,.21-.37c0-.19-.07-.58-.21-.65l-.53-.27a1.56,1.56,0,0,0-.62,0l-.13.24"/><path class="cls-12" d="M32,19c.21-.06.21-.27.81-.24s.68-.14,1.13,0a3.91,3.91,0,0,1,.85.24c.27.16.19,0,.54.21a5.17,5.17,0,0,0,.59.23.64.64,0,0,1,.31.35"/><path class="cls-17" d="M15.68,17.22c.2-.21.2-.31.46-.83a5.66,5.66,0,0,1,1.24-1.47c.25-.16,1.52-1.06,1.82-1.24a8.14,8.14,0,0,1,1.06-.54,3.3,3.3,0,0,1,.78-.27c.21,0,.11,0,.41-.09a4.16,4.16,0,0,0,.73-.19,5.86,5.86,0,0,1,.84-.12,4.39,4.39,0,0,1,.6.15.59.59,0,0,1,.27.25c0,.1.15.51,0,.67s-.46.35-.57.56a1.55,1.55,0,0,0-.16.74,1.81,1.81,0,0,1-.12.89,4.41,4.41,0,0,1-.59.53c-.21.2-.14.23-.43.45a7.38,7.38,0,0,0-.71.71"/><path class="cls-17" d="M24.07,13c.11,0,.61-.16.76-.08a.51.51,0,0,1,.3.34c.05.19-.06.44,0,.69a.74.74,0,0,1-.1.67,1.48,1.48,0,0,1-.41.38,3.41,3.41,0,0,1-.66.27.49.49,0,0,1-.29,0"/><path class="cls-18" d="M23.27,17a5.51,5.51,0,0,0,1.08-.09,1.28,1.28,0,0,0,.81-.29,3,3,0,0,0,.75-1,6.14,6.14,0,0,0,.19-1.11c0-.05-.29-.54-.48-.54a4.15,4.15,0,0,0-.93.48"/><path class="cls-19" d="M24.51,15.41a3.72,3.72,0,0,1,0-.61c0-.42-.14-.64.16-.67s.71-.13.84,0,.22,0,.3.36.17.38,0,.63-.17.34-.33.61-.29.46-.45.73a3.09,3.09,0,0,1-.54.77,8.11,8.11,0,0,1-1.06.79,11.44,11.44,0,0,1-1.17.65"/><path class="cls-17" d="M18.13,15.3c-.1.38-.77,1-1,1.27s-.76.74-.87.95-.37.46-.46.66-.89,1.18-.89,1.18"/><path class="cls-18" d="M20.45,14a3.37,3.37,0,0,0,.34,1.35c.09.43.25.68,0,1a1.38,1.38,0,0,1-.78.51c-.3.07-.79,0-.9-.27a1.87,1.87,0,0,1-.19-.44v-.19"/><path class="cls-17" d="M19.11,15c0,.22.11.15.16.42A5.33,5.33,0,0,1,19.11,17c-.11.2-.21,1.26-.3,1.39s-.19.48-.53,1a7.46,7.46,0,0,1-.58,1,1.77,1.77,0,0,1-.76.62,1.07,1.07,0,0,0-.61.43c-.22.28-.23.46-.39.36a.81.81,0,0,1-.38-.44c-.11-.25-.22-.76-.35-.84a2.09,2.09,0,0,1-.27-.21"/><path class="cls-17" d="M17.93,17.88a3.07,3.07,0,0,1,.51.19.75.75,0,0,0,.52.11c.23,0,.4-.25.51-.3s.06,0,.35-.06.22-.28.46-.3a3,3,0,0,0,.51-.1"/><path class="cls-18" d="M22.53,17.81a.64.64,0,0,0-.46.07,1.2,1.2,0,0,1-.32.16,1.21,1.21,0,0,0-.39.14c-.08.07-.13,0-.24.19a.59.59,0,0,1-.41.3,1.52,1.52,0,0,0-.72.55,5.64,5.64,0,0,1-.71.84c-.24.21-.54.27-.71.42a2.75,2.75,0,0,1-.9.26l-.25-.09"/><path class="cls-13" d="M31.53,20.35c.1,0,.21-.15.32-.08s0,.2.22.21.22-.14.58-.12a1.6,1.6,0,0,1,.7.12,5.28,5.28,0,0,1,.64.4"/><path class="cls-12" d="M28.74,22h2.08c.54,0,1.8-.08,2.2-.08s2.66-.22,2.66-.22"/><path class="cls-12" d="M29,23.35a5.94,5.94,0,0,1,1.25-.13c.65,0,1,.05,1.46,0a4.18,4.18,0,0,1,1.32.13,2.67,2.67,0,0,1,1,.33,9.47,9.47,0,0,0,.77.62"/><path class="cls-13" d="M36.9,21.79a.75.75,0,0,1,.64.21,1,1,0,0,1,.25.67,1.14,1.14,0,0,1-.18.54"/><path class="cls-13" d="M38.55,23.21c.09.06.47-.08.57.07s.16.18.46.18.28.08.46.09a5.53,5.53,0,0,0,.59,0"/><path class="cls-12" d="M29.41,24.44c.06,0,.12.18.3.14a2.55,2.55,0,0,1,.52-.06,4.64,4.64,0,0,0,.81-.08c.13-.05.38.06.59,0a1.63,1.63,0,0,1,.58,0c.14,0,.24-.06.25.16l0,.22"/><path class="cls-12" d="M35.08,25.12c.05,0,.81-.08,1-.12s.48-.26.65-.19a5,5,0,0,0,.84.15.81.81,0,0,1,.52.16c.13.15.26.29.26.38s-.18.24-.34.32l-.33.16a1.35,1.35,0,0,1-.28.09"/><path class="cls-14" d="M20.61,26.18a4.91,4.91,0,0,1,.81-.19c.27,0,1.17,0,1.62,0a7.39,7.39,0,0,1,1.84.29c.25.09,1.42.7,1.67.84a15.33,15.33,0,0,1,1.21.95"/><path class="cls-14" d="M27,27.74s.82-.18,1.17-.22a3.71,3.71,0,0,1,1.46.22,9.59,9.59,0,0,1,.92.69,2.14,2.14,0,0,1,.55.7c.07.19.21.84.21.84"/><path class="cls-14" d="M19.28,29.56a4.06,4.06,0,0,1,.79-.43c.34-.11.94-.29,1.22-.39a14,14,0,0,1,2.17-.1,12.31,12.31,0,0,1,2.22.19c.51.13,1.48.49,1.94.63a15,15,0,0,1,2,1,9,9,0,0,1,1.08.87"/><path class="cls-11" d="M29.66,31.65c.11-.09.81-.65,1-.82a1.37,1.37,0,0,1,.76-.41,5.13,5.13,0,0,1,1.16-.18,1.35,1.35,0,0,1,.84.18c.28.17.26.17.5.53l.4.57c.09.15.36.26.44.53a2.74,2.74,0,0,1,.1.92,12.7,12.7,0,0,1-.32,1.88A12.09,12.09,0,0,1,34,36"/><path class="cls-11" d="M22.05,30.84c.16.1.27.21.92.21a7.31,7.31,0,0,1,2.14.46l1.37.76a5.16,5.16,0,0,1,1,1c.05.13.36.64.49.86s.35.4.4.54.23.08.23,1.17,0,1.19.11,1.35a5.56,5.56,0,0,1,.21.65s0,1.09,0,1.77-.19,2.08-.19,2.84,0,3.39,0,3.63-.31,6.24-.31,6.24"/><path class="cls-11" d="M28.76,34a5.75,5.75,0,0,0-.53,1.38,19.53,19.53,0,0,0-.46,2.09c-.06.54-.34,2.68-.34,3.4s-.32,3.17-.32,3.4-.22,2.21-.22,2.48-.07,2.19-.07,2.84-.17,3-.17,3.22v.6"/><path class="cls-11" d="M29.68,54a2.52,2.52,0,0,0-.92.74,3.11,3.11,0,0,0-.45,1c0,.32-.17,1.22-.17,1.84v2.15"/><path class="cls-11" d="M25.7,33.76c.27,0,.55-.19.81-.19s.79-.11,1,.19,1.28.47,1.25,1.14S28.5,38,28.5,38"/><path class="cls-14" d="M26.38,31.81c.14,0,.67,0,1,0a3,3,0,0,1,1.22.19,4.38,4.38,0,0,1,1,.59,1.69,1.69,0,0,1,.62.87,4.92,4.92,0,0,1,.28,1.17,4.17,4.17,0,0,1,0,1.12A5.21,5.21,0,0,0,30.44,37a6.88,6.88,0,0,0,.17.73"/><path class="cls-14" d="M27.08,26.75c.22,0,.74-.15,1.19-.19s1.44-.22,2-.22a13,13,0,0,1,2.43.41,15.87,15.87,0,0,1,2.47.88,15.16,15.16,0,0,1,1.61.93,1.92,1.92,0,0,1,.58.94,4,4,0,0,1,0,1.07"/><path class="cls-11" d="M33,29.45a4,4,0,0,1,1.2-.45c.37,0,1.67-.29,1.91-.26s1.94.28,2.07.35a9.5,9.5,0,0,1,.9.6,4.37,4.37,0,0,1,.75.71"/><path class="cls-13" d="M55.12,22.08c.37,0,.37.17.7,0a1.39,1.39,0,0,1,.86-.24,9.68,9.68,0,0,0,1.45,0"/><path class="cls-13" d="M51.83,23.35c.24.08.31.25.49.21s.44.06.63,0,.51-.09.54-.21l0-.11"/><path class="cls-20" d="M55.52,22.9a3.26,3.26,0,0,1,.65-.28,1.5,1.5,0,0,1,.78-.06,6.94,6.94,0,0,1,1,.34c.05.05,0,0,0,.34s-.14.43-.33.47"/><path class="cls-20" d="M60.59,23.21c-.05-.12,0-.32-.36-.41a1.71,1.71,0,0,0-.86-.09,6.91,6.91,0,0,0-.81.24,10.61,10.61,0,0,0-1.14.61"/><path class="cls-13" d="M59.69,23.8c.08.09.33.16.39.25s.19.11.21.33.08.13-.21.46a5.41,5.41,0,0,1-.39.43"/><path class="cls-20" d="M55.73,23.56a1.68,1.68,0,0,0-.54.32c-.24.2-.45.55-.64.65s-.31.4-.66.54a1.8,1.8,0,0,1-.78.2c-.41,0-.79-.05-1.11,0s-1.3.11-1.3.11"/><path class="cls-13" d="M56.28,25.27l.95-.31a8,8,0,0,1,1-.12c.12,0,.45-.12.58.23s.18.48.18.48"/><path class="cls-13" d="M61.81,25.93c0-.11,0-.24-.29-.24s-.45-.17-.74,0-.17.23-.47.24a4,4,0,0,1-.54,0"/><path class="cls-20" d="M59.39,26.69c-.15-.11,0,0-.24-.22s-.08-.17-.24-.21l-.16,0"/><path class="cls-20" d="M53.52,27H54a2.75,2.75,0,0,0,.84-.21,4.65,4.65,0,0,1,1.22-.14l1,.17"/><path class="cls-12" d="M51.4,28.21a2.35,2.35,0,0,1,.65,0c.28.07.76-.06,1,0s.67,0,1,0,.76-.05.81,0"/><path class="cls-11" d="M61,27c0,.36-.1,1.17-.1,1.17"/><path class="cls-11" d="M61.21,27.52a1.87,1.87,0,0,0-.9.11,2.23,2.23,0,0,1-.62.27,1.26,1.26,0,0,0-.51.28s.11-.06-.11-.13-.29-.22-.54-.06-.3.08-.4.22a.56.56,0,0,0-.09.26l-.1.47"/><path class="cls-11" d="M46.73,27.15a.88.88,0,0,1,.15.56c0,.14-.39.47-.47.65a1,1,0,0,1-.56.47,1.76,1.76,0,0,1-.66.11,4.87,4.87,0,0,0-.68,0"/><path class="cls-11" d="M43.64,27a2.7,2.7,0,0,1,.65.21,1.54,1.54,0,0,0,.53.26,3.51,3.51,0,0,0,.5.12.51.51,0,0,1,.52.22,2,2,0,0,0,.66.6,9.8,9.8,0,0,1,.92.41,1.5,1.5,0,0,1,.57.71,3.53,3.53,0,0,1,.18.92c0,.16.14.72,0,.86s.06.29-.29.29-.5,0-.68,0-.44.3-.44.3"/><path class="cls-11" d="M47.25,29.24a1.21,1.21,0,0,1,1-.5c.49,0,1.32-.15,1.7-.15A2.09,2.09,0,0,1,51,29a1.46,1.46,0,0,1,.45.67,2.84,2.84,0,0,1,.13.95v.87"/><path class="cls-11" d="M49.34,28.83a2,2,0,0,1,.92.43,1.18,1.18,0,0,1,.54.58,6.54,6.54,0,0,1,.3.84,2.1,2.1,0,0,1,.09.37"/><path class="cls-14" d="M51.4,29.15c.11,0,.48-.18.67,0a4.48,4.48,0,0,1,.61.62c.16.22.67.55.84.74a5.54,5.54,0,0,1,.54.7,1.31,1.31,0,0,1,.27.6,1.67,1.67,0,0,1,0,.74,1.24,1.24,0,0,1-.93.59c-.46.08-1.37,0-1.65,0a1.51,1.51,0,0,1-.56-.06"/><path class="cls-11" d="M55.52,33.17a4.41,4.41,0,0,0,.76-1.33,12.84,12.84,0,0,0,.19-1.44,2.22,2.22,0,0,0-.19-.71,1,1,0,0,0-.44-.57c-.15-.13-.62-.1-1-.1a.74.74,0,0,0-.61.25,2.57,2.57,0,0,1-.39.3"/><path class="cls-11" d="M54.08,30.05a2.3,2.3,0,0,1,.76,0,6.18,6.18,0,0,0,1,.08h.89"/><path class="cls-11" d="M55.73,29.49a2.21,2.21,0,0,1,.66-.55,5.22,5.22,0,0,1,1.25-.2h.91"/><path class="cls-14" d="M35.49,25.78c.11.17.48.09.94.16s.31.12.77.29a8.56,8.56,0,0,0,1.19.45c.4.09.76-.08,1.2.25s1.83,1.1,2.11,1.25a3.63,3.63,0,0,1,1.08.88,3.89,3.89,0,0,1,.3,1,3.42,3.42,0,0,1,0,.62"/><path class="cls-11" d="M37.22,28.24c.28-.12.32-.28.68-.28s1.62-.11,1.87-.16a19.35,19.35,0,0,1,2.15.22,3,3,0,0,1,1.3.57c.3.24.68.76.84.9a1.13,1.13,0,0,1,.34.91c0,.54,0,1.71,0,1.71"/><path class="cls-11" d="M37.35,27.21c-.21-.09-.21-.34-.45-.35h-.47l-.54.09"/><path class="cls-14" d="M30.52,32.11a3.62,3.62,0,0,1,.74.08c.3.05.73.76.81.93a4.61,4.61,0,0,1,.19,1.08c0,.4.24.52,0,.95a4.44,4.44,0,0,1-.51.73"/><path class="cls-14" d="M32.56,34.22a9.78,9.78,0,0,1-.3,2.64,10.51,10.51,0,0,0-.41,2.38c0,.29-.86,6.16-.91,6.37s-.3,1.19-.61,3.22-1,6.43-1,6.43.11-.68,0,.08l-.11.76"/><path class="cls-11" d="M34.07,34.85c-.12.1-.42.35-.77,3S32,45.42,31.88,45.88a2.34,2.34,0,0,0-.21.84c0,.38-.33,3.77-.35,4.09s-.42,3-.42,3.61-.07.38-.1,1.13a3.7,3.7,0,0,1-.14,1.07"/><path class="cls-14" d="M33.54,56.29a29.92,29.92,0,0,1-.27,3.23c-.16.83-.25,1.22-.31,1.52a2.58,2.58,0,0,1-.27.89.66.66,0,0,1-.33.25"/><path class="cls-11" d="M33.3,31.94a10.91,10.91,0,0,1,1.38-.72l1.46-.49a9.66,9.66,0,0,1,1.71-.16,7.39,7.39,0,0,1,1.73.37,5.49,5.49,0,0,1,1.09,1.17,2.64,2.64,0,0,1,.53,1.06A9.81,9.81,0,0,1,41.31,35"/><path class="cls-11" d="M37.22,32.35c.16-.08.55-.51.85-.68a3.86,3.86,0,0,1,1.08-.56c.29,0,1.4-.46,1.74-.44a17.33,17.33,0,0,0,1.78,0c0-.05,1.28.09,1.41.09a5.13,5.13,0,0,1,1.36.75,5.15,5.15,0,0,1,1,1.52,8.17,8.17,0,0,1,.41,2.33c-.08.39-.13.92-.27,1.41a2.3,2.3,0,0,1-.62,1,3,3,0,0,0-.3.11"/><path class="cls-14" d="M40.51,30.84c.13.1.74.54.8.57a2,2,0,0,1,.52.24c.27.19.36.21.62.38s.22.3.44.38.46.11.59.27a6,6,0,0,0,.63.6,2,2,0,0,1,.4.75,3.28,3.28,0,0,1,.06.92c0,.14-.13.3-.17.41a3.92,3.92,0,0,1-.13.52,6,6,0,0,0-.17.89"/><path class="cls-14" d="M40.51,34.27c0,.26-.11.22-.15.58s0,.32,0,.71.11.39,0,.64a2.5,2.5,0,0,0-.4.81,4.77,4.77,0,0,0-.25,1c0,.4,0,.59,0,1s.16.87.16,1.27,0,.62,0,1a8.24,8.24,0,0,0,.16,1"/><path class="cls-11" d="M36.9,33.17s-.28,0-.47.49-.37.51-.37,1V37c0,.51.26,4.18.16,4.61s-.33,3.82-.33,3.82-.43,3.33-.4,4a28.56,28.56,0,0,1-.41,4l-.6,2.66"/><path class="cls-11" d="M39.1,34.27a8.82,8.82,0,0,1-.55,1.48,7.1,7.1,0,0,0-.43,2,11.19,11.19,0,0,1-.33,2.52,35.88,35.88,0,0,0-.57,4.34c0,.47-.67,4-.79,4.66a26.39,26.39,0,0,0-.54,3.77,17.17,17.17,0,0,1-.4,2.82"/><path class="cls-14" d="M39.85,44.18a9.37,9.37,0,0,1,0,1.27c.14.35.26.1.25.89a6.3,6.3,0,0,1-.25,2.38,7.34,7.34,0,0,0-.4,2c-.09.82-.16,2.76-.16,2.76"/><path class="cls-14" d="M39.29,55.31c-.28.31-.34.19-.53,1a11.31,11.31,0,0,0-.21,1.49,7,7,0,0,1-.25,1.71,5.56,5.56,0,0,1-.65,1"/><path class="cls-11" d="M42.72,31.05c0,.59-.38,1.76-.38,2.76s-.67,8.57-.67,9.33-.19,4.4-.25,5.67,0,3-.11,3.55.11,1.62,0,2-.24,1.08,0,1.36a2,2,0,0,1,.36.87"/><path class="cls-11" d="M42.55,37.77s-.63-.46-.88.11a12.79,12.79,0,0,0-.36,3.72c.11.65-.12,3.73-.14,4.45s-.54,3.43-.54,4.12-.94,5.58-1,6.12-.49,1.81-.49,1.81"/><path class="cls-14" d="M46.52,32.11s-.35,3.33-.38,3.9-.57,5.59-.57,5.59,0-.52,0,.84a27.5,27.5,0,0,1-.51,4.28c-.19,1.3-.41,5.17-.47,5.51a5.18,5.18,0,0,0-.19,1.56,6.13,6.13,0,0,0,.19,1.39"/><path class="cls-14" d="M45.13,56.1c.19.32.38.14.33.69s0,1,0,1.69-.27,2.34-.33,2.6a1.24,1.24,0,0,1-.2.41"/><path class="cls-14" d="M49.34,31.94c-.1.58.06,4.64,0,5.83s-.19,4.26-.25,5-.26,3.74-.26,4.63a16,16,0,0,0,.26,2.28"/><path class="cls-14" d="M47.72,38.86c0,.82.07,4.77,0,5.77s-.31,6.84-.34,7.38-.48,3.65-.49,4.09a2.36,2.36,0,0,1-.24.86"/><path class="cls-11" d="M46.83,32.62s.6-.16.92-.22.26.09.83,0a3.91,3.91,0,0,1,.85-.13,11.77,11.77,0,0,1,1.46,0c.38,0,.25.31.94.6a1.31,1.31,0,0,1,.85,1.4,11.27,11.27,0,0,1,0,2.25,18.07,18.07,0,0,1-.85,2.34A8.35,8.35,0,0,1,51.19,40"/><path class="cls-11" d="M51.83,38.13c.07.58-.49,4.22-.43,5.23s-.82,5.61-.82,6.37-.27,2.12-.31,2.76S50,56.62,50,56.62"/><path class="cls-14" d="M50.7,54.36a10.79,10.79,0,0,0,0,2.26,11.78,11.78,0,0,1,0,2.62,11.39,11.39,0,0,1-.43,1.9"/><path class="cls-11" d="M55.33,36.58c-.29-.16-.95.22-.95.44s-.38.59-.3,1.26-.08,2.13,0,3.18a27.42,27.42,0,0,1,0,5.39c-.27,1.8-.56,6-.56,7.25v2.69"/><path class="cls-11" d="M55.52,32.25A7.84,7.84,0,0,1,56,34.42c0,.95-.69,5.72-.81,6.41s-.52,3.67-.58,4.5-.19,3.48-.14,4.24A25.55,25.55,0,0,0,54.7,54c.31,1.23.45,1.71.45,1.71l0,.22"/><path class="cls-14" d="M54.84,53.28s-.24,2.44-.24,3a11.27,11.27,0,0,1-.22,1.63c-.06.49-.29,1.44-.3,1.71a5.12,5.12,0,0,0,0,.59"/><path class="cls-11" d="M51.75,33.14a11.75,11.75,0,0,0,1.46-.21,15.09,15.09,0,0,1,1.63-.17,12.22,12.22,0,0,1,2.3.41c.44.18,1.1.33,1.26.64s.61.52.67,1.14,0,1.36,0,1.59-.54.45-.52.83S58.34,42,58.34,43s-.42,4.85-.4,5.52-.42,4.15-.46,4.88-.25,3.45-.34,3.83-.19.83-.19.83"/><path class="cls-11" d="M59.77,35.28c-.07.6-.1,4-.2,5s-.82,8.21-.91,8.56-.7,4.91-.72,5.33-.27,1.2-.3,1.74,0,1.39,0,1.39"/><path class="cls-14" d="M61.21,44.63a2.16,2.16,0,0,0-.42.22,2.91,2.91,0,0,0-.64,1.58c-.1.73-.38,3.87-.38,4s-.45,3.23-.38,3.9.09,4.18,0,4.88-.28.54-.3,1,0,1.27,0,1.27"/><path class="cls-11" d="M62.3,36c0,.22,0,2.5,0,3.58s0,3.61,0,4.59-.47,5-.49,5.77-.43,3.36-.43,4.22-.59,5.07-.59,5.07"/><path class="cls-14" d="M57.63,31.64a7.1,7.1,0,0,0,1.07-.13,4.79,4.79,0,0,1,1.44-.19,4.46,4.46,0,0,1,1.41.19,2.47,2.47,0,0,1,.91.6c.13.13.35.16.22.65l-.13.49"/><path class="cls-11" d="M61,33.47a2.93,2.93,0,0,1,.53.19c.37.16.64.13.76.33s.72.75.75,1a.64.64,0,0,0,.16.33"/><path class="cls-11" d="M69.15,37.05c-.13,0-.38.35-.48.72s-.54,2.85-.6,3.06-.41,4.72-.48,5.1S67,53.6,67,54a8.82,8.82,0,0,1-.25,1.64,4.92,4.92,0,0,0-.26,1.17,11.28,11.28,0,0,0,0,1.43,4.32,4.32,0,0,1,0,1.43c-.1.28-.32,2.22-.32,2.34v.35"/><path class="cls-11" d="M62.87,29.94c.48.3.89.52,1.11.63a1.4,1.4,0,0,1,.7.75,2.66,2.66,0,0,1,.25,1.3c0,.73.19,1.27,0,1.6a3.24,3.24,0,0,1-.85,1.06c-.26.09-.73.19-.86.35a1.71,1.71,0,0,0,0,1.14,2.13,2.13,0,0,0,.44.28l.51-.28"/><path class="cls-14" d="M59.89,29.49c.07.56-.41.4.07.56s1.07.06,1.42.19a3.85,3.85,0,0,1,1,.6,1.78,1.78,0,0,1,.66,1c0,.22,0,.6,0,1a1.29,1.29,0,0,1-.22.74"/><path class="cls-14" d="M69.91,36.54c0,1.18-.29,2.73-.29,3.59s-.32,3.8-.32,4.75c0,0,0,1.11,0,1.4s-.12.6-.15.88-.1.16,0,.46a2.38,2.38,0,0,1,.09.75c0,.22-.16,0-.14.44a4.05,4.05,0,0,0,.17.92"/><path class="cls-14" d="M71.36,36a12.1,12.1,0,0,1,.23,1.2,15.77,15.77,0,0,1,0,2.92c-.1.54-.29,2.72-.45,3.52s-.35,3.32-.63,4.26a17,17,0,0,0-.35,1.82c-.13.44-.38,3.2-.44,3.55s-.63,4.47-.63,4.47"/><path class="cls-11" d="M64.42,32.28a8.58,8.58,0,0,1,1.18-.77,2.15,2.15,0,0,1,1-.2,1.63,1.63,0,0,1,1.09.49c.27.22.62.78.84,1a4.76,4.76,0,0,1,.61.74"/><path class="cls-11" d="M74.31,36A.85.85,0,0,0,74,35.5c-.25-.13-.69-.09-1-.22a10.79,10.79,0,0,0-2.06,0H69.3a9.57,9.57,0,0,0-1.77.34,10.45,10.45,0,0,1-1.71.39,46.42,46.42,0,0,1-.44,6.05c-.23,1.3-.58,6.69-.64,7.16s-.32,1.43-.38,1.78-.25,3.42-.32,4.18-.38,4-.47,4.41a4.08,4.08,0,0,0,0,1.14"/><path class="cls-11" d="M67.34,31.32s.73-.48,1-.65,1.7-.56,2.09-.73a1.68,1.68,0,0,1,.89-.24c.41,0,1-.06,1.27.32s.22.41.41.65a1.72,1.72,0,0,1,.35.64c0,.1-.19.8-.19.8"/><path class="cls-11" d="M66.9,29.32s.41-.73.85-.73.64-.37,1.4-.38,1.58-.25,1.8,0,.22.29.51.4.73.25.82.42.32.64.32.64l.41.54a1.84,1.84,0,0,0,.29.43c.12.11.38.17.31.38a.55.55,0,0,1-.15.27"/><path class="cls-11" d="M69.15,30.57c.34.05.47.27.6.92a4.71,4.71,0,0,1-.25,1.76"/><path class="cls-14" d="M73,27.79s.39.31.75.67.86.47.94.65a6.33,6.33,0,0,0,.59.83c.16.17.42.2.61.63s.41.62.44.94a8.17,8.17,0,0,1,0,.89"/><path class="cls-11" d="M66.9,35.6c.19-.23.76-.73,1.17-1.22a13.32,13.32,0,0,1,2-1.26,5.14,5.14,0,0,1,1.87-.72,15.66,15.66,0,0,0,2-.29,8.78,8.78,0,0,1,1.71.17,11.92,11.92,0,0,0,1.21.48,1.9,1.9,0,0,1,1.05.94c.28.41.52.41.51,1.15s0,1.16,0,1.41"/><path class="cls-14" d="M70.89,33.17a2.41,2.41,0,0,0,.38-.77s-.25-.76-.41-1.08-.45-.22-.79-.27-.23-.56-.29-.81-.7,0-.86-.26-1-.21-1.28-.41-.4-.25-.46-.63-.54-.38-1-.48-.92-.44-1.3-.41-.35-.41-.61-.54"/><path class="cls-11" d="M78.05,32.11c-.06.38.32,4,.16,4.94s-.26,2.16-.34,2.73-.33,3.11-.45,3.52-.45,2.37-.54,3-.24,1.55-.23,1.56-.53,2.87-.56,3.32-.42,2.82-.42,3.2-.09,2.6,0,3.1a13.75,13.75,0,0,1,.13,1.59"/><path class="cls-11" d="M72.51,34.27a2,2,0,0,0,.91.11,7.26,7.26,0,0,1,1.28.17,3.49,3.49,0,0,1,.93.23c.3.15.49.28.49.5v.44"/><path class="cls-14" d="M75.93,39.21c-.1,0-.41-.13-.45,0s-.19,1.81-.22,2.22S75,43.3,75,43.84s-.31,2-.3,2.44-.43,2.53-.37,3.42-.25,3.42-.25,3.93-.35,4.47-.35,4.47v.25"/><path class="cls-11" d="M74.31,36.9s-.22,2.37-.25,4.12a34.56,34.56,0,0,1-.76,5.26c-.13.5-.92,4.81-1,5.51s-.46,2.63-.59,3.77a21.79,21.79,0,0,0-.14,2.79v1.2"/><path class="cls-14" d="M74.68,37.59a46.55,46.55,0,0,1-.37,4.85c-.25.73-.41,3.36-.6,3.84a18.32,18.32,0,0,0-.41,3.2c0,.47-.29,3.11-.29,3.58s-.73,3.56-.73,3.56"/><path class="cls-14" d="M78.11,54.36v1.39a8,8,0,0,1-.38,2,5.6,5.6,0,0,0-.28,1.61v1.18"/><path class="cls-14" d="M80.55,34.18a10.24,10.24,0,0,0-.19,1.54c0,.42.13.92.1,1.87s-.25,2.11-.38,3.24a21,21,0,0,0-.29,3.23c0,1.55.07,5.23,0,6.49a16.19,16.19,0,0,0-.19,2.89c.13.82.16,2.44.16,2.44"/><path class="cls-11" d="M74.31,27.63a2.53,2.53,0,0,1,.6-.42c.16,0,.8-.17,1-.06a5.2,5.2,0,0,1,.72.48c.32.23.55.31.61.83s-.06.93,0,1.37a2.14,2.14,0,0,1-.32,1.07l-.29.15"/><path class="cls-11" d="M86.25,36.54a10.08,10.08,0,0,0-.31-2.36,11.69,11.69,0,0,0-1.27-2.24c-.22-.21-1.45-1.73-1.87-1.84s-1.26-.48-1.67-.61A17.86,17.86,0,0,0,79,29a4.29,4.29,0,0,1-.74-.19,9.39,9.39,0,0,0-1.41-.24l-2.75.35"/><path class="cls-14" d="M81.82,36.26a6.19,6.19,0,0,0-.25-2.76,8.74,8.74,0,0,0-1.9-2.18c-.45-.22-1.76-1.2-1.8-1.22s-1.56-1.1-1.75-1-.54.14-.64,0a4.35,4.35,0,0,0-.78-.52"/><path class="cls-14" d="M83.85,33.47a18.15,18.15,0,0,1-1.58-1.19,2.8,2.8,0,0,0-1-.77c-.26-.1-1.1-.36-1.16-.42s-.33,0-.33,0"/><path class="cls-13" d="M106.64,20.92c.22,0,.69.26.85.26a2.36,2.36,0,0,1,1.17,0c.45.19.61.44.61.66v.32"/><path class="cls-13" d="M96.12,23.8c.66,0,.63-.17.95,0s1.07-.09,1.71-.09h1.33"/><path class="cls-13" d="M99.82,24.6a8.65,8.65,0,0,1,.89.24,12.72,12.72,0,0,0,2.19-.12"/><path class="cls-11" d="M100.29,22.53c.36.17,1.12-.14,1.34.16a2.22,2.22,0,0,1,.28.44"/><path class="cls-11" d="M108.12,22c-.34,0-.63-.06-1.36-.16s-1.3.1-1.74,0a5.07,5.07,0,0,0-1.65,0c-.41.1-.82.32-1,.32a3.41,3.41,0,0,0-.7.37"/><path class="cls-11" d="M108.12,23.12a1.05,1.05,0,0,1-.72.48,5.73,5.73,0,0,1-1.21,0,6.79,6.79,0,0,0-1.11,0h-1"/><path class="cls-13" d="M110.41,24.6c-.29-.16-1.3,0-1.65-.07s-1.55-.36-1.55-.36"/><path class="cls-13" d="M103.62,25.78s1.15-.35,1.46-.4.73-.05,1-.11.82-.29.82,0-.51.28-.41.35a13.89,13.89,0,0,0,1.61,0l1.93-.07"/><path class="cls-11" d="M79,27.79c.6.07,2.12-.07,2.73,0a22.69,22.69,0,0,1,3.45.32,29.39,29.39,0,0,1,2.92.83,4.57,4.57,0,0,1,2.12,1.4,10.12,10.12,0,0,1,1.14,1.76A16.26,16.26,0,0,1,92,33.82a3.3,3.3,0,0,1,.19,1.4,4.46,4.46,0,0,1-.38.79"/><path class="cls-11" d="M85.47,26.86a2.63,2.63,0,0,1,.63,0c.1.05,1.43-.16,1.68-.18s1.58,0,2,0a6.29,6.29,0,0,1,1.93.58c.19.19,1.12.66,1.53,1s.72.7.88.79a5.33,5.33,0,0,1,1,.68,12.4,12.4,0,0,0,1,.87,2.44,2.44,0,0,1,.88.92,7.11,7.11,0,0,0,.9,1.44c.21.23.27.34.56,1.25l.28.91v.32"/><path class="cls-11" d="M88.7,28.94a19.17,19.17,0,0,1,2-.2c.5,0,1.8.12,2.22.1s2.06.39,2.74.39a13.51,13.51,0,0,1,2.58.47,11,11,0,0,1,1.84.64,8.9,8.9,0,0,1,1.61,1,12.42,12.42,0,0,1,1.18,1.25,5.15,5.15,0,0,1,.95,1.61c.06.43.41,1.1.22,1.54l-.19.45"/><path class="cls-14" d="M83,30a13.19,13.19,0,0,1,1.49.05,12.47,12.47,0,0,1,2,.27,5.83,5.83,0,0,1,1.68.56c1,.42,1.11.29,1.3.8A2.07,2.07,0,0,1,89.59,33a5.38,5.38,0,0,1-.38.86,6.45,6.45,0,0,1-.51.76"/><path class="cls-14" d="M90.73,30.9a2.4,2.4,0,0,1,1.38.19,6.15,6.15,0,0,1,1.06.8A2.42,2.42,0,0,1,93.83,33a3.48,3.48,0,0,1,.29,1.21c0,.34-.48.82-.48.82"/><path class="cls-11" d="M95.69,28.11a3,3,0,0,1,.93-.34,5.09,5.09,0,0,1,1.93-.14,23.3,23.3,0,0,1,2.55.58,10.56,10.56,0,0,1,2.37.9c.63.4,1.93,1.13,2.5,1.46a11.76,11.76,0,0,1,1.58,1.32,3.89,3.89,0,0,0,.57.37,2.64,2.64,0,0,1,.8.91,4.32,4.32,0,0,1,.63,1,5.91,5.91,0,0,1,.29,1V36"/><path class="cls-14" d="M97.1,31.71a6,6,0,0,0,1,0c.75,0,.81,0,1,.18s.23,0,.7.22.73.41.79.65a3.08,3.08,0,0,1,.16.71c0,.19,0,.67-.19.8a.53.53,0,0,1-.29.11"/><path class="cls-14" d="M105.65,28.94a5.21,5.21,0,0,1,1.19-.2,2.43,2.43,0,0,1,1.11.2,4.61,4.61,0,0,1,1.13.77c.19.21.86.53,1,.86a4.92,4.92,0,0,0,.86,1.34,3.93,3.93,0,0,1,.73,1.26,3.67,3.67,0,0,1,.26,1,3.6,3.6,0,0,0,0,1c.09.44-.29,3.77-.32,4.62s-.16,3.43-.16,3.9v3.14c0,.22.29,3.9.29,4.21a19.19,19.19,0,0,0,.2,2.73,15.22,15.22,0,0,0,.43,1.61c.16.29.25.35.25.45s.32,0,.32,0"/><path class="cls-11" d="M103.62,27.11s1.24.2,2,.4a15.53,15.53,0,0,1,2.09.72,4.43,4.43,0,0,0,1.07.36c.52.1.36.38.74.35s.27.06.5.14.71.15.83.21.35-.14.64.2,1.71.88,1.77,1.08,1,.8,1.33,1.12a3,3,0,0,1,.89,1.25c.19.6.35.64.28,1.24a2,2,0,0,1-.41,1.23l-.73.6"/><path class="cls-11" d="M111.64,27.51a1.7,1.7,0,0,1,.83,0c.25.13.54.52.82.6s.57-.12.89.12.22.08.79.51,1.43.47,1.74.75,1.56.49,2.13,1.41a6.29,6.29,0,0,1,.79,1.36A4,4,0,0,1,120,33.7a5.29,5.29,0,0,1-.25,1.52,3.19,3.19,0,0,1-.23.5"/><path class="cls-11" d="M117.09,28.11c.1.17.76.13,1.3.29a3.18,3.18,0,0,1,.86.34,6.28,6.28,0,0,0,1.27.34c.47.12.6.13.82.41a9.14,9.14,0,0,0,1.24.85c.38.28.88.47,1,1s.35,1.11.19,1.44-.29.74-.38.9a.71.71,0,0,1-.48.29c-.12,0-.38-.45-.38-.45"/><path class="cls-14" d="M118.46,24.73s1,.41,1.83.65a19.47,19.47,0,0,1,3.17,1.48,10.25,10.25,0,0,1,1.9,1.25c.32.39,1.18,1.07,1.34,1.38s.44.69.6,1.08.47,2,.47,2"/><path class="cls-14" d="M122.54,28.23s1.68.61,2.16.88a10.84,10.84,0,0,1,1.81,1.46c.22.3,1.86,1.71,1.86,1.71"/><path class="cls-14" d="M119.79,31.89a10.07,10.07,0,0,1,1.87.39c.76.27,1.93.51,2.69.76s1.3.08,1.81.75a7.34,7.34,0,0,1,.76,1.93,7,7,0,0,1,.5,2.22v4.85s-.25,5.45-.22,6.15,0,1.27,0,2.37a24.26,24.26,0,0,0,.19,2.57"/><path class="cls-14" d="M124.38,36.17a2.19,2.19,0,0,1,.38,1.07,29.81,29.81,0,0,1-.19,4.22c-.12.66-.69,11-.77,11.28s0,3.18,0,3.18"/><path class="cls-14" d="M120.58,36.77s.19-.16.32.47.12,4.44.12,4.44l-.22,6.75-.57,8.75"/><path class="cls-14" d="M118.46,40.51a3.54,3.54,0,0,1,.31,1.3,19.66,19.66,0,0,1-.16,3.61c-.25,1.87-.82,4.82-.82,4.82l-.7,3.9"/><path class="cls-14" d="M116.3,35.72s.19.09.19.82-.51,8-.51,9-.15,2.66-.15,4.4.19,4.38.19,4.38"/><path class="cls-14" d="M108.63,35v6.43c0,1,.16,5,.13,6.19s.16,4.11.16,4.11.09,2.82.19,3a2.34,2.34,0,0,1,.17.41.51.51,0,0,0,0,.44,2.05,2.05,0,0,0,.27.51c.1.09.48.38.48.38"/><path class="cls-14" d="M104.12,34.38a7.61,7.61,0,0,1,.61,2.67c0,1.4.23,5,.23,5s.22,4.72.22,5.68.06,4.15,0,4.65a12.35,12.35,0,0,0,0,2.06,5.13,5.13,0,0,0,.22,1.27c.16.38.1.6.41,1l.57.7"/><path class="cls-14" d="M102.2,34a8.69,8.69,0,0,0-.41,1.46c0,.41-.35,3.42-.35,4.31s-.22,7.39-.22,7.39.22,6.55.16,6.77a4.11,4.11,0,0,0,.06,1.65c.16.73.38,1.36.54,1.39s.31.26.41.26a2.21,2.21,0,0,1,.37.09"/><path class="cls-14" d="M98.24,34c0,.82-.19,7.89-.19,9.32s.09,9.28.19,10a10,10,0,0,0,.28,2.19,2.77,2.77,0,0,0,1.18,2h.38"/><path class="cls-14" d="M95.32,33.66c0,.51.16,11.63.16,11.63l.21,6s.08,2.95.17,4,.29,2.09.29,2.14a1.77,1.77,0,0,0,.26.65.54.54,0,0,0,.4.25"/><path class="cls-14" d="M94.12,36.42a7.29,7.29,0,0,0-.22,1.3,11.8,11.8,0,0,1-.26,2c-.12.45-.38,1.62-.41,1.87s-.19,2.14-.35,3.08.1,2.83,0,3.34.1,2.39.1,2.84.48,1.84.49,2.25A8.38,8.38,0,0,0,94,54.93c.19.5.67,1.6.82,1.86s.48.7.67,1l.19.25h.43"/><path class="cls-14" d="M91.17,35.41s0,2.66,0,4-.28,5-.28,6.32v8.92c0,.7,0,2.51,0,3.11A3.18,3.18,0,0,0,91,59.24a4.72,4.72,0,0,0,.71,1.49c.13.16.64,0,.64,0"/><path class="cls-14" d="M88.32,33.66c0,.32.28,0,0,3.39s-.6,6.7-.64,7.58-.34,5.2-.31,6.59,0,2,0,2.41,0,1.17,0,2,0,1.08,0,1.59a2.87,2.87,0,0,0,.2,1.17,1.74,1.74,0,0,0,.34.29"/><path class="cls-14" d="M85.18,37.24a3.49,3.49,0,0,1-.25,1.49,10,10,0,0,0-.38,3.08c-.07,1.46-.16,6.87-.19,7.22s.09,3.49,0,4.41.11,2.06,0,3a8.5,8.5,0,0,0,.2,2.47c.06.38,0,.86.06,1.3a5.45,5.45,0,0,0,.14,1.27c.11.25.28.57.44.85a1,1,0,0,0,.4.41"/><path class="cls-14" d="M82.74,35.72s-.25,3.33-.25,4.25-.29,6.29-.29,6.7-.57,7.62-.57,7.69-.41,2.44-.41,3.39,0,.63,0,1.3-.19.6,0,1,.11.61.23.64.26.22.26.22"/><path class="cls-21" d="M17.21,2c-.27,0-.54,0-.57.15a.91.91,0,0,0-.08.39c0,.27-.14.26,0,.48s.19.32.29.38.2.16.36.09a.68.68,0,0,0,.33-.3.67.67,0,0,0,.16-.44.9.9,0,0,0-.1-.4A2.3,2.3,0,0,0,17.21,2Z"/><path class="cls-16" d="M32.77,7.47a8.51,8.51,0,0,1,.82-1c.13-.1,1-.9,1.25-1.11s.48-.35.7-.51a1.42,1.42,0,0,1,.85-.28c.27,0,.45.09.45.22s.08.22,0,.38a.77.77,0,0,1-.29.27"/><path class="cls-16" d="M37.61,5.22a3,3,0,0,1-.3.71,9.55,9.55,0,0,1-.65.84,3.47,3.47,0,0,1-.66.7l-.16.13"/><path class="cls-11" d="M60,4.59c.24-.07.25-.21.49-.11s.24.12.35.33a.74.74,0,0,1,.11.46V6.35"/><path class="cls-11" d="M69.18,5.79c-.41.29-.57.33-.68.56s-.13.19,0,.5-.06.42.29.61,1.13.36,1.53.52.81.27.9.33.71.13.86.22.63.22.87.37l.62.35a3.22,3.22,0,0,0-.62-.7c-.24-.14-.4-.63-.44-.75s0-.49-.17-.66-.39-.59-.48-.67a1.17,1.17,0,0,0-.7-.31c-.35,0-.3-.13-.46,0s-.19.08-.21.3a1.29,1.29,0,0,1,0,.28"/><path class="cls-22" d="M68.12,6.52c.29,0,.52-.08.92-.08h.55a3.83,3.83,0,0,1,.9,0,.71.71,0,0,0,.29,0"/><path class="cls-11" d="M68.94,11.2c0,.12.11.2.22.31s.16.14.19.29l0,.14s0-.21.16-.25.22-.15.35-.12.16,0,.25,0"/><path class="cls-11" d="M84.36,3.7c-.43.06-.41,0-.73.17s-.35.34-.52.34-.16-.22-.54,0-.37,0-.53.3-.2.19-.2.49a.77.77,0,0,0,.28.68,1.35,1.35,0,0,0,.62.14,2,2,0,0,0,.92-.52c.14-.21.32-.52.41-.63a1.16,1.16,0,0,0,.21-.37A2.06,2.06,0,0,0,84.36,3.7Z"/><path class="cls-11" d="M102,3.43a1.58,1.58,0,0,0-.57-.16,1.3,1.3,0,0,0-.92.16c-.28.24-.52.25-.66.59a1.24,1.24,0,0,0-.19.74c0,.32-.08.22.12.52s.35.54.64.54h1.2"/><path class="cls-11" d="M122.42,6.3a.56.56,0,0,0,.12-.4c0-.17.07-.28-.31-.3s-.38-.14-.54,0-.27.22-.29.46-.08.21,0,.54,0,.36.19.49.13.18.37.21a1.9,1.9,0,0,0,.59,0,2.86,2.86,0,0,0,.58-.34,4.45,4.45,0,0,0,.44-.36"/><path class="cls-11" d="M131.69,7.74c.08-.19.17-.14.23-.42s0-.53.16-.47.19,0,.38.16.16.25.37.28.2.1.43.1a1.76,1.76,0,0,0,.42,0l.11-.07"/><path class="cls-23" d="M21.48,14.49a15.63,15.63,0,0,0-1.09,1.14c-.19.26-.82,1-1.06,1.35a8.51,8.51,0,0,0-.54.82c-.11.22-.11.43-.3.54a1.42,1.42,0,0,1-.71.11c-.29,0-.18-.2-.64,0s-.35,0-.73.35S16,19,16,19.22l0,.2"/><text class="cls-24" transform="translate(158.59 20.69)"><tspan class="cls-25">N</tspan><tspan x="7.04" y="0">. W</tspan></text><text class="cls-24" transform="translate(132.74 41.6)"><tspan class="cls-26">v</tspan><tspan x="4.39" y="0">ertical sl</tspan><tspan class="cls-27" x="37.43" y="0">a</tspan><tspan x="42.02" y="0">ty</tspan><tspan x="0" y="12" xml:space="preserve">       lamin</tspan><tspan class="cls-28" x="40.42" y="12">æ</tspan><tspan x="46.38" y="12">.</tspan></text><line class="cls-29" x1="155.83" y1="18.04" x2="132.03" y2="25.21"/><polygon class="cls-30" points="134.4 22.83 134.7 23.23 132.08 25.19 135.35 25.38 135.32 25.88 130.68 25.62 134.4 22.83"/></g></g></svg>