<?xml version="1.0" encoding="utf-8"?>

<svg version="1.1" id="" xmlns="http://www.w3.org/2000/svg" xmlns:xlink="http://www.w3.org/1999/xlink"
	 x="0px" y="0px" viewBox="0 0 132.5 61.4" enable-background="new 0 0 132.5 61.4" xml:space="preserve">
<g id="_x31_3220F_x5F_a">
	<g id="XMLID_1_">
		<g>
			<path fill="#878787" d="M47,54.2l0.5-1l0.7-0.7c0,0,1.6-1.1,1.9-1.3c0.3-0.2,0.4-0.3,0.4-0.3L48.6,51l-1.8,0.4c0,0-1.9,0-2.2,0
				c-0.3,0-1-0.5-1.1-0.6c-0.1-0.1-0.5-1.4-0.5-1.6c0-0.2,0.2-1,0.3-1.2c0-0.2,0.2-0.3,0.3-0.5c0.2-0.2,0.5-0.4,0.7-0.7
				c0.2-0.3-0.2-0.3-0.2-0.3L43.4,46c0,0-0.9-0.6-1-0.7c-0.1-0.1-0.5-0.9-0.5-1c0,0,0-0.4,0-0.9l0.8,0c0,0.1,0.5,0.5,0.8,0.8
				C44,44.5,44.9,45,45,45c0.1,0.1,1.4,0.6,1.8,0.8c0.4,0.2,0.9,0.6,0.9,0.6l-0.1,0.9L47,47.6l-0.6-0.1c0,0-0.3,0.1-0.5,0.2
				c-0.2,0.1-0.8,0.6-1,0.8c-0.2,0.2,0.2,0.9,0.2,0.9s1.6,0.2,1.9,0.2s2-0.1,2.4-0.2c0.4-0.1,2.5-0.5,2.5-0.5s2.1-0.4,2.4-0.4
				c0.3,0,1.9-0.6,2.3-0.8c0.4-0.2,1.2-0.6,1.4-0.8c0.2-0.1,0.7-0.2,0.7-0.2l1.5,0.7l0.6,0.8c0,0-1.2,0.7-1.5,0.8
				c-0.3,0.1-1.9,0.8-2,0.9C57.2,50,55.1,51,55,51.1c-0.1,0.1-2.6,1.1-2.8,1.1c-0.2,0-1.6,0.9-2,1.1c-0.4,0.3-0.7,0.9-0.7,1.1
				c0,0.2,0.2,0.4,0.5,0.5c0.3,0,0.9-0.1,1.4-0.1c0.5-0.1,0.8-0.2,1.3-0.3c0.5-0.1,1,0,1.3,0.1c0.3,0.1,0.6,0.6,0.6,0.9
				c0,0.3-0.8,0.6-1,0.6c-0.1,0.1-0.6,0.7-0.6,0.9s0.2,0.5,0.5,0.6c0.3,0.1,0.6-0.2,0.9-0.2c0.3-0.1,1.7-1.8,1.7-1.9
				c0.1-0.1,2.5-2.4,2.9-2.9c0.4-0.5,1.3-1.8,1.7-2.2c0.4-0.4,0.9-1.4,0.9-1.6c0-0.2,1-1.2,1-1.2s0.3,0,0.5-0.1c0.1,0,0.2,0,0.3,0
				c0.1,0,0.6,0.7,0.6,0.7c0,0.1-0.2,0.6-0.2,0.8c0,0.2-0.2,1-0.2,1.1c0,0.1-1.8,2.2-1.8,2.2l-3.1,3.8l-3,2.9c0,0-2.2,1.5-2.5,1.7
				c-0.3,0.2-1.2,0.3-1.6,0.4c-0.5,0.1-1-0.2-1-0.2l-0.6-0.8c0,0,0-1,0-1.2c0-0.1,0.4-1.4,0.4-1.4l1.1-1.1h-0.9h-1.3
				c0,0-0.9-0.2-1.1-0.3c-0.1-0.1-0.8-0.8-0.9-1C47,54.9,47,54.2,47,54.2z"/>
			<path fill="#878787" d="M47.7,41.5l-3.5,0.1l-1.1,0.8c0,0-0.3,1-0.3,1.1l-0.8,0c0-0.5,0-0.9,0-1c0-0.2,0.5-1,0.6-1.1
				c0.1-0.1,1-1.1,1.2-1.1c0.2-0.1,1.3-0.5,1.7-0.6c0.4-0.1,1.6,0,1.7,0c0.1,0,2.5,0.5,2.7,0.5c0.2,0,3,0.7,3.1,0.8
				c0.1,0.1,2.4,1.4,2.4,1.4l1.9,1.4l2.2,0.3l1.3,0.2l0.5,1l4,0l5.7,0.9h4c0,0,7.1-0.4,7.6-0.5c0.5-0.1,3.4-1,4.1-1.3
				c0.6-0.3,3.2-1.8,3.8-2.3s2.9-3.1,3.2-3.4c0.3-0.3,2.3-3.8,2.6-4.5c0.3-0.7,1.5-5,1.5-5l1-6.5l0.9-7.8l0.5-5.1
				c0,0,0.3-9.1,0.3-9.2l1.2,0.3c0,0,0.6-0.1,0.8-0.2c0.2-0.1,0.7-0.3,0.7-0.3v8.4l-0.7,6.8l-0.8,4.9l-0.4,4.6l-0.7,3.5l-1.2,4.7
				l-1.9,4.4l-2.4,3.6l-2.1,2.3c0,0-3.5,2.7-3.6,2.7c-0.2,0-4.2,1.3-4.7,1.5c-0.5,0.2-3.4,0.7-4.1,0.7c-0.7,0-3.7-0.2-3.7-0.2
				s-4.1-0.3-4.4-0.3c-0.4-0.1-1.8-0.2-2.3-0.3c-0.5-0.1-2.2-0.4-2.7-0.5c-0.5-0.2-2.4-0.2-2.6-0.3c-0.1-0.1-1,0-1.6,0.1
				c-0.3,0-0.5,0.1-0.7,0.1C61.9,47,61.2,47,61.1,47c0,0,0,0,0,0c-0.2-0.1-0.6-0.7-0.6-0.7l-0.5-0.4c0,0-1.5-0.5-2.1-0.7
				c-0.7-0.2-1.1-0.5-1.8-0.8c-0.7-0.3-1.2-1.1-1.2-1.1l-2.5-1L47.7,41.5z"/>
		</g>
		<g>
			
				<path fill="none" stroke="#9D9D9C" stroke-width="0.5" stroke-linecap="round" stroke-linejoin="round" stroke-miterlimit="10" d="
				M62.9,46.8c0.6-0.1,1.5-0.2,1.6-0.1c0.2,0.1,2.1,0.2,2.6,0.3c0.5,0.2,2.2,0.4,2.7,0.5c0.5,0.1,1.9,0.2,2.3,0.3
				c0.4,0.1,4.4,0.3,4.4,0.3s3,0.2,3.7,0.2c0.7,0,3.6-0.5,4.1-0.7c0.5-0.2,4.5-1.5,4.7-1.5c0.1,0,3.6-2.7,3.6-2.7l2.1-2.3l2.4-3.6
				l1.9-4.4l1.2-4.7l0.7-3.5l0.4-4.6l0.8-4.9l0.7-6.8V0.3c0,0-0.5,0.2-0.7,0.3c-0.2,0.1-0.8,0.2-0.8,0.2l-1.2-0.3
				c0.1,0.2-0.3,9.2-0.3,9.2l-0.5,5.1l-0.9,7.8l-1,6.5c0,0-1.3,4.3-1.5,5c-0.3,0.7-2.3,4.2-2.6,4.5c-0.3,0.3-2.7,2.9-3.2,3.4
				s-3.1,2-3.8,2.3c-0.6,0.3-3.6,1.2-4.1,1.3c-0.5,0.1-7.6,0.5-7.6,0.5h-4l-5.7-0.9l-4,0l-0.5-1L59.4,44l-2.2-0.3l-1.9-1.4
				c0,0-2.2-1.3-2.4-1.4C52.8,40.8,50,40,49.8,40c-0.2,0-2.6-0.5-2.7-0.5c-0.1,0-1.3-0.1-1.7,0c-0.4,0.1-1.6,0.5-1.7,0.6
				c-0.2,0.1-1.1,1-1.2,1.1c-0.1,0.1-0.6,0.9-0.6,1.1c0,0.1,0,0.6,0,1c0,0.4,0,0.8,0,0.9c0,0.1,0.3,1,0.5,1c0.1,0.1,1,0.7,1,0.7
				l0.8,0.5c0,0,0.4,0.1,0.2,0.3c-0.2,0.3-0.6,0.4-0.7,0.7c-0.2,0.2-0.3,0.3-0.3,0.5c0,0.2-0.3,1-0.3,1.2c0,0.2,0.4,1.5,0.5,1.6
				c0.1,0.1,0.8,0.6,1.1,0.6c0.3,0,2.2,0,2.2,0l1.8-0.4l1.8-0.2c0,0-0.1,0.2-0.4,0.3c-0.3,0.2-1.9,1.3-1.9,1.3l-0.7,0.7l-0.5,1
				c0,0,0,0.6,0.2,0.8c0.1,0.2,0.8,1,0.9,1c0.1,0.1,1.1,0.3,1.1,0.3h1.3h0.9l-1.1,1.1c0,0-0.4,1.3-0.4,1.4c0,0.1,0,1.2,0,1.2
				l0.6,0.8c0,0,0.5,0.3,1,0.2c0.5-0.1,1.4-0.2,1.6-0.4c0.3-0.2,2.5-1.7,2.5-1.7l3-2.9l3.1-3.8c0,0,1.8-2.1,1.8-2.2
				c0-0.1,0.2-0.9,0.2-1.1c0-0.2,0.2-0.7,0.2-0.8c0-0.1-0.5-0.7-0.6-0.7c0,0-0.1,0-0.3,0c-0.2,0-0.5,0.1-0.5,0.1s-1,1-1,1.2
				c0,0.2-0.5,1.2-0.9,1.6c-0.4,0.4-1.3,1.7-1.7,2.2c-0.4,0.5-2.8,2.8-2.9,2.9c-0.1,0.1-1.4,1.8-1.7,1.9c-0.3,0.1-0.6,0.3-0.9,0.2
				c-0.3-0.1-0.5-0.4-0.5-0.6s0.5-0.8,0.6-0.9c0.1,0,0.9-0.3,1-0.6c0-0.3-0.3-0.8-0.6-0.9c-0.3-0.1-0.8-0.2-1.3-0.1
				c-0.5,0.1-0.8,0.2-1.3,0.3c-0.5,0.1-1.1,0.2-1.4,0.1c-0.3-0.1-0.5-0.2-0.5-0.5c0-0.2,0.3-0.8,0.7-1.1c0.4-0.3,1.8-1.1,2-1.1
				c0.2,0,2.7-1,2.8-1.1c0.1-0.1,2.2-1.1,2.3-1.1c0.1,0,1.7-0.8,2-0.9c0.3-0.1,1.5-0.8,1.5-0.8l-0.6-0.8l-1.5-0.7
				c0,0-0.6,0.1-0.7,0.2c-0.2,0.1-1,0.6-1.4,0.8c-0.4,0.2-2,0.7-2.3,0.8c-0.3,0-2.4,0.4-2.4,0.4s-2,0.4-2.5,0.5
				c-0.4,0.1-2.1,0.2-2.4,0.2s-1.9-0.2-1.9-0.2s-0.4-0.7-0.2-0.9c0.2-0.2,0.8-0.7,1-0.8c0.2-0.1,0.5-0.2,0.5-0.2l0.6,0.1l0.6-0.3
				l0.1-0.9c0,0-0.5-0.4-0.9-0.6c-0.4-0.2-1.7-0.7-1.8-0.8c-0.1,0-1-0.5-1.4-0.7c-0.4-0.3-0.8-0.7-0.8-0.8c0-0.1,0.3-1.1,0.3-1.1
				l1.1-0.8l3.5-0.1l4.6,0.8l2.5,1c0,0,0.5,0.7,1.2,1.1c0.7,0.3,1.1,0.6,1.8,0.8c0.7,0.2,2.1,0.7,2.1,0.7l0.5,0.4
				c0,0,0.4,0.6,0.6,0.7c0,0,0,0,0,0c0.1,0,0.8,0.1,1.1-0.1C62.4,46.9,62.6,46.8,62.9,46.8z"/>
		</g>
	</g>
	<g id="XMLID_2_">
		<g>
			<path fill="#878787" d="M2.3,47.8l1.4-0.6l1.2-0.6l1.9-0.5c0,0,1.2-0.1,1.6-0.1c0.4,0,1.7,0.4,1.7,0.4l1.2,0l0.8-0.1l0.7-0.3
				c0,0,0.9-0.2,0.9-0.3s0.8,0,0.8,0l0.9,0.2l1.7,0.8l1.6,0.7l1.9,0.6c0,0,1.7-0.2,1.8-0.2c0.1,0,1.4-0.4,1.5-0.4
				c0.1-0.1,1-0.6,1.3-0.9c0.3-0.3,0.5,0,0.5,0s0.8,0.3,0.9,0.3c0.1,0,2,0.4,2.3,0.5c0.2,0.1,1.7,0.1,2.4,0.2c0.7,0,1.3,0,2,0
				c0.7,0,1.3,0,1.8,0.1c0.5,0.1,1,0,1.2,0c0.1,0,0.8,0,0.8,0l0.5,0.5L37,48.4c0,0-1-0.1-1.2-0.1c-0.2-0.1-0.9,0-0.9,0h-1.4
				l-1.6,0.2l-1.7,0l-1.9-0.2c0,0-1.6-0.4-1.7-0.4c-0.1,0-0.9-0.3-0.9-0.3l-0.6,0.3c0,0-1.3,0.7-1.3,0.8c-0.1,0.1-1.9,0.4-1.9,0.4
				s-1.5,0.1-1.6,0.1c-0.1,0-1.2-0.3-1.2-0.3L17.6,48l-1.1-0.5l-1.3-0.3l-1-0.3h-0.4l-1.3,0.5c0,0-1.5,0.1-1.6,0.2
				c-0.1,0-1.8,0-1.8,0s-1.8-0.3-1.8-0.3s-1.7,0.2-2.1,0.3C4.8,47.7,3.8,48,3.5,48c-0.3,0.1-1.2,0.6-1.5,0.9c-0.2,0.2-1,0.7-1,0.7
				H0.3l0.1-0.5l0.7-0.7L2.3,47.8z"/>
		</g>
		<g>
			
				<path fill="none" stroke="#9D9D9C" stroke-width="0.5" stroke-linecap="round" stroke-linejoin="round" stroke-miterlimit="10" d="
				M2.3,47.8l-1.2,0.6l-0.7,0.7l-0.1,0.5h0.8c0,0,0.8-0.5,1-0.7c0.2-0.2,1.2-0.8,1.5-0.9c0.3-0.1,1.3-0.4,1.7-0.5
				c0.3-0.1,2.1-0.3,2.1-0.3s1.7,0.3,1.8,0.3s1.8,0,1.8,0c0.1,0,1.6-0.2,1.6-0.2l1.3-0.5h0.4l1,0.3l1.3,0.3l1.1,0.5l1.5,0.7
				c0,0,1.1,0.3,1.2,0.3c0.1,0,1.6-0.1,1.6-0.1s1.8-0.4,1.9-0.4c0.1-0.1,1.3-0.8,1.3-0.8l0.6-0.3c0,0,0.8,0.3,0.9,0.3
				c0.1,0,1.7,0.4,1.7,0.4l1.9,0.2l1.7,0l1.6-0.2h1.4c0,0,0.7-0.1,0.9,0c0.2,0.1,1.2,0.1,1.2,0.1l0.5-0.3L37,47.7c0,0-0.7,0-0.8,0
				c-0.1,0-0.7,0.1-1.2,0c-0.5-0.1-1.1-0.1-1.8-0.1c-0.7,0-1.3,0-2,0c-0.7-0.1-2.1-0.1-2.4-0.2c-0.2-0.1-2.1-0.5-2.3-0.5
				c-0.1,0-0.9-0.3-0.9-0.3s-0.2-0.3-0.5,0c-0.3,0.3-1.2,0.8-1.3,0.9c-0.1,0-1.4,0.4-1.5,0.4c-0.1,0-1.8,0.2-1.8,0.2l-1.9-0.6
				l-1.6-0.7L15.4,46l-0.9-0.2c0,0-0.7,0-0.8,0S12.8,46,12.8,46l-0.7,0.3l-0.8,0.1l-1.2,0c0,0-1.3-0.4-1.7-0.4
				c-0.4,0-1.6,0.1-1.6,0.1l-1.9,0.5l-1.2,0.6L2.3,47.8z"/>
		</g>
	</g>
	
		<path fill="#878787" stroke="#9D9D9C" stroke-width="0.5" stroke-linecap="round" stroke-linejoin="round" stroke-miterlimit="10" d="
		M48.3,52L46,52.6c0,0-1.3,0.6-1.4,0.6S43.2,54,43.2,54l-0.8,0.7l1.2-0.3c0,0,1.7-0.5,1.7-0.5c0,0,1.5-0.5,1.5-0.5h0.4l0.7-0.7
		L48.3,52z"/>
	
		<path fill="#706F6F" stroke="#9D9D9C" stroke-width="0.5" stroke-linecap="round" stroke-linejoin="round" stroke-miterlimit="10" d="
		M86,48.4h-0.8c0,0-0.4-0.1-0.6,0c-0.2,0.1-0.3,0.3-0.3,0.4s0.5,0.3,0.5,0.3s0.2,0,0.4,0c0.1,0,0.4-0.1,0.5-0.2
		C85.7,48.7,86,48.4,86,48.4z"/>
	
		<path fill="#878787" stroke="#9D9D9C" stroke-width="0.5" stroke-linecap="round" stroke-linejoin="round" stroke-miterlimit="10" d="
		M89.3,46.8c0,0,1.1,0.2,1.6,0.2c0.6,0,2.1-0.1,2.4-0.1s2,0.4,2,0.4l1.6,0.6l2.8,0.2c0,0,1.7,0.1,1.4,0.2c-0.2,0.1-1.7,0.5-2.4,0.5
		c-0.7,0-1.5-0.2-2.1-0.2s-1.2-0.2-1.9-0.3c-0.6-0.1-1.5-0.1-1.6-0.1s-1-0.1-1.2-0.1s-1.7-0.1-1.7-0.1s-0.8-0.2-0.8-0.3
		S89.3,46.8,89.3,46.8z"/>
	
		<path fill="#878787" stroke="#9D9D9C" stroke-width="0.5" stroke-linecap="round" stroke-linejoin="round" stroke-miterlimit="10" d="
		M105.1,47c0.3,0,1.5,0,1.7,0c0.3,0,1.7,0.4,1.8,0.4c0.1,0,1.3-0.1,1.4,0c0.1,0.1,1.5,0.2,1.7,0.2c0.2,0,1.2,0.1,1.4,0.2
		s1.2,0.3,1.2,0.3c0.1,0,0.8,0,0.8,0s0.7-0.2,0.7-0.3c0-0.1-0.2-0.5-0.5-0.5s-1,0-1.1,0s-0.7-0.3-1.3-0.3c-0.6,0-1.2,0-1.5,0
		s-1.3-0.1-1.6-0.2c-0.3-0.1-0.9-0.1-1.5-0.1s-1.4,0.1-1.5,0C106.9,46.6,105.1,47,105.1,47z"/>
	
		<path fill="#878787" stroke="#9D9D9C" stroke-width="0.5" stroke-linecap="round" stroke-linejoin="round" stroke-miterlimit="10" d="
		M116.9,52.6h2.3c0,0,1.6-0.6,1.9-0.8c0.3-0.1,2.9-1,2.9-1s1.7-0.6,1.8-0.6c0.1,0,2.3,0,2.3,0l3.1,0.3l1.2,0.3c0,0-0.1,0.3-0.6,0.3
		c-0.6,0-1.4,0-2-0.1c-0.6-0.1-2.3,0.1-2.9,0.2c-0.6,0.1-1.9,0.5-2.4,0.6c-0.6,0.1-2.5,0.6-2.9,0.8c-0.4,0.2-1,0.5-1.5,0.6
		s-1.2,0.4-1.6,0.4c-0.4,0-1.3-0.2-1.4-0.3C116.8,53.2,116.9,52.6,116.9,52.6z"/>
</g>
</svg>
