<?xml version="1.0" encoding="utf-8"?>
<!-- Generator: Adobe Illustrator 24.2.0, SVG Export Plug-In . SVG Version: 6.00 Build 0)  -->
<svg version="1.1" id="Layer_1" xmlns="http://www.w3.org/2000/svg" xmlns:xlink="http://www.w3.org/1999/xlink" x="0px" y="0px"
	 viewBox="0 0 282.4 75.8" style="enable-background:new 0 0 282.4 75.8;" xml:space="preserve">
<style type="text/css">
	.st0{fill:#6B6B6B;}
	.st1{fill:#4F4F4F;}
	.st2{fill:#525252;}
	.st3{fill:#676767;}
	.st4{fill:#686868;}
	.st5{fill:#858585;}
	.st6{fill:#616161;}
	.st7{fill:#656565;}
	.st8{fill:#5F5F5F;}
	.st9{fill:#6A6A6A;}
	.st10{fill:#969696;}
	.st11{fill:#545454;}
	.st12{fill:#666666;}
	.st13{fill:#777777;}
	.st14{fill:#636363;}
	.st15{fill:#515151;}
	.st16{fill:#5D5D5D;}
	.st17{fill:#8F8F8F;}
	.st18{fill:#5A5A5A;}
	.st19{fill:#9E9E9E;}
	.st20{fill:#949494;}
	.st21{fill:#838383;}
	.st22{fill:#585858;}
	.st23{fill:#5C5C5C;}
	.st24{fill:#595959;}
	.st25{fill:#555555;}
	.st26{fill:#606060;}
	.st27{fill:#7A7A7A;}
	.st28{fill:#6C6C6C;}
	.st29{fill:#9F9F9F;}
	.st30{fill:#505050;}
	.st31{fill:#696969;}
	.st32{fill:#565656;}
	.st33{fill:#5B5B5B;}
	.st34{fill:#646464;}
</style>
<g id="Layer_2_1_">
	<g id="_11898b_draft_galley_80_">
		<path class="st0" d="M58.2,26.4c-0.5,0,0-0.3-0.3-0.5c1,0.1,2,0.3,2.9,0.6c-0.2,0.1,0.2,0.4,0,0.3C60.5,26.9,58.6,26.4,58.2,26.4z
			"/>
		<path class="st1" d="M75.1,26.4c-0.5,0-1-0.1-1.5-0.1c-1.8-0.5-3.6-0.8-5.5-1c-1.6-0.1-5.5-0.9-8.1-1.5c-2.8-0.6-5.7-1.2-8.4-1.9
			c-2.1-0.5-4.3-0.9-6.4-1c0.2-0.5,0.5-0.3,0.8-0.3c1.9,0.1,3.8,0.4,5.7,0.9c2,0.5,4.1,0.9,6.2,1.3c1.4,0.3,2.7,0.7,4.1,1
			s2.6,0.5,3.9,0.8c2.3,0.4,4.5,0.3,6.6,0.9c1.2,0.2,5,0.7,5.7,0.8s1.4,0.3,2.3,0.4h0.3c0.4,0,0.7,0.1,1.1,0.2
			c0.7,0.3,1.4,0.2,2.1,0.5c0.1,0.3,0.1,0.2-0.1,0.4c-1.5-0.3-2.3-0.5-3.7-0.7c-0.3,0-1.7-0.3-2-0.4s-0.6-0.1-1.4-0.1
			c-0.2,0-0.5-0.1-0.7-0.1C75.8,26.5,75.5,26.5,75.1,26.4z"/>
		<path class="st1" d="M28.8,18.4c-0.7-0.1-1.6-0.2-2.3-0.3c-0.5-0.1-0.8-0.3-1.4-0.3c-0.9,0-1.8-0.2-2.7-0.4
			c-1.7-0.5-3.5-0.9-5.3-1.1c-0.8-0.1-1.6-0.4-2.4-0.7C14,15,13,14.7,12,14.9c-1.8,0-3.6-0.1-5.3-0.4c-1.9-0.4-3.8-0.7-5.7-0.7
			c0-0.1,0.1-0.3,0.4-0.3c1.5,0,2.9,0.2,4.4,0.5c2.5,0.4,5.1,0.5,7.6,0.5c0.5-0.1,0.9,0,1.3,0.3c0.9,0.8,3,1.1,4.4,1.3
			c1.4,0.2,2.8,0.5,4.1,0.9c0.9,0.3,1.9,0.3,2.9,0.5c1.3,0.3,2.8,0.2,4,0.4C29.7,18.6,29.2,18.4,28.8,18.4z"/>
		<path class="st1" d="M38.5,3.8c0.2,0.1,0.5,0,0.7,0.1c1.5,0.6,4.8,0.7,7.2,0.4c1.9-0.1,3.7,0.1,5.5,0.6c1.8,0.3,3.6,0.3,5.4-0.2
			c0.6-0.2,1.1-0.3,1.7-0.3c0.1,0,0.1,0.2,0,0.3s0,0-0.1,0c-2.3,0.6-4.5,1.3-7.2,0.7c-0.3-0.1-0.6-0.1-1-0.2
			c-1.7-0.4-3.5-0.5-5.2-0.3c-2.1,0.3-4.2,0.2-6.2-0.5c-0.6-0.2-1-0.1-1.3-0.3c-0.1,0-1.3,0-1.3-0.1c-0.8-0.3-0.6-1-1.1-0.9
			c-1,0.2-2.1,0.3-2.6-0.1c-0.7-0.2-2-0.4-2.4-0.6s-0.9-0.1-1.3-0.3c-0.1,0-0.4-0.1-0.5-0.2c-0.3,0-0.4-0.1-0.4-0.2s0.4-0.2,0.5-0.3
			c0.5,0.1,0.9,0.5,1.5,0.4s1.1,0.4,1.7,0.6c1.1,0.4,2.4,0.6,3.6,0.3c0.3-0.1,0.7,0.1,0.9,0.4c0.5,0.7,0.7,0.7,1.4,0.6
			C38,3.6,38.5,3.7,38.5,3.8z"/>
		<path class="st1" d="M62.9,41.6c0,0.8,0.5,1.5,1.3,1.6c-0.2-1.5-0.1-3.1,0.2-4.6c0.2-0.2,0-0.5,0.2-0.6l0.4-2.3
			c0.1-0.2,0.1-0.3,0.4-0.2c0,0.4,0.1,0.9,0.3,1.3c0.1,0.3,0,0.6-0.3,0.8c-0.6,0.4,0.1,1.3-0.8,1.3c0.1,0.4,0.1,0.8,0.1,1.2
			c-0.1,0.5-0.1,1.1-0.1,1.5c0.1,2.2-0.3,3.9,1.3,6.1c0.2,0.3,0.5,0.6,0.8,0.8c-0.5,0.2-0.6,0.2-0.7,0.8c-0.5-0.8-0.9-1.6-1.3-2.5
			c-0.3-0.6,0-0.9-0.8-0.9c-0.2-0.3,0.5-0.9,0.3-1.2c0.2-0.7,0-0.7-0.4-1s-0.9-0.6-1.4-1c-0.1-0.4,0.3-0.2,0.4-0.5l-0.2-0.5
			c-0.1-0.2-0.1-0.3,0-0.4S62.8,41.4,62.9,41.6z"/>
		<path class="st1" d="M57.2,26.2c-1.3-0.2-2.9-0.4-4.2-0.5c-2.3-0.2-4.6-0.6-6.9-0.9c-3.5-0.4-7-1.2-10.5-1.8
			c-1.2-0.2-2.5-0.4-3.7-0.6c-0.1-0.1-0.1-0.2,0-0.2c0,0,0,0,0,0c0.6-0.3,6,1,9.3,1.5c3.9,0.6,8.1,1.3,12,1.7
			c1.5,0.2,3.4,0.4,4.8,0.7C57.9,26.4,57.7,26.6,57.2,26.2z"/>
		<path class="st1" d="M62.7,42.2l-0.4,0.5c-0.1,0-0.3-0.3-0.4-0.4s-0.6,0-0.8-0.2s-0.1-0.5-0.3-0.7s-0.5,0-0.6-0.1
			s-0.1-0.6-0.2-0.8s-0.2-0.6-0.5-0.6s-0.5,0.3-0.6,0.3s-0.2-0.3-0.5-0.5c-0.1,0-0.5,0.2-0.5,0c-0.1-0.4-0.8,0-0.9-0.3
			c0-0.3-0.3-0.6-0.7-0.6c-0.2,0-0.2-0.4-0.3-0.5c-0.3-0.2-0.4,0.2-0.7,0s-0.1-0.9-0.3-1.1s-0.3-0.1-0.4-0.2s-0.2-0.9-0.4-1.2
			c0-0.1-0.3-0.2-0.4-0.3c-0.2-0.4,0.1-1-0.2-1.1s0-0.4-0.2-0.7s0.1-0.5,0-0.9s-0.8-0.7-0.5-1.3c0.1-0.3-0.2-0.7,0.2-1
			c0.1,0.6,0,1.4,0.5,1.8c0.2,0.2,0.2,1.2,0.4,1.8c0.1,0.3,0,0.8,0,1.1c0,0.2,0.4,0.1,0.5,0.2c0.2,0.5,0.3,1.1,0.7,1.4
			c0.3,0.2,0.2,0.6,0.5,0.9s0.3,0,0.5,0.2s0.3,0.5,0.4,0.6c0.3,0.2,0.2-0.1,0.5,0.1c0.1,0,0.2,0.5,0.8,0.4c0.2,0.1,0.4,0.5,0.9,0.5
			c0.2,0,0,0.2,0.2,0.3s0.5-0.3,0.8-0.3c0.4,0,0,0.6,0.7,0.6c0.3,0-0.1,0.5,0,0.7s0.5,0,0.7,0.1s0.1,0.6,0.4,0.9s0.6,0,0.7,0.2
			C62.3,42.1,62.5,42.2,62.7,42.2z"/>
		<path class="st1" d="M103.8,58.4c-3-0.6-5.8-1.4-8.8-2.3c-2.1-0.6-4.2-0.9-6.3-1.4c-1.6-0.4-3.2-0.6-4.7-1.1
			c-0.1-0.1-0.1-0.2-0.1-0.3c0.7,0,1.3,0.1,1.9,0.3c1.9,0.3,2.7,0.6,4.7,1.1c1,0.3,2,0.5,3,0.6c1.8,0.3,3.6,0.8,5.3,1.5
			c1.4,0.4,2.9,0.8,4.4,1.1c0.4,0.1,1.3,0,1.6,0.5C104.5,58.4,104.2,58.5,103.8,58.4z"/>
		<path class="st1" d="M32.1,22.1c0,0.1,0,0.2,0,0.3c-1.1,0-2.2-0.3-3.1-0.8c-1.8-1.2-3.7-0.8-5.7-0.9c-2.4-0.2-4.8-0.6-7.1-1.1
			c-0.1,0-0.3,0-0.3-0.3c0.6-0.1-0.1-0.2,1.3,0.1c2.7,0.6,5.5,0.9,8.3,1c1.1-0.1,2.2,0.1,3.2,0.6C29.8,21.3,31,21.7,32.1,22.1z"/>
		<path class="st1" d="M4,18.3C4,18.2,4,18,4.2,18c0.9,0.1,1.9,0.2,2.9,0.1c0.9,0,0.8,0.2,1.8,0.3c0.3,0,0.7,0.1,1,0.1
			c0.3,0,0.9,0.1,0.9,0.2c-0.1,0.3-0.1,0.4-0.2,0.4c-2.5-0.2-0.6,0.2-3-0.6c-0.7-0.1-1.5,0-2.2,0C4.6,18.6,4.6,18.3,4,18.3z"/>
		<path class="st1" d="M115.1,59.7c-0.5-0.1-1-0.1-1.5,0c-0.4,0.1-1.3-0.1-1.2-0.5c0.8-0.4,1.8,0,2.8-0.1c4-0.3,4.5-0.1,8.8,0.5
			c0.4,0.1,2.9,0.6,3.7,0.9c-0.3,0.5-0.7,0.3-1.1,0.3c-3.6-0.9-7.2-1.3-10.9-1.3C115.5,59.7,115.6,59.8,115.1,59.7z"/>
		<path class="st1" d="M39.6,40.5c-0.2,0.3-1.6-0.3-2.2-0.7c-2.2-1.3-4.5-2.4-6.9-3.3c-0.5-0.2-1-0.5-1.3-0.9
			c-0.1-0.2-0.6-0.4-0.4-0.7s0.6,0.1,0.8,0.2c1.1,1.1,2.6,1.5,4,2.1C35.6,38,39.8,40.2,39.6,40.5z"/>
		<path class="st2" d="M67.9,19.5c0.1,0.6-0.2,0.6-0.7,0.6c-0.7-0.1-1.4,0-2,0.3c-1.3,0.3-2.7,0.4-4.1,0.6c-0.9,0.2-1.8,0.3-2.7,0.4
			c-1.1,0.2-3.7-0.4-3.5-0.6s1.2,0.1,3.4,0.2c1.1-0.1,2.1-0.3,3.2-0.5c1.8-0.2,3.7-0.7,4.9-0.9C66.9,19.6,67.4,19.5,67.9,19.5z"/>
		<path class="st1" d="M64.1,45.6c0.2,0.3-0.2,0.2-0.3,0.3c-1.4-0.3-2.7-0.8-4-1.3c-2-0.9-4.2-1.5-5.8-3c-0.3-0.3-1-0.9-0.9-1.1
			s0.6,0.2,0.8,0.4c2.8,2.4,6.3,3.5,9.7,4.6C63.7,45.6,64,45.7,64.1,45.6z"/>
		<path class="st1" d="M28.4,34.8c-0.3,0.1-0.6-1.1-0.8-1.6c-0.6-1.8-1.4-3.6-2.3-5.4c0-0.1-0.1-0.2-0.1-0.3
			c-0.1-0.4-0.5-1.1-0.1-1.3c0.6-0.2,0.6,0.7,0.8,1.1c0.9,2,1.7,4.1,2.3,6.2C28.3,33.9,28.6,34.8,28.4,34.8z"/>
		<path class="st1" d="M18.1,35.8c1.4-0.5,3.5-0.5,3.7-2c0.3-0.1,0.2-0.7,0.4-1s0.5,0.2,0.8,0l0.2,0.1c-0.1,0.5-1.2,1.4-1.5,1.8
			c-0.1,0.2,0.3,0.2-0.5,0.7c-0.3,0.2-0.8,0-0.9,0.3c-0.5,0.2-0.9-0.1-1.6,0.7c-0.3,0.1-0.3,0-0.5-0.2C18.1,36,18,35.8,18.1,35.8z"
			/>
		<path class="st1" d="M8.3,25c-0.1-0.3,0-0.1-0.2-0.5c-0.1-0.2-0.2-0.4-0.2-0.5s-0.3-0.3-0.3-0.3c-0.1-0.3-0.4-0.4-0.6-0.6
			c-0.5-0.6-1-0.6-1.5-1.1c0.1-0.2,0.2-0.2,0.4-0.2c1.9,0.9,3.1,2.8,3.2,4.9c-0.3,0.1-0.4-0.4-0.6-0.7C8.3,25.7,8.3,25.3,8.3,25z"/>
		<path class="st1" d="M67.5,48c0.3,1.6,0.8,3.2,1.6,4.7c0.4,1.7,2.2,4.5,2.2,4.8c-0.4,0.1-0.8-0.8-1-1.2c-1.3-2.1-2.3-4.4-2.8-6.8
			c0-0.3-0.1-0.5-0.2-0.8C67.1,48.2,67.2,48.1,67.5,48z"/>
		<path class="st1" d="M53.1,30.5c0,0.4-0.1,0.8-0.3,1.2c0-0.7-0.2-1.4-0.5-2c-0.6-1-1.2-1.9-2-2.7c-0.3-0.3-0.6-0.6-1-0.8
			c-0.1-0.3,0.3-0.7,0.5-0.5c0.6,0.5,0.6,0.6,1.3,0.7c0.3,0.4,1.1,2.3,1.7,2.9c0.6,0.2,0.8,0.7,0.3,0.7C53,30.1,53.2,30.4,53.1,30.5
			z"/>
		<path class="st1" d="M73.6,19.3c-1.3,0.6-3.4,0.7-4.1,1.1l-0.3,0.1c-0.8,0.4-1,0.3-1.9,0.8c-0.8,0.3-1.6,0.4-2.4,0.6
			c-0.3,0.1-0.3,0.4-0.4,0.4c-0.2,0.1-0.5,0.1-0.7,0c0-0.2,0.8-0.6,1-0.8c2.3-0.4,5.2-1.8,6.6-1.8c0.7-0.1,1.3-0.3,2-0.5
			C73.7,19.1,73.6,19.2,73.6,19.3z"/>
		<path class="st1" d="M7.8,25.3c-0.4-0.2-0.7-0.5-1-0.8c-0.1-0.2-0.4-1.2-0.1-1.3s0.3-0.1,0.3,0.1c0.1,0.3,0.2,0.5,0.2,0.8
			c0.1,0.4,0.7,0.5,0.8,0.7c0.1,0.2,0.2,0.4,0.2,0.7c-0.1,0.5-0.2,1-0.2,1.5c0.2,0.2,0.4,0.5,0.6,0.8c0.1,0.1,0.1,0.3,0.1,0.5
			c-0.1,0.5,0,1,0.3,1.4c0.3,0.5-0.9,0.9,0.8,1.9c0,0.1-0.1,0.4-0.3,0.5c-0.8-0.5-1.6-1.2-1-2.1c0.1-0.1-0.1-0.2-0.2-0.4
			S7.9,28.8,8,28.7c0.2-0.4,0.1-0.9-0.3-1.1c0,0,0,0,0,0C7.3,27.1,7.5,25.9,7.8,25.3z"/>
		<path class="st1" d="M20.9,1.6c-0.1,0-0.4-0.1-0.6,0C20,2,19.4,2.1,18.9,2c-0.3-0.2-0.4,0.4-0.8,0.6c-0.6,0.4-1.4,0.6-1.8,0.9
			c-0.9,0.6-1.8,1.4-2.6,2.1c-0.2,0.2-0.3,0.3-0.5,0.4c-0.1,0-0.2,0-0.2,0c0.3-0.4,0.5-0.9,0.9-1.2c0.7-0.5,1.4-1.3,2.3-1.8
			c0.2-0.1,1.7-0.8,2.8-1.5c0.2-0.1,0.6,0.1,0.8,0c0.2-0.2,0.5-0.3,0.8-0.3C20.5,1.4,20.8,1.4,20.9,1.6z"/>
		<path class="st1" d="M20.8,1.6c-0.1-0.1-0.3-0.2-0.4-0.3C21.2,1,22.1,0.5,23,0.2c0.6-0.4,1.4-0.3,2,0.2c0.6,0.4,1.6,0.3,2.5,0.5
			c0.5,0.1,1,0.2,1.5,0.4l-0.4,0.4c-0.4-0.1-0.8-0.2-1.1-0.3l-0.8-0.1c-0.3,0-0.6-0.1-0.9-0.2c-0.5-0.2-1-0.1-1.5-0.6
			c-0.3-0.2-0.7-0.2-1,0C22.4,0.9,21.6,1.3,20.8,1.6z"/>
		<path class="st1" d="M46,20.7c-0.3,0.1-0.5,0.2-0.8,0.3c-3-0.7-6.1-1.1-9.2-1.4c0.3-0.5,0.8-0.3,1.1-0.3c2.5,0.3,5,0.6,7.5,1.2
			C45.1,20.5,45.6,20.5,46,20.7z"/>
		<path class="st3" d="M144.4,62.4c-1.4-0.1-2.8-0.2-4.1-0.2c-1.6-0.1-3.1-0.3-4.8-0.4l-1.9-0.1c-0.1-0.1,0-0.2,0.1-0.3
			c0.4,0,0.9,0,1.2,0c3,0.3,3.9,0.2,6.9,0.5C142.2,61.9,144.8,61.7,144.4,62.4z"/>
		<path class="st4" d="M113.2,59.4c0.1,0.2,0.4,0.3,0.6,0.3c-0.6,0.1-1.2,0-1.7-0.3c-2.5-0.2-6.1-0.7-8.5-1.1c0.3,0,0.3-0.1,0.6-0.3
			c0.8,0,1.5,0.1,2.3,0.2c2.2,0.3,3.4,0.4,5.6,0.7C112.3,59,113.1,59,113.2,59.4z"/>
		<path class="st1" d="M65.2,27.2c0.2,0,0.3-0.1,0.5,0s0,0.2,0.1,0.3c0.3,0.1,0.7,0.1,1.1,0.1c0.4,0,0.3,0.2,0.4,0.2
			c0.4,0,0.7,0,1.1,0.1c0.4,0.1,0.6,0.2,1,0.3s1,0.1,1.3,0.2c-0.1,0.2-0.3,0.3-0.5,0.3c-0.2-0.1-0.3-0.1-0.5-0.1c-0.1,0-0.3,0-0.4,0
			c-0.1,0-0.3,0-0.4-0.1c-0.1,0-0.3,0-0.4,0c-0.3,0-0.7-0.1-1-0.2s-0.5,0-0.8-0.1c-0.2-0.1-0.3-0.1-0.5-0.2c-0.3-0.1-0.7,0-0.9-0.2
			c-0.1-0.2-0.3-0.3-0.6-0.3c-0.7-0.1-1.4-0.1-2.2-0.1c-0.1-0.1-0.6-0.2-0.5-0.5c0.8,0,1.6,0,2.5,0.1C64.8,27,64.9,27.2,65.2,27.2z"
			/>
		<path class="st1" d="M18.8,9.8c-0.4,0-0.8-0.2-1-0.5c-0.1-0.2-0.1-0.5,0-0.7c0.1-0.2,0.3-0.4,0.6-0.3s0.5,0.5,0.4,0.7
			c-1-0.3-0.4,0.4-0.2,0.3c1.1-0.2,2.2-0.6,3.1-1.3c0.2-0.2-0.1-0.2-0.4-0.3s0.2-0.6,0.5-0.7s0.3,0.1,0.5,0.3c0.2,0.2,0.2,0.6,0,0.8
			C21.4,9,20.1,9.7,18.8,9.8z"/>
		<path class="st1" d="M9.5,32c0.1-0.1,0.2-0.4,0.3-0.5c0.9,0.6,1.4,1.8,2.2,2.7c0.6,0.4,0.9,1,1.8,0.8c0.3,0,0.5,0.1,0.7,0.3
			c0.1,0.1,0.1,0.2,0.1,0.3c-0.2,0.1-0.3,0-0.5,0s-0.5-0.2-0.7-0.2c-1,0.2-1.4-0.6-2.5-1.8C10.4,33,10,32.5,9.5,32z"/>
		<path class="st1" d="M55.2,40.7c-1.4,0.3-6.7-3.5-6.4-4.7C48.8,36.5,53.9,40.2,55.2,40.7z"/>
		<path class="st1" d="M12.8,5.9c-0.6,0.5-1.2,0.9-1.8,1.3c-0.7,0.5-1.4,1.3-2,1.5C8.5,8.9,8,9.1,7.6,9.4C7.4,9.6,7.2,9.7,7,9.9
			c-0.2,0-0.5,0-0.7-0.1c0-0.1,0.4-0.2,1-0.8c0.3-0.4,1.1-0.4,1.5-0.7c1.2-1,2.4-1.9,3.8-2.6C12.7,5.6,12.8,5.7,12.8,5.9z"/>
		<path class="st5" d="M115.1,59.7c0.4,0.1,0-0.2,0.6-0.1c2.3,0.3,7.5,0.8,7.5,1S117.8,60.1,115.1,59.7z"/>
		<path class="st1" d="M44.4,36.9c-0.8,0.1,1.6-2.2,1.9-3.5c0.1-0.5,0.3-1,0.4-1.6c0-0.2,0-0.8,0.3-0.8s0.2,0.7,0.2,0.9
			c-0.1,1-0.4,1.9-0.9,2.8C45.9,35.6,45.2,36.6,44.4,36.9z"/>
		<path class="st1" d="M27.6,11.6l-4.5,1.4c-0.3,0.1-0.6,0-0.6-0.3c0-0.2,0.7-1,1-1c1-0.1,0.8,0.4,0.9,0.5s0,0.1-0.4,0.2
			s-0.3-0.3-0.5-0.2c-0.1,0-0.4,0.4-0.3,0.5s1-0.4,1.3-0.5c1-0.3,1.9-0.6,2.9-0.9C27.7,11.5,27.7,11.5,27.6,11.6z"/>
		<path class="st1" d="M23.7,30.3c-0.1-1.1-0.1-2.3,0.1-3.5c0.1-0.3,0.2-0.7,0.2-1c0-0.2-0.1-0.5,0.2-0.5s0.5,0.3,0.5,0.5
			c0,0.5-0.2,1-0.3,1.5c-0.1,1-0.1,2.1-0.2,3.1L23.7,30.3z"/>
		<path class="st1" d="M78.3,46.3c0.1,0.1,0.5,0.5,0.6,0.7s0.1-0.5,0.3-0.4s0.7,0.9,0.2,1s0.7,0,1.1,1.3c0.2,0.8,1,1.1,0.9,1.6
			c-0.1,0.1-0.3,0.1-0.4,0.1c-0.8-1.2-1.8-2.4-2.9-3.5c-0.2-0.2-0.5-0.3-0.4-0.6C77.9,46.2,78.1,46.2,78.3,46.3
			C78.3,46.2,78.3,46.2,78.3,46.3z"/>
		<path class="st1" d="M33.1,13.4c-0.1-0.2-0.4-0.5-0.3-0.8c0-0.1,0.3-0.5,0.4-0.5s0.1,0.4,0.2,0.5c0.2,0.7,0.8,0.5,1.3,0.3
			c1-0.4,2.9-1.6,3.1-1.3s-0.7,0.5-1,0.7c-0.8,0.3-1.4,0.6-2.1,1C34.2,13.8,33.6,13.8,33.1,13.4z"/>
		<path class="st1" d="M59.1,4.6c0-0.1,0-0.2,0-0.3c1.4-0.6,3-1,4.5-1.1c0.4,0,0.7,0,1.1,0c0.3,0,0.6,0,0.9,0.1
			c0.2,0.2,0.4,0.2,0.7,0.3c0.1,0,0.3,0.3,0.4,0.3s-0.1,0.1-0.3,0s-0.5-0.1-0.5,0c0,0.1-0.3-0.3-0.7-0.3s-0.8,0-1,0
			c-0.6,0-1.2,0-1.7,0.2c-0.5,0.1-1.1,0.2-1.6,0.3c-0.3,0.1-0.5,0-0.6,0.1C59.8,4.6,59.7,4.7,59.1,4.6z"/>
		<path class="st1" d="M6.9,17.9c-3.3,0-4.3-0.7-6.8-0.5c0.1,0,0.2-0.5,0.3-0.4c1.2,0.1,5,0.4,6.5,0.7C7.1,17.7,6.9,17.8,6.9,17.9z"
			/>
		<path class="st1" d="M46.9,38.1c-1.4,0.1-3.8,1.3-4.1,2.5c-1.7,0.5,2.7-3.5,4.1-2.8C46.9,37.9,46.9,38,46.9,38.1z"/>
		<path class="st6" d="M126.6,60.8c0.3,0,0.3-0.2,0.6-0.4c1,0.2,1.9,0.3,2.3,0.4c1.5,0.2,2.3,0.3,3.8,0.5c0.4,0.2,0.3,0,0.1,0.3
			C131,61.4,128.8,61,126.6,60.8z"/>
		<path class="st1" d="M69.6,12.4c-0.4-0.6-1-1-1.7-1.1c-0.6-0.3-1.2-0.5-1.8-0.6c-0.1-0.1,0-0.1,0.2-0.5c0.6,0.2,1.3,0.4,1.8,0.7
			c0.3,0.2,0.9,0.1,1.2,0.3c0.2,0.2,0.4,0.5,0.6,0.7c0.2,0.1,0.4,0.3,0.6,0.3c0.1,0.2,0.6-0.1,0.6,0.3c0,0.3-0.4,0.2-0.7,0.1
			S69.8,12.5,69.6,12.4z"/>
		<path class="st1" d="M77.7,16.1c-1.8-0.2-3.6-0.5-5.3-0.7c-0.3,0-0.7,0.5-0.7,0c0,0,0-0.3,0.1-0.3c0.4-0.5,0.8,0,1.3,0
			c1.9,0.1,3.7,0.4,5.6,0.8C78.6,16.2,77.9,16.1,77.7,16.1z"/>
		<path class="st1" d="M78.3,46.3c-0.4,0.2-0.1,0.5-0.1,0.6c-0.1,0-0.3-0.3-0.5-0.3c-0.5-1.1-1.2-2.2-2-3.2c0-0.2,0.1-0.4,0.3-0.5
			C76.9,43.9,77.7,45,78.3,46.3z"/>
		<path class="st1" d="M81.1,50.4l0.3-0.3c0.3,0.2,0.5,0.5,0.7,0.8c1,1.5,0.6,1.8,2,2.4c0,0.1,0,0.3,0,0.4c-0.4,0.1-0.9,0-1.2-0.4
			c0-0.2-0.3-0.2-0.3-0.4C82.1,52,81.7,51.1,81.1,50.4z"/>
		<path class="st1" d="M5.9,21.7l-0.4,0.2c-0.8-0.5-1.4-1.3-1.6-2.2c0-0.2-0.1-0.5,0.2-0.5s0.4,0.3,0.4,0.5
			C4.5,20.7,5.2,21.2,5.9,21.7z"/>
		<path class="st1" d="M26.3,8.3c0.4-0.2,0.8-0.2,1.3-0.2c0.1,0,0.1,0.1,0.1,0.2c0,0-0.1,0.1-0.1,0.1c-0.1,0.1-0.4,0.4-0.3,0.6
			s0.5,0.1,0.6,0.2s0,0.1,0,0.2c-0.6,0.3-1-0.3-1.4-0.5C26.1,8.6,26.2,8.4,26.3,8.3z"/>
		<path class="st1" d="M22.9,32.9c-0.3,0.3-0.5,0.1-0.8,0c0.2-0.6,0.4-1.1,0.6-1.7c0.1-0.2,0-0.3,0.3-0.3c0.1,0,0-0.2,0-0.3
			s-0.3-0.1-0.3-0.1s-0.1-0.1,0-0.2s0.7,0.1,0.7,0.2c0,0.3-0.1,0.6-0.2,0.8C23,31.7,22.9,32.3,22.9,32.9z"/>
		<path class="st1" d="M18.2,35.8c0,0.1-0.1,0.4-0.1,0.3c-0.9,0.5-1.9,0.6-2.9,0.3c-0.2-0.1-0.6-0.4-0.4-0.7s0.3-0.1,0.5,0
			c0.6,0.4,1.4,0.5,2,0.2C17.6,35.8,17.9,35.7,18.2,35.8z"/>
		<path class="st1" d="M67.5,48c-0.1,0.3-0.6,0.8-0.8,1c-1.3-0.5,0.3,1-0.1,1.6c-0.5,0-0.6-0.8-0.7-1.2s0.2-0.8,0.5-0.7
			c0.3-0.1,0.4-0.4,0.6-0.8c0.2,0,0.2-0.1,0.4,0C67.5,47.9,67.5,48,67.5,48z"/>
		<path class="st1" d="M133.3,61.7l-0.3-0.6c-0.2-0.4-0.3-0.9-0.3-1.4c0-0.2,0-0.5,0.2-0.5s0.2,0.5,0.3,0.8c0.1,0.6,0.4,1.1,0.7,1.5
			c0,0.1-0.2,0.1-0.2,0.2S133.5,62,133.3,61.7z"/>
		<path class="st1" d="M37.3,19.3c-0.4,0-0.9,0.1-1.3,0.3c-0.9,0-1.9-0.1-2.8-0.3c0-0.1,0.2-0.1,0.2-0.2
			C34.7,19.1,36.1,19.1,37.3,19.3z"/>
		<path class="st1" d="M33.5,19.1l-0.2,0.2c-0.2,0-0.4,0-0.5,0c-0.2,0-0.3,0-0.5,0c-0.3-0.1-0.7-0.1-0.8-0.5s-0.6-0.2-0.8-0.3
			c0.1-0.5,0.6-0.4,0.9-0.3s0.3,0.5,0.7,0.6c0.3,0.1,0.8,0,1,0.1S33.3,19,33.5,19.1z"/>
		<path class="st1" d="M50.5,16.9c0,0.1-0.1,0.2-0.3,0.1s-0.4-0.4-0.7-0.7c-0.1-0.1-0.1-0.4-0.1-0.5s0.4-0.2,0.5-0.2
			s0.3,0.4,0.3,0.6C50.4,16.4,50.5,16.6,50.5,16.9z"/>
		<path class="st1" d="M1.6,10.8c0,0.3-0.7,0.2-0.8,0.4s-0.7,0.1-0.9,0s0.1-0.4,0.2-0.5s0.3-0.4,0.5-0.3C0.8,10.8,1.6,10.6,1.6,10.8
			z"/>
		<path class="st1" d="M5.7,19.9c0.1,0.2,0,0.5-0.3,0.6s-0.6-0.1-0.6-0.4c0-0.3,0.2-0.5,0.4-0.6C5.6,19.4,5.5,19.8,5.7,19.9z"/>
		<path class="st7" d="M66.3,10.2c0.1,0.1-0.3,0.4-0.2,0.5c-0.5,0.1-1,0.5-1.5,0.6s-0.3-0.1-0.1-0.4C65.1,10.6,65.7,10.4,66.3,10.2z
			"/>
		<path class="st0" d="M62.3,27l0.2,0.4c-0.5-0.1-0.9-0.2-1.3-0.3c-0.3,0-0.7,0-0.6-0.5C61.2,26.6,61.8,26.8,62.3,27z"/>
		<path class="st1" d="M45.9,10c-0.5,0-0.1-0.6,0.2-0.6c0.6,0.3,1.2,0,1.2,0.4C47,10,46.3,9.7,45.9,10z"/>
		<path class="st1" d="M14.3,13.4c0.3,0.2,0.6,0.5,0.7,0.9c0.1,0.1-0.1,0.2-0.4,0.2s-0.5-0.5-0.6-0.8C14,13.5,14.1,13.4,14.3,13.4z"
			/>
		<path class="st8" d="M82.5,52.8l0.3,0.4c-0.5,0-1.7-0.5-1.7-0.8S82.1,52.9,82.5,52.8z"/>
		<path class="st1" d="M56.5,13.5c0.3-0.4,1.2,0.4,0.9,1c-0.1,0.1-0.3,0.4-0.4,0.3s-0.1-0.6-0.2-0.8s-0.2,0-0.2-0.1
			S56.4,13.6,56.5,13.5z"/>
		<path class="st1" d="M31.3,18.1c-0.2,0.1-0.4,0.3-0.6,0.4c-0.6-0.1-1.4,0-2.1-0.1c0.5,0,0.9-0.1,1.3-0.4
			C30.4,18,30.8,18,31.3,18.1z"/>
		<path class="st9" d="M231.9,64.7c-7.9,0.3-16,0.1-23.9,0.2c-1.3,0-2.6-0.1-3.9-0.1c-0.6,0-0.6,0-1.2,0c0-0.4,0.6-0.4,1.3-0.4
			c1.7,0,2.3,0.1,4,0.1c0.3,0,0.5,0,0.8,0.1c0.4,0.1,0.9,0.1,1.3,0c5.1-0.1,9.2-0.1,14.1-0.1c1.1,0,6.4-0.1,7.5-0.1
			c-4.1-0.3-6.9-0.7-11.1-0.8c-0.5,0-4.1-0.2-4.9-0.1c-0.5,0-1-0.1-1-0.2c0.3-0.3,2.1-0.1,2.5-0.1c2.4-0.1,4.7,0.2,7.1,0.3
			c2.6,0.1,2,0.1,4.6,0.3c0.8,0.1,2.6,0.2,3.9,0.3c0.4,0.2-0.3,0.3-0.6,0.4S232,64.5,231.9,64.7z"/>
		<path class="st1" d="M134.6,22.7c1,0.1,2,0.4,3,0.8c0.6,0.2,1.5,0.3,2.1,0.5c0.1,0.1-0.1,0.3-0.2,0.4c-0.2-0.1-0.5-0.1-0.7-0.2
			c-1.3-0.4-1.6-0.1-2.4-0.5c-0.8-0.3-1.6-0.5-2.5-0.6c-0.4,0-1.1-0.2-1.7-0.3c-0.9-0.3-2.6-0.6-2.8-0.6c-0.4-0.2-4.5-1.1-6.8-1.6
			c-1.6-0.3-2.8-1.3-4.4-1.3c-1.1-0.1-2.2-0.2-3.2-0.4c-1.5-0.2-2.9-0.8-4-1.8c-0.7-0.7-1.6-1.2-2.6-1.4c-1.5-0.3-2.9-0.8-4.2-1.5
			c-1.1-0.4-2.2-0.7-3.4-0.6c-0.7,0-1.4-0.1-2.1-0.5c0.6-0.1,1.2-0.1,1.8,0c1.2,0,2.3,0.2,3.4,0.6c1.7,0.7,3.4,1.3,5.2,1.8
			c0.8,0.2,1.5,0.7,2.1,1.3c1.3,1.2,3,1.9,4.8,1.9c1.7,0,3.5,0.3,5.1,0.9c1.2,0.4,2.3,0.7,3.5,1c1.3,0.2,2.5,0.5,3.8,0.9
			c1,0.4,1.6,0.4,2.3,0.6s1.7,0.4,2.4,0.5C133.7,22.4,134.1,22.6,134.6,22.7z"/>
		<path class="st10" d="M261.2,68.2c-1,0-2-0.2-2.9-0.4c-5.9-1.2-14.9-2.3-16.4-2.4c-0.3,0-5-0.6-5-0.6c0.8,0,1.7,0,2.5,0.1
			c0.2,0,2.1,0.2,2.6,0.2c1,0.1,1.2,0.2,2.2,0.3c0.9,0.2,1.8,0.3,2.7,0.3c0.6,0.1,1.3,0.2,1.9,0.3c1.1,0.1,2.1,0.3,3.4,0.4
			s2.4,0.4,3.6,0.5c1.6,0.3,2.2,0.5,4.3,0.8C260.3,67.8,261.4,67.9,261.2,68.2z"/>
		<path class="st1" d="M219.2,50c-0.1,0.4-0.4,0.2-0.6,0.1c-0.7-0.2-1.3-0.6-1.9-0.8c-0.5-0.1-1-0.2-1.5-0.3l-0.4-0.1l-1.3-0.4
			c-0.4-0.1-0.3-0.4-0.8-0.4c-0.3-0.1-0.7-0.2-1-0.3c-0.5-0.2-1-0.3-1.5-0.4c-0.5-0.1-2-0.7-2.2-0.7c-1.1,0-2.2-0.3-3.1-0.8
			c-0.6-0.3-1.4-0.5-2.1-0.6c-3.3-0.8-5.2-1.3-8.4-2.3c-1-0.2-1.9-0.6-2.8-1.1c0-0.1,0.1-0.2,0.2-0.3c3.5,1,7.4,2.3,11.1,3.3
			c0.8,0.2,1.6,0.5,2.4,0.9c1.3,0.6,2.7,0.4,4,0.9l1,0.3l1.4,0.5c0.3,0.2,0.7,0.3,1.1,0.4c0.4,0,0.4,0.3,1,0.3
			c0.4,0.1,0.8,0.2,1.2,0.4c0.6,0.2,1.1,0.3,1.7,0.5C217.6,49.2,218.4,49.6,219.2,50z"/>
		<path class="st1" d="M139.5,24.3c0-0.1,0.2-0.3,0.3-0.4c0.3,0.1,0.5,0.1,0.8,0.2c1.6,0.5,3.2,0.8,4.8,1c1.6,0.2,3.2,0.7,4.7,1.5
			c4.5,2.1,9.3,3.7,14.2,4.8c0.3,0.1,0.6,0.2,0.9,0.4c0.1,0.4,0,0-0.3,0.2c-0.6-0.1-1.3-0.2-1.9-0.4c-4.6-1.1-9.1-2.7-13.4-4.7
			c-1.3-0.6-2.6-1-4-1.3c-1.4-0.3-2.5-0.2-3.9-0.8C141.3,24.8,140,24.6,139.5,24.3z"/>
		<path class="st11" d="M145.7,62.8c1.9,0,4.4,0.3,6.7,0.4c3.2,0.1,6,0.2,9.2,0.3l2.8,0.1c1.3,0.1,1.3,0.2,2.6,0.2
			c0.5,0,1.7,0,1.1,0.3c-0.7,0.2-0.6,0.2-1.4,0.2c-7.9-0.5-24.4-1.1-24.3-1.3S144.7,62.9,145.7,62.8L145.7,62.8z"/>
		<path class="st1" d="M203.8,64.6c-0.2,0.1-1.5,0.1-1.7,0.2c-1-0.1-2,0-2.9,0.3c-0.9-0.1-1.7-0.1-2.6-0.1c-3.3-0.1-6.8-0.2-10-0.1
			c-0.3-0.2-0.5-0.1-0.3-0.4c0.7-0.1,1.3-0.1,2-0.1c4.9,0,7,0,11.9,0C201.3,64.4,202.6,64.4,203.8,64.6z"/>
		<path class="st12" d="M256.2,66.8c-1.3-0.3-2.7-0.5-4-0.7c-1.2-0.2-2.5-0.6-3.6-0.8c-0.6-0.2-1.2-0.4-1.9-0.5c0-0.1,0-0.1,0.1-0.2
			c2.1,0.3,5,1.2,7.5,1.5c0.6,0.1,1.1,0.3,1.7,0.3c-2.6-0.9-6-1.7-8.4-2.7c-0.1,0-0.1-0.1-0.1-0.1s0,0,0.1,0c1.2,0.2,2.3,0.6,3.4,1
			l1.2,0.4c1.4,0.5,1.8,0.5,2.7,0.8l1.2,0.5C256.3,66.4,256.5,66.6,256.2,66.8z"/>
		<path class="st1" d="M186.4,64.5c0.2,0.2,0.4,0.5,0.3,0.8c-0.1,0-0.2,0-0.3,0s-0.2-0.4-0.4-0.5c-0.7-0.1-1.4-0.1-2.1-0.1
			c-0.6,0-1.4-0.1-2-0.1c-0.9-0.2-0.2-0.4,0.8-0.4c0.4,0,2.6,0.2,3,0.2s-0.2-0.3-0.4-0.5s-1.1-1.4-1.2-1.6c-0.7-1.1-1.4-2.1-2.1-3.1
			c-0.4-0.3-0.7-0.7-1-1.1c-0.3-0.5-0.6-0.6-1-1s-0.7-0.3-0.4-0.6s0.7,0.3,1.1,0.5c0.3,0.3,0.7,0.6,0.9,1c1.4,1.7,2.7,3.5,3.8,5.4
			C185.8,63.8,186.1,64.2,186.4,64.5z"/>
		<path class="st13" d="M182.9,64.4c0.2,0-0.4,0.3-0.8,0.3c-4.1-0.1-8.1-0.2-12.2-0.4c-1.1,0-2.2-0.1-3.4-0.1
			c0.5-0.1-0.1-0.2,0.3-0.4c0.6,0.1,1.3,0.1,2,0.1c1,0,1.7,0.1,2.7,0.1l2,0.1c2.1,0,2.9,0.1,5.5,0.1c1,0,1.1,0,2.2,0
			C181.8,64.2,182.4,64.3,182.9,64.4z"/>
		<path class="st14" d="M252.6,63.3c-0.5-0.2-3.4-1.4-5.1-2.2c-1.4-0.6-3.1-1.3-4.2-1.9c-0.1-0.1-0.1-0.2,0-0.3
			c5.2,2.1,10.3,4.4,15.4,6.6c0.2,0.1,1,0.4,0.8,0.5c-0.3,0.1-0.6,0.1-0.8-0.1c-0.3-0.2-0.7-0.2-1-0.4l-1.1-0.5
			C255.4,64.4,253.1,63.5,252.6,63.3z"/>
		<path class="st1" d="M169,33.3c2,0.7,4.3,1.2,6.4,1.8c2.3,0.7,5.1,1.8,6.8,2.3c0.1,0.2-0.1,0.2-0.3,0.3c-0.3-0.1-0.7-0.2-1-0.3
			c-0.4-0.1-0.9-0.2-1.2-0.3c-1.7-0.8-3.5-1.4-5.2-1.9c-1.3-0.3-2.5-0.6-3.8-1c-0.8-0.2-1.7-0.4-2.4-0.8
			C168.5,33.1,168.8,33.1,169,33.3z"/>
		<path class="st0" d="M199.1,64.9c0.1-0.3,2.6,0.1,3.7,0.1c0.4,0.1,0.9,0.1,1.3,0.1c0.9,0.1,1.8,0,2.7,0.1c1.8,0.1,3.4,0.3,5.1,0.5
			c0.2,0,0.3,0.2,0.4,0.3c-0.1,0.3-0.9,0-1.1,0c-3.6-0.4-6.3-0.6-9.8-0.8C200.7,65.2,198.9,65.2,199.1,64.9z"/>
		<path class="st1" d="M181.8,37.7c0.1-0.1,0.3-0.2,0.4-0.3c2,0.3,3.6,1.5,5.5,2.2c1.5,0.5,2.8,1.3,4.2,1.9v0.3
			c-0.6,0-1.1-0.2-1.6-0.5c-2.8-1.2-3.5-1.5-6.3-2.7C183.8,38.4,182.8,38.1,181.8,37.7z"/>
		<path class="st15" d="M242.7,64.7c0.1,0.1,0.2,0.1-0.3,0.2s-2.1-0.1-2.8-0.2c-2.7-0.1-4.2,0-6.8,0h-1.2c0.2-0.4,0.5-0.4,0.8-0.6
			c0.4,0,0.9,0,1.3,0.1c2.3,0.2,5.4,0.1,6.2,0.2C240.3,64.5,242.2,64.6,242.7,64.7z"/>
		<path class="st16" d="M145.6,62.4h-1.2c-0.3,0-0.1-0.3-0.3-0.4c1-0.1,1.9,0,2.9,0.1c2.6,0.2,4.9-0.1,7.5,0.1c0.1,0,0.3,0,0.4-0.1
			c0.2,0,0,0,0.3,0c0.3,0.1,0.2,0.1,0.6,0s1.5-0.1,1.4,0.2s-0.6,0.2-0.8,0.2c-3.2,0-6.4,0-9.6,0C146.4,62.4,146.2,62.4,145.6,62.4z"
			/>
		<path class="st1" d="M243.4,58.9c0,0.1,0,0.2,0,0.3c-0.3-0.1-0.5-0.2-0.8-0.3l-1.6-0.6c-0.6-0.3-1.3-0.6-2-0.8
			c-0.2-0.1-0.4,0-0.7-0.1s-0.2-0.4-0.4-0.4c-0.4,0.1-0.8,0-1.2-0.1c-0.5-0.2-0.7-0.3-0.6-0.4s-0.6,0.1-0.9-0.1s-0.7-0.4-0.6-0.6
			s0.5-0.1,0.8,0.2c0.3,0,0.4,0.1,0.7,0.1c0.3,0.1,0.5,0.2,0.7,0.3c0.3,0.2,0.8,0.2,1.1,0.3c0.4,0.1,0.8,0.2,1.1,0.4
			C240.6,57.7,242,58.3,243.4,58.9z"/>
		<path class="st17" d="M271.6,70.4c0.8,0.1,1.5,0.3,2.2,0.6c0.4,0.1,0.9,0.2,1.3,0.4c0.3,0.1,0.4,0.2,0.1,0.3
			c-0.6-0.1-1.1-0.2-1.6-0.4c-0.4-0.1-0.7-0.2-1.1-0.4c-0.7-0.1-1.3-0.3-2-0.5c-0.3-0.1-0.7-0.3-1-0.4c-0.3-0.2,0,0,0.1-0.3
			c0.1-0.1,0.3,0.2,0.6,0.2C270.7,70,271.2,70.2,271.6,70.4z"/>
		<path class="st18" d="M262,67.6c1.3,0.3,2.6,0.6,3.8,1.1c-0.1,0.2-4.3-1.1-4.5-0.9c0.2,0.1,3.5,1.3,4.7,1.9c0.5,0.4,1.3,0.4,1.7,1
			l0,0c-0.6,0-1.1-0.4-1.6-0.6c-1.5-0.8-3.1-1.4-4.8-1.9c0.1-0.2-0.4-0.3-0.2-0.6L262,67.6z"/>
		<path class="st1" d="M267,69.4c-0.3-0.1-1.2-0.5-2-0.8c-0.4-0.2-3.1-1.2-2-1.2c1.4,0.6,4.2,1.6,4.9,2c0.7,0.3,1.4,0.7,2,1.1
			c0.1,0.2,0.1,0.3-0.1,0.2C268.9,70.3,267.9,69.9,267,69.4z"/>
		<path class="st1" d="M261.7,67.6c-0.2,0.1-0.6,0.1-0.3,0.6c-0.1,0-0.2-0.1-0.3-0.1c-1.5-0.7-3.2-1.1-4.9-1.3v-0.6
			C257.9,66.7,260,67.2,261.7,67.6z"/>
		<path class="st19" d="M275.9,71.8c0,0,0-0.1,0.1-0.1c0.3,0,6,1.9,6.4,2.2c0.1,0,0,0.2,0,0.2C281.3,73.5,275.9,71.8,275.9,71.8z"/>
		<path class="st6" d="M272.3,75.8c0.1-0.1,0-0.2,0-0.3c0.4-0.3,1.7-0.4,2-0.8s-0.5-1.1-0.7-1.6c0.1,0,0-0.3,0-0.3
			c0.5,0.3,1.5,1.3,1.2,2C274.2,75.5,273.3,75.9,272.3,75.8z"/>
		<path class="st1" d="M169,33.3l-0.6,0.2c-0.1,0.1-0.8-0.4-0.8-0.4c-1.3-0.4-0.6-0.2-2-0.6c-0.1,0-1.5-0.3-1.4-0.4
			c0.2-0.1,0.6,0,0.8-0.1C166.3,32.3,167.7,32.7,169,33.3z"/>
		<path class="st20" d="M275.4,70.1c1.3-0.2,2.4,0.6,3.6,0.9C277.8,70.9,276.5,70.6,275.4,70.1z"/>
		<path class="st21" d="M270.1,70.6c1.1,0.5,2.2,1.1,3.1,1.9l0.6,0.4c0,0,0.1,0.4,0,0.3c-1-0.7-2.8-1.9-3.7-2.5L270.1,70.6z"/>
		<path class="st20" d="M270.2,68.2c0.1-0.4,0.5-0.2,0.8-0.4c0.7-0.1,1.5,0.2,1.9,0.8l0,0c-0.7,0.1-1.3-0.4-1.9-0.2l0,0L270.2,68.2z
			"/>
		<path class="st14" d="M263.2,67.5c0.1,0.2-0.9-0.2-1.2-0.3c-0.8-0.4-2.6-0.9-2.1-1.1C261,66.4,262.1,66.9,263.2,67.5z"/>
		<path class="st18" d="M267.4,70.4c0.7,0.2,1.4,0.5,2,1c0.1,0.1,0.1,0.2-0.1,0.2c-0.6-0.3-1.5-0.7-2.1-0.9L267.4,70.4z"/>
		<path class="st22" d="M109.1,32.3c0.4,0.1,0.8,0.2,1.2,0.3c-0.1,0.2-0.9,0.1-1.1,0.2c-2.4-0.5-4.8-1.1-7.2-1.9
			c-1.3-0.4-2.6-0.6-4-0.6c-1.8-0.2-3.6-0.6-5.3-1.1c-1.8-0.4-3.7-0.7-5.5-0.8c-1.2-0.2-2.4-0.4-3.6-0.7c0.1-0.1-0.1-0.3,0-0.4
			c3.3,0.6,7.2,0.7,10.7,1.9c2.3,0.6,4.4,0.6,6.8,1c0.6,0.1,1.2,0.2,1.8,0.5c0.8,0.4,1.7,0.6,2.6,0.8
			C106.7,31.9,107.9,32.1,109.1,32.3z"/>
		<path class="st1" d="M83.6,5.8c-0.1-0.1-0.4-0.2-0.5-0.2c-0.4-0.5-1-0.8-1.6-1c-2.1-0.6-3.8-1.6-5.8-2c-0.3-0.1-0.5-0.3-0.9-0.3
			c-0.4,0-0.7,0-1.1,0.1c-0.3,0-1.2-0.4-1.4-0.2c-0.4,0.3-0.9,0.5-1.3,0.7c-0.6,0.2-1.3,0.3-1.9,0.3c0.5-0.3,1.1-0.5,1.6-0.6
			c0.6-0.3,1-0.6,1.3-0.8c0.9,0,2.3,0,3.4,0.1c0.9,0.2,1.8,0.5,2.6,0.9c0.5,0.2,1,0.4,1.4,0.7c0.4,0.2,0.9,0.3,1.3,0.4
			c1.9,0.4,3.3,1.7,4.8,2.7c0.1,0-0.1,0.2,0,0.3c-0.3-0.1-0.6-0.3-0.8-0.3C84.2,6.3,83.9,6.1,83.6,5.8z"/>
		<path class="st1" d="M90.8,9.4c1.7,0.5,3.8,0.6,5.6,1.3c0.9,0.4,1.7,0.9,2.5,1.5c-0.1,0.1,0,0.2-0.1,0.2c-0.2,0-0.4-0.1-0.5-0.2
			c-0.8-0.6-1.7-1.1-2.7-1.4c-1-0.3-2.1-0.5-3.1-0.7c-0.3-0.1-0.6-0.1-0.9-0.2c-0.4,0-0.8-0.1-1.2-0.4C90.3,9.2,90.6,9.4,90.8,9.4z"
			/>
		<path class="st1" d="M114.4,21.6c-0.5,0-3-0.7-3.6-0.2c-0.2,0-0.4-0.3-0.4-0.5s0.4-0.3,0.6-0.3C112,20.9,115,21.3,114.4,21.6z"/>
		<path class="st23" d="M90.8,9.4l-0.4,0.2c-0.7-0.2-1.4-0.3-2.2-0.3c-0.7-0.1-1.1-0.6-1.1-0.9c-0.2-0.1-0.4-0.1-0.5-0.2
			C86.7,8,87,8,87.3,8.1c0.1,0.3,0.3,0.5,0.5,0.7c0.2,0.2,0.4,0,1,0C89.4,8.9,90.1,9.1,90.8,9.4z"/>
		<path class="st12" d="M83.2,17c1.5-0.6,4.6-0.7,4.6-0.5s-2.3,0.2-3.4,0.5c-0.2,0-0.7,0-0.8,0.2s0.4,0.1,0.3,0.2S83.2,17.2,83.2,17
			z"/>
		<path class="st14" d="M83.3,17.3h0.4c1.3,0.2,2.6,0.3,3.9,0.2c0.2,0,0.1,0.4-0.6,0.4c-1.4-0.1-2.4-0.1-3.8-0.3
			C83.2,17.3,83.1,17.3,83.3,17.3z"/>
		<path class="st1" d="M100.9,18.7c-0.3,0.3-0.3,0.7-0.1,1c0.1,0.1,0.2,0.9,0,0.9s-0.1-0.5-0.3-0.6c-0.3-0.1-0.4-1.2-0.3-1.5
			s0.7-0.1,1.1-0.1C101.5,18.8,101,18.6,100.9,18.7z"/>
		<path class="st24" d="M100.9,18.7c0.1-0.1,0.1-0.3,0.2-0.4c0.4,0,1.6,0.1,1.6,0.3S101.4,18.7,100.9,18.7z"/>
		<path class="st1" d="M31,6.5c0.3,0,1-0.8,1.4-0.3c0.1,0.3-1,0.6-1.5,0.8c-0.5,0.1-1-0.1-1.2-0.6c-0.2-0.5-0.1-1.2,0.3-1.6
			c0.3-0.3,0.6,0,0.9,0.3c0.3,0.3,0.4,0.7,0.2,1c-0.1,0-0.2,0-0.3,0c-0.2,0-0.1-0.8-0.5-0.7S30,5.8,30.2,6c0.1,0.1,0.2,0.3,0.3,0.4
			C30.5,6.5,31,6.5,31,6.5z"/>
		<path class="st1" d="M56.7,26.4c0.3,0.1,0.6-0.1,0.7-0.3c0.1,0,0.5,0,0.6,0c0.4,0.1-0.4,0.4,0.6,0.8c0.8,0.7,1.7,1.6,2.4,2.2
			c0.5,0.4,1,0.9,1.5,1.3c1.1,0.8,1,2.2,1.3,3.4c0.4,1.4,0.5,2.8,0.3,4.3c0,0.2-0.3,0.4-0.5,0.3c0.2-0.3,0-0.3,0.2-1
			c0-2-0.4-3.9-1.1-5.8c-0.1-0.2-0.4-0.7-0.5-0.8c-0.6,0.7-1-1.1-1.8-1.4c-1-1.1-1.9-2.3-4-2.6C56.2,26.7,56.4,26.6,56.7,26.4z"/>
		<path class="st1" d="M74.7,32c-0.3-0.4-1-1-0.6,0.1c-0.4,2.2-0.2,4.5,0.6,6.6c0.3,0.5,0.2,1.5,0.6,0.4c0.2-0.1,0.4,0.1,0.4,0.2
			c-0.1,0.2-0.1,0.5-0.2,0.7c0.1,0.5,0.3,1.1,0.6,1.6c-0.2,0.2-0.4-0.3-0.5-0.4c-1.6-2.5-2.8-5.5-2.5-8.5c0.5-0.7,0.6-1.6,0.3-2.5
			c0-0.1,0-0.6,0.2-0.6s0.1,0.5,0.2,0.6c0.2,0.5,0.5,0.9,0.9,1.3C74.9,31.8,75.1,32.1,74.7,32z"/>
		<path class="st25" d="M67.5,47.8h-0.4c-0.3-0.4-0.4-0.9-0.4-1.4c-0.2-0.6-0.2-1-0.4-1.7c-0.1-0.7-0.2-1.4-0.4-2.1
			c-0.2-0.6,0-0.5-0.4-1.1c0-0.6-0.6,0-0.5-0.6c0-0.2,0-1.3-0.1-2.1c0,0,0.2-0.2,0.3-0.3c0,0.8,0.1,1.6,0.3,2.4c0.6,1,1,2,1.2,3.1
			C66.8,45.3,67.1,46.6,67.5,47.8z"/>
		<path class="st1" d="M75.9,29.6c2.2,0.2,4.3,0.6,6.5,1.2C82.3,31,81.7,31,81.5,31c-0.8-0.2-2-0.5-3-0.6c-1.4-0.2-2.6-0.3-2.8-0.3
			c-1.1-0.6-2.3-1-3.5-1c-0.3,0-0.5-0.1-0.8-0.3c-0.1-0.1,0.4-0.2,0.5-0.3c0.9,0.1,1.8,0.3,2.6,0.7C75,29.4,75.4,29.5,75.9,29.6z"/>
		<path class="st1" d="M69.3,36.3c0,0.1-0.1,0.5-0.1,0.6c-0.2-0.1-0.3-0.3-0.5-0.4c-0.1-0.6-0.2-1.2-0.3-1.8c-0.5-0.5-0.5-0.5-1-1.8
			c-0.6-1.4-1.2-2.8-2-4.2c-0.1-0.1-0.3-0.6-0.1-0.7s0.5,0.4,0.6,0.6c0.3,0.8,0.7,1.6,1,2.4c0.4,1,0.9,2,1.6,3
			c0.3,0.5,0.5,1,0.6,1.6C69.1,35.9,68.8,36.2,69.3,36.3z"/>
		<path class="st1" d="M65.4,35.6L65,35.8c-0.2-1.6-0.5-3.3-1-4.9c-0.2-0.9-0.6-1.6-1.3-2.2c-0.2-0.2-0.7-0.7-0.5-0.9
			s1.4,0.7,1.7,1.3c0.6,1.2,0.9,2.6,1,3.9C65.2,33.9,65.6,34.7,65.4,35.6z"/>
		<path class="st1" d="M76,42.9c-0.1,0.1-0.2,0.4-0.2,0.5c-0.3-0.1-0.5-0.4-0.7-0.6s-0.3,0.1-0.5,0c-0.5-0.4-1-0.9-1.4-1.4
			c-0.4-0.6-0.7-1.3-1-1.9c-0.2-0.6-0.2-1.3-0.2-2c0.2-0.2,0.2,0,0.3,0.2c0.1,1,0.4,2,1,2.8c0.6,0.7,0.8,1.4,1.7,1.9
			c0.1,0,0-0.6,0.1-0.6S75.4,42.9,76,42.9z"/>
		<path class="st26" d="M69.2,35.7c-0.2-0.5-0.3-1.1-0.5-1.6c-0.4-1-0.7-2-1-3.1c-0.1-0.3-0.2-0.5-0.3-0.7s-0.2-0.4,0.1-0.5
			s0.3,0.1,0.4,0.3c0.3,0.9,0.5,1.8,0.8,2.6c0.2,1,0.5,1.9,0.8,2.8C69.5,35.8,69.5,35.6,69.2,35.7z"/>
		<path class="st1" d="M76.2,42.7c0.2,0,0.3,0,0.3,0.2s0.3,0.3,0.6,0.4s0.2,0.7,0.8,0.7c0.1,0,0.1,0.4,0.3,0.6
			c0.4,0.5,0.4,1.1,0.8,1.5c0.1,0.2,0.2,0.5,0.2,0.7c-0.2,0.2-0.1,0.4-0.3,0.2c-0.1-0.2-0.2-0.5-0.3-0.7c-0.2-0.3-0.4-0.7-0.6-1
			c-0.2-0.4-0.5-0.8-0.8-1.1c-0.1-0.2-0.1-0.3-0.3-0.6s-0.5-0.3-0.5-0.4S76.1,42.7,76.2,42.7z"/>
		<path class="st1" d="M72,28.5c0,0.1-0.5,0.2-0.5,0.3c-0.2,0.2,0,0.3,0.1,0.5c0.2,0.3,0.2,0.6,0.2,0.9c-0.3,0.3-0.4,0.2-0.5,0
			C71,29.8,71.2,29,71,28.8s-1-0.1-1.3-0.2c0.2-0.1,0.8-0.1,1-0.2C71.2,28.4,71.6,28.4,72,28.5z"/>
		<path class="st1" d="M69.1,28.6c0.1-0.1,0.2-0.1,0.3,0c0,0,0,0,0,0c-0.1,1,0,2.1,0.4,3.1c-0.1,0.1-0.2,0.2-0.3,0
			C69.2,30.7,68.7,29.4,69.1,28.6z"/>
		<path class="st1" d="M71.3,30c0.1,0.1,0.3,0,0.4,0.1c0.5,0.3,0.7,0.9,0.6,1.5C71.8,31.2,71.5,30.6,71.3,30z"/>
		<path class="st9" d="M72.3,37.7l-0.3-0.2c0-0.2,0-0.5-0.1-0.7c0-0.3-0.1-1.8,0.1-1.7S72,36.9,72.3,37.7z"/>
		<path class="st27" d="M69.4,31.6h0.3c0.3,0.8,0.4,1.6,0.4,2.4C69.8,33.2,69.6,32.4,69.4,31.6z"/>
		<path class="st1" d="M77,42.1c0.1,0.1,0.2,0.3,0.3,0.4s0.7,0,0.6,0.3s-0.6,0.2-0.9,0c-0.1-0.1-0.1-0.2-0.1-0.3s-0.3-0.2-0.3-0.5
			C76.9,41.8,76.8,42,77,42.1z"/>
		<path class="st1" d="M78.3,14.7c-0.6,0.2-1.2,0.3-1.8,0.1c-0.1,0-0.2-0.1-0.3-0.1c-0.3,0-0.7,0.1-1.1,0c-0.3,0-0.7-0.1-1-0.2
			c-0.8-0.4-1.4-1-2-1.7c-0.4-0.3-1.8,0.3-1.5-0.3c-0.1-0.2,0.9-0.4,1.5-0.2s0.8,0.8,1.2,1c0.5,0.3,1.1,0.6,1.7,0.9
			c0.5,0.2,1-0.2,1.4,0c0.2,0.1,0.3,0.2,0.5,0.2C77.4,14.5,77.9,14.5,78.3,14.7z"/>
		<path class="st1" d="M80.5,9.5c-0.2-0.1-0.4-0.1-0.6-0.2c-0.3-0.2-0.5-0.3-0.8-0.4c-0.8-0.4-1.6-0.9-2.3-1.5
			c-0.2-0.2-0.9-0.9-0.7-1.1s0.9,0.4,1.1,0.6c0.5,0.3,0.9,0.8,1.4,1.1l0,0c0.7,0.4,1.8,0.9,2.6,1.4C81.3,9.5,80.7,9.5,80.5,9.5z"/>
		<path class="st1" d="M83.6,17.3l-0.4,0.2c-0.2,0-0.1-0.2-0.2-0.2c-1.1,0-2.1-0.3-3.1-0.7c-0.9-0.2-1.7-0.4-2.5-0.6
			c0.2-0.1,0.7-0.1,0.9-0.2c0.6,0.1,1.2,0.2,1.8,0.3c0.6,0.2,1.1,0.4,1.7,0.5c0.5,0.1,1,0.2,1.5,0.2C83.3,17.1,83.5,17.3,83.6,17.3z
			"/>
		<path class="st6" d="M80.5,9.5c0.1-0.1,0-0.4,0.1-0.4c0.6,0.2,1.1,0.4,1.6,0.8c0.2,0.1,0.4,0.1,0.6,0.3c0.5,0.2,2.3,0.5,1.7,0.8
			C84.4,11.1,81.8,10.1,80.5,9.5z"/>
		<path class="st28" d="M83,15c0.3,0.3,1.3,0.8,1.1,0.9s-1-0.6-2-1.1s-2-0.4-2-0.6s1.4,0,2,0.1C82.4,14.5,82.7,14.7,83,15z"/>
		<path class="st1" d="M62.9,41.5c-0.1-0.1-0.3,0-0.4,0.1c0,0,0,0.1,0,0.1c-0.1-0.7-0.3-0.7-0.6-0.8s-0.3-1.2-0.4-1.7
			s-0.4-0.8-0.8-0.8c-0.4,0-0.8,0-1.2-0.1c-0.2,0-0.1-0.3-0.3-0.3c-0.7,0.1-1-0.5-1.4-1s-1-1.1-1.4-1.7c-0.1-0.1-0.2-0.3-0.2-0.4
			c0-0.1,0.1-0.2,0.2-0.2c0,0,0,0,0,0c0.2,0.1,0.8,1.1,0.5-0.1c0-0.2-0.4-0.9-0.1-1c0.6,0,0.3,0.8,0.4,1c0,0.4,0.1,0.8,0.3,1.2
			c0.2,0.3,0.6,0.4,0.7,0.7c0.6,1.3,1.2,0.6,1.4,1c0.1,0.2,0.8,0.2,1.2,0.2c0.7,0.1,1.1,0.6,1.1,1.5c0,0.5,0.3,1.2,0.7,1.2
			S62.9,41.1,62.9,41.5z"/>
		<path class="st1" d="M56.4,34.8L56.2,35c-0.4-0.4-0.6-0.9-0.7-1.5c0.1-0.9,0-1.7-0.1-2.6c-0.1-0.4-1.1-1-1.3-1.4
			c-0.2-0.3-0.4-0.7-0.5-1.1c-0.1-0.3-0.3-0.6,0.1-0.6s0.4,0.5,0.6,0.8s0.1,0.5,0.5,0.7c0,0.6,0.5,1,1,1.1c0.2,0.6,0.3,1.3,0.3,2
			C56,33.2,56.1,34,56.4,34.8z"/>
		<path class="st1" d="M55.1,29.1c0.1,0.5,0.2,1.1,0.2,1.6c0,0.5,0,0.9,0,1.4c0,0.2-0.3-0.1-0.4-0.1s0-1-0.1-1.9
			c-0.1-0.7-0.3-1.3-0.5-2c-0.1-0.3-0.3-0.5-0.6,0.3c-0.3-0.4-0.4-1.1-0.7-1.5c-0.1-0.1-0.3-0.1-0.4-0.2s-0.1-0.3,0-0.4
			s0.5-0.1,0.6,0c0.1,0.3,0.2,0.8,0.5,1s0.7,0,1,0.2S54.9,28,55.1,29.1z"/>
		<path class="st1" d="M76.7,18.9c-1.1,0.3-2.2,0.7-3.2,1.2c-0.8,0.4-1.5,0.9-2.2,1.4c-0.5,0-0.9-0.1-0.7-0.2
			c0.6-0.4,2.2-1.3,2.7-1.5c1.8-0.8,3.7-1.5,5.6-1.9C79,18,79,18.1,79,18.2C79,18.5,77.6,18.5,76.7,18.9z"/>
		<path class="st16" d="M79,18.3c0-0.1-0.2-0.3-0.2-0.4c0.5-0.2,1.3-0.4,1.8-0.5c0.2-0.1,1.5-0.5,1.4-0.1
			C81.4,17.5,79.6,18.1,79,18.3z"/>
		<path class="st29" d="M10.1,23.2c0.6,0.3,1,0.9,1.1,1.5C10.4,24.4,10.3,23.8,10.1,23.2L10.1,23.2z"/>
		<path class="st25" d="M175.6,50.2c-2.4-0.7-4.4-1-6.8-1.5c-0.6-0.1-1.2-0.3-1.7-0.5c-0.6-0.1-0.9-0.3-1.6-0.4s-1.1-0.1-1.7-0.3
			c-0.3-0.1-0.6-0.1-0.9-0.1c-0.3,0-0.5,0-0.5,0.2s0.1,0.6,0.1,1c-0.2,0.1-0.5,0.2-0.8,0.2c0,0-0.1-0.1-0.1-0.2
			c0.6-0.3,0.3-0.7,0.3-1c0-0.1,0.1-0.3-0.1-0.3s-1,0-1.3-0.1c-2.1-0.5-4.3-1.3-6.4-1.7c-1.7-0.2-4.3-0.4-4.6-0.5
			c-0.6-0.3-1.2-0.4-1.8-0.5c-0.5,0-1,0-1.5-0.1c-1.4-0.5-2.8-0.9-4.3-1.2c-0.5-0.1-0.7-0.1-0.9-0.1s-0.1,0-0.2,0s-0.1,0.1-0.2-0.1
			s-0.7,0.1-0.9,0s-0.1-0.4-0.1-0.4c1.8,0,3.5,0.3,5.1,1c1.3,0.3,2.7,0.6,4,0.8c1.4,0.4,2.9,0.6,4.4,0.7c0.6,0,1.2,0.1,1.8,0.3
			c2.9,1,5.9,1.6,9,1.9c0.8,0,1.6,0.2,2.4,0.4c2.2,0.6,4.4,1,6.6,1.4c0.9,0.2,2.1,0.5,2.9,0.7C176,49.9,175.7,50.1,175.6,50.2z"/>
		<path class="st30" d="M85.6,31.2c2.2-0.1,3.5,0.5,5.5,0.9c4.4,0.9,9.3,2.2,13.8,2.8c1.1,0.2,2.3,0.3,3.4,0.4c2.4,0,4.8,1,7.2,1.3
			c-0.1,0.3-0.5,0.1-0.7,0.3c-1.4,0-3.2-0.8-4.6-0.9c-2.2-0.3-3.9-0.4-6.2-0.7c-4.2-0.6-9.5-1.8-13.7-2.7c-1.6-0.5-3.3-0.8-5.1-1
			C85.3,31.4,85.5,31.3,85.6,31.2z"/>
		<path class="st1" d="M106.9,44.5c-0.3-1.7-1.7-2.2-2.8-3c-0.4-0.4-1.1-0.5-1.4-1c-0.5-0.9-1.3-1.7-2.2-2.2
			c-0.4-0.2-0.3-0.5-0.6-0.9c-0.5,0-1-0.7-1.5-1.1c-0.6-0.5-1.1-1.2-2-1.2c-0.2,0-0.9,0.2-0.9-0.2s0.5-0.5,0.7-0.5
			c0.8,0.1,1.5,0.5,2.1,1.1c0.5,0.4,1.1,1.3,1.7,1.3s0.2,1.2,0.7,1.2c0.6,0.2,1.1,0.6,1.5,1.1c0.4,0.9,1.2,1.6,2.2,2
			c0.7,0.3,0.8,1.1,1.9,1.4c0.8,0.7,1.2,1.9,0.8,3C106.6,45.4,107,44.8,106.9,44.5z"/>
		<path class="st1" d="M161.4,48.2c0.2-0.3,0.6,0.8,0.8-0.2l0.3,0.6c0.4,0.5,0.6,1.1,0.8,1.6c0.1,0.4,0.9,0.3,1.4,0.4
			c1,0.2,1.9,1.4,2.8,1.8c0.2,0.1,0.2,0.3,0.4,0.4c1.1,0.7,2,1.7,2.6,2.9c0.1,0.3,0.4,0.8,0.1,1s-1.1-2.1-1.9-2.6
			c-0.3,0.3,1,1.9,0.8,2s-1.6-2.8-3-3.7c-0.6-0.6-1.4-1.1-2.3-1.4c-0.7,0-1.2-0.5-1.4-1.1C162.4,49.5,161.5,49,161.4,48.2z"/>
		<path class="st25" d="M123.8,38.6c0.5,0,0.9,0,1.4,0.1c1,0.3,3,0.9,4.9,1.2c1.4,0.3,2.8,0.8,4.1,1.3c1.7,0.7,3.5,1.1,5.3,1.2
			c1.2,0,0.6,0.1,0.6,0.2c0,0.1-0.1,0.2-0.2,0.2l0,0c-2.4-0.1-4.7-0.6-6.9-1.5c-1.3-0.5-2.6-0.9-3.9-1.1c-1.1-0.2-2.2-0.5-3.2-0.8
			c-0.9-0.3-1.9-0.5-2.9-0.6C123.1,38.6,123.5,38.9,123.8,38.6z"/>
		<path class="st1" d="M155.1,61.6c0,0.1-0.1,0.3-0.3,0.3c-0.6-0.7-2.7-2.3-4-3.6c-0.3-0.3-0.8-0.3-1.3-0.4c-2.6-0.5-4.8-1.6-6.1-4
			c-0.1-0.2-0.2-0.4,0.2-0.4l1.3,1.2c0.1,0.5,0.4,1,0.9,1.2c0.4,0.2,0.7,0.4,1.3,0.7c0.8,0.6,1.7,0.9,2.7,0.8c0.5,0,1.1,0.2,1.5,0.6
			C152.7,59.2,153.9,60.4,155.1,61.6z"/>
		<path class="st1" d="M124.9,39.9c0.2,0.2,0.7,5,1.2,6.6c-0.1,0.2-0.1,0.4,0,0.7c0.1,0.7-0.2,0.8-1,0.7c-0.4-0.7-0.7-1.6-0.7-2.5
			c-0.2-0.7-0.4-1.3-0.6-2l0,0c-0.5-2.5-0.6-4.6,0.4-4c-0.4,1-0.4,2.2,0,3.2c0.3,0.6,0.4,1.3,0.6,1.9c0.3,0.3,0.5,1.8,0.9,2.2
			c0.2-1-1-3.6-0.9-5C124.7,41.7,124.5,39.8,124.9,39.9z"/>
		<path class="st1" d="M120.3,52.7c-1.5-1.6-3-3.1-3.3-5.4c-0.1-0.9-1-1.4-1.6-2c-0.4-0.3-0.7-0.6-0.9-1c0-0.1,0.1-0.2,0.2-0.2
			c0,0,0,0,0,0c1.8,1.4,4.5,4.8,4.4,5.1c-0.7-0.1-1.1-1.2-1.7-1.6c0.3,1.4,1,2.6,2,3.6c0.5,0.5,0.9,1,1.5,1.5
			C120.7,53,120.5,52.6,120.3,52.7z"/>
		<path class="st1" d="M134.4,47.8c-0.4-0.7-1-1.3-1.6-1.9c-0.2-0.2-1-1-1.3-1s0.4,0.6,0.3,0.7c-0.5,0.3-1-0.4-1.5-0.7
			c-0.7-0.5-0.3-0.3-0.9-0.7c-0.1-0.1-1-0.6-1.2-0.8c-0.2-0.4-1.8-1.7-1.1-1.8c0,0,1.6,0.9,1.6,0.9c0.5,0.6,1.1,0.8,1.7,1.6
			c0.1,0.2,0.2-0.7,1.8,0.8c1.2,0.9,2.3,2.1,3,3.5c-0.1,0.1-0.3,0.1-0.4,0.1C134.7,48.3,134.5,48.1,134.4,47.8z"/>
		<path class="st1" d="M85.6,31.2c-0.1,0.1-0.2,0.2-0.3,0.3c-0.6,0-1-0.1-1.3-0.1c-0.1,0-0.4,0-0.4,0s0.2,0.5,0.5,1.3
			c0.5,0.9,0.9,1.8,1.3,2.7c0,0.1-0.1,0.2-0.3,0.2c-0.5-0.8-0.7-1.5-1.3-2.3c-0.3-0.6-0.6-1.3-0.7-2c-0.3-0.1-0.7-0.5-1.1-0.3
			c-0.1,0.3,0.3,0.8,0.4,1c0.7,1.3,1.4,2.4,2.2,3.8c-0.1,0-0.2,0.3-0.3,0.1c-0.7-1-2.8-4.4-2.8-5l0.5-0.3
			C83.2,30.8,84.4,31,85.6,31.2z"/>
		<path class="st1" d="M75.5,31c0.1-0.1,0.2,0,0.2-0.1c0.3,0.1,0,0.3,0.3,0.6c0.3-0.1,0.6-0.1,0.8,0.1c1.1,0.8,2.5,1.6,3,2.8
			c0.3,0.5,0.2,0.6,0.5,1.2c-0.3,0.4-0.2,0.5-0.5,0c-0.3-0.8-0.8-1.6-1.5-2.2c-0.1-0.1-0.5-0.6-0.9-0.7c-1.1-1-1.1-0.9-1.6-0.9
			C75.5,31.5,75.6,31.5,75.5,31z"/>
		<path class="st1" d="M91.7,40.4c-0.5-1.9-2.4-5.8-2.2-5.8s2.1,4,2.3,5c0.1-0.4-1.7-5.3-1.3-5.4c0.8,1.9,1.4,3.8,1.8,5.8
			C92,40.1,92,40.4,91.7,40.4z"/>
		<path class="st1" d="M152.3,54c-2.2-1.5-3-5.3-6.4-6.3c0-0.8,1.1-0.2,1.4,0c0.5,0.2,1,0.6,1.3,1c1.2,1.6,2.4,3.3,3.7,4.9
			C152.5,53.7,152.5,53.9,152.3,54z"/>
		<path class="st1" d="M140.5,49.2c-0.1-0.1-0.5-0.9-0.5-1c-0.8-2.2-2.1-2.8-3.7-4.3c-0.1-0.1-0.8,0-0.7-0.2s0.5-0.5,0.7-0.5
			c0.3,0.1,0.5,0.3,0.7,0.5c1.2,1.1,2.3,2,3.5,3.1c0.8,1,1.2,2.2-0.1,0.8c-0.6-0.7,0.4,1.1,0.4,1.2S140.8,49.2,140.5,49.2z"/>
		<path class="st1" d="M79.6,35.4c0.2,0.3,0.5,0.3,0.8,0.2c0.6,0.4,1,0.9,1.3,1.5c0.6,1.3,1.1,2.4,1.8,3.7c0.1,0.5,0.4,0.9,0.3,1.5
			c-0.5-1-0.9-2-1.5-2.9c-0.5-0.7-0.8-1.5-1.2-2.3c-0.3-0.4-0.5-0.9-1.1-0.9c-0.3,0-0.5-0.3-0.6-0.6s-0.7-1.2-1.3-1.7
			c-0.2-0.1-0.4,0.4-0.5,0.3c-1.1-0.9-2.5-1.8-2.9-2.3c0.2-0.1,0.2,0,0.4-0.1c0.4,0.4,0.8,0.7,1.3,1c0.3,0.2,0.7,0.8,1.1,0.8
			c0.3,0,0.7-0.2,0.9,0C78.8,34.1,79.2,34.7,79.6,35.4z"/>
		<path class="st1" d="M105.1,52.9c-0.6-0.3-1.1-0.8-1.5-1.4c-0.8-1.2-2.5-2.4-2.6-3.9c-1.5,0-1.2-1.1-2-1c-0.1-0.2,0-0.3,0-0.4
			s0.4,0.2,0.6,0.1c0.5,0.3,0.8,0.7,1.6,0.8c0.4,0.2,0.7,0.7,0.6,1.1c0,0.5,0.2,1,0.7,1.3c1.1,0.9,1.7,2.2,2.7,3.2
			c0.1,0.1,0,0.1-0.1,0.2C105.2,52.9,105.1,52.9,105.1,52.9z"/>
		<path class="st1" d="M158.9,61.5c-1.5-1.8-3.1-3.4-4.9-4.9c-0.5-0.5-1.2-1-1.3-1.5c0.4-0.2,1.4,0.9,1.6,1.1
			c2.3,1.5,3.8,3.6,5.6,5.6c0.1,0.1,0.2,0.3,0,0.4s-0.2-0.1-0.3-0.1C159.3,61.9,159.1,61.7,158.9,61.5z"/>
		<path class="st1" d="M83,38.5c0.2,0.2,0.1,0.8,0.4,0.8c0.8-0.2,2.9,7.7,2.7,7.8c-0.4,0.2-1.4-4.8-2.5-6.9
			c-0.5,0.3-0.6-0.4-0.9-1.3C82.8,38.6,82.7,38.4,83,38.5z"/>
		<path class="st1" d="M141.9,43.8c-0.1-0.2-0.1-0.4,0.2-0.2c1.2,1.1,2.8,1.8,4.5,1.8c0.2,0,0.6-0.1,0.6,0.3s-0.4,0.3-0.6,0.3
			c-0.9,0-1.8-0.1-2.6-0.4c-0.6-0.3-1.3-0.3-1.9-0.1c-0.2,0-0.5,0.3-0.8,0.3c-0.4-0.1-0.3-1-0.3-1.3s0.4-0.2,0.4,0.5
			c0.4,0.2,0.9,0.1,1.3-0.2C142.9,44.4,141.9,44.2,141.9,43.8z"/>
		<path class="st1" d="M98.2,45c-1.4-2.4-2.6-4.9-3.3-7.6l-0.2-0.7c0-0.3-0.3-1.1,0-1.2s0.5,0.9,0.6,1.2c0.7,2.6,1.7,5.1,2.9,7.5
			c0.1,0.3,0.4,0.5,0.6,0.7C98.5,45,98.4,45,98.2,45z"/>
		<path class="st1" d="M120.3,52.7c0.2-0.1,0.4-0.1,0.7,0c1.1,0.8,2,1.8,2.8,2.9c0.2,0.3,0.7,0.5,0.8,0.8l0.9,0.4
			c-0.1,0.5-0.4,0.2-0.6,0.2c-0.6-0.3-0.8-0.3-1-0.5C122.5,55.2,121.4,53.9,120.3,52.7z"/>
		<path class="st1" d="M114.7,44l-0.3,0.2c-1.6-1.3-3.5-2.2-4.6-4.1c-0.1-0.2-0.2-0.4,0.2-0.4c0.7,0.4,1.8,0.7,1.6,1.5
			c0.2,0.5,1.2,1.1,1.7,1.5C113.9,43.1,114.3,43.5,114.7,44z"/>
		<path class="st1" d="M134.9,51c0.6,1.8-0.2,5.4-0.8,5.2c-0.1,0,0.3-1.2,0.5-1.8c0.1-0.3,0.1-1.3-0.4-0.4c-0.2,0-0.4-0.1-0.4-0.3
			c1.2-1.2,0.5-2.1,0.4-3.2c-0.1-0.2-0.1-0.5,0.1-0.6c0,0,0,0,0,0C134.7,50.3,134.7,50.6,134.9,51z"/>
		<path class="st1" d="M128.6,51.9c0.2,0.1,0.5,0.3,0.7,0.5c0.6,0.6,1,1.4,1,1.6s-0.6-0.5-1.5-1.2c-1.4-1-2.5-2.4-3.3-3.9
			c0.1-0.3,0.1-0.3,0.5-0.2c0.6,1,0.7,1.9,1.8,2.5C128,51.4,128.3,51.6,128.6,51.9z"/>
		<path class="st31" d="M147.2,56.4c-1.2-0.6-2.2-1-2.1-1.6c0.5,0.3,0.9,0.4,1.4,0.7c0.9,0.5,2,0.6,3,0.2c0.4-0.1,1.5-0.4,1.5,0
			s-1,0.4-1.4,0.6C148.8,56.5,148,56.5,147.2,56.4z"/>
		<path class="st1" d="M117.9,45c-0.4,0.2-4.6-5.9-4-6c0,0,0.2-0.5,0.3-0.3c0.6,1,2.8,5.1,3.8,6C118.3,44.9,118,44.9,117.9,45z"/>
		<path class="st1" d="M129.5,44.3c0.5,0.4,0.2,0.1,0.7,0.5c-2.5,0-5.2-3.1-5-3.9c0.4-0.3,1,0.8,1.2,1.2c0.5,0.7,1.1,1.3,1.9,1.7
			C128.4,43.9,129.4,44.5,129.5,44.3z"/>
		<path class="st1" d="M123.8,38.6l-0.8,0.2c-2.3-0.5-4.6-0.7-6.7-1.6c-0.5-0.2-1-0.3-1.5-0.4l0.7-0.3c0.6,0.1,1.2,0.3,1.7,0.5
			C119.5,37.8,121.2,38,123.8,38.6z"/>
		<path class="st1" d="M133.9,53.6c0.1,0.1,0.2,0.3,0.3,0.4c-0.7,0.6-1.1,1.1-1.8,1.6c-0.3,0.3-0.3,1.2-0.4,1.6s-0.3,0.8-0.4,1.2
			c-0.3,0-0.4-0.5,0-1.5c0.1-0.2-0.4-0.2-0.5-0.4c-0.3-0.7-0.4-1.4-0.3-2.1c0.1,0,0.1,0.1,0.2,0.1c0.2,0.3,0.2,1.5,0.6,1.6
			s0.4-0.7,0.6-0.9C132.8,54.7,133.4,54.1,133.9,53.6z"/>
		<path class="st1" d="M151.4,50.1c-0.8-1.9-2.4-2.7-4.1-3.5c-0.3-1,3.6,0.5,4.4,3.1C151.7,49.9,151.8,50.1,151.4,50.1z"/>
		<path class="st1" d="M164.6,52.7c-0.1,0.1-0.3,0.2-0.4,0.2c-1.5-0.5-4-1.7-4-3c0-0.1,0.1-0.5,0.2-0.3c0.2,0.4,0.4,0.8,0.8,1.1
			C162.3,51.4,163.4,52.1,164.6,52.7z"/>
		<path class="st1" d="M104.9,37c0.2-0.4,0.6,0,0.7,0.1c1.2,1.2,2.7,2.2,3.8,3.5c0.1,0.1,0.3,0.3,0.2,0.5s-0.4,0-0.5-0.1
			c-1.2-1.2-2.4-2.4-3.7-3.4C105.2,37.4,105,37.2,104.9,37z"/>
		<path class="st1" d="M96.5,43.2c-0.2,0-0.1-0.5-0.3-0.6S96,42.1,95.9,42s-0.3-0.5-0.3-0.6l-1.1-2.3c-0.1-0.3-0.3-0.5-0.5-0.8
			c-1.2-1.9-2.2-4.8-1.6-4.9c0.2-0.1,0.6,2.3,1.4,3.4c0.2,0.4,0.5,1.1,0.8,1.8l1,2.2c0,0.1,0.5,0.6,0.5,0.7s-0.2,0.4,0.2,0.5
			S96.5,43.2,96.5,43.2z"/>
		<path class="st1" d="M90.4,39.5c-0.6-1.9-2.6-5.5-2.2-5.5c0.5-0.2,1.8,3.3,2.4,5C90.7,39.3,90.8,39.6,90.4,39.5z"/>
		<path class="st1" d="M105.9,53.4l1.2,2c0.1,0.2,0.3,0.3,0.1,0.5s-0.4-0.1-0.5-0.2c-0.2-0.4-0.4-0.8-0.6-1.2
			c-0.2,0.4,0.4,1.8-0.3,1.5c-0.2-1-0.4-2-0.4-3l0,0C105.8,52.7,105.7,53.2,105.9,53.4z"/>
		<path class="st1" d="M141,46.5c-1.1-1.2-2.5-2.3-3.9-3.2C138.9,43.6,140.4,44.8,141,46.5z"/>
		<path class="st32" d="M140.5,49.2l0.2-0.4c0.7,1.8,1.8,3.4,3.1,4.8l-0.2,0.4C142.1,52.7,141.1,51,140.5,49.2z"/>
		<path class="st1" d="M103.6,40.1c-0.5-0.7-1-1.4-1.4-2c-0.4-0.7-0.9-1.3-1.5-1.8c-0.2-0.1-0.3-0.3,0-0.5c0.1-0.1,0.3-0.1,0.4,0.1
			c0.7,0.6,1.3,1.3,1.6,2.2c0.3,0.5,0.9,0.7,1.2,1.6C103.9,39.7,103.7,39.8,103.6,40.1z"/>
		<path class="st1" d="M110.6,40c-0.1,0.1-0.7-0.1-0.7,0.1c-1.2-0.8-2.2-1.7-3.1-2.9c-0.1-0.1-0.6-0.1-0.7-0.2s0-0.2,0.1-0.3
			C106.7,36.3,109.1,39.2,110.6,40z"/>
		<path class="st1" d="M175.1,53.6h-0.3l-0.2-0.2c-0.3-0.1-0.3-0.3-0.6-0.6c-0.4-0.6-0.9-1.1-1.5-1.5c-0.2-0.1-1.3-0.7-0.9-1.1
			s0.6,0.5,1,0.7l0.4,0c0.1,0,0.3,0.1,0.3,0.3C173.8,52.1,175.3,52.6,175.1,53.6z"/>
		<path class="st1" d="M91.7,40.4c0-0.3,0.2-0.5,0.6-0.4c0.2,0.4,0.3,0.9,0.4,1.3c0,0.3,0,0.5,0,0.5c0.3,0.2,0.3,0.6,0.4,1.2
			c0,0.3,0.3,0.7-0.2,0.9c-0.2-0.5-0.1-1.4-0.4-1.7c-0.1-0.1-0.2,0.1-0.3,0C91.8,41.7,91.7,41,91.7,40.4z"/>
		<path class="st1" d="M119.7,39.6c-0.1,0.4,1.9,3.3,2.1,3.5C120.6,43.5,118.6,39.2,119.7,39.6z"/>
		<path class="st1" d="M123.7,43.4c0,0.2,0.1,0.4,0,0.5s-0.2,0.1-0.3,0c-0.8-0.5-1.6-4.8-0.7-4.1C122.6,41.1,123,42.4,123.7,43.4
			L123.7,43.4z"/>
		<path class="st1" d="M93.8,39c0.1,0,0-0.1,0.1-0.1c0.3,0,1.6,3.7,2.3,4.4l0,0c0.4,1,1.1,1.9,1.9,2.6c0.3,0.1,0.7,0.7,1,0.5
			c0.1,0,0.4,0,0.4,0.1s-0.5,0.2-0.6,0.3c-1.1-0.4-2.1-1.2-2.7-2.3C96.1,43.9,93.8,39.5,93.8,39z"/>
		<path class="st4" d="M87.3,49.8c0.3,0,2.8,2.8,3.8,4.3c0,0.1-0.2,0.2-0.2,0.2c-1.1-1.4-2.4-2.9-3.6-4.1
			C87.2,50,87.2,49.9,87.3,49.8z"/>
		<path class="st1" d="M161.1,54.1c-0.1,0-0.3,0.2-0.5,0.1c-0.6-0.6-2.1-2.3-2.6-2.6c0-0.1,0-0.5,0.1-0.4
			C159,51.6,161.4,53.9,161.1,54.1z"/>
		<path class="st1" d="M129,42.8c-0.1,0.3-0.6,0.3-0.7,0.6c0-1-1.9-2.5-1.3-2.8C127.1,40.6,128.7,42.1,129,42.8z"/>
		<path class="st1" d="M128.9,51.3c-0.6,0.5-0.8-0.1-1.1-0.4c-0.5-0.7-0.9-1.4-1.3-2.1c-0.1-0.2-0.2-1-0.5-0.8
			c-0.3-0.1-0.3,0.1-0.1,0s0.6,0,0.7,0.3c0.6,0.7,1.1,1.5,1.5,2.3C128.3,50.9,128.6,51.1,128.9,51.3z"/>
		<path class="st6" d="M82.8,39c-0.7-1.4-1.5-2.8-2.3-4.2c-0.2-0.2-0.1-0.2,0.1-0.4c1,1.2,1.8,2.6,2.4,4C83,38.6,82.9,38.8,82.8,39z
			"/>
		<path class="st1" d="M90.3,39.4c0.1-0.2,0.2-0.3,0.3-0.4c0.7,1.5,1.1,3.2,1.4,4.8C91.7,43.9,90.8,40.7,90.3,39.4z"/>
		<path class="st1" d="M126.5,48.2c-0.2,0-0.6-0.4-0.6,0.2c0.1,0.2,0.1,0.5,0.1,0.7c-0.2,0.2-0.1,0.4-0.4,0.3
			c-0.1-0.3-0.6-1.3-0.7-1.6c0.7-0.1,0.8-0.9,1-1.4c0,0.5,0.4,0.9,0.8,1.1C127.3,47.5,126.4,47.5,126.5,48.2z"/>
		<path class="st2" d="M106.5,44.8c0.1,0.3,0.1,0.3,0.2,0.6c0,0.2,0.1,0.5,0.2,0.7c0.2,0.5,0.3,1-0.2,1.5c-0.1,0-0.3,0-0.4-0.2
			c0.4-0.7,0-1.3-0.1-1.9c0-0.3-0.4-1.1,0-1C106.4,44.4,106.4,44.6,106.5,44.8z"/>
		<path class="st1" d="M106.4,47.5l0.4,0.2c-0.3,0.4,0.1,0.6,0.2,1c0.2,0.7,0.3,2-0.4,2c0.1-0.8,0-1.6-0.3-2.3
			C106.1,48.1,106.2,47.7,106.4,47.5z"/>
		<path class="st2" d="M134.6,48.2c0.1,0,0.4,0.1,0.6,0c0.6,1,1,2,1.3,3.2c-0.4,0.1-0.6-1.5-1.3-2.2C135,48.8,134.8,48.5,134.6,48.2
			z"/>
		<path class="st26" d="M85.1,46.3c-0.3,0.1-0.4-0.6-0.8-1.3s-1-2-0.7-2s0.5,0.7,0.9,1.7C84.7,45.3,85.3,46.2,85.1,46.3z"/>
		<path class="st1" d="M124.8,56.9l0.6-0.2l2.3,0.8c0.1,0,0.2,0.3-0.1,0.3C126.7,57.7,125.7,57.4,124.8,56.9z"/>
		<path class="st1" d="M133.8,48.6c0.2,0.5,0.4,1,0.6,1.6c0,0.1,0.5,0.9-0.3,0.4c-0.2-0.6-0.5-1.2-0.8-1.8c-0.3-0.4-0.6-0.8-0.8-1.3
			C132.6,47,133.5,48.3,133.8,48.6z"/>
		<path class="st1" d="M173,60.2l0.8,0.9c-0.4,0.3-0.6,0-0.9-0.2c-0.4-0.4-0.8-0.8-1.2-1.2c-0.2-0.3-0.1-0.4,0.2-0.4L173,60.2z"/>
		<path class="st8" d="M92.9,44l0.2-1c0.2,1,0.4,1.9,0.6,2.9c-0.1,0.2,0.1,0.5-0.2,0.6C93.1,45.7,92.9,44.9,92.9,44z"/>
		<path class="st1" d="M99.2,46.3L99,46.1c-0.3-0.3-0.7-0.6-0.8-1.1l0.5-0.3c0.5,0.4,0.9,1,1.1,1.6C99.6,46.4,99.4,46.4,99.2,46.3z"
			/>
		<path class="st25" d="M105.8,52.7c-0.1-0.2,0,0-0.2-0.1c0-0.3,0-0.5,0-0.8c0.3-0.5,0.4-0.9,0.8-0.8
			C106.4,51.2,105.9,52,105.8,52.7z"/>
		<path class="st2" d="M151.4,50.1l0.2-0.4c0.5,0.8,0.8,1.6,0.9,2.5l0,0C152,52.5,151.8,50.8,151.4,50.1z"/>
		<path class="st33" d="M172,59.3l-0.2,0.4c-0.1,0,0.4,0.4,0.3,0.3l-0.7-0.5c-0.3-0.4-0.6-0.8-0.8-1.3c-0.1-0.1-0.4-0.5-0.3-0.7
			s0.5,0.3,0.6,0.4c0.3,0.4,0.9,1.2,1.3,1.5C172.2,59.6,172,59.3,172,59.3z"/>
		<path class="st1" d="M140,42.5c0.2,0,0.4,0,0.5,0c0.3,0,0.5,0,0.8,0.1c0.1,0.1,0.1,0.8-0.2,0.7c-0.1,0-0.4,0.2-0.4,0.1
			c-0.1,0-0.1-0.1-0.1-0.2c-0.1-0.1,0.2-0.2,0.1-0.3s-0.4,0-0.3,0.1c0,0.4,0.4,0.7,0.8,0.7c0.1,0-0.1,0.5-0.5,0.4
			c-0.4-0.1-0.6-0.4-0.7-0.8c0-0.1,0-0.2,0-0.2C139.8,43.1,140,42.6,140,42.5z"/>
		<path class="st1" d="M93.4,46.5l0.2-0.6c0.3,0.3,0.2,0.7,0.5,0.8c0.4-0.5,0.5,0.6,0.3,0.8s-0.4-0.1-0.6-0.3S93.5,46.8,93.4,46.5z"
			/>
		<path class="st1" d="M134.8,50.4c-0.2-0.1-1.1-2.2-0.7-2.2s0.5,0.4,0.7,0.8S135.3,50.4,134.8,50.4z"/>
		<path class="st8" d="M124.4,55.9c-0.3-0.2-0.6-0.4-0.9-0.6c-0.1-0.1-0.8-0.7-0.7-0.8c0.7,0.3,1.4,0.7,1.9,1.3
			C124.8,55.8,124.6,55.9,124.4,55.9z"/>
		<path class="st1" d="M109.1,32.9l0.4-0.2c0.3,0,0.5,0,0.8,0.1c0.6,0,1.3,0.7,2,0.8c1.1,0,2.1,0.2,3.1,0.5c0.7,0.4,3.1,1.4,3.4,1.5
			s1.1,0.6,1.8,0.8c0.9,0.1,1.3,0.1,2.2,0.3c3.5,0.6,6.9,1.4,10.3,2.6c1.9,0.5,3.9,0.8,5.8,0.9c2.3,0.1,4.4,1.1,6.6,1.6
			c2.4,0.5,4.9,0.8,7.3,1.4c3.4,0.9,6.8,1.5,10.3,1.9c2,0.2,4,0.3,6,0.7c2.3,0.4,4.5,0.9,7,1.4c0.9,0.2,1.9,0.5,2.9,0.8
			c3,0.5,8.6,1.7,13,2.6c3.2,0.7,6.4,1.5,9.6,2.2l0.6,0.2l0.8,0.2c0.5,0.1,0.9,0.3,1.4,0.4s0.8,0.1,1.1,0.2c0.3,0.1,0.5,0.2,0.8,0.2
			c0.4-0.1,0.8,0.1,1.2,0.3c0.1,0,0.1,0,0.1,0.1c0.1,0.1,0.1,0.2,0,0.2c-2.1-0.3-4.2-0.8-6.3-1.3c-5.8-1.5-11.6-2.8-17.5-3.8
			c-2.5-0.5-5-1.1-7.6-1.6c-2.3-0.5-4.6-1.1-6.9-1.4c-3.8-0.6-7.6-1-11.3-1.5c-2-0.4-4-0.8-6-1.4c-0.9-0.2-1.9-0.5-2.7-0.6
			c-2.7-0.3-5.1-1.2-7.8-1.8c-1.2-0.3-2.3-0.4-3.5-0.5c-2.8-0.3-5.6-1-8.4-1.9c-2.8-0.9-5.7-1.5-8.7-1.9c-1.8-0.2-2.9-1.1-4.7-1.7
			c-0.8-0.4-1.7-0.8-2.7-1c-0.7,0-1.5-0.2-2.1-0.4C110.9,33.5,110.1,33.1,109.1,32.9z"/>
		<path class="st2" d="M203.2,55.4l-6.1-0.7c-0.3,0-0.7-0.1-1-0.2c-1.4-0.4-2.6-1.2-4.1-1.5c-2.6-0.4-5.2-1-7.8-1.7
			c-2.3-0.3-4.3-0.5-6.6-1c-0.4-0.1-1.6-0.4-1.2,0.4c-0.6-0.3-0.6-0.7-0.2-1c0.7,0,1.4,0,2,0.3c2,0.5,4.1,0.7,6.2,0.8
			c0.2,0.4,1.6,0.7,2.7,0.9c1.9,0.4,3.3,0.8,5.1,1.1c0.3,0,0.6,0.1,0.8,0.1c1.1,0.6,2.3,1,3.5,1.3c1.7,0.4,3.7,0.5,5.3,0.7
			c0.4,0,0.8,0.1,1.2,0.2C203.4,55.1,203.4,55.2,203.2,55.4C203.3,55.4,203.3,55.4,203.2,55.4z"/>
		<path class="st2" d="M207.8,54.4v-0.2c2.7,0,5.4,0.5,7.9,1.3c0.7,0.2,1.5,0.4,2.2,0.5l1.7,0.4c2.1,0.4,4.3,0.7,5.8,1.1
			c0.8,0.1,1.6,0.3,2.3,0.5c0.1,0-0.3,0.2-0.2,0.3c-1.1-0.3-3.2-0.7-4.2-0.8c-5-0.7-10.4-2.4-14.4-2.8
			C208.6,54.5,208.2,54.5,207.8,54.4z"/>
		<path class="st2" d="M247.8,63.6v0.1c-1.9-0.5-3.7-1-5.5-1.7c-2.7-0.8-5.4-1.6-8.2-2.3c-2.2-0.6-4.4-1.1-6.6-1.6
			c-0.1,0-0.3,0-0.4-0.3c1.4,0,2.7,0.6,4.1,0.7c0.4,0,0.8,0.1,1.2,0.2c0.7,0.3,0.5,0.2,1.1,0.4c3.5,1,6.9,2,10.4,3
			C245.2,62.6,246.5,63,247.8,63.6z"/>
		<path class="st12" d="M243.3,64.1c-3.3-0.4-6.6-1.2-9.7-2.2c-1.9-0.5-3.8-1-5.8-1.4c-0.7-0.1-1.4-0.2-2.1-0.3
			c0.1-0.3,0.3-0.1,0.4-0.3c3.1,0.5,6.2,1.1,9.3,2.1c2.2,0.7,4.5,1.3,6.8,1.7c0.4,0.1,1.2,0.2,1.6,0.3
			C243.7,64.1,243.4,64,243.3,64.1z"/>
		<path class="st34" d="M203.2,55.4c0-0.1,0-0.3,0-0.4c1.4,0.1,3,0.4,4.4,0.4c1,0.1,2,0.4,2.8,0.9c0.5,0.1,1.1,0.2,1.7,0.2
			c2.3,0.4,4.5,1,6.7,1.7c0,0.2-0.1,0.1-0.2,0.2c-2-0.5-4-1.1-6-1.3c-0.4,0-0.8-0.1-1.3-0.1c-0.4,0-0.8-0.1-1.2-0.2
			c-0.8-0.5-1.6-0.8-2.6-0.9C206.1,56,204.7,55.4,203.2,55.4z"/>
		<path class="st1" d="M218.4,58.4c0.1-0.1-0.2-0.3-0.2-0.4c0.6,0.1,1.2,0.2,1.8,0.4c2.1,0.7,4.2,1.2,6.4,1.5
			c-0.2,0.1-0.5,0.2-0.7,0.3C223.2,60,220.7,59,218.4,58.4z"/>
		<path class="st1" d="M176.3,49.8c-0.1,0.3,0.1,0.6,0.2,1c0.5,0.9,1.1,1.8,1.8,2.6c0.1,0.1,0.1,0.2,0,0.3c-0.2,0.2-2.2-1.2-2.8-3.4
			v-0.4C175.8,49.7,176.1,49.7,176.3,49.8z"/>
		<path class="st1" d="M243.1,64.1l0.4-0.2c1.3,0.2,2.6,0.5,3.9,0.9c0,0.1-0.1,0-0.1,0.1C245.9,64.7,244.5,64.4,243.1,64.1z"/>
		<path class="st1" d="M231.7,54.7c0.9,0.2,1.7,0.5,2.5,0.9c0,0.2,0.1,0.3,0,0.3c-0.2,0-0.4,0.1-0.6-0.1c-0.4-0.2-0.5-0.4-0.9-0.5
			c0,0-0.4-0.1-0.4-0.1S231.5,54.8,231.7,54.7z"/>
		<path class="st1" d="M232.2,55c0,0.1,0,0.1,0,0.2c-1.9-0.4-3.6-1.4-5.4-1.9c-1-0.3-1.9-0.6-2.9-1c-0.1-0.1-0.1-0.2,0-0.2
			c0,0,0,0,0,0l1.1,0.2c0.6,0.2,0.6,0.2,1.3,0.4l0.8,0.3C228.9,53.7,230.6,54.1,232.2,55z"/>
		<path class="st1" d="M224,52c0,0.1-0.1,0.2-0.1,0.3c-1.4-0.5-4.7-1.8-4.6-2c0,0,0.1-0.2,0.3-0.2C220.3,50.3,222.8,51.4,224,52z"/>
		<path class="st1" d="M214.6,63.4c-0.1,0.1-2.5,0-3.6,0c-0.1-0.1-0.1-0.2-0.2-0.3c0,0,1.2-0.1,1.3-0.1c0.6,0,2.3-0.2,2.5,0.1
			C214.7,63.2,214.7,63.3,214.6,63.4z"/>
		<path class="st1" d="M210.8,63.3c0,0,0.1,0.2,0,0.3c-1.8,0-2,0.5-2.1,1c-0.1,0-0.5,0-0.6,0C208.1,62.9,210.8,63.2,210.8,63.3z"/>
		<path class="st22" d="M245.4,65c0.4,0.1,1.1,0.3,1.5,0.3c0.2,0,0.2,0.1,0.6,0.2c0.1,0,0.1,0.1,0,0.1c-0.8,0-1.6-0.2-2.4-0.3
			c-1.4-0.2-2.9-0.4-3.2-0.4c-0.1,0-0.2-0.2-0.1-0.2S245.1,65,245.4,65z"/>
		<path class="st1" d="M176.9,54.6l-0.4-0.6c0-0.4-0.7-1.8-0.4-1.8s0.6,1.2,0.8,1.5c0.3,0.6,1,0.6,1.7,0.5c1.1-0.2,2.1,0,2.3,1
			c0.1,0.5,0.9-0.1,1.2,1.4c0.3,0.6,0.4,1.4,1.1,1.5c0.1,0.1,0.1,0.3,0,0.5s-0.3,0.1-0.4,0c-0.4-0.1-0.6-0.5-0.7-0.9
			c-0.1-0.3-0.2-0.5-0.4-0.8c-0.1-0.2-0.1-0.7-0.4-0.8c-0.4-0.2-0.8-0.6-1-1c-0.5-0.3-1.1-0.4-1.7-0.3
			C178.1,55.2,177.4,55.1,176.9,54.6z"/>
		<path class="st1" d="M199.3,63.5c-0.7-0.6-1.4-1.3-1.9-2.1c-1-1.2-2-2.4-3.1-3.5c-0.1-0.1-0.4-0.3-0.2-0.5s0.5,0,0.6,0.1
			c0.6,0.6,1.1,1.2,1.6,1.8c1.1,1.3,2.3,2.7,3.3,4C199.6,63.4,199.5,63.5,199.3,63.5C199.4,63.5,199.3,63.5,199.3,63.5z"/>
		<path class="st1" d="M220.5,61.5c-2.1-0.1-4.3-0.4-6.3-0.9c-0.1,0-0.6-0.3-0.6-0.5s0.6,0,0.8,0c2.5,0.5,5.1,0.6,7.6,1.1
			C221.5,61.5,221,61.2,220.5,61.5z"/>
		<path class="st1" d="M197.3,58.1c-1.1-0.8-2.1-1.7-3-2.7c-0.1-0.1-0.5-0.3-0.4-0.5s0.6-0.1,0.7,0c1,0.9,1.9,1.9,2.8,2.9
			C197.5,58.1,197.5,58.2,197.3,58.1z"/>
		<path class="st1" d="M188.7,56.1c-0.8-0.7-1.8-1.2-2.7-1.7c-0.2-0.1-0.7-0.5-0.5-0.8s0.6,0.3,0.8,0.4
			C187.2,54.3,189.4,55.5,188.7,56.1z"/>
		<path class="st1" d="M210.6,58.8c0.5,0.9,1.3,0.9,1.9,1.4c0.1,0.1,0.6-0.2,0.5,0.2s-0.2,0.6-0.7,0.4s-0.5-0.6-1.3-0.8
			C210.4,59.9,210.5,58.8,210.6,58.8z"/>
		<path class="st1" d="M190.6,54c0.9,0.3,1.6,0.8,2.2,1.6c0,0.1-0.1,0.1-0.2,0.2s-0.2,0.3-0.3,0.2c-0.5-0.6-1.1-1.1-1.8-1.3
			c-0.1-0.1-0.2-0.2-0.1-0.4C190.5,54.1,190.6,54,190.6,54z"/>
		<path class="st1" d="M220.5,61.5c0.4-0.2-0.1-0.3,0.3-0.3c0.6,0,3.1-0.1,3.1,0.3C224,61.7,221.6,61.6,220.5,61.5z"/>
		<path class="st1" d="M206.7,59.6c0,0.2-0.1,0.3-0.2,0.3c-0.4-0.2-0.7-0.6-0.9-1c0-0.1,0.1-0.3,0.2-0.2
			C206.2,58.8,206.5,59.1,206.7,59.6z"/>
		<path class="st23" d="M85.8,6.7c0,0.1,0,0.2-0.1,0.3c-0.3-0.1-0.2,0-0.3-0.1c0.1-0.2-0.1-0.1,0.1-0.2S85.8,6.6,85.8,6.7z"/>
		<path class="st18" d="M269.7,71.5c0.6,0.2,1.2,0.5,1.7,0.9c-0.1,0-0.2,0.1-0.3,0.1c-0.5-0.3-1.1-0.4-1.4-0.8L269.7,71.5z"/>
		<path class="st18" d="M263.1,68.5c0.8,0.1,1.6,0.3,2.4,0.4c0.6,0.1,1.3,0.3,1.8,0.6c-0.6-0.1-2.9-0.6-3.6-0.8L263.1,68.5z"/>
		<path class="st18" d="M267.2,69.1c0.9,0.1,1.7,0.3,2.5,0.5c0.2,0.1,0,0.2,0,0.3c-0.6-0.2-1.4-0.3-2.2-0.5L267.2,69.1z"/>
		<path class="st19" d="M275.9,71.9c0,0,0-0.2,0.1-0.2s2.5,1.2,2.9,1.2c0,0,0,0.2,0,0.2C277.8,72.8,276.8,72.4,275.9,71.9z"/>
		<path class="st1" d="M10.9,14.5C8,14.6,6.3,13.7,5.4,14c0,0-3.4-0.5-3.3-0.5c1.5-0.4,7.3,0.7,8.6,0.8
			C10.8,14.2,10.8,14.4,10.9,14.5z"/>
		<path class="st1" d="M8.9,18.2c0-0.1-0.1-0.3,0.1-0.3c0.8,0.1,1.2,0.2,2.2,0.3c0.4,0.1,0.8,0.2,1.3,0.3c0.5,0,1.1,0.1,1.6,0.2
			c1.2,0.2,0.4,0,2.5,0.4c-0.1,0.3,0.5,0.4-0.3,0.4c-1.5-0.2-2.4-0.4-5-0.8c-0.4-0.1-0.7-0.2-1.1-0.3C9.3,18.3,9.5,18.2,8.9,18.2z"
			/>
		<path class="st1" d="M10.8,18.8c0.4-0.1,1.3,0.3,1.6,0.3c0.1,0-0.1,0.1-0.3,0.3c-0.5,0-0.9-0.3-1.3-0.2
			C10.7,19.1,10.8,18.9,10.8,18.8z"/>
		<path class="st1" d="M19.8,35.3c0.3-0.5,0.5-0.5,1-0.3c0.1-0.1,0.8-0.5,0.9-0.8c0.2-0.1-0.1-0.3,0.1-0.3c0,0,0.4-1.1,0.3-1.1
			c-0.7,0.5-0.1,0.9-0.5,0.9c-0.6-0.1-0.8,0.4-1.3,0.7c-0.2,0.1-0.5,0.4-0.6,0.5c-0.3,0.2-0.6,0.4-1,0.5c-0.1,0.1-0.8,0.6-0.6,0.7
			S19.7,35.4,19.8,35.3z"/>
		<path class="st1" d="M41.4,8.7c0-0.1-0.5,0.5-0.1,0.6s0.7,0.2,0.9,0.1s0.3-0.1,0.1-0.3C41.7,9.1,41.9,8.9,41.4,8.7z"/>
		<path class="st1" d="M54.8,16c0,0.1,0.5,0,0.4-0.1s0-0.6-0.2-0.6s-0.6,0-0.5,0.3C54.9,15.7,54.6,15.7,54.8,16z"/>
		<path class="st1" d="M65.5,41.4c0.1,0.2-0.1,0.6,0,0.8s0.1-0.1,0.3,0.4c-0.2,0.4-0.2,0.3-0.4,0.2c-0.1-0.5-0.5-0.4-0.5-1.5
			C65,40.7,65.4,41.3,65.5,41.4z"/>
		<path class="st1" d="M64.2,41.2c0,0-0.2,0-0.2,0.1c0,0.6,0,1.1-0.2,1.7c-0.2,0.2-0.1,0.7,0,0.8c0,0.4,0.1,0.7,0.4,1
			c0.4,0.3,0.6,0.9,0.5,1.4c-0.1,0.3-0.9-1.2-1.2-1.6c-0.3-0.5-0.5-1.1-0.5-1.7c0-0.2,0.4-0.3,0.5-0.1c0-0.6,0.1-1.3,0.2-1.9
			c0-0.1,1.1-3.5,1.1-3.5C65.1,37,64.1,41.2,64.2,41.2z"/>
		<path class="st1" d="M55.4,31.2c0.2-0.1,0.5-0.1,0.4,0.2c-0.4,0.6-0.4,0-0.7,0.2s-0.5-0.2-0.3-0.4S55.2,31.2,55.4,31.2z"/>
		<path class="st1" d="M67.4,28.3c-0.1,0-0.2,0-0.3,0.1S67,29,67,29.3s0.2,0.4,0.3,0.7c0.1-0.1,0.4,0,0.5-0.1s-0.4-0.5-0.4-0.7
			C67.5,28.9,67.5,28.6,67.4,28.3z"/>
		<path class="st27" d="M70,28.5c0.1,0,0.2,0.1,0.3,0.1c0,0.6,0.3,2.6,0.2,2.6C70.1,31.3,70.1,29.1,70,28.5z"/>
		<path class="st27" d="M70.2,34.8c0.1-0.1,0.2-0.1,0.3,0c0.1,0.5,0.1,0.9,0.2,1.4C70.3,36.1,70.3,35.4,70.2,34.8z"/>
		<path class="st27" d="M72.3,29c0.2-0.1,0.2,0,0.4,0c0,0.6,0.2,2,0.1,2C72.4,31.1,72.4,29.7,72.3,29z"/>
		<path class="st27" d="M72,29h0.2c-0.1,0.6,0.3,4.9,0.1,4.9C72,33.9,72.1,29.6,72,29z"/>
		<path class="st27" d="M71.6,30.7c0.1,0,0.2,0.4,0.3,0.4c-0.2,0.4-0.3,3.4-0.5,3.6C71,34.7,71.4,31.3,71.6,30.7z"/>
		<path class="st27" d="M71.2,30.1c0.1,0,0.1,0.3,0.2,0.3c-0.1,0.1,0.1,0.7,0,0.7C70.9,31.1,71.2,30.2,71.2,30.1z"/>
		<path class="st1" d="M45.8,29.4c0.2,0.1,0.4,0.3,0.2,0.5c-0.8,0.1-0.3-0.3-0.6-0.4S45.2,29,45.5,29S45.7,29.3,45.8,29.4z"/>
		<path class="st27" d="M71.3,34.8c0.1-0.1,0.2-0.2,0.3,0c0.1,0.9-0.1,1.2-0.1,1.2C71.1,35.9,71.4,35.4,71.3,34.8z"/>
		<path class="st1" d="M75.4,31.9l0.1-0.1c0.2,0.1,0.3,0,0.4,0.1c0.2,0.1,0.1,0.1,0.3,0.3c0.5,0.1,0.9,0.3,1.3,0.7
			c0.2,0.2,0.1,0.3,0.2,0.5c-0.3,0.1-0.2,0.3-0.4,0c-0.1-0.3-0.3-0.5-0.6-0.6c-0.2-0.1-0.4-0.1-0.7-0.2c-0.7-0.5,0-0.5-0.4-0.5
			S75.4,32.1,75.4,31.9z"/>
	</g>
</g>
</svg>
