<svg xmlns="http://www.w3.org/2000/svg" viewBox="0 0 186.03 323.58"><defs><style>.cls-1,.cls-2,.cls-3,.cls-5,.cls-6{fill:none;stroke:#181716;}.cls-1,.cls-2,.cls-3{stroke-linecap:round;}.cls-1,.cls-2{stroke-linejoin:round;}.cls-1{stroke-width:0.39px;}.cls-2,.cls-3{stroke-width:0.26px;}.cls-3,.cls-5,.cls-6{stroke-miterlimit:10;}.cls-4,.cls-7{fill:#181716;}.cls-5{stroke-width:0.65px;}.cls-6{stroke-width:0.52px;}.cls-7{font-size:6px;font-family:BaskervilleMTPro-Regular, Baskerville MT Pro;}.cls-8{letter-spacing:0.01em;}.cls-9{letter-spacing:0em;}.cls-10{letter-spacing:0.01em;}.cls-11{letter-spacing:-0.01em;}</style></defs><g id="Layer_2" data-name="Layer 2"><g id="text"><g id="_11855b_draft_galley" data-name="11855b_draft_galley"><path class="cls-1" d="M64.28,161.59l-.77-.61-.58-.46-.71-.25-.39-.14-.36-.54-.67.16h-.46l-.42.13-.58,0H58.6l-.52.36-.35.54-.29.78-.2.84v.9l-.16.91-.19.48h-.16l-.61-.16-.52-.2a3,3,0,0,0-.52,0c-.09,0-.55.39-.87.36a4.58,4.58,0,0,0-1.13.23l-.42.25a2.49,2.49,0,0,0-.26.52c0,.1.1.42,0,.52s0,.35,0,.35h.29"/><path class="cls-1" d="M52.66,165.91l-.87,1a.59.59,0,0,0-.23.38c-.06.29,0-.08-.06.29s-.16.11,0,.37.05.24.22.29.17,0,.35,0"/><path class="cls-1" d="M51.79,166l-.15.55a4,4,0,0,0-.23,1.5c.12.28.15.24.17.39a7.88,7.88,0,0,0,.69,1.89c.38.6.76,1.18,1.13,1a1.17,1.17,0,0,0,.7-.39c.4-.35.42-.6.74-.89s.32-.37.57-.42.12-.11.41,0a3,3,0,0,1,1,.64c.29.28.29.29.53.31s.65-.4.65-.4.19-.33.45-.33.77.07.77.07l.46.14a.53.53,0,0,0,.46.13,5,5,0,0,0,1-.43l.86-.59.93-.77s.67-.35.67-.6a7.56,7.56,0,0,0-.17-1V166c0-.19-.3-.24-.27-.8s.1-1.13.1-1.26a4.16,4.16,0,0,1,.17-.73c.07-.19.38-.87.38-.87"/><path class="cls-1" d="M65.28,173a8.06,8.06,0,0,1,.44-.84,5.59,5.59,0,0,1,.76-1c.48-.53,0-.19.61-.66s.66-.28,1-.7a8.32,8.32,0,0,1,.94-1.3c.29-.2.76-.68.81-.54a.61.61,0,0,1,.06.3c0,.22.05-.12,0,.33a23.35,23.35,0,0,1-.69,2.33l-.74,1.71s-.13-.16-.17.16,0,.11-.09.52-.1.38-.39.61a2.29,2.29,0,0,0-.48.55c-.18.21,0,.4-.26.61s-.29.19-.41.42-.22.68-.29.87a6.73,6.73,0,0,1-.21,1.37c-.16.29-.42.84-.59,1.17s0,.17-.41.61a9.24,9.24,0,0,1-1.68,1.37c-.17,0-.22.17-.33,0s-.16-.14-.16-.27v-.38c0-.27-.09-.13,0-.49s0-.18.16-.59.1-.19.11-.59-.11,0,0-.58a2.85,2.85,0,0,1,.22-.75c.21-.48.46-.76.54-1l.12-.36c.12-.32.08-.2.18-.51s.12-.18.22-.5.14-.31.14-.53a1.34,1.34,0,0,1,0-.46,3,3,0,0,1,.17-.49C65,173.35,65.28,173,65.28,173Z"/><path class="cls-1" d="M72.49,160.58c.37.19,0,.26.47.26s.2.08.63,0,.47-.06.6,0a1.24,1.24,0,0,1,.45.46,3,3,0,0,1,.16.69,1.87,1.87,0,0,0,.3.58c.5.47.31.38.6.56a1.12,1.12,0,0,0,.69.13s.53-.28.64-.52.11-.29.2-.39.4-.26.42-.29a1.84,1.84,0,0,1,.36-.15.57.57,0,0,0,.24-.13,1.37,1.37,0,0,1,.16-.2l.41-.06a.33.33,0,0,0,.33,0c.19-.08.08-.28.08-.28l-.27-.26s0-.07-.22-.09l-.24,0c-.22,0-.2,0-.34-.07l-.71-.4s-.21-.17-.28-.21,0,0-.13-.07l-.51-.22a2,2,0,0,0-.3-.19c-.07,0,0,0-.11,0H76s-.11.1-.18.1h-.34l-.42,0c-.13,0-.07,0-.2,0l-.21.09-.25.07h-.44l-.52.1-.55.15a.86.86,0,0,0-.28.08c-.11.06-.09,0-.11.06s0,0,0,.06"/><path class="cls-1" d="M86.65,188.38a.23.23,0,0,0-.18.08L86,189a4.79,4.79,0,0,1-.41.53,8.11,8.11,0,0,0-.67,1.27,1.6,1.6,0,0,0-.14.56,1.87,1.87,0,0,1-.23.83l-.55.73s-.49.48-.58.59a.92.92,0,0,0-.18.25c0,.08,0,0-.06.14s0,.38-.15.52a5.24,5.24,0,0,0-.32.55s-.16.36-.18.43-.44.41-.52.51a2.08,2.08,0,0,0-.26.42c0,.11,0,.16-.07.26s-.11.33-.16.5,0,.16-.16.43a2.85,2.85,0,0,0-.28.48,4.08,4.08,0,0,0-.15.49s0,0,0,0,0,.51-.07.64,0,0-.13.19a2.75,2.75,0,0,0-.31.65c0,.14-.07.51-.07.51a3,3,0,0,0,0,.67,1.46,1.46,0,0,0,.15.27,1,1,0,0,1,.07.25,4.17,4.17,0,0,0,.34.7c.23.3.44.53.44.53a.92.92,0,0,0,.77.06l.45-.4.59-1.22s.45-1,.6-1.52.28-1.05.28-1.05.17-.54.26-.75a1.31,1.31,0,0,0,.14-.38,5.12,5.12,0,0,1,0-.52l.12-.15a1.27,1.27,0,0,0,.08-.35,1.29,1.29,0,0,1,.06-.26,6.56,6.56,0,0,1,.14-.73,1.68,1.68,0,0,0,.19-.5c0-.23,0-.38.08-.49s.23-.46.23-.46l.18-.56s.12-.32.12-.32l.2-.47a.81.81,0,0,0,.15-.33c.07-.24.1-.41.1-.41s.06-.53.08-.57l0-.07a.93.93,0,0,0,.11-.42,2.16,2.16,0,0,1,0-.44,1.34,1.34,0,0,1,.15-.29l.07-.2s0-.23,0-.3.13-.11.13-.18a1.64,1.64,0,0,1,0-.27l.11-.27s0,0,.08-.14a1.62,1.62,0,0,0,0-.37s0-.23-.12-.25A.72.72,0,0,0,86.65,188.38Z"/><path class="cls-1" d="M95.22,184.76l-.14-.54a3.11,3.11,0,0,1,0-.62,5.75,5.75,0,0,1,.38-.74A2.92,2.92,0,0,1,96,182a11.73,11.73,0,0,1,1.16-1.37,11.29,11.29,0,0,1,1.28-1.06,3.69,3.69,0,0,0,.58-.3,1.17,1.17,0,0,1,.56-.3,4,4,0,0,1,1-.08,5.49,5.49,0,0,1,1.25.8"/><path class="cls-1" d="M101.5,179.34c-.09.26-.1-.07-.09.26s0,.41,0,.46-.3.22-.3.22a1.93,1.93,0,0,0-.42.59c-.22.44-.37,1-.48,1.16s-.18.17-.22.32a1.64,1.64,0,0,0,0,.87c.09.53,0,.39.14.72a2,2,0,0,1,.21.59.79.79,0,0,1-.06.52,4.6,4.6,0,0,1-.32.59c-.18.27-.18.17-.25.39a1.58,1.58,0,0,0-.09.31c-.06.23,0,.21-.1.32s-.16.09-.19.21,0,.31-.1.44.06-.06-.11.2a1.17,1.17,0,0,0-.22.44c0,.11,0,.23,0,.3s-.12.05-.15.16a4,4,0,0,1-.61,1c-.29.34-.46.72-.69.92a2.37,2.37,0,0,0-.56.53c-.13.23-.05.12-.19.38a2.15,2.15,0,0,1-.17.34,2.71,2.71,0,0,1-.45.67,1.12,1.12,0,0,1-.37.25c-.06,0,0,0-.11,0s-.09,0-.1-.2-.05-.23-.05-.57.06-.17,0-.38-.06,0,0-.37a4.16,4.16,0,0,0-.07-.86,4.85,4.85,0,0,0-.13-.48,2.74,2.74,0,0,0-.31-.85c-.18-.23-.28-.31-.42-.47a.65.65,0,0,1-.23-.65c0-.42.08-1.16.08-1.16a5.18,5.18,0,0,1,.06-.9c.06-.11.23-.53.23-.53"/><path class="cls-2" d="M87.18,102.15c-.06.13-.23.14-.37.3a4.57,4.57,0,0,1-.34.36c-.24.22-.36.17-.39.42a1.35,1.35,0,0,0,.23.74.66.66,0,0,1,.1.32"/><path class="cls-2" d="M42.11,161.72c0,.12.18.28.27.29s.24.13.37.17l.3.11a1.39,1.39,0,0,0,.38.09c.14,0,0,.07.55.08a5.38,5.38,0,0,0,1.11-.13,2.05,2.05,0,0,0,.65-.15,3.6,3.6,0,0,0,.58-.39c.09-.07.63-.85.63-.85a.45.45,0,0,1,.37,0c.21.1.4.08.52.16a.6.6,0,0,0,.22.12.69.69,0,0,0,.25.1,1.63,1.63,0,0,0,.36,0,1.6,1.6,0,0,0,.48-.11.6.6,0,0,0,.19-.08"/><path class="cls-2" d="M49.72,161a.27.27,0,0,0,.18-.13s.05,0,.06,0a.26.26,0,0,0,0-.09"/><path class="cls-2" d="M49.84,160.23a1.24,1.24,0,0,1,.19.13c.07.08,0,0,.2.11a.83.83,0,0,0,.31.06H51c.08,0,.19-.1.37-.14a.9.9,0,0,0,.43-.2c.12-.12.3-.18.41-.34a1.69,1.69,0,0,1,.38-.38,1.87,1.87,0,0,1,.22-.16"/><path class="cls-2" d="M53,159.18s.07-.15.12-.17.09,0,.13-.07a.59.59,0,0,0,.05-.12"/><path class="cls-2" d="M52,160.54a.67.67,0,0,0,.38,0c.12-.05.27-.16.34-.19a3.13,3.13,0,0,0,.36-.19c.07,0,.28-.24.34-.28a.93.93,0,0,0,.26-.24c.05-.1.23-.33.28-.45s0-.23.09-.32a3.18,3.18,0,0,1,.17-.27c.06-.05.07-.23.11-.35a1.32,1.32,0,0,1,.13-.29,2.45,2.45,0,0,1,.21-.3s.38-.76.43-.88a1,1,0,0,0,0-.36,1.9,1.9,0,0,1,0-.25c0-.06,0-.62.05-.7a1.75,1.75,0,0,0,.33-.39c0-.05.34-.59.36-.62l.1-.15"/><path class="cls-2" d="M55.3,156c0-.2.14-.38.15-.59s0-.51,0-.68a3.48,3.48,0,0,0,0-.46c0-.08-.35-.57-.31-.68a5.23,5.23,0,0,1,.53-.62"/><path class="cls-2" d="M55.62,151.61c-.43-.42-.37-.32-.43-.42s-.29-.09-.32-.5-.06-.64-.06-.8a9.08,9.08,0,0,1,.16-1.42,2.33,2.33,0,0,1,.37-.63,3.67,3.67,0,0,0,.5-.69,5,5,0,0,1,.23-.83,1.19,1.19,0,0,1,.64-.35h.56"/><path class="cls-2" d="M56.71,149.26c-.15.12-.33.14-.41.32s-.15.16-.11.28a.22.22,0,0,0,.25.16h.27"/><path class="cls-2" d="M58,145.06a.73.73,0,0,1,.3,0c.2,0,.15.06.34.13s.29.07.37.18l.07.12"/><path class="cls-2" d="M60.17,144.52s0-.05.17,0,0,.06.14.06h.24"/><path class="cls-2" d="M62.57,145.44a2.41,2.41,0,0,0,.3.05c.13,0,.49,0,.57,0s.26-.13.34-.15a1.07,1.07,0,0,0,.3-.17.85.85,0,0,1,.36-.17c.14,0,.28,0,.42-.05s.24-.06.34-.1a.84.84,0,0,1,.16-.07"/><path class="cls-2" d="M69.21,138.93a.44.44,0,0,1-.25-.37,1,1,0,0,1,.13-.41.63.63,0,0,1,.24-.32,1,1,0,0,0,.19-.13"/><path class="cls-2" d="M72.77,128.77a1.14,1.14,0,0,0-.75.2,1.37,1.37,0,0,0-.32.4c-.09.2-.2.52-.33.8s-.06.32-.34.6a1.22,1.22,0,0,0-.37.58c0,.15-.08,1.08-.13,1.32a4.44,4.44,0,0,0-.19.64,1.81,1.81,0,0,1-.26.93c-.17.17-.69.77-.84.94s-.51.48-.54.67a6.26,6.26,0,0,0-.28,1.31c-.1,1,.11,1.34,0,1.62a1,1,0,0,1-.47.54,2,2,0,0,0-.52.81,3.45,3.45,0,0,0-.21,1c0,.37.09.95-.26,1.21a6.59,6.59,0,0,0-.52.43c-.21.19-.08.3-.36.49s-.3.22-.45.31"/><path class="cls-2" d="M71.63,128.77a3.35,3.35,0,0,0-.82.75,7.81,7.81,0,0,0-.49.84,6.66,6.66,0,0,0-.43,1.85c0,.39-.11,1.68-.11,1.83s-.22,1.38-.26,1.6-.36.84-.56,1.37a6.06,6.06,0,0,0-.34,1c-.07.34.06.58,0,.66a14.67,14.67,0,0,0-1.49,1.53,5.19,5.19,0,0,0-.38.91c-.13.4-.15,1.11-.24,1.26a9.14,9.14,0,0,0-.3,1"/><path class="cls-2" d="M68.08,127.48a5.38,5.38,0,0,1,.75,1.29,5.66,5.66,0,0,1-.13,1.62,12.83,12.83,0,0,0,0,2.53,7.23,7.23,0,0,0,.09,1.36,10.05,10.05,0,0,1-.07,2.22c0,.28-.13,1.35-.13,1.35l0,.43,0,.37v0"/><path class="cls-2" d="M77.68,119.11a5.78,5.78,0,0,1-.68.81c-.23.29-.55.16-.77.58s-.3.61-.2.9,0,.36-.45,1.1-.78,1.94-1.16,2.52-.81,1.55-1.1,2-.88,1.64-.88,1.64l0,.1"/><path class="cls-2" d="M84.1,106a1.13,1.13,0,0,0-.61.2.53.53,0,0,0-.16.36c0,.22.07.49.07.77s0,.32,0,.5a1.41,1.41,0,0,1-.22.4.78.78,0,0,1-.38.38c-.32.19-1.23,1.19-1.38,1.3s-.69.53-.7.89a2.68,2.68,0,0,1-.11.86,5.56,5.56,0,0,1-.2.71c-.21.6-.5,1.62-.74,2.52a4.26,4.26,0,0,1-.75,1.69,3.17,3.17,0,0,0-.47.7,3.54,3.54,0,0,0-.16.41"/><path class="cls-2" d="M64.94,180a1.2,1.2,0,0,1,0,.5,1.84,1.84,0,0,1-.13.57c-.08.2-.19.29-.27.51a1,1,0,0,1-.31.55c-.25.26-.14.27-.63.52s-.67.3-.74.35-.27,0-.27,0"/><path class="cls-2" d="M63.43,182.75c0,.16-.42.26-.49.42s-.21.19-.27.35a1.1,1.1,0,0,0-.08.33l0,.1"/><path class="cls-2" d="M62.07,185.28c0-.1-.08-.45-.18-.35a2.5,2.5,0,0,0-.21.35c-.06.1-.19.13-.3.29a1.5,1.5,0,0,0-.23.37,1,1,0,0,1-.29.37s0-.07,0,.1.16-.08,0,.32a2.27,2.27,0,0,1-.16.41c-.13.26-.18.32-.18.48v.49c0,.4.13.46,0,.75a2.09,2.09,0,0,0-.19.71c0,.18-.13.2-.1.35s-.32-1.48-.31-1.69.13-1,.13-1.17a4.35,4.35,0,0,1,.34-.84.53.53,0,0,1,.47-.36c.29-.05.08-.13.13-.22a4.21,4.21,0,0,0,.19-.54c.08-.25.1-.29.16-.5s.15-.22.25-.38.16-.15.34-.08a1.84,1.84,0,0,0,.3.08,2.82,2.82,0,0,0,.58-.54,2.47,2.47,0,0,1,.55-.45c.08-.06.82-.21.86-.32"/><path class="cls-2" d="M60.84,189.56a1,1,0,0,0,0-.26.33.33,0,0,0-.19.13c-.06.1-.47.34-.42.49s.11.46.18.67a2.07,2.07,0,0,0,.21.47c.08.14.22.21.23.27s.09.07.09.17,0,0,0,.24-.13.42,0,.56a1.29,1.29,0,0,0,.42.34,3.48,3.48,0,0,0,.34.13.31.31,0,0,0,.17,0l.18.1s-.37,0-.48.08a.62.62,0,0,0-.21.26c-.05.09-.16.13,0,.21a2,2,0,0,0,.66.09c.16,0,.52-.14.69,0a.47.47,0,0,0,.42.15h.5a.61.61,0,0,1,.44,0c.18.09.32.08.48.26l.44.42s.27-.07.39,0a.23.23,0,0,0,.24,0,.64.64,0,0,0,.18-.14"/><path class="cls-2" d="M65.32,196.12c-.13,0-.2,0-.29-.12a.7.7,0,0,0-.29-.3.89.89,0,0,0-.39-.17c-.24,0-.27-.08-.4,0l-.2,0"/><path class="cls-2" d="M66.56,194.74c0,.2,0,.27,0,.34s0,.12,0,.19a.17.17,0,0,1-.15.11c-.09,0-.08,0-.21.05l-.33.17c-.09.06-.08,0-.28.09a.65.65,0,0,1-.32.08,1.7,1.7,0,0,0-.23,0c-.2,0-.07.06-.28,0s-.1-.11-.36-.11a2.06,2.06,0,0,1-.37,0c-.24,0-.26-.14-.37-.22s-.05-.12-.29-.19-.55-.12-.72-.16a.43.43,0,0,1-.31-.33.56.56,0,0,0-.22-.4.74.74,0,0,1-.28-.39,1.58,1.58,0,0,1-.09-.37c0-.06,0-.27,0-.27"/><path class="cls-2" d="M61.63,193.87c.07,0,.09,0,.31.07s.28.06.33.17a1.8,1.8,0,0,1,.1.33.54.54,0,0,0,.13.25c.07.07.19.08.41.15a4.16,4.16,0,0,0,.84.08c.37,0,.57,0,.91,0a3.52,3.52,0,0,0,.79,0c.2-.05.18-.11.44-.14s-.07,0,.35,0a4.74,4.74,0,0,1,.58,0,.91.91,0,0,1,.4,0,1,1,0,0,1,.2.08c.13.08,0,0,.21.18s.17.21.29.25.1.05.18.05h.29a2.31,2.31,0,0,0,.47-.12,2,2,0,0,0,.67-.36c0-.07.44-.48.46-.51a5.25,5.25,0,0,1,.54-.62c.11-.07.56-.48.71-.62a4.41,4.41,0,0,0,.47-.54c.08-.14.32-.46.36-.57a3.42,3.42,0,0,0,.06-.78c0-.24,0-.58,0-.66s0-.33,0-.33"/><path class="cls-2" d="M69.76,195c0-.28,1.16-1.68,1.12-1.85a1.63,1.63,0,0,1,0-.93c.13-.19-.06-.62,0-.75s.3-.34.43-.52.78-.59.77-.71.22-.48.35-1,.32-1,.41-1.31a3.88,3.88,0,0,0,.17-1.08,7.78,7.78,0,0,1,.32-1.89c.15-.43.11-.45,0-.56a15.79,15.79,0,0,1-.47-1.55c0-.06-.2-1.21-.3-1.38s-.52-.38-.76-.79a3.69,3.69,0,0,1-.38-.82"/><path class="cls-2" d="M66.58,176.18c.4.08.51.15.66.08s.47-.21.67-.27.3-.2.51-.13.43.08.54.32.24.54.41.6-.13-.06.39.11.79.08.88.39a7.76,7.76,0,0,0,.3,1.14c.17.36.13.6.3.6s.46-.28.61,0a7.37,7.37,0,0,1,.64,1.44c.2.65.33.64.26,1.07s.09.57.26,1,.28.82.42,1.12.29.24.29.53-.09.24-.09.54-.11.69-.11,1a2.35,2.35,0,0,1-.09.58"/><path class="cls-2" d="M66.58,177.13s.64-.31.7-.31.69-.43.89-.47.28-.13.36.11.37.51.54.86a4.13,4.13,0,0,0,.69,1,7.57,7.57,0,0,1,.88.73c.22.28.43.19.43.9v1.54c0,.23.09,1.15.11,1.29a1,1,0,0,1,0,.77,4.57,4.57,0,0,0-.11,1.8,8.69,8.69,0,0,0,.2,1.49c.1.28.24.32.32.75s-.08.67,0,.95.06,1.51.13,1.79a3.69,3.69,0,0,1-.13,1.07"/><path class="cls-2" d="M71.11,178.91a6.87,6.87,0,0,0,0,2.17c.13.56.32.87.48,1.4a2.9,2.9,0,0,1,.23,1.19c0,.56.15,1,.15,1.37a2.62,2.62,0,0,0,.16,1c.1.24.23.48.23.48"/><path class="cls-2" d="M68,177.19c-.25,0-.45.37-.6.39s-.43-.15-.6.17a6.17,6.17,0,0,1-.65.82,4.78,4.78,0,0,0-.38.51c-.11.18-.31.18-.35.61s-.06.25-.09.84a2.33,2.33,0,0,1-.17,1,1.92,1.92,0,0,0-.18.82,5.4,5.4,0,0,1-.1,1.15,1.11,1.11,0,0,1-.25.45c-.16.21-.22.3-.22.45"/><path class="cls-2" d="M65.63,180.79c0-.22-.06-.41.22-.63a3.06,3.06,0,0,0,.49-.56c.13-.15-.06,0,.24-.26a1.16,1.16,0,0,1,.53-.26c.07,0,.39.28.54.26s.49-.3.67-.26.3-.08.43.09a4,4,0,0,1,.26.75c0,.05.17.26.32.54a2.13,2.13,0,0,1,.21.9c0,.24.18.84.22,1.15s.12,1.17.15,1.44-.15.32,0,.62,0,.39.24.45a2,2,0,0,0,.45.13,1.1,1.1,0,0,0,.42-.08"/><path class="cls-2" d="M68.49,177.19a1.23,1.23,0,0,0,.26.54c.08.13.08.15.19.15h.48"/><path class="cls-2" d="M64.17,183.56a4.68,4.68,0,0,0,1,.28,5.57,5.57,0,0,1,.84,0,3.14,3.14,0,0,1,1-.28c.17.06.83-.25,1.14,0a2.52,2.52,0,0,1,.58.76,1.17,1.17,0,0,1,.2.65c0,.28.18.34.38.6s0,.22.43.5.32.43.39.45"/><path class="cls-2" d="M70.15,186.91c.1.33.19.42.25.67s.13.64.18.79,0,.27,0,.33"/><path class="cls-2" d="M71,189.74a.63.63,0,0,0,0,.49,1.55,1.55,0,0,1,.14.24v.11"/><path class="cls-3" d="M90.07,94.71c-.35-15.62-.49-22-.54-24.65"/><polygon class="cls-4" points="89.49 68.24 90.6 70.78 89.53 70.2 88.5 70.83 89.49 68.24"/><line class="cls-3" x1="90.4" y1="102.91" x2="90.14" y2="96.53"/><polygon class="cls-4" points="90.07 94.71 91.22 97.23 90.15 96.67 89.13 97.31 90.07 94.71"/><path class="cls-1" d="M118.32.19a7.88,7.88,0,0,0-1.2.39,4.63,4.63,0,0,0-.94.46,3.53,3.53,0,0,0-.36.3,1.14,1.14,0,0,1-.41.48,6.53,6.53,0,0,1-.59.39c-.26.16,0,.06-.42.2s0,.08-.49.17-.44.11-.8.19a2.58,2.58,0,0,0-1.13.39,16.26,16.26,0,0,0-1.38,1.11l-1,1-1.11,1.12A4.33,4.33,0,0,0,108,7c-.15.27,0,.1-.22.34s-.07.17-.31.31-.12.14-.39.19-.08,0-.36.06a1.49,1.49,0,0,0-.36.06,2.69,2.69,0,0,0-.58.38l-.86.89a5,5,0,0,1-.48.49c-.31.26-.29.36-.63.53l-.9.47a2.82,2.82,0,0,1-.55.18,1.31,1.31,0,0,0-.66.18,15.3,15.3,0,0,0-1.7,1.61s-.53.63-.77.84a2.26,2.26,0,0,1-.71.46c-.26.08-.73,0-1,.18a1.39,1.39,0,0,0-.5.54,3.09,3.09,0,0,1-.32.59,2.52,2.52,0,0,1-.4.54c-.21.21-.21.37-.52.48a1.17,1.17,0,0,1-.36.11,6.22,6.22,0,0,1-.7.12l-.45.07a2.39,2.39,0,0,0-.86.57c-.29.29-1.19,1.58-1.19,1.58l-.36.65c-.17.28,0,0-.23.34a4.44,4.44,0,0,1-.61.79c-.07.06-.1.27-.39.23a5.76,5.76,0,0,1-.92-.33l-.43-.1h-.2l-.14,0a2.5,2.5,0,0,0-.28.22L87.56,21.8l-.84.95c-.21.22-.51.54-.75.75a3.69,3.69,0,0,1-.76.52,1.84,1.84,0,0,1-.48.21,1.09,1.09,0,0,1-.52.08,9.59,9.59,0,0,0-1-.07,1.44,1.44,0,0,0-.61.34c-.16.18-.34.39-.49.59a8.37,8.37,0,0,0-.65.94c-.3.48-.51.83-.73,1.21s-.33.59-.51.69a1.41,1.41,0,0,1-.5.09,1.18,1.18,0,0,0-.43,0,.58.58,0,0,0-.26.19c-.1.11-.44.44-.45.45s-.39.47-.41.48-.17.24-.38.51a4.61,4.61,0,0,1-.28.38,2.35,2.35,0,0,1-.41.42,7.17,7.17,0,0,1-.62.46,5.8,5.8,0,0,1-.78.38,5.6,5.6,0,0,1-.71.27,2.33,2.33,0,0,0-.72.44,8.5,8.5,0,0,0-1,.92c-.23.31-.68.91-1,1.29s-.7.35-.86.63a1.59,1.59,0,0,0-.13.74,1.26,1.26,0,0,1,0,.45,2.24,2.24,0,0,1-.43.84,4.88,4.88,0,0,1-.53.65c-.44.35-1,.46-1,.59a.35.35,0,0,0,0,.25l.09.2s0,.13,0,.15,0,.17,0,.23a1.08,1.08,0,0,1-.19.17.84.84,0,0,1-.26.1c-.15,0-.23,0-.39,0a.76.76,0,0,0-.32.06,1.57,1.57,0,0,0-.3.31s0,.28,0,.3a.84.84,0,0,0,.09.22c.06.06.05,0,.1.1a.73.73,0,0,0,.09.12"/><path class="cls-1" d="M66.79,40.84c.07,0,0,0,.1,0s.07,0,.12,0,0-.06.12-.08.12,0,.21,0a.35.35,0,0,1,.15,0"/><path class="cls-1" d="M64.32,42.86c.31-.17.16,0,.35-.17a.79.79,0,0,0,.26-.19c.17-.15.45-.15.44-.24S65,42,64.92,42l-.54-.13a1.38,1.38,0,0,0-.55,0c-.42,0-.24,0-.54.06s-.33.07-.5.19a3.64,3.64,0,0,0-.71.56,13,13,0,0,0-.94,1.1l-1,1.43a1.38,1.38,0,0,1-.2.25c-.13.13,0,.12-.19.18a3.2,3.2,0,0,1-.32.08"/><path class="cls-1" d="M64.22,44.89,64,45a2.15,2.15,0,0,0-.47.16l-.66.25a3.25,3.25,0,0,0-.76.38c-.1.06-.38.2-.51.3a3.93,3.93,0,0,1-.53.37c-.21.12-.27.32-.43.33s-.19,0-.26-.16-.19-.55-.19-.61-.11-.6-.11-.6"/><path class="cls-1" d="M63.21,45.69a1.9,1.9,0,0,0,.32.16c.36.16.32.31.72.18a4.78,4.78,0,0,0,.94-.51,5.86,5.86,0,0,0,.66-.46,5.6,5.6,0,0,1,.59-.33,2.13,2.13,0,0,1,.35-.06,4.82,4.82,0,0,1,.59.11c.11,0,1.17.1,1.17.1a7.76,7.76,0,0,0,1.45,0,6.89,6.89,0,0,0,1.46-.44l1.46-.8a2.26,2.26,0,0,1,.63-.28H74a.48.48,0,0,1,.3.11,3.5,3.5,0,0,1,.27.28,1,1,0,0,1,.09.31c0,.12-.09,1.11-.09,1.15a22.22,22.22,0,0,0-.29,2.55,2.9,2.9,0,0,1,.07.59,3.4,3.4,0,0,1,0,.42.63.63,0,0,1-.12.36c-.09.16-.64.61-.67.68s-.76,1-1.62,2-.13.12-.86,1S69.24,55,69.24,55l-.7.93-1.11,1.85s-.44.84-.68,1.47a12.35,12.35,0,0,0-.47,1.31,4.19,4.19,0,0,1-.44,1.13,13.26,13.26,0,0,1-1,1.45s0,0-.34.48-.79,1.6-.79,1.6L62.82,67,61.9,68.5a30.63,30.63,0,0,0-1.74,2.86c-1.3,2.29-1.89,3.41-1.89,3.41l-.65,1.49a8.54,8.54,0,0,0-.44,1.06c-.11.39-.14.38-.28.88a6.21,6.21,0,0,1-.47,1.28,15.92,15.92,0,0,1-1.26,2.13l-1.59,2.64L52.4,86.14s-.41.52-1.13,1.37-.89,1.12-1.51,1.87-1.14,1.26-1.32,1.54-.07.48-.21.7,0,.15-.27.32-.19.11-.39.27-.54.55-.54.55-1,1-1,1-1.86,2-1.86,2l-2.45,2.7-3.25,4.07L38,103l-.57.43c-.22.15-1,.58-1,.58l-1,.66a5.44,5.44,0,0,0-.63.47,3.88,3.88,0,0,1-.71.64c-.49.37-3.11,2.12-3.11,2.12a15.39,15.39,0,0,1-1.39.77c-.44.19-1.49.6-1.57.64l-1.38.67a4.16,4.16,0,0,1-1,.42c-.93.37-.61.19-1.2.45a19,19,0,0,0-1.76,1.07l-2.42,1.54-1.33.89c-.16.11-1.58.89-1.58.89a7.78,7.78,0,0,1-1,.54,5.75,5.75,0,0,1-.88.4l-.67.25a5.63,5.63,0,0,0-1,.55l-1,.69-1.45,1.29-2.05,1.79a14.78,14.78,0,0,0-1.33,1.07,9.91,9.91,0,0,0-.62,1.06s-.33.6-.62,1.05-1,2.1-1,2.1l-.44.82C5.31,127,5,127.93,5,128s-.09.54-.22.61-.15.07-.16.13-.12.88-.12,1.06a3.82,3.82,0,0,1-.11.59c-.08.47,0,.12-.14.84s-.23,1.55-.26,1.62-.25.88-.31,1.06-.41,1-.44,1.12a7.85,7.85,0,0,0-.11.95,2.71,2.71,0,0,1-.1,1.14c-.18.46-.35.85-.4,1a8.15,8.15,0,0,0-.37,1c0,.14-.12.83-.12.83a2.4,2.4,0,0,1-.07.38c-.06.16,0-.06-.1.22l-.3.82a.58.58,0,0,0,0,.32,1.18,1.18,0,0,0,.18.4,1.81,1.81,0,0,1,.29.63,7.24,7.24,0,0,1,0,.82c0,.1-.22.9-.22.94s-.17.85-.17,1,0,.73,0,.9v1.1l-.12,2.14s-.14,1.81-.14,1.84,0,.63,0,1a1.47,1.47,0,0,1-.06.7,1.74,1.74,0,0,1-.2.29,2.57,2.57,0,0,0-.19.47,4.46,4.46,0,0,0-.08.46c0,.08,0,1,0,1s-.14.42-.17.48-.11.45-.17.68-.3,2.07-.3,2.07a8.92,8.92,0,0,0,0,1c0,.53,0-.31,0,.72a14.8,14.8,0,0,0,.29,2.06,7,7,0,0,0,.58,1.87c.41.76-.17-.16.41.76a23.86,23.86,0,0,0,2,2.68c.44.49,1.34,1.63,1.76,2a15.34,15.34,0,0,0,1.67,1.2s.52.24,1.24.64.29.24.93.56.38.19,1,.51a4.47,4.47,0,0,0,1.09.55c.31.05,1.28.07,1.28.07s1.14,0,1.7-.13a5.38,5.38,0,0,1,.82-.07,4.34,4.34,0,0,0,.73-.19,8.72,8.72,0,0,1,.9-.28c.21,0,.69-.17.69-.17l.34-.1.5-.28.7-.29s.66-.18.71-.18l.67-.12.5-.17,1.21-.45s.43-.29.55-.34a2.12,2.12,0,0,1,.33-.11c.09,0,.46-.25.46-.25l.74-.8c.43-.14.62-.25.74-.27a5.65,5.65,0,0,0,.69-.48,5.67,5.67,0,0,1,.57-.36l.46-.15.25-.11a2.75,2.75,0,0,0,.7-.52s.54-.66.58-.69.5-.62.5-.62l.87-.74,1.45-1.38a9.2,9.2,0,0,1,.88-.6,8.52,8.52,0,0,1,1.5-.94c.4-.06.48,0,1-.05a1.1,1.1,0,0,0,.71-.37l.8-.89a3.62,3.62,0,0,0,.84-1c.18-.42.27-.86.34-1s.31-1,.33-1a2.18,2.18,0,0,1,.21-.67c.15-.26.4-.73.44-.77s.4-.32.4-.32h.15"/><path class="cls-1" d="M37.86,156.92a1.92,1.92,0,0,0-.09.67,2.26,2.26,0,0,0,.33,1A6.32,6.32,0,0,0,39.21,160a11.15,11.15,0,0,0,1.24,1.12c.78.61.81.47,1.11.79a3.66,3.66,0,0,1,.8,2.25,11.34,11.34,0,0,1,0,1.27c0,.45,0,1.2,0,1.78a11.73,11.73,0,0,0,.2,3.14c0,.11.14.46.32,1,.11.37.18.59.26.85.16.56.25,1,.34,1.41a12.77,12.77,0,0,0,.44,2c.17.43.21.35.43.9A9.4,9.4,0,0,1,44.8,178c.12.52.06.41.24,1.29a13.72,13.72,0,0,1,.29,1.43c.07.52,0,.53.1,1a9.46,9.46,0,0,0,.31,1.12c.11.31.13.32.27.73.28.78.45,1.37.5,1.53.16.56.11.52.27,1.09a14.12,14.12,0,0,0,.79,2.38,3,3,0,0,1,.26.7c.05.2,0,.26.11.74,0,.26.06.39.09.55a5.86,5.86,0,0,0,.22.67,11.51,11.51,0,0,0,.56,1.32c.21.36.28.33.61.86.18.28.33.56.36.61.19.34.21.41.32.61a4.32,4.32,0,0,0,.56.74c1.33,1.48,1.94,1.81,2.06,2.58a5.22,5.22,0,0,1-.18,1.31,5.47,5.47,0,0,1-.35,1.34,9.93,9.93,0,0,1-1.51,1.79.53.53,0,0,0-.1.13,1.26,1.26,0,0,0,.27,1.23.27.27,0,0,1,.11.21c0,.09-.1.15-.14.19-.21.21,0,.9.3,1.4.05.07.28.32.73.83.13.13.19.21.21.22.82.91.34,4.45.34,4.45a10.2,10.2,0,0,0-.1,2,3.1,3.1,0,0,0,.17,1,2.26,2.26,0,0,0,1.18,1.32,3.26,3.26,0,0,0,1.63-.09,12.36,12.36,0,0,1,1.21-.27,9.11,9.11,0,0,1,1.61.19l1,.17a3.88,3.88,0,0,0,1.21.14,6.42,6.42,0,0,1,.86-.25,6.83,6.83,0,0,1,.7,0,3.27,3.27,0,0,0,.86-.07c.34-.12.52-.44.88-1.08a2.84,2.84,0,0,0,.46-1c0-.51-.19-.74-.35-1.32a3.89,3.89,0,0,1,0-1.66c.2-1.29,1.07-2.09,2.17-3.11.26-.24,1.31-1.18,2-1.14a6.21,6.21,0,0,0,.72,0,3.48,3.48,0,0,0,.61-.05,5.24,5.24,0,0,0,.87-.28,3.94,3.94,0,0,1,1.09-.15c.86-.06.94.05,1.62,0a6.14,6.14,0,0,0,1.17-.23c.87-.23,1-.41,1.51-.42h.87a3,3,0,0,0,.5,0c.33-.06.59-.33.94-.93.46-.79.42-1.7.82-1.88a.33.33,0,0,0,.18-.12c.09-.12,0-.23.08-.56a1.93,1.93,0,0,1,0-.27,2.2,2.2,0,0,1,.18-.43l.2-.42a4.32,4.32,0,0,0,.29-.89c.24-1,0-1.32.26-1.79a3,3,0,0,0,.26-.67.43.43,0,0,1,0-.18.71.71,0,0,1,.12-.2,1.32,1.32,0,0,0,.2-.48c.11-.35.09-.39.16-.61.12-.37.22-.32.36-.68s.07-.48.23-.85c.1-.22.18-.23.22-.4s0-.39,0-.63.21-.34.38-.69.08-.57.2-1.32a8.81,8.81,0,0,1,.21-.9c0-.14.19-.72.54-1.79a9.32,9.32,0,0,0,.37-1.2,6.51,6.51,0,0,0,.06-1.23c0-.59,0-1.19,0-1.78a28.77,28.77,0,0,1,.26-3.4c.23-2.26.26-2.28.41-3.92a11,11,0,0,1,.17-1.7,3.28,3.28,0,0,0,.22-1.61c0-.16-.05-.17-.07-.31s0-.53.43-1.37c.19-.37.17-.29.26-.5.25-.55.23-.77.47-1a4.69,4.69,0,0,1,.43-.26,2.38,2.38,0,0,0,.69-.69c.72-.92,2.37-.61,2.71-1.52a2.28,2.28,0,0,0,.13-.82,2.57,2.57,0,0,1,0-.73c0-.12.1-.47.3-.52s.35.11.56.28a1.79,1.79,0,0,0,.28.22.7.7,0,0,0,.37.1c.18,0,.29-.2.43-.45.4-.71.35-.77.52-1s.13-.12.9-.69a7.13,7.13,0,0,0,.8-.62,2.47,2.47,0,0,0,.55-1.08"/><path class="cls-1" d="M94.75,162.09a1,1,0,0,1-.21-.44,1.11,1.11,0,0,1,0-.38,1.17,1.17,0,0,1,.1-.26c.15-.28.29-.29.37-.49a.55.55,0,0,0,0-.45c-.08-.14-.22-.12-.69-.26a4.22,4.22,0,0,0-.78-.21.92.92,0,0,0-.48.05,2,2,0,0,0-.37.39,2.26,2.26,0,0,1-.34.35l-.15.12c-.22.11-.38-.07-.85-.12a.88.88,0,0,0-.5.05c-.1.05-.1.09-.23.15a1.21,1.21,0,0,1-.4.11c-.19,0-.21,0-.31,0a1.06,1.06,0,0,0-.24.18l-.18.18-.21.16a.92.92,0,0,1-.21.13.59.59,0,0,1-.3,0c-.2,0-.22-.24-.42-.42a1.2,1.2,0,0,0-.52-.21,7.87,7.87,0,0,0-1.07-.1,1.8,1.8,0,0,1-1.25-.66c-.22-.33,0-.47-.26-.93a1.59,1.59,0,0,0-.89-.86,1.3,1.3,0,0,0-.92,0c-.26.12-.3.28-.66.42s-.37.15-.5.1-.25-.42-.55-.53a.39.39,0,0,0-.16,0"/><path class="cls-1" d="M81.6,158.93a1.25,1.25,0,0,0-.58-.17,1.44,1.44,0,0,0-.34.05"/><path class="cls-1" d="M78.86,158.38a1.06,1.06,0,0,1,.24-.12,1.09,1.09,0,0,1,.34-.06,2.4,2.4,0,0,1,.46.05,1.06,1.06,0,0,0,.3,0,1.17,1.17,0,0,0,.29,0,1,1,0,0,0,.33-.28c.25-.28.2-.35.34-.45a1.12,1.12,0,0,1,.52-.11l.4,0,.44,0c.34-.05.38-.19.58-.16s.16.15.37.23a1.32,1.32,0,0,0,.63,0c.41,0,.44-.1.68-.11a2.32,2.32,0,0,1,.64.06c.16,0,.47.08,1,.21l.85.19a.93.93,0,0,0,.57,0,1.26,1.26,0,0,0,.29-.21,2,2,0,0,0,.51-.63c.1-.21.08-.31.21-.42a.78.78,0,0,1,.29-.16.79.79,0,0,1,.37-.07.74.74,0,0,1,.41.19,2.11,2.11,0,0,1,.61.8,2.41,2.41,0,0,1,.21.72"/><path class="cls-1" d="M90.62,158.64a.4.4,0,0,0-.05.33.45.45,0,0,0,.23.23.78.78,0,0,0,.35.06c.16,0,.2,0,.28,0s.06.06.16.14a.63.63,0,0,0,.21.13.79.79,0,0,0,.23,0,1,1,0,0,0,.48-.18c.27-.17.28-.27.5-.37a1.55,1.55,0,0,1,.34-.08c.32-.05.44,0,.6-.05.41-.06.42-.34.87-.52s.53,0,.93-.09a1.9,1.9,0,0,0,.91-.68,7.25,7.25,0,0,0,1.39-2.79,3.76,3.76,0,0,1,.19-.57c.29-.67.53-.72.56-1s-.41-.91-.74-1.21-.54-.34-.93-.74c-.24-.24-.24-.47-.5-.61s-.22,0-.57-.18a5.52,5.52,0,0,0-.61-.29c-.17-.06-.23-.05-.31-.11a.81.81,0,0,1-.21-.47c-.06-.28-.22-.41-.68-.86-.88-.86-.61-.68-1.3-1.32s-1.28-1.13-1.28-1.13c-.66-.56-.85-.68-1-1-.09-.18-.15-.36-.39-.83a1.5,1.5,0,0,0-.44-.61,1.29,1.29,0,0,0-.51-.21,1.65,1.65,0,0,0-.79,0c-.2,0-.19.1-.54.23s-.48.18-.59.13-.12-.28-.31-.74a1.58,1.58,0,0,0-.32-.59c-.34-.31-.65-.08-1-.35s-.08-.48-.41-1.11c-.19-.38-.3-.36-.42-.7a7.53,7.53,0,0,1-.14-.84c-.09-.44-.13-.39-.2-.74a2.63,2.63,0,0,1,.05-1.32c.07-.19.09-.16.18-.39a3.51,3.51,0,0,0,.23-1.11c0-1.17.54-2.18.63-4.36a23.17,23.17,0,0,1,.06-3,9.62,9.62,0,0,1,.31-1.53,19.19,19.19,0,0,1,1.09-2.59c.36-.79.53-1.19.6-1.37a7.47,7.47,0,0,1,.6-1.43,5.46,5.46,0,0,1,.84-1c.35-.37.84-.86,1.47-1.41l-.18-.89"/><path class="cls-1" d="M88.2,121.24a10.42,10.42,0,0,0,.68-.87c.3-.44.44-.71.81-1.36.66-1.17.67-1.08.9-1.55a11.76,11.76,0,0,0,.68-1.84c.41-1.17,1.21-1.7,2.71-3,1.19-1,2.27-2.14,3.45-3.16,4-3.41,5.91-5.17,6.17-5.36a16.05,16.05,0,0,0,3.29-3.1,7.41,7.41,0,0,0,.84-1.16c.39-.76.26-1,.64-1.55s.67-.43,1.1-1A3.69,3.69,0,0,0,110,96a11.48,11.48,0,0,0,.36-1.87c.15-1,.44-2.57.54-3.13a2.59,2.59,0,0,0,.07-1.49c-.18-.5-.48-.55-.81-1.22a2.19,2.19,0,0,1-.29-1.36c.11-.53.46-.59.74-1.07.64-1-.43-1.9,0-3.32.22-.67.47-.5,1.13-1.71a18.87,18.87,0,0,0,.84-2A15.4,15.4,0,0,1,114,75.92a4.61,4.61,0,0,1,1.45-1.71c.67-.39,1-.22,2.07-.78a7.43,7.43,0,0,1,1.16-.61"/><path class="cls-1" d="M118.54,104.42a11.83,11.83,0,0,0-1.32,1.36c-.45.51-.53.68-.58.87-.15.56.16.82,0,1.29s-.4.47-.91.87a7.58,7.58,0,0,0-1.25,1.33c-.88,1.07-.8,1.58-1.84,3.06,0,.07-.31.38-.62.81s-.48.71-.58.87a3.07,3.07,0,0,0-.45,1,6.75,6.75,0,0,0,0,.71,4.74,4.74,0,0,1-.2,1,6.49,6.49,0,0,0,.23,2.71c.37,1.68.88,2.58.84,3.36a1.7,1.7,0,0,0,.06.61,2.19,2.19,0,0,0,.42.71c.26.35.22.67.23,2,0,.91,0,1.37,0,1.71a9.54,9.54,0,0,0,.36,2.1c.3,1.05.51,1.06.64,1.78a7.61,7.61,0,0,1-.16,2.22c-.3,2.65-.28,2.88-.19,3.14a1.62,1.62,0,0,1,.09.9,2.45,2.45,0,0,1-.32.74c-.18.29-.26.3-.32.49a.93.93,0,0,0,.09.77c.16.24.41.32.81.45s.48.09.68.23a1.41,1.41,0,0,1,.39.52,4.47,4.47,0,0,0,.67,1,2.51,2.51,0,0,0,1.2.38,9.56,9.56,0,0,0,1.61.16"/><line class="cls-5" x1="71.58" y1="152.16" x2="71.27" y2="160.48"/><line class="cls-5" x1="75.39" y1="174.46" x2="76.52" y2="179.54"/><line class="cls-5" x1="51.38" y1="180.74" x2="44.24" y2="185.94"/><line class="cls-5" x1="53.67" y1="168.77" x2="47.25" y2="171.79"/><line class="cls-5" x1="60.13" y1="170.27" x2="50.46" y2="174.93"/><line class="cls-5" x1="67.46" y1="165.81" x2="61.93" y2="172.69"/><line class="cls-5" x1="73.9" y1="164.38" x2="71.7" y2="171.19"/><line class="cls-5" x1="58.17" y1="180.51" x2="52.36" y2="187.2"/><line class="cls-5" x1="85.31" y1="147.99" x2="86.29" y2="155"/><line class="cls-5" x1="61.6" y1="146.51" x2="59.53" y2="153.4"/><line class="cls-5" x1="65.48" y1="149.41" x2="64.28" y2="156.92"/><line class="cls-5" x1="71.81" y1="141.05" x2="73.07" y2="147.5"/><line class="cls-5" x1="97.46" y1="179.34" x2="96.1" y2="183.58"/><line class="cls-5" x1="82.97" y1="195.03" x2="81.88" y2="201.02"/><line class="cls-5" x1="69.01" y1="199.58" x2="68.49" y2="204.77"/><line class="cls-5" x1="74.36" y1="196.62" x2="74.84" y2="202.29"/><line class="cls-5" x1="58.14" y1="172.82" x2="53.79" y2="177"/><line class="cls-5" x1="76.73" y1="187.07" x2="78.66" y2="192.77"/><line class="cls-5" x1="78.5" y1="150.05" x2="79.26" y2="155.48"/><line class="cls-5" x1="92.44" y1="151.17" x2="92.66" y2="157.16"/><line class="cls-5" x1="80.12" y1="178.26" x2="81.9" y2="182.98"/><line class="cls-5" x1="85.36" y1="162.7" x2="87.04" y2="167.09"/><line class="cls-5" x1="82.5" y1="164.9" x2="83.84" y2="169.73"/><line class="cls-5" x1="98.18" y1="184.47" x2="96.78" y2="189.35"/><line class="cls-5" x1="85.23" y1="140.89" x2="84.51" y2="145.03"/><line class="cls-5" x1="57.57" y1="198.37" x2="49.23" y2="204.63"/><line class="cls-5" x1="61.12" y1="203.84" x2="54.65" y2="208.87"/><line class="cls-5" x1="62.65" y1="210.44" x2="58.83" y2="213.67"/><line class="cls-5" x1="91.92" y1="105.21" x2="92.96" y2="110.8"/><line class="cls-5" x1="87.99" y1="113.07" x2="87.92" y2="119.93"/><text/><circle class="cls-6" cx="94.13" cy="159.59" r="3.06"/><circle class="cls-4" cx="94.13" cy="159.59" r="2.07"/></g><text class="cls-7" transform="translate(60.56 186.57)">Hi<tspan class="cls-8" x="6.31" y="0">g</tspan><tspan class="cls-9" x="9.19" y="0">h</tspan><tspan x="0" y="7.2">land</tspan></text><text class="cls-7" transform="matrix(0.65, -0.76, 0.76, 0.65, 54.99, 144.19)">Hi<tspan class="cls-10" x="6.31" y="0">g</tspan><tspan x="9.19" y="0">h land</tspan></text><text class="cls-7" transform="translate(98.34 160.08)">Sto<tspan class="cls-11" x="8" y="0">c</tspan><tspan x="10.5" y="0">kholm</tspan></text><text id="Riples" class="cls-7" transform="translate(41.1 187.13) rotate(-35.55)">Rifles</text></g></g></svg>